<?xml version="1.0" standalone="no"?>
<!DOCTYPE svg PUBLIC "-//W3C//DTD SVG 20010904//EN"
 "http://www.w3.org/TR/2001/REC-SVG-20010904/DTD/svg10.dtd">
<svg version="1.0" xmlns="http://www.w3.org/2000/svg"
 width="578.000000pt" height="578.000000pt" viewBox="0 0 578.000000 578.000000"
 preserveAspectRatio="xMidYMid meet">
<metadata>
Created by potrace 1.14, written by Peter Selinger 2001-2017
</metadata>
<g transform="translate(0.000000,578.000000) scale(0.100000,-0.100000)"
fill="#000000" stroke="none">
<path d="M2060 5752 c0 -60 -159 -1686 -229 -2347 -22 -203 -50 -466 -62 -583
l-23 -213 -40 3 c-29 2 -44 10 -60 31 -20 27 -21 43 -24 253 l-4 224 -95 0
-95 0 5 -247 c5 -276 10 -305 67 -364 50 -52 124 -71 198 -50 l33 10 -6 -42
c-3 -23 -28 -240 -56 -482 -50 -444 -155 -1313 -207 -1722 l-28 -223 1513 0
c1258 0 1513 2 1513 13 0 8 -22 191 -50 408 -27 217 -74 603 -104 859 -31 256
-60 501 -65 545 -6 44 -24 204 -42 357 l-31 276 46 44 c25 25 46 53 46 64 0
11 8 3 19 -21 27 -60 56 -75 146 -75 l76 0 -3 73 c-3 70 -4 72 -29 75 l-27 3
-4 172 c-4 150 -7 177 -25 212 -45 85 -104 117 -228 123 l-91 4 -32 312 c-59
564 -152 1504 -190 1916 l-37 405 -887 3 c-851 2 -888 1 -888 -16z m2158
-2795 c11 -12 24 -41 28 -65 l7 -42 -62 0 c-68 0 -67 -2 -75 78 l-5 52 43 0
c31 0 48 -6 64 -23z m32 -251 c0 -50 -18 -92 -46 -105 -41 -18 -54 -14 -54 18
0 15 -3 49 -6 75 l-7 46 57 0 56 0 0 -34z"/>
<path d="M760 2900 l0 -430 100 0 100 0 0 175 0 175 160 0 160 0 0 85 0 85
-160 0 -160 0 0 85 0 85 190 0 190 0 0 85 0 85 -290 0 -290 0 0 -430z"/>
<path d="M4885 3111 c-17 -10 -43 -33 -58 -50 l-27 -33 0 46 0 46 -95 0 -95 0
0 -450 0 -450 95 0 95 0 0 173 0 172 19 -31 c42 -70 137 -98 234 -70 71 21
129 83 155 165 26 86 23 268 -7 344 -44 112 -107 156 -221 157 -46 0 -74 -6
-95 -19z m85 -146 c47 -24 60 -61 60 -172 0 -145 -33 -190 -133 -180 -39 3
-56 11 -74 31 -21 25 -23 36 -23 141 0 62 4 125 10 140 18 48 104 69 160 40z"/>
</g>
</svg>
