<svg baseprofile="full" height="250" style="position:absolute;left:0;top:0;user-select:none" version="1.1" width="475" xmlns="http://www.w3.org/2000/svg" xmlns:xlink="http://www.w3.org/1999/xlink"><rect fill="none" height="250" id="0" width="475" x="0" y="0"></rect><g><path d="M173.1861 30.2829L119.7734 85.3265" fill="none" stroke="#aaa" stroke-opacity="0.5"></path><path d="M171.5276 216.2375L115.5142 163.0796" fill="none" stroke="#aaa" stroke-opacity="0.5"></path><path d="M251.1261 32.2349L248.1872 219.7899" fill="none" stroke="#aaa" stroke-opacity="0.5"></path><path d="M305.8173 88.0903L248.1872 219.7899" fill="none" stroke="#aaa" stroke-opacity="0.5"></path><path d="M303.8751 164.9584L119.7734 85.3265" fill="none" stroke="#aaa" stroke-opacity="0.5"></path><path d="M171.5276 216.2375L303.8751 164.9584" fill="none" stroke="#aaa" stroke-opacity="0.5"></path><path d="M171.5276 216.2375L173.1861 30.2829" fill="none" stroke="#aaa" stroke-opacity="0.5"></path><path d="M171.5276 216.2375L119.7734 85.3265" fill="none" stroke="#aaa" stroke-opacity="0.5"></path><path d="M171.5276 216.2375L248.1872 219.7899" fill="none" stroke="#aaa" stroke-opacity="0.5"></path><path d="M115.5142 163.0796L303.8751 164.9584" fill="none" stroke="#aaa" stroke-opacity="0.5"></path><path d="M171.5276 216.2375L305.8173 88.0903" fill="none" stroke="#aaa" stroke-opacity="0.5"></path><path d="M115.5142 163.0796L119.7734 85.3265" fill="none" stroke="#aaa" stroke-opacity="0.5"></path><path d="M115.5142 163.0796L305.8173 88.0903" fill="none" stroke="#aaa" stroke-opacity="0.5"></path><path d="M248.1872 219.7899L119.7734 85.3265" fill="none" stroke="#aaa" stroke-opacity="0.5"></path><path d="M303.8751 164.9584L251.1261 32.2349" fill="none" stroke="#aaa" stroke-opacity="0.5"></path><path d="M171.5276 216.2375L251.1261 32.2349" fill="none" stroke="#aaa" stroke-opacity="0.5"></path><path d="M305.8173 88.0903L303.8751 164.9584" fill="none" stroke="#aaa" stroke-opacity="0.5"></path><path d="M173.1861 30.2829L248.1872 219.7899" fill="none" stroke="#aaa" stroke-opacity="0.5"></path><path d="M251.1261 32.2349L119.7734 85.3265" fill="none" stroke="#aaa" stroke-opacity="0.5"></path><path d="M305.8173 88.0903L119.7734 85.3265" fill="none" stroke="#aaa" stroke-opacity="0.5"></path><path d="M115.5142 163.0796L251.1261 32.2349" fill="none" stroke="#aaa" stroke-opacity="0.5"></path><path d="M173.1861 30.2829L305.8173 88.0903" fill="none" stroke="#aaa" stroke-opacity="0.5"></path><path d="M303.8751 164.9584L248.1872 219.7899" fill="none" stroke="#aaa" stroke-opacity="0.5"></path><path d="M173.1861 30.2829L251.1261 32.2349" fill="none" stroke="#aaa" stroke-opacity="0.5"></path><path d="M115.5142 163.0796L248.1872 219.7899" fill="none" stroke="#aaa" stroke-opacity="0.5"></path><path d="M305.8173 88.0903L251.1261 32.2349" fill="none" stroke="#aaa" stroke-opacity="0.5"></path><path d="M173.1861 30.2829L115.5142 163.0796" fill="none" stroke="#aaa" stroke-opacity="0.5"></path><path d="M173.1861 30.2829L303.8751 164.9584" fill="none" stroke="#aaa" stroke-opacity="0.5"></path><path d="M1 0A1 1 0 1 1 1 -0.0001" fill="#5470c6" transform="matrix(19,0,0,19,303.8751,164.9584)"></path><path d="M1 0A1 1 0 1 1 1 -0.0001" fill="#5470c6" transform="matrix(19,0,0,19,248.1872,219.7899)"></path><path d="M1 0A1 1 0 1 1 1 -0.0001" fill="#5470c6" transform="matrix(19,0,0,19,171.5276,216.2375)"></path><path d="M1 0A1 1 0 1 1 1 -0.0001" fill="#5470c6" transform="matrix(19,0,0,19,115.5142,163.0796)"></path><path d="M1 0A1 1 0 1 1 1 -0.0001" fill="#5470c6" transform="matrix(19,0,0,19,119.7734,85.3265)"></path><path d="M1 0A1 1 0 1 1 1 -0.0001" fill="#5470c6" transform="matrix(19,0,0,19,173.1861,30.2829)"></path><path d="M1 0A1 1 0 1 1 1 -0.0001" fill="#5470c6" transform="matrix(19,0,0,19,251.1261,32.2349)"></path><path d="M1 0A1 1 0 1 1 1 -0.0001" fill="#5470c6" transform="matrix(19,0,0,19,305.8173,88.0903)"></path><path d="M-32.4922 -5l64.9844 0l0 33l-64.9844 0Z" fill="rgb(0,0,0)" fill-opacity="0" stroke="#ccc" stroke-width="0" transform="translate(237.5 5)"></path><text dominant-baseline="central" fill="#333" style="font-size:23px;font-family:sans-serif;font-weight:bolder;" text-anchor="middle" transform="translate(237.5 5)" y="11.5">C100</text></g></svg>