<svg baseprofile="full" height="250" style="position:absolute;left:0;top:0;user-select:none" version="1.1" width="475" xmlns="http://www.w3.org/2000/svg" xmlns:xlink="http://www.w3.org/1999/xlink"><rect fill="none" height="250" id="0" width="475" x="0" y="0"></rect><g><path d="M172.9635 219.7569L118.0265 164.9618" fill="none" stroke="#aaa" stroke-opacity="0.5"></path><path d="M118.7784 87.4209L170.5668 30.4657" fill="none" stroke="#aaa" stroke-opacity="0.5"></path><path d="M250.3156 215.6215L118.7784 87.4209" fill="none" stroke="#aaa" stroke-opacity="0.5"></path><path d="M306.59 163.8245L118.7784 87.4209" fill="none" stroke="#aaa" stroke-opacity="0.5"></path><path d="M306.59 163.8245L170.5668 30.4657" fill="none" stroke="#aaa" stroke-opacity="0.5"></path><path d="M303.2792 85.9673L170.5668 30.4657" fill="none" stroke="#aaa" stroke-opacity="0.5"></path><path d="M248.487 31.9813L118.0265 164.9618" fill="none" stroke="#aaa" stroke-opacity="0.5"></path><path d="M172.9635 219.7569L118.7784 87.4209" fill="none" stroke="#aaa" stroke-opacity="0.5"></path><path d="M170.5668 30.4657L248.487 31.9813" fill="none" stroke="#aaa" stroke-opacity="0.5"></path><path d="M306.59 163.8245L250.3156 215.6215" fill="none" stroke="#aaa" stroke-opacity="0.5"></path><path d="M118.7784 87.4209L248.487 31.9813" fill="none" stroke="#aaa" stroke-opacity="0.5"></path><path d="M303.2792 85.9673L306.59 163.8245" fill="none" stroke="#aaa" stroke-opacity="0.5"></path><path d="M303.2792 85.9673L250.3156 215.6215" fill="none" stroke="#aaa" stroke-opacity="0.5"></path><path d="M303.2792 85.9673L172.9635 219.7569" fill="none" stroke="#aaa" stroke-opacity="0.5"></path><path d="M250.3156 215.6215L248.487 31.9813" fill="none" stroke="#aaa" stroke-opacity="0.5"></path><path d="M170.5668 30.4657L118.0265 164.9618" fill="none" stroke="#aaa" stroke-opacity="0.5"></path><path d="M250.3156 215.6215L170.5668 30.4657" fill="none" stroke="#aaa" stroke-opacity="0.5"></path><path d="M306.59 163.8245L248.487 31.9813" fill="none" stroke="#aaa" stroke-opacity="0.5"></path><path d="M303.2792 85.9673L248.487 31.9813" fill="none" stroke="#aaa" stroke-opacity="0.5"></path><path d="M118.7784 87.4209L118.0265 164.9618" fill="none" stroke="#aaa" stroke-opacity="0.5"></path><path d="M303.2792 85.9673L118.7784 87.4209" fill="none" stroke="#aaa" stroke-opacity="0.5"></path><path d="M172.9635 219.7569L306.59 163.8245" fill="none" stroke="#aaa" stroke-opacity="0.5"></path><path d="M172.9635 219.7569L250.3156 215.6215" fill="none" stroke="#aaa" stroke-opacity="0.5"></path><path d="M250.3156 215.6215L118.0265 164.9618" fill="none" stroke="#aaa" stroke-opacity="0.5"></path><path d="M306.59 163.8245L118.0265 164.9618" fill="none" stroke="#aaa" stroke-opacity="0.5"></path><path d="M303.2792 85.9673L118.0265 164.9618" fill="none" stroke="#aaa" stroke-opacity="0.5"></path><path d="M172.9635 219.7569L248.487 31.9813" fill="none" stroke="#aaa" stroke-opacity="0.5"></path><path d="M172.9635 219.7569L170.5668 30.4657" fill="none" stroke="#aaa" stroke-opacity="0.5"></path><path d="M1 0A1 1 0 1 1 1 -0.0001" fill="#5470c6" transform="matrix(19,0,0,19,306.59,163.8245)"></path><path d="M1 0A1 1 0 1 1 1 -0.0001" fill="#5470c6" transform="matrix(19,0,0,19,250.3156,215.6215)"></path><path d="M1 0A1 1 0 1 1 1 -0.0001" fill="#5470c6" transform="matrix(19,0,0,19,172.9635,219.7569)"></path><path d="M1 0A1 1 0 1 1 1 -0.0001" fill="#5470c6" transform="matrix(19,0,0,19,118.0265,164.9618)"></path><path d="M1 0A1 1 0 1 1 1 -0.0001" fill="#5470c6" transform="matrix(19,0,0,19,118.7784,87.4209)"></path><path d="M1 0A1 1 0 1 1 1 -0.0001" fill="#5470c6" transform="matrix(19,0,0,19,170.5668,30.4657)"></path><path d="M1 0A1 1 0 1 1 1 -0.0001" fill="#5470c6" transform="matrix(19,0,0,19,248.487,31.9813)"></path><path d="M1 0A1 1 0 1 1 1 -0.0001" fill="#5470c6" transform="matrix(19,0,0,19,303.2792,85.9673)"></path><path d="M-32.4922 -5l64.9844 0l0 33l-64.9844 0Z" fill="rgb(0,0,0)" fill-opacity="0" stroke="#ccc" stroke-width="0" transform="translate(237.5 5)"></path><text dominant-baseline="central" fill="#333" style="font-size:23px;font-family:sans-serif;font-weight:bolder;" text-anchor="middle" transform="translate(237.5 5)" y="11.5">C101</text></g></svg>