<svg baseprofile="full" height="250" style="position:absolute;left:0;top:0;user-select:none" version="1.1" width="475" xmlns="http://www.w3.org/2000/svg" xmlns:xlink="http://www.w3.org/1999/xlink"><rect fill="none" height="250" id="0" width="475" x="0" y="0"></rect><g><path d="M300.3766 165.7868L248.5352 222.6235" fill="none" stroke="#aaa" stroke-opacity="0.5"></path><path d="M120.9041 83.9697L174.425 29.1821" fill="none" stroke="#aaa" stroke-opacity="0.5"></path><path d="M170.995 213.6898L300.3766 165.7868" fill="none" stroke="#aaa" stroke-opacity="0.5"></path><path d="M300.3766 165.7868L113.8489 162.1481" fill="none" stroke="#aaa" stroke-opacity="0.5"></path><path d="M170.995 213.6898L174.425 29.1821" fill="none" stroke="#aaa" stroke-opacity="0.5"></path><path d="M174.425 29.1821L248.5352 222.6235" fill="none" stroke="#aaa" stroke-opacity="0.5"></path><path d="M252.8204 33.5981L300.3766 165.7868" fill="none" stroke="#aaa" stroke-opacity="0.5"></path><path d="M174.425 29.1821L300.3766 165.7868" fill="none" stroke="#aaa" stroke-opacity="0.5"></path><path d="M252.8204 33.5981L307.1018 89.0018" fill="none" stroke="#aaa" stroke-opacity="0.5"></path><path d="M307.1018 89.0018L248.5352 222.6235" fill="none" stroke="#aaa" stroke-opacity="0.5"></path><path d="M120.9041 83.9697L300.3766 165.7868" fill="none" stroke="#aaa" stroke-opacity="0.5"></path><path d="M307.1018 89.0018L300.3766 165.7868" fill="none" stroke="#aaa" stroke-opacity="0.5"></path><path d="M307.1018 89.0018L170.995 213.6898" fill="none" stroke="#aaa" stroke-opacity="0.5"></path><path d="M120.9041 83.9697L307.1018 89.0018" fill="none" stroke="#aaa" stroke-opacity="0.5"></path><path d="M248.5352 222.6235L113.8489 162.1481" fill="none" stroke="#aaa" stroke-opacity="0.5"></path><path d="M307.1018 89.0018L174.425 29.1821" fill="none" stroke="#aaa" stroke-opacity="0.5"></path><path d="M170.995 213.6898L113.8489 162.1481" fill="none" stroke="#aaa" stroke-opacity="0.5"></path><path d="M252.8204 33.5981L248.5352 222.6235" fill="none" stroke="#aaa" stroke-opacity="0.5"></path><path d="M252.8204 33.5981L113.8489 162.1481" fill="none" stroke="#aaa" stroke-opacity="0.5"></path><path d="M252.8204 33.5981L120.9041 83.9697" fill="none" stroke="#aaa" stroke-opacity="0.5"></path><path d="M174.425 29.1821L113.8489 162.1481" fill="none" stroke="#aaa" stroke-opacity="0.5"></path><path d="M252.8204 33.5981L170.995 213.6898" fill="none" stroke="#aaa" stroke-opacity="0.5"></path><path d="M120.9041 83.9697L248.5352 222.6235" fill="none" stroke="#aaa" stroke-opacity="0.5"></path><path d="M252.8204 33.5981L174.425 29.1821" fill="none" stroke="#aaa" stroke-opacity="0.5"></path><path d="M120.9041 83.9697L113.8489 162.1481" fill="none" stroke="#aaa" stroke-opacity="0.5"></path><path d="M307.1018 89.0018L113.8489 162.1481" fill="none" stroke="#aaa" stroke-opacity="0.5"></path><path d="M120.9041 83.9697L170.995 213.6898" fill="none" stroke="#aaa" stroke-opacity="0.5"></path><path d="M170.995 213.6898L248.5352 222.6235" fill="none" stroke="#aaa" stroke-opacity="0.5"></path><path d="M1 0A1 1 0 1 1 1 -0.0001" fill="#5470c6" transform="matrix(19,0,0,19,300.3766,165.7868)"></path><path d="M1 0A1 1 0 1 1 1 -0.0001" fill="#5470c6" transform="matrix(19,0,0,19,248.5352,222.6235)"></path><path d="M1 0A1 1 0 1 1 1 -0.0001" fill="#5470c6" transform="matrix(19,0,0,19,170.995,213.6898)"></path><path d="M1 0A1 1 0 1 1 1 -0.0001" fill="#5470c6" transform="matrix(19,0,0,19,113.8489,162.1481)"></path><path d="M1 0A1 1 0 1 1 1 -0.0001" fill="#5470c6" transform="matrix(19,0,0,19,120.9041,83.9697)"></path><path d="M1 0A1 1 0 1 1 1 -0.0001" fill="#5470c6" transform="matrix(19,0,0,19,174.425,29.1821)"></path><path d="M1 0A1 1 0 1 1 1 -0.0001" fill="#5470c6" transform="matrix(19,0,0,19,252.8204,33.5981)"></path><path d="M1 0A1 1 0 1 1 1 -0.0001" fill="#5470c6" transform="matrix(19,0,0,19,307.1018,89.0018)"></path><path d="M-32.4922 -5l64.9844 0l0 33l-64.9844 0Z" fill="rgb(0,0,0)" fill-opacity="0" stroke="#ccc" stroke-width="0" transform="translate(237.5 5)"></path><text dominant-baseline="central" fill="#333" style="font-size:23px;font-family:sans-serif;font-weight:bolder;" text-anchor="middle" transform="translate(237.5 5)" y="11.5">C102</text></g></svg>