<svg baseprofile="full" height="250" style="position:absolute;left:0;top:0;user-select:none" version="1.1" width="475" xmlns="http://www.w3.org/2000/svg" xmlns:xlink="http://www.w3.org/1999/xlink"><rect fill="none" height="250" id="0" width="475" x="0" y="0"></rect><g><path d="M120.1134 166.0346L169.4589 33.5499" fill="none" stroke="#aaa" stroke-opacity="0.5"></path><path d="M115.375 88.3543L169.4589 33.5499" fill="none" stroke="#aaa" stroke-opacity="0.5"></path><path d="M115.375 88.3543L306.505 161.4059" fill="none" stroke="#aaa" stroke-opacity="0.5"></path><path d="M175.2846 221.35L247.14 30.0794" fill="none" stroke="#aaa" stroke-opacity="0.5"></path><path d="M175.2846 221.35L252.0337 215.8554" fill="none" stroke="#aaa" stroke-opacity="0.5"></path><path d="M169.4589 33.5499L252.0337 215.8554" fill="none" stroke="#aaa" stroke-opacity="0.5"></path><path d="M306.505 161.4059L247.14 30.0794" fill="none" stroke="#aaa" stroke-opacity="0.5"></path><path d="M306.505 161.4059L252.0337 215.8554" fill="none" stroke="#aaa" stroke-opacity="0.5"></path><path d="M175.2846 221.35L169.4589 33.5499" fill="none" stroke="#aaa" stroke-opacity="0.5"></path><path d="M120.1134 166.0346L247.14 30.0794" fill="none" stroke="#aaa" stroke-opacity="0.5"></path><path d="M175.2846 221.35L303.0964 83.3705" fill="none" stroke="#aaa" stroke-opacity="0.5"></path><path d="M120.1134 166.0346L252.0337 215.8554" fill="none" stroke="#aaa" stroke-opacity="0.5"></path><path d="M115.375 88.3543L252.0337 215.8554" fill="none" stroke="#aaa" stroke-opacity="0.5"></path><path d="M175.2846 221.35L306.505 161.4059" fill="none" stroke="#aaa" stroke-opacity="0.5"></path><path d="M169.4589 33.5499L303.0964 83.3705" fill="none" stroke="#aaa" stroke-opacity="0.5"></path><path d="M169.4589 33.5499L306.505 161.4059" fill="none" stroke="#aaa" stroke-opacity="0.5"></path><path d="M115.375 88.3543L175.2846 221.35" fill="none" stroke="#aaa" stroke-opacity="0.5"></path><path d="M306.505 161.4059L303.0964 83.3705" fill="none" stroke="#aaa" stroke-opacity="0.5"></path><path d="M247.14 30.0794L303.0964 83.3705" fill="none" stroke="#aaa" stroke-opacity="0.5"></path><path d="M120.1134 166.0346L303.0964 83.3705" fill="none" stroke="#aaa" stroke-opacity="0.5"></path><path d="M115.375 88.3543L303.0964 83.3705" fill="none" stroke="#aaa" stroke-opacity="0.5"></path><path d="M169.4589 33.5499L247.14 30.0794" fill="none" stroke="#aaa" stroke-opacity="0.5"></path><path d="M120.1134 166.0346L306.505 161.4059" fill="none" stroke="#aaa" stroke-opacity="0.5"></path><path d="M115.375 88.3543L120.1134 166.0346" fill="none" stroke="#aaa" stroke-opacity="0.5"></path><path d="M252.0337 215.8554L303.0964 83.3705" fill="none" stroke="#aaa" stroke-opacity="0.5"></path><path d="M115.375 88.3543L247.14 30.0794" fill="none" stroke="#aaa" stroke-opacity="0.5"></path><path d="M252.0337 215.8554L247.14 30.0794" fill="none" stroke="#aaa" stroke-opacity="0.5"></path><path d="M175.2846 221.35L120.1134 166.0346" fill="none" stroke="#aaa" stroke-opacity="0.5"></path><path d="M1 0A1 1 0 1 1 1 -0.0001" fill="#5470c6" transform="matrix(19,0,0,19,306.505,161.4059)"></path><path d="M1 0A1 1 0 1 1 1 -0.0001" fill="#5470c6" transform="matrix(19,0,0,19,252.0337,215.8554)"></path><path d="M1 0A1 1 0 1 1 1 -0.0001" fill="#5470c6" transform="matrix(19,0,0,19,175.2846,221.35)"></path><path d="M1 0A1 1 0 1 1 1 -0.0001" fill="#5470c6" transform="matrix(19,0,0,19,120.1134,166.0346)"></path><path d="M1 0A1 1 0 1 1 1 -0.0001" fill="#5470c6" transform="matrix(19,0,0,19,115.375,88.3543)"></path><path d="M1 0A1 1 0 1 1 1 -0.0001" fill="#5470c6" transform="matrix(19,0,0,19,169.4589,33.5499)"></path><path d="M1 0A1 1 0 1 1 1 -0.0001" fill="#5470c6" transform="matrix(19,0,0,19,247.14,30.0794)"></path><path d="M1 0A1 1 0 1 1 1 -0.0001" fill="#5470c6" transform="matrix(19,0,0,19,303.0964,83.3705)"></path><path d="M-32.4922 -5l64.9844 0l0 33l-64.9844 0Z" fill="rgb(0,0,0)" fill-opacity="0" stroke="#ccc" stroke-width="0" transform="translate(237.5 5)"></path><text dominant-baseline="central" fill="#333" style="font-size:23px;font-family:sans-serif;font-weight:bolder;" text-anchor="middle" transform="translate(237.5 5)" y="11.5">C103</text></g></svg>