<svg baseprofile="full" height="250" style="position:absolute;left:0;top:0;user-select:none" version="1.1" width="475" xmlns="http://www.w3.org/2000/svg" xmlns:xlink="http://www.w3.org/1999/xlink"><rect fill="none" height="250" id="0" width="475" x="0" y="0"></rect><g><path d="M303.5083 164.563L249.7036 219.5514" fill="none" stroke="#aaa" stroke-opacity="0.5"></path><path d="M173.0425 30.7832L249.7036 219.5514" fill="none" stroke="#aaa" stroke-opacity="0.5"></path><path d="M117.9735 85.7955L250.2875 32.1678" fill="none" stroke="#aaa" stroke-opacity="0.5"></path><path d="M117.9735 85.7955L249.7036 219.5514" fill="none" stroke="#aaa" stroke-opacity="0.5"></path><path d="M171.5915 217.0733L117.0725 163.5454" fill="none" stroke="#aaa" stroke-opacity="0.5"></path><path d="M250.2875 32.1678L171.5915 217.0733" fill="none" stroke="#aaa" stroke-opacity="0.5"></path><path d="M171.5915 217.0733L305.8277 86.5204" fill="none" stroke="#aaa" stroke-opacity="0.5"></path><path d="M305.8277 86.5204L117.0725 163.5454" fill="none" stroke="#aaa" stroke-opacity="0.5"></path><path d="M117.9735 85.7955L117.0725 163.5454" fill="none" stroke="#aaa" stroke-opacity="0.5"></path><path d="M173.0425 30.7832L303.5083 164.563" fill="none" stroke="#aaa" stroke-opacity="0.5"></path><path d="M303.5083 164.563L250.2875 32.1678" fill="none" stroke="#aaa" stroke-opacity="0.5"></path><path d="M250.2875 32.1678L117.0725 163.5454" fill="none" stroke="#aaa" stroke-opacity="0.5"></path><path d="M117.9735 85.7955L305.8277 86.5204" fill="none" stroke="#aaa" stroke-opacity="0.5"></path><path d="M171.5915 217.0733L249.7036 219.5514" fill="none" stroke="#aaa" stroke-opacity="0.5"></path><path d="M173.0425 30.7832L250.2875 32.1678" fill="none" stroke="#aaa" stroke-opacity="0.5"></path><path d="M117.9735 85.7955L171.5915 217.0733" fill="none" stroke="#aaa" stroke-opacity="0.5"></path><path d="M250.2875 32.1678L305.8277 86.5204" fill="none" stroke="#aaa" stroke-opacity="0.5"></path><path d="M305.8277 86.5204L249.7036 219.5514" fill="none" stroke="#aaa" stroke-opacity="0.5"></path><path d="M303.5083 164.563L117.0725 163.5454" fill="none" stroke="#aaa" stroke-opacity="0.5"></path><path d="M303.5083 164.563L117.9735 85.7955" fill="none" stroke="#aaa" stroke-opacity="0.5"></path><path d="M173.0425 30.7832L117.0725 163.5454" fill="none" stroke="#aaa" stroke-opacity="0.5"></path><path d="M117.0725 163.5454L249.7036 219.5514" fill="none" stroke="#aaa" stroke-opacity="0.5"></path><path d="M250.2875 32.1678L249.7036 219.5514" fill="none" stroke="#aaa" stroke-opacity="0.5"></path><path d="M303.5083 164.563L305.8277 86.5204" fill="none" stroke="#aaa" stroke-opacity="0.5"></path><path d="M173.0425 30.7832L117.9735 85.7955" fill="none" stroke="#aaa" stroke-opacity="0.5"></path><path d="M303.5083 164.563L171.5915 217.0733" fill="none" stroke="#aaa" stroke-opacity="0.5"></path><path d="M173.0425 30.7832L305.8277 86.5204" fill="none" stroke="#aaa" stroke-opacity="0.5"></path><path d="M173.0425 30.7832L171.5915 217.0733" fill="none" stroke="#aaa" stroke-opacity="0.5"></path><path d="M1 0A1 1 0 1 1 1 -0.0001" fill="#5470c6" transform="matrix(19,0,0,19,303.5083,164.563)"></path><path d="M1 0A1 1 0 1 1 1 -0.0001" fill="#5470c6" transform="matrix(19,0,0,19,249.7036,219.5514)"></path><path d="M1 0A1 1 0 1 1 1 -0.0001" fill="#5470c6" transform="matrix(19,0,0,19,171.5915,217.0733)"></path><path d="M1 0A1 1 0 1 1 1 -0.0001" fill="#5470c6" transform="matrix(19,0,0,19,117.0725,163.5454)"></path><path d="M1 0A1 1 0 1 1 1 -0.0001" fill="#5470c6" transform="matrix(19,0,0,19,117.9735,85.7955)"></path><path d="M1 0A1 1 0 1 1 1 -0.0001" fill="#5470c6" transform="matrix(19,0,0,19,173.0425,30.7832)"></path><path d="M1 0A1 1 0 1 1 1 -0.0001" fill="#5470c6" transform="matrix(19,0,0,19,250.2875,32.1678)"></path><path d="M1 0A1 1 0 1 1 1 -0.0001" fill="#5470c6" transform="matrix(19,0,0,19,305.8277,86.5204)"></path><path d="M-32.4922 -5l64.9844 0l0 33l-64.9844 0Z" fill="rgb(0,0,0)" fill-opacity="0" stroke="#ccc" stroke-width="0" transform="translate(237.5 5)"></path><text dominant-baseline="central" fill="#333" style="font-size:23px;font-family:sans-serif;font-weight:bolder;" text-anchor="middle" transform="translate(237.5 5)" y="11.5">C104</text></g></svg>