<svg baseprofile="full" height="250" style="position:absolute;left:0;top:0;user-select:none" version="1.1" width="475" xmlns="http://www.w3.org/2000/svg" xmlns:xlink="http://www.w3.org/1999/xlink"><rect fill="none" height="250" id="0" width="475" x="0" y="0"></rect><g><path d="M306.8549 88.2343L302.8967 165.3476" fill="none" stroke="#aaa" stroke-opacity="0.5"></path><path d="M251.295 33.6962L116.0263 161.7674" fill="none" stroke="#aaa" stroke-opacity="0.5"></path><path d="M251.295 33.6962L170.1604 217.362" fill="none" stroke="#aaa" stroke-opacity="0.5"></path><path d="M116.0263 161.7674L174.1789 29.0087" fill="none" stroke="#aaa" stroke-opacity="0.5"></path><path d="M251.295 33.6962L247.884 219.9871" fill="none" stroke="#aaa" stroke-opacity="0.5"></path><path d="M170.1604 217.362L306.8549 88.2343" fill="none" stroke="#aaa" stroke-opacity="0.5"></path><path d="M170.1604 217.362L302.8967 165.3476" fill="none" stroke="#aaa" stroke-opacity="0.5"></path><path d="M119.7108 84.5967L306.8549 88.2343" fill="none" stroke="#aaa" stroke-opacity="0.5"></path><path d="M306.8549 88.2343L247.884 219.9871" fill="none" stroke="#aaa" stroke-opacity="0.5"></path><path d="M119.7108 84.5967L302.8967 165.3476" fill="none" stroke="#aaa" stroke-opacity="0.5"></path><path d="M251.295 33.6962L174.1789 29.0087" fill="none" stroke="#aaa" stroke-opacity="0.5"></path><path d="M251.295 33.6962L306.8549 88.2343" fill="none" stroke="#aaa" stroke-opacity="0.5"></path><path d="M119.7108 84.5967L251.295 33.6962" fill="none" stroke="#aaa" stroke-opacity="0.5"></path><path d="M302.8967 165.3476L247.884 219.9871" fill="none" stroke="#aaa" stroke-opacity="0.5"></path><path d="M170.1604 217.362L247.884 219.9871" fill="none" stroke="#aaa" stroke-opacity="0.5"></path><path d="M119.7108 84.5967L247.884 219.9871" fill="none" stroke="#aaa" stroke-opacity="0.5"></path><path d="M306.8549 88.2343L116.0263 161.7674" fill="none" stroke="#aaa" stroke-opacity="0.5"></path><path d="M302.8967 165.3476L174.1789 29.0087" fill="none" stroke="#aaa" stroke-opacity="0.5"></path><path d="M170.1604 217.362L174.1789 29.0087" fill="none" stroke="#aaa" stroke-opacity="0.5"></path><path d="M119.7108 84.5967L174.1789 29.0087" fill="none" stroke="#aaa" stroke-opacity="0.5"></path><path d="M302.8967 165.3476L116.0263 161.7674" fill="none" stroke="#aaa" stroke-opacity="0.5"></path><path d="M170.1604 217.362L116.0263 161.7674" fill="none" stroke="#aaa" stroke-opacity="0.5"></path><path d="M251.295 33.6962L302.8967 165.3476" fill="none" stroke="#aaa" stroke-opacity="0.5"></path><path d="M119.7108 84.5967L116.0263 161.7674" fill="none" stroke="#aaa" stroke-opacity="0.5"></path><path d="M174.1789 29.0087L247.884 219.9871" fill="none" stroke="#aaa" stroke-opacity="0.5"></path><path d="M119.7108 84.5967L170.1604 217.362" fill="none" stroke="#aaa" stroke-opacity="0.5"></path><path d="M116.0263 161.7674L247.884 219.9871" fill="none" stroke="#aaa" stroke-opacity="0.5"></path><path d="M306.8549 88.2343L174.1789 29.0087" fill="none" stroke="#aaa" stroke-opacity="0.5"></path><path d="M1 0A1 1 0 1 1 1 -0.0001" fill="#5470c6" transform="matrix(19,0,0,19,302.8967,165.3476)"></path><path d="M1 0A1 1 0 1 1 1 -0.0001" fill="#5470c6" transform="matrix(19,0,0,19,247.884,219.9871)"></path><path d="M1 0A1 1 0 1 1 1 -0.0001" fill="#5470c6" transform="matrix(19,0,0,19,170.1604,217.362)"></path><path d="M1 0A1 1 0 1 1 1 -0.0001" fill="#5470c6" transform="matrix(19,0,0,19,116.0263,161.7674)"></path><path d="M1 0A1 1 0 1 1 1 -0.0001" fill="#5470c6" transform="matrix(19,0,0,19,119.7108,84.5967)"></path><path d="M1 0A1 1 0 1 1 1 -0.0001" fill="#5470c6" transform="matrix(19,0,0,19,174.1789,29.0087)"></path><path d="M1 0A1 1 0 1 1 1 -0.0001" fill="#5470c6" transform="matrix(19,0,0,19,251.295,33.6962)"></path><path d="M1 0A1 1 0 1 1 1 -0.0001" fill="#5470c6" transform="matrix(19,0,0,19,306.8549,88.2343)"></path><path d="M-32.4922 -5l64.9844 0l0 33l-64.9844 0Z" fill="rgb(0,0,0)" fill-opacity="0" stroke="#ccc" stroke-width="0" transform="translate(237.5 5)"></path><text dominant-baseline="central" fill="#333" style="font-size:23px;font-family:sans-serif;font-weight:bolder;" text-anchor="middle" transform="translate(237.5 5)" y="11.5">C105</text></g></svg>