<svg baseprofile="full" height="250" style="position:absolute;left:0;top:0;user-select:none" version="1.1" width="475" xmlns="http://www.w3.org/2000/svg" xmlns:xlink="http://www.w3.org/1999/xlink"><rect fill="none" height="250" id="0" width="475" x="0" y="0"></rect><g><path d="M235.5827 169.1893L276.9965 196.8458" fill="none" stroke="#aaa" stroke-opacity="0.5" stroke-width="0.5"></path><path d="M239.8668 217.6622L198.4926 224.8842" fill="none" stroke="#aaa" stroke-opacity="0.5" stroke-width="0.5"></path><path d="M126.4936 84.9801L144.4109 50.6837" fill="none" stroke="#aaa" stroke-opacity="0.5" stroke-width="0.5"></path><path d="M225.9632 29.1486L154.5078 133.66" fill="none" stroke="#aaa" stroke-opacity="0.5" stroke-width="0.5"></path><path d="M183.9214 29.397L235.5827 169.1893" fill="none" stroke="#aaa" stroke-opacity="0.5" stroke-width="0.5"></path><path d="M276.9965 196.8458L198.4926 224.8842" fill="none" stroke="#aaa" stroke-opacity="0.5" stroke-width="0.5"></path><path d="M121.8014 168.3345L235.5827 169.1893" fill="none" stroke="#aaa" stroke-opacity="0.5" stroke-width="0.5"></path><path d="M266.9091 124.7663L183.6107 183.1372" fill="none" stroke="#aaa" stroke-opacity="0.5" stroke-width="0.5"></path><path d="M187.7222 76.4659L244.2268 77.8551" fill="none" stroke="#aaa" stroke-opacity="0.5" stroke-width="0.5"></path><path d="M299.9221 164.4323L144.4109 50.6837" fill="none" stroke="#aaa" stroke-opacity="0.5" stroke-width="0.5"></path><path d="M121.8014 168.3345L110.9938 123.6856" fill="none" stroke="#aaa" stroke-opacity="0.5" stroke-width="0.5"></path><path d="M148.9516 204.8125L299.9221 164.4323" fill="none" stroke="#aaa" stroke-opacity="0.5" stroke-width="0.5"></path><path d="M298.7556 77.3618L198.4926 224.8842" fill="none" stroke="#aaa" stroke-opacity="0.5" stroke-width="0.5"></path><path d="M183.9214 29.397L310.997 121.8562" fill="none" stroke="#aaa" stroke-opacity="0.5" stroke-width="0.5"></path><path d="M121.8014 168.3345L183.9214 29.397" fill="none" stroke="#aaa" stroke-opacity="0.5" stroke-width="0.5"></path><path d="M148.9516 204.8125L276.9965 196.8458" fill="none" stroke="#aaa" stroke-opacity="0.5" stroke-width="0.5"></path><path d="M154.5078 133.66L244.2268 77.8551" fill="none" stroke="#aaa" stroke-opacity="0.5" stroke-width="0.5"></path><path d="M121.8014 168.3345L310.997 121.8562" fill="none" stroke="#aaa" stroke-opacity="0.5" stroke-width="0.5"></path><path d="M298.7556 77.3618L205.3551 124.0418" fill="none" stroke="#aaa" stroke-opacity="0.5" stroke-width="0.5"></path><path d="M244.2268 77.8551L268.1625 41.7999" fill="none" stroke="#aaa" stroke-opacity="0.5" stroke-width="0.5"></path><path d="M187.7222 76.4659L148.9516 204.8125" fill="none" stroke="#aaa" stroke-opacity="0.5" stroke-width="0.5"></path><path d="M183.6107 183.1372L126.4936 84.9801" fill="none" stroke="#aaa" stroke-opacity="0.5" stroke-width="0.5"></path><path d="M310.997 121.8562L268.1625 41.7999" fill="none" stroke="#aaa" stroke-opacity="0.5" stroke-width="0.5"></path><path d="M244.2268 77.8551L144.4109 50.6837" fill="none" stroke="#aaa" stroke-opacity="0.5" stroke-width="0.5"></path><path d="M205.3551 124.0418L183.6107 183.1372" fill="none" stroke="#aaa" stroke-opacity="0.5" stroke-width="0.5"></path><path d="M310.997 121.8562L144.4109 50.6837" fill="none" stroke="#aaa" stroke-opacity="0.5" stroke-width="0.5"></path><path d="M225.9632 29.1486L235.5827 169.1893" fill="none" stroke="#aaa" stroke-opacity="0.5" stroke-width="0.5"></path><path d="M183.9214 29.397L198.4926 224.8842" fill="none" stroke="#aaa" stroke-opacity="0.5" stroke-width="0.5"></path><path d="M148.9516 204.8125L154.5078 133.66" fill="none" stroke="#aaa" stroke-opacity="0.5" stroke-width="0.5"></path><path d="M225.9632 29.1486L110.9938 123.6856" fill="none" stroke="#aaa" stroke-opacity="0.5" stroke-width="0.5"></path><path d="M121.8014 168.3345L198.4926 224.8842" fill="none" stroke="#aaa" stroke-opacity="0.5" stroke-width="0.5"></path><path d="M225.9632 29.1486L183.9214 29.397" fill="none" stroke="#aaa" stroke-opacity="0.5" stroke-width="0.5"></path><path d="M110.9938 123.6856L144.4109 50.6837" fill="none" stroke="#aaa" stroke-opacity="0.5" stroke-width="0.5"></path><path d="M239.8668 217.6622L244.2268 77.8551" fill="none" stroke="#aaa" stroke-opacity="0.5" stroke-width="0.5"></path><path d="M187.7222 76.4659L126.4936 84.9801" fill="none" stroke="#aaa" stroke-opacity="0.5" stroke-width="0.5"></path><path d="M225.9632 29.1486L298.7556 77.3618" fill="none" stroke="#aaa" stroke-opacity="0.5" stroke-width="0.5"></path><path d="M235.5827 169.1893L110.9938 123.6856" fill="none" stroke="#aaa" stroke-opacity="0.5" stroke-width="0.5"></path><path d="M154.5078 133.66L126.4936 84.9801" fill="none" stroke="#aaa" stroke-opacity="0.5" stroke-width="0.5"></path><path d="M299.9221 164.4323L183.6107 183.1372" fill="none" stroke="#aaa" stroke-opacity="0.5" stroke-width="0.5"></path><path d="M235.5827 169.1893L310.997 121.8562" fill="none" stroke="#aaa" stroke-opacity="0.5" stroke-width="0.5"></path><path d="M239.8668 217.6622L148.9516 204.8125" fill="none" stroke="#aaa" stroke-opacity="0.5" stroke-width="0.5"></path><path d="M225.9632 29.1486L198.4926 224.8842" fill="none" stroke="#aaa" stroke-opacity="0.5" stroke-width="0.5"></path><path d="M148.9516 204.8125L235.5827 169.1893" fill="none" stroke="#aaa" stroke-opacity="0.5" stroke-width="0.5"></path><path d="M148.9516 204.8125L110.9938 123.6856" fill="none" stroke="#aaa" stroke-opacity="0.5" stroke-width="0.5"></path><path d="M244.2268 77.8551L183.6107 183.1372" fill="none" stroke="#aaa" stroke-opacity="0.5" stroke-width="0.5"></path><path d="M298.7556 77.3618L121.8014 168.3345" fill="none" stroke="#aaa" stroke-opacity="0.5" stroke-width="0.5"></path><path d="M148.9516 204.8125L183.9214 29.397" fill="none" stroke="#aaa" stroke-opacity="0.5" stroke-width="0.5"></path><path d="M235.5827 169.1893L198.4926 224.8842" fill="none" stroke="#aaa" stroke-opacity="0.5" stroke-width="0.5"></path><path d="M268.1625 41.7999L198.4926 224.8842" fill="none" stroke="#aaa" stroke-opacity="0.5" stroke-width="0.5"></path><path d="M187.7222 76.4659L266.9091 124.7663" fill="none" stroke="#aaa" stroke-opacity="0.5" stroke-width="0.5"></path><path d="M239.8668 217.6622L126.4936 84.9801" fill="none" stroke="#aaa" stroke-opacity="0.5" stroke-width="0.5"></path><path d="M121.8014 168.3345L244.2268 77.8551" fill="none" stroke="#aaa" stroke-opacity="0.5" stroke-width="0.5"></path><path d="M183.6107 183.1372L144.4109 50.6837" fill="none" stroke="#aaa" stroke-opacity="0.5" stroke-width="0.5"></path><path d="M126.4936 84.9801L198.4926 224.8842" fill="none" stroke="#aaa" stroke-opacity="0.5" stroke-width="0.5"></path><path d="M148.9516 204.8125L198.4926 224.8842" fill="none" stroke="#aaa" stroke-opacity="0.5" stroke-width="0.5"></path><path d="M298.7556 77.3618L126.4936 84.9801" fill="none" stroke="#aaa" stroke-opacity="0.5" stroke-width="0.5"></path><path d="M244.2268 77.8551L310.997 121.8562" fill="none" stroke="#aaa" stroke-opacity="0.5" stroke-width="0.5"></path><path d="M187.7222 76.4659L268.1625 41.7999" fill="none" stroke="#aaa" stroke-opacity="0.5" stroke-width="0.5"></path><path d="M299.9221 164.4323L110.9938 123.6856" fill="none" stroke="#aaa" stroke-opacity="0.5" stroke-width="0.5"></path><path d="M225.9632 29.1486L244.2268 77.8551" fill="none" stroke="#aaa" stroke-opacity="0.5" stroke-width="0.5"></path><path d="M187.7222 76.4659L144.4109 50.6837" fill="none" stroke="#aaa" stroke-opacity="0.5" stroke-width="0.5"></path><path d="M299.9221 164.4323L183.9214 29.397" fill="none" stroke="#aaa" stroke-opacity="0.5" stroke-width="0.5"></path><path d="M239.8668 217.6622L266.9091 124.7663" fill="none" stroke="#aaa" stroke-opacity="0.5" stroke-width="0.5"></path><path d="M183.9214 29.397L126.4936 84.9801" fill="none" stroke="#aaa" stroke-opacity="0.5" stroke-width="0.5"></path><path d="M154.5078 133.66L144.4109 50.6837" fill="none" stroke="#aaa" stroke-opacity="0.5" stroke-width="0.5"></path><path d="M121.8014 168.3345L126.4936 84.9801" fill="none" stroke="#aaa" stroke-opacity="0.5" stroke-width="0.5"></path><path d="M225.9632 29.1486L148.9516 204.8125" fill="none" stroke="#aaa" stroke-opacity="0.5" stroke-width="0.5"></path><path d="M244.2268 77.8551L205.3551 124.0418" fill="none" stroke="#aaa" stroke-opacity="0.5" stroke-width="0.5"></path><path d="M148.9516 204.8125L244.2268 77.8551" fill="none" stroke="#aaa" stroke-opacity="0.5" stroke-width="0.5"></path><path d="M239.8668 217.6622L268.1625 41.7999" fill="none" stroke="#aaa" stroke-opacity="0.5" stroke-width="0.5"></path><path d="M225.9632 29.1486L126.4936 84.9801" fill="none" stroke="#aaa" stroke-opacity="0.5" stroke-width="0.5"></path><path d="M239.8668 217.6622L144.4109 50.6837" fill="none" stroke="#aaa" stroke-opacity="0.5" stroke-width="0.5"></path><path d="M187.7222 76.4659L183.6107 183.1372" fill="none" stroke="#aaa" stroke-opacity="0.5" stroke-width="0.5"></path><path d="M235.5827 169.1893L126.4936 84.9801" fill="none" stroke="#aaa" stroke-opacity="0.5" stroke-width="0.5"></path><path d="M298.7556 77.3618L144.4109 50.6837" fill="none" stroke="#aaa" stroke-opacity="0.5" stroke-width="0.5"></path><path d="M268.1625 41.7999L126.4936 84.9801" fill="none" stroke="#aaa" stroke-opacity="0.5" stroke-width="0.5"></path><path d="M154.5078 133.66L183.6107 183.1372" fill="none" stroke="#aaa" stroke-opacity="0.5" stroke-width="0.5"></path><path d="M148.9516 204.8125L126.4936 84.9801" fill="none" stroke="#aaa" stroke-opacity="0.5" stroke-width="0.5"></path><path d="M225.9632 29.1486L266.9091 124.7663" fill="none" stroke="#aaa" stroke-opacity="0.5" stroke-width="0.5"></path><path d="M239.8668 217.6622L154.5078 133.66" fill="none" stroke="#aaa" stroke-opacity="0.5" stroke-width="0.5"></path><path d="M121.8014 168.3345L268.1625 41.7999" fill="none" stroke="#aaa" stroke-opacity="0.5" stroke-width="0.5"></path><path d="M183.9214 29.397L144.4109 50.6837" fill="none" stroke="#aaa" stroke-opacity="0.5" stroke-width="0.5"></path><path d="M121.8014 168.3345L144.4109 50.6837" fill="none" stroke="#aaa" stroke-opacity="0.5" stroke-width="0.5"></path><path d="M183.6107 183.1372L110.9938 123.6856" fill="none" stroke="#aaa" stroke-opacity="0.5" stroke-width="0.5"></path><path d="M187.7222 76.4659L310.997 121.8562" fill="none" stroke="#aaa" stroke-opacity="0.5" stroke-width="0.5"></path><path d="M239.8668 217.6622L183.6107 183.1372" fill="none" stroke="#aaa" stroke-opacity="0.5" stroke-width="0.5"></path><path d="M225.9632 29.1486L268.1625 41.7999" fill="none" stroke="#aaa" stroke-opacity="0.5" stroke-width="0.5"></path><path d="M298.7556 77.3618L183.6107 183.1372" fill="none" stroke="#aaa" stroke-opacity="0.5" stroke-width="0.5"></path><path d="M239.8668 217.6622L235.5827 169.1893" fill="none" stroke="#aaa" stroke-opacity="0.5" stroke-width="0.5"></path><path d="M225.9632 29.1486L144.4109 50.6837" fill="none" stroke="#aaa" stroke-opacity="0.5" stroke-width="0.5"></path><path d="M187.7222 76.4659L205.3551 124.0418" fill="none" stroke="#aaa" stroke-opacity="0.5" stroke-width="0.5"></path><path d="M148.9516 204.8125L266.9091 124.7663" fill="none" stroke="#aaa" stroke-opacity="0.5" stroke-width="0.5"></path><path d="M154.5078 133.66L110.9938 123.6856" fill="none" stroke="#aaa" stroke-opacity="0.5" stroke-width="0.5"></path><path d="M235.5827 169.1893L268.1625 41.7999" fill="none" stroke="#aaa" stroke-opacity="0.5" stroke-width="0.5"></path><path d="M154.5078 133.66L183.9214 29.397" fill="none" stroke="#aaa" stroke-opacity="0.5" stroke-width="0.5"></path><path d="M239.8668 217.6622L310.997 121.8562" fill="none" stroke="#aaa" stroke-opacity="0.5" stroke-width="0.5"></path><path d="M235.5827 169.1893L144.4109 50.6837" fill="none" stroke="#aaa" stroke-opacity="0.5" stroke-width="0.5"></path><path d="M205.3551 124.0418L266.9091 124.7663" fill="none" stroke="#aaa" stroke-opacity="0.5" stroke-width="0.5"></path><path d="M183.9214 29.397L183.6107 183.1372" fill="none" stroke="#aaa" stroke-opacity="0.5" stroke-width="0.5"></path><path d="M268.1625 41.7999L144.4109 50.6837" fill="none" stroke="#aaa" stroke-opacity="0.5" stroke-width="0.5"></path><path d="M121.8014 168.3345L183.6107 183.1372" fill="none" stroke="#aaa" stroke-opacity="0.5" stroke-width="0.5"></path><path d="M148.9516 204.8125L268.1625 41.7999" fill="none" stroke="#aaa" stroke-opacity="0.5" stroke-width="0.5"></path><path d="M148.9516 204.8125L144.4109 50.6837" fill="none" stroke="#aaa" stroke-opacity="0.5" stroke-width="0.5"></path><path d="M239.8668 217.6622L205.3551 124.0418" fill="none" stroke="#aaa" stroke-opacity="0.5" stroke-width="0.5"></path><path d="M266.9091 124.7663L276.9965 196.8458" fill="none" stroke="#aaa" stroke-opacity="0.5" stroke-width="0.5"></path><path d="M299.9221 164.4323L266.9091 124.7663" fill="none" stroke="#aaa" stroke-opacity="0.5" stroke-width="0.5"></path><path d="M225.9632 29.1486L183.6107 183.1372" fill="none" stroke="#aaa" stroke-opacity="0.5" stroke-width="0.5"></path><path d="M298.7556 77.3618L110.9938 123.6856" fill="none" stroke="#aaa" stroke-opacity="0.5" stroke-width="0.5"></path><path d="M298.7556 77.3618L183.9214 29.397" fill="none" stroke="#aaa" stroke-opacity="0.5" stroke-width="0.5"></path><path d="M187.7222 76.4659L121.8014 168.3345" fill="none" stroke="#aaa" stroke-opacity="0.5" stroke-width="0.5"></path><path d="M235.5827 169.1893L183.6107 183.1372" fill="none" stroke="#aaa" stroke-opacity="0.5" stroke-width="0.5"></path><path d="M205.3551 124.0418L276.9965 196.8458" fill="none" stroke="#aaa" stroke-opacity="0.5" stroke-width="0.5"></path><path d="M299.9221 164.4323L268.1625 41.7999" fill="none" stroke="#aaa" stroke-opacity="0.5" stroke-width="0.5"></path><path d="M183.9214 29.397L110.9938 123.6856" fill="none" stroke="#aaa" stroke-opacity="0.5" stroke-width="0.5"></path><path d="M121.8014 168.3345L205.3551 124.0418" fill="none" stroke="#aaa" stroke-opacity="0.5" stroke-width="0.5"></path><path d="M225.9632 29.1486L310.997 121.8562" fill="none" stroke="#aaa" stroke-opacity="0.5" stroke-width="0.5"></path><path d="M148.9516 204.8125L183.6107 183.1372" fill="none" stroke="#aaa" stroke-opacity="0.5" stroke-width="0.5"></path><path d="M266.9091 124.7663L235.5827 169.1893" fill="none" stroke="#aaa" stroke-opacity="0.5" stroke-width="0.5"></path><path d="M187.7222 76.4659L239.8668 217.6622" fill="none" stroke="#aaa" stroke-opacity="0.5" stroke-width="0.5"></path><path d="M299.9221 164.4323L276.9965 196.8458" fill="none" stroke="#aaa" stroke-opacity="0.5" stroke-width="0.5"></path><path d="M239.8668 217.6622L121.8014 168.3345" fill="none" stroke="#aaa" stroke-opacity="0.5" stroke-width="0.5"></path><path d="M266.9091 124.7663L110.9938 123.6856" fill="none" stroke="#aaa" stroke-opacity="0.5" stroke-width="0.5"></path><path d="M244.2268 77.8551L299.9221 164.4323" fill="none" stroke="#aaa" stroke-opacity="0.5" stroke-width="0.5"></path><path d="M110.9938 123.6856L268.1625 41.7999" fill="none" stroke="#aaa" stroke-opacity="0.5" stroke-width="0.5"></path><path d="M266.9091 124.7663L310.997 121.8562" fill="none" stroke="#aaa" stroke-opacity="0.5" stroke-width="0.5"></path><path d="M225.9632 29.1486L205.3551 124.0418" fill="none" stroke="#aaa" stroke-opacity="0.5" stroke-width="0.5"></path><path d="M244.2268 77.8551L276.9965 196.8458" fill="none" stroke="#aaa" stroke-opacity="0.5" stroke-width="0.5"></path><path d="M205.3551 124.0418L235.5827 169.1893" fill="none" stroke="#aaa" stroke-opacity="0.5" stroke-width="0.5"></path><path d="M310.997 121.8562L276.9965 196.8458" fill="none" stroke="#aaa" stroke-opacity="0.5" stroke-width="0.5"></path><path d="M148.9516 204.8125L310.997 121.8562" fill="none" stroke="#aaa" stroke-opacity="0.5" stroke-width="0.5"></path><path d="M205.3551 124.0418L110.9938 123.6856" fill="none" stroke="#aaa" stroke-opacity="0.5" stroke-width="0.5"></path><path d="M205.3551 124.0418L183.9214 29.397" fill="none" stroke="#aaa" stroke-opacity="0.5" stroke-width="0.5"></path><path d="M266.9091 124.7663L198.4926 224.8842" fill="none" stroke="#aaa" stroke-opacity="0.5" stroke-width="0.5"></path><path d="M298.7556 77.3618L244.2268 77.8551" fill="none" stroke="#aaa" stroke-opacity="0.5" stroke-width="0.5"></path><path d="M205.3551 124.0418L310.997 121.8562" fill="none" stroke="#aaa" stroke-opacity="0.5" stroke-width="0.5"></path><path d="M110.9938 123.6856L276.9965 196.8458" fill="none" stroke="#aaa" stroke-opacity="0.5" stroke-width="0.5"></path><path d="M187.7222 76.4659L225.9632 29.1486" fill="none" stroke="#aaa" stroke-opacity="0.5" stroke-width="0.5"></path><path d="M299.9221 164.4323L235.5827 169.1893" fill="none" stroke="#aaa" stroke-opacity="0.5" stroke-width="0.5"></path><path d="M148.9516 204.8125L205.3551 124.0418" fill="none" stroke="#aaa" stroke-opacity="0.5" stroke-width="0.5"></path><path d="M298.7556 77.3618L148.9516 204.8125" fill="none" stroke="#aaa" stroke-opacity="0.5" stroke-width="0.5"></path><path d="M205.3551 124.0418L198.4926 224.8842" fill="none" stroke="#aaa" stroke-opacity="0.5" stroke-width="0.5"></path><path d="M276.9965 196.8458L126.4936 84.9801" fill="none" stroke="#aaa" stroke-opacity="0.5" stroke-width="0.5"></path><path d="M183.6107 183.1372L268.1625 41.7999" fill="none" stroke="#aaa" stroke-opacity="0.5" stroke-width="0.5"></path><path d="M299.9221 164.4323L310.997 121.8562" fill="none" stroke="#aaa" stroke-opacity="0.5" stroke-width="0.5"></path><path d="M244.2268 77.8551L235.5827 169.1893" fill="none" stroke="#aaa" stroke-opacity="0.5" stroke-width="0.5"></path><path d="M154.5078 133.66L266.9091 124.7663" fill="none" stroke="#aaa" stroke-opacity="0.5" stroke-width="0.5"></path><path d="M225.9632 29.1486L121.8014 168.3345" fill="none" stroke="#aaa" stroke-opacity="0.5" stroke-width="0.5"></path><path d="M244.2268 77.8551L110.9938 123.6856" fill="none" stroke="#aaa" stroke-opacity="0.5" stroke-width="0.5"></path><path d="M121.8014 168.3345L148.9516 204.8125" fill="none" stroke="#aaa" stroke-opacity="0.5" stroke-width="0.5"></path><path d="M244.2268 77.8551L183.9214 29.397" fill="none" stroke="#aaa" stroke-opacity="0.5" stroke-width="0.5"></path><path d="M299.9221 164.4323L198.4926 224.8842" fill="none" stroke="#aaa" stroke-opacity="0.5" stroke-width="0.5"></path><path d="M183.6107 183.1372L276.9965 196.8458" fill="none" stroke="#aaa" stroke-opacity="0.5" stroke-width="0.5"></path><path d="M299.9221 164.4323L205.3551 124.0418" fill="none" stroke="#aaa" stroke-opacity="0.5" stroke-width="0.5"></path><path d="M154.5078 133.66L268.1625 41.7999" fill="none" stroke="#aaa" stroke-opacity="0.5" stroke-width="0.5"></path><path d="M110.9938 123.6856L310.997 121.8562" fill="none" stroke="#aaa" stroke-opacity="0.5" stroke-width="0.5"></path><path d="M187.7222 76.4659L299.9221 164.4323" fill="none" stroke="#aaa" stroke-opacity="0.5" stroke-width="0.5"></path><path d="M244.2268 77.8551L198.4926 224.8842" fill="none" stroke="#aaa" stroke-opacity="0.5" stroke-width="0.5"></path><path d="M310.997 121.8562L198.4926 224.8842" fill="none" stroke="#aaa" stroke-opacity="0.5" stroke-width="0.5"></path><path d="M225.9632 29.1486L239.8668 217.6622" fill="none" stroke="#aaa" stroke-opacity="0.5" stroke-width="0.5"></path><path d="M187.7222 76.4659L276.9965 196.8458" fill="none" stroke="#aaa" stroke-opacity="0.5" stroke-width="0.5"></path><path d="M154.5078 133.66L299.9221 164.4323" fill="none" stroke="#aaa" stroke-opacity="0.5" stroke-width="0.5"></path><path d="M298.7556 77.3618L266.9091 124.7663" fill="none" stroke="#aaa" stroke-opacity="0.5" stroke-width="0.5"></path><path d="M144.4109 50.6837L198.4926 224.8842" fill="none" stroke="#aaa" stroke-opacity="0.5" stroke-width="0.5"></path><path d="M154.5078 133.66L276.9965 196.8458" fill="none" stroke="#aaa" stroke-opacity="0.5" stroke-width="0.5"></path><path d="M110.9938 123.6856L198.4926 224.8842" fill="none" stroke="#aaa" stroke-opacity="0.5" stroke-width="0.5"></path><path d="M266.9091 124.7663L126.4936 84.9801" fill="none" stroke="#aaa" stroke-opacity="0.5" stroke-width="0.5"></path><path d="M187.7222 76.4659L154.5078 133.66" fill="none" stroke="#aaa" stroke-opacity="0.5" stroke-width="0.5"></path><path d="M276.9965 196.8458L268.1625 41.7999" fill="none" stroke="#aaa" stroke-opacity="0.5" stroke-width="0.5"></path><path d="M276.9965 196.8458L144.4109 50.6837" fill="none" stroke="#aaa" stroke-opacity="0.5" stroke-width="0.5"></path><path d="M183.9214 29.397L266.9091 124.7663" fill="none" stroke="#aaa" stroke-opacity="0.5" stroke-width="0.5"></path><path d="M121.8014 168.3345L266.9091 124.7663" fill="none" stroke="#aaa" stroke-opacity="0.5" stroke-width="0.5"></path><path d="M239.8668 217.6622L299.9221 164.4323" fill="none" stroke="#aaa" stroke-opacity="0.5" stroke-width="0.5"></path><path d="M298.7556 77.3618L268.1625 41.7999" fill="none" stroke="#aaa" stroke-opacity="0.5" stroke-width="0.5"></path><path d="M205.3551 124.0418L126.4936 84.9801" fill="none" stroke="#aaa" stroke-opacity="0.5" stroke-width="0.5"></path><path d="M239.8668 217.6622L276.9965 196.8458" fill="none" stroke="#aaa" stroke-opacity="0.5" stroke-width="0.5"></path><path d="M183.6107 183.1372L310.997 121.8562" fill="none" stroke="#aaa" stroke-opacity="0.5" stroke-width="0.5"></path><path d="M187.7222 76.4659L235.5827 169.1893" fill="none" stroke="#aaa" stroke-opacity="0.5" stroke-width="0.5"></path><path d="M298.7556 77.3618L299.9221 164.4323" fill="none" stroke="#aaa" stroke-opacity="0.5" stroke-width="0.5"></path><path d="M183.9214 29.397L268.1625 41.7999" fill="none" stroke="#aaa" stroke-opacity="0.5" stroke-width="0.5"></path><path d="M187.7222 76.4659L110.9938 123.6856" fill="none" stroke="#aaa" stroke-opacity="0.5" stroke-width="0.5"></path><path d="M298.7556 77.3618L276.9965 196.8458" fill="none" stroke="#aaa" stroke-opacity="0.5" stroke-width="0.5"></path><path d="M154.5078 133.66L235.5827 169.1893" fill="none" stroke="#aaa" stroke-opacity="0.5" stroke-width="0.5"></path><path d="M187.7222 76.4659L183.9214 29.397" fill="none" stroke="#aaa" stroke-opacity="0.5" stroke-width="0.5"></path><path d="M183.6107 183.1372L198.4926 224.8842" fill="none" stroke="#aaa" stroke-opacity="0.5" stroke-width="0.5"></path><path d="M299.9221 164.4323L126.4936 84.9801" fill="none" stroke="#aaa" stroke-opacity="0.5" stroke-width="0.5"></path><path d="M187.7222 76.4659L298.7556 77.3618" fill="none" stroke="#aaa" stroke-opacity="0.5" stroke-width="0.5"></path><path d="M154.5078 133.66L310.997 121.8562" fill="none" stroke="#aaa" stroke-opacity="0.5" stroke-width="0.5"></path><path d="M298.7556 77.3618L154.5078 133.66" fill="none" stroke="#aaa" stroke-opacity="0.5" stroke-width="0.5"></path><path d="M121.8014 168.3345L299.9221 164.4323" fill="none" stroke="#aaa" stroke-opacity="0.5" stroke-width="0.5"></path><path d="M183.9214 29.397L276.9965 196.8458" fill="none" stroke="#aaa" stroke-opacity="0.5" stroke-width="0.5"></path><path d="M266.9091 124.7663L268.1625 41.7999" fill="none" stroke="#aaa" stroke-opacity="0.5" stroke-width="0.5"></path><path d="M121.8014 168.3345L276.9965 196.8458" fill="none" stroke="#aaa" stroke-opacity="0.5" stroke-width="0.5"></path><path d="M244.2268 77.8551L126.4936 84.9801" fill="none" stroke="#aaa" stroke-opacity="0.5" stroke-width="0.5"></path><path d="M187.7222 76.4659L198.4926 224.8842" fill="none" stroke="#aaa" stroke-opacity="0.5" stroke-width="0.5"></path><path d="M266.9091 124.7663L144.4109 50.6837" fill="none" stroke="#aaa" stroke-opacity="0.5" stroke-width="0.5"></path><path d="M310.997 121.8562L126.4936 84.9801" fill="none" stroke="#aaa" stroke-opacity="0.5" stroke-width="0.5"></path><path d="M239.8668 217.6622L110.9938 123.6856" fill="none" stroke="#aaa" stroke-opacity="0.5" stroke-width="0.5"></path><path d="M154.5078 133.66L198.4926 224.8842" fill="none" stroke="#aaa" stroke-opacity="0.5" stroke-width="0.5"></path><path d="M239.8668 217.6622L183.9214 29.397" fill="none" stroke="#aaa" stroke-opacity="0.5" stroke-width="0.5"></path><path d="M121.8014 168.3345L154.5078 133.66" fill="none" stroke="#aaa" stroke-opacity="0.5" stroke-width="0.5"></path><path d="M154.5078 133.66L205.3551 124.0418" fill="none" stroke="#aaa" stroke-opacity="0.5" stroke-width="0.5"></path><path d="M110.9938 123.6856L126.4936 84.9801" fill="none" stroke="#aaa" stroke-opacity="0.5" stroke-width="0.5"></path><path d="M225.9632 29.1486L299.9221 164.4323" fill="none" stroke="#aaa" stroke-opacity="0.5" stroke-width="0.5"></path><path d="M205.3551 124.0418L268.1625 41.7999" fill="none" stroke="#aaa" stroke-opacity="0.5" stroke-width="0.5"></path><path d="M298.7556 77.3618L235.5827 169.1893" fill="none" stroke="#aaa" stroke-opacity="0.5" stroke-width="0.5"></path><path d="M239.8668 217.6622L298.7556 77.3618" fill="none" stroke="#aaa" stroke-opacity="0.5" stroke-width="0.5"></path><path d="M205.3551 124.0418L144.4109 50.6837" fill="none" stroke="#aaa" stroke-opacity="0.5" stroke-width="0.5"></path><path d="M225.9632 29.1486L276.9965 196.8458" fill="none" stroke="#aaa" stroke-opacity="0.5" stroke-width="0.5"></path><path d="M298.7556 77.3618L310.997 121.8562" fill="none" stroke="#aaa" stroke-opacity="0.5" stroke-width="0.5"></path><path d="M244.2268 77.8551L266.9091 124.7663" fill="none" stroke="#aaa" stroke-opacity="0.5" stroke-width="0.5"></path><path d="M1 0A1 1 0 1 1 1 -0.0001" fill="#5470c6" transform="matrix(18,0,0,18,266.9091,124.7663)"></path><path d="M1 0A1 1 0 1 1 1 -0.0001" fill="#5470c6" transform="matrix(18,0,0,18,299.9221,164.4323)"></path><path d="M1 0A1 1 0 1 1 1 -0.0001" fill="#5470c6" transform="matrix(18,0,0,18,235.5827,169.1893)"></path><path d="M1 0A1 1 0 1 1 1 -0.0001" fill="#5470c6" transform="matrix(18,0,0,18,276.9965,196.8458)"></path><path d="M1 0A1 1 0 1 1 1 -0.0001" fill="#5470c6" transform="matrix(18,0,0,18,183.6107,183.1372)"></path><path d="M1 0A1 1 0 1 1 1 -0.0001" fill="#5470c6" transform="matrix(18,0,0,18,239.8668,217.6622)"></path><path d="M1 0A1 1 0 1 1 1 -0.0001" fill="#5470c6" transform="matrix(18,0,0,18,198.4926,224.8842)"></path><path d="M1 0A1 1 0 1 1 1 -0.0001" fill="#5470c6" transform="matrix(18,0,0,18,148.9516,204.8125)"></path><path d="M1 0A1 1 0 1 1 1 -0.0001" fill="#5470c6" transform="matrix(18,0,0,18,154.5078,133.66)"></path><path d="M1 0A1 1 0 1 1 1 -0.0001" fill="#5470c6" transform="matrix(18,0,0,18,121.8014,168.3345)"></path><path d="M1 0A1 1 0 1 1 1 -0.0001" fill="#5470c6" transform="matrix(18,0,0,18,110.9938,123.6856)"></path><path d="M1 0A1 1 0 1 1 1 -0.0001" fill="#5470c6" transform="matrix(18,0,0,18,205.3551,124.0418)"></path><path d="M1 0A1 1 0 1 1 1 -0.0001" fill="#5470c6" transform="matrix(18,0,0,18,126.4936,84.9801)"></path><path d="M1 0A1 1 0 1 1 1 -0.0001" fill="#5470c6" transform="matrix(18,0,0,18,144.4109,50.6837)"></path><path d="M1 0A1 1 0 1 1 1 -0.0001" fill="#5470c6" transform="matrix(18,0,0,18,187.7222,76.4659)"></path><path d="M1 0A1 1 0 1 1 1 -0.0001" fill="#5470c6" transform="matrix(18,0,0,18,183.9214,29.397)"></path><path d="M1 0A1 1 0 1 1 1 -0.0001" fill="#5470c6" transform="matrix(18,0,0,18,225.9632,29.1486)"></path><path d="M1 0A1 1 0 1 1 1 -0.0001" fill="#5470c6" transform="matrix(18,0,0,18,268.1625,41.7999)"></path><path d="M1 0A1 1 0 1 1 1 -0.0001" fill="#5470c6" transform="matrix(18,0,0,18,244.2268,77.8551)"></path><path d="M1 0A1 1 0 1 1 1 -0.0001" fill="#5470c6" transform="matrix(18,0,0,18,298.7556,77.3618)"></path><path d="M1 0A1 1 0 1 1 1 -0.0001" fill="#5470c6" transform="matrix(18,0,0,18,310.997,121.8562)"></path><path d="M-31.2969 -5l62.5938 0l0 32l-62.5937 0Z" fill="rgb(0,0,0)" fill-opacity="0" stroke="#ccc" stroke-width="0" transform="translate(237.5 5)"></path><text dominant-baseline="central" fill="#333" style="font-size:22px;font-family:sans-serif;font-weight:bolder;" text-anchor="middle" transform="translate(237.5 5)" y="11">C106</text></g></svg>