<svg baseprofile="full" height="250" style="position:absolute;left:0;top:0;user-select:none" version="1.1" width="475" xmlns="http://www.w3.org/2000/svg" xmlns:xlink="http://www.w3.org/1999/xlink"><rect fill="none" height="250" id="0" width="475" x="0" y="0"></rect><g><path d="M131.4844 70.6625L233.7044 50.2808" fill="none" stroke="#aaa" stroke-opacity="0.5" stroke-width="0.5"></path><path d="M161.2082 39.6843L135.4216 184.6716" fill="none" stroke="#aaa" stroke-opacity="0.5" stroke-width="0.5"></path><path d="M161.2082 39.6843L271.6502 43.194" fill="none" stroke="#aaa" stroke-opacity="0.5" stroke-width="0.5"></path><path d="M114.1331 107.5325L247.7793 106.9565" fill="none" stroke="#aaa" stroke-opacity="0.5" stroke-width="0.5"></path><path d="M161.2082 39.6843L245.8847 159.0144" fill="none" stroke="#aaa" stroke-opacity="0.5" stroke-width="0.5"></path><path d="M297.1586 77.7313L281.8525 193.4257" fill="none" stroke="#aaa" stroke-opacity="0.5" stroke-width="0.5"></path><path d="M306.8807 117.4765L281.8525 193.4257" fill="none" stroke="#aaa" stroke-opacity="0.5" stroke-width="0.5"></path><path d="M306.8807 117.4765L165.3752 211.2298" fill="none" stroke="#aaa" stroke-opacity="0.5" stroke-width="0.5"></path><path d="M161.2082 39.6843L193.8981 81.9832" fill="none" stroke="#aaa" stroke-opacity="0.5" stroke-width="0.5"></path><path d="M161.2082 39.6843L247.7793 106.9565" fill="none" stroke="#aaa" stroke-opacity="0.5" stroke-width="0.5"></path><path d="M114.1331 107.5325L195.5704 164.349" fill="none" stroke="#aaa" stroke-opacity="0.5" stroke-width="0.5"></path><path d="M297.1586 77.7313L193.8981 81.9832" fill="none" stroke="#aaa" stroke-opacity="0.5" stroke-width="0.5"></path><path d="M297.1586 77.7313L161.2082 39.6843" fill="none" stroke="#aaa" stroke-opacity="0.5" stroke-width="0.5"></path><path d="M114.1331 107.5325L204.897 221.8499" fill="none" stroke="#aaa" stroke-opacity="0.5" stroke-width="0.5"></path><path d="M165.3752 211.2298L233.7044 50.2808" fill="none" stroke="#aaa" stroke-opacity="0.5" stroke-width="0.5"></path><path d="M165.3752 211.2298L302.8196 157.7873" fill="none" stroke="#aaa" stroke-opacity="0.5" stroke-width="0.5"></path><path d="M114.1331 107.5325L233.7044 50.2808" fill="none" stroke="#aaa" stroke-opacity="0.5" stroke-width="0.5"></path><path d="M131.4844 70.6625L167.0979 123.389" fill="none" stroke="#aaa" stroke-opacity="0.5" stroke-width="0.5"></path><path d="M244.5904 216.2396L271.6502 43.194" fill="none" stroke="#aaa" stroke-opacity="0.5" stroke-width="0.5"></path><path d="M135.4216 184.6716L114.1331 107.5325" fill="none" stroke="#aaa" stroke-opacity="0.5" stroke-width="0.5"></path><path d="M302.8196 157.7873L271.6502 43.194" fill="none" stroke="#aaa" stroke-opacity="0.5" stroke-width="0.5"></path><path d="M161.2082 39.6843L195.5704 164.349" fill="none" stroke="#aaa" stroke-opacity="0.5" stroke-width="0.5"></path><path d="M306.8807 117.4765L244.5904 216.2396" fill="none" stroke="#aaa" stroke-opacity="0.5" stroke-width="0.5"></path><path d="M193.8981 81.9832L135.4216 184.6716" fill="none" stroke="#aaa" stroke-opacity="0.5" stroke-width="0.5"></path><path d="M161.2082 39.6843L204.897 221.8499" fill="none" stroke="#aaa" stroke-opacity="0.5" stroke-width="0.5"></path><path d="M297.1586 77.7313L195.5704 164.349" fill="none" stroke="#aaa" stroke-opacity="0.5" stroke-width="0.5"></path><path d="M193.8981 81.9832L271.6502 43.194" fill="none" stroke="#aaa" stroke-opacity="0.5" stroke-width="0.5"></path><path d="M193.8981 81.9832L245.8847 159.0144" fill="none" stroke="#aaa" stroke-opacity="0.5" stroke-width="0.5"></path><path d="M297.1586 77.7313L117.4487 149.947" fill="none" stroke="#aaa" stroke-opacity="0.5" stroke-width="0.5"></path><path d="M161.2082 39.6843L233.7044 50.2808" fill="none" stroke="#aaa" stroke-opacity="0.5" stroke-width="0.5"></path><path d="M306.8807 117.4765L195.5704 164.349" fill="none" stroke="#aaa" stroke-opacity="0.5" stroke-width="0.5"></path><path d="M131.4844 70.6625L114.1331 107.5325" fill="none" stroke="#aaa" stroke-opacity="0.5" stroke-width="0.5"></path><path d="M297.1586 77.7313L233.7044 50.2808" fill="none" stroke="#aaa" stroke-opacity="0.5" stroke-width="0.5"></path><path d="M247.7793 106.9565L281.8525 193.4257" fill="none" stroke="#aaa" stroke-opacity="0.5" stroke-width="0.5"></path><path d="M204.897 221.8499L165.3752 211.2298" fill="none" stroke="#aaa" stroke-opacity="0.5" stroke-width="0.5"></path><path d="M167.0979 123.389L271.6502 43.194" fill="none" stroke="#aaa" stroke-opacity="0.5" stroke-width="0.5"></path><path d="M167.0979 123.389L245.8847 159.0144" fill="none" stroke="#aaa" stroke-opacity="0.5" stroke-width="0.5"></path><path d="M117.4487 149.947L135.4216 184.6716" fill="none" stroke="#aaa" stroke-opacity="0.5" stroke-width="0.5"></path><path d="M245.8847 159.0144L165.3752 211.2298" fill="none" stroke="#aaa" stroke-opacity="0.5" stroke-width="0.5"></path><path d="M117.4487 149.947L271.6502 43.194" fill="none" stroke="#aaa" stroke-opacity="0.5" stroke-width="0.5"></path><path d="M306.8807 117.4765L203.6626 22.5949" fill="none" stroke="#aaa" stroke-opacity="0.5" stroke-width="0.5"></path><path d="M117.4487 149.947L245.8847 159.0144" fill="none" stroke="#aaa" stroke-opacity="0.5" stroke-width="0.5"></path><path d="M203.6626 22.5949L281.8525 193.4257" fill="none" stroke="#aaa" stroke-opacity="0.5" stroke-width="0.5"></path><path d="M193.8981 81.9832L247.7793 106.9565" fill="none" stroke="#aaa" stroke-opacity="0.5" stroke-width="0.5"></path><path d="M204.897 221.8499L271.6502 43.194" fill="none" stroke="#aaa" stroke-opacity="0.5" stroke-width="0.5"></path><path d="M204.897 221.8499L245.8847 159.0144" fill="none" stroke="#aaa" stroke-opacity="0.5" stroke-width="0.5"></path><path d="M114.1331 107.5325L306.8807 117.4765" fill="none" stroke="#aaa" stroke-opacity="0.5" stroke-width="0.5"></path><path d="M135.4216 184.6716L165.3752 211.2298" fill="none" stroke="#aaa" stroke-opacity="0.5" stroke-width="0.5"></path><path d="M167.0979 123.389L247.7793 106.9565" fill="none" stroke="#aaa" stroke-opacity="0.5" stroke-width="0.5"></path><path d="M117.4487 149.947L247.7793 106.9565" fill="none" stroke="#aaa" stroke-opacity="0.5" stroke-width="0.5"></path><path d="M204.897 221.8499L244.5904 216.2396" fill="none" stroke="#aaa" stroke-opacity="0.5" stroke-width="0.5"></path><path d="M244.5904 216.2396L302.8196 157.7873" fill="none" stroke="#aaa" stroke-opacity="0.5" stroke-width="0.5"></path><path d="M302.8196 157.7873L233.7044 50.2808" fill="none" stroke="#aaa" stroke-opacity="0.5" stroke-width="0.5"></path><path d="M135.4216 184.6716L271.6502 43.194" fill="none" stroke="#aaa" stroke-opacity="0.5" stroke-width="0.5"></path><path d="M131.4844 70.6625L165.3752 211.2298" fill="none" stroke="#aaa" stroke-opacity="0.5" stroke-width="0.5"></path><path d="M135.4216 184.6716L245.8847 159.0144" fill="none" stroke="#aaa" stroke-opacity="0.5" stroke-width="0.5"></path><path d="M204.897 221.8499L247.7793 106.9565" fill="none" stroke="#aaa" stroke-opacity="0.5" stroke-width="0.5"></path><path d="M161.2082 39.6843L306.8807 117.4765" fill="none" stroke="#aaa" stroke-opacity="0.5" stroke-width="0.5"></path><path d="M193.8981 81.9832L204.897 221.8499" fill="none" stroke="#aaa" stroke-opacity="0.5" stroke-width="0.5"></path><path d="M297.1586 77.7313L167.0979 123.389" fill="none" stroke="#aaa" stroke-opacity="0.5" stroke-width="0.5"></path><path d="M245.8847 159.0144L244.5904 216.2396" fill="none" stroke="#aaa" stroke-opacity="0.5" stroke-width="0.5"></path><path d="M247.7793 106.9565L195.5704 164.349" fill="none" stroke="#aaa" stroke-opacity="0.5" stroke-width="0.5"></path><path d="M193.8981 81.9832L233.7044 50.2808" fill="none" stroke="#aaa" stroke-opacity="0.5" stroke-width="0.5"></path><path d="M167.0979 123.389L195.5704 164.349" fill="none" stroke="#aaa" stroke-opacity="0.5" stroke-width="0.5"></path><path d="M193.8981 81.9832L302.8196 157.7873" fill="none" stroke="#aaa" stroke-opacity="0.5" stroke-width="0.5"></path><path d="M203.6626 22.5949L244.5904 216.2396" fill="none" stroke="#aaa" stroke-opacity="0.5" stroke-width="0.5"></path><path d="M167.0979 123.389L204.897 221.8499" fill="none" stroke="#aaa" stroke-opacity="0.5" stroke-width="0.5"></path><path d="M131.4844 70.6625L135.4216 184.6716" fill="none" stroke="#aaa" stroke-opacity="0.5" stroke-width="0.5"></path><path d="M117.4487 149.947L195.5704 164.349" fill="none" stroke="#aaa" stroke-opacity="0.5" stroke-width="0.5"></path><path d="M131.4844 70.6625L271.6502 43.194" fill="none" stroke="#aaa" stroke-opacity="0.5" stroke-width="0.5"></path><path d="M247.7793 106.9565L233.7044 50.2808" fill="none" stroke="#aaa" stroke-opacity="0.5" stroke-width="0.5"></path><path d="M204.897 221.8499L203.6626 22.5949" fill="none" stroke="#aaa" stroke-opacity="0.5" stroke-width="0.5"></path><path d="M131.4844 70.6625L245.8847 159.0144" fill="none" stroke="#aaa" stroke-opacity="0.5" stroke-width="0.5"></path><path d="M135.4216 184.6716L244.5904 216.2396" fill="none" stroke="#aaa" stroke-opacity="0.5" stroke-width="0.5"></path><path d="M117.4487 149.947L204.897 221.8499" fill="none" stroke="#aaa" stroke-opacity="0.5" stroke-width="0.5"></path><path d="M167.0979 123.389L233.7044 50.2808" fill="none" stroke="#aaa" stroke-opacity="0.5" stroke-width="0.5"></path><path d="M161.2082 39.6843L114.1331 107.5325" fill="none" stroke="#aaa" stroke-opacity="0.5" stroke-width="0.5"></path><path d="M203.6626 22.5949L195.5704 164.349" fill="none" stroke="#aaa" stroke-opacity="0.5" stroke-width="0.5"></path><path d="M245.8847 159.0144L203.6626 22.5949" fill="none" stroke="#aaa" stroke-opacity="0.5" stroke-width="0.5"></path><path d="M117.4487 149.947L233.7044 50.2808" fill="none" stroke="#aaa" stroke-opacity="0.5" stroke-width="0.5"></path><path d="M297.1586 77.7313L114.1331 107.5325" fill="none" stroke="#aaa" stroke-opacity="0.5" stroke-width="0.5"></path><path d="M233.7044 50.2808L281.8525 193.4257" fill="none" stroke="#aaa" stroke-opacity="0.5" stroke-width="0.5"></path><path d="M131.4844 70.6625L244.5904 216.2396" fill="none" stroke="#aaa" stroke-opacity="0.5" stroke-width="0.5"></path><path d="M165.3752 211.2298L281.8525 193.4257" fill="none" stroke="#aaa" stroke-opacity="0.5" stroke-width="0.5"></path><path d="M204.897 221.8499L302.8196 157.7873" fill="none" stroke="#aaa" stroke-opacity="0.5" stroke-width="0.5"></path><path d="M114.1331 107.5325L281.8525 193.4257" fill="none" stroke="#aaa" stroke-opacity="0.5" stroke-width="0.5"></path><path d="M135.4216 184.6716L203.6626 22.5949" fill="none" stroke="#aaa" stroke-opacity="0.5" stroke-width="0.5"></path><path d="M131.4844 70.6625L247.7793 106.9565" fill="none" stroke="#aaa" stroke-opacity="0.5" stroke-width="0.5"></path><path d="M114.1331 107.5325L165.3752 211.2298" fill="none" stroke="#aaa" stroke-opacity="0.5" stroke-width="0.5"></path><path d="M271.6502 43.194L195.5704 164.349" fill="none" stroke="#aaa" stroke-opacity="0.5" stroke-width="0.5"></path><path d="M245.8847 159.0144L302.8196 157.7873" fill="none" stroke="#aaa" stroke-opacity="0.5" stroke-width="0.5"></path><path d="M203.6626 22.5949L302.8196 157.7873" fill="none" stroke="#aaa" stroke-opacity="0.5" stroke-width="0.5"></path><path d="M135.4216 184.6716L204.897 221.8499" fill="none" stroke="#aaa" stroke-opacity="0.5" stroke-width="0.5"></path><path d="M281.8525 193.4257L195.5704 164.349" fill="none" stroke="#aaa" stroke-opacity="0.5" stroke-width="0.5"></path><path d="M193.8981 81.9832L306.8807 117.4765" fill="none" stroke="#aaa" stroke-opacity="0.5" stroke-width="0.5"></path><path d="M131.4844 70.6625L203.6626 22.5949" fill="none" stroke="#aaa" stroke-opacity="0.5" stroke-width="0.5"></path><path d="M135.4216 184.6716L302.8196 157.7873" fill="none" stroke="#aaa" stroke-opacity="0.5" stroke-width="0.5"></path><path d="M161.2082 39.6843L281.8525 193.4257" fill="none" stroke="#aaa" stroke-opacity="0.5" stroke-width="0.5"></path><path d="M161.2082 39.6843L165.3752 211.2298" fill="none" stroke="#aaa" stroke-opacity="0.5" stroke-width="0.5"></path><path d="M167.0979 123.389L306.8807 117.4765" fill="none" stroke="#aaa" stroke-opacity="0.5" stroke-width="0.5"></path><path d="M131.4844 70.6625L204.897 221.8499" fill="none" stroke="#aaa" stroke-opacity="0.5" stroke-width="0.5"></path><path d="M297.1586 77.7313L165.3752 211.2298" fill="none" stroke="#aaa" stroke-opacity="0.5" stroke-width="0.5"></path><path d="M117.4487 149.947L306.8807 117.4765" fill="none" stroke="#aaa" stroke-opacity="0.5" stroke-width="0.5"></path><path d="M165.3752 211.2298L244.5904 216.2396" fill="none" stroke="#aaa" stroke-opacity="0.5" stroke-width="0.5"></path><path d="M193.8981 81.9832L114.1331 107.5325" fill="none" stroke="#aaa" stroke-opacity="0.5" stroke-width="0.5"></path><path d="M131.4844 70.6625L302.8196 157.7873" fill="none" stroke="#aaa" stroke-opacity="0.5" stroke-width="0.5"></path><path d="M233.7044 50.2808L195.5704 164.349" fill="none" stroke="#aaa" stroke-opacity="0.5" stroke-width="0.5"></path><path d="M114.1331 107.5325L244.5904 216.2396" fill="none" stroke="#aaa" stroke-opacity="0.5" stroke-width="0.5"></path><path d="M135.4216 184.6716L167.0979 123.389" fill="none" stroke="#aaa" stroke-opacity="0.5" stroke-width="0.5"></path><path d="M297.1586 77.7313L135.4216 184.6716" fill="none" stroke="#aaa" stroke-opacity="0.5" stroke-width="0.5"></path><path d="M165.3752 211.2298L195.5704 164.349" fill="none" stroke="#aaa" stroke-opacity="0.5" stroke-width="0.5"></path><path d="M204.897 221.8499L306.8807 117.4765" fill="none" stroke="#aaa" stroke-opacity="0.5" stroke-width="0.5"></path><path d="M297.1586 77.7313L271.6502 43.194" fill="none" stroke="#aaa" stroke-opacity="0.5" stroke-width="0.5"></path><path d="M297.1586 77.7313L131.4844 70.6625" fill="none" stroke="#aaa" stroke-opacity="0.5" stroke-width="0.5"></path><path d="M297.1586 77.7313L245.8847 159.0144" fill="none" stroke="#aaa" stroke-opacity="0.5" stroke-width="0.5"></path><path d="M245.8847 159.0144L306.8807 117.4765" fill="none" stroke="#aaa" stroke-opacity="0.5" stroke-width="0.5"></path><path d="M117.4487 149.947L114.1331 107.5325" fill="none" stroke="#aaa" stroke-opacity="0.5" stroke-width="0.5"></path><path d="M306.8807 117.4765L271.6502 43.194" fill="none" stroke="#aaa" stroke-opacity="0.5" stroke-width="0.5"></path><path d="M165.3752 211.2298L203.6626 22.5949" fill="none" stroke="#aaa" stroke-opacity="0.5" stroke-width="0.5"></path><path d="M114.1331 107.5325L203.6626 22.5949" fill="none" stroke="#aaa" stroke-opacity="0.5" stroke-width="0.5"></path><path d="M161.2082 39.6843L244.5904 216.2396" fill="none" stroke="#aaa" stroke-opacity="0.5" stroke-width="0.5"></path><path d="M244.5904 216.2396L281.8525 193.4257" fill="none" stroke="#aaa" stroke-opacity="0.5" stroke-width="0.5"></path><path d="M302.8196 157.7873L281.8525 193.4257" fill="none" stroke="#aaa" stroke-opacity="0.5" stroke-width="0.5"></path><path d="M297.1586 77.7313L244.5904 216.2396" fill="none" stroke="#aaa" stroke-opacity="0.5" stroke-width="0.5"></path><path d="M135.4216 184.6716L306.8807 117.4765" fill="none" stroke="#aaa" stroke-opacity="0.5" stroke-width="0.5"></path><path d="M297.1586 77.7313L247.7793 106.9565" fill="none" stroke="#aaa" stroke-opacity="0.5" stroke-width="0.5"></path><path d="M161.2082 39.6843L117.4487 149.947" fill="none" stroke="#aaa" stroke-opacity="0.5" stroke-width="0.5"></path><path d="M193.8981 81.9832L281.8525 193.4257" fill="none" stroke="#aaa" stroke-opacity="0.5" stroke-width="0.5"></path><path d="M306.8807 117.4765L247.7793 106.9565" fill="none" stroke="#aaa" stroke-opacity="0.5" stroke-width="0.5"></path><path d="M114.1331 107.5325L302.8196 157.7873" fill="none" stroke="#aaa" stroke-opacity="0.5" stroke-width="0.5"></path><path d="M193.8981 81.9832L165.3752 211.2298" fill="none" stroke="#aaa" stroke-opacity="0.5" stroke-width="0.5"></path><path d="M161.2082 39.6843L203.6626 22.5949" fill="none" stroke="#aaa" stroke-opacity="0.5" stroke-width="0.5"></path><path d="M131.4844 70.6625L306.8807 117.4765" fill="none" stroke="#aaa" stroke-opacity="0.5" stroke-width="0.5"></path><path d="M297.1586 77.7313L203.6626 22.5949" fill="none" stroke="#aaa" stroke-opacity="0.5" stroke-width="0.5"></path><path d="M247.7793 106.9565L165.3752 211.2298" fill="none" stroke="#aaa" stroke-opacity="0.5" stroke-width="0.5"></path><path d="M167.0979 123.389L281.8525 193.4257" fill="none" stroke="#aaa" stroke-opacity="0.5" stroke-width="0.5"></path><path d="M167.0979 123.389L165.3752 211.2298" fill="none" stroke="#aaa" stroke-opacity="0.5" stroke-width="0.5"></path><path d="M117.4487 149.947L281.8525 193.4257" fill="none" stroke="#aaa" stroke-opacity="0.5" stroke-width="0.5"></path><path d="M117.4487 149.947L165.3752 211.2298" fill="none" stroke="#aaa" stroke-opacity="0.5" stroke-width="0.5"></path><path d="M297.1586 77.7313L204.897 221.8499" fill="none" stroke="#aaa" stroke-opacity="0.5" stroke-width="0.5"></path><path d="M161.2082 39.6843L302.8196 157.7873" fill="none" stroke="#aaa" stroke-opacity="0.5" stroke-width="0.5"></path><path d="M114.1331 107.5325L167.0979 123.389" fill="none" stroke="#aaa" stroke-opacity="0.5" stroke-width="0.5"></path><path d="M204.897 221.8499L281.8525 193.4257" fill="none" stroke="#aaa" stroke-opacity="0.5" stroke-width="0.5"></path><path d="M247.7793 106.9565L271.6502 43.194" fill="none" stroke="#aaa" stroke-opacity="0.5" stroke-width="0.5"></path><path d="M297.1586 77.7313L302.8196 157.7873" fill="none" stroke="#aaa" stroke-opacity="0.5" stroke-width="0.5"></path><path d="M245.8847 159.0144L281.8525 193.4257" fill="none" stroke="#aaa" stroke-opacity="0.5" stroke-width="0.5"></path><path d="M245.8847 159.0144L271.6502 43.194" fill="none" stroke="#aaa" stroke-opacity="0.5" stroke-width="0.5"></path><path d="M306.8807 117.4765L233.7044 50.2808" fill="none" stroke="#aaa" stroke-opacity="0.5" stroke-width="0.5"></path><path d="M244.5904 216.2396L195.5704 164.349" fill="none" stroke="#aaa" stroke-opacity="0.5" stroke-width="0.5"></path><path d="M306.8807 117.4765L302.8196 157.7873" fill="none" stroke="#aaa" stroke-opacity="0.5" stroke-width="0.5"></path><path d="M302.8196 157.7873L195.5704 164.349" fill="none" stroke="#aaa" stroke-opacity="0.5" stroke-width="0.5"></path><path d="M193.8981 81.9832L244.5904 216.2396" fill="none" stroke="#aaa" stroke-opacity="0.5" stroke-width="0.5"></path><path d="M203.6626 22.5949L271.6502 43.194" fill="none" stroke="#aaa" stroke-opacity="0.5" stroke-width="0.5"></path><path d="M244.5904 216.2396L233.7044 50.2808" fill="none" stroke="#aaa" stroke-opacity="0.5" stroke-width="0.5"></path><path d="M161.2082 39.6843L167.0979 123.389" fill="none" stroke="#aaa" stroke-opacity="0.5" stroke-width="0.5"></path><path d="M247.7793 106.9565L244.5904 216.2396" fill="none" stroke="#aaa" stroke-opacity="0.5" stroke-width="0.5"></path><path d="M193.8981 81.9832L195.5704 164.349" fill="none" stroke="#aaa" stroke-opacity="0.5" stroke-width="0.5"></path><path d="M135.4216 184.6716L281.8525 193.4257" fill="none" stroke="#aaa" stroke-opacity="0.5" stroke-width="0.5"></path><path d="M167.0979 123.389L244.5904 216.2396" fill="none" stroke="#aaa" stroke-opacity="0.5" stroke-width="0.5"></path><path d="M193.8981 81.9832L117.4487 149.947" fill="none" stroke="#aaa" stroke-opacity="0.5" stroke-width="0.5"></path><path d="M117.4487 149.947L244.5904 216.2396" fill="none" stroke="#aaa" stroke-opacity="0.5" stroke-width="0.5"></path><path d="M245.8847 159.0144L247.7793 106.9565" fill="none" stroke="#aaa" stroke-opacity="0.5" stroke-width="0.5"></path><path d="M193.8981 81.9832L203.6626 22.5949" fill="none" stroke="#aaa" stroke-opacity="0.5" stroke-width="0.5"></path><path d="M131.4844 70.6625L281.8525 193.4257" fill="none" stroke="#aaa" stroke-opacity="0.5" stroke-width="0.5"></path><path d="M247.7793 106.9565L203.6626 22.5949" fill="none" stroke="#aaa" stroke-opacity="0.5" stroke-width="0.5"></path><path d="M167.0979 123.389L203.6626 22.5949" fill="none" stroke="#aaa" stroke-opacity="0.5" stroke-width="0.5"></path><path d="M135.4216 184.6716L247.7793 106.9565" fill="none" stroke="#aaa" stroke-opacity="0.5" stroke-width="0.5"></path><path d="M204.897 221.8499L195.5704 164.349" fill="none" stroke="#aaa" stroke-opacity="0.5" stroke-width="0.5"></path><path d="M281.8525 193.4257L271.6502 43.194" fill="none" stroke="#aaa" stroke-opacity="0.5" stroke-width="0.5"></path><path d="M117.4487 149.947L203.6626 22.5949" fill="none" stroke="#aaa" stroke-opacity="0.5" stroke-width="0.5"></path><path d="M297.1586 77.7313L306.8807 117.4765" fill="none" stroke="#aaa" stroke-opacity="0.5" stroke-width="0.5"></path><path d="M245.8847 159.0144L195.5704 164.349" fill="none" stroke="#aaa" stroke-opacity="0.5" stroke-width="0.5"></path><path d="M204.897 221.8499L233.7044 50.2808" fill="none" stroke="#aaa" stroke-opacity="0.5" stroke-width="0.5"></path><path d="M247.7793 106.9565L302.8196 157.7873" fill="none" stroke="#aaa" stroke-opacity="0.5" stroke-width="0.5"></path><path d="M131.4844 70.6625L193.8981 81.9832" fill="none" stroke="#aaa" stroke-opacity="0.5" stroke-width="0.5"></path><path d="M131.4844 70.6625L161.2082 39.6843" fill="none" stroke="#aaa" stroke-opacity="0.5" stroke-width="0.5"></path><path d="M167.0979 123.389L302.8196 157.7873" fill="none" stroke="#aaa" stroke-opacity="0.5" stroke-width="0.5"></path><path d="M245.8847 159.0144L233.7044 50.2808" fill="none" stroke="#aaa" stroke-opacity="0.5" stroke-width="0.5"></path><path d="M117.4487 149.947L302.8196 157.7873" fill="none" stroke="#aaa" stroke-opacity="0.5" stroke-width="0.5"></path><path d="M135.4216 184.6716L195.5704 164.349" fill="none" stroke="#aaa" stroke-opacity="0.5" stroke-width="0.5"></path><path d="M233.7044 50.2808L271.6502 43.194" fill="none" stroke="#aaa" stroke-opacity="0.5" stroke-width="0.5"></path><path d="M203.6626 22.5949L233.7044 50.2808" fill="none" stroke="#aaa" stroke-opacity="0.5" stroke-width="0.5"></path><path d="M193.8981 81.9832L167.0979 123.389" fill="none" stroke="#aaa" stroke-opacity="0.5" stroke-width="0.5"></path><path d="M165.3752 211.2298L271.6502 43.194" fill="none" stroke="#aaa" stroke-opacity="0.5" stroke-width="0.5"></path><path d="M135.4216 184.6716L233.7044 50.2808" fill="none" stroke="#aaa" stroke-opacity="0.5" stroke-width="0.5"></path><path d="M114.1331 107.5325L271.6502 43.194" fill="none" stroke="#aaa" stroke-opacity="0.5" stroke-width="0.5"></path><path d="M114.1331 107.5325L245.8847 159.0144" fill="none" stroke="#aaa" stroke-opacity="0.5" stroke-width="0.5"></path><path d="M131.4844 70.6625L195.5704 164.349" fill="none" stroke="#aaa" stroke-opacity="0.5" stroke-width="0.5"></path><path d="M131.4844 70.6625L117.4487 149.947" fill="none" stroke="#aaa" stroke-opacity="0.5" stroke-width="0.5"></path><path d="M117.4487 149.947L167.0979 123.389" fill="none" stroke="#aaa" stroke-opacity="0.5" stroke-width="0.5"></path><path d="M1 0A1 1 0 1 1 1 -0.0001" fill="#5470c6" transform="matrix(18,0,0,18,245.8847,159.0144)"></path><path d="M1 0A1 1 0 1 1 1 -0.0001" fill="#5470c6" transform="matrix(18,0,0,18,302.8196,157.7873)"></path><path d="M1 0A1 1 0 1 1 1 -0.0001" fill="#5470c6" transform="matrix(18,0,0,18,281.8525,193.4257)"></path><path d="M1 0A1 1 0 1 1 1 -0.0001" fill="#5470c6" transform="matrix(18,0,0,18,244.5904,216.2396)"></path><path d="M1 0A1 1 0 1 1 1 -0.0001" fill="#5470c6" transform="matrix(18,0,0,18,204.897,221.8499)"></path><path d="M1 0A1 1 0 1 1 1 -0.0001" fill="#5470c6" transform="matrix(18,0,0,18,195.5704,164.349)"></path><path d="M1 0A1 1 0 1 1 1 -0.0001" fill="#5470c6" transform="matrix(18,0,0,18,165.3752,211.2298)"></path><path d="M1 0A1 1 0 1 1 1 -0.0001" fill="#5470c6" transform="matrix(18,0,0,18,167.0979,123.389)"></path><path d="M1 0A1 1 0 1 1 1 -0.0001" fill="#5470c6" transform="matrix(18,0,0,18,135.4216,184.6716)"></path><path d="M1 0A1 1 0 1 1 1 -0.0001" fill="#5470c6" transform="matrix(18,0,0,18,117.4487,149.947)"></path><path d="M1 0A1 1 0 1 1 1 -0.0001" fill="#5470c6" transform="matrix(18,0,0,18,114.1331,107.5325)"></path><path d="M1 0A1 1 0 1 1 1 -0.0001" fill="#5470c6" transform="matrix(18,0,0,18,193.8981,81.9832)"></path><path d="M1 0A1 1 0 1 1 1 -0.0001" fill="#5470c6" transform="matrix(18,0,0,18,131.4844,70.6625)"></path><path d="M1 0A1 1 0 1 1 1 -0.0001" fill="#5470c6" transform="matrix(18,0,0,18,161.2082,39.6843)"></path><path d="M1 0A1 1 0 1 1 1 -0.0001" fill="#5470c6" transform="matrix(18,0,0,18,203.6626,22.5949)"></path><path d="M1 0A1 1 0 1 1 1 -0.0001" fill="#5470c6" transform="matrix(18,0,0,18,247.7793,106.9565)"></path><path d="M1 0A1 1 0 1 1 1 -0.0001" fill="#5470c6" transform="matrix(18,0,0,18,233.7044,50.2808)"></path><path d="M1 0A1 1 0 1 1 1 -0.0001" fill="#5470c6" transform="matrix(18,0,0,18,271.6502,43.194)"></path><path d="M1 0A1 1 0 1 1 1 -0.0001" fill="#5470c6" transform="matrix(18,0,0,18,297.1586,77.7313)"></path><path d="M1 0A1 1 0 1 1 1 -0.0001" fill="#5470c6" transform="matrix(18,0,0,18,306.8807,117.4765)"></path><path d="M-31.2969 -5l62.5938 0l0 32l-62.5937 0Z" fill="rgb(0,0,0)" fill-opacity="0" stroke="#ccc" stroke-width="0" transform="translate(237.5 5)"></path><text dominant-baseline="central" fill="#333" style="font-size:22px;font-family:sans-serif;font-weight:bolder;" text-anchor="middle" transform="translate(237.5 5)" y="11">C107</text></g></svg>