<svg baseprofile="full" height="250" style="position:absolute;left:0;top:0;user-select:none" version="1.1" width="475" xmlns="http://www.w3.org/2000/svg" xmlns:xlink="http://www.w3.org/1999/xlink"><rect fill="none" height="250" id="0" width="475" x="0" y="0"></rect><g><path d="M183.818 166.8135L158.6839 209.451" fill="none" stroke="#aaa" stroke-opacity="0.5" stroke-width="0.5"></path><path d="M116.9864 94.5895L139.6089 58.9478" fill="none" stroke="#aaa" stroke-opacity="0.5" stroke-width="0.5"></path><path d="M158.6839 209.451L220.7561 27.1124" fill="none" stroke="#aaa" stroke-opacity="0.5" stroke-width="0.5"></path><path d="M238.4964 84.8963L279.4712 193.9929" fill="none" stroke="#aaa" stroke-opacity="0.5" stroke-width="0.5"></path><path d="M310.2226 113.1063L305.3401 159.0746" fill="none" stroke="#aaa" stroke-opacity="0.5" stroke-width="0.5"></path><path d="M233.0195 167.0196L166.5348 120.9267" fill="none" stroke="#aaa" stroke-opacity="0.5" stroke-width="0.5"></path><path d="M166.5348 120.9267L189.4515 77.1603" fill="none" stroke="#aaa" stroke-opacity="0.5" stroke-width="0.5"></path><path d="M238.4964 84.8963L293.5896 71.3615" fill="none" stroke="#aaa" stroke-opacity="0.5" stroke-width="0.5"></path><path d="M139.6089 58.9478L189.4515 77.1603" fill="none" stroke="#aaa" stroke-opacity="0.5" stroke-width="0.5"></path><path d="M262.453 127.5973L116.9864 94.5895" fill="none" stroke="#aaa" stroke-opacity="0.5" stroke-width="0.5"></path><path d="M233.0195 167.0196L116.9864 94.5895" fill="none" stroke="#aaa" stroke-opacity="0.5" stroke-width="0.5"></path><path d="M310.2226 113.1063L114.2516 138.0162" fill="none" stroke="#aaa" stroke-opacity="0.5" stroke-width="0.5"></path><path d="M262.453 127.5973L279.4712 193.9929" fill="none" stroke="#aaa" stroke-opacity="0.5" stroke-width="0.5"></path><path d="M262.453 127.5973L183.818 166.8135" fill="none" stroke="#aaa" stroke-opacity="0.5" stroke-width="0.5"></path><path d="M175.3505 31.4671L238.4964 84.8963" fill="none" stroke="#aaa" stroke-opacity="0.5" stroke-width="0.5"></path><path d="M233.0195 167.0196L279.4712 193.9929" fill="none" stroke="#aaa" stroke-opacity="0.5" stroke-width="0.5"></path><path d="M233.0195 167.5L183.818 167.5" fill="none" stroke="#aaa" stroke-opacity="0.5" stroke-width="0.5"></path><path d="M158.6839 209.451L166.5348 120.9267" fill="none" stroke="#aaa" stroke-opacity="0.5" stroke-width="0.5"></path><path d="M116.9864 94.5895L263.3641 40.768" fill="none" stroke="#aaa" stroke-opacity="0.5" stroke-width="0.5"></path><path d="M139.6089 58.9478L305.3401 159.0746" fill="none" stroke="#aaa" stroke-opacity="0.5" stroke-width="0.5"></path><path d="M305.3401 159.0746L263.3641 40.768" fill="none" stroke="#aaa" stroke-opacity="0.5" stroke-width="0.5"></path><path d="M263.3641 40.768L279.4712 193.9929" fill="none" stroke="#aaa" stroke-opacity="0.5" stroke-width="0.5"></path><path d="M127.9178 177.8255L293.5896 71.3615" fill="none" stroke="#aaa" stroke-opacity="0.5" stroke-width="0.5"></path><path d="M233.0195 167.0196L293.5896 71.3615" fill="none" stroke="#aaa" stroke-opacity="0.5" stroke-width="0.5"></path><path d="M175.3505 31.4671L139.6089 58.9478" fill="none" stroke="#aaa" stroke-opacity="0.5" stroke-width="0.5"></path><path d="M158.6839 209.451L279.4712 193.9929" fill="none" stroke="#aaa" stroke-opacity="0.5" stroke-width="0.5"></path><path d="M263.3641 40.768L293.5896 71.3615" fill="none" stroke="#aaa" stroke-opacity="0.5" stroke-width="0.5"></path><path d="M116.9864 94.5895L243.0623 218.6311" fill="none" stroke="#aaa" stroke-opacity="0.5" stroke-width="0.5"></path><path d="M243.0623 218.6311L166.5348 120.9267" fill="none" stroke="#aaa" stroke-opacity="0.5" stroke-width="0.5"></path><path d="M305.3401 159.0746L220.7561 27.1124" fill="none" stroke="#aaa" stroke-opacity="0.5" stroke-width="0.5"></path><path d="M310.2226 113.1063L220.7561 27.1124" fill="none" stroke="#aaa" stroke-opacity="0.5" stroke-width="0.5"></path><path d="M262.453 127.5973L238.4964 84.8963" fill="none" stroke="#aaa" stroke-opacity="0.5" stroke-width="0.5"></path><path d="M200.1392 221.2425L189.4515 77.1603" fill="none" stroke="#aaa" stroke-opacity="0.5" stroke-width="0.5"></path><path d="M279.4712 193.9929L189.4515 77.1603" fill="none" stroke="#aaa" stroke-opacity="0.5" stroke-width="0.5"></path><path d="M233.0195 167.0196L238.4964 84.8963" fill="none" stroke="#aaa" stroke-opacity="0.5" stroke-width="0.5"></path><path d="M158.6839 209.451L293.5896 71.3615" fill="none" stroke="#aaa" stroke-opacity="0.5" stroke-width="0.5"></path><path d="M127.9178 177.8255L189.4515 77.1603" fill="none" stroke="#aaa" stroke-opacity="0.5" stroke-width="0.5"></path><path d="M243.0623 218.6311L183.818 166.8135" fill="none" stroke="#aaa" stroke-opacity="0.5" stroke-width="0.5"></path><path d="M200.1392 221.2425L305.3401 159.0746" fill="none" stroke="#aaa" stroke-opacity="0.5" stroke-width="0.5"></path><path d="M114.2516 138.0162L166.5348 120.9267" fill="none" stroke="#aaa" stroke-opacity="0.5" stroke-width="0.5"></path><path d="M127.9178 177.8255L200.1392 221.2425" fill="none" stroke="#aaa" stroke-opacity="0.5" stroke-width="0.5"></path><path d="M262.453 127.5973L139.6089 58.9478" fill="none" stroke="#aaa" stroke-opacity="0.5" stroke-width="0.5"></path><path d="M233.0195 167.0196L200.1392 221.2425" fill="none" stroke="#aaa" stroke-opacity="0.5" stroke-width="0.5"></path><path d="M166.5348 120.9267L220.7561 27.1124" fill="none" stroke="#aaa" stroke-opacity="0.5" stroke-width="0.5"></path><path d="M233.0195 167.0196L139.6089 58.9478" fill="none" stroke="#aaa" stroke-opacity="0.5" stroke-width="0.5"></path><path d="M127.9178 177.8255L305.3401 159.0746" fill="none" stroke="#aaa" stroke-opacity="0.5" stroke-width="0.5"></path><path d="M175.3505 31.4671L263.3641 40.768" fill="none" stroke="#aaa" stroke-opacity="0.5" stroke-width="0.5"></path><path d="M139.6089 58.9478L158.6839 209.451" fill="none" stroke="#aaa" stroke-opacity="0.5" stroke-width="0.5"></path><path d="M262.453 127.5973L189.4515 77.1603" fill="none" stroke="#aaa" stroke-opacity="0.5" stroke-width="0.5"></path><path d="M238.4964 84.8963L263.3641 40.768" fill="none" stroke="#aaa" stroke-opacity="0.5" stroke-width="0.5"></path><path d="M139.6089 58.9478L220.7561 27.1124" fill="none" stroke="#aaa" stroke-opacity="0.5" stroke-width="0.5"></path><path d="M243.0623 218.6311L293.5896 71.3615" fill="none" stroke="#aaa" stroke-opacity="0.5" stroke-width="0.5"></path><path d="M114.2516 138.0162L183.818 166.8135" fill="none" stroke="#aaa" stroke-opacity="0.5" stroke-width="0.5"></path><path d="M310.2226 113.1063L166.5348 120.9267" fill="none" stroke="#aaa" stroke-opacity="0.5" stroke-width="0.5"></path><path d="M220.7561 27.1124L189.4515 77.1603" fill="none" stroke="#aaa" stroke-opacity="0.5" stroke-width="0.5"></path><path d="M238.4964 84.8963L158.6839 209.451" fill="none" stroke="#aaa" stroke-opacity="0.5" stroke-width="0.5"></path><path d="M175.3505 31.4671L243.0623 218.6311" fill="none" stroke="#aaa" stroke-opacity="0.5" stroke-width="0.5"></path><path d="M175.3505 31.4671L127.9178 177.8255" fill="none" stroke="#aaa" stroke-opacity="0.5" stroke-width="0.5"></path><path d="M238.4964 84.8963L220.7561 27.1124" fill="none" stroke="#aaa" stroke-opacity="0.5" stroke-width="0.5"></path><path d="M114.2516 138.0162L293.5896 71.3615" fill="none" stroke="#aaa" stroke-opacity="0.5" stroke-width="0.5"></path><path d="M183.818 166.8135L189.4515 77.1603" fill="none" stroke="#aaa" stroke-opacity="0.5" stroke-width="0.5"></path><path d="M310.2226 113.1063L279.4712 193.9929" fill="none" stroke="#aaa" stroke-opacity="0.5" stroke-width="0.5"></path><path d="M310.2226 113.1063L183.818 166.8135" fill="none" stroke="#aaa" stroke-opacity="0.5" stroke-width="0.5"></path><path d="M127.9178 177.8255L263.3641 40.768" fill="none" stroke="#aaa" stroke-opacity="0.5" stroke-width="0.5"></path><path d="M233.0195 167.0196L263.3641 40.768" fill="none" stroke="#aaa" stroke-opacity="0.5" stroke-width="0.5"></path><path d="M262.453 127.5973L114.2516 138.0162" fill="none" stroke="#aaa" stroke-opacity="0.5" stroke-width="0.5"></path><path d="M139.6089 58.9478L166.5348 120.9267" fill="none" stroke="#aaa" stroke-opacity="0.5" stroke-width="0.5"></path><path d="M183.818 166.8135L305.3401 159.0746" fill="none" stroke="#aaa" stroke-opacity="0.5" stroke-width="0.5"></path><path d="M200.1392 221.2425L158.6839 209.451" fill="none" stroke="#aaa" stroke-opacity="0.5" stroke-width="0.5"></path><path d="M310.2226 113.1063L293.5896 71.3615" fill="none" stroke="#aaa" stroke-opacity="0.5" stroke-width="0.5"></path><path d="M243.0623 218.6311L305.3401 159.0746" fill="none" stroke="#aaa" stroke-opacity="0.5" stroke-width="0.5"></path><path d="M200.1392 221.2425L220.7561 27.1124" fill="none" stroke="#aaa" stroke-opacity="0.5" stroke-width="0.5"></path><path d="M127.9178 177.8255L158.6839 209.451" fill="none" stroke="#aaa" stroke-opacity="0.5" stroke-width="0.5"></path><path d="M166.5348 120.9267L279.4712 193.9929" fill="none" stroke="#aaa" stroke-opacity="0.5" stroke-width="0.5"></path><path d="M233.0195 167.0196L158.6839 209.451" fill="none" stroke="#aaa" stroke-opacity="0.5" stroke-width="0.5"></path><path d="M127.9178 177.8255L220.7561 27.1124" fill="none" stroke="#aaa" stroke-opacity="0.5" stroke-width="0.5"></path><path d="M158.6839 209.451L263.3641 40.768" fill="none" stroke="#aaa" stroke-opacity="0.5" stroke-width="0.5"></path><path d="M233.0195 167.0196L243.0623 218.6311" fill="none" stroke="#aaa" stroke-opacity="0.5" stroke-width="0.5"></path><path d="M262.453 127.5973L127.9178 177.8255" fill="none" stroke="#aaa" stroke-opacity="0.5" stroke-width="0.5"></path><path d="M116.9864 94.5895L293.5896 71.3615" fill="none" stroke="#aaa" stroke-opacity="0.5" stroke-width="0.5"></path><path d="M233.0195 167.0196L127.9178 177.8255" fill="none" stroke="#aaa" stroke-opacity="0.5" stroke-width="0.5"></path><path d="M139.6089 58.9478L279.4712 193.9929" fill="none" stroke="#aaa" stroke-opacity="0.5" stroke-width="0.5"></path><path d="M139.6089 58.9478L183.818 166.8135" fill="none" stroke="#aaa" stroke-opacity="0.5" stroke-width="0.5"></path><path d="M114.2516 138.0162L200.1392 221.2425" fill="none" stroke="#aaa" stroke-opacity="0.5" stroke-width="0.5"></path><path d="M310.2226 113.1063L238.4964 84.8963" fill="none" stroke="#aaa" stroke-opacity="0.5" stroke-width="0.5"></path><path d="M166.5348 120.9267L293.5896 71.3615" fill="none" stroke="#aaa" stroke-opacity="0.5" stroke-width="0.5"></path><path d="M114.2516 138.0162L305.3401 159.0746" fill="none" stroke="#aaa" stroke-opacity="0.5" stroke-width="0.5"></path><path d="M243.0623 218.6311L263.3641 40.768" fill="none" stroke="#aaa" stroke-opacity="0.5" stroke-width="0.5"></path><path d="M310.2226 113.1063L200.1392 221.2425" fill="none" stroke="#aaa" stroke-opacity="0.5" stroke-width="0.5"></path><path d="M310.2226 113.1063L139.6089 58.9478" fill="none" stroke="#aaa" stroke-opacity="0.5" stroke-width="0.5"></path><path d="M200.1392 221.2425L166.5348 120.9267" fill="none" stroke="#aaa" stroke-opacity="0.5" stroke-width="0.5"></path><path d="M116.9864 94.5895L189.4515 77.1603" fill="none" stroke="#aaa" stroke-opacity="0.5" stroke-width="0.5"></path><path d="M127.9178 177.8255L166.5348 120.9267" fill="none" stroke="#aaa" stroke-opacity="0.5" stroke-width="0.5"></path><path d="M305.3401 159.0746L189.4515 77.1603" fill="none" stroke="#aaa" stroke-opacity="0.5" stroke-width="0.5"></path><path d="M175.3505 31.4671L262.453 127.5973" fill="none" stroke="#aaa" stroke-opacity="0.5" stroke-width="0.5"></path><path d="M139.6089 58.9478L238.4964 84.8963" fill="none" stroke="#aaa" stroke-opacity="0.5" stroke-width="0.5"></path><path d="M116.9864 94.5895L200.1392 221.2425" fill="none" stroke="#aaa" stroke-opacity="0.5" stroke-width="0.5"></path><path d="M183.818 166.8135L220.7561 27.1124" fill="none" stroke="#aaa" stroke-opacity="0.5" stroke-width="0.5"></path><path d="M116.9864 94.5895L305.3401 159.0746" fill="none" stroke="#aaa" stroke-opacity="0.5" stroke-width="0.5"></path><path d="M243.0623 218.6311L158.6839 209.451" fill="none" stroke="#aaa" stroke-opacity="0.5" stroke-width="0.5"></path><path d="M127.9178 177.8255L116.9864 94.5895" fill="none" stroke="#aaa" stroke-opacity="0.5" stroke-width="0.5"></path><path d="M114.2516 138.0162L263.3641 40.768" fill="none" stroke="#aaa" stroke-opacity="0.5" stroke-width="0.5"></path><path d="M200.1392 221.2425L279.4712 193.9929" fill="none" stroke="#aaa" stroke-opacity="0.5" stroke-width="0.5"></path><path d="M200.1392 221.2425L183.818 166.8135" fill="none" stroke="#aaa" stroke-opacity="0.5" stroke-width="0.5"></path><path d="M243.0623 218.6311L220.7561 27.1124" fill="none" stroke="#aaa" stroke-opacity="0.5" stroke-width="0.5"></path><path d="M127.9178 177.8255L279.4712 193.9929" fill="none" stroke="#aaa" stroke-opacity="0.5" stroke-width="0.5"></path><path d="M175.3505 31.4671L293.5896 71.3615" fill="none" stroke="#aaa" stroke-opacity="0.5" stroke-width="0.5"></path><path d="M127.9178 177.8255L183.818 166.8135" fill="none" stroke="#aaa" stroke-opacity="0.5" stroke-width="0.5"></path><path d="M262.453 127.5973L166.5348 120.9267" fill="none" stroke="#aaa" stroke-opacity="0.5" stroke-width="0.5"></path><path d="M200.1392 221.2425L293.5896 71.3615" fill="none" stroke="#aaa" stroke-opacity="0.5" stroke-width="0.5"></path><path d="M279.4712 193.9929L293.5896 71.3615" fill="none" stroke="#aaa" stroke-opacity="0.5" stroke-width="0.5"></path><path d="M116.9864 94.5895L114.2516 138.0162" fill="none" stroke="#aaa" stroke-opacity="0.5" stroke-width="0.5"></path><path d="M114.2516 138.0162L158.6839 209.451" fill="none" stroke="#aaa" stroke-opacity="0.5" stroke-width="0.5"></path><path d="M310.2226 113.1063L263.3641 40.768" fill="none" stroke="#aaa" stroke-opacity="0.5" stroke-width="0.5"></path><path d="M114.2516 138.0162L220.7561 27.1124" fill="none" stroke="#aaa" stroke-opacity="0.5" stroke-width="0.5"></path><path d="M114.2516 138.0162L243.0623 218.6311" fill="none" stroke="#aaa" stroke-opacity="0.5" stroke-width="0.5"></path><path d="M233.0195 167.0196L262.453 127.5973" fill="none" stroke="#aaa" stroke-opacity="0.5" stroke-width="0.5"></path><path d="M175.3505 31.4671L189.4515 77.1603" fill="none" stroke="#aaa" stroke-opacity="0.5" stroke-width="0.5"></path><path d="M183.818 166.8135L166.5348 120.9267" fill="none" stroke="#aaa" stroke-opacity="0.5" stroke-width="0.5"></path><path d="M200.1392 221.2425L238.4964 84.8963" fill="none" stroke="#aaa" stroke-opacity="0.5" stroke-width="0.5"></path><path d="M310.2226 113.1063L158.6839 209.451" fill="none" stroke="#aaa" stroke-opacity="0.5" stroke-width="0.5"></path><path d="M238.4964 84.8963L189.4515 77.1603" fill="none" stroke="#aaa" stroke-opacity="0.5" stroke-width="0.5"></path><path d="M166.5348 120.9267L263.3641 40.768" fill="none" stroke="#aaa" stroke-opacity="0.5" stroke-width="0.5"></path><path d="M262.453 127.5973L293.5896 71.3615" fill="none" stroke="#aaa" stroke-opacity="0.5" stroke-width="0.5"></path><path d="M127.9178 177.8255L238.4964 84.8963" fill="none" stroke="#aaa" stroke-opacity="0.5" stroke-width="0.5"></path><path d="M310.2226 113.1063L243.0623 218.6311" fill="none" stroke="#aaa" stroke-opacity="0.5" stroke-width="0.5"></path><path d="M310.2226 113.1063L127.9178 177.8255" fill="none" stroke="#aaa" stroke-opacity="0.5" stroke-width="0.5"></path><path d="M175.3505 31.4671L200.1392 221.2425" fill="none" stroke="#aaa" stroke-opacity="0.5" stroke-width="0.5"></path><path d="M175.3505 31.4671L305.3401 159.0746" fill="none" stroke="#aaa" stroke-opacity="0.5" stroke-width="0.5"></path><path d="M139.6089 58.9478L263.3641 40.768" fill="none" stroke="#aaa" stroke-opacity="0.5" stroke-width="0.5"></path><path d="M116.9864 94.5895L158.6839 209.451" fill="none" stroke="#aaa" stroke-opacity="0.5" stroke-width="0.5"></path><path d="M183.818 166.8135L279.4712 193.9929" fill="none" stroke="#aaa" stroke-opacity="0.5" stroke-width="0.5"></path><path d="M238.4964 84.8963L305.3401 159.0746" fill="none" stroke="#aaa" stroke-opacity="0.5" stroke-width="0.5"></path><path d="M200.1392 221.2425L139.6089 58.9478" fill="none" stroke="#aaa" stroke-opacity="0.5" stroke-width="0.5"></path><path d="M116.9864 94.5895L220.7561 27.1124" fill="none" stroke="#aaa" stroke-opacity="0.5" stroke-width="0.5"></path><path d="M220.7561 27.1124L293.5896 71.3615" fill="none" stroke="#aaa" stroke-opacity="0.5" stroke-width="0.5"></path><path d="M243.0623 218.6311L279.4712 193.9929" fill="none" stroke="#aaa" stroke-opacity="0.5" stroke-width="0.5"></path><path d="M127.9178 177.8255L139.6089 58.9478" fill="none" stroke="#aaa" stroke-opacity="0.5" stroke-width="0.5"></path><path d="M175.3505 31.4671L114.2516 138.0162" fill="none" stroke="#aaa" stroke-opacity="0.5" stroke-width="0.5"></path><path d="M183.818 166.8135L293.5896 71.3615" fill="none" stroke="#aaa" stroke-opacity="0.5" stroke-width="0.5"></path><path d="M233.0195 167.0196L189.4515 77.1603" fill="none" stroke="#aaa" stroke-opacity="0.5" stroke-width="0.5"></path><path d="M139.6089 58.9478L243.0623 218.6311" fill="none" stroke="#aaa" stroke-opacity="0.5" stroke-width="0.5"></path><path d="M114.2516 138.0162L279.4712 193.9929" fill="none" stroke="#aaa" stroke-opacity="0.5" stroke-width="0.5"></path><path d="M262.453 127.5973L200.1392 221.2425" fill="none" stroke="#aaa" stroke-opacity="0.5" stroke-width="0.5"></path><path d="M263.3641 40.768L189.4515 77.1603" fill="none" stroke="#aaa" stroke-opacity="0.5" stroke-width="0.5"></path><path d="M262.453 127.5973L305.3401 159.0746" fill="none" stroke="#aaa" stroke-opacity="0.5" stroke-width="0.5"></path><path d="M233.0195 167.0196L305.3401 159.0746" fill="none" stroke="#aaa" stroke-opacity="0.5" stroke-width="0.5"></path><path d="M183.818 166.8135L238.4964 84.8963" fill="none" stroke="#aaa" stroke-opacity="0.5" stroke-width="0.5"></path><path d="M310.2226 113.1063L116.9864 94.5895" fill="none" stroke="#aaa" stroke-opacity="0.5" stroke-width="0.5"></path><path d="M116.9864 94.5895L166.5348 120.9267" fill="none" stroke="#aaa" stroke-opacity="0.5" stroke-width="0.5"></path><path d="M200.1392 221.2425L263.3641 40.768" fill="none" stroke="#aaa" stroke-opacity="0.5" stroke-width="0.5"></path><path d="M243.0623 218.6311L238.4964 84.8963" fill="none" stroke="#aaa" stroke-opacity="0.5" stroke-width="0.5"></path><path d="M158.6839 209.451L189.4515 77.1603" fill="none" stroke="#aaa" stroke-opacity="0.5" stroke-width="0.5"></path><path d="M305.3401 159.0746L166.5348 120.9267" fill="none" stroke="#aaa" stroke-opacity="0.5" stroke-width="0.5"></path><path d="M127.9178 177.8255L114.2516 138.0162" fill="none" stroke="#aaa" stroke-opacity="0.5" stroke-width="0.5"></path><path d="M175.3505 31.4671L158.6839 209.451" fill="none" stroke="#aaa" stroke-opacity="0.5" stroke-width="0.5"></path><path d="M175.3505 31.4671L233.0195 167.0196" fill="none" stroke="#aaa" stroke-opacity="0.5" stroke-width="0.5"></path><path d="M233.0195 167.0196L114.2516 138.0162" fill="none" stroke="#aaa" stroke-opacity="0.5" stroke-width="0.5"></path><path d="M175.3505 31.4671L310.2226 113.1063" fill="none" stroke="#aaa" stroke-opacity="0.5" stroke-width="0.5"></path><path d="M175.3505 31.4671L220.7561 27.1124" fill="none" stroke="#aaa" stroke-opacity="0.5" stroke-width="0.5"></path><path d="M158.6839 209.451L305.3401 159.0746" fill="none" stroke="#aaa" stroke-opacity="0.5" stroke-width="0.5"></path><path d="M116.9864 94.5895L279.4712 193.9929" fill="none" stroke="#aaa" stroke-opacity="0.5" stroke-width="0.5"></path><path d="M116.9864 94.5895L183.818 166.8135" fill="none" stroke="#aaa" stroke-opacity="0.5" stroke-width="0.5"></path><path d="M114.2516 138.0162L238.4964 84.8963" fill="none" stroke="#aaa" stroke-opacity="0.5" stroke-width="0.5"></path><path d="M305.3401 159.0746L279.4712 193.9929" fill="none" stroke="#aaa" stroke-opacity="0.5" stroke-width="0.5"></path><path d="M279.4712 193.9929L220.7561 27.1124" fill="none" stroke="#aaa" stroke-opacity="0.5" stroke-width="0.5"></path><path d="M310.2226 113.1063L262.453 127.5973" fill="none" stroke="#aaa" stroke-opacity="0.5" stroke-width="0.5"></path><path d="M200.1392 221.2425L243.0623 218.6311" fill="none" stroke="#aaa" stroke-opacity="0.5" stroke-width="0.5"></path><path d="M262.453 127.5973L263.3641 40.768" fill="none" stroke="#aaa" stroke-opacity="0.5" stroke-width="0.5"></path><path d="M243.0623 218.6311L189.4515 77.1603" fill="none" stroke="#aaa" stroke-opacity="0.5" stroke-width="0.5"></path><path d="M127.9178 177.8255L243.0623 218.6311" fill="none" stroke="#aaa" stroke-opacity="0.5" stroke-width="0.5"></path><path d="M305.3401 159.0746L293.5896 71.3615" fill="none" stroke="#aaa" stroke-opacity="0.5" stroke-width="0.5"></path><path d="M114.2516 138.0162L139.6089 58.9478" fill="none" stroke="#aaa" stroke-opacity="0.5" stroke-width="0.5"></path><path d="M262.453 127.5973L158.6839 209.451" fill="none" stroke="#aaa" stroke-opacity="0.5" stroke-width="0.5"></path><path d="M114.2516 138.0162L189.4515 77.1603" fill="none" stroke="#aaa" stroke-opacity="0.5" stroke-width="0.5"></path><path d="M233.0195 167.0196L310.2226 113.1063" fill="none" stroke="#aaa" stroke-opacity="0.5" stroke-width="0.5"></path><path d="M262.453 127.5973L220.7561 27.1124" fill="none" stroke="#aaa" stroke-opacity="0.5" stroke-width="0.5"></path><path d="M233.0195 167.0196L220.7561 27.1124" fill="none" stroke="#aaa" stroke-opacity="0.5" stroke-width="0.5"></path><path d="M175.3505 31.4671L166.5348 120.9267" fill="none" stroke="#aaa" stroke-opacity="0.5" stroke-width="0.5"></path><path d="M262.453 127.5973L243.0623 218.6311" fill="none" stroke="#aaa" stroke-opacity="0.5" stroke-width="0.5"></path><path d="M183.818 166.8135L263.3641 40.768" fill="none" stroke="#aaa" stroke-opacity="0.5" stroke-width="0.5"></path><path d="M116.9864 94.5895L238.4964 84.8963" fill="none" stroke="#aaa" stroke-opacity="0.5" stroke-width="0.5"></path><path d="M238.4964 84.8963L166.5348 120.9267" fill="none" stroke="#aaa" stroke-opacity="0.5" stroke-width="0.5"></path><path d="M263.3641 40.768L220.7561 27.1124" fill="none" stroke="#aaa" stroke-opacity="0.5" stroke-width="0.5"></path><path d="M175.3505 31.4671L116.9864 94.5895" fill="none" stroke="#aaa" stroke-opacity="0.5" stroke-width="0.5"></path><path d="M310.2226 113.1063L189.4515 77.1603" fill="none" stroke="#aaa" stroke-opacity="0.5" stroke-width="0.5"></path><path d="M139.6089 58.9478L293.5896 71.3615" fill="none" stroke="#aaa" stroke-opacity="0.5" stroke-width="0.5"></path><path d="M175.3505 31.4671L279.4712 193.9929" fill="none" stroke="#aaa" stroke-opacity="0.5" stroke-width="0.5"></path><path d="M189.4515 77.1603L293.5896 71.3615" fill="none" stroke="#aaa" stroke-opacity="0.5" stroke-width="0.5"></path><path d="M175.3505 31.4671L183.818 166.8135" fill="none" stroke="#aaa" stroke-opacity="0.5" stroke-width="0.5"></path><path d="M1 0A1 1 0 1 1 1 -0.0001" fill="#5470c6" transform="matrix(18,0,0,18,305.3401,159.0746)"></path><path d="M1 0A1 1 0 1 1 1 -0.0001" fill="#5470c6" transform="matrix(18,0,0,18,262.453,127.5973)"></path><path d="M1 0A1 1 0 1 1 1 -0.0001" fill="#5470c6" transform="matrix(18,0,0,18,279.4712,193.9929)"></path><path d="M1 0A1 1 0 1 1 1 -0.0001" fill="#5470c6" transform="matrix(18,0,0,18,243.0623,218.6311)"></path><path d="M1 0A1 1 0 1 1 1 -0.0001" fill="#5470c6" transform="matrix(18,0,0,18,200.1392,221.2425)"></path><path d="M1 0A1 1 0 1 1 1 -0.0001" fill="#5470c6" transform="matrix(18,0,0,18,233.0195,167.0196)"></path><path d="M1 0A1 1 0 1 1 1 -0.0001" fill="#5470c6" transform="matrix(18,0,0,18,158.6839,209.451)"></path><path d="M1 0A1 1 0 1 1 1 -0.0001" fill="#5470c6" transform="matrix(18,0,0,18,183.818,166.8135)"></path><path d="M1 0A1 1 0 1 1 1 -0.0001" fill="#5470c6" transform="matrix(18,0,0,18,127.9178,177.8255)"></path><path d="M1 0A1 1 0 1 1 1 -0.0001" fill="#5470c6" transform="matrix(18,0,0,18,114.2516,138.0162)"></path><path d="M1 0A1 1 0 1 1 1 -0.0001" fill="#5470c6" transform="matrix(18,0,0,18,116.9864,94.5895)"></path><path d="M1 0A1 1 0 1 1 1 -0.0001" fill="#5470c6" transform="matrix(18,0,0,18,139.6089,58.9478)"></path><path d="M1 0A1 1 0 1 1 1 -0.0001" fill="#5470c6" transform="matrix(18,0,0,18,166.5348,120.9267)"></path><path d="M1 0A1 1 0 1 1 1 -0.0001" fill="#5470c6" transform="matrix(18,0,0,18,175.3505,31.4671)"></path><path d="M1 0A1 1 0 1 1 1 -0.0001" fill="#5470c6" transform="matrix(18,0,0,18,189.4515,77.1603)"></path><path d="M1 0A1 1 0 1 1 1 -0.0001" fill="#5470c6" transform="matrix(18,0,0,18,220.7561,27.1124)"></path><path d="M1 0A1 1 0 1 1 1 -0.0001" fill="#5470c6" transform="matrix(18,0,0,18,263.3641,40.768)"></path><path d="M1 0A1 1 0 1 1 1 -0.0001" fill="#5470c6" transform="matrix(18,0,0,18,238.4964,84.8963)"></path><path d="M1 0A1 1 0 1 1 1 -0.0001" fill="#5470c6" transform="matrix(18,0,0,18,293.5896,71.3615)"></path><path d="M1 0A1 1 0 1 1 1 -0.0001" fill="#5470c6" transform="matrix(18,0,0,18,310.2226,113.1063)"></path><path d="M-31.2969 -5l62.5938 0l0 32l-62.5937 0Z" fill="rgb(0,0,0)" fill-opacity="0" stroke="#ccc" stroke-width="0" transform="translate(237.5 5)"></path><text dominant-baseline="central" fill="#333" style="font-size:22px;font-family:sans-serif;font-weight:bolder;" text-anchor="middle" transform="translate(237.5 5)" y="11">C108</text></g></svg>