<svg baseprofile="full" height="250" style="position:absolute;left:0;top:0;user-select:none" version="1.1" width="475" xmlns="http://www.w3.org/2000/svg" xmlns:xlink="http://www.w3.org/1999/xlink"><rect fill="none" height="250" id="0" width="475" x="0" y="0"></rect><g><path d="M122.6472 77.9318L245.3885 217.958" fill="none" stroke="#aaa" stroke-opacity="0.5" stroke-width="0.5"></path><path d="M155.4463 207.5283L245.7586 34.134" fill="none" stroke="#aaa" stroke-opacity="0.5" stroke-width="0.5"></path><path d="M124.841 172.6986L245.3885 217.958" fill="none" stroke="#aaa" stroke-opacity="0.5" stroke-width="0.5"></path><path d="M200.3307 25.9745L122.6472 77.9318" fill="none" stroke="#aaa" stroke-opacity="0.5" stroke-width="0.5"></path><path d="M155.2268 43.0832L245.3885 217.958" fill="none" stroke="#aaa" stroke-opacity="0.5" stroke-width="0.5"></path><path d="M243.4487 161.2192L122.6472 77.9318" fill="none" stroke="#aaa" stroke-opacity="0.5" stroke-width="0.5"></path><path d="M112.3496 127.2696L122.6472 77.9318" fill="none" stroke="#aaa" stroke-opacity="0.5" stroke-width="0.5"></path><path d="M284.7534 58.7181L286.8525 191.9527" fill="none" stroke="#aaa" stroke-opacity="0.5" stroke-width="0.5"></path><path d="M155.4463 207.5283L304.7423 147.3723" fill="none" stroke="#aaa" stroke-opacity="0.5" stroke-width="0.5"></path><path d="M204.5104 80.0122L286.8525 191.9527" fill="none" stroke="#aaa" stroke-opacity="0.5" stroke-width="0.5"></path><path d="M254.4122 105.0361L204.5104 80.0122" fill="none" stroke="#aaa" stroke-opacity="0.5" stroke-width="0.5"></path><path d="M243.4487 161.2192L284.7534 58.7181" fill="none" stroke="#aaa" stroke-opacity="0.5" stroke-width="0.5"></path><path d="M189.4532 161.2754L286.8525 191.9527" fill="none" stroke="#aaa" stroke-opacity="0.5" stroke-width="0.5"></path><path d="M155.4463 207.5283L155.2268 43.0832" fill="none" stroke="#aaa" stroke-opacity="0.5" stroke-width="0.5"></path><path d="M124.841 172.6986L122.6472 77.9318" fill="none" stroke="#aaa" stroke-opacity="0.5" stroke-width="0.5"></path><path d="M284.7534 58.7181L200.0508 222.5744" fill="none" stroke="#aaa" stroke-opacity="0.5" stroke-width="0.5"></path><path d="M308.1237 101.9633L286.8525 191.9527" fill="none" stroke="#aaa" stroke-opacity="0.5" stroke-width="0.5"></path><path d="M284.7534 58.7181L200.3307 25.9745" fill="none" stroke="#aaa" stroke-opacity="0.5" stroke-width="0.5"></path><path d="M284.7534 58.7181L161.9299 113.2982" fill="none" stroke="#aaa" stroke-opacity="0.5" stroke-width="0.5"></path><path d="M254.4122 105.0361L286.8525 191.9527" fill="none" stroke="#aaa" stroke-opacity="0.5" stroke-width="0.5"></path><path d="M245.3885 217.958L286.8525 191.9527" fill="none" stroke="#aaa" stroke-opacity="0.5" stroke-width="0.5"></path><path d="M204.5104 80.0122L161.9299 113.2982" fill="none" stroke="#aaa" stroke-opacity="0.5" stroke-width="0.5"></path><path d="M189.4532 161.2754L161.9299 113.2982" fill="none" stroke="#aaa" stroke-opacity="0.5" stroke-width="0.5"></path><path d="M308.1237 101.9633L161.9299 113.2982" fill="none" stroke="#aaa" stroke-opacity="0.5" stroke-width="0.5"></path><path d="M200.3307 25.9745L286.8525 191.9527" fill="none" stroke="#aaa" stroke-opacity="0.5" stroke-width="0.5"></path><path d="M304.7423 147.3723L200.0508 222.5744" fill="none" stroke="#aaa" stroke-opacity="0.5" stroke-width="0.5"></path><path d="M204.5104 80.0122L189.4532 161.2754" fill="none" stroke="#aaa" stroke-opacity="0.5" stroke-width="0.5"></path><path d="M161.9299 113.2982L286.8525 191.9527" fill="none" stroke="#aaa" stroke-opacity="0.5" stroke-width="0.5"></path><path d="M254.4122 105.0361L161.9299 113.2982" fill="none" stroke="#aaa" stroke-opacity="0.5" stroke-width="0.5"></path><path d="M200.0508 222.5744L286.8525 191.9527" fill="none" stroke="#aaa" stroke-opacity="0.5" stroke-width="0.5"></path><path d="M245.3885 217.958L161.9299 113.2982" fill="none" stroke="#aaa" stroke-opacity="0.5" stroke-width="0.5"></path><path d="M308.1237 101.9633L189.4532 161.2754" fill="none" stroke="#aaa" stroke-opacity="0.5" stroke-width="0.5"></path><path d="M200.3307 25.9745L200.0508 222.5744" fill="none" stroke="#aaa" stroke-opacity="0.5" stroke-width="0.5"></path><path d="M243.4487 161.2192L200.0508 222.5744" fill="none" stroke="#aaa" stroke-opacity="0.5" stroke-width="0.5"></path><path d="M112.3496 127.2696L200.0508 222.5744" fill="none" stroke="#aaa" stroke-opacity="0.5" stroke-width="0.5"></path><path d="M245.7586 34.134L286.8525 191.9527" fill="none" stroke="#aaa" stroke-opacity="0.5" stroke-width="0.5"></path><path d="M204.5104 80.0122L245.7586 34.134" fill="none" stroke="#aaa" stroke-opacity="0.5" stroke-width="0.5"></path><path d="M189.4532 161.2754L245.7586 34.134" fill="none" stroke="#aaa" stroke-opacity="0.5" stroke-width="0.5"></path><path d="M243.4487 161.2192L200.3307 25.9745" fill="none" stroke="#aaa" stroke-opacity="0.5" stroke-width="0.5"></path><path d="M112.3496 127.2696L200.3307 25.9745" fill="none" stroke="#aaa" stroke-opacity="0.5" stroke-width="0.5"></path><path d="M155.2268 43.0832L286.8525 191.9527" fill="none" stroke="#aaa" stroke-opacity="0.5" stroke-width="0.5"></path><path d="M200.3307 25.9745L161.9299 113.2982" fill="none" stroke="#aaa" stroke-opacity="0.5" stroke-width="0.5"></path><path d="M112.3496 127.2696L161.9299 113.2982" fill="none" stroke="#aaa" stroke-opacity="0.5" stroke-width="0.5"></path><path d="M308.1237 101.9633L245.7586 34.134" fill="none" stroke="#aaa" stroke-opacity="0.5" stroke-width="0.5"></path><path d="M254.4122 105.0361L189.4532 161.2754" fill="none" stroke="#aaa" stroke-opacity="0.5" stroke-width="0.5"></path><path d="M284.7534 58.7181L304.7423 147.3723" fill="none" stroke="#aaa" stroke-opacity="0.5" stroke-width="0.5"></path><path d="M284.7534 58.7181L155.2268 43.0832" fill="none" stroke="#aaa" stroke-opacity="0.5" stroke-width="0.5"></path><path d="M122.6472 77.9318L200.0508 222.5744" fill="none" stroke="#aaa" stroke-opacity="0.5" stroke-width="0.5"></path><path d="M204.5104 80.0122L245.3885 217.958" fill="none" stroke="#aaa" stroke-opacity="0.5" stroke-width="0.5"></path><path d="M189.4532 161.2754L245.3885 217.958" fill="none" stroke="#aaa" stroke-opacity="0.5" stroke-width="0.5"></path><path d="M124.841 172.6986L200.0508 222.5744" fill="none" stroke="#aaa" stroke-opacity="0.5" stroke-width="0.5"></path><path d="M204.5104 80.0122L124.841 172.6986" fill="none" stroke="#aaa" stroke-opacity="0.5" stroke-width="0.5"></path><path d="M254.4122 105.0361L308.1237 101.9633" fill="none" stroke="#aaa" stroke-opacity="0.5" stroke-width="0.5"></path><path d="M204.5104 80.0122L155.4463 207.5283" fill="none" stroke="#aaa" stroke-opacity="0.5" stroke-width="0.5"></path><path d="M254.4122 105.0361L245.7586 34.134" fill="none" stroke="#aaa" stroke-opacity="0.5" stroke-width="0.5"></path><path d="M245.3885 217.958L245.7586 34.134" fill="none" stroke="#aaa" stroke-opacity="0.5" stroke-width="0.5"></path><path d="M308.1237 101.9633L304.7423 147.3723" fill="none" stroke="#aaa" stroke-opacity="0.5" stroke-width="0.5"></path><path d="M155.2268 43.0832L161.9299 113.2982" fill="none" stroke="#aaa" stroke-opacity="0.5" stroke-width="0.5"></path><path d="M308.1237 101.9633L155.2268 43.0832" fill="none" stroke="#aaa" stroke-opacity="0.5" stroke-width="0.5"></path><path d="M308.1237 101.9633L155.4463 207.5283" fill="none" stroke="#aaa" stroke-opacity="0.5" stroke-width="0.5"></path><path d="M254.4122 105.0361L243.4487 161.2192" fill="none" stroke="#aaa" stroke-opacity="0.5" stroke-width="0.5"></path><path d="M155.4463 207.5283L200.3307 25.9745" fill="none" stroke="#aaa" stroke-opacity="0.5" stroke-width="0.5"></path><path d="M200.3307 25.9745L245.7586 34.134" fill="none" stroke="#aaa" stroke-opacity="0.5" stroke-width="0.5"></path><path d="M204.5104 80.0122L122.6472 77.9318" fill="none" stroke="#aaa" stroke-opacity="0.5" stroke-width="0.5"></path><path d="M254.4122 105.0361L245.3885 217.958" fill="none" stroke="#aaa" stroke-opacity="0.5" stroke-width="0.5"></path><path d="M254.4122 105.0361L304.7423 147.3723" fill="none" stroke="#aaa" stroke-opacity="0.5" stroke-width="0.5"></path><path d="M254.4122 105.0361L155.2268 43.0832" fill="none" stroke="#aaa" stroke-opacity="0.5" stroke-width="0.5"></path><path d="M254.4122 105.0361L155.4463 207.5283" fill="none" stroke="#aaa" stroke-opacity="0.5" stroke-width="0.5"></path><path d="M155.2268 43.0832L189.4532 161.2754" fill="none" stroke="#aaa" stroke-opacity="0.5" stroke-width="0.5"></path><path d="M161.9299 113.2982L245.7586 34.134" fill="none" stroke="#aaa" stroke-opacity="0.5" stroke-width="0.5"></path><path d="M254.4122 105.0361L112.3496 127.2696" fill="none" stroke="#aaa" stroke-opacity="0.5" stroke-width="0.5"></path><path d="M200.3307 25.9745L304.7423 147.3723" fill="none" stroke="#aaa" stroke-opacity="0.5" stroke-width="0.5"></path><path d="M243.4487 161.2192L304.7423 147.3723" fill="none" stroke="#aaa" stroke-opacity="0.5" stroke-width="0.5"></path><path d="M112.3496 127.2696L304.7423 147.3723" fill="none" stroke="#aaa" stroke-opacity="0.5" stroke-width="0.5"></path><path d="M200.3307 25.9745L155.2268 43.0832" fill="none" stroke="#aaa" stroke-opacity="0.5" stroke-width="0.5"></path><path d="M112.3496 127.2696L155.2268 43.0832" fill="none" stroke="#aaa" stroke-opacity="0.5" stroke-width="0.5"></path><path d="M155.2268 43.0832L245.7586 34.134" fill="none" stroke="#aaa" stroke-opacity="0.5" stroke-width="0.5"></path><path d="M254.4122 105.0361L122.6472 77.9318" fill="none" stroke="#aaa" stroke-opacity="0.5" stroke-width="0.5"></path><path d="M308.1237 101.9633L204.5104 80.0122" fill="none" stroke="#aaa" stroke-opacity="0.5" stroke-width="0.5"></path><path d="M308.1237 101.9633L284.7534 58.7181" fill="none" stroke="#aaa" stroke-opacity="0.5" stroke-width="0.5"></path><path d="M155.4463 207.5283L245.3885 217.958" fill="none" stroke="#aaa" stroke-opacity="0.5" stroke-width="0.5"></path><path d="M122.6472 77.9318L304.7423 147.3723" fill="none" stroke="#aaa" stroke-opacity="0.5" stroke-width="0.5"></path><path d="M122.6472 77.9318L155.2268 43.0832" fill="none" stroke="#aaa" stroke-opacity="0.5" stroke-width="0.5"></path><path d="M124.841 172.6986L304.7423 147.3723" fill="none" stroke="#aaa" stroke-opacity="0.5" stroke-width="0.5"></path><path d="M155.4463 207.5283L124.841 172.6986" fill="none" stroke="#aaa" stroke-opacity="0.5" stroke-width="0.5"></path><path d="M254.4122 105.0361L284.7534 58.7181" fill="none" stroke="#aaa" stroke-opacity="0.5" stroke-width="0.5"></path><path d="M155.2268 43.0832L304.7423 147.3723" fill="none" stroke="#aaa" stroke-opacity="0.5" stroke-width="0.5"></path><path d="M124.841 172.6986L155.2268 43.0832" fill="none" stroke="#aaa" stroke-opacity="0.5" stroke-width="0.5"></path><path d="M243.4487 161.2192L204.5104 80.0122" fill="none" stroke="#aaa" stroke-opacity="0.5" stroke-width="0.5"></path><path d="M112.3496 127.2696L204.5104 80.0122" fill="none" stroke="#aaa" stroke-opacity="0.5" stroke-width="0.5"></path><path d="M112.3496 127.2696L284.7534 58.7181" fill="none" stroke="#aaa" stroke-opacity="0.5" stroke-width="0.5"></path><path d="M155.4463 207.5283L122.6472 77.9318" fill="none" stroke="#aaa" stroke-opacity="0.5" stroke-width="0.5"></path><path d="M304.7423 147.3723L286.8525 191.9527" fill="none" stroke="#aaa" stroke-opacity="0.5" stroke-width="0.5"></path><path d="M204.5104 80.0122L200.0508 222.5744" fill="none" stroke="#aaa" stroke-opacity="0.5" stroke-width="0.5"></path><path d="M189.4532 161.2754L200.0508 222.5744" fill="none" stroke="#aaa" stroke-opacity="0.5" stroke-width="0.5"></path><path d="M204.5104 80.0122L200.3307 25.9745" fill="none" stroke="#aaa" stroke-opacity="0.5" stroke-width="0.5"></path><path d="M284.7534 58.7181L189.4532 161.2754" fill="none" stroke="#aaa" stroke-opacity="0.5" stroke-width="0.5"></path><path d="M243.4487 161.2192L286.8525 191.9527" fill="none" stroke="#aaa" stroke-opacity="0.5" stroke-width="0.5"></path><path d="M112.3496 127.2696L286.8525 191.9527" fill="none" stroke="#aaa" stroke-opacity="0.5" stroke-width="0.5"></path><path d="M308.1237 101.9633L200.0508 222.5744" fill="none" stroke="#aaa" stroke-opacity="0.5" stroke-width="0.5"></path><path d="M308.1237 101.9633L200.3307 25.9745" fill="none" stroke="#aaa" stroke-opacity="0.5" stroke-width="0.5"></path><path d="M284.7534 58.7181L245.7586 34.134" fill="none" stroke="#aaa" stroke-opacity="0.5" stroke-width="0.5"></path><path d="M304.7423 147.3723L161.9299 113.2982" fill="none" stroke="#aaa" stroke-opacity="0.5" stroke-width="0.5"></path><path d="M254.4122 105.0361L200.0508 222.5744" fill="none" stroke="#aaa" stroke-opacity="0.5" stroke-width="0.5"></path><path d="M245.3885 217.958L200.0508 222.5744" fill="none" stroke="#aaa" stroke-opacity="0.5" stroke-width="0.5"></path><path d="M122.6472 77.9318L286.8525 191.9527" fill="none" stroke="#aaa" stroke-opacity="0.5" stroke-width="0.5"></path><path d="M254.4122 105.0361L200.3307 25.9745" fill="none" stroke="#aaa" stroke-opacity="0.5" stroke-width="0.5"></path><path d="M124.841 172.6986L286.8525 191.9527" fill="none" stroke="#aaa" stroke-opacity="0.5" stroke-width="0.5"></path><path d="M284.7534 58.7181L245.3885 217.958" fill="none" stroke="#aaa" stroke-opacity="0.5" stroke-width="0.5"></path><path d="M243.4487 161.2192L161.9299 113.2982" fill="none" stroke="#aaa" stroke-opacity="0.5" stroke-width="0.5"></path><path d="M304.7423 147.3723L189.4532 161.2754" fill="none" stroke="#aaa" stroke-opacity="0.5" stroke-width="0.5"></path><path d="M284.7534 58.7181L124.841 172.6986" fill="none" stroke="#aaa" stroke-opacity="0.5" stroke-width="0.5"></path><path d="M284.7534 58.7181L155.4463 207.5283" fill="none" stroke="#aaa" stroke-opacity="0.5" stroke-width="0.5"></path><path d="M155.4463 207.5283L286.8525 191.9527" fill="none" stroke="#aaa" stroke-opacity="0.5" stroke-width="0.5"></path><path d="M161.9299 113.2982L200.0508 222.5744" fill="none" stroke="#aaa" stroke-opacity="0.5" stroke-width="0.5"></path><path d="M200.3307 25.9745L189.4532 161.2754" fill="none" stroke="#aaa" stroke-opacity="0.5" stroke-width="0.5"></path><path d="M304.7423 147.3723L245.7586 34.134" fill="none" stroke="#aaa" stroke-opacity="0.5" stroke-width="0.5"></path><path d="M243.4487 161.2192L189.4532 161.2754" fill="none" stroke="#aaa" stroke-opacity="0.5" stroke-width="0.5"></path><path d="M112.3496 127.2696L189.4532 161.2754" fill="none" stroke="#aaa" stroke-opacity="0.5" stroke-width="0.5"></path><path d="M308.1237 101.9633L245.3885 217.958" fill="none" stroke="#aaa" stroke-opacity="0.5" stroke-width="0.5"></path><path d="M122.6472 77.9318L161.9299 113.2982" fill="none" stroke="#aaa" stroke-opacity="0.5" stroke-width="0.5"></path><path d="M124.841 172.6986L161.9299 113.2982" fill="none" stroke="#aaa" stroke-opacity="0.5" stroke-width="0.5"></path><path d="M308.1237 101.9633L124.841 172.6986" fill="none" stroke="#aaa" stroke-opacity="0.5" stroke-width="0.5"></path><path d="M245.7586 34.134L200.0508 222.5744" fill="none" stroke="#aaa" stroke-opacity="0.5" stroke-width="0.5"></path><path d="M284.7534 58.7181L122.6472 77.9318" fill="none" stroke="#aaa" stroke-opacity="0.5" stroke-width="0.5"></path><path d="M155.4463 207.5283L200.0508 222.5744" fill="none" stroke="#aaa" stroke-opacity="0.5" stroke-width="0.5"></path><path d="M204.5104 80.0122L304.7423 147.3723" fill="none" stroke="#aaa" stroke-opacity="0.5" stroke-width="0.5"></path><path d="M155.2268 43.0832L200.0508 222.5744" fill="none" stroke="#aaa" stroke-opacity="0.5" stroke-width="0.5"></path><path d="M204.5104 80.0122L155.2268 43.0832" fill="none" stroke="#aaa" stroke-opacity="0.5" stroke-width="0.5"></path><path d="M243.4487 161.2192L308.1237 101.9633" fill="none" stroke="#aaa" stroke-opacity="0.5" stroke-width="0.5"></path><path d="M112.3496 127.2696L308.1237 101.9633" fill="none" stroke="#aaa" stroke-opacity="0.5" stroke-width="0.5"></path><path d="M243.4487 161.2192L245.7586 34.134" fill="none" stroke="#aaa" stroke-opacity="0.5" stroke-width="0.5"></path><path d="M112.3496 127.2696L245.7586 34.134" fill="none" stroke="#aaa" stroke-opacity="0.5" stroke-width="0.5"></path><path d="M304.7423 147.3723L245.3885 217.958" fill="none" stroke="#aaa" stroke-opacity="0.5" stroke-width="0.5"></path><path d="M122.6472 77.9318L189.4532 161.2754" fill="none" stroke="#aaa" stroke-opacity="0.5" stroke-width="0.5"></path><path d="M254.4122 105.0361L124.841 172.6986" fill="none" stroke="#aaa" stroke-opacity="0.5" stroke-width="0.5"></path><path d="M155.4463 207.5283L161.9299 113.2982" fill="none" stroke="#aaa" stroke-opacity="0.5" stroke-width="0.5"></path><path d="M124.841 172.6986L189.4532 161.2754" fill="none" stroke="#aaa" stroke-opacity="0.5" stroke-width="0.5"></path><path d="M308.1237 101.9633L122.6472 77.9318" fill="none" stroke="#aaa" stroke-opacity="0.5" stroke-width="0.5"></path><path d="M200.3307 25.9745L245.3885 217.958" fill="none" stroke="#aaa" stroke-opacity="0.5" stroke-width="0.5"></path><path d="M243.4487 161.2192L245.3885 217.958" fill="none" stroke="#aaa" stroke-opacity="0.5" stroke-width="0.5"></path><path d="M112.3496 127.2696L245.3885 217.958" fill="none" stroke="#aaa" stroke-opacity="0.5" stroke-width="0.5"></path><path d="M122.6472 77.9318L245.7586 34.134" fill="none" stroke="#aaa" stroke-opacity="0.5" stroke-width="0.5"></path><path d="M200.3307 25.9745L124.841 172.6986" fill="none" stroke="#aaa" stroke-opacity="0.5" stroke-width="0.5"></path><path d="M243.4487 161.2192L124.841 172.6986" fill="none" stroke="#aaa" stroke-opacity="0.5" stroke-width="0.5"></path><path d="M112.3496 127.2696L124.841 172.6986" fill="none" stroke="#aaa" stroke-opacity="0.5" stroke-width="0.5"></path><path d="M124.841 172.6986L245.7586 34.134" fill="none" stroke="#aaa" stroke-opacity="0.5" stroke-width="0.5"></path><path d="M243.4487 161.2192L155.2268 43.0832" fill="none" stroke="#aaa" stroke-opacity="0.5" stroke-width="0.5"></path><path d="M155.4463 207.5283L189.4532 161.2754" fill="none" stroke="#aaa" stroke-opacity="0.5" stroke-width="0.5"></path><path d="M243.4487 161.2192L155.4463 207.5283" fill="none" stroke="#aaa" stroke-opacity="0.5" stroke-width="0.5"></path><path d="M112.3496 127.2696L155.4463 207.5283" fill="none" stroke="#aaa" stroke-opacity="0.5" stroke-width="0.5"></path><path d="M243.4487 161.2192L112.3496 127.2696" fill="none" stroke="#aaa" stroke-opacity="0.5" stroke-width="0.5"></path><path d="M204.5104 80.0122L284.7534 58.7181" fill="none" stroke="#aaa" stroke-opacity="0.5" stroke-width="0.5"></path><path d="M1 0A1 1 0 1 1 1 -0.0001" fill="#5470c6" transform="matrix(18,0,0,18,243.4487,161.2192)"></path><path d="M1 0A1 1 0 1 1 1 -0.0001" fill="#5470c6" transform="matrix(18,0,0,18,304.7423,147.3723)"></path><path d="M1 0A1 1 0 1 1 1 -0.0001" fill="#5470c6" transform="matrix(18,0,0,18,286.8525,191.9527)"></path><path d="M1 0A1 1 0 1 1 1 -0.0001" fill="#5470c6" transform="matrix(18,0,0,18,245.3885,217.958)"></path><path d="M1 0A1 1 0 1 1 1 -0.0001" fill="#5470c6" transform="matrix(18,0,0,18,200.0508,222.5744)"></path><path d="M1 0A1 1 0 1 1 1 -0.0001" fill="#5470c6" transform="matrix(18,0,0,18,155.4463,207.5283)"></path><path d="M1 0A1 1 0 1 1 1 -0.0001" fill="#5470c6" transform="matrix(18,0,0,18,189.4532,161.2754)"></path><path d="M1 0A1 1 0 1 1 1 -0.0001" fill="#5470c6" transform="matrix(18,0,0,18,124.841,172.6986)"></path><path d="M1 0A1 1 0 1 1 1 -0.0001" fill="#5470c6" transform="matrix(18,0,0,18,112.3496,127.2696)"></path><path d="M1 0A1 1 0 1 1 1 -0.0001" fill="#5470c6" transform="matrix(18,0,0,18,122.6472,77.9318)"></path><path d="M1 0A1 1 0 1 1 1 -0.0001" fill="#5470c6" transform="matrix(18,0,0,18,161.9299,113.2982)"></path><path d="M1 0A1 1 0 1 1 1 -0.0001" fill="#5470c6" transform="matrix(18,0,0,18,155.2268,43.0832)"></path><path d="M1 0A1 1 0 1 1 1 -0.0001" fill="#5470c6" transform="matrix(18,0,0,18,200.3307,25.9745)"></path><path d="M1 0A1 1 0 1 1 1 -0.0001" fill="#5470c6" transform="matrix(18,0,0,18,204.5104,80.0122)"></path><path d="M1 0A1 1 0 1 1 1 -0.0001" fill="#5470c6" transform="matrix(18,0,0,18,245.7586,34.134)"></path><path d="M1 0A1 1 0 1 1 1 -0.0001" fill="#5470c6" transform="matrix(18,0,0,18,284.7534,58.7181)"></path><path d="M1 0A1 1 0 1 1 1 -0.0001" fill="#5470c6" transform="matrix(18,0,0,18,254.4122,105.0361)"></path><path d="M1 0A1 1 0 1 1 1 -0.0001" fill="#5470c6" transform="matrix(18,0,0,18,308.1237,101.9633)"></path><path d="M-32.4922 -5l64.9844 0l0 33l-64.9844 0Z" fill="rgb(0,0,0)" fill-opacity="0" stroke="#ccc" stroke-width="0" transform="translate(237.5 5)"></path><text dominant-baseline="central" fill="#333" style="font-size:23px;font-family:sans-serif;font-weight:bolder;" text-anchor="middle" transform="translate(237.5 5)" y="11.5">C109</text></g></svg>