<svg baseprofile="full" height="250" style="position:absolute;left:0;top:0;user-select:none" version="1.1" width="475" xmlns="http://www.w3.org/2000/svg" xmlns:xlink="http://www.w3.org/1999/xlink"><rect fill="none" height="250" id="0" width="475" x="0" y="0"></rect><g><path d="M111.2028 138.131L266.5075 158.8992" fill="none" stroke="#aaa" stroke-opacity="0.5" stroke-width="0.5"></path><path d="M146.7471 48.6445L165.4737 137.0907" fill="none" stroke="#aaa" stroke-opacity="0.5" stroke-width="0.5"></path><path d="M240.776 33.0658L165.4737 137.0907" fill="none" stroke="#aaa" stroke-opacity="0.5" stroke-width="0.5"></path><path d="M266.5075 158.8992L193.3127 25.6203" fill="none" stroke="#aaa" stroke-opacity="0.5" stroke-width="0.5"></path><path d="M209.643 176.8738L280.5218 55.0598" fill="none" stroke="#aaa" stroke-opacity="0.5" stroke-width="0.5"></path><path d="M111.2028 138.131L193.3127 25.6203" fill="none" stroke="#aaa" stroke-opacity="0.5" stroke-width="0.5"></path><path d="M170.857 216.1153L224.4104 226.2079" fill="none" stroke="#aaa" stroke-opacity="0.5" stroke-width="0.5"></path><path d="M277.1381 203.9561L266.5075 158.8992" fill="none" stroke="#aaa" stroke-opacity="0.5" stroke-width="0.5"></path><path d="M111.2028 138.131L209.643 176.8738" fill="none" stroke="#aaa" stroke-opacity="0.5" stroke-width="0.5"></path><path d="M146.7471 48.6445L240.776 33.0658" fill="none" stroke="#aaa" stroke-opacity="0.5" stroke-width="0.5"></path><path d="M243.9125 105.9216L312.6411 146.9982" fill="none" stroke="#aaa" stroke-opacity="0.5" stroke-width="0.5"></path><path d="M312.6411 146.9982L119.3449 88.921" fill="none" stroke="#aaa" stroke-opacity="0.5" stroke-width="0.5"></path><path d="M131.9685 185.1899L146.7471 48.6445" fill="none" stroke="#aaa" stroke-opacity="0.5" stroke-width="0.5"></path><path d="M280.5218 55.0598L304.7135 95.2094" fill="none" stroke="#aaa" stroke-opacity="0.5" stroke-width="0.5"></path><path d="M243.9125 105.9216L266.5075 158.8992" fill="none" stroke="#aaa" stroke-opacity="0.5" stroke-width="0.5"></path><path d="M131.9685 185.1899L165.4737 137.0907" fill="none" stroke="#aaa" stroke-opacity="0.5" stroke-width="0.5"></path><path d="M189.9693 83.0955L312.6411 146.9982" fill="none" stroke="#aaa" stroke-opacity="0.5" stroke-width="0.5"></path><path d="M243.9125 105.9216L119.3449 88.921" fill="none" stroke="#aaa" stroke-opacity="0.5" stroke-width="0.5"></path><path d="M189.9693 83.0955L266.5075 158.8992" fill="none" stroke="#aaa" stroke-opacity="0.5" stroke-width="0.5"></path><path d="M312.6411 146.9982L193.3127 25.6203" fill="none" stroke="#aaa" stroke-opacity="0.5" stroke-width="0.5"></path><path d="M277.1381 203.9561L193.3127 25.6203" fill="none" stroke="#aaa" stroke-opacity="0.5" stroke-width="0.5"></path><path d="M277.1381 203.9561L209.643 176.8738" fill="none" stroke="#aaa" stroke-opacity="0.5" stroke-width="0.5"></path><path d="M189.9693 83.0955L119.3449 88.921" fill="none" stroke="#aaa" stroke-opacity="0.5" stroke-width="0.5"></path><path d="M243.9125 105.9216L193.3127 25.6203" fill="none" stroke="#aaa" stroke-opacity="0.5" stroke-width="0.5"></path><path d="M243.9125 105.9216L209.643 176.8738" fill="none" stroke="#aaa" stroke-opacity="0.5" stroke-width="0.5"></path><path d="M209.643 176.8738L304.7135 95.2094" fill="none" stroke="#aaa" stroke-opacity="0.5" stroke-width="0.5"></path><path d="M111.2028 138.131L146.7471 48.6445" fill="none" stroke="#aaa" stroke-opacity="0.5" stroke-width="0.5"></path><path d="M189.9693 83.0955L193.3127 25.6203" fill="none" stroke="#aaa" stroke-opacity="0.5" stroke-width="0.5"></path><path d="M111.2028 138.131L165.4737 137.0907" fill="none" stroke="#aaa" stroke-opacity="0.5" stroke-width="0.5"></path><path d="M170.857 216.1153L312.6411 146.9982" fill="none" stroke="#aaa" stroke-opacity="0.5" stroke-width="0.5"></path><path d="M189.9693 83.0955L209.643 176.8738" fill="none" stroke="#aaa" stroke-opacity="0.5" stroke-width="0.5"></path><path d="M224.4104 226.2079L165.4737 137.0907" fill="none" stroke="#aaa" stroke-opacity="0.5" stroke-width="0.5"></path><path d="M170.857 216.1153L266.5075 158.8992" fill="none" stroke="#aaa" stroke-opacity="0.5" stroke-width="0.5"></path><path d="M277.1381 203.9561L243.9125 105.9216" fill="none" stroke="#aaa" stroke-opacity="0.5" stroke-width="0.5"></path><path d="M170.857 216.1153L119.3449 88.921" fill="none" stroke="#aaa" stroke-opacity="0.5" stroke-width="0.5"></path><path d="M280.5218 55.0598L224.4104 226.2079" fill="none" stroke="#aaa" stroke-opacity="0.5" stroke-width="0.5"></path><path d="M277.1381 203.9561L146.7471 48.6445" fill="none" stroke="#aaa" stroke-opacity="0.5" stroke-width="0.5"></path><path d="M277.1381 203.9561L131.9685 185.1899" fill="none" stroke="#aaa" stroke-opacity="0.5" stroke-width="0.5"></path><path d="M111.2028 138.131L240.776 33.0658" fill="none" stroke="#aaa" stroke-opacity="0.5" stroke-width="0.5"></path><path d="M312.6411 146.9982L165.4737 137.0907" fill="none" stroke="#aaa" stroke-opacity="0.5" stroke-width="0.5"></path><path d="M243.9125 105.9216L146.7471 48.6445" fill="none" stroke="#aaa" stroke-opacity="0.5" stroke-width="0.5"></path><path d="M243.9125 105.9216L131.9685 185.1899" fill="none" stroke="#aaa" stroke-opacity="0.5" stroke-width="0.5"></path><path d="M170.857 216.1153L193.3127 25.6203" fill="none" stroke="#aaa" stroke-opacity="0.5" stroke-width="0.5"></path><path d="M189.9693 83.0955L243.9125 105.9216" fill="none" stroke="#aaa" stroke-opacity="0.5" stroke-width="0.5"></path><path d="M170.857 216.1153L189.9693 83.0955" fill="none" stroke="#aaa" stroke-opacity="0.5" stroke-width="0.5"></path><path d="M170.857 216.1153L209.643 176.8738" fill="none" stroke="#aaa" stroke-opacity="0.5" stroke-width="0.5"></path><path d="M243.9125 105.9216L165.4737 137.0907" fill="none" stroke="#aaa" stroke-opacity="0.5" stroke-width="0.5"></path><path d="M146.7471 48.6445L119.3449 88.921" fill="none" stroke="#aaa" stroke-opacity="0.5" stroke-width="0.5"></path><path d="M189.9693 83.0955L146.7471 48.6445" fill="none" stroke="#aaa" stroke-opacity="0.5" stroke-width="0.5"></path><path d="M189.9693 83.0955L131.9685 185.1899" fill="none" stroke="#aaa" stroke-opacity="0.5" stroke-width="0.5"></path><path d="M209.643 176.8738L224.4104 226.2079" fill="none" stroke="#aaa" stroke-opacity="0.5" stroke-width="0.5"></path><path d="M189.9693 83.0955L165.4737 137.0907" fill="none" stroke="#aaa" stroke-opacity="0.5" stroke-width="0.5"></path><path d="M243.9125 105.9216L240.776 33.0658" fill="none" stroke="#aaa" stroke-opacity="0.5" stroke-width="0.5"></path><path d="M131.9685 185.1899L312.6411 146.9982" fill="none" stroke="#aaa" stroke-opacity="0.5" stroke-width="0.5"></path><path d="M170.857 216.1153L243.9125 105.9216" fill="none" stroke="#aaa" stroke-opacity="0.5" stroke-width="0.5"></path><path d="M280.5218 55.0598L312.6411 146.9982" fill="none" stroke="#aaa" stroke-opacity="0.5" stroke-width="0.5"></path><path d="M146.7471 48.6445L280.5218 55.0598" fill="none" stroke="#aaa" stroke-opacity="0.5" stroke-width="0.5"></path><path d="M189.9693 83.0955L240.776 33.0658" fill="none" stroke="#aaa" stroke-opacity="0.5" stroke-width="0.5"></path><path d="M170.857 216.1153L146.7471 48.6445" fill="none" stroke="#aaa" stroke-opacity="0.5" stroke-width="0.5"></path><path d="M131.9685 185.1899L119.3449 88.921" fill="none" stroke="#aaa" stroke-opacity="0.5" stroke-width="0.5"></path><path d="M170.857 216.1153L131.9685 185.1899" fill="none" stroke="#aaa" stroke-opacity="0.5" stroke-width="0.5"></path><path d="M193.3127 25.6203L304.7135 95.2094" fill="none" stroke="#aaa" stroke-opacity="0.5" stroke-width="0.5"></path><path d="M170.857 216.1153L165.4737 137.0907" fill="none" stroke="#aaa" stroke-opacity="0.5" stroke-width="0.5"></path><path d="M240.776 33.0658L280.5218 55.0598" fill="none" stroke="#aaa" stroke-opacity="0.5" stroke-width="0.5"></path><path d="M266.5075 158.8992L312.6411 146.9982" fill="none" stroke="#aaa" stroke-opacity="0.5" stroke-width="0.5"></path><path d="M280.5218 55.0598L193.3127 25.6203" fill="none" stroke="#aaa" stroke-opacity="0.5" stroke-width="0.5"></path><path d="M209.643 176.8738L312.6411 146.9982" fill="none" stroke="#aaa" stroke-opacity="0.5" stroke-width="0.5"></path><path d="M209.643 176.8738L266.5075 158.8992" fill="none" stroke="#aaa" stroke-opacity="0.5" stroke-width="0.5"></path><path d="M266.5075 158.8992L119.3449 88.921" fill="none" stroke="#aaa" stroke-opacity="0.5" stroke-width="0.5"></path><path d="M170.857 216.1153L240.776 33.0658" fill="none" stroke="#aaa" stroke-opacity="0.5" stroke-width="0.5"></path><path d="M131.9685 185.1899L280.5218 55.0598" fill="none" stroke="#aaa" stroke-opacity="0.5" stroke-width="0.5"></path><path d="M111.2028 138.131L119.3449 88.921" fill="none" stroke="#aaa" stroke-opacity="0.5" stroke-width="0.5"></path><path d="M209.643 176.8738L119.3449 88.921" fill="none" stroke="#aaa" stroke-opacity="0.5" stroke-width="0.5"></path><path d="M146.7471 48.6445L304.7135 95.2094" fill="none" stroke="#aaa" stroke-opacity="0.5" stroke-width="0.5"></path><path d="M277.1381 203.9561L312.6411 146.9982" fill="none" stroke="#aaa" stroke-opacity="0.5" stroke-width="0.5"></path><path d="M240.776 33.0658L304.7135 95.2094" fill="none" stroke="#aaa" stroke-opacity="0.5" stroke-width="0.5"></path><path d="M209.643 176.8738L193.3127 25.6203" fill="none" stroke="#aaa" stroke-opacity="0.5" stroke-width="0.5"></path><path d="M119.3449 88.921L193.3127 25.6203" fill="none" stroke="#aaa" stroke-opacity="0.5" stroke-width="0.5"></path><path d="M266.5075 158.8992L280.5218 55.0598" fill="none" stroke="#aaa" stroke-opacity="0.5" stroke-width="0.5"></path><path d="M193.3127 25.6203L224.4104 226.2079" fill="none" stroke="#aaa" stroke-opacity="0.5" stroke-width="0.5"></path><path d="M277.1381 203.9561L119.3449 88.921" fill="none" stroke="#aaa" stroke-opacity="0.5" stroke-width="0.5"></path><path d="M111.2028 138.131L280.5218 55.0598" fill="none" stroke="#aaa" stroke-opacity="0.5" stroke-width="0.5"></path><path d="M280.5218 55.0598L165.4737 137.0907" fill="none" stroke="#aaa" stroke-opacity="0.5" stroke-width="0.5"></path><path d="M131.9685 185.1899L304.7135 95.2094" fill="none" stroke="#aaa" stroke-opacity="0.5" stroke-width="0.5"></path><path d="M131.9685 185.1899L111.2028 138.131" fill="none" stroke="#aaa" stroke-opacity="0.5" stroke-width="0.5"></path><path d="M304.7135 95.2094L165.4737 137.0907" fill="none" stroke="#aaa" stroke-opacity="0.5" stroke-width="0.5"></path><path d="M131.9685 185.1899L240.776 33.0658" fill="none" stroke="#aaa" stroke-opacity="0.5" stroke-width="0.5"></path><path d="M277.1381 203.9561L280.5218 55.0598" fill="none" stroke="#aaa" stroke-opacity="0.5" stroke-width="0.5"></path><path d="M266.5075 158.8992L165.4737 137.0907" fill="none" stroke="#aaa" stroke-opacity="0.5" stroke-width="0.5"></path><path d="M146.7471 48.6445L224.4104 226.2079" fill="none" stroke="#aaa" stroke-opacity="0.5" stroke-width="0.5"></path><path d="M266.5075 158.8992L304.7135 95.2094" fill="none" stroke="#aaa" stroke-opacity="0.5" stroke-width="0.5"></path><path d="M243.9125 105.9216L280.5218 55.0598" fill="none" stroke="#aaa" stroke-opacity="0.5" stroke-width="0.5"></path><path d="M209.643 176.8738L165.4737 137.0907" fill="none" stroke="#aaa" stroke-opacity="0.5" stroke-width="0.5"></path><path d="M119.3449 88.921L165.4737 137.0907" fill="none" stroke="#aaa" stroke-opacity="0.5" stroke-width="0.5"></path><path d="M240.776 33.0658L224.4104 226.2079" fill="none" stroke="#aaa" stroke-opacity="0.5" stroke-width="0.5"></path><path d="M111.2028 138.131L304.7135 95.2094" fill="none" stroke="#aaa" stroke-opacity="0.5" stroke-width="0.5"></path><path d="M224.4104 226.2079L304.7135 95.2094" fill="none" stroke="#aaa" stroke-opacity="0.5" stroke-width="0.5"></path><path d="M119.3449 88.921L304.7135 95.2094" fill="none" stroke="#aaa" stroke-opacity="0.5" stroke-width="0.5"></path><path d="M189.9693 83.0955L280.5218 55.0598" fill="none" stroke="#aaa" stroke-opacity="0.5" stroke-width="0.5"></path><path d="M189.9693 83.0955L277.1381 203.9561" fill="none" stroke="#aaa" stroke-opacity="0.5" stroke-width="0.5"></path><path d="M209.643 176.8738L240.776 33.0658" fill="none" stroke="#aaa" stroke-opacity="0.5" stroke-width="0.5"></path><path d="M277.1381 203.9561L165.4737 137.0907" fill="none" stroke="#aaa" stroke-opacity="0.5" stroke-width="0.5"></path><path d="M131.9685 185.1899L224.4104 226.2079" fill="none" stroke="#aaa" stroke-opacity="0.5" stroke-width="0.5"></path><path d="M312.6411 146.9982L304.7135 95.2094" fill="none" stroke="#aaa" stroke-opacity="0.5" stroke-width="0.5"></path><path d="M277.1381 203.9561L304.7135 95.2094" fill="none" stroke="#aaa" stroke-opacity="0.5" stroke-width="0.5"></path><path d="M277.1381 203.9561L111.2028 138.131" fill="none" stroke="#aaa" stroke-opacity="0.5" stroke-width="0.5"></path><path d="M243.9125 105.9216L304.7135 95.2094" fill="none" stroke="#aaa" stroke-opacity="0.5" stroke-width="0.5"></path><path d="M146.7471 48.6445L312.6411 146.9982" fill="none" stroke="#aaa" stroke-opacity="0.5" stroke-width="0.5"></path><path d="M170.857 216.1153L280.5218 55.0598" fill="none" stroke="#aaa" stroke-opacity="0.5" stroke-width="0.5"></path><path d="M243.9125 105.9216L111.2028 138.131" fill="none" stroke="#aaa" stroke-opacity="0.5" stroke-width="0.5"></path><path d="M146.7471 48.6445L266.5075 158.8992" fill="none" stroke="#aaa" stroke-opacity="0.5" stroke-width="0.5"></path><path d="M277.1381 203.9561L240.776 33.0658" fill="none" stroke="#aaa" stroke-opacity="0.5" stroke-width="0.5"></path><path d="M170.857 216.1153L277.1381 203.9561" fill="none" stroke="#aaa" stroke-opacity="0.5" stroke-width="0.5"></path><path d="M189.9693 83.0955L304.7135 95.2094" fill="none" stroke="#aaa" stroke-opacity="0.5" stroke-width="0.5"></path><path d="M240.776 33.0658L312.6411 146.9982" fill="none" stroke="#aaa" stroke-opacity="0.5" stroke-width="0.5"></path><path d="M266.5075 158.8992L224.4104 226.2079" fill="none" stroke="#aaa" stroke-opacity="0.5" stroke-width="0.5"></path><path d="M189.9693 83.0955L111.2028 138.131" fill="none" stroke="#aaa" stroke-opacity="0.5" stroke-width="0.5"></path><path d="M240.776 33.0658L266.5075 158.8992" fill="none" stroke="#aaa" stroke-opacity="0.5" stroke-width="0.5"></path><path d="M111.2028 138.131L224.4104 226.2079" fill="none" stroke="#aaa" stroke-opacity="0.5" stroke-width="0.5"></path><path d="M119.3449 88.921L224.4104 226.2079" fill="none" stroke="#aaa" stroke-opacity="0.5" stroke-width="0.5"></path><path d="M240.776 33.0658L119.3449 88.921" fill="none" stroke="#aaa" stroke-opacity="0.5" stroke-width="0.5"></path><path d="M146.7471 48.6445L193.3127 25.6203" fill="none" stroke="#aaa" stroke-opacity="0.5" stroke-width="0.5"></path><path d="M146.7471 48.6445L209.643 176.8738" fill="none" stroke="#aaa" stroke-opacity="0.5" stroke-width="0.5"></path><path d="M280.5218 55.0598L119.3449 88.921" fill="none" stroke="#aaa" stroke-opacity="0.5" stroke-width="0.5"></path><path d="M131.9685 185.1899L266.5075 158.8992" fill="none" stroke="#aaa" stroke-opacity="0.5" stroke-width="0.5"></path><path d="M240.776 33.0658L193.3127 25.6203" fill="none" stroke="#aaa" stroke-opacity="0.5" stroke-width="0.5"></path><path d="M312.6411 146.9982L224.4104 226.2079" fill="none" stroke="#aaa" stroke-opacity="0.5" stroke-width="0.5"></path><path d="M170.857 216.1153L304.7135 95.2094" fill="none" stroke="#aaa" stroke-opacity="0.5" stroke-width="0.5"></path><path d="M193.3127 25.6203L165.4737 137.0907" fill="none" stroke="#aaa" stroke-opacity="0.5" stroke-width="0.5"></path><path d="M277.1381 203.9561L224.4104 226.2079" fill="none" stroke="#aaa" stroke-opacity="0.5" stroke-width="0.5"></path><path d="M170.857 216.1153L111.2028 138.131" fill="none" stroke="#aaa" stroke-opacity="0.5" stroke-width="0.5"></path><path d="M243.9125 105.9216L224.4104 226.2079" fill="none" stroke="#aaa" stroke-opacity="0.5" stroke-width="0.5"></path><path d="M131.9685 185.1899L193.3127 25.6203" fill="none" stroke="#aaa" stroke-opacity="0.5" stroke-width="0.5"></path><path d="M189.9693 83.0955L224.4104 226.2079" fill="none" stroke="#aaa" stroke-opacity="0.5" stroke-width="0.5"></path><path d="M131.9685 185.1899L209.643 176.8738" fill="none" stroke="#aaa" stroke-opacity="0.5" stroke-width="0.5"></path><path d="M111.2028 138.131L312.6411 146.9982" fill="none" stroke="#aaa" stroke-opacity="0.5" stroke-width="0.5"></path><path d="M1 0A1 1 0 1 1 1 -0.0001" fill="#5470c6" transform="matrix(18,0,0,18,312.6411,146.9982)"></path><path d="M1 0A1 1 0 1 1 1 -0.0001" fill="#5470c6" transform="matrix(18,0,0,18,277.1381,203.9561)"></path><path d="M1 0A1 1 0 1 1 1 -0.0001" fill="#5470c6" transform="matrix(18,0,0,18,266.5075,158.8992)"></path><path d="M1 0A1 1 0 1 1 1 -0.0001" fill="#5470c6" transform="matrix(18,0,0,18,224.4104,226.2079)"></path><path d="M1 0A1 1 0 1 1 1 -0.0001" fill="#5470c6" transform="matrix(18,0,0,18,209.643,176.8738)"></path><path d="M1 0A1 1 0 1 1 1 -0.0001" fill="#5470c6" transform="matrix(18,0,0,18,170.857,216.1153)"></path><path d="M1 0A1 1 0 1 1 1 -0.0001" fill="#5470c6" transform="matrix(18,0,0,18,131.9685,185.1899)"></path><path d="M1 0A1 1 0 1 1 1 -0.0001" fill="#5470c6" transform="matrix(18,0,0,18,165.4737,137.0907)"></path><path d="M1 0A1 1 0 1 1 1 -0.0001" fill="#5470c6" transform="matrix(18,0,0,18,111.2028,138.131)"></path><path d="M1 0A1 1 0 1 1 1 -0.0001" fill="#5470c6" transform="matrix(18,0,0,18,189.9693,83.0955)"></path><path d="M1 0A1 1 0 1 1 1 -0.0001" fill="#5470c6" transform="matrix(18,0,0,18,119.3449,88.921)"></path><path d="M1 0A1 1 0 1 1 1 -0.0001" fill="#5470c6" transform="matrix(18,0,0,18,146.7471,48.6445)"></path><path d="M1 0A1 1 0 1 1 1 -0.0001" fill="#5470c6" transform="matrix(18,0,0,18,193.3127,25.6203)"></path><path d="M1 0A1 1 0 1 1 1 -0.0001" fill="#5470c6" transform="matrix(18,0,0,18,240.776,33.0658)"></path><path d="M1 0A1 1 0 1 1 1 -0.0001" fill="#5470c6" transform="matrix(18,0,0,18,243.9125,105.9216)"></path><path d="M1 0A1 1 0 1 1 1 -0.0001" fill="#5470c6" transform="matrix(18,0,0,18,280.5218,55.0598)"></path><path d="M1 0A1 1 0 1 1 1 -0.0001" fill="#5470c6" transform="matrix(18,0,0,18,304.7135,95.2094)"></path><path d="M-31.8633 -5l63.7266 0l0 33l-63.7266 0Z" fill="rgb(0,0,0)" fill-opacity="0" stroke="#ccc" stroke-width="0" transform="translate(237.5 5)"></path><text dominant-baseline="central" fill="#333" style="font-size:23px;font-family:sans-serif;font-weight:bolder;" text-anchor="middle" transform="translate(237.5 5)" y="11.5">C110</text></g></svg>