<svg baseprofile="full" height="250" style="position:absolute;left:0;top:0;user-select:none" version="1.1" width="475" xmlns="http://www.w3.org/2000/svg" xmlns:xlink="http://www.w3.org/1999/xlink"><rect fill="none" height="250" id="0" width="475" x="0" y="0"></rect><g><path d="M115.116 93.8081L155.3452 213.8045" fill="none" stroke="#aaa" stroke-opacity="0.5"></path><path d="M165.4272 159.7805L262.3849 37.3491" fill="none" stroke="#aaa" stroke-opacity="0.5"></path><path d="M110.8811 154.1339L155.3452 213.8045" fill="none" stroke="#aaa" stroke-opacity="0.5"></path><path d="M310.0155 143.7497L220.2967 229.0037" fill="none" stroke="#aaa" stroke-opacity="0.5"></path><path d="M185.3409 90.7378L262.3849 37.3491" fill="none" stroke="#aaa" stroke-opacity="0.5"></path><path d="M306.4798 83.1352L284.938 197.5143" fill="none" stroke="#aaa" stroke-opacity="0.5"></path><path d="M165.4272 159.7805L110.8811 154.1339" fill="none" stroke="#aaa" stroke-opacity="0.5"></path><path d="M185.3409 90.7378L232.7566 175.595" fill="none" stroke="#aaa" stroke-opacity="0.5"></path><path d="M115.116 93.8081L207.5225 23.9838" fill="none" stroke="#aaa" stroke-opacity="0.5"></path><path d="M306.4798 83.1352L185.3409 90.7378" fill="none" stroke="#aaa" stroke-opacity="0.5"></path><path d="M165.4272 159.7805L220.2967 229.0037" fill="none" stroke="#aaa" stroke-opacity="0.5"></path><path d="M149.0699 42.768L185.3409 90.7378" fill="none" stroke="#aaa" stroke-opacity="0.5"></path><path d="M306.4798 83.1352L165.4272 159.7805" fill="none" stroke="#aaa" stroke-opacity="0.5"></path><path d="M110.8811 154.1339L207.5225 23.9838" fill="none" stroke="#aaa" stroke-opacity="0.5"></path><path d="M310.0155 143.7497L155.3452 213.8045" fill="none" stroke="#aaa" stroke-opacity="0.5"></path><path d="M185.3409 90.7378L250.1878 104.6364" fill="none" stroke="#aaa" stroke-opacity="0.5"></path><path d="M149.0699 42.768L232.7566 175.595" fill="none" stroke="#aaa" stroke-opacity="0.5"></path><path d="M284.938 197.5143L220.2967 229.0037" fill="none" stroke="#aaa" stroke-opacity="0.5"></path><path d="M185.3409 90.7378L110.8811 154.1339" fill="none" stroke="#aaa" stroke-opacity="0.5"></path><path d="M185.3409 90.7378L220.2967 229.0037" fill="none" stroke="#aaa" stroke-opacity="0.5"></path><path d="M306.4798 83.1352L310.0155 143.7497" fill="none" stroke="#aaa" stroke-opacity="0.5"></path><path d="M149.0699 42.768L310.0155 143.7497" fill="none" stroke="#aaa" stroke-opacity="0.5"></path><path d="M149.0699 42.768L250.1878 104.6364" fill="none" stroke="#aaa" stroke-opacity="0.5"></path><path d="M115.116 93.8081L262.3849 37.3491" fill="none" stroke="#aaa" stroke-opacity="0.5"></path><path d="M165.4272 159.7805L155.3452 213.8045" fill="none" stroke="#aaa" stroke-opacity="0.5"></path><path d="M110.8811 154.1339L262.3849 37.3491" fill="none" stroke="#aaa" stroke-opacity="0.5"></path><path d="M262.3849 37.3491L207.5225 23.9838" fill="none" stroke="#aaa" stroke-opacity="0.5"></path><path d="M115.116 93.8081L232.7566 175.595" fill="none" stroke="#aaa" stroke-opacity="0.5"></path><path d="M306.4798 83.1352L149.0699 42.768" fill="none" stroke="#aaa" stroke-opacity="0.5"></path><path d="M232.7566 175.595L284.938 197.5143" fill="none" stroke="#aaa" stroke-opacity="0.5"></path><path d="M110.8811 154.1339L232.7566 175.595" fill="none" stroke="#aaa" stroke-opacity="0.5"></path><path d="M155.3452 213.8045L207.5225 23.9838" fill="none" stroke="#aaa" stroke-opacity="0.5"></path><path d="M306.4798 83.1352L155.3452 213.8045" fill="none" stroke="#aaa" stroke-opacity="0.5"></path><path d="M250.1878 104.6364L284.938 197.5143" fill="none" stroke="#aaa" stroke-opacity="0.5"></path><path d="M115.116 93.8081L250.1878 104.6364" fill="none" stroke="#aaa" stroke-opacity="0.5"></path><path d="M115.116 93.8081L110.8811 154.1339" fill="none" stroke="#aaa" stroke-opacity="0.5"></path><path d="M110.8811 154.1339L310.0155 143.7497" fill="none" stroke="#aaa" stroke-opacity="0.5"></path><path d="M110.8811 154.1339L250.1878 104.6364" fill="none" stroke="#aaa" stroke-opacity="0.5"></path><path d="M115.116 93.8081L220.2967 229.0037" fill="none" stroke="#aaa" stroke-opacity="0.5"></path><path d="M310.0155 143.7497L284.938 197.5143" fill="none" stroke="#aaa" stroke-opacity="0.5"></path><path d="M262.3849 37.3491L284.938 197.5143" fill="none" stroke="#aaa" stroke-opacity="0.5"></path><path d="M232.7566 175.595L220.2967 229.0037" fill="none" stroke="#aaa" stroke-opacity="0.5"></path><path d="M115.116 93.8081L149.0699 42.768" fill="none" stroke="#aaa" stroke-opacity="0.5"></path><path d="M250.1878 104.6364L220.2967 229.0037" fill="none" stroke="#aaa" stroke-opacity="0.5"></path><path d="M165.4272 159.7805L284.938 197.5143" fill="none" stroke="#aaa" stroke-opacity="0.5"></path><path d="M306.4798 83.1352L207.5225 23.9838" fill="none" stroke="#aaa" stroke-opacity="0.5"></path><path d="M149.0699 42.768L207.5225 23.9838" fill="none" stroke="#aaa" stroke-opacity="0.5"></path><path d="M165.4272 159.7805L185.3409 90.7378" fill="none" stroke="#aaa" stroke-opacity="0.5"></path><path d="M306.4798 83.1352L115.116 93.8081" fill="none" stroke="#aaa" stroke-opacity="0.5"></path><path d="M262.3849 37.3491L220.2967 229.0037" fill="none" stroke="#aaa" stroke-opacity="0.5"></path><path d="M232.7566 175.595L155.3452 213.8045" fill="none" stroke="#aaa" stroke-opacity="0.5"></path><path d="M165.4272 159.7805L232.7566 175.595" fill="none" stroke="#aaa" stroke-opacity="0.5"></path><path d="M185.3409 90.7378L284.938 197.5143" fill="none" stroke="#aaa" stroke-opacity="0.5"></path><path d="M250.1878 104.6364L155.3452 213.8045" fill="none" stroke="#aaa" stroke-opacity="0.5"></path><path d="M155.3452 213.8045L220.2967 229.0037" fill="none" stroke="#aaa" stroke-opacity="0.5"></path><path d="M306.4798 83.1352L262.3849 37.3491" fill="none" stroke="#aaa" stroke-opacity="0.5"></path><path d="M149.0699 42.768L262.3849 37.3491" fill="none" stroke="#aaa" stroke-opacity="0.5"></path><path d="M165.4272 159.7805L310.0155 143.7497" fill="none" stroke="#aaa" stroke-opacity="0.5"></path><path d="M165.4272 159.7805L250.1878 104.6364" fill="none" stroke="#aaa" stroke-opacity="0.5"></path><path d="M149.0699 42.768L284.938 197.5143" fill="none" stroke="#aaa" stroke-opacity="0.5"></path><path d="M306.4798 83.1352L232.7566 175.595" fill="none" stroke="#aaa" stroke-opacity="0.5"></path><path d="M262.3849 37.3491L155.3452 213.8045" fill="none" stroke="#aaa" stroke-opacity="0.5"></path><path d="M149.0699 42.768L165.4272 159.7805" fill="none" stroke="#aaa" stroke-opacity="0.5"></path><path d="M185.3409 90.7378L310.0155 143.7497" fill="none" stroke="#aaa" stroke-opacity="0.5"></path><path d="M232.7566 175.595L207.5225 23.9838" fill="none" stroke="#aaa" stroke-opacity="0.5"></path><path d="M306.4798 83.1352L250.1878 104.6364" fill="none" stroke="#aaa" stroke-opacity="0.5"></path><path d="M306.4798 83.1352L110.8811 154.1339" fill="none" stroke="#aaa" stroke-opacity="0.5"></path><path d="M149.0699 42.768L110.8811 154.1339" fill="none" stroke="#aaa" stroke-opacity="0.5"></path><path d="M115.116 93.8081L284.938 197.5143" fill="none" stroke="#aaa" stroke-opacity="0.5"></path><path d="M250.1878 104.6364L207.5225 23.9838" fill="none" stroke="#aaa" stroke-opacity="0.5"></path><path d="M306.4798 83.1352L220.2967 229.0037" fill="none" stroke="#aaa" stroke-opacity="0.5"></path><path d="M149.0699 42.768L220.2967 229.0037" fill="none" stroke="#aaa" stroke-opacity="0.5"></path><path d="M110.8811 154.1339L284.938 197.5143" fill="none" stroke="#aaa" stroke-opacity="0.5"></path><path d="M115.116 93.8081L185.3409 90.7378" fill="none" stroke="#aaa" stroke-opacity="0.5"></path><path d="M115.116 93.8081L165.4272 159.7805" fill="none" stroke="#aaa" stroke-opacity="0.5"></path><path d="M310.0155 143.7497L207.5225 23.9838" fill="none" stroke="#aaa" stroke-opacity="0.5"></path><path d="M185.3409 90.7378L155.3452 213.8045" fill="none" stroke="#aaa" stroke-opacity="0.5"></path><path d="M232.7566 175.595L262.3849 37.3491" fill="none" stroke="#aaa" stroke-opacity="0.5"></path><path d="M250.1878 104.6364L262.3849 37.3491" fill="none" stroke="#aaa" stroke-opacity="0.5"></path><path d="M149.0699 42.768L155.3452 213.8045" fill="none" stroke="#aaa" stroke-opacity="0.5"></path><path d="M115.116 93.8081L310.0155 143.7497" fill="none" stroke="#aaa" stroke-opacity="0.5"></path><path d="M165.4272 159.7805L207.5225 23.9838" fill="none" stroke="#aaa" stroke-opacity="0.5"></path><path d="M220.2967 229.0037L207.5225 23.9838" fill="none" stroke="#aaa" stroke-opacity="0.5"></path><path d="M110.8811 154.1339L220.2967 229.0037" fill="none" stroke="#aaa" stroke-opacity="0.5"></path><path d="M250.1878 104.6364L232.7566 175.595" fill="none" stroke="#aaa" stroke-opacity="0.5"></path><path d="M310.0155 143.7497L262.3849 37.3491" fill="none" stroke="#aaa" stroke-opacity="0.5"></path><path d="M284.938 197.5143L207.5225 23.9838" fill="none" stroke="#aaa" stroke-opacity="0.5"></path><path d="M155.3452 213.8045L284.938 197.5143" fill="none" stroke="#aaa" stroke-opacity="0.5"></path><path d="M250.1878 104.6364L310.0155 143.7497" fill="none" stroke="#aaa" stroke-opacity="0.5"></path><path d="M310.0155 143.7497L232.7566 175.595" fill="none" stroke="#aaa" stroke-opacity="0.5"></path><path d="M185.3409 90.7378L207.5225 23.9838" fill="none" stroke="#aaa" stroke-opacity="0.5"></path><path d="M1 0A1 1 0 1 1 1 -0.0001" fill="#5470c6" transform="matrix(18.5,0,0,18.5,310.0155,143.7497)"></path><path d="M1 0A1 1 0 1 1 1 -0.0001" fill="#5470c6" transform="matrix(18.5,0,0,18.5,284.938,197.5143)"></path><path d="M1 0A1 1 0 1 1 1 -0.0001" fill="#5470c6" transform="matrix(18.5,0,0,18.5,232.7566,175.595)"></path><path d="M1 0A1 1 0 1 1 1 -0.0001" fill="#5470c6" transform="matrix(18.5,0,0,18.5,220.2967,229.0037)"></path><path d="M1 0A1 1 0 1 1 1 -0.0001" fill="#5470c6" transform="matrix(18.5,0,0,18.5,155.3452,213.8045)"></path><path d="M1 0A1 1 0 1 1 1 -0.0001" fill="#5470c6" transform="matrix(18.5,0,0,18.5,165.4272,159.7805)"></path><path d="M1 0A1 1 0 1 1 1 -0.0001" fill="#5470c6" transform="matrix(18.5,0,0,18.5,110.8811,154.1339)"></path><path d="M1 0A1 1 0 1 1 1 -0.0001" fill="#5470c6" transform="matrix(18.5,0,0,18.5,115.116,93.8081)"></path><path d="M1 0A1 1 0 1 1 1 -0.0001" fill="#5470c6" transform="matrix(18.5,0,0,18.5,149.0699,42.768)"></path><path d="M1 0A1 1 0 1 1 1 -0.0001" fill="#5470c6" transform="matrix(18.5,0,0,18.5,185.3409,90.7378)"></path><path d="M1 0A1 1 0 1 1 1 -0.0001" fill="#5470c6" transform="matrix(18.5,0,0,18.5,207.5225,23.9838)"></path><path d="M1 0A1 1 0 1 1 1 -0.0001" fill="#5470c6" transform="matrix(18.5,0,0,18.5,250.1878,104.6364)"></path><path d="M1 0A1 1 0 1 1 1 -0.0001" fill="#5470c6" transform="matrix(18.5,0,0,18.5,262.3849,37.3491)"></path><path d="M1 0A1 1 0 1 1 1 -0.0001" fill="#5470c6" transform="matrix(18.5,0,0,18.5,306.4798,83.1352)"></path><path d="M-31.2344 -5l62.4688 0l0 33l-62.4687 0Z" fill="rgb(0,0,0)" fill-opacity="0" stroke="#ccc" stroke-width="0" transform="translate(237.5 5)"></path><text dominant-baseline="central" fill="#333" style="font-size:23px;font-family:sans-serif;font-weight:bolder;" text-anchor="middle" transform="translate(237.5 5)" y="11.5">C111</text></g></svg>