<svg baseprofile="full" height="250" style="position:absolute;left:0;top:0;user-select:none" version="1.1" width="475" xmlns="http://www.w3.org/2000/svg" xmlns:xlink="http://www.w3.org/1999/xlink"><rect fill="none" height="250" id="0" width="475" x="0" y="0"></rect><g><path d="M202.3922 222.6771L244.3831 125.2767" fill="none" stroke="#aaa" stroke-opacity="0.5"></path><path d="M141.244 52.681L290.0734 63.1121" fill="none" stroke="#aaa" stroke-opacity="0.5"></path><path d="M141.244 52.681L112.5287 102.351" fill="none" stroke="#aaa" stroke-opacity="0.5"></path><path d="M183.2956 122.0766L314.2971 118.702" fill="none" stroke="#aaa" stroke-opacity="0.5"></path><path d="M141.244 52.681L202.3922 222.6771" fill="none" stroke="#aaa" stroke-opacity="0.5"></path><path d="M112.5287 102.351L116.6471 161.4846" fill="none" stroke="#aaa" stroke-opacity="0.5"></path><path d="M297.3373 178.0331L152.6083 203.6762" fill="none" stroke="#aaa" stroke-opacity="0.5"></path><path d="M190.7297 28.7443L202.3922 222.6771" fill="none" stroke="#aaa" stroke-opacity="0.5"></path><path d="M244.7325 32.0013L152.6083 203.6762" fill="none" stroke="#aaa" stroke-opacity="0.5"></path><path d="M116.6471 161.4846L314.2971 118.702" fill="none" stroke="#aaa" stroke-opacity="0.5"></path><path d="M290.0734 63.1121L183.2956 122.0766" fill="none" stroke="#aaa" stroke-opacity="0.5"></path><path d="M116.6471 161.4846L152.6083 203.6762" fill="none" stroke="#aaa" stroke-opacity="0.5"></path><path d="M112.5287 102.351L290.0734 63.1121" fill="none" stroke="#aaa" stroke-opacity="0.5"></path><path d="M141.244 52.681L254.3675 214.184" fill="none" stroke="#aaa" stroke-opacity="0.5"></path><path d="M112.5287 102.351L183.2956 122.0766" fill="none" stroke="#aaa" stroke-opacity="0.5"></path><path d="M297.3373 178.0331L290.0734 63.1121" fill="none" stroke="#aaa" stroke-opacity="0.5"></path><path d="M190.7297 28.7443L254.3675 214.184" fill="none" stroke="#aaa" stroke-opacity="0.5"></path><path d="M244.7325 32.0013L290.0734 63.1121" fill="none" stroke="#aaa" stroke-opacity="0.5"></path><path d="M297.3373 178.0331L112.5287 102.351" fill="none" stroke="#aaa" stroke-opacity="0.5"></path><path d="M116.6471 161.4846L244.3831 125.2767" fill="none" stroke="#aaa" stroke-opacity="0.5"></path><path d="M244.7325 32.0013L112.5287 102.351" fill="none" stroke="#aaa" stroke-opacity="0.5"></path><path d="M290.0734 63.1121L254.3675 214.184" fill="none" stroke="#aaa" stroke-opacity="0.5"></path><path d="M297.3373 178.0331L202.3922 222.6771" fill="none" stroke="#aaa" stroke-opacity="0.5"></path><path d="M244.7325 32.0013L202.3922 222.6771" fill="none" stroke="#aaa" stroke-opacity="0.5"></path><path d="M116.6471 161.4846L202.3922 222.6771" fill="none" stroke="#aaa" stroke-opacity="0.5"></path><path d="M112.5287 102.351L254.3675 214.184" fill="none" stroke="#aaa" stroke-opacity="0.5"></path><path d="M141.244 52.681L314.2971 118.702" fill="none" stroke="#aaa" stroke-opacity="0.5"></path><path d="M116.6471 161.4846L190.7297 28.7443" fill="none" stroke="#aaa" stroke-opacity="0.5"></path><path d="M297.3373 178.0331L141.244 52.681" fill="none" stroke="#aaa" stroke-opacity="0.5"></path><path d="M190.7297 28.7443L314.2971 118.702" fill="none" stroke="#aaa" stroke-opacity="0.5"></path><path d="M297.3373 178.0331L254.3675 214.184" fill="none" stroke="#aaa" stroke-opacity="0.5"></path><path d="M244.7325 32.0013L141.244 52.681" fill="none" stroke="#aaa" stroke-opacity="0.5"></path><path d="M244.7325 32.0013L254.3675 214.184" fill="none" stroke="#aaa" stroke-opacity="0.5"></path><path d="M141.244 52.681L116.6471 161.4846" fill="none" stroke="#aaa" stroke-opacity="0.5"></path><path d="M290.0734 63.1121L314.2971 118.702" fill="none" stroke="#aaa" stroke-opacity="0.5"></path><path d="M290.0734 63.1121L152.6083 203.6762" fill="none" stroke="#aaa" stroke-opacity="0.5"></path><path d="M141.244 52.681L244.3831 125.2767" fill="none" stroke="#aaa" stroke-opacity="0.5"></path><path d="M112.5287 102.351L314.2971 118.702" fill="none" stroke="#aaa" stroke-opacity="0.5"></path><path d="M112.5287 102.351L152.6083 203.6762" fill="none" stroke="#aaa" stroke-opacity="0.5"></path><path d="M190.7297 28.7443L244.3831 125.2767" fill="none" stroke="#aaa" stroke-opacity="0.5"></path><path d="M183.2956 122.0766L152.6083 203.6762" fill="none" stroke="#aaa" stroke-opacity="0.5"></path><path d="M141.244 52.681L183.2956 122.0766" fill="none" stroke="#aaa" stroke-opacity="0.5"></path><path d="M290.0734 63.1121L244.3831 125.2767" fill="none" stroke="#aaa" stroke-opacity="0.5"></path><path d="M297.3373 178.0331L314.2971 118.702" fill="none" stroke="#aaa" stroke-opacity="0.5"></path><path d="M244.7325 32.0013L314.2971 118.702" fill="none" stroke="#aaa" stroke-opacity="0.5"></path><path d="M190.7297 28.7443L183.2956 122.0766" fill="none" stroke="#aaa" stroke-opacity="0.5"></path><path d="M141.244 52.681L190.7297 28.7443" fill="none" stroke="#aaa" stroke-opacity="0.5"></path><path d="M112.5287 102.351L244.3831 125.2767" fill="none" stroke="#aaa" stroke-opacity="0.5"></path><path d="M183.2956 122.0766L244.3831 125.2767" fill="none" stroke="#aaa" stroke-opacity="0.5"></path><path d="M290.0734 63.1121L202.3922 222.6771" fill="none" stroke="#aaa" stroke-opacity="0.5"></path><path d="M152.6083 203.6762L314.2971 118.702" fill="none" stroke="#aaa" stroke-opacity="0.5"></path><path d="M297.3373 178.0331L116.6471 161.4846" fill="none" stroke="#aaa" stroke-opacity="0.5"></path><path d="M202.3922 222.6771L254.3675 214.184" fill="none" stroke="#aaa" stroke-opacity="0.5"></path><path d="M112.5287 102.351L202.3922 222.6771" fill="none" stroke="#aaa" stroke-opacity="0.5"></path><path d="M297.3373 178.0331L244.3831 125.2767" fill="none" stroke="#aaa" stroke-opacity="0.5"></path><path d="M244.7325 32.0013L116.6471 161.4846" fill="none" stroke="#aaa" stroke-opacity="0.5"></path><path d="M244.5 32.0013L244.5 125.2767" fill="none" stroke="#aaa" stroke-opacity="0.5"></path><path d="M290.0734 63.1121L190.7297 28.7443" fill="none" stroke="#aaa" stroke-opacity="0.5"></path><path d="M183.2956 122.0766L202.3922 222.6771" fill="none" stroke="#aaa" stroke-opacity="0.5"></path><path d="M244.3831 125.2767L254.3675 214.184" fill="none" stroke="#aaa" stroke-opacity="0.5"></path><path d="M112.5287 102.351L190.7297 28.7443" fill="none" stroke="#aaa" stroke-opacity="0.5"></path><path d="M116.6471 161.4846L290.0734 63.1121" fill="none" stroke="#aaa" stroke-opacity="0.5"></path><path d="M152.6083 203.6762L244.3831 125.2767" fill="none" stroke="#aaa" stroke-opacity="0.5"></path><path d="M297.3373 178.0331L183.2956 122.0766" fill="none" stroke="#aaa" stroke-opacity="0.5"></path><path d="M244.7325 32.0013L183.2956 122.0766" fill="none" stroke="#aaa" stroke-opacity="0.5"></path><path d="M116.6471 161.4846L183.2956 122.0766" fill="none" stroke="#aaa" stroke-opacity="0.5"></path><path d="M183.2956 122.0766L254.3675 214.184" fill="none" stroke="#aaa" stroke-opacity="0.5"></path><path d="M297.3373 178.0331L190.7297 28.7443" fill="none" stroke="#aaa" stroke-opacity="0.5"></path><path d="M244.7325 32.0013L190.7297 28.7443" fill="none" stroke="#aaa" stroke-opacity="0.5"></path><path d="M202.3922 222.6771L314.2971 118.702" fill="none" stroke="#aaa" stroke-opacity="0.5"></path><path d="M202.3922 222.6771L152.6083 203.6762" fill="none" stroke="#aaa" stroke-opacity="0.5"></path><path d="M141.244 52.681L152.6083 203.6762" fill="none" stroke="#aaa" stroke-opacity="0.5"></path><path d="M297.3373 178.0331L244.7325 32.0013" fill="none" stroke="#aaa" stroke-opacity="0.5"></path><path d="M244.3831 125.2767L314.2971 118.702" fill="none" stroke="#aaa" stroke-opacity="0.5"></path><path d="M190.7297 28.7443L152.6083 203.6762" fill="none" stroke="#aaa" stroke-opacity="0.5"></path><path d="M152.6083 203.6762L254.3675 214.184" fill="none" stroke="#aaa" stroke-opacity="0.5"></path><path d="M116.6471 161.4846L254.3675 214.184" fill="none" stroke="#aaa" stroke-opacity="0.5"></path><path d="M254.3675 214.184L314.2971 118.702" fill="none" stroke="#aaa" stroke-opacity="0.5"></path><path d="M1 0A1 1 0 1 1 1 -0.0001" fill="#5470c6" transform="matrix(18.5,0,0,18.5,244.3831,125.2767)"></path><path d="M1 0A1 1 0 1 1 1 -0.0001" fill="#5470c6" transform="matrix(18.5,0,0,18.5,297.3373,178.0331)"></path><path d="M1 0A1 1 0 1 1 1 -0.0001" fill="#5470c6" transform="matrix(18.5,0,0,18.5,254.3675,214.184)"></path><path d="M1 0A1 1 0 1 1 1 -0.0001" fill="#5470c6" transform="matrix(18.5,0,0,18.5,202.3922,222.6771)"></path><path d="M1 0A1 1 0 1 1 1 -0.0001" fill="#5470c6" transform="matrix(18.5,0,0,18.5,152.6083,203.6762)"></path><path d="M1 0A1 1 0 1 1 1 -0.0001" fill="#5470c6" transform="matrix(18.5,0,0,18.5,116.6471,161.4846)"></path><path d="M1 0A1 1 0 1 1 1 -0.0001" fill="#5470c6" transform="matrix(18.5,0,0,18.5,183.2956,122.0766)"></path><path d="M1 0A1 1 0 1 1 1 -0.0001" fill="#5470c6" transform="matrix(18.5,0,0,18.5,112.5287,102.351)"></path><path d="M1 0A1 1 0 1 1 1 -0.0001" fill="#5470c6" transform="matrix(18.5,0,0,18.5,141.244,52.681)"></path><path d="M1 0A1 1 0 1 1 1 -0.0001" fill="#5470c6" transform="matrix(18.5,0,0,18.5,190.7297,28.7443)"></path><path d="M1 0A1 1 0 1 1 1 -0.0001" fill="#5470c6" transform="matrix(18.5,0,0,18.5,244.7325,32.0013)"></path><path d="M1 0A1 1 0 1 1 1 -0.0001" fill="#5470c6" transform="matrix(18.5,0,0,18.5,290.0734,63.1121)"></path><path d="M1 0A1 1 0 1 1 1 -0.0001" fill="#5470c6" transform="matrix(18.5,0,0,18.5,314.2971,118.702)"></path><path d="M-31.8633 -5l63.7266 0l0 33l-63.7266 0Z" fill="rgb(0,0,0)" fill-opacity="0" stroke="#ccc" stroke-width="0" transform="translate(237.5 5)"></path><text dominant-baseline="central" fill="#333" style="font-size:23px;font-family:sans-serif;font-weight:bolder;" text-anchor="middle" transform="translate(237.5 5)" y="11.5">C112</text></g></svg>