<svg baseprofile="full" height="250" style="position:absolute;left:0;top:0;user-select:none" version="1.1" width="475" xmlns="http://www.w3.org/2000/svg" xmlns:xlink="http://www.w3.org/1999/xlink"><rect fill="none" height="250" id="0" width="475" x="0" y="0"></rect><g><path d="M238.7709 227.1493L200.6112 188.5774" fill="none" stroke="#aaa" stroke-opacity="0.5"></path><path d="M118.1974 160.0829L109.9323 99.4179" fill="none" stroke="#aaa" stroke-opacity="0.5"></path><path d="M288.31 189.4819L109.9323 99.4179" fill="none" stroke="#aaa" stroke-opacity="0.5"></path><path d="M243.9698 120.2419L146.51 44.5752" fill="none" stroke="#aaa" stroke-opacity="0.5"></path><path d="M118.1974 160.0829L243.9698 120.2419" fill="none" stroke="#aaa" stroke-opacity="0.5"></path><path d="M152.0911 213.4887L288.31 189.4819" fill="none" stroke="#aaa" stroke-opacity="0.5"></path><path d="M299.0979 74.2351L146.51 44.5752" fill="none" stroke="#aaa" stroke-opacity="0.5"></path><path d="M118.1974 160.0829L200.6112 188.5774" fill="none" stroke="#aaa" stroke-opacity="0.5"></path><path d="M118.1974 160.0829L238.7709 227.1493" fill="none" stroke="#aaa" stroke-opacity="0.5"></path><path d="M146.51 44.5752L288.31 189.4819" fill="none" stroke="#aaa" stroke-opacity="0.5"></path><path d="M201.4417 28.0316L146.51 44.5752" fill="none" stroke="#aaa" stroke-opacity="0.5"></path><path d="M238.7709 227.1493L146.51 44.5752" fill="none" stroke="#aaa" stroke-opacity="0.5"></path><path d="M152.0911 213.4887L200.6112 188.5774" fill="none" stroke="#aaa" stroke-opacity="0.5"></path><path d="M118.1974 160.0829L146.51 44.5752" fill="none" stroke="#aaa" stroke-opacity="0.5"></path><path d="M175.9051 109.8241L312.9925 134.6946" fill="none" stroke="#aaa" stroke-opacity="0.5"></path><path d="M243.9698 120.2419L312.9925 134.6946" fill="none" stroke="#aaa" stroke-opacity="0.5"></path><path d="M175.9051 109.8241L288.31 189.4819" fill="none" stroke="#aaa" stroke-opacity="0.5"></path><path d="M243.9698 120.2419L288.31 189.4819" fill="none" stroke="#aaa" stroke-opacity="0.5"></path><path d="M200.6112 188.5774L109.9323 99.4179" fill="none" stroke="#aaa" stroke-opacity="0.5"></path><path d="M238.7709 227.1493L312.9925 134.6946" fill="none" stroke="#aaa" stroke-opacity="0.5"></path><path d="M175.9051 109.8241L201.4417 28.0316" fill="none" stroke="#aaa" stroke-opacity="0.5"></path><path d="M175.9051 109.8241L118.1974 160.0829" fill="none" stroke="#aaa" stroke-opacity="0.5"></path><path d="M299.0979 74.2351L256.8064 35.1993" fill="none" stroke="#aaa" stroke-opacity="0.5"></path><path d="M175.9051 109.8241L200.6112 188.5774" fill="none" stroke="#aaa" stroke-opacity="0.5"></path><path d="M118.1974 160.0829L312.9925 134.6946" fill="none" stroke="#aaa" stroke-opacity="0.5"></path><path d="M238.7709 227.1493L288.31 189.4819" fill="none" stroke="#aaa" stroke-opacity="0.5"></path><path d="M299.0979 74.2351L118.1974 160.0829" fill="none" stroke="#aaa" stroke-opacity="0.5"></path><path d="M118.1974 160.0829L288.31 189.4819" fill="none" stroke="#aaa" stroke-opacity="0.5"></path><path d="M201.4417 28.0316L299.0979 74.2351" fill="none" stroke="#aaa" stroke-opacity="0.5"></path><path d="M201.4417 28.0316L118.1974 160.0829" fill="none" stroke="#aaa" stroke-opacity="0.5"></path><path d="M299.0979 74.2351L238.7709 227.1493" fill="none" stroke="#aaa" stroke-opacity="0.5"></path><path d="M312.9925 134.6946L256.8064 35.1993" fill="none" stroke="#aaa" stroke-opacity="0.5"></path><path d="M201.4417 28.0316L238.7709 227.1493" fill="none" stroke="#aaa" stroke-opacity="0.5"></path><path d="M312.9925 134.6946L109.9323 99.4179" fill="none" stroke="#aaa" stroke-opacity="0.5"></path><path d="M256.8064 35.1993L288.31 189.4819" fill="none" stroke="#aaa" stroke-opacity="0.5"></path><path d="M152.0911 213.4887L256.8064 35.1993" fill="none" stroke="#aaa" stroke-opacity="0.5"></path><path d="M312.9925 134.6946L200.6112 188.5774" fill="none" stroke="#aaa" stroke-opacity="0.5"></path><path d="M256.8064 35.1993L109.9323 99.4179" fill="none" stroke="#aaa" stroke-opacity="0.5"></path><path d="M152.0911 213.4887L109.9323 99.4179" fill="none" stroke="#aaa" stroke-opacity="0.5"></path><path d="M256.8064 35.1993L200.6112 188.5774" fill="none" stroke="#aaa" stroke-opacity="0.5"></path><path d="M146.51 44.5752L109.9323 99.4179" fill="none" stroke="#aaa" stroke-opacity="0.5"></path><path d="M312.9925 134.6946L146.51 44.5752" fill="none" stroke="#aaa" stroke-opacity="0.5"></path><path d="M200.6112 188.5774L288.31 189.4819" fill="none" stroke="#aaa" stroke-opacity="0.5"></path><path d="M146.51 44.5752L200.6112 188.5774" fill="none" stroke="#aaa" stroke-opacity="0.5"></path><path d="M175.9051 109.8241L152.0911 213.4887" fill="none" stroke="#aaa" stroke-opacity="0.5"></path><path d="M175.9051 109.8241L256.8064 35.1993" fill="none" stroke="#aaa" stroke-opacity="0.5"></path><path d="M299.0979 74.2351L312.9925 134.6946" fill="none" stroke="#aaa" stroke-opacity="0.5"></path><path d="M256.8064 35.1993L146.51 44.5752" fill="none" stroke="#aaa" stroke-opacity="0.5"></path><path d="M152.0911 213.4887L146.51 44.5752" fill="none" stroke="#aaa" stroke-opacity="0.5"></path><path d="M243.9698 120.2419L152.0911 213.4887" fill="none" stroke="#aaa" stroke-opacity="0.5"></path><path d="M243.9698 120.2419L256.8064 35.1993" fill="none" stroke="#aaa" stroke-opacity="0.5"></path><path d="M175.9051 109.8241L299.0979 74.2351" fill="none" stroke="#aaa" stroke-opacity="0.5"></path><path d="M175.9051 109.8241L109.9323 99.4179" fill="none" stroke="#aaa" stroke-opacity="0.5"></path><path d="M299.0979 74.2351L152.0911 213.4887" fill="none" stroke="#aaa" stroke-opacity="0.5"></path><path d="M201.4417 28.0316L312.9925 134.6946" fill="none" stroke="#aaa" stroke-opacity="0.5"></path><path d="M299.0979 74.2351L288.31 189.4819" fill="none" stroke="#aaa" stroke-opacity="0.5"></path><path d="M243.9698 120.2419L109.9323 99.4179" fill="none" stroke="#aaa" stroke-opacity="0.5"></path><path d="M175.9051 109.8241L243.9698 120.2419" fill="none" stroke="#aaa" stroke-opacity="0.5"></path><path d="M299.0979 74.2351L109.9323 99.4179" fill="none" stroke="#aaa" stroke-opacity="0.5"></path><path d="M201.4417 28.0316L152.0911 213.4887" fill="none" stroke="#aaa" stroke-opacity="0.5"></path><path d="M201.4417 28.0316L256.8064 35.1993" fill="none" stroke="#aaa" stroke-opacity="0.5"></path><path d="M201.4417 28.0316L288.31 189.4819" fill="none" stroke="#aaa" stroke-opacity="0.5"></path><path d="M175.9051 109.8241L238.7709 227.1493" fill="none" stroke="#aaa" stroke-opacity="0.5"></path><path d="M238.7709 227.1493L152.0911 213.4887" fill="none" stroke="#aaa" stroke-opacity="0.5"></path><path d="M238.7709 227.1493L256.8064 35.1993" fill="none" stroke="#aaa" stroke-opacity="0.5"></path><path d="M243.9698 120.2419L200.6112 188.5774" fill="none" stroke="#aaa" stroke-opacity="0.5"></path><path d="M299.0979 74.2351L243.9698 120.2419" fill="none" stroke="#aaa" stroke-opacity="0.5"></path><path d="M243.9698 120.2419L238.7709 227.1493" fill="none" stroke="#aaa" stroke-opacity="0.5"></path><path d="M299.0979 74.2351L200.6112 188.5774" fill="none" stroke="#aaa" stroke-opacity="0.5"></path><path d="M201.4417 28.0316L109.9323 99.4179" fill="none" stroke="#aaa" stroke-opacity="0.5"></path><path d="M238.7709 227.1493L109.9323 99.4179" fill="none" stroke="#aaa" stroke-opacity="0.5"></path><path d="M118.1974 160.0829L152.0911 213.4887" fill="none" stroke="#aaa" stroke-opacity="0.5"></path><path d="M118.1974 160.0829L256.8064 35.1993" fill="none" stroke="#aaa" stroke-opacity="0.5"></path><path d="M312.9925 134.6946L288.31 189.4819" fill="none" stroke="#aaa" stroke-opacity="0.5"></path><path d="M201.4417 28.0316L243.9698 120.2419" fill="none" stroke="#aaa" stroke-opacity="0.5"></path><path d="M152.0911 213.4887L312.9925 134.6946" fill="none" stroke="#aaa" stroke-opacity="0.5"></path><path d="M201.4417 28.0316L200.6112 188.5774" fill="none" stroke="#aaa" stroke-opacity="0.5"></path><path d="M175.9051 109.8241L146.51 44.5752" fill="none" stroke="#aaa" stroke-opacity="0.5"></path><path d="M1 0A1 1 0 1 1 1 -0.0001" fill="#5470c6" transform="matrix(18.5,0,0,18.5,312.9925,134.6946)"></path><path d="M1 0A1 1 0 1 1 1 -0.0001" fill="#5470c6" transform="matrix(18.5,0,0,18.5,288.31,189.4819)"></path><path d="M1 0A1 1 0 1 1 1 -0.0001" fill="#5470c6" transform="matrix(18.5,0,0,18.5,238.7709,227.1493)"></path><path d="M1 0A1 1 0 1 1 1 -0.0001" fill="#5470c6" transform="matrix(18.5,0,0,18.5,200.6112,188.5774)"></path><path d="M1 0A1 1 0 1 1 1 -0.0001" fill="#5470c6" transform="matrix(18.5,0,0,18.5,152.0911,213.4887)"></path><path d="M1 0A1 1 0 1 1 1 -0.0001" fill="#5470c6" transform="matrix(18.5,0,0,18.5,175.9051,109.8241)"></path><path d="M1 0A1 1 0 1 1 1 -0.0001" fill="#5470c6" transform="matrix(18.5,0,0,18.5,118.1974,160.0829)"></path><path d="M1 0A1 1 0 1 1 1 -0.0001" fill="#5470c6" transform="matrix(18.5,0,0,18.5,109.9323,99.4179)"></path><path d="M1 0A1 1 0 1 1 1 -0.0001" fill="#5470c6" transform="matrix(18.5,0,0,18.5,146.51,44.5752)"></path><path d="M1 0A1 1 0 1 1 1 -0.0001" fill="#5470c6" transform="matrix(18.5,0,0,18.5,201.4417,28.0316)"></path><path d="M1 0A1 1 0 1 1 1 -0.0001" fill="#5470c6" transform="matrix(18.5,0,0,18.5,256.8064,35.1993)"></path><path d="M1 0A1 1 0 1 1 1 -0.0001" fill="#5470c6" transform="matrix(18.5,0,0,18.5,299.0979,74.2351)"></path><path d="M1 0A1 1 0 1 1 1 -0.0001" fill="#5470c6" transform="matrix(18.5,0,0,18.5,243.9698,120.2419)"></path><path d="M-31.8633 -5l63.7266 0l0 33l-63.7266 0Z" fill="rgb(0,0,0)" fill-opacity="0" stroke="#ccc" stroke-width="0" transform="translate(237.5 5)"></path><text dominant-baseline="central" fill="#333" style="font-size:23px;font-family:sans-serif;font-weight:bolder;" text-anchor="middle" transform="translate(237.5 5)" y="11.5">C113</text></g></svg>