<svg baseprofile="full" height="250" style="position:absolute;left:0;top:0;user-select:none" version="1.1" width="475" xmlns="http://www.w3.org/2000/svg" xmlns:xlink="http://www.w3.org/1999/xlink"><rect fill="none" height="250" id="0" width="475" x="0" y="0"></rect><g><path d="M157.8593 212.6192L309.7333 149.6065" fill="none" stroke="#aaa" stroke-opacity="0.5"></path><path d="M119.5512 167.3077L247.4052 103.8286" fill="none" stroke="#aaa" stroke-opacity="0.5"></path><path d="M263.1828 35.4188L119.5512 167.3077" fill="none" stroke="#aaa" stroke-opacity="0.5"></path><path d="M309.7333 149.6065L107.4165 106.212" fill="none" stroke="#aaa" stroke-opacity="0.5"></path><path d="M263.1828 35.4188L107.4165 106.212" fill="none" stroke="#aaa" stroke-opacity="0.5"></path><path d="M157.8593 212.6192L119.5512 167.3077" fill="none" stroke="#aaa" stroke-opacity="0.5"></path><path d="M157.8593 212.6192L107.4165 106.212" fill="none" stroke="#aaa" stroke-opacity="0.5"></path><path d="M157.8593 212.6192L171.5546 99.704" fill="none" stroke="#aaa" stroke-opacity="0.5"></path><path d="M263.1828 35.4188L157.8593 212.6192" fill="none" stroke="#aaa" stroke-opacity="0.5"></path><path d="M308.2089 85.8243L171.5546 99.704" fill="none" stroke="#aaa" stroke-opacity="0.5"></path><path d="M278.6279 199.0815L308.2089 85.8243" fill="none" stroke="#aaa" stroke-opacity="0.5"></path><path d="M247.4052 103.8286L171.5546 99.704" fill="none" stroke="#aaa" stroke-opacity="0.5"></path><path d="M144.2836 44.1898L171.5546 99.704" fill="none" stroke="#aaa" stroke-opacity="0.5"></path><path d="M204.4701 24.3141L308.2089 85.8243" fill="none" stroke="#aaa" stroke-opacity="0.5"></path><path d="M263.1828 35.4188L223.372 230.166" fill="none" stroke="#aaa" stroke-opacity="0.5"></path><path d="M278.6279 199.0815L247.4052 103.8286" fill="none" stroke="#aaa" stroke-opacity="0.5"></path><path d="M223.372 230.166L204.4701 24.3141" fill="none" stroke="#aaa" stroke-opacity="0.5"></path><path d="M247.4052 103.8286L308.2089 85.8243" fill="none" stroke="#aaa" stroke-opacity="0.5"></path><path d="M208.9712 166.7275L204.4701 24.3141" fill="none" stroke="#aaa" stroke-opacity="0.5"></path><path d="M144.2836 44.1898L247.4052 103.8286" fill="none" stroke="#aaa" stroke-opacity="0.5"></path><path d="M263.1828 35.4188L208.9712 166.7275" fill="none" stroke="#aaa" stroke-opacity="0.5"></path><path d="M107.4165 106.212L308.2089 85.8243" fill="none" stroke="#aaa" stroke-opacity="0.5"></path><path d="M223.372 230.166L308.2089 85.8243" fill="none" stroke="#aaa" stroke-opacity="0.5"></path><path d="M223.372 230.166L278.6279 199.0815" fill="none" stroke="#aaa" stroke-opacity="0.5"></path><path d="M208.9712 166.7275L308.2089 85.8243" fill="none" stroke="#aaa" stroke-opacity="0.5"></path><path d="M208.9712 166.7275L157.8593 212.6192" fill="none" stroke="#aaa" stroke-opacity="0.5"></path><path d="M119.5512 167.3077L308.2089 85.8243" fill="none" stroke="#aaa" stroke-opacity="0.5"></path><path d="M263.1828 35.4188L309.7333 149.6065" fill="none" stroke="#aaa" stroke-opacity="0.5"></path><path d="M278.6279 199.0815L144.2836 44.1898" fill="none" stroke="#aaa" stroke-opacity="0.5"></path><path d="M223.372 230.166L247.4052 103.8286" fill="none" stroke="#aaa" stroke-opacity="0.5"></path><path d="M208.9712 166.7275L278.6279 199.0815" fill="none" stroke="#aaa" stroke-opacity="0.5"></path><path d="M263.1828 35.4188L204.4701 24.3141" fill="none" stroke="#aaa" stroke-opacity="0.5"></path><path d="M204.4701 24.3141L144.2836 44.1898" fill="none" stroke="#aaa" stroke-opacity="0.5"></path><path d="M208.9712 166.7275L247.4052 103.8286" fill="none" stroke="#aaa" stroke-opacity="0.5"></path><path d="M204.4701 24.3141L309.7333 149.6065" fill="none" stroke="#aaa" stroke-opacity="0.5"></path><path d="M309.7333 149.6065L119.5512 167.3077" fill="none" stroke="#aaa" stroke-opacity="0.5"></path><path d="M157.8593 212.6192L204.4701 24.3141" fill="none" stroke="#aaa" stroke-opacity="0.5"></path><path d="M278.6279 199.0815L119.5512 167.3077" fill="none" stroke="#aaa" stroke-opacity="0.5"></path><path d="M309.7333 149.6065L171.5546 99.704" fill="none" stroke="#aaa" stroke-opacity="0.5"></path><path d="M263.1828 35.4188L171.5546 99.704" fill="none" stroke="#aaa" stroke-opacity="0.5"></path><path d="M278.6279 199.0815L107.4165 106.212" fill="none" stroke="#aaa" stroke-opacity="0.5"></path><path d="M278.6279 199.0815L171.5546 99.704" fill="none" stroke="#aaa" stroke-opacity="0.5"></path><path d="M204.4701 24.3141L119.5512 167.3077" fill="none" stroke="#aaa" stroke-opacity="0.5"></path><path d="M204.4701 24.3141L107.4165 106.212" fill="none" stroke="#aaa" stroke-opacity="0.5"></path><path d="M204.4701 24.3141L171.5546 99.704" fill="none" stroke="#aaa" stroke-opacity="0.5"></path><path d="M278.6279 199.0815L157.8593 212.6192" fill="none" stroke="#aaa" stroke-opacity="0.5"></path><path d="M309.7333 149.6065L308.2089 85.8243" fill="none" stroke="#aaa" stroke-opacity="0.5"></path><path d="M263.1828 35.4188L308.2089 85.8243" fill="none" stroke="#aaa" stroke-opacity="0.5"></path><path d="M247.4052 103.8286L107.4165 106.212" fill="none" stroke="#aaa" stroke-opacity="0.5"></path><path d="M144.2836 44.1898L107.4165 106.212" fill="none" stroke="#aaa" stroke-opacity="0.5"></path><path d="M157.8593 212.6192L308.2089 85.8243" fill="none" stroke="#aaa" stroke-opacity="0.5"></path><path d="M263.1828 35.4188L278.6279 199.0815" fill="none" stroke="#aaa" stroke-opacity="0.5"></path><path d="M223.372 230.166L144.2836 44.1898" fill="none" stroke="#aaa" stroke-opacity="0.5"></path><path d="M309.7333 149.6065L247.4052 103.8286" fill="none" stroke="#aaa" stroke-opacity="0.5"></path><path d="M223.372 230.166L309.7333 149.6065" fill="none" stroke="#aaa" stroke-opacity="0.5"></path><path d="M263.1828 35.4188L247.4052 103.8286" fill="none" stroke="#aaa" stroke-opacity="0.5"></path><path d="M144.2836 44.1898L308.2089 85.8243" fill="none" stroke="#aaa" stroke-opacity="0.5"></path><path d="M208.9712 166.7275L144.2836 44.1898" fill="none" stroke="#aaa" stroke-opacity="0.5"></path><path d="M119.5512 167.3077L144.2836 44.1898" fill="none" stroke="#aaa" stroke-opacity="0.5"></path><path d="M157.8593 212.6192L247.4052 103.8286" fill="none" stroke="#aaa" stroke-opacity="0.5"></path><path d="M208.9712 166.7275L309.7333 149.6065" fill="none" stroke="#aaa" stroke-opacity="0.5"></path><path d="M204.4701 24.3141L247.4052 103.8286" fill="none" stroke="#aaa" stroke-opacity="0.5"></path><path d="M223.372 230.166L119.5512 167.3077" fill="none" stroke="#aaa" stroke-opacity="0.5"></path><path d="M107.4165 106.212L171.5546 99.704" fill="none" stroke="#aaa" stroke-opacity="0.5"></path><path d="M223.372 230.166L107.4165 106.212" fill="none" stroke="#aaa" stroke-opacity="0.5"></path><path d="M223.372 230.166L171.5546 99.704" fill="none" stroke="#aaa" stroke-opacity="0.5"></path><path d="M208.9712 166.7275L119.5512 167.3077" fill="none" stroke="#aaa" stroke-opacity="0.5"></path><path d="M208.9712 166.7275L107.4165 106.212" fill="none" stroke="#aaa" stroke-opacity="0.5"></path><path d="M119.5512 167.3077L107.4165 106.212" fill="none" stroke="#aaa" stroke-opacity="0.5"></path><path d="M208.9712 166.7275L171.5546 99.704" fill="none" stroke="#aaa" stroke-opacity="0.5"></path><path d="M223.372 230.166L157.8593 212.6192" fill="none" stroke="#aaa" stroke-opacity="0.5"></path><path d="M119.5512 167.3077L171.5546 99.704" fill="none" stroke="#aaa" stroke-opacity="0.5"></path><path d="M278.6279 199.0815L309.7333 149.6065" fill="none" stroke="#aaa" stroke-opacity="0.5"></path><path d="M309.7333 149.6065L144.2836 44.1898" fill="none" stroke="#aaa" stroke-opacity="0.5"></path><path d="M263.1828 35.4188L144.2836 44.1898" fill="none" stroke="#aaa" stroke-opacity="0.5"></path><path d="M208.9712 166.7275L223.372 230.166" fill="none" stroke="#aaa" stroke-opacity="0.5"></path><path d="M278.6279 199.0815L204.4701 24.3141" fill="none" stroke="#aaa" stroke-opacity="0.5"></path><path d="M157.8593 212.6192L144.2836 44.1898" fill="none" stroke="#aaa" stroke-opacity="0.5"></path><path d="M1 0A1 1 0 1 1 1 -0.0001" fill="#5470c6" transform="matrix(18.5,0,0,18.5,309.7333,149.6065)"></path><path d="M1 0A1 1 0 1 1 1 -0.0001" fill="#5470c6" transform="matrix(18.5,0,0,18.5,278.6279,199.0815)"></path><path d="M1 0A1 1 0 1 1 1 -0.0001" fill="#5470c6" transform="matrix(18.5,0,0,18.5,223.372,230.166)"></path><path d="M1 0A1 1 0 1 1 1 -0.0001" fill="#5470c6" transform="matrix(18.5,0,0,18.5,208.9712,166.7275)"></path><path d="M1 0A1 1 0 1 1 1 -0.0001" fill="#5470c6" transform="matrix(18.5,0,0,18.5,157.8593,212.6192)"></path><path d="M1 0A1 1 0 1 1 1 -0.0001" fill="#5470c6" transform="matrix(18.5,0,0,18.5,119.5512,167.3077)"></path><path d="M1 0A1 1 0 1 1 1 -0.0001" fill="#5470c6" transform="matrix(18.5,0,0,18.5,107.4165,106.212)"></path><path d="M1 0A1 1 0 1 1 1 -0.0001" fill="#5470c6" transform="matrix(18.5,0,0,18.5,171.5546,99.704)"></path><path d="M1 0A1 1 0 1 1 1 -0.0001" fill="#5470c6" transform="matrix(18.5,0,0,18.5,144.2836,44.1898)"></path><path d="M1 0A1 1 0 1 1 1 -0.0001" fill="#5470c6" transform="matrix(18.5,0,0,18.5,204.4701,24.3141)"></path><path d="M1 0A1 1 0 1 1 1 -0.0001" fill="#5470c6" transform="matrix(18.5,0,0,18.5,263.1828,35.4188)"></path><path d="M1 0A1 1 0 1 1 1 -0.0001" fill="#5470c6" transform="matrix(18.5,0,0,18.5,247.4052,103.8286)"></path><path d="M1 0A1 1 0 1 1 1 -0.0001" fill="#5470c6" transform="matrix(18.5,0,0,18.5,308.2089,85.8243)"></path><path d="M-31.8633 -5l63.7266 0l0 33l-63.7266 0Z" fill="rgb(0,0,0)" fill-opacity="0" stroke="#ccc" stroke-width="0" transform="translate(237.5 5)"></path><text dominant-baseline="central" fill="#333" style="font-size:23px;font-family:sans-serif;font-weight:bolder;" text-anchor="middle" transform="translate(237.5 5)" y="11.5">C114</text></g></svg>