<svg baseprofile="full" height="250" style="position:absolute;left:0;top:0;user-select:none" version="1.1" width="475" xmlns="http://www.w3.org/2000/svg" xmlns:xlink="http://www.w3.org/1999/xlink"><rect fill="none" height="250" id="0" width="475" x="0" y="0"></rect><g><path d="M308.8301 99.5707L277.1275 51.3139" fill="none" stroke="#aaa" stroke-opacity="0.5"></path><path d="M193.0968 224.0105L257.7245 219.4832" fill="none" stroke="#aaa" stroke-opacity="0.5"></path><path d="M308.8301 99.5707L191.8179 107.1348" fill="none" stroke="#aaa" stroke-opacity="0.5"></path><path d="M193.0968 224.0105L224.4157 24.1591" fill="none" stroke="#aaa" stroke-opacity="0.5"></path><path d="M257.7245 219.4832L224.4157 24.1591" fill="none" stroke="#aaa" stroke-opacity="0.5"></path><path d="M162.5714 35.3206L257.7245 219.4832" fill="none" stroke="#aaa" stroke-opacity="0.5"></path><path d="M277.1275 51.3139L257.7245 219.4832" fill="none" stroke="#aaa" stroke-opacity="0.5"></path><path d="M257.7245 219.4832L141.4276 195.3461" fill="none" stroke="#aaa" stroke-opacity="0.5"></path><path d="M239.5834 151.8201L306.8811 165.7645" fill="none" stroke="#aaa" stroke-opacity="0.5"></path><path d="M193.0968 224.0105L308.8301 99.5707" fill="none" stroke="#aaa" stroke-opacity="0.5"></path><path d="M191.8179 107.1348L141.4276 195.3461" fill="none" stroke="#aaa" stroke-opacity="0.5"></path><path d="M239.5834 151.8201L277.1275 51.3139" fill="none" stroke="#aaa" stroke-opacity="0.5"></path><path d="M193.0968 224.0105L117.991 81.9787" fill="none" stroke="#aaa" stroke-opacity="0.5"></path><path d="M117.991 81.9787L277.1275 51.3139" fill="none" stroke="#aaa" stroke-opacity="0.5"></path><path d="M239.5834 151.8201L141.4276 195.3461" fill="none" stroke="#aaa" stroke-opacity="0.5"></path><path d="M117.991 81.9787L141.4276 195.3461" fill="none" stroke="#aaa" stroke-opacity="0.5"></path><path d="M277.1275 51.3139L224.4157 24.1591" fill="none" stroke="#aaa" stroke-opacity="0.5"></path><path d="M162.5714 35.3206L141.4276 195.3461" fill="none" stroke="#aaa" stroke-opacity="0.5"></path><path d="M277.1275 51.3139L141.4276 195.3461" fill="none" stroke="#aaa" stroke-opacity="0.5"></path><path d="M193.0968 224.0105L112.0434 144.0977" fill="none" stroke="#aaa" stroke-opacity="0.5"></path><path d="M306.8811 165.7645L277.1275 51.3139" fill="none" stroke="#aaa" stroke-opacity="0.5"></path><path d="M162.5714 35.3206L117.991 81.9787" fill="none" stroke="#aaa" stroke-opacity="0.5"></path><path d="M306.8811 165.7645L141.4276 195.3461" fill="none" stroke="#aaa" stroke-opacity="0.5"></path><path d="M162.5714 35.3206L112.0434 144.0977" fill="none" stroke="#aaa" stroke-opacity="0.5"></path><path d="M277.1275 51.3139L112.0434 144.0977" fill="none" stroke="#aaa" stroke-opacity="0.5"></path><path d="M306.8811 165.7645L191.8179 107.1348" fill="none" stroke="#aaa" stroke-opacity="0.5"></path><path d="M308.8301 99.5707L257.7245 219.4832" fill="none" stroke="#aaa" stroke-opacity="0.5"></path><path d="M193.0968 224.0105L239.5834 151.8201" fill="none" stroke="#aaa" stroke-opacity="0.5"></path><path d="M308.8301 99.5707L224.4157 24.1591" fill="none" stroke="#aaa" stroke-opacity="0.5"></path><path d="M239.5834 151.8201L162.5714 35.3206" fill="none" stroke="#aaa" stroke-opacity="0.5"></path><path d="M193.0968 224.0105L306.8811 165.7645" fill="none" stroke="#aaa" stroke-opacity="0.5"></path><path d="M308.8301 99.5707L141.4276 195.3461" fill="none" stroke="#aaa" stroke-opacity="0.5"></path><path d="M193.0968 224.0105L277.1275 51.3139" fill="none" stroke="#aaa" stroke-opacity="0.5"></path><path d="M193.0968 224.0105L141.4276 195.3461" fill="none" stroke="#aaa" stroke-opacity="0.5"></path><path d="M191.8179 107.1348L257.7245 219.4832" fill="none" stroke="#aaa" stroke-opacity="0.5"></path><path d="M308.8301 99.5707L117.991 81.9787" fill="none" stroke="#aaa" stroke-opacity="0.5"></path><path d="M162.5714 35.3206L306.8811 165.7645" fill="none" stroke="#aaa" stroke-opacity="0.5"></path><path d="M239.5834 151.8201L257.7245 219.4832" fill="none" stroke="#aaa" stroke-opacity="0.5"></path><path d="M308.8301 99.5707L112.0434 144.0977" fill="none" stroke="#aaa" stroke-opacity="0.5"></path><path d="M117.991 81.9787L257.7245 219.4832" fill="none" stroke="#aaa" stroke-opacity="0.5"></path><path d="M112.0434 144.0977L257.7245 219.4832" fill="none" stroke="#aaa" stroke-opacity="0.5"></path><path d="M224.4157 24.1591L141.4276 195.3461" fill="none" stroke="#aaa" stroke-opacity="0.5"></path><path d="M193.0968 224.0105L191.8179 107.1348" fill="none" stroke="#aaa" stroke-opacity="0.5"></path><path d="M162.5714 35.3206L277.1275 51.3139" fill="none" stroke="#aaa" stroke-opacity="0.5"></path><path d="M191.8179 107.1348L224.4157 24.1591" fill="none" stroke="#aaa" stroke-opacity="0.5"></path><path d="M239.5834 151.8201L224.4157 24.1591" fill="none" stroke="#aaa" stroke-opacity="0.5"></path><path d="M117.991 81.9787L224.4157 24.1591" fill="none" stroke="#aaa" stroke-opacity="0.5"></path><path d="M306.8811 165.7645L257.7245 219.4832" fill="none" stroke="#aaa" stroke-opacity="0.5"></path><path d="M162.5714 35.3206L224.4157 24.1591" fill="none" stroke="#aaa" stroke-opacity="0.5"></path><path d="M112.0434 144.0977L224.4157 24.1591" fill="none" stroke="#aaa" stroke-opacity="0.5"></path><path d="M112.0434 144.0977L141.4276 195.3461" fill="none" stroke="#aaa" stroke-opacity="0.5"></path><path d="M239.5834 151.8201L191.8179 107.1348" fill="none" stroke="#aaa" stroke-opacity="0.5"></path><path d="M239.5834 151.8201L308.8301 99.5707" fill="none" stroke="#aaa" stroke-opacity="0.5"></path><path d="M117.991 81.9787L191.8179 107.1348" fill="none" stroke="#aaa" stroke-opacity="0.5"></path><path d="M162.5714 35.3206L191.8179 107.1348" fill="none" stroke="#aaa" stroke-opacity="0.5"></path><path d="M277.1275 51.3139L191.8179 107.1348" fill="none" stroke="#aaa" stroke-opacity="0.5"></path><path d="M162.5714 35.3206L308.8301 99.5707" fill="none" stroke="#aaa" stroke-opacity="0.5"></path><path d="M239.5834 151.8201L117.991 81.9787" fill="none" stroke="#aaa" stroke-opacity="0.5"></path><path d="M191.8179 107.1348L112.0434 144.0977" fill="none" stroke="#aaa" stroke-opacity="0.5"></path><path d="M306.8811 165.7645L224.4157 24.1591" fill="none" stroke="#aaa" stroke-opacity="0.5"></path><path d="M239.5834 151.8201L112.0434 144.0977" fill="none" stroke="#aaa" stroke-opacity="0.5"></path><path d="M117.991 81.9787L112.0434 144.0977" fill="none" stroke="#aaa" stroke-opacity="0.5"></path><path d="M193.0968 224.0105L162.5714 35.3206" fill="none" stroke="#aaa" stroke-opacity="0.5"></path><path d="M306.8811 165.7645L117.991 81.9787" fill="none" stroke="#aaa" stroke-opacity="0.5"></path><path d="M308.8301 99.5707L306.8811 165.7645" fill="none" stroke="#aaa" stroke-opacity="0.5"></path><path d="M306.8811 165.7645L112.0434 144.0977" fill="none" stroke="#aaa" stroke-opacity="0.5"></path><path d="M1 0A1 1 0 1 1 1 -0.0001" fill="#5470c6" transform="matrix(18.5,0,0,18.5,306.8811,165.7645)"></path><path d="M1 0A1 1 0 1 1 1 -0.0001" fill="#5470c6" transform="matrix(18.5,0,0,18.5,239.5834,151.8201)"></path><path d="M1 0A1 1 0 1 1 1 -0.0001" fill="#5470c6" transform="matrix(18.5,0,0,18.5,257.7245,219.4832)"></path><path d="M1 0A1 1 0 1 1 1 -0.0001" fill="#5470c6" transform="matrix(18.5,0,0,18.5,193.0968,224.0105)"></path><path d="M1 0A1 1 0 1 1 1 -0.0001" fill="#5470c6" transform="matrix(18.5,0,0,18.5,141.4276,195.3461)"></path><path d="M1 0A1 1 0 1 1 1 -0.0001" fill="#5470c6" transform="matrix(18.5,0,0,18.5,112.0434,144.0977)"></path><path d="M1 0A1 1 0 1 1 1 -0.0001" fill="#5470c6" transform="matrix(18.5,0,0,18.5,117.991,81.9787)"></path><path d="M1 0A1 1 0 1 1 1 -0.0001" fill="#5470c6" transform="matrix(18.5,0,0,18.5,191.8179,107.1348)"></path><path d="M1 0A1 1 0 1 1 1 -0.0001" fill="#5470c6" transform="matrix(18.5,0,0,18.5,162.5714,35.3206)"></path><path d="M1 0A1 1 0 1 1 1 -0.0001" fill="#5470c6" transform="matrix(18.5,0,0,18.5,224.4157,24.1591)"></path><path d="M1 0A1 1 0 1 1 1 -0.0001" fill="#5470c6" transform="matrix(18.5,0,0,18.5,277.1275,51.3139)"></path><path d="M1 0A1 1 0 1 1 1 -0.0001" fill="#5470c6" transform="matrix(18.5,0,0,18.5,308.8301,99.5707)"></path><path d="M-31.8633 -5l63.7266 0l0 33l-63.7266 0Z" fill="rgb(0,0,0)" fill-opacity="0" stroke="#ccc" stroke-width="0" transform="translate(237.5 5)"></path><text dominant-baseline="central" fill="#333" style="font-size:23px;font-family:sans-serif;font-weight:bolder;" text-anchor="middle" transform="translate(237.5 5)" y="11.5">C115</text></g></svg>