<svg baseprofile="full" height="250" style="position:absolute;left:0;top:0;user-select:none" version="1.1" width="475" xmlns="http://www.w3.org/2000/svg" xmlns:xlink="http://www.w3.org/1999/xlink"><rect fill="none" height="250" id="0" width="475" x="0" y="0"></rect><g><path d="M309.4315 150.7096L273.9413 204.9148" fill="none" stroke="#aaa" stroke-opacity="0.5"></path><path d="M182.0743 25.636L206.6008 232.1847" fill="none" stroke="#aaa" stroke-opacity="0.5"></path><path d="M309.4315 150.7096L128.8964 66.2537" fill="none" stroke="#aaa" stroke-opacity="0.5"></path><path d="M309.4315 150.7096L255.5282 28.5906" fill="none" stroke="#aaa" stroke-opacity="0.5"></path><path d="M206.6008 232.1847L225.3364 97.7476" fill="none" stroke="#aaa" stroke-opacity="0.5"></path><path d="M255.5282 28.5906L273.9413 204.9148" fill="none" stroke="#aaa" stroke-opacity="0.5"></path><path d="M255.5282 28.5906L128.8964 66.2537" fill="none" stroke="#aaa" stroke-opacity="0.5"></path><path d="M131.5729 196.9623L206.6008 232.1847" fill="none" stroke="#aaa" stroke-opacity="0.5"></path><path d="M131.5729 196.9623L225.3364 97.7476" fill="none" stroke="#aaa" stroke-opacity="0.5"></path><path d="M194.0203 161.9544L182.0743 25.636" fill="none" stroke="#aaa" stroke-opacity="0.5"></path><path d="M182.0743 25.636L131.5729 196.9623" fill="none" stroke="#aaa" stroke-opacity="0.5"></path><path d="M273.9413 204.9148L225.3364 97.7476" fill="none" stroke="#aaa" stroke-opacity="0.5"></path><path d="M109.4127 127.5742L182.0743 25.636" fill="none" stroke="#aaa" stroke-opacity="0.5"></path><path d="M128.8964 66.2537L225.3364 97.7476" fill="none" stroke="#aaa" stroke-opacity="0.5"></path><path d="M194.0203 161.9544L273.9413 204.9148" fill="none" stroke="#aaa" stroke-opacity="0.5"></path><path d="M194.0203 161.9544L128.8964 66.2537" fill="none" stroke="#aaa" stroke-opacity="0.5"></path><path d="M194.0203 161.9544L255.5282 28.5906" fill="none" stroke="#aaa" stroke-opacity="0.5"></path><path d="M128.8964 66.2537L273.9413 204.9148" fill="none" stroke="#aaa" stroke-opacity="0.5"></path><path d="M109.4127 127.5742L225.3364 97.7476" fill="none" stroke="#aaa" stroke-opacity="0.5"></path><path d="M305.5698 82.4721L206.6008 232.1847" fill="none" stroke="#aaa" stroke-opacity="0.5"></path><path d="M109.4127 127.5742L273.9413 204.9148" fill="none" stroke="#aaa" stroke-opacity="0.5"></path><path d="M109.4127 127.5742L128.8964 66.2537" fill="none" stroke="#aaa" stroke-opacity="0.5"></path><path d="M309.4315 150.7096L206.6008 232.1847" fill="none" stroke="#aaa" stroke-opacity="0.5"></path><path d="M109.4127 127.5742L255.5282 28.5906" fill="none" stroke="#aaa" stroke-opacity="0.5"></path><path d="M194.0203 161.9544L309.4315 150.7096" fill="none" stroke="#aaa" stroke-opacity="0.5"></path><path d="M305.5698 82.4721L131.5729 196.9623" fill="none" stroke="#aaa" stroke-opacity="0.5"></path><path d="M255.5282 28.5906L206.6008 232.1847" fill="none" stroke="#aaa" stroke-opacity="0.5"></path><path d="M309.4315 150.7096L109.4127 127.5742" fill="none" stroke="#aaa" stroke-opacity="0.5"></path><path d="M255.5282 28.5906L225.3364 97.7476" fill="none" stroke="#aaa" stroke-opacity="0.5"></path><path d="M309.4315 150.7096L131.5729 196.9623" fill="none" stroke="#aaa" stroke-opacity="0.5"></path><path d="M305.5698 82.4721L255.5282 28.5906" fill="none" stroke="#aaa" stroke-opacity="0.5"></path><path d="M182.0743 25.636L225.3364 97.7476" fill="none" stroke="#aaa" stroke-opacity="0.5"></path><path d="M305.5698 82.4721L194.0203 161.9544" fill="none" stroke="#aaa" stroke-opacity="0.5"></path><path d="M255.5282 28.5906L131.5729 196.9623" fill="none" stroke="#aaa" stroke-opacity="0.5"></path><path d="M182.0743 25.636L273.9413 204.9148" fill="none" stroke="#aaa" stroke-opacity="0.5"></path><path d="M206.6008 232.1847L273.9413 204.9148" fill="none" stroke="#aaa" stroke-opacity="0.5"></path><path d="M182.0743 25.636L128.8964 66.2537" fill="none" stroke="#aaa" stroke-opacity="0.5"></path><path d="M182.0743 25.636L255.5282 28.5906" fill="none" stroke="#aaa" stroke-opacity="0.5"></path><path d="M194.0203 161.9544L206.6008 232.1847" fill="none" stroke="#aaa" stroke-opacity="0.5"></path><path d="M305.5698 82.4721L309.4315 150.7096" fill="none" stroke="#aaa" stroke-opacity="0.5"></path><path d="M194.0203 161.9544L225.3364 97.7476" fill="none" stroke="#aaa" stroke-opacity="0.5"></path><path d="M131.5729 196.9623L273.9413 204.9148" fill="none" stroke="#aaa" stroke-opacity="0.5"></path><path d="M128.8964 66.2537L206.6008 232.1847" fill="none" stroke="#aaa" stroke-opacity="0.5"></path><path d="M194.0203 161.9544L109.4127 127.5742" fill="none" stroke="#aaa" stroke-opacity="0.5"></path><path d="M194.0203 161.9544L131.5729 196.9623" fill="none" stroke="#aaa" stroke-opacity="0.5"></path><path d="M109.4127 127.5742L206.6008 232.1847" fill="none" stroke="#aaa" stroke-opacity="0.5"></path><path d="M128.8964 66.2537L131.5729 196.9623" fill="none" stroke="#aaa" stroke-opacity="0.5"></path><path d="M305.5698 82.4721L182.0743 25.636" fill="none" stroke="#aaa" stroke-opacity="0.5"></path><path d="M309.4315 150.7096L182.0743 25.636" fill="none" stroke="#aaa" stroke-opacity="0.5"></path><path d="M109.4127 127.5742L131.5729 196.9623" fill="none" stroke="#aaa" stroke-opacity="0.5"></path><path d="M305.5698 82.4721L225.3364 97.7476" fill="none" stroke="#aaa" stroke-opacity="0.5"></path><path d="M305.5698 82.4721L109.4127 127.5742" fill="none" stroke="#aaa" stroke-opacity="0.5"></path><path d="M309.4315 150.7096L225.3364 97.7476" fill="none" stroke="#aaa" stroke-opacity="0.5"></path><path d="M305.5698 82.4721L273.9413 204.9148" fill="none" stroke="#aaa" stroke-opacity="0.5"></path><path d="M305.5698 82.4721L128.8964 66.2537" fill="none" stroke="#aaa" stroke-opacity="0.5"></path><path d="M1 0A1 1 0 1 1 1 -0.0001" fill="#5470c6" transform="matrix(18.5,0,0,18.5,309.4315,150.7096)"></path><path d="M1 0A1 1 0 1 1 1 -0.0001" fill="#5470c6" transform="matrix(18.5,0,0,18.5,273.9413,204.9148)"></path><path d="M1 0A1 1 0 1 1 1 -0.0001" fill="#5470c6" transform="matrix(18.5,0,0,18.5,206.6008,232.1847)"></path><path d="M1 0A1 1 0 1 1 1 -0.0001" fill="#5470c6" transform="matrix(18.5,0,0,18.5,194.0203,161.9544)"></path><path d="M1 0A1 1 0 1 1 1 -0.0001" fill="#5470c6" transform="matrix(18.5,0,0,18.5,131.5729,196.9623)"></path><path d="M1 0A1 1 0 1 1 1 -0.0001" fill="#5470c6" transform="matrix(18.5,0,0,18.5,109.4127,127.5742)"></path><path d="M1 0A1 1 0 1 1 1 -0.0001" fill="#5470c6" transform="matrix(18.5,0,0,18.5,128.8964,66.2537)"></path><path d="M1 0A1 1 0 1 1 1 -0.0001" fill="#5470c6" transform="matrix(18.5,0,0,18.5,182.0743,25.636)"></path><path d="M1 0A1 1 0 1 1 1 -0.0001" fill="#5470c6" transform="matrix(18.5,0,0,18.5,255.5282,28.5906)"></path><path d="M1 0A1 1 0 1 1 1 -0.0001" fill="#5470c6" transform="matrix(18.5,0,0,18.5,225.3364,97.7476)"></path><path d="M1 0A1 1 0 1 1 1 -0.0001" fill="#5470c6" transform="matrix(18.5,0,0,18.5,305.5698,82.4721)"></path><path d="M-31.8633 -5l63.7266 0l0 33l-63.7266 0Z" fill="rgb(0,0,0)" fill-opacity="0" stroke="#ccc" stroke-width="0" transform="translate(237.5 5)"></path><text dominant-baseline="central" fill="#333" style="font-size:23px;font-family:sans-serif;font-weight:bolder;" text-anchor="middle" transform="translate(237.5 5)" y="11.5">C116</text></g></svg>