<svg baseprofile="full" height="250" style="position:absolute;left:0;top:0;user-select:none" version="1.1" width="475" xmlns="http://www.w3.org/2000/svg" xmlns:xlink="http://www.w3.org/1999/xlink"><rect fill="none" height="250" id="0" width="475" x="0" y="0"></rect><g><path d="M108.7338 131.2452L208.211 124.7566" fill="none" stroke="#aaa" stroke-opacity="0.5"></path><path d="M130.2018 63.6796L188.3426 25.3187" fill="none" stroke="#aaa" stroke-opacity="0.5"></path><path d="M137.3623 195.3219L108.7338 131.2452" fill="none" stroke="#aaa" stroke-opacity="0.5"></path><path d="M108.7338 131.2452L256.9754 34.9152" fill="none" stroke="#aaa" stroke-opacity="0.5"></path><path d="M130.2018 63.6796L108.7338 131.2452" fill="none" stroke="#aaa" stroke-opacity="0.5"></path><path d="M137.3623 195.3219L208.211 124.7566" fill="none" stroke="#aaa" stroke-opacity="0.5"></path><path d="M188.3426 25.3187L304.6244 85.3623" fill="none" stroke="#aaa" stroke-opacity="0.5"></path><path d="M130.2018 63.6796L208.211 124.7566" fill="none" stroke="#aaa" stroke-opacity="0.5"></path><path d="M267.6942 210.1824L304.6244 85.3623" fill="none" stroke="#aaa" stroke-opacity="0.5"></path><path d="M130.2018 63.6796L256.9754 34.9152" fill="none" stroke="#aaa" stroke-opacity="0.5"></path><path d="M208.211 124.7566L256.9754 34.9152" fill="none" stroke="#aaa" stroke-opacity="0.5"></path><path d="M130.2018 63.6796L267.6942 210.1824" fill="none" stroke="#aaa" stroke-opacity="0.5"></path><path d="M188.3426 25.3187L200.7792 225.6685" fill="none" stroke="#aaa" stroke-opacity="0.5"></path><path d="M267.6942 210.1824L200.7792 225.6685" fill="none" stroke="#aaa" stroke-opacity="0.5"></path><path d="M188.3426 25.3187L208.211 124.7566" fill="none" stroke="#aaa" stroke-opacity="0.5"></path><path d="M188.3426 25.3187L256.9754 34.9152" fill="none" stroke="#aaa" stroke-opacity="0.5"></path><path d="M267.6942 210.1824L256.9754 34.9152" fill="none" stroke="#aaa" stroke-opacity="0.5"></path><path d="M200.7792 225.6685L308.3341 153.5496" fill="none" stroke="#aaa" stroke-opacity="0.5"></path><path d="M188.3426 25.3187L267.6942 210.1824" fill="none" stroke="#aaa" stroke-opacity="0.5"></path><path d="M208.211 124.7566L304.6244 85.3623" fill="none" stroke="#aaa" stroke-opacity="0.5"></path><path d="M130.2018 63.6796L200.7792 225.6685" fill="none" stroke="#aaa" stroke-opacity="0.5"></path><path d="M130.2018 63.6796L308.3341 153.5496" fill="none" stroke="#aaa" stroke-opacity="0.5"></path><path d="M137.3623 195.3219L256.9754 34.9152" fill="none" stroke="#aaa" stroke-opacity="0.5"></path><path d="M308.3341 153.5496L304.6244 85.3623" fill="none" stroke="#aaa" stroke-opacity="0.5"></path><path d="M308.3341 153.5496L137.3623 195.3219" fill="none" stroke="#aaa" stroke-opacity="0.5"></path><path d="M188.3426 25.3187L137.3623 195.3219" fill="none" stroke="#aaa" stroke-opacity="0.5"></path><path d="M200.7792 225.6685L304.6244 85.3623" fill="none" stroke="#aaa" stroke-opacity="0.5"></path><path d="M267.6942 210.1824L137.3623 195.3219" fill="none" stroke="#aaa" stroke-opacity="0.5"></path><path d="M308.3341 153.5496L108.7338 131.2452" fill="none" stroke="#aaa" stroke-opacity="0.5"></path><path d="M188.3426 25.3187L108.7338 131.2452" fill="none" stroke="#aaa" stroke-opacity="0.5"></path><path d="M188.3426 25.3187L308.3341 153.5496" fill="none" stroke="#aaa" stroke-opacity="0.5"></path><path d="M267.6942 210.1824L108.7338 131.2452" fill="none" stroke="#aaa" stroke-opacity="0.5"></path><path d="M267.6942 210.1824L308.3341 153.5496" fill="none" stroke="#aaa" stroke-opacity="0.5"></path><path d="M200.7792 225.6685L137.3623 195.3219" fill="none" stroke="#aaa" stroke-opacity="0.5"></path><path d="M304.6244 85.3623L256.9754 34.9152" fill="none" stroke="#aaa" stroke-opacity="0.5"></path><path d="M108.7338 131.2452L304.6244 85.3623" fill="none" stroke="#aaa" stroke-opacity="0.5"></path><path d="M308.3341 153.5496L208.211 124.7566" fill="none" stroke="#aaa" stroke-opacity="0.5"></path><path d="M200.7792 225.6685L108.7338 131.2452" fill="none" stroke="#aaa" stroke-opacity="0.5"></path><path d="M267.6942 210.1824L208.211 124.7566" fill="none" stroke="#aaa" stroke-opacity="0.5"></path><path d="M308.3341 153.5496L256.9754 34.9152" fill="none" stroke="#aaa" stroke-opacity="0.5"></path><path d="M200.7792 225.6685L208.211 124.7566" fill="none" stroke="#aaa" stroke-opacity="0.5"></path><path d="M137.3623 195.3219L304.6244 85.3623" fill="none" stroke="#aaa" stroke-opacity="0.5"></path><path d="M130.2018 63.6796L304.6244 85.3623" fill="none" stroke="#aaa" stroke-opacity="0.5"></path><path d="M200.7792 225.6685L256.9754 34.9152" fill="none" stroke="#aaa" stroke-opacity="0.5"></path><path d="M130.2018 63.6796L137.3623 195.3219" fill="none" stroke="#aaa" stroke-opacity="0.5"></path><path d="M1 0A1 1 0 1 1 1 -0.0001" fill="#5470c6" transform="matrix(19,0,0,19,308.3341,153.5496)"></path><path d="M1 0A1 1 0 1 1 1 -0.0001" fill="#5470c6" transform="matrix(19,0,0,19,267.6942,210.1824)"></path><path d="M1 0A1 1 0 1 1 1 -0.0001" fill="#5470c6" transform="matrix(19,0,0,19,200.7792,225.6685)"></path><path d="M1 0A1 1 0 1 1 1 -0.0001" fill="#5470c6" transform="matrix(19,0,0,19,137.3623,195.3219)"></path><path d="M1 0A1 1 0 1 1 1 -0.0001" fill="#5470c6" transform="matrix(19,0,0,19,108.7338,131.2452)"></path><path d="M1 0A1 1 0 1 1 1 -0.0001" fill="#5470c6" transform="matrix(19,0,0,19,208.211,124.7566)"></path><path d="M1 0A1 1 0 1 1 1 -0.0001" fill="#5470c6" transform="matrix(19,0,0,19,130.2018,63.6796)"></path><path d="M1 0A1 1 0 1 1 1 -0.0001" fill="#5470c6" transform="matrix(19,0,0,19,188.3426,25.3187)"></path><path d="M1 0A1 1 0 1 1 1 -0.0001" fill="#5470c6" transform="matrix(19,0,0,19,256.9754,34.9152)"></path><path d="M1 0A1 1 0 1 1 1 -0.0001" fill="#5470c6" transform="matrix(19,0,0,19,304.6244,85.3623)"></path><path d="M-31.8633 -5l63.7266 0l0 33l-63.7266 0Z" fill="rgb(0,0,0)" fill-opacity="0" stroke="#ccc" stroke-width="0" transform="translate(237.5 5)"></path><text dominant-baseline="central" fill="#333" style="font-size:23px;font-family:sans-serif;font-weight:bolder;" text-anchor="middle" transform="translate(237.5 5)" y="11.5">C117</text></g></svg>