<svg baseprofile="full" height="250" style="position:absolute;left:0;top:0;user-select:none" version="1.1" width="475" xmlns="http://www.w3.org/2000/svg" xmlns:xlink="http://www.w3.org/1999/xlink"><rect fill="none" height="250" id="0" width="475" x="0" y="0"></rect><g><path d="M237.9137 22.1967L162.1324 34.0178" fill="none" stroke="#aaa" stroke-opacity="0.5"></path><path d="M237.9137 22.1967L178.9899 169.0748" fill="none" stroke="#aaa" stroke-opacity="0.5"></path><path d="M237.9137 22.1967L311.8636 148.7286" fill="none" stroke="#aaa" stroke-opacity="0.5"></path><path d="M226.7313 103.1726L270.6966 208.6401" fill="none" stroke="#aaa" stroke-opacity="0.5"></path><path d="M162.1324 34.0178L178.9899 169.0748" fill="none" stroke="#aaa" stroke-opacity="0.5"></path><path d="M226.7313 103.1726L237.9137 22.1967" fill="none" stroke="#aaa" stroke-opacity="0.5"></path><path d="M270.6966 208.6401L194.7713 233.6293" fill="none" stroke="#aaa" stroke-opacity="0.5"></path><path d="M311.8636 148.7286L114.2428 89.2849" fill="none" stroke="#aaa" stroke-opacity="0.5"></path><path d="M226.7313 103.1726L162.1324 34.0178" fill="none" stroke="#aaa" stroke-opacity="0.5"></path><path d="M311.8636 148.7286L303.6207 72.3768" fill="none" stroke="#aaa" stroke-opacity="0.5"></path><path d="M270.6966 208.6401L114.2428 89.2849" fill="none" stroke="#aaa" stroke-opacity="0.5"></path><path d="M226.7313 103.1726L178.9899 169.0748" fill="none" stroke="#aaa" stroke-opacity="0.5"></path><path d="M226.7313 103.1726L311.8636 148.7286" fill="none" stroke="#aaa" stroke-opacity="0.5"></path><path d="M270.6966 208.6401L303.6207 72.3768" fill="none" stroke="#aaa" stroke-opacity="0.5"></path><path d="M110.2966 168.8783L194.7713 233.6293" fill="none" stroke="#aaa" stroke-opacity="0.5"></path><path d="M110.2966 168.8783L303.6207 72.3768" fill="none" stroke="#aaa" stroke-opacity="0.5"></path><path d="M311.8636 148.7286L162.1324 34.0178" fill="none" stroke="#aaa" stroke-opacity="0.5"></path><path d="M311.8636 148.7286L178.9899 169.0748" fill="none" stroke="#aaa" stroke-opacity="0.5"></path><path d="M270.6966 208.6401L178.9899 169.0748" fill="none" stroke="#aaa" stroke-opacity="0.5"></path><path d="M110.2966 168.8783L162.1324 34.0178" fill="none" stroke="#aaa" stroke-opacity="0.5"></path><path d="M226.7313 103.1726L194.7713 233.6293" fill="none" stroke="#aaa" stroke-opacity="0.5"></path><path d="M110.2966 169.5L178.9899 169.5" fill="none" stroke="#aaa" stroke-opacity="0.5"></path><path d="M110.2966 168.8783L311.8636 148.7286" fill="none" stroke="#aaa" stroke-opacity="0.5"></path><path d="M194.7713 233.6293L162.1324 34.0178" fill="none" stroke="#aaa" stroke-opacity="0.5"></path><path d="M226.7313 103.1726L114.2428 89.2849" fill="none" stroke="#aaa" stroke-opacity="0.5"></path><path d="M226.7313 103.1726L303.6207 72.3768" fill="none" stroke="#aaa" stroke-opacity="0.5"></path><path d="M194.7713 233.6293L178.9899 169.0748" fill="none" stroke="#aaa" stroke-opacity="0.5"></path><path d="M194.7713 233.6293L311.8636 148.7286" fill="none" stroke="#aaa" stroke-opacity="0.5"></path><path d="M226.7313 103.1726L110.2966 168.8783" fill="none" stroke="#aaa" stroke-opacity="0.5"></path><path d="M303.6207 72.3768L114.2428 89.2849" fill="none" stroke="#aaa" stroke-opacity="0.5"></path><path d="M237.9137 22.1967L194.7713 233.6293" fill="none" stroke="#aaa" stroke-opacity="0.5"></path><path d="M270.6966 208.6401L237.9137 22.1967" fill="none" stroke="#aaa" stroke-opacity="0.5"></path><path d="M237.9137 22.1967L114.2428 89.2849" fill="none" stroke="#aaa" stroke-opacity="0.5"></path><path d="M237.9137 22.1967L303.6207 72.3768" fill="none" stroke="#aaa" stroke-opacity="0.5"></path><path d="M303.6207 72.3768L162.1324 34.0178" fill="none" stroke="#aaa" stroke-opacity="0.5"></path><path d="M110.2966 168.8783L114.2428 89.2849" fill="none" stroke="#aaa" stroke-opacity="0.5"></path><path d="M270.6966 208.6401L110.2966 168.8783" fill="none" stroke="#aaa" stroke-opacity="0.5"></path><path d="M110.2966 168.8783L237.9137 22.1967" fill="none" stroke="#aaa" stroke-opacity="0.5"></path><path d="M162.1324 34.0178L114.2428 89.2849" fill="none" stroke="#aaa" stroke-opacity="0.5"></path><path d="M270.6966 208.6401L162.1324 34.0178" fill="none" stroke="#aaa" stroke-opacity="0.5"></path><path d="M303.6207 72.3768L178.9899 169.0748" fill="none" stroke="#aaa" stroke-opacity="0.5"></path><path d="M194.7713 233.6293L114.2428 89.2849" fill="none" stroke="#aaa" stroke-opacity="0.5"></path><path d="M194.7713 233.6293L303.6207 72.3768" fill="none" stroke="#aaa" stroke-opacity="0.5"></path><path d="M270.6966 208.6401L311.8636 148.7286" fill="none" stroke="#aaa" stroke-opacity="0.5"></path><path d="M114.2428 89.2849L178.9899 169.0748" fill="none" stroke="#aaa" stroke-opacity="0.5"></path><path d="M1 0A1 1 0 1 1 1 -0.0001" fill="#5470c6" transform="matrix(19,0,0,19,311.8636,148.7286)"></path><path d="M1 0A1 1 0 1 1 1 -0.0001" fill="#5470c6" transform="matrix(19,0,0,19,270.6966,208.6401)"></path><path d="M1 0A1 1 0 1 1 1 -0.0001" fill="#5470c6" transform="matrix(19,0,0,19,194.7713,233.6293)"></path><path d="M1 0A1 1 0 1 1 1 -0.0001" fill="#5470c6" transform="matrix(19,0,0,19,178.9899,169.0748)"></path><path d="M1 0A1 1 0 1 1 1 -0.0001" fill="#5470c6" transform="matrix(19,0,0,19,110.2966,168.8783)"></path><path d="M1 0A1 1 0 1 1 1 -0.0001" fill="#5470c6" transform="matrix(19,0,0,19,114.2428,89.2849)"></path><path d="M1 0A1 1 0 1 1 1 -0.0001" fill="#5470c6" transform="matrix(19,0,0,19,162.1324,34.0178)"></path><path d="M1 0A1 1 0 1 1 1 -0.0001" fill="#5470c6" transform="matrix(19,0,0,19,237.9137,22.1967)"></path><path d="M1 0A1 1 0 1 1 1 -0.0001" fill="#5470c6" transform="matrix(19,0,0,19,226.7313,103.1726)"></path><path d="M1 0A1 1 0 1 1 1 -0.0001" fill="#5470c6" transform="matrix(19,0,0,19,303.6207,72.3768)"></path><path d="M-31.8633 -5l63.7266 0l0 33l-63.7266 0Z" fill="rgb(0,0,0)" fill-opacity="0" stroke="#ccc" stroke-width="0" transform="translate(237.5 5)"></path><text dominant-baseline="central" fill="#333" style="font-size:23px;font-family:sans-serif;font-weight:bolder;" text-anchor="middle" transform="translate(237.5 5)" y="11.5">C118</text></g></svg>