<svg baseprofile="full" height="250" style="position:absolute;left:0;top:0;user-select:none" version="1.1" width="475" xmlns="http://www.w3.org/2000/svg" xmlns:xlink="http://www.w3.org/1999/xlink"><rect fill="none" height="250" id="0" width="475" x="0" y="0"></rect><g><path d="M134.7173 59.1371L251.611 109.4967" fill="none" stroke="#aaa" stroke-opacity="0.5"></path><path d="M251.611 109.4967L110.1557 125.9242" fill="none" stroke="#aaa" stroke-opacity="0.5"></path><path d="M267.44 207.5483L198.0409 226.947" fill="none" stroke="#aaa" stroke-opacity="0.5"></path><path d="M110.1557 125.9242L281.102 38.5235" fill="none" stroke="#aaa" stroke-opacity="0.5"></path><path d="M267.44 207.5483L281.102 38.5235" fill="none" stroke="#aaa" stroke-opacity="0.5"></path><path d="M110.1557 125.9242L321.2117 143.7029" fill="none" stroke="#aaa" stroke-opacity="0.5"></path><path d="M267.44 207.5483L321.2117 143.7029" fill="none" stroke="#aaa" stroke-opacity="0.5"></path><path d="M134.7173 59.1371L198.0409 226.947" fill="none" stroke="#aaa" stroke-opacity="0.5"></path><path d="M134.7173 59.1371L281.102 38.5235" fill="none" stroke="#aaa" stroke-opacity="0.5"></path><path d="M110.1557 125.9242L137.0084 189.702" fill="none" stroke="#aaa" stroke-opacity="0.5"></path><path d="M267.44 207.5483L137.0084 189.702" fill="none" stroke="#aaa" stroke-opacity="0.5"></path><path d="M134.7173 59.1371L321.2117 143.7029" fill="none" stroke="#aaa" stroke-opacity="0.5"></path><path d="M198.8459 24.0183L198.0409 226.947" fill="none" stroke="#aaa" stroke-opacity="0.5"></path><path d="M198.8459 24.0183L281.102 38.5235" fill="none" stroke="#aaa" stroke-opacity="0.5"></path><path d="M134.7173 59.1371L137.0084 189.702" fill="none" stroke="#aaa" stroke-opacity="0.5"></path><path d="M198.0409 226.947L281.102 38.5235" fill="none" stroke="#aaa" stroke-opacity="0.5"></path><path d="M267.44 207.5483L110.1557 125.9242" fill="none" stroke="#aaa" stroke-opacity="0.5"></path><path d="M198.8459 24.0183L321.2117 143.7029" fill="none" stroke="#aaa" stroke-opacity="0.5"></path><path d="M198.0409 226.947L321.2117 143.7029" fill="none" stroke="#aaa" stroke-opacity="0.5"></path><path d="M198.8459 24.0183L137.0084 189.702" fill="none" stroke="#aaa" stroke-opacity="0.5"></path><path d="M198.0409 226.947L137.0084 189.702" fill="none" stroke="#aaa" stroke-opacity="0.5"></path><path d="M198.8459 24.0183L110.1557 125.9242" fill="none" stroke="#aaa" stroke-opacity="0.5"></path><path d="M251.611 109.4967L281.102 38.5235" fill="none" stroke="#aaa" stroke-opacity="0.5"></path><path d="M267.44 207.5483L251.611 109.4967" fill="none" stroke="#aaa" stroke-opacity="0.5"></path><path d="M251.611 109.4967L321.2117 143.7029" fill="none" stroke="#aaa" stroke-opacity="0.5"></path><path d="M267.44 207.5483L198.8459 24.0183" fill="none" stroke="#aaa" stroke-opacity="0.5"></path><path d="M251.611 109.4967L137.0084 189.702" fill="none" stroke="#aaa" stroke-opacity="0.5"></path><path d="M198.8459 24.0183L251.611 109.4967" fill="none" stroke="#aaa" stroke-opacity="0.5"></path><path d="M321.2117 143.7029L281.102 38.5235" fill="none" stroke="#aaa" stroke-opacity="0.5"></path><path d="M137.0084 189.702L281.102 38.5235" fill="none" stroke="#aaa" stroke-opacity="0.5"></path><path d="M137.0084 189.702L321.2117 143.7029" fill="none" stroke="#aaa" stroke-opacity="0.5"></path><path d="M267.44 207.5483L134.7173 59.1371" fill="none" stroke="#aaa" stroke-opacity="0.5"></path><path d="M134.7173 59.1371L110.1557 125.9242" fill="none" stroke="#aaa" stroke-opacity="0.5"></path><path d="M198.0409 226.947L110.1557 125.9242" fill="none" stroke="#aaa" stroke-opacity="0.5"></path><path d="M251.611 109.4967L198.0409 226.947" fill="none" stroke="#aaa" stroke-opacity="0.5"></path><path d="M198.8459 24.0183L134.7173 59.1371" fill="none" stroke="#aaa" stroke-opacity="0.5"></path><path d="M1 0A1 1 0 1 1 1 -0.0001" fill="#5470c6" transform="matrix(19,0,0,19,321.2117,143.7029)"></path><path d="M1 0A1 1 0 1 1 1 -0.0001" fill="#5470c6" transform="matrix(19,0,0,19,267.44,207.5483)"></path><path d="M1 0A1 1 0 1 1 1 -0.0001" fill="#5470c6" transform="matrix(19,0,0,19,198.0409,226.947)"></path><path d="M1 0A1 1 0 1 1 1 -0.0001" fill="#5470c6" transform="matrix(19,0,0,19,137.0084,189.702)"></path><path d="M1 0A1 1 0 1 1 1 -0.0001" fill="#5470c6" transform="matrix(19,0,0,19,110.1557,125.9242)"></path><path d="M1 0A1 1 0 1 1 1 -0.0001" fill="#5470c6" transform="matrix(19,0,0,19,134.7173,59.1371)"></path><path d="M1 0A1 1 0 1 1 1 -0.0001" fill="#5470c6" transform="matrix(19,0,0,19,198.8459,24.0183)"></path><path d="M1 0A1 1 0 1 1 1 -0.0001" fill="#5470c6" transform="matrix(19,0,0,19,281.102,38.5235)"></path><path d="M1 0A1 1 0 1 1 1 -0.0001" fill="#5470c6" transform="matrix(19,0,0,19,251.611,109.4967)"></path><path d="M-31.8633 -5l63.7266 0l0 33l-63.7266 0Z" fill="rgb(0,0,0)" fill-opacity="0" stroke="#ccc" stroke-width="0" transform="translate(237.5 5)"></path><text dominant-baseline="central" fill="#333" style="font-size:23px;font-family:sans-serif;font-weight:bolder;" text-anchor="middle" transform="translate(237.5 5)" y="11.5">C119</text></g></svg>