<svg baseprofile="full" height="250" style="position:absolute;left:0;top:0;user-select:none" version="1.1" width="475" xmlns="http://www.w3.org/2000/svg" xmlns:xlink="http://www.w3.org/1999/xlink"><rect fill="none" height="250" id="0" width="475" x="0" y="0"></rect><g><path d="M116.2315 163.6756L248.9586 218.5129" fill="none" stroke="#aaa" stroke-opacity="0.5"></path><path d="M118.6149 85.5221L173.0025 32.25" fill="none" stroke="#aaa" stroke-opacity="0.5"></path><path d="M116.2315 163.6756L304.1459 87.2615" fill="none" stroke="#aaa" stroke-opacity="0.5"></path><path d="M304.1459 87.2615L118.6149 85.5221" fill="none" stroke="#aaa" stroke-opacity="0.5"></path><path d="M172.3968 217.7377L118.6149 85.5221" fill="none" stroke="#aaa" stroke-opacity="0.5"></path><path d="M304.1459 87.2615L248.9586 218.5129" fill="none" stroke="#aaa" stroke-opacity="0.5"></path><path d="M172.3968 217.7377L248.9586 218.5129" fill="none" stroke="#aaa" stroke-opacity="0.5"></path><path d="M250.2811 30.8261L173.0025 32.25" fill="none" stroke="#aaa" stroke-opacity="0.5"></path><path d="M118.6149 85.5221L305.3758 164.214" fill="none" stroke="#aaa" stroke-opacity="0.5"></path><path d="M172.3968 217.7377L304.1459 87.2615" fill="none" stroke="#aaa" stroke-opacity="0.5"></path><path d="M116.2315 163.6756L305.3758 164.214" fill="none" stroke="#aaa" stroke-opacity="0.5"></path><path d="M248.9586 218.5129L118.6149 85.5221" fill="none" stroke="#aaa" stroke-opacity="0.5"></path><path d="M304.1459 87.2615L305.3758 164.214" fill="none" stroke="#aaa" stroke-opacity="0.5"></path><path d="M172.3968 217.7377L305.3758 164.214" fill="none" stroke="#aaa" stroke-opacity="0.5"></path><path d="M116.2315 163.6756L173.0025 32.25" fill="none" stroke="#aaa" stroke-opacity="0.5"></path><path d="M250.2811 30.8261L118.6149 85.5221" fill="none" stroke="#aaa" stroke-opacity="0.5"></path><path d="M250.2811 30.8261L248.9586 218.5129" fill="none" stroke="#aaa" stroke-opacity="0.5"></path><path d="M248.9586 218.5129L305.3758 164.214" fill="none" stroke="#aaa" stroke-opacity="0.5"></path><path d="M304.1459 87.2615L173.0025 32.25" fill="none" stroke="#aaa" stroke-opacity="0.5"></path><path d="M172.3968 217.7377L173.0025 32.25" fill="none" stroke="#aaa" stroke-opacity="0.5"></path><path d="M172.3968 217.7377L250.2811 30.8261" fill="none" stroke="#aaa" stroke-opacity="0.5"></path><path d="M250.2811 30.8261L304.1459 87.2615" fill="none" stroke="#aaa" stroke-opacity="0.5"></path><path d="M305.3758 164.214L173.0025 32.25" fill="none" stroke="#aaa" stroke-opacity="0.5"></path><path d="M250.2811 30.8261L116.2315 163.6756" fill="none" stroke="#aaa" stroke-opacity="0.5"></path><path d="M248.9586 218.5129L173.0025 32.25" fill="none" stroke="#aaa" stroke-opacity="0.5"></path><path d="M172.3968 217.7377L116.2315 163.6756" fill="none" stroke="#aaa" stroke-opacity="0.5"></path><path d="M116.2315 163.6756L118.6149 85.5221" fill="none" stroke="#aaa" stroke-opacity="0.5"></path><path d="M250.2811 30.8261L305.3758 164.214" fill="none" stroke="#aaa" stroke-opacity="0.5"></path><path d="M1 0A1 1 0 1 1 1 -0.0001" fill="#5470c6" transform="matrix(19,0,0,19,305.3758,164.214)"></path><path d="M1 0A1 1 0 1 1 1 -0.0001" fill="#5470c6" transform="matrix(19,0,0,19,248.9586,218.5129)"></path><path d="M1 0A1 1 0 1 1 1 -0.0001" fill="#5470c6" transform="matrix(19,0,0,19,172.3968,217.7377)"></path><path d="M1 0A1 1 0 1 1 1 -0.0001" fill="#5470c6" transform="matrix(19,0,0,19,116.2315,163.6756)"></path><path d="M1 0A1 1 0 1 1 1 -0.0001" fill="#5470c6" transform="matrix(19,0,0,19,118.6149,85.5221)"></path><path d="M1 0A1 1 0 1 1 1 -0.0001" fill="#5470c6" transform="matrix(19,0,0,19,173.0025,32.25)"></path><path d="M1 0A1 1 0 1 1 1 -0.0001" fill="#5470c6" transform="matrix(19,0,0,19,250.2811,30.8261)"></path><path d="M1 0A1 1 0 1 1 1 -0.0001" fill="#5470c6" transform="matrix(19,0,0,19,304.1459,87.2615)"></path><path d="M-32.4922 -5l64.9844 0l0 33l-64.9844 0Z" fill="rgb(0,0,0)" fill-opacity="0" stroke="#ccc" stroke-width="0" transform="translate(237.5 5)"></path><text dominant-baseline="central" fill="#333" style="font-size:23px;font-family:sans-serif;font-weight:bolder;" text-anchor="middle" transform="translate(237.5 5)" y="11.5">C120</text></g></svg>