<svg baseprofile="full" height="250" style="position:absolute;left:0;top:0;user-select:none" version="1.1" width="475" xmlns="http://www.w3.org/2000/svg" xmlns:xlink="http://www.w3.org/1999/xlink"><rect fill="none" height="250" id="0" width="475" x="0" y="0"></rect><g><path d="M302.2606 167.9091L246.0422 219.5347" fill="none" stroke="#aaa" stroke-opacity="0.5"></path><path d="M168.2827 216.5577L302.2606 167.9091" fill="none" stroke="#aaa" stroke-opacity="0.5"></path><path d="M119.986 82.6454L168.2827 216.5577" fill="none" stroke="#aaa" stroke-opacity="0.5"></path><path d="M306.1435 90.3271L168.2827 216.5577" fill="none" stroke="#aaa" stroke-opacity="0.5"></path><path d="M119.986 82.6454L302.2606 167.9091" fill="none" stroke="#aaa" stroke-opacity="0.5"></path><path d="M115.9337 159.6727L176.3153 29.2062" fill="none" stroke="#aaa" stroke-opacity="0.5"></path><path d="M306.1435 90.3271L254.0432 34.1471" fill="none" stroke="#aaa" stroke-opacity="0.5"></path><path d="M306.1435 90.3271L119.986 82.6454" fill="none" stroke="#aaa" stroke-opacity="0.5"></path><path d="M254.0432 34.1471L119.986 82.6454" fill="none" stroke="#aaa" stroke-opacity="0.5"></path><path d="M306.1435 90.3271L302.2606 167.9091" fill="none" stroke="#aaa" stroke-opacity="0.5"></path><path d="M306.1435 90.3271L246.0422 219.5347" fill="none" stroke="#aaa" stroke-opacity="0.5"></path><path d="M115.9337 159.6727L246.0422 219.5347" fill="none" stroke="#aaa" stroke-opacity="0.5"></path><path d="M254.0432 34.1471L246.0422 219.5347" fill="none" stroke="#aaa" stroke-opacity="0.5"></path><path d="M176.3153 29.2062L246.0422 219.5347" fill="none" stroke="#aaa" stroke-opacity="0.5"></path><path d="M115.9337 159.6727L168.2827 216.5577" fill="none" stroke="#aaa" stroke-opacity="0.5"></path><path d="M254.0432 34.1471L168.2827 216.5577" fill="none" stroke="#aaa" stroke-opacity="0.5"></path><path d="M176.3153 29.2062L168.2827 216.5577" fill="none" stroke="#aaa" stroke-opacity="0.5"></path><path d="M115.9337 159.6727L119.986 82.6454" fill="none" stroke="#aaa" stroke-opacity="0.5"></path><path d="M168.2827 216.5577L246.0422 219.5347" fill="none" stroke="#aaa" stroke-opacity="0.5"></path><path d="M306.1435 90.3271L176.3153 29.2062" fill="none" stroke="#aaa" stroke-opacity="0.5"></path><path d="M176.3153 29.2062L119.986 82.6454" fill="none" stroke="#aaa" stroke-opacity="0.5"></path><path d="M254.0432 34.1471L176.3153 29.2062" fill="none" stroke="#aaa" stroke-opacity="0.5"></path><path d="M115.9337 159.6727L302.2606 167.9091" fill="none" stroke="#aaa" stroke-opacity="0.5"></path><path d="M254.0432 34.1471L302.2606 167.9091" fill="none" stroke="#aaa" stroke-opacity="0.5"></path><path d="M176.3153 29.2062L302.2606 167.9091" fill="none" stroke="#aaa" stroke-opacity="0.5"></path><path d="M306.1435 90.3271L115.9337 159.6727" fill="none" stroke="#aaa" stroke-opacity="0.5"></path><path d="M254.0432 34.1471L115.9337 159.6727" fill="none" stroke="#aaa" stroke-opacity="0.5"></path><path d="M119.986 82.6454L246.0422 219.5347" fill="none" stroke="#aaa" stroke-opacity="0.5"></path><path d="M1 0A1 1 0 1 1 1 -0.0001" fill="#5470c6" transform="matrix(19,0,0,19,302.2606,167.9091)"></path><path d="M1 0A1 1 0 1 1 1 -0.0001" fill="#5470c6" transform="matrix(19,0,0,19,246.0422,219.5347)"></path><path d="M1 0A1 1 0 1 1 1 -0.0001" fill="#5470c6" transform="matrix(19,0,0,19,168.2827,216.5577)"></path><path d="M1 0A1 1 0 1 1 1 -0.0001" fill="#5470c6" transform="matrix(19,0,0,19,115.9337,159.6727)"></path><path d="M1 0A1 1 0 1 1 1 -0.0001" fill="#5470c6" transform="matrix(19,0,0,19,119.986,82.6454)"></path><path d="M1 0A1 1 0 1 1 1 -0.0001" fill="#5470c6" transform="matrix(19,0,0,19,176.3153,29.2062)"></path><path d="M1 0A1 1 0 1 1 1 -0.0001" fill="#5470c6" transform="matrix(19,0,0,19,254.0432,34.1471)"></path><path d="M1 0A1 1 0 1 1 1 -0.0001" fill="#5470c6" transform="matrix(19,0,0,19,306.1435,90.3271)"></path><path d="M-32.4922 -5l64.9844 0l0 33l-64.9844 0Z" fill="rgb(0,0,0)" fill-opacity="0" stroke="#ccc" stroke-width="0" transform="translate(237.5 5)"></path><text dominant-baseline="central" fill="#333" style="font-size:23px;font-family:sans-serif;font-weight:bolder;" text-anchor="middle" transform="translate(237.5 5)" y="11.5">C121</text></g></svg>