<svg baseprofile="full" height="250" style="position:absolute;left:0;top:0;user-select:none" version="1.1" width="475" xmlns="http://www.w3.org/2000/svg" xmlns:xlink="http://www.w3.org/1999/xlink"><rect fill="none" height="250" id="0" width="475" x="0" y="0"></rect><g><path d="M249.9443 216.1173L248.4589 30.9145" fill="none" stroke="#aaa" stroke-opacity="0.5"></path><path d="M119.2122 164.5041L248.4589 30.9145" fill="none" stroke="#aaa" stroke-opacity="0.5"></path><path d="M306.4602 163.2867L119.2122 164.5041" fill="none" stroke="#aaa" stroke-opacity="0.5"></path><path d="M116.8975 87.1607L306.4602 163.2867" fill="none" stroke="#aaa" stroke-opacity="0.5"></path><path d="M248.4589 30.9145L172.8904 221.0255" fill="none" stroke="#aaa" stroke-opacity="0.5"></path><path d="M116.8975 87.1607L170.9393 31.7957" fill="none" stroke="#aaa" stroke-opacity="0.5"></path><path d="M304.2042 85.1955L172.8904 221.0255" fill="none" stroke="#aaa" stroke-opacity="0.5"></path><path d="M170.9393 31.7957L172.8904 221.0255" fill="none" stroke="#aaa" stroke-opacity="0.5"></path><path d="M304.2042 85.1955L119.2122 164.5041" fill="none" stroke="#aaa" stroke-opacity="0.5"></path><path d="M170.9393 31.7957L248.4589 30.9145" fill="none" stroke="#aaa" stroke-opacity="0.5"></path><path d="M249.9443 216.1173L172.8904 221.0255" fill="none" stroke="#aaa" stroke-opacity="0.5"></path><path d="M119.2122 164.5041L172.8904 221.0255" fill="none" stroke="#aaa" stroke-opacity="0.5"></path><path d="M306.4602 163.2867L170.9393 31.7957" fill="none" stroke="#aaa" stroke-opacity="0.5"></path><path d="M249.9443 216.1173L119.2122 164.5041" fill="none" stroke="#aaa" stroke-opacity="0.5"></path><path d="M306.4602 163.2867L249.9443 216.1173" fill="none" stroke="#aaa" stroke-opacity="0.5"></path><path d="M306.4602 163.2867L248.4589 30.9145" fill="none" stroke="#aaa" stroke-opacity="0.5"></path><path d="M304.2042 85.1955L116.8975 87.1607" fill="none" stroke="#aaa" stroke-opacity="0.5"></path><path d="M116.8975 87.1607L172.8904 221.0255" fill="none" stroke="#aaa" stroke-opacity="0.5"></path><path d="M304.2042 85.1955L306.4602 163.2867" fill="none" stroke="#aaa" stroke-opacity="0.5"></path><path d="M116.8975 87.1607L119.2122 164.5041" fill="none" stroke="#aaa" stroke-opacity="0.5"></path><path d="M304.2042 85.1955L170.9393 31.7957" fill="none" stroke="#aaa" stroke-opacity="0.5"></path><path d="M116.8975 87.1607L249.9443 216.1173" fill="none" stroke="#aaa" stroke-opacity="0.5"></path><path d="M116.8975 87.1607L248.4589 30.9145" fill="none" stroke="#aaa" stroke-opacity="0.5"></path><path d="M304.2042 85.1955L249.9443 216.1173" fill="none" stroke="#aaa" stroke-opacity="0.5"></path><path d="M304.2042 85.1955L248.4589 30.9145" fill="none" stroke="#aaa" stroke-opacity="0.5"></path><path d="M170.9393 31.7957L119.2122 164.5041" fill="none" stroke="#aaa" stroke-opacity="0.5"></path><path d="M249.9443 216.1173L170.9393 31.7957" fill="none" stroke="#aaa" stroke-opacity="0.5"></path><path d="M306.4602 163.2867L172.8904 221.0255" fill="none" stroke="#aaa" stroke-opacity="0.5"></path><path d="M1 0A1 1 0 1 1 1 -0.0001" fill="#5470c6" transform="matrix(19,0,0,19,306.4602,163.2867)"></path><path d="M1 0A1 1 0 1 1 1 -0.0001" fill="#5470c6" transform="matrix(19,0,0,19,249.9443,216.1173)"></path><path d="M1 0A1 1 0 1 1 1 -0.0001" fill="#5470c6" transform="matrix(19,0,0,19,172.8904,221.0255)"></path><path d="M1 0A1 1 0 1 1 1 -0.0001" fill="#5470c6" transform="matrix(19,0,0,19,119.2122,164.5041)"></path><path d="M1 0A1 1 0 1 1 1 -0.0001" fill="#5470c6" transform="matrix(19,0,0,19,116.8975,87.1607)"></path><path d="M1 0A1 1 0 1 1 1 -0.0001" fill="#5470c6" transform="matrix(19,0,0,19,170.9393,31.7957)"></path><path d="M1 0A1 1 0 1 1 1 -0.0001" fill="#5470c6" transform="matrix(19,0,0,19,248.4589,30.9145)"></path><path d="M1 0A1 1 0 1 1 1 -0.0001" fill="#5470c6" transform="matrix(19,0,0,19,304.2042,85.1955)"></path><path d="M-32.4922 -5l64.9844 0l0 33l-64.9844 0Z" fill="rgb(0,0,0)" fill-opacity="0" stroke="#ccc" stroke-width="0" transform="translate(237.5 5)"></path><text dominant-baseline="central" fill="#333" style="font-size:23px;font-family:sans-serif;font-weight:bolder;" text-anchor="middle" transform="translate(237.5 5)" y="11.5">C122</text></g></svg>