<svg baseprofile="full" height="250" style="position:absolute;left:0;top:0;user-select:none" version="1.1" width="475" xmlns="http://www.w3.org/2000/svg" xmlns:xlink="http://www.w3.org/1999/xlink"><rect fill="none" height="250" id="0" width="475" x="0" y="0"></rect><g><path d="M123.8783 167.8183L308.992 159.1739" fill="none" stroke="#aaa" stroke-opacity="0.5"></path><path d="M308.992 159.1739L177.0058 223.5288" fill="none" stroke="#aaa" stroke-opacity="0.5"></path><path d="M300.4415 81.3478L111.8844 90.9342" fill="none" stroke="#aaa" stroke-opacity="0.5"></path><path d="M123.8783 167.8183L168.1734 36.2453" fill="none" stroke="#aaa" stroke-opacity="0.5"></path><path d="M123.8783 167.8183L177.0058 223.5288" fill="none" stroke="#aaa" stroke-opacity="0.5"></path><path d="M308.992 159.1739L111.8844 90.9342" fill="none" stroke="#aaa" stroke-opacity="0.5"></path><path d="M254.1971 213.4158L123.8783 167.8183" fill="none" stroke="#aaa" stroke-opacity="0.5"></path><path d="M254.1971 213.4158L244.4346 27.5359" fill="none" stroke="#aaa" stroke-opacity="0.5"></path><path d="M254.1971 213.4158L308.992 159.1739" fill="none" stroke="#aaa" stroke-opacity="0.5"></path><path d="M244.4346 27.5359L308.992 159.1739" fill="none" stroke="#aaa" stroke-opacity="0.5"></path><path d="M254.1971 213.4158L168.1734 36.2453" fill="none" stroke="#aaa" stroke-opacity="0.5"></path><path d="M168.1734 36.2453L244.4346 27.5359" fill="none" stroke="#aaa" stroke-opacity="0.5"></path><path d="M168.1734 36.2453L308.992 159.1739" fill="none" stroke="#aaa" stroke-opacity="0.5"></path><path d="M254.1971 213.4158L177.0058 223.5288" fill="none" stroke="#aaa" stroke-opacity="0.5"></path><path d="M244.4346 27.5359L177.0058 223.5288" fill="none" stroke="#aaa" stroke-opacity="0.5"></path><path d="M123.8783 167.8183L244.4346 27.5359" fill="none" stroke="#aaa" stroke-opacity="0.5"></path><path d="M254.1971 213.4158L300.4415 81.3478" fill="none" stroke="#aaa" stroke-opacity="0.5"></path><path d="M168.1734 36.2453L177.0058 223.5288" fill="none" stroke="#aaa" stroke-opacity="0.5"></path><path d="M244.4346 27.5359L300.4415 81.3478" fill="none" stroke="#aaa" stroke-opacity="0.5"></path><path d="M168.1734 36.2453L300.4415 81.3478" fill="none" stroke="#aaa" stroke-opacity="0.5"></path><path d="M254.1971 213.4158L111.8844 90.9342" fill="none" stroke="#aaa" stroke-opacity="0.5"></path><path d="M244.4346 27.5359L111.8844 90.9342" fill="none" stroke="#aaa" stroke-opacity="0.5"></path><path d="M123.8783 167.8183L300.4415 81.3478" fill="none" stroke="#aaa" stroke-opacity="0.5"></path><path d="M177.0058 223.5288L111.8844 90.9342" fill="none" stroke="#aaa" stroke-opacity="0.5"></path><path d="M300.4415 81.3478L308.992 159.1739" fill="none" stroke="#aaa" stroke-opacity="0.5"></path><path d="M168.1734 36.2453L111.8844 90.9342" fill="none" stroke="#aaa" stroke-opacity="0.5"></path><path d="M123.8783 167.8183L111.8844 90.9342" fill="none" stroke="#aaa" stroke-opacity="0.5"></path><path d="M300.4415 81.3478L177.0058 223.5288" fill="none" stroke="#aaa" stroke-opacity="0.5"></path><path d="M1 0A1 1 0 1 1 1 -0.0001" fill="#5470c6" transform="matrix(19,0,0,19,308.992,159.1739)"></path><path d="M1 0A1 1 0 1 1 1 -0.0001" fill="#5470c6" transform="matrix(19,0,0,19,254.1971,213.4158)"></path><path d="M1 0A1 1 0 1 1 1 -0.0001" fill="#5470c6" transform="matrix(19,0,0,19,177.0058,223.5288)"></path><path d="M1 0A1 1 0 1 1 1 -0.0001" fill="#5470c6" transform="matrix(19,0,0,19,123.8783,167.8183)"></path><path d="M1 0A1 1 0 1 1 1 -0.0001" fill="#5470c6" transform="matrix(19,0,0,19,111.8844,90.9342)"></path><path d="M1 0A1 1 0 1 1 1 -0.0001" fill="#5470c6" transform="matrix(19,0,0,19,168.1734,36.2453)"></path><path d="M1 0A1 1 0 1 1 1 -0.0001" fill="#5470c6" transform="matrix(19,0,0,19,244.4346,27.5359)"></path><path d="M1 0A1 1 0 1 1 1 -0.0001" fill="#5470c6" transform="matrix(19,0,0,19,300.4415,81.3478)"></path><path d="M-32.4922 -5l64.9844 0l0 33l-64.9844 0Z" fill="rgb(0,0,0)" fill-opacity="0" stroke="#ccc" stroke-width="0" transform="translate(237.5 5)"></path><text dominant-baseline="central" fill="#333" style="font-size:23px;font-family:sans-serif;font-weight:bolder;" text-anchor="middle" transform="translate(237.5 5)" y="11.5">C123</text></g></svg>