<svg baseprofile="full" height="250" style="position:absolute;left:0;top:0;user-select:none" version="1.1" width="475" xmlns="http://www.w3.org/2000/svg" xmlns:xlink="http://www.w3.org/1999/xlink"><rect fill="none" height="250" id="0" width="475" x="0" y="0"></rect><g><path d="M304.7099 171.4979L233.5004 226.5532" fill="none" stroke="#aaa" stroke-opacity="0.5"></path><path d="M304.7099 171.4979L145.3456 206.2618" fill="none" stroke="#aaa" stroke-opacity="0.5"></path><path d="M106.567 123.9348L146.6594 43.28" fill="none" stroke="#aaa" stroke-opacity="0.5"></path><path d="M233.5004 226.5532L305.4194 80.5237" fill="none" stroke="#aaa" stroke-opacity="0.5"></path><path d="M305.4194 80.5237L145.3456 206.2618" fill="none" stroke="#aaa" stroke-opacity="0.5"></path><path d="M304.7099 171.4979L146.6594 43.28" fill="none" stroke="#aaa" stroke-opacity="0.5"></path><path d="M235.6794 22.9485L305.4194 80.5237" fill="none" stroke="#aaa" stroke-opacity="0.5"></path><path d="M233.5004 226.5532L145.3456 206.2618" fill="none" stroke="#aaa" stroke-opacity="0.5"></path><path d="M146.6594 43.28L145.3456 206.2618" fill="none" stroke="#aaa" stroke-opacity="0.5"></path><path d="M305.4194 80.5237L106.567 123.9348" fill="none" stroke="#aaa" stroke-opacity="0.5"></path><path d="M235.6794 22.9485L145.3456 206.2618" fill="none" stroke="#aaa" stroke-opacity="0.5"></path><path d="M305.4194 80.5237L146.6594 43.28" fill="none" stroke="#aaa" stroke-opacity="0.5"></path><path d="M233.5004 226.5532L106.567 123.9348" fill="none" stroke="#aaa" stroke-opacity="0.5"></path><path d="M233.5004 226.5532L146.6594 43.28" fill="none" stroke="#aaa" stroke-opacity="0.5"></path><path d="M235.6794 22.9485L106.567 123.9348" fill="none" stroke="#aaa" stroke-opacity="0.5"></path><path d="M106.567 123.9348L145.3456 206.2618" fill="none" stroke="#aaa" stroke-opacity="0.5"></path><path d="M304.7099 171.4979L106.567 123.9348" fill="none" stroke="#aaa" stroke-opacity="0.5"></path><path d="M235.6794 22.9485L146.6594 43.28" fill="none" stroke="#aaa" stroke-opacity="0.5"></path><path d="M304.7099 171.4979L305.4194 80.5237" fill="none" stroke="#aaa" stroke-opacity="0.5"></path><path d="M235.6794 22.9485L304.7099 171.4979" fill="none" stroke="#aaa" stroke-opacity="0.5"></path><path d="M235.6794 22.9485L233.5004 226.5532" fill="none" stroke="#aaa" stroke-opacity="0.5"></path><path d="M1 0A1 1 0 1 1 1 -0.0001" fill="#5470c6" transform="matrix(19,0,0,19,304.7099,171.4979)"></path><path d="M1 0A1 1 0 1 1 1 -0.0001" fill="#5470c6" transform="matrix(19,0,0,19,233.5004,226.5532)"></path><path d="M1 0A1 1 0 1 1 1 -0.0001" fill="#5470c6" transform="matrix(19,0,0,19,145.3456,206.2618)"></path><path d="M1 0A1 1 0 1 1 1 -0.0001" fill="#5470c6" transform="matrix(19,0,0,19,106.567,123.9348)"></path><path d="M1 0A1 1 0 1 1 1 -0.0001" fill="#5470c6" transform="matrix(19,0,0,19,146.6594,43.28)"></path><path d="M1 0A1 1 0 1 1 1 -0.0001" fill="#5470c6" transform="matrix(19,0,0,19,235.6794,22.9485)"></path><path d="M1 0A1 1 0 1 1 1 -0.0001" fill="#5470c6" transform="matrix(19,0,0,19,305.4194,80.5237)"></path><path d="M-32.4922 -5l64.9844 0l0 33l-64.9844 0Z" fill="rgb(0,0,0)" fill-opacity="0" stroke="#ccc" stroke-width="0" transform="translate(237.5 5)"></path><text dominant-baseline="central" fill="#333" style="font-size:23px;font-family:sans-serif;font-weight:bolder;" text-anchor="middle" transform="translate(237.5 5)" y="11.5">C124</text></g></svg>