<svg baseprofile="full" height="250" style="position:absolute;left:0;top:0;user-select:none" version="1.1" width="475" xmlns="http://www.w3.org/2000/svg" xmlns:xlink="http://www.w3.org/1999/xlink"><rect fill="none" height="250" id="0" width="475" x="0" y="0"></rect><g><path d="M147.0077 41.7196L235.782 24.2349" fill="none" stroke="#aaa" stroke-opacity="0.5"></path><path d="M147.0077 41.7196L107.6622 123.3327" fill="none" stroke="#aaa" stroke-opacity="0.5"></path><path d="M107.6622 123.3327L144.1798 205.7094" fill="none" stroke="#aaa" stroke-opacity="0.5"></path><path d="M306.3617 80.9205L144.1798 205.7094" fill="none" stroke="#aaa" stroke-opacity="0.5"></path><path d="M235.782 24.2349L144.1798 205.7094" fill="none" stroke="#aaa" stroke-opacity="0.5"></path><path d="M147.0077 41.7196L303.8937 171.9126" fill="none" stroke="#aaa" stroke-opacity="0.5"></path><path d="M235.782 24.2349L306.3617 80.9205" fill="none" stroke="#aaa" stroke-opacity="0.5"></path><path d="M147.0077 41.7196L232.9941 227.1703" fill="none" stroke="#aaa" stroke-opacity="0.5"></path><path d="M147.0077 41.7196L306.3617 80.9205" fill="none" stroke="#aaa" stroke-opacity="0.5"></path><path d="M232.9941 227.1703L303.8937 171.9126" fill="none" stroke="#aaa" stroke-opacity="0.5"></path><path d="M235.782 24.2349L107.6622 123.3327" fill="none" stroke="#aaa" stroke-opacity="0.5"></path><path d="M232.9941 227.1703L144.1798 205.7094" fill="none" stroke="#aaa" stroke-opacity="0.5"></path><path d="M107.6622 123.3327L303.8937 171.9126" fill="none" stroke="#aaa" stroke-opacity="0.5"></path><path d="M107.6622 123.3327L232.9941 227.1703" fill="none" stroke="#aaa" stroke-opacity="0.5"></path><path d="M306.3617 80.9205L303.8937 171.9126" fill="none" stroke="#aaa" stroke-opacity="0.5"></path><path d="M235.782 24.2349L303.8937 171.9126" fill="none" stroke="#aaa" stroke-opacity="0.5"></path><path d="M107.6622 123.3327L306.3617 80.9205" fill="none" stroke="#aaa" stroke-opacity="0.5"></path><path d="M144.1798 205.7094L303.8937 171.9126" fill="none" stroke="#aaa" stroke-opacity="0.5"></path><path d="M306.3617 80.9205L232.9941 227.1703" fill="none" stroke="#aaa" stroke-opacity="0.5"></path><path d="M235.782 24.2349L232.9941 227.1703" fill="none" stroke="#aaa" stroke-opacity="0.5"></path><path d="M147.0077 41.7196L144.1798 205.7094" fill="none" stroke="#aaa" stroke-opacity="0.5"></path><path d="M1 0A1 1 0 1 1 1 -0.0001" fill="#5470c6" transform="matrix(19,0,0,19,303.8937,171.9126)"></path><path d="M1 0A1 1 0 1 1 1 -0.0001" fill="#5470c6" transform="matrix(19,0,0,19,232.9941,227.1703)"></path><path d="M1 0A1 1 0 1 1 1 -0.0001" fill="#5470c6" transform="matrix(19,0,0,19,144.1798,205.7094)"></path><path d="M1 0A1 1 0 1 1 1 -0.0001" fill="#5470c6" transform="matrix(19,0,0,19,107.6622,123.3327)"></path><path d="M1 0A1 1 0 1 1 1 -0.0001" fill="#5470c6" transform="matrix(19,0,0,19,147.0077,41.7196)"></path><path d="M1 0A1 1 0 1 1 1 -0.0001" fill="#5470c6" transform="matrix(19,0,0,19,235.782,24.2349)"></path><path d="M1 0A1 1 0 1 1 1 -0.0001" fill="#5470c6" transform="matrix(19,0,0,19,306.3617,80.9205)"></path><path d="M-32.4922 -5l64.9844 0l0 33l-64.9844 0Z" fill="rgb(0,0,0)" fill-opacity="0" stroke="#ccc" stroke-width="0" transform="translate(237.5 5)"></path><text dominant-baseline="central" fill="#333" style="font-size:23px;font-family:sans-serif;font-weight:bolder;" text-anchor="middle" transform="translate(237.5 5)" y="11.5">C125</text></g></svg>