<svg baseprofile="full" height="250" style="position:absolute;left:0;top:0;user-select:none" version="1.1" width="475" xmlns="http://www.w3.org/2000/svg" xmlns:xlink="http://www.w3.org/1999/xlink"><rect fill="none" height="250" id="0" width="475" x="0" y="0"></rect><g><path d="M304.4057 171.2109L233.9127 226.8947" fill="none" stroke="#aaa" stroke-opacity="0.5"></path><path d="M233.9127 226.8947L146.1122 206.2263" fill="none" stroke="#aaa" stroke-opacity="0.5"></path><path d="M233.9127 226.8947L146.7889 43.1707" fill="none" stroke="#aaa" stroke-opacity="0.5"></path><path d="M105.9204 124.3639L234.8555 23.1806" fill="none" stroke="#aaa" stroke-opacity="0.5"></path><path d="M304.4057 171.2109L234.8555 23.1806" fill="none" stroke="#aaa" stroke-opacity="0.5"></path><path d="M234.8555 23.1806L146.1122 206.2263" fill="none" stroke="#aaa" stroke-opacity="0.5"></path><path d="M234.8555 23.1806L146.7889 43.1707" fill="none" stroke="#aaa" stroke-opacity="0.5"></path><path d="M105.9204 124.3639L305.8857 79.9528" fill="none" stroke="#aaa" stroke-opacity="0.5"></path><path d="M105.9204 124.3639L146.7889 43.1707" fill="none" stroke="#aaa" stroke-opacity="0.5"></path><path d="M304.4057 171.2109L146.1122 206.2263" fill="none" stroke="#aaa" stroke-opacity="0.5"></path><path d="M304.4057 171.2109L146.7889 43.1707" fill="none" stroke="#aaa" stroke-opacity="0.5"></path><path d="M105.9204 124.3639L233.9127 226.8947" fill="none" stroke="#aaa" stroke-opacity="0.5"></path><path d="M233.9127 226.8947L305.8857 79.9528" fill="none" stroke="#aaa" stroke-opacity="0.5"></path><path d="M305.8857 79.9528L234.8555 23.1806" fill="none" stroke="#aaa" stroke-opacity="0.5"></path><path d="M105.9204 124.3639L304.4057 171.2109" fill="none" stroke="#aaa" stroke-opacity="0.5"></path><path d="M305.8857 79.9528L146.1122 206.2263" fill="none" stroke="#aaa" stroke-opacity="0.5"></path><path d="M305.8857 79.9528L146.7889 43.1707" fill="none" stroke="#aaa" stroke-opacity="0.5"></path><path d="M233.9127 226.8947L234.8555 23.1806" fill="none" stroke="#aaa" stroke-opacity="0.5"></path><path d="M105.9204 124.3639L146.1122 206.2263" fill="none" stroke="#aaa" stroke-opacity="0.5"></path><path d="M304.4057 171.2109L305.8857 79.9528" fill="none" stroke="#aaa" stroke-opacity="0.5"></path><path d="M146.1122 206.2263L146.7889 43.1707" fill="none" stroke="#aaa" stroke-opacity="0.5"></path><path d="M1 0A1 1 0 1 1 1 -0.0001" fill="#5470c6" transform="matrix(19,0,0,19,304.4057,171.2109)"></path><path d="M1 0A1 1 0 1 1 1 -0.0001" fill="#5470c6" transform="matrix(19,0,0,19,233.9127,226.8947)"></path><path d="M1 0A1 1 0 1 1 1 -0.0001" fill="#5470c6" transform="matrix(19,0,0,19,146.1122,206.2263)"></path><path d="M1 0A1 1 0 1 1 1 -0.0001" fill="#5470c6" transform="matrix(19,0,0,19,105.9204,124.3639)"></path><path d="M1 0A1 1 0 1 1 1 -0.0001" fill="#5470c6" transform="matrix(19,0,0,19,146.7889,43.1707)"></path><path d="M1 0A1 1 0 1 1 1 -0.0001" fill="#5470c6" transform="matrix(19,0,0,19,234.8555,23.1806)"></path><path d="M1 0A1 1 0 1 1 1 -0.0001" fill="#5470c6" transform="matrix(19,0,0,19,305.8857,79.9528)"></path><path d="M-32.4922 -5l64.9844 0l0 33l-64.9844 0Z" fill="rgb(0,0,0)" fill-opacity="0" stroke="#ccc" stroke-width="0" transform="translate(237.5 5)"></path><text dominant-baseline="central" fill="#333" style="font-size:23px;font-family:sans-serif;font-weight:bolder;" text-anchor="middle" transform="translate(237.5 5)" y="11.5">C126</text></g></svg>