<svg baseprofile="full" height="250" style="position:absolute;left:0;top:0;user-select:none" version="1.1" width="475" xmlns="http://www.w3.org/2000/svg" xmlns:xlink="http://www.w3.org/1999/xlink"><rect fill="none" height="250" id="0" width="475" x="0" y="0"></rect><g><path d="M305.9481 170.6845L106.4859 124.9564" fill="none" stroke="#aaa" stroke-opacity="0.5"></path><path d="M233.8446 226.4551L145.8501 206.4761" fill="none" stroke="#aaa" stroke-opacity="0.5"></path><path d="M145.8501 206.4761L106.4859 124.9564" fill="none" stroke="#aaa" stroke-opacity="0.5"></path><path d="M146.1591 44.0116L106.4859 124.9564" fill="none" stroke="#aaa" stroke-opacity="0.5"></path><path d="M304.5392 79.8917L145.8501 206.4761" fill="none" stroke="#aaa" stroke-opacity="0.5"></path><path d="M233.8446 226.4551L106.4859 124.9564" fill="none" stroke="#aaa" stroke-opacity="0.5"></path><path d="M304.5392 79.8917L235.0542 22.5246" fill="none" stroke="#aaa" stroke-opacity="0.5"></path><path d="M305.9481 170.6845L145.8501 206.4761" fill="none" stroke="#aaa" stroke-opacity="0.5"></path><path d="M146.5 44.0116L146.5 206.4761" fill="none" stroke="#aaa" stroke-opacity="0.5"></path><path d="M305.9481 170.6845L233.8446 226.4551" fill="none" stroke="#aaa" stroke-opacity="0.5"></path><path d="M146.1591 44.0116L233.8446 226.4551" fill="none" stroke="#aaa" stroke-opacity="0.5"></path><path d="M145.8501 206.4761L235.0542 22.5246" fill="none" stroke="#aaa" stroke-opacity="0.5"></path><path d="M304.5392 79.8917L106.4859 124.9564" fill="none" stroke="#aaa" stroke-opacity="0.5"></path><path d="M233.8446 226.4551L304.5392 79.8917" fill="none" stroke="#aaa" stroke-opacity="0.5"></path><path d="M233.8446 226.4551L235.0542 22.5246" fill="none" stroke="#aaa" stroke-opacity="0.5"></path><path d="M305.9481 170.6845L304.5392 79.8917" fill="none" stroke="#aaa" stroke-opacity="0.5"></path><path d="M146.1591 44.0116L304.5392 79.8917" fill="none" stroke="#aaa" stroke-opacity="0.5"></path><path d="M235.0542 22.5246L106.4859 124.9564" fill="none" stroke="#aaa" stroke-opacity="0.5"></path><path d="M305.9481 170.6845L146.1591 44.0116" fill="none" stroke="#aaa" stroke-opacity="0.5"></path><path d="M305.9481 170.6845L235.0542 22.5246" fill="none" stroke="#aaa" stroke-opacity="0.5"></path><path d="M146.1591 44.0116L235.0542 22.5246" fill="none" stroke="#aaa" stroke-opacity="0.5"></path><path d="M1 0A1 1 0 1 1 1 -0.0001" fill="#5470c6" transform="matrix(19,0,0,19,305.9481,170.6845)"></path><path d="M1 0A1 1 0 1 1 1 -0.0001" fill="#5470c6" transform="matrix(19,0,0,19,233.8446,226.4551)"></path><path d="M1 0A1 1 0 1 1 1 -0.0001" fill="#5470c6" transform="matrix(19,0,0,19,145.8501,206.4761)"></path><path d="M1 0A1 1 0 1 1 1 -0.0001" fill="#5470c6" transform="matrix(19,0,0,19,106.4859,124.9564)"></path><path d="M1 0A1 1 0 1 1 1 -0.0001" fill="#5470c6" transform="matrix(19,0,0,19,146.1591,44.0116)"></path><path d="M1 0A1 1 0 1 1 1 -0.0001" fill="#5470c6" transform="matrix(19,0,0,19,235.0542,22.5246)"></path><path d="M1 0A1 1 0 1 1 1 -0.0001" fill="#5470c6" transform="matrix(19,0,0,19,304.5392,79.8917)"></path><path d="M-32.4922 -5l64.9844 0l0 33l-64.9844 0Z" fill="rgb(0,0,0)" fill-opacity="0" stroke="#ccc" stroke-width="0" transform="translate(237.5 5)"></path><text dominant-baseline="central" fill="#333" style="font-size:23px;font-family:sans-serif;font-weight:bolder;" text-anchor="middle" transform="translate(237.5 5)" y="11.5">C127</text></g></svg>