<svg baseprofile="full" height="250" style="position:absolute;left:0;top:0;user-select:none" version="1.1" width="475" xmlns="http://www.w3.org/2000/svg" xmlns:xlink="http://www.w3.org/1999/xlink"><rect fill="none" height="250" id="0" width="475" x="0" y="0"></rect><g><path d="M235.484 22.5589L145.5188 206.1501" fill="none" stroke="#aaa" stroke-opacity="0.5"></path><path d="M147.0537 43.1133L145.5188 206.1501" fill="none" stroke="#aaa" stroke-opacity="0.5"></path><path d="M147.0537 43.1133L305.5891 80.7814" fill="none" stroke="#aaa" stroke-opacity="0.5"></path><path d="M305.5891 80.7814L233.2419 227.3071" fill="none" stroke="#aaa" stroke-opacity="0.5"></path><path d="M235.484 22.5589L106.451 123.8361" fill="none" stroke="#aaa" stroke-opacity="0.5"></path><path d="M147.0537 43.1133L106.451 123.8361" fill="none" stroke="#aaa" stroke-opacity="0.5"></path><path d="M305.5891 80.7814L145.5188 206.1501" fill="none" stroke="#aaa" stroke-opacity="0.5"></path><path d="M233.2419 227.3071L145.5188 206.1501" fill="none" stroke="#aaa" stroke-opacity="0.5"></path><path d="M233.2419 227.3071L235.484 22.5589" fill="none" stroke="#aaa" stroke-opacity="0.5"></path><path d="M304.5426 171.2532L233.2419 227.3071" fill="none" stroke="#aaa" stroke-opacity="0.5"></path><path d="M305.5891 80.7814L106.451 123.8361" fill="none" stroke="#aaa" stroke-opacity="0.5"></path><path d="M147.0537 43.1133L235.484 22.5589" fill="none" stroke="#aaa" stroke-opacity="0.5"></path><path d="M233.2419 227.3071L106.451 123.8361" fill="none" stroke="#aaa" stroke-opacity="0.5"></path><path d="M304.5426 171.2532L145.5188 206.1501" fill="none" stroke="#aaa" stroke-opacity="0.5"></path><path d="M145.5188 206.1501L106.451 123.8361" fill="none" stroke="#aaa" stroke-opacity="0.5"></path><path d="M304.5426 171.2532L235.484 22.5589" fill="none" stroke="#aaa" stroke-opacity="0.5"></path><path d="M305.5891 80.7814L304.5426 171.2532" fill="none" stroke="#aaa" stroke-opacity="0.5"></path><path d="M305.5891 80.7814L235.484 22.5589" fill="none" stroke="#aaa" stroke-opacity="0.5"></path><path d="M304.5426 171.2532L106.451 123.8361" fill="none" stroke="#aaa" stroke-opacity="0.5"></path><path d="M147.0537 43.1133L233.2419 227.3071" fill="none" stroke="#aaa" stroke-opacity="0.5"></path><path d="M147.0537 43.1133L304.5426 171.2532" fill="none" stroke="#aaa" stroke-opacity="0.5"></path><path d="M1 0A1 1 0 1 1 1 -0.0001" fill="#5470c6" transform="matrix(19,0,0,19,304.5426,171.2532)"></path><path d="M1 0A1 1 0 1 1 1 -0.0001" fill="#5470c6" transform="matrix(19,0,0,19,233.2419,227.3071)"></path><path d="M1 0A1 1 0 1 1 1 -0.0001" fill="#5470c6" transform="matrix(19,0,0,19,145.5188,206.1501)"></path><path d="M1 0A1 1 0 1 1 1 -0.0001" fill="#5470c6" transform="matrix(19,0,0,19,106.451,123.8361)"></path><path d="M1 0A1 1 0 1 1 1 -0.0001" fill="#5470c6" transform="matrix(19,0,0,19,147.0537,43.1133)"></path><path d="M1 0A1 1 0 1 1 1 -0.0001" fill="#5470c6" transform="matrix(19,0,0,19,235.484,22.5589)"></path><path d="M1 0A1 1 0 1 1 1 -0.0001" fill="#5470c6" transform="matrix(19,0,0,19,305.5891,80.7814)"></path><path d="M-32.4922 -5l64.9844 0l0 33l-64.9844 0Z" fill="rgb(0,0,0)" fill-opacity="0" stroke="#ccc" stroke-width="0" transform="translate(237.5 5)"></path><text dominant-baseline="central" fill="#333" style="font-size:23px;font-family:sans-serif;font-weight:bolder;" text-anchor="middle" transform="translate(237.5 5)" y="11.5">C128</text></g></svg>