<svg baseprofile="full" height="250" style="position:absolute;left:0;top:0;user-select:none" version="1.1" width="475" xmlns="http://www.w3.org/2000/svg" xmlns:xlink="http://www.w3.org/1999/xlink"><rect fill="none" height="250" id="0" width="475" x="0" y="0"></rect><g><path d="M306.988 167.1238L238.0389 225.3499" fill="none" stroke="#aaa" stroke-opacity="0.5"></path><path d="M149.0478 208.9762L143.1783 46.339" fill="none" stroke="#aaa" stroke-opacity="0.5"></path><path d="M106.7065 129.0929L230.732 21.6649" fill="none" stroke="#aaa" stroke-opacity="0.5"></path><path d="M149.0478 208.9762L106.7065 129.0929" fill="none" stroke="#aaa" stroke-opacity="0.5"></path><path d="M303.1895 76.4533L143.1783 46.339" fill="none" stroke="#aaa" stroke-opacity="0.5"></path><path d="M303.1895 76.4533L106.7065 129.0929" fill="none" stroke="#aaa" stroke-opacity="0.5"></path><path d="M143.1783 46.339L106.7065 129.0929" fill="none" stroke="#aaa" stroke-opacity="0.5"></path><path d="M149.0478 208.9762L238.0389 225.3499" fill="none" stroke="#aaa" stroke-opacity="0.5"></path><path d="M303.1895 76.4533L238.0389 225.3499" fill="none" stroke="#aaa" stroke-opacity="0.5"></path><path d="M143.1783 46.339L238.0389 225.3499" fill="none" stroke="#aaa" stroke-opacity="0.5"></path><path d="M149.0478 208.9762L303.1895 76.4533" fill="none" stroke="#aaa" stroke-opacity="0.5"></path><path d="M106.7065 129.0929L238.0389 225.3499" fill="none" stroke="#aaa" stroke-opacity="0.5"></path><path d="M149.0478 208.9762L306.988 167.1238" fill="none" stroke="#aaa" stroke-opacity="0.5"></path><path d="M306.988 167.1238L230.732 21.6649" fill="none" stroke="#aaa" stroke-opacity="0.5"></path><path d="M303.1895 76.4533L306.988 167.1238" fill="none" stroke="#aaa" stroke-opacity="0.5"></path><path d="M143.1783 46.339L306.988 167.1238" fill="none" stroke="#aaa" stroke-opacity="0.5"></path><path d="M306.988 167.1238L106.7065 129.0929" fill="none" stroke="#aaa" stroke-opacity="0.5"></path><path d="M149.0478 208.9762L230.732 21.6649" fill="none" stroke="#aaa" stroke-opacity="0.5"></path><path d="M238.0389 225.3499L230.732 21.6649" fill="none" stroke="#aaa" stroke-opacity="0.5"></path><path d="M303.1895 76.4533L230.732 21.6649" fill="none" stroke="#aaa" stroke-opacity="0.5"></path><path d="M143.1783 46.339L230.732 21.6649" fill="none" stroke="#aaa" stroke-opacity="0.5"></path><path d="M1 0A1 1 0 1 1 1 -0.0001" fill="#5470c6" transform="matrix(19,0,0,19,306.988,167.1238)"></path><path d="M1 0A1 1 0 1 1 1 -0.0001" fill="#5470c6" transform="matrix(19,0,0,19,238.0389,225.3499)"></path><path d="M1 0A1 1 0 1 1 1 -0.0001" fill="#5470c6" transform="matrix(19,0,0,19,149.0478,208.9762)"></path><path d="M1 0A1 1 0 1 1 1 -0.0001" fill="#5470c6" transform="matrix(19,0,0,19,106.7065,129.0929)"></path><path d="M1 0A1 1 0 1 1 1 -0.0001" fill="#5470c6" transform="matrix(19,0,0,19,143.1783,46.339)"></path><path d="M1 0A1 1 0 1 1 1 -0.0001" fill="#5470c6" transform="matrix(19,0,0,19,230.732,21.6649)"></path><path d="M1 0A1 1 0 1 1 1 -0.0001" fill="#5470c6" transform="matrix(19,0,0,19,303.1895,76.4533)"></path><path d="M-32.4922 -5l64.9844 0l0 33l-64.9844 0Z" fill="rgb(0,0,0)" fill-opacity="0" stroke="#ccc" stroke-width="0" transform="translate(237.5 5)"></path><text dominant-baseline="central" fill="#333" style="font-size:23px;font-family:sans-serif;font-weight:bolder;" text-anchor="middle" transform="translate(237.5 5)" y="11.5">C129</text></g></svg>