<svg baseprofile="full" height="250" style="position:absolute;left:0;top:0;user-select:none" version="1.1" width="475" xmlns="http://www.w3.org/2000/svg" xmlns:xlink="http://www.w3.org/1999/xlink"><rect fill="none" height="250" id="0" width="475" x="0" y="0"></rect><g><path d="M271.9624 151.43L216.43 223.2645" fill="none" stroke="#aaa" stroke-opacity="0.5" stroke-width="0.5"></path><path d="M220.5488 179.5363L184.4648 214.8871" fill="none" stroke="#aaa" stroke-opacity="0.5" stroke-width="0.5"></path><path d="M115.923 141.362L149.5057 120.9902" fill="none" stroke="#aaa" stroke-opacity="0.5" stroke-width="0.5"></path><path d="M239.4237 29.4009L274.6128 197.6055" fill="none" stroke="#aaa" stroke-opacity="0.5" stroke-width="0.5"></path><path d="M220.5488 179.5363L193.7886 141.6165" fill="none" stroke="#aaa" stroke-opacity="0.5" stroke-width="0.5"></path><path d="M126.5215 175.1014L297.4371 74.2614" fill="none" stroke="#aaa" stroke-opacity="0.5" stroke-width="0.5"></path><path d="M220.5488 179.5363L115.468 105.11" fill="none" stroke="#aaa" stroke-opacity="0.5" stroke-width="0.5"></path><path d="M184.4648 214.8871L193.7886 141.6165" fill="none" stroke="#aaa" stroke-opacity="0.5" stroke-width="0.5"></path><path d="M166.1614 170.9814L311.6041 129.5796" fill="none" stroke="#aaa" stroke-opacity="0.5" stroke-width="0.5"></path><path d="M152.4758 204.634L198.3299 95.2299" fill="none" stroke="#aaa" stroke-opacity="0.5" stroke-width="0.5"></path><path d="M166.1614 170.9814L238.46 133.173" fill="none" stroke="#aaa" stroke-opacity="0.5" stroke-width="0.5"></path><path d="M184.4648 214.8871L115.468 105.11" fill="none" stroke="#aaa" stroke-opacity="0.5" stroke-width="0.5"></path><path d="M247.7835 211.2673L161.2508 73.0224" fill="none" stroke="#aaa" stroke-opacity="0.5" stroke-width="0.5"></path><path d="M247.7835 211.2673L311.6041 129.5796" fill="none" stroke="#aaa" stroke-opacity="0.5" stroke-width="0.5"></path><path d="M239.4237 29.4009L297.4371 74.2614" fill="none" stroke="#aaa" stroke-opacity="0.5" stroke-width="0.5"></path><path d="M127.4758 68.7942L126.5215 175.1014" fill="none" stroke="#aaa" stroke-opacity="0.5" stroke-width="0.5"></path><path d="M220.5488 179.5363L216.43 223.2645" fill="none" stroke="#aaa" stroke-opacity="0.5" stroke-width="0.5"></path><path d="M163.6616 38.5274L166.1614 170.9814" fill="none" stroke="#aaa" stroke-opacity="0.5" stroke-width="0.5"></path><path d="M126.5215 175.1014L239.4237 29.4009" fill="none" stroke="#aaa" stroke-opacity="0.5" stroke-width="0.5"></path><path d="M184.4648 214.8871L198.1445 26.9746" fill="none" stroke="#aaa" stroke-opacity="0.5" stroke-width="0.5"></path><path d="M288.8024 107.4802L193.7886 141.6165" fill="none" stroke="#aaa" stroke-opacity="0.5" stroke-width="0.5"></path><path d="M271.9624 151.43L300.3357 169.9517" fill="none" stroke="#aaa" stroke-opacity="0.5" stroke-width="0.5"></path><path d="M247.7835 211.2673L115.923 141.362" fill="none" stroke="#aaa" stroke-opacity="0.5" stroke-width="0.5"></path><path d="M126.5215 175.1014L163.6616 38.5274" fill="none" stroke="#aaa" stroke-opacity="0.5" stroke-width="0.5"></path><path d="M152.4758 204.634L288.8024 107.4802" fill="none" stroke="#aaa" stroke-opacity="0.5" stroke-width="0.5"></path><path d="M220.5488 179.5363L152.4758 204.634" fill="none" stroke="#aaa" stroke-opacity="0.5" stroke-width="0.5"></path><path d="M198.1445 26.9746L270.7592 48.7947" fill="none" stroke="#aaa" stroke-opacity="0.5" stroke-width="0.5"></path><path d="M166.1614 170.9814L274.6128 197.6055" fill="none" stroke="#aaa" stroke-opacity="0.5" stroke-width="0.5"></path><path d="M166.1614 170.9814L271.9624 151.43" fill="none" stroke="#aaa" stroke-opacity="0.5" stroke-width="0.5"></path><path d="M247.7835 211.2673L288.8024 107.4802" fill="none" stroke="#aaa" stroke-opacity="0.5" stroke-width="0.5"></path><path d="M270.7592 48.7947L238.46 133.173" fill="none" stroke="#aaa" stroke-opacity="0.5" stroke-width="0.5"></path><path d="M217.1768 58.1442L198.1445 26.9746" fill="none" stroke="#aaa" stroke-opacity="0.5" stroke-width="0.5"></path><path d="M247.7835 211.2673L274.6128 197.6055" fill="none" stroke="#aaa" stroke-opacity="0.5" stroke-width="0.5"></path><path d="M247.7835 211.2673L271.9624 151.43" fill="none" stroke="#aaa" stroke-opacity="0.5" stroke-width="0.5"></path><path d="M300.3357 169.9517L238.46 133.173" fill="none" stroke="#aaa" stroke-opacity="0.5" stroke-width="0.5"></path><path d="M198.3299 95.2299L270.7592 48.7947" fill="none" stroke="#aaa" stroke-opacity="0.5" stroke-width="0.5"></path><path d="M184.4648 214.8871L152.4758 204.634" fill="none" stroke="#aaa" stroke-opacity="0.5" stroke-width="0.5"></path><path d="M184.4648 214.8871L270.7592 48.7947" fill="none" stroke="#aaa" stroke-opacity="0.5" stroke-width="0.5"></path><path d="M115.923 141.5L193.7886 141.5" fill="none" stroke="#aaa" stroke-opacity="0.5" stroke-width="0.5"></path><path d="M126.5215 175.1014L149.5057 120.9902" fill="none" stroke="#aaa" stroke-opacity="0.5" stroke-width="0.5"></path><path d="M115.923 141.362L115.468 105.11" fill="none" stroke="#aaa" stroke-opacity="0.5" stroke-width="0.5"></path><path d="M288.8024 107.4802L216.43 223.2645" fill="none" stroke="#aaa" stroke-opacity="0.5" stroke-width="0.5"></path><path d="M193.7886 141.6165L274.6128 197.6055" fill="none" stroke="#aaa" stroke-opacity="0.5" stroke-width="0.5"></path><path d="M217.1768 58.1442L152.4758 204.634" fill="none" stroke="#aaa" stroke-opacity="0.5" stroke-width="0.5"></path><path d="M270.7592 48.7947L274.6128 197.6055" fill="none" stroke="#aaa" stroke-opacity="0.5" stroke-width="0.5"></path><path d="M271.9624 151.43L238.46 133.173" fill="none" stroke="#aaa" stroke-opacity="0.5" stroke-width="0.5"></path><path d="M198.1445 26.9746L251.8908 83.8797" fill="none" stroke="#aaa" stroke-opacity="0.5" stroke-width="0.5"></path><path d="M152.4758 204.634L297.4371 74.2614" fill="none" stroke="#aaa" stroke-opacity="0.5" stroke-width="0.5"></path><path d="M217.1768 58.1442L270.7592 48.7947" fill="none" stroke="#aaa" stroke-opacity="0.5" stroke-width="0.5"></path><path d="M220.5488 179.5363L300.3357 169.9517" fill="none" stroke="#aaa" stroke-opacity="0.5" stroke-width="0.5"></path><path d="M311.6041 129.5796L274.6128 197.6055" fill="none" stroke="#aaa" stroke-opacity="0.5" stroke-width="0.5"></path><path d="M311.6041 129.5796L271.9624 151.43" fill="none" stroke="#aaa" stroke-opacity="0.5" stroke-width="0.5"></path><path d="M247.7835 211.2673L297.4371 74.2614" fill="none" stroke="#aaa" stroke-opacity="0.5" stroke-width="0.5"></path><path d="M288.8024 107.4802L251.8908 83.8797" fill="none" stroke="#aaa" stroke-opacity="0.5" stroke-width="0.5"></path><path d="M115.923 141.362L198.1445 26.9746" fill="none" stroke="#aaa" stroke-opacity="0.5" stroke-width="0.5"></path><path d="M198.3299 95.2299L251.8908 83.8797" fill="none" stroke="#aaa" stroke-opacity="0.5" stroke-width="0.5"></path><path d="M216.43 223.2645L274.6128 197.6055" fill="none" stroke="#aaa" stroke-opacity="0.5" stroke-width="0.5"></path><path d="M127.4758 68.7942L216.43 223.2645" fill="none" stroke="#aaa" stroke-opacity="0.5" stroke-width="0.5"></path><path d="M161.2508 73.0224L270.7592 48.7947" fill="none" stroke="#aaa" stroke-opacity="0.5" stroke-width="0.5"></path><path d="M193.7886 141.6165L297.4371 74.2614" fill="none" stroke="#aaa" stroke-opacity="0.5" stroke-width="0.5"></path><path d="M270.7592 48.7947L297.4371 74.2614" fill="none" stroke="#aaa" stroke-opacity="0.5" stroke-width="0.5"></path><path d="M220.5488 179.5363L311.6041 129.5796" fill="none" stroke="#aaa" stroke-opacity="0.5" stroke-width="0.5"></path><path d="M217.1768 58.1442L251.8908 83.8797" fill="none" stroke="#aaa" stroke-opacity="0.5" stroke-width="0.5"></path><path d="M311.6041 129.5796L297.4371 74.2614" fill="none" stroke="#aaa" stroke-opacity="0.5" stroke-width="0.5"></path><path d="M166.1614 170.9814L239.4237 29.4009" fill="none" stroke="#aaa" stroke-opacity="0.5" stroke-width="0.5"></path><path d="M127.4758 68.7942L251.8908 83.8797" fill="none" stroke="#aaa" stroke-opacity="0.5" stroke-width="0.5"></path><path d="M115.923 141.362L270.7592 48.7947" fill="none" stroke="#aaa" stroke-opacity="0.5" stroke-width="0.5"></path><path d="M220.5488 179.5363L238.46 133.173" fill="none" stroke="#aaa" stroke-opacity="0.5" stroke-width="0.5"></path><path d="M161.2508 73.0224L216.43 223.2645" fill="none" stroke="#aaa" stroke-opacity="0.5" stroke-width="0.5"></path><path d="M152.4758 204.634L163.6616 38.5274" fill="none" stroke="#aaa" stroke-opacity="0.5" stroke-width="0.5"></path><path d="M247.7835 211.2673L239.4237 29.4009" fill="none" stroke="#aaa" stroke-opacity="0.5" stroke-width="0.5"></path><path d="M288.8024 107.4802L300.3357 169.9517" fill="none" stroke="#aaa" stroke-opacity="0.5" stroke-width="0.5"></path><path d="M247.7835 211.2673L163.6616 38.5274" fill="none" stroke="#aaa" stroke-opacity="0.5" stroke-width="0.5"></path><path d="M216.43 223.2645L297.4371 74.2614" fill="none" stroke="#aaa" stroke-opacity="0.5" stroke-width="0.5"></path><path d="M161.2508 73.0224L251.8908 83.8797" fill="none" stroke="#aaa" stroke-opacity="0.5" stroke-width="0.5"></path><path d="M126.5215 175.1014L193.7886 141.6165" fill="none" stroke="#aaa" stroke-opacity="0.5" stroke-width="0.5"></path><path d="M238.46 133.173L193.7886 141.6165" fill="none" stroke="#aaa" stroke-opacity="0.5" stroke-width="0.5"></path><path d="M220.5488 179.5363L198.3299 95.2299" fill="none" stroke="#aaa" stroke-opacity="0.5" stroke-width="0.5"></path><path d="M127.4758 68.7942L300.3357 169.9517" fill="none" stroke="#aaa" stroke-opacity="0.5" stroke-width="0.5"></path><path d="M126.5215 175.1014L115.468 105.11" fill="none" stroke="#aaa" stroke-opacity="0.5" stroke-width="0.5"></path><path d="M311.6041 129.5796L239.4237 29.4009" fill="none" stroke="#aaa" stroke-opacity="0.5" stroke-width="0.5"></path><path d="M238.46 133.173L115.468 105.11" fill="none" stroke="#aaa" stroke-opacity="0.5" stroke-width="0.5"></path><path d="M288.8024 107.4802L311.6041 129.5796" fill="none" stroke="#aaa" stroke-opacity="0.5" stroke-width="0.5"></path><path d="M247.7835 211.2673L149.5057 120.9902" fill="none" stroke="#aaa" stroke-opacity="0.5" stroke-width="0.5"></path><path d="M288.8024 107.4802L238.46 133.173" fill="none" stroke="#aaa" stroke-opacity="0.5" stroke-width="0.5"></path><path d="M184.4648 214.8871L198.3299 95.2299" fill="none" stroke="#aaa" stroke-opacity="0.5" stroke-width="0.5"></path><path d="M149.5057 120.9902L216.43 223.2645" fill="none" stroke="#aaa" stroke-opacity="0.5" stroke-width="0.5"></path><path d="M198.1445 26.9746L288.8024 107.4802" fill="none" stroke="#aaa" stroke-opacity="0.5" stroke-width="0.5"></path><path d="M239.4237 29.4009L193.7886 141.6165" fill="none" stroke="#aaa" stroke-opacity="0.5" stroke-width="0.5"></path><path d="M217.1768 58.1442L161.2508 73.0224" fill="none" stroke="#aaa" stroke-opacity="0.5" stroke-width="0.5"></path><path d="M198.1445 26.9746L274.6128 197.6055" fill="none" stroke="#aaa" stroke-opacity="0.5" stroke-width="0.5"></path><path d="M239.4237 29.4009L115.468 105.11" fill="none" stroke="#aaa" stroke-opacity="0.5" stroke-width="0.5"></path><path d="M198.1445 26.9746L271.9624 151.43" fill="none" stroke="#aaa" stroke-opacity="0.5" stroke-width="0.5"></path><path d="M126.5215 175.1014L216.43 223.2645" fill="none" stroke="#aaa" stroke-opacity="0.5" stroke-width="0.5"></path><path d="M149.5057 120.9902L251.8908 83.8797" fill="none" stroke="#aaa" stroke-opacity="0.5" stroke-width="0.5"></path><path d="M127.4758 68.7942L161.2508 73.0224" fill="none" stroke="#aaa" stroke-opacity="0.5" stroke-width="0.5"></path><path d="M217.1768 58.1442L198.3299 95.2299" fill="none" stroke="#aaa" stroke-opacity="0.5" stroke-width="0.5"></path><path d="M127.4758 68.7942L311.6041 129.5796" fill="none" stroke="#aaa" stroke-opacity="0.5" stroke-width="0.5"></path><path d="M288.8024 107.4802L274.6128 197.6055" fill="none" stroke="#aaa" stroke-opacity="0.5" stroke-width="0.5"></path><path d="M288.8024 107.4802L271.9624 151.43" fill="none" stroke="#aaa" stroke-opacity="0.5" stroke-width="0.5"></path><path d="M127.4758 68.7942L238.46 133.173" fill="none" stroke="#aaa" stroke-opacity="0.5" stroke-width="0.5"></path><path d="M152.4758 204.634L126.5215 175.1014" fill="none" stroke="#aaa" stroke-opacity="0.5" stroke-width="0.5"></path><path d="M184.4648 214.8871L288.8024 107.4802" fill="none" stroke="#aaa" stroke-opacity="0.5" stroke-width="0.5"></path><path d="M220.5488 179.5363L217.1768 58.1442" fill="none" stroke="#aaa" stroke-opacity="0.5" stroke-width="0.5"></path><path d="M220.5488 179.5363L166.1614 170.9814" fill="none" stroke="#aaa" stroke-opacity="0.5" stroke-width="0.5"></path><path d="M198.3299 95.2299L271.9624 151.43" fill="none" stroke="#aaa" stroke-opacity="0.5" stroke-width="0.5"></path><path d="M247.7835 211.2673L126.5215 175.1014" fill="none" stroke="#aaa" stroke-opacity="0.5" stroke-width="0.5"></path><path d="M251.8908 83.8797L270.7592 48.7947" fill="none" stroke="#aaa" stroke-opacity="0.5" stroke-width="0.5"></path><path d="M127.4758 68.7942L115.923 141.362" fill="none" stroke="#aaa" stroke-opacity="0.5" stroke-width="0.5"></path><path d="M161.2508 73.0224L311.6041 129.5796" fill="none" stroke="#aaa" stroke-opacity="0.5" stroke-width="0.5"></path><path d="M217.1768 58.1442L288.8024 107.4802" fill="none" stroke="#aaa" stroke-opacity="0.5" stroke-width="0.5"></path><path d="M239.4237 29.4009L216.43 223.2645" fill="none" stroke="#aaa" stroke-opacity="0.5" stroke-width="0.5"></path><path d="M198.1445 26.9746L297.4371 74.2614" fill="none" stroke="#aaa" stroke-opacity="0.5" stroke-width="0.5"></path><path d="M184.4648 214.8871L166.1614 170.9814" fill="none" stroke="#aaa" stroke-opacity="0.5" stroke-width="0.5"></path><path d="M161.2508 73.0224L238.46 133.173" fill="none" stroke="#aaa" stroke-opacity="0.5" stroke-width="0.5"></path><path d="M217.1768 58.1442L274.6128 197.6055" fill="none" stroke="#aaa" stroke-opacity="0.5" stroke-width="0.5"></path><path d="M163.6616 38.5274L270.7592 48.7947" fill="none" stroke="#aaa" stroke-opacity="0.5" stroke-width="0.5"></path><path d="M217.1768 58.1442L271.9624 151.43" fill="none" stroke="#aaa" stroke-opacity="0.5" stroke-width="0.5"></path><path d="M127.4758 68.7942L274.6128 197.6055" fill="none" stroke="#aaa" stroke-opacity="0.5" stroke-width="0.5"></path><path d="M127.4758 68.7942L271.9624 151.43" fill="none" stroke="#aaa" stroke-opacity="0.5" stroke-width="0.5"></path><path d="M149.5057 120.9902L300.3357 169.9517" fill="none" stroke="#aaa" stroke-opacity="0.5" stroke-width="0.5"></path><path d="M115.923 141.362L198.3299 95.2299" fill="none" stroke="#aaa" stroke-opacity="0.5" stroke-width="0.5"></path><path d="M198.3299 95.2299L297.4371 74.2614" fill="none" stroke="#aaa" stroke-opacity="0.5" stroke-width="0.5"></path><path d="M247.7835 211.2673L184.4648 214.8871" fill="none" stroke="#aaa" stroke-opacity="0.5" stroke-width="0.5"></path><path d="M152.4758 204.634L193.7886 141.6165" fill="none" stroke="#aaa" stroke-opacity="0.5" stroke-width="0.5"></path><path d="M184.4648 214.8871L297.4371 74.2614" fill="none" stroke="#aaa" stroke-opacity="0.5" stroke-width="0.5"></path><path d="M166.1614 170.9814L115.468 105.11" fill="none" stroke="#aaa" stroke-opacity="0.5" stroke-width="0.5"></path><path d="M126.5215 175.1014L300.3357 169.9517" fill="none" stroke="#aaa" stroke-opacity="0.5" stroke-width="0.5"></path><path d="M247.7835 211.2673L193.7886 141.6165" fill="none" stroke="#aaa" stroke-opacity="0.5" stroke-width="0.5"></path><path d="M288.8024 107.4802L166.1614 170.9814" fill="none" stroke="#aaa" stroke-opacity="0.5" stroke-width="0.5"></path><path d="M161.2508 73.0224L274.6128 197.6055" fill="none" stroke="#aaa" stroke-opacity="0.5" stroke-width="0.5"></path><path d="M161.2508 73.0224L271.9624 151.43" fill="none" stroke="#aaa" stroke-opacity="0.5" stroke-width="0.5"></path><path d="M247.7835 211.2673L115.468 105.11" fill="none" stroke="#aaa" stroke-opacity="0.5" stroke-width="0.5"></path><path d="M217.1768 58.1442L297.4371 74.2614" fill="none" stroke="#aaa" stroke-opacity="0.5" stroke-width="0.5"></path><path d="M115.923 141.362L288.8024 107.4802" fill="none" stroke="#aaa" stroke-opacity="0.5" stroke-width="0.5"></path><path d="M163.6616 38.5274L251.8908 83.8797" fill="none" stroke="#aaa" stroke-opacity="0.5" stroke-width="0.5"></path><path d="M198.1445 26.9746L239.4237 29.4009" fill="none" stroke="#aaa" stroke-opacity="0.5" stroke-width="0.5"></path><path d="M149.5057 120.9902L311.6041 129.5796" fill="none" stroke="#aaa" stroke-opacity="0.5" stroke-width="0.5"></path><path d="M198.1445 26.9746L163.6616 38.5274" fill="none" stroke="#aaa" stroke-opacity="0.5" stroke-width="0.5"></path><path d="M270.7592 48.7947L193.7886 141.6165" fill="none" stroke="#aaa" stroke-opacity="0.5" stroke-width="0.5"></path><path d="M149.5057 120.9902L238.46 133.173" fill="none" stroke="#aaa" stroke-opacity="0.5" stroke-width="0.5"></path><path d="M288.8024 107.4802L239.4237 29.4009" fill="none" stroke="#aaa" stroke-opacity="0.5" stroke-width="0.5"></path><path d="M239.4237 29.4009L300.3357 169.9517" fill="none" stroke="#aaa" stroke-opacity="0.5" stroke-width="0.5"></path><path d="M193.7886 141.6165L115.468 105.11" fill="none" stroke="#aaa" stroke-opacity="0.5" stroke-width="0.5"></path><path d="M311.6041 129.5796L193.7886 141.6165" fill="none" stroke="#aaa" stroke-opacity="0.5" stroke-width="0.5"></path><path d="M126.5215 175.1014L311.6041 129.5796" fill="none" stroke="#aaa" stroke-opacity="0.5" stroke-width="0.5"></path><path d="M270.7592 48.7947L115.468 105.11" fill="none" stroke="#aaa" stroke-opacity="0.5" stroke-width="0.5"></path><path d="M198.3299 95.2299L239.4237 29.4009" fill="none" stroke="#aaa" stroke-opacity="0.5" stroke-width="0.5"></path><path d="M115.923 141.362L166.1614 170.9814" fill="none" stroke="#aaa" stroke-opacity="0.5" stroke-width="0.5"></path><path d="M152.4758 204.634L216.43 223.2645" fill="none" stroke="#aaa" stroke-opacity="0.5" stroke-width="0.5"></path><path d="M161.2508 73.0224L297.4371 74.2614" fill="none" stroke="#aaa" stroke-opacity="0.5" stroke-width="0.5"></path><path d="M247.7835 211.2673L216.43 223.2645" fill="none" stroke="#aaa" stroke-opacity="0.5" stroke-width="0.5"></path><path d="M311.6041 129.5796L115.468 105.11" fill="none" stroke="#aaa" stroke-opacity="0.5" stroke-width="0.5"></path><path d="M126.5215 175.1014L238.46 133.173" fill="none" stroke="#aaa" stroke-opacity="0.5" stroke-width="0.5"></path><path d="M184.4648 214.8871L163.6616 38.5274" fill="none" stroke="#aaa" stroke-opacity="0.5" stroke-width="0.5"></path><path d="M166.1614 170.9814L270.7592 48.7947" fill="none" stroke="#aaa" stroke-opacity="0.5" stroke-width="0.5"></path><path d="M152.4758 204.634L251.8908 83.8797" fill="none" stroke="#aaa" stroke-opacity="0.5" stroke-width="0.5"></path><path d="M216.43 223.2645L193.7886 141.6165" fill="none" stroke="#aaa" stroke-opacity="0.5" stroke-width="0.5"></path><path d="M115.923 141.362L297.4371 74.2614" fill="none" stroke="#aaa" stroke-opacity="0.5" stroke-width="0.5"></path><path d="M247.7835 211.2673L152.4758 204.634" fill="none" stroke="#aaa" stroke-opacity="0.5" stroke-width="0.5"></path><path d="M149.5057 120.9902L274.6128 197.6055" fill="none" stroke="#aaa" stroke-opacity="0.5" stroke-width="0.5"></path><path d="M198.1445 26.9746L149.5057 120.9902" fill="none" stroke="#aaa" stroke-opacity="0.5" stroke-width="0.5"></path><path d="M149.5057 120.9902L271.9624 151.43" fill="none" stroke="#aaa" stroke-opacity="0.5" stroke-width="0.5"></path><path d="M217.1768 58.1442L239.4237 29.4009" fill="none" stroke="#aaa" stroke-opacity="0.5" stroke-width="0.5"></path><path d="M216.43 223.2645L115.468 105.11" fill="none" stroke="#aaa" stroke-opacity="0.5" stroke-width="0.5"></path><path d="M127.4758 68.7942L239.4237 29.4009" fill="none" stroke="#aaa" stroke-opacity="0.5" stroke-width="0.5"></path><path d="M217.1768 58.1442L163.6616 38.5274" fill="none" stroke="#aaa" stroke-opacity="0.5" stroke-width="0.5"></path><path d="M288.8024 107.4802L149.5057 120.9902" fill="none" stroke="#aaa" stroke-opacity="0.5" stroke-width="0.5"></path><path d="M239.4237 29.4009L238.46 133.173" fill="none" stroke="#aaa" stroke-opacity="0.5" stroke-width="0.5"></path><path d="M311.6041 129.5796L216.43 223.2645" fill="none" stroke="#aaa" stroke-opacity="0.5" stroke-width="0.5"></path><path d="M152.4758 204.634L127.4758 68.7942" fill="none" stroke="#aaa" stroke-opacity="0.5" stroke-width="0.5"></path><path d="M126.5215 175.1014L198.3299 95.2299" fill="none" stroke="#aaa" stroke-opacity="0.5" stroke-width="0.5"></path><path d="M161.2508 73.0224L239.4237 29.4009" fill="none" stroke="#aaa" stroke-opacity="0.5" stroke-width="0.5"></path><path d="M300.3357 169.9517L270.7592 48.7947" fill="none" stroke="#aaa" stroke-opacity="0.5" stroke-width="0.5"></path><path d="M152.4758 204.634L300.3357 169.9517" fill="none" stroke="#aaa" stroke-opacity="0.5" stroke-width="0.5"></path><path d="M217.1768 58.1442L149.5057 120.9902" fill="none" stroke="#aaa" stroke-opacity="0.5" stroke-width="0.5"></path><path d="M163.6616 38.5274L198.3299 95.2299" fill="none" stroke="#aaa" stroke-opacity="0.5" stroke-width="0.5"></path><path d="M247.7835 211.2673L300.3357 169.9517" fill="none" stroke="#aaa" stroke-opacity="0.5" stroke-width="0.5"></path><path d="M127.4758 68.7942L149.5057 120.9902" fill="none" stroke="#aaa" stroke-opacity="0.5" stroke-width="0.5"></path><path d="M115.923 141.362L163.6616 38.5274" fill="none" stroke="#aaa" stroke-opacity="0.5" stroke-width="0.5"></path><path d="M251.8908 83.8797L274.6128 197.6055" fill="none" stroke="#aaa" stroke-opacity="0.5" stroke-width="0.5"></path><path d="M271.9624 151.43L270.7592 48.7947" fill="none" stroke="#aaa" stroke-opacity="0.5" stroke-width="0.5"></path><path d="M184.4648 214.8871L126.5215 175.1014" fill="none" stroke="#aaa" stroke-opacity="0.5" stroke-width="0.5"></path><path d="M161.2508 73.0224L149.5057 120.9902" fill="none" stroke="#aaa" stroke-opacity="0.5" stroke-width="0.5"></path><path d="M152.4758 204.634L161.2508 73.0224" fill="none" stroke="#aaa" stroke-opacity="0.5" stroke-width="0.5"></path><path d="M126.5215 175.1014L166.1614 170.9814" fill="none" stroke="#aaa" stroke-opacity="0.5" stroke-width="0.5"></path><path d="M152.4758 204.634L311.6041 129.5796" fill="none" stroke="#aaa" stroke-opacity="0.5" stroke-width="0.5"></path><path d="M311.6041 129.5796L300.3357 169.9517" fill="none" stroke="#aaa" stroke-opacity="0.5" stroke-width="0.5"></path><path d="M163.6616 38.5274L274.6128 197.6055" fill="none" stroke="#aaa" stroke-opacity="0.5" stroke-width="0.5"></path><path d="M220.5488 179.5363L198.1445 26.9746" fill="none" stroke="#aaa" stroke-opacity="0.5" stroke-width="0.5"></path><path d="M163.6616 38.5274L271.9624 151.43" fill="none" stroke="#aaa" stroke-opacity="0.5" stroke-width="0.5"></path><path d="M152.4758 204.634L238.46 133.173" fill="none" stroke="#aaa" stroke-opacity="0.5" stroke-width="0.5"></path><path d="M149.5057 120.9902L239.4237 29.4009" fill="none" stroke="#aaa" stroke-opacity="0.5" stroke-width="0.5"></path><path d="M217.1768 58.1442L126.5215 175.1014" fill="none" stroke="#aaa" stroke-opacity="0.5" stroke-width="0.5"></path><path d="M247.7835 211.2673L238.46 133.173" fill="none" stroke="#aaa" stroke-opacity="0.5" stroke-width="0.5"></path><path d="M198.1445 26.9746L193.7886 141.6165" fill="none" stroke="#aaa" stroke-opacity="0.5" stroke-width="0.5"></path><path d="M238.46 133.173L297.4371 74.2614" fill="none" stroke="#aaa" stroke-opacity="0.5" stroke-width="0.5"></path><path d="M251.8908 83.8797L297.4371 74.2614" fill="none" stroke="#aaa" stroke-opacity="0.5" stroke-width="0.5"></path><path d="M152.4758 204.634L115.923 141.362" fill="none" stroke="#aaa" stroke-opacity="0.5" stroke-width="0.5"></path><path d="M198.1445 26.9746L115.468 105.11" fill="none" stroke="#aaa" stroke-opacity="0.5" stroke-width="0.5"></path><path d="M271.9624 151.43L251.8908 83.8797" fill="none" stroke="#aaa" stroke-opacity="0.5" stroke-width="0.5"></path><path d="M198.3299 95.2299L193.7886 141.6165" fill="none" stroke="#aaa" stroke-opacity="0.5" stroke-width="0.5"></path><path d="M288.8024 107.4802L115.468 105.11" fill="none" stroke="#aaa" stroke-opacity="0.5" stroke-width="0.5"></path><path d="M220.5488 179.5363L270.7592 48.7947" fill="none" stroke="#aaa" stroke-opacity="0.5" stroke-width="0.5"></path><path d="M152.4758 204.634L274.6128 197.6055" fill="none" stroke="#aaa" stroke-opacity="0.5" stroke-width="0.5"></path><path d="M163.6616 38.5274L297.4371 74.2614" fill="none" stroke="#aaa" stroke-opacity="0.5" stroke-width="0.5"></path><path d="M198.3299 95.2299L115.468 105.11" fill="none" stroke="#aaa" stroke-opacity="0.5" stroke-width="0.5"></path><path d="M152.4758 204.634L271.9624 151.43" fill="none" stroke="#aaa" stroke-opacity="0.5" stroke-width="0.5"></path><path d="M166.1614 170.9814L198.3299 95.2299" fill="none" stroke="#aaa" stroke-opacity="0.5" stroke-width="0.5"></path><path d="M311.6041 129.5796L238.46 133.173" fill="none" stroke="#aaa" stroke-opacity="0.5" stroke-width="0.5"></path><path d="M217.1768 58.1442L184.4648 214.8871" fill="none" stroke="#aaa" stroke-opacity="0.5" stroke-width="0.5"></path><path d="M247.7835 211.2673L198.3299 95.2299" fill="none" stroke="#aaa" stroke-opacity="0.5" stroke-width="0.5"></path><path d="M217.1768 58.1442L193.7886 141.6165" fill="none" stroke="#aaa" stroke-opacity="0.5" stroke-width="0.5"></path><path d="M198.1445 26.9746L216.43 223.2645" fill="none" stroke="#aaa" stroke-opacity="0.5" stroke-width="0.5"></path><path d="M127.4758 68.7942L193.7886 141.6165" fill="none" stroke="#aaa" stroke-opacity="0.5" stroke-width="0.5"></path><path d="M220.5488 179.5363L247.7835 211.2673" fill="none" stroke="#aaa" stroke-opacity="0.5" stroke-width="0.5"></path><path d="M274.6128 197.6055L297.4371 74.2614" fill="none" stroke="#aaa" stroke-opacity="0.5" stroke-width="0.5"></path><path d="M217.1768 58.1442L115.468 105.11" fill="none" stroke="#aaa" stroke-opacity="0.5" stroke-width="0.5"></path><path d="M216.43 223.2645L238.46 133.173" fill="none" stroke="#aaa" stroke-opacity="0.5" stroke-width="0.5"></path><path d="M127.4758 68.7942L115.468 105.11" fill="none" stroke="#aaa" stroke-opacity="0.5" stroke-width="0.5"></path><path d="M251.8908 83.8797L239.4237 29.4009" fill="none" stroke="#aaa" stroke-opacity="0.5" stroke-width="0.5"></path><path d="M198.3299 95.2299L216.43 223.2645" fill="none" stroke="#aaa" stroke-opacity="0.5" stroke-width="0.5"></path><path d="M220.5488 179.5363L251.8908 83.8797" fill="none" stroke="#aaa" stroke-opacity="0.5" stroke-width="0.5"></path><path d="M184.4648 214.8871L216.43 223.2645" fill="none" stroke="#aaa" stroke-opacity="0.5" stroke-width="0.5"></path><path d="M161.2508 73.0224L193.7886 141.6165" fill="none" stroke="#aaa" stroke-opacity="0.5" stroke-width="0.5"></path><path d="M311.6041 129.5796L198.3299 95.2299" fill="none" stroke="#aaa" stroke-opacity="0.5" stroke-width="0.5"></path><path d="M163.6616 38.5274L239.4237 29.4009" fill="none" stroke="#aaa" stroke-opacity="0.5" stroke-width="0.5"></path><path d="M288.8024 107.4802L270.7592 48.7947" fill="none" stroke="#aaa" stroke-opacity="0.5" stroke-width="0.5"></path><path d="M127.4758 68.7942L198.1445 26.9746" fill="none" stroke="#aaa" stroke-opacity="0.5" stroke-width="0.5"></path><path d="M161.2508 73.0224L115.468 105.11" fill="none" stroke="#aaa" stroke-opacity="0.5" stroke-width="0.5"></path><path d="M184.4648 214.8871L251.8908 83.8797" fill="none" stroke="#aaa" stroke-opacity="0.5" stroke-width="0.5"></path><path d="M152.4758 204.634L166.1614 170.9814" fill="none" stroke="#aaa" stroke-opacity="0.5" stroke-width="0.5"></path><path d="M217.1768 58.1442L216.43 223.2645" fill="none" stroke="#aaa" stroke-opacity="0.5" stroke-width="0.5"></path><path d="M217.1768 58.1442L247.7835 211.2673" fill="none" stroke="#aaa" stroke-opacity="0.5" stroke-width="0.5"></path><path d="M247.7835 211.2673L166.1614 170.9814" fill="none" stroke="#aaa" stroke-opacity="0.5" stroke-width="0.5"></path><path d="M220.5488 179.5363L127.4758 68.7942" fill="none" stroke="#aaa" stroke-opacity="0.5" stroke-width="0.5"></path><path d="M166.1614 170.9814L297.4371 74.2614" fill="none" stroke="#aaa" stroke-opacity="0.5" stroke-width="0.5"></path><path d="M161.2508 73.0224L198.1445 26.9746" fill="none" stroke="#aaa" stroke-opacity="0.5" stroke-width="0.5"></path><path d="M198.1445 26.9746L300.3357 169.9517" fill="none" stroke="#aaa" stroke-opacity="0.5" stroke-width="0.5"></path><path d="M127.4758 68.7942L270.7592 48.7947" fill="none" stroke="#aaa" stroke-opacity="0.5" stroke-width="0.5"></path><path d="M300.3357 169.9517L274.6128 197.6055" fill="none" stroke="#aaa" stroke-opacity="0.5" stroke-width="0.5"></path><path d="M184.4648 214.8871L127.4758 68.7942" fill="none" stroke="#aaa" stroke-opacity="0.5" stroke-width="0.5"></path><path d="M152.4758 204.634L239.4237 29.4009" fill="none" stroke="#aaa" stroke-opacity="0.5" stroke-width="0.5"></path><path d="M163.6616 38.5274L149.5057 120.9902" fill="none" stroke="#aaa" stroke-opacity="0.5" stroke-width="0.5"></path><path d="M198.3299 95.2299L300.3357 169.9517" fill="none" stroke="#aaa" stroke-opacity="0.5" stroke-width="0.5"></path><path d="M149.5057 120.9902L193.7886 141.6165" fill="none" stroke="#aaa" stroke-opacity="0.5" stroke-width="0.5"></path><path d="M184.4648 214.8871L300.3357 169.9517" fill="none" stroke="#aaa" stroke-opacity="0.5" stroke-width="0.5"></path><path d="M217.1768 58.1442L127.4758 68.7942" fill="none" stroke="#aaa" stroke-opacity="0.5" stroke-width="0.5"></path><path d="M115.923 141.362L216.43 223.2645" fill="none" stroke="#aaa" stroke-opacity="0.5" stroke-width="0.5"></path><path d="M149.5057 120.9902L115.468 105.11" fill="none" stroke="#aaa" stroke-opacity="0.5" stroke-width="0.5"></path><path d="M271.9624 151.43L274.6128 197.6055" fill="none" stroke="#aaa" stroke-opacity="0.5" stroke-width="0.5"></path><path d="M198.1445 26.9746L311.6041 129.5796" fill="none" stroke="#aaa" stroke-opacity="0.5" stroke-width="0.5"></path><path d="M220.5488 179.5363L161.2508 73.0224" fill="none" stroke="#aaa" stroke-opacity="0.5" stroke-width="0.5"></path><path d="M300.3357 169.9517L297.4371 74.2614" fill="none" stroke="#aaa" stroke-opacity="0.5" stroke-width="0.5"></path><path d="M217.1768 58.1442L300.3357 169.9517" fill="none" stroke="#aaa" stroke-opacity="0.5" stroke-width="0.5"></path><path d="M115.923 141.362L251.8908 83.8797" fill="none" stroke="#aaa" stroke-opacity="0.5" stroke-width="0.5"></path><path d="M198.1445 26.9746L238.46 133.173" fill="none" stroke="#aaa" stroke-opacity="0.5" stroke-width="0.5"></path><path d="M152.4758 204.634L149.5057 120.9902" fill="none" stroke="#aaa" stroke-opacity="0.5" stroke-width="0.5"></path><path d="M184.4648 214.8871L161.2508 73.0224" fill="none" stroke="#aaa" stroke-opacity="0.5" stroke-width="0.5"></path><path d="M184.4648 214.8871L311.6041 129.5796" fill="none" stroke="#aaa" stroke-opacity="0.5" stroke-width="0.5"></path><path d="M198.3299 95.2299L238.46 133.173" fill="none" stroke="#aaa" stroke-opacity="0.5" stroke-width="0.5"></path><path d="M220.5488 179.5363L115.923 141.362" fill="none" stroke="#aaa" stroke-opacity="0.5" stroke-width="0.5"></path><path d="M271.9624 151.43L297.4371 74.2614" fill="none" stroke="#aaa" stroke-opacity="0.5" stroke-width="0.5"></path><path d="M126.5215 175.1014L198.1445 26.9746" fill="none" stroke="#aaa" stroke-opacity="0.5" stroke-width="0.5"></path><path d="M184.4648 214.8871L238.46 133.173" fill="none" stroke="#aaa" stroke-opacity="0.5" stroke-width="0.5"></path><path d="M161.2508 73.0224L300.3357 169.9517" fill="none" stroke="#aaa" stroke-opacity="0.5" stroke-width="0.5"></path><path d="M220.5488 179.5363L288.8024 107.4802" fill="none" stroke="#aaa" stroke-opacity="0.5" stroke-width="0.5"></path><path d="M217.1768 58.1442L311.6041 129.5796" fill="none" stroke="#aaa" stroke-opacity="0.5" stroke-width="0.5"></path><path d="M220.5488 179.5363L274.6128 197.6055" fill="none" stroke="#aaa" stroke-opacity="0.5" stroke-width="0.5"></path><path d="M220.5488 179.5363L271.9624 151.43" fill="none" stroke="#aaa" stroke-opacity="0.5" stroke-width="0.5"></path><path d="M251.8908 83.8797L193.7886 141.6165" fill="none" stroke="#aaa" stroke-opacity="0.5" stroke-width="0.5"></path><path d="M184.4648 214.8871L115.923 141.362" fill="none" stroke="#aaa" stroke-opacity="0.5" stroke-width="0.5"></path><path d="M149.5057 120.9902L270.7592 48.7947" fill="none" stroke="#aaa" stroke-opacity="0.5" stroke-width="0.5"></path><path d="M198.1445 26.9746L198.3299 95.2299" fill="none" stroke="#aaa" stroke-opacity="0.5" stroke-width="0.5"></path><path d="M115.923 141.362L300.3357 169.9517" fill="none" stroke="#aaa" stroke-opacity="0.5" stroke-width="0.5"></path><path d="M217.1768 58.1442L238.46 133.173" fill="none" stroke="#aaa" stroke-opacity="0.5" stroke-width="0.5"></path><path d="M115.468 105.11L274.6128 197.6055" fill="none" stroke="#aaa" stroke-opacity="0.5" stroke-width="0.5"></path><path d="M251.8908 83.8797L115.468 105.11" fill="none" stroke="#aaa" stroke-opacity="0.5" stroke-width="0.5"></path><path d="M198.3299 95.2299L274.6128 197.6055" fill="none" stroke="#aaa" stroke-opacity="0.5" stroke-width="0.5"></path><path d="M288.8024 107.4802L198.3299 95.2299" fill="none" stroke="#aaa" stroke-opacity="0.5" stroke-width="0.5"></path><path d="M126.5215 175.1014L270.7592 48.7947" fill="none" stroke="#aaa" stroke-opacity="0.5" stroke-width="0.5"></path><path d="M184.4648 214.8871L274.6128 197.6055" fill="none" stroke="#aaa" stroke-opacity="0.5" stroke-width="0.5"></path><path d="M163.6616 38.5274L193.7886 141.6165" fill="none" stroke="#aaa" stroke-opacity="0.5" stroke-width="0.5"></path><path d="M184.4648 214.8871L271.9624 151.43" fill="none" stroke="#aaa" stroke-opacity="0.5" stroke-width="0.5"></path><path d="M217.1768 58.1442L115.923 141.362" fill="none" stroke="#aaa" stroke-opacity="0.5" stroke-width="0.5"></path><path d="M163.6616 38.5274L115.468 105.11" fill="none" stroke="#aaa" stroke-opacity="0.5" stroke-width="0.5"></path><path d="M271.9624 151.43L239.4237 29.4009" fill="none" stroke="#aaa" stroke-opacity="0.5" stroke-width="0.5"></path><path d="M220.5488 179.5363L297.4371 74.2614" fill="none" stroke="#aaa" stroke-opacity="0.5" stroke-width="0.5"></path><path d="M115.923 141.362L161.2508 73.0224" fill="none" stroke="#aaa" stroke-opacity="0.5" stroke-width="0.5"></path><path d="M115.923 141.362L311.6041 129.5796" fill="none" stroke="#aaa" stroke-opacity="0.5" stroke-width="0.5"></path><path d="M115.468 105.11L297.4371 74.2614" fill="none" stroke="#aaa" stroke-opacity="0.5" stroke-width="0.5"></path><path d="M251.8908 83.8797L216.43 223.2645" fill="none" stroke="#aaa" stroke-opacity="0.5" stroke-width="0.5"></path><path d="M127.4758 68.7942L198.3299 95.2299" fill="none" stroke="#aaa" stroke-opacity="0.5" stroke-width="0.5"></path><path d="M115.923 141.362L238.46 133.173" fill="none" stroke="#aaa" stroke-opacity="0.5" stroke-width="0.5"></path><path d="M239.4237 29.4009L270.7592 48.7947" fill="none" stroke="#aaa" stroke-opacity="0.5" stroke-width="0.5"></path><path d="M198.1445 26.9746L166.1614 170.9814" fill="none" stroke="#aaa" stroke-opacity="0.5" stroke-width="0.5"></path><path d="M126.5215 175.1014L251.8908 83.8797" fill="none" stroke="#aaa" stroke-opacity="0.5" stroke-width="0.5"></path><path d="M163.6616 38.5274L216.43 223.2645" fill="none" stroke="#aaa" stroke-opacity="0.5" stroke-width="0.5"></path><path d="M152.4758 204.634L115.468 105.11" fill="none" stroke="#aaa" stroke-opacity="0.5" stroke-width="0.5"></path><path d="M161.2508 73.0224L198.3299 95.2299" fill="none" stroke="#aaa" stroke-opacity="0.5" stroke-width="0.5"></path><path d="M127.4758 68.7942L288.8024 107.4802" fill="none" stroke="#aaa" stroke-opacity="0.5" stroke-width="0.5"></path><path d="M115.923 141.362L274.6128 197.6055" fill="none" stroke="#aaa" stroke-opacity="0.5" stroke-width="0.5"></path><path d="M220.5488 179.5363L239.4237 29.4009" fill="none" stroke="#aaa" stroke-opacity="0.5" stroke-width="0.5"></path><path d="M115.923 141.362L271.9624 151.43" fill="none" stroke="#aaa" stroke-opacity="0.5" stroke-width="0.5"></path><path d="M152.4758 204.634L198.1445 26.9746" fill="none" stroke="#aaa" stroke-opacity="0.5" stroke-width="0.5"></path><path d="M288.8024 107.4802L297.4371 74.2614" fill="none" stroke="#aaa" stroke-opacity="0.5" stroke-width="0.5"></path><path d="M220.5488 179.5363L163.6616 38.5274" fill="none" stroke="#aaa" stroke-opacity="0.5" stroke-width="0.5"></path><path d="M247.7835 211.2673L198.1445 26.9746" fill="none" stroke="#aaa" stroke-opacity="0.5" stroke-width="0.5"></path><path d="M166.1614 170.9814L193.7886 141.6165" fill="none" stroke="#aaa" stroke-opacity="0.5" stroke-width="0.5"></path><path d="M217.1768 58.1442L166.1614 170.9814" fill="none" stroke="#aaa" stroke-opacity="0.5" stroke-width="0.5"></path><path d="M127.4758 68.7942L166.1614 170.9814" fill="none" stroke="#aaa" stroke-opacity="0.5" stroke-width="0.5"></path><path d="M161.2508 73.0224L288.8024 107.4802" fill="none" stroke="#aaa" stroke-opacity="0.5" stroke-width="0.5"></path><path d="M184.4648 214.8871L239.4237 29.4009" fill="none" stroke="#aaa" stroke-opacity="0.5" stroke-width="0.5"></path><path d="M251.8908 83.8797L300.3357 169.9517" fill="none" stroke="#aaa" stroke-opacity="0.5" stroke-width="0.5"></path><path d="M152.4758 204.634L270.7592 48.7947" fill="none" stroke="#aaa" stroke-opacity="0.5" stroke-width="0.5"></path><path d="M127.4758 68.7942L297.4371 74.2614" fill="none" stroke="#aaa" stroke-opacity="0.5" stroke-width="0.5"></path><path d="M163.6616 38.5274L300.3357 169.9517" fill="none" stroke="#aaa" stroke-opacity="0.5" stroke-width="0.5"></path><path d="M247.7835 211.2673L270.7592 48.7947" fill="none" stroke="#aaa" stroke-opacity="0.5" stroke-width="0.5"></path><path d="M220.5488 179.5363L149.5057 120.9902" fill="none" stroke="#aaa" stroke-opacity="0.5" stroke-width="0.5"></path><path d="M161.2508 73.0224L166.1614 170.9814" fill="none" stroke="#aaa" stroke-opacity="0.5" stroke-width="0.5"></path><path d="M149.5057 120.9902L198.3299 95.2299" fill="none" stroke="#aaa" stroke-opacity="0.5" stroke-width="0.5"></path><path d="M166.1614 170.9814L216.43 223.2645" fill="none" stroke="#aaa" stroke-opacity="0.5" stroke-width="0.5"></path><path d="M300.3357 169.9517L193.7886 141.6165" fill="none" stroke="#aaa" stroke-opacity="0.5" stroke-width="0.5"></path><path d="M126.5215 175.1014L161.2508 73.0224" fill="none" stroke="#aaa" stroke-opacity="0.5" stroke-width="0.5"></path><path d="M288.8024 107.4802L163.6616 38.5274" fill="none" stroke="#aaa" stroke-opacity="0.5" stroke-width="0.5"></path><path d="M184.4648 214.8871L149.5057 120.9902" fill="none" stroke="#aaa" stroke-opacity="0.5" stroke-width="0.5"></path><path d="M300.3357 169.9517L115.468 105.11" fill="none" stroke="#aaa" stroke-opacity="0.5" stroke-width="0.5"></path><path d="M251.8908 83.8797L238.46 133.173" fill="none" stroke="#aaa" stroke-opacity="0.5" stroke-width="0.5"></path><path d="M166.1614 170.9814L251.8908 83.8797" fill="none" stroke="#aaa" stroke-opacity="0.5" stroke-width="0.5"></path><path d="M311.6041 129.5796L270.7592 48.7947" fill="none" stroke="#aaa" stroke-opacity="0.5" stroke-width="0.5"></path><path d="M163.6616 38.5274L311.6041 129.5796" fill="none" stroke="#aaa" stroke-opacity="0.5" stroke-width="0.5"></path><path d="M247.7835 211.2673L251.8908 83.8797" fill="none" stroke="#aaa" stroke-opacity="0.5" stroke-width="0.5"></path><path d="M126.5215 175.1014L115.923 141.362" fill="none" stroke="#aaa" stroke-opacity="0.5" stroke-width="0.5"></path><path d="M271.9624 151.43L193.7886 141.6165" fill="none" stroke="#aaa" stroke-opacity="0.5" stroke-width="0.5"></path><path d="M115.923 141.362L239.4237 29.4009" fill="none" stroke="#aaa" stroke-opacity="0.5" stroke-width="0.5"></path><path d="M163.6616 38.5274L238.46 133.173" fill="none" stroke="#aaa" stroke-opacity="0.5" stroke-width="0.5"></path><path d="M220.5488 179.5363L126.5215 175.1014" fill="none" stroke="#aaa" stroke-opacity="0.5" stroke-width="0.5"></path><path d="M126.5215 175.1014L288.8024 107.4802" fill="none" stroke="#aaa" stroke-opacity="0.5" stroke-width="0.5"></path><path d="M271.9624 151.43L115.468 105.11" fill="none" stroke="#aaa" stroke-opacity="0.5" stroke-width="0.5"></path><path d="M127.4758 68.7942L163.6616 38.5274" fill="none" stroke="#aaa" stroke-opacity="0.5" stroke-width="0.5"></path><path d="M216.43 223.2645L270.7592 48.7947" fill="none" stroke="#aaa" stroke-opacity="0.5" stroke-width="0.5"></path><path d="M149.5057 120.9902L166.1614 170.9814" fill="none" stroke="#aaa" stroke-opacity="0.5" stroke-width="0.5"></path><path d="M126.5215 175.1014L274.6128 197.6055" fill="none" stroke="#aaa" stroke-opacity="0.5" stroke-width="0.5"></path><path d="M238.46 133.173L274.6128 197.6055" fill="none" stroke="#aaa" stroke-opacity="0.5" stroke-width="0.5"></path><path d="M300.3357 169.9517L216.43 223.2645" fill="none" stroke="#aaa" stroke-opacity="0.5" stroke-width="0.5"></path><path d="M126.5215 175.1014L271.9624 151.43" fill="none" stroke="#aaa" stroke-opacity="0.5" stroke-width="0.5"></path><path d="M247.7835 211.2673L127.4758 68.7942" fill="none" stroke="#aaa" stroke-opacity="0.5" stroke-width="0.5"></path><path d="M166.1614 170.9814L300.3357 169.9517" fill="none" stroke="#aaa" stroke-opacity="0.5" stroke-width="0.5"></path><path d="M311.6041 129.5796L251.8908 83.8797" fill="none" stroke="#aaa" stroke-opacity="0.5" stroke-width="0.5"></path><path d="M161.2508 73.0224L163.6616 38.5274" fill="none" stroke="#aaa" stroke-opacity="0.5" stroke-width="0.5"></path><path d="M149.5057 120.9902L297.4371 74.2614" fill="none" stroke="#aaa" stroke-opacity="0.5" stroke-width="0.5"></path><path d="M1 0A1 1 0 1 1 1 -0.0001" fill="#5470c6" transform="matrix(17.5,0,0,17.5,217.1768,58.1442)"></path><path d="M1 0A1 1 0 1 1 1 -0.0001" fill="#5470c6" transform="matrix(17.5,0,0,17.5,300.3357,169.9517)"></path><path d="M1 0A1 1 0 1 1 1 -0.0001" fill="#5470c6" transform="matrix(17.5,0,0,17.5,274.6128,197.6055)"></path><path d="M1 0A1 1 0 1 1 1 -0.0001" fill="#5470c6" transform="matrix(17.5,0,0,17.5,251.8908,83.8797)"></path><path d="M1 0A1 1 0 1 1 1 -0.0001" fill="#5470c6" transform="matrix(17.5,0,0,17.5,247.7835,211.2673)"></path><path d="M1 0A1 1 0 1 1 1 -0.0001" fill="#5470c6" transform="matrix(17.5,0,0,17.5,216.43,223.2645)"></path><path d="M1 0A1 1 0 1 1 1 -0.0001" fill="#5470c6" transform="matrix(17.5,0,0,17.5,271.9624,151.43)"></path><path d="M1 0A1 1 0 1 1 1 -0.0001" fill="#5470c6" transform="matrix(17.5,0,0,17.5,184.4648,214.8871)"></path><path d="M1 0A1 1 0 1 1 1 -0.0001" fill="#5470c6" transform="matrix(17.5,0,0,17.5,152.4758,204.634)"></path><path d="M1 0A1 1 0 1 1 1 -0.0001" fill="#5470c6" transform="matrix(17.5,0,0,17.5,220.5488,179.5363)"></path><path d="M1 0A1 1 0 1 1 1 -0.0001" fill="#5470c6" transform="matrix(17.5,0,0,17.5,126.5215,175.1014)"></path><path d="M1 0A1 1 0 1 1 1 -0.0001" fill="#5470c6" transform="matrix(17.5,0,0,17.5,166.1614,170.9814)"></path><path d="M1 0A1 1 0 1 1 1 -0.0001" fill="#5470c6" transform="matrix(17.5,0,0,17.5,115.923,141.362)"></path><path d="M1 0A1 1 0 1 1 1 -0.0001" fill="#5470c6" transform="matrix(17.5,0,0,17.5,149.5057,120.9902)"></path><path d="M1 0A1 1 0 1 1 1 -0.0001" fill="#5470c6" transform="matrix(17.5,0,0,17.5,115.468,105.11)"></path><path d="M1 0A1 1 0 1 1 1 -0.0001" fill="#5470c6" transform="matrix(17.5,0,0,17.5,127.4758,68.7942)"></path><path d="M1 0A1 1 0 1 1 1 -0.0001" fill="#5470c6" transform="matrix(17.5,0,0,17.5,161.2508,73.0224)"></path><path d="M1 0A1 1 0 1 1 1 -0.0001" fill="#5470c6" transform="matrix(17.5,0,0,17.5,163.6616,38.5274)"></path><path d="M1 0A1 1 0 1 1 1 -0.0001" fill="#5470c6" transform="matrix(17.5,0,0,17.5,198.1445,26.9746)"></path><path d="M1 0A1 1 0 1 1 1 -0.0001" fill="#5470c6" transform="matrix(17.5,0,0,17.5,193.7886,141.6165)"></path><path d="M1 0A1 1 0 1 1 1 -0.0001" fill="#5470c6" transform="matrix(17.5,0,0,17.5,239.4237,29.4009)"></path><path d="M1 0A1 1 0 1 1 1 -0.0001" fill="#5470c6" transform="matrix(17.5,0,0,17.5,198.3299,95.2299)"></path><path d="M1 0A1 1 0 1 1 1 -0.0001" fill="#5470c6" transform="matrix(17.5,0,0,17.5,270.7592,48.7947)"></path><path d="M1 0A1 1 0 1 1 1 -0.0001" fill="#5470c6" transform="matrix(17.5,0,0,17.5,297.4371,74.2614)"></path><path d="M1 0A1 1 0 1 1 1 -0.0001" fill="#5470c6" transform="matrix(17.5,0,0,17.5,238.46,133.173)"></path><path d="M1 0A1 1 0 1 1 1 -0.0001" fill="#5470c6" transform="matrix(17.5,0,0,17.5,288.8024,107.4802)"></path><path d="M1 0A1 1 0 1 1 1 -0.0001" fill="#5470c6" transform="matrix(17.5,0,0,17.5,311.6041,129.5796)"></path><path d="M-25.1792 -5l50.3584 0l0 32l-50.3584 0Z" fill="rgb(0,0,0)" fill-opacity="0" stroke="#ccc" stroke-width="0" transform="translate(237.5 5)"></path><text dominant-baseline="central" fill="#333" style="font-size:22px;font-family:sans-serif;font-weight:bolder;" text-anchor="middle" transform="translate(237.5 5)" y="11">C13</text></g></svg>