<svg baseprofile="full" height="250" style="position:absolute;left:0;top:0;user-select:none" version="1.1" width="475" xmlns="http://www.w3.org/2000/svg" xmlns:xlink="http://www.w3.org/1999/xlink"><rect fill="none" height="250" id="0" width="475" x="0" y="0"></rect><g><path d="M234.6495 227.3126L147.1407 206.5011" fill="none" stroke="#aaa" stroke-opacity="0.5"></path><path d="M233.4401 22.6419L106.4168 126.0929" fill="none" stroke="#aaa" stroke-opacity="0.5"></path><path d="M234.6495 227.3126L145.7653 43.7695" fill="none" stroke="#aaa" stroke-opacity="0.5"></path><path d="M147.1407 206.5011L106.4168 126.0929" fill="none" stroke="#aaa" stroke-opacity="0.5"></path><path d="M305.2076 169.3803L233.4401 22.6419" fill="none" stroke="#aaa" stroke-opacity="0.5"></path><path d="M305.2076 169.3803L147.1407 206.5011" fill="none" stroke="#aaa" stroke-opacity="0.5"></path><path d="M305.2611 79.3016L305.2076 169.3803" fill="none" stroke="#aaa" stroke-opacity="0.5"></path><path d="M234.6495 227.3126L106.4168 126.0929" fill="none" stroke="#aaa" stroke-opacity="0.5"></path><path d="M305.2611 79.3016L147.1407 206.5011" fill="none" stroke="#aaa" stroke-opacity="0.5"></path><path d="M145.7653 43.7695L233.4401 22.6419" fill="none" stroke="#aaa" stroke-opacity="0.5"></path><path d="M305.2611 79.3016L145.7653 43.7695" fill="none" stroke="#aaa" stroke-opacity="0.5"></path><path d="M234.6495 227.3126L233.4401 22.6419" fill="none" stroke="#aaa" stroke-opacity="0.5"></path><path d="M145.7653 43.7695L147.1407 206.5011" fill="none" stroke="#aaa" stroke-opacity="0.5"></path><path d="M305.2076 169.3803L106.4168 126.0929" fill="none" stroke="#aaa" stroke-opacity="0.5"></path><path d="M233.4401 22.6419L147.1407 206.5011" fill="none" stroke="#aaa" stroke-opacity="0.5"></path><path d="M305.2611 79.3016L234.6495 227.3126" fill="none" stroke="#aaa" stroke-opacity="0.5"></path><path d="M305.2076 169.3803L145.7653 43.7695" fill="none" stroke="#aaa" stroke-opacity="0.5"></path><path d="M305.2611 79.3016L106.4168 126.0929" fill="none" stroke="#aaa" stroke-opacity="0.5"></path><path d="M305.2611 79.3016L233.4401 22.6419" fill="none" stroke="#aaa" stroke-opacity="0.5"></path><path d="M145.7653 43.7695L106.4168 126.0929" fill="none" stroke="#aaa" stroke-opacity="0.5"></path><path d="M234.6495 227.3126L305.2076 169.3803" fill="none" stroke="#aaa" stroke-opacity="0.5"></path><path d="M1 0A1 1 0 1 1 1 -0.0001" fill="#5470c6" transform="matrix(19,0,0,19,305.2076,169.3803)"></path><path d="M1 0A1 1 0 1 1 1 -0.0001" fill="#5470c6" transform="matrix(19,0,0,19,234.6495,227.3126)"></path><path d="M1 0A1 1 0 1 1 1 -0.0001" fill="#5470c6" transform="matrix(19,0,0,19,147.1407,206.5011)"></path><path d="M1 0A1 1 0 1 1 1 -0.0001" fill="#5470c6" transform="matrix(19,0,0,19,106.4168,126.0929)"></path><path d="M1 0A1 1 0 1 1 1 -0.0001" fill="#5470c6" transform="matrix(19,0,0,19,145.7653,43.7695)"></path><path d="M1 0A1 1 0 1 1 1 -0.0001" fill="#5470c6" transform="matrix(19,0,0,19,233.4401,22.6419)"></path><path d="M1 0A1 1 0 1 1 1 -0.0001" fill="#5470c6" transform="matrix(19,0,0,19,305.2611,79.3016)"></path><path d="M-32.4922 -5l64.9844 0l0 33l-64.9844 0Z" fill="rgb(0,0,0)" fill-opacity="0" stroke="#ccc" stroke-width="0" transform="translate(237.5 5)"></path><text dominant-baseline="central" fill="#333" style="font-size:23px;font-family:sans-serif;font-weight:bolder;" text-anchor="middle" transform="translate(237.5 5)" y="11.5">C130</text></g></svg>