<svg baseprofile="full" height="250" style="position:absolute;left:0;top:0;user-select:none" version="1.1" width="475" xmlns="http://www.w3.org/2000/svg" xmlns:xlink="http://www.w3.org/1999/xlink"><rect fill="none" height="250" id="0" width="475" x="0" y="0"></rect><g><path d="M304.5906 171.4807L144.9189 205.928" fill="none" stroke="#aaa" stroke-opacity="0.5"></path><path d="M233.0377 227.5382L106.9267 123.536" fill="none" stroke="#aaa" stroke-opacity="0.5"></path><path d="M144.9189 205.928L147.0138 42.7404" fill="none" stroke="#aaa" stroke-opacity="0.5"></path><path d="M305.825 80.6794L144.9189 205.928" fill="none" stroke="#aaa" stroke-opacity="0.5"></path><path d="M235.5684 23.0973L233.0377 227.5382" fill="none" stroke="#aaa" stroke-opacity="0.5"></path><path d="M106.9267 123.536L147.0138 42.7404" fill="none" stroke="#aaa" stroke-opacity="0.5"></path><path d="M144.9189 205.928L106.9267 123.536" fill="none" stroke="#aaa" stroke-opacity="0.5"></path><path d="M304.5906 171.4807L147.0138 42.7404" fill="none" stroke="#aaa" stroke-opacity="0.5"></path><path d="M235.5684 23.0973L144.9189 205.928" fill="none" stroke="#aaa" stroke-opacity="0.5"></path><path d="M235.5684 23.0973L147.0138 42.7404" fill="none" stroke="#aaa" stroke-opacity="0.5"></path><path d="M235.5684 23.0973L304.5906 171.4807" fill="none" stroke="#aaa" stroke-opacity="0.5"></path><path d="M305.825 80.6794L233.0377 227.5382" fill="none" stroke="#aaa" stroke-opacity="0.5"></path><path d="M235.5684 23.0973L106.9267 123.536" fill="none" stroke="#aaa" stroke-opacity="0.5"></path><path d="M235.5684 23.0973L305.825 80.6794" fill="none" stroke="#aaa" stroke-opacity="0.5"></path><path d="M305.825 80.6794L147.0138 42.7404" fill="none" stroke="#aaa" stroke-opacity="0.5"></path><path d="M304.5906 171.4807L106.9267 123.536" fill="none" stroke="#aaa" stroke-opacity="0.5"></path><path d="M144.9189 205.928L233.0377 227.5382" fill="none" stroke="#aaa" stroke-opacity="0.5"></path><path d="M305.825 80.6794L304.5906 171.4807" fill="none" stroke="#aaa" stroke-opacity="0.5"></path><path d="M305.825 80.6794L106.9267 123.536" fill="none" stroke="#aaa" stroke-opacity="0.5"></path><path d="M304.5906 171.4807L233.0377 227.5382" fill="none" stroke="#aaa" stroke-opacity="0.5"></path><path d="M233.0377 227.5382L147.0138 42.7404" fill="none" stroke="#aaa" stroke-opacity="0.5"></path><path d="M1 0A1 1 0 1 1 1 -0.0001" fill="#5470c6" transform="matrix(19,0,0,19,304.5906,171.4807)"></path><path d="M1 0A1 1 0 1 1 1 -0.0001" fill="#5470c6" transform="matrix(19,0,0,19,233.0377,227.5382)"></path><path d="M1 0A1 1 0 1 1 1 -0.0001" fill="#5470c6" transform="matrix(19,0,0,19,144.9189,205.928)"></path><path d="M1 0A1 1 0 1 1 1 -0.0001" fill="#5470c6" transform="matrix(19,0,0,19,106.9267,123.536)"></path><path d="M1 0A1 1 0 1 1 1 -0.0001" fill="#5470c6" transform="matrix(19,0,0,19,147.0138,42.7404)"></path><path d="M1 0A1 1 0 1 1 1 -0.0001" fill="#5470c6" transform="matrix(19,0,0,19,235.5684,23.0973)"></path><path d="M1 0A1 1 0 1 1 1 -0.0001" fill="#5470c6" transform="matrix(19,0,0,19,305.825,80.6794)"></path><path d="M-32.4922 -5l64.9844 0l0 33l-64.9844 0Z" fill="rgb(0,0,0)" fill-opacity="0" stroke="#ccc" stroke-width="0" transform="translate(237.5 5)"></path><text dominant-baseline="central" fill="#333" style="font-size:23px;font-family:sans-serif;font-weight:bolder;" text-anchor="middle" transform="translate(237.5 5)" y="11.5">C131</text></g></svg>