<svg baseprofile="full" height="250" style="position:absolute;left:0;top:0;user-select:none" version="1.1" width="475" xmlns="http://www.w3.org/2000/svg" xmlns:xlink="http://www.w3.org/1999/xlink"><rect fill="none" height="250" id="0" width="475" x="0" y="0"></rect><g><path d="M147.8706 208.3866L306.8849 168.2213" fill="none" stroke="#aaa" stroke-opacity="0.5"></path><path d="M303.9559 78.1291L106.4372 127.0743" fill="none" stroke="#aaa" stroke-opacity="0.5"></path><path d="M236.2087 226.1798L147.8706 208.3866" fill="none" stroke="#aaa" stroke-opacity="0.5"></path><path d="M303.9559 78.1291L144.161 44.9766" fill="none" stroke="#aaa" stroke-opacity="0.5"></path><path d="M147.8706 208.3866L303.9559 78.1291" fill="none" stroke="#aaa" stroke-opacity="0.5"></path><path d="M147.8706 208.3866L232.3628 22.0323" fill="none" stroke="#aaa" stroke-opacity="0.5"></path><path d="M303.9559 78.1291L306.8849 168.2213" fill="none" stroke="#aaa" stroke-opacity="0.5"></path><path d="M144.161 44.9766L106.4372 127.0743" fill="none" stroke="#aaa" stroke-opacity="0.5"></path><path d="M306.8849 168.2213L106.4372 127.0743" fill="none" stroke="#aaa" stroke-opacity="0.5"></path><path d="M236.2087 226.1798L106.4372 127.0743" fill="none" stroke="#aaa" stroke-opacity="0.5"></path><path d="M232.3628 22.0323L106.4372 127.0743" fill="none" stroke="#aaa" stroke-opacity="0.5"></path><path d="M236.2087 226.1798L303.9559 78.1291" fill="none" stroke="#aaa" stroke-opacity="0.5"></path><path d="M144.161 44.9766L306.8849 168.2213" fill="none" stroke="#aaa" stroke-opacity="0.5"></path><path d="M236.2087 226.1798L232.3628 22.0323" fill="none" stroke="#aaa" stroke-opacity="0.5"></path><path d="M236.2087 226.1798L144.161 44.9766" fill="none" stroke="#aaa" stroke-opacity="0.5"></path><path d="M147.8706 208.3866L106.4372 127.0743" fill="none" stroke="#aaa" stroke-opacity="0.5"></path><path d="M232.3628 22.0323L144.161 44.9766" fill="none" stroke="#aaa" stroke-opacity="0.5"></path><path d="M236.2087 226.1798L306.8849 168.2213" fill="none" stroke="#aaa" stroke-opacity="0.5"></path><path d="M303.9559 78.1291L232.3628 22.0323" fill="none" stroke="#aaa" stroke-opacity="0.5"></path><path d="M232.3628 22.0323L306.8849 168.2213" fill="none" stroke="#aaa" stroke-opacity="0.5"></path><path d="M147.8706 208.3866L144.161 44.9766" fill="none" stroke="#aaa" stroke-opacity="0.5"></path><path d="M1 0A1 1 0 1 1 1 -0.0001" fill="#5470c6" transform="matrix(19,0,0,19,306.8849,168.2213)"></path><path d="M1 0A1 1 0 1 1 1 -0.0001" fill="#5470c6" transform="matrix(19,0,0,19,236.2087,226.1798)"></path><path d="M1 0A1 1 0 1 1 1 -0.0001" fill="#5470c6" transform="matrix(19,0,0,19,147.8706,208.3866)"></path><path d="M1 0A1 1 0 1 1 1 -0.0001" fill="#5470c6" transform="matrix(19,0,0,19,106.4372,127.0743)"></path><path d="M1 0A1 1 0 1 1 1 -0.0001" fill="#5470c6" transform="matrix(19,0,0,19,144.161,44.9766)"></path><path d="M1 0A1 1 0 1 1 1 -0.0001" fill="#5470c6" transform="matrix(19,0,0,19,232.3628,22.0323)"></path><path d="M1 0A1 1 0 1 1 1 -0.0001" fill="#5470c6" transform="matrix(19,0,0,19,303.9559,78.1291)"></path><path d="M-32.4922 -5l64.9844 0l0 33l-64.9844 0Z" fill="rgb(0,0,0)" fill-opacity="0" stroke="#ccc" stroke-width="0" transform="translate(237.5 5)"></path><text dominant-baseline="central" fill="#333" style="font-size:23px;font-family:sans-serif;font-weight:bolder;" text-anchor="middle" transform="translate(237.5 5)" y="11.5">C132</text></g></svg>