<svg baseprofile="full" height="250" style="position:absolute;left:0;top:0;user-select:none" version="1.1" width="475" xmlns="http://www.w3.org/2000/svg" xmlns:xlink="http://www.w3.org/1999/xlink"><rect fill="none" height="250" id="0" width="475" x="0" y="0"></rect><g><path d="M147.1857 41.9657L235.4977 24.0229" fill="none" stroke="#aaa" stroke-opacity="0.5"></path><path d="M147.1857 41.9657L233.0116 226.9302" fill="none" stroke="#aaa" stroke-opacity="0.5"></path><path d="M304.9147 171.857L235.4977 24.0229" fill="none" stroke="#aaa" stroke-opacity="0.5"></path><path d="M233.0116 226.9302L305.8952 80.475" fill="none" stroke="#aaa" stroke-opacity="0.5"></path><path d="M144.5518 206.4189L235.4977 24.0229" fill="none" stroke="#aaa" stroke-opacity="0.5"></path><path d="M147.1857 41.9657L305.8952 80.475" fill="none" stroke="#aaa" stroke-opacity="0.5"></path><path d="M106.8245 123.3302L235.4977 24.0229" fill="none" stroke="#aaa" stroke-opacity="0.5"></path><path d="M106.8245 123.3302L233.0116 226.9302" fill="none" stroke="#aaa" stroke-opacity="0.5"></path><path d="M144.5518 206.4189L305.8952 80.475" fill="none" stroke="#aaa" stroke-opacity="0.5"></path><path d="M147.1857 41.9657L304.9147 171.857" fill="none" stroke="#aaa" stroke-opacity="0.5"></path><path d="M305.8952 80.475L235.4977 24.0229" fill="none" stroke="#aaa" stroke-opacity="0.5"></path><path d="M106.8245 123.3302L305.8952 80.475" fill="none" stroke="#aaa" stroke-opacity="0.5"></path><path d="M147.1857 41.9657L106.8245 123.3302" fill="none" stroke="#aaa" stroke-opacity="0.5"></path><path d="M144.5518 206.4189L304.9147 171.857" fill="none" stroke="#aaa" stroke-opacity="0.5"></path><path d="M147.1857 41.9657L144.5518 206.4189" fill="none" stroke="#aaa" stroke-opacity="0.5"></path><path d="M144.5518 206.4189L233.0116 226.9302" fill="none" stroke="#aaa" stroke-opacity="0.5"></path><path d="M233.0116 226.9302L304.9147 171.857" fill="none" stroke="#aaa" stroke-opacity="0.5"></path><path d="M106.8245 123.3302L304.9147 171.857" fill="none" stroke="#aaa" stroke-opacity="0.5"></path><path d="M304.9147 171.857L305.8952 80.475" fill="none" stroke="#aaa" stroke-opacity="0.5"></path><path d="M233.0116 226.9302L235.4977 24.0229" fill="none" stroke="#aaa" stroke-opacity="0.5"></path><path d="M144.5518 206.4189L106.8245 123.3302" fill="none" stroke="#aaa" stroke-opacity="0.5"></path><path d="M1 0A1 1 0 1 1 1 -0.0001" fill="#5470c6" transform="matrix(19,0,0,19,304.9147,171.857)"></path><path d="M1 0A1 1 0 1 1 1 -0.0001" fill="#5470c6" transform="matrix(19,0,0,19,233.0116,226.9302)"></path><path d="M1 0A1 1 0 1 1 1 -0.0001" fill="#5470c6" transform="matrix(19,0,0,19,144.5518,206.4189)"></path><path d="M1 0A1 1 0 1 1 1 -0.0001" fill="#5470c6" transform="matrix(19,0,0,19,106.8245,123.3302)"></path><path d="M1 0A1 1 0 1 1 1 -0.0001" fill="#5470c6" transform="matrix(19,0,0,19,147.1857,41.9657)"></path><path d="M1 0A1 1 0 1 1 1 -0.0001" fill="#5470c6" transform="matrix(19,0,0,19,235.4977,24.0229)"></path><path d="M1 0A1 1 0 1 1 1 -0.0001" fill="#5470c6" transform="matrix(19,0,0,19,305.8952,80.475)"></path><path d="M-32.4922 -5l64.9844 0l0 33l-64.9844 0Z" fill="rgb(0,0,0)" fill-opacity="0" stroke="#ccc" stroke-width="0" transform="translate(237.5 5)"></path><text dominant-baseline="central" fill="#333" style="font-size:23px;font-family:sans-serif;font-weight:bolder;" text-anchor="middle" transform="translate(237.5 5)" y="11.5">C133</text></g></svg>