<svg baseprofile="full" height="250" style="position:absolute;left:0;top:0;user-select:none" version="1.1" width="475" xmlns="http://www.w3.org/2000/svg" xmlns:xlink="http://www.w3.org/1999/xlink"><rect fill="none" height="250" id="0" width="475" x="0" y="0"></rect><g><path d="M152.6298 201.7176L244.6619 166.4544" fill="none" stroke="#aaa" stroke-opacity="0.5" stroke-width="0.5"></path><path d="M117.9351 107.7047L220.9306 221.078" fill="none" stroke="#aaa" stroke-opacity="0.5" stroke-width="0.5"></path><path d="M170.8566 77.5714L127.5971 174.9677" fill="none" stroke="#aaa" stroke-opacity="0.5" stroke-width="0.5"></path><path d="M280.4838 191.6637L253.0818 211.7416" fill="none" stroke="#aaa" stroke-opacity="0.5" stroke-width="0.5"></path><path d="M213.0912 72.3284L266.9854 130.7268" fill="none" stroke="#aaa" stroke-opacity="0.5" stroke-width="0.5"></path><path d="M127.9738 75.0078L244.6619 166.4544" fill="none" stroke="#aaa" stroke-opacity="0.5" stroke-width="0.5"></path><path d="M220.9306 221.078L203.5352 179.0857" fill="none" stroke="#aaa" stroke-opacity="0.5" stroke-width="0.5"></path><path d="M213.3375 123.5224L115.1031 141.0191" fill="none" stroke="#aaa" stroke-opacity="0.5" stroke-width="0.5"></path><path d="M254.4519 87.7368L280.4838 191.6637" fill="none" stroke="#aaa" stroke-opacity="0.5" stroke-width="0.5"></path><path d="M152.6298 201.7176L203.5352 179.0857" fill="none" stroke="#aaa" stroke-opacity="0.5" stroke-width="0.5"></path><path d="M285.4507 60.0678L244.6619 166.4544" fill="none" stroke="#aaa" stroke-opacity="0.5" stroke-width="0.5"></path><path d="M117.9351 107.7047L164.8024 160.2676" fill="none" stroke="#aaa" stroke-opacity="0.5" stroke-width="0.5"></path><path d="M213.3375 123.5224L220.9306 221.078" fill="none" stroke="#aaa" stroke-opacity="0.5" stroke-width="0.5"></path><path d="M127.9738 75.0078L203.5352 179.0857" fill="none" stroke="#aaa" stroke-opacity="0.5" stroke-width="0.5"></path><path d="M213.3375 123.5224L184.3082 218.7574" fill="none" stroke="#aaa" stroke-opacity="0.5" stroke-width="0.5"></path><path d="M301.7832 92.2925L117.9351 107.7047" fill="none" stroke="#aaa" stroke-opacity="0.5" stroke-width="0.5"></path><path d="M255.043 41.6544L223.2025 29.1884" fill="none" stroke="#aaa" stroke-opacity="0.5" stroke-width="0.5"></path><path d="M162.7754 119.0559L152.4473 44.2283" fill="none" stroke="#aaa" stroke-opacity="0.5" stroke-width="0.5"></path><path d="M213.0912 72.3284L244.6619 166.4544" fill="none" stroke="#aaa" stroke-opacity="0.5" stroke-width="0.5"></path><path d="M255.043 41.6544L301.7832 92.2925" fill="none" stroke="#aaa" stroke-opacity="0.5" stroke-width="0.5"></path><path d="M280.4838 191.6637L220.9306 221.078" fill="none" stroke="#aaa" stroke-opacity="0.5" stroke-width="0.5"></path><path d="M244.6619 166.4544L266.9854 130.7268" fill="none" stroke="#aaa" stroke-opacity="0.5" stroke-width="0.5"></path><path d="M223.2025 29.1884L301.7832 92.2925" fill="none" stroke="#aaa" stroke-opacity="0.5" stroke-width="0.5"></path><path d="M280.4838 191.6637L184.3082 218.7574" fill="none" stroke="#aaa" stroke-opacity="0.5" stroke-width="0.5"></path><path d="M162.7754 119.0559L213.0912 72.3284" fill="none" stroke="#aaa" stroke-opacity="0.5" stroke-width="0.5"></path><path d="M213.0912 72.3284L203.5352 179.0857" fill="none" stroke="#aaa" stroke-opacity="0.5" stroke-width="0.5"></path><path d="M255.043 41.6544L266.9854 130.7268" fill="none" stroke="#aaa" stroke-opacity="0.5" stroke-width="0.5"></path><path d="M255.043 41.6544L310.1705 128.8045" fill="none" stroke="#aaa" stroke-opacity="0.5" stroke-width="0.5"></path><path d="M115.1031 141.0191L127.5971 174.9677" fill="none" stroke="#aaa" stroke-opacity="0.5" stroke-width="0.5"></path><path d="M253.0818 211.7416L188.1577 30.8787" fill="none" stroke="#aaa" stroke-opacity="0.5" stroke-width="0.5"></path><path d="M223.2025 29.1884L266.9854 130.7268" fill="none" stroke="#aaa" stroke-opacity="0.5" stroke-width="0.5"></path><path d="M164.8024 160.2676L184.3082 218.7574" fill="none" stroke="#aaa" stroke-opacity="0.5" stroke-width="0.5"></path><path d="M203.5352 179.0857L310.1705 128.8045" fill="none" stroke="#aaa" stroke-opacity="0.5" stroke-width="0.5"></path><path d="M152.4473 44.2283L310.1705 128.8045" fill="none" stroke="#aaa" stroke-opacity="0.5" stroke-width="0.5"></path><path d="M254.4519 87.7368L298.4774 162.4784" fill="none" stroke="#aaa" stroke-opacity="0.5" stroke-width="0.5"></path><path d="M152.5 201.7176L152.5 44.2283" fill="none" stroke="#aaa" stroke-opacity="0.5" stroke-width="0.5"></path><path d="M255.043 41.6544L285.4507 60.0678" fill="none" stroke="#aaa" stroke-opacity="0.5" stroke-width="0.5"></path><path d="M213.0912 72.3284L170.8566 77.5714" fill="none" stroke="#aaa" stroke-opacity="0.5" stroke-width="0.5"></path><path d="M255.043 41.6544L244.6619 166.4544" fill="none" stroke="#aaa" stroke-opacity="0.5" stroke-width="0.5"></path><path d="M254.4519 87.7368L188.1577 30.8787" fill="none" stroke="#aaa" stroke-opacity="0.5" stroke-width="0.5"></path><path d="M253.0818 211.7416L220.9306 221.078" fill="none" stroke="#aaa" stroke-opacity="0.5" stroke-width="0.5"></path><path d="M244.6619 166.4544L203.5352 179.0857" fill="none" stroke="#aaa" stroke-opacity="0.5" stroke-width="0.5"></path><path d="M223.2025 29.1884L244.6619 166.4544" fill="none" stroke="#aaa" stroke-opacity="0.5" stroke-width="0.5"></path><path d="M162.7754 119.0559L280.4838 191.6637" fill="none" stroke="#aaa" stroke-opacity="0.5" stroke-width="0.5"></path><path d="M127.9738 75.0078L152.4473 44.2283" fill="none" stroke="#aaa" stroke-opacity="0.5" stroke-width="0.5"></path><path d="M162.7754 119.0559L255.043 41.6544" fill="none" stroke="#aaa" stroke-opacity="0.5" stroke-width="0.5"></path><path d="M152.6298 201.7176L213.0912 72.3284" fill="none" stroke="#aaa" stroke-opacity="0.5" stroke-width="0.5"></path><path d="M152.4473 44.2283L285.4507 60.0678" fill="none" stroke="#aaa" stroke-opacity="0.5" stroke-width="0.5"></path><path d="M213.3375 123.5224L223.2025 29.1884" fill="none" stroke="#aaa" stroke-opacity="0.5" stroke-width="0.5"></path><path d="M152.4473 44.2283L244.6619 166.4544" fill="none" stroke="#aaa" stroke-opacity="0.5" stroke-width="0.5"></path><path d="M255.043 41.6544L203.5352 179.0857" fill="none" stroke="#aaa" stroke-opacity="0.5" stroke-width="0.5"></path><path d="M254.4519 87.7368L115.1031 141.0191" fill="none" stroke="#aaa" stroke-opacity="0.5" stroke-width="0.5"></path><path d="M223.2025 29.1884L203.5352 179.0857" fill="none" stroke="#aaa" stroke-opacity="0.5" stroke-width="0.5"></path><path d="M127.9738 75.0078L213.0912 72.3284" fill="none" stroke="#aaa" stroke-opacity="0.5" stroke-width="0.5"></path><path d="M213.3375 123.5224L301.7832 92.2925" fill="none" stroke="#aaa" stroke-opacity="0.5" stroke-width="0.5"></path><path d="M127.5971 174.9677L253.0818 211.7416" fill="none" stroke="#aaa" stroke-opacity="0.5" stroke-width="0.5"></path><path d="M255.043 41.6544L254.4519 87.7368" fill="none" stroke="#aaa" stroke-opacity="0.5" stroke-width="0.5"></path><path d="M213.0912 72.3284L152.4473 44.2283" fill="none" stroke="#aaa" stroke-opacity="0.5" stroke-width="0.5"></path><path d="M127.5971 174.9677L188.1577 30.8787" fill="none" stroke="#aaa" stroke-opacity="0.5" stroke-width="0.5"></path><path d="M213.3375 123.5224L266.9854 130.7268" fill="none" stroke="#aaa" stroke-opacity="0.5" stroke-width="0.5"></path><path d="M184.3082 218.7574L298.4774 162.4784" fill="none" stroke="#aaa" stroke-opacity="0.5" stroke-width="0.5"></path><path d="M254.4519 87.7368L164.8024 160.2676" fill="none" stroke="#aaa" stroke-opacity="0.5" stroke-width="0.5"></path><path d="M280.4838 191.6637L301.7832 92.2925" fill="none" stroke="#aaa" stroke-opacity="0.5" stroke-width="0.5"></path><path d="M301.7832 92.2925L253.0818 211.7416" fill="none" stroke="#aaa" stroke-opacity="0.5" stroke-width="0.5"></path><path d="M213.3375 123.5224L162.7754 119.0559" fill="none" stroke="#aaa" stroke-opacity="0.5" stroke-width="0.5"></path><path d="M184.3082 218.7574L188.1577 30.8787" fill="none" stroke="#aaa" stroke-opacity="0.5" stroke-width="0.5"></path><path d="M152.6298 201.7176L255.043 41.6544" fill="none" stroke="#aaa" stroke-opacity="0.5" stroke-width="0.5"></path><path d="M162.7754 119.0559L298.4774 162.4784" fill="none" stroke="#aaa" stroke-opacity="0.5" stroke-width="0.5"></path><path d="M280.4838 191.6637L266.9854 130.7268" fill="none" stroke="#aaa" stroke-opacity="0.5" stroke-width="0.5"></path><path d="M280.4838 191.6637L310.1705 128.8045" fill="none" stroke="#aaa" stroke-opacity="0.5" stroke-width="0.5"></path><path d="M266.9854 130.7268L253.0818 211.7416" fill="none" stroke="#aaa" stroke-opacity="0.5" stroke-width="0.5"></path><path d="M127.5971 174.9677L220.9306 221.078" fill="none" stroke="#aaa" stroke-opacity="0.5" stroke-width="0.5"></path><path d="M115.1031 141.0191L170.8566 77.5714" fill="none" stroke="#aaa" stroke-opacity="0.5" stroke-width="0.5"></path><path d="M213.3375 123.5224L285.4507 60.0678" fill="none" stroke="#aaa" stroke-opacity="0.5" stroke-width="0.5"></path><path d="M127.9738 75.0078L255.043 41.6544" fill="none" stroke="#aaa" stroke-opacity="0.5" stroke-width="0.5"></path><path d="M213.3375 123.5224L244.6619 166.4544" fill="none" stroke="#aaa" stroke-opacity="0.5" stroke-width="0.5"></path><path d="M310.1705 128.8045L298.4774 162.4784" fill="none" stroke="#aaa" stroke-opacity="0.5" stroke-width="0.5"></path><path d="M162.7754 119.0559L188.1577 30.8787" fill="none" stroke="#aaa" stroke-opacity="0.5" stroke-width="0.5"></path><path d="M164.8024 160.2676L310.1705 128.8045" fill="none" stroke="#aaa" stroke-opacity="0.5" stroke-width="0.5"></path><path d="M255.043 41.6544L152.4473 44.2283" fill="none" stroke="#aaa" stroke-opacity="0.5" stroke-width="0.5"></path><path d="M127.5971 174.9677L164.8024 160.2676" fill="none" stroke="#aaa" stroke-opacity="0.5" stroke-width="0.5"></path><path d="M301.7832 92.2925L220.9306 221.078" fill="none" stroke="#aaa" stroke-opacity="0.5" stroke-width="0.5"></path><path d="M213.0912 72.3284L117.9351 107.7047" fill="none" stroke="#aaa" stroke-opacity="0.5" stroke-width="0.5"></path><path d="M223.2025 29.1884L152.4473 44.2283" fill="none" stroke="#aaa" stroke-opacity="0.5" stroke-width="0.5"></path><path d="M213.3375 123.5224L203.5352 179.0857" fill="none" stroke="#aaa" stroke-opacity="0.5" stroke-width="0.5"></path><path d="M280.4838 191.6637L285.4507 60.0678" fill="none" stroke="#aaa" stroke-opacity="0.5" stroke-width="0.5"></path><path d="M301.7832 92.2925L184.3082 218.7574" fill="none" stroke="#aaa" stroke-opacity="0.5" stroke-width="0.5"></path><path d="M280.4838 191.6637L244.6619 166.4544" fill="none" stroke="#aaa" stroke-opacity="0.5" stroke-width="0.5"></path><path d="M162.7754 119.0559L115.1031 141.0191" fill="none" stroke="#aaa" stroke-opacity="0.5" stroke-width="0.5"></path><path d="M255.043 41.6544L213.0912 72.3284" fill="none" stroke="#aaa" stroke-opacity="0.5" stroke-width="0.5"></path><path d="M266.9854 130.7268L220.9306 221.078" fill="none" stroke="#aaa" stroke-opacity="0.5" stroke-width="0.5"></path><path d="M170.8566 77.5714L117.9351 107.7047" fill="none" stroke="#aaa" stroke-opacity="0.5" stroke-width="0.5"></path><path d="M220.9306 221.078L298.4774 162.4784" fill="none" stroke="#aaa" stroke-opacity="0.5" stroke-width="0.5"></path><path d="M223.2025 29.1884L213.0912 72.3284" fill="none" stroke="#aaa" stroke-opacity="0.5" stroke-width="0.5"></path><path d="M266.9854 130.7268L184.3082 218.7574" fill="none" stroke="#aaa" stroke-opacity="0.5" stroke-width="0.5"></path><path d="M152.6298 201.7176L298.4774 162.4784" fill="none" stroke="#aaa" stroke-opacity="0.5" stroke-width="0.5"></path><path d="M280.4838 191.6637L203.5352 179.0857" fill="none" stroke="#aaa" stroke-opacity="0.5" stroke-width="0.5"></path><path d="M220.9306 221.078L188.1577 30.8787" fill="none" stroke="#aaa" stroke-opacity="0.5" stroke-width="0.5"></path><path d="M254.4519 87.7368L127.5971 174.9677" fill="none" stroke="#aaa" stroke-opacity="0.5" stroke-width="0.5"></path><path d="M127.9738 75.0078L298.4774 162.4784" fill="none" stroke="#aaa" stroke-opacity="0.5" stroke-width="0.5"></path><path d="M162.7754 119.0559L164.8024 160.2676" fill="none" stroke="#aaa" stroke-opacity="0.5" stroke-width="0.5"></path><path d="M127.9738 75.0078L188.1577 30.8787" fill="none" stroke="#aaa" stroke-opacity="0.5" stroke-width="0.5"></path><path d="M285.4507 60.0678L253.0818 211.7416" fill="none" stroke="#aaa" stroke-opacity="0.5" stroke-width="0.5"></path><path d="M255.043 41.6544L280.4838 191.6637" fill="none" stroke="#aaa" stroke-opacity="0.5" stroke-width="0.5"></path><path d="M213.0912 72.3284L298.4774 162.4784" fill="none" stroke="#aaa" stroke-opacity="0.5" stroke-width="0.5"></path><path d="M285.4507 60.0678L188.1577 30.8787" fill="none" stroke="#aaa" stroke-opacity="0.5" stroke-width="0.5"></path><path d="M213.3375 123.5224L152.4473 44.2283" fill="none" stroke="#aaa" stroke-opacity="0.5" stroke-width="0.5"></path><path d="M253.0818 211.7416L203.5352 179.0857" fill="none" stroke="#aaa" stroke-opacity="0.5" stroke-width="0.5"></path><path d="M115.1031 141.0191L117.9351 107.7047" fill="none" stroke="#aaa" stroke-opacity="0.5" stroke-width="0.5"></path><path d="M152.6298 201.7176L164.8024 160.2676" fill="none" stroke="#aaa" stroke-opacity="0.5" stroke-width="0.5"></path><path d="M213.3375 123.5224L213.0912 72.3284" fill="none" stroke="#aaa" stroke-opacity="0.5" stroke-width="0.5"></path><path d="M127.5971 174.9677L266.9854 130.7268" fill="none" stroke="#aaa" stroke-opacity="0.5" stroke-width="0.5"></path><path d="M285.4507 60.0678L220.9306 221.078" fill="none" stroke="#aaa" stroke-opacity="0.5" stroke-width="0.5"></path><path d="M280.4838 191.6637L152.4473 44.2283" fill="none" stroke="#aaa" stroke-opacity="0.5" stroke-width="0.5"></path><path d="M127.9738 75.0078L164.8024 160.2676" fill="none" stroke="#aaa" stroke-opacity="0.5" stroke-width="0.5"></path><path d="M244.6619 166.4544L298.4774 162.4784" fill="none" stroke="#aaa" stroke-opacity="0.5" stroke-width="0.5"></path><path d="M301.7832 92.2925L266.9854 130.7268" fill="none" stroke="#aaa" stroke-opacity="0.5" stroke-width="0.5"></path><path d="M285.4507 60.0678L164.8024 160.2676" fill="none" stroke="#aaa" stroke-opacity="0.5" stroke-width="0.5"></path><path d="M162.7754 119.0559L127.5971 174.9677" fill="none" stroke="#aaa" stroke-opacity="0.5" stroke-width="0.5"></path><path d="M223.2025 29.1884L298.4774 162.4784" fill="none" stroke="#aaa" stroke-opacity="0.5" stroke-width="0.5"></path><path d="M170.8566 77.5714L253.0818 211.7416" fill="none" stroke="#aaa" stroke-opacity="0.5" stroke-width="0.5"></path><path d="M255.043 41.6544L188.1577 30.8787" fill="none" stroke="#aaa" stroke-opacity="0.5" stroke-width="0.5"></path><path d="M254.4519 87.7368L170.8566 77.5714" fill="none" stroke="#aaa" stroke-opacity="0.5" stroke-width="0.5"></path><path d="M223.2025 29.1884L188.1577 30.8787" fill="none" stroke="#aaa" stroke-opacity="0.5" stroke-width="0.5"></path><path d="M213.3375 123.5224L255.043 41.6544" fill="none" stroke="#aaa" stroke-opacity="0.5" stroke-width="0.5"></path><path d="M301.7832 92.2925L285.4507 60.0678" fill="none" stroke="#aaa" stroke-opacity="0.5" stroke-width="0.5"></path><path d="M127.5971 174.9677L203.5352 179.0857" fill="none" stroke="#aaa" stroke-opacity="0.5" stroke-width="0.5"></path><path d="M301.7832 92.2925L244.6619 166.4544" fill="none" stroke="#aaa" stroke-opacity="0.5" stroke-width="0.5"></path><path d="M203.5352 179.0857L188.1577 30.8787" fill="none" stroke="#aaa" stroke-opacity="0.5" stroke-width="0.5"></path><path d="M152.4473 44.2283L188.1577 30.8787" fill="none" stroke="#aaa" stroke-opacity="0.5" stroke-width="0.5"></path><path d="M184.3082 218.7574L310.1705 128.8045" fill="none" stroke="#aaa" stroke-opacity="0.5" stroke-width="0.5"></path><path d="M255.043 41.6544L115.1031 141.0191" fill="none" stroke="#aaa" stroke-opacity="0.5" stroke-width="0.5"></path><path d="M188.1577 30.8787L298.4774 162.4784" fill="none" stroke="#aaa" stroke-opacity="0.5" stroke-width="0.5"></path><path d="M213.0912 72.3284L184.3082 218.7574" fill="none" stroke="#aaa" stroke-opacity="0.5" stroke-width="0.5"></path><path d="M255.043 41.6544L220.9306 221.078" fill="none" stroke="#aaa" stroke-opacity="0.5" stroke-width="0.5"></path><path d="M301.7832 92.2925L203.5352 179.0857" fill="none" stroke="#aaa" stroke-opacity="0.5" stroke-width="0.5"></path><path d="M152.6298 201.7176L127.5971 174.9677" fill="none" stroke="#aaa" stroke-opacity="0.5" stroke-width="0.5"></path><path d="M170.8566 77.5714L220.9306 221.078" fill="none" stroke="#aaa" stroke-opacity="0.5" stroke-width="0.5"></path><path d="M117.9351 107.7047L298.4774 162.4784" fill="none" stroke="#aaa" stroke-opacity="0.5" stroke-width="0.5"></path><path d="M170.8566 77.5714L184.3082 218.7574" fill="none" stroke="#aaa" stroke-opacity="0.5" stroke-width="0.5"></path><path d="M127.9738 75.0078L127.5971 174.9677" fill="none" stroke="#aaa" stroke-opacity="0.5" stroke-width="0.5"></path><path d="M266.9854 130.7268L203.5352 179.0857" fill="none" stroke="#aaa" stroke-opacity="0.5" stroke-width="0.5"></path><path d="M152.4473 44.2283L220.9306 221.078" fill="none" stroke="#aaa" stroke-opacity="0.5" stroke-width="0.5"></path><path d="M255.043 41.6544L164.8024 160.2676" fill="none" stroke="#aaa" stroke-opacity="0.5" stroke-width="0.5"></path><path d="M115.1031 141.0191L253.0818 211.7416" fill="none" stroke="#aaa" stroke-opacity="0.5" stroke-width="0.5"></path><path d="M223.2025 29.1884L164.8024 160.2676" fill="none" stroke="#aaa" stroke-opacity="0.5" stroke-width="0.5"></path><path d="M213.3375 123.5224L298.4774 162.4784" fill="none" stroke="#aaa" stroke-opacity="0.5" stroke-width="0.5"></path><path d="M152.4473 44.2283L164.8024 160.2676" fill="none" stroke="#aaa" stroke-opacity="0.5" stroke-width="0.5"></path><path d="M152.6298 201.7176L223.2025 29.1884" fill="none" stroke="#aaa" stroke-opacity="0.5" stroke-width="0.5"></path><path d="M244.6619 166.4544L184.3082 218.7574" fill="none" stroke="#aaa" stroke-opacity="0.5" stroke-width="0.5"></path><path d="M213.0912 72.3284L127.5971 174.9677" fill="none" stroke="#aaa" stroke-opacity="0.5" stroke-width="0.5"></path><path d="M285.4507 60.0678L266.9854 130.7268" fill="none" stroke="#aaa" stroke-opacity="0.5" stroke-width="0.5"></path><path d="M213.3375 123.5224L188.1577 30.8787" fill="none" stroke="#aaa" stroke-opacity="0.5" stroke-width="0.5"></path><path d="M127.9738 75.0078L223.2025 29.1884" fill="none" stroke="#aaa" stroke-opacity="0.5" stroke-width="0.5"></path><path d="M127.5971 174.9677L152.4473 44.2283" fill="none" stroke="#aaa" stroke-opacity="0.5" stroke-width="0.5"></path><path d="M280.4838 191.6637L298.4774 162.4784" fill="none" stroke="#aaa" stroke-opacity="0.5" stroke-width="0.5"></path><path d="M162.7754 119.0559L170.8566 77.5714" fill="none" stroke="#aaa" stroke-opacity="0.5" stroke-width="0.5"></path><path d="M220.9306 221.078L310.1705 128.8045" fill="none" stroke="#aaa" stroke-opacity="0.5" stroke-width="0.5"></path><path d="M117.9351 107.7047L253.0818 211.7416" fill="none" stroke="#aaa" stroke-opacity="0.5" stroke-width="0.5"></path><path d="M152.6298 201.7176L310.1705 128.8045" fill="none" stroke="#aaa" stroke-opacity="0.5" stroke-width="0.5"></path><path d="M254.4519 87.7368L117.9351 107.7047" fill="none" stroke="#aaa" stroke-opacity="0.5" stroke-width="0.5"></path><path d="M280.4838 191.6637L188.1577 30.8787" fill="none" stroke="#aaa" stroke-opacity="0.5" stroke-width="0.5"></path><path d="M301.7832 92.2925L152.4473 44.2283" fill="none" stroke="#aaa" stroke-opacity="0.5" stroke-width="0.5"></path><path d="M115.1031 141.0191L184.3082 218.7574" fill="none" stroke="#aaa" stroke-opacity="0.5" stroke-width="0.5"></path><path d="M164.8024 160.2676L253.0818 211.7416" fill="none" stroke="#aaa" stroke-opacity="0.5" stroke-width="0.5"></path><path d="M127.9738 75.0078L310.1705 128.8045" fill="none" stroke="#aaa" stroke-opacity="0.5" stroke-width="0.5"></path><path d="M162.7754 119.0559L254.4519 87.7368" fill="none" stroke="#aaa" stroke-opacity="0.5" stroke-width="0.5"></path><path d="M164.8024 160.2676L188.1577 30.8787" fill="none" stroke="#aaa" stroke-opacity="0.5" stroke-width="0.5"></path><path d="M213.0912 72.3284L301.7832 92.2925" fill="none" stroke="#aaa" stroke-opacity="0.5" stroke-width="0.5"></path><path d="M285.4507 60.0678L203.5352 179.0857" fill="none" stroke="#aaa" stroke-opacity="0.5" stroke-width="0.5"></path><path d="M152.6298 201.7176L285.4507 60.0678" fill="none" stroke="#aaa" stroke-opacity="0.5" stroke-width="0.5"></path><path d="M213.3375 123.5224L164.8024 160.2676" fill="none" stroke="#aaa" stroke-opacity="0.5" stroke-width="0.5"></path><path d="M255.043 41.6544L127.5971 174.9677" fill="none" stroke="#aaa" stroke-opacity="0.5" stroke-width="0.5"></path><path d="M253.0818 211.7416L298.4774 162.4784" fill="none" stroke="#aaa" stroke-opacity="0.5" stroke-width="0.5"></path><path d="M170.8566 77.5714L301.7832 92.2925" fill="none" stroke="#aaa" stroke-opacity="0.5" stroke-width="0.5"></path><path d="M223.2025 29.1884L127.5971 174.9677" fill="none" stroke="#aaa" stroke-opacity="0.5" stroke-width="0.5"></path><path d="M213.0912 72.3284L310.1705 128.8045" fill="none" stroke="#aaa" stroke-opacity="0.5" stroke-width="0.5"></path><path d="M152.6298 201.7176L170.8566 77.5714" fill="none" stroke="#aaa" stroke-opacity="0.5" stroke-width="0.5"></path><path d="M127.9738 75.0078L285.4507 60.0678" fill="none" stroke="#aaa" stroke-opacity="0.5" stroke-width="0.5"></path><path d="M117.9351 107.7047L184.3082 218.7574" fill="none" stroke="#aaa" stroke-opacity="0.5" stroke-width="0.5"></path><path d="M127.5971 174.9677L117.9351 107.7047" fill="none" stroke="#aaa" stroke-opacity="0.5" stroke-width="0.5"></path><path d="M164.8024 160.2676L220.9306 221.078" fill="none" stroke="#aaa" stroke-opacity="0.5" stroke-width="0.5"></path><path d="M127.9738 75.0078L170.8566 77.5714" fill="none" stroke="#aaa" stroke-opacity="0.5" stroke-width="0.5"></path><path d="M170.8566 77.5714L266.9854 130.7268" fill="none" stroke="#aaa" stroke-opacity="0.5" stroke-width="0.5"></path><path d="M170.8566 77.5714L310.1705 128.8045" fill="none" stroke="#aaa" stroke-opacity="0.5" stroke-width="0.5"></path><path d="M280.4838 191.6637L164.8024 160.2676" fill="none" stroke="#aaa" stroke-opacity="0.5" stroke-width="0.5"></path><path d="M152.6298 201.7176L254.4519 87.7368" fill="none" stroke="#aaa" stroke-opacity="0.5" stroke-width="0.5"></path><path d="M152.4473 44.2283L266.9854 130.7268" fill="none" stroke="#aaa" stroke-opacity="0.5" stroke-width="0.5"></path><path d="M213.0912 72.3284L285.4507 60.0678" fill="none" stroke="#aaa" stroke-opacity="0.5" stroke-width="0.5"></path><path d="M162.7754 119.0559L127.9738 75.0078" fill="none" stroke="#aaa" stroke-opacity="0.5" stroke-width="0.5"></path><path d="M127.9738 75.0078L254.4519 87.7368" fill="none" stroke="#aaa" stroke-opacity="0.5" stroke-width="0.5"></path><path d="M244.6619 166.4544L310.1705 128.8045" fill="none" stroke="#aaa" stroke-opacity="0.5" stroke-width="0.5"></path><path d="M170.8566 77.5714L285.4507 60.0678" fill="none" stroke="#aaa" stroke-opacity="0.5" stroke-width="0.5"></path><path d="M162.7754 119.0559L117.9351 107.7047" fill="none" stroke="#aaa" stroke-opacity="0.5" stroke-width="0.5"></path><path d="M170.8566 77.5714L244.6619 166.4544" fill="none" stroke="#aaa" stroke-opacity="0.5" stroke-width="0.5"></path><path d="M115.1031 141.0191L301.7832 92.2925" fill="none" stroke="#aaa" stroke-opacity="0.5" stroke-width="0.5"></path><path d="M223.2025 29.1884L310.1705 128.8045" fill="none" stroke="#aaa" stroke-opacity="0.5" stroke-width="0.5"></path><path d="M170.8566 77.5714L203.5352 179.0857" fill="none" stroke="#aaa" stroke-opacity="0.5" stroke-width="0.5"></path><path d="M127.5971 174.9677L298.4774 162.4784" fill="none" stroke="#aaa" stroke-opacity="0.5" stroke-width="0.5"></path><path d="M213.3375 123.5224L127.5971 174.9677" fill="none" stroke="#aaa" stroke-opacity="0.5" stroke-width="0.5"></path><path d="M115.1031 141.0191L266.9854 130.7268" fill="none" stroke="#aaa" stroke-opacity="0.5" stroke-width="0.5"></path><path d="M115.1031 141.0191L310.1705 128.8045" fill="none" stroke="#aaa" stroke-opacity="0.5" stroke-width="0.5"></path><path d="M254.4519 87.7368L253.0818 211.7416" fill="none" stroke="#aaa" stroke-opacity="0.5" stroke-width="0.5"></path><path d="M152.4473 44.2283L203.5352 179.0857" fill="none" stroke="#aaa" stroke-opacity="0.5" stroke-width="0.5"></path><path d="M152.6298 201.7176L127.9738 75.0078" fill="none" stroke="#aaa" stroke-opacity="0.5" stroke-width="0.5"></path><path d="M301.7832 92.2925L298.4774 162.4784" fill="none" stroke="#aaa" stroke-opacity="0.5" stroke-width="0.5"></path><path d="M223.2025 29.1884L285.4507 60.0678" fill="none" stroke="#aaa" stroke-opacity="0.5" stroke-width="0.5"></path><path d="M280.4838 191.6637L127.5971 174.9677" fill="none" stroke="#aaa" stroke-opacity="0.5" stroke-width="0.5"></path><path d="M188.1577 30.8787L310.1705 128.8045" fill="none" stroke="#aaa" stroke-opacity="0.5" stroke-width="0.5"></path><path d="M255.043 41.6544L170.8566 77.5714" fill="none" stroke="#aaa" stroke-opacity="0.5" stroke-width="0.5"></path><path d="M253.0818 211.7416L184.3082 218.7574" fill="none" stroke="#aaa" stroke-opacity="0.5" stroke-width="0.5"></path><path d="M152.6298 201.7176L117.9351 107.7047" fill="none" stroke="#aaa" stroke-opacity="0.5" stroke-width="0.5"></path><path d="M223.2025 29.1884L170.8566 77.5714" fill="none" stroke="#aaa" stroke-opacity="0.5" stroke-width="0.5"></path><path d="M301.7832 92.2925L188.1577 30.8787" fill="none" stroke="#aaa" stroke-opacity="0.5" stroke-width="0.5"></path><path d="M266.9854 130.7268L298.4774 162.4784" fill="none" stroke="#aaa" stroke-opacity="0.5" stroke-width="0.5"></path><path d="M115.1031 141.0191L285.4507 60.0678" fill="none" stroke="#aaa" stroke-opacity="0.5" stroke-width="0.5"></path><path d="M115.1031 141.0191L244.6619 166.4544" fill="none" stroke="#aaa" stroke-opacity="0.5" stroke-width="0.5"></path><path d="M127.9738 75.0078L117.9351 107.7047" fill="none" stroke="#aaa" stroke-opacity="0.5" stroke-width="0.5"></path><path d="M117.9351 107.7047L266.9854 130.7268" fill="none" stroke="#aaa" stroke-opacity="0.5" stroke-width="0.5"></path><path d="M117.9351 107.7047L310.1705 128.8045" fill="none" stroke="#aaa" stroke-opacity="0.5" stroke-width="0.5"></path><path d="M254.4519 87.7368L220.9306 221.078" fill="none" stroke="#aaa" stroke-opacity="0.5" stroke-width="0.5"></path><path d="M266.9854 130.7268L188.1577 30.8787" fill="none" stroke="#aaa" stroke-opacity="0.5" stroke-width="0.5"></path><path d="M254.4519 87.7368L184.3082 218.7574" fill="none" stroke="#aaa" stroke-opacity="0.5" stroke-width="0.5"></path><path d="M164.8024 160.2676L266.9854 130.7268" fill="none" stroke="#aaa" stroke-opacity="0.5" stroke-width="0.5"></path><path d="M223.2025 29.1884L254.4519 87.7368" fill="none" stroke="#aaa" stroke-opacity="0.5" stroke-width="0.5"></path><path d="M115.1031 141.0191L203.5352 179.0857" fill="none" stroke="#aaa" stroke-opacity="0.5" stroke-width="0.5"></path><path d="M213.3375 123.5224L310.1705 128.8045" fill="none" stroke="#aaa" stroke-opacity="0.5" stroke-width="0.5"></path><path d="M170.8566 77.5714L152.4473 44.2283" fill="none" stroke="#aaa" stroke-opacity="0.5" stroke-width="0.5"></path><path d="M117.9351 107.7047L285.4507 60.0678" fill="none" stroke="#aaa" stroke-opacity="0.5" stroke-width="0.5"></path><path d="M117.9351 107.7047L244.6619 166.4544" fill="none" stroke="#aaa" stroke-opacity="0.5" stroke-width="0.5"></path><path d="M152.6298 201.7176L280.4838 191.6637" fill="none" stroke="#aaa" stroke-opacity="0.5" stroke-width="0.5"></path><path d="M301.7832 92.2925L164.8024 160.2676" fill="none" stroke="#aaa" stroke-opacity="0.5" stroke-width="0.5"></path><path d="M127.9738 75.0078L280.4838 191.6637" fill="none" stroke="#aaa" stroke-opacity="0.5" stroke-width="0.5"></path><path d="M164.8024 160.2676L244.6619 166.4544" fill="none" stroke="#aaa" stroke-opacity="0.5" stroke-width="0.5"></path><path d="M162.7754 119.0559L253.0818 211.7416" fill="none" stroke="#aaa" stroke-opacity="0.5" stroke-width="0.5"></path><path d="M162.7754 119.0559L152.6298 201.7176" fill="none" stroke="#aaa" stroke-opacity="0.5" stroke-width="0.5"></path><path d="M117.9351 107.7047L203.5352 179.0857" fill="none" stroke="#aaa" stroke-opacity="0.5" stroke-width="0.5"></path><path d="M127.5971 174.9677L184.3082 218.7574" fill="none" stroke="#aaa" stroke-opacity="0.5" stroke-width="0.5"></path><path d="M213.3375 123.5224L170.8566 77.5714" fill="none" stroke="#aaa" stroke-opacity="0.5" stroke-width="0.5"></path><path d="M164.8024 160.2676L203.5352 179.0857" fill="none" stroke="#aaa" stroke-opacity="0.5" stroke-width="0.5"></path><path d="M285.4507 60.0678L298.4774 162.4784" fill="none" stroke="#aaa" stroke-opacity="0.5" stroke-width="0.5"></path><path d="M213.0912 72.3284L280.4838 191.6637" fill="none" stroke="#aaa" stroke-opacity="0.5" stroke-width="0.5"></path><path d="M255.043 41.6544L117.9351 107.7047" fill="none" stroke="#aaa" stroke-opacity="0.5" stroke-width="0.5"></path><path d="M280.4838 191.6637L170.8566 77.5714" fill="none" stroke="#aaa" stroke-opacity="0.5" stroke-width="0.5"></path><path d="M115.1031 141.0191L152.4473 44.2283" fill="none" stroke="#aaa" stroke-opacity="0.5" stroke-width="0.5"></path><path d="M213.3375 123.5224L254.4519 87.7368" fill="none" stroke="#aaa" stroke-opacity="0.5" stroke-width="0.5"></path><path d="M223.2025 29.1884L117.9351 107.7047" fill="none" stroke="#aaa" stroke-opacity="0.5" stroke-width="0.5"></path><path d="M162.7754 119.0559L220.9306 221.078" fill="none" stroke="#aaa" stroke-opacity="0.5" stroke-width="0.5"></path><path d="M253.0818 211.7416L310.1705 128.8045" fill="none" stroke="#aaa" stroke-opacity="0.5" stroke-width="0.5"></path><path d="M162.7754 119.0559L184.3082 218.7574" fill="none" stroke="#aaa" stroke-opacity="0.5" stroke-width="0.5"></path><path d="M152.6298 201.7176L253.0818 211.7416" fill="none" stroke="#aaa" stroke-opacity="0.5" stroke-width="0.5"></path><path d="M115.1031 141.0191L213.0912 72.3284" fill="none" stroke="#aaa" stroke-opacity="0.5" stroke-width="0.5"></path><path d="M254.4519 87.7368L301.7832 92.2925" fill="none" stroke="#aaa" stroke-opacity="0.5" stroke-width="0.5"></path><path d="M152.6298 201.7176L188.1577 30.8787" fill="none" stroke="#aaa" stroke-opacity="0.5" stroke-width="0.5"></path><path d="M127.9738 75.0078L253.0818 211.7416" fill="none" stroke="#aaa" stroke-opacity="0.5" stroke-width="0.5"></path><path d="M254.4519 87.7368L266.9854 130.7268" fill="none" stroke="#aaa" stroke-opacity="0.5" stroke-width="0.5"></path><path d="M254.4519 87.7368L310.1705 128.8045" fill="none" stroke="#aaa" stroke-opacity="0.5" stroke-width="0.5"></path><path d="M117.9351 107.7047L152.4473 44.2283" fill="none" stroke="#aaa" stroke-opacity="0.5" stroke-width="0.5"></path><path d="M152.6298 201.7176L115.1031 141.0191" fill="none" stroke="#aaa" stroke-opacity="0.5" stroke-width="0.5"></path><path d="M223.2025 29.1884L280.4838 191.6637" fill="none" stroke="#aaa" stroke-opacity="0.5" stroke-width="0.5"></path><path d="M220.9306 221.078L184.3082 218.7574" fill="none" stroke="#aaa" stroke-opacity="0.5" stroke-width="0.5"></path><path d="M213.0912 72.3284L253.0818 211.7416" fill="none" stroke="#aaa" stroke-opacity="0.5" stroke-width="0.5"></path><path d="M152.6298 201.7176L220.9306 221.078" fill="none" stroke="#aaa" stroke-opacity="0.5" stroke-width="0.5"></path><path d="M127.9738 75.0078L115.1031 141.0191" fill="none" stroke="#aaa" stroke-opacity="0.5" stroke-width="0.5"></path><path d="M255.043 41.6544L298.4774 162.4784" fill="none" stroke="#aaa" stroke-opacity="0.5" stroke-width="0.5"></path><path d="M127.5971 174.9677L301.7832 92.2925" fill="none" stroke="#aaa" stroke-opacity="0.5" stroke-width="0.5"></path><path d="M152.6298 201.7176L184.3082 218.7574" fill="none" stroke="#aaa" stroke-opacity="0.5" stroke-width="0.5"></path><path d="M213.3375 123.5224L127.9738 75.0078" fill="none" stroke="#aaa" stroke-opacity="0.5" stroke-width="0.5"></path><path d="M115.1031 141.0191L280.4838 191.6637" fill="none" stroke="#aaa" stroke-opacity="0.5" stroke-width="0.5"></path><path d="M170.8566 77.5714L298.4774 162.4784" fill="none" stroke="#aaa" stroke-opacity="0.5" stroke-width="0.5"></path><path d="M213.0912 72.3284L188.1577 30.8787" fill="none" stroke="#aaa" stroke-opacity="0.5" stroke-width="0.5"></path><path d="M127.9738 75.0078L220.9306 221.078" fill="none" stroke="#aaa" stroke-opacity="0.5" stroke-width="0.5"></path><path d="M254.4519 87.7368L285.4507 60.0678" fill="none" stroke="#aaa" stroke-opacity="0.5" stroke-width="0.5"></path><path d="M254.4519 87.7368L244.6619 166.4544" fill="none" stroke="#aaa" stroke-opacity="0.5" stroke-width="0.5"></path><path d="M203.5352 179.0857L298.4774 162.4784" fill="none" stroke="#aaa" stroke-opacity="0.5" stroke-width="0.5"></path><path d="M213.3375 123.5224L117.9351 107.7047" fill="none" stroke="#aaa" stroke-opacity="0.5" stroke-width="0.5"></path><path d="M127.9738 75.0078L184.3082 218.7574" fill="none" stroke="#aaa" stroke-opacity="0.5" stroke-width="0.5"></path><path d="M152.4473 44.2283L298.4774 162.4784" fill="none" stroke="#aaa" stroke-opacity="0.5" stroke-width="0.5"></path><path d="M127.5971 174.9677L310.1705 128.8045" fill="none" stroke="#aaa" stroke-opacity="0.5" stroke-width="0.5"></path><path d="M170.8566 77.5714L188.1577 30.8787" fill="none" stroke="#aaa" stroke-opacity="0.5" stroke-width="0.5"></path><path d="M285.4507 60.0678L184.3082 218.7574" fill="none" stroke="#aaa" stroke-opacity="0.5" stroke-width="0.5"></path><path d="M254.4519 87.7368L203.5352 179.0857" fill="none" stroke="#aaa" stroke-opacity="0.5" stroke-width="0.5"></path><path d="M162.7754 119.0559L223.2025 29.1884" fill="none" stroke="#aaa" stroke-opacity="0.5" stroke-width="0.5"></path><path d="M213.0912 72.3284L220.9306 221.078" fill="none" stroke="#aaa" stroke-opacity="0.5" stroke-width="0.5"></path><path d="M280.4838 191.6637L117.9351 107.7047" fill="none" stroke="#aaa" stroke-opacity="0.5" stroke-width="0.5"></path><path d="M244.6619 166.4544L253.0818 211.7416" fill="none" stroke="#aaa" stroke-opacity="0.5" stroke-width="0.5"></path><path d="M301.7832 92.2925L310.1705 128.8045" fill="none" stroke="#aaa" stroke-opacity="0.5" stroke-width="0.5"></path><path d="M162.7754 119.0559L301.7832 92.2925" fill="none" stroke="#aaa" stroke-opacity="0.5" stroke-width="0.5"></path><path d="M244.6619 166.4544L188.1577 30.8787" fill="none" stroke="#aaa" stroke-opacity="0.5" stroke-width="0.5"></path><path d="M127.5971 174.9677L285.4507 60.0678" fill="none" stroke="#aaa" stroke-opacity="0.5" stroke-width="0.5"></path><path d="M255.043 41.6544L253.0818 211.7416" fill="none" stroke="#aaa" stroke-opacity="0.5" stroke-width="0.5"></path><path d="M127.5971 174.9677L244.6619 166.4544" fill="none" stroke="#aaa" stroke-opacity="0.5" stroke-width="0.5"></path><path d="M266.9854 130.7268L310.1705 128.8045" fill="none" stroke="#aaa" stroke-opacity="0.5" stroke-width="0.5"></path><path d="M213.0912 72.3284L164.8024 160.2676" fill="none" stroke="#aaa" stroke-opacity="0.5" stroke-width="0.5"></path><path d="M223.2025 29.1884L253.0818 211.7416" fill="none" stroke="#aaa" stroke-opacity="0.5" stroke-width="0.5"></path><path d="M162.7754 119.0559L266.9854 130.7268" fill="none" stroke="#aaa" stroke-opacity="0.5" stroke-width="0.5"></path><path d="M162.7754 119.0559L310.1705 128.8045" fill="none" stroke="#aaa" stroke-opacity="0.5" stroke-width="0.5"></path><path d="M213.3375 123.5224L280.4838 191.6637" fill="none" stroke="#aaa" stroke-opacity="0.5" stroke-width="0.5"></path><path d="M115.1031 141.0191L298.4774 162.4784" fill="none" stroke="#aaa" stroke-opacity="0.5" stroke-width="0.5"></path><path d="M152.4473 44.2283L253.0818 211.7416" fill="none" stroke="#aaa" stroke-opacity="0.5" stroke-width="0.5"></path><path d="M170.8566 77.5714L164.8024 160.2676" fill="none" stroke="#aaa" stroke-opacity="0.5" stroke-width="0.5"></path><path d="M244.6619 166.4544L220.9306 221.078" fill="none" stroke="#aaa" stroke-opacity="0.5" stroke-width="0.5"></path><path d="M115.1031 141.0191L188.1577 30.8787" fill="none" stroke="#aaa" stroke-opacity="0.5" stroke-width="0.5"></path><path d="M223.2025 29.1884L115.1031 141.0191" fill="none" stroke="#aaa" stroke-opacity="0.5" stroke-width="0.5"></path><path d="M162.7754 119.0559L285.4507 60.0678" fill="none" stroke="#aaa" stroke-opacity="0.5" stroke-width="0.5"></path><path d="M184.3082 218.7574L203.5352 179.0857" fill="none" stroke="#aaa" stroke-opacity="0.5" stroke-width="0.5"></path><path d="M162.7754 119.0559L244.6619 166.4544" fill="none" stroke="#aaa" stroke-opacity="0.5" stroke-width="0.5"></path><path d="M152.6298 201.7176L301.7832 92.2925" fill="none" stroke="#aaa" stroke-opacity="0.5" stroke-width="0.5"></path><path d="M223.2025 29.1884L220.9306 221.078" fill="none" stroke="#aaa" stroke-opacity="0.5" stroke-width="0.5"></path><path d="M255.043 41.6544L184.3082 218.7574" fill="none" stroke="#aaa" stroke-opacity="0.5" stroke-width="0.5"></path><path d="M254.4519 87.7368L152.4473 44.2283" fill="none" stroke="#aaa" stroke-opacity="0.5" stroke-width="0.5"></path><path d="M223.2025 29.1884L184.3082 218.7574" fill="none" stroke="#aaa" stroke-opacity="0.5" stroke-width="0.5"></path><path d="M127.9738 75.0078L301.7832 92.2925" fill="none" stroke="#aaa" stroke-opacity="0.5" stroke-width="0.5"></path><path d="M115.1031 141.0191L220.9306 221.078" fill="none" stroke="#aaa" stroke-opacity="0.5" stroke-width="0.5"></path><path d="M152.6298 201.7176L266.9854 130.7268" fill="none" stroke="#aaa" stroke-opacity="0.5" stroke-width="0.5"></path><path d="M162.7754 119.0559L203.5352 179.0857" fill="none" stroke="#aaa" stroke-opacity="0.5" stroke-width="0.5"></path><path d="M152.4473 44.2283L184.3082 218.7574" fill="none" stroke="#aaa" stroke-opacity="0.5" stroke-width="0.5"></path><path d="M164.8024 160.2676L298.4774 162.4784" fill="none" stroke="#aaa" stroke-opacity="0.5" stroke-width="0.5"></path><path d="M254.4519 87.7368L213.0912 72.3284" fill="none" stroke="#aaa" stroke-opacity="0.5" stroke-width="0.5"></path><path d="M117.9351 107.7047L188.1577 30.8787" fill="none" stroke="#aaa" stroke-opacity="0.5" stroke-width="0.5"></path><path d="M127.9738 75.0078L266.9854 130.7268" fill="none" stroke="#aaa" stroke-opacity="0.5" stroke-width="0.5"></path><path d="M213.3375 123.5224L253.0818 211.7416" fill="none" stroke="#aaa" stroke-opacity="0.5" stroke-width="0.5"></path><path d="M213.3375 123.5224L152.6298 201.7176" fill="none" stroke="#aaa" stroke-opacity="0.5" stroke-width="0.5"></path><path d="M115.1031 141.0191L164.8024 160.2676" fill="none" stroke="#aaa" stroke-opacity="0.5" stroke-width="0.5"></path><path d="M285.4507 60.0678L310.1705 128.8045" fill="none" stroke="#aaa" stroke-opacity="0.5" stroke-width="0.5"></path><path d="M1 0A1 1 0 1 1 1 -0.0001" fill="#5470c6" transform="matrix(17.5,0,0,17.5,266.9854,130.7268)"></path><path d="M1 0A1 1 0 1 1 1 -0.0001" fill="#5470c6" transform="matrix(17.5,0,0,17.5,298.4774,162.4784)"></path><path d="M1 0A1 1 0 1 1 1 -0.0001" fill="#5470c6" transform="matrix(17.5,0,0,17.5,213.3375,123.5224)"></path><path d="M1 0A1 1 0 1 1 1 -0.0001" fill="#5470c6" transform="matrix(17.5,0,0,17.5,280.4838,191.6637)"></path><path d="M1 0A1 1 0 1 1 1 -0.0001" fill="#5470c6" transform="matrix(17.5,0,0,17.5,162.7754,119.0559)"></path><path d="M1 0A1 1 0 1 1 1 -0.0001" fill="#5470c6" transform="matrix(17.5,0,0,17.5,253.0818,211.7416)"></path><path d="M1 0A1 1 0 1 1 1 -0.0001" fill="#5470c6" transform="matrix(17.5,0,0,17.5,244.6619,166.4544)"></path><path d="M1 0A1 1 0 1 1 1 -0.0001" fill="#5470c6" transform="matrix(17.5,0,0,17.5,220.9306,221.078)"></path><path d="M1 0A1 1 0 1 1 1 -0.0001" fill="#5470c6" transform="matrix(17.5,0,0,17.5,184.3082,218.7574)"></path><path d="M1 0A1 1 0 1 1 1 -0.0001" fill="#5470c6" transform="matrix(17.5,0,0,17.5,152.6298,201.7176)"></path><path d="M1 0A1 1 0 1 1 1 -0.0001" fill="#5470c6" transform="matrix(17.5,0,0,17.5,127.5971,174.9677)"></path><path d="M1 0A1 1 0 1 1 1 -0.0001" fill="#5470c6" transform="matrix(17.5,0,0,17.5,115.1031,141.0191)"></path><path d="M1 0A1 1 0 1 1 1 -0.0001" fill="#5470c6" transform="matrix(17.5,0,0,17.5,203.5352,179.0857)"></path><path d="M1 0A1 1 0 1 1 1 -0.0001" fill="#5470c6" transform="matrix(17.5,0,0,17.5,117.9351,107.7047)"></path><path d="M1 0A1 1 0 1 1 1 -0.0001" fill="#5470c6" transform="matrix(17.5,0,0,17.5,164.8024,160.2676)"></path><path d="M1 0A1 1 0 1 1 1 -0.0001" fill="#5470c6" transform="matrix(17.5,0,0,17.5,127.9738,75.0078)"></path><path d="M1 0A1 1 0 1 1 1 -0.0001" fill="#5470c6" transform="matrix(17.5,0,0,17.5,152.4473,44.2283)"></path><path d="M1 0A1 1 0 1 1 1 -0.0001" fill="#5470c6" transform="matrix(17.5,0,0,17.5,170.8566,77.5714)"></path><path d="M1 0A1 1 0 1 1 1 -0.0001" fill="#5470c6" transform="matrix(17.5,0,0,17.5,223.2025,29.1884)"></path><path d="M1 0A1 1 0 1 1 1 -0.0001" fill="#5470c6" transform="matrix(17.5,0,0,17.5,188.1577,30.8787)"></path><path d="M1 0A1 1 0 1 1 1 -0.0001" fill="#5470c6" transform="matrix(17.5,0,0,17.5,255.043,41.6544)"></path><path d="M1 0A1 1 0 1 1 1 -0.0001" fill="#5470c6" transform="matrix(17.5,0,0,17.5,285.4507,60.0678)"></path><path d="M1 0A1 1 0 1 1 1 -0.0001" fill="#5470c6" transform="matrix(17.5,0,0,17.5,213.0912,72.3284)"></path><path d="M1 0A1 1 0 1 1 1 -0.0001" fill="#5470c6" transform="matrix(17.5,0,0,17.5,301.7832,92.2925)"></path><path d="M1 0A1 1 0 1 1 1 -0.0001" fill="#5470c6" transform="matrix(17.5,0,0,17.5,254.4519,87.7368)"></path><path d="M1 0A1 1 0 1 1 1 -0.0001" fill="#5470c6" transform="matrix(17.5,0,0,17.5,310.1705,128.8045)"></path><path d="M-31.2969 -5l62.5938 0l0 32l-62.5937 0Z" fill="rgb(0,0,0)" fill-opacity="0" stroke="#ccc" stroke-width="0" transform="translate(237.5 5)"></path><text dominant-baseline="central" fill="#333" style="font-size:22px;font-family:sans-serif;font-weight:bolder;" text-anchor="middle" transform="translate(237.5 5)" y="11">C137</text></g></svg>