<svg baseprofile="full" height="250" style="position:absolute;left:0;top:0;user-select:none" version="1.1" width="475" xmlns="http://www.w3.org/2000/svg" xmlns:xlink="http://www.w3.org/1999/xlink"><rect fill="none" height="250" id="0" width="475" x="0" y="0"></rect><g><path d="M163.1362 210.6925L216.8931 124.7032" fill="none" stroke="#aaa" stroke-opacity="0.5" stroke-width="0.5"></path><path d="M268.596 125.5464L297.7253 164.246" fill="none" stroke="#aaa" stroke-opacity="0.5" stroke-width="0.5"></path><path d="M114.947 106.8981L202.4697 220.9827" fill="none" stroke="#aaa" stroke-opacity="0.5" stroke-width="0.5"></path><path d="M116.3006 148.4471L134.776 182.6864" fill="none" stroke="#aaa" stroke-opacity="0.5" stroke-width="0.5"></path><path d="M277.6563 195.5029L163.1362 210.6925" fill="none" stroke="#aaa" stroke-opacity="0.5" stroke-width="0.5"></path><path d="M200.5013 27.3L216.8931 124.7032" fill="none" stroke="#aaa" stroke-opacity="0.5" stroke-width="0.5"></path><path d="M232.8664 176.1759L240.7778 31.9767" fill="none" stroke="#aaa" stroke-opacity="0.5" stroke-width="0.5"></path><path d="M160.8298 39.4084L116.3006 148.4471" fill="none" stroke="#aaa" stroke-opacity="0.5" stroke-width="0.5"></path><path d="M311.8196 124.4936L114.947 106.8981" fill="none" stroke="#aaa" stroke-opacity="0.5" stroke-width="0.5"></path><path d="M240.7778 31.9767L180.963 168.8094" fill="none" stroke="#aaa" stroke-opacity="0.5" stroke-width="0.5"></path><path d="M240.7778 31.9767L134.776 182.6864" fill="none" stroke="#aaa" stroke-opacity="0.5" stroke-width="0.5"></path><path d="M268.596 125.5464L311.8196 124.4936" fill="none" stroke="#aaa" stroke-opacity="0.5" stroke-width="0.5"></path><path d="M297.7253 164.246L240.7778 31.9767" fill="none" stroke="#aaa" stroke-opacity="0.5" stroke-width="0.5"></path><path d="M232.8664 176.1759L202.4697 220.9827" fill="none" stroke="#aaa" stroke-opacity="0.5" stroke-width="0.5"></path><path d="M216.8931 124.7032L276.8109 51.872" fill="none" stroke="#aaa" stroke-opacity="0.5" stroke-width="0.5"></path><path d="M158.2648 122.6278L202.4697 220.9827" fill="none" stroke="#aaa" stroke-opacity="0.5" stroke-width="0.5"></path><path d="M297.7253 164.246L202.4697 220.9827" fill="none" stroke="#aaa" stroke-opacity="0.5" stroke-width="0.5"></path><path d="M130.6102 69.615L202.4697 220.9827" fill="none" stroke="#aaa" stroke-opacity="0.5" stroke-width="0.5"></path><path d="M297.7253 164.246L232.8664 176.1759" fill="none" stroke="#aaa" stroke-opacity="0.5" stroke-width="0.5"></path><path d="M277.6563 195.5029L200.5013 27.3" fill="none" stroke="#aaa" stroke-opacity="0.5" stroke-width="0.5"></path><path d="M134.776 182.6864L180.963 168.8094" fill="none" stroke="#aaa" stroke-opacity="0.5" stroke-width="0.5"></path><path d="M232.8664 176.1759L130.6102 69.615" fill="none" stroke="#aaa" stroke-opacity="0.5" stroke-width="0.5"></path><path d="M236.7349 76.9588L240.7778 31.9767" fill="none" stroke="#aaa" stroke-opacity="0.5" stroke-width="0.5"></path><path d="M116.3006 148.4471L114.947 106.8981" fill="none" stroke="#aaa" stroke-opacity="0.5" stroke-width="0.5"></path><path d="M232.8664 176.1759L116.3006 148.4471" fill="none" stroke="#aaa" stroke-opacity="0.5" stroke-width="0.5"></path><path d="M160.8298 39.4084L216.8931 124.7032" fill="none" stroke="#aaa" stroke-opacity="0.5" stroke-width="0.5"></path><path d="M158.2648 122.6278L130.6102 69.615" fill="none" stroke="#aaa" stroke-opacity="0.5" stroke-width="0.5"></path><path d="M216.8931 124.7032L243.042 219.0226" fill="none" stroke="#aaa" stroke-opacity="0.5" stroke-width="0.5"></path><path d="M268.596 125.5464L236.7349 76.9588" fill="none" stroke="#aaa" stroke-opacity="0.5" stroke-width="0.5"></path><path d="M236.7349 76.9588L202.4697 220.9827" fill="none" stroke="#aaa" stroke-opacity="0.5" stroke-width="0.5"></path><path d="M297.7253 164.246L116.3006 148.4471" fill="none" stroke="#aaa" stroke-opacity="0.5" stroke-width="0.5"></path><path d="M163.1362 210.6925L243.042 219.0226" fill="none" stroke="#aaa" stroke-opacity="0.5" stroke-width="0.5"></path><path d="M311.8196 124.4936L130.6102 69.615" fill="none" stroke="#aaa" stroke-opacity="0.5" stroke-width="0.5"></path><path d="M200.5013 27.3L243.042 219.0226" fill="none" stroke="#aaa" stroke-opacity="0.5" stroke-width="0.5"></path><path d="M114.947 106.8981L216.8931 124.7032" fill="none" stroke="#aaa" stroke-opacity="0.5" stroke-width="0.5"></path><path d="M158.2648 122.6278L163.1362 210.6925" fill="none" stroke="#aaa" stroke-opacity="0.5" stroke-width="0.5"></path><path d="M240.7778 31.9767L297.1182 84.1332" fill="none" stroke="#aaa" stroke-opacity="0.5" stroke-width="0.5"></path><path d="M277.6563 195.5029L311.8196 124.4936" fill="none" stroke="#aaa" stroke-opacity="0.5" stroke-width="0.5"></path><path d="M311.8196 124.4936L163.1362 210.6925" fill="none" stroke="#aaa" stroke-opacity="0.5" stroke-width="0.5"></path><path d="M243.042 219.0226L180.963 168.8094" fill="none" stroke="#aaa" stroke-opacity="0.5" stroke-width="0.5"></path><path d="M236.7349 76.9588L130.6102 69.615" fill="none" stroke="#aaa" stroke-opacity="0.5" stroke-width="0.5"></path><path d="M236.7349 76.9588L116.3006 148.4471" fill="none" stroke="#aaa" stroke-opacity="0.5" stroke-width="0.5"></path><path d="M160.8298 39.4084L276.8109 51.872" fill="none" stroke="#aaa" stroke-opacity="0.5" stroke-width="0.5"></path><path d="M268.596 125.5464L180.963 168.8094" fill="none" stroke="#aaa" stroke-opacity="0.5" stroke-width="0.5"></path><path d="M268.596 125.5464L134.776 182.6864" fill="none" stroke="#aaa" stroke-opacity="0.5" stroke-width="0.5"></path><path d="M232.8664 176.1759L216.8931 124.7032" fill="none" stroke="#aaa" stroke-opacity="0.5" stroke-width="0.5"></path><path d="M277.6563 195.5029L276.8109 51.872" fill="none" stroke="#aaa" stroke-opacity="0.5" stroke-width="0.5"></path><path d="M116.3006 148.4471L130.6102 69.615" fill="none" stroke="#aaa" stroke-opacity="0.5" stroke-width="0.5"></path><path d="M158.2648 122.6278L216.8931 124.7032" fill="none" stroke="#aaa" stroke-opacity="0.5" stroke-width="0.5"></path><path d="M236.7349 76.9588L163.1362 210.6925" fill="none" stroke="#aaa" stroke-opacity="0.5" stroke-width="0.5"></path><path d="M297.7253 164.246L216.8931 124.7032" fill="none" stroke="#aaa" stroke-opacity="0.5" stroke-width="0.5"></path><path d="M114.947 106.8981L276.8109 51.872" fill="none" stroke="#aaa" stroke-opacity="0.5" stroke-width="0.5"></path><path d="M268.596 125.5464L160.8298 39.4084" fill="none" stroke="#aaa" stroke-opacity="0.5" stroke-width="0.5"></path><path d="M181.9299 77.9014L202.4697 220.9827" fill="none" stroke="#aaa" stroke-opacity="0.5" stroke-width="0.5"></path><path d="M160.8298 39.4084L243.042 219.0226" fill="none" stroke="#aaa" stroke-opacity="0.5" stroke-width="0.5"></path><path d="M311.8196 124.4936L200.5013 27.3" fill="none" stroke="#aaa" stroke-opacity="0.5" stroke-width="0.5"></path><path d="M163.1362 210.6925L180.963 168.8094" fill="none" stroke="#aaa" stroke-opacity="0.5" stroke-width="0.5"></path><path d="M277.6563 195.5029L236.7349 76.9588" fill="none" stroke="#aaa" stroke-opacity="0.5" stroke-width="0.5"></path><path d="M163.1362 210.6925L134.776 182.6864" fill="none" stroke="#aaa" stroke-opacity="0.5" stroke-width="0.5"></path><path d="M268.596 125.5464L181.9299 77.9014" fill="none" stroke="#aaa" stroke-opacity="0.5" stroke-width="0.5"></path><path d="M232.8664 176.1759L158.2648 122.6278" fill="none" stroke="#aaa" stroke-opacity="0.5" stroke-width="0.5"></path><path d="M200.5013 27.3L180.963 168.8094" fill="none" stroke="#aaa" stroke-opacity="0.5" stroke-width="0.5"></path><path d="M200.5013 27.3L134.776 182.6864" fill="none" stroke="#aaa" stroke-opacity="0.5" stroke-width="0.5"></path><path d="M236.7349 76.9588L216.8931 124.7032" fill="none" stroke="#aaa" stroke-opacity="0.5" stroke-width="0.5"></path><path d="M114.947 106.8981L243.042 219.0226" fill="none" stroke="#aaa" stroke-opacity="0.5" stroke-width="0.5"></path><path d="M297.7253 164.246L276.8109 51.872" fill="none" stroke="#aaa" stroke-opacity="0.5" stroke-width="0.5"></path><path d="M276.8109 51.872L180.963 168.8094" fill="none" stroke="#aaa" stroke-opacity="0.5" stroke-width="0.5"></path><path d="M297.7253 164.246L158.2648 122.6278" fill="none" stroke="#aaa" stroke-opacity="0.5" stroke-width="0.5"></path><path d="M134.776 182.6864L202.4697 220.9827" fill="none" stroke="#aaa" stroke-opacity="0.5" stroke-width="0.5"></path><path d="M243.042 219.0226L297.1182 84.1332" fill="none" stroke="#aaa" stroke-opacity="0.5" stroke-width="0.5"></path><path d="M277.6563 195.5029L180.963 168.8094" fill="none" stroke="#aaa" stroke-opacity="0.5" stroke-width="0.5"></path><path d="M232.8664 176.1759L243.042 219.0226" fill="none" stroke="#aaa" stroke-opacity="0.5" stroke-width="0.5"></path><path d="M268.596 125.5464L297.1182 84.1332" fill="none" stroke="#aaa" stroke-opacity="0.5" stroke-width="0.5"></path><path d="M158.2648 122.6278L243.042 219.0226" fill="none" stroke="#aaa" stroke-opacity="0.5" stroke-width="0.5"></path><path d="M297.7253 164.246L243.042 219.0226" fill="none" stroke="#aaa" stroke-opacity="0.5" stroke-width="0.5"></path><path d="M236.7349 76.9588L158.2648 122.6278" fill="none" stroke="#aaa" stroke-opacity="0.5" stroke-width="0.5"></path><path d="M163.1362 210.6925L114.947 106.8981" fill="none" stroke="#aaa" stroke-opacity="0.5" stroke-width="0.5"></path><path d="M200.5013 27.3L114.947 106.8981" fill="none" stroke="#aaa" stroke-opacity="0.5" stroke-width="0.5"></path><path d="M160.8298 39.4084L134.776 182.6864" fill="none" stroke="#aaa" stroke-opacity="0.5" stroke-width="0.5"></path><path d="M216.8931 124.7032L297.1182 84.1332" fill="none" stroke="#aaa" stroke-opacity="0.5" stroke-width="0.5"></path><path d="M268.596 125.5464L240.7778 31.9767" fill="none" stroke="#aaa" stroke-opacity="0.5" stroke-width="0.5"></path><path d="M163.1362 210.6925L297.1182 84.1332" fill="none" stroke="#aaa" stroke-opacity="0.5" stroke-width="0.5"></path><path d="M277.6563 195.5029L181.9299 77.9014" fill="none" stroke="#aaa" stroke-opacity="0.5" stroke-width="0.5"></path><path d="M181.9299 77.9014L216.8931 124.7032" fill="none" stroke="#aaa" stroke-opacity="0.5" stroke-width="0.5"></path><path d="M114.947 106.8981L134.776 182.6864" fill="none" stroke="#aaa" stroke-opacity="0.5" stroke-width="0.5"></path><path d="M200.5013 27.3L297.1182 84.1332" fill="none" stroke="#aaa" stroke-opacity="0.5" stroke-width="0.5"></path><path d="M236.7349 76.9588L243.042 219.0226" fill="none" stroke="#aaa" stroke-opacity="0.5" stroke-width="0.5"></path><path d="M311.8196 124.4936L236.7349 76.9588" fill="none" stroke="#aaa" stroke-opacity="0.5" stroke-width="0.5"></path><path d="M268.596 125.5464L232.8664 176.1759" fill="none" stroke="#aaa" stroke-opacity="0.5" stroke-width="0.5"></path><path d="M276.8109 51.872L297.1182 84.1332" fill="none" stroke="#aaa" stroke-opacity="0.5" stroke-width="0.5"></path><path d="M232.8664 176.1759L180.963 168.8094" fill="none" stroke="#aaa" stroke-opacity="0.5" stroke-width="0.5"></path><path d="M232.8664 176.1759L134.776 182.6864" fill="none" stroke="#aaa" stroke-opacity="0.5" stroke-width="0.5"></path><path d="M134.776 182.6864L216.8931 124.7032" fill="none" stroke="#aaa" stroke-opacity="0.5" stroke-width="0.5"></path><path d="M158.2648 122.6278L180.963 168.8094" fill="none" stroke="#aaa" stroke-opacity="0.5" stroke-width="0.5"></path><path d="M158.2648 122.6278L134.776 182.6864" fill="none" stroke="#aaa" stroke-opacity="0.5" stroke-width="0.5"></path><path d="M268.596 125.5464L116.3006 148.4471" fill="none" stroke="#aaa" stroke-opacity="0.5" stroke-width="0.5"></path><path d="M297.7253 164.246L134.776 182.6864" fill="none" stroke="#aaa" stroke-opacity="0.5" stroke-width="0.5"></path><path d="M160.8298 39.4084L114.947 106.8981" fill="none" stroke="#aaa" stroke-opacity="0.5" stroke-width="0.5"></path><path d="M240.7778 31.9767L276.8109 51.872" fill="none" stroke="#aaa" stroke-opacity="0.5" stroke-width="0.5"></path><path d="M130.6102 69.615L180.963 168.8094" fill="none" stroke="#aaa" stroke-opacity="0.5" stroke-width="0.5"></path><path d="M130.6102 69.615L134.776 182.6864" fill="none" stroke="#aaa" stroke-opacity="0.5" stroke-width="0.5"></path><path d="M311.8196 124.4936L180.963 168.8094" fill="none" stroke="#aaa" stroke-opacity="0.5" stroke-width="0.5"></path><path d="M180.963 168.8094L202.4697 220.9827" fill="none" stroke="#aaa" stroke-opacity="0.5" stroke-width="0.5"></path><path d="M232.8664 176.1759L160.8298 39.4084" fill="none" stroke="#aaa" stroke-opacity="0.5" stroke-width="0.5"></path><path d="M276.8109 51.872L202.4697 220.9827" fill="none" stroke="#aaa" stroke-opacity="0.5" stroke-width="0.5"></path><path d="M200.5013 27.3L163.1362 210.6925" fill="none" stroke="#aaa" stroke-opacity="0.5" stroke-width="0.5"></path><path d="M268.596 125.5464L200.5013 27.3" fill="none" stroke="#aaa" stroke-opacity="0.5" stroke-width="0.5"></path><path d="M277.6563 195.5029L240.7778 31.9767" fill="none" stroke="#aaa" stroke-opacity="0.5" stroke-width="0.5"></path><path d="M158.2648 122.6278L160.8298 39.4084" fill="none" stroke="#aaa" stroke-opacity="0.5" stroke-width="0.5"></path><path d="M181.9299 77.9014L243.042 219.0226" fill="none" stroke="#aaa" stroke-opacity="0.5" stroke-width="0.5"></path><path d="M163.1362 210.6925L116.3006 148.4471" fill="none" stroke="#aaa" stroke-opacity="0.5" stroke-width="0.5"></path><path d="M236.7349 76.9588L180.963 168.8094" fill="none" stroke="#aaa" stroke-opacity="0.5" stroke-width="0.5"></path><path d="M236.7349 76.9588L134.776 182.6864" fill="none" stroke="#aaa" stroke-opacity="0.5" stroke-width="0.5"></path><path d="M311.8196 124.4936L160.8298 39.4084" fill="none" stroke="#aaa" stroke-opacity="0.5" stroke-width="0.5"></path><path d="M277.6563 195.5029L202.4697 220.9827" fill="none" stroke="#aaa" stroke-opacity="0.5" stroke-width="0.5"></path><path d="M130.6102 69.615L181.9299 77.9014" fill="none" stroke="#aaa" stroke-opacity="0.5" stroke-width="0.5"></path><path d="M232.8664 176.1759L114.947 106.8981" fill="none" stroke="#aaa" stroke-opacity="0.5" stroke-width="0.5"></path><path d="M277.6563 195.5029L232.8664 176.1759" fill="none" stroke="#aaa" stroke-opacity="0.5" stroke-width="0.5"></path><path d="M311.8196 124.4936L181.9299 77.9014" fill="none" stroke="#aaa" stroke-opacity="0.5" stroke-width="0.5"></path><path d="M268.596 125.5464L216.8931 124.7032" fill="none" stroke="#aaa" stroke-opacity="0.5" stroke-width="0.5"></path><path d="M116.3006 148.4471L180.963 168.8094" fill="none" stroke="#aaa" stroke-opacity="0.5" stroke-width="0.5"></path><path d="M158.2648 122.6278L114.947 106.8981" fill="none" stroke="#aaa" stroke-opacity="0.5" stroke-width="0.5"></path><path d="M297.7253 164.246L114.947 106.8981" fill="none" stroke="#aaa" stroke-opacity="0.5" stroke-width="0.5"></path><path d="M160.8298 39.4084L130.6102 69.615" fill="none" stroke="#aaa" stroke-opacity="0.5" stroke-width="0.5"></path><path d="M236.7349 76.9588L160.8298 39.4084" fill="none" stroke="#aaa" stroke-opacity="0.5" stroke-width="0.5"></path><path d="M232.8664 176.1759L297.1182 84.1332" fill="none" stroke="#aaa" stroke-opacity="0.5" stroke-width="0.5"></path><path d="M134.776 182.6864L243.042 219.0226" fill="none" stroke="#aaa" stroke-opacity="0.5" stroke-width="0.5"></path><path d="M277.6563 195.5029L116.3006 148.4471" fill="none" stroke="#aaa" stroke-opacity="0.5" stroke-width="0.5"></path><path d="M158.2648 122.6278L297.1182 84.1332" fill="none" stroke="#aaa" stroke-opacity="0.5" stroke-width="0.5"></path><path d="M130.6102 69.615L297.1182 84.1332" fill="none" stroke="#aaa" stroke-opacity="0.5" stroke-width="0.5"></path><path d="M114.947 106.8981L130.6102 69.615" fill="none" stroke="#aaa" stroke-opacity="0.5" stroke-width="0.5"></path><path d="M160.8298 39.4084L163.1362 210.6925" fill="none" stroke="#aaa" stroke-opacity="0.5" stroke-width="0.5"></path><path d="M243.042 219.0226L276.8109 51.872" fill="none" stroke="#aaa" stroke-opacity="0.5" stroke-width="0.5"></path><path d="M311.8196 124.4936L297.1182 84.1332" fill="none" stroke="#aaa" stroke-opacity="0.5" stroke-width="0.5"></path><path d="M116.3006 148.4471L181.9299 77.9014" fill="none" stroke="#aaa" stroke-opacity="0.5" stroke-width="0.5"></path><path d="M236.7349 76.9588L114.947 106.8981" fill="none" stroke="#aaa" stroke-opacity="0.5" stroke-width="0.5"></path><path d="M268.596 125.5464L276.8109 51.872" fill="none" stroke="#aaa" stroke-opacity="0.5" stroke-width="0.5"></path><path d="M268.596 125.5464L158.2648 122.6278" fill="none" stroke="#aaa" stroke-opacity="0.5" stroke-width="0.5"></path><path d="M181.9299 77.9014L180.963 168.8094" fill="none" stroke="#aaa" stroke-opacity="0.5" stroke-width="0.5"></path><path d="M181.9299 77.9014L134.776 182.6864" fill="none" stroke="#aaa" stroke-opacity="0.5" stroke-width="0.5"></path><path d="M240.7778 31.9767L181.9299 77.9014" fill="none" stroke="#aaa" stroke-opacity="0.5" stroke-width="0.5"></path><path d="M158.2648 122.6278L240.7778 31.9767" fill="none" stroke="#aaa" stroke-opacity="0.5" stroke-width="0.5"></path><path d="M236.7349 76.9588L297.1182 84.1332" fill="none" stroke="#aaa" stroke-opacity="0.5" stroke-width="0.5"></path><path d="M297.7253 164.246L130.6102 69.615" fill="none" stroke="#aaa" stroke-opacity="0.5" stroke-width="0.5"></path><path d="M311.8196 124.4936L240.7778 31.9767" fill="none" stroke="#aaa" stroke-opacity="0.5" stroke-width="0.5"></path><path d="M277.6563 195.5029L216.8931 124.7032" fill="none" stroke="#aaa" stroke-opacity="0.5" stroke-width="0.5"></path><path d="M232.8664 176.1759L163.1362 210.6925" fill="none" stroke="#aaa" stroke-opacity="0.5" stroke-width="0.5"></path><path d="M268.596 125.5464L243.042 219.0226" fill="none" stroke="#aaa" stroke-opacity="0.5" stroke-width="0.5"></path><path d="M163.1362 210.6925L276.8109 51.872" fill="none" stroke="#aaa" stroke-opacity="0.5" stroke-width="0.5"></path><path d="M160.8298 39.4084L200.5013 27.3" fill="none" stroke="#aaa" stroke-opacity="0.5" stroke-width="0.5"></path><path d="M116.3006 148.4471L297.1182 84.1332" fill="none" stroke="#aaa" stroke-opacity="0.5" stroke-width="0.5"></path><path d="M311.8196 124.4936L202.4697 220.9827" fill="none" stroke="#aaa" stroke-opacity="0.5" stroke-width="0.5"></path><path d="M200.5013 27.3L276.8109 51.872" fill="none" stroke="#aaa" stroke-opacity="0.5" stroke-width="0.5"></path><path d="M297.7253 164.246L163.1362 210.6925" fill="none" stroke="#aaa" stroke-opacity="0.5" stroke-width="0.5"></path><path d="M311.8196 124.4936L232.8664 176.1759" fill="none" stroke="#aaa" stroke-opacity="0.5" stroke-width="0.5"></path><path d="M158.2648 122.6278L116.3006 148.4471" fill="none" stroke="#aaa" stroke-opacity="0.5" stroke-width="0.5"></path><path d="M277.6563 195.5029L297.7253 164.246" fill="none" stroke="#aaa" stroke-opacity="0.5" stroke-width="0.5"></path><path d="M116.3006 148.4471L240.7778 31.9767" fill="none" stroke="#aaa" stroke-opacity="0.5" stroke-width="0.5"></path><path d="M277.6563 195.5029L158.2648 122.6278" fill="none" stroke="#aaa" stroke-opacity="0.5" stroke-width="0.5"></path><path d="M311.8196 124.4936L116.3006 148.4471" fill="none" stroke="#aaa" stroke-opacity="0.5" stroke-width="0.5"></path><path d="M232.8664 176.1759L200.5013 27.3" fill="none" stroke="#aaa" stroke-opacity="0.5" stroke-width="0.5"></path><path d="M116.3006 148.4471L202.4697 220.9827" fill="none" stroke="#aaa" stroke-opacity="0.5" stroke-width="0.5"></path><path d="M181.9299 77.9014L297.1182 84.1332" fill="none" stroke="#aaa" stroke-opacity="0.5" stroke-width="0.5"></path><path d="M158.2648 122.6278L200.5013 27.3" fill="none" stroke="#aaa" stroke-opacity="0.5" stroke-width="0.5"></path><path d="M297.7253 164.246L200.5013 27.3" fill="none" stroke="#aaa" stroke-opacity="0.5" stroke-width="0.5"></path><path d="M216.8931 124.7032L180.963 168.8094" fill="none" stroke="#aaa" stroke-opacity="0.5" stroke-width="0.5"></path><path d="M240.7778 31.9767L202.4697 220.9827" fill="none" stroke="#aaa" stroke-opacity="0.5" stroke-width="0.5"></path><path d="M277.6563 195.5029L243.042 219.0226" fill="none" stroke="#aaa" stroke-opacity="0.5" stroke-width="0.5"></path><path d="M268.596 125.5464L277.6563 195.5029" fill="none" stroke="#aaa" stroke-opacity="0.5" stroke-width="0.5"></path><path d="M130.6102 69.615L216.8931 124.7032" fill="none" stroke="#aaa" stroke-opacity="0.5" stroke-width="0.5"></path><path d="M134.776 182.6864L297.1182 84.1332" fill="none" stroke="#aaa" stroke-opacity="0.5" stroke-width="0.5"></path><path d="M236.7349 76.9588L200.5013 27.3" fill="none" stroke="#aaa" stroke-opacity="0.5" stroke-width="0.5"></path><path d="M311.8196 124.5L216.8931 124.5" fill="none" stroke="#aaa" stroke-opacity="0.5" stroke-width="0.5"></path><path d="M240.7778 31.9767L130.6102 69.615" fill="none" stroke="#aaa" stroke-opacity="0.5" stroke-width="0.5"></path><path d="M163.1362 210.6925L181.9299 77.9014" fill="none" stroke="#aaa" stroke-opacity="0.5" stroke-width="0.5"></path><path d="M232.8664 176.1759L276.8109 51.872" fill="none" stroke="#aaa" stroke-opacity="0.5" stroke-width="0.5"></path><path d="M200.5013 27.3L181.9299 77.9014" fill="none" stroke="#aaa" stroke-opacity="0.5" stroke-width="0.5"></path><path d="M158.2648 122.6278L276.8109 51.872" fill="none" stroke="#aaa" stroke-opacity="0.5" stroke-width="0.5"></path><path d="M268.596 125.5464L114.947 106.8981" fill="none" stroke="#aaa" stroke-opacity="0.5" stroke-width="0.5"></path><path d="M311.8196 124.4936L297.7253 164.246" fill="none" stroke="#aaa" stroke-opacity="0.5" stroke-width="0.5"></path><path d="M130.6102 69.615L276.8109 51.872" fill="none" stroke="#aaa" stroke-opacity="0.5" stroke-width="0.5"></path><path d="M116.3006 148.4471L216.8931 124.7032" fill="none" stroke="#aaa" stroke-opacity="0.5" stroke-width="0.5"></path><path d="M311.8196 124.4936L276.8109 51.872" fill="none" stroke="#aaa" stroke-opacity="0.5" stroke-width="0.5"></path><path d="M311.8196 124.4936L158.2648 122.6278" fill="none" stroke="#aaa" stroke-opacity="0.5" stroke-width="0.5"></path><path d="M160.8298 39.4084L180.963 168.8094" fill="none" stroke="#aaa" stroke-opacity="0.5" stroke-width="0.5"></path><path d="M232.8664 176.1759L236.7349 76.9588" fill="none" stroke="#aaa" stroke-opacity="0.5" stroke-width="0.5"></path><path d="M277.6563 195.5029L134.776 182.6864" fill="none" stroke="#aaa" stroke-opacity="0.5" stroke-width="0.5"></path><path d="M243.042 219.0226L202.4697 220.9827" fill="none" stroke="#aaa" stroke-opacity="0.5" stroke-width="0.5"></path><path d="M297.7253 164.246L236.7349 76.9588" fill="none" stroke="#aaa" stroke-opacity="0.5" stroke-width="0.5"></path><path d="M240.7778 31.9767L216.8931 124.7032" fill="none" stroke="#aaa" stroke-opacity="0.5" stroke-width="0.5"></path><path d="M114.947 106.8981L180.963 168.8094" fill="none" stroke="#aaa" stroke-opacity="0.5" stroke-width="0.5"></path><path d="M268.596 125.5464L202.4697 220.9827" fill="none" stroke="#aaa" stroke-opacity="0.5" stroke-width="0.5"></path><path d="M236.7349 76.9588L276.8109 51.872" fill="none" stroke="#aaa" stroke-opacity="0.5" stroke-width="0.5"></path><path d="M130.6102 69.615L243.042 219.0226" fill="none" stroke="#aaa" stroke-opacity="0.5" stroke-width="0.5"></path><path d="M311.8196 124.4936L243.042 219.0226" fill="none" stroke="#aaa" stroke-opacity="0.5" stroke-width="0.5"></path><path d="M277.6563 195.5029L160.8298 39.4084" fill="none" stroke="#aaa" stroke-opacity="0.5" stroke-width="0.5"></path><path d="M160.8298 39.4084L181.9299 77.9014" fill="none" stroke="#aaa" stroke-opacity="0.5" stroke-width="0.5"></path><path d="M116.3006 148.4471L276.8109 51.872" fill="none" stroke="#aaa" stroke-opacity="0.5" stroke-width="0.5"></path><path d="M163.1362 210.6925L240.7778 31.9767" fill="none" stroke="#aaa" stroke-opacity="0.5" stroke-width="0.5"></path><path d="M297.1182 84.1332L202.4697 220.9827" fill="none" stroke="#aaa" stroke-opacity="0.5" stroke-width="0.5"></path><path d="M216.8931 124.7032L202.4697 220.9827" fill="none" stroke="#aaa" stroke-opacity="0.5" stroke-width="0.5"></path><path d="M268.596 125.5464L130.6102 69.615" fill="none" stroke="#aaa" stroke-opacity="0.5" stroke-width="0.5"></path><path d="M200.5013 27.3L240.7778 31.9767" fill="none" stroke="#aaa" stroke-opacity="0.5" stroke-width="0.5"></path><path d="M163.1362 210.6925L202.4697 220.9827" fill="none" stroke="#aaa" stroke-opacity="0.5" stroke-width="0.5"></path><path d="M297.7253 164.246L180.963 168.8094" fill="none" stroke="#aaa" stroke-opacity="0.5" stroke-width="0.5"></path><path d="M114.947 106.8981L181.9299 77.9014" fill="none" stroke="#aaa" stroke-opacity="0.5" stroke-width="0.5"></path><path d="M180.963 168.8094L297.1182 84.1332" fill="none" stroke="#aaa" stroke-opacity="0.5" stroke-width="0.5"></path><path d="M277.6563 195.5029L114.947 106.8981" fill="none" stroke="#aaa" stroke-opacity="0.5" stroke-width="0.5"></path><path d="M200.5013 27.3L202.4697 220.9827" fill="none" stroke="#aaa" stroke-opacity="0.5" stroke-width="0.5"></path><path d="M268.596 125.5464L163.1362 210.6925" fill="none" stroke="#aaa" stroke-opacity="0.5" stroke-width="0.5"></path><path d="M116.3006 148.4471L243.042 219.0226" fill="none" stroke="#aaa" stroke-opacity="0.5" stroke-width="0.5"></path><path d="M160.8298 39.4084L297.1182 84.1332" fill="none" stroke="#aaa" stroke-opacity="0.5" stroke-width="0.5"></path><path d="M232.8664 176.1759L181.9299 77.9014" fill="none" stroke="#aaa" stroke-opacity="0.5" stroke-width="0.5"></path><path d="M297.7253 164.246L160.8298 39.4084" fill="none" stroke="#aaa" stroke-opacity="0.5" stroke-width="0.5"></path><path d="M163.1362 210.6925L130.6102 69.615" fill="none" stroke="#aaa" stroke-opacity="0.5" stroke-width="0.5"></path><path d="M277.6563 195.5029L297.1182 84.1332" fill="none" stroke="#aaa" stroke-opacity="0.5" stroke-width="0.5"></path><path d="M181.9299 77.9014L276.8109 51.872" fill="none" stroke="#aaa" stroke-opacity="0.5" stroke-width="0.5"></path><path d="M240.7778 31.9767L243.042 219.0226" fill="none" stroke="#aaa" stroke-opacity="0.5" stroke-width="0.5"></path><path d="M158.2648 122.6278L181.9299 77.9014" fill="none" stroke="#aaa" stroke-opacity="0.5" stroke-width="0.5"></path><path d="M297.7253 164.246L181.9299 77.9014" fill="none" stroke="#aaa" stroke-opacity="0.5" stroke-width="0.5"></path><path d="M200.5013 27.3L130.6102 69.615" fill="none" stroke="#aaa" stroke-opacity="0.5" stroke-width="0.5"></path><path d="M114.947 106.8981L297.1182 84.1332" fill="none" stroke="#aaa" stroke-opacity="0.5" stroke-width="0.5"></path><path d="M200.5013 27.3L116.3006 148.4471" fill="none" stroke="#aaa" stroke-opacity="0.5" stroke-width="0.5"></path><path d="M311.8196 124.4936L134.776 182.6864" fill="none" stroke="#aaa" stroke-opacity="0.5" stroke-width="0.5"></path><path d="M160.8298 39.4084L240.7778 31.9767" fill="none" stroke="#aaa" stroke-opacity="0.5" stroke-width="0.5"></path><path d="M160.8298 39.4084L202.4697 220.9827" fill="none" stroke="#aaa" stroke-opacity="0.5" stroke-width="0.5"></path><path d="M134.776 182.6864L276.8109 51.872" fill="none" stroke="#aaa" stroke-opacity="0.5" stroke-width="0.5"></path><path d="M277.6563 195.5029L130.6102 69.615" fill="none" stroke="#aaa" stroke-opacity="0.5" stroke-width="0.5"></path><path d="M114.947 106.8981L240.7778 31.9767" fill="none" stroke="#aaa" stroke-opacity="0.5" stroke-width="0.5"></path><path d="M236.7349 76.9588L181.9299 77.9014" fill="none" stroke="#aaa" stroke-opacity="0.5" stroke-width="0.5"></path><path d="M297.7253 164.246L297.1182 84.1332" fill="none" stroke="#aaa" stroke-opacity="0.5" stroke-width="0.5"></path><path d="M1 0A1 1 0 1 1 1 -0.0001" fill="#5470c6" transform="matrix(18,0,0,18,297.7253,164.246)"></path><path d="M1 0A1 1 0 1 1 1 -0.0001" fill="#5470c6" transform="matrix(18,0,0,18,277.6563,195.5029)"></path><path d="M1 0A1 1 0 1 1 1 -0.0001" fill="#5470c6" transform="matrix(18,0,0,18,268.596,125.5464)"></path><path d="M1 0A1 1 0 1 1 1 -0.0001" fill="#5470c6" transform="matrix(18,0,0,18,243.042,219.0226)"></path><path d="M1 0A1 1 0 1 1 1 -0.0001" fill="#5470c6" transform="matrix(18,0,0,18,232.8664,176.1759)"></path><path d="M1 0A1 1 0 1 1 1 -0.0001" fill="#5470c6" transform="matrix(18,0,0,18,202.4697,220.9827)"></path><path d="M1 0A1 1 0 1 1 1 -0.0001" fill="#5470c6" transform="matrix(18,0,0,18,163.1362,210.6925)"></path><path d="M1 0A1 1 0 1 1 1 -0.0001" fill="#5470c6" transform="matrix(18,0,0,18,216.8931,124.7032)"></path><path d="M1 0A1 1 0 1 1 1 -0.0001" fill="#5470c6" transform="matrix(18,0,0,18,134.776,182.6864)"></path><path d="M1 0A1 1 0 1 1 1 -0.0001" fill="#5470c6" transform="matrix(18,0,0,18,116.3006,148.4471)"></path><path d="M1 0A1 1 0 1 1 1 -0.0001" fill="#5470c6" transform="matrix(18,0,0,18,180.963,168.8094)"></path><path d="M1 0A1 1 0 1 1 1 -0.0001" fill="#5470c6" transform="matrix(18,0,0,18,114.947,106.8981)"></path><path d="M1 0A1 1 0 1 1 1 -0.0001" fill="#5470c6" transform="matrix(18,0,0,18,130.6102,69.615)"></path><path d="M1 0A1 1 0 1 1 1 -0.0001" fill="#5470c6" transform="matrix(18,0,0,18,160.8298,39.4084)"></path><path d="M1 0A1 1 0 1 1 1 -0.0001" fill="#5470c6" transform="matrix(18,0,0,18,200.5013,27.3)"></path><path d="M1 0A1 1 0 1 1 1 -0.0001" fill="#5470c6" transform="matrix(18,0,0,18,158.2648,122.6278)"></path><path d="M1 0A1 1 0 1 1 1 -0.0001" fill="#5470c6" transform="matrix(18,0,0,18,181.9299,77.9014)"></path><path d="M1 0A1 1 0 1 1 1 -0.0001" fill="#5470c6" transform="matrix(18,0,0,18,240.7778,31.9767)"></path><path d="M1 0A1 1 0 1 1 1 -0.0001" fill="#5470c6" transform="matrix(18,0,0,18,276.8109,51.872)"></path><path d="M1 0A1 1 0 1 1 1 -0.0001" fill="#5470c6" transform="matrix(18,0,0,18,297.1182,84.1332)"></path><path d="M1 0A1 1 0 1 1 1 -0.0001" fill="#5470c6" transform="matrix(18,0,0,18,311.8196,124.4936)"></path><path d="M1 0A1 1 0 1 1 1 -0.0001" fill="#5470c6" transform="matrix(18,0,0,18,236.7349,76.9588)"></path><path d="M-31.2969 -5l62.5938 0l0 32l-62.5937 0Z" fill="rgb(0,0,0)" fill-opacity="0" stroke="#ccc" stroke-width="0" transform="translate(237.5 5)"></path><text dominant-baseline="central" fill="#333" style="font-size:22px;font-family:sans-serif;font-weight:bolder;" text-anchor="middle" transform="translate(237.5 5)" y="11">C138</text></g></svg>