<svg baseprofile="full" height="250" style="position:absolute;left:0;top:0;user-select:none" version="1.1" width="475" xmlns="http://www.w3.org/2000/svg" xmlns:xlink="http://www.w3.org/1999/xlink"><rect fill="none" height="250" id="0" width="475" x="0" y="0"></rect><g><path d="M118.4244 159.3033L161.6732 110.2295" fill="none" stroke="#aaa" stroke-opacity="0.5" stroke-width="0.5"></path><path d="M153.4502 43.9815L118.4244 159.3033" fill="none" stroke="#aaa" stroke-opacity="0.5" stroke-width="0.5"></path><path d="M112.4417 117.7219L161.6732 110.2295" fill="none" stroke="#aaa" stroke-opacity="0.5" stroke-width="0.5"></path><path d="M251.684 84.4634L125.6434 76.0299" fill="none" stroke="#aaa" stroke-opacity="0.5" stroke-width="0.5"></path><path d="M153.4502 43.9815L194.2918 28.8232" fill="none" stroke="#aaa" stroke-opacity="0.5" stroke-width="0.5"></path><path d="M112.4417 117.7219L235.8281 31.1638" fill="none" stroke="#aaa" stroke-opacity="0.5" stroke-width="0.5"></path><path d="M145.3622 200.1257L266.3643 144.9372" fill="none" stroke="#aaa" stroke-opacity="0.5" stroke-width="0.5"></path><path d="M118.4244 159.3033L300.9094 86.5612" fill="none" stroke="#aaa" stroke-opacity="0.5" stroke-width="0.5"></path><path d="M112.4417 117.7219L300.9094 86.5612" fill="none" stroke="#aaa" stroke-opacity="0.5" stroke-width="0.5"></path><path d="M277.2207 47.7116L266.3643 144.9372" fill="none" stroke="#aaa" stroke-opacity="0.5" stroke-width="0.5"></path><path d="M217.7434 128.4452L125.6434 76.0299" fill="none" stroke="#aaa" stroke-opacity="0.5" stroke-width="0.5"></path><path d="M112.4417 117.7219L118.4244 159.3033" fill="none" stroke="#aaa" stroke-opacity="0.5" stroke-width="0.5"></path><path d="M118.4244 159.3033L194.2918 28.8232" fill="none" stroke="#aaa" stroke-opacity="0.5" stroke-width="0.5"></path><path d="M112.4417 117.7219L194.2918 28.8232" fill="none" stroke="#aaa" stroke-opacity="0.5" stroke-width="0.5"></path><path d="M235.8281 31.1638L267.16 202.5863" fill="none" stroke="#aaa" stroke-opacity="0.5" stroke-width="0.5"></path><path d="M153.4502 43.9815L310.1805 126.2991" fill="none" stroke="#aaa" stroke-opacity="0.5" stroke-width="0.5"></path><path d="M230.9491 223.8479L301.0135 172.9981" fill="none" stroke="#aaa" stroke-opacity="0.5" stroke-width="0.5"></path><path d="M184.2015 220.2229L125.6434 76.0299" fill="none" stroke="#aaa" stroke-opacity="0.5" stroke-width="0.5"></path><path d="M153.4502 43.9815L301.0135 172.9981" fill="none" stroke="#aaa" stroke-opacity="0.5" stroke-width="0.5"></path><path d="M145.3622 200.1257L164.5775 162.2262" fill="none" stroke="#aaa" stroke-opacity="0.5" stroke-width="0.5"></path><path d="M267.16 202.5863L230.9491 223.8479" fill="none" stroke="#aaa" stroke-opacity="0.5" stroke-width="0.5"></path><path d="M145.3622 200.1257L230.9491 223.8479" fill="none" stroke="#aaa" stroke-opacity="0.5" stroke-width="0.5"></path><path d="M277.2207 47.7116L230.9491 223.8479" fill="none" stroke="#aaa" stroke-opacity="0.5" stroke-width="0.5"></path><path d="M112.4417 117.7219L310.1805 126.2991" fill="none" stroke="#aaa" stroke-opacity="0.5" stroke-width="0.5"></path><path d="M112.4417 117.7219L301.0135 172.9981" fill="none" stroke="#aaa" stroke-opacity="0.5" stroke-width="0.5"></path><path d="M184.2015 220.2229L266.3643 144.9372" fill="none" stroke="#aaa" stroke-opacity="0.5" stroke-width="0.5"></path><path d="M216.3854 183.0603L198.1393 74.2618" fill="none" stroke="#aaa" stroke-opacity="0.5" stroke-width="0.5"></path><path d="M164.5775 162.2262L310.1805 126.2991" fill="none" stroke="#aaa" stroke-opacity="0.5" stroke-width="0.5"></path><path d="M164.5775 162.2262L125.6434 76.0299" fill="none" stroke="#aaa" stroke-opacity="0.5" stroke-width="0.5"></path><path d="M235.8281 31.1638L198.1393 74.2618" fill="none" stroke="#aaa" stroke-opacity="0.5" stroke-width="0.5"></path><path d="M145.3622 200.1257L277.2207 47.7116" fill="none" stroke="#aaa" stroke-opacity="0.5" stroke-width="0.5"></path><path d="M145.3622 200.1257L217.7434 128.4452" fill="none" stroke="#aaa" stroke-opacity="0.5" stroke-width="0.5"></path><path d="M216.3854 183.0603L161.6732 110.2295" fill="none" stroke="#aaa" stroke-opacity="0.5" stroke-width="0.5"></path><path d="M235.8281 31.1638L161.6732 110.2295" fill="none" stroke="#aaa" stroke-opacity="0.5" stroke-width="0.5"></path><path d="M145.3622 200.1257L251.684 84.4634" fill="none" stroke="#aaa" stroke-opacity="0.5" stroke-width="0.5"></path><path d="M230.9491 223.8479L216.3854 183.0603" fill="none" stroke="#aaa" stroke-opacity="0.5" stroke-width="0.5"></path><path d="M216.3854 183.0603L300.9094 86.5612" fill="none" stroke="#aaa" stroke-opacity="0.5" stroke-width="0.5"></path><path d="M235.8281 31.1638L300.9094 86.5612" fill="none" stroke="#aaa" stroke-opacity="0.5" stroke-width="0.5"></path><path d="M145.3622 200.1257L184.2015 220.2229" fill="none" stroke="#aaa" stroke-opacity="0.5" stroke-width="0.5"></path><path d="M153.4502 43.9815L216.3854 183.0603" fill="none" stroke="#aaa" stroke-opacity="0.5" stroke-width="0.5"></path><path d="M217.7434 128.4452L267.16 202.5863" fill="none" stroke="#aaa" stroke-opacity="0.5" stroke-width="0.5"></path><path d="M184.2015 220.2229L230.9491 223.8479" fill="none" stroke="#aaa" stroke-opacity="0.5" stroke-width="0.5"></path><path d="M266.3643 144.9372L125.6434 76.0299" fill="none" stroke="#aaa" stroke-opacity="0.5" stroke-width="0.5"></path><path d="M216.3854 183.0603L118.4244 159.3033" fill="none" stroke="#aaa" stroke-opacity="0.5" stroke-width="0.5"></path><path d="M216.3854 183.0603L194.2918 28.8232" fill="none" stroke="#aaa" stroke-opacity="0.5" stroke-width="0.5"></path><path d="M235.8281 31.1638L118.4244 159.3033" fill="none" stroke="#aaa" stroke-opacity="0.5" stroke-width="0.5"></path><path d="M235.8281 31.1638L194.2918 28.8232" fill="none" stroke="#aaa" stroke-opacity="0.5" stroke-width="0.5"></path><path d="M112.4417 117.7219L216.3854 183.0603" fill="none" stroke="#aaa" stroke-opacity="0.5" stroke-width="0.5"></path><path d="M153.4502 43.9815L267.16 202.5863" fill="none" stroke="#aaa" stroke-opacity="0.5" stroke-width="0.5"></path><path d="M153.4502 43.9815L230.9491 223.8479" fill="none" stroke="#aaa" stroke-opacity="0.5" stroke-width="0.5"></path><path d="M184.2015 220.2229L277.2207 47.7116" fill="none" stroke="#aaa" stroke-opacity="0.5" stroke-width="0.5"></path><path d="M164.5775 162.2262L216.3854 183.0603" fill="none" stroke="#aaa" stroke-opacity="0.5" stroke-width="0.5"></path><path d="M251.684 84.4634L198.1393 74.2618" fill="none" stroke="#aaa" stroke-opacity="0.5" stroke-width="0.5"></path><path d="M235.8281 31.1638L310.1805 126.2991" fill="none" stroke="#aaa" stroke-opacity="0.5" stroke-width="0.5"></path><path d="M216.3854 183.0603L301.0135 172.9981" fill="none" stroke="#aaa" stroke-opacity="0.5" stroke-width="0.5"></path><path d="M112.4417 117.7219L267.16 202.5863" fill="none" stroke="#aaa" stroke-opacity="0.5" stroke-width="0.5"></path><path d="M184.2015 220.2229L251.684 84.4634" fill="none" stroke="#aaa" stroke-opacity="0.5" stroke-width="0.5"></path><path d="M112.4417 117.7219L164.5775 162.2262" fill="none" stroke="#aaa" stroke-opacity="0.5" stroke-width="0.5"></path><path d="M235.8281 31.1638L301.0135 172.9981" fill="none" stroke="#aaa" stroke-opacity="0.5" stroke-width="0.5"></path><path d="M217.7434 128.4452L198.1393 74.2618" fill="none" stroke="#aaa" stroke-opacity="0.5" stroke-width="0.5"></path><path d="M112.4417 117.7219L230.9491 223.8479" fill="none" stroke="#aaa" stroke-opacity="0.5" stroke-width="0.5"></path><path d="M153.4502 43.9815L277.2207 47.7116" fill="none" stroke="#aaa" stroke-opacity="0.5" stroke-width="0.5"></path><path d="M251.684 84.4634L161.6732 110.2295" fill="none" stroke="#aaa" stroke-opacity="0.5" stroke-width="0.5"></path><path d="M153.4502 43.9815L145.3622 200.1257" fill="none" stroke="#aaa" stroke-opacity="0.5" stroke-width="0.5"></path><path d="M153.4502 43.9815L217.7434 128.4452" fill="none" stroke="#aaa" stroke-opacity="0.5" stroke-width="0.5"></path><path d="M251.684 84.4634L235.8281 31.1638" fill="none" stroke="#aaa" stroke-opacity="0.5" stroke-width="0.5"></path><path d="M125.6434 76.0299L198.1393 74.2618" fill="none" stroke="#aaa" stroke-opacity="0.5" stroke-width="0.5"></path><path d="M251.684 84.4634L300.9094 86.5612" fill="none" stroke="#aaa" stroke-opacity="0.5" stroke-width="0.5"></path><path d="M230.9491 223.8479L198.1393 74.2618" fill="none" stroke="#aaa" stroke-opacity="0.5" stroke-width="0.5"></path><path d="M164.5775 162.2262L267.16 202.5863" fill="none" stroke="#aaa" stroke-opacity="0.5" stroke-width="0.5"></path><path d="M217.7434 128.4452L161.6732 110.2295" fill="none" stroke="#aaa" stroke-opacity="0.5" stroke-width="0.5"></path><path d="M217.7434 128.4452L235.8281 31.1638" fill="none" stroke="#aaa" stroke-opacity="0.5" stroke-width="0.5"></path><path d="M217.7434 128.4452L300.9094 86.5612" fill="none" stroke="#aaa" stroke-opacity="0.5" stroke-width="0.5"></path><path d="M125.6434 76.0299L161.6732 110.2295" fill="none" stroke="#aaa" stroke-opacity="0.5" stroke-width="0.5"></path><path d="M112.4417 117.7219L277.2207 47.7116" fill="none" stroke="#aaa" stroke-opacity="0.5" stroke-width="0.5"></path><path d="M251.684 84.4634L118.4244 159.3033" fill="none" stroke="#aaa" stroke-opacity="0.5" stroke-width="0.5"></path><path d="M230.9491 223.8479L161.6732 110.2295" fill="none" stroke="#aaa" stroke-opacity="0.5" stroke-width="0.5"></path><path d="M251.684 84.4634L194.2918 28.8232" fill="none" stroke="#aaa" stroke-opacity="0.5" stroke-width="0.5"></path><path d="M112.4417 117.7219L145.3622 200.1257" fill="none" stroke="#aaa" stroke-opacity="0.5" stroke-width="0.5"></path><path d="M112.4417 117.7219L217.7434 128.4452" fill="none" stroke="#aaa" stroke-opacity="0.5" stroke-width="0.5"></path><path d="M125.6434 76.0299L300.9094 86.5612" fill="none" stroke="#aaa" stroke-opacity="0.5" stroke-width="0.5"></path><path d="M145.3622 200.1257L310.1805 126.2991" fill="none" stroke="#aaa" stroke-opacity="0.5" stroke-width="0.5"></path><path d="M145.3622 200.1257L125.6434 76.0299" fill="none" stroke="#aaa" stroke-opacity="0.5" stroke-width="0.5"></path><path d="M153.4502 43.9815L161.6732 110.2295" fill="none" stroke="#aaa" stroke-opacity="0.5" stroke-width="0.5"></path><path d="M277.2207 47.7116L310.1805 126.2991" fill="none" stroke="#aaa" stroke-opacity="0.5" stroke-width="0.5"></path><path d="M277.2207 47.7116L125.6434 76.0299" fill="none" stroke="#aaa" stroke-opacity="0.5" stroke-width="0.5"></path><path d="M217.7434 128.4452L118.4244 159.3033" fill="none" stroke="#aaa" stroke-opacity="0.5" stroke-width="0.5"></path><path d="M300.9094 86.5612L198.1393 74.2618" fill="none" stroke="#aaa" stroke-opacity="0.5" stroke-width="0.5"></path><path d="M217.7434 128.4452L194.2918 28.8232" fill="none" stroke="#aaa" stroke-opacity="0.5" stroke-width="0.5"></path><path d="M184.2015 220.2229L300.9094 86.5612" fill="none" stroke="#aaa" stroke-opacity="0.5" stroke-width="0.5"></path><path d="M112.4417 117.7219L184.2015 220.2229" fill="none" stroke="#aaa" stroke-opacity="0.5" stroke-width="0.5"></path><path d="M125.6434 76.0299L118.4244 159.3033" fill="none" stroke="#aaa" stroke-opacity="0.5" stroke-width="0.5"></path><path d="M125.6434 76.0299L194.2918 28.8232" fill="none" stroke="#aaa" stroke-opacity="0.5" stroke-width="0.5"></path><path d="M230.9491 223.8479L118.4244 159.3033" fill="none" stroke="#aaa" stroke-opacity="0.5" stroke-width="0.5"></path><path d="M230.9491 223.8479L194.2918 28.8232" fill="none" stroke="#aaa" stroke-opacity="0.5" stroke-width="0.5"></path><path d="M235.8281 31.1638L216.3854 183.0603" fill="none" stroke="#aaa" stroke-opacity="0.5" stroke-width="0.5"></path><path d="M251.684 84.4634L310.1805 126.2991" fill="none" stroke="#aaa" stroke-opacity="0.5" stroke-width="0.5"></path><path d="M164.5775 162.2262L198.1393 74.2618" fill="none" stroke="#aaa" stroke-opacity="0.5" stroke-width="0.5"></path><path d="M251.684 84.4634L301.0135 172.9981" fill="none" stroke="#aaa" stroke-opacity="0.5" stroke-width="0.5"></path><path d="M161.6732 110.2295L198.1393 74.2618" fill="none" stroke="#aaa" stroke-opacity="0.5" stroke-width="0.5"></path><path d="M217.7434 128.4452L310.1805 126.2991" fill="none" stroke="#aaa" stroke-opacity="0.5" stroke-width="0.5"></path><path d="M164.5775 162.2262L161.6732 110.2295" fill="none" stroke="#aaa" stroke-opacity="0.5" stroke-width="0.5"></path><path d="M217.7434 128.4452L301.0135 172.9981" fill="none" stroke="#aaa" stroke-opacity="0.5" stroke-width="0.5"></path><path d="M164.5775 162.2262L235.8281 31.1638" fill="none" stroke="#aaa" stroke-opacity="0.5" stroke-width="0.5"></path><path d="M125.6434 76.0299L310.1805 126.2991" fill="none" stroke="#aaa" stroke-opacity="0.5" stroke-width="0.5"></path><path d="M164.5775 162.2262L300.9094 86.5612" fill="none" stroke="#aaa" stroke-opacity="0.5" stroke-width="0.5"></path><path d="M300.9094 86.5612L194.2918 28.8232" fill="none" stroke="#aaa" stroke-opacity="0.5" stroke-width="0.5"></path><path d="M125.6434 76.0299L301.0135 172.9981" fill="none" stroke="#aaa" stroke-opacity="0.5" stroke-width="0.5"></path><path d="M161.6732 110.2295L300.9094 86.5612" fill="none" stroke="#aaa" stroke-opacity="0.5" stroke-width="0.5"></path><path d="M235.8281 31.1638L230.9491 223.8479" fill="none" stroke="#aaa" stroke-opacity="0.5" stroke-width="0.5"></path><path d="M184.2015 220.2229L310.1805 126.2991" fill="none" stroke="#aaa" stroke-opacity="0.5" stroke-width="0.5"></path><path d="M266.3643 144.9372L198.1393 74.2618" fill="none" stroke="#aaa" stroke-opacity="0.5" stroke-width="0.5"></path><path d="M184.2015 220.2229L301.0135 172.9981" fill="none" stroke="#aaa" stroke-opacity="0.5" stroke-width="0.5"></path><path d="M267.16 202.5863L216.3854 183.0603" fill="none" stroke="#aaa" stroke-opacity="0.5" stroke-width="0.5"></path><path d="M164.5775 162.2262L118.4244 159.3033" fill="none" stroke="#aaa" stroke-opacity="0.5" stroke-width="0.5"></path><path d="M145.3622 200.1257L216.3854 183.0603" fill="none" stroke="#aaa" stroke-opacity="0.5" stroke-width="0.5"></path><path d="M164.5775 162.2262L194.2918 28.8232" fill="none" stroke="#aaa" stroke-opacity="0.5" stroke-width="0.5"></path><path d="M277.2207 47.7116L216.3854 183.0603" fill="none" stroke="#aaa" stroke-opacity="0.5" stroke-width="0.5"></path><path d="M161.6732 110.2295L194.2918 28.8232" fill="none" stroke="#aaa" stroke-opacity="0.5" stroke-width="0.5"></path><path d="M251.684 84.4634L266.3643 144.9372" fill="none" stroke="#aaa" stroke-opacity="0.5" stroke-width="0.5"></path><path d="M153.4502 43.9815L125.6434 76.0299" fill="none" stroke="#aaa" stroke-opacity="0.5" stroke-width="0.5"></path><path d="M266.3643 144.9372L161.6732 110.2295" fill="none" stroke="#aaa" stroke-opacity="0.5" stroke-width="0.5"></path><path d="M266.3643 144.9372L235.8281 31.1638" fill="none" stroke="#aaa" stroke-opacity="0.5" stroke-width="0.5"></path><path d="M310.1805 126.2991L198.1393 74.2618" fill="none" stroke="#aaa" stroke-opacity="0.5" stroke-width="0.5"></path><path d="M266.3643 144.9372L300.9094 86.5612" fill="none" stroke="#aaa" stroke-opacity="0.5" stroke-width="0.5"></path><path d="M217.7434 128.4452L266.3643 144.9372" fill="none" stroke="#aaa" stroke-opacity="0.5" stroke-width="0.5"></path><path d="M251.684 84.4634L216.3854 183.0603" fill="none" stroke="#aaa" stroke-opacity="0.5" stroke-width="0.5"></path><path d="M145.3622 200.1257L267.16 202.5863" fill="none" stroke="#aaa" stroke-opacity="0.5" stroke-width="0.5"></path><path d="M277.2207 47.7116L267.16 202.5863" fill="none" stroke="#aaa" stroke-opacity="0.5" stroke-width="0.5"></path><path d="M310.1805 126.2991L161.6732 110.2295" fill="none" stroke="#aaa" stroke-opacity="0.5" stroke-width="0.5"></path><path d="M112.4417 117.7219L125.6434 76.0299" fill="none" stroke="#aaa" stroke-opacity="0.5" stroke-width="0.5"></path><path d="M266.3643 144.9372L118.4244 159.3033" fill="none" stroke="#aaa" stroke-opacity="0.5" stroke-width="0.5"></path><path d="M164.5775 162.2262L301.0135 172.9981" fill="none" stroke="#aaa" stroke-opacity="0.5" stroke-width="0.5"></path><path d="M266.3643 144.9372L194.2918 28.8232" fill="none" stroke="#aaa" stroke-opacity="0.5" stroke-width="0.5"></path><path d="M217.7434 128.4452L216.3854 183.0603" fill="none" stroke="#aaa" stroke-opacity="0.5" stroke-width="0.5"></path><path d="M310.1805 126.2991L300.9094 86.5612" fill="none" stroke="#aaa" stroke-opacity="0.5" stroke-width="0.5"></path><path d="M153.4502 43.9815L266.3643 144.9372" fill="none" stroke="#aaa" stroke-opacity="0.5" stroke-width="0.5"></path><path d="M125.6434 76.0299L216.3854 183.0603" fill="none" stroke="#aaa" stroke-opacity="0.5" stroke-width="0.5"></path><path d="M251.684 84.4634L267.16 202.5863" fill="none" stroke="#aaa" stroke-opacity="0.5" stroke-width="0.5"></path><path d="M310.1805 126.2991L118.4244 159.3033" fill="none" stroke="#aaa" stroke-opacity="0.5" stroke-width="0.5"></path><path d="M251.684 84.4634L230.9491 223.8479" fill="none" stroke="#aaa" stroke-opacity="0.5" stroke-width="0.5"></path><path d="M184.2015 220.2229L216.3854 183.0603" fill="none" stroke="#aaa" stroke-opacity="0.5" stroke-width="0.5"></path><path d="M310.1805 126.2991L194.2918 28.8232" fill="none" stroke="#aaa" stroke-opacity="0.5" stroke-width="0.5"></path><path d="M112.4417 117.7219L266.3643 144.9372" fill="none" stroke="#aaa" stroke-opacity="0.5" stroke-width="0.5"></path><path d="M266.3643 144.9372L310.1805 126.2991" fill="none" stroke="#aaa" stroke-opacity="0.5" stroke-width="0.5"></path><path d="M217.7434 128.4452L230.9491 223.8479" fill="none" stroke="#aaa" stroke-opacity="0.5" stroke-width="0.5"></path><path d="M267.16 202.5863L198.1393 74.2618" fill="none" stroke="#aaa" stroke-opacity="0.5" stroke-width="0.5"></path><path d="M145.3622 200.1257L198.1393 74.2618" fill="none" stroke="#aaa" stroke-opacity="0.5" stroke-width="0.5"></path><path d="M266.3643 144.9372L301.0135 172.9981" fill="none" stroke="#aaa" stroke-opacity="0.5" stroke-width="0.5"></path><path d="M125.6434 76.0299L267.16 202.5863" fill="none" stroke="#aaa" stroke-opacity="0.5" stroke-width="0.5"></path><path d="M277.2207 47.7116L198.1393 74.2618" fill="none" stroke="#aaa" stroke-opacity="0.5" stroke-width="0.5"></path><path d="M125.6434 76.0299L230.9491 223.8479" fill="none" stroke="#aaa" stroke-opacity="0.5" stroke-width="0.5"></path><path d="M194.2918 28.8232L198.1393 74.2618" fill="none" stroke="#aaa" stroke-opacity="0.5" stroke-width="0.5"></path><path d="M164.5775 162.2262L266.3643 144.9372" fill="none" stroke="#aaa" stroke-opacity="0.5" stroke-width="0.5"></path><path d="M251.684 84.4634L277.2207 47.7116" fill="none" stroke="#aaa" stroke-opacity="0.5" stroke-width="0.5"></path><path d="M153.4502 43.9815L164.5775 162.2262" fill="none" stroke="#aaa" stroke-opacity="0.5" stroke-width="0.5"></path><path d="M184.2015 220.2229L267.16 202.5863" fill="none" stroke="#aaa" stroke-opacity="0.5" stroke-width="0.5"></path><path d="M267.16 202.5863L161.6732 110.2295" fill="none" stroke="#aaa" stroke-opacity="0.5" stroke-width="0.5"></path><path d="M145.3622 200.1257L161.6732 110.2295" fill="none" stroke="#aaa" stroke-opacity="0.5" stroke-width="0.5"></path><path d="M145.3622 200.1257L235.8281 31.1638" fill="none" stroke="#aaa" stroke-opacity="0.5" stroke-width="0.5"></path><path d="M277.2207 47.7116L161.6732 110.2295" fill="none" stroke="#aaa" stroke-opacity="0.5" stroke-width="0.5"></path><path d="M267.16 202.5863L300.9094 86.5612" fill="none" stroke="#aaa" stroke-opacity="0.5" stroke-width="0.5"></path><path d="M310.1805 126.2991L301.0135 172.9981" fill="none" stroke="#aaa" stroke-opacity="0.5" stroke-width="0.5"></path><path d="M277.2207 47.7116L235.8281 31.1638" fill="none" stroke="#aaa" stroke-opacity="0.5" stroke-width="0.5"></path><path d="M145.3622 200.1257L300.9094 86.5612" fill="none" stroke="#aaa" stroke-opacity="0.5" stroke-width="0.5"></path><path d="M217.7434 128.4452L277.2207 47.7116" fill="none" stroke="#aaa" stroke-opacity="0.5" stroke-width="0.5"></path><path d="M277.2207 47.7116L300.9094 86.5612" fill="none" stroke="#aaa" stroke-opacity="0.5" stroke-width="0.5"></path><path d="M217.7434 128.4452L251.684 84.4634" fill="none" stroke="#aaa" stroke-opacity="0.5" stroke-width="0.5"></path><path d="M267.16 202.5863L118.4244 159.3033" fill="none" stroke="#aaa" stroke-opacity="0.5" stroke-width="0.5"></path><path d="M267.16 202.5863L194.2918 28.8232" fill="none" stroke="#aaa" stroke-opacity="0.5" stroke-width="0.5"></path><path d="M301.0135 172.9981L198.1393 74.2618" fill="none" stroke="#aaa" stroke-opacity="0.5" stroke-width="0.5"></path><path d="M145.3622 200.1257L118.4244 159.3033" fill="none" stroke="#aaa" stroke-opacity="0.5" stroke-width="0.5"></path><path d="M145.3622 200.1257L194.2918 28.8232" fill="none" stroke="#aaa" stroke-opacity="0.5" stroke-width="0.5"></path><path d="M277.2207 47.7116L118.4244 159.3033" fill="none" stroke="#aaa" stroke-opacity="0.5" stroke-width="0.5"></path><path d="M217.7434 128.4452L184.2015 220.2229" fill="none" stroke="#aaa" stroke-opacity="0.5" stroke-width="0.5"></path><path d="M277.2207 47.7116L194.2918 28.8232" fill="none" stroke="#aaa" stroke-opacity="0.5" stroke-width="0.5"></path><path d="M235.8281 31.1638L125.6434 76.0299" fill="none" stroke="#aaa" stroke-opacity="0.5" stroke-width="0.5"></path><path d="M153.4502 43.9815L251.684 84.4634" fill="none" stroke="#aaa" stroke-opacity="0.5" stroke-width="0.5"></path><path d="M301.0135 172.9981L161.6732 110.2295" fill="none" stroke="#aaa" stroke-opacity="0.5" stroke-width="0.5"></path><path d="M164.5775 162.2262L230.9491 223.8479" fill="none" stroke="#aaa" stroke-opacity="0.5" stroke-width="0.5"></path><path d="M184.2015 220.2229L198.1393 74.2618" fill="none" stroke="#aaa" stroke-opacity="0.5" stroke-width="0.5"></path><path d="M266.3643 144.9372L216.3854 183.0603" fill="none" stroke="#aaa" stroke-opacity="0.5" stroke-width="0.5"></path><path d="M153.4502 43.9815L184.2015 220.2229" fill="none" stroke="#aaa" stroke-opacity="0.5" stroke-width="0.5"></path><path d="M301.5 172.9981L301.5 86.5612" fill="none" stroke="#aaa" stroke-opacity="0.5" stroke-width="0.5"></path><path d="M184.2015 220.2229L161.6732 110.2295" fill="none" stroke="#aaa" stroke-opacity="0.5" stroke-width="0.5"></path><path d="M267.16 202.5863L301.0135 172.9981" fill="none" stroke="#aaa" stroke-opacity="0.5" stroke-width="0.5"></path><path d="M184.2015 220.2229L235.8281 31.1638" fill="none" stroke="#aaa" stroke-opacity="0.5" stroke-width="0.5"></path><path d="M145.3622 200.1257L301.0135 172.9981" fill="none" stroke="#aaa" stroke-opacity="0.5" stroke-width="0.5"></path><path d="M112.4417 117.7219L251.684 84.4634" fill="none" stroke="#aaa" stroke-opacity="0.5" stroke-width="0.5"></path><path d="M153.4502 43.9815L198.1393 74.2618" fill="none" stroke="#aaa" stroke-opacity="0.5" stroke-width="0.5"></path><path d="M301.0135 172.9981L118.4244 159.3033" fill="none" stroke="#aaa" stroke-opacity="0.5" stroke-width="0.5"></path><path d="M277.2207 47.7116L301.0135 172.9981" fill="none" stroke="#aaa" stroke-opacity="0.5" stroke-width="0.5"></path><path d="M301.0135 172.9981L194.2918 28.8232" fill="none" stroke="#aaa" stroke-opacity="0.5" stroke-width="0.5"></path><path d="M164.5775 162.2262L277.2207 47.7116" fill="none" stroke="#aaa" stroke-opacity="0.5" stroke-width="0.5"></path><path d="M310.1805 126.2991L216.3854 183.0603" fill="none" stroke="#aaa" stroke-opacity="0.5" stroke-width="0.5"></path><path d="M164.5775 162.2262L217.7434 128.4452" fill="none" stroke="#aaa" stroke-opacity="0.5" stroke-width="0.5"></path><path d="M266.3643 144.9372L267.16 202.5863" fill="none" stroke="#aaa" stroke-opacity="0.5" stroke-width="0.5"></path><path d="M266.3643 144.9372L230.9491 223.8479" fill="none" stroke="#aaa" stroke-opacity="0.5" stroke-width="0.5"></path><path d="M112.4417 117.7219L153.4502 43.9815" fill="none" stroke="#aaa" stroke-opacity="0.5" stroke-width="0.5"></path><path d="M230.9491 223.8479L300.9094 86.5612" fill="none" stroke="#aaa" stroke-opacity="0.5" stroke-width="0.5"></path><path d="M164.5775 162.2262L251.684 84.4634" fill="none" stroke="#aaa" stroke-opacity="0.5" stroke-width="0.5"></path><path d="M184.2015 220.2229L118.4244 159.3033" fill="none" stroke="#aaa" stroke-opacity="0.5" stroke-width="0.5"></path><path d="M153.4502 43.9815L235.8281 31.1638" fill="none" stroke="#aaa" stroke-opacity="0.5" stroke-width="0.5"></path><path d="M184.2015 220.2229L194.2918 28.8232" fill="none" stroke="#aaa" stroke-opacity="0.5" stroke-width="0.5"></path><path d="M153.4502 43.9815L300.9094 86.5612" fill="none" stroke="#aaa" stroke-opacity="0.5" stroke-width="0.5"></path><path d="M118.4244 159.3033L198.1393 74.2618" fill="none" stroke="#aaa" stroke-opacity="0.5" stroke-width="0.5"></path><path d="M112.4417 117.7219L198.1393 74.2618" fill="none" stroke="#aaa" stroke-opacity="0.5" stroke-width="0.5"></path><path d="M164.5775 162.2262L184.2015 220.2229" fill="none" stroke="#aaa" stroke-opacity="0.5" stroke-width="0.5"></path><path d="M310.1805 126.2991L267.16 202.5863" fill="none" stroke="#aaa" stroke-opacity="0.5" stroke-width="0.5"></path><path d="M310.1805 126.2991L230.9491 223.8479" fill="none" stroke="#aaa" stroke-opacity="0.5" stroke-width="0.5"></path><path d="M1 0A1 1 0 1 1 1 -0.0001" fill="#5470c6" transform="matrix(18,0,0,18,217.7434,128.4452)"></path><path d="M1 0A1 1 0 1 1 1 -0.0001" fill="#5470c6" transform="matrix(18,0,0,18,266.3643,144.9372)"></path><path d="M1 0A1 1 0 1 1 1 -0.0001" fill="#5470c6" transform="matrix(18,0,0,18,301.0135,172.9981)"></path><path d="M1 0A1 1 0 1 1 1 -0.0001" fill="#5470c6" transform="matrix(18,0,0,18,216.3854,183.0603)"></path><path d="M1 0A1 1 0 1 1 1 -0.0001" fill="#5470c6" transform="matrix(18,0,0,18,267.16,202.5863)"></path><path d="M1 0A1 1 0 1 1 1 -0.0001" fill="#5470c6" transform="matrix(18,0,0,18,230.9491,223.8479)"></path><path d="M1 0A1 1 0 1 1 1 -0.0001" fill="#5470c6" transform="matrix(18,0,0,18,164.5775,162.2262)"></path><path d="M1 0A1 1 0 1 1 1 -0.0001" fill="#5470c6" transform="matrix(18,0,0,18,184.2015,220.2229)"></path><path d="M1 0A1 1 0 1 1 1 -0.0001" fill="#5470c6" transform="matrix(18,0,0,18,145.3622,200.1257)"></path><path d="M1 0A1 1 0 1 1 1 -0.0001" fill="#5470c6" transform="matrix(18,0,0,18,161.6732,110.2295)"></path><path d="M1 0A1 1 0 1 1 1 -0.0001" fill="#5470c6" transform="matrix(18,0,0,18,118.4244,159.3033)"></path><path d="M1 0A1 1 0 1 1 1 -0.0001" fill="#5470c6" transform="matrix(18,0,0,18,112.4417,117.7219)"></path><path d="M1 0A1 1 0 1 1 1 -0.0001" fill="#5470c6" transform="matrix(18,0,0,18,153.4502,43.9815)"></path><path d="M1 0A1 1 0 1 1 1 -0.0001" fill="#5470c6" transform="matrix(18,0,0,18,125.6434,76.0299)"></path><path d="M1 0A1 1 0 1 1 1 -0.0001" fill="#5470c6" transform="matrix(18,0,0,18,194.2918,28.8232)"></path><path d="M1 0A1 1 0 1 1 1 -0.0001" fill="#5470c6" transform="matrix(18,0,0,18,198.1393,74.2618)"></path><path d="M1 0A1 1 0 1 1 1 -0.0001" fill="#5470c6" transform="matrix(18,0,0,18,235.8281,31.1638)"></path><path d="M1 0A1 1 0 1 1 1 -0.0001" fill="#5470c6" transform="matrix(18,0,0,18,277.2207,47.7116)"></path><path d="M1 0A1 1 0 1 1 1 -0.0001" fill="#5470c6" transform="matrix(18,0,0,18,251.684,84.4634)"></path><path d="M1 0A1 1 0 1 1 1 -0.0001" fill="#5470c6" transform="matrix(18,0,0,18,300.9094,86.5612)"></path><path d="M1 0A1 1 0 1 1 1 -0.0001" fill="#5470c6" transform="matrix(18,0,0,18,310.1805,126.2991)"></path><path d="M-31.2969 -5l62.5938 0l0 32l-62.5937 0Z" fill="rgb(0,0,0)" fill-opacity="0" stroke="#ccc" stroke-width="0" transform="translate(237.5 5)"></path><text dominant-baseline="central" fill="#333" style="font-size:22px;font-family:sans-serif;font-weight:bolder;" text-anchor="middle" transform="translate(237.5 5)" y="11">C139</text></g></svg>