<svg baseprofile="full" height="250" style="position:absolute;left:0;top:0;user-select:none" version="1.1" width="475" xmlns="http://www.w3.org/2000/svg" xmlns:xlink="http://www.w3.org/1999/xlink"><rect fill="none" height="250" id="0" width="475" x="0" y="0"></rect><g><path d="M202.0174 146.995L300.2809 165.8227" fill="none" stroke="#aaa" stroke-opacity="0.5" stroke-width="0.5"></path><path d="M160.7807 164.3366L199.2259 224.0107" fill="none" stroke="#aaa" stroke-opacity="0.5" stroke-width="0.5"></path><path d="M112.8293 104.107L276.6959 199.4792" fill="none" stroke="#aaa" stroke-opacity="0.5" stroke-width="0.5"></path><path d="M260.8135 123.1308L276.6959 199.4792" fill="none" stroke="#aaa" stroke-opacity="0.5" stroke-width="0.5"></path><path d="M246.0304 81.7827L204.1963 104.0167" fill="none" stroke="#aaa" stroke-opacity="0.5" stroke-width="0.5"></path><path d="M300.2809 165.8227L215.5945 188.1627" fill="none" stroke="#aaa" stroke-opacity="0.5" stroke-width="0.5"></path><path d="M112.8293 104.107L204.242 51.5209" fill="none" stroke="#aaa" stroke-opacity="0.5" stroke-width="0.5"></path><path d="M260.8135 123.1308L204.242 51.5209" fill="none" stroke="#aaa" stroke-opacity="0.5" stroke-width="0.5"></path><path d="M166.9433 34.8429L286.9672 62.323" fill="none" stroke="#aaa" stroke-opacity="0.5" stroke-width="0.5"></path><path d="M260.8135 123.1308L202.0174 146.995" fill="none" stroke="#aaa" stroke-opacity="0.5" stroke-width="0.5"></path><path d="M257.9162 166.0492L165.4415 73.0834" fill="none" stroke="#aaa" stroke-opacity="0.5" stroke-width="0.5"></path><path d="M112.8293 104.107L221.4939 24.3342" fill="none" stroke="#aaa" stroke-opacity="0.5" stroke-width="0.5"></path><path d="M149.249 117.5242L129.5506 66.7858" fill="none" stroke="#aaa" stroke-opacity="0.5" stroke-width="0.5"></path><path d="M165.492 208.5177L286.9672 62.323" fill="none" stroke="#aaa" stroke-opacity="0.5" stroke-width="0.5"></path><path d="M112.8293 104.107L166.9433 34.8429" fill="none" stroke="#aaa" stroke-opacity="0.5" stroke-width="0.5"></path><path d="M276.6959 199.4792L303.1814 94.6329" fill="none" stroke="#aaa" stroke-opacity="0.5" stroke-width="0.5"></path><path d="M286.9672 62.323L204.1963 104.0167" fill="none" stroke="#aaa" stroke-opacity="0.5" stroke-width="0.5"></path><path d="M300.2809 165.8227L199.2259 224.0107" fill="none" stroke="#aaa" stroke-opacity="0.5" stroke-width="0.5"></path><path d="M256.3922 41.6744L286.9672 62.323" fill="none" stroke="#aaa" stroke-opacity="0.5" stroke-width="0.5"></path><path d="M306.4714 129.224L286.9672 62.323" fill="none" stroke="#aaa" stroke-opacity="0.5" stroke-width="0.5"></path><path d="M166.9433 34.8429L199.2259 224.0107" fill="none" stroke="#aaa" stroke-opacity="0.5" stroke-width="0.5"></path><path d="M129.5506 66.7858L286.9672 62.323" fill="none" stroke="#aaa" stroke-opacity="0.5" stroke-width="0.5"></path><path d="M221.4939 24.3342L256.3922 41.6744" fill="none" stroke="#aaa" stroke-opacity="0.5" stroke-width="0.5"></path><path d="M165.492 208.5177L199.2259 224.0107" fill="none" stroke="#aaa" stroke-opacity="0.5" stroke-width="0.5"></path><path d="M129.5506 66.7858L303.1814 94.6329" fill="none" stroke="#aaa" stroke-opacity="0.5" stroke-width="0.5"></path><path d="M276.6959 199.4792L215.5945 188.1627" fill="none" stroke="#aaa" stroke-opacity="0.5" stroke-width="0.5"></path><path d="M202.0174 146.995L276.6959 199.4792" fill="none" stroke="#aaa" stroke-opacity="0.5" stroke-width="0.5"></path><path d="M257.9162 166.5L300.2809 166.5" fill="none" stroke="#aaa" stroke-opacity="0.5" stroke-width="0.5"></path><path d="M114.1777 147.3671L300.2809 165.8227" fill="none" stroke="#aaa" stroke-opacity="0.5" stroke-width="0.5"></path><path d="M257.9162 166.0492L131.3252 186.0676" fill="none" stroke="#aaa" stroke-opacity="0.5" stroke-width="0.5"></path><path d="M202.0174 146.995L204.242 51.5209" fill="none" stroke="#aaa" stroke-opacity="0.5" stroke-width="0.5"></path><path d="M246.0304 81.7827L165.4415 73.0834" fill="none" stroke="#aaa" stroke-opacity="0.5" stroke-width="0.5"></path><path d="M240.8387 219.2085L286.9672 62.323" fill="none" stroke="#aaa" stroke-opacity="0.5" stroke-width="0.5"></path><path d="M114.1777 147.3671L131.3252 186.0676" fill="none" stroke="#aaa" stroke-opacity="0.5" stroke-width="0.5"></path><path d="M306.4714 129.224L215.5945 188.1627" fill="none" stroke="#aaa" stroke-opacity="0.5" stroke-width="0.5"></path><path d="M204.242 51.5209L286.9672 62.323" fill="none" stroke="#aaa" stroke-opacity="0.5" stroke-width="0.5"></path><path d="M149.249 117.5242L300.2809 165.8227" fill="none" stroke="#aaa" stroke-opacity="0.5" stroke-width="0.5"></path><path d="M165.492 208.5177L257.9162 166.0492" fill="none" stroke="#aaa" stroke-opacity="0.5" stroke-width="0.5"></path><path d="M204.242 51.5209L303.1814 94.6329" fill="none" stroke="#aaa" stroke-opacity="0.5" stroke-width="0.5"></path><path d="M112.8293 104.107L286.9672 62.323" fill="none" stroke="#aaa" stroke-opacity="0.5" stroke-width="0.5"></path><path d="M202.0174 146.995L166.9433 34.8429" fill="none" stroke="#aaa" stroke-opacity="0.5" stroke-width="0.5"></path><path d="M129.5506 66.7858L215.5945 188.1627" fill="none" stroke="#aaa" stroke-opacity="0.5" stroke-width="0.5"></path><path d="M257.9162 166.0492L112.8293 104.107" fill="none" stroke="#aaa" stroke-opacity="0.5" stroke-width="0.5"></path><path d="M260.8135 123.1308L303.1814 94.6329" fill="none" stroke="#aaa" stroke-opacity="0.5" stroke-width="0.5"></path><path d="M257.9162 166.0492L240.8387 219.2085" fill="none" stroke="#aaa" stroke-opacity="0.5" stroke-width="0.5"></path><path d="M306.4714 129.224L257.9162 166.0492" fill="none" stroke="#aaa" stroke-opacity="0.5" stroke-width="0.5"></path><path d="M114.1777 147.3671L240.8387 219.2085" fill="none" stroke="#aaa" stroke-opacity="0.5" stroke-width="0.5"></path><path d="M286.9672 62.323L165.4415 73.0834" fill="none" stroke="#aaa" stroke-opacity="0.5" stroke-width="0.5"></path><path d="M240.8387 219.2085L215.5945 188.1627" fill="none" stroke="#aaa" stroke-opacity="0.5" stroke-width="0.5"></path><path d="M149.249 117.5242L240.8387 219.2085" fill="none" stroke="#aaa" stroke-opacity="0.5" stroke-width="0.5"></path><path d="M204.242 51.5209L215.5945 188.1627" fill="none" stroke="#aaa" stroke-opacity="0.5" stroke-width="0.5"></path><path d="M276.6959 199.4792L204.1963 104.0167" fill="none" stroke="#aaa" stroke-opacity="0.5" stroke-width="0.5"></path><path d="M112.8293 104.107L215.5945 188.1627" fill="none" stroke="#aaa" stroke-opacity="0.5" stroke-width="0.5"></path><path d="M260.8135 123.1308L215.5945 188.1627" fill="none" stroke="#aaa" stroke-opacity="0.5" stroke-width="0.5"></path><path d="M246.0304 81.7827L131.3252 186.0676" fill="none" stroke="#aaa" stroke-opacity="0.5" stroke-width="0.5"></path><path d="M257.9162 166.0492L276.6959 199.4792" fill="none" stroke="#aaa" stroke-opacity="0.5" stroke-width="0.5"></path><path d="M160.7807 164.3366L165.4415 73.0834" fill="none" stroke="#aaa" stroke-opacity="0.5" stroke-width="0.5"></path><path d="M257.9162 166.0492L260.8135 123.1308" fill="none" stroke="#aaa" stroke-opacity="0.5" stroke-width="0.5"></path><path d="M114.1777 147.3671L276.6959 199.4792" fill="none" stroke="#aaa" stroke-opacity="0.5" stroke-width="0.5"></path><path d="M256.3922 41.6744L204.1963 104.0167" fill="none" stroke="#aaa" stroke-opacity="0.5" stroke-width="0.5"></path><path d="M306.4714 129.224L204.1963 104.0167" fill="none" stroke="#aaa" stroke-opacity="0.5" stroke-width="0.5"></path><path d="M257.9162 166.0492L204.242 51.5209" fill="none" stroke="#aaa" stroke-opacity="0.5" stroke-width="0.5"></path><path d="M257.9162 166.0492L202.0174 146.995" fill="none" stroke="#aaa" stroke-opacity="0.5" stroke-width="0.5"></path><path d="M114.1777 147.3671L204.242 51.5209" fill="none" stroke="#aaa" stroke-opacity="0.5" stroke-width="0.5"></path><path d="M303.1814 94.6329L286.9672 62.323" fill="none" stroke="#aaa" stroke-opacity="0.5" stroke-width="0.5"></path><path d="M257.9162 166.0492L149.249 117.5242" fill="none" stroke="#aaa" stroke-opacity="0.5" stroke-width="0.5"></path><path d="M129.5506 66.7858L204.1963 104.0167" fill="none" stroke="#aaa" stroke-opacity="0.5" stroke-width="0.5"></path><path d="M149.249 117.5242L276.6959 199.4792" fill="none" stroke="#aaa" stroke-opacity="0.5" stroke-width="0.5"></path><path d="M202.0174 146.995L286.9672 62.323" fill="none" stroke="#aaa" stroke-opacity="0.5" stroke-width="0.5"></path><path d="M149.249 117.5242L260.8135 123.1308" fill="none" stroke="#aaa" stroke-opacity="0.5" stroke-width="0.5"></path><path d="M149.249 117.5242L204.242 51.5209" fill="none" stroke="#aaa" stroke-opacity="0.5" stroke-width="0.5"></path><path d="M149.249 117.5242L202.0174 146.995" fill="none" stroke="#aaa" stroke-opacity="0.5" stroke-width="0.5"></path><path d="M240.8387 219.2085L204.1963 104.0167" fill="none" stroke="#aaa" stroke-opacity="0.5" stroke-width="0.5"></path><path d="M166.9433 34.8429L165.4415 73.0834" fill="none" stroke="#aaa" stroke-opacity="0.5" stroke-width="0.5"></path><path d="M303.1814 94.6329L199.2259 224.0107" fill="none" stroke="#aaa" stroke-opacity="0.5" stroke-width="0.5"></path><path d="M149.249 117.5242L166.9433 34.8429" fill="none" stroke="#aaa" stroke-opacity="0.5" stroke-width="0.5"></path><path d="M204.5 51.5209L204.5 104.0167" fill="none" stroke="#aaa" stroke-opacity="0.5" stroke-width="0.5"></path><path d="M166.9433 34.8429L246.0304 81.7827" fill="none" stroke="#aaa" stroke-opacity="0.5" stroke-width="0.5"></path><path d="M160.7807 164.3366L300.2809 165.8227" fill="none" stroke="#aaa" stroke-opacity="0.5" stroke-width="0.5"></path><path d="M112.8293 104.5L204.1963 104.5" fill="none" stroke="#aaa" stroke-opacity="0.5" stroke-width="0.5"></path><path d="M260.8135 123.1308L204.1963 104.0167" fill="none" stroke="#aaa" stroke-opacity="0.5" stroke-width="0.5"></path><path d="M202.0174 146.995L215.5945 188.1627" fill="none" stroke="#aaa" stroke-opacity="0.5" stroke-width="0.5"></path><path d="M160.7807 164.3366L131.3252 186.0676" fill="none" stroke="#aaa" stroke-opacity="0.5" stroke-width="0.5"></path><path d="M165.5 208.5177L165.5 73.0834" fill="none" stroke="#aaa" stroke-opacity="0.5" stroke-width="0.5"></path><path d="M131.3252 186.0676L199.2259 224.0107" fill="none" stroke="#aaa" stroke-opacity="0.5" stroke-width="0.5"></path><path d="M256.3922 41.6744L165.4415 73.0834" fill="none" stroke="#aaa" stroke-opacity="0.5" stroke-width="0.5"></path><path d="M306.4714 129.224L165.4415 73.0834" fill="none" stroke="#aaa" stroke-opacity="0.5" stroke-width="0.5"></path><path d="M256.3922 41.6744L246.0304 81.7827" fill="none" stroke="#aaa" stroke-opacity="0.5" stroke-width="0.5"></path><path d="M306.4714 129.224L246.0304 81.7827" fill="none" stroke="#aaa" stroke-opacity="0.5" stroke-width="0.5"></path><path d="M160.7807 164.3366L112.8293 104.107" fill="none" stroke="#aaa" stroke-opacity="0.5" stroke-width="0.5"></path><path d="M160.7807 164.3366L240.8387 219.2085" fill="none" stroke="#aaa" stroke-opacity="0.5" stroke-width="0.5"></path><path d="M129.5506 66.7858L246.0304 81.7827" fill="none" stroke="#aaa" stroke-opacity="0.5" stroke-width="0.5"></path><path d="M114.1777 147.3671L286.9672 62.323" fill="none" stroke="#aaa" stroke-opacity="0.5" stroke-width="0.5"></path><path d="M166.9433 34.8429L300.2809 165.8227" fill="none" stroke="#aaa" stroke-opacity="0.5" stroke-width="0.5"></path><path d="M257.9162 166.0492L303.1814 94.6329" fill="none" stroke="#aaa" stroke-opacity="0.5" stroke-width="0.5"></path><path d="M166.9433 34.8429L131.3252 186.0676" fill="none" stroke="#aaa" stroke-opacity="0.5" stroke-width="0.5"></path><path d="M215.5945 188.1627L199.2259 224.0107" fill="none" stroke="#aaa" stroke-opacity="0.5" stroke-width="0.5"></path><path d="M114.1777 147.3671L303.1814 94.6329" fill="none" stroke="#aaa" stroke-opacity="0.5" stroke-width="0.5"></path><path d="M149.249 117.5242L286.9672 62.323" fill="none" stroke="#aaa" stroke-opacity="0.5" stroke-width="0.5"></path><path d="M221.4939 24.3342L286.9672 62.323" fill="none" stroke="#aaa" stroke-opacity="0.5" stroke-width="0.5"></path><path d="M240.8387 219.2085L165.4415 73.0834" fill="none" stroke="#aaa" stroke-opacity="0.5" stroke-width="0.5"></path><path d="M165.492 208.5177L300.2809 165.8227" fill="none" stroke="#aaa" stroke-opacity="0.5" stroke-width="0.5"></path><path d="M204.242 51.5209L165.4415 73.0834" fill="none" stroke="#aaa" stroke-opacity="0.5" stroke-width="0.5"></path><path d="M204.242 51.5209L246.0304 81.7827" fill="none" stroke="#aaa" stroke-opacity="0.5" stroke-width="0.5"></path><path d="M165.492 208.5177L131.3252 186.0676" fill="none" stroke="#aaa" stroke-opacity="0.5" stroke-width="0.5"></path><path d="M202.0174 146.995L204.1963 104.0167" fill="none" stroke="#aaa" stroke-opacity="0.5" stroke-width="0.5"></path><path d="M160.7807 164.3366L276.6959 199.4792" fill="none" stroke="#aaa" stroke-opacity="0.5" stroke-width="0.5"></path><path d="M112.8293 104.107L165.4415 73.0834" fill="none" stroke="#aaa" stroke-opacity="0.5" stroke-width="0.5"></path><path d="M256.3922 41.6744L300.2809 165.8227" fill="none" stroke="#aaa" stroke-opacity="0.5" stroke-width="0.5"></path><path d="M112.8293 104.107L246.0304 81.7827" fill="none" stroke="#aaa" stroke-opacity="0.5" stroke-width="0.5"></path><path d="M160.7807 164.3366L260.8135 123.1308" fill="none" stroke="#aaa" stroke-opacity="0.5" stroke-width="0.5"></path><path d="M257.9162 166.0492L215.5945 188.1627" fill="none" stroke="#aaa" stroke-opacity="0.5" stroke-width="0.5"></path><path d="M166.9433 34.8429L240.8387 219.2085" fill="none" stroke="#aaa" stroke-opacity="0.5" stroke-width="0.5"></path><path d="M160.7807 164.3366L204.242 51.5209" fill="none" stroke="#aaa" stroke-opacity="0.5" stroke-width="0.5"></path><path d="M256.3922 41.6744L131.3252 186.0676" fill="none" stroke="#aaa" stroke-opacity="0.5" stroke-width="0.5"></path><path d="M306.4714 129.224L131.3252 186.0676" fill="none" stroke="#aaa" stroke-opacity="0.5" stroke-width="0.5"></path><path d="M114.1777 147.3671L215.5945 188.1627" fill="none" stroke="#aaa" stroke-opacity="0.5" stroke-width="0.5"></path><path d="M160.7807 164.3366L202.0174 146.995" fill="none" stroke="#aaa" stroke-opacity="0.5" stroke-width="0.5"></path><path d="M306.4714 129.224L256.3922 41.6744" fill="none" stroke="#aaa" stroke-opacity="0.5" stroke-width="0.5"></path><path d="M165.492 208.5177L112.8293 104.107" fill="none" stroke="#aaa" stroke-opacity="0.5" stroke-width="0.5"></path><path d="M221.4939 24.3342L199.2259 224.0107" fill="none" stroke="#aaa" stroke-opacity="0.5" stroke-width="0.5"></path><path d="M160.7807 164.3366L149.249 117.5242" fill="none" stroke="#aaa" stroke-opacity="0.5" stroke-width="0.5"></path><path d="M165.492 208.5177L240.8387 219.2085" fill="none" stroke="#aaa" stroke-opacity="0.5" stroke-width="0.5"></path><path d="M149.249 117.5242L215.5945 188.1627" fill="none" stroke="#aaa" stroke-opacity="0.5" stroke-width="0.5"></path><path d="M129.5506 66.7858L256.3922 41.6744" fill="none" stroke="#aaa" stroke-opacity="0.5" stroke-width="0.5"></path><path d="M306.4714 129.224L112.8293 104.107" fill="none" stroke="#aaa" stroke-opacity="0.5" stroke-width="0.5"></path><path d="M260.8135 123.1308L129.5506 66.7858" fill="none" stroke="#aaa" stroke-opacity="0.5" stroke-width="0.5"></path><path d="M246.0304 81.7827L303.1814 94.6329" fill="none" stroke="#aaa" stroke-opacity="0.5" stroke-width="0.5"></path><path d="M256.3922 41.6744L240.8387 219.2085" fill="none" stroke="#aaa" stroke-opacity="0.5" stroke-width="0.5"></path><path d="M166.9433 34.8429L276.6959 199.4792" fill="none" stroke="#aaa" stroke-opacity="0.5" stroke-width="0.5"></path><path d="M240.8387 219.2085L131.3252 186.0676" fill="none" stroke="#aaa" stroke-opacity="0.5" stroke-width="0.5"></path><path d="M166.9433 34.8429L204.242 51.5209" fill="none" stroke="#aaa" stroke-opacity="0.5" stroke-width="0.5"></path><path d="M112.8293 104.107L300.2809 165.8227" fill="none" stroke="#aaa" stroke-opacity="0.5" stroke-width="0.5"></path><path d="M165.492 208.5177L276.6959 199.4792" fill="none" stroke="#aaa" stroke-opacity="0.5" stroke-width="0.5"></path><path d="M112.8293 104.107L131.3252 186.0676" fill="none" stroke="#aaa" stroke-opacity="0.5" stroke-width="0.5"></path><path d="M303.1814 94.6329L165.4415 73.0834" fill="none" stroke="#aaa" stroke-opacity="0.5" stroke-width="0.5"></path><path d="M165.492 208.5177L260.8135 123.1308" fill="none" stroke="#aaa" stroke-opacity="0.5" stroke-width="0.5"></path><path d="M112.8293 104.107L256.3922 41.6744" fill="none" stroke="#aaa" stroke-opacity="0.5" stroke-width="0.5"></path><path d="M260.8135 123.1308L256.3922 41.6744" fill="none" stroke="#aaa" stroke-opacity="0.5" stroke-width="0.5"></path><path d="M165.492 208.5177L204.242 51.5209" fill="none" stroke="#aaa" stroke-opacity="0.5" stroke-width="0.5"></path><path d="M202.0174 146.995L165.4415 73.0834" fill="none" stroke="#aaa" stroke-opacity="0.5" stroke-width="0.5"></path><path d="M257.9162 166.0492L204.1963 104.0167" fill="none" stroke="#aaa" stroke-opacity="0.5" stroke-width="0.5"></path><path d="M165.492 208.5177L202.0174 146.995" fill="none" stroke="#aaa" stroke-opacity="0.5" stroke-width="0.5"></path><path d="M202.0174 146.995L246.0304 81.7827" fill="none" stroke="#aaa" stroke-opacity="0.5" stroke-width="0.5"></path><path d="M114.1777 147.3671L204.1963 104.0167" fill="none" stroke="#aaa" stroke-opacity="0.5" stroke-width="0.5"></path><path d="M165.492 208.5177L149.249 117.5242" fill="none" stroke="#aaa" stroke-opacity="0.5" stroke-width="0.5"></path><path d="M306.4714 129.224L260.8135 123.1308" fill="none" stroke="#aaa" stroke-opacity="0.5" stroke-width="0.5"></path><path d="M199.2259 224.0107L204.1963 104.0167" fill="none" stroke="#aaa" stroke-opacity="0.5" stroke-width="0.5"></path><path d="M256.3922 41.6744L204.242 51.5209" fill="none" stroke="#aaa" stroke-opacity="0.5" stroke-width="0.5"></path><path d="M165.4415 73.0834L204.1963 104.0167" fill="none" stroke="#aaa" stroke-opacity="0.5" stroke-width="0.5"></path><path d="M112.8293 104.107L240.8387 219.2085" fill="none" stroke="#aaa" stroke-opacity="0.5" stroke-width="0.5"></path><path d="M149.249 117.5242L204.1963 104.0167" fill="none" stroke="#aaa" stroke-opacity="0.5" stroke-width="0.5"></path><path d="M306.4714 129.224L149.249 117.5242" fill="none" stroke="#aaa" stroke-opacity="0.5" stroke-width="0.5"></path><path d="M160.7807 164.3366L303.1814 94.6329" fill="none" stroke="#aaa" stroke-opacity="0.5" stroke-width="0.5"></path><path d="M246.0304 81.7827L199.2259 224.0107" fill="none" stroke="#aaa" stroke-opacity="0.5" stroke-width="0.5"></path><path d="M303.1814 94.6329L300.2809 165.8227" fill="none" stroke="#aaa" stroke-opacity="0.5" stroke-width="0.5"></path><path d="M303.1814 94.6329L131.3252 186.0676" fill="none" stroke="#aaa" stroke-opacity="0.5" stroke-width="0.5"></path><path d="M306.4714 129.224L114.1777 147.3671" fill="none" stroke="#aaa" stroke-opacity="0.5" stroke-width="0.5"></path><path d="M202.0174 146.995L131.3252 186.0676" fill="none" stroke="#aaa" stroke-opacity="0.5" stroke-width="0.5"></path><path d="M202.0174 146.995L256.3922 41.6744" fill="none" stroke="#aaa" stroke-opacity="0.5" stroke-width="0.5"></path><path d="M160.7807 164.3366L215.5945 188.1627" fill="none" stroke="#aaa" stroke-opacity="0.5" stroke-width="0.5"></path><path d="M300.2809 165.8227L286.9672 62.323" fill="none" stroke="#aaa" stroke-opacity="0.5" stroke-width="0.5"></path><path d="M286.9672 62.323L199.2259 224.0107" fill="none" stroke="#aaa" stroke-opacity="0.5" stroke-width="0.5"></path><path d="M306.4714 129.224L221.4939 24.3342" fill="none" stroke="#aaa" stroke-opacity="0.5" stroke-width="0.5"></path><path d="M129.5506 66.7858L114.1777 147.3671" fill="none" stroke="#aaa" stroke-opacity="0.5" stroke-width="0.5"></path><path d="M131.3252 186.0676L300.2809 165.8227" fill="none" stroke="#aaa" stroke-opacity="0.5" stroke-width="0.5"></path><path d="M257.9162 166.0492L246.0304 81.7827" fill="none" stroke="#aaa" stroke-opacity="0.5" stroke-width="0.5"></path><path d="M166.9433 34.8429L303.1814 94.6329" fill="none" stroke="#aaa" stroke-opacity="0.5" stroke-width="0.5"></path><path d="M114.1777 147.3671L165.4415 73.0834" fill="none" stroke="#aaa" stroke-opacity="0.5" stroke-width="0.5"></path><path d="M114.1777 147.3671L246.0304 81.7827" fill="none" stroke="#aaa" stroke-opacity="0.5" stroke-width="0.5"></path><path d="M202.0174 146.995L112.8293 104.107" fill="none" stroke="#aaa" stroke-opacity="0.5" stroke-width="0.5"></path><path d="M303.1814 94.6329L240.8387 219.2085" fill="none" stroke="#aaa" stroke-opacity="0.5" stroke-width="0.5"></path><path d="M129.5506 66.7858L221.4939 24.3342" fill="none" stroke="#aaa" stroke-opacity="0.5" stroke-width="0.5"></path><path d="M202.0174 146.995L240.8387 219.2085" fill="none" stroke="#aaa" stroke-opacity="0.5" stroke-width="0.5"></path><path d="M165.492 208.5177L303.1814 94.6329" fill="none" stroke="#aaa" stroke-opacity="0.5" stroke-width="0.5"></path><path d="M149.249 117.5242L165.4415 73.0834" fill="none" stroke="#aaa" stroke-opacity="0.5" stroke-width="0.5"></path><path d="M221.4939 24.3342L165.4415 73.0834" fill="none" stroke="#aaa" stroke-opacity="0.5" stroke-width="0.5"></path><path d="M149.249 117.5242L246.0304 81.7827" fill="none" stroke="#aaa" stroke-opacity="0.5" stroke-width="0.5"></path><path d="M221.4939 24.3342L246.0304 81.7827" fill="none" stroke="#aaa" stroke-opacity="0.5" stroke-width="0.5"></path><path d="M257.9162 166.0492L129.5506 66.7858" fill="none" stroke="#aaa" stroke-opacity="0.5" stroke-width="0.5"></path><path d="M256.3922 41.6744L303.1814 94.6329" fill="none" stroke="#aaa" stroke-opacity="0.5" stroke-width="0.5"></path><path d="M306.4714 129.224L303.1814 94.6329" fill="none" stroke="#aaa" stroke-opacity="0.5" stroke-width="0.5"></path><path d="M112.8293 104.107L114.1777 147.3671" fill="none" stroke="#aaa" stroke-opacity="0.5" stroke-width="0.5"></path><path d="M260.8135 123.1308L114.1777 147.3671" fill="none" stroke="#aaa" stroke-opacity="0.5" stroke-width="0.5"></path><path d="M166.9433 34.8429L215.5945 188.1627" fill="none" stroke="#aaa" stroke-opacity="0.5" stroke-width="0.5"></path><path d="M260.8135 123.1308L221.4939 24.3342" fill="none" stroke="#aaa" stroke-opacity="0.5" stroke-width="0.5"></path><path d="M276.6959 199.4792L286.9672 62.323" fill="none" stroke="#aaa" stroke-opacity="0.5" stroke-width="0.5"></path><path d="M165.492 208.5177L215.5945 188.1627" fill="none" stroke="#aaa" stroke-opacity="0.5" stroke-width="0.5"></path><path d="M260.8135 123.1308L166.9433 34.8429" fill="none" stroke="#aaa" stroke-opacity="0.5" stroke-width="0.5"></path><path d="M160.7807 164.3366L204.1963 104.0167" fill="none" stroke="#aaa" stroke-opacity="0.5" stroke-width="0.5"></path><path d="M257.9162 166.0492L160.7807 164.3366" fill="none" stroke="#aaa" stroke-opacity="0.5" stroke-width="0.5"></path><path d="M257.9162 166.0492L256.3922 41.6744" fill="none" stroke="#aaa" stroke-opacity="0.5" stroke-width="0.5"></path><path d="M256.3922 41.6744L215.5945 188.1627" fill="none" stroke="#aaa" stroke-opacity="0.5" stroke-width="0.5"></path><path d="M114.1777 147.3671L256.3922 41.6744" fill="none" stroke="#aaa" stroke-opacity="0.5" stroke-width="0.5"></path><path d="M221.4939 24.3342L300.2809 165.8227" fill="none" stroke="#aaa" stroke-opacity="0.5" stroke-width="0.5"></path><path d="M149.249 117.5242L131.3252 186.0676" fill="none" stroke="#aaa" stroke-opacity="0.5" stroke-width="0.5"></path><path d="M221.4939 24.3342L131.3252 186.0676" fill="none" stroke="#aaa" stroke-opacity="0.5" stroke-width="0.5"></path><path d="M276.6959 199.4792L199.2259 224.0107" fill="none" stroke="#aaa" stroke-opacity="0.5" stroke-width="0.5"></path><path d="M149.249 117.5242L256.3922 41.6744" fill="none" stroke="#aaa" stroke-opacity="0.5" stroke-width="0.5"></path><path d="M112.8293 104.107L303.1814 94.6329" fill="none" stroke="#aaa" stroke-opacity="0.5" stroke-width="0.5"></path><path d="M300.2809 165.8227L204.1963 104.0167" fill="none" stroke="#aaa" stroke-opacity="0.5" stroke-width="0.5"></path><path d="M166.9433 34.8429L204.1963 104.0167" fill="none" stroke="#aaa" stroke-opacity="0.5" stroke-width="0.5"></path><path d="M256.3922 41.6744L199.2259 224.0107" fill="none" stroke="#aaa" stroke-opacity="0.5" stroke-width="0.5"></path><path d="M306.4714 129.224L199.2259 224.0107" fill="none" stroke="#aaa" stroke-opacity="0.5" stroke-width="0.5"></path><path d="M149.249 117.5242L112.8293 104.107" fill="none" stroke="#aaa" stroke-opacity="0.5" stroke-width="0.5"></path><path d="M202.0174 146.995L114.1777 147.3671" fill="none" stroke="#aaa" stroke-opacity="0.5" stroke-width="0.5"></path><path d="M221.4939 24.3342L240.8387 219.2085" fill="none" stroke="#aaa" stroke-opacity="0.5" stroke-width="0.5"></path><path d="M129.5506 66.7858L199.2259 224.0107" fill="none" stroke="#aaa" stroke-opacity="0.5" stroke-width="0.5"></path><path d="M202.0174 146.995L221.4939 24.3342" fill="none" stroke="#aaa" stroke-opacity="0.5" stroke-width="0.5"></path><path d="M165.492 208.5177L204.1963 104.0167" fill="none" stroke="#aaa" stroke-opacity="0.5" stroke-width="0.5"></path><path d="M260.8135 123.1308L286.9672 62.323" fill="none" stroke="#aaa" stroke-opacity="0.5" stroke-width="0.5"></path><path d="M160.7807 164.3366L246.0304 81.7827" fill="none" stroke="#aaa" stroke-opacity="0.5" stroke-width="0.5"></path><path d="M240.8387 219.2085L199.2259 224.0107" fill="none" stroke="#aaa" stroke-opacity="0.5" stroke-width="0.5"></path><path d="M204.242 51.5209L199.2259 224.0107" fill="none" stroke="#aaa" stroke-opacity="0.5" stroke-width="0.5"></path><path d="M221.4939 24.3342L276.6959 199.4792" fill="none" stroke="#aaa" stroke-opacity="0.5" stroke-width="0.5"></path><path d="M112.8293 104.107L199.2259 224.0107" fill="none" stroke="#aaa" stroke-opacity="0.5" stroke-width="0.5"></path><path d="M260.8135 123.1308L199.2259 224.0107" fill="none" stroke="#aaa" stroke-opacity="0.5" stroke-width="0.5"></path><path d="M221.4939 24.3342L204.242 51.5209" fill="none" stroke="#aaa" stroke-opacity="0.5" stroke-width="0.5"></path><path d="M202.0174 146.995L303.1814 94.6329" fill="none" stroke="#aaa" stroke-opacity="0.5" stroke-width="0.5"></path><path d="M246.0304 81.7827L300.2809 165.8227" fill="none" stroke="#aaa" stroke-opacity="0.5" stroke-width="0.5"></path><path d="M160.7807 164.3366L129.5506 66.7858" fill="none" stroke="#aaa" stroke-opacity="0.5" stroke-width="0.5"></path><path d="M131.3252 186.0676L286.9672 62.323" fill="none" stroke="#aaa" stroke-opacity="0.5" stroke-width="0.5"></path><path d="M300.2809 165.8227L165.4415 73.0834" fill="none" stroke="#aaa" stroke-opacity="0.5" stroke-width="0.5"></path><path d="M257.9162 166.0492L114.1777 147.3671" fill="none" stroke="#aaa" stroke-opacity="0.5" stroke-width="0.5"></path><path d="M165.492 208.5177L306.4714 129.224" fill="none" stroke="#aaa" stroke-opacity="0.5" stroke-width="0.5"></path><path d="M303.1814 94.6329L215.5945 188.1627" fill="none" stroke="#aaa" stroke-opacity="0.5" stroke-width="0.5"></path><path d="M257.9162 166.0492L221.4939 24.3342" fill="none" stroke="#aaa" stroke-opacity="0.5" stroke-width="0.5"></path><path d="M165.492 208.5177L246.0304 81.7827" fill="none" stroke="#aaa" stroke-opacity="0.5" stroke-width="0.5"></path><path d="M160.7807 164.3366L256.3922 41.6744" fill="none" stroke="#aaa" stroke-opacity="0.5" stroke-width="0.5"></path><path d="M246.0304 81.7827L240.8387 219.2085" fill="none" stroke="#aaa" stroke-opacity="0.5" stroke-width="0.5"></path><path d="M114.1777 147.3671L221.4939 24.3342" fill="none" stroke="#aaa" stroke-opacity="0.5" stroke-width="0.5"></path><path d="M149.249 117.5242L114.1777 147.3671" fill="none" stroke="#aaa" stroke-opacity="0.5" stroke-width="0.5"></path><path d="M257.9162 166.0492L166.9433 34.8429" fill="none" stroke="#aaa" stroke-opacity="0.5" stroke-width="0.5"></path><path d="M215.5945 188.1627L286.9672 62.323" fill="none" stroke="#aaa" stroke-opacity="0.5" stroke-width="0.5"></path><path d="M166.9433 34.8429L129.5506 66.7858" fill="none" stroke="#aaa" stroke-opacity="0.5" stroke-width="0.5"></path><path d="M131.3252 186.0676L215.5945 188.1627" fill="none" stroke="#aaa" stroke-opacity="0.5" stroke-width="0.5"></path><path d="M149.249 117.5242L221.4939 24.3342" fill="none" stroke="#aaa" stroke-opacity="0.5" stroke-width="0.5"></path><path d="M165.492 208.5177L129.5506 66.7858" fill="none" stroke="#aaa" stroke-opacity="0.5" stroke-width="0.5"></path><path d="M202.0174 146.995L199.2259 224.0107" fill="none" stroke="#aaa" stroke-opacity="0.5" stroke-width="0.5"></path><path d="M276.6959 199.4792L165.4415 73.0834" fill="none" stroke="#aaa" stroke-opacity="0.5" stroke-width="0.5"></path><path d="M246.0304 81.7827L276.6959 199.4792" fill="none" stroke="#aaa" stroke-opacity="0.5" stroke-width="0.5"></path><path d="M306.4714 129.224L129.5506 66.7858" fill="none" stroke="#aaa" stroke-opacity="0.5" stroke-width="0.5"></path><path d="M166.9433 34.8429L256.3922 41.6744" fill="none" stroke="#aaa" stroke-opacity="0.5" stroke-width="0.5"></path><path d="M303.1814 94.6329L204.1963 104.0167" fill="none" stroke="#aaa" stroke-opacity="0.5" stroke-width="0.5"></path><path d="M149.249 117.5242L303.1814 94.6329" fill="none" stroke="#aaa" stroke-opacity="0.5" stroke-width="0.5"></path><path d="M165.492 208.5177L160.7807 164.3366" fill="none" stroke="#aaa" stroke-opacity="0.5" stroke-width="0.5"></path><path d="M221.4939 24.3342L303.1814 94.6329" fill="none" stroke="#aaa" stroke-opacity="0.5" stroke-width="0.5"></path><path d="M165.492 208.5177L256.3922 41.6744" fill="none" stroke="#aaa" stroke-opacity="0.5" stroke-width="0.5"></path><path d="M129.5506 66.7858L165.4415 73.0834" fill="none" stroke="#aaa" stroke-opacity="0.5" stroke-width="0.5"></path><path d="M306.4714 129.224L160.7807 164.3366" fill="none" stroke="#aaa" stroke-opacity="0.5" stroke-width="0.5"></path><path d="M257.9162 166.0492L286.9672 62.323" fill="none" stroke="#aaa" stroke-opacity="0.5" stroke-width="0.5"></path><path d="M131.3252 186.0676L204.1963 104.0167" fill="none" stroke="#aaa" stroke-opacity="0.5" stroke-width="0.5"></path><path d="M221.4939 24.3342L215.5945 188.1627" fill="none" stroke="#aaa" stroke-opacity="0.5" stroke-width="0.5"></path><path d="M276.6959 199.4792L300.2809 165.8227" fill="none" stroke="#aaa" stroke-opacity="0.5" stroke-width="0.5"></path><path d="M112.8293 104.107L129.5506 66.7858" fill="none" stroke="#aaa" stroke-opacity="0.5" stroke-width="0.5"></path><path d="M276.6959 199.4792L131.3252 186.0676" fill="none" stroke="#aaa" stroke-opacity="0.5" stroke-width="0.5"></path><path d="M257.9162 166.0492L199.2259 224.0107" fill="none" stroke="#aaa" stroke-opacity="0.5" stroke-width="0.5"></path><path d="M260.8135 123.1308L165.4415 73.0834" fill="none" stroke="#aaa" stroke-opacity="0.5" stroke-width="0.5"></path><path d="M114.1777 147.3671L199.2259 224.0107" fill="none" stroke="#aaa" stroke-opacity="0.5" stroke-width="0.5"></path><path d="M306.4714 129.224L300.2809 165.8227" fill="none" stroke="#aaa" stroke-opacity="0.5" stroke-width="0.5"></path><path d="M260.8135 123.1308L246.0304 81.7827" fill="none" stroke="#aaa" stroke-opacity="0.5" stroke-width="0.5"></path><path d="M160.7807 164.3366L114.1777 147.3671" fill="none" stroke="#aaa" stroke-opacity="0.5" stroke-width="0.5"></path><path d="M215.5945 188.1627L204.1963 104.0167" fill="none" stroke="#aaa" stroke-opacity="0.5" stroke-width="0.5"></path><path d="M165.4415 73.0834L199.2259 224.0107" fill="none" stroke="#aaa" stroke-opacity="0.5" stroke-width="0.5"></path><path d="M149.249 117.5242L199.2259 224.0107" fill="none" stroke="#aaa" stroke-opacity="0.5" stroke-width="0.5"></path><path d="M129.5506 66.7858L300.2809 165.8227" fill="none" stroke="#aaa" stroke-opacity="0.5" stroke-width="0.5"></path><path d="M276.6959 199.4792L240.8387 219.2085" fill="none" stroke="#aaa" stroke-opacity="0.5" stroke-width="0.5"></path><path d="M160.7807 164.3366L221.4939 24.3342" fill="none" stroke="#aaa" stroke-opacity="0.5" stroke-width="0.5"></path><path d="M129.5506 66.7858L131.3252 186.0676" fill="none" stroke="#aaa" stroke-opacity="0.5" stroke-width="0.5"></path><path d="M246.0304 81.7827L286.9672 62.323" fill="none" stroke="#aaa" stroke-opacity="0.5" stroke-width="0.5"></path><path d="M160.7807 164.3366L166.9433 34.8429" fill="none" stroke="#aaa" stroke-opacity="0.5" stroke-width="0.5"></path><path d="M306.4714 129.224L240.8387 219.2085" fill="none" stroke="#aaa" stroke-opacity="0.5" stroke-width="0.5"></path><path d="M240.8387 219.2085L300.2809 165.8227" fill="none" stroke="#aaa" stroke-opacity="0.5" stroke-width="0.5"></path><path d="M131.3252 186.0676L165.4415 73.0834" fill="none" stroke="#aaa" stroke-opacity="0.5" stroke-width="0.5"></path><path d="M204.242 51.5209L300.2809 165.8227" fill="none" stroke="#aaa" stroke-opacity="0.5" stroke-width="0.5"></path><path d="M221.4939 24.3342L204.1963 104.0167" fill="none" stroke="#aaa" stroke-opacity="0.5" stroke-width="0.5"></path><path d="M204.242 51.5209L131.3252 186.0676" fill="none" stroke="#aaa" stroke-opacity="0.5" stroke-width="0.5"></path><path d="M166.9433 34.8429L114.1777 147.3671" fill="none" stroke="#aaa" stroke-opacity="0.5" stroke-width="0.5"></path><path d="M129.5506 66.7858L240.8387 219.2085" fill="none" stroke="#aaa" stroke-opacity="0.5" stroke-width="0.5"></path><path d="M260.8135 123.1308L300.2809 165.8227" fill="none" stroke="#aaa" stroke-opacity="0.5" stroke-width="0.5"></path><path d="M202.0174 146.995L129.5506 66.7858" fill="none" stroke="#aaa" stroke-opacity="0.5" stroke-width="0.5"></path><path d="M260.8135 123.1308L131.3252 186.0676" fill="none" stroke="#aaa" stroke-opacity="0.5" stroke-width="0.5"></path><path d="M166.9433 34.8429L221.4939 24.3342" fill="none" stroke="#aaa" stroke-opacity="0.5" stroke-width="0.5"></path><path d="M165.492 208.5177L114.1777 147.3671" fill="none" stroke="#aaa" stroke-opacity="0.5" stroke-width="0.5"></path><path d="M246.0304 81.7827L215.5945 188.1627" fill="none" stroke="#aaa" stroke-opacity="0.5" stroke-width="0.5"></path><path d="M256.3922 41.6744L276.6959 199.4792" fill="none" stroke="#aaa" stroke-opacity="0.5" stroke-width="0.5"></path><path d="M306.4714 129.224L276.6959 199.4792" fill="none" stroke="#aaa" stroke-opacity="0.5" stroke-width="0.5"></path><path d="M204.242 51.5209L240.8387 219.2085" fill="none" stroke="#aaa" stroke-opacity="0.5" stroke-width="0.5"></path><path d="M165.492 208.5177L221.4939 24.3342" fill="none" stroke="#aaa" stroke-opacity="0.5" stroke-width="0.5"></path><path d="M215.5945 188.1627L165.4415 73.0834" fill="none" stroke="#aaa" stroke-opacity="0.5" stroke-width="0.5"></path><path d="M260.8135 123.1308L112.8293 104.107" fill="none" stroke="#aaa" stroke-opacity="0.5" stroke-width="0.5"></path><path d="M306.4714 129.224L204.242 51.5209" fill="none" stroke="#aaa" stroke-opacity="0.5" stroke-width="0.5"></path><path d="M306.4714 129.224L202.0174 146.995" fill="none" stroke="#aaa" stroke-opacity="0.5" stroke-width="0.5"></path><path d="M165.492 208.5177L166.9433 34.8429" fill="none" stroke="#aaa" stroke-opacity="0.5" stroke-width="0.5"></path><path d="M129.5506 66.7858L276.6959 199.4792" fill="none" stroke="#aaa" stroke-opacity="0.5" stroke-width="0.5"></path><path d="M260.8135 123.1308L240.8387 219.2085" fill="none" stroke="#aaa" stroke-opacity="0.5" stroke-width="0.5"></path><path d="M160.7807 164.3366L286.9672 62.323" fill="none" stroke="#aaa" stroke-opacity="0.5" stroke-width="0.5"></path><path d="M129.5506 66.7858L204.242 51.5209" fill="none" stroke="#aaa" stroke-opacity="0.5" stroke-width="0.5"></path><path d="M306.4714 129.224L166.9433 34.8429" fill="none" stroke="#aaa" stroke-opacity="0.5" stroke-width="0.5"></path><path d="M204.242 51.5209L276.6959 199.4792" fill="none" stroke="#aaa" stroke-opacity="0.5" stroke-width="0.5"></path><path d="M1 0A1 1 0 1 1 1 -0.0001" fill="#5470c6" transform="matrix(17.5,0,0,17.5,246.0304,81.7827)"></path><path d="M1 0A1 1 0 1 1 1 -0.0001" fill="#5470c6" transform="matrix(17.5,0,0,17.5,300.2809,165.8227)"></path><path d="M1 0A1 1 0 1 1 1 -0.0001" fill="#5470c6" transform="matrix(17.5,0,0,17.5,276.6959,199.4792)"></path><path d="M1 0A1 1 0 1 1 1 -0.0001" fill="#5470c6" transform="matrix(17.5,0,0,17.5,257.9162,166.0492)"></path><path d="M1 0A1 1 0 1 1 1 -0.0001" fill="#5470c6" transform="matrix(17.5,0,0,17.5,240.8387,219.2085)"></path><path d="M1 0A1 1 0 1 1 1 -0.0001" fill="#5470c6" transform="matrix(17.5,0,0,17.5,199.2259,224.0107)"></path><path d="M1 0A1 1 0 1 1 1 -0.0001" fill="#5470c6" transform="matrix(17.5,0,0,17.5,215.5945,188.1627)"></path><path d="M1 0A1 1 0 1 1 1 -0.0001" fill="#5470c6" transform="matrix(17.5,0,0,17.5,165.492,208.5177)"></path><path d="M1 0A1 1 0 1 1 1 -0.0001" fill="#5470c6" transform="matrix(17.5,0,0,17.5,202.0174,146.995)"></path><path d="M1 0A1 1 0 1 1 1 -0.0001" fill="#5470c6" transform="matrix(17.5,0,0,17.5,260.8135,123.1308)"></path><path d="M1 0A1 1 0 1 1 1 -0.0001" fill="#5470c6" transform="matrix(17.5,0,0,17.5,160.7807,164.3366)"></path><path d="M1 0A1 1 0 1 1 1 -0.0001" fill="#5470c6" transform="matrix(17.5,0,0,17.5,131.3252,186.0676)"></path><path d="M1 0A1 1 0 1 1 1 -0.0001" fill="#5470c6" transform="matrix(17.5,0,0,17.5,112.8293,104.107)"></path><path d="M1 0A1 1 0 1 1 1 -0.0001" fill="#5470c6" transform="matrix(17.5,0,0,17.5,114.1777,147.3671)"></path><path d="M1 0A1 1 0 1 1 1 -0.0001" fill="#5470c6" transform="matrix(17.5,0,0,17.5,129.5506,66.7858)"></path><path d="M1 0A1 1 0 1 1 1 -0.0001" fill="#5470c6" transform="matrix(17.5,0,0,17.5,165.4415,73.0834)"></path><path d="M1 0A1 1 0 1 1 1 -0.0001" fill="#5470c6" transform="matrix(17.5,0,0,17.5,149.249,117.5242)"></path><path d="M1 0A1 1 0 1 1 1 -0.0001" fill="#5470c6" transform="matrix(17.5,0,0,17.5,166.9433,34.8429)"></path><path d="M1 0A1 1 0 1 1 1 -0.0001" fill="#5470c6" transform="matrix(17.5,0,0,17.5,204.1963,104.0167)"></path><path d="M1 0A1 1 0 1 1 1 -0.0001" fill="#5470c6" transform="matrix(17.5,0,0,17.5,221.4939,24.3342)"></path><path d="M1 0A1 1 0 1 1 1 -0.0001" fill="#5470c6" transform="matrix(17.5,0,0,17.5,204.242,51.5209)"></path><path d="M1 0A1 1 0 1 1 1 -0.0001" fill="#5470c6" transform="matrix(17.5,0,0,17.5,256.3922,41.6744)"></path><path d="M1 0A1 1 0 1 1 1 -0.0001" fill="#5470c6" transform="matrix(17.5,0,0,17.5,286.9672,62.323)"></path><path d="M1 0A1 1 0 1 1 1 -0.0001" fill="#5470c6" transform="matrix(17.5,0,0,17.5,303.1814,94.6329)"></path><path d="M1 0A1 1 0 1 1 1 -0.0001" fill="#5470c6" transform="matrix(17.5,0,0,17.5,306.4714,129.224)"></path><path d="M-25.1792 -5l50.3584 0l0 32l-50.3584 0Z" fill="rgb(0,0,0)" fill-opacity="0" stroke="#ccc" stroke-width="0" transform="translate(237.5 5)"></path><text dominant-baseline="central" fill="#333" style="font-size:22px;font-family:sans-serif;font-weight:bolder;" text-anchor="middle" transform="translate(237.5 5)" y="11">C14</text></g></svg>