<svg baseprofile="full" height="250" style="position:absolute;left:0;top:0;user-select:none" version="1.1" width="475" xmlns="http://www.w3.org/2000/svg" xmlns:xlink="http://www.w3.org/1999/xlink"><rect fill="none" height="250" id="0" width="475" x="0" y="0"></rect><g><path d="M280.5742 193.7489L243.5235 221.6652" fill="none" stroke="#aaa" stroke-opacity="0.5" stroke-width="0.5"></path><path d="M197.0072 81.3492L126.2486 174.1795" fill="none" stroke="#aaa" stroke-opacity="0.5" stroke-width="0.5"></path><path d="M196.7159 221.9985L229.4497 176.6823" fill="none" stroke="#aaa" stroke-opacity="0.5" stroke-width="0.5"></path><path d="M221.8418 28.6733L264.3779 40.1786" fill="none" stroke="#aaa" stroke-opacity="0.5" stroke-width="0.5"></path><path d="M296.7459 75.2451L143.793 55.0192" fill="none" stroke="#aaa" stroke-opacity="0.5" stroke-width="0.5"></path><path d="M221.8418 28.6733L126.2486 174.1795" fill="none" stroke="#aaa" stroke-opacity="0.5" stroke-width="0.5"></path><path d="M248.9645 85.6116L308.7088 116.627" fill="none" stroke="#aaa" stroke-opacity="0.5" stroke-width="0.5"></path><path d="M251.735 133.1159L248.9645 85.6116" fill="none" stroke="#aaa" stroke-opacity="0.5" stroke-width="0.5"></path><path d="M163.6447 116.0661L178.9413 31.1403" fill="none" stroke="#aaa" stroke-opacity="0.5" stroke-width="0.5"></path><path d="M302.5365 157.3197L178.9413 31.1403" fill="none" stroke="#aaa" stroke-opacity="0.5" stroke-width="0.5"></path><path d="M196.7159 221.9985L119.0309 89.2377" fill="none" stroke="#aaa" stroke-opacity="0.5" stroke-width="0.5"></path><path d="M143.793 55.0192L119.0309 89.2377" fill="none" stroke="#aaa" stroke-opacity="0.5" stroke-width="0.5"></path><path d="M163.6447 116.0661L308.7088 116.627" fill="none" stroke="#aaa" stroke-opacity="0.5" stroke-width="0.5"></path><path d="M302.5365 157.3197L308.7088 116.627" fill="none" stroke="#aaa" stroke-opacity="0.5" stroke-width="0.5"></path><path d="M264.3779 40.1786L248.9645 85.6116" fill="none" stroke="#aaa" stroke-opacity="0.5" stroke-width="0.5"></path><path d="M196.7159 221.9985L197.0072 81.3492" fill="none" stroke="#aaa" stroke-opacity="0.5" stroke-width="0.5"></path><path d="M229.4497 176.6823L248.9645 85.6116" fill="none" stroke="#aaa" stroke-opacity="0.5" stroke-width="0.5"></path><path d="M280.5742 193.7489L178.9413 31.1403" fill="none" stroke="#aaa" stroke-opacity="0.5" stroke-width="0.5"></path><path d="M178.9413 31.1403L113.1131 133.7675" fill="none" stroke="#aaa" stroke-opacity="0.5" stroke-width="0.5"></path><path d="M280.5742 193.7489L308.7088 116.627" fill="none" stroke="#aaa" stroke-opacity="0.5" stroke-width="0.5"></path><path d="M196.7159 221.9985L264.3779 40.1786" fill="none" stroke="#aaa" stroke-opacity="0.5" stroke-width="0.5"></path><path d="M251.735 133.1159L119.0309 89.2377" fill="none" stroke="#aaa" stroke-opacity="0.5" stroke-width="0.5"></path><path d="M180.2937 160.6722L251.735 133.1159" fill="none" stroke="#aaa" stroke-opacity="0.5" stroke-width="0.5"></path><path d="M196.7159 221.9985L126.2486 174.1795" fill="none" stroke="#aaa" stroke-opacity="0.5" stroke-width="0.5"></path><path d="M197.0072 81.3492L243.5235 221.6652" fill="none" stroke="#aaa" stroke-opacity="0.5" stroke-width="0.5"></path><path d="M229.4497 176.6823L119.0309 89.2377" fill="none" stroke="#aaa" stroke-opacity="0.5" stroke-width="0.5"></path><path d="M251.735 133.1159L143.793 55.0192" fill="none" stroke="#aaa" stroke-opacity="0.5" stroke-width="0.5"></path><path d="M221.8418 28.6733L243.5235 221.6652" fill="none" stroke="#aaa" stroke-opacity="0.5" stroke-width="0.5"></path><path d="M296.7459 75.2451L155.2715 207.702" fill="none" stroke="#aaa" stroke-opacity="0.5" stroke-width="0.5"></path><path d="M126.2486 174.1795L119.0309 89.2377" fill="none" stroke="#aaa" stroke-opacity="0.5" stroke-width="0.5"></path><path d="M243.5235 221.6652L155.2715 207.702" fill="none" stroke="#aaa" stroke-opacity="0.5" stroke-width="0.5"></path><path d="M229.4497 176.6823L197.0072 81.3492" fill="none" stroke="#aaa" stroke-opacity="0.5" stroke-width="0.5"></path><path d="M296.7459 75.2451L243.5235 221.6652" fill="none" stroke="#aaa" stroke-opacity="0.5" stroke-width="0.5"></path><path d="M251.735 133.1159L126.2486 174.1795" fill="none" stroke="#aaa" stroke-opacity="0.5" stroke-width="0.5"></path><path d="M197.0072 81.3492L113.1131 133.7675" fill="none" stroke="#aaa" stroke-opacity="0.5" stroke-width="0.5"></path><path d="M229.4497 176.6823L264.3779 40.1786" fill="none" stroke="#aaa" stroke-opacity="0.5" stroke-width="0.5"></path><path d="M180.2937 160.6722L248.9645 85.6116" fill="none" stroke="#aaa" stroke-opacity="0.5" stroke-width="0.5"></path><path d="M264.3779 40.1786L126.2486 174.1795" fill="none" stroke="#aaa" stroke-opacity="0.5" stroke-width="0.5"></path><path d="M197.0072 81.3492L178.9413 31.1403" fill="none" stroke="#aaa" stroke-opacity="0.5" stroke-width="0.5"></path><path d="M308.7088 116.627L113.1131 133.7675" fill="none" stroke="#aaa" stroke-opacity="0.5" stroke-width="0.5"></path><path d="M229.4497 176.6823L126.2486 174.1795" fill="none" stroke="#aaa" stroke-opacity="0.5" stroke-width="0.5"></path><path d="M221.8418 28.6733L113.1131 133.7675" fill="none" stroke="#aaa" stroke-opacity="0.5" stroke-width="0.5"></path><path d="M143.793 55.0192L155.2715 207.702" fill="none" stroke="#aaa" stroke-opacity="0.5" stroke-width="0.5"></path><path d="M248.9645 85.6116L119.0309 89.2377" fill="none" stroke="#aaa" stroke-opacity="0.5" stroke-width="0.5"></path><path d="M221.8418 28.6733L178.9413 31.1403" fill="none" stroke="#aaa" stroke-opacity="0.5" stroke-width="0.5"></path><path d="M197.0072 81.3492L308.7088 116.627" fill="none" stroke="#aaa" stroke-opacity="0.5" stroke-width="0.5"></path><path d="M197.0072 81.3492L163.6447 116.0661" fill="none" stroke="#aaa" stroke-opacity="0.5" stroke-width="0.5"></path><path d="M163.6447 116.0661L296.7459 75.2451" fill="none" stroke="#aaa" stroke-opacity="0.5" stroke-width="0.5"></path><path d="M302.5365 157.3197L248.9645 85.6116" fill="none" stroke="#aaa" stroke-opacity="0.5" stroke-width="0.5"></path><path d="M302.5365 157.3197L296.7459 75.2451" fill="none" stroke="#aaa" stroke-opacity="0.5" stroke-width="0.5"></path><path d="M197.0072 81.3492L221.8418 28.6733" fill="none" stroke="#aaa" stroke-opacity="0.5" stroke-width="0.5"></path><path d="M296.7459 75.2451L178.9413 31.1403" fill="none" stroke="#aaa" stroke-opacity="0.5" stroke-width="0.5"></path><path d="M221.8418 28.6733L308.7088 116.627" fill="none" stroke="#aaa" stroke-opacity="0.5" stroke-width="0.5"></path><path d="M221.8418 28.6733L163.6447 116.0661" fill="none" stroke="#aaa" stroke-opacity="0.5" stroke-width="0.5"></path><path d="M248.9645 85.6116L143.793 55.0192" fill="none" stroke="#aaa" stroke-opacity="0.5" stroke-width="0.5"></path><path d="M180.2937 160.6722L119.0309 89.2377" fill="none" stroke="#aaa" stroke-opacity="0.5" stroke-width="0.5"></path><path d="M296.7459 75.2451L308.7088 116.627" fill="none" stroke="#aaa" stroke-opacity="0.5" stroke-width="0.5"></path><path d="M280.5742 193.7489L296.7459 75.2451" fill="none" stroke="#aaa" stroke-opacity="0.5" stroke-width="0.5"></path><path d="M180.2937 160.6722L197.0072 81.3492" fill="none" stroke="#aaa" stroke-opacity="0.5" stroke-width="0.5"></path><path d="M243.5235 221.6652L113.1131 133.7675" fill="none" stroke="#aaa" stroke-opacity="0.5" stroke-width="0.5"></path><path d="M251.735 133.1159L243.5235 221.6652" fill="none" stroke="#aaa" stroke-opacity="0.5" stroke-width="0.5"></path><path d="M196.7159 221.9985L113.1131 133.7675" fill="none" stroke="#aaa" stroke-opacity="0.5" stroke-width="0.5"></path><path d="M280.5742 193.7489L229.4497 176.6823" fill="none" stroke="#aaa" stroke-opacity="0.5" stroke-width="0.5"></path><path d="M196.7159 221.9985L178.9413 31.1403" fill="none" stroke="#aaa" stroke-opacity="0.5" stroke-width="0.5"></path><path d="M178.9413 31.1403L119.0309 89.2377" fill="none" stroke="#aaa" stroke-opacity="0.5" stroke-width="0.5"></path><path d="M143.793 55.0192L178.9413 31.1403" fill="none" stroke="#aaa" stroke-opacity="0.5" stroke-width="0.5"></path><path d="M180.2937 160.6722L264.3779 40.1786" fill="none" stroke="#aaa" stroke-opacity="0.5" stroke-width="0.5"></path><path d="M180.2937 160.6722L126.2486 174.1795" fill="none" stroke="#aaa" stroke-opacity="0.5" stroke-width="0.5"></path><path d="M196.7159 221.9985L308.7088 116.627" fill="none" stroke="#aaa" stroke-opacity="0.5" stroke-width="0.5"></path><path d="M196.7159 221.9985L163.6447 116.0661" fill="none" stroke="#aaa" stroke-opacity="0.5" stroke-width="0.5"></path><path d="M143.793 55.0192L308.7088 116.627" fill="none" stroke="#aaa" stroke-opacity="0.5" stroke-width="0.5"></path><path d="M196.7159 221.9985L221.8418 28.6733" fill="none" stroke="#aaa" stroke-opacity="0.5" stroke-width="0.5"></path><path d="M302.5365 157.3197L264.3779 40.1786" fill="none" stroke="#aaa" stroke-opacity="0.5" stroke-width="0.5"></path><path d="M280.5742 193.7489L197.0072 81.3492" fill="none" stroke="#aaa" stroke-opacity="0.5" stroke-width="0.5"></path><path d="M251.735 133.1159L178.9413 31.1403" fill="none" stroke="#aaa" stroke-opacity="0.5" stroke-width="0.5"></path><path d="M302.5365 157.3197L126.2486 174.1795" fill="none" stroke="#aaa" stroke-opacity="0.5" stroke-width="0.5"></path><path d="M248.9645 85.6116L155.2715 207.702" fill="none" stroke="#aaa" stroke-opacity="0.5" stroke-width="0.5"></path><path d="M264.3779 40.1786L113.1131 133.7675" fill="none" stroke="#aaa" stroke-opacity="0.5" stroke-width="0.5"></path><path d="M229.4497 176.6823L113.1131 133.7675" fill="none" stroke="#aaa" stroke-opacity="0.5" stroke-width="0.5"></path><path d="M280.5742 193.7489L264.3779 40.1786" fill="none" stroke="#aaa" stroke-opacity="0.5" stroke-width="0.5"></path><path d="M251.735 133.1159L308.7088 116.627" fill="none" stroke="#aaa" stroke-opacity="0.5" stroke-width="0.5"></path><path d="M251.735 133.1159L163.6447 116.0661" fill="none" stroke="#aaa" stroke-opacity="0.5" stroke-width="0.5"></path><path d="M126.2486 174.1795L113.1131 133.7675" fill="none" stroke="#aaa" stroke-opacity="0.5" stroke-width="0.5"></path><path d="M197.0072 81.3492L296.7459 75.2451" fill="none" stroke="#aaa" stroke-opacity="0.5" stroke-width="0.5"></path><path d="M248.9645 85.6116L243.5235 221.6652" fill="none" stroke="#aaa" stroke-opacity="0.5" stroke-width="0.5"></path><path d="M229.4497 176.6823L178.9413 31.1403" fill="none" stroke="#aaa" stroke-opacity="0.5" stroke-width="0.5"></path><path d="M280.5742 193.7489L126.2486 174.1795" fill="none" stroke="#aaa" stroke-opacity="0.5" stroke-width="0.5"></path><path d="M251.735 133.1159L221.8418 28.6733" fill="none" stroke="#aaa" stroke-opacity="0.5" stroke-width="0.5"></path><path d="M163.6447 116.0661L155.2715 207.702" fill="none" stroke="#aaa" stroke-opacity="0.5" stroke-width="0.5"></path><path d="M221.8418 28.6733L296.7459 75.2451" fill="none" stroke="#aaa" stroke-opacity="0.5" stroke-width="0.5"></path><path d="M229.4497 176.6823L308.7088 116.627" fill="none" stroke="#aaa" stroke-opacity="0.5" stroke-width="0.5"></path><path d="M229.4497 176.6823L163.6447 116.0661" fill="none" stroke="#aaa" stroke-opacity="0.5" stroke-width="0.5"></path><path d="M308.7088 116.627L119.0309 89.2377" fill="none" stroke="#aaa" stroke-opacity="0.5" stroke-width="0.5"></path><path d="M126.2486 174.1795L308.7088 116.627" fill="none" stroke="#aaa" stroke-opacity="0.5" stroke-width="0.5"></path><path d="M296.7459 75.2451L248.9645 85.6116" fill="none" stroke="#aaa" stroke-opacity="0.5" stroke-width="0.5"></path><path d="M229.4497 176.6823L221.8418 28.6733" fill="none" stroke="#aaa" stroke-opacity="0.5" stroke-width="0.5"></path><path d="M163.6447 116.0661L302.5365 157.3197" fill="none" stroke="#aaa" stroke-opacity="0.5" stroke-width="0.5"></path><path d="M197.0072 81.3492L143.793 55.0192" fill="none" stroke="#aaa" stroke-opacity="0.5" stroke-width="0.5"></path><path d="M196.7159 221.9985L280.5742 193.7489" fill="none" stroke="#aaa" stroke-opacity="0.5" stroke-width="0.5"></path><path d="M221.8418 28.6733L143.793 55.0192" fill="none" stroke="#aaa" stroke-opacity="0.5" stroke-width="0.5"></path><path d="M178.9413 31.1403L155.2715 207.702" fill="none" stroke="#aaa" stroke-opacity="0.5" stroke-width="0.5"></path><path d="M248.9645 85.6116L178.9413 31.1403" fill="none" stroke="#aaa" stroke-opacity="0.5" stroke-width="0.5"></path><path d="M280.5742 193.7489L302.5365 157.3197" fill="none" stroke="#aaa" stroke-opacity="0.5" stroke-width="0.5"></path><path d="M196.7159 221.9985L296.7459 75.2451" fill="none" stroke="#aaa" stroke-opacity="0.5" stroke-width="0.5"></path><path d="M180.2937 160.6722L113.1131 133.7675" fill="none" stroke="#aaa" stroke-opacity="0.5" stroke-width="0.5"></path><path d="M243.5235 221.6652L119.0309 89.2377" fill="none" stroke="#aaa" stroke-opacity="0.5" stroke-width="0.5"></path><path d="M180.2937 160.6722L178.9413 31.1403" fill="none" stroke="#aaa" stroke-opacity="0.5" stroke-width="0.5"></path><path d="M163.6447 116.0661L113.1131 133.7675" fill="none" stroke="#aaa" stroke-opacity="0.5" stroke-width="0.5"></path><path d="M180.2937 160.6722L308.7088 116.627" fill="none" stroke="#aaa" stroke-opacity="0.5" stroke-width="0.5"></path><path d="M243.5235 221.6652L143.793 55.0192" fill="none" stroke="#aaa" stroke-opacity="0.5" stroke-width="0.5"></path><path d="M180.2937 160.6722L163.6447 116.0661" fill="none" stroke="#aaa" stroke-opacity="0.5" stroke-width="0.5"></path><path d="M302.5365 157.3197L113.1131 133.7675" fill="none" stroke="#aaa" stroke-opacity="0.5" stroke-width="0.5"></path><path d="M196.7159 221.9985L143.793 55.0192" fill="none" stroke="#aaa" stroke-opacity="0.5" stroke-width="0.5"></path><path d="M296.7459 75.2451L264.3779 40.1786" fill="none" stroke="#aaa" stroke-opacity="0.5" stroke-width="0.5"></path><path d="M180.2937 160.6722L221.8418 28.6733" fill="none" stroke="#aaa" stroke-opacity="0.5" stroke-width="0.5"></path><path d="M251.735 133.1159L296.7459 75.2451" fill="none" stroke="#aaa" stroke-opacity="0.5" stroke-width="0.5"></path><path d="M296.7459 75.2451L126.2486 174.1795" fill="none" stroke="#aaa" stroke-opacity="0.5" stroke-width="0.5"></path><path d="M243.5235 221.6652L126.2486 174.1795" fill="none" stroke="#aaa" stroke-opacity="0.5" stroke-width="0.5"></path><path d="M197.0072 81.3492L155.2715 207.702" fill="none" stroke="#aaa" stroke-opacity="0.5" stroke-width="0.5"></path><path d="M280.5742 193.7489L180.2937 160.6722" fill="none" stroke="#aaa" stroke-opacity="0.5" stroke-width="0.5"></path><path d="M280.5742 193.7489L113.1131 133.7675" fill="none" stroke="#aaa" stroke-opacity="0.5" stroke-width="0.5"></path><path d="M308.7088 116.627L155.2715 207.702" fill="none" stroke="#aaa" stroke-opacity="0.5" stroke-width="0.5"></path><path d="M221.8418 28.6733L155.2715 207.702" fill="none" stroke="#aaa" stroke-opacity="0.5" stroke-width="0.5"></path><path d="M178.9413 31.1403L308.7088 116.627" fill="none" stroke="#aaa" stroke-opacity="0.5" stroke-width="0.5"></path><path d="M229.4497 176.6823L296.7459 75.2451" fill="none" stroke="#aaa" stroke-opacity="0.5" stroke-width="0.5"></path><path d="M264.3779 40.1786L119.0309 89.2377" fill="none" stroke="#aaa" stroke-opacity="0.5" stroke-width="0.5"></path><path d="M197.0072 81.3492L302.5365 157.3197" fill="none" stroke="#aaa" stroke-opacity="0.5" stroke-width="0.5"></path><path d="M280.5742 193.7489L163.6447 116.0661" fill="none" stroke="#aaa" stroke-opacity="0.5" stroke-width="0.5"></path><path d="M221.8418 28.6733L302.5365 157.3197" fill="none" stroke="#aaa" stroke-opacity="0.5" stroke-width="0.5"></path><path d="M280.5742 193.7489L221.8418 28.6733" fill="none" stroke="#aaa" stroke-opacity="0.5" stroke-width="0.5"></path><path d="M143.793 55.0192L126.2486 174.1795" fill="none" stroke="#aaa" stroke-opacity="0.5" stroke-width="0.5"></path><path d="M264.3779 40.1786L143.793 55.0192" fill="none" stroke="#aaa" stroke-opacity="0.5" stroke-width="0.5"></path><path d="M229.4497 176.6823L143.793 55.0192" fill="none" stroke="#aaa" stroke-opacity="0.5" stroke-width="0.5"></path><path d="M251.735 133.1159L197.0072 81.3492" fill="none" stroke="#aaa" stroke-opacity="0.5" stroke-width="0.5"></path><path d="M280.5742 193.7489L251.735 133.1159" fill="none" stroke="#aaa" stroke-opacity="0.5" stroke-width="0.5"></path><path d="M251.735 133.1159L264.3779 40.1786" fill="none" stroke="#aaa" stroke-opacity="0.5" stroke-width="0.5"></path><path d="M196.7159 221.9985L155.2715 207.702" fill="none" stroke="#aaa" stroke-opacity="0.5" stroke-width="0.5"></path><path d="M163.6447 116.0661L248.9645 85.6116" fill="none" stroke="#aaa" stroke-opacity="0.5" stroke-width="0.5"></path><path d="M196.7159 221.9985L243.5235 221.6652" fill="none" stroke="#aaa" stroke-opacity="0.5" stroke-width="0.5"></path><path d="M196.7159 221.9985L302.5365 157.3197" fill="none" stroke="#aaa" stroke-opacity="0.5" stroke-width="0.5"></path><path d="M180.2937 160.6722L296.7459 75.2451" fill="none" stroke="#aaa" stroke-opacity="0.5" stroke-width="0.5"></path><path d="M155.2715 207.702L113.1131 133.7675" fill="none" stroke="#aaa" stroke-opacity="0.5" stroke-width="0.5"></path><path d="M280.5742 193.7489L248.9645 85.6116" fill="none" stroke="#aaa" stroke-opacity="0.5" stroke-width="0.5"></path><path d="M251.735 133.1159L155.2715 207.702" fill="none" stroke="#aaa" stroke-opacity="0.5" stroke-width="0.5"></path><path d="M296.7459 75.2451L113.1131 133.7675" fill="none" stroke="#aaa" stroke-opacity="0.5" stroke-width="0.5"></path><path d="M163.6447 116.0661L119.0309 89.2377" fill="none" stroke="#aaa" stroke-opacity="0.5" stroke-width="0.5"></path><path d="M180.2937 160.6722L143.793 55.0192" fill="none" stroke="#aaa" stroke-opacity="0.5" stroke-width="0.5"></path><path d="M243.5235 221.6652L178.9413 31.1403" fill="none" stroke="#aaa" stroke-opacity="0.5" stroke-width="0.5"></path><path d="M264.3779 40.1786L155.2715 207.702" fill="none" stroke="#aaa" stroke-opacity="0.5" stroke-width="0.5"></path><path d="M251.735 133.1159L302.5365 157.3197" fill="none" stroke="#aaa" stroke-opacity="0.5" stroke-width="0.5"></path><path d="M302.5365 157.3197L119.0309 89.2377" fill="none" stroke="#aaa" stroke-opacity="0.5" stroke-width="0.5"></path><path d="M229.4497 176.6823L155.2715 207.702" fill="none" stroke="#aaa" stroke-opacity="0.5" stroke-width="0.5"></path><path d="M126.2486 174.1795L155.2715 207.702" fill="none" stroke="#aaa" stroke-opacity="0.5" stroke-width="0.5"></path><path d="M264.3779 40.1786L243.5235 221.6652" fill="none" stroke="#aaa" stroke-opacity="0.5" stroke-width="0.5"></path><path d="M243.5235 221.6652L308.7088 116.627" fill="none" stroke="#aaa" stroke-opacity="0.5" stroke-width="0.5"></path><path d="M229.4497 176.6823L243.5235 221.6652" fill="none" stroke="#aaa" stroke-opacity="0.5" stroke-width="0.5"></path><path d="M248.9645 85.6116L126.2486 174.1795" fill="none" stroke="#aaa" stroke-opacity="0.5" stroke-width="0.5"></path><path d="M163.6447 116.0661L143.793 55.0192" fill="none" stroke="#aaa" stroke-opacity="0.5" stroke-width="0.5"></path><path d="M280.5742 193.7489L119.0309 89.2377" fill="none" stroke="#aaa" stroke-opacity="0.5" stroke-width="0.5"></path><path d="M229.4497 176.6823L302.5365 157.3197" fill="none" stroke="#aaa" stroke-opacity="0.5" stroke-width="0.5"></path><path d="M196.7159 221.9985L180.2937 160.6722" fill="none" stroke="#aaa" stroke-opacity="0.5" stroke-width="0.5"></path><path d="M302.5365 157.3197L143.793 55.0192" fill="none" stroke="#aaa" stroke-opacity="0.5" stroke-width="0.5"></path><path d="M143.793 55.0192L113.1131 133.7675" fill="none" stroke="#aaa" stroke-opacity="0.5" stroke-width="0.5"></path><path d="M163.6447 116.0661L264.3779 40.1786" fill="none" stroke="#aaa" stroke-opacity="0.5" stroke-width="0.5"></path><path d="M163.6447 116.0661L126.2486 174.1795" fill="none" stroke="#aaa" stroke-opacity="0.5" stroke-width="0.5"></path><path d="M280.5742 193.7489L143.793 55.0192" fill="none" stroke="#aaa" stroke-opacity="0.5" stroke-width="0.5"></path><path d="M197.0072 81.3492L248.9645 85.6116" fill="none" stroke="#aaa" stroke-opacity="0.5" stroke-width="0.5"></path><path d="M264.3779 40.1786L178.9413 31.1403" fill="none" stroke="#aaa" stroke-opacity="0.5" stroke-width="0.5"></path><path d="M251.735 133.1159L113.1131 133.7675" fill="none" stroke="#aaa" stroke-opacity="0.5" stroke-width="0.5"></path><path d="M119.0309 89.2377L113.1131 133.7675" fill="none" stroke="#aaa" stroke-opacity="0.5" stroke-width="0.5"></path><path d="M196.7159 221.9985L251.735 133.1159" fill="none" stroke="#aaa" stroke-opacity="0.5" stroke-width="0.5"></path><path d="M221.8418 28.6733L248.9645 85.6116" fill="none" stroke="#aaa" stroke-opacity="0.5" stroke-width="0.5"></path><path d="M264.3779 40.1786L308.7088 116.627" fill="none" stroke="#aaa" stroke-opacity="0.5" stroke-width="0.5"></path><path d="M180.2937 160.6722L155.2715 207.702" fill="none" stroke="#aaa" stroke-opacity="0.5" stroke-width="0.5"></path><path d="M178.9413 31.1403L126.2486 174.1795" fill="none" stroke="#aaa" stroke-opacity="0.5" stroke-width="0.5"></path><path d="M229.4497 176.6823L180.2937 160.6722" fill="none" stroke="#aaa" stroke-opacity="0.5" stroke-width="0.5"></path><path d="M180.2937 160.6722L243.5235 221.6652" fill="none" stroke="#aaa" stroke-opacity="0.5" stroke-width="0.5"></path><path d="M180.2937 160.6722L302.5365 157.3197" fill="none" stroke="#aaa" stroke-opacity="0.5" stroke-width="0.5"></path><path d="M197.0072 81.3492L119.0309 89.2377" fill="none" stroke="#aaa" stroke-opacity="0.5" stroke-width="0.5"></path><path d="M302.5365 157.3197L155.2715 207.702" fill="none" stroke="#aaa" stroke-opacity="0.5" stroke-width="0.5"></path><path d="M163.6447 116.0661L243.5235 221.6652" fill="none" stroke="#aaa" stroke-opacity="0.5" stroke-width="0.5"></path><path d="M221.8418 28.6733L119.0309 89.2377" fill="none" stroke="#aaa" stroke-opacity="0.5" stroke-width="0.5"></path><path d="M155.2715 207.702L119.0309 89.2377" fill="none" stroke="#aaa" stroke-opacity="0.5" stroke-width="0.5"></path><path d="M302.5365 157.3197L243.5235 221.6652" fill="none" stroke="#aaa" stroke-opacity="0.5" stroke-width="0.5"></path><path d="M196.7159 221.9985L248.9645 85.6116" fill="none" stroke="#aaa" stroke-opacity="0.5" stroke-width="0.5"></path><path d="M280.5742 193.7489L155.2715 207.702" fill="none" stroke="#aaa" stroke-opacity="0.5" stroke-width="0.5"></path><path d="M296.7459 75.2451L119.0309 89.2377" fill="none" stroke="#aaa" stroke-opacity="0.5" stroke-width="0.5"></path><path d="M229.4497 176.6823L251.735 133.1159" fill="none" stroke="#aaa" stroke-opacity="0.5" stroke-width="0.5"></path><path d="M248.9645 85.6116L113.1131 133.7675" fill="none" stroke="#aaa" stroke-opacity="0.5" stroke-width="0.5"></path><path d="M197.0072 81.3492L264.3779 40.1786" fill="none" stroke="#aaa" stroke-opacity="0.5" stroke-width="0.5"></path><path d="M1 0A1 1 0 1 1 1 -0.0001" fill="#5470c6" transform="matrix(18,0,0,18,302.5365,157.3197)"></path><path d="M1 0A1 1 0 1 1 1 -0.0001" fill="#5470c6" transform="matrix(18,0,0,18,251.735,133.1159)"></path><path d="M1 0A1 1 0 1 1 1 -0.0001" fill="#5470c6" transform="matrix(18,0,0,18,280.5742,193.7489)"></path><path d="M1 0A1 1 0 1 1 1 -0.0001" fill="#5470c6" transform="matrix(18,0,0,18,243.5235,221.6652)"></path><path d="M1 0A1 1 0 1 1 1 -0.0001" fill="#5470c6" transform="matrix(18,0,0,18,229.4497,176.6823)"></path><path d="M1 0A1 1 0 1 1 1 -0.0001" fill="#5470c6" transform="matrix(18,0,0,18,196.7159,221.9985)"></path><path d="M1 0A1 1 0 1 1 1 -0.0001" fill="#5470c6" transform="matrix(18,0,0,18,155.2715,207.702)"></path><path d="M1 0A1 1 0 1 1 1 -0.0001" fill="#5470c6" transform="matrix(18,0,0,18,180.2937,160.6722)"></path><path d="M1 0A1 1 0 1 1 1 -0.0001" fill="#5470c6" transform="matrix(18,0,0,18,126.2486,174.1795)"></path><path d="M1 0A1 1 0 1 1 1 -0.0001" fill="#5470c6" transform="matrix(18,0,0,18,113.1131,133.7675)"></path><path d="M1 0A1 1 0 1 1 1 -0.0001" fill="#5470c6" transform="matrix(18,0,0,18,119.0309,89.2377)"></path><path d="M1 0A1 1 0 1 1 1 -0.0001" fill="#5470c6" transform="matrix(18,0,0,18,163.6447,116.0661)"></path><path d="M1 0A1 1 0 1 1 1 -0.0001" fill="#5470c6" transform="matrix(18,0,0,18,143.793,55.0192)"></path><path d="M1 0A1 1 0 1 1 1 -0.0001" fill="#5470c6" transform="matrix(18,0,0,18,197.0072,81.3492)"></path><path d="M1 0A1 1 0 1 1 1 -0.0001" fill="#5470c6" transform="matrix(18,0,0,18,178.9413,31.1403)"></path><path d="M1 0A1 1 0 1 1 1 -0.0001" fill="#5470c6" transform="matrix(18,0,0,18,221.8418,28.6733)"></path><path d="M1 0A1 1 0 1 1 1 -0.0001" fill="#5470c6" transform="matrix(18,0,0,18,264.3779,40.1786)"></path><path d="M1 0A1 1 0 1 1 1 -0.0001" fill="#5470c6" transform="matrix(18,0,0,18,248.9645,85.6116)"></path><path d="M1 0A1 1 0 1 1 1 -0.0001" fill="#5470c6" transform="matrix(18,0,0,18,296.7459,75.2451)"></path><path d="M1 0A1 1 0 1 1 1 -0.0001" fill="#5470c6" transform="matrix(18,0,0,18,308.7088,116.627)"></path><path d="M-31.2969 -5l62.5938 0l0 32l-62.5937 0Z" fill="rgb(0,0,0)" fill-opacity="0" stroke="#ccc" stroke-width="0" transform="translate(237.5 5)"></path><text dominant-baseline="central" fill="#333" style="font-size:22px;font-family:sans-serif;font-weight:bolder;" text-anchor="middle" transform="translate(237.5 5)" y="11">C140</text></g></svg>