<svg baseprofile="full" height="250" style="position:absolute;left:0;top:0;user-select:none" version="1.1" width="475" xmlns="http://www.w3.org/2000/svg" xmlns:xlink="http://www.w3.org/1999/xlink"><rect fill="none" height="250" id="0" width="475" x="0" y="0"></rect><g><path d="M163.3781 39.767L170.4571 142.8692" fill="none" stroke="#aaa" stroke-opacity="0.5" stroke-width="0.5"></path><path d="M161.9908 208.0891L277.8251 53.4385" fill="none" stroke="#aaa" stroke-opacity="0.5" stroke-width="0.5"></path><path d="M116.3637 103.6207L134.3476 68.0756" fill="none" stroke="#aaa" stroke-opacity="0.5" stroke-width="0.5"></path><path d="M161.9908 208.0891L254.6454 134.1619" fill="none" stroke="#aaa" stroke-opacity="0.5" stroke-width="0.5"></path><path d="M272.6689 197.2919L170.4571 142.8692" fill="none" stroke="#aaa" stroke-opacity="0.5" stroke-width="0.5"></path><path d="M299.4319 167.6757L132.5599 181.147" fill="none" stroke="#aaa" stroke-opacity="0.5" stroke-width="0.5"></path><path d="M239.0718 217.5994L254.6454 134.1619" fill="none" stroke="#aaa" stroke-opacity="0.5" stroke-width="0.5"></path><path d="M201.6652 30.5664L299.2139 86.9573" fill="none" stroke="#aaa" stroke-opacity="0.5" stroke-width="0.5"></path><path d="M299.4319 167.6757L235.0302 86.7677" fill="none" stroke="#aaa" stroke-opacity="0.5" stroke-width="0.5"></path><path d="M307.5842 126.1249L277.8251 53.4385" fill="none" stroke="#aaa" stroke-opacity="0.5" stroke-width="0.5"></path><path d="M116.3637 103.6207L161.9908 208.0891" fill="none" stroke="#aaa" stroke-opacity="0.5" stroke-width="0.5"></path><path d="M299.2139 86.9573L163.3781 39.767" fill="none" stroke="#aaa" stroke-opacity="0.5" stroke-width="0.5"></path><path d="M199.4579 220.0649L201.6652 30.5664" fill="none" stroke="#aaa" stroke-opacity="0.5" stroke-width="0.5"></path><path d="M116.3637 103.6207L170.4571 142.8692" fill="none" stroke="#aaa" stroke-opacity="0.5" stroke-width="0.5"></path><path d="M199.4579 220.0649L181.8233 93.2951" fill="none" stroke="#aaa" stroke-opacity="0.5" stroke-width="0.5"></path><path d="M241.4876 32.4675L116.7588 143.6391" fill="none" stroke="#aaa" stroke-opacity="0.5" stroke-width="0.5"></path><path d="M307.5842 126.1249L254.6454 134.1619" fill="none" stroke="#aaa" stroke-opacity="0.5" stroke-width="0.5"></path><path d="M272.6689 197.2919L277.8251 53.4385" fill="none" stroke="#aaa" stroke-opacity="0.5" stroke-width="0.5"></path><path d="M299.2139 86.9573L170.4571 142.8692" fill="none" stroke="#aaa" stroke-opacity="0.5" stroke-width="0.5"></path><path d="M161.9908 208.0891L116.7588 143.6391" fill="none" stroke="#aaa" stroke-opacity="0.5" stroke-width="0.5"></path><path d="M272.6689 197.2919L254.6454 134.1619" fill="none" stroke="#aaa" stroke-opacity="0.5" stroke-width="0.5"></path><path d="M299.4319 167.6757L272.6689 197.2919" fill="none" stroke="#aaa" stroke-opacity="0.5" stroke-width="0.5"></path><path d="M239.0718 217.5994L116.7588 143.6391" fill="none" stroke="#aaa" stroke-opacity="0.5" stroke-width="0.5"></path><path d="M235.0302 86.7677L134.3476 68.0756" fill="none" stroke="#aaa" stroke-opacity="0.5" stroke-width="0.5"></path><path d="M132.5599 181.147L201.6652 30.5664" fill="none" stroke="#aaa" stroke-opacity="0.5" stroke-width="0.5"></path><path d="M181.8233 93.2951L201.6652 30.5664" fill="none" stroke="#aaa" stroke-opacity="0.5" stroke-width="0.5"></path><path d="M116.3637 103.6207L272.6689 197.2919" fill="none" stroke="#aaa" stroke-opacity="0.5" stroke-width="0.5"></path><path d="M201.6652 30.5664L163.3781 39.767" fill="none" stroke="#aaa" stroke-opacity="0.5" stroke-width="0.5"></path><path d="M116.3637 103.6207L254.6454 134.1619" fill="none" stroke="#aaa" stroke-opacity="0.5" stroke-width="0.5"></path><path d="M199.4579 220.0649L216.756 166.381" fill="none" stroke="#aaa" stroke-opacity="0.5" stroke-width="0.5"></path><path d="M307.5842 126.1249L116.7588 143.6391" fill="none" stroke="#aaa" stroke-opacity="0.5" stroke-width="0.5"></path><path d="M161.9908 208.0891L239.0718 217.5994" fill="none" stroke="#aaa" stroke-opacity="0.5" stroke-width="0.5"></path><path d="M299.2139 86.9573L277.8251 53.4385" fill="none" stroke="#aaa" stroke-opacity="0.5" stroke-width="0.5"></path><path d="M235.0302 86.7677L161.9908 208.0891" fill="none" stroke="#aaa" stroke-opacity="0.5" stroke-width="0.5"></path><path d="M235.0302 86.7677L170.4571 142.8692" fill="none" stroke="#aaa" stroke-opacity="0.5" stroke-width="0.5"></path><path d="M163.3781 39.767L116.7588 143.6391" fill="none" stroke="#aaa" stroke-opacity="0.5" stroke-width="0.5"></path><path d="M134.3476 68.0756L216.756 166.381" fill="none" stroke="#aaa" stroke-opacity="0.5" stroke-width="0.5"></path><path d="M199.4579 220.0649L163.3781 39.767" fill="none" stroke="#aaa" stroke-opacity="0.5" stroke-width="0.5"></path><path d="M199.4579 220.0649L134.3476 68.0756" fill="none" stroke="#aaa" stroke-opacity="0.5" stroke-width="0.5"></path><path d="M307.5842 126.1249L239.0718 217.5994" fill="none" stroke="#aaa" stroke-opacity="0.5" stroke-width="0.5"></path><path d="M241.4876 32.4675L299.2139 86.9573" fill="none" stroke="#aaa" stroke-opacity="0.5" stroke-width="0.5"></path><path d="M116.3637 103.6207L307.5842 126.1249" fill="none" stroke="#aaa" stroke-opacity="0.5" stroke-width="0.5"></path><path d="M132.5599 181.147L216.756 166.381" fill="none" stroke="#aaa" stroke-opacity="0.5" stroke-width="0.5"></path><path d="M181.8233 93.2951L216.756 166.381" fill="none" stroke="#aaa" stroke-opacity="0.5" stroke-width="0.5"></path><path d="M134.3476 68.0756L163.3781 39.767" fill="none" stroke="#aaa" stroke-opacity="0.5" stroke-width="0.5"></path><path d="M116.3637 103.6207L116.7588 143.6391" fill="none" stroke="#aaa" stroke-opacity="0.5" stroke-width="0.5"></path><path d="M201.6652 30.5664L241.4876 32.4675" fill="none" stroke="#aaa" stroke-opacity="0.5" stroke-width="0.5"></path><path d="M199.4579 220.0649L161.9908 208.0891" fill="none" stroke="#aaa" stroke-opacity="0.5" stroke-width="0.5"></path><path d="M216.756 166.381L163.3781 39.767" fill="none" stroke="#aaa" stroke-opacity="0.5" stroke-width="0.5"></path><path d="M199.4579 220.0649L170.4571 142.8692" fill="none" stroke="#aaa" stroke-opacity="0.5" stroke-width="0.5"></path><path d="M201.6652 30.5664L277.8251 53.4385" fill="none" stroke="#aaa" stroke-opacity="0.5" stroke-width="0.5"></path><path d="M241.4876 32.4675L216.756 166.381" fill="none" stroke="#aaa" stroke-opacity="0.5" stroke-width="0.5"></path><path d="M235.0302 86.7677L272.6689 197.2919" fill="none" stroke="#aaa" stroke-opacity="0.5" stroke-width="0.5"></path><path d="M254.6454 134.1619L170.4571 142.8692" fill="none" stroke="#aaa" stroke-opacity="0.5" stroke-width="0.5"></path><path d="M235.0302 86.7677L254.6454 134.1619" fill="none" stroke="#aaa" stroke-opacity="0.5" stroke-width="0.5"></path><path d="M161.9908 208.0891L299.2139 86.9573" fill="none" stroke="#aaa" stroke-opacity="0.5" stroke-width="0.5"></path><path d="M134.3476 68.0756L161.9908 208.0891" fill="none" stroke="#aaa" stroke-opacity="0.5" stroke-width="0.5"></path><path d="M239.0718 217.5994L299.2139 86.9573" fill="none" stroke="#aaa" stroke-opacity="0.5" stroke-width="0.5"></path><path d="M134.3476 68.0756L170.4571 142.8692" fill="none" stroke="#aaa" stroke-opacity="0.5" stroke-width="0.5"></path><path d="M132.5599 181.147L134.3476 68.0756" fill="none" stroke="#aaa" stroke-opacity="0.5" stroke-width="0.5"></path><path d="M181.8233 93.2951L134.3476 68.0756" fill="none" stroke="#aaa" stroke-opacity="0.5" stroke-width="0.5"></path><path d="M116.3637 103.6207L239.0718 217.5994" fill="none" stroke="#aaa" stroke-opacity="0.5" stroke-width="0.5"></path><path d="M216.756 166.381L161.9908 208.0891" fill="none" stroke="#aaa" stroke-opacity="0.5" stroke-width="0.5"></path><path d="M216.756 166.381L170.4571 142.8692" fill="none" stroke="#aaa" stroke-opacity="0.5" stroke-width="0.5"></path><path d="M199.4579 220.0649L299.4319 167.6757" fill="none" stroke="#aaa" stroke-opacity="0.5" stroke-width="0.5"></path><path d="M116.7588 143.6391L277.8251 53.4385" fill="none" stroke="#aaa" stroke-opacity="0.5" stroke-width="0.5"></path><path d="M241.4876 32.4675L163.3781 39.767" fill="none" stroke="#aaa" stroke-opacity="0.5" stroke-width="0.5"></path><path d="M307.5842 126.1249L299.2139 86.9573" fill="none" stroke="#aaa" stroke-opacity="0.5" stroke-width="0.5"></path><path d="M132.5599 181.147L161.9908 208.0891" fill="none" stroke="#aaa" stroke-opacity="0.5" stroke-width="0.5"></path><path d="M299.4319 167.6757L201.6652 30.5664" fill="none" stroke="#aaa" stroke-opacity="0.5" stroke-width="0.5"></path><path d="M181.8233 93.2951L161.9908 208.0891" fill="none" stroke="#aaa" stroke-opacity="0.5" stroke-width="0.5"></path><path d="M299.4319 167.6757L181.8233 93.2951" fill="none" stroke="#aaa" stroke-opacity="0.5" stroke-width="0.5"></path><path d="M132.5599 181.147L170.4571 142.8692" fill="none" stroke="#aaa" stroke-opacity="0.5" stroke-width="0.5"></path><path d="M181.8233 93.2951L170.4571 142.8692" fill="none" stroke="#aaa" stroke-opacity="0.5" stroke-width="0.5"></path><path d="M199.4579 220.0649L272.6689 197.2919" fill="none" stroke="#aaa" stroke-opacity="0.5" stroke-width="0.5"></path><path d="M199.4579 220.0649L254.6454 134.1619" fill="none" stroke="#aaa" stroke-opacity="0.5" stroke-width="0.5"></path><path d="M235.0302 86.7677L307.5842 126.1249" fill="none" stroke="#aaa" stroke-opacity="0.5" stroke-width="0.5"></path><path d="M134.3476 68.0756L277.8251 53.4385" fill="none" stroke="#aaa" stroke-opacity="0.5" stroke-width="0.5"></path><path d="M235.0302 86.7677L116.7588 143.6391" fill="none" stroke="#aaa" stroke-opacity="0.5" stroke-width="0.5"></path><path d="M241.4876 32.4675L170.4571 142.8692" fill="none" stroke="#aaa" stroke-opacity="0.5" stroke-width="0.5"></path><path d="M272.6689 197.2919L299.2139 86.9573" fill="none" stroke="#aaa" stroke-opacity="0.5" stroke-width="0.5"></path><path d="M134.3476 68.0756L254.6454 134.1619" fill="none" stroke="#aaa" stroke-opacity="0.5" stroke-width="0.5"></path><path d="M216.756 166.381L272.6689 197.2919" fill="none" stroke="#aaa" stroke-opacity="0.5" stroke-width="0.5"></path><path d="M216.756 166.381L254.6454 134.1619" fill="none" stroke="#aaa" stroke-opacity="0.5" stroke-width="0.5"></path><path d="M116.3637 103.6207L299.2139 86.9573" fill="none" stroke="#aaa" stroke-opacity="0.5" stroke-width="0.5"></path><path d="M235.0302 86.7677L239.0718 217.5994" fill="none" stroke="#aaa" stroke-opacity="0.5" stroke-width="0.5"></path><path d="M132.5599 181.147L272.6689 197.2919" fill="none" stroke="#aaa" stroke-opacity="0.5" stroke-width="0.5"></path><path d="M181.8233 93.2951L272.6689 197.2919" fill="none" stroke="#aaa" stroke-opacity="0.5" stroke-width="0.5"></path><path d="M132.5599 181.147L254.6454 134.1619" fill="none" stroke="#aaa" stroke-opacity="0.5" stroke-width="0.5"></path><path d="M181.8233 93.2951L254.6454 134.1619" fill="none" stroke="#aaa" stroke-opacity="0.5" stroke-width="0.5"></path><path d="M199.4579 220.0649L307.5842 126.1249" fill="none" stroke="#aaa" stroke-opacity="0.5" stroke-width="0.5"></path><path d="M299.4319 167.6757L216.756 166.381" fill="none" stroke="#aaa" stroke-opacity="0.5" stroke-width="0.5"></path><path d="M199.4579 220.0649L116.3637 103.6207" fill="none" stroke="#aaa" stroke-opacity="0.5" stroke-width="0.5"></path><path d="M241.4876 32.4675L277.8251 53.4385" fill="none" stroke="#aaa" stroke-opacity="0.5" stroke-width="0.5"></path><path d="M199.4579 220.0649L116.7588 143.6391" fill="none" stroke="#aaa" stroke-opacity="0.5" stroke-width="0.5"></path><path d="M254.6454 134.1619L116.7588 143.6391" fill="none" stroke="#aaa" stroke-opacity="0.5" stroke-width="0.5"></path><path d="M161.9908 208.0891L272.6689 197.2919" fill="none" stroke="#aaa" stroke-opacity="0.5" stroke-width="0.5"></path><path d="M239.0718 217.5994L272.6689 197.2919" fill="none" stroke="#aaa" stroke-opacity="0.5" stroke-width="0.5"></path><path d="M134.3476 68.0756L116.7588 143.6391" fill="none" stroke="#aaa" stroke-opacity="0.5" stroke-width="0.5"></path><path d="M299.4319 167.6757L163.3781 39.767" fill="none" stroke="#aaa" stroke-opacity="0.5" stroke-width="0.5"></path><path d="M299.4319 167.6757L134.3476 68.0756" fill="none" stroke="#aaa" stroke-opacity="0.5" stroke-width="0.5"></path><path d="M216.756 166.381L116.7588 143.6391" fill="none" stroke="#aaa" stroke-opacity="0.5" stroke-width="0.5"></path><path d="M199.4579 220.0649L239.0718 217.5994" fill="none" stroke="#aaa" stroke-opacity="0.5" stroke-width="0.5"></path><path d="M116.3637 103.6207L163.3781 39.767" fill="none" stroke="#aaa" stroke-opacity="0.5" stroke-width="0.5"></path><path d="M307.5842 126.1249L272.6689 197.2919" fill="none" stroke="#aaa" stroke-opacity="0.5" stroke-width="0.5"></path><path d="M239.0718 217.5994L277.8251 53.4385" fill="none" stroke="#aaa" stroke-opacity="0.5" stroke-width="0.5"></path><path d="M132.5599 181.147L307.5842 126.1249" fill="none" stroke="#aaa" stroke-opacity="0.5" stroke-width="0.5"></path><path d="M181.8233 93.2951L307.5842 126.1249" fill="none" stroke="#aaa" stroke-opacity="0.5" stroke-width="0.5"></path><path d="M307.5842 126.1249L241.4876 32.4675" fill="none" stroke="#aaa" stroke-opacity="0.5" stroke-width="0.5"></path><path d="M132.5599 181.147L116.3637 103.6207" fill="none" stroke="#aaa" stroke-opacity="0.5" stroke-width="0.5"></path><path d="M181.8233 93.2951L116.3637 103.6207" fill="none" stroke="#aaa" stroke-opacity="0.5" stroke-width="0.5"></path><path d="M132.5599 181.147L116.7588 143.6391" fill="none" stroke="#aaa" stroke-opacity="0.5" stroke-width="0.5"></path><path d="M181.8233 93.2951L116.7588 143.6391" fill="none" stroke="#aaa" stroke-opacity="0.5" stroke-width="0.5"></path><path d="M299.4319 167.6757L161.9908 208.0891" fill="none" stroke="#aaa" stroke-opacity="0.5" stroke-width="0.5"></path><path d="M235.0302 87.5L299.2139 87.5" fill="none" stroke="#aaa" stroke-opacity="0.5" stroke-width="0.5"></path><path d="M134.3476 68.0756L239.0718 217.5994" fill="none" stroke="#aaa" stroke-opacity="0.5" stroke-width="0.5"></path><path d="M299.4319 167.6757L170.4571 142.8692" fill="none" stroke="#aaa" stroke-opacity="0.5" stroke-width="0.5"></path><path d="M201.6652 30.5664L216.756 166.381" fill="none" stroke="#aaa" stroke-opacity="0.5" stroke-width="0.5"></path><path d="M170.4571 142.8692L277.8251 53.4385" fill="none" stroke="#aaa" stroke-opacity="0.5" stroke-width="0.5"></path><path d="M216.756 166.381L239.0718 217.5994" fill="none" stroke="#aaa" stroke-opacity="0.5" stroke-width="0.5"></path><path d="M163.3781 39.767L277.8251 53.4385" fill="none" stroke="#aaa" stroke-opacity="0.5" stroke-width="0.5"></path><path d="M235.0302 86.7677L216.756 166.381" fill="none" stroke="#aaa" stroke-opacity="0.5" stroke-width="0.5"></path><path d="M132.5599 181.147L239.0718 217.5994" fill="none" stroke="#aaa" stroke-opacity="0.5" stroke-width="0.5"></path><path d="M181.8233 93.2951L239.0718 217.5994" fill="none" stroke="#aaa" stroke-opacity="0.5" stroke-width="0.5"></path><path d="M299.4319 167.6757L241.4876 32.4675" fill="none" stroke="#aaa" stroke-opacity="0.5" stroke-width="0.5"></path><path d="M201.6652 30.5664L134.3476 68.0756" fill="none" stroke="#aaa" stroke-opacity="0.5" stroke-width="0.5"></path><path d="M116.3637 103.6207L241.4876 32.4675" fill="none" stroke="#aaa" stroke-opacity="0.5" stroke-width="0.5"></path><path d="M199.4579 220.0649L299.2139 86.9573" fill="none" stroke="#aaa" stroke-opacity="0.5" stroke-width="0.5"></path><path d="M299.4319 167.6757L277.8251 53.4385" fill="none" stroke="#aaa" stroke-opacity="0.5" stroke-width="0.5"></path><path d="M241.4876 32.4675L239.0718 217.5994" fill="none" stroke="#aaa" stroke-opacity="0.5" stroke-width="0.5"></path><path d="M254.6454 134.1619L299.2139 86.9573" fill="none" stroke="#aaa" stroke-opacity="0.5" stroke-width="0.5"></path><path d="M116.3637 103.6207L277.8251 53.4385" fill="none" stroke="#aaa" stroke-opacity="0.5" stroke-width="0.5"></path><path d="M299.4319 167.6757L254.6454 134.1619" fill="none" stroke="#aaa" stroke-opacity="0.5" stroke-width="0.5"></path><path d="M235.0302 86.7677L163.3781 39.767" fill="none" stroke="#aaa" stroke-opacity="0.5" stroke-width="0.5"></path><path d="M201.6652 30.5664L161.9908 208.0891" fill="none" stroke="#aaa" stroke-opacity="0.5" stroke-width="0.5"></path><path d="M132.5599 181.147L181.8233 93.2951" fill="none" stroke="#aaa" stroke-opacity="0.5" stroke-width="0.5"></path><path d="M134.3476 68.0756L299.2139 86.9573" fill="none" stroke="#aaa" stroke-opacity="0.5" stroke-width="0.5"></path><path d="M201.6652 30.5664L170.4571 142.8692" fill="none" stroke="#aaa" stroke-opacity="0.5" stroke-width="0.5"></path><path d="M216.756 166.381L299.2139 86.9573" fill="none" stroke="#aaa" stroke-opacity="0.5" stroke-width="0.5"></path><path d="M272.6689 197.2919L116.7588 143.6391" fill="none" stroke="#aaa" stroke-opacity="0.5" stroke-width="0.5"></path><path d="M132.5599 181.147L299.2139 86.9573" fill="none" stroke="#aaa" stroke-opacity="0.5" stroke-width="0.5"></path><path d="M199.4579 220.0649L132.5599 181.147" fill="none" stroke="#aaa" stroke-opacity="0.5" stroke-width="0.5"></path><path d="M181.8233 93.2951L299.2139 86.9573" fill="none" stroke="#aaa" stroke-opacity="0.5" stroke-width="0.5"></path><path d="M116.7588 143.6391L170.4571 142.8692" fill="none" stroke="#aaa" stroke-opacity="0.5" stroke-width="0.5"></path><path d="M299.4319 167.6757L307.5842 126.1249" fill="none" stroke="#aaa" stroke-opacity="0.5" stroke-width="0.5"></path><path d="M199.4579 220.0649L235.0302 86.7677" fill="none" stroke="#aaa" stroke-opacity="0.5" stroke-width="0.5"></path><path d="M254.6454 134.1619L163.3781 39.767" fill="none" stroke="#aaa" stroke-opacity="0.5" stroke-width="0.5"></path><path d="M299.4319 167.6757L116.3637 103.6207" fill="none" stroke="#aaa" stroke-opacity="0.5" stroke-width="0.5"></path><path d="M299.4319 167.6757L116.7588 143.6391" fill="none" stroke="#aaa" stroke-opacity="0.5" stroke-width="0.5"></path><path d="M201.6652 30.5664L272.6689 197.2919" fill="none" stroke="#aaa" stroke-opacity="0.5" stroke-width="0.5"></path><path d="M235.0302 86.7677L241.4876 32.4675" fill="none" stroke="#aaa" stroke-opacity="0.5" stroke-width="0.5"></path><path d="M299.2139 86.9573L116.7588 143.6391" fill="none" stroke="#aaa" stroke-opacity="0.5" stroke-width="0.5"></path><path d="M201.6652 30.5664L254.6454 134.1619" fill="none" stroke="#aaa" stroke-opacity="0.5" stroke-width="0.5"></path><path d="M235.0302 86.7677L277.8251 53.4385" fill="none" stroke="#aaa" stroke-opacity="0.5" stroke-width="0.5"></path><path d="M241.4876 32.4675L134.3476 68.0756" fill="none" stroke="#aaa" stroke-opacity="0.5" stroke-width="0.5"></path><path d="M299.4319 167.6757L239.0718 217.5994" fill="none" stroke="#aaa" stroke-opacity="0.5" stroke-width="0.5"></path><path d="M132.5599 181.147L163.3781 39.767" fill="none" stroke="#aaa" stroke-opacity="0.5" stroke-width="0.5"></path><path d="M181.8233 93.2951L163.3781 39.767" fill="none" stroke="#aaa" stroke-opacity="0.5" stroke-width="0.5"></path><path d="M132.5599 181.147L235.0302 86.7677" fill="none" stroke="#aaa" stroke-opacity="0.5" stroke-width="0.5"></path><path d="M181.8233 93.2951L235.0302 86.7677" fill="none" stroke="#aaa" stroke-opacity="0.5" stroke-width="0.5"></path><path d="M199.4579 220.0649L241.4876 32.4675" fill="none" stroke="#aaa" stroke-opacity="0.5" stroke-width="0.5"></path><path d="M241.4876 32.4675L161.9908 208.0891" fill="none" stroke="#aaa" stroke-opacity="0.5" stroke-width="0.5"></path><path d="M201.6652 30.5664L307.5842 126.1249" fill="none" stroke="#aaa" stroke-opacity="0.5" stroke-width="0.5"></path><path d="M307.5842 126.1249L216.756 166.381" fill="none" stroke="#aaa" stroke-opacity="0.5" stroke-width="0.5"></path><path d="M161.9908 208.0891L163.3781 39.767" fill="none" stroke="#aaa" stroke-opacity="0.5" stroke-width="0.5"></path><path d="M201.6652 30.5664L116.3637 103.6207" fill="none" stroke="#aaa" stroke-opacity="0.5" stroke-width="0.5"></path><path d="M134.3476 68.0756L272.6689 197.2919" fill="none" stroke="#aaa" stroke-opacity="0.5" stroke-width="0.5"></path><path d="M199.4579 220.0649L277.8251 53.4385" fill="none" stroke="#aaa" stroke-opacity="0.5" stroke-width="0.5"></path><path d="M201.6652 30.5664L116.7588 143.6391" fill="none" stroke="#aaa" stroke-opacity="0.5" stroke-width="0.5"></path><path d="M239.0718 217.5994L163.3781 39.767" fill="none" stroke="#aaa" stroke-opacity="0.5" stroke-width="0.5"></path><path d="M254.6454 134.1619L277.8251 53.4385" fill="none" stroke="#aaa" stroke-opacity="0.5" stroke-width="0.5"></path><path d="M235.0302 86.7677L116.3637 103.6207" fill="none" stroke="#aaa" stroke-opacity="0.5" stroke-width="0.5"></path><path d="M307.5842 126.1249L163.3781 39.767" fill="none" stroke="#aaa" stroke-opacity="0.5" stroke-width="0.5"></path><path d="M307.5842 126.1249L134.3476 68.0756" fill="none" stroke="#aaa" stroke-opacity="0.5" stroke-width="0.5"></path><path d="M161.9908 208.0891L170.4571 142.8692" fill="none" stroke="#aaa" stroke-opacity="0.5" stroke-width="0.5"></path><path d="M216.756 166.381L277.8251 53.4385" fill="none" stroke="#aaa" stroke-opacity="0.5" stroke-width="0.5"></path><path d="M201.6652 30.5664L239.0718 217.5994" fill="none" stroke="#aaa" stroke-opacity="0.5" stroke-width="0.5"></path><path d="M299.4319 167.6757L299.2139 86.9573" fill="none" stroke="#aaa" stroke-opacity="0.5" stroke-width="0.5"></path><path d="M239.0718 217.5994L170.4571 142.8692" fill="none" stroke="#aaa" stroke-opacity="0.5" stroke-width="0.5"></path><path d="M132.5599 181.147L241.4876 32.4675" fill="none" stroke="#aaa" stroke-opacity="0.5" stroke-width="0.5"></path><path d="M181.8233 93.2951L241.4876 32.4675" fill="none" stroke="#aaa" stroke-opacity="0.5" stroke-width="0.5"></path><path d="M116.3637 103.6207L216.756 166.381" fill="none" stroke="#aaa" stroke-opacity="0.5" stroke-width="0.5"></path><path d="M241.4876 32.4675L272.6689 197.2919" fill="none" stroke="#aaa" stroke-opacity="0.5" stroke-width="0.5"></path><path d="M241.4876 32.4675L254.6454 134.1619" fill="none" stroke="#aaa" stroke-opacity="0.5" stroke-width="0.5"></path><path d="M132.5599 181.147L277.8251 53.4385" fill="none" stroke="#aaa" stroke-opacity="0.5" stroke-width="0.5"></path><path d="M181.8233 93.2951L277.8251 53.4385" fill="none" stroke="#aaa" stroke-opacity="0.5" stroke-width="0.5"></path><path d="M307.5842 126.1249L161.9908 208.0891" fill="none" stroke="#aaa" stroke-opacity="0.5" stroke-width="0.5"></path><path d="M272.6689 197.2919L163.3781 39.767" fill="none" stroke="#aaa" stroke-opacity="0.5" stroke-width="0.5"></path><path d="M307.5842 126.1249L170.4571 142.8692" fill="none" stroke="#aaa" stroke-opacity="0.5" stroke-width="0.5"></path><path d="M235.0302 86.7677L201.6652 30.5664" fill="none" stroke="#aaa" stroke-opacity="0.5" stroke-width="0.5"></path><path d="M1 0A1 1 0 1 1 1 -0.0001" fill="#5470c6" transform="matrix(18,0,0,18,254.6454,134.1619)"></path><path d="M1 0A1 1 0 1 1 1 -0.0001" fill="#5470c6" transform="matrix(18,0,0,18,299.4319,167.6757)"></path><path d="M1 0A1 1 0 1 1 1 -0.0001" fill="#5470c6" transform="matrix(18,0,0,18,216.756,166.381)"></path><path d="M1 0A1 1 0 1 1 1 -0.0001" fill="#5470c6" transform="matrix(18,0,0,18,272.6689,197.2919)"></path><path d="M1 0A1 1 0 1 1 1 -0.0001" fill="#5470c6" transform="matrix(18,0,0,18,239.0718,217.5994)"></path><path d="M1 0A1 1 0 1 1 1 -0.0001" fill="#5470c6" transform="matrix(18,0,0,18,199.4579,220.0649)"></path><path d="M1 0A1 1 0 1 1 1 -0.0001" fill="#5470c6" transform="matrix(18,0,0,18,161.9908,208.0891)"></path><path d="M1 0A1 1 0 1 1 1 -0.0001" fill="#5470c6" transform="matrix(18,0,0,18,170.4571,142.8692)"></path><path d="M1 0A1 1 0 1 1 1 -0.0001" fill="#5470c6" transform="matrix(18,0,0,18,132.5599,181.147)"></path><path d="M1 0A1 1 0 1 1 1 -0.0001" fill="#5470c6" transform="matrix(18,0,0,18,116.7588,143.6391)"></path><path d="M1 0A1 1 0 1 1 1 -0.0001" fill="#5470c6" transform="matrix(18,0,0,18,116.3637,103.6207)"></path><path d="M1 0A1 1 0 1 1 1 -0.0001" fill="#5470c6" transform="matrix(18,0,0,18,134.3476,68.0756)"></path><path d="M1 0A1 1 0 1 1 1 -0.0001" fill="#5470c6" transform="matrix(18,0,0,18,181.8233,93.2951)"></path><path d="M1 0A1 1 0 1 1 1 -0.0001" fill="#5470c6" transform="matrix(18,0,0,18,163.3781,39.767)"></path><path d="M1 0A1 1 0 1 1 1 -0.0001" fill="#5470c6" transform="matrix(18,0,0,18,201.6652,30.5664)"></path><path d="M1 0A1 1 0 1 1 1 -0.0001" fill="#5470c6" transform="matrix(18,0,0,18,241.4876,32.4675)"></path><path d="M1 0A1 1 0 1 1 1 -0.0001" fill="#5470c6" transform="matrix(18,0,0,18,235.0302,86.7677)"></path><path d="M1 0A1 1 0 1 1 1 -0.0001" fill="#5470c6" transform="matrix(18,0,0,18,277.8251,53.4385)"></path><path d="M1 0A1 1 0 1 1 1 -0.0001" fill="#5470c6" transform="matrix(18,0,0,18,299.2139,86.9573)"></path><path d="M1 0A1 1 0 1 1 1 -0.0001" fill="#5470c6" transform="matrix(18,0,0,18,307.5842,126.1249)"></path><path d="M-31.2969 -5l62.5938 0l0 32l-62.5937 0Z" fill="rgb(0,0,0)" fill-opacity="0" stroke="#ccc" stroke-width="0" transform="translate(237.5 5)"></path><text dominant-baseline="central" fill="#333" style="font-size:22px;font-family:sans-serif;font-weight:bolder;" text-anchor="middle" transform="translate(237.5 5)" y="11">C141</text></g></svg>