<svg baseprofile="full" height="250" style="position:absolute;left:0;top:0;user-select:none" version="1.1" width="475" xmlns="http://www.w3.org/2000/svg" xmlns:xlink="http://www.w3.org/1999/xlink"><rect fill="none" height="250" id="0" width="475" x="0" y="0"></rect><g><path d="M159.1914 36.0221L211.5095 26.816" fill="none" stroke="#aaa" stroke-opacity="0.5" stroke-width="0.5"></path><path d="M122.6187 78.8834L204.5077 176.3467" fill="none" stroke="#aaa" stroke-opacity="0.5" stroke-width="0.5"></path><path d="M259.9045 37.2648L211.5095 26.816" fill="none" stroke="#aaa" stroke-opacity="0.5" stroke-width="0.5"></path><path d="M204.5077 176.3467L127.4438 180.354" fill="none" stroke="#aaa" stroke-opacity="0.5" stroke-width="0.5"></path><path d="M219.8725 226.7489L159.1914 36.0221" fill="none" stroke="#aaa" stroke-opacity="0.5" stroke-width="0.5"></path><path d="M204.5077 176.3467L109.9948 128.8883" fill="none" stroke="#aaa" stroke-opacity="0.5" stroke-width="0.5"></path><path d="M159.1914 36.0221L294.7016 73.3" fill="none" stroke="#aaa" stroke-opacity="0.5" stroke-width="0.5"></path><path d="M238.1149 89.2359L267.0657 206.488" fill="none" stroke="#aaa" stroke-opacity="0.5" stroke-width="0.5"></path><path d="M122.6187 78.8834L254.0229 143.751" fill="none" stroke="#aaa" stroke-opacity="0.5" stroke-width="0.5"></path><path d="M259.9045 37.2648L294.7016 73.3" fill="none" stroke="#aaa" stroke-opacity="0.5" stroke-width="0.5"></path><path d="M219.8725 226.7489L179.8808 81.6799" fill="none" stroke="#aaa" stroke-opacity="0.5" stroke-width="0.5"></path><path d="M301.1039 168.7839L259.9045 37.2648" fill="none" stroke="#aaa" stroke-opacity="0.5" stroke-width="0.5"></path><path d="M165.9932 214.9483L238.1149 89.2359" fill="none" stroke="#aaa" stroke-opacity="0.5" stroke-width="0.5"></path><path d="M259.9045 37.2648L162.4777 136.6534" fill="none" stroke="#aaa" stroke-opacity="0.5" stroke-width="0.5"></path><path d="M301.1039 168.7839L219.8725 226.7489" fill="none" stroke="#aaa" stroke-opacity="0.5" stroke-width="0.5"></path><path d="M259.9045 37.2648L310.7364 118.8356" fill="none" stroke="#aaa" stroke-opacity="0.5" stroke-width="0.5"></path><path d="M238.1149 89.2359L254.0229 143.751" fill="none" stroke="#aaa" stroke-opacity="0.5" stroke-width="0.5"></path><path d="M301.1039 168.7839L294.7016 73.3" fill="none" stroke="#aaa" stroke-opacity="0.5" stroke-width="0.5"></path><path d="M294.7016 73.3L204.5077 176.3467" fill="none" stroke="#aaa" stroke-opacity="0.5" stroke-width="0.5"></path><path d="M301.1039 168.7839L162.4777 136.6534" fill="none" stroke="#aaa" stroke-opacity="0.5" stroke-width="0.5"></path><path d="M238.1149 89.2359L259.9045 37.2648" fill="none" stroke="#aaa" stroke-opacity="0.5" stroke-width="0.5"></path><path d="M165.9932 214.9483L301.1039 168.7839" fill="none" stroke="#aaa" stroke-opacity="0.5" stroke-width="0.5"></path><path d="M238.1149 89.2359L211.5095 26.816" fill="none" stroke="#aaa" stroke-opacity="0.5" stroke-width="0.5"></path><path d="M301.1039 168.7839L310.7364 118.8356" fill="none" stroke="#aaa" stroke-opacity="0.5" stroke-width="0.5"></path><path d="M254.0229 143.751L109.9948 128.8883" fill="none" stroke="#aaa" stroke-opacity="0.5" stroke-width="0.5"></path><path d="M238.1149 89.2359L219.8725 226.7489" fill="none" stroke="#aaa" stroke-opacity="0.5" stroke-width="0.5"></path><path d="M294.7016 73.3L254.0229 143.751" fill="none" stroke="#aaa" stroke-opacity="0.5" stroke-width="0.5"></path><path d="M238.1149 89.2359L122.6187 78.8834" fill="none" stroke="#aaa" stroke-opacity="0.5" stroke-width="0.5"></path><path d="M127.4438 180.354L162.4777 136.6534" fill="none" stroke="#aaa" stroke-opacity="0.5" stroke-width="0.5"></path><path d="M122.6187 78.8834L127.4438 180.354" fill="none" stroke="#aaa" stroke-opacity="0.5" stroke-width="0.5"></path><path d="M204.5077 176.3467L179.8808 81.6799" fill="none" stroke="#aaa" stroke-opacity="0.5" stroke-width="0.5"></path><path d="M238.1149 89.2359L294.7016 73.3" fill="none" stroke="#aaa" stroke-opacity="0.5" stroke-width="0.5"></path><path d="M165.9932 214.9483L267.0657 206.488" fill="none" stroke="#aaa" stroke-opacity="0.5" stroke-width="0.5"></path><path d="M122.6187 78.8834L109.9948 128.8883" fill="none" stroke="#aaa" stroke-opacity="0.5" stroke-width="0.5"></path><path d="M127.4438 180.354L310.7364 118.8356" fill="none" stroke="#aaa" stroke-opacity="0.5" stroke-width="0.5"></path><path d="M165.9932 214.9483L204.5077 176.3467" fill="none" stroke="#aaa" stroke-opacity="0.5" stroke-width="0.5"></path><path d="M301.1039 168.7839L127.4438 180.354" fill="none" stroke="#aaa" stroke-opacity="0.5" stroke-width="0.5"></path><path d="M219.8725 226.7489L259.9045 37.2648" fill="none" stroke="#aaa" stroke-opacity="0.5" stroke-width="0.5"></path><path d="M294.7016 73.3L122.6187 78.8834" fill="none" stroke="#aaa" stroke-opacity="0.5" stroke-width="0.5"></path><path d="M165.9932 214.9483L254.0229 143.751" fill="none" stroke="#aaa" stroke-opacity="0.5" stroke-width="0.5"></path><path d="M238.1149 89.2359L109.9948 128.8883" fill="none" stroke="#aaa" stroke-opacity="0.5" stroke-width="0.5"></path><path d="M204.5077 176.3467L267.0657 206.488" fill="none" stroke="#aaa" stroke-opacity="0.5" stroke-width="0.5"></path><path d="M109.9948 128.8883L179.8808 81.6799" fill="none" stroke="#aaa" stroke-opacity="0.5" stroke-width="0.5"></path><path d="M219.8725 226.7489L294.7016 73.3" fill="none" stroke="#aaa" stroke-opacity="0.5" stroke-width="0.5"></path><path d="M165.9932 214.9483L211.5095 26.816" fill="none" stroke="#aaa" stroke-opacity="0.5" stroke-width="0.5"></path><path d="M219.8725 226.7489L162.4777 136.6534" fill="none" stroke="#aaa" stroke-opacity="0.5" stroke-width="0.5"></path><path d="M294.7016 73.3L127.4438 180.354" fill="none" stroke="#aaa" stroke-opacity="0.5" stroke-width="0.5"></path><path d="M294.7016 73.3L109.9948 128.8883" fill="none" stroke="#aaa" stroke-opacity="0.5" stroke-width="0.5"></path><path d="M165.9932 214.9483L122.6187 78.8834" fill="none" stroke="#aaa" stroke-opacity="0.5" stroke-width="0.5"></path><path d="M219.8725 226.7489L310.7364 118.8356" fill="none" stroke="#aaa" stroke-opacity="0.5" stroke-width="0.5"></path><path d="M254.0229 143.751L179.8808 81.6799" fill="none" stroke="#aaa" stroke-opacity="0.5" stroke-width="0.5"></path><path d="M109.9948 128.8883L267.0657 206.488" fill="none" stroke="#aaa" stroke-opacity="0.5" stroke-width="0.5"></path><path d="M301.1039 168.7839L238.1149 89.2359" fill="none" stroke="#aaa" stroke-opacity="0.5" stroke-width="0.5"></path><path d="M204.5077 176.3467L211.5095 26.816" fill="none" stroke="#aaa" stroke-opacity="0.5" stroke-width="0.5"></path><path d="M122.6187 78.8834L179.8808 81.6799" fill="none" stroke="#aaa" stroke-opacity="0.5" stroke-width="0.5"></path><path d="M211.5095 26.816L109.9948 128.8883" fill="none" stroke="#aaa" stroke-opacity="0.5" stroke-width="0.5"></path><path d="M238.1149 89.2359L159.1914 36.0221" fill="none" stroke="#aaa" stroke-opacity="0.5" stroke-width="0.5"></path><path d="M179.8808 81.6799L162.4777 136.6534" fill="none" stroke="#aaa" stroke-opacity="0.5" stroke-width="0.5"></path><path d="M219.8725 226.7489L127.4438 180.354" fill="none" stroke="#aaa" stroke-opacity="0.5" stroke-width="0.5"></path><path d="M165.9932 214.9483L109.9948 128.8883" fill="none" stroke="#aaa" stroke-opacity="0.5" stroke-width="0.5"></path><path d="M254.0229 143.751L267.0657 206.488" fill="none" stroke="#aaa" stroke-opacity="0.5" stroke-width="0.5"></path><path d="M159.1914 36.0221L204.5077 176.3467" fill="none" stroke="#aaa" stroke-opacity="0.5" stroke-width="0.5"></path><path d="M238.1149 89.2359L179.8808 81.6799" fill="none" stroke="#aaa" stroke-opacity="0.5" stroke-width="0.5"></path><path d="M204.5077 176.3467L162.4777 136.6534" fill="none" stroke="#aaa" stroke-opacity="0.5" stroke-width="0.5"></path><path d="M259.9045 37.2648L204.5077 176.3467" fill="none" stroke="#aaa" stroke-opacity="0.5" stroke-width="0.5"></path><path d="M122.6187 78.8834L267.0657 206.488" fill="none" stroke="#aaa" stroke-opacity="0.5" stroke-width="0.5"></path><path d="M204.5077 176.3467L310.7364 118.8356" fill="none" stroke="#aaa" stroke-opacity="0.5" stroke-width="0.5"></path><path d="M159.1914 36.0221L254.0229 143.751" fill="none" stroke="#aaa" stroke-opacity="0.5" stroke-width="0.5"></path><path d="M310.7364 118.8356L179.8808 81.6799" fill="none" stroke="#aaa" stroke-opacity="0.5" stroke-width="0.5"></path><path d="M301.1039 168.7839L267.0657 206.488" fill="none" stroke="#aaa" stroke-opacity="0.5" stroke-width="0.5"></path><path d="M259.9045 37.2648L254.0229 143.751" fill="none" stroke="#aaa" stroke-opacity="0.5" stroke-width="0.5"></path><path d="M294.7016 73.3L179.8808 81.6799" fill="none" stroke="#aaa" stroke-opacity="0.5" stroke-width="0.5"></path><path d="M301.1039 168.7839L204.5077 176.3467" fill="none" stroke="#aaa" stroke-opacity="0.5" stroke-width="0.5"></path><path d="M254.0229 143.751L211.5095 26.816" fill="none" stroke="#aaa" stroke-opacity="0.5" stroke-width="0.5"></path><path d="M109.9948 128.8883L162.4777 136.6534" fill="none" stroke="#aaa" stroke-opacity="0.5" stroke-width="0.5"></path><path d="M127.4438 180.354L267.0657 206.488" fill="none" stroke="#aaa" stroke-opacity="0.5" stroke-width="0.5"></path><path d="M159.1914 36.0221L162.4777 136.6534" fill="none" stroke="#aaa" stroke-opacity="0.5" stroke-width="0.5"></path><path d="M165.9932 214.9483L159.1914 36.0221" fill="none" stroke="#aaa" stroke-opacity="0.5" stroke-width="0.5"></path><path d="M109.9948 128.8883L310.7364 118.8356" fill="none" stroke="#aaa" stroke-opacity="0.5" stroke-width="0.5"></path><path d="M301.1039 168.7839L254.0229 143.751" fill="none" stroke="#aaa" stroke-opacity="0.5" stroke-width="0.5"></path><path d="M159.1914 36.0221L122.6187 78.8834" fill="none" stroke="#aaa" stroke-opacity="0.5" stroke-width="0.5"></path><path d="M122.6187 78.8834L211.5095 26.816" fill="none" stroke="#aaa" stroke-opacity="0.5" stroke-width="0.5"></path><path d="M159.1914 36.0221L310.7364 118.8356" fill="none" stroke="#aaa" stroke-opacity="0.5" stroke-width="0.5"></path><path d="M259.9045 37.2648L122.6187 78.8834" fill="none" stroke="#aaa" stroke-opacity="0.5" stroke-width="0.5"></path><path d="M211.5095 26.816L179.8808 81.6799" fill="none" stroke="#aaa" stroke-opacity="0.5" stroke-width="0.5"></path><path d="M294.7016 73.3L267.0657 206.488" fill="none" stroke="#aaa" stroke-opacity="0.5" stroke-width="0.5"></path><path d="M301.1039 168.7839L211.5095 26.816" fill="none" stroke="#aaa" stroke-opacity="0.5" stroke-width="0.5"></path><path d="M238.1149 89.2359L204.5077 176.3467" fill="none" stroke="#aaa" stroke-opacity="0.5" stroke-width="0.5"></path><path d="M254.0229 143.751L162.4777 136.6534" fill="none" stroke="#aaa" stroke-opacity="0.5" stroke-width="0.5"></path><path d="M165.9932 214.9483L179.8808 81.6799" fill="none" stroke="#aaa" stroke-opacity="0.5" stroke-width="0.5"></path><path d="M127.4438 180.354L254.0229 143.751" fill="none" stroke="#aaa" stroke-opacity="0.5" stroke-width="0.5"></path><path d="M254.0229 143.751L310.7364 118.8356" fill="none" stroke="#aaa" stroke-opacity="0.5" stroke-width="0.5"></path><path d="M301.1039 168.7839L122.6187 78.8834" fill="none" stroke="#aaa" stroke-opacity="0.5" stroke-width="0.5"></path><path d="M159.1914 36.0221L127.4438 180.354" fill="none" stroke="#aaa" stroke-opacity="0.5" stroke-width="0.5"></path><path d="M122.6187 78.8834L162.4777 136.6534" fill="none" stroke="#aaa" stroke-opacity="0.5" stroke-width="0.5"></path><path d="M259.9045 37.2648L127.4438 180.354" fill="none" stroke="#aaa" stroke-opacity="0.5" stroke-width="0.5"></path><path d="M159.1914 36.0221L109.9948 128.8883" fill="none" stroke="#aaa" stroke-opacity="0.5" stroke-width="0.5"></path><path d="M127.4438 180.354L211.5095 26.816" fill="none" stroke="#aaa" stroke-opacity="0.5" stroke-width="0.5"></path><path d="M259.9045 37.2648L109.9948 128.8883" fill="none" stroke="#aaa" stroke-opacity="0.5" stroke-width="0.5"></path><path d="M211.5095 26.816L267.0657 206.488" fill="none" stroke="#aaa" stroke-opacity="0.5" stroke-width="0.5"></path><path d="M122.6187 78.8834L310.7364 118.8356" fill="none" stroke="#aaa" stroke-opacity="0.5" stroke-width="0.5"></path><path d="M219.8725 226.7489L267.0657 206.488" fill="none" stroke="#aaa" stroke-opacity="0.5" stroke-width="0.5"></path><path d="M267.0657 206.488L179.8808 81.6799" fill="none" stroke="#aaa" stroke-opacity="0.5" stroke-width="0.5"></path><path d="M294.7016 73.3L211.5095 26.816" fill="none" stroke="#aaa" stroke-opacity="0.5" stroke-width="0.5"></path><path d="M219.8725 226.7489L204.5077 176.3467" fill="none" stroke="#aaa" stroke-opacity="0.5" stroke-width="0.5"></path><path d="M238.1149 89.2359L162.4777 136.6534" fill="none" stroke="#aaa" stroke-opacity="0.5" stroke-width="0.5"></path><path d="M301.1039 168.7839L109.9948 128.8883" fill="none" stroke="#aaa" stroke-opacity="0.5" stroke-width="0.5"></path><path d="M238.1149 89.2359L310.7364 118.8356" fill="none" stroke="#aaa" stroke-opacity="0.5" stroke-width="0.5"></path><path d="M219.8725 226.7489L254.0229 143.751" fill="none" stroke="#aaa" stroke-opacity="0.5" stroke-width="0.5"></path><path d="M310.7364 118.8356L162.4777 136.6534" fill="none" stroke="#aaa" stroke-opacity="0.5" stroke-width="0.5"></path><path d="M294.7016 73.3L162.4777 136.6534" fill="none" stroke="#aaa" stroke-opacity="0.5" stroke-width="0.5"></path><path d="M127.4438 180.354L109.9948 128.8883" fill="none" stroke="#aaa" stroke-opacity="0.5" stroke-width="0.5"></path><path d="M219.8725 226.7489L211.5095 26.816" fill="none" stroke="#aaa" stroke-opacity="0.5" stroke-width="0.5"></path><path d="M165.9932 214.9483L259.9045 37.2648" fill="none" stroke="#aaa" stroke-opacity="0.5" stroke-width="0.5"></path><path d="M294.7016 73.3L310.7364 118.8356" fill="none" stroke="#aaa" stroke-opacity="0.5" stroke-width="0.5"></path><path d="M259.9045 37.2648L159.1914 36.0221" fill="none" stroke="#aaa" stroke-opacity="0.5" stroke-width="0.5"></path><path d="M238.1149 89.2359L127.4438 180.354" fill="none" stroke="#aaa" stroke-opacity="0.5" stroke-width="0.5"></path><path d="M165.9932 214.9483L219.8725 226.7489" fill="none" stroke="#aaa" stroke-opacity="0.5" stroke-width="0.5"></path><path d="M219.8725 226.7489L122.6187 78.8834" fill="none" stroke="#aaa" stroke-opacity="0.5" stroke-width="0.5"></path><path d="M159.1914 36.0221L179.8808 81.6799" fill="none" stroke="#aaa" stroke-opacity="0.5" stroke-width="0.5"></path><path d="M211.5095 26.816L162.4777 136.6534" fill="none" stroke="#aaa" stroke-opacity="0.5" stroke-width="0.5"></path><path d="M165.9932 214.9483L294.7016 73.3" fill="none" stroke="#aaa" stroke-opacity="0.5" stroke-width="0.5"></path><path d="M259.9045 37.2648L179.8808 81.6799" fill="none" stroke="#aaa" stroke-opacity="0.5" stroke-width="0.5"></path><path d="M301.1039 168.7839L159.1914 36.0221" fill="none" stroke="#aaa" stroke-opacity="0.5" stroke-width="0.5"></path><path d="M211.5095 26.816L310.7364 118.8356" fill="none" stroke="#aaa" stroke-opacity="0.5" stroke-width="0.5"></path><path d="M165.9932 214.9483L162.4777 136.6534" fill="none" stroke="#aaa" stroke-opacity="0.5" stroke-width="0.5"></path><path d="M204.5077 176.3467L254.0229 143.751" fill="none" stroke="#aaa" stroke-opacity="0.5" stroke-width="0.5"></path><path d="M165.9932 214.9483L310.7364 118.8356" fill="none" stroke="#aaa" stroke-opacity="0.5" stroke-width="0.5"></path><path d="M219.8725 226.7489L109.9948 128.8883" fill="none" stroke="#aaa" stroke-opacity="0.5" stroke-width="0.5"></path><path d="M301.1039 168.7839L179.8808 81.6799" fill="none" stroke="#aaa" stroke-opacity="0.5" stroke-width="0.5"></path><path d="M159.1914 36.0221L267.0657 206.488" fill="none" stroke="#aaa" stroke-opacity="0.5" stroke-width="0.5"></path><path d="M259.9045 37.2648L267.0657 206.488" fill="none" stroke="#aaa" stroke-opacity="0.5" stroke-width="0.5"></path><path d="M267.0657 206.488L162.4777 136.6534" fill="none" stroke="#aaa" stroke-opacity="0.5" stroke-width="0.5"></path><path d="M165.9932 214.9483L127.4438 180.354" fill="none" stroke="#aaa" stroke-opacity="0.5" stroke-width="0.5"></path><path d="M127.4438 180.354L179.8808 81.6799" fill="none" stroke="#aaa" stroke-opacity="0.5" stroke-width="0.5"></path><path d="M267.0657 206.488L310.7364 118.8356" fill="none" stroke="#aaa" stroke-opacity="0.5" stroke-width="0.5"></path><path d="M1 0A1 1 0 1 1 1 -0.0001" fill="#5470c6" transform="matrix(18,0,0,18,301.1039,168.7839)"></path><path d="M1 0A1 1 0 1 1 1 -0.0001" fill="#5470c6" transform="matrix(18,0,0,18,267.0657,206.488)"></path><path d="M1 0A1 1 0 1 1 1 -0.0001" fill="#5470c6" transform="matrix(18,0,0,18,254.0229,143.751)"></path><path d="M1 0A1 1 0 1 1 1 -0.0001" fill="#5470c6" transform="matrix(18,0,0,18,219.8725,226.7489)"></path><path d="M1 0A1 1 0 1 1 1 -0.0001" fill="#5470c6" transform="matrix(18,0,0,18,204.5077,176.3467)"></path><path d="M1 0A1 1 0 1 1 1 -0.0001" fill="#5470c6" transform="matrix(18,0,0,18,165.9932,214.9483)"></path><path d="M1 0A1 1 0 1 1 1 -0.0001" fill="#5470c6" transform="matrix(18,0,0,18,127.4438,180.354)"></path><path d="M1 0A1 1 0 1 1 1 -0.0001" fill="#5470c6" transform="matrix(18,0,0,18,162.4777,136.6534)"></path><path d="M1 0A1 1 0 1 1 1 -0.0001" fill="#5470c6" transform="matrix(18,0,0,18,109.9948,128.8883)"></path><path d="M1 0A1 1 0 1 1 1 -0.0001" fill="#5470c6" transform="matrix(18,0,0,18,122.6187,78.8834)"></path><path d="M1 0A1 1 0 1 1 1 -0.0001" fill="#5470c6" transform="matrix(18,0,0,18,179.8808,81.6799)"></path><path d="M1 0A1 1 0 1 1 1 -0.0001" fill="#5470c6" transform="matrix(18,0,0,18,159.1914,36.0221)"></path><path d="M1 0A1 1 0 1 1 1 -0.0001" fill="#5470c6" transform="matrix(18,0,0,18,211.5095,26.816)"></path><path d="M1 0A1 1 0 1 1 1 -0.0001" fill="#5470c6" transform="matrix(18,0,0,18,238.1149,89.2359)"></path><path d="M1 0A1 1 0 1 1 1 -0.0001" fill="#5470c6" transform="matrix(18,0,0,18,259.9045,37.2648)"></path><path d="M1 0A1 1 0 1 1 1 -0.0001" fill="#5470c6" transform="matrix(18,0,0,18,294.7016,73.3)"></path><path d="M1 0A1 1 0 1 1 1 -0.0001" fill="#5470c6" transform="matrix(18,0,0,18,310.7364,118.8356)"></path><path d="M-32.4922 -5l64.9844 0l0 33l-64.9844 0Z" fill="rgb(0,0,0)" fill-opacity="0" stroke="#ccc" stroke-width="0" transform="translate(237.5 5)"></path><text dominant-baseline="central" fill="#333" style="font-size:23px;font-family:sans-serif;font-weight:bolder;" text-anchor="middle" transform="translate(237.5 5)" y="11.5">C142</text></g></svg>