<svg baseprofile="full" height="250" style="position:absolute;left:0;top:0;user-select:none" version="1.1" width="475" xmlns="http://www.w3.org/2000/svg" xmlns:xlink="http://www.w3.org/1999/xlink"><rect fill="none" height="250" id="0" width="475" x="0" y="0"></rect><g><path d="M188.0313 168.7574L166.7229 101.6691" fill="none" stroke="#aaa" stroke-opacity="0.5"></path><path d="M108.3182 127.9387L126.325 63.6859" fill="none" stroke="#aaa" stroke-opacity="0.5"></path><path d="M188.0313 168.7574L313.7382 126.3169" fill="none" stroke="#aaa" stroke-opacity="0.5"></path><path d="M253.2861 143.0757L166.7229 101.6691" fill="none" stroke="#aaa" stroke-opacity="0.5"></path><path d="M253.2861 143.0757L313.7382 126.3169" fill="none" stroke="#aaa" stroke-opacity="0.5"></path><path d="M188.0313 168.7574L296.2539 68.2561" fill="none" stroke="#aaa" stroke-opacity="0.5"></path><path d="M108.3182 127.9387L166.7229 101.6691" fill="none" stroke="#aaa" stroke-opacity="0.5"></path><path d="M244.0832 25.3204L313.7382 126.3169" fill="none" stroke="#aaa" stroke-opacity="0.5"></path><path d="M244.0832 25.3204L296.2539 68.2561" fill="none" stroke="#aaa" stroke-opacity="0.5"></path><path d="M244.0832 25.3204L233.4946 77.5612" fill="none" stroke="#aaa" stroke-opacity="0.5"></path><path d="M293.8534 187.333L128.2565 185.5731" fill="none" stroke="#aaa" stroke-opacity="0.5"></path><path d="M178.9831 28.4304L128.2565 185.5731" fill="none" stroke="#aaa" stroke-opacity="0.5"></path><path d="M242.9217 220.3851L166.7229 101.6691" fill="none" stroke="#aaa" stroke-opacity="0.5"></path><path d="M242.9217 220.3851L313.7382 126.3169" fill="none" stroke="#aaa" stroke-opacity="0.5"></path><path d="M253.2861 143.0757L293.8534 187.333" fill="none" stroke="#aaa" stroke-opacity="0.5"></path><path d="M188.0313 168.7574L242.9217 220.3851" fill="none" stroke="#aaa" stroke-opacity="0.5"></path><path d="M242.9217 220.3851L296.2539 68.2561" fill="none" stroke="#aaa" stroke-opacity="0.5"></path><path d="M108.3182 127.9387L293.8534 187.333" fill="none" stroke="#aaa" stroke-opacity="0.5"></path><path d="M233.4946 77.5612L166.7229 101.6691" fill="none" stroke="#aaa" stroke-opacity="0.5"></path><path d="M181.4941 225.697L296.2539 68.2561" fill="none" stroke="#aaa" stroke-opacity="0.5"></path><path d="M244.0832 25.3204L242.9217 220.3851" fill="none" stroke="#aaa" stroke-opacity="0.5"></path><path d="M233.4946 77.5612L313.7382 126.3169" fill="none" stroke="#aaa" stroke-opacity="0.5"></path><path d="M181.4941 225.697L233.4946 77.5612" fill="none" stroke="#aaa" stroke-opacity="0.5"></path><path d="M233.4946 77.5612L296.2539 68.2561" fill="none" stroke="#aaa" stroke-opacity="0.5"></path><path d="M293.8534 187.333L126.325 63.6859" fill="none" stroke="#aaa" stroke-opacity="0.5"></path><path d="M178.9831 28.4304L126.325 63.6859" fill="none" stroke="#aaa" stroke-opacity="0.5"></path><path d="M244.0832 25.3204L253.2861 143.0757" fill="none" stroke="#aaa" stroke-opacity="0.5"></path><path d="M166.7229 101.6691L126.325 63.6859" fill="none" stroke="#aaa" stroke-opacity="0.5"></path><path d="M293.8534 187.333L166.7229 101.6691" fill="none" stroke="#aaa" stroke-opacity="0.5"></path><path d="M178.9831 28.4304L166.7229 101.6691" fill="none" stroke="#aaa" stroke-opacity="0.5"></path><path d="M293.8534 187.333L313.7382 126.3169" fill="none" stroke="#aaa" stroke-opacity="0.5"></path><path d="M178.9831 28.4304L313.7382 126.3169" fill="none" stroke="#aaa" stroke-opacity="0.5"></path><path d="M128.2565 185.5731L126.325 63.6859" fill="none" stroke="#aaa" stroke-opacity="0.5"></path><path d="M181.4941 225.697L242.9217 220.3851" fill="none" stroke="#aaa" stroke-opacity="0.5"></path><path d="M188.0313 168.7574L128.2565 185.5731" fill="none" stroke="#aaa" stroke-opacity="0.5"></path><path d="M126.325 63.6859L296.2539 68.2561" fill="none" stroke="#aaa" stroke-opacity="0.5"></path><path d="M244.0832 25.3204L188.0313 168.7574" fill="none" stroke="#aaa" stroke-opacity="0.5"></path><path d="M188.0313 168.7574L181.4941 225.697" fill="none" stroke="#aaa" stroke-opacity="0.5"></path><path d="M244.0832 25.3204L108.3182 127.9387" fill="none" stroke="#aaa" stroke-opacity="0.5"></path><path d="M244.0832 25.3204L128.2565 185.5731" fill="none" stroke="#aaa" stroke-opacity="0.5"></path><path d="M244.0832 25.3204L181.4941 225.697" fill="none" stroke="#aaa" stroke-opacity="0.5"></path><path d="M244.0832 25.3204L178.9831 28.4304" fill="none" stroke="#aaa" stroke-opacity="0.5"></path><path d="M178.9831 28.4304L293.8534 187.333" fill="none" stroke="#aaa" stroke-opacity="0.5"></path><path d="M188.0313 168.7574L126.325 63.6859" fill="none" stroke="#aaa" stroke-opacity="0.5"></path><path d="M244.0832 25.3204L126.325 63.6859" fill="none" stroke="#aaa" stroke-opacity="0.5"></path><path d="M242.9217 220.3851L128.2565 185.5731" fill="none" stroke="#aaa" stroke-opacity="0.5"></path><path d="M188.0313 168.7574L233.4946 77.5612" fill="none" stroke="#aaa" stroke-opacity="0.5"></path><path d="M253.2861 143.0757L296.2539 68.2561" fill="none" stroke="#aaa" stroke-opacity="0.5"></path><path d="M108.3182 127.9387L313.7382 126.3169" fill="none" stroke="#aaa" stroke-opacity="0.5"></path><path d="M253.2861 143.0757L233.4946 77.5612" fill="none" stroke="#aaa" stroke-opacity="0.5"></path><path d="M181.4941 225.697L128.2565 185.5731" fill="none" stroke="#aaa" stroke-opacity="0.5"></path><path d="M108.3182 127.9387L296.2539 68.2561" fill="none" stroke="#aaa" stroke-opacity="0.5"></path><path d="M244.0832 25.3204L166.7229 101.6691" fill="none" stroke="#aaa" stroke-opacity="0.5"></path><path d="M108.3182 127.9387L233.4946 77.5612" fill="none" stroke="#aaa" stroke-opacity="0.5"></path><path d="M233.4946 77.5612L128.2565 185.5731" fill="none" stroke="#aaa" stroke-opacity="0.5"></path><path d="M181.4941 225.697L178.9831 28.4304" fill="none" stroke="#aaa" stroke-opacity="0.5"></path><path d="M242.9217 220.3851L126.325 63.6859" fill="none" stroke="#aaa" stroke-opacity="0.5"></path><path d="M181.4941 225.697L126.325 63.6859" fill="none" stroke="#aaa" stroke-opacity="0.5"></path><path d="M242.9217 220.3851L233.4946 77.5612" fill="none" stroke="#aaa" stroke-opacity="0.5"></path><path d="M253.2861 143.0757L242.9217 220.3851" fill="none" stroke="#aaa" stroke-opacity="0.5"></path><path d="M188.0313 168.7574L293.8534 187.333" fill="none" stroke="#aaa" stroke-opacity="0.5"></path><path d="M233.4946 77.5612L126.325 63.6859" fill="none" stroke="#aaa" stroke-opacity="0.5"></path><path d="M108.3182 127.9387L242.9217 220.3851" fill="none" stroke="#aaa" stroke-opacity="0.5"></path><path d="M181.4941 225.697L166.7229 101.6691" fill="none" stroke="#aaa" stroke-opacity="0.5"></path><path d="M244.0832 25.3204L293.8534 187.333" fill="none" stroke="#aaa" stroke-opacity="0.5"></path><path d="M181.4941 225.697L313.7382 126.3169" fill="none" stroke="#aaa" stroke-opacity="0.5"></path><path d="M108.3182 127.9387L253.2861 143.0757" fill="none" stroke="#aaa" stroke-opacity="0.5"></path><path d="M313.7382 126.3169L296.2539 68.2561" fill="none" stroke="#aaa" stroke-opacity="0.5"></path><path d="M293.8534 187.333L296.2539 68.2561" fill="none" stroke="#aaa" stroke-opacity="0.5"></path><path d="M178.9831 28.4304L296.2539 68.2561" fill="none" stroke="#aaa" stroke-opacity="0.5"></path><path d="M293.8534 187.333L233.4946 77.5612" fill="none" stroke="#aaa" stroke-opacity="0.5"></path><path d="M166.7229 101.6691L313.7382 126.3169" fill="none" stroke="#aaa" stroke-opacity="0.5"></path><path d="M178.9831 28.4304L233.4946 77.5612" fill="none" stroke="#aaa" stroke-opacity="0.5"></path><path d="M253.2861 143.0757L188.0313 168.7574" fill="none" stroke="#aaa" stroke-opacity="0.5"></path><path d="M242.9217 220.3851L293.8534 187.333" fill="none" stroke="#aaa" stroke-opacity="0.5"></path><path d="M166.7229 101.6691L296.2539 68.2561" fill="none" stroke="#aaa" stroke-opacity="0.5"></path><path d="M128.2565 185.5731L166.7229 101.6691" fill="none" stroke="#aaa" stroke-opacity="0.5"></path><path d="M128.2565 185.5731L313.7382 126.3169" fill="none" stroke="#aaa" stroke-opacity="0.5"></path><path d="M108.3182 127.9387L188.0313 168.7574" fill="none" stroke="#aaa" stroke-opacity="0.5"></path><path d="M253.2861 143.0757L128.2565 185.5731" fill="none" stroke="#aaa" stroke-opacity="0.5"></path><path d="M253.2861 143.0757L181.4941 225.697" fill="none" stroke="#aaa" stroke-opacity="0.5"></path><path d="M181.4941 225.697L293.8534 187.333" fill="none" stroke="#aaa" stroke-opacity="0.5"></path><path d="M128.2565 185.5731L296.2539 68.2561" fill="none" stroke="#aaa" stroke-opacity="0.5"></path><path d="M126.325 63.6859L313.7382 126.3169" fill="none" stroke="#aaa" stroke-opacity="0.5"></path><path d="M108.3182 127.9387L128.2565 185.5731" fill="none" stroke="#aaa" stroke-opacity="0.5"></path><path d="M188.0313 168.7574L178.9831 28.4304" fill="none" stroke="#aaa" stroke-opacity="0.5"></path><path d="M108.3182 127.9387L181.4941 225.697" fill="none" stroke="#aaa" stroke-opacity="0.5"></path><path d="M253.2861 143.0757L178.9831 28.4304" fill="none" stroke="#aaa" stroke-opacity="0.5"></path><path d="M108.3182 127.9387L178.9831 28.4304" fill="none" stroke="#aaa" stroke-opacity="0.5"></path><path d="M178.9831 28.4304L242.9217 220.3851" fill="none" stroke="#aaa" stroke-opacity="0.5"></path><path d="M253.2861 143.0757L126.325 63.6859" fill="none" stroke="#aaa" stroke-opacity="0.5"></path><path d="M1 0A1 1 0 1 1 1 -0.0001" fill="#5470c6" transform="matrix(18.5,0,0,18.5,253.2861,143.0757)"></path><path d="M1 0A1 1 0 1 1 1 -0.0001" fill="#5470c6" transform="matrix(18.5,0,0,18.5,293.8534,187.333)"></path><path d="M1 0A1 1 0 1 1 1 -0.0001" fill="#5470c6" transform="matrix(18.5,0,0,18.5,242.9217,220.3851)"></path><path d="M1 0A1 1 0 1 1 1 -0.0001" fill="#5470c6" transform="matrix(18.5,0,0,18.5,181.4941,225.697)"></path><path d="M1 0A1 1 0 1 1 1 -0.0001" fill="#5470c6" transform="matrix(18.5,0,0,18.5,188.0313,168.7574)"></path><path d="M1 0A1 1 0 1 1 1 -0.0001" fill="#5470c6" transform="matrix(18.5,0,0,18.5,128.2565,185.5731)"></path><path d="M1 0A1 1 0 1 1 1 -0.0001" fill="#5470c6" transform="matrix(18.5,0,0,18.5,108.3182,127.9387)"></path><path d="M1 0A1 1 0 1 1 1 -0.0001" fill="#5470c6" transform="matrix(18.5,0,0,18.5,166.7229,101.6691)"></path><path d="M1 0A1 1 0 1 1 1 -0.0001" fill="#5470c6" transform="matrix(18.5,0,0,18.5,126.325,63.6859)"></path><path d="M1 0A1 1 0 1 1 1 -0.0001" fill="#5470c6" transform="matrix(18.5,0,0,18.5,233.4946,77.5612)"></path><path d="M1 0A1 1 0 1 1 1 -0.0001" fill="#5470c6" transform="matrix(18.5,0,0,18.5,178.9831,28.4304)"></path><path d="M1 0A1 1 0 1 1 1 -0.0001" fill="#5470c6" transform="matrix(18.5,0,0,18.5,244.0832,25.3204)"></path><path d="M1 0A1 1 0 1 1 1 -0.0001" fill="#5470c6" transform="matrix(18.5,0,0,18.5,296.2539,68.2561)"></path><path d="M1 0A1 1 0 1 1 1 -0.0001" fill="#5470c6" transform="matrix(18.5,0,0,18.5,313.7382,126.3169)"></path><path d="M-32.4922 -5l64.9844 0l0 33l-64.9844 0Z" fill="rgb(0,0,0)" fill-opacity="0" stroke="#ccc" stroke-width="0" transform="translate(237.5 5)"></path><text dominant-baseline="central" fill="#333" style="font-size:23px;font-family:sans-serif;font-weight:bolder;" text-anchor="middle" transform="translate(237.5 5)" y="11.5">C143</text></g></svg>