<svg baseprofile="full" height="250" style="position:absolute;left:0;top:0;user-select:none" version="1.1" width="475" xmlns="http://www.w3.org/2000/svg" xmlns:xlink="http://www.w3.org/1999/xlink"><rect fill="none" height="250" id="0" width="475" x="0" y="0"></rect><g><path d="M288.7206 188.8399L240.9436 222.4192" fill="none" stroke="#aaa" stroke-opacity="0.5"></path><path d="M314.9917 132.7341L126.415 182.4837" fill="none" stroke="#aaa" stroke-opacity="0.5"></path><path d="M288.7206 188.8399L314.9917 132.7341" fill="none" stroke="#aaa" stroke-opacity="0.5"></path><path d="M244.5144 29.9256L198.8544 162.6443" fill="none" stroke="#aaa" stroke-opacity="0.5"></path><path d="M183.0334 25.5204L126.415 182.4837" fill="none" stroke="#aaa" stroke-opacity="0.5"></path><path d="M244.5144 29.9256L240.9436 222.4192" fill="none" stroke="#aaa" stroke-opacity="0.5"></path><path d="M244.5144 29.9256L314.9917 132.7341" fill="none" stroke="#aaa" stroke-opacity="0.5"></path><path d="M255.6411 112.8726L198.8544 162.6443" fill="none" stroke="#aaa" stroke-opacity="0.5"></path><path d="M288.7206 188.8399L126.415 182.4837" fill="none" stroke="#aaa" stroke-opacity="0.5"></path><path d="M175.8725 223.0035L182.8158 91.2576" fill="none" stroke="#aaa" stroke-opacity="0.5"></path><path d="M255.6411 112.8726L240.9436 222.4192" fill="none" stroke="#aaa" stroke-opacity="0.5"></path><path d="M198.8544 162.6443L296.66 64.7945" fill="none" stroke="#aaa" stroke-opacity="0.5"></path><path d="M110.7904 124.6143L125.3833 63.8904" fill="none" stroke="#aaa" stroke-opacity="0.5"></path><path d="M255.6411 112.8726L314.9917 132.7341" fill="none" stroke="#aaa" stroke-opacity="0.5"></path><path d="M296.66 64.7945L125.3833 63.8904" fill="none" stroke="#aaa" stroke-opacity="0.5"></path><path d="M240.9436 222.4192L125.3833 63.8904" fill="none" stroke="#aaa" stroke-opacity="0.5"></path><path d="M244.5144 29.9256L126.415 182.4837" fill="none" stroke="#aaa" stroke-opacity="0.5"></path><path d="M314.9917 132.7341L296.66 64.7945" fill="none" stroke="#aaa" stroke-opacity="0.5"></path><path d="M175.8725 223.0035L296.66 64.7945" fill="none" stroke="#aaa" stroke-opacity="0.5"></path><path d="M255.6411 112.8726L126.415 182.4837" fill="none" stroke="#aaa" stroke-opacity="0.5"></path><path d="M183.0334 25.5204L296.66 64.7945" fill="none" stroke="#aaa" stroke-opacity="0.5"></path><path d="M288.7206 188.8399L296.66 64.7945" fill="none" stroke="#aaa" stroke-opacity="0.5"></path><path d="M198.8544 162.6443L110.7904 124.6143" fill="none" stroke="#aaa" stroke-opacity="0.5"></path><path d="M244.5144 29.9256L296.66 64.7945" fill="none" stroke="#aaa" stroke-opacity="0.5"></path><path d="M175.8725 223.0035L125.3833 63.8904" fill="none" stroke="#aaa" stroke-opacity="0.5"></path><path d="M314.9917 132.7341L110.7904 124.6143" fill="none" stroke="#aaa" stroke-opacity="0.5"></path><path d="M183.0334 25.5204L125.3833 63.8904" fill="none" stroke="#aaa" stroke-opacity="0.5"></path><path d="M183.0334 25.5204L255.6411 112.8726" fill="none" stroke="#aaa" stroke-opacity="0.5"></path><path d="M255.6411 112.8726L296.66 64.7945" fill="none" stroke="#aaa" stroke-opacity="0.5"></path><path d="M175.8725 223.0035L240.9436 222.4192" fill="none" stroke="#aaa" stroke-opacity="0.5"></path><path d="M110.7904 124.6143L182.8158 91.2576" fill="none" stroke="#aaa" stroke-opacity="0.5"></path><path d="M183.0334 25.5204L110.7904 124.6143" fill="none" stroke="#aaa" stroke-opacity="0.5"></path><path d="M296.66 64.7945L182.8158 91.2576" fill="none" stroke="#aaa" stroke-opacity="0.5"></path><path d="M110.7904 124.6143L175.8725 223.0035" fill="none" stroke="#aaa" stroke-opacity="0.5"></path><path d="M240.9436 222.4192L182.8158 91.2576" fill="none" stroke="#aaa" stroke-opacity="0.5"></path><path d="M183.0334 25.5204L288.7206 188.8399" fill="none" stroke="#aaa" stroke-opacity="0.5"></path><path d="M288.7206 188.8399L198.8544 162.6443" fill="none" stroke="#aaa" stroke-opacity="0.5"></path><path d="M288.7206 188.8399L125.3833 63.8904" fill="none" stroke="#aaa" stroke-opacity="0.5"></path><path d="M288.7206 188.8399L110.7904 124.6143" fill="none" stroke="#aaa" stroke-opacity="0.5"></path><path d="M175.8725 223.0035L126.415 182.4837" fill="none" stroke="#aaa" stroke-opacity="0.5"></path><path d="M244.5144 29.9256L125.3833 63.8904" fill="none" stroke="#aaa" stroke-opacity="0.5"></path><path d="M244.5144 29.9256L255.6411 112.8726" fill="none" stroke="#aaa" stroke-opacity="0.5"></path><path d="M126.415 182.4837L296.66 64.7945" fill="none" stroke="#aaa" stroke-opacity="0.5"></path><path d="M244.5144 29.9256L110.7904 124.6143" fill="none" stroke="#aaa" stroke-opacity="0.5"></path><path d="M244.5144 29.9256L288.7206 188.8399" fill="none" stroke="#aaa" stroke-opacity="0.5"></path><path d="M255.6411 112.8726L125.3833 63.8904" fill="none" stroke="#aaa" stroke-opacity="0.5"></path><path d="M198.8544 162.6443L182.8158 91.2576" fill="none" stroke="#aaa" stroke-opacity="0.5"></path><path d="M198.8544 162.6443L175.8725 223.0035" fill="none" stroke="#aaa" stroke-opacity="0.5"></path><path d="M255.6411 112.8726L110.7904 124.6143" fill="none" stroke="#aaa" stroke-opacity="0.5"></path><path d="M255.6411 112.8726L288.7206 188.8399" fill="none" stroke="#aaa" stroke-opacity="0.5"></path><path d="M314.9917 132.7341L182.8158 91.2576" fill="none" stroke="#aaa" stroke-opacity="0.5"></path><path d="M314.9917 132.7341L175.8725 223.0035" fill="none" stroke="#aaa" stroke-opacity="0.5"></path><path d="M183.5 25.5204L183.5 91.2576" fill="none" stroke="#aaa" stroke-opacity="0.5"></path><path d="M183.0334 25.5204L175.8725 223.0035" fill="none" stroke="#aaa" stroke-opacity="0.5"></path><path d="M126.415 182.4837L125.3833 63.8904" fill="none" stroke="#aaa" stroke-opacity="0.5"></path><path d="M110.7904 124.6143L240.9436 222.4192" fill="none" stroke="#aaa" stroke-opacity="0.5"></path><path d="M296.66 64.7945L240.9436 222.4192" fill="none" stroke="#aaa" stroke-opacity="0.5"></path><path d="M288.7206 188.8399L182.8158 91.2576" fill="none" stroke="#aaa" stroke-opacity="0.5"></path><path d="M288.7206 188.8399L175.8725 223.0035" fill="none" stroke="#aaa" stroke-opacity="0.5"></path><path d="M126.415 182.4837L240.9436 222.4192" fill="none" stroke="#aaa" stroke-opacity="0.5"></path><path d="M244.5144 29.9256L183.0334 25.5204" fill="none" stroke="#aaa" stroke-opacity="0.5"></path><path d="M244.5144 29.9256L182.8158 91.2576" fill="none" stroke="#aaa" stroke-opacity="0.5"></path><path d="M125.3833 63.8904L182.8158 91.2576" fill="none" stroke="#aaa" stroke-opacity="0.5"></path><path d="M244.5144 29.9256L175.8725 223.0035" fill="none" stroke="#aaa" stroke-opacity="0.5"></path><path d="M110.7904 124.6143L126.415 182.4837" fill="none" stroke="#aaa" stroke-opacity="0.5"></path><path d="M255.6411 112.8726L182.8158 91.2576" fill="none" stroke="#aaa" stroke-opacity="0.5"></path><path d="M198.8544 162.6443L125.3833 63.8904" fill="none" stroke="#aaa" stroke-opacity="0.5"></path><path d="M255.6411 112.8726L175.8725 223.0035" fill="none" stroke="#aaa" stroke-opacity="0.5"></path><path d="M198.8544 162.6443L240.9436 222.4192" fill="none" stroke="#aaa" stroke-opacity="0.5"></path><path d="M314.9917 132.7341L198.8544 162.6443" fill="none" stroke="#aaa" stroke-opacity="0.5"></path><path d="M314.9917 132.7341L125.3833 63.8904" fill="none" stroke="#aaa" stroke-opacity="0.5"></path><path d="M183.0334 25.5204L198.8544 162.6443" fill="none" stroke="#aaa" stroke-opacity="0.5"></path><path d="M314.9917 132.7341L240.9436 222.4192" fill="none" stroke="#aaa" stroke-opacity="0.5"></path><path d="M183.0334 25.5204L240.9436 222.4192" fill="none" stroke="#aaa" stroke-opacity="0.5"></path><path d="M126.415 182.4837L182.8158 91.2576" fill="none" stroke="#aaa" stroke-opacity="0.5"></path><path d="M198.8544 162.6443L126.415 182.4837" fill="none" stroke="#aaa" stroke-opacity="0.5"></path><path d="M183.0334 25.5204L314.9917 132.7341" fill="none" stroke="#aaa" stroke-opacity="0.5"></path><path d="M110.7904 124.6143L296.66 64.7945" fill="none" stroke="#aaa" stroke-opacity="0.5"></path><path d="M1 0A1 1 0 1 1 1 -0.0001" fill="#5470c6" transform="matrix(18.5,0,0,18.5,314.9917,132.7341)"></path><path d="M1 0A1 1 0 1 1 1 -0.0001" fill="#5470c6" transform="matrix(18.5,0,0,18.5,288.7206,188.8399)"></path><path d="M1 0A1 1 0 1 1 1 -0.0001" fill="#5470c6" transform="matrix(18.5,0,0,18.5,240.9436,222.4192)"></path><path d="M1 0A1 1 0 1 1 1 -0.0001" fill="#5470c6" transform="matrix(18.5,0,0,18.5,198.8544,162.6443)"></path><path d="M1 0A1 1 0 1 1 1 -0.0001" fill="#5470c6" transform="matrix(18.5,0,0,18.5,175.8725,223.0035)"></path><path d="M1 0A1 1 0 1 1 1 -0.0001" fill="#5470c6" transform="matrix(18.5,0,0,18.5,126.415,182.4837)"></path><path d="M1 0A1 1 0 1 1 1 -0.0001" fill="#5470c6" transform="matrix(18.5,0,0,18.5,110.7904,124.6143)"></path><path d="M1 0A1 1 0 1 1 1 -0.0001" fill="#5470c6" transform="matrix(18.5,0,0,18.5,125.3833,63.8904)"></path><path d="M1 0A1 1 0 1 1 1 -0.0001" fill="#5470c6" transform="matrix(18.5,0,0,18.5,182.8158,91.2576)"></path><path d="M1 0A1 1 0 1 1 1 -0.0001" fill="#5470c6" transform="matrix(18.5,0,0,18.5,183.0334,25.5204)"></path><path d="M1 0A1 1 0 1 1 1 -0.0001" fill="#5470c6" transform="matrix(18.5,0,0,18.5,244.5144,29.9256)"></path><path d="M1 0A1 1 0 1 1 1 -0.0001" fill="#5470c6" transform="matrix(18.5,0,0,18.5,296.66,64.7945)"></path><path d="M1 0A1 1 0 1 1 1 -0.0001" fill="#5470c6" transform="matrix(18.5,0,0,18.5,255.6411,112.8726)"></path><path d="M-32.4922 -5l64.9844 0l0 33l-64.9844 0Z" fill="rgb(0,0,0)" fill-opacity="0" stroke="#ccc" stroke-width="0" transform="translate(237.5 5)"></path><text dominant-baseline="central" fill="#333" style="font-size:23px;font-family:sans-serif;font-weight:bolder;" text-anchor="middle" transform="translate(237.5 5)" y="11.5">C144</text></g></svg>