<svg baseprofile="full" height="250" style="position:absolute;left:0;top:0;user-select:none" version="1.1" width="475" xmlns="http://www.w3.org/2000/svg" xmlns:xlink="http://www.w3.org/1999/xlink"><rect fill="none" height="250" id="0" width="475" x="0" y="0"></rect><g><path d="M156.5318 211.4456L114.0401 97.1954" fill="none" stroke="#aaa" stroke-opacity="0.5"></path><path d="M249.47 147.7344L112.8303 161.5204" fill="none" stroke="#aaa" stroke-opacity="0.5"></path><path d="M249.47 147.7344L173.9594 142.8648" fill="none" stroke="#aaa" stroke-opacity="0.5"></path><path d="M156.5318 211.4456L173.9594 142.8648" fill="none" stroke="#aaa" stroke-opacity="0.5"></path><path d="M249.47 147.7344L201.5377 19.9209" fill="none" stroke="#aaa" stroke-opacity="0.5"></path><path d="M156.5318 211.4456L312.6425 152.001" fill="none" stroke="#aaa" stroke-opacity="0.5"></path><path d="M114.0401 97.1954L173.9594 142.8648" fill="none" stroke="#aaa" stroke-opacity="0.5"></path><path d="M114.0401 97.1954L312.6425 152.001" fill="none" stroke="#aaa" stroke-opacity="0.5"></path><path d="M173.9594 142.8648L217.6089 81.6808" fill="none" stroke="#aaa" stroke-opacity="0.5"></path><path d="M201.5377 19.9209L114.0401 97.1954" fill="none" stroke="#aaa" stroke-opacity="0.5"></path><path d="M112.8303 161.5204L217.6089 81.6808" fill="none" stroke="#aaa" stroke-opacity="0.5"></path><path d="M201.5377 19.9209L312.6425 152.001" fill="none" stroke="#aaa" stroke-opacity="0.5"></path><path d="M156.5318 211.4456L213.1891 224.6248" fill="none" stroke="#aaa" stroke-opacity="0.5"></path><path d="M268.8999 38.866L156.5318 211.4456" fill="none" stroke="#aaa" stroke-opacity="0.5"></path><path d="M268.8999 38.866L249.47 147.7344" fill="none" stroke="#aaa" stroke-opacity="0.5"></path><path d="M268.8999 38.866L146.2381 49.0586" fill="none" stroke="#aaa" stroke-opacity="0.5"></path><path d="M213.1891 224.6248L217.6089 81.6808" fill="none" stroke="#aaa" stroke-opacity="0.5"></path><path d="M201.5377 19.9209L213.1891 224.6248" fill="none" stroke="#aaa" stroke-opacity="0.5"></path><path d="M217.6089 81.6808L312.6425 152.001" fill="none" stroke="#aaa" stroke-opacity="0.5"></path><path d="M146.2381 49.0586L305.6994 88.2989" fill="none" stroke="#aaa" stroke-opacity="0.5"></path><path d="M173.9594 142.8648L305.6994 88.2989" fill="none" stroke="#aaa" stroke-opacity="0.5"></path><path d="M213.1891 224.6248L146.2381 49.0586" fill="none" stroke="#aaa" stroke-opacity="0.5"></path><path d="M146.2381 49.0586L112.8303 161.5204" fill="none" stroke="#aaa" stroke-opacity="0.5"></path><path d="M271.9892 209.7882L217.6089 81.6808" fill="none" stroke="#aaa" stroke-opacity="0.5"></path><path d="M112.8303 161.5204L305.6994 88.2989" fill="none" stroke="#aaa" stroke-opacity="0.5"></path><path d="M213.1891 224.6248L271.9892 209.7882" fill="none" stroke="#aaa" stroke-opacity="0.5"></path><path d="M268.8999 38.866L305.6994 88.2989" fill="none" stroke="#aaa" stroke-opacity="0.5"></path><path d="M112.8303 161.5204L173.9594 142.8648" fill="none" stroke="#aaa" stroke-opacity="0.5"></path><path d="M268.8999 38.866L112.8303 161.5204" fill="none" stroke="#aaa" stroke-opacity="0.5"></path><path d="M271.9892 209.7882L146.2381 49.0586" fill="none" stroke="#aaa" stroke-opacity="0.5"></path><path d="M268.8999 38.866L201.5377 19.9209" fill="none" stroke="#aaa" stroke-opacity="0.5"></path><path d="M156.5318 211.4456L217.6089 81.6808" fill="none" stroke="#aaa" stroke-opacity="0.5"></path><path d="M213.1891 224.6248L305.6994 88.2989" fill="none" stroke="#aaa" stroke-opacity="0.5"></path><path d="M114.0401 97.1954L217.6089 81.6808" fill="none" stroke="#aaa" stroke-opacity="0.5"></path><path d="M213.1891 224.6248L112.8303 161.5204" fill="none" stroke="#aaa" stroke-opacity="0.5"></path><path d="M213.1891 224.6248L173.9594 142.8648" fill="none" stroke="#aaa" stroke-opacity="0.5"></path><path d="M305.6994 88.2989L312.6425 152.001" fill="none" stroke="#aaa" stroke-opacity="0.5"></path><path d="M156.5318 211.4456L146.2381 49.0586" fill="none" stroke="#aaa" stroke-opacity="0.5"></path><path d="M271.9892 209.7882L305.6994 88.2989" fill="none" stroke="#aaa" stroke-opacity="0.5"></path><path d="M201.5377 19.9209L217.6089 81.6808" fill="none" stroke="#aaa" stroke-opacity="0.5"></path><path d="M156.5318 211.4456L271.9892 209.7882" fill="none" stroke="#aaa" stroke-opacity="0.5"></path><path d="M201.5377 19.9209L156.5318 211.4456" fill="none" stroke="#aaa" stroke-opacity="0.5"></path><path d="M271.9892 209.7882L112.8303 161.5204" fill="none" stroke="#aaa" stroke-opacity="0.5"></path><path d="M271.9892 209.7882L173.9594 142.8648" fill="none" stroke="#aaa" stroke-opacity="0.5"></path><path d="M249.47 147.7344L114.0401 97.1954" fill="none" stroke="#aaa" stroke-opacity="0.5"></path><path d="M201.5377 19.9209L146.2381 49.0586" fill="none" stroke="#aaa" stroke-opacity="0.5"></path><path d="M249.47 147.7344L312.6425 152.001" fill="none" stroke="#aaa" stroke-opacity="0.5"></path><path d="M249.47 147.7344L305.6994 88.2989" fill="none" stroke="#aaa" stroke-opacity="0.5"></path><path d="M156.5318 211.4456L305.6994 88.2989" fill="none" stroke="#aaa" stroke-opacity="0.5"></path><path d="M146.2381 49.0586L217.6089 81.6808" fill="none" stroke="#aaa" stroke-opacity="0.5"></path><path d="M201.5377 19.9209L271.9892 209.7882" fill="none" stroke="#aaa" stroke-opacity="0.5"></path><path d="M114.0401 97.1954L305.6994 88.2989" fill="none" stroke="#aaa" stroke-opacity="0.5"></path><path d="M156.5318 211.4456L112.8303 161.5204" fill="none" stroke="#aaa" stroke-opacity="0.5"></path><path d="M268.8999 38.866L217.6089 81.6808" fill="none" stroke="#aaa" stroke-opacity="0.5"></path><path d="M201.5377 19.9209L305.6994 88.2989" fill="none" stroke="#aaa" stroke-opacity="0.5"></path><path d="M249.47 147.7344L213.1891 224.6248" fill="none" stroke="#aaa" stroke-opacity="0.5"></path><path d="M201.5377 19.9209L112.8303 161.5204" fill="none" stroke="#aaa" stroke-opacity="0.5"></path><path d="M201.5377 19.9209L173.9594 142.8648" fill="none" stroke="#aaa" stroke-opacity="0.5"></path><path d="M268.8999 38.866L271.9892 209.7882" fill="none" stroke="#aaa" stroke-opacity="0.5"></path><path d="M217.6089 81.6808L305.6994 88.2989" fill="none" stroke="#aaa" stroke-opacity="0.5"></path><path d="M146.2381 49.0586L114.0401 97.1954" fill="none" stroke="#aaa" stroke-opacity="0.5"></path><path d="M146.2381 49.0586L173.9594 142.8648" fill="none" stroke="#aaa" stroke-opacity="0.5"></path><path d="M112.8303 161.5204L114.0401 97.1954" fill="none" stroke="#aaa" stroke-opacity="0.5"></path><path d="M146.2381 49.0586L312.6425 152.001" fill="none" stroke="#aaa" stroke-opacity="0.5"></path><path d="M173.9594 142.8648L312.6425 152.001" fill="none" stroke="#aaa" stroke-opacity="0.5"></path><path d="M268.8999 38.866L114.0401 97.1954" fill="none" stroke="#aaa" stroke-opacity="0.5"></path><path d="M112.8303 161.5204L312.6425 152.001" fill="none" stroke="#aaa" stroke-opacity="0.5"></path><path d="M268.8999 38.866L173.9594 142.8648" fill="none" stroke="#aaa" stroke-opacity="0.5"></path><path d="M268.8999 38.866L312.6425 152.001" fill="none" stroke="#aaa" stroke-opacity="0.5"></path><path d="M249.47 147.7344L217.6089 81.6808" fill="none" stroke="#aaa" stroke-opacity="0.5"></path><path d="M213.1891 224.6248L114.0401 97.1954" fill="none" stroke="#aaa" stroke-opacity="0.5"></path><path d="M249.47 147.7344L156.5318 211.4456" fill="none" stroke="#aaa" stroke-opacity="0.5"></path><path d="M213.1891 224.6248L312.6425 152.001" fill="none" stroke="#aaa" stroke-opacity="0.5"></path><path d="M249.47 147.7344L146.2381 49.0586" fill="none" stroke="#aaa" stroke-opacity="0.5"></path><path d="M268.8999 38.866L213.1891 224.6248" fill="none" stroke="#aaa" stroke-opacity="0.5"></path><path d="M271.9892 209.7882L114.0401 97.1954" fill="none" stroke="#aaa" stroke-opacity="0.5"></path><path d="M249.47 147.7344L271.9892 209.7882" fill="none" stroke="#aaa" stroke-opacity="0.5"></path><path d="M271.9892 209.7882L312.6425 152.001" fill="none" stroke="#aaa" stroke-opacity="0.5"></path><path d="M1 0A1 1 0 1 1 1 -0.0001" fill="#5470c6" transform="matrix(18.5,0,0,18.5,312.6425,152.001)"></path><path d="M1 0A1 1 0 1 1 1 -0.0001" fill="#5470c6" transform="matrix(18.5,0,0,18.5,249.47,147.7344)"></path><path d="M1 0A1 1 0 1 1 1 -0.0001" fill="#5470c6" transform="matrix(18.5,0,0,18.5,271.9892,209.7882)"></path><path d="M1 0A1 1 0 1 1 1 -0.0001" fill="#5470c6" transform="matrix(18.5,0,0,18.5,213.1891,224.6248)"></path><path d="M1 0A1 1 0 1 1 1 -0.0001" fill="#5470c6" transform="matrix(18.5,0,0,18.5,156.5318,211.4456)"></path><path d="M1 0A1 1 0 1 1 1 -0.0001" fill="#5470c6" transform="matrix(18.5,0,0,18.5,112.8303,161.5204)"></path><path d="M1 0A1 1 0 1 1 1 -0.0001" fill="#5470c6" transform="matrix(18.5,0,0,18.5,114.0401,97.1954)"></path><path d="M1 0A1 1 0 1 1 1 -0.0001" fill="#5470c6" transform="matrix(18.5,0,0,18.5,173.9594,142.8648)"></path><path d="M1 0A1 1 0 1 1 1 -0.0001" fill="#5470c6" transform="matrix(18.5,0,0,18.5,146.2381,49.0586)"></path><path d="M1 0A1 1 0 1 1 1 -0.0001" fill="#5470c6" transform="matrix(18.5,0,0,18.5,201.5377,19.9209)"></path><path d="M1 0A1 1 0 1 1 1 -0.0001" fill="#5470c6" transform="matrix(18.5,0,0,18.5,268.8999,38.866)"></path><path d="M1 0A1 1 0 1 1 1 -0.0001" fill="#5470c6" transform="matrix(18.5,0,0,18.5,217.6089,81.6808)"></path><path d="M1 0A1 1 0 1 1 1 -0.0001" fill="#5470c6" transform="matrix(18.5,0,0,18.5,305.6994,88.2989)"></path><path d="M-32.4922 -5l64.9844 0l0 33l-64.9844 0Z" fill="rgb(0,0,0)" fill-opacity="0" stroke="#ccc" stroke-width="0" transform="translate(237.5 5)"></path><text dominant-baseline="central" fill="#333" style="font-size:23px;font-family:sans-serif;font-weight:bolder;" text-anchor="middle" transform="translate(237.5 5)" y="11.5">C145</text></g></svg>