<svg baseprofile="full" height="250" style="position:absolute;left:0;top:0;user-select:none" version="1.1" width="475" xmlns="http://www.w3.org/2000/svg" xmlns:xlink="http://www.w3.org/1999/xlink"><rect fill="none" height="250" id="0" width="475" x="0" y="0"></rect><g><path d="M125.3023 187.7475L164.474 138.683" fill="none" stroke="#aaa" stroke-opacity="0.5"></path><path d="M105.9161 110.4536L164.474 138.683" fill="none" stroke="#aaa" stroke-opacity="0.5"></path><path d="M140.6966 50.9574L164.474 138.683" fill="none" stroke="#aaa" stroke-opacity="0.5"></path><path d="M164.474 138.683L217.5279 77.4854" fill="none" stroke="#aaa" stroke-opacity="0.5"></path><path d="M279.3206 44.7211L305.7763 172.0617" fill="none" stroke="#aaa" stroke-opacity="0.5"></path><path d="M204.3948 17.5835L140.6966 50.9574" fill="none" stroke="#aaa" stroke-opacity="0.5"></path><path d="M279.3206 44.7211L164.474 138.683" fill="none" stroke="#aaa" stroke-opacity="0.5"></path><path d="M244.2687 152.4761L249.6332 222.0062" fill="none" stroke="#aaa" stroke-opacity="0.5"></path><path d="M204.3948 17.5835L249.6332 222.0062" fill="none" stroke="#aaa" stroke-opacity="0.5"></path><path d="M125.3023 187.7475L311.8297 102.8187" fill="none" stroke="#aaa" stroke-opacity="0.5"></path><path d="M105.9161 110.4536L311.8297 102.8187" fill="none" stroke="#aaa" stroke-opacity="0.5"></path><path d="M184.3704 223.0059L217.5279 77.4854" fill="none" stroke="#aaa" stroke-opacity="0.5"></path><path d="M140.6966 50.9574L311.8297 102.8187" fill="none" stroke="#aaa" stroke-opacity="0.5"></path><path d="M140.6966 50.9574L217.5279 77.4854" fill="none" stroke="#aaa" stroke-opacity="0.5"></path><path d="M204.3948 17.5835L184.3704 223.0059" fill="none" stroke="#aaa" stroke-opacity="0.5"></path><path d="M311.8297 102.8187L249.6332 222.0062" fill="none" stroke="#aaa" stroke-opacity="0.5"></path><path d="M279.3206 44.7211L311.8297 102.8187" fill="none" stroke="#aaa" stroke-opacity="0.5"></path><path d="M217.5279 77.4854L249.6332 222.0062" fill="none" stroke="#aaa" stroke-opacity="0.5"></path><path d="M244.2687 152.4761L105.9161 110.4536" fill="none" stroke="#aaa" stroke-opacity="0.5"></path><path d="M311.8297 102.8187L184.3704 223.0059" fill="none" stroke="#aaa" stroke-opacity="0.5"></path><path d="M305.7763 172.0617L184.3704 223.0059" fill="none" stroke="#aaa" stroke-opacity="0.5"></path><path d="M244.2687 152.4761L305.7763 172.0617" fill="none" stroke="#aaa" stroke-opacity="0.5"></path><path d="M244.2687 152.4761L164.474 138.683" fill="none" stroke="#aaa" stroke-opacity="0.5"></path><path d="M204.3948 17.5835L164.474 138.683" fill="none" stroke="#aaa" stroke-opacity="0.5"></path><path d="M184.3704 223.0059L249.6332 222.0062" fill="none" stroke="#aaa" stroke-opacity="0.5"></path><path d="M125.3023 187.7475L184.3704 223.0059" fill="none" stroke="#aaa" stroke-opacity="0.5"></path><path d="M105.9161 110.4536L184.3704 223.0059" fill="none" stroke="#aaa" stroke-opacity="0.5"></path><path d="M311.8297 102.8187L164.474 138.683" fill="none" stroke="#aaa" stroke-opacity="0.5"></path><path d="M305.7763 172.0617L105.9161 110.4536" fill="none" stroke="#aaa" stroke-opacity="0.5"></path><path d="M204.3948 17.5835L311.8297 102.8187" fill="none" stroke="#aaa" stroke-opacity="0.5"></path><path d="M204.3948 17.5835L217.5279 77.4854" fill="none" stroke="#aaa" stroke-opacity="0.5"></path><path d="M125.3023 187.7475L105.9161 110.4536" fill="none" stroke="#aaa" stroke-opacity="0.5"></path><path d="M244.2687 152.4761L125.3023 187.7475" fill="none" stroke="#aaa" stroke-opacity="0.5"></path><path d="M184.3704 223.0059L164.474 138.683" fill="none" stroke="#aaa" stroke-opacity="0.5"></path><path d="M125.3023 187.7475L279.3206 44.7211" fill="none" stroke="#aaa" stroke-opacity="0.5"></path><path d="M311.8297 102.8187L217.5279 77.4854" fill="none" stroke="#aaa" stroke-opacity="0.5"></path><path d="M305.7763 172.0617L311.8297 102.8187" fill="none" stroke="#aaa" stroke-opacity="0.5"></path><path d="M305.7763 172.0617L217.5279 77.4854" fill="none" stroke="#aaa" stroke-opacity="0.5"></path><path d="M244.2687 152.4761L140.6966 50.9574" fill="none" stroke="#aaa" stroke-opacity="0.5"></path><path d="M279.3206 44.7211L105.9161 110.4536" fill="none" stroke="#aaa" stroke-opacity="0.5"></path><path d="M125.3023 187.7475L217.5279 77.4854" fill="none" stroke="#aaa" stroke-opacity="0.5"></path><path d="M105.9161 110.4536L217.5279 77.4854" fill="none" stroke="#aaa" stroke-opacity="0.5"></path><path d="M244.2687 152.4761L204.3948 17.5835" fill="none" stroke="#aaa" stroke-opacity="0.5"></path><path d="M244.2687 152.4761L184.3704 223.0059" fill="none" stroke="#aaa" stroke-opacity="0.5"></path><path d="M164.474 138.683L249.6332 222.0062" fill="none" stroke="#aaa" stroke-opacity="0.5"></path><path d="M279.3206 44.7211L217.5279 77.4854" fill="none" stroke="#aaa" stroke-opacity="0.5"></path><path d="M305.7763 172.0617L140.6966 50.9574" fill="none" stroke="#aaa" stroke-opacity="0.5"></path><path d="M305.7763 172.0617L249.6332 222.0062" fill="none" stroke="#aaa" stroke-opacity="0.5"></path><path d="M125.3023 187.7475L140.6966 50.9574" fill="none" stroke="#aaa" stroke-opacity="0.5"></path><path d="M105.9161 110.4536L140.6966 50.9574" fill="none" stroke="#aaa" stroke-opacity="0.5"></path><path d="M125.3023 187.7475L249.6332 222.0062" fill="none" stroke="#aaa" stroke-opacity="0.5"></path><path d="M105.9161 110.4536L249.6332 222.0062" fill="none" stroke="#aaa" stroke-opacity="0.5"></path><path d="M204.3948 17.5835L105.9161 110.4536" fill="none" stroke="#aaa" stroke-opacity="0.5"></path><path d="M140.6966 50.9574L249.6332 222.0062" fill="none" stroke="#aaa" stroke-opacity="0.5"></path><path d="M204.3948 17.5835L305.7763 172.0617" fill="none" stroke="#aaa" stroke-opacity="0.5"></path><path d="M244.2687 152.4761L279.3206 44.7211" fill="none" stroke="#aaa" stroke-opacity="0.5"></path><path d="M125.3023 187.7475L204.3948 17.5835" fill="none" stroke="#aaa" stroke-opacity="0.5"></path><path d="M140.6966 50.9574L184.3704 223.0059" fill="none" stroke="#aaa" stroke-opacity="0.5"></path><path d="M279.3206 44.7211L140.6966 50.9574" fill="none" stroke="#aaa" stroke-opacity="0.5"></path><path d="M279.3206 44.7211L249.6332 222.0062" fill="none" stroke="#aaa" stroke-opacity="0.5"></path><path d="M244.2687 152.4761L311.8297 102.8187" fill="none" stroke="#aaa" stroke-opacity="0.5"></path><path d="M244.2687 152.4761L217.5279 77.4854" fill="none" stroke="#aaa" stroke-opacity="0.5"></path><path d="M305.7763 172.0617L164.474 138.683" fill="none" stroke="#aaa" stroke-opacity="0.5"></path><path d="M279.3206 44.7211L204.3948 17.5835" fill="none" stroke="#aaa" stroke-opacity="0.5"></path><path d="M125.3023 187.7475L305.7763 172.0617" fill="none" stroke="#aaa" stroke-opacity="0.5"></path><path d="M279.3206 44.7211L184.3704 223.0059" fill="none" stroke="#aaa" stroke-opacity="0.5"></path><path d="M1 0A1 1 0 1 1 1 -0.0001" fill="#5470c6" transform="matrix(18.5,0,0,18.5,244.2687,152.4761)"></path><path d="M1 0A1 1 0 1 1 1 -0.0001" fill="#5470c6" transform="matrix(18.5,0,0,18.5,305.7763,172.0617)"></path><path d="M1 0A1 1 0 1 1 1 -0.0001" fill="#5470c6" transform="matrix(18.5,0,0,18.5,249.6332,222.0062)"></path><path d="M1 0A1 1 0 1 1 1 -0.0001" fill="#5470c6" transform="matrix(18.5,0,0,18.5,184.3704,223.0059)"></path><path d="M1 0A1 1 0 1 1 1 -0.0001" fill="#5470c6" transform="matrix(18.5,0,0,18.5,125.3023,187.7475)"></path><path d="M1 0A1 1 0 1 1 1 -0.0001" fill="#5470c6" transform="matrix(18.5,0,0,18.5,164.474,138.683)"></path><path d="M1 0A1 1 0 1 1 1 -0.0001" fill="#5470c6" transform="matrix(18.5,0,0,18.5,105.9161,110.4536)"></path><path d="M1 0A1 1 0 1 1 1 -0.0001" fill="#5470c6" transform="matrix(18.5,0,0,18.5,140.6966,50.9574)"></path><path d="M1 0A1 1 0 1 1 1 -0.0001" fill="#5470c6" transform="matrix(18.5,0,0,18.5,217.5279,77.4854)"></path><path d="M1 0A1 1 0 1 1 1 -0.0001" fill="#5470c6" transform="matrix(18.5,0,0,18.5,204.3948,17.5835)"></path><path d="M1 0A1 1 0 1 1 1 -0.0001" fill="#5470c6" transform="matrix(18.5,0,0,18.5,279.3206,44.7211)"></path><path d="M1 0A1 1 0 1 1 1 -0.0001" fill="#5470c6" transform="matrix(18.5,0,0,18.5,311.8297,102.8187)"></path><path d="M-32.4922 -5l64.9844 0l0 33l-64.9844 0Z" fill="rgb(0,0,0)" fill-opacity="0" stroke="#ccc" stroke-width="0" transform="translate(237.5 5)"></path><text dominant-baseline="central" fill="#333" style="font-size:23px;font-family:sans-serif;font-weight:bolder;" text-anchor="middle" transform="translate(237.5 5)" y="11.5">C146</text></g></svg>