<svg baseprofile="full" height="250" style="position:absolute;left:0;top:0;user-select:none" version="1.1" width="475" xmlns="http://www.w3.org/2000/svg" xmlns:xlink="http://www.w3.org/1999/xlink"><rect fill="none" height="250" id="0" width="475" x="0" y="0"></rect><g><path d="M265.9416 213.1141L225.1014 152.9694" fill="none" stroke="#aaa" stroke-opacity="0.5"></path><path d="M146.2154 200.5939L195.15 93.1739" fill="none" stroke="#aaa" stroke-opacity="0.5"></path><path d="M277.8439 50.243L146.2154 200.5939" fill="none" stroke="#aaa" stroke-opacity="0.5"></path><path d="M114.7382 90.8953L306.3258 161.1813" fill="none" stroke="#aaa" stroke-opacity="0.5"></path><path d="M195.15 93.1739L155.0416 36.4169" fill="none" stroke="#aaa" stroke-opacity="0.5"></path><path d="M146.2154 200.5939L308.115 100.3395" fill="none" stroke="#aaa" stroke-opacity="0.5"></path><path d="M155.0416 36.4169L222.0806 23.2677" fill="none" stroke="#aaa" stroke-opacity="0.5"></path><path d="M277.8439 50.243L222.0806 23.2677" fill="none" stroke="#aaa" stroke-opacity="0.5"></path><path d="M277.8439 50.243L265.9416 213.1141" fill="none" stroke="#aaa" stroke-opacity="0.5"></path><path d="M265.9416 213.1141L201.6719 226.4325" fill="none" stroke="#aaa" stroke-opacity="0.5"></path><path d="M114.7382 90.8953L195.15 93.1739" fill="none" stroke="#aaa" stroke-opacity="0.5"></path><path d="M225.1014 152.9694L201.6719 226.4325" fill="none" stroke="#aaa" stroke-opacity="0.5"></path><path d="M146.2154 200.5939L225.1014 152.9694" fill="none" stroke="#aaa" stroke-opacity="0.5"></path><path d="M265.9416 213.1141L115.2852 151.3724" fill="none" stroke="#aaa" stroke-opacity="0.5"></path><path d="M195.15 93.1739L222.0806 23.2677" fill="none" stroke="#aaa" stroke-opacity="0.5"></path><path d="M306.3258 161.1813L201.6719 226.4325" fill="none" stroke="#aaa" stroke-opacity="0.5"></path><path d="M195.15 93.1739L265.9416 213.1141" fill="none" stroke="#aaa" stroke-opacity="0.5"></path><path d="M114.7382 90.8953L308.115 100.3395" fill="none" stroke="#aaa" stroke-opacity="0.5"></path><path d="M225.1014 152.9694L115.2852 151.3724" fill="none" stroke="#aaa" stroke-opacity="0.5"></path><path d="M265.9416 213.1141L155.0416 36.4169" fill="none" stroke="#aaa" stroke-opacity="0.5"></path><path d="M277.8439 50.243L114.7382 90.8953" fill="none" stroke="#aaa" stroke-opacity="0.5"></path><path d="M155.0416 36.4169L306.3258 161.1813" fill="none" stroke="#aaa" stroke-opacity="0.5"></path><path d="M115.2852 151.3724L222.0806 23.2677" fill="none" stroke="#aaa" stroke-opacity="0.5"></path><path d="M146.2154 200.5939L201.6719 226.4325" fill="none" stroke="#aaa" stroke-opacity="0.5"></path><path d="M277.8439 50.243L306.3258 161.1813" fill="none" stroke="#aaa" stroke-opacity="0.5"></path><path d="M308.115 100.3395L225.1014 152.9694" fill="none" stroke="#aaa" stroke-opacity="0.5"></path><path d="M114.7382 90.8953L225.1014 152.9694" fill="none" stroke="#aaa" stroke-opacity="0.5"></path><path d="M146.2154 200.5939L115.2852 151.3724" fill="none" stroke="#aaa" stroke-opacity="0.5"></path><path d="M195.15 93.1739L306.3258 161.1813" fill="none" stroke="#aaa" stroke-opacity="0.5"></path><path d="M265.9416 213.1141L222.0806 23.2677" fill="none" stroke="#aaa" stroke-opacity="0.5"></path><path d="M308.115 100.3395L201.6719 226.4325" fill="none" stroke="#aaa" stroke-opacity="0.5"></path><path d="M277.8439 50.243L195.15 93.1739" fill="none" stroke="#aaa" stroke-opacity="0.5"></path><path d="M114.7382 90.8953L201.6719 226.4325" fill="none" stroke="#aaa" stroke-opacity="0.5"></path><path d="M146.2154 200.5939L155.0416 36.4169" fill="none" stroke="#aaa" stroke-opacity="0.5"></path><path d="M225.1014 152.9694L222.0806 23.2677" fill="none" stroke="#aaa" stroke-opacity="0.5"></path><path d="M115.2852 151.3724L306.3258 161.1813" fill="none" stroke="#aaa" stroke-opacity="0.5"></path><path d="M277.8439 50.243L308.115 100.3395" fill="none" stroke="#aaa" stroke-opacity="0.5"></path><path d="M308.115 100.3395L115.2852 151.3724" fill="none" stroke="#aaa" stroke-opacity="0.5"></path><path d="M306.3258 161.1813L222.0806 23.2677" fill="none" stroke="#aaa" stroke-opacity="0.5"></path><path d="M114.7382 90.8953L115.2852 151.3724" fill="none" stroke="#aaa" stroke-opacity="0.5"></path><path d="M222.0806 23.2677L201.6719 226.4325" fill="none" stroke="#aaa" stroke-opacity="0.5"></path><path d="M308.115 100.3395L155.0416 36.4169" fill="none" stroke="#aaa" stroke-opacity="0.5"></path><path d="M146.2154 200.5939L222.0806 23.2677" fill="none" stroke="#aaa" stroke-opacity="0.5"></path><path d="M155.0416 36.4169L225.1014 152.9694" fill="none" stroke="#aaa" stroke-opacity="0.5"></path><path d="M195.15 93.1739L308.115 100.3395" fill="none" stroke="#aaa" stroke-opacity="0.5"></path><path d="M114.7382 90.8953L155.0416 36.4169" fill="none" stroke="#aaa" stroke-opacity="0.5"></path><path d="M146.2154 200.5939L265.9416 213.1141" fill="none" stroke="#aaa" stroke-opacity="0.5"></path><path d="M265.9416 213.1141L306.3258 161.1813" fill="none" stroke="#aaa" stroke-opacity="0.5"></path><path d="M277.8439 50.243L225.1014 152.9694" fill="none" stroke="#aaa" stroke-opacity="0.5"></path><path d="M225.1014 152.9694L306.3258 161.1813" fill="none" stroke="#aaa" stroke-opacity="0.5"></path><path d="M155.0416 36.4169L201.6719 226.4325" fill="none" stroke="#aaa" stroke-opacity="0.5"></path><path d="M308.115 100.3395L222.0806 23.2677" fill="none" stroke="#aaa" stroke-opacity="0.5"></path><path d="M195.15 93.1739L225.1014 152.9694" fill="none" stroke="#aaa" stroke-opacity="0.5"></path><path d="M277.8439 50.243L201.6719 226.4325" fill="none" stroke="#aaa" stroke-opacity="0.5"></path><path d="M114.7382 90.8953L222.0806 23.2677" fill="none" stroke="#aaa" stroke-opacity="0.5"></path><path d="M114.7382 90.8953L265.9416 213.1141" fill="none" stroke="#aaa" stroke-opacity="0.5"></path><path d="M146.2154 200.5939L114.7382 90.8953" fill="none" stroke="#aaa" stroke-opacity="0.5"></path><path d="M155.0416 36.4169L115.2852 151.3724" fill="none" stroke="#aaa" stroke-opacity="0.5"></path><path d="M146.2154 200.5939L306.3258 161.1813" fill="none" stroke="#aaa" stroke-opacity="0.5"></path><path d="M265.9416 213.1141L308.115 100.3395" fill="none" stroke="#aaa" stroke-opacity="0.5"></path><path d="M277.8439 50.243L115.2852 151.3724" fill="none" stroke="#aaa" stroke-opacity="0.5"></path><path d="M195.15 93.1739L201.6719 226.4325" fill="none" stroke="#aaa" stroke-opacity="0.5"></path><path d="M277.8439 50.243L155.0416 36.4169" fill="none" stroke="#aaa" stroke-opacity="0.5"></path><path d="M195.15 93.1739L115.2852 151.3724" fill="none" stroke="#aaa" stroke-opacity="0.5"></path><path d="M115.2852 151.3724L201.6719 226.4325" fill="none" stroke="#aaa" stroke-opacity="0.5"></path><path d="M308.115 100.3395L306.3258 161.1813" fill="none" stroke="#aaa" stroke-opacity="0.5"></path><path d="M1 0A1 1 0 1 1 1 -0.0001" fill="#5470c6" transform="matrix(18.5,0,0,18.5,306.3258,161.1813)"></path><path d="M1 0A1 1 0 1 1 1 -0.0001" fill="#5470c6" transform="matrix(18.5,0,0,18.5,265.9416,213.1141)"></path><path d="M1 0A1 1 0 1 1 1 -0.0001" fill="#5470c6" transform="matrix(18.5,0,0,18.5,225.1014,152.9694)"></path><path d="M1 0A1 1 0 1 1 1 -0.0001" fill="#5470c6" transform="matrix(18.5,0,0,18.5,201.6719,226.4325)"></path><path d="M1 0A1 1 0 1 1 1 -0.0001" fill="#5470c6" transform="matrix(18.5,0,0,18.5,146.2154,200.5939)"></path><path d="M1 0A1 1 0 1 1 1 -0.0001" fill="#5470c6" transform="matrix(18.5,0,0,18.5,115.2852,151.3724)"></path><path d="M1 0A1 1 0 1 1 1 -0.0001" fill="#5470c6" transform="matrix(18.5,0,0,18.5,114.7382,90.8953)"></path><path d="M1 0A1 1 0 1 1 1 -0.0001" fill="#5470c6" transform="matrix(18.5,0,0,18.5,155.0416,36.4169)"></path><path d="M1 0A1 1 0 1 1 1 -0.0001" fill="#5470c6" transform="matrix(18.5,0,0,18.5,195.15,93.1739)"></path><path d="M1 0A1 1 0 1 1 1 -0.0001" fill="#5470c6" transform="matrix(18.5,0,0,18.5,222.0806,23.2677)"></path><path d="M1 0A1 1 0 1 1 1 -0.0001" fill="#5470c6" transform="matrix(18.5,0,0,18.5,277.8439,50.243)"></path><path d="M1 0A1 1 0 1 1 1 -0.0001" fill="#5470c6" transform="matrix(18.5,0,0,18.5,308.115,100.3395)"></path><path d="M-32.4922 -5l64.9844 0l0 33l-64.9844 0Z" fill="rgb(0,0,0)" fill-opacity="0" stroke="#ccc" stroke-width="0" transform="translate(237.5 5)"></path><text dominant-baseline="central" fill="#333" style="font-size:23px;font-family:sans-serif;font-weight:bolder;" text-anchor="middle" transform="translate(237.5 5)" y="11.5">C147</text></g></svg>