<svg baseprofile="full" height="250" style="position:absolute;left:0;top:0;user-select:none" version="1.1" width="475" xmlns="http://www.w3.org/2000/svg" xmlns:xlink="http://www.w3.org/1999/xlink"><rect fill="none" height="250" id="0" width="475" x="0" y="0"></rect><g><path d="M318.2484 126.5521L229.7061 225.5582" fill="none" stroke="#aaa" stroke-opacity="0.5"></path><path d="M163.1479 215.1796L112.6411 163.1699" fill="none" stroke="#aaa" stroke-opacity="0.5"></path><path d="M220.1185 24.9487L157.5625 39.0158" fill="none" stroke="#aaa" stroke-opacity="0.5"></path><path d="M286.7389 192.9215L183.466 136.0089" fill="none" stroke="#aaa" stroke-opacity="0.5"></path><path d="M113.3554 90.0301L286.5316 49.1866" fill="none" stroke="#aaa" stroke-opacity="0.5"></path><path d="M220.1185 24.9487L286.5316 49.1866" fill="none" stroke="#aaa" stroke-opacity="0.5"></path><path d="M163.1479 215.1796L183.466 136.0089" fill="none" stroke="#aaa" stroke-opacity="0.5"></path><path d="M112.6411 163.1699L286.5316 49.1866" fill="none" stroke="#aaa" stroke-opacity="0.5"></path><path d="M250.8682 112.4287L318.2484 126.5521" fill="none" stroke="#aaa" stroke-opacity="0.5"></path><path d="M183.466 136.0089L157.5625 39.0158" fill="none" stroke="#aaa" stroke-opacity="0.5"></path><path d="M286.7389 192.9215L250.8682 112.4287" fill="none" stroke="#aaa" stroke-opacity="0.5"></path><path d="M318.2484 126.5521L157.5625 39.0158" fill="none" stroke="#aaa" stroke-opacity="0.5"></path><path d="M113.3554 90.0301L112.6411 163.1699" fill="none" stroke="#aaa" stroke-opacity="0.5"></path><path d="M318.2484 126.5521L163.1479 215.1796" fill="none" stroke="#aaa" stroke-opacity="0.5"></path><path d="M318.2484 126.5521L113.3554 90.0301" fill="none" stroke="#aaa" stroke-opacity="0.5"></path><path d="M183.466 136.0089L286.5316 49.1866" fill="none" stroke="#aaa" stroke-opacity="0.5"></path><path d="M318.2484 126.5521L286.5316 49.1866" fill="none" stroke="#aaa" stroke-opacity="0.5"></path><path d="M250.8682 112.4287L220.1185 24.9487" fill="none" stroke="#aaa" stroke-opacity="0.5"></path><path d="M220.1185 24.9487L183.466 136.0089" fill="none" stroke="#aaa" stroke-opacity="0.5"></path><path d="M157.5625 39.0158L286.5316 49.1866" fill="none" stroke="#aaa" stroke-opacity="0.5"></path><path d="M286.7389 192.9215L220.1185 24.9487" fill="none" stroke="#aaa" stroke-opacity="0.5"></path><path d="M286.7389 192.9215L163.1479 215.1796" fill="none" stroke="#aaa" stroke-opacity="0.5"></path><path d="M318.2484 126.5521L183.466 136.0089" fill="none" stroke="#aaa" stroke-opacity="0.5"></path><path d="M286.7389 192.9215L113.3554 90.0301" fill="none" stroke="#aaa" stroke-opacity="0.5"></path><path d="M250.8682 112.4287L183.466 136.0089" fill="none" stroke="#aaa" stroke-opacity="0.5"></path><path d="M163.1479 215.1796L220.1185 24.9487" fill="none" stroke="#aaa" stroke-opacity="0.5"></path><path d="M229.7061 225.5582L157.5625 39.0158" fill="none" stroke="#aaa" stroke-opacity="0.5"></path><path d="M113.3554 90.0301L157.5625 39.0158" fill="none" stroke="#aaa" stroke-opacity="0.5"></path><path d="M229.7061 225.5582L113.3554 90.0301" fill="none" stroke="#aaa" stroke-opacity="0.5"></path><path d="M286.7389 192.9215L112.6411 163.1699" fill="none" stroke="#aaa" stroke-opacity="0.5"></path><path d="M229.7061 225.5582L286.5316 49.1866" fill="none" stroke="#aaa" stroke-opacity="0.5"></path><path d="M250.8682 112.4287L229.7061 225.5582" fill="none" stroke="#aaa" stroke-opacity="0.5"></path><path d="M229.7061 225.5582L112.6411 163.1699" fill="none" stroke="#aaa" stroke-opacity="0.5"></path><path d="M220.1185 24.9487L113.3554 90.0301" fill="none" stroke="#aaa" stroke-opacity="0.5"></path><path d="M286.7389 192.9215L229.7061 225.5582" fill="none" stroke="#aaa" stroke-opacity="0.5"></path><path d="M229.7061 225.5582L183.466 136.0089" fill="none" stroke="#aaa" stroke-opacity="0.5"></path><path d="M250.8682 112.4287L157.5625 39.0158" fill="none" stroke="#aaa" stroke-opacity="0.5"></path><path d="M318.2484 126.5521L220.1185 24.9487" fill="none" stroke="#aaa" stroke-opacity="0.5"></path><path d="M220.1185 24.9487L112.6411 163.1699" fill="none" stroke="#aaa" stroke-opacity="0.5"></path><path d="M163.1479 215.1796L229.7061 225.5582" fill="none" stroke="#aaa" stroke-opacity="0.5"></path><path d="M250.8682 112.4287L163.1479 215.1796" fill="none" stroke="#aaa" stroke-opacity="0.5"></path><path d="M183.466 136.0089L113.3554 90.0301" fill="none" stroke="#aaa" stroke-opacity="0.5"></path><path d="M250.8682 112.4287L113.3554 90.0301" fill="none" stroke="#aaa" stroke-opacity="0.5"></path><path d="M286.7389 192.9215L318.2484 126.5521" fill="none" stroke="#aaa" stroke-opacity="0.5"></path><path d="M250.8682 112.4287L286.5316 49.1866" fill="none" stroke="#aaa" stroke-opacity="0.5"></path><path d="M286.7389 192.9215L157.5625 39.0158" fill="none" stroke="#aaa" stroke-opacity="0.5"></path><path d="M183.466 136.0089L112.6411 163.1699" fill="none" stroke="#aaa" stroke-opacity="0.5"></path><path d="M318.2484 126.5521L112.6411 163.1699" fill="none" stroke="#aaa" stroke-opacity="0.5"></path><path d="M250.8682 112.4287L112.6411 163.1699" fill="none" stroke="#aaa" stroke-opacity="0.5"></path><path d="M163.1479 215.1796L157.5625 39.0158" fill="none" stroke="#aaa" stroke-opacity="0.5"></path><path d="M286.5 192.9215L286.5 49.1866" fill="none" stroke="#aaa" stroke-opacity="0.5"></path><path d="M157.5625 39.0158L112.6411 163.1699" fill="none" stroke="#aaa" stroke-opacity="0.5"></path><path d="M163.1479 215.1796L113.3554 90.0301" fill="none" stroke="#aaa" stroke-opacity="0.5"></path><path d="M163.1479 215.1796L286.5316 49.1866" fill="none" stroke="#aaa" stroke-opacity="0.5"></path><path d="M229.7061 225.5582L220.1185 24.9487" fill="none" stroke="#aaa" stroke-opacity="0.5"></path><path d="M1 0A1 1 0 1 1 1 -0.0001" fill="#5470c6" transform="matrix(18.5,0,0,18.5,318.2484,126.5521)"></path><path d="M1 0A1 1 0 1 1 1 -0.0001" fill="#5470c6" transform="matrix(18.5,0,0,18.5,286.7389,192.9215)"></path><path d="M1 0A1 1 0 1 1 1 -0.0001" fill="#5470c6" transform="matrix(18.5,0,0,18.5,229.7061,225.5582)"></path><path d="M1 0A1 1 0 1 1 1 -0.0001" fill="#5470c6" transform="matrix(18.5,0,0,18.5,163.1479,215.1796)"></path><path d="M1 0A1 1 0 1 1 1 -0.0001" fill="#5470c6" transform="matrix(18.5,0,0,18.5,112.6411,163.1699)"></path><path d="M1 0A1 1 0 1 1 1 -0.0001" fill="#5470c6" transform="matrix(18.5,0,0,18.5,183.466,136.0089)"></path><path d="M1 0A1 1 0 1 1 1 -0.0001" fill="#5470c6" transform="matrix(18.5,0,0,18.5,113.3554,90.0301)"></path><path d="M1 0A1 1 0 1 1 1 -0.0001" fill="#5470c6" transform="matrix(18.5,0,0,18.5,157.5625,39.0158)"></path><path d="M1 0A1 1 0 1 1 1 -0.0001" fill="#5470c6" transform="matrix(18.5,0,0,18.5,220.1185,24.9487)"></path><path d="M1 0A1 1 0 1 1 1 -0.0001" fill="#5470c6" transform="matrix(18.5,0,0,18.5,286.5316,49.1866)"></path><path d="M1 0A1 1 0 1 1 1 -0.0001" fill="#5470c6" transform="matrix(18.5,0,0,18.5,250.8682,112.4287)"></path><path d="M-32.4922 -5l64.9844 0l0 33l-64.9844 0Z" fill="rgb(0,0,0)" fill-opacity="0" stroke="#ccc" stroke-width="0" transform="translate(237.5 5)"></path><text dominant-baseline="central" fill="#333" style="font-size:23px;font-family:sans-serif;font-weight:bolder;" text-anchor="middle" transform="translate(237.5 5)" y="11.5">C148</text></g></svg>