<svg baseprofile="full" height="250" style="position:absolute;left:0;top:0;user-select:none" version="1.1" width="475" xmlns="http://www.w3.org/2000/svg" xmlns:xlink="http://www.w3.org/1999/xlink"><rect fill="none" height="250" id="0" width="475" x="0" y="0"></rect><g><path d="M114.2564 81.6638L167.7593 31.3927" fill="none" stroke="#aaa" stroke-opacity="0.5"></path><path d="M316.5763 128.7944L233.5081 27.6611" fill="none" stroke="#aaa" stroke-opacity="0.5"></path><path d="M114.2564 81.6638L177.9749 115.9856" fill="none" stroke="#aaa" stroke-opacity="0.5"></path><path d="M114.2564 81.6638L112.735 157.8038" fill="none" stroke="#aaa" stroke-opacity="0.5"></path><path d="M114.2564 81.6638L291.8646 59.3011" fill="none" stroke="#aaa" stroke-opacity="0.5"></path><path d="M177.9749 115.9856L233.5081 27.6611" fill="none" stroke="#aaa" stroke-opacity="0.5"></path><path d="M246.6436 134.6721L233.5081 27.6611" fill="none" stroke="#aaa" stroke-opacity="0.5"></path><path d="M316.5763 128.7944L291.8646 59.3011" fill="none" stroke="#aaa" stroke-opacity="0.5"></path><path d="M156.6243 210.7767L233.5081 27.6611" fill="none" stroke="#aaa" stroke-opacity="0.5"></path><path d="M284.8665 200.585L114.2564 81.6638" fill="none" stroke="#aaa" stroke-opacity="0.5"></path><path d="M284.8665 200.585L156.6243 210.7767" fill="none" stroke="#aaa" stroke-opacity="0.5"></path><path d="M284.8665 200.585L246.6436 134.6721" fill="none" stroke="#aaa" stroke-opacity="0.5"></path><path d="M177.9749 115.9856L112.735 157.8038" fill="none" stroke="#aaa" stroke-opacity="0.5"></path><path d="M284.8665 200.585L233.5081 27.6611" fill="none" stroke="#aaa" stroke-opacity="0.5"></path><path d="M177.9749 115.9856L291.8646 59.3011" fill="none" stroke="#aaa" stroke-opacity="0.5"></path><path d="M112.735 157.8038L291.8646 59.3011" fill="none" stroke="#aaa" stroke-opacity="0.5"></path><path d="M284.8665 200.585L316.5763 128.7944" fill="none" stroke="#aaa" stroke-opacity="0.5"></path><path d="M156.6243 210.7767L291.8646 59.3011" fill="none" stroke="#aaa" stroke-opacity="0.5"></path><path d="M284.8665 200.585L177.9749 115.9856" fill="none" stroke="#aaa" stroke-opacity="0.5"></path><path d="M219.5754 226.3636L156.6243 210.7767" fill="none" stroke="#aaa" stroke-opacity="0.5"></path><path d="M219.5754 226.3636L246.6436 134.6721" fill="none" stroke="#aaa" stroke-opacity="0.5"></path><path d="M219.5754 226.3636L233.5081 27.6611" fill="none" stroke="#aaa" stroke-opacity="0.5"></path><path d="M114.2564 81.6638L156.6243 210.7767" fill="none" stroke="#aaa" stroke-opacity="0.5"></path><path d="M114.2564 81.6638L246.6436 134.6721" fill="none" stroke="#aaa" stroke-opacity="0.5"></path><path d="M167.7593 31.3927L219.5754 226.3636" fill="none" stroke="#aaa" stroke-opacity="0.5"></path><path d="M219.5754 226.3636L316.5763 128.7944" fill="none" stroke="#aaa" stroke-opacity="0.5"></path><path d="M167.7593 31.3927L233.5081 27.6611" fill="none" stroke="#aaa" stroke-opacity="0.5"></path><path d="M219.5754 226.3636L177.9749 115.9856" fill="none" stroke="#aaa" stroke-opacity="0.5"></path><path d="M316.5763 128.7944L246.6436 134.6721" fill="none" stroke="#aaa" stroke-opacity="0.5"></path><path d="M167.7593 31.3927L316.5763 128.7944" fill="none" stroke="#aaa" stroke-opacity="0.5"></path><path d="M219.5754 226.3636L291.8646 59.3011" fill="none" stroke="#aaa" stroke-opacity="0.5"></path><path d="M167.7593 31.3927L177.9749 115.9856" fill="none" stroke="#aaa" stroke-opacity="0.5"></path><path d="M167.7593 31.3927L112.735 157.8038" fill="none" stroke="#aaa" stroke-opacity="0.5"></path><path d="M177.9749 115.9856L156.6243 210.7767" fill="none" stroke="#aaa" stroke-opacity="0.5"></path><path d="M112.735 157.8038L156.6243 210.7767" fill="none" stroke="#aaa" stroke-opacity="0.5"></path><path d="M177.9749 115.9856L246.6436 134.6721" fill="none" stroke="#aaa" stroke-opacity="0.5"></path><path d="M167.7593 31.3927L291.8646 59.3011" fill="none" stroke="#aaa" stroke-opacity="0.5"></path><path d="M112.735 157.8038L246.6436 134.6721" fill="none" stroke="#aaa" stroke-opacity="0.5"></path><path d="M156.6243 210.7767L246.6436 134.6721" fill="none" stroke="#aaa" stroke-opacity="0.5"></path><path d="M112.735 157.8038L233.5081 27.6611" fill="none" stroke="#aaa" stroke-opacity="0.5"></path><path d="M284.8665 200.585L219.5754 226.3636" fill="none" stroke="#aaa" stroke-opacity="0.5"></path><path d="M177.9749 115.9856L316.5763 128.7944" fill="none" stroke="#aaa" stroke-opacity="0.5"></path><path d="M112.735 157.8038L316.5763 128.7944" fill="none" stroke="#aaa" stroke-opacity="0.5"></path><path d="M156.6243 210.7767L316.5763 128.7944" fill="none" stroke="#aaa" stroke-opacity="0.5"></path><path d="M284.8665 200.585L167.7593 31.3927" fill="none" stroke="#aaa" stroke-opacity="0.5"></path><path d="M284.8665 200.585L112.735 157.8038" fill="none" stroke="#aaa" stroke-opacity="0.5"></path><path d="M284.8665 200.585L291.8646 59.3011" fill="none" stroke="#aaa" stroke-opacity="0.5"></path><path d="M114.2564 81.6638L219.5754 226.3636" fill="none" stroke="#aaa" stroke-opacity="0.5"></path><path d="M114.2564 81.6638L233.5081 27.6611" fill="none" stroke="#aaa" stroke-opacity="0.5"></path><path d="M291.8646 59.3011L246.6436 134.6721" fill="none" stroke="#aaa" stroke-opacity="0.5"></path><path d="M167.7593 31.3927L156.6243 210.7767" fill="none" stroke="#aaa" stroke-opacity="0.5"></path><path d="M167.7593 31.3927L246.6436 134.6721" fill="none" stroke="#aaa" stroke-opacity="0.5"></path><path d="M219.5754 226.3636L112.735 157.8038" fill="none" stroke="#aaa" stroke-opacity="0.5"></path><path d="M114.2564 81.6638L316.5763 128.7944" fill="none" stroke="#aaa" stroke-opacity="0.5"></path><path d="M291.8646 59.3011L233.5081 27.6611" fill="none" stroke="#aaa" stroke-opacity="0.5"></path><path d="M1 0A1 1 0 1 1 1 -0.0001" fill="#5470c6" transform="matrix(18.5,0,0,18.5,316.5763,128.7944)"></path><path d="M1 0A1 1 0 1 1 1 -0.0001" fill="#5470c6" transform="matrix(18.5,0,0,18.5,284.8665,200.585)"></path><path d="M1 0A1 1 0 1 1 1 -0.0001" fill="#5470c6" transform="matrix(18.5,0,0,18.5,219.5754,226.3636)"></path><path d="M1 0A1 1 0 1 1 1 -0.0001" fill="#5470c6" transform="matrix(18.5,0,0,18.5,156.6243,210.7767)"></path><path d="M1 0A1 1 0 1 1 1 -0.0001" fill="#5470c6" transform="matrix(18.5,0,0,18.5,112.735,157.8038)"></path><path d="M1 0A1 1 0 1 1 1 -0.0001" fill="#5470c6" transform="matrix(18.5,0,0,18.5,177.9749,115.9856)"></path><path d="M1 0A1 1 0 1 1 1 -0.0001" fill="#5470c6" transform="matrix(18.5,0,0,18.5,114.2564,81.6638)"></path><path d="M1 0A1 1 0 1 1 1 -0.0001" fill="#5470c6" transform="matrix(18.5,0,0,18.5,167.7593,31.3927)"></path><path d="M1 0A1 1 0 1 1 1 -0.0001" fill="#5470c6" transform="matrix(18.5,0,0,18.5,233.5081,27.6611)"></path><path d="M1 0A1 1 0 1 1 1 -0.0001" fill="#5470c6" transform="matrix(18.5,0,0,18.5,291.8646,59.3011)"></path><path d="M1 0A1 1 0 1 1 1 -0.0001" fill="#5470c6" transform="matrix(18.5,0,0,18.5,246.6436,134.6721)"></path><path d="M-32.4922 -5l64.9844 0l0 33l-64.9844 0Z" fill="rgb(0,0,0)" fill-opacity="0" stroke="#ccc" stroke-width="0" transform="translate(237.5 5)"></path><text dominant-baseline="central" fill="#333" style="font-size:23px;font-family:sans-serif;font-weight:bolder;" text-anchor="middle" transform="translate(237.5 5)" y="11.5">C149</text></g></svg>