<svg baseprofile="full" height="250" style="position:absolute;left:0;top:0;user-select:none" version="1.1" width="475" xmlns="http://www.w3.org/2000/svg" xmlns:xlink="http://www.w3.org/1999/xlink"><rect fill="none" height="250" id="0" width="475" x="0" y="0"></rect><g><path d="M308.0941 88.0968L127.9592 69.4345" fill="none" stroke="#aaa" stroke-opacity="0.5"></path><path d="M199.0394 231.1106L133.7624 194.0456" fill="none" stroke="#aaa" stroke-opacity="0.5"></path><path d="M222.2647 87.7184L133.7624 194.0456" fill="none" stroke="#aaa" stroke-opacity="0.5"></path><path d="M109.617 130.9463L133.7624 194.0456" fill="none" stroke="#aaa" stroke-opacity="0.5"></path><path d="M179.1464 23.9277L308.0941 88.0968" fill="none" stroke="#aaa" stroke-opacity="0.5"></path><path d="M199.0394 231.1106L307.3311 154.5431" fill="none" stroke="#aaa" stroke-opacity="0.5"></path><path d="M222.2647 87.7184L307.3311 154.5431" fill="none" stroke="#aaa" stroke-opacity="0.5"></path><path d="M199.0394 231.1106L308.0941 88.0968" fill="none" stroke="#aaa" stroke-opacity="0.5"></path><path d="M179.1464 23.9277L127.9592 69.4345" fill="none" stroke="#aaa" stroke-opacity="0.5"></path><path d="M204.8829 155.77L307.3311 154.5431" fill="none" stroke="#aaa" stroke-opacity="0.5"></path><path d="M204.8829 155.77L308.0941 88.0968" fill="none" stroke="#aaa" stroke-opacity="0.5"></path><path d="M199.0394 231.1106L127.9592 69.4345" fill="none" stroke="#aaa" stroke-opacity="0.5"></path><path d="M204.8829 155.77L179.1464 23.9277" fill="none" stroke="#aaa" stroke-opacity="0.5"></path><path d="M222.2647 87.7184L127.9592 69.4345" fill="none" stroke="#aaa" stroke-opacity="0.5"></path><path d="M109.617 130.9463L127.9592 69.4345" fill="none" stroke="#aaa" stroke-opacity="0.5"></path><path d="M222.2647 87.7184L204.8829 155.77" fill="none" stroke="#aaa" stroke-opacity="0.5"></path><path d="M204.8829 155.77L127.9592 69.4345" fill="none" stroke="#aaa" stroke-opacity="0.5"></path><path d="M199.0394 231.1106L260.3244 29.4947" fill="none" stroke="#aaa" stroke-opacity="0.5"></path><path d="M222.2647 87.7184L260.3244 29.4947" fill="none" stroke="#aaa" stroke-opacity="0.5"></path><path d="M109.617 130.9463L260.3244 29.4947" fill="none" stroke="#aaa" stroke-opacity="0.5"></path><path d="M204.8829 155.77L260.3244 29.4947" fill="none" stroke="#aaa" stroke-opacity="0.5"></path><path d="M179.1464 23.9277L199.0394 231.1106" fill="none" stroke="#aaa" stroke-opacity="0.5"></path><path d="M307.3311 154.5431L133.7624 194.0456" fill="none" stroke="#aaa" stroke-opacity="0.5"></path><path d="M133.7624 194.0456L127.9592 69.4345" fill="none" stroke="#aaa" stroke-opacity="0.5"></path><path d="M269.9629 209.9123L308.0941 88.0968" fill="none" stroke="#aaa" stroke-opacity="0.5"></path><path d="M204.8829 155.77L199.0394 231.1106" fill="none" stroke="#aaa" stroke-opacity="0.5"></path><path d="M307.3311 154.5431L127.9592 69.4345" fill="none" stroke="#aaa" stroke-opacity="0.5"></path><path d="M133.7624 194.0456L260.3244 29.4947" fill="none" stroke="#aaa" stroke-opacity="0.5"></path><path d="M308.0941 88.0968L133.7624 194.0456" fill="none" stroke="#aaa" stroke-opacity="0.5"></path><path d="M307.3311 154.5431L260.3244 29.4947" fill="none" stroke="#aaa" stroke-opacity="0.5"></path><path d="M222.2647 87.7184L109.617 130.9463" fill="none" stroke="#aaa" stroke-opacity="0.5"></path><path d="M179.1464 23.9277L133.7624 194.0456" fill="none" stroke="#aaa" stroke-opacity="0.5"></path><path d="M179.1464 23.9277L307.3311 154.5431" fill="none" stroke="#aaa" stroke-opacity="0.5"></path><path d="M204.8829 155.77L133.7624 194.0456" fill="none" stroke="#aaa" stroke-opacity="0.5"></path><path d="M308.0941 88.0968L260.3244 29.4947" fill="none" stroke="#aaa" stroke-opacity="0.5"></path><path d="M179.1464 23.9277L269.9629 209.9123" fill="none" stroke="#aaa" stroke-opacity="0.5"></path><path d="M260.3244 29.4947L127.9592 69.4345" fill="none" stroke="#aaa" stroke-opacity="0.5"></path><path d="M199.0394 231.1106L269.9629 209.9123" fill="none" stroke="#aaa" stroke-opacity="0.5"></path><path d="M222.2647 87.7184L308.0941 88.0968" fill="none" stroke="#aaa" stroke-opacity="0.5"></path><path d="M109.617 130.9463L308.0941 88.0968" fill="none" stroke="#aaa" stroke-opacity="0.5"></path><path d="M222.2647 87.7184L269.9629 209.9123" fill="none" stroke="#aaa" stroke-opacity="0.5"></path><path d="M179.1464 23.9277L260.3244 29.4947" fill="none" stroke="#aaa" stroke-opacity="0.5"></path><path d="M222.2647 87.7184L179.1464 23.9277" fill="none" stroke="#aaa" stroke-opacity="0.5"></path><path d="M109.617 130.9463L269.9629 209.9123" fill="none" stroke="#aaa" stroke-opacity="0.5"></path><path d="M307.3311 154.5431L109.617 130.9463" fill="none" stroke="#aaa" stroke-opacity="0.5"></path><path d="M204.8829 155.77L269.9629 209.9123" fill="none" stroke="#aaa" stroke-opacity="0.5"></path><path d="M269.9629 209.9123L133.7624 194.0456" fill="none" stroke="#aaa" stroke-opacity="0.5"></path><path d="M269.9629 209.9123L127.9592 69.4345" fill="none" stroke="#aaa" stroke-opacity="0.5"></path><path d="M222.2647 87.7184L199.0394 231.1106" fill="none" stroke="#aaa" stroke-opacity="0.5"></path><path d="M307.3311 154.5431L308.0941 88.0968" fill="none" stroke="#aaa" stroke-opacity="0.5"></path><path d="M307.3311 154.5431L269.9629 209.9123" fill="none" stroke="#aaa" stroke-opacity="0.5"></path><path d="M179.1464 23.9277L109.617 130.9463" fill="none" stroke="#aaa" stroke-opacity="0.5"></path><path d="M269.9629 209.9123L260.3244 29.4947" fill="none" stroke="#aaa" stroke-opacity="0.5"></path><path d="M199.0394 231.1106L109.617 130.9463" fill="none" stroke="#aaa" stroke-opacity="0.5"></path><path d="M204.8829 155.77L109.617 130.9463" fill="none" stroke="#aaa" stroke-opacity="0.5"></path><path d="M1 0A1 1 0 1 1 1 -0.0001" fill="#5470c6" transform="matrix(18.5,0,0,18.5,307.3311,154.5431)"></path><path d="M1 0A1 1 0 1 1 1 -0.0001" fill="#5470c6" transform="matrix(18.5,0,0,18.5,269.9629,209.9123)"></path><path d="M1 0A1 1 0 1 1 1 -0.0001" fill="#5470c6" transform="matrix(18.5,0,0,18.5,204.8829,155.77)"></path><path d="M1 0A1 1 0 1 1 1 -0.0001" fill="#5470c6" transform="matrix(18.5,0,0,18.5,199.0394,231.1106)"></path><path d="M1 0A1 1 0 1 1 1 -0.0001" fill="#5470c6" transform="matrix(18.5,0,0,18.5,133.7624,194.0456)"></path><path d="M1 0A1 1 0 1 1 1 -0.0001" fill="#5470c6" transform="matrix(18.5,0,0,18.5,109.617,130.9463)"></path><path d="M1 0A1 1 0 1 1 1 -0.0001" fill="#5470c6" transform="matrix(18.5,0,0,18.5,127.9592,69.4345)"></path><path d="M1 0A1 1 0 1 1 1 -0.0001" fill="#5470c6" transform="matrix(18.5,0,0,18.5,179.1464,23.9277)"></path><path d="M1 0A1 1 0 1 1 1 -0.0001" fill="#5470c6" transform="matrix(18.5,0,0,18.5,260.3244,29.4947)"></path><path d="M1 0A1 1 0 1 1 1 -0.0001" fill="#5470c6" transform="matrix(18.5,0,0,18.5,222.2647,87.7184)"></path><path d="M1 0A1 1 0 1 1 1 -0.0001" fill="#5470c6" transform="matrix(18.5,0,0,18.5,308.0941,88.0968)"></path><path d="M-32.4922 -5l64.9844 0l0 33l-64.9844 0Z" fill="rgb(0,0,0)" fill-opacity="0" stroke="#ccc" stroke-width="0" transform="translate(237.5 5)"></path><text dominant-baseline="central" fill="#333" style="font-size:23px;font-family:sans-serif;font-weight:bolder;" text-anchor="middle" transform="translate(237.5 5)" y="11.5">C150</text></g></svg>