<svg baseprofile="full" height="250" style="position:absolute;left:0;top:0;user-select:none" version="1.1" width="475" xmlns="http://www.w3.org/2000/svg" xmlns:xlink="http://www.w3.org/1999/xlink"><rect fill="none" height="250" id="0" width="475" x="0" y="0"></rect><g><path d="M312.7297 133.9904L283.1522 198.0487" fill="none" stroke="#aaa" stroke-opacity="0.5"></path><path d="M111.5959 150.8419L283.1522 198.0487" fill="none" stroke="#aaa" stroke-opacity="0.5"></path><path d="M122.1542 83.6897L235.8628 26.8469" fill="none" stroke="#aaa" stroke-opacity="0.5"></path><path d="M111.5959 150.8419L215.5906 126.0151" fill="none" stroke="#aaa" stroke-opacity="0.5"></path><path d="M312.7297 133.9904L235.8628 26.8469" fill="none" stroke="#aaa" stroke-opacity="0.5"></path><path d="M111.5959 150.8419L235.8628 26.8469" fill="none" stroke="#aaa" stroke-opacity="0.5"></path><path d="M165.8367 32.6559L294.2157 64.9554" fill="none" stroke="#aaa" stroke-opacity="0.5"></path><path d="M218.517 226.0113L215.5906 126.0151" fill="none" stroke="#aaa" stroke-opacity="0.5"></path><path d="M122.1542 83.6897L151.6041 206.9449" fill="none" stroke="#aaa" stroke-opacity="0.5"></path><path d="M294.2157 64.9554L215.5906 126.0151" fill="none" stroke="#aaa" stroke-opacity="0.5"></path><path d="M215.5906 126.0151L283.1522 198.0487" fill="none" stroke="#aaa" stroke-opacity="0.5"></path><path d="M165.8367 32.6559L215.5906 126.0151" fill="none" stroke="#aaa" stroke-opacity="0.5"></path><path d="M122.1542 83.6897L165.8367 32.6559" fill="none" stroke="#aaa" stroke-opacity="0.5"></path><path d="M312.7297 133.9904L165.8367 32.6559" fill="none" stroke="#aaa" stroke-opacity="0.5"></path><path d="M215.5906 126.0151L235.8628 26.8469" fill="none" stroke="#aaa" stroke-opacity="0.5"></path><path d="M122.1542 83.6897L294.2157 64.9554" fill="none" stroke="#aaa" stroke-opacity="0.5"></path><path d="M165.8367 32.6559L151.6041 206.9449" fill="none" stroke="#aaa" stroke-opacity="0.5"></path><path d="M312.7297 133.9904L218.517 226.0113" fill="none" stroke="#aaa" stroke-opacity="0.5"></path><path d="M122.1542 83.6897L215.5906 126.0151" fill="none" stroke="#aaa" stroke-opacity="0.5"></path><path d="M111.5959 150.8419L218.517 226.0113" fill="none" stroke="#aaa" stroke-opacity="0.5"></path><path d="M312.7297 133.9904L215.5906 126.0151" fill="none" stroke="#aaa" stroke-opacity="0.5"></path><path d="M294.2157 64.9554L218.517 226.0113" fill="none" stroke="#aaa" stroke-opacity="0.5"></path><path d="M235.8628 26.8469L151.6041 206.9449" fill="none" stroke="#aaa" stroke-opacity="0.5"></path><path d="M218.517 226.0113L283.1522 198.0487" fill="none" stroke="#aaa" stroke-opacity="0.5"></path><path d="M165.8367 32.6559L218.517 226.0113" fill="none" stroke="#aaa" stroke-opacity="0.5"></path><path d="M294.2157 64.9554L283.1522 198.0487" fill="none" stroke="#aaa" stroke-opacity="0.5"></path><path d="M111.5959 150.8419L312.7297 133.9904" fill="none" stroke="#aaa" stroke-opacity="0.5"></path><path d="M165.8367 32.6559L283.1522 198.0487" fill="none" stroke="#aaa" stroke-opacity="0.5"></path><path d="M312.7297 133.9904L151.6041 206.9449" fill="none" stroke="#aaa" stroke-opacity="0.5"></path><path d="M218.517 226.0113L235.8628 26.8469" fill="none" stroke="#aaa" stroke-opacity="0.5"></path><path d="M294.2157 64.9554L235.8628 26.8469" fill="none" stroke="#aaa" stroke-opacity="0.5"></path><path d="M111.5959 150.8419L151.6041 206.9449" fill="none" stroke="#aaa" stroke-opacity="0.5"></path><path d="M151.6041 206.9449L283.1522 198.0487" fill="none" stroke="#aaa" stroke-opacity="0.5"></path><path d="M165.8367 32.6559L235.8628 26.8469" fill="none" stroke="#aaa" stroke-opacity="0.5"></path><path d="M218.517 226.0113L151.6041 206.9449" fill="none" stroke="#aaa" stroke-opacity="0.5"></path><path d="M294.2157 64.9554L151.6041 206.9449" fill="none" stroke="#aaa" stroke-opacity="0.5"></path><path d="M312.7297 133.9904L122.1542 83.6897" fill="none" stroke="#aaa" stroke-opacity="0.5"></path><path d="M111.5959 150.8419L165.8367 32.6559" fill="none" stroke="#aaa" stroke-opacity="0.5"></path><path d="M111.5959 150.8419L122.1542 83.6897" fill="none" stroke="#aaa" stroke-opacity="0.5"></path><path d="M122.1542 83.6897L218.517 226.0113" fill="none" stroke="#aaa" stroke-opacity="0.5"></path><path d="M235.8628 26.8469L283.1522 198.0487" fill="none" stroke="#aaa" stroke-opacity="0.5"></path><path d="M215.5906 126.0151L151.6041 206.9449" fill="none" stroke="#aaa" stroke-opacity="0.5"></path><path d="M122.1542 83.6897L283.1522 198.0487" fill="none" stroke="#aaa" stroke-opacity="0.5"></path><path d="M312.7297 133.9904L294.2157 64.9554" fill="none" stroke="#aaa" stroke-opacity="0.5"></path><path d="M111.5959 150.8419L294.2157 64.9554" fill="none" stroke="#aaa" stroke-opacity="0.5"></path><path d="M1 0A1 1 0 1 1 1 -0.0001" fill="#5470c6" transform="matrix(19,0,0,19,312.7297,133.9904)"></path><path d="M1 0A1 1 0 1 1 1 -0.0001" fill="#5470c6" transform="matrix(19,0,0,19,283.1522,198.0487)"></path><path d="M1 0A1 1 0 1 1 1 -0.0001" fill="#5470c6" transform="matrix(19,0,0,19,218.517,226.0113)"></path><path d="M1 0A1 1 0 1 1 1 -0.0001" fill="#5470c6" transform="matrix(19,0,0,19,151.6041,206.9449)"></path><path d="M1 0A1 1 0 1 1 1 -0.0001" fill="#5470c6" transform="matrix(19,0,0,19,111.5959,150.8419)"></path><path d="M1 0A1 1 0 1 1 1 -0.0001" fill="#5470c6" transform="matrix(19,0,0,19,122.1542,83.6897)"></path><path d="M1 0A1 1 0 1 1 1 -0.0001" fill="#5470c6" transform="matrix(19,0,0,19,165.8367,32.6559)"></path><path d="M1 0A1 1 0 1 1 1 -0.0001" fill="#5470c6" transform="matrix(19,0,0,19,235.8628,26.8469)"></path><path d="M1 0A1 1 0 1 1 1 -0.0001" fill="#5470c6" transform="matrix(19,0,0,19,215.5906,126.0151)"></path><path d="M1 0A1 1 0 1 1 1 -0.0001" fill="#5470c6" transform="matrix(19,0,0,19,294.2157,64.9554)"></path><path d="M-32.4922 -5l64.9844 0l0 33l-64.9844 0Z" fill="rgb(0,0,0)" fill-opacity="0" stroke="#ccc" stroke-width="0" transform="translate(237.5 5)"></path><text dominant-baseline="central" fill="#333" style="font-size:23px;font-family:sans-serif;font-weight:bolder;" text-anchor="middle" transform="translate(237.5 5)" y="11.5">C151</text></g></svg>