<svg baseprofile="full" height="250" style="position:absolute;left:0;top:0;user-select:none" version="1.1" width="475" xmlns="http://www.w3.org/2000/svg" xmlns:xlink="http://www.w3.org/1999/xlink"><rect fill="none" height="250" id="0" width="475" x="0" y="0"></rect><g><path d="M181.0446 222.0201L211.6881 125.843" fill="none" stroke="#aaa" stroke-opacity="0.5"></path><path d="M250.2736 218.2937L211.6881 125.843" fill="none" stroke="#aaa" stroke-opacity="0.5"></path><path d="M302.8542 171.9447L206.1617 23.1887" fill="none" stroke="#aaa" stroke-opacity="0.5"></path><path d="M206.1617 23.1887L110.5989 112.3153" fill="none" stroke="#aaa" stroke-opacity="0.5"></path><path d="M302.8542 171.9447L272.4406 44.1242" fill="none" stroke="#aaa" stroke-opacity="0.5"></path><path d="M272.4406 44.1242L110.5989 112.3153" fill="none" stroke="#aaa" stroke-opacity="0.5"></path><path d="M141.6557 49.8464L250.2736 218.2937" fill="none" stroke="#aaa" stroke-opacity="0.5"></path><path d="M206.1617 23.1887L211.6881 125.843" fill="none" stroke="#aaa" stroke-opacity="0.5"></path><path d="M309.9463 102.1853L206.1617 23.1887" fill="none" stroke="#aaa" stroke-opacity="0.5"></path><path d="M141.6557 49.8464L181.0446 222.0201" fill="none" stroke="#aaa" stroke-opacity="0.5"></path><path d="M272.4406 44.1242L309.9463 102.1853" fill="none" stroke="#aaa" stroke-opacity="0.5"></path><path d="M272.4406 44.1242L211.6881 125.843" fill="none" stroke="#aaa" stroke-opacity="0.5"></path><path d="M309.9463 102.1853L110.5989 112.3153" fill="none" stroke="#aaa" stroke-opacity="0.5"></path><path d="M302.8542 171.9447L309.9463 102.1853" fill="none" stroke="#aaa" stroke-opacity="0.5"></path><path d="M250.2736 218.2937L206.1617 23.1887" fill="none" stroke="#aaa" stroke-opacity="0.5"></path><path d="M302.8542 171.9447L124.5951 180.2386" fill="none" stroke="#aaa" stroke-opacity="0.5"></path><path d="M181.0446 222.0201L110.5989 112.3153" fill="none" stroke="#aaa" stroke-opacity="0.5"></path><path d="M309.9463 102.1853L211.6881 125.843" fill="none" stroke="#aaa" stroke-opacity="0.5"></path><path d="M124.5951 180.2386L110.5989 112.3153" fill="none" stroke="#aaa" stroke-opacity="0.5"></path><path d="M272.4406 44.1242L250.2736 218.2937" fill="none" stroke="#aaa" stroke-opacity="0.5"></path><path d="M141.6557 49.8464L110.5989 112.3153" fill="none" stroke="#aaa" stroke-opacity="0.5"></path><path d="M181.0446 222.0201L309.9463 102.1853" fill="none" stroke="#aaa" stroke-opacity="0.5"></path><path d="M302.8542 171.9447L250.2736 218.2937" fill="none" stroke="#aaa" stroke-opacity="0.5"></path><path d="M272.4406 44.1242L181.0446 222.0201" fill="none" stroke="#aaa" stroke-opacity="0.5"></path><path d="M124.5951 180.2386L309.9463 102.1853" fill="none" stroke="#aaa" stroke-opacity="0.5"></path><path d="M124.5951 180.2386L211.6881 125.843" fill="none" stroke="#aaa" stroke-opacity="0.5"></path><path d="M141.6557 49.8464L309.9463 102.1853" fill="none" stroke="#aaa" stroke-opacity="0.5"></path><path d="M302.8542 171.9447L181.0446 222.0201" fill="none" stroke="#aaa" stroke-opacity="0.5"></path><path d="M250.2736 218.2937L309.9463 102.1853" fill="none" stroke="#aaa" stroke-opacity="0.5"></path><path d="M141.6557 49.8464L211.6881 125.843" fill="none" stroke="#aaa" stroke-opacity="0.5"></path><path d="M181.0446 222.0201L250.2736 218.2937" fill="none" stroke="#aaa" stroke-opacity="0.5"></path><path d="M272.4406 44.1242L206.1617 23.1887" fill="none" stroke="#aaa" stroke-opacity="0.5"></path><path d="M124.5951 180.2386L250.2736 218.2937" fill="none" stroke="#aaa" stroke-opacity="0.5"></path><path d="M272.4406 44.1242L141.6557 49.8464" fill="none" stroke="#aaa" stroke-opacity="0.5"></path><path d="M302.8542 171.9447L110.5989 112.3153" fill="none" stroke="#aaa" stroke-opacity="0.5"></path><path d="M124.5951 180.2386L181.0446 222.0201" fill="none" stroke="#aaa" stroke-opacity="0.5"></path><path d="M302.8542 171.9447L141.6557 49.8464" fill="none" stroke="#aaa" stroke-opacity="0.5"></path><path d="M181.0446 222.0201L206.1617 23.1887" fill="none" stroke="#aaa" stroke-opacity="0.5"></path><path d="M302.8542 171.9447L211.6881 125.843" fill="none" stroke="#aaa" stroke-opacity="0.5"></path><path d="M124.5951 180.2386L206.1617 23.1887" fill="none" stroke="#aaa" stroke-opacity="0.5"></path><path d="M272.4406 44.1242L124.5951 180.2386" fill="none" stroke="#aaa" stroke-opacity="0.5"></path><path d="M211.6881 125.843L110.5989 112.3153" fill="none" stroke="#aaa" stroke-opacity="0.5"></path><path d="M141.6557 49.8464L206.1617 23.1887" fill="none" stroke="#aaa" stroke-opacity="0.5"></path><path d="M124.5951 180.2386L141.6557 49.8464" fill="none" stroke="#aaa" stroke-opacity="0.5"></path><path d="M250.2736 218.2937L110.5989 112.3153" fill="none" stroke="#aaa" stroke-opacity="0.5"></path><path d="M1 0A1 1 0 1 1 1 -0.0001" fill="#5470c6" transform="matrix(19,0,0,19,302.8542,171.9447)"></path><path d="M1 0A1 1 0 1 1 1 -0.0001" fill="#5470c6" transform="matrix(19,0,0,19,250.2736,218.2937)"></path><path d="M1 0A1 1 0 1 1 1 -0.0001" fill="#5470c6" transform="matrix(19,0,0,19,181.0446,222.0201)"></path><path d="M1 0A1 1 0 1 1 1 -0.0001" fill="#5470c6" transform="matrix(19,0,0,19,211.6881,125.843)"></path><path d="M1 0A1 1 0 1 1 1 -0.0001" fill="#5470c6" transform="matrix(19,0,0,19,124.5951,180.2386)"></path><path d="M1 0A1 1 0 1 1 1 -0.0001" fill="#5470c6" transform="matrix(19,0,0,19,110.5989,112.3153)"></path><path d="M1 0A1 1 0 1 1 1 -0.0001" fill="#5470c6" transform="matrix(19,0,0,19,141.6557,49.8464)"></path><path d="M1 0A1 1 0 1 1 1 -0.0001" fill="#5470c6" transform="matrix(19,0,0,19,206.1617,23.1887)"></path><path d="M1 0A1 1 0 1 1 1 -0.0001" fill="#5470c6" transform="matrix(19,0,0,19,272.4406,44.1242)"></path><path d="M1 0A1 1 0 1 1 1 -0.0001" fill="#5470c6" transform="matrix(19,0,0,19,309.9463,102.1853)"></path><path d="M-32.4922 -5l64.9844 0l0 33l-64.9844 0Z" fill="rgb(0,0,0)" fill-opacity="0" stroke="#ccc" stroke-width="0" transform="translate(237.5 5)"></path><text dominant-baseline="central" fill="#333" style="font-size:23px;font-family:sans-serif;font-weight:bolder;" text-anchor="middle" transform="translate(237.5 5)" y="11.5">C152</text></g></svg>