<svg baseprofile="full" height="250" style="position:absolute;left:0;top:0;user-select:none" version="1.1" width="475" xmlns="http://www.w3.org/2000/svg" xmlns:xlink="http://www.w3.org/1999/xlink"><rect fill="none" height="250" id="0" width="475" x="0" y="0"></rect><g><path d="M249.9459 31.273L209.8369 124.4014" fill="none" stroke="#aaa" stroke-opacity="0.5"></path><path d="M207.0224 226.7403L143.2519 200.2139" fill="none" stroke="#aaa" stroke-opacity="0.5"></path><path d="M109.2652 138.7903L301.6559 78.406" fill="none" stroke="#aaa" stroke-opacity="0.5"></path><path d="M209.8369 124.4014L143.2519 200.2139" fill="none" stroke="#aaa" stroke-opacity="0.5"></path><path d="M209.8369 124.4014L301.6559 78.406" fill="none" stroke="#aaa" stroke-opacity="0.5"></path><path d="M249.9459 31.273L273.7997 205.2361" fill="none" stroke="#aaa" stroke-opacity="0.5"></path><path d="M310.6841 146.6651L301.6559 78.406" fill="none" stroke="#aaa" stroke-opacity="0.5"></path><path d="M273.7997 205.2361L301.6559 78.406" fill="none" stroke="#aaa" stroke-opacity="0.5"></path><path d="M125.2667 70.7843L209.8369 124.4014" fill="none" stroke="#aaa" stroke-opacity="0.5"></path><path d="M109.2652 138.7903L310.6841 146.6651" fill="none" stroke="#aaa" stroke-opacity="0.5"></path><path d="M109.2652 138.7903L180.5301 27.4895" fill="none" stroke="#aaa" stroke-opacity="0.5"></path><path d="M249.9459 31.273L207.0224 226.7403" fill="none" stroke="#aaa" stroke-opacity="0.5"></path><path d="M109.2652 138.7903L209.8369 124.4014" fill="none" stroke="#aaa" stroke-opacity="0.5"></path><path d="M301.6559 78.406L143.2519 200.2139" fill="none" stroke="#aaa" stroke-opacity="0.5"></path><path d="M180.5301 27.4895L301.6559 78.406" fill="none" stroke="#aaa" stroke-opacity="0.5"></path><path d="M125.2667 70.7843L273.7997 205.2361" fill="none" stroke="#aaa" stroke-opacity="0.5"></path><path d="M249.9459 31.273L310.6841 146.6651" fill="none" stroke="#aaa" stroke-opacity="0.5"></path><path d="M310.6841 146.6651L180.5301 27.4895" fill="none" stroke="#aaa" stroke-opacity="0.5"></path><path d="M249.9459 31.273L180.5301 27.4895" fill="none" stroke="#aaa" stroke-opacity="0.5"></path><path d="M125.2667 70.7843L143.2519 200.2139" fill="none" stroke="#aaa" stroke-opacity="0.5"></path><path d="M310.6841 146.6651L209.8369 124.4014" fill="none" stroke="#aaa" stroke-opacity="0.5"></path><path d="M109.2652 138.7903L273.7997 205.2361" fill="none" stroke="#aaa" stroke-opacity="0.5"></path><path d="M207.0224 226.7403L301.6559 78.406" fill="none" stroke="#aaa" stroke-opacity="0.5"></path><path d="M109.2652 138.7903L125.2667 70.7843" fill="none" stroke="#aaa" stroke-opacity="0.5"></path><path d="M209.8369 124.4014L273.7997 205.2361" fill="none" stroke="#aaa" stroke-opacity="0.5"></path><path d="M109.2652 138.7903L143.2519 200.2139" fill="none" stroke="#aaa" stroke-opacity="0.5"></path><path d="M310.6841 146.6651L273.7997 205.2361" fill="none" stroke="#aaa" stroke-opacity="0.5"></path><path d="M310.6841 146.6651L125.2667 70.7843" fill="none" stroke="#aaa" stroke-opacity="0.5"></path><path d="M125.2667 70.7843L207.0224 226.7403" fill="none" stroke="#aaa" stroke-opacity="0.5"></path><path d="M249.9459 31.273L125.2667 70.7843" fill="none" stroke="#aaa" stroke-opacity="0.5"></path><path d="M310.6841 146.6651L143.2519 200.2139" fill="none" stroke="#aaa" stroke-opacity="0.5"></path><path d="M249.9459 31.273L143.2519 200.2139" fill="none" stroke="#aaa" stroke-opacity="0.5"></path><path d="M249.9459 31.273L301.6559 78.406" fill="none" stroke="#aaa" stroke-opacity="0.5"></path><path d="M109.2652 138.7903L207.0224 226.7403" fill="none" stroke="#aaa" stroke-opacity="0.5"></path><path d="M209.8369 124.4014L207.0224 226.7403" fill="none" stroke="#aaa" stroke-opacity="0.5"></path><path d="M125.2667 70.7843L180.5301 27.4895" fill="none" stroke="#aaa" stroke-opacity="0.5"></path><path d="M273.7997 205.2361L143.2519 200.2139" fill="none" stroke="#aaa" stroke-opacity="0.5"></path><path d="M109.2652 138.7903L249.9459 31.273" fill="none" stroke="#aaa" stroke-opacity="0.5"></path><path d="M310.6841 146.6651L207.0224 226.7403" fill="none" stroke="#aaa" stroke-opacity="0.5"></path><path d="M207.0224 226.7403L180.5301 27.4895" fill="none" stroke="#aaa" stroke-opacity="0.5"></path><path d="M209.8369 124.4014L180.5301 27.4895" fill="none" stroke="#aaa" stroke-opacity="0.5"></path><path d="M180.5301 27.4895L273.7997 205.2361" fill="none" stroke="#aaa" stroke-opacity="0.5"></path><path d="M180.5301 27.4895L143.2519 200.2139" fill="none" stroke="#aaa" stroke-opacity="0.5"></path><path d="M125.2667 70.7843L301.6559 78.406" fill="none" stroke="#aaa" stroke-opacity="0.5"></path><path d="M207.0224 226.7403L273.7997 205.2361" fill="none" stroke="#aaa" stroke-opacity="0.5"></path><path d="M1 0A1 1 0 1 1 1 -0.0001" fill="#5470c6" transform="matrix(19,0,0,19,310.6841,146.6651)"></path><path d="M1 0A1 1 0 1 1 1 -0.0001" fill="#5470c6" transform="matrix(19,0,0,19,273.7997,205.2361)"></path><path d="M1 0A1 1 0 1 1 1 -0.0001" fill="#5470c6" transform="matrix(19,0,0,19,207.0224,226.7403)"></path><path d="M1 0A1 1 0 1 1 1 -0.0001" fill="#5470c6" transform="matrix(19,0,0,19,143.2519,200.2139)"></path><path d="M1 0A1 1 0 1 1 1 -0.0001" fill="#5470c6" transform="matrix(19,0,0,19,109.2652,138.7903)"></path><path d="M1 0A1 1 0 1 1 1 -0.0001" fill="#5470c6" transform="matrix(19,0,0,19,125.2667,70.7843)"></path><path d="M1 0A1 1 0 1 1 1 -0.0001" fill="#5470c6" transform="matrix(19,0,0,19,209.8369,124.4014)"></path><path d="M1 0A1 1 0 1 1 1 -0.0001" fill="#5470c6" transform="matrix(19,0,0,19,180.5301,27.4895)"></path><path d="M1 0A1 1 0 1 1 1 -0.0001" fill="#5470c6" transform="matrix(19,0,0,19,249.9459,31.273)"></path><path d="M1 0A1 1 0 1 1 1 -0.0001" fill="#5470c6" transform="matrix(19,0,0,19,301.6559,78.406)"></path><path d="M-32.4922 -5l64.9844 0l0 33l-64.9844 0Z" fill="rgb(0,0,0)" fill-opacity="0" stroke="#ccc" stroke-width="0" transform="translate(237.5 5)"></path><text dominant-baseline="central" fill="#333" style="font-size:23px;font-family:sans-serif;font-weight:bolder;" text-anchor="middle" transform="translate(237.5 5)" y="11.5">C153</text></g></svg>