<svg baseprofile="full" height="250" style="position:absolute;left:0;top:0;user-select:none" version="1.1" width="475" xmlns="http://www.w3.org/2000/svg" xmlns:xlink="http://www.w3.org/1999/xlink"><rect fill="none" height="250" id="0" width="475" x="0" y="0"></rect><g><path d="M224.8543 232.845L144.5216 204.7691" fill="none" stroke="#aaa" stroke-opacity="0.5"></path><path d="M107.0904 135.6539L132.5091 68.0398" fill="none" stroke="#aaa" stroke-opacity="0.5"></path><path d="M223.677 146.2844L132.5091 68.0398" fill="none" stroke="#aaa" stroke-opacity="0.5"></path><path d="M189.302 23.7032L262.5218 36.6667" fill="none" stroke="#aaa" stroke-opacity="0.5"></path><path d="M223.677 146.2844L224.8543 232.845" fill="none" stroke="#aaa" stroke-opacity="0.5"></path><path d="M310.6749 96.3189L144.5216 204.7691" fill="none" stroke="#aaa" stroke-opacity="0.5"></path><path d="M310.6749 96.3189L304.9817 180.719" fill="none" stroke="#aaa" stroke-opacity="0.5"></path><path d="M224.8543 232.845L132.5091 68.0398" fill="none" stroke="#aaa" stroke-opacity="0.5"></path><path d="M223.677 146.2844L189.302 23.7032" fill="none" stroke="#aaa" stroke-opacity="0.5"></path><path d="M304.9817 180.719L189.302 23.7032" fill="none" stroke="#aaa" stroke-opacity="0.5"></path><path d="M223.677 146.2844L107.0904 135.6539" fill="none" stroke="#aaa" stroke-opacity="0.5"></path><path d="M304.9817 180.719L107.0904 135.6539" fill="none" stroke="#aaa" stroke-opacity="0.5"></path><path d="M262.5218 36.6667L144.5216 204.7691" fill="none" stroke="#aaa" stroke-opacity="0.5"></path><path d="M223.677 146.2844L144.5216 204.7691" fill="none" stroke="#aaa" stroke-opacity="0.5"></path><path d="M223.677 146.2844L304.9817 180.719" fill="none" stroke="#aaa" stroke-opacity="0.5"></path><path d="M304.9817 180.719L144.5216 204.7691" fill="none" stroke="#aaa" stroke-opacity="0.5"></path><path d="M107.0904 135.6539L262.5218 36.6667" fill="none" stroke="#aaa" stroke-opacity="0.5"></path><path d="M223.677 146.2844L262.5218 36.6667" fill="none" stroke="#aaa" stroke-opacity="0.5"></path><path d="M132.5091 68.0398L262.5218 36.6667" fill="none" stroke="#aaa" stroke-opacity="0.5"></path><path d="M189.302 23.7032L144.5216 204.7691" fill="none" stroke="#aaa" stroke-opacity="0.5"></path><path d="M224.8543 232.845L262.5218 36.6667" fill="none" stroke="#aaa" stroke-opacity="0.5"></path><path d="M304.9817 180.719L132.5091 68.0398" fill="none" stroke="#aaa" stroke-opacity="0.5"></path><path d="M304.9817 180.719L224.8543 232.845" fill="none" stroke="#aaa" stroke-opacity="0.5"></path><path d="M107.0904 135.6539L224.8543 232.845" fill="none" stroke="#aaa" stroke-opacity="0.5"></path><path d="M310.6749 96.3189L262.5218 36.6667" fill="none" stroke="#aaa" stroke-opacity="0.5"></path><path d="M107.0904 135.6539L189.302 23.7032" fill="none" stroke="#aaa" stroke-opacity="0.5"></path><path d="M132.5091 68.0398L189.302 23.7032" fill="none" stroke="#aaa" stroke-opacity="0.5"></path><path d="M310.6749 96.3189L132.5091 68.0398" fill="none" stroke="#aaa" stroke-opacity="0.5"></path><path d="M310.6749 96.3189L223.677 146.2844" fill="none" stroke="#aaa" stroke-opacity="0.5"></path><path d="M310.6749 96.3189L224.8543 232.845" fill="none" stroke="#aaa" stroke-opacity="0.5"></path><path d="M224.8543 232.845L189.302 23.7032" fill="none" stroke="#aaa" stroke-opacity="0.5"></path><path d="M310.6749 96.3189L189.302 23.7032" fill="none" stroke="#aaa" stroke-opacity="0.5"></path><path d="M107.0904 135.6539L144.5216 204.7691" fill="none" stroke="#aaa" stroke-opacity="0.5"></path><path d="M310.6749 96.3189L107.0904 135.6539" fill="none" stroke="#aaa" stroke-opacity="0.5"></path><path d="M304.9817 180.719L262.5218 36.6667" fill="none" stroke="#aaa" stroke-opacity="0.5"></path><path d="M132.5091 68.0398L144.5216 204.7691" fill="none" stroke="#aaa" stroke-opacity="0.5"></path><path d="M1 0A1 1 0 1 1 1 -0.0001" fill="#5470c6" transform="matrix(19,0,0,19,304.9817,180.719)"></path><path d="M1 0A1 1 0 1 1 1 -0.0001" fill="#5470c6" transform="matrix(19,0,0,19,223.677,146.2844)"></path><path d="M1 0A1 1 0 1 1 1 -0.0001" fill="#5470c6" transform="matrix(19,0,0,19,224.8543,232.845)"></path><path d="M1 0A1 1 0 1 1 1 -0.0001" fill="#5470c6" transform="matrix(19,0,0,19,144.5216,204.7691)"></path><path d="M1 0A1 1 0 1 1 1 -0.0001" fill="#5470c6" transform="matrix(19,0,0,19,107.0904,135.6539)"></path><path d="M1 0A1 1 0 1 1 1 -0.0001" fill="#5470c6" transform="matrix(19,0,0,19,132.5091,68.0398)"></path><path d="M1 0A1 1 0 1 1 1 -0.0001" fill="#5470c6" transform="matrix(19,0,0,19,189.302,23.7032)"></path><path d="M1 0A1 1 0 1 1 1 -0.0001" fill="#5470c6" transform="matrix(19,0,0,19,262.5218,36.6667)"></path><path d="M1 0A1 1 0 1 1 1 -0.0001" fill="#5470c6" transform="matrix(19,0,0,19,310.6749,96.3189)"></path><path d="M-32.4922 -5l64.9844 0l0 33l-64.9844 0Z" fill="rgb(0,0,0)" fill-opacity="0" stroke="#ccc" stroke-width="0" transform="translate(237.5 5)"></path><text dominant-baseline="central" fill="#333" style="font-size:23px;font-family:sans-serif;font-weight:bolder;" text-anchor="middle" transform="translate(237.5 5)" y="11.5">C154</text></g></svg>