<svg baseprofile="full" height="250" style="position:absolute;left:0;top:0;user-select:none" version="1.1" width="475" xmlns="http://www.w3.org/2000/svg" xmlns:xlink="http://www.w3.org/1999/xlink"><rect fill="none" height="250" id="0" width="475" x="0" y="0"></rect><g><path d="M137.0885 183.3784L260.8407 213.5745" fill="none" stroke="#aaa" stroke-opacity="0.5"></path><path d="M100.8321 117.8492L311.0307 89.0454" fill="none" stroke="#aaa" stroke-opacity="0.5"></path><path d="M100.8321 117.8492L190.5014 224.1267" fill="none" stroke="#aaa" stroke-opacity="0.5"></path><path d="M155.4557 76.3759L260.8407 213.5745" fill="none" stroke="#aaa" stroke-opacity="0.5"></path><path d="M155.4557 76.3759L256.6538 46.4444" fill="none" stroke="#aaa" stroke-opacity="0.5"></path><path d="M137.0885 183.3784L311.0307 89.0454" fill="none" stroke="#aaa" stroke-opacity="0.5"></path><path d="M298.4041 158.1142L189.3258 16.0912" fill="none" stroke="#aaa" stroke-opacity="0.5"></path><path d="M137.0885 183.3784L190.5014 224.1267" fill="none" stroke="#aaa" stroke-opacity="0.5"></path><path d="M137.0885 183.3784L155.4557 76.3759" fill="none" stroke="#aaa" stroke-opacity="0.5"></path><path d="M155.4557 76.3759L311.0307 89.0454" fill="none" stroke="#aaa" stroke-opacity="0.5"></path><path d="M298.4041 158.1142L100.8321 117.8492" fill="none" stroke="#aaa" stroke-opacity="0.5"></path><path d="M155.4557 76.3759L190.5014 224.1267" fill="none" stroke="#aaa" stroke-opacity="0.5"></path><path d="M311.0307 89.0454L256.6538 46.4444" fill="none" stroke="#aaa" stroke-opacity="0.5"></path><path d="M189.3258 16.0912L260.8407 213.5745" fill="none" stroke="#aaa" stroke-opacity="0.5"></path><path d="M256.6538 46.4444L190.5014 224.1267" fill="none" stroke="#aaa" stroke-opacity="0.5"></path><path d="M260.8407 213.5745L311.0307 89.0454" fill="none" stroke="#aaa" stroke-opacity="0.5"></path><path d="M137.0885 183.3784L256.6538 46.4444" fill="none" stroke="#aaa" stroke-opacity="0.5"></path><path d="M260.8407 213.5745L190.5014 224.1267" fill="none" stroke="#aaa" stroke-opacity="0.5"></path><path d="M189.3258 16.0912L256.6538 46.4444" fill="none" stroke="#aaa" stroke-opacity="0.5"></path><path d="M137.0885 183.3784L189.3258 16.0912" fill="none" stroke="#aaa" stroke-opacity="0.5"></path><path d="M298.4041 158.1142L260.8407 213.5745" fill="none" stroke="#aaa" stroke-opacity="0.5"></path><path d="M311.0307 89.0454L190.5014 224.1267" fill="none" stroke="#aaa" stroke-opacity="0.5"></path><path d="M298.4041 158.1142L137.0885 183.3784" fill="none" stroke="#aaa" stroke-opacity="0.5"></path><path d="M298.4041 158.1142L256.6538 46.4444" fill="none" stroke="#aaa" stroke-opacity="0.5"></path><path d="M189.3258 16.0912L311.0307 89.0454" fill="none" stroke="#aaa" stroke-opacity="0.5"></path><path d="M189.3258 16.0912L190.5014 224.1267" fill="none" stroke="#aaa" stroke-opacity="0.5"></path><path d="M137.0885 183.3784L100.8321 117.8492" fill="none" stroke="#aaa" stroke-opacity="0.5"></path><path d="M189.3258 16.0912L100.8321 117.8492" fill="none" stroke="#aaa" stroke-opacity="0.5"></path><path d="M155.4557 76.3759L189.3258 16.0912" fill="none" stroke="#aaa" stroke-opacity="0.5"></path><path d="M260.8407 213.5745L256.6538 46.4444" fill="none" stroke="#aaa" stroke-opacity="0.5"></path><path d="M100.8321 117.8492L260.8407 213.5745" fill="none" stroke="#aaa" stroke-opacity="0.5"></path><path d="M100.8321 117.8492L256.6538 46.4444" fill="none" stroke="#aaa" stroke-opacity="0.5"></path><path d="M298.4041 158.1142L311.0307 89.0454" fill="none" stroke="#aaa" stroke-opacity="0.5"></path><path d="M155.4557 76.3759L100.8321 117.8492" fill="none" stroke="#aaa" stroke-opacity="0.5"></path><path d="M298.4041 158.1142L190.5014 224.1267" fill="none" stroke="#aaa" stroke-opacity="0.5"></path><path d="M298.4041 158.1142L155.4557 76.3759" fill="none" stroke="#aaa" stroke-opacity="0.5"></path><path d="M1 0A1 1 0 1 1 1 -0.0001" fill="#5470c6" transform="matrix(19,0,0,19,298.4041,158.1142)"></path><path d="M1 0A1 1 0 1 1 1 -0.0001" fill="#5470c6" transform="matrix(19,0,0,19,260.8407,213.5745)"></path><path d="M1 0A1 1 0 1 1 1 -0.0001" fill="#5470c6" transform="matrix(19,0,0,19,190.5014,224.1267)"></path><path d="M1 0A1 1 0 1 1 1 -0.0001" fill="#5470c6" transform="matrix(19,0,0,19,137.0885,183.3784)"></path><path d="M1 0A1 1 0 1 1 1 -0.0001" fill="#5470c6" transform="matrix(19,0,0,19,100.8321,117.8492)"></path><path d="M1 0A1 1 0 1 1 1 -0.0001" fill="#5470c6" transform="matrix(19,0,0,19,155.4557,76.3759)"></path><path d="M1 0A1 1 0 1 1 1 -0.0001" fill="#5470c6" transform="matrix(19,0,0,19,189.3258,16.0912)"></path><path d="M1 0A1 1 0 1 1 1 -0.0001" fill="#5470c6" transform="matrix(19,0,0,19,256.6538,46.4444)"></path><path d="M1 0A1 1 0 1 1 1 -0.0001" fill="#5470c6" transform="matrix(19,0,0,19,311.0307,89.0454)"></path><path d="M-32.4922 -5l64.9844 0l0 33l-64.9844 0Z" fill="rgb(0,0,0)" fill-opacity="0" stroke="#ccc" stroke-width="0" transform="translate(237.5 5)"></path><text dominant-baseline="central" fill="#333" style="font-size:23px;font-family:sans-serif;font-weight:bolder;" text-anchor="middle" transform="translate(237.5 5)" y="11.5">C155</text></g></svg>