<svg baseprofile="full" height="250" style="position:absolute;left:0;top:0;user-select:none" version="1.1" width="475" xmlns="http://www.w3.org/2000/svg" xmlns:xlink="http://www.w3.org/1999/xlink"><rect fill="none" height="250" id="0" width="475" x="0" y="0"></rect><g><path d="M186.0684 25.1307L307.2067 163.0687" fill="none" stroke="#aaa" stroke-opacity="0.5"></path><path d="M190.2324 143.6683L307.2067 163.0687" fill="none" stroke="#aaa" stroke-opacity="0.5"></path><path d="M104.6118 152.2359L258.6332 35.9005" fill="none" stroke="#aaa" stroke-opacity="0.5"></path><path d="M254.4806 218.4218L258.6332 35.9005" fill="none" stroke="#aaa" stroke-opacity="0.5"></path><path d="M186.0684 25.1307L169.7478 226.4811" fill="none" stroke="#aaa" stroke-opacity="0.5"></path><path d="M305.0847 90.6731L307.2067 163.0687" fill="none" stroke="#aaa" stroke-opacity="0.5"></path><path d="M104.6118 152.2359L307.2067 163.0687" fill="none" stroke="#aaa" stroke-opacity="0.5"></path><path d="M190.2324 143.6683L254.4806 218.4218" fill="none" stroke="#aaa" stroke-opacity="0.5"></path><path d="M169.7478 226.4811L190.2324 143.6683" fill="none" stroke="#aaa" stroke-opacity="0.5"></path><path d="M124.0672 69.4198L104.6118 152.2359" fill="none" stroke="#aaa" stroke-opacity="0.5"></path><path d="M186.0684 25.1307L104.6118 152.2359" fill="none" stroke="#aaa" stroke-opacity="0.5"></path><path d="M104.6118 152.2359L254.4806 218.4218" fill="none" stroke="#aaa" stroke-opacity="0.5"></path><path d="M124.0672 69.4198L169.7478 226.4811" fill="none" stroke="#aaa" stroke-opacity="0.5"></path><path d="M258.6332 35.9005L307.2067 163.0687" fill="none" stroke="#aaa" stroke-opacity="0.5"></path><path d="M169.7478 226.4811L307.2067 163.0687" fill="none" stroke="#aaa" stroke-opacity="0.5"></path><path d="M169.7478 226.4811L104.6118 152.2359" fill="none" stroke="#aaa" stroke-opacity="0.5"></path><path d="M186.0684 25.1307L124.0672 69.4198" fill="none" stroke="#aaa" stroke-opacity="0.5"></path><path d="M124.0672 69.4198L305.0847 90.6731" fill="none" stroke="#aaa" stroke-opacity="0.5"></path><path d="M124.0672 69.4198L190.2324 143.6683" fill="none" stroke="#aaa" stroke-opacity="0.5"></path><path d="M254.4806 218.4218L307.2067 163.0687" fill="none" stroke="#aaa" stroke-opacity="0.5"></path><path d="M124.0672 69.4198L254.4806 218.4218" fill="none" stroke="#aaa" stroke-opacity="0.5"></path><path d="M186.0684 25.1307L305.0847 90.6731" fill="none" stroke="#aaa" stroke-opacity="0.5"></path><path d="M190.2324 143.6683L305.0847 90.6731" fill="none" stroke="#aaa" stroke-opacity="0.5"></path><path d="M186.0684 25.1307L190.2324 143.6683" fill="none" stroke="#aaa" stroke-opacity="0.5"></path><path d="M186.0684 25.1307L254.4806 218.4218" fill="none" stroke="#aaa" stroke-opacity="0.5"></path><path d="M124.0672 69.4198L258.6332 35.9005" fill="none" stroke="#aaa" stroke-opacity="0.5"></path><path d="M186.0684 25.1307L258.6332 35.9005" fill="none" stroke="#aaa" stroke-opacity="0.5"></path><path d="M258.6332 35.9005L305.0847 90.6731" fill="none" stroke="#aaa" stroke-opacity="0.5"></path><path d="M190.2324 143.6683L258.6332 35.9005" fill="none" stroke="#aaa" stroke-opacity="0.5"></path><path d="M169.7478 226.4811L305.0847 90.6731" fill="none" stroke="#aaa" stroke-opacity="0.5"></path><path d="M169.7478 226.4811L254.4806 218.4218" fill="none" stroke="#aaa" stroke-opacity="0.5"></path><path d="M104.6118 152.2359L305.0847 90.6731" fill="none" stroke="#aaa" stroke-opacity="0.5"></path><path d="M124.0672 69.4198L307.2067 163.0687" fill="none" stroke="#aaa" stroke-opacity="0.5"></path><path d="M169.7478 226.4811L258.6332 35.9005" fill="none" stroke="#aaa" stroke-opacity="0.5"></path><path d="M254.4806 218.4218L305.0847 90.6731" fill="none" stroke="#aaa" stroke-opacity="0.5"></path><path d="M104.6118 152.2359L190.2324 143.6683" fill="none" stroke="#aaa" stroke-opacity="0.5"></path><path d="M1 0A1 1 0 1 1 1 -0.0001" fill="#5470c6" transform="matrix(19,0,0,19,307.2067,163.0687)"></path><path d="M1 0A1 1 0 1 1 1 -0.0001" fill="#5470c6" transform="matrix(19,0,0,19,254.4806,218.4218)"></path><path d="M1 0A1 1 0 1 1 1 -0.0001" fill="#5470c6" transform="matrix(19,0,0,19,169.7478,226.4811)"></path><path d="M1 0A1 1 0 1 1 1 -0.0001" fill="#5470c6" transform="matrix(19,0,0,19,190.2324,143.6683)"></path><path d="M1 0A1 1 0 1 1 1 -0.0001" fill="#5470c6" transform="matrix(19,0,0,19,104.6118,152.2359)"></path><path d="M1 0A1 1 0 1 1 1 -0.0001" fill="#5470c6" transform="matrix(19,0,0,19,124.0672,69.4198)"></path><path d="M1 0A1 1 0 1 1 1 -0.0001" fill="#5470c6" transform="matrix(19,0,0,19,186.0684,25.1307)"></path><path d="M1 0A1 1 0 1 1 1 -0.0001" fill="#5470c6" transform="matrix(19,0,0,19,258.6332,35.9005)"></path><path d="M1 0A1 1 0 1 1 1 -0.0001" fill="#5470c6" transform="matrix(19,0,0,19,305.0847,90.6731)"></path><path d="M-32.4922 -5l64.9844 0l0 33l-64.9844 0Z" fill="rgb(0,0,0)" fill-opacity="0" stroke="#ccc" stroke-width="0" transform="translate(237.5 5)"></path><text dominant-baseline="central" fill="#333" style="font-size:23px;font-family:sans-serif;font-weight:bolder;" text-anchor="middle" transform="translate(237.5 5)" y="11.5">C156</text></g></svg>