<svg baseprofile="full" height="250" style="position:absolute;left:0;top:0;user-select:none" version="1.1" width="475" xmlns="http://www.w3.org/2000/svg" xmlns:xlink="http://www.w3.org/1999/xlink"><rect fill="none" height="250" id="0" width="475" x="0" y="0"></rect><g><path d="M195.4481 21.5887L247.5727 193.6673" fill="none" stroke="#aaa" stroke-opacity="0.5"></path><path d="M261.5707 43.4903L141.977 63.8807" fill="none" stroke="#aaa" stroke-opacity="0.5"></path><path d="M310.3548 169.0824L106.5993 122.5106" fill="none" stroke="#aaa" stroke-opacity="0.5"></path><path d="M193.1555 233.1227L106.5993 122.5106" fill="none" stroke="#aaa" stroke-opacity="0.5"></path><path d="M193.1555 233.1227L195.4481 21.5887" fill="none" stroke="#aaa" stroke-opacity="0.5"></path><path d="M261.5707 43.4903L247.5727 193.6673" fill="none" stroke="#aaa" stroke-opacity="0.5"></path><path d="M195.4481 21.5887L106.5993 122.5106" fill="none" stroke="#aaa" stroke-opacity="0.5"></path><path d="M138.8374 183.2853L247.5727 193.6673" fill="none" stroke="#aaa" stroke-opacity="0.5"></path><path d="M141.977 63.8807L310.3548 169.0824" fill="none" stroke="#aaa" stroke-opacity="0.5"></path><path d="M193.1555 233.1227L304.6175 94.372" fill="none" stroke="#aaa" stroke-opacity="0.5"></path><path d="M195.4481 21.5887L310.3548 169.0824" fill="none" stroke="#aaa" stroke-opacity="0.5"></path><path d="M261.5707 43.4903L106.5993 122.5106" fill="none" stroke="#aaa" stroke-opacity="0.5"></path><path d="M138.8374 183.2853L106.5993 122.5106" fill="none" stroke="#aaa" stroke-opacity="0.5"></path><path d="M138.8374 183.2853L195.4481 21.5887" fill="none" stroke="#aaa" stroke-opacity="0.5"></path><path d="M261.5707 43.4903L310.3548 169.0824" fill="none" stroke="#aaa" stroke-opacity="0.5"></path><path d="M141.977 63.8807L193.1555 233.1227" fill="none" stroke="#aaa" stroke-opacity="0.5"></path><path d="M138.8374 183.2853L310.3548 169.0824" fill="none" stroke="#aaa" stroke-opacity="0.5"></path><path d="M193.1555 233.1227L247.5727 193.6673" fill="none" stroke="#aaa" stroke-opacity="0.5"></path><path d="M141.977 63.8807L106.5993 122.5106" fill="none" stroke="#aaa" stroke-opacity="0.5"></path><path d="M141.977 63.8807L195.4481 21.5887" fill="none" stroke="#aaa" stroke-opacity="0.5"></path><path d="M138.8374 183.2853L261.5707 43.4903" fill="none" stroke="#aaa" stroke-opacity="0.5"></path><path d="M138.8374 183.2853L141.977 63.8807" fill="none" stroke="#aaa" stroke-opacity="0.5"></path><path d="M261.5707 43.4903L193.1555 233.1227" fill="none" stroke="#aaa" stroke-opacity="0.5"></path><path d="M304.6175 94.372L247.5727 193.6673" fill="none" stroke="#aaa" stroke-opacity="0.5"></path><path d="M138.8374 183.2853L193.1555 233.1227" fill="none" stroke="#aaa" stroke-opacity="0.5"></path><path d="M247.5727 193.6673L106.5993 122.5106" fill="none" stroke="#aaa" stroke-opacity="0.5"></path><path d="M141.977 63.8807L304.6175 94.372" fill="none" stroke="#aaa" stroke-opacity="0.5"></path><path d="M193.1555 233.1227L310.3548 169.0824" fill="none" stroke="#aaa" stroke-opacity="0.5"></path><path d="M261.5707 43.4903L195.4481 21.5887" fill="none" stroke="#aaa" stroke-opacity="0.5"></path><path d="M247.5727 193.6673L310.3548 169.0824" fill="none" stroke="#aaa" stroke-opacity="0.5"></path><path d="M304.6175 94.372L106.5993 122.5106" fill="none" stroke="#aaa" stroke-opacity="0.5"></path><path d="M304.6175 94.372L195.4481 21.5887" fill="none" stroke="#aaa" stroke-opacity="0.5"></path><path d="M261.5707 43.4903L304.6175 94.372" fill="none" stroke="#aaa" stroke-opacity="0.5"></path><path d="M304.6175 94.372L310.3548 169.0824" fill="none" stroke="#aaa" stroke-opacity="0.5"></path><path d="M138.8374 183.2853L304.6175 94.372" fill="none" stroke="#aaa" stroke-opacity="0.5"></path><path d="M141.977 63.8807L247.5727 193.6673" fill="none" stroke="#aaa" stroke-opacity="0.5"></path><path d="M1 0A1 1 0 1 1 1 -0.0001" fill="#5470c6" transform="matrix(19,0,0,19,310.3548,169.0824)"></path><path d="M1 0A1 1 0 1 1 1 -0.0001" fill="#5470c6" transform="matrix(19,0,0,19,247.5727,193.6673)"></path><path d="M1 0A1 1 0 1 1 1 -0.0001" fill="#5470c6" transform="matrix(19,0,0,19,193.1555,233.1227)"></path><path d="M1 0A1 1 0 1 1 1 -0.0001" fill="#5470c6" transform="matrix(19,0,0,19,138.8374,183.2853)"></path><path d="M1 0A1 1 0 1 1 1 -0.0001" fill="#5470c6" transform="matrix(19,0,0,19,106.5993,122.5106)"></path><path d="M1 0A1 1 0 1 1 1 -0.0001" fill="#5470c6" transform="matrix(19,0,0,19,141.977,63.8807)"></path><path d="M1 0A1 1 0 1 1 1 -0.0001" fill="#5470c6" transform="matrix(19,0,0,19,195.4481,21.5887)"></path><path d="M1 0A1 1 0 1 1 1 -0.0001" fill="#5470c6" transform="matrix(19,0,0,19,261.5707,43.4903)"></path><path d="M1 0A1 1 0 1 1 1 -0.0001" fill="#5470c6" transform="matrix(19,0,0,19,304.6175,94.372)"></path><path d="M-32.4922 -5l64.9844 0l0 33l-64.9844 0Z" fill="rgb(0,0,0)" fill-opacity="0" stroke="#ccc" stroke-width="0" transform="translate(237.5 5)"></path><text dominant-baseline="central" fill="#333" style="font-size:23px;font-family:sans-serif;font-weight:bolder;" text-anchor="middle" transform="translate(237.5 5)" y="11.5">C157</text></g></svg>