<svg baseprofile="full" height="250" style="position:absolute;left:0;top:0;user-select:none" version="1.1" width="475" xmlns="http://www.w3.org/2000/svg" xmlns:xlink="http://www.w3.org/1999/xlink"><rect fill="none" height="250" id="0" width="475" x="0" y="0"></rect><g><path d="M248.2597 216.5812L171.7823 220.5591" fill="none" stroke="#aaa" stroke-opacity="0.5"></path><path d="M117.0578 85.3371L172.6168 32.3717" fill="none" stroke="#aaa" stroke-opacity="0.5"></path><path d="M248.2597 216.5812L118.8196 163.0916" fill="none" stroke="#aaa" stroke-opacity="0.5"></path><path d="M248.2597 216.5812L250.8593 30.206" fill="none" stroke="#aaa" stroke-opacity="0.5"></path><path d="M303.4887 87.0938L171.7823 220.5591" fill="none" stroke="#aaa" stroke-opacity="0.5"></path><path d="M250.8593 30.206L171.7823 220.5591" fill="none" stroke="#aaa" stroke-opacity="0.5"></path><path d="M248.2597 216.5812L303.4887 87.0938" fill="none" stroke="#aaa" stroke-opacity="0.5"></path><path d="M172.6168 32.3717L171.7823 220.5591" fill="none" stroke="#aaa" stroke-opacity="0.5"></path><path d="M248.2597 216.5812L117.0578 85.3371" fill="none" stroke="#aaa" stroke-opacity="0.5"></path><path d="M306.1228 164.7596L171.7823 220.5591" fill="none" stroke="#aaa" stroke-opacity="0.5"></path><path d="M306.1228 164.7596L118.8196 163.0916" fill="none" stroke="#aaa" stroke-opacity="0.5"></path><path d="M303.4887 87.0938L117.0578 85.3371" fill="none" stroke="#aaa" stroke-opacity="0.5"></path><path d="M306.1228 164.7596L250.8593 30.206" fill="none" stroke="#aaa" stroke-opacity="0.5"></path><path d="M250.8593 30.206L303.4887 87.0938" fill="none" stroke="#aaa" stroke-opacity="0.5"></path><path d="M250.8593 30.206L117.0578 85.3371" fill="none" stroke="#aaa" stroke-opacity="0.5"></path><path d="M306.1228 164.7596L303.4887 87.0938" fill="none" stroke="#aaa" stroke-opacity="0.5"></path><path d="M306.1228 164.7596L117.0578 85.3371" fill="none" stroke="#aaa" stroke-opacity="0.5"></path><path d="M118.8196 163.0916L303.4887 87.0938" fill="none" stroke="#aaa" stroke-opacity="0.5"></path><path d="M306.1228 164.7596L172.6168 32.3717" fill="none" stroke="#aaa" stroke-opacity="0.5"></path><path d="M118.8196 163.0916L172.6168 32.3717" fill="none" stroke="#aaa" stroke-opacity="0.5"></path><path d="M117.0578 85.3371L171.7823 220.5591" fill="none" stroke="#aaa" stroke-opacity="0.5"></path><path d="M250.8593 30.206L118.8196 163.0916" fill="none" stroke="#aaa" stroke-opacity="0.5"></path><path d="M118.8196 163.0916L171.7823 220.5591" fill="none" stroke="#aaa" stroke-opacity="0.5"></path><path d="M248.2597 216.5812L172.6168 32.3717" fill="none" stroke="#aaa" stroke-opacity="0.5"></path><path d="M248.2597 216.5812L306.1228 164.7596" fill="none" stroke="#aaa" stroke-opacity="0.5"></path><path d="M303.4887 87.0938L172.6168 32.3717" fill="none" stroke="#aaa" stroke-opacity="0.5"></path><path d="M118.8196 163.0916L117.0578 85.3371" fill="none" stroke="#aaa" stroke-opacity="0.5"></path><path d="M250.8593 30.206L172.6168 32.3717" fill="none" stroke="#aaa" stroke-opacity="0.5"></path><path d="M1 0A1 1 0 1 1 1 -0.0001" fill="#5470c6" transform="matrix(19,0,0,19,306.1228,164.7596)"></path><path d="M1 0A1 1 0 1 1 1 -0.0001" fill="#5470c6" transform="matrix(19,0,0,19,248.2597,216.5812)"></path><path d="M1 0A1 1 0 1 1 1 -0.0001" fill="#5470c6" transform="matrix(19,0,0,19,171.7823,220.5591)"></path><path d="M1 0A1 1 0 1 1 1 -0.0001" fill="#5470c6" transform="matrix(19,0,0,19,118.8196,163.0916)"></path><path d="M1 0A1 1 0 1 1 1 -0.0001" fill="#5470c6" transform="matrix(19,0,0,19,117.0578,85.3371)"></path><path d="M1 0A1 1 0 1 1 1 -0.0001" fill="#5470c6" transform="matrix(19,0,0,19,172.6168,32.3717)"></path><path d="M1 0A1 1 0 1 1 1 -0.0001" fill="#5470c6" transform="matrix(19,0,0,19,250.8593,30.206)"></path><path d="M1 0A1 1 0 1 1 1 -0.0001" fill="#5470c6" transform="matrix(19,0,0,19,303.4887,87.0938)"></path><path d="M-32.4922 -5l64.9844 0l0 33l-64.9844 0Z" fill="rgb(0,0,0)" fill-opacity="0" stroke="#ccc" stroke-width="0" transform="translate(237.5 5)"></path><text dominant-baseline="central" fill="#333" style="font-size:23px;font-family:sans-serif;font-weight:bolder;" text-anchor="middle" transform="translate(237.5 5)" y="11.5">C158</text></g></svg>