<svg baseprofile="full" height="250" style="position:absolute;left:0;top:0;user-select:none" version="1.1" width="475" xmlns="http://www.w3.org/2000/svg" xmlns:xlink="http://www.w3.org/1999/xlink"><rect fill="none" height="250" id="0" width="475" x="0" y="0"></rect><g><path d="M247.3404 217.5999L169.87 219.4415" fill="none" stroke="#aaa" stroke-opacity="0.5"></path><path d="M120.2357 161.0982L247.3404 217.5999" fill="none" stroke="#aaa" stroke-opacity="0.5"></path><path d="M120.2357 161.0982L169.87 219.4415" fill="none" stroke="#aaa" stroke-opacity="0.5"></path><path d="M174.322 32.419L304.4605 88.1646" fill="none" stroke="#aaa" stroke-opacity="0.5"></path><path d="M120.2357 161.0982L116.0401 84.3744" fill="none" stroke="#aaa" stroke-opacity="0.5"></path><path d="M120.2357 161.0982L174.322 32.419" fill="none" stroke="#aaa" stroke-opacity="0.5"></path><path d="M120.2357 161.0982L251.9154 31.3167" fill="none" stroke="#aaa" stroke-opacity="0.5"></path><path d="M304.4605 88.1646L169.87 219.4415" fill="none" stroke="#aaa" stroke-opacity="0.5"></path><path d="M174.322 32.419L169.87 219.4415" fill="none" stroke="#aaa" stroke-opacity="0.5"></path><path d="M304.8229 165.5856L116.0401 84.3744" fill="none" stroke="#aaa" stroke-opacity="0.5"></path><path d="M251.9154 31.3167L304.8229 165.5856" fill="none" stroke="#aaa" stroke-opacity="0.5"></path><path d="M169.87 219.4415L116.0401 84.3744" fill="none" stroke="#aaa" stroke-opacity="0.5"></path><path d="M304.8229 165.5856L304.4605 88.1646" fill="none" stroke="#aaa" stroke-opacity="0.5"></path><path d="M247.3404 217.5999L304.8229 165.5856" fill="none" stroke="#aaa" stroke-opacity="0.5"></path><path d="M120.2357 161.0982L304.8229 165.5856" fill="none" stroke="#aaa" stroke-opacity="0.5"></path><path d="M247.3404 217.5999L116.0401 84.3744" fill="none" stroke="#aaa" stroke-opacity="0.5"></path><path d="M247.3404 217.5999L174.322 32.419" fill="none" stroke="#aaa" stroke-opacity="0.5"></path><path d="M251.9154 31.3167L304.4605 88.1646" fill="none" stroke="#aaa" stroke-opacity="0.5"></path><path d="M304.8229 165.5856L169.87 219.4415" fill="none" stroke="#aaa" stroke-opacity="0.5"></path><path d="M174.322 32.419L304.8229 165.5856" fill="none" stroke="#aaa" stroke-opacity="0.5"></path><path d="M251.9154 31.3167L247.3404 217.5999" fill="none" stroke="#aaa" stroke-opacity="0.5"></path><path d="M251.9154 31.3167L169.87 219.4415" fill="none" stroke="#aaa" stroke-opacity="0.5"></path><path d="M304.4605 88.1646L116.0401 84.3744" fill="none" stroke="#aaa" stroke-opacity="0.5"></path><path d="M174.322 32.419L116.0401 84.3744" fill="none" stroke="#aaa" stroke-opacity="0.5"></path><path d="M247.3404 217.5999L304.4605 88.1646" fill="none" stroke="#aaa" stroke-opacity="0.5"></path><path d="M120.2357 161.0982L304.4605 88.1646" fill="none" stroke="#aaa" stroke-opacity="0.5"></path><path d="M251.9154 31.3167L116.0401 84.3744" fill="none" stroke="#aaa" stroke-opacity="0.5"></path><path d="M251.9154 31.3167L174.322 32.419" fill="none" stroke="#aaa" stroke-opacity="0.5"></path><path d="M1 0A1 1 0 1 1 1 -0.0001" fill="#5470c6" transform="matrix(19,0,0,19,304.8229,165.5856)"></path><path d="M1 0A1 1 0 1 1 1 -0.0001" fill="#5470c6" transform="matrix(19,0,0,19,247.3404,217.5999)"></path><path d="M1 0A1 1 0 1 1 1 -0.0001" fill="#5470c6" transform="matrix(19,0,0,19,169.87,219.4415)"></path><path d="M1 0A1 1 0 1 1 1 -0.0001" fill="#5470c6" transform="matrix(19,0,0,19,120.2357,161.0982)"></path><path d="M1 0A1 1 0 1 1 1 -0.0001" fill="#5470c6" transform="matrix(19,0,0,19,116.0401,84.3744)"></path><path d="M1 0A1 1 0 1 1 1 -0.0001" fill="#5470c6" transform="matrix(19,0,0,19,174.322,32.419)"></path><path d="M1 0A1 1 0 1 1 1 -0.0001" fill="#5470c6" transform="matrix(19,0,0,19,251.9154,31.3167)"></path><path d="M1 0A1 1 0 1 1 1 -0.0001" fill="#5470c6" transform="matrix(19,0,0,19,304.4605,88.1646)"></path><path d="M-32.4922 -5l64.9844 0l0 33l-64.9844 0Z" fill="rgb(0,0,0)" fill-opacity="0" stroke="#ccc" stroke-width="0" transform="translate(237.5 5)"></path><text dominant-baseline="central" fill="#333" style="font-size:23px;font-family:sans-serif;font-weight:bolder;" text-anchor="middle" transform="translate(237.5 5)" y="11.5">C159</text></g></svg>