<svg baseprofile="full" height="250" style="position:absolute;left:0;top:0;user-select:none" version="1.1" width="475" xmlns="http://www.w3.org/2000/svg" xmlns:xlink="http://www.w3.org/1999/xlink"><rect fill="none" height="250" id="0" width="475" x="0" y="0"></rect><g><path d="M153.1581 145.5875L115.4904 154.564" fill="none" stroke="#aaa" stroke-opacity="0.5" stroke-width="0.5"></path><path d="M215.158 153.3883L209.6565 222.4811" fill="none" stroke="#aaa" stroke-opacity="0.5" stroke-width="0.5"></path><path d="M125.9968 73.1691L248.4965 179.3651" fill="none" stroke="#aaa" stroke-opacity="0.5" stroke-width="0.5"></path><path d="M153.747 47.3812L185.8949 29.016" fill="none" stroke="#aaa" stroke-opacity="0.5" stroke-width="0.5"></path><path d="M137.5644 189.1748L168.5435 214.5449" fill="none" stroke="#aaa" stroke-opacity="0.5" stroke-width="0.5"></path><path d="M245.9408 217.69L248.4965 179.3651" fill="none" stroke="#aaa" stroke-opacity="0.5" stroke-width="0.5"></path><path d="M283.2936 194.6306L224.5376 28.7686" fill="none" stroke="#aaa" stroke-opacity="0.5" stroke-width="0.5"></path><path d="M125.9968 73.1691L245.6769 88.3651" fill="none" stroke="#aaa" stroke-opacity="0.5" stroke-width="0.5"></path><path d="M256.4833 42.2064L215.158 153.3883" fill="none" stroke="#aaa" stroke-opacity="0.5" stroke-width="0.5"></path><path d="M224.5376 28.7686L112.7631 113.4273" fill="none" stroke="#aaa" stroke-opacity="0.5" stroke-width="0.5"></path><path d="M224.5376 28.7686L168.5435 214.5449" fill="none" stroke="#aaa" stroke-opacity="0.5" stroke-width="0.5"></path><path d="M245.9408 217.69L245.6769 88.3651" fill="none" stroke="#aaa" stroke-opacity="0.5" stroke-width="0.5"></path><path d="M299.3161 160.9694L256.4833 42.2064" fill="none" stroke="#aaa" stroke-opacity="0.5" stroke-width="0.5"></path><path d="M309.5033 125.978L153.747 47.3812" fill="none" stroke="#aaa" stroke-opacity="0.5" stroke-width="0.5"></path><path d="M283.2936 194.6306L209.6565 222.4811" fill="none" stroke="#aaa" stroke-opacity="0.5" stroke-width="0.5"></path><path d="M198.1216 112.3048L284.827 60.2568" fill="none" stroke="#aaa" stroke-opacity="0.5" stroke-width="0.5"></path><path d="M154.0824 99.3805L284.827 60.2568" fill="none" stroke="#aaa" stroke-opacity="0.5" stroke-width="0.5"></path><path d="M245.9408 217.69L125.9968 73.1691" fill="none" stroke="#aaa" stroke-opacity="0.5" stroke-width="0.5"></path><path d="M299.1324 92.0442L185.8949 29.016" fill="none" stroke="#aaa" stroke-opacity="0.5" stroke-width="0.5"></path><path d="M198.1216 112.3048L209.6565 222.4811" fill="none" stroke="#aaa" stroke-opacity="0.5" stroke-width="0.5"></path><path d="M256.4833 42.2064L284.827 60.2568" fill="none" stroke="#aaa" stroke-opacity="0.5" stroke-width="0.5"></path><path d="M154.0824 99.3805L209.6565 222.4811" fill="none" stroke="#aaa" stroke-opacity="0.5" stroke-width="0.5"></path><path d="M168.5435 214.5449L112.7631 113.4273" fill="none" stroke="#aaa" stroke-opacity="0.5" stroke-width="0.5"></path><path d="M215.158 153.3883L115.4904 154.564" fill="none" stroke="#aaa" stroke-opacity="0.5" stroke-width="0.5"></path><path d="M283.2936 194.6306L154.0824 99.3805" fill="none" stroke="#aaa" stroke-opacity="0.5" stroke-width="0.5"></path><path d="M265.1367 130.2077L224.5376 28.7686" fill="none" stroke="#aaa" stroke-opacity="0.5" stroke-width="0.5"></path><path d="M153.747 47.3812L224.5376 28.7686" fill="none" stroke="#aaa" stroke-opacity="0.5" stroke-width="0.5"></path><path d="M137.5644 189.1748L215.158 153.3883" fill="none" stroke="#aaa" stroke-opacity="0.5" stroke-width="0.5"></path><path d="M283.2936 194.6306L137.5644 189.1748" fill="none" stroke="#aaa" stroke-opacity="0.5" stroke-width="0.5"></path><path d="M198.1216 112.3048L154.0824 99.3805" fill="none" stroke="#aaa" stroke-opacity="0.5" stroke-width="0.5"></path><path d="M186.1301 183.2987L248.4965 179.3651" fill="none" stroke="#aaa" stroke-opacity="0.5" stroke-width="0.5"></path><path d="M299.3161 160.9694L265.1367 130.2077" fill="none" stroke="#aaa" stroke-opacity="0.5" stroke-width="0.5"></path><path d="M125.9968 73.1691L112.7631 113.4273" fill="none" stroke="#aaa" stroke-opacity="0.5" stroke-width="0.5"></path><path d="M125.9968 73.1691L168.5435 214.5449" fill="none" stroke="#aaa" stroke-opacity="0.5" stroke-width="0.5"></path><path d="M265.1367 130.2077L209.6565 222.4811" fill="none" stroke="#aaa" stroke-opacity="0.5" stroke-width="0.5"></path><path d="M224.5376 29.5L185.8949 29.5" fill="none" stroke="#aaa" stroke-opacity="0.5" stroke-width="0.5"></path><path d="M153.747 47.3812L209.6565 222.4811" fill="none" stroke="#aaa" stroke-opacity="0.5" stroke-width="0.5"></path><path d="M283.2936 194.6306L299.1324 92.0442" fill="none" stroke="#aaa" stroke-opacity="0.5" stroke-width="0.5"></path><path d="M245.9408 217.69L168.5435 214.5449" fill="none" stroke="#aaa" stroke-opacity="0.5" stroke-width="0.5"></path><path d="M256.4833 42.2064L154.0824 99.3805" fill="none" stroke="#aaa" stroke-opacity="0.5" stroke-width="0.5"></path><path d="M137.5644 189.1748L284.827 60.2568" fill="none" stroke="#aaa" stroke-opacity="0.5" stroke-width="0.5"></path><path d="M186.1301 183.2987L245.6769 88.3651" fill="none" stroke="#aaa" stroke-opacity="0.5" stroke-width="0.5"></path><path d="M215.158 153.3883L186.1301 183.2987" fill="none" stroke="#aaa" stroke-opacity="0.5" stroke-width="0.5"></path><path d="M198.1216 112.3048L299.1324 92.0442" fill="none" stroke="#aaa" stroke-opacity="0.5" stroke-width="0.5"></path><path d="M154.0824 99.3805L299.1324 92.0442" fill="none" stroke="#aaa" stroke-opacity="0.5" stroke-width="0.5"></path><path d="M309.5033 125.978L256.4833 42.2064" fill="none" stroke="#aaa" stroke-opacity="0.5" stroke-width="0.5"></path><path d="M125.9968 73.1691L153.1581 145.5875" fill="none" stroke="#aaa" stroke-opacity="0.5" stroke-width="0.5"></path><path d="M224.5376 28.7686L284.827 60.2568" fill="none" stroke="#aaa" stroke-opacity="0.5" stroke-width="0.5"></path><path d="M256.4833 42.2064L299.1324 92.0442" fill="none" stroke="#aaa" stroke-opacity="0.5" stroke-width="0.5"></path><path d="M248.4965 179.3651L112.7631 113.4273" fill="none" stroke="#aaa" stroke-opacity="0.5" stroke-width="0.5"></path><path d="M265.1367 130.2077L154.0824 99.3805" fill="none" stroke="#aaa" stroke-opacity="0.5" stroke-width="0.5"></path><path d="M299.1324 92.0442L209.6565 222.4811" fill="none" stroke="#aaa" stroke-opacity="0.5" stroke-width="0.5"></path><path d="M265.1367 130.2077L137.5644 189.1748" fill="none" stroke="#aaa" stroke-opacity="0.5" stroke-width="0.5"></path><path d="M299.3161 160.9694L112.7631 113.4273" fill="none" stroke="#aaa" stroke-opacity="0.5" stroke-width="0.5"></path><path d="M299.3161 160.9694L168.5435 214.5449" fill="none" stroke="#aaa" stroke-opacity="0.5" stroke-width="0.5"></path><path d="M283.2936 194.6306L186.1301 183.2987" fill="none" stroke="#aaa" stroke-opacity="0.5" stroke-width="0.5"></path><path d="M256.4833 42.2064L153.747 47.3812" fill="none" stroke="#aaa" stroke-opacity="0.5" stroke-width="0.5"></path><path d="M137.5644 189.1748L154.0824 99.3805" fill="none" stroke="#aaa" stroke-opacity="0.5" stroke-width="0.5"></path><path d="M153.1581 145.5875L245.6769 88.3651" fill="none" stroke="#aaa" stroke-opacity="0.5" stroke-width="0.5"></path><path d="M198.1216 112.3048L186.1301 183.2987" fill="none" stroke="#aaa" stroke-opacity="0.5" stroke-width="0.5"></path><path d="M125.9968 73.1691L185.8949 29.016" fill="none" stroke="#aaa" stroke-opacity="0.5" stroke-width="0.5"></path><path d="M265.1367 130.2077L299.1324 92.0442" fill="none" stroke="#aaa" stroke-opacity="0.5" stroke-width="0.5"></path><path d="M153.747 47.3812L115.4904 154.564" fill="none" stroke="#aaa" stroke-opacity="0.5" stroke-width="0.5"></path><path d="M125.9968 73.1691L215.158 153.3883" fill="none" stroke="#aaa" stroke-opacity="0.5" stroke-width="0.5"></path><path d="M245.9408 217.69L215.158 153.3883" fill="none" stroke="#aaa" stroke-opacity="0.5" stroke-width="0.5"></path><path d="M299.3161 160.9694L153.1581 145.5875" fill="none" stroke="#aaa" stroke-opacity="0.5" stroke-width="0.5"></path><path d="M199.4959 66.7999L209.6565 222.4811" fill="none" stroke="#aaa" stroke-opacity="0.5" stroke-width="0.5"></path><path d="M137.5644 189.1748L299.1324 92.0442" fill="none" stroke="#aaa" stroke-opacity="0.5" stroke-width="0.5"></path><path d="M309.5033 125.978L265.1367 130.2077" fill="none" stroke="#aaa" stroke-opacity="0.5" stroke-width="0.5"></path><path d="M299.3161 160.9694L199.4959 66.7999" fill="none" stroke="#aaa" stroke-opacity="0.5" stroke-width="0.5"></path><path d="M125.9968 73.1691L284.827 60.2568" fill="none" stroke="#aaa" stroke-opacity="0.5" stroke-width="0.5"></path><path d="M283.2936 194.6306L198.1216 112.3048" fill="none" stroke="#aaa" stroke-opacity="0.5" stroke-width="0.5"></path><path d="M248.4965 179.3651L185.8949 29.016" fill="none" stroke="#aaa" stroke-opacity="0.5" stroke-width="0.5"></path><path d="M245.9408 217.69L284.827 60.2568" fill="none" stroke="#aaa" stroke-opacity="0.5" stroke-width="0.5"></path><path d="M265.1367 130.2077L186.1301 183.2987" fill="none" stroke="#aaa" stroke-opacity="0.5" stroke-width="0.5"></path><path d="M153.747 47.3812L186.1301 183.2987" fill="none" stroke="#aaa" stroke-opacity="0.5" stroke-width="0.5"></path><path d="M299.1324 92.0442L115.4904 154.564" fill="none" stroke="#aaa" stroke-opacity="0.5" stroke-width="0.5"></path><path d="M137.5644 189.1748L153.747 47.3812" fill="none" stroke="#aaa" stroke-opacity="0.5" stroke-width="0.5"></path><path d="M215.158 153.3883L248.4965 179.3651" fill="none" stroke="#aaa" stroke-opacity="0.5" stroke-width="0.5"></path><path d="M299.3161 160.9694L185.8949 29.016" fill="none" stroke="#aaa" stroke-opacity="0.5" stroke-width="0.5"></path><path d="M245.9408 217.69L209.6565 222.4811" fill="none" stroke="#aaa" stroke-opacity="0.5" stroke-width="0.5"></path><path d="M168.5435 214.5449L209.6565 222.4811" fill="none" stroke="#aaa" stroke-opacity="0.5" stroke-width="0.5"></path><path d="M215.158 153.3883L245.6769 88.3651" fill="none" stroke="#aaa" stroke-opacity="0.5" stroke-width="0.5"></path><path d="M299.3161 160.9694L245.9408 217.69" fill="none" stroke="#aaa" stroke-opacity="0.5" stroke-width="0.5"></path><path d="M153.1581 145.5875L199.4959 66.7999" fill="none" stroke="#aaa" stroke-opacity="0.5" stroke-width="0.5"></path><path d="M248.4965 179.3651L284.827 60.2568" fill="none" stroke="#aaa" stroke-opacity="0.5" stroke-width="0.5"></path><path d="M309.5033 125.978L112.7631 113.4273" fill="none" stroke="#aaa" stroke-opacity="0.5" stroke-width="0.5"></path><path d="M283.2936 194.6306L248.4965 179.3651" fill="none" stroke="#aaa" stroke-opacity="0.5" stroke-width="0.5"></path><path d="M125.9968 73.1691L154.0824 99.3805" fill="none" stroke="#aaa" stroke-opacity="0.5" stroke-width="0.5"></path><path d="M199.4959 66.7999L299.1324 92.0442" fill="none" stroke="#aaa" stroke-opacity="0.5" stroke-width="0.5"></path><path d="M199.4959 66.7999L115.4904 154.564" fill="none" stroke="#aaa" stroke-opacity="0.5" stroke-width="0.5"></path><path d="M245.9408 217.69L154.0824 99.3805" fill="none" stroke="#aaa" stroke-opacity="0.5" stroke-width="0.5"></path><path d="M198.1216 112.3048L248.4965 179.3651" fill="none" stroke="#aaa" stroke-opacity="0.5" stroke-width="0.5"></path><path d="M283.2936 194.6306L245.6769 88.3651" fill="none" stroke="#aaa" stroke-opacity="0.5" stroke-width="0.5"></path><path d="M265.1367 130.2077L198.1216 112.3048" fill="none" stroke="#aaa" stroke-opacity="0.5" stroke-width="0.5"></path><path d="M284.827 60.2568L115.4904 154.564" fill="none" stroke="#aaa" stroke-opacity="0.5" stroke-width="0.5"></path><path d="M112.7631 113.4273L185.8949 29.016" fill="none" stroke="#aaa" stroke-opacity="0.5" stroke-width="0.5"></path><path d="M283.2936 194.6306L125.9968 73.1691" fill="none" stroke="#aaa" stroke-opacity="0.5" stroke-width="0.5"></path><path d="M245.9408 217.69L299.1324 92.0442" fill="none" stroke="#aaa" stroke-opacity="0.5" stroke-width="0.5"></path><path d="M186.1301 183.2987L284.827 60.2568" fill="none" stroke="#aaa" stroke-opacity="0.5" stroke-width="0.5"></path><path d="M299.3161 160.9694L224.5376 28.7686" fill="none" stroke="#aaa" stroke-opacity="0.5" stroke-width="0.5"></path><path d="M309.5033 125.978L199.4959 66.7999" fill="none" stroke="#aaa" stroke-opacity="0.5" stroke-width="0.5"></path><path d="M199.4959 66.7999L186.1301 183.2987" fill="none" stroke="#aaa" stroke-opacity="0.5" stroke-width="0.5"></path><path d="M168.5435 214.5449L299.1324 92.0442" fill="none" stroke="#aaa" stroke-opacity="0.5" stroke-width="0.5"></path><path d="M168.5435 214.5449L115.4904 154.564" fill="none" stroke="#aaa" stroke-opacity="0.5" stroke-width="0.5"></path><path d="M125.9968 73.1691L153.747 47.3812" fill="none" stroke="#aaa" stroke-opacity="0.5" stroke-width="0.5"></path><path d="M215.158 153.3883L168.5435 214.5449" fill="none" stroke="#aaa" stroke-opacity="0.5" stroke-width="0.5"></path><path d="M265.1367 130.2077L248.4965 179.3651" fill="none" stroke="#aaa" stroke-opacity="0.5" stroke-width="0.5"></path><path d="M153.747 47.3812L248.4965 179.3651" fill="none" stroke="#aaa" stroke-opacity="0.5" stroke-width="0.5"></path><path d="M245.9408 217.69L153.747 47.3812" fill="none" stroke="#aaa" stroke-opacity="0.5" stroke-width="0.5"></path><path d="M256.4833 42.2064L265.1367 130.2077" fill="none" stroke="#aaa" stroke-opacity="0.5" stroke-width="0.5"></path><path d="M299.3161 160.9694L283.2936 194.6306" fill="none" stroke="#aaa" stroke-opacity="0.5" stroke-width="0.5"></path><path d="M153.747 47.3812L245.6769 88.3651" fill="none" stroke="#aaa" stroke-opacity="0.5" stroke-width="0.5"></path><path d="M153.1581 145.5875L224.5376 28.7686" fill="none" stroke="#aaa" stroke-opacity="0.5" stroke-width="0.5"></path><path d="M309.5033 125.978L245.9408 217.69" fill="none" stroke="#aaa" stroke-opacity="0.5" stroke-width="0.5"></path><path d="M283.2936 194.6306L112.7631 113.4273" fill="none" stroke="#aaa" stroke-opacity="0.5" stroke-width="0.5"></path><path d="M283.2936 194.6306L168.5435 214.5449" fill="none" stroke="#aaa" stroke-opacity="0.5" stroke-width="0.5"></path><path d="M168.5435 214.5449L186.1301 183.2987" fill="none" stroke="#aaa" stroke-opacity="0.5" stroke-width="0.5"></path><path d="M265.1367 130.2077L125.9968 73.1691" fill="none" stroke="#aaa" stroke-opacity="0.5" stroke-width="0.5"></path><path d="M185.8949 29.016L209.6565 222.4811" fill="none" stroke="#aaa" stroke-opacity="0.5" stroke-width="0.5"></path><path d="M153.1581 145.5875L209.6565 222.4811" fill="none" stroke="#aaa" stroke-opacity="0.5" stroke-width="0.5"></path><path d="M198.1216 112.3048L112.7631 113.4273" fill="none" stroke="#aaa" stroke-opacity="0.5" stroke-width="0.5"></path><path d="M299.1324 92.0442L248.4965 179.3651" fill="none" stroke="#aaa" stroke-opacity="0.5" stroke-width="0.5"></path><path d="M198.1216 112.3048L168.5435 214.5449" fill="none" stroke="#aaa" stroke-opacity="0.5" stroke-width="0.5"></path><path d="M299.3161 160.9694L137.5644 189.1748" fill="none" stroke="#aaa" stroke-opacity="0.5" stroke-width="0.5"></path><path d="M154.0824 99.3805L112.7631 113.4273" fill="none" stroke="#aaa" stroke-opacity="0.5" stroke-width="0.5"></path><path d="M154.0824 99.3805L168.5435 214.5449" fill="none" stroke="#aaa" stroke-opacity="0.5" stroke-width="0.5"></path><path d="M248.4965 179.3651L115.4904 154.564" fill="none" stroke="#aaa" stroke-opacity="0.5" stroke-width="0.5"></path><path d="M256.4833 42.2064L112.7631 113.4273" fill="none" stroke="#aaa" stroke-opacity="0.5" stroke-width="0.5"></path><path d="M245.6769 88.3651L115.4904 154.564" fill="none" stroke="#aaa" stroke-opacity="0.5" stroke-width="0.5"></path><path d="M299.1324 92.0442L245.6769 88.3651" fill="none" stroke="#aaa" stroke-opacity="0.5" stroke-width="0.5"></path><path d="M112.7631 113.4273L209.6565 222.4811" fill="none" stroke="#aaa" stroke-opacity="0.5" stroke-width="0.5"></path><path d="M283.2936 194.6306L153.1581 145.5875" fill="none" stroke="#aaa" stroke-opacity="0.5" stroke-width="0.5"></path><path d="M299.3161 160.9694L115.4904 154.564" fill="none" stroke="#aaa" stroke-opacity="0.5" stroke-width="0.5"></path><path d="M309.5033 125.978L224.5376 28.7686" fill="none" stroke="#aaa" stroke-opacity="0.5" stroke-width="0.5"></path><path d="M198.1216 112.3048L153.1581 145.5875" fill="none" stroke="#aaa" stroke-opacity="0.5" stroke-width="0.5"></path><path d="M153.1581 145.5875L154.0824 99.3805" fill="none" stroke="#aaa" stroke-opacity="0.5" stroke-width="0.5"></path><path d="M199.4959 66.7999L248.4965 179.3651" fill="none" stroke="#aaa" stroke-opacity="0.5" stroke-width="0.5"></path><path d="M265.1367 130.2077L112.7631 113.4273" fill="none" stroke="#aaa" stroke-opacity="0.5" stroke-width="0.5"></path><path d="M265.1367 130.2077L168.5435 214.5449" fill="none" stroke="#aaa" stroke-opacity="0.5" stroke-width="0.5"></path><path d="M153.747 47.3812L168.5435 214.5449" fill="none" stroke="#aaa" stroke-opacity="0.5" stroke-width="0.5"></path><path d="M256.4833 42.2064L153.1581 145.5875" fill="none" stroke="#aaa" stroke-opacity="0.5" stroke-width="0.5"></path><path d="M309.5033 125.978L209.6565 222.4811" fill="none" stroke="#aaa" stroke-opacity="0.5" stroke-width="0.5"></path><path d="M283.2936 194.6306L185.8949 29.016" fill="none" stroke="#aaa" stroke-opacity="0.5" stroke-width="0.5"></path><path d="M154.0824 99.3805L199.4959 66.7999" fill="none" stroke="#aaa" stroke-opacity="0.5" stroke-width="0.5"></path><path d="M215.158 153.3883L284.827 60.2568" fill="none" stroke="#aaa" stroke-opacity="0.5" stroke-width="0.5"></path><path d="M283.2936 194.6306L215.158 153.3883" fill="none" stroke="#aaa" stroke-opacity="0.5" stroke-width="0.5"></path><path d="M309.5033 125.978L283.2936 194.6306" fill="none" stroke="#aaa" stroke-opacity="0.5" stroke-width="0.5"></path><path d="M199.4959 66.7999L245.6769 88.3651" fill="none" stroke="#aaa" stroke-opacity="0.5" stroke-width="0.5"></path><path d="M185.8949 29.016L115.4904 154.564" fill="none" stroke="#aaa" stroke-opacity="0.5" stroke-width="0.5"></path><path d="M256.4833 42.2064L199.4959 66.7999" fill="none" stroke="#aaa" stroke-opacity="0.5" stroke-width="0.5"></path><path d="M153.1581 145.5875L299.1324 92.0442" fill="none" stroke="#aaa" stroke-opacity="0.5" stroke-width="0.5"></path><path d="M299.3161 160.9694L186.1301 183.2987" fill="none" stroke="#aaa" stroke-opacity="0.5" stroke-width="0.5"></path><path d="M198.1216 112.3048L185.8949 29.016" fill="none" stroke="#aaa" stroke-opacity="0.5" stroke-width="0.5"></path><path d="M137.5644 189.1748L112.7631 113.4273" fill="none" stroke="#aaa" stroke-opacity="0.5" stroke-width="0.5"></path><path d="M154.0824 99.3805L185.8949 29.016" fill="none" stroke="#aaa" stroke-opacity="0.5" stroke-width="0.5"></path><path d="M198.1216 112.3048L215.158 153.3883" fill="none" stroke="#aaa" stroke-opacity="0.5" stroke-width="0.5"></path><path d="M265.1367 130.2077L153.1581 145.5875" fill="none" stroke="#aaa" stroke-opacity="0.5" stroke-width="0.5"></path><path d="M153.747 47.3812L153.1581 145.5875" fill="none" stroke="#aaa" stroke-opacity="0.5" stroke-width="0.5"></path><path d="M256.4833 42.2064L185.8949 29.016" fill="none" stroke="#aaa" stroke-opacity="0.5" stroke-width="0.5"></path><path d="M112.7631 113.4273L115.4904 154.564" fill="none" stroke="#aaa" stroke-opacity="0.5" stroke-width="0.5"></path><path d="M168.5435 214.5449L248.4965 179.3651" fill="none" stroke="#aaa" stroke-opacity="0.5" stroke-width="0.5"></path><path d="M283.2936 194.6306L284.827 60.2568" fill="none" stroke="#aaa" stroke-opacity="0.5" stroke-width="0.5"></path><path d="M309.5033 125.978L137.5644 189.1748" fill="none" stroke="#aaa" stroke-opacity="0.5" stroke-width="0.5"></path><path d="M256.4833 42.2064L245.9408 217.69" fill="none" stroke="#aaa" stroke-opacity="0.5" stroke-width="0.5"></path><path d="M168.5435 214.5449L245.6769 88.3651" fill="none" stroke="#aaa" stroke-opacity="0.5" stroke-width="0.5"></path><path d="M137.5644 189.1748L153.1581 145.5875" fill="none" stroke="#aaa" stroke-opacity="0.5" stroke-width="0.5"></path><path d="M215.158 153.3883L154.0824 99.3805" fill="none" stroke="#aaa" stroke-opacity="0.5" stroke-width="0.5"></path><path d="M153.1581 145.5875L186.1301 183.2987" fill="none" stroke="#aaa" stroke-opacity="0.5" stroke-width="0.5"></path><path d="M245.9408 217.69L265.1367 130.2077" fill="none" stroke="#aaa" stroke-opacity="0.5" stroke-width="0.5"></path><path d="M265.1367 130.2077L185.8949 29.016" fill="none" stroke="#aaa" stroke-opacity="0.5" stroke-width="0.5"></path><path d="M137.5644 189.1748L199.4959 66.7999" fill="none" stroke="#aaa" stroke-opacity="0.5" stroke-width="0.5"></path><path d="M265.1367 130.2077L215.158 153.3883" fill="none" stroke="#aaa" stroke-opacity="0.5" stroke-width="0.5"></path><path d="M309.5033 125.978L299.1324 92.0442" fill="none" stroke="#aaa" stroke-opacity="0.5" stroke-width="0.5"></path><path d="M153.747 47.3812L215.158 153.3883" fill="none" stroke="#aaa" stroke-opacity="0.5" stroke-width="0.5"></path><path d="M309.5033 125.978L115.4904 154.564" fill="none" stroke="#aaa" stroke-opacity="0.5" stroke-width="0.5"></path><path d="M299.3161 160.9694L198.1216 112.3048" fill="none" stroke="#aaa" stroke-opacity="0.5" stroke-width="0.5"></path><path d="M199.4959 66.7999L112.7631 113.4273" fill="none" stroke="#aaa" stroke-opacity="0.5" stroke-width="0.5"></path><path d="M199.4959 66.7999L168.5435 214.5449" fill="none" stroke="#aaa" stroke-opacity="0.5" stroke-width="0.5"></path><path d="M215.158 153.3883L299.1324 92.0442" fill="none" stroke="#aaa" stroke-opacity="0.5" stroke-width="0.5"></path><path d="M137.5644 189.1748L185.8949 29.016" fill="none" stroke="#aaa" stroke-opacity="0.5" stroke-width="0.5"></path><path d="M224.5376 28.7686L199.4959 66.7999" fill="none" stroke="#aaa" stroke-opacity="0.5" stroke-width="0.5"></path><path d="M198.1216 112.3048L224.5376 28.7686" fill="none" stroke="#aaa" stroke-opacity="0.5" stroke-width="0.5"></path><path d="M265.1367 130.2077L284.827 60.2568" fill="none" stroke="#aaa" stroke-opacity="0.5" stroke-width="0.5"></path><path d="M153.747 47.3812L284.827 60.2568" fill="none" stroke="#aaa" stroke-opacity="0.5" stroke-width="0.5"></path><path d="M256.4833 42.2064L224.5376 28.7686" fill="none" stroke="#aaa" stroke-opacity="0.5" stroke-width="0.5"></path><path d="M309.5033 125.978L186.1301 183.2987" fill="none" stroke="#aaa" stroke-opacity="0.5" stroke-width="0.5"></path><path d="M299.3161 160.9694L248.4965 179.3651" fill="none" stroke="#aaa" stroke-opacity="0.5" stroke-width="0.5"></path><path d="M245.9408 217.69L112.7631 113.4273" fill="none" stroke="#aaa" stroke-opacity="0.5" stroke-width="0.5"></path><path d="M248.4965 179.3651L245.6769 88.3651" fill="none" stroke="#aaa" stroke-opacity="0.5" stroke-width="0.5"></path><path d="M256.4833 42.2064L209.6565 222.4811" fill="none" stroke="#aaa" stroke-opacity="0.5" stroke-width="0.5"></path><path d="M256.4833 42.2064L283.2936 194.6306" fill="none" stroke="#aaa" stroke-opacity="0.5" stroke-width="0.5"></path><path d="M299.3161 160.9694L245.6769 88.3651" fill="none" stroke="#aaa" stroke-opacity="0.5" stroke-width="0.5"></path><path d="M209.6565 222.4811L115.4904 154.564" fill="none" stroke="#aaa" stroke-opacity="0.5" stroke-width="0.5"></path><path d="M283.2936 194.6306L153.747 47.3812" fill="none" stroke="#aaa" stroke-opacity="0.5" stroke-width="0.5"></path><path d="M299.1324 92.0442L284.827 60.2568" fill="none" stroke="#aaa" stroke-opacity="0.5" stroke-width="0.5"></path><path d="M299.3161 160.9694L125.9968 73.1691" fill="none" stroke="#aaa" stroke-opacity="0.5" stroke-width="0.5"></path><path d="M153.747 47.3812L154.0824 99.3805" fill="none" stroke="#aaa" stroke-opacity="0.5" stroke-width="0.5"></path><path d="M199.4959 66.7999L185.8949 29.016" fill="none" stroke="#aaa" stroke-opacity="0.5" stroke-width="0.5"></path><path d="M245.9408 217.69L153.1581 145.5875" fill="none" stroke="#aaa" stroke-opacity="0.5" stroke-width="0.5"></path><path d="M198.1216 112.3048L137.5644 189.1748" fill="none" stroke="#aaa" stroke-opacity="0.5" stroke-width="0.5"></path><path d="M198.1216 112.3048L153.747 47.3812" fill="none" stroke="#aaa" stroke-opacity="0.5" stroke-width="0.5"></path><path d="M153.1581 145.5875L248.4965 179.3651" fill="none" stroke="#aaa" stroke-opacity="0.5" stroke-width="0.5"></path><path d="M125.9968 73.1691L199.4959 66.7999" fill="none" stroke="#aaa" stroke-opacity="0.5" stroke-width="0.5"></path><path d="M137.5644 189.1748L224.5376 28.7686" fill="none" stroke="#aaa" stroke-opacity="0.5" stroke-width="0.5"></path><path d="M283.2936 194.6306L115.4904 154.564" fill="none" stroke="#aaa" stroke-opacity="0.5" stroke-width="0.5"></path><path d="M245.9408 217.69L199.4959 66.7999" fill="none" stroke="#aaa" stroke-opacity="0.5" stroke-width="0.5"></path><path d="M185.8949 29.016L245.6769 88.3651" fill="none" stroke="#aaa" stroke-opacity="0.5" stroke-width="0.5"></path><path d="M309.5033 125.978L198.1216 112.3048" fill="none" stroke="#aaa" stroke-opacity="0.5" stroke-width="0.5"></path><path d="M256.4833 42.2064L137.5644 189.1748" fill="none" stroke="#aaa" stroke-opacity="0.5" stroke-width="0.5"></path><path d="M198.1216 112.3048L115.4904 154.564" fill="none" stroke="#aaa" stroke-opacity="0.5" stroke-width="0.5"></path><path d="M153.747 47.3812L299.1324 92.0442" fill="none" stroke="#aaa" stroke-opacity="0.5" stroke-width="0.5"></path><path d="M137.5644 189.1748L209.6565 222.4811" fill="none" stroke="#aaa" stroke-opacity="0.5" stroke-width="0.5"></path><path d="M154.0824 99.3805L115.4904 154.564" fill="none" stroke="#aaa" stroke-opacity="0.5" stroke-width="0.5"></path><path d="M245.9408 217.69L185.8949 29.016" fill="none" stroke="#aaa" stroke-opacity="0.5" stroke-width="0.5"></path><path d="M199.4959 66.7999L284.827 60.2568" fill="none" stroke="#aaa" stroke-opacity="0.5" stroke-width="0.5"></path><path d="M256.4833 42.2064L115.4904 154.564" fill="none" stroke="#aaa" stroke-opacity="0.5" stroke-width="0.5"></path><path d="M112.7631 113.4273L245.6769 88.3651" fill="none" stroke="#aaa" stroke-opacity="0.5" stroke-width="0.5"></path><path d="M186.1301 183.2987L112.7631 113.4273" fill="none" stroke="#aaa" stroke-opacity="0.5" stroke-width="0.5"></path><path d="M168.5435 214.5449L185.8949 29.016" fill="none" stroke="#aaa" stroke-opacity="0.5" stroke-width="0.5"></path><path d="M224.5376 28.7686L209.6565 222.4811" fill="none" stroke="#aaa" stroke-opacity="0.5" stroke-width="0.5"></path><path d="M265.1367 130.2077L153.747 47.3812" fill="none" stroke="#aaa" stroke-opacity="0.5" stroke-width="0.5"></path><path d="M309.5033 125.978L248.4965 179.3651" fill="none" stroke="#aaa" stroke-opacity="0.5" stroke-width="0.5"></path><path d="M299.3161 160.9694L309.5033 125.978" fill="none" stroke="#aaa" stroke-opacity="0.5" stroke-width="0.5"></path><path d="M265.1367 130.2077L115.4904 154.564" fill="none" stroke="#aaa" stroke-opacity="0.5" stroke-width="0.5"></path><path d="M154.0824 99.3805L186.1301 183.2987" fill="none" stroke="#aaa" stroke-opacity="0.5" stroke-width="0.5"></path><path d="M309.5033 125.978L245.6769 88.3651" fill="none" stroke="#aaa" stroke-opacity="0.5" stroke-width="0.5"></path><path d="M168.5435 214.5449L284.827 60.2568" fill="none" stroke="#aaa" stroke-opacity="0.5" stroke-width="0.5"></path><path d="M256.4833 42.2064L186.1301 183.2987" fill="none" stroke="#aaa" stroke-opacity="0.5" stroke-width="0.5"></path><path d="M224.5376 28.7686L154.0824 99.3805" fill="none" stroke="#aaa" stroke-opacity="0.5" stroke-width="0.5"></path><path d="M153.1581 145.5875L112.7631 113.4273" fill="none" stroke="#aaa" stroke-opacity="0.5" stroke-width="0.5"></path><path d="M309.5033 125.978L125.9968 73.1691" fill="none" stroke="#aaa" stroke-opacity="0.5" stroke-width="0.5"></path><path d="M153.1581 145.5875L168.5435 214.5449" fill="none" stroke="#aaa" stroke-opacity="0.5" stroke-width="0.5"></path><path d="M137.5644 189.1748L115.4904 154.564" fill="none" stroke="#aaa" stroke-opacity="0.5" stroke-width="0.5"></path><path d="M125.9968 73.1691L224.5376 28.7686" fill="none" stroke="#aaa" stroke-opacity="0.5" stroke-width="0.5"></path><path d="M245.9408 217.69L224.5376 28.7686" fill="none" stroke="#aaa" stroke-opacity="0.5" stroke-width="0.5"></path><path d="M186.5 183.2987L186.5 29.016" fill="none" stroke="#aaa" stroke-opacity="0.5" stroke-width="0.5"></path><path d="M125.9968 73.1691L209.6565 222.4811" fill="none" stroke="#aaa" stroke-opacity="0.5" stroke-width="0.5"></path><path d="M224.5376 28.7686L299.1324 92.0442" fill="none" stroke="#aaa" stroke-opacity="0.5" stroke-width="0.5"></path><path d="M224.5376 28.7686L115.4904 154.564" fill="none" stroke="#aaa" stroke-opacity="0.5" stroke-width="0.5"></path><path d="M299.3161 160.9694L215.158 153.3883" fill="none" stroke="#aaa" stroke-opacity="0.5" stroke-width="0.5"></path><path d="M245.9408 217.69L283.2936 194.6306" fill="none" stroke="#aaa" stroke-opacity="0.5" stroke-width="0.5"></path><path d="M137.5644 189.1748L186.1301 183.2987" fill="none" stroke="#aaa" stroke-opacity="0.5" stroke-width="0.5"></path><path d="M256.4833 42.2064L198.1216 112.3048" fill="none" stroke="#aaa" stroke-opacity="0.5" stroke-width="0.5"></path><path d="M209.6565 222.4811L245.6769 88.3651" fill="none" stroke="#aaa" stroke-opacity="0.5" stroke-width="0.5"></path><path d="M283.2936 194.6306L265.1367 130.2077" fill="none" stroke="#aaa" stroke-opacity="0.5" stroke-width="0.5"></path><path d="M245.6769 88.3651L284.827 60.2568" fill="none" stroke="#aaa" stroke-opacity="0.5" stroke-width="0.5"></path><path d="M309.5033 125.978L168.5435 214.5449" fill="none" stroke="#aaa" stroke-opacity="0.5" stroke-width="0.5"></path><path d="M248.4965 179.3651L209.6565 222.4811" fill="none" stroke="#aaa" stroke-opacity="0.5" stroke-width="0.5"></path><path d="M299.3161 160.9694L284.827 60.2568" fill="none" stroke="#aaa" stroke-opacity="0.5" stroke-width="0.5"></path><path d="M224.5376 28.7686L186.1301 183.2987" fill="none" stroke="#aaa" stroke-opacity="0.5" stroke-width="0.5"></path><path d="M125.9968 73.1691L137.5644 189.1748" fill="none" stroke="#aaa" stroke-opacity="0.5" stroke-width="0.5"></path><path d="M153.1581 145.5875L185.8949 29.016" fill="none" stroke="#aaa" stroke-opacity="0.5" stroke-width="0.5"></path><path d="M215.158 153.3883L112.7631 113.4273" fill="none" stroke="#aaa" stroke-opacity="0.5" stroke-width="0.5"></path><path d="M299.3161 160.9694L209.6565 222.4811" fill="none" stroke="#aaa" stroke-opacity="0.5" stroke-width="0.5"></path><path d="M153.1581 145.5875L215.158 153.3883" fill="none" stroke="#aaa" stroke-opacity="0.5" stroke-width="0.5"></path><path d="M245.9408 217.69L137.5644 189.1748" fill="none" stroke="#aaa" stroke-opacity="0.5" stroke-width="0.5"></path><path d="M154.0824 99.3805L248.4965 179.3651" fill="none" stroke="#aaa" stroke-opacity="0.5" stroke-width="0.5"></path><path d="M256.4833 42.2064L248.4965 179.3651" fill="none" stroke="#aaa" stroke-opacity="0.5" stroke-width="0.5"></path><path d="M125.9968 73.1691L299.1324 92.0442" fill="none" stroke="#aaa" stroke-opacity="0.5" stroke-width="0.5"></path><path d="M198.1216 112.3048L245.6769 88.3651" fill="none" stroke="#aaa" stroke-opacity="0.5" stroke-width="0.5"></path><path d="M125.9968 73.1691L115.4904 154.564" fill="none" stroke="#aaa" stroke-opacity="0.5" stroke-width="0.5"></path><path d="M309.5033 125.978L153.1581 145.5875" fill="none" stroke="#aaa" stroke-opacity="0.5" stroke-width="0.5"></path><path d="M154.0824 99.3805L245.6769 88.3651" fill="none" stroke="#aaa" stroke-opacity="0.5" stroke-width="0.5"></path><path d="M245.9408 217.69L115.4904 154.564" fill="none" stroke="#aaa" stroke-opacity="0.5" stroke-width="0.5"></path><path d="M185.8949 29.016L284.827 60.2568" fill="none" stroke="#aaa" stroke-opacity="0.5" stroke-width="0.5"></path><path d="M153.1581 145.5875L284.827 60.2568" fill="none" stroke="#aaa" stroke-opacity="0.5" stroke-width="0.5"></path><path d="M256.4833 42.2064L245.6769 88.3651" fill="none" stroke="#aaa" stroke-opacity="0.5" stroke-width="0.5"></path><path d="M186.1301 183.2987L209.6565 222.4811" fill="none" stroke="#aaa" stroke-opacity="0.5" stroke-width="0.5"></path><path d="M299.3161 160.9694L154.0824 99.3805" fill="none" stroke="#aaa" stroke-opacity="0.5" stroke-width="0.5"></path><path d="M215.158 153.3883L199.4959 66.7999" fill="none" stroke="#aaa" stroke-opacity="0.5" stroke-width="0.5"></path><path d="M256.4833 42.2064L125.9968 73.1691" fill="none" stroke="#aaa" stroke-opacity="0.5" stroke-width="0.5"></path><path d="M112.7631 113.4273L284.827 60.2568" fill="none" stroke="#aaa" stroke-opacity="0.5" stroke-width="0.5"></path><path d="M309.5033 125.978L185.8949 29.016" fill="none" stroke="#aaa" stroke-opacity="0.5" stroke-width="0.5"></path><path d="M309.5033 125.978L215.158 153.3883" fill="none" stroke="#aaa" stroke-opacity="0.5" stroke-width="0.5"></path><path d="M125.9968 73.1691L186.1301 183.2987" fill="none" stroke="#aaa" stroke-opacity="0.5" stroke-width="0.5"></path><path d="M265.1367 130.2077L245.6769 88.3651" fill="none" stroke="#aaa" stroke-opacity="0.5" stroke-width="0.5"></path><path d="M215.158 153.3883L185.8949 29.016" fill="none" stroke="#aaa" stroke-opacity="0.5" stroke-width="0.5"></path><path d="M299.3161 160.9694L299.1324 92.0442" fill="none" stroke="#aaa" stroke-opacity="0.5" stroke-width="0.5"></path><path d="M245.9408 217.69L186.1301 183.2987" fill="none" stroke="#aaa" stroke-opacity="0.5" stroke-width="0.5"></path><path d="M137.5644 189.1748L248.4965 179.3651" fill="none" stroke="#aaa" stroke-opacity="0.5" stroke-width="0.5"></path><path d="M283.2936 194.6306L199.4959 66.7999" fill="none" stroke="#aaa" stroke-opacity="0.5" stroke-width="0.5"></path><path d="M137.5644 189.1748L245.6769 88.3651" fill="none" stroke="#aaa" stroke-opacity="0.5" stroke-width="0.5"></path><path d="M309.5033 125.978L284.827 60.2568" fill="none" stroke="#aaa" stroke-opacity="0.5" stroke-width="0.5"></path><path d="M153.747 47.3812L112.7631 113.4273" fill="none" stroke="#aaa" stroke-opacity="0.5" stroke-width="0.5"></path><path d="M299.3161 160.9694L153.747 47.3812" fill="none" stroke="#aaa" stroke-opacity="0.5" stroke-width="0.5"></path><path d="M224.5376 28.7686L248.4965 179.3651" fill="none" stroke="#aaa" stroke-opacity="0.5" stroke-width="0.5"></path><path d="M198.1216 112.3048L199.4959 66.7999" fill="none" stroke="#aaa" stroke-opacity="0.5" stroke-width="0.5"></path><path d="M186.1301 183.2987L299.1324 92.0442" fill="none" stroke="#aaa" stroke-opacity="0.5" stroke-width="0.5"></path><path d="M186.1301 183.2987L115.4904 154.564" fill="none" stroke="#aaa" stroke-opacity="0.5" stroke-width="0.5"></path><path d="M256.4833 42.2064L168.5435 214.5449" fill="none" stroke="#aaa" stroke-opacity="0.5" stroke-width="0.5"></path><path d="M224.5376 28.7686L245.6769 88.3651" fill="none" stroke="#aaa" stroke-opacity="0.5" stroke-width="0.5"></path><path d="M125.9968 73.1691L198.1216 112.3048" fill="none" stroke="#aaa" stroke-opacity="0.5" stroke-width="0.5"></path><path d="M245.9408 217.69L198.1216 112.3048" fill="none" stroke="#aaa" stroke-opacity="0.5" stroke-width="0.5"></path><path d="M299.1324 92.0442L112.7631 113.4273" fill="none" stroke="#aaa" stroke-opacity="0.5" stroke-width="0.5"></path><path d="M309.5033 125.978L154.0824 99.3805" fill="none" stroke="#aaa" stroke-opacity="0.5" stroke-width="0.5"></path><path d="M215.158 153.3883L224.5376 28.7686" fill="none" stroke="#aaa" stroke-opacity="0.5" stroke-width="0.5"></path><path d="M265.1367 130.2077L199.4959 66.7999" fill="none" stroke="#aaa" stroke-opacity="0.5" stroke-width="0.5"></path><path d="M153.747 47.3812L199.4959 66.7999" fill="none" stroke="#aaa" stroke-opacity="0.5" stroke-width="0.5"></path><path d="M209.6565 222.4811L284.827 60.2568" fill="none" stroke="#aaa" stroke-opacity="0.5" stroke-width="0.5"></path><path d="M1 0A1 1 0 1 1 1 -0.0001" fill="#5470c6" transform="matrix(17.5,0,0,17.5,309.5033,125.978)"></path><path d="M1 0A1 1 0 1 1 1 -0.0001" fill="#5470c6" transform="matrix(17.5,0,0,17.5,299.3161,160.9694)"></path><path d="M1 0A1 1 0 1 1 1 -0.0001" fill="#5470c6" transform="matrix(17.5,0,0,17.5,248.4965,179.3651)"></path><path d="M1 0A1 1 0 1 1 1 -0.0001" fill="#5470c6" transform="matrix(17.5,0,0,17.5,283.2936,194.6306)"></path><path d="M1 0A1 1 0 1 1 1 -0.0001" fill="#5470c6" transform="matrix(17.5,0,0,17.5,245.9408,217.69)"></path><path d="M1 0A1 1 0 1 1 1 -0.0001" fill="#5470c6" transform="matrix(17.5,0,0,17.5,209.6565,222.4811)"></path><path d="M1 0A1 1 0 1 1 1 -0.0001" fill="#5470c6" transform="matrix(17.5,0,0,17.5,186.1301,183.2987)"></path><path d="M1 0A1 1 0 1 1 1 -0.0001" fill="#5470c6" transform="matrix(17.5,0,0,17.5,168.5435,214.5449)"></path><path d="M1 0A1 1 0 1 1 1 -0.0001" fill="#5470c6" transform="matrix(17.5,0,0,17.5,137.5644,189.1748)"></path><path d="M1 0A1 1 0 1 1 1 -0.0001" fill="#5470c6" transform="matrix(17.5,0,0,17.5,153.1581,145.5875)"></path><path d="M1 0A1 1 0 1 1 1 -0.0001" fill="#5470c6" transform="matrix(17.5,0,0,17.5,115.4904,154.564)"></path><path d="M1 0A1 1 0 1 1 1 -0.0001" fill="#5470c6" transform="matrix(17.5,0,0,17.5,112.7631,113.4273)"></path><path d="M1 0A1 1 0 1 1 1 -0.0001" fill="#5470c6" transform="matrix(17.5,0,0,17.5,215.158,153.3883)"></path><path d="M1 0A1 1 0 1 1 1 -0.0001" fill="#5470c6" transform="matrix(17.5,0,0,17.5,154.0824,99.3805)"></path><path d="M1 0A1 1 0 1 1 1 -0.0001" fill="#5470c6" transform="matrix(17.5,0,0,17.5,125.9968,73.1691)"></path><path d="M1 0A1 1 0 1 1 1 -0.0001" fill="#5470c6" transform="matrix(17.5,0,0,17.5,153.747,47.3812)"></path><path d="M1 0A1 1 0 1 1 1 -0.0001" fill="#5470c6" transform="matrix(17.5,0,0,17.5,185.8949,29.016)"></path><path d="M1 0A1 1 0 1 1 1 -0.0001" fill="#5470c6" transform="matrix(17.5,0,0,17.5,198.1216,112.3048)"></path><path d="M1 0A1 1 0 1 1 1 -0.0001" fill="#5470c6" transform="matrix(17.5,0,0,17.5,199.4959,66.7999)"></path><path d="M1 0A1 1 0 1 1 1 -0.0001" fill="#5470c6" transform="matrix(17.5,0,0,17.5,224.5376,28.7686)"></path><path d="M1 0A1 1 0 1 1 1 -0.0001" fill="#5470c6" transform="matrix(17.5,0,0,17.5,245.6769,88.3651)"></path><path d="M1 0A1 1 0 1 1 1 -0.0001" fill="#5470c6" transform="matrix(17.5,0,0,17.5,256.4833,42.2064)"></path><path d="M1 0A1 1 0 1 1 1 -0.0001" fill="#5470c6" transform="matrix(17.5,0,0,17.5,284.827,60.2568)"></path><path d="M1 0A1 1 0 1 1 1 -0.0001" fill="#5470c6" transform="matrix(17.5,0,0,17.5,299.1324,92.0442)"></path><path d="M1 0A1 1 0 1 1 1 -0.0001" fill="#5470c6" transform="matrix(17.5,0,0,17.5,265.1367,130.2077)"></path><path d="M-25.1792 -5l50.3584 0l0 32l-50.3584 0Z" fill="rgb(0,0,0)" fill-opacity="0" stroke="#ccc" stroke-width="0" transform="translate(237.5 5)"></path><text dominant-baseline="central" fill="#333" style="font-size:22px;font-family:sans-serif;font-weight:bolder;" text-anchor="middle" transform="translate(237.5 5)" y="11">C16</text></g></svg>