<svg baseprofile="full" height="250" style="position:absolute;left:0;top:0;user-select:none" version="1.1" width="475" xmlns="http://www.w3.org/2000/svg" xmlns:xlink="http://www.w3.org/1999/xlink"><rect fill="none" height="250" id="0" width="475" x="0" y="0"></rect><g><path d="M250.2343 216.4093L173.1505 220.8328" fill="none" stroke="#aaa" stroke-opacity="0.5"></path><path d="M172.2261 32.9102L248.6973 31.3455" fill="none" stroke="#aaa" stroke-opacity="0.5"></path><path d="M120.1558 163.9572L250.2343 216.4093" fill="none" stroke="#aaa" stroke-opacity="0.5"></path><path d="M304.5 162.4806L304.5 85.7965" fill="none" stroke="#aaa" stroke-opacity="0.5"></path><path d="M250.2343 216.4093L304.3881 162.4806" fill="none" stroke="#aaa" stroke-opacity="0.5"></path><path d="M250.2343 216.4093L304.7145 85.7965" fill="none" stroke="#aaa" stroke-opacity="0.5"></path><path d="M304.7145 85.7965L115.4403 86.2678" fill="none" stroke="#aaa" stroke-opacity="0.5"></path><path d="M172.2261 32.9102L115.4403 86.2678" fill="none" stroke="#aaa" stroke-opacity="0.5"></path><path d="M248.6973 31.3455L304.7145 85.7965" fill="none" stroke="#aaa" stroke-opacity="0.5"></path><path d="M120.1558 163.9572L172.2261 32.9102" fill="none" stroke="#aaa" stroke-opacity="0.5"></path><path d="M173.1505 220.8328L304.7145 85.7965" fill="none" stroke="#aaa" stroke-opacity="0.5"></path><path d="M304.3881 162.4806L248.6973 31.3455" fill="none" stroke="#aaa" stroke-opacity="0.5"></path><path d="M250.2343 216.4093L248.6973 31.3455" fill="none" stroke="#aaa" stroke-opacity="0.5"></path><path d="M304.3881 162.4806L172.2261 32.9102" fill="none" stroke="#aaa" stroke-opacity="0.5"></path><path d="M304.3881 162.4806L173.1505 220.8328" fill="none" stroke="#aaa" stroke-opacity="0.5"></path><path d="M250.2343 216.4093L172.2261 32.9102" fill="none" stroke="#aaa" stroke-opacity="0.5"></path><path d="M120.1558 163.9572L304.3881 162.4806" fill="none" stroke="#aaa" stroke-opacity="0.5"></path><path d="M120.1558 163.9572L304.7145 85.7965" fill="none" stroke="#aaa" stroke-opacity="0.5"></path><path d="M304.3881 162.4806L115.4403 86.2678" fill="none" stroke="#aaa" stroke-opacity="0.5"></path><path d="M250.2343 216.4093L115.4403 86.2678" fill="none" stroke="#aaa" stroke-opacity="0.5"></path><path d="M173.1505 220.8328L248.6973 31.3455" fill="none" stroke="#aaa" stroke-opacity="0.5"></path><path d="M173.1505 220.8328L172.2261 32.9102" fill="none" stroke="#aaa" stroke-opacity="0.5"></path><path d="M248.6973 31.3455L115.4403 86.2678" fill="none" stroke="#aaa" stroke-opacity="0.5"></path><path d="M120.1558 163.9572L248.6973 31.3455" fill="none" stroke="#aaa" stroke-opacity="0.5"></path><path d="M172.2261 32.9102L304.7145 85.7965" fill="none" stroke="#aaa" stroke-opacity="0.5"></path><path d="M120.1558 163.9572L173.1505 220.8328" fill="none" stroke="#aaa" stroke-opacity="0.5"></path><path d="M173.1505 220.8328L115.4403 86.2678" fill="none" stroke="#aaa" stroke-opacity="0.5"></path><path d="M120.1558 163.9572L115.4403 86.2678" fill="none" stroke="#aaa" stroke-opacity="0.5"></path><path d="M1 0A1 1 0 1 1 1 -0.0001" fill="#5470c6" transform="matrix(19,0,0,19,304.3881,162.4806)"></path><path d="M1 0A1 1 0 1 1 1 -0.0001" fill="#5470c6" transform="matrix(19,0,0,19,250.2343,216.4093)"></path><path d="M1 0A1 1 0 1 1 1 -0.0001" fill="#5470c6" transform="matrix(19,0,0,19,173.1505,220.8328)"></path><path d="M1 0A1 1 0 1 1 1 -0.0001" fill="#5470c6" transform="matrix(19,0,0,19,120.1558,163.9572)"></path><path d="M1 0A1 1 0 1 1 1 -0.0001" fill="#5470c6" transform="matrix(19,0,0,19,115.4403,86.2678)"></path><path d="M1 0A1 1 0 1 1 1 -0.0001" fill="#5470c6" transform="matrix(19,0,0,19,172.2261,32.9102)"></path><path d="M1 0A1 1 0 1 1 1 -0.0001" fill="#5470c6" transform="matrix(19,0,0,19,248.6973,31.3455)"></path><path d="M1 0A1 1 0 1 1 1 -0.0001" fill="#5470c6" transform="matrix(19,0,0,19,304.7145,85.7965)"></path><path d="M-32.4922 -5l64.9844 0l0 33l-64.9844 0Z" fill="rgb(0,0,0)" fill-opacity="0" stroke="#ccc" stroke-width="0" transform="translate(237.5 5)"></path><text dominant-baseline="central" fill="#333" style="font-size:23px;font-family:sans-serif;font-weight:bolder;" text-anchor="middle" transform="translate(237.5 5)" y="11.5">C160</text></g></svg>