<svg baseprofile="full" height="250" style="position:absolute;left:0;top:0;user-select:none" version="1.1" width="475" xmlns="http://www.w3.org/2000/svg" xmlns:xlink="http://www.w3.org/1999/xlink"><rect fill="none" height="250" id="0" width="475" x="0" y="0"></rect><g><path d="M176.9251 31.9149L118.9736 158.439" fill="none" stroke="#aaa" stroke-opacity="0.5"></path><path d="M176.9251 31.9149L167.3887 219.7601" fill="none" stroke="#aaa" stroke-opacity="0.5"></path><path d="M304.7535 168.3904L118.9736 158.439" fill="none" stroke="#aaa" stroke-opacity="0.5"></path><path d="M117.741 81.6577L176.9251 31.9149" fill="none" stroke="#aaa" stroke-opacity="0.5"></path><path d="M304.7535 168.3904L253.6809 31.8659" fill="none" stroke="#aaa" stroke-opacity="0.5"></path><path d="M244.8499 216.9799L118.9736 158.439" fill="none" stroke="#aaa" stroke-opacity="0.5"></path><path d="M253.6809 32.5L176.9251 32.5" fill="none" stroke="#aaa" stroke-opacity="0.5"></path><path d="M176.9251 31.9149L304.6945 90.992" fill="none" stroke="#aaa" stroke-opacity="0.5"></path><path d="M304.7535 168.3904L304.6945 90.992" fill="none" stroke="#aaa" stroke-opacity="0.5"></path><path d="M244.8499 216.9799L304.6945 90.992" fill="none" stroke="#aaa" stroke-opacity="0.5"></path><path d="M117.741 81.6577L118.9736 158.439" fill="none" stroke="#aaa" stroke-opacity="0.5"></path><path d="M176.9251 31.9149L244.8499 216.9799" fill="none" stroke="#aaa" stroke-opacity="0.5"></path><path d="M253.6809 31.8659L244.8499 216.9799" fill="none" stroke="#aaa" stroke-opacity="0.5"></path><path d="M117.741 81.6577L253.6809 31.8659" fill="none" stroke="#aaa" stroke-opacity="0.5"></path><path d="M304.7535 168.3904L244.8499 216.9799" fill="none" stroke="#aaa" stroke-opacity="0.5"></path><path d="M253.6809 31.8659L118.9736 158.439" fill="none" stroke="#aaa" stroke-opacity="0.5"></path><path d="M253.6809 31.8659L167.3887 219.7601" fill="none" stroke="#aaa" stroke-opacity="0.5"></path><path d="M304.7535 168.3904L167.3887 219.7601" fill="none" stroke="#aaa" stroke-opacity="0.5"></path><path d="M304.6945 90.992L118.9736 158.439" fill="none" stroke="#aaa" stroke-opacity="0.5"></path><path d="M117.741 81.6577L304.6945 90.992" fill="none" stroke="#aaa" stroke-opacity="0.5"></path><path d="M244.8499 216.9799L167.3887 219.7601" fill="none" stroke="#aaa" stroke-opacity="0.5"></path><path d="M304.7535 168.3904L176.9251 31.9149" fill="none" stroke="#aaa" stroke-opacity="0.5"></path><path d="M167.3887 219.7601L118.9736 158.439" fill="none" stroke="#aaa" stroke-opacity="0.5"></path><path d="M253.6809 31.8659L304.6945 90.992" fill="none" stroke="#aaa" stroke-opacity="0.5"></path><path d="M117.741 81.6577L244.8499 216.9799" fill="none" stroke="#aaa" stroke-opacity="0.5"></path><path d="M117.741 81.6577L304.7535 168.3904" fill="none" stroke="#aaa" stroke-opacity="0.5"></path><path d="M117.741 81.6577L167.3887 219.7601" fill="none" stroke="#aaa" stroke-opacity="0.5"></path><path d="M167.3887 219.7601L304.6945 90.992" fill="none" stroke="#aaa" stroke-opacity="0.5"></path><path d="M1 0A1 1 0 1 1 1 -0.0001" fill="#5470c6" transform="matrix(19,0,0,19,304.7535,168.3904)"></path><path d="M1 0A1 1 0 1 1 1 -0.0001" fill="#5470c6" transform="matrix(19,0,0,19,244.8499,216.9799)"></path><path d="M1 0A1 1 0 1 1 1 -0.0001" fill="#5470c6" transform="matrix(19,0,0,19,167.3887,219.7601)"></path><path d="M1 0A1 1 0 1 1 1 -0.0001" fill="#5470c6" transform="matrix(19,0,0,19,118.9736,158.439)"></path><path d="M1 0A1 1 0 1 1 1 -0.0001" fill="#5470c6" transform="matrix(19,0,0,19,117.741,81.6577)"></path><path d="M1 0A1 1 0 1 1 1 -0.0001" fill="#5470c6" transform="matrix(19,0,0,19,176.9251,31.9149)"></path><path d="M1 0A1 1 0 1 1 1 -0.0001" fill="#5470c6" transform="matrix(19,0,0,19,253.6809,31.8659)"></path><path d="M1 0A1 1 0 1 1 1 -0.0001" fill="#5470c6" transform="matrix(19,0,0,19,304.6945,90.992)"></path><path d="M-32.4922 -5l64.9844 0l0 33l-64.9844 0Z" fill="rgb(0,0,0)" fill-opacity="0" stroke="#ccc" stroke-width="0" transform="translate(237.5 5)"></path><text dominant-baseline="central" fill="#333" style="font-size:23px;font-family:sans-serif;font-weight:bolder;" text-anchor="middle" transform="translate(237.5 5)" y="11.5">C161</text></g></svg>