<svg baseprofile="full" height="250" style="position:absolute;left:0;top:0;user-select:none" version="1.1" width="475" xmlns="http://www.w3.org/2000/svg" xmlns:xlink="http://www.w3.org/1999/xlink"><rect fill="none" height="250" id="0" width="475" x="0" y="0"></rect><g><path d="M117.3906 164.7219L250.6249 218.2413" fill="none" stroke="#aaa" stroke-opacity="0.5"></path><path d="M305.3833 163.5426L172.2088 32.7415" fill="none" stroke="#aaa" stroke-opacity="0.5"></path><path d="M172.2088 32.7415L173.5372 218.3526" fill="none" stroke="#aaa" stroke-opacity="0.5"></path><path d="M303.6587 85.4756L173.5372 218.3526" fill="none" stroke="#aaa" stroke-opacity="0.5"></path><path d="M116.7781 87.0118L250.6249 218.2413" fill="none" stroke="#aaa" stroke-opacity="0.5"></path><path d="M305.3833 163.5426L250.6249 218.2413" fill="none" stroke="#aaa" stroke-opacity="0.5"></path><path d="M249.4255 29.9127L116.7781 87.0118" fill="none" stroke="#aaa" stroke-opacity="0.5"></path><path d="M117.3906 164.7219L303.6587 85.4756" fill="none" stroke="#aaa" stroke-opacity="0.5"></path><path d="M116.7781 87.0118L303.6587 85.4756" fill="none" stroke="#aaa" stroke-opacity="0.5"></path><path d="M173.5372 218.3526L250.6249 218.2413" fill="none" stroke="#aaa" stroke-opacity="0.5"></path><path d="M249.4255 29.9127L173.5372 218.3526" fill="none" stroke="#aaa" stroke-opacity="0.5"></path><path d="M117.3906 164.7219L116.7781 87.0118" fill="none" stroke="#aaa" stroke-opacity="0.5"></path><path d="M249.4255 29.9127L117.3906 164.7219" fill="none" stroke="#aaa" stroke-opacity="0.5"></path><path d="M172.2088 32.7415L250.6249 218.2413" fill="none" stroke="#aaa" stroke-opacity="0.5"></path><path d="M303.6587 85.4756L250.6249 218.2413" fill="none" stroke="#aaa" stroke-opacity="0.5"></path><path d="M249.4255 29.9127L303.6587 85.4756" fill="none" stroke="#aaa" stroke-opacity="0.5"></path><path d="M117.3906 164.7219L305.3833 163.5426" fill="none" stroke="#aaa" stroke-opacity="0.5"></path><path d="M117.3906 164.7219L173.5372 218.3526" fill="none" stroke="#aaa" stroke-opacity="0.5"></path><path d="M249.4255 29.9127L172.2088 32.7415" fill="none" stroke="#aaa" stroke-opacity="0.5"></path><path d="M305.3833 163.5426L116.7781 87.0118" fill="none" stroke="#aaa" stroke-opacity="0.5"></path><path d="M172.2088 32.7415L303.6587 85.4756" fill="none" stroke="#aaa" stroke-opacity="0.5"></path><path d="M116.7781 87.0118L173.5372 218.3526" fill="none" stroke="#aaa" stroke-opacity="0.5"></path><path d="M249.4255 29.9127L250.6249 218.2413" fill="none" stroke="#aaa" stroke-opacity="0.5"></path><path d="M305.3833 163.5426L173.5372 218.3526" fill="none" stroke="#aaa" stroke-opacity="0.5"></path><path d="M117.3906 164.7219L172.2088 32.7415" fill="none" stroke="#aaa" stroke-opacity="0.5"></path><path d="M249.4255 29.9127L305.3833 163.5426" fill="none" stroke="#aaa" stroke-opacity="0.5"></path><path d="M172.2088 32.7415L116.7781 87.0118" fill="none" stroke="#aaa" stroke-opacity="0.5"></path><path d="M305.3833 163.5426L303.6587 85.4756" fill="none" stroke="#aaa" stroke-opacity="0.5"></path><path d="M1 0A1 1 0 1 1 1 -0.0001" fill="#5470c6" transform="matrix(19,0,0,19,305.3833,163.5426)"></path><path d="M1 0A1 1 0 1 1 1 -0.0001" fill="#5470c6" transform="matrix(19,0,0,19,250.6249,218.2413)"></path><path d="M1 0A1 1 0 1 1 1 -0.0001" fill="#5470c6" transform="matrix(19,0,0,19,173.5372,218.3526)"></path><path d="M1 0A1 1 0 1 1 1 -0.0001" fill="#5470c6" transform="matrix(19,0,0,19,117.3906,164.7219)"></path><path d="M1 0A1 1 0 1 1 1 -0.0001" fill="#5470c6" transform="matrix(19,0,0,19,116.7781,87.0118)"></path><path d="M1 0A1 1 0 1 1 1 -0.0001" fill="#5470c6" transform="matrix(19,0,0,19,172.2088,32.7415)"></path><path d="M1 0A1 1 0 1 1 1 -0.0001" fill="#5470c6" transform="matrix(19,0,0,19,249.4255,29.9127)"></path><path d="M1 0A1 1 0 1 1 1 -0.0001" fill="#5470c6" transform="matrix(19,0,0,19,303.6587,85.4756)"></path><path d="M-32.4922 -5l64.9844 0l0 33l-64.9844 0Z" fill="rgb(0,0,0)" fill-opacity="0" stroke="#ccc" stroke-width="0" transform="translate(237.5 5)"></path><text dominant-baseline="central" fill="#333" style="font-size:23px;font-family:sans-serif;font-weight:bolder;" text-anchor="middle" transform="translate(237.5 5)" y="11.5">C162</text></g></svg>