<svg baseprofile="full" height="250" style="position:absolute;left:0;top:0;user-select:none" version="1.1" width="475" xmlns="http://www.w3.org/2000/svg" xmlns:xlink="http://www.w3.org/1999/xlink"><rect fill="none" height="250" id="0" width="475" x="0" y="0"></rect><g><path d="M115.989 91.9642L302.6699 80.5686" fill="none" stroke="#aaa" stroke-opacity="0.5"></path><path d="M166.4185 33.3311L115.989 91.9642" fill="none" stroke="#aaa" stroke-opacity="0.5"></path><path d="M177.6451 221.7033L244.1734 30.6445" fill="none" stroke="#aaa" stroke-opacity="0.5"></path><path d="M302.6699 80.5686L244.1734 30.6445" fill="none" stroke="#aaa" stroke-opacity="0.5"></path><path d="M120.2073 168.5939L306.8259 158.273" fill="none" stroke="#aaa" stroke-opacity="0.5"></path><path d="M120.2073 168.5939L302.6699 80.5686" fill="none" stroke="#aaa" stroke-opacity="0.5"></path><path d="M306.8259 158.273L244.1734 30.6445" fill="none" stroke="#aaa" stroke-opacity="0.5"></path><path d="M306.8259 158.273L177.6451 221.7033" fill="none" stroke="#aaa" stroke-opacity="0.5"></path><path d="M120.2073 168.5939L115.989 91.9642" fill="none" stroke="#aaa" stroke-opacity="0.5"></path><path d="M255.0778 214.9215L306.8259 158.273" fill="none" stroke="#aaa" stroke-opacity="0.5"></path><path d="M255.0778 214.9215L302.6699 80.5686" fill="none" stroke="#aaa" stroke-opacity="0.5"></path><path d="M306.8259 158.273L302.6699 80.5686" fill="none" stroke="#aaa" stroke-opacity="0.5"></path><path d="M166.4185 33.3311L302.6699 80.5686" fill="none" stroke="#aaa" stroke-opacity="0.5"></path><path d="M255.0778 214.9215L115.989 91.9642" fill="none" stroke="#aaa" stroke-opacity="0.5"></path><path d="M255.0778 214.9215L166.4185 33.3311" fill="none" stroke="#aaa" stroke-opacity="0.5"></path><path d="M177.6451 221.7033L115.989 91.9642" fill="none" stroke="#aaa" stroke-opacity="0.5"></path><path d="M306.8259 158.273L115.989 91.9642" fill="none" stroke="#aaa" stroke-opacity="0.5"></path><path d="M255.0778 214.9215L244.1734 30.6445" fill="none" stroke="#aaa" stroke-opacity="0.5"></path><path d="M255.0778 214.9215L177.6451 221.7033" fill="none" stroke="#aaa" stroke-opacity="0.5"></path><path d="M255.0778 214.9215L120.2073 168.5939" fill="none" stroke="#aaa" stroke-opacity="0.5"></path><path d="M166.4185 33.3311L244.1734 30.6445" fill="none" stroke="#aaa" stroke-opacity="0.5"></path><path d="M166.4185 33.3311L177.6451 221.7033" fill="none" stroke="#aaa" stroke-opacity="0.5"></path><path d="M166.4185 33.3311L120.2073 168.5939" fill="none" stroke="#aaa" stroke-opacity="0.5"></path><path d="M115.989 91.9642L244.1734 30.6445" fill="none" stroke="#aaa" stroke-opacity="0.5"></path><path d="M177.6451 221.7033L302.6699 80.5686" fill="none" stroke="#aaa" stroke-opacity="0.5"></path><path d="M120.2073 168.5939L244.1734 30.6445" fill="none" stroke="#aaa" stroke-opacity="0.5"></path><path d="M120.2073 168.5939L177.6451 221.7033" fill="none" stroke="#aaa" stroke-opacity="0.5"></path><path d="M166.4185 33.3311L306.8259 158.273" fill="none" stroke="#aaa" stroke-opacity="0.5"></path><path d="M1 0A1 1 0 1 1 1 -0.0001" fill="#5470c6" transform="matrix(19,0,0,19,306.8259,158.273)"></path><path d="M1 0A1 1 0 1 1 1 -0.0001" fill="#5470c6" transform="matrix(19,0,0,19,255.0778,214.9215)"></path><path d="M1 0A1 1 0 1 1 1 -0.0001" fill="#5470c6" transform="matrix(19,0,0,19,177.6451,221.7033)"></path><path d="M1 0A1 1 0 1 1 1 -0.0001" fill="#5470c6" transform="matrix(19,0,0,19,120.2073,168.5939)"></path><path d="M1 0A1 1 0 1 1 1 -0.0001" fill="#5470c6" transform="matrix(19,0,0,19,115.989,91.9642)"></path><path d="M1 0A1 1 0 1 1 1 -0.0001" fill="#5470c6" transform="matrix(19,0,0,19,166.4185,33.3311)"></path><path d="M1 0A1 1 0 1 1 1 -0.0001" fill="#5470c6" transform="matrix(19,0,0,19,244.1734,30.6445)"></path><path d="M1 0A1 1 0 1 1 1 -0.0001" fill="#5470c6" transform="matrix(19,0,0,19,302.6699,80.5686)"></path><path d="M-32.4922 -5l64.9844 0l0 33l-64.9844 0Z" fill="rgb(0,0,0)" fill-opacity="0" stroke="#ccc" stroke-width="0" transform="translate(237.5 5)"></path><text dominant-baseline="central" fill="#333" style="font-size:23px;font-family:sans-serif;font-weight:bolder;" text-anchor="middle" transform="translate(237.5 5)" y="11.5">C163</text></g></svg>