<svg baseprofile="full" height="250" style="position:absolute;left:0;top:0;user-select:none" version="1.1" width="475" xmlns="http://www.w3.org/2000/svg" xmlns:xlink="http://www.w3.org/1999/xlink"><rect fill="none" height="250" id="0" width="475" x="0" y="0"></rect><g><path d="M150.9507 210.1984L141.1385 47.1473" fill="none" stroke="#aaa" stroke-opacity="0.5"></path><path d="M302.8616 74.4426L239.803 225.3545" fill="none" stroke="#aaa" stroke-opacity="0.5"></path><path d="M228.6472 22.1625L106.7215 130.6727" fill="none" stroke="#aaa" stroke-opacity="0.5"></path><path d="M228.6472 22.1625L239.803 225.3545" fill="none" stroke="#aaa" stroke-opacity="0.5"></path><path d="M150.9507 210.1984L239.803 225.3545" fill="none" stroke="#aaa" stroke-opacity="0.5"></path><path d="M307.7587 165.0222L106.7215 130.6727" fill="none" stroke="#aaa" stroke-opacity="0.5"></path><path d="M307.7587 165.0222L239.803 225.3545" fill="none" stroke="#aaa" stroke-opacity="0.5"></path><path d="M106.7215 130.6727L239.803 225.3545" fill="none" stroke="#aaa" stroke-opacity="0.5"></path><path d="M302.8616 74.4426L106.7215 130.6727" fill="none" stroke="#aaa" stroke-opacity="0.5"></path><path d="M302.8616 74.4426L307.7587 165.0222" fill="none" stroke="#aaa" stroke-opacity="0.5"></path><path d="M228.6472 22.1625L307.7587 165.0222" fill="none" stroke="#aaa" stroke-opacity="0.5"></path><path d="M302.8616 74.4426L228.6472 22.1625" fill="none" stroke="#aaa" stroke-opacity="0.5"></path><path d="M150.9507 210.1984L302.8616 74.4426" fill="none" stroke="#aaa" stroke-opacity="0.5"></path><path d="M141.1385 47.1473L106.7215 130.6727" fill="none" stroke="#aaa" stroke-opacity="0.5"></path><path d="M141.1385 47.1473L239.803 225.3545" fill="none" stroke="#aaa" stroke-opacity="0.5"></path><path d="M141.1385 47.1473L307.7587 165.0222" fill="none" stroke="#aaa" stroke-opacity="0.5"></path><path d="M302.8616 74.4426L141.1385 47.1473" fill="none" stroke="#aaa" stroke-opacity="0.5"></path><path d="M150.9507 210.1984L106.7215 130.6727" fill="none" stroke="#aaa" stroke-opacity="0.5"></path><path d="M228.6472 22.1625L141.1385 47.1473" fill="none" stroke="#aaa" stroke-opacity="0.5"></path><path d="M150.9507 210.1984L307.7587 165.0222" fill="none" stroke="#aaa" stroke-opacity="0.5"></path><path d="M150.9507 210.1984L228.6472 22.1625" fill="none" stroke="#aaa" stroke-opacity="0.5"></path><path d="M1 0A1 1 0 1 1 1 -0.0001" fill="#5470c6" transform="matrix(19,0,0,19,307.7587,165.0222)"></path><path d="M1 0A1 1 0 1 1 1 -0.0001" fill="#5470c6" transform="matrix(19,0,0,19,239.803,225.3545)"></path><path d="M1 0A1 1 0 1 1 1 -0.0001" fill="#5470c6" transform="matrix(19,0,0,19,150.9507,210.1984)"></path><path d="M1 0A1 1 0 1 1 1 -0.0001" fill="#5470c6" transform="matrix(19,0,0,19,106.7215,130.6727)"></path><path d="M1 0A1 1 0 1 1 1 -0.0001" fill="#5470c6" transform="matrix(19,0,0,19,141.1385,47.1473)"></path><path d="M1 0A1 1 0 1 1 1 -0.0001" fill="#5470c6" transform="matrix(19,0,0,19,228.6472,22.1625)"></path><path d="M1 0A1 1 0 1 1 1 -0.0001" fill="#5470c6" transform="matrix(19,0,0,19,302.8616,74.4426)"></path><path d="M-32.4922 -5l64.9844 0l0 33l-64.9844 0Z" fill="rgb(0,0,0)" fill-opacity="0" stroke="#ccc" stroke-width="0" transform="translate(237.5 5)"></path><text dominant-baseline="central" fill="#333" style="font-size:23px;font-family:sans-serif;font-weight:bolder;" text-anchor="middle" transform="translate(237.5 5)" y="11.5">C164</text></g></svg>