<svg baseprofile="full" height="250" style="position:absolute;left:0;top:0;user-select:none" version="1.1" width="475" xmlns="http://www.w3.org/2000/svg" xmlns:xlink="http://www.w3.org/1999/xlink"><rect fill="none" height="250" id="0" width="475" x="0" y="0"></rect><g><path d="M305.0288 171.3509L233.6191 226.9483" fill="none" stroke="#aaa" stroke-opacity="0.5"></path><path d="M106.2471 123.6158L146.8344 42.974" fill="none" stroke="#aaa" stroke-opacity="0.5"></path><path d="M305.0288 171.3509L145.7653 205.976" fill="none" stroke="#aaa" stroke-opacity="0.5"></path><path d="M233.6191 226.9483L145.7653 205.976" fill="none" stroke="#aaa" stroke-opacity="0.5"></path><path d="M305.0288 171.3509L146.8344 42.974" fill="none" stroke="#aaa" stroke-opacity="0.5"></path><path d="M106.2471 123.6158L305.2924 80.7263" fill="none" stroke="#aaa" stroke-opacity="0.5"></path><path d="M146.8344 42.974L235.094 23.4087" fill="none" stroke="#aaa" stroke-opacity="0.5"></path><path d="M106.2471 123.6158L235.094 23.4087" fill="none" stroke="#aaa" stroke-opacity="0.5"></path><path d="M305.0288 171.3509L305.2924 80.7263" fill="none" stroke="#aaa" stroke-opacity="0.5"></path><path d="M305.0288 171.3509L235.094 23.4087" fill="none" stroke="#aaa" stroke-opacity="0.5"></path><path d="M146.8344 42.974L233.6191 226.9483" fill="none" stroke="#aaa" stroke-opacity="0.5"></path><path d="M305.2924 80.7263L235.094 23.4087" fill="none" stroke="#aaa" stroke-opacity="0.5"></path><path d="M146.8344 42.974L145.7653 205.976" fill="none" stroke="#aaa" stroke-opacity="0.5"></path><path d="M305.0288 171.3509L106.2471 123.6158" fill="none" stroke="#aaa" stroke-opacity="0.5"></path><path d="M145.7653 205.976L305.2924 80.7263" fill="none" stroke="#aaa" stroke-opacity="0.5"></path><path d="M145.7653 205.976L235.094 23.4087" fill="none" stroke="#aaa" stroke-opacity="0.5"></path><path d="M146.8344 42.974L305.2924 80.7263" fill="none" stroke="#aaa" stroke-opacity="0.5"></path><path d="M233.6191 226.9483L305.2924 80.7263" fill="none" stroke="#aaa" stroke-opacity="0.5"></path><path d="M233.6191 226.9483L235.094 23.4087" fill="none" stroke="#aaa" stroke-opacity="0.5"></path><path d="M106.2471 123.6158L233.6191 226.9483" fill="none" stroke="#aaa" stroke-opacity="0.5"></path><path d="M106.2471 123.6158L145.7653 205.976" fill="none" stroke="#aaa" stroke-opacity="0.5"></path><path d="M1 0A1 1 0 1 1 1 -0.0001" fill="#5470c6" transform="matrix(19,0,0,19,305.0288,171.3509)"></path><path d="M1 0A1 1 0 1 1 1 -0.0001" fill="#5470c6" transform="matrix(19,0,0,19,233.6191,226.9483)"></path><path d="M1 0A1 1 0 1 1 1 -0.0001" fill="#5470c6" transform="matrix(19,0,0,19,145.7653,205.976)"></path><path d="M1 0A1 1 0 1 1 1 -0.0001" fill="#5470c6" transform="matrix(19,0,0,19,106.2471,123.6158)"></path><path d="M1 0A1 1 0 1 1 1 -0.0001" fill="#5470c6" transform="matrix(19,0,0,19,146.8344,42.974)"></path><path d="M1 0A1 1 0 1 1 1 -0.0001" fill="#5470c6" transform="matrix(19,0,0,19,235.094,23.4087)"></path><path d="M1 0A1 1 0 1 1 1 -0.0001" fill="#5470c6" transform="matrix(19,0,0,19,305.2924,80.7263)"></path><path d="M-32.4922 -5l64.9844 0l0 33l-64.9844 0Z" fill="rgb(0,0,0)" fill-opacity="0" stroke="#ccc" stroke-width="0" transform="translate(237.5 5)"></path><text dominant-baseline="central" fill="#333" style="font-size:23px;font-family:sans-serif;font-weight:bolder;" text-anchor="middle" transform="translate(237.5 5)" y="11.5">C165</text></g></svg>