<svg baseprofile="full" height="250" style="position:absolute;left:0;top:0;user-select:none" version="1.1" width="475" xmlns="http://www.w3.org/2000/svg" xmlns:xlink="http://www.w3.org/1999/xlink"><rect fill="none" height="250" id="0" width="475" x="0" y="0"></rect><g><path d="M147.1679 42.6999L304.9902 171.8409" fill="none" stroke="#aaa" stroke-opacity="0.5"></path><path d="M304.9902 171.8409L105.9048 123.7115" fill="none" stroke="#aaa" stroke-opacity="0.5"></path><path d="M233.3806 227.1473L304.9902 171.8409" fill="none" stroke="#aaa" stroke-opacity="0.5"></path><path d="M305.327 81.607L304.9902 171.8409" fill="none" stroke="#aaa" stroke-opacity="0.5"></path><path d="M145.0536 205.445L105.9048 123.7115" fill="none" stroke="#aaa" stroke-opacity="0.5"></path><path d="M305.327 81.607L147.1679 42.6999" fill="none" stroke="#aaa" stroke-opacity="0.5"></path><path d="M147.1679 42.6999L233.3806 227.1473" fill="none" stroke="#aaa" stroke-opacity="0.5"></path><path d="M233.3806 227.1473L236.0571 22.5483" fill="none" stroke="#aaa" stroke-opacity="0.5"></path><path d="M147.1679 42.6999L145.0536 205.445" fill="none" stroke="#aaa" stroke-opacity="0.5"></path><path d="M145.0536 205.445L236.0571 22.5483" fill="none" stroke="#aaa" stroke-opacity="0.5"></path><path d="M233.3806 227.1473L145.0536 205.445" fill="none" stroke="#aaa" stroke-opacity="0.5"></path><path d="M305.327 81.607L233.3806 227.1473" fill="none" stroke="#aaa" stroke-opacity="0.5"></path><path d="M305.327 81.607L145.0536 205.445" fill="none" stroke="#aaa" stroke-opacity="0.5"></path><path d="M105.9048 123.7115L236.0571 22.5483" fill="none" stroke="#aaa" stroke-opacity="0.5"></path><path d="M145.0536 205.445L304.9902 171.8409" fill="none" stroke="#aaa" stroke-opacity="0.5"></path><path d="M147.1679 42.6999L105.9048 123.7115" fill="none" stroke="#aaa" stroke-opacity="0.5"></path><path d="M233.3806 227.1473L105.9048 123.7115" fill="none" stroke="#aaa" stroke-opacity="0.5"></path><path d="M304.9902 171.8409L236.0571 22.5483" fill="none" stroke="#aaa" stroke-opacity="0.5"></path><path d="M305.327 81.607L105.9048 123.7115" fill="none" stroke="#aaa" stroke-opacity="0.5"></path><path d="M147.1679 42.6999L236.0571 22.5483" fill="none" stroke="#aaa" stroke-opacity="0.5"></path><path d="M305.327 81.607L236.0571 22.5483" fill="none" stroke="#aaa" stroke-opacity="0.5"></path><path d="M1 0A1 1 0 1 1 1 -0.0001" fill="#5470c6" transform="matrix(19,0,0,19,304.9902,171.8409)"></path><path d="M1 0A1 1 0 1 1 1 -0.0001" fill="#5470c6" transform="matrix(19,0,0,19,233.3806,227.1473)"></path><path d="M1 0A1 1 0 1 1 1 -0.0001" fill="#5470c6" transform="matrix(19,0,0,19,145.0536,205.445)"></path><path d="M1 0A1 1 0 1 1 1 -0.0001" fill="#5470c6" transform="matrix(19,0,0,19,105.9048,123.7115)"></path><path d="M1 0A1 1 0 1 1 1 -0.0001" fill="#5470c6" transform="matrix(19,0,0,19,147.1679,42.6999)"></path><path d="M1 0A1 1 0 1 1 1 -0.0001" fill="#5470c6" transform="matrix(19,0,0,19,236.0571,22.5483)"></path><path d="M1 0A1 1 0 1 1 1 -0.0001" fill="#5470c6" transform="matrix(19,0,0,19,305.327,81.607)"></path><path d="M-32.4922 -5l64.9844 0l0 33l-64.9844 0Z" fill="rgb(0,0,0)" fill-opacity="0" stroke="#ccc" stroke-width="0" transform="translate(237.5 5)"></path><text dominant-baseline="central" fill="#333" style="font-size:23px;font-family:sans-serif;font-weight:bolder;" text-anchor="middle" transform="translate(237.5 5)" y="11.5">C166</text></g></svg>