<svg baseprofile="full" height="250" style="position:absolute;left:0;top:0;user-select:none" version="1.1" width="475" xmlns="http://www.w3.org/2000/svg" xmlns:xlink="http://www.w3.org/1999/xlink"><rect fill="none" height="250" id="0" width="475" x="0" y="0"></rect><g><path d="M144.0747 205.1094L306.4885 82.4733" fill="none" stroke="#aaa" stroke-opacity="0.5"></path><path d="M237.1048 23.2952L106.2052 121.8527" fill="none" stroke="#aaa" stroke-opacity="0.5"></path><path d="M148.6712 42.2787L106.2052 121.8527" fill="none" stroke="#aaa" stroke-opacity="0.5"></path><path d="M303.6963 172.4344L306.4885 82.4733" fill="none" stroke="#aaa" stroke-opacity="0.5"></path><path d="M231.6404 227.5563L237.1048 23.2952" fill="none" stroke="#aaa" stroke-opacity="0.5"></path><path d="M106.2052 121.8527L306.4885 82.4733" fill="none" stroke="#aaa" stroke-opacity="0.5"></path><path d="M303.6963 172.4344L237.1048 23.2952" fill="none" stroke="#aaa" stroke-opacity="0.5"></path><path d="M144.0747 205.1094L231.6404 227.5563" fill="none" stroke="#aaa" stroke-opacity="0.5"></path><path d="M303.6963 172.4344L231.6404 227.5563" fill="none" stroke="#aaa" stroke-opacity="0.5"></path><path d="M303.6963 172.4344L106.2052 121.8527" fill="none" stroke="#aaa" stroke-opacity="0.5"></path><path d="M237.1048 23.2952L148.6712 42.2787" fill="none" stroke="#aaa" stroke-opacity="0.5"></path><path d="M231.6404 227.5563L306.4885 82.4733" fill="none" stroke="#aaa" stroke-opacity="0.5"></path><path d="M303.6963 172.4344L144.0747 205.1094" fill="none" stroke="#aaa" stroke-opacity="0.5"></path><path d="M144.0747 205.1094L148.6712 42.2787" fill="none" stroke="#aaa" stroke-opacity="0.5"></path><path d="M303.6963 172.4344L148.6712 42.2787" fill="none" stroke="#aaa" stroke-opacity="0.5"></path><path d="M231.6404 227.5563L106.2052 121.8527" fill="none" stroke="#aaa" stroke-opacity="0.5"></path><path d="M237.1048 23.2952L306.4885 82.4733" fill="none" stroke="#aaa" stroke-opacity="0.5"></path><path d="M148.6712 42.2787L306.4885 82.4733" fill="none" stroke="#aaa" stroke-opacity="0.5"></path><path d="M144.0747 205.1094L237.1048 23.2952" fill="none" stroke="#aaa" stroke-opacity="0.5"></path><path d="M144.0747 205.1094L106.2052 121.8527" fill="none" stroke="#aaa" stroke-opacity="0.5"></path><path d="M231.6404 227.5563L148.6712 42.2787" fill="none" stroke="#aaa" stroke-opacity="0.5"></path><path d="M1 0A1 1 0 1 1 1 -0.0001" fill="#5470c6" transform="matrix(19,0,0,19,303.6963,172.4344)"></path><path d="M1 0A1 1 0 1 1 1 -0.0001" fill="#5470c6" transform="matrix(19,0,0,19,231.6404,227.5563)"></path><path d="M1 0A1 1 0 1 1 1 -0.0001" fill="#5470c6" transform="matrix(19,0,0,19,144.0747,205.1094)"></path><path d="M1 0A1 1 0 1 1 1 -0.0001" fill="#5470c6" transform="matrix(19,0,0,19,106.2052,121.8527)"></path><path d="M1 0A1 1 0 1 1 1 -0.0001" fill="#5470c6" transform="matrix(19,0,0,19,148.6712,42.2787)"></path><path d="M1 0A1 1 0 1 1 1 -0.0001" fill="#5470c6" transform="matrix(19,0,0,19,237.1048,23.2952)"></path><path d="M1 0A1 1 0 1 1 1 -0.0001" fill="#5470c6" transform="matrix(19,0,0,19,306.4885,82.4733)"></path><path d="M-32.4922 -5l64.9844 0l0 33l-64.9844 0Z" fill="rgb(0,0,0)" fill-opacity="0" stroke="#ccc" stroke-width="0" transform="translate(237.5 5)"></path><text dominant-baseline="central" fill="#333" style="font-size:23px;font-family:sans-serif;font-weight:bolder;" text-anchor="middle" transform="translate(237.5 5)" y="11.5">C167</text></g></svg>