<svg baseprofile="full" height="250" style="position:absolute;left:0;top:0;user-select:none" version="1.1" width="475" xmlns="http://www.w3.org/2000/svg" xmlns:xlink="http://www.w3.org/1999/xlink"><rect fill="none" height="250" id="0" width="475" x="0" y="0"></rect><g><path d="M233.2894 23.0943L106.9104 126.0821" fill="none" stroke="#aaa" stroke-opacity="0.5"></path><path d="M144.7599 43.4875L305.8724 169.3757" fill="none" stroke="#aaa" stroke-opacity="0.5"></path><path d="M144.7599 43.4875L304.8592 78.9057" fill="none" stroke="#aaa" stroke-opacity="0.5"></path><path d="M305.8724 169.3757L304.8592 78.9057" fill="none" stroke="#aaa" stroke-opacity="0.5"></path><path d="M146.3031 207.7963L233.2894 23.0943" fill="none" stroke="#aaa" stroke-opacity="0.5"></path><path d="M144.7599 43.4875L235.8866 226.2584" fill="none" stroke="#aaa" stroke-opacity="0.5"></path><path d="M305.8724 169.3757L235.8866 226.2584" fill="none" stroke="#aaa" stroke-opacity="0.5"></path><path d="M233.2894 23.0943L305.8724 169.3757" fill="none" stroke="#aaa" stroke-opacity="0.5"></path><path d="M304.8592 78.9057L235.8866 226.2584" fill="none" stroke="#aaa" stroke-opacity="0.5"></path><path d="M305.8724 169.3757L106.9104 126.0821" fill="none" stroke="#aaa" stroke-opacity="0.5"></path><path d="M233.2894 23.0943L304.8592 78.9057" fill="none" stroke="#aaa" stroke-opacity="0.5"></path><path d="M144.7599 43.4875L233.2894 23.0943" fill="none" stroke="#aaa" stroke-opacity="0.5"></path><path d="M233.2894 23.0943L235.8866 226.2584" fill="none" stroke="#aaa" stroke-opacity="0.5"></path><path d="M106.9104 126.0821L304.8592 78.9057" fill="none" stroke="#aaa" stroke-opacity="0.5"></path><path d="M106.9104 126.0821L235.8866 226.2584" fill="none" stroke="#aaa" stroke-opacity="0.5"></path><path d="M146.3031 207.7963L106.9104 126.0821" fill="none" stroke="#aaa" stroke-opacity="0.5"></path><path d="M144.7599 43.4875L146.3031 207.7963" fill="none" stroke="#aaa" stroke-opacity="0.5"></path><path d="M144.7599 43.4875L106.9104 126.0821" fill="none" stroke="#aaa" stroke-opacity="0.5"></path><path d="M146.3031 207.7963L305.8724 169.3757" fill="none" stroke="#aaa" stroke-opacity="0.5"></path><path d="M146.3031 207.7963L304.8592 78.9057" fill="none" stroke="#aaa" stroke-opacity="0.5"></path><path d="M146.3031 207.7963L235.8866 226.2584" fill="none" stroke="#aaa" stroke-opacity="0.5"></path><path d="M1 0A1 1 0 1 1 1 -0.0001" fill="#5470c6" transform="matrix(19,0,0,19,305.8724,169.3757)"></path><path d="M1 0A1 1 0 1 1 1 -0.0001" fill="#5470c6" transform="matrix(19,0,0,19,235.8866,226.2584)"></path><path d="M1 0A1 1 0 1 1 1 -0.0001" fill="#5470c6" transform="matrix(19,0,0,19,146.3031,207.7963)"></path><path d="M1 0A1 1 0 1 1 1 -0.0001" fill="#5470c6" transform="matrix(19,0,0,19,106.9104,126.0821)"></path><path d="M1 0A1 1 0 1 1 1 -0.0001" fill="#5470c6" transform="matrix(19,0,0,19,144.7599,43.4875)"></path><path d="M1 0A1 1 0 1 1 1 -0.0001" fill="#5470c6" transform="matrix(19,0,0,19,233.2894,23.0943)"></path><path d="M1 0A1 1 0 1 1 1 -0.0001" fill="#5470c6" transform="matrix(19,0,0,19,304.8592,78.9057)"></path><path d="M-32.4922 -5l64.9844 0l0 33l-64.9844 0Z" fill="rgb(0,0,0)" fill-opacity="0" stroke="#ccc" stroke-width="0" transform="translate(237.5 5)"></path><text dominant-baseline="central" fill="#333" style="font-size:23px;font-family:sans-serif;font-weight:bolder;" text-anchor="middle" transform="translate(237.5 5)" y="11.5">C168</text></g></svg>