<svg baseprofile="full" height="250" style="position:absolute;left:0;top:0;user-select:none" version="1.1" width="475" xmlns="http://www.w3.org/2000/svg" xmlns:xlink="http://www.w3.org/1999/xlink"><rect fill="none" height="250" id="0" width="475" x="0" y="0"></rect><g><path d="M305.2049 177.8652L212.8486 233.2884" fill="none" stroke="#aaa" stroke-opacity="0.5"></path><path d="M118.1415 180.3793L305.2049 177.8652" fill="none" stroke="#aaa" stroke-opacity="0.5"></path><path d="M305.2049 177.8652L116.7379 71.8072" fill="none" stroke="#aaa" stroke-opacity="0.5"></path><path d="M304.0311 69.3588L209.7912 17.3011" fill="none" stroke="#aaa" stroke-opacity="0.5"></path><path d="M116.7379 71.8072L209.7912 17.3011" fill="none" stroke="#aaa" stroke-opacity="0.5"></path><path d="M304.0311 69.3588L212.8486 233.2884" fill="none" stroke="#aaa" stroke-opacity="0.5"></path><path d="M116.7379 71.8072L212.8486 233.2884" fill="none" stroke="#aaa" stroke-opacity="0.5"></path><path d="M118.1415 180.3793L209.7912 17.3011" fill="none" stroke="#aaa" stroke-opacity="0.5"></path><path d="M304.0311 69.3588L116.7379 71.8072" fill="none" stroke="#aaa" stroke-opacity="0.5"></path><path d="M304.0311 69.3588L118.1415 180.3793" fill="none" stroke="#aaa" stroke-opacity="0.5"></path><path d="M304.0311 69.3588L305.2049 177.8652" fill="none" stroke="#aaa" stroke-opacity="0.5"></path><path d="M305.2049 177.8652L209.7912 17.3011" fill="none" stroke="#aaa" stroke-opacity="0.5"></path><path d="M209.7912 17.3011L212.8486 233.2884" fill="none" stroke="#aaa" stroke-opacity="0.5"></path><path d="M118.1415 180.3793L212.8486 233.2884" fill="none" stroke="#aaa" stroke-opacity="0.5"></path><path d="M118.1415 180.3793L116.7379 71.8072" fill="none" stroke="#aaa" stroke-opacity="0.5"></path><path d="M1 0A1 1 0 1 1 1 -0.0001" fill="#5470c6" transform="matrix(19.5,0,0,19.5,305.2049,177.8652)"></path><path d="M1 0A1 1 0 1 1 1 -0.0001" fill="#5470c6" transform="matrix(19.5,0,0,19.5,212.8486,233.2884)"></path><path d="M1 0A1 1 0 1 1 1 -0.0001" fill="#5470c6" transform="matrix(19.5,0,0,19.5,118.1415,180.3793)"></path><path d="M1 0A1 1 0 1 1 1 -0.0001" fill="#5470c6" transform="matrix(19.5,0,0,19.5,116.7379,71.8072)"></path><path d="M1 0A1 1 0 1 1 1 -0.0001" fill="#5470c6" transform="matrix(19.5,0,0,19.5,209.7912,17.3011)"></path><path d="M1 0A1 1 0 1 1 1 -0.0001" fill="#5470c6" transform="matrix(19.5,0,0,19.5,304.0311,69.3588)"></path><path d="M-32.4922 -5l64.9844 0l0 33l-64.9844 0Z" fill="rgb(0,0,0)" fill-opacity="0" stroke="#ccc" stroke-width="0" transform="translate(237.5 5)"></path><text dominant-baseline="central" fill="#333" style="font-size:23px;font-family:sans-serif;font-weight:bolder;" text-anchor="middle" transform="translate(237.5 5)" y="11.5">C169</text></g></svg>