<svg baseprofile="full" height="250" style="position:absolute;left:0;top:0;user-select:none" version="1.1" width="475" xmlns="http://www.w3.org/2000/svg" xmlns:xlink="http://www.w3.org/1999/xlink"><rect fill="none" height="250" id="0" width="475" x="0" y="0"></rect><g><path d="M266.4171 125.1612L303.8735 153.6705" fill="none" stroke="#aaa" stroke-opacity="0.5" stroke-width="0.5"></path><path d="M138.8326 62.8333L249.6931 169.8711" fill="none" stroke="#aaa" stroke-opacity="0.5" stroke-width="0.5"></path><path d="M238.5594 32.3496L288.1417 189.2461" fill="none" stroke="#aaa" stroke-opacity="0.5" stroke-width="0.5"></path><path d="M182.2401 217.0087L211.2678 121.8125" fill="none" stroke="#aaa" stroke-opacity="0.5" stroke-width="0.5"></path><path d="M303.8735 153.6705L254.1563 213.1368" fill="none" stroke="#aaa" stroke-opacity="0.5" stroke-width="0.5"></path><path d="M218.4749 220.4994L273.5569 48.3496" fill="none" stroke="#aaa" stroke-opacity="0.5" stroke-width="0.5"></path><path d="M150.3796 199.5514L203.291 174.7444" fill="none" stroke="#aaa" stroke-opacity="0.5" stroke-width="0.5"></path><path d="M254.1563 213.1368L202.6322 27.4064" fill="none" stroke="#aaa" stroke-opacity="0.5" stroke-width="0.5"></path><path d="M138.8326 62.8333L182.2401 217.0087" fill="none" stroke="#aaa" stroke-opacity="0.5" stroke-width="0.5"></path><path d="M203.291 174.7444L254.1563 213.1368" fill="none" stroke="#aaa" stroke-opacity="0.5" stroke-width="0.5"></path><path d="M211.2678 121.8125L203.291 174.7444" fill="none" stroke="#aaa" stroke-opacity="0.5" stroke-width="0.5"></path><path d="M113.015 133.3938L238.5594 32.3496" fill="none" stroke="#aaa" stroke-opacity="0.5" stroke-width="0.5"></path><path d="M113.015 133.3938L138.8326 62.8333" fill="none" stroke="#aaa" stroke-opacity="0.5" stroke-width="0.5"></path><path d="M138.8326 62.8333L266.4171 125.1612" fill="none" stroke="#aaa" stroke-opacity="0.5" stroke-width="0.5"></path><path d="M308.2542 114.4254L254.1563 213.1368" fill="none" stroke="#aaa" stroke-opacity="0.5" stroke-width="0.5"></path><path d="M158.2527 106.2661L245.1307 81.7063" fill="none" stroke="#aaa" stroke-opacity="0.5" stroke-width="0.5"></path><path d="M238.5594 32.3496L303.8735 153.6705" fill="none" stroke="#aaa" stroke-opacity="0.5" stroke-width="0.5"></path><path d="M123.8618 171.548L288.1417 189.2461" fill="none" stroke="#aaa" stroke-opacity="0.5" stroke-width="0.5"></path><path d="M113.015 133.3938L308.2542 114.4254" fill="none" stroke="#aaa" stroke-opacity="0.5" stroke-width="0.5"></path><path d="M182.2401 217.0087L203.291 174.7444" fill="none" stroke="#aaa" stroke-opacity="0.5" stroke-width="0.5"></path><path d="M238.5594 32.3496L218.4749 220.4994" fill="none" stroke="#aaa" stroke-opacity="0.5" stroke-width="0.5"></path><path d="M163.1454 152.1114L117.6567 94.5877" fill="none" stroke="#aaa" stroke-opacity="0.5" stroke-width="0.5"></path><path d="M113.015 133.3938L288.1417 189.2461" fill="none" stroke="#aaa" stroke-opacity="0.5" stroke-width="0.5"></path><path d="M158.2527 106.2661L123.8618 171.548" fill="none" stroke="#aaa" stroke-opacity="0.5" stroke-width="0.5"></path><path d="M138.8326 62.8333L117.6567 94.5877" fill="none" stroke="#aaa" stroke-opacity="0.5" stroke-width="0.5"></path><path d="M164.7272 38.6506L288.1417 189.2461" fill="none" stroke="#aaa" stroke-opacity="0.5" stroke-width="0.5"></path><path d="M296.8183 79.1264L249.6931 169.8711" fill="none" stroke="#aaa" stroke-opacity="0.5" stroke-width="0.5"></path><path d="M266.4171 125.1612L211.2678 121.8125" fill="none" stroke="#aaa" stroke-opacity="0.5" stroke-width="0.5"></path><path d="M158.2527 106.2661L163.1454 152.1114" fill="none" stroke="#aaa" stroke-opacity="0.5" stroke-width="0.5"></path><path d="M150.3796 199.5514L266.4171 125.1612" fill="none" stroke="#aaa" stroke-opacity="0.5" stroke-width="0.5"></path><path d="M113.015 133.3938L303.8735 153.6705" fill="none" stroke="#aaa" stroke-opacity="0.5" stroke-width="0.5"></path><path d="M296.8183 79.1264L182.2401 217.0087" fill="none" stroke="#aaa" stroke-opacity="0.5" stroke-width="0.5"></path><path d="M303.8735 153.6705L249.6931 169.8711" fill="none" stroke="#aaa" stroke-opacity="0.5" stroke-width="0.5"></path><path d="M296.8183 79.1264L245.1307 81.7063" fill="none" stroke="#aaa" stroke-opacity="0.5" stroke-width="0.5"></path><path d="M164.7272 38.6506L303.8735 153.6705" fill="none" stroke="#aaa" stroke-opacity="0.5" stroke-width="0.5"></path><path d="M194.6427 72.5432L254.1563 213.1368" fill="none" stroke="#aaa" stroke-opacity="0.5" stroke-width="0.5"></path><path d="M113.015 133.3938L218.4749 220.4994" fill="none" stroke="#aaa" stroke-opacity="0.5" stroke-width="0.5"></path><path d="M203.291 174.7444L249.6931 169.8711" fill="none" stroke="#aaa" stroke-opacity="0.5" stroke-width="0.5"></path><path d="M238.5594 32.3496L211.2678 121.8125" fill="none" stroke="#aaa" stroke-opacity="0.5" stroke-width="0.5"></path><path d="M163.1454 152.1114L202.6322 27.4064" fill="none" stroke="#aaa" stroke-opacity="0.5" stroke-width="0.5"></path><path d="M266.4171 125.1612L203.291 174.7444" fill="none" stroke="#aaa" stroke-opacity="0.5" stroke-width="0.5"></path><path d="M150.3796 199.5514L117.6567 94.5877" fill="none" stroke="#aaa" stroke-opacity="0.5" stroke-width="0.5"></path><path d="M182.2401 217.0087L266.4171 125.1612" fill="none" stroke="#aaa" stroke-opacity="0.5" stroke-width="0.5"></path><path d="M138.8326 62.8333L202.6322 27.4064" fill="none" stroke="#aaa" stroke-opacity="0.5" stroke-width="0.5"></path><path d="M203.291 174.7444L245.1307 81.7063" fill="none" stroke="#aaa" stroke-opacity="0.5" stroke-width="0.5"></path><path d="M211.2678 121.8125L117.6567 94.5877" fill="none" stroke="#aaa" stroke-opacity="0.5" stroke-width="0.5"></path><path d="M211.2678 121.8125L245.1307 81.7063" fill="none" stroke="#aaa" stroke-opacity="0.5" stroke-width="0.5"></path><path d="M308.2542 114.4254L245.1307 81.7063" fill="none" stroke="#aaa" stroke-opacity="0.5" stroke-width="0.5"></path><path d="M218.4749 220.4994L254.1563 213.1368" fill="none" stroke="#aaa" stroke-opacity="0.5" stroke-width="0.5"></path><path d="M296.8183 79.1264L163.1454 152.1114" fill="none" stroke="#aaa" stroke-opacity="0.5" stroke-width="0.5"></path><path d="M203.291 174.7444L123.8618 171.548" fill="none" stroke="#aaa" stroke-opacity="0.5" stroke-width="0.5"></path><path d="M113.015 133.3938L296.8183 79.1264" fill="none" stroke="#aaa" stroke-opacity="0.5" stroke-width="0.5"></path><path d="M182.2401 217.0087L117.6567 94.5877" fill="none" stroke="#aaa" stroke-opacity="0.5" stroke-width="0.5"></path><path d="M211.2678 121.8125L123.8618 171.548" fill="none" stroke="#aaa" stroke-opacity="0.5" stroke-width="0.5"></path><path d="M238.5594 32.3496L203.291 174.7444" fill="none" stroke="#aaa" stroke-opacity="0.5" stroke-width="0.5"></path><path d="M308.2542 114.4254L123.8618 171.548" fill="none" stroke="#aaa" stroke-opacity="0.5" stroke-width="0.5"></path><path d="M158.2527 106.2661L238.5594 32.3496" fill="none" stroke="#aaa" stroke-opacity="0.5" stroke-width="0.5"></path><path d="M158.2527 106.2661L138.8326 62.8333" fill="none" stroke="#aaa" stroke-opacity="0.5" stroke-width="0.5"></path><path d="M113.015 133.3938L211.2678 121.8125" fill="none" stroke="#aaa" stroke-opacity="0.5" stroke-width="0.5"></path><path d="M203.291 174.7444L163.1454 152.1114" fill="none" stroke="#aaa" stroke-opacity="0.5" stroke-width="0.5"></path><path d="M158.2527 106.2661L308.2542 114.4254" fill="none" stroke="#aaa" stroke-opacity="0.5" stroke-width="0.5"></path><path d="M150.3796 199.5514L202.6322 27.4064" fill="none" stroke="#aaa" stroke-opacity="0.5" stroke-width="0.5"></path><path d="M211.2678 121.8125L163.1454 152.1114" fill="none" stroke="#aaa" stroke-opacity="0.5" stroke-width="0.5"></path><path d="M182.2401 217.0087L123.8618 171.548" fill="none" stroke="#aaa" stroke-opacity="0.5" stroke-width="0.5"></path><path d="M138.8326 62.8333L164.7272 38.6506" fill="none" stroke="#aaa" stroke-opacity="0.5" stroke-width="0.5"></path><path d="M308.2542 114.4254L163.1454 152.1114" fill="none" stroke="#aaa" stroke-opacity="0.5" stroke-width="0.5"></path><path d="M138.8326 62.8333L194.6427 72.5432" fill="none" stroke="#aaa" stroke-opacity="0.5" stroke-width="0.5"></path><path d="M273.5569 48.3496L117.6567 94.5877" fill="none" stroke="#aaa" stroke-opacity="0.5" stroke-width="0.5"></path><path d="M158.2527 106.2661L288.1417 189.2461" fill="none" stroke="#aaa" stroke-opacity="0.5" stroke-width="0.5"></path><path d="M194.6427 72.5432L117.6567 94.5877" fill="none" stroke="#aaa" stroke-opacity="0.5" stroke-width="0.5"></path><path d="M194.6427 72.5432L245.1307 81.7063" fill="none" stroke="#aaa" stroke-opacity="0.5" stroke-width="0.5"></path><path d="M113.015 133.3938L203.291 174.7444" fill="none" stroke="#aaa" stroke-opacity="0.5" stroke-width="0.5"></path><path d="M303.8735 153.6705L202.6322 27.4064" fill="none" stroke="#aaa" stroke-opacity="0.5" stroke-width="0.5"></path><path d="M164.7272 38.6506L203.291 174.7444" fill="none" stroke="#aaa" stroke-opacity="0.5" stroke-width="0.5"></path><path d="M273.5569 48.3496L123.8618 171.548" fill="none" stroke="#aaa" stroke-opacity="0.5" stroke-width="0.5"></path><path d="M138.8326 62.8333L273.5569 48.3496" fill="none" stroke="#aaa" stroke-opacity="0.5" stroke-width="0.5"></path><path d="M218.4749 220.4994L249.6931 169.8711" fill="none" stroke="#aaa" stroke-opacity="0.5" stroke-width="0.5"></path><path d="M158.2527 106.2661L303.8735 153.6705" fill="none" stroke="#aaa" stroke-opacity="0.5" stroke-width="0.5"></path><path d="M266.4171 125.1612L117.6567 94.5877" fill="none" stroke="#aaa" stroke-opacity="0.5" stroke-width="0.5"></path><path d="M249.6931 169.8711L117.6567 94.5877" fill="none" stroke="#aaa" stroke-opacity="0.5" stroke-width="0.5"></path><path d="M194.6427 72.5432L123.8618 171.548" fill="none" stroke="#aaa" stroke-opacity="0.5" stroke-width="0.5"></path><path d="M238.5594 32.3496L266.4171 125.1612" fill="none" stroke="#aaa" stroke-opacity="0.5" stroke-width="0.5"></path><path d="M296.8183 79.1264L308.2542 114.4254" fill="none" stroke="#aaa" stroke-opacity="0.5" stroke-width="0.5"></path><path d="M218.4749 220.4994L182.2401 217.0087" fill="none" stroke="#aaa" stroke-opacity="0.5" stroke-width="0.5"></path><path d="M150.3796 199.5514L164.7272 38.6506" fill="none" stroke="#aaa" stroke-opacity="0.5" stroke-width="0.5"></path><path d="M218.4749 220.4994L245.1307 81.7063" fill="none" stroke="#aaa" stroke-opacity="0.5" stroke-width="0.5"></path><path d="M158.2527 106.2661L218.4749 220.4994" fill="none" stroke="#aaa" stroke-opacity="0.5" stroke-width="0.5"></path><path d="M150.3796 199.5514L194.6427 72.5432" fill="none" stroke="#aaa" stroke-opacity="0.5" stroke-width="0.5"></path><path d="M202.6322 27.4064L245.1307 81.7063" fill="none" stroke="#aaa" stroke-opacity="0.5" stroke-width="0.5"></path><path d="M273.5569 48.3496L202.6322 27.4064" fill="none" stroke="#aaa" stroke-opacity="0.5" stroke-width="0.5"></path><path d="M296.8183 79.1264L164.7272 38.6506" fill="none" stroke="#aaa" stroke-opacity="0.5" stroke-width="0.5"></path><path d="M194.6427 72.5432L163.1454 152.1114" fill="none" stroke="#aaa" stroke-opacity="0.5" stroke-width="0.5"></path><path d="M211.2678 121.8125L194.6427 72.5432" fill="none" stroke="#aaa" stroke-opacity="0.5" stroke-width="0.5"></path><path d="M123.8618 171.548L245.1307 81.7063" fill="none" stroke="#aaa" stroke-opacity="0.5" stroke-width="0.5"></path><path d="M164.7272 38.6506L249.6931 169.8711" fill="none" stroke="#aaa" stroke-opacity="0.5" stroke-width="0.5"></path><path d="M218.4749 220.4994L123.8618 171.548" fill="none" stroke="#aaa" stroke-opacity="0.5" stroke-width="0.5"></path><path d="M238.5594 32.3496L117.6567 94.5877" fill="none" stroke="#aaa" stroke-opacity="0.5" stroke-width="0.5"></path><path d="M150.3796 199.5514L273.5569 48.3496" fill="none" stroke="#aaa" stroke-opacity="0.5" stroke-width="0.5"></path><path d="M288.1417 189.2461L245.1307 81.7063" fill="none" stroke="#aaa" stroke-opacity="0.5" stroke-width="0.5"></path><path d="M182.2401 217.0087L194.6427 72.5432" fill="none" stroke="#aaa" stroke-opacity="0.5" stroke-width="0.5"></path><path d="M113.015 133.3938L266.4171 125.1612" fill="none" stroke="#aaa" stroke-opacity="0.5" stroke-width="0.5"></path><path d="M266.4171 125.1612L202.6322 27.4064" fill="none" stroke="#aaa" stroke-opacity="0.5" stroke-width="0.5"></path><path d="M296.8183 79.1264L273.5569 48.3496" fill="none" stroke="#aaa" stroke-opacity="0.5" stroke-width="0.5"></path><path d="M249.6931 169.8711L202.6322 27.4064" fill="none" stroke="#aaa" stroke-opacity="0.5" stroke-width="0.5"></path><path d="M203.291 174.7444L288.1417 189.2461" fill="none" stroke="#aaa" stroke-opacity="0.5" stroke-width="0.5"></path><path d="M218.4749 220.4994L163.1454 152.1114" fill="none" stroke="#aaa" stroke-opacity="0.5" stroke-width="0.5"></path><path d="M158.2527 106.2661L296.8183 79.1264" fill="none" stroke="#aaa" stroke-opacity="0.5" stroke-width="0.5"></path><path d="M211.2678 121.8125L288.1417 189.2461" fill="none" stroke="#aaa" stroke-opacity="0.5" stroke-width="0.5"></path><path d="M138.8326 62.8333L211.2678 121.8125" fill="none" stroke="#aaa" stroke-opacity="0.5" stroke-width="0.5"></path><path d="M308.2542 114.4254L288.1417 189.2461" fill="none" stroke="#aaa" stroke-opacity="0.5" stroke-width="0.5"></path><path d="M123.8618 171.548L163.1454 152.1114" fill="none" stroke="#aaa" stroke-opacity="0.5" stroke-width="0.5"></path><path d="M303.8735 153.6705L273.5569 48.3496" fill="none" stroke="#aaa" stroke-opacity="0.5" stroke-width="0.5"></path><path d="M273.5569 48.3496L194.6427 72.5432" fill="none" stroke="#aaa" stroke-opacity="0.5" stroke-width="0.5"></path><path d="M113.015 133.3938L117.6567 94.5877" fill="none" stroke="#aaa" stroke-opacity="0.5" stroke-width="0.5"></path><path d="M203.291 174.7444L303.8735 153.6705" fill="none" stroke="#aaa" stroke-opacity="0.5" stroke-width="0.5"></path><path d="M182.2401 217.0087L288.1417 189.2461" fill="none" stroke="#aaa" stroke-opacity="0.5" stroke-width="0.5"></path><path d="M238.5594 32.3496L202.6322 27.4064" fill="none" stroke="#aaa" stroke-opacity="0.5" stroke-width="0.5"></path><path d="M211.2678 121.8125L303.8735 153.6705" fill="none" stroke="#aaa" stroke-opacity="0.5" stroke-width="0.5"></path><path d="M164.7272 38.6506L117.6567 94.5877" fill="none" stroke="#aaa" stroke-opacity="0.5" stroke-width="0.5"></path><path d="M308.2542 114.4254L303.8735 153.6705" fill="none" stroke="#aaa" stroke-opacity="0.5" stroke-width="0.5"></path><path d="M254.1563 213.1368L245.1307 81.7063" fill="none" stroke="#aaa" stroke-opacity="0.5" stroke-width="0.5"></path><path d="M138.8326 62.8333L254.1563 213.1368" fill="none" stroke="#aaa" stroke-opacity="0.5" stroke-width="0.5"></path><path d="M266.4171 125.1612L164.7272 38.6506" fill="none" stroke="#aaa" stroke-opacity="0.5" stroke-width="0.5"></path><path d="M158.2527 106.2661L203.291 174.7444" fill="none" stroke="#aaa" stroke-opacity="0.5" stroke-width="0.5"></path><path d="M266.4171 125.1612L194.6427 72.5432" fill="none" stroke="#aaa" stroke-opacity="0.5" stroke-width="0.5"></path><path d="M182.2401 217.0087L303.8735 153.6705" fill="none" stroke="#aaa" stroke-opacity="0.5" stroke-width="0.5"></path><path d="M273.5569 48.3496L288.1417 189.2461" fill="none" stroke="#aaa" stroke-opacity="0.5" stroke-width="0.5"></path><path d="M296.8183 79.1264L211.2678 121.8125" fill="none" stroke="#aaa" stroke-opacity="0.5" stroke-width="0.5"></path><path d="M194.6427 72.5432L288.1417 189.2461" fill="none" stroke="#aaa" stroke-opacity="0.5" stroke-width="0.5"></path><path d="M254.1563 213.1368L123.8618 171.548" fill="none" stroke="#aaa" stroke-opacity="0.5" stroke-width="0.5"></path><path d="M113.015 133.3938L202.6322 27.4064" fill="none" stroke="#aaa" stroke-opacity="0.5" stroke-width="0.5"></path><path d="M266.4171 125.1612L273.5569 48.3496" fill="none" stroke="#aaa" stroke-opacity="0.5" stroke-width="0.5"></path><path d="M218.4749 220.4994L308.2542 114.4254" fill="none" stroke="#aaa" stroke-opacity="0.5" stroke-width="0.5"></path><path d="M164.7272 38.6506L202.6322 27.4064" fill="none" stroke="#aaa" stroke-opacity="0.5" stroke-width="0.5"></path><path d="M238.5594 32.3496L164.7272 38.6506" fill="none" stroke="#aaa" stroke-opacity="0.5" stroke-width="0.5"></path><path d="M238.5594 32.3496L194.6427 72.5432" fill="none" stroke="#aaa" stroke-opacity="0.5" stroke-width="0.5"></path><path d="M254.1563 213.1368L163.1454 152.1114" fill="none" stroke="#aaa" stroke-opacity="0.5" stroke-width="0.5"></path><path d="M158.2527 106.2661L249.6931 169.8711" fill="none" stroke="#aaa" stroke-opacity="0.5" stroke-width="0.5"></path><path d="M150.3796 199.5514L254.1563 213.1368" fill="none" stroke="#aaa" stroke-opacity="0.5" stroke-width="0.5"></path><path d="M218.4749 220.4994L288.1417 189.2461" fill="none" stroke="#aaa" stroke-opacity="0.5" stroke-width="0.5"></path><path d="M296.8183 79.1264L203.291 174.7444" fill="none" stroke="#aaa" stroke-opacity="0.5" stroke-width="0.5"></path><path d="M211.2678 121.8125L254.1563 213.1368" fill="none" stroke="#aaa" stroke-opacity="0.5" stroke-width="0.5"></path><path d="M158.2527 106.2661L182.2401 217.0087" fill="none" stroke="#aaa" stroke-opacity="0.5" stroke-width="0.5"></path><path d="M238.5594 32.3496L273.5569 48.3496" fill="none" stroke="#aaa" stroke-opacity="0.5" stroke-width="0.5"></path><path d="M158.2527 106.2661L266.4171 125.1612" fill="none" stroke="#aaa" stroke-opacity="0.5" stroke-width="0.5"></path><path d="M218.4749 220.4994L303.8735 153.6705" fill="none" stroke="#aaa" stroke-opacity="0.5" stroke-width="0.5"></path><path d="M113.015 133.3938L164.7272 38.6506" fill="none" stroke="#aaa" stroke-opacity="0.5" stroke-width="0.5"></path><path d="M182.2401 217.0087L254.1563 213.1368" fill="none" stroke="#aaa" stroke-opacity="0.5" stroke-width="0.5"></path><path d="M113.015 133.3938L194.6427 72.5432" fill="none" stroke="#aaa" stroke-opacity="0.5" stroke-width="0.5"></path><path d="M163.1454 152.1114L245.1307 81.7063" fill="none" stroke="#aaa" stroke-opacity="0.5" stroke-width="0.5"></path><path d="M164.7272 38.6506L194.6427 72.5432" fill="none" stroke="#aaa" stroke-opacity="0.5" stroke-width="0.5"></path><path d="M138.8326 62.8333L245.1307 81.7063" fill="none" stroke="#aaa" stroke-opacity="0.5" stroke-width="0.5"></path><path d="M308.2542 114.4254L203.291 174.7444" fill="none" stroke="#aaa" stroke-opacity="0.5" stroke-width="0.5"></path><path d="M158.2527 106.2661L117.6567 94.5877" fill="none" stroke="#aaa" stroke-opacity="0.5" stroke-width="0.5"></path><path d="M117.6567 94.5877L202.6322 27.4064" fill="none" stroke="#aaa" stroke-opacity="0.5" stroke-width="0.5"></path><path d="M113.015 133.3938L273.5569 48.3496" fill="none" stroke="#aaa" stroke-opacity="0.5" stroke-width="0.5"></path><path d="M273.5569 48.3496L254.1563 213.1368" fill="none" stroke="#aaa" stroke-opacity="0.5" stroke-width="0.5"></path><path d="M138.8326 62.8333L123.8618 171.548" fill="none" stroke="#aaa" stroke-opacity="0.5" stroke-width="0.5"></path><path d="M296.8183 79.1264L266.4171 125.1612" fill="none" stroke="#aaa" stroke-opacity="0.5" stroke-width="0.5"></path><path d="M164.7272 38.6506L273.5569 48.3496" fill="none" stroke="#aaa" stroke-opacity="0.5" stroke-width="0.5"></path><path d="M150.3796 199.5514L249.6931 169.8711" fill="none" stroke="#aaa" stroke-opacity="0.5" stroke-width="0.5"></path><path d="M113.015 133.3938L150.3796 199.5514" fill="none" stroke="#aaa" stroke-opacity="0.5" stroke-width="0.5"></path><path d="M211.2678 121.8125L249.6931 169.8711" fill="none" stroke="#aaa" stroke-opacity="0.5" stroke-width="0.5"></path><path d="M308.2542 114.4254L249.6931 169.8711" fill="none" stroke="#aaa" stroke-opacity="0.5" stroke-width="0.5"></path><path d="M138.8326 62.8333L163.1454 152.1114" fill="none" stroke="#aaa" stroke-opacity="0.5" stroke-width="0.5"></path><path d="M150.3796 199.5514L182.2401 217.0087" fill="none" stroke="#aaa" stroke-opacity="0.5" stroke-width="0.5"></path><path d="M150.3796 199.5514L245.1307 81.7063" fill="none" stroke="#aaa" stroke-opacity="0.5" stroke-width="0.5"></path><path d="M254.1563 213.1368L288.1417 189.2461" fill="none" stroke="#aaa" stroke-opacity="0.5" stroke-width="0.5"></path><path d="M266.4171 125.1612L254.1563 213.1368" fill="none" stroke="#aaa" stroke-opacity="0.5" stroke-width="0.5"></path><path d="M249.6931 169.8711L254.1563 213.1368" fill="none" stroke="#aaa" stroke-opacity="0.5" stroke-width="0.5"></path><path d="M218.4749 220.4994L211.2678 121.8125" fill="none" stroke="#aaa" stroke-opacity="0.5" stroke-width="0.5"></path><path d="M296.8183 79.1264L117.6567 94.5877" fill="none" stroke="#aaa" stroke-opacity="0.5" stroke-width="0.5"></path><path d="M158.2527 106.2661L202.6322 27.4064" fill="none" stroke="#aaa" stroke-opacity="0.5" stroke-width="0.5"></path><path d="M308.2542 114.4254L182.2401 217.0087" fill="none" stroke="#aaa" stroke-opacity="0.5" stroke-width="0.5"></path><path d="M182.2401 217.0087L249.6931 169.8711" fill="none" stroke="#aaa" stroke-opacity="0.5" stroke-width="0.5"></path><path d="M308.2542 114.4254L266.4171 125.1612" fill="none" stroke="#aaa" stroke-opacity="0.5" stroke-width="0.5"></path><path d="M150.3796 199.5514L123.8618 171.548" fill="none" stroke="#aaa" stroke-opacity="0.5" stroke-width="0.5"></path><path d="M303.8735 153.6705L117.6567 94.5877" fill="none" stroke="#aaa" stroke-opacity="0.5" stroke-width="0.5"></path><path d="M303.8735 153.6705L245.1307 81.7063" fill="none" stroke="#aaa" stroke-opacity="0.5" stroke-width="0.5"></path><path d="M296.8183 79.1264L123.8618 171.548" fill="none" stroke="#aaa" stroke-opacity="0.5" stroke-width="0.5"></path><path d="M182.2401 217.0087L245.1307 81.7063" fill="none" stroke="#aaa" stroke-opacity="0.5" stroke-width="0.5"></path><path d="M238.5594 32.3496L254.1563 213.1368" fill="none" stroke="#aaa" stroke-opacity="0.5" stroke-width="0.5"></path><path d="M203.291 174.7444L117.6567 94.5877" fill="none" stroke="#aaa" stroke-opacity="0.5" stroke-width="0.5"></path><path d="M150.3796 199.5514L163.1454 152.1114" fill="none" stroke="#aaa" stroke-opacity="0.5" stroke-width="0.5"></path><path d="M273.5569 48.3496L249.6931 169.8711" fill="none" stroke="#aaa" stroke-opacity="0.5" stroke-width="0.5"></path><path d="M218.4749 220.4994L203.291 174.7444" fill="none" stroke="#aaa" stroke-opacity="0.5" stroke-width="0.5"></path><path d="M164.7272 38.6506L211.2678 121.8125" fill="none" stroke="#aaa" stroke-opacity="0.5" stroke-width="0.5"></path><path d="M308.2542 114.4254L117.6567 94.5877" fill="none" stroke="#aaa" stroke-opacity="0.5" stroke-width="0.5"></path><path d="M303.8735 153.6705L123.8618 171.548" fill="none" stroke="#aaa" stroke-opacity="0.5" stroke-width="0.5"></path><path d="M194.6427 72.5432L249.6931 169.8711" fill="none" stroke="#aaa" stroke-opacity="0.5" stroke-width="0.5"></path><path d="M117.6567 94.5877L288.1417 189.2461" fill="none" stroke="#aaa" stroke-opacity="0.5" stroke-width="0.5"></path><path d="M113.015 133.3938L158.2527 106.2661" fill="none" stroke="#aaa" stroke-opacity="0.5" stroke-width="0.5"></path><path d="M296.8183 79.1264L202.6322 27.4064" fill="none" stroke="#aaa" stroke-opacity="0.5" stroke-width="0.5"></path><path d="M158.2527 106.2661L164.7272 38.6506" fill="none" stroke="#aaa" stroke-opacity="0.5" stroke-width="0.5"></path><path d="M273.5569 48.3496L245.1307 81.7063" fill="none" stroke="#aaa" stroke-opacity="0.5" stroke-width="0.5"></path><path d="M138.8326 62.8333L238.5594 32.3496" fill="none" stroke="#aaa" stroke-opacity="0.5" stroke-width="0.5"></path><path d="M158.2527 106.2661L194.6427 72.5432" fill="none" stroke="#aaa" stroke-opacity="0.5" stroke-width="0.5"></path><path d="M303.8735 153.6705L163.1454 152.1114" fill="none" stroke="#aaa" stroke-opacity="0.5" stroke-width="0.5"></path><path d="M266.4171 125.1612L249.6931 169.8711" fill="none" stroke="#aaa" stroke-opacity="0.5" stroke-width="0.5"></path><path d="M182.2401 217.0087L163.1454 152.1114" fill="none" stroke="#aaa" stroke-opacity="0.5" stroke-width="0.5"></path><path d="M138.8326 62.8333L308.2542 114.4254" fill="none" stroke="#aaa" stroke-opacity="0.5" stroke-width="0.5"></path><path d="M113.015 133.3938L254.1563 213.1368" fill="none" stroke="#aaa" stroke-opacity="0.5" stroke-width="0.5"></path><path d="M163.1454 152.1114L288.1417 189.2461" fill="none" stroke="#aaa" stroke-opacity="0.5" stroke-width="0.5"></path><path d="M164.7272 38.6506L254.1563 213.1368" fill="none" stroke="#aaa" stroke-opacity="0.5" stroke-width="0.5"></path><path d="M203.291 174.7444L202.6322 27.4064" fill="none" stroke="#aaa" stroke-opacity="0.5" stroke-width="0.5"></path><path d="M158.2527 106.2661L273.5569 48.3496" fill="none" stroke="#aaa" stroke-opacity="0.5" stroke-width="0.5"></path><path d="M266.4171 125.1612L245.1307 81.7063" fill="none" stroke="#aaa" stroke-opacity="0.5" stroke-width="0.5"></path><path d="M138.8326 62.8333L288.1417 189.2461" fill="none" stroke="#aaa" stroke-opacity="0.5" stroke-width="0.5"></path><path d="M249.6931 169.8711L245.1307 81.7063" fill="none" stroke="#aaa" stroke-opacity="0.5" stroke-width="0.5"></path><path d="M211.2678 121.8125L202.6322 27.4064" fill="none" stroke="#aaa" stroke-opacity="0.5" stroke-width="0.5"></path><path d="M308.2542 114.4254L202.6322 27.4064" fill="none" stroke="#aaa" stroke-opacity="0.5" stroke-width="0.5"></path><path d="M273.5569 48.3496L163.1454 152.1114" fill="none" stroke="#aaa" stroke-opacity="0.5" stroke-width="0.5"></path><path d="M158.2527 106.2661L150.3796 199.5514" fill="none" stroke="#aaa" stroke-opacity="0.5" stroke-width="0.5"></path><path d="M218.4749 220.4994L266.4171 125.1612" fill="none" stroke="#aaa" stroke-opacity="0.5" stroke-width="0.5"></path><path d="M238.5594 32.3496L249.6931 169.8711" fill="none" stroke="#aaa" stroke-opacity="0.5" stroke-width="0.5"></path><path d="M150.3796 199.5514L238.5594 32.3496" fill="none" stroke="#aaa" stroke-opacity="0.5" stroke-width="0.5"></path><path d="M150.3796 199.5514L138.8326 62.8333" fill="none" stroke="#aaa" stroke-opacity="0.5" stroke-width="0.5"></path><path d="M266.4171 125.1612L123.8618 171.548" fill="none" stroke="#aaa" stroke-opacity="0.5" stroke-width="0.5"></path><path d="M249.6931 169.8711L123.8618 171.548" fill="none" stroke="#aaa" stroke-opacity="0.5" stroke-width="0.5"></path><path d="M296.8183 79.1264L194.6427 72.5432" fill="none" stroke="#aaa" stroke-opacity="0.5" stroke-width="0.5"></path><path d="M182.2401 217.0087L202.6322 27.4064" fill="none" stroke="#aaa" stroke-opacity="0.5" stroke-width="0.5"></path><path d="M138.8326 62.8333L303.8735 153.6705" fill="none" stroke="#aaa" stroke-opacity="0.5" stroke-width="0.5"></path><path d="M296.8183 79.1264L238.5594 32.3496" fill="none" stroke="#aaa" stroke-opacity="0.5" stroke-width="0.5"></path><path d="M238.5594 32.3496L182.2401 217.0087" fill="none" stroke="#aaa" stroke-opacity="0.5" stroke-width="0.5"></path><path d="M150.3796 199.5514L308.2542 114.4254" fill="none" stroke="#aaa" stroke-opacity="0.5" stroke-width="0.5"></path><path d="M238.5594 32.3496L245.1307 81.7063" fill="none" stroke="#aaa" stroke-opacity="0.5" stroke-width="0.5"></path><path d="M138.8326 62.8333L218.4749 220.4994" fill="none" stroke="#aaa" stroke-opacity="0.5" stroke-width="0.5"></path><path d="M303.8735 153.6705L194.6427 72.5432" fill="none" stroke="#aaa" stroke-opacity="0.5" stroke-width="0.5"></path><path d="M266.4171 125.1612L163.1454 152.1114" fill="none" stroke="#aaa" stroke-opacity="0.5" stroke-width="0.5"></path><path d="M249.6931 169.8711L163.1454 152.1114" fill="none" stroke="#aaa" stroke-opacity="0.5" stroke-width="0.5"></path><path d="M218.4749 220.4994L117.6567 94.5877" fill="none" stroke="#aaa" stroke-opacity="0.5" stroke-width="0.5"></path><path d="M150.3796 199.5514L288.1417 189.2461" fill="none" stroke="#aaa" stroke-opacity="0.5" stroke-width="0.5"></path><path d="M203.291 174.7444L194.6427 72.5432" fill="none" stroke="#aaa" stroke-opacity="0.5" stroke-width="0.5"></path><path d="M238.5594 32.3496L123.8618 171.548" fill="none" stroke="#aaa" stroke-opacity="0.5" stroke-width="0.5"></path><path d="M308.2542 114.4254L164.7272 38.6506" fill="none" stroke="#aaa" stroke-opacity="0.5" stroke-width="0.5"></path><path d="M123.8618 171.548L117.6567 94.5877" fill="none" stroke="#aaa" stroke-opacity="0.5" stroke-width="0.5"></path><path d="M113.015 133.3938L249.6931 169.8711" fill="none" stroke="#aaa" stroke-opacity="0.5" stroke-width="0.5"></path><path d="M296.8183 79.1264L288.1417 189.2461" fill="none" stroke="#aaa" stroke-opacity="0.5" stroke-width="0.5"></path><path d="M308.2542 114.4254L194.6427 72.5432" fill="none" stroke="#aaa" stroke-opacity="0.5" stroke-width="0.5"></path><path d="M194.6427 72.5432L202.6322 27.4064" fill="none" stroke="#aaa" stroke-opacity="0.5" stroke-width="0.5"></path><path d="M158.2527 106.2661L211.2678 121.8125" fill="none" stroke="#aaa" stroke-opacity="0.5" stroke-width="0.5"></path><path d="M150.3796 199.5514L303.8735 153.6705" fill="none" stroke="#aaa" stroke-opacity="0.5" stroke-width="0.5"></path><path d="M113.015 133.3938L182.2401 217.0087" fill="none" stroke="#aaa" stroke-opacity="0.5" stroke-width="0.5"></path><path d="M238.5594 32.3496L163.1454 152.1114" fill="none" stroke="#aaa" stroke-opacity="0.5" stroke-width="0.5"></path><path d="M182.2401 217.0087L164.7272 38.6506" fill="none" stroke="#aaa" stroke-opacity="0.5" stroke-width="0.5"></path><path d="M303.8735 153.6705L288.1417 189.2461" fill="none" stroke="#aaa" stroke-opacity="0.5" stroke-width="0.5"></path><path d="M113.015 133.3938L245.1307 81.7063" fill="none" stroke="#aaa" stroke-opacity="0.5" stroke-width="0.5"></path><path d="M203.291 174.7444L273.5569 48.3496" fill="none" stroke="#aaa" stroke-opacity="0.5" stroke-width="0.5"></path><path d="M211.2678 121.8125L273.5569 48.3496" fill="none" stroke="#aaa" stroke-opacity="0.5" stroke-width="0.5"></path><path d="M296.8183 79.1264L303.8735 153.6705" fill="none" stroke="#aaa" stroke-opacity="0.5" stroke-width="0.5"></path><path d="M138.8326 62.8333L296.8183 79.1264" fill="none" stroke="#aaa" stroke-opacity="0.5" stroke-width="0.5"></path><path d="M164.7272 38.6506L245.1307 81.7063" fill="none" stroke="#aaa" stroke-opacity="0.5" stroke-width="0.5"></path><path d="M308.2542 114.4254L273.5569 48.3496" fill="none" stroke="#aaa" stroke-opacity="0.5" stroke-width="0.5"></path><path d="M150.3796 199.5514L218.4749 220.4994" fill="none" stroke="#aaa" stroke-opacity="0.5" stroke-width="0.5"></path><path d="M218.4749 220.4994L202.6322 27.4064" fill="none" stroke="#aaa" stroke-opacity="0.5" stroke-width="0.5"></path><path d="M113.015 133.3938L123.8618 171.548" fill="none" stroke="#aaa" stroke-opacity="0.5" stroke-width="0.5"></path><path d="M296.8183 79.1264L218.4749 220.4994" fill="none" stroke="#aaa" stroke-opacity="0.5" stroke-width="0.5"></path><path d="M164.7272 38.6506L123.8618 171.548" fill="none" stroke="#aaa" stroke-opacity="0.5" stroke-width="0.5"></path><path d="M182.2401 217.0087L273.5569 48.3496" fill="none" stroke="#aaa" stroke-opacity="0.5" stroke-width="0.5"></path><path d="M158.2527 106.2661L254.1563 213.1368" fill="none" stroke="#aaa" stroke-opacity="0.5" stroke-width="0.5"></path><path d="M123.8618 171.548L202.6322 27.4064" fill="none" stroke="#aaa" stroke-opacity="0.5" stroke-width="0.5"></path><path d="M113.015 133.3938L163.1454 152.1114" fill="none" stroke="#aaa" stroke-opacity="0.5" stroke-width="0.5"></path><path d="M288.1417 189.2461L202.6322 27.4064" fill="none" stroke="#aaa" stroke-opacity="0.5" stroke-width="0.5"></path><path d="M164.7272 38.6506L163.1454 152.1114" fill="none" stroke="#aaa" stroke-opacity="0.5" stroke-width="0.5"></path><path d="M138.8326 62.8333L203.291 174.7444" fill="none" stroke="#aaa" stroke-opacity="0.5" stroke-width="0.5"></path><path d="M150.3796 199.5514L296.8183 79.1264" fill="none" stroke="#aaa" stroke-opacity="0.5" stroke-width="0.5"></path><path d="M254.1563 213.1368L117.6567 94.5877" fill="none" stroke="#aaa" stroke-opacity="0.5" stroke-width="0.5"></path><path d="M266.4171 125.1612L288.1417 189.2461" fill="none" stroke="#aaa" stroke-opacity="0.5" stroke-width="0.5"></path><path d="M249.6931 169.8711L288.1417 189.2461" fill="none" stroke="#aaa" stroke-opacity="0.5" stroke-width="0.5"></path><path d="M150.3796 199.5514L211.2678 121.8125" fill="none" stroke="#aaa" stroke-opacity="0.5" stroke-width="0.5"></path><path d="M218.4749 220.4994L164.7272 38.6506" fill="none" stroke="#aaa" stroke-opacity="0.5" stroke-width="0.5"></path><path d="M117.6567 94.5877L245.1307 81.7063" fill="none" stroke="#aaa" stroke-opacity="0.5" stroke-width="0.5"></path><path d="M218.4749 220.4994L194.6427 72.5432" fill="none" stroke="#aaa" stroke-opacity="0.5" stroke-width="0.5"></path><path d="M308.2542 114.4254L211.2678 121.8125" fill="none" stroke="#aaa" stroke-opacity="0.5" stroke-width="0.5"></path><path d="M238.5594 32.3496L308.2542 114.4254" fill="none" stroke="#aaa" stroke-opacity="0.5" stroke-width="0.5"></path><path d="M296.8183 79.1264L254.1563 213.1368" fill="none" stroke="#aaa" stroke-opacity="0.5" stroke-width="0.5"></path><path d="M1 0A1 1 0 1 1 1 -0.0001" fill="#5470c6" transform="matrix(17.5,0,0,17.5,303.8735,153.6705)"></path><path d="M1 0A1 1 0 1 1 1 -0.0001" fill="#5470c6" transform="matrix(17.5,0,0,17.5,288.1417,189.2461)"></path><path d="M1 0A1 1 0 1 1 1 -0.0001" fill="#5470c6" transform="matrix(17.5,0,0,17.5,266.4171,125.1612)"></path><path d="M1 0A1 1 0 1 1 1 -0.0001" fill="#5470c6" transform="matrix(17.5,0,0,17.5,254.1563,213.1368)"></path><path d="M1 0A1 1 0 1 1 1 -0.0001" fill="#5470c6" transform="matrix(17.5,0,0,17.5,249.6931,169.8711)"></path><path d="M1 0A1 1 0 1 1 1 -0.0001" fill="#5470c6" transform="matrix(17.5,0,0,17.5,218.4749,220.4994)"></path><path d="M1 0A1 1 0 1 1 1 -0.0001" fill="#5470c6" transform="matrix(17.5,0,0,17.5,203.291,174.7444)"></path><path d="M1 0A1 1 0 1 1 1 -0.0001" fill="#5470c6" transform="matrix(17.5,0,0,17.5,182.2401,217.0087)"></path><path d="M1 0A1 1 0 1 1 1 -0.0001" fill="#5470c6" transform="matrix(17.5,0,0,17.5,163.1454,152.1114)"></path><path d="M1 0A1 1 0 1 1 1 -0.0001" fill="#5470c6" transform="matrix(17.5,0,0,17.5,150.3796,199.5514)"></path><path d="M1 0A1 1 0 1 1 1 -0.0001" fill="#5470c6" transform="matrix(17.5,0,0,17.5,123.8618,171.548)"></path><path d="M1 0A1 1 0 1 1 1 -0.0001" fill="#5470c6" transform="matrix(17.5,0,0,17.5,113.015,133.3938)"></path><path d="M1 0A1 1 0 1 1 1 -0.0001" fill="#5470c6" transform="matrix(17.5,0,0,17.5,117.6567,94.5877)"></path><path d="M1 0A1 1 0 1 1 1 -0.0001" fill="#5470c6" transform="matrix(17.5,0,0,17.5,158.2527,106.2661)"></path><path d="M1 0A1 1 0 1 1 1 -0.0001" fill="#5470c6" transform="matrix(17.5,0,0,17.5,138.8326,62.8333)"></path><path d="M1 0A1 1 0 1 1 1 -0.0001" fill="#5470c6" transform="matrix(17.5,0,0,17.5,164.7272,38.6506)"></path><path d="M1 0A1 1 0 1 1 1 -0.0001" fill="#5470c6" transform="matrix(17.5,0,0,17.5,202.6322,27.4064)"></path><path d="M1 0A1 1 0 1 1 1 -0.0001" fill="#5470c6" transform="matrix(17.5,0,0,17.5,238.5594,32.3496)"></path><path d="M1 0A1 1 0 1 1 1 -0.0001" fill="#5470c6" transform="matrix(17.5,0,0,17.5,211.2678,121.8125)"></path><path d="M1 0A1 1 0 1 1 1 -0.0001" fill="#5470c6" transform="matrix(17.5,0,0,17.5,273.5569,48.3496)"></path><path d="M1 0A1 1 0 1 1 1 -0.0001" fill="#5470c6" transform="matrix(17.5,0,0,17.5,194.6427,72.5432)"></path><path d="M1 0A1 1 0 1 1 1 -0.0001" fill="#5470c6" transform="matrix(17.5,0,0,17.5,296.8183,79.1264)"></path><path d="M1 0A1 1 0 1 1 1 -0.0001" fill="#5470c6" transform="matrix(17.5,0,0,17.5,245.1307,81.7063)"></path><path d="M1 0A1 1 0 1 1 1 -0.0001" fill="#5470c6" transform="matrix(17.5,0,0,17.5,308.2542,114.4254)"></path><path d="M-25.1792 -5l50.3584 0l0 32l-50.3584 0Z" fill="rgb(0,0,0)" fill-opacity="0" stroke="#ccc" stroke-width="0" transform="translate(237.5 5)"></path><text dominant-baseline="central" fill="#333" style="font-size:22px;font-family:sans-serif;font-weight:bolder;" text-anchor="middle" transform="translate(237.5 5)" y="11">C17</text></g></svg>