<svg baseprofile="full" height="250" style="position:absolute;left:0;top:0;user-select:none" version="1.1" width="475" xmlns="http://www.w3.org/2000/svg" xmlns:xlink="http://www.w3.org/1999/xlink"><rect fill="none" height="250" id="0" width="475" x="0" y="0"></rect><g><path d="M306.5938 175.5362L215.4041 232.9634" fill="none" stroke="#aaa" stroke-opacity="0.5"></path><path d="M119.6465 182.2331L115.3478 74.7418" fill="none" stroke="#aaa" stroke-opacity="0.5"></path><path d="M119.6465 182.2331L207.2287 16.7054" fill="none" stroke="#aaa" stroke-opacity="0.5"></path><path d="M302.5344 67.8201L306.5938 175.5362" fill="none" stroke="#aaa" stroke-opacity="0.5"></path><path d="M302.5344 67.8201L215.4041 232.9634" fill="none" stroke="#aaa" stroke-opacity="0.5"></path><path d="M215.4041 232.9634L115.3478 74.7418" fill="none" stroke="#aaa" stroke-opacity="0.5"></path><path d="M215.4041 232.9634L207.2287 16.7054" fill="none" stroke="#aaa" stroke-opacity="0.5"></path><path d="M302.5344 67.8201L115.3478 74.7418" fill="none" stroke="#aaa" stroke-opacity="0.5"></path><path d="M302.5344 67.8201L207.2287 16.7054" fill="none" stroke="#aaa" stroke-opacity="0.5"></path><path d="M119.6465 182.2331L306.5938 175.5362" fill="none" stroke="#aaa" stroke-opacity="0.5"></path><path d="M119.6465 182.2331L215.4041 232.9634" fill="none" stroke="#aaa" stroke-opacity="0.5"></path><path d="M306.5938 175.5362L115.3478 74.7418" fill="none" stroke="#aaa" stroke-opacity="0.5"></path><path d="M306.5938 175.5362L207.2287 16.7054" fill="none" stroke="#aaa" stroke-opacity="0.5"></path><path d="M119.6465 182.2331L302.5344 67.8201" fill="none" stroke="#aaa" stroke-opacity="0.5"></path><path d="M207.2287 16.7054L115.3478 74.7418" fill="none" stroke="#aaa" stroke-opacity="0.5"></path><path d="M1 0A1 1 0 1 1 1 -0.0001" fill="#5470c6" transform="matrix(19.5,0,0,19.5,306.5938,175.5362)"></path><path d="M1 0A1 1 0 1 1 1 -0.0001" fill="#5470c6" transform="matrix(19.5,0,0,19.5,215.4041,232.9634)"></path><path d="M1 0A1 1 0 1 1 1 -0.0001" fill="#5470c6" transform="matrix(19.5,0,0,19.5,119.6465,182.2331)"></path><path d="M1 0A1 1 0 1 1 1 -0.0001" fill="#5470c6" transform="matrix(19.5,0,0,19.5,115.3478,74.7418)"></path><path d="M1 0A1 1 0 1 1 1 -0.0001" fill="#5470c6" transform="matrix(19.5,0,0,19.5,207.2287,16.7054)"></path><path d="M1 0A1 1 0 1 1 1 -0.0001" fill="#5470c6" transform="matrix(19.5,0,0,19.5,302.5344,67.8201)"></path><path d="M-32.4922 -5l64.9844 0l0 33l-64.9844 0Z" fill="rgb(0,0,0)" fill-opacity="0" stroke="#ccc" stroke-width="0" transform="translate(237.5 5)"></path><text dominant-baseline="central" fill="#333" style="font-size:23px;font-family:sans-serif;font-weight:bolder;" text-anchor="middle" transform="translate(237.5 5)" y="11.5">C170</text></g></svg>