<svg baseprofile="full" height="250" style="position:absolute;left:0;top:0;user-select:none" version="1.1" width="475" xmlns="http://www.w3.org/2000/svg" xmlns:xlink="http://www.w3.org/1999/xlink"><rect fill="none" height="250" id="0" width="475" x="0" y="0"></rect><g><path d="M303.4506 181.351L208.9152 233.0238" fill="none" stroke="#aaa" stroke-opacity="0.5"></path><path d="M116.6924 177.2464L208.9152 233.0238" fill="none" stroke="#aaa" stroke-opacity="0.5"></path><path d="M305.6987 72.852L213.5844 16.6807" fill="none" stroke="#aaa" stroke-opacity="0.5"></path><path d="M118.414 68.8462L303.4506 181.351" fill="none" stroke="#aaa" stroke-opacity="0.5"></path><path d="M303.4506 181.351L116.6924 177.2464" fill="none" stroke="#aaa" stroke-opacity="0.5"></path><path d="M208.9152 233.0238L213.5844 16.6807" fill="none" stroke="#aaa" stroke-opacity="0.5"></path><path d="M305.6987 72.852L118.414 68.8462" fill="none" stroke="#aaa" stroke-opacity="0.5"></path><path d="M118.414 68.8462L208.9152 233.0238" fill="none" stroke="#aaa" stroke-opacity="0.5"></path><path d="M305.6987 72.852L208.9152 233.0238" fill="none" stroke="#aaa" stroke-opacity="0.5"></path><path d="M303.4506 181.351L213.5844 16.6807" fill="none" stroke="#aaa" stroke-opacity="0.5"></path><path d="M116.6924 177.2464L213.5844 16.6807" fill="none" stroke="#aaa" stroke-opacity="0.5"></path><path d="M118.414 68.8462L213.5844 16.6807" fill="none" stroke="#aaa" stroke-opacity="0.5"></path><path d="M305.6987 72.852L303.4506 181.351" fill="none" stroke="#aaa" stroke-opacity="0.5"></path><path d="M118.414 68.8462L116.6924 177.2464" fill="none" stroke="#aaa" stroke-opacity="0.5"></path><path d="M305.6987 72.852L116.6924 177.2464" fill="none" stroke="#aaa" stroke-opacity="0.5"></path><path d="M1 0A1 1 0 1 1 1 -0.0001" fill="#5470c6" transform="matrix(19.5,0,0,19.5,303.4506,181.351)"></path><path d="M1 0A1 1 0 1 1 1 -0.0001" fill="#5470c6" transform="matrix(19.5,0,0,19.5,208.9152,233.0238)"></path><path d="M1 0A1 1 0 1 1 1 -0.0001" fill="#5470c6" transform="matrix(19.5,0,0,19.5,116.6924,177.2464)"></path><path d="M1 0A1 1 0 1 1 1 -0.0001" fill="#5470c6" transform="matrix(19.5,0,0,19.5,118.414,68.8462)"></path><path d="M1 0A1 1 0 1 1 1 -0.0001" fill="#5470c6" transform="matrix(19.5,0,0,19.5,213.5844,16.6807)"></path><path d="M1 0A1 1 0 1 1 1 -0.0001" fill="#5470c6" transform="matrix(19.5,0,0,19.5,305.6987,72.852)"></path><path d="M-32.4922 -5l64.9844 0l0 33l-64.9844 0Z" fill="rgb(0,0,0)" fill-opacity="0" stroke="#ccc" stroke-width="0" transform="translate(237.5 5)"></path><text dominant-baseline="central" fill="#333" style="font-size:23px;font-family:sans-serif;font-weight:bolder;" text-anchor="middle" transform="translate(237.5 5)" y="11.5">C171</text></g></svg>