<svg baseprofile="full" height="250" style="position:absolute;left:0;top:0;user-select:none" version="1.1" width="475" xmlns="http://www.w3.org/2000/svg" xmlns:xlink="http://www.w3.org/1999/xlink"><rect fill="none" height="250" id="0" width="475" x="0" y="0"></rect><g><path d="M207.7697 233.0739L116.0547 176.7338" fill="none" stroke="#aaa" stroke-opacity="0.5"></path><path d="M207.7697 233.0739L214.4156 16.7627" fill="none" stroke="#aaa" stroke-opacity="0.5"></path><path d="M214.4156 16.7627L116.0547 176.7338" fill="none" stroke="#aaa" stroke-opacity="0.5"></path><path d="M207.7697 233.0739L119.1983 67.9211" fill="none" stroke="#aaa" stroke-opacity="0.5"></path><path d="M214.4156 16.7627L119.1983 67.9211" fill="none" stroke="#aaa" stroke-opacity="0.5"></path><path d="M303.2098 181.7331L119.1983 67.9211" fill="none" stroke="#aaa" stroke-opacity="0.5"></path><path d="M306.1071 73.7755L214.4156 16.7627" fill="none" stroke="#aaa" stroke-opacity="0.5"></path><path d="M306.1071 73.7755L119.1983 67.9211" fill="none" stroke="#aaa" stroke-opacity="0.5"></path><path d="M306.1071 73.7755L303.2098 181.7331" fill="none" stroke="#aaa" stroke-opacity="0.5"></path><path d="M306.1071 73.7755L207.7697 233.0739" fill="none" stroke="#aaa" stroke-opacity="0.5"></path><path d="M207.7697 233.0739L303.2098 181.7331" fill="none" stroke="#aaa" stroke-opacity="0.5"></path><path d="M306.1071 73.7755L116.0547 176.7338" fill="none" stroke="#aaa" stroke-opacity="0.5"></path><path d="M116.0547 176.7338L119.1983 67.9211" fill="none" stroke="#aaa" stroke-opacity="0.5"></path><path d="M214.4156 16.7627L303.2098 181.7331" fill="none" stroke="#aaa" stroke-opacity="0.5"></path><path d="M116.0547 176.7338L303.2098 181.7331" fill="none" stroke="#aaa" stroke-opacity="0.5"></path><path d="M1 0A1 1 0 1 1 1 -0.0001" fill="#5470c6" transform="matrix(19.5,0,0,19.5,303.2098,181.7331)"></path><path d="M1 0A1 1 0 1 1 1 -0.0001" fill="#5470c6" transform="matrix(19.5,0,0,19.5,207.7697,233.0739)"></path><path d="M1 0A1 1 0 1 1 1 -0.0001" fill="#5470c6" transform="matrix(19.5,0,0,19.5,116.0547,176.7338)"></path><path d="M1 0A1 1 0 1 1 1 -0.0001" fill="#5470c6" transform="matrix(19.5,0,0,19.5,119.1983,67.9211)"></path><path d="M1 0A1 1 0 1 1 1 -0.0001" fill="#5470c6" transform="matrix(19.5,0,0,19.5,214.4156,16.7627)"></path><path d="M1 0A1 1 0 1 1 1 -0.0001" fill="#5470c6" transform="matrix(19.5,0,0,19.5,306.1071,73.7755)"></path><path d="M-32.4922 -5l64.9844 0l0 33l-64.9844 0Z" fill="rgb(0,0,0)" fill-opacity="0" stroke="#ccc" stroke-width="0" transform="translate(237.5 5)"></path><text dominant-baseline="central" fill="#333" style="font-size:23px;font-family:sans-serif;font-weight:bolder;" text-anchor="middle" transform="translate(237.5 5)" y="11.5">C172</text></g></svg>