<svg baseprofile="full" height="250" style="position:absolute;left:0;top:0;user-select:none" version="1.1" width="475" xmlns="http://www.w3.org/2000/svg" xmlns:xlink="http://www.w3.org/1999/xlink"><rect fill="none" height="250" id="0" width="475" x="0" y="0"></rect><g><path d="M304.701 180.333L210.1943 232.4991" fill="none" stroke="#aaa" stroke-opacity="0.5"></path><path d="M117.0903 178.4853L210.1943 232.4991" fill="none" stroke="#aaa" stroke-opacity="0.5"></path><path d="M304.701 180.333L118.2025 70.2508" fill="none" stroke="#aaa" stroke-opacity="0.5"></path><path d="M304.701 180.333L211.7967 16.4942" fill="none" stroke="#aaa" stroke-opacity="0.5"></path><path d="M211.7967 16.4942L117.0903 178.4853" fill="none" stroke="#aaa" stroke-opacity="0.5"></path><path d="M304.701 180.333L304.7706 71.9376" fill="none" stroke="#aaa" stroke-opacity="0.5"></path><path d="M211.7967 16.4942L118.2025 70.2508" fill="none" stroke="#aaa" stroke-opacity="0.5"></path><path d="M211.7967 16.4942L304.7706 71.9376" fill="none" stroke="#aaa" stroke-opacity="0.5"></path><path d="M117.0903 178.4853L118.2025 70.2508" fill="none" stroke="#aaa" stroke-opacity="0.5"></path><path d="M210.1943 232.4991L118.2025 70.2508" fill="none" stroke="#aaa" stroke-opacity="0.5"></path><path d="M117.0903 178.4853L304.7706 71.9376" fill="none" stroke="#aaa" stroke-opacity="0.5"></path><path d="M118.2025 70.2508L304.7706 71.9376" fill="none" stroke="#aaa" stroke-opacity="0.5"></path><path d="M304.701 180.333L117.0903 178.4853" fill="none" stroke="#aaa" stroke-opacity="0.5"></path><path d="M211.7967 16.4942L210.1943 232.4991" fill="none" stroke="#aaa" stroke-opacity="0.5"></path><path d="M210.1943 232.4991L304.7706 71.9376" fill="none" stroke="#aaa" stroke-opacity="0.5"></path><path d="M1 0A1 1 0 1 1 1 -0.0001" fill="#5470c6" transform="matrix(19.5,0,0,19.5,304.701,180.333)"></path><path d="M1 0A1 1 0 1 1 1 -0.0001" fill="#5470c6" transform="matrix(19.5,0,0,19.5,210.1943,232.4991)"></path><path d="M1 0A1 1 0 1 1 1 -0.0001" fill="#5470c6" transform="matrix(19.5,0,0,19.5,117.0903,178.4853)"></path><path d="M1 0A1 1 0 1 1 1 -0.0001" fill="#5470c6" transform="matrix(19.5,0,0,19.5,118.2025,70.2508)"></path><path d="M1 0A1 1 0 1 1 1 -0.0001" fill="#5470c6" transform="matrix(19.5,0,0,19.5,211.7967,16.4942)"></path><path d="M1 0A1 1 0 1 1 1 -0.0001" fill="#5470c6" transform="matrix(19.5,0,0,19.5,304.7706,71.9376)"></path><path d="M-32.4922 -5l64.9844 0l0 33l-64.9844 0Z" fill="rgb(0,0,0)" fill-opacity="0" stroke="#ccc" stroke-width="0" transform="translate(237.5 5)"></path><text dominant-baseline="central" fill="#333" style="font-size:23px;font-family:sans-serif;font-weight:bolder;" text-anchor="middle" transform="translate(237.5 5)" y="11.5">C173</text></g></svg>