<svg baseprofile="full" height="250" style="position:absolute;left:0;top:0;user-select:none" version="1.1" width="475" xmlns="http://www.w3.org/2000/svg" xmlns:xlink="http://www.w3.org/1999/xlink"><rect fill="none" height="250" id="0" width="475" x="0" y="0"></rect><g><path d="M305.5592 177.432L213.044 232.9972" fill="none" stroke="#aaa" stroke-opacity="0.5"></path><path d="M118.5209 180.4109L116.6693 73.0535" fill="none" stroke="#aaa" stroke-opacity="0.5"></path><path d="M209.2289 16.7156L118.5209 180.4109" fill="none" stroke="#aaa" stroke-opacity="0.5"></path><path d="M305.5592 177.432L303.733 69.3908" fill="none" stroke="#aaa" stroke-opacity="0.5"></path><path d="M118.5209 180.4109L213.044 232.9972" fill="none" stroke="#aaa" stroke-opacity="0.5"></path><path d="M213.044 232.9972L116.6693 73.0535" fill="none" stroke="#aaa" stroke-opacity="0.5"></path><path d="M118.5209 180.4109L303.733 69.3908" fill="none" stroke="#aaa" stroke-opacity="0.5"></path><path d="M209.2289 16.7156L305.5592 177.432" fill="none" stroke="#aaa" stroke-opacity="0.5"></path><path d="M209.2289 16.7156L213.044 232.9972" fill="none" stroke="#aaa" stroke-opacity="0.5"></path><path d="M305.5592 177.432L116.6693 73.0535" fill="none" stroke="#aaa" stroke-opacity="0.5"></path><path d="M209.2289 16.7156L303.733 69.3908" fill="none" stroke="#aaa" stroke-opacity="0.5"></path><path d="M303.733 69.3908L213.044 232.9972" fill="none" stroke="#aaa" stroke-opacity="0.5"></path><path d="M209.2289 16.7156L116.6693 73.0535" fill="none" stroke="#aaa" stroke-opacity="0.5"></path><path d="M305.5592 177.432L118.5209 180.4109" fill="none" stroke="#aaa" stroke-opacity="0.5"></path><path d="M303.733 69.3908L116.6693 73.0535" fill="none" stroke="#aaa" stroke-opacity="0.5"></path><path d="M1 0A1 1 0 1 1 1 -0.0001" fill="#5470c6" transform="matrix(19.5,0,0,19.5,305.5592,177.432)"></path><path d="M1 0A1 1 0 1 1 1 -0.0001" fill="#5470c6" transform="matrix(19.5,0,0,19.5,213.044,232.9972)"></path><path d="M1 0A1 1 0 1 1 1 -0.0001" fill="#5470c6" transform="matrix(19.5,0,0,19.5,118.5209,180.4109)"></path><path d="M1 0A1 1 0 1 1 1 -0.0001" fill="#5470c6" transform="matrix(19.5,0,0,19.5,116.6693,73.0535)"></path><path d="M1 0A1 1 0 1 1 1 -0.0001" fill="#5470c6" transform="matrix(19.5,0,0,19.5,209.2289,16.7156)"></path><path d="M1 0A1 1 0 1 1 1 -0.0001" fill="#5470c6" transform="matrix(19.5,0,0,19.5,303.733,69.3908)"></path><path d="M-32.4922 -5l64.9844 0l0 33l-64.9844 0Z" fill="rgb(0,0,0)" fill-opacity="0" stroke="#ccc" stroke-width="0" transform="translate(237.5 5)"></path><text dominant-baseline="central" fill="#333" style="font-size:23px;font-family:sans-serif;font-weight:bolder;" text-anchor="middle" transform="translate(237.5 5)" y="11.5">C174</text></g></svg>