<svg baseprofile="full" height="250" style="position:absolute;left:0;top:0;user-select:none" version="1.1" width="475" xmlns="http://www.w3.org/2000/svg" xmlns:xlink="http://www.w3.org/1999/xlink"><rect fill="none" height="250" id="0" width="475" x="0" y="0"></rect><g><path d="M213.123 232.935L118.7558 180.8738" fill="none" stroke="#aaa" stroke-opacity="0.5"></path><path d="M303.3534 69.3626L209.3114 16.9326" fill="none" stroke="#aaa" stroke-opacity="0.5"></path><path d="M116.4395 72.3528L305.7722 177.5433" fill="none" stroke="#aaa" stroke-opacity="0.5"></path><path d="M213.123 232.935L305.7722 177.5433" fill="none" stroke="#aaa" stroke-opacity="0.5"></path><path d="M118.7558 180.8738L305.7722 177.5433" fill="none" stroke="#aaa" stroke-opacity="0.5"></path><path d="M116.4395 72.3528L209.3114 16.9326" fill="none" stroke="#aaa" stroke-opacity="0.5"></path><path d="M305.7722 177.5433L209.3114 16.9326" fill="none" stroke="#aaa" stroke-opacity="0.5"></path><path d="M213.123 232.935L209.3114 16.9326" fill="none" stroke="#aaa" stroke-opacity="0.5"></path><path d="M118.7558 180.8738L209.3114 16.9326" fill="none" stroke="#aaa" stroke-opacity="0.5"></path><path d="M116.4395 72.3528L303.3534 69.3626" fill="none" stroke="#aaa" stroke-opacity="0.5"></path><path d="M213.123 232.935L116.4395 72.3528" fill="none" stroke="#aaa" stroke-opacity="0.5"></path><path d="M116.4395 72.3528L118.7558 180.8738" fill="none" stroke="#aaa" stroke-opacity="0.5"></path><path d="M305.7722 177.5433L303.3534 69.3626" fill="none" stroke="#aaa" stroke-opacity="0.5"></path><path d="M213.123 232.935L303.3534 69.3626" fill="none" stroke="#aaa" stroke-opacity="0.5"></path><path d="M118.7558 180.8738L303.3534 69.3626" fill="none" stroke="#aaa" stroke-opacity="0.5"></path><path d="M1 0A1 1 0 1 1 1 -0.0001" fill="#5470c6" transform="matrix(19.5,0,0,19.5,305.7722,177.5433)"></path><path d="M1 0A1 1 0 1 1 1 -0.0001" fill="#5470c6" transform="matrix(19.5,0,0,19.5,213.123,232.935)"></path><path d="M1 0A1 1 0 1 1 1 -0.0001" fill="#5470c6" transform="matrix(19.5,0,0,19.5,118.7558,180.8738)"></path><path d="M1 0A1 1 0 1 1 1 -0.0001" fill="#5470c6" transform="matrix(19.5,0,0,19.5,116.4395,72.3528)"></path><path d="M1 0A1 1 0 1 1 1 -0.0001" fill="#5470c6" transform="matrix(19.5,0,0,19.5,209.3114,16.9326)"></path><path d="M1 0A1 1 0 1 1 1 -0.0001" fill="#5470c6" transform="matrix(19.5,0,0,19.5,303.3534,69.3626)"></path><path d="M-32.4922 -5l64.9844 0l0 33l-64.9844 0Z" fill="rgb(0,0,0)" fill-opacity="0" stroke="#ccc" stroke-width="0" transform="translate(237.5 5)"></path><text dominant-baseline="central" fill="#333" style="font-size:23px;font-family:sans-serif;font-weight:bolder;" text-anchor="middle" transform="translate(237.5 5)" y="11.5">C175</text></g></svg>