<svg baseprofile="full" height="250" style="position:absolute;left:0;top:0;user-select:none" version="1.1" width="475" xmlns="http://www.w3.org/2000/svg" xmlns:xlink="http://www.w3.org/1999/xlink"><rect fill="none" height="250" id="0" width="475" x="0" y="0"></rect><g><path d="M305.881 176.4611L214.2634 233.0504" fill="none" stroke="#aaa" stroke-opacity="0.5"></path><path d="M208.0685 16.7237L118.5732 181.5936" fill="none" stroke="#aaa" stroke-opacity="0.5"></path><path d="M208.0685 16.7237L116.4591 73.6042" fill="none" stroke="#aaa" stroke-opacity="0.5"></path><path d="M118.5732 181.5936L116.4591 73.6042" fill="none" stroke="#aaa" stroke-opacity="0.5"></path><path d="M303.5101 68.567L118.5732 181.5936" fill="none" stroke="#aaa" stroke-opacity="0.5"></path><path d="M305.881 176.4611L303.5101 68.567" fill="none" stroke="#aaa" stroke-opacity="0.5"></path><path d="M303.5101 68.567L116.4591 73.6042" fill="none" stroke="#aaa" stroke-opacity="0.5"></path><path d="M305.881 176.4611L118.5732 181.5936" fill="none" stroke="#aaa" stroke-opacity="0.5"></path><path d="M305.881 176.4611L208.0685 16.7237" fill="none" stroke="#aaa" stroke-opacity="0.5"></path><path d="M305.881 176.4611L116.4591 73.6042" fill="none" stroke="#aaa" stroke-opacity="0.5"></path><path d="M208.0685 16.7237L214.2634 233.0504" fill="none" stroke="#aaa" stroke-opacity="0.5"></path><path d="M214.2634 233.0504L118.5732 181.5936" fill="none" stroke="#aaa" stroke-opacity="0.5"></path><path d="M214.2634 233.0504L116.4591 73.6042" fill="none" stroke="#aaa" stroke-opacity="0.5"></path><path d="M303.5101 68.567L214.2634 233.0504" fill="none" stroke="#aaa" stroke-opacity="0.5"></path><path d="M208.0685 16.7237L303.5101 68.567" fill="none" stroke="#aaa" stroke-opacity="0.5"></path><path d="M1 0A1 1 0 1 1 1 -0.0001" fill="#5470c6" transform="matrix(19.5,0,0,19.5,305.881,176.4611)"></path><path d="M1 0A1 1 0 1 1 1 -0.0001" fill="#5470c6" transform="matrix(19.5,0,0,19.5,214.2634,233.0504)"></path><path d="M1 0A1 1 0 1 1 1 -0.0001" fill="#5470c6" transform="matrix(19.5,0,0,19.5,118.5732,181.5936)"></path><path d="M1 0A1 1 0 1 1 1 -0.0001" fill="#5470c6" transform="matrix(19.5,0,0,19.5,116.4591,73.6042)"></path><path d="M1 0A1 1 0 1 1 1 -0.0001" fill="#5470c6" transform="matrix(19.5,0,0,19.5,208.0685,16.7237)"></path><path d="M1 0A1 1 0 1 1 1 -0.0001" fill="#5470c6" transform="matrix(19.5,0,0,19.5,303.5101,68.567)"></path><path d="M-32.4922 -5l64.9844 0l0 33l-64.9844 0Z" fill="rgb(0,0,0)" fill-opacity="0" stroke="#ccc" stroke-width="0" transform="translate(237.5 5)"></path><text dominant-baseline="central" fill="#333" style="font-size:23px;font-family:sans-serif;font-weight:bolder;" text-anchor="middle" transform="translate(237.5 5)" y="11.5">C176</text></g></svg>