<svg baseprofile="full" height="250" style="position:absolute;left:0;top:0;user-select:none" version="1.1" width="475" xmlns="http://www.w3.org/2000/svg" xmlns:xlink="http://www.w3.org/1999/xlink"><rect fill="none" height="250" id="0" width="475" x="0" y="0"></rect><g><path d="M214.5101 232.8919L119.4552 182.2258" fill="none" stroke="#aaa" stroke-opacity="0.5"></path><path d="M306.5789 176.3893L115.6401 73.4407" fill="none" stroke="#aaa" stroke-opacity="0.5"></path><path d="M214.5101 232.8919L306.5789 176.3893" fill="none" stroke="#aaa" stroke-opacity="0.5"></path><path d="M207.6982 17.0784L115.6401 73.4407" fill="none" stroke="#aaa" stroke-opacity="0.5"></path><path d="M214.5101 232.8919L207.6982 17.0784" fill="none" stroke="#aaa" stroke-opacity="0.5"></path><path d="M302.8728 67.9739L207.6982 17.0784" fill="none" stroke="#aaa" stroke-opacity="0.5"></path><path d="M207.6982 17.0784L119.4552 182.2258" fill="none" stroke="#aaa" stroke-opacity="0.5"></path><path d="M207.6982 17.0784L306.5789 176.3893" fill="none" stroke="#aaa" stroke-opacity="0.5"></path><path d="M302.8728 67.9739L119.4552 182.2258" fill="none" stroke="#aaa" stroke-opacity="0.5"></path><path d="M302.8728 67.9739L306.5789 176.3893" fill="none" stroke="#aaa" stroke-opacity="0.5"></path><path d="M119.4552 182.2258L306.5789 176.3893" fill="none" stroke="#aaa" stroke-opacity="0.5"></path><path d="M214.5101 232.8919L115.6401 73.4407" fill="none" stroke="#aaa" stroke-opacity="0.5"></path><path d="M302.8728 67.9739L115.6401 73.4407" fill="none" stroke="#aaa" stroke-opacity="0.5"></path><path d="M214.5101 232.8919L302.8728 67.9739" fill="none" stroke="#aaa" stroke-opacity="0.5"></path><path d="M119.4552 182.2258L115.6401 73.4407" fill="none" stroke="#aaa" stroke-opacity="0.5"></path><path d="M1 0A1 1 0 1 1 1 -0.0001" fill="#5470c6" transform="matrix(19.5,0,0,19.5,306.5789,176.3893)"></path><path d="M1 0A1 1 0 1 1 1 -0.0001" fill="#5470c6" transform="matrix(19.5,0,0,19.5,214.5101,232.8919)"></path><path d="M1 0A1 1 0 1 1 1 -0.0001" fill="#5470c6" transform="matrix(19.5,0,0,19.5,119.4552,182.2258)"></path><path d="M1 0A1 1 0 1 1 1 -0.0001" fill="#5470c6" transform="matrix(19.5,0,0,19.5,115.6401,73.4407)"></path><path d="M1 0A1 1 0 1 1 1 -0.0001" fill="#5470c6" transform="matrix(19.5,0,0,19.5,207.6982,17.0784)"></path><path d="M1 0A1 1 0 1 1 1 -0.0001" fill="#5470c6" transform="matrix(19.5,0,0,19.5,302.8728,67.9739)"></path><path d="M-32.4922 -5l64.9844 0l0 33l-64.9844 0Z" fill="rgb(0,0,0)" fill-opacity="0" stroke="#ccc" stroke-width="0" transform="translate(237.5 5)"></path><text dominant-baseline="central" fill="#333" style="font-size:23px;font-family:sans-serif;font-weight:bolder;" text-anchor="middle" transform="translate(237.5 5)" y="11.5">C177</text></g></svg>