<svg baseprofile="full" height="250" style="position:absolute;left:0;top:0;user-select:none" version="1.1" width="475" xmlns="http://www.w3.org/2000/svg" xmlns:xlink="http://www.w3.org/1999/xlink"><rect fill="none" height="250" id="0" width="475" x="0" y="0"></rect><g><path d="M207.5222 233.1142L116.0736 176.3361" fill="none" stroke="#aaa" stroke-opacity="0.5"></path><path d="M207.5222 233.1142L118.8973 68.0844" fill="none" stroke="#aaa" stroke-opacity="0.5"></path><path d="M116.0736 176.3361L303.4106 181.9622" fill="none" stroke="#aaa" stroke-opacity="0.5"></path><path d="M306.53 73.8545L118.8973 68.0844" fill="none" stroke="#aaa" stroke-opacity="0.5"></path><path d="M303.4106 181.9622L214.3217 16.6486" fill="none" stroke="#aaa" stroke-opacity="0.5"></path><path d="M116.0736 176.3361L214.3217 16.6486" fill="none" stroke="#aaa" stroke-opacity="0.5"></path><path d="M303.4106 181.9622L118.8973 68.0844" fill="none" stroke="#aaa" stroke-opacity="0.5"></path><path d="M116.0736 176.3361L118.8973 68.0844" fill="none" stroke="#aaa" stroke-opacity="0.5"></path><path d="M116.0736 176.3361L306.53 73.8545" fill="none" stroke="#aaa" stroke-opacity="0.5"></path><path d="M207.5222 233.1142L214.3217 16.6486" fill="none" stroke="#aaa" stroke-opacity="0.5"></path><path d="M306.53 73.8545L303.4106 181.9622" fill="none" stroke="#aaa" stroke-opacity="0.5"></path><path d="M207.5222 233.1142L306.53 73.8545" fill="none" stroke="#aaa" stroke-opacity="0.5"></path><path d="M118.8973 68.0844L214.3217 16.6486" fill="none" stroke="#aaa" stroke-opacity="0.5"></path><path d="M207.5222 233.1142L303.4106 181.9622" fill="none" stroke="#aaa" stroke-opacity="0.5"></path><path d="M306.53 73.8545L214.3217 16.6486" fill="none" stroke="#aaa" stroke-opacity="0.5"></path><path d="M1 0A1 1 0 1 1 1 -0.0001" fill="#5470c6" transform="matrix(19.5,0,0,19.5,303.4106,181.9622)"></path><path d="M1 0A1 1 0 1 1 1 -0.0001" fill="#5470c6" transform="matrix(19.5,0,0,19.5,207.5222,233.1142)"></path><path d="M1 0A1 1 0 1 1 1 -0.0001" fill="#5470c6" transform="matrix(19.5,0,0,19.5,116.0736,176.3361)"></path><path d="M1 0A1 1 0 1 1 1 -0.0001" fill="#5470c6" transform="matrix(19.5,0,0,19.5,118.8973,68.0844)"></path><path d="M1 0A1 1 0 1 1 1 -0.0001" fill="#5470c6" transform="matrix(19.5,0,0,19.5,214.3217,16.6486)"></path><path d="M1 0A1 1 0 1 1 1 -0.0001" fill="#5470c6" transform="matrix(19.5,0,0,19.5,306.53,73.8545)"></path><path d="M-32.4922 -5l64.9844 0l0 33l-64.9844 0Z" fill="rgb(0,0,0)" fill-opacity="0" stroke="#ccc" stroke-width="0" transform="translate(237.5 5)"></path><text dominant-baseline="central" fill="#333" style="font-size:23px;font-family:sans-serif;font-weight:bolder;" text-anchor="middle" transform="translate(237.5 5)" y="11.5">C178</text></g></svg>