<svg baseprofile="full" height="250" style="position:absolute;left:0;top:0;user-select:none" version="1.1" width="475" xmlns="http://www.w3.org/2000/svg" xmlns:xlink="http://www.w3.org/1999/xlink"><rect fill="none" height="250" id="0" width="475" x="0" y="0"></rect><g><path d="M117.8617 179.2281L210.9654 233.0408" fill="none" stroke="#aaa" stroke-opacity="0.5"></path><path d="M117.0296 70.7692L210.9654 233.0408" fill="none" stroke="#aaa" stroke-opacity="0.5"></path><path d="M210.9654 233.0408L304.4354 179.2918" fill="none" stroke="#aaa" stroke-opacity="0.5"></path><path d="M117.8617 179.2281L304.4354 179.2918" fill="none" stroke="#aaa" stroke-opacity="0.5"></path><path d="M117.0296 70.7692L304.4354 179.2918" fill="none" stroke="#aaa" stroke-opacity="0.5"></path><path d="M305.0121 70.5808L211.4512 17.0893" fill="none" stroke="#aaa" stroke-opacity="0.5"></path><path d="M117.8617 179.2281L305.0121 70.5808" fill="none" stroke="#aaa" stroke-opacity="0.5"></path><path d="M117.8617 179.2281L117.0296 70.7692" fill="none" stroke="#aaa" stroke-opacity="0.5"></path><path d="M304.4354 179.2918L211.4512 17.0893" fill="none" stroke="#aaa" stroke-opacity="0.5"></path><path d="M305.0121 70.5808L117.0296 70.7692" fill="none" stroke="#aaa" stroke-opacity="0.5"></path><path d="M210.9654 233.0408L211.4512 17.0893" fill="none" stroke="#aaa" stroke-opacity="0.5"></path><path d="M305.0121 70.5808L210.9654 233.0408" fill="none" stroke="#aaa" stroke-opacity="0.5"></path><path d="M117.8617 179.2281L211.4512 17.0893" fill="none" stroke="#aaa" stroke-opacity="0.5"></path><path d="M117.0296 70.7692L211.4512 17.0893" fill="none" stroke="#aaa" stroke-opacity="0.5"></path><path d="M305.0121 70.5808L304.4354 179.2918" fill="none" stroke="#aaa" stroke-opacity="0.5"></path><path d="M1 0A1 1 0 1 1 1 -0.0001" fill="#5470c6" transform="matrix(19.5,0,0,19.5,304.4354,179.2918)"></path><path d="M1 0A1 1 0 1 1 1 -0.0001" fill="#5470c6" transform="matrix(19.5,0,0,19.5,210.9654,233.0408)"></path><path d="M1 0A1 1 0 1 1 1 -0.0001" fill="#5470c6" transform="matrix(19.5,0,0,19.5,117.8617,179.2281)"></path><path d="M1 0A1 1 0 1 1 1 -0.0001" fill="#5470c6" transform="matrix(19.5,0,0,19.5,117.0296,70.7692)"></path><path d="M1 0A1 1 0 1 1 1 -0.0001" fill="#5470c6" transform="matrix(19.5,0,0,19.5,211.4512,17.0893)"></path><path d="M1 0A1 1 0 1 1 1 -0.0001" fill="#5470c6" transform="matrix(19.5,0,0,19.5,305.0121,70.5808)"></path><path d="M-32.4922 -5l64.9844 0l0 33l-64.9844 0Z" fill="rgb(0,0,0)" fill-opacity="0" stroke="#ccc" stroke-width="0" transform="translate(237.5 5)"></path><text dominant-baseline="central" fill="#333" style="font-size:23px;font-family:sans-serif;font-weight:bolder;" text-anchor="middle" transform="translate(237.5 5)" y="11.5">C179</text></g></svg>