<svg baseprofile="full" height="250" style="position:absolute;left:0;top:0;user-select:none" version="1.1" width="475" xmlns="http://www.w3.org/2000/svg" xmlns:xlink="http://www.w3.org/1999/xlink"><rect fill="none" height="250" id="0" width="475" x="0" y="0"></rect><g><path d="M117.5 179.0804L117.5 71.5312" fill="none" stroke="#aaa" stroke-opacity="0.5"></path><path d="M117.3651 71.5312L211.1648 233.4103" fill="none" stroke="#aaa" stroke-opacity="0.5"></path><path d="M305.2395 178.9158L117.3651 71.5312" fill="none" stroke="#aaa" stroke-opacity="0.5"></path><path d="M210.8912 16.7098L304.5125 70.3527" fill="none" stroke="#aaa" stroke-opacity="0.5"></path><path d="M117.5822 179.0804L304.5125 70.3527" fill="none" stroke="#aaa" stroke-opacity="0.5"></path><path d="M211.5 16.7098L211.5 233.4103" fill="none" stroke="#aaa" stroke-opacity="0.5"></path><path d="M117.5822 179.0804L211.1648 233.4103" fill="none" stroke="#aaa" stroke-opacity="0.5"></path><path d="M210.8912 16.7098L117.3651 71.5312" fill="none" stroke="#aaa" stroke-opacity="0.5"></path><path d="M305.2395 179.5L117.5822 179.5" fill="none" stroke="#aaa" stroke-opacity="0.5"></path><path d="M305.2395 178.9158L210.8912 16.7098" fill="none" stroke="#aaa" stroke-opacity="0.5"></path><path d="M211.1648 233.4103L304.5125 70.3527" fill="none" stroke="#aaa" stroke-opacity="0.5"></path><path d="M305.2395 178.9158L304.5125 70.3527" fill="none" stroke="#aaa" stroke-opacity="0.5"></path><path d="M117.3651 71.5312L304.5125 70.3527" fill="none" stroke="#aaa" stroke-opacity="0.5"></path><path d="M117.5822 179.0804L210.8912 16.7098" fill="none" stroke="#aaa" stroke-opacity="0.5"></path><path d="M305.2395 178.9158L211.1648 233.4103" fill="none" stroke="#aaa" stroke-opacity="0.5"></path><path d="M1 0A1 1 0 1 1 1 -0.0001" fill="#5470c6" transform="matrix(19.5,0,0,19.5,305.2395,178.9158)"></path><path d="M1 0A1 1 0 1 1 1 -0.0001" fill="#5470c6" transform="matrix(19.5,0,0,19.5,211.1648,233.4103)"></path><path d="M1 0A1 1 0 1 1 1 -0.0001" fill="#5470c6" transform="matrix(19.5,0,0,19.5,117.5822,179.0804)"></path><path d="M1 0A1 1 0 1 1 1 -0.0001" fill="#5470c6" transform="matrix(19.5,0,0,19.5,117.3651,71.5312)"></path><path d="M1 0A1 1 0 1 1 1 -0.0001" fill="#5470c6" transform="matrix(19.5,0,0,19.5,210.8912,16.7098)"></path><path d="M1 0A1 1 0 1 1 1 -0.0001" fill="#5470c6" transform="matrix(19.5,0,0,19.5,304.5125,70.3527)"></path><path d="M-32.4922 -5l64.9844 0l0 33l-64.9844 0Z" fill="rgb(0,0,0)" fill-opacity="0" stroke="#ccc" stroke-width="0" transform="translate(237.5 5)"></path><text dominant-baseline="central" fill="#333" style="font-size:23px;font-family:sans-serif;font-weight:bolder;" text-anchor="middle" transform="translate(237.5 5)" y="11.5">C180</text></g></svg>