<svg baseprofile="full" height="250" style="position:absolute;left:0;top:0;user-select:none" version="1.1" width="475" xmlns="http://www.w3.org/2000/svg" xmlns:xlink="http://www.w3.org/1999/xlink"><rect fill="none" height="250" id="0" width="475" x="0" y="0"></rect><g><path d="M117.9791 70.2422L211.3799 16.688" fill="none" stroke="#aaa" stroke-opacity="0.5"></path><path d="M304.6854 179.9373L117.0401 178.6711" fill="none" stroke="#aaa" stroke-opacity="0.5"></path><path d="M304.6854 179.9373L210.8557 233.0441" fill="none" stroke="#aaa" stroke-opacity="0.5"></path><path d="M304.6854 179.9373L117.9791 70.2422" fill="none" stroke="#aaa" stroke-opacity="0.5"></path><path d="M304.8151 71.4173L210.8557 233.0441" fill="none" stroke="#aaa" stroke-opacity="0.5"></path><path d="M210.8557 233.0441L117.9791 70.2422" fill="none" stroke="#aaa" stroke-opacity="0.5"></path><path d="M304.8151 71.4173L117.9791 70.2422" fill="none" stroke="#aaa" stroke-opacity="0.5"></path><path d="M304.6854 179.9373L211.3799 16.688" fill="none" stroke="#aaa" stroke-opacity="0.5"></path><path d="M210.8557 233.0441L211.3799 16.688" fill="none" stroke="#aaa" stroke-opacity="0.5"></path><path d="M117.0401 178.6711L210.8557 233.0441" fill="none" stroke="#aaa" stroke-opacity="0.5"></path><path d="M304.8151 71.4173L211.3799 16.688" fill="none" stroke="#aaa" stroke-opacity="0.5"></path><path d="M117.0401 178.6711L117.9791 70.2422" fill="none" stroke="#aaa" stroke-opacity="0.5"></path><path d="M304.8151 71.4173L117.0401 178.6711" fill="none" stroke="#aaa" stroke-opacity="0.5"></path><path d="M117.0401 178.6711L211.3799 16.688" fill="none" stroke="#aaa" stroke-opacity="0.5"></path><path d="M304.8151 71.4173L304.6854 179.9373" fill="none" stroke="#aaa" stroke-opacity="0.5"></path><path d="M1 0A1 1 0 1 1 1 -0.0001" fill="#5470c6" transform="matrix(19.5,0,0,19.5,304.6854,179.9373)"></path><path d="M1 0A1 1 0 1 1 1 -0.0001" fill="#5470c6" transform="matrix(19.5,0,0,19.5,210.8557,233.0441)"></path><path d="M1 0A1 1 0 1 1 1 -0.0001" fill="#5470c6" transform="matrix(19.5,0,0,19.5,117.0401,178.6711)"></path><path d="M1 0A1 1 0 1 1 1 -0.0001" fill="#5470c6" transform="matrix(19.5,0,0,19.5,117.9791,70.2422)"></path><path d="M1 0A1 1 0 1 1 1 -0.0001" fill="#5470c6" transform="matrix(19.5,0,0,19.5,211.3799,16.688)"></path><path d="M1 0A1 1 0 1 1 1 -0.0001" fill="#5470c6" transform="matrix(19.5,0,0,19.5,304.8151,71.4173)"></path><path d="M-32.4922 -5l64.9844 0l0 33l-64.9844 0Z" fill="rgb(0,0,0)" fill-opacity="0" stroke="#ccc" stroke-width="0" transform="translate(237.5 5)"></path><text dominant-baseline="central" fill="#333" style="font-size:23px;font-family:sans-serif;font-weight:bolder;" text-anchor="middle" transform="translate(237.5 5)" y="11.5">C181</text></g></svg>