<svg baseprofile="full" height="250" style="position:absolute;left:0;top:0;user-select:none" version="1.1" width="475" xmlns="http://www.w3.org/2000/svg" xmlns:xlink="http://www.w3.org/1999/xlink"><rect fill="none" height="250" id="0" width="475" x="0" y="0"></rect><g><path d="M305.5433 176.8885L213.7775 233.0393" fill="none" stroke="#aaa" stroke-opacity="0.5"></path><path d="M118.2783 181.0586L303.8235 68.8286" fill="none" stroke="#aaa" stroke-opacity="0.5"></path><path d="M118.2783 181.0586L116.7214 73.1313" fill="none" stroke="#aaa" stroke-opacity="0.5"></path><path d="M116.7214 73.1313L208.6113 17.0537" fill="none" stroke="#aaa" stroke-opacity="0.5"></path><path d="M305.5433 176.8885L303.8235 68.8286" fill="none" stroke="#aaa" stroke-opacity="0.5"></path><path d="M305.5433 176.8885L116.7214 73.1313" fill="none" stroke="#aaa" stroke-opacity="0.5"></path><path d="M208.6113 17.0537L213.7775 233.0393" fill="none" stroke="#aaa" stroke-opacity="0.5"></path><path d="M118.2783 181.0586L213.7775 233.0393" fill="none" stroke="#aaa" stroke-opacity="0.5"></path><path d="M208.6113 17.0537L303.8235 68.8286" fill="none" stroke="#aaa" stroke-opacity="0.5"></path><path d="M118.2783 181.0586L208.6113 17.0537" fill="none" stroke="#aaa" stroke-opacity="0.5"></path><path d="M116.7214 73.1313L303.8235 68.8286" fill="none" stroke="#aaa" stroke-opacity="0.5"></path><path d="M305.5433 176.8885L208.6113 17.0537" fill="none" stroke="#aaa" stroke-opacity="0.5"></path><path d="M118.2783 181.0586L305.5433 176.8885" fill="none" stroke="#aaa" stroke-opacity="0.5"></path><path d="M116.7214 73.1313L213.7775 233.0393" fill="none" stroke="#aaa" stroke-opacity="0.5"></path><path d="M303.8235 68.8286L213.7775 233.0393" fill="none" stroke="#aaa" stroke-opacity="0.5"></path><path d="M1 0A1 1 0 1 1 1 -0.0001" fill="#5470c6" transform="matrix(19.5,0,0,19.5,305.5433,176.8885)"></path><path d="M1 0A1 1 0 1 1 1 -0.0001" fill="#5470c6" transform="matrix(19.5,0,0,19.5,213.7775,233.0393)"></path><path d="M1 0A1 1 0 1 1 1 -0.0001" fill="#5470c6" transform="matrix(19.5,0,0,19.5,118.2783,181.0586)"></path><path d="M1 0A1 1 0 1 1 1 -0.0001" fill="#5470c6" transform="matrix(19.5,0,0,19.5,116.7214,73.1313)"></path><path d="M1 0A1 1 0 1 1 1 -0.0001" fill="#5470c6" transform="matrix(19.5,0,0,19.5,208.6113,17.0537)"></path><path d="M1 0A1 1 0 1 1 1 -0.0001" fill="#5470c6" transform="matrix(19.5,0,0,19.5,303.8235,68.8286)"></path><path d="M-32.4922 -5l64.9844 0l0 33l-64.9844 0Z" fill="rgb(0,0,0)" fill-opacity="0" stroke="#ccc" stroke-width="0" transform="translate(237.5 5)"></path><text dominant-baseline="central" fill="#333" style="font-size:23px;font-family:sans-serif;font-weight:bolder;" text-anchor="middle" transform="translate(237.5 5)" y="11.5">C182</text></g></svg>