<svg baseprofile="full" height="250" style="position:absolute;left:0;top:0;user-select:none" version="1.1" width="475" xmlns="http://www.w3.org/2000/svg" xmlns:xlink="http://www.w3.org/1999/xlink"><rect fill="none" height="250" id="0" width="475" x="0" y="0"></rect><g><path d="M210.8634 233.1278L304.9157 70.9694" fill="none" stroke="#aaa" stroke-opacity="0.5"></path><path d="M304.674 179.1202L304.9157 70.9694" fill="none" stroke="#aaa" stroke-opacity="0.5"></path><path d="M304.674 179.1202L117.4672 70.8276" fill="none" stroke="#aaa" stroke-opacity="0.5"></path><path d="M304.674 179.1202L210.8634 233.1278" fill="none" stroke="#aaa" stroke-opacity="0.5"></path><path d="M211.2786 16.9022L117.5565 179.0528" fill="none" stroke="#aaa" stroke-opacity="0.5"></path><path d="M210.8634 233.1278L117.5565 179.0528" fill="none" stroke="#aaa" stroke-opacity="0.5"></path><path d="M304.674 179.5L117.5565 179.5" fill="none" stroke="#aaa" stroke-opacity="0.5"></path><path d="M210.8634 233.1278L117.4672 70.8276" fill="none" stroke="#aaa" stroke-opacity="0.5"></path><path d="M211.2786 16.9022L304.674 179.1202" fill="none" stroke="#aaa" stroke-opacity="0.5"></path><path d="M304.9157 70.9694L117.5565 179.0528" fill="none" stroke="#aaa" stroke-opacity="0.5"></path><path d="M211.2786 16.9022L304.9157 70.9694" fill="none" stroke="#aaa" stroke-opacity="0.5"></path><path d="M117.5 179.0528L117.5 70.8276" fill="none" stroke="#aaa" stroke-opacity="0.5"></path><path d="M211.2786 16.9022L117.4672 70.8276" fill="none" stroke="#aaa" stroke-opacity="0.5"></path><path d="M211.2786 16.9022L210.8634 233.1278" fill="none" stroke="#aaa" stroke-opacity="0.5"></path><path d="M304.9157 71.5L117.4672 71.5" fill="none" stroke="#aaa" stroke-opacity="0.5"></path><path d="M1 0A1 1 0 1 1 1 -0.0001" fill="#5470c6" transform="matrix(19.5,0,0,19.5,304.674,179.1202)"></path><path d="M1 0A1 1 0 1 1 1 -0.0001" fill="#5470c6" transform="matrix(19.5,0,0,19.5,210.8634,233.1278)"></path><path d="M1 0A1 1 0 1 1 1 -0.0001" fill="#5470c6" transform="matrix(19.5,0,0,19.5,117.5565,179.0528)"></path><path d="M1 0A1 1 0 1 1 1 -0.0001" fill="#5470c6" transform="matrix(19.5,0,0,19.5,117.4672,70.8276)"></path><path d="M1 0A1 1 0 1 1 1 -0.0001" fill="#5470c6" transform="matrix(19.5,0,0,19.5,211.2786,16.9022)"></path><path d="M1 0A1 1 0 1 1 1 -0.0001" fill="#5470c6" transform="matrix(19.5,0,0,19.5,304.9157,70.9694)"></path><path d="M-32.4922 -5l64.9844 0l0 33l-64.9844 0Z" fill="rgb(0,0,0)" fill-opacity="0" stroke="#ccc" stroke-width="0" transform="translate(237.5 5)"></path><text dominant-baseline="central" fill="#333" style="font-size:23px;font-family:sans-serif;font-weight:bolder;" text-anchor="middle" transform="translate(237.5 5)" y="11.5">C184</text></g></svg>