<svg baseprofile="full" height="250" style="position:absolute;left:0;top:0;user-select:none" version="1.1" width="475" xmlns="http://www.w3.org/2000/svg" xmlns:xlink="http://www.w3.org/1999/xlink"><rect fill="none" height="250" id="0" width="475" x="0" y="0"></rect><g><path d="M118.6629 180.2672L116.547 72.4455" fill="none" stroke="#aaa" stroke-opacity="0.5"></path><path d="M116.547 72.4455L209.3053 17.3454" fill="none" stroke="#aaa" stroke-opacity="0.5"></path><path d="M209.3053 17.3454L305.6149 177.7335" fill="none" stroke="#aaa" stroke-opacity="0.5"></path><path d="M303.8813 69.1193L209.3053 17.3454" fill="none" stroke="#aaa" stroke-opacity="0.5"></path><path d="M118.6629 180.2672L209.3053 17.3454" fill="none" stroke="#aaa" stroke-opacity="0.5"></path><path d="M116.547 72.4455L305.6149 177.7335" fill="none" stroke="#aaa" stroke-opacity="0.5"></path><path d="M303.8813 69.1193L212.744 233.0891" fill="none" stroke="#aaa" stroke-opacity="0.5"></path><path d="M118.6629 180.2672L212.744 233.0891" fill="none" stroke="#aaa" stroke-opacity="0.5"></path><path d="M303.8813 69.1193L118.6629 180.2672" fill="none" stroke="#aaa" stroke-opacity="0.5"></path><path d="M212.744 233.0891L305.6149 177.7335" fill="none" stroke="#aaa" stroke-opacity="0.5"></path><path d="M116.547 72.4455L212.744 233.0891" fill="none" stroke="#aaa" stroke-opacity="0.5"></path><path d="M303.8813 69.1193L305.6149 177.7335" fill="none" stroke="#aaa" stroke-opacity="0.5"></path><path d="M118.6629 180.2672L305.6149 177.7335" fill="none" stroke="#aaa" stroke-opacity="0.5"></path><path d="M209.3053 17.3454L212.744 233.0891" fill="none" stroke="#aaa" stroke-opacity="0.5"></path><path d="M303.8813 69.1193L116.547 72.4455" fill="none" stroke="#aaa" stroke-opacity="0.5"></path><path d="M1 0A1 1 0 1 1 1 -0.0001" fill="#5470c6" transform="matrix(19.5,0,0,19.5,305.6149,177.7335)"></path><path d="M1 0A1 1 0 1 1 1 -0.0001" fill="#5470c6" transform="matrix(19.5,0,0,19.5,212.744,233.0891)"></path><path d="M1 0A1 1 0 1 1 1 -0.0001" fill="#5470c6" transform="matrix(19.5,0,0,19.5,118.6629,180.2672)"></path><path d="M1 0A1 1 0 1 1 1 -0.0001" fill="#5470c6" transform="matrix(19.5,0,0,19.5,116.547,72.4455)"></path><path d="M1 0A1 1 0 1 1 1 -0.0001" fill="#5470c6" transform="matrix(19.5,0,0,19.5,209.3053,17.3454)"></path><path d="M1 0A1 1 0 1 1 1 -0.0001" fill="#5470c6" transform="matrix(19.5,0,0,19.5,303.8813,69.1193)"></path><path d="M-32.4922 -5l64.9844 0l0 33l-64.9844 0Z" fill="rgb(0,0,0)" fill-opacity="0" stroke="#ccc" stroke-width="0" transform="translate(237.5 5)"></path><text dominant-baseline="central" fill="#333" style="font-size:23px;font-family:sans-serif;font-weight:bolder;" text-anchor="middle" transform="translate(237.5 5)" y="11.5">C185</text></g></svg>