<svg baseprofile="full" height="250" style="position:absolute;left:0;top:0;user-select:none" version="1.1" width="475" xmlns="http://www.w3.org/2000/svg" xmlns:xlink="http://www.w3.org/1999/xlink"><rect fill="none" height="250" id="0" width="475" x="0" y="0"></rect><g><path d="M214.4785 232.7502L116.1226 73.6033" fill="none" stroke="#aaa" stroke-opacity="0.5"></path><path d="M306.4913 176.2065L207.7072 16.8981" fill="none" stroke="#aaa" stroke-opacity="0.5"></path><path d="M118.8716 182.3264L306.4913 176.2065" fill="none" stroke="#aaa" stroke-opacity="0.5"></path><path d="M118.8716 182.3264L214.4785 232.7502" fill="none" stroke="#aaa" stroke-opacity="0.5"></path><path d="M118.8716 182.3264L207.7072 16.8981" fill="none" stroke="#aaa" stroke-opacity="0.5"></path><path d="M118.8716 182.3264L303.084 68.2154" fill="none" stroke="#aaa" stroke-opacity="0.5"></path><path d="M116.1226 73.6033L207.7072 16.8981" fill="none" stroke="#aaa" stroke-opacity="0.5"></path><path d="M306.4913 176.2065L214.4785 232.7502" fill="none" stroke="#aaa" stroke-opacity="0.5"></path><path d="M116.1226 73.6033L303.084 68.2154" fill="none" stroke="#aaa" stroke-opacity="0.5"></path><path d="M306.4913 176.2065L303.084 68.2154" fill="none" stroke="#aaa" stroke-opacity="0.5"></path><path d="M118.8716 182.3264L116.1226 73.6033" fill="none" stroke="#aaa" stroke-opacity="0.5"></path><path d="M303.084 68.2154L207.7072 16.8981" fill="none" stroke="#aaa" stroke-opacity="0.5"></path><path d="M306.4913 176.2065L116.1226 73.6033" fill="none" stroke="#aaa" stroke-opacity="0.5"></path><path d="M214.4785 232.7502L207.7072 16.8981" fill="none" stroke="#aaa" stroke-opacity="0.5"></path><path d="M214.4785 232.7502L303.084 68.2154" fill="none" stroke="#aaa" stroke-opacity="0.5"></path><path d="M1 0A1 1 0 1 1 1 -0.0001" fill="#5470c6" transform="matrix(19.5,0,0,19.5,306.4913,176.2065)"></path><path d="M1 0A1 1 0 1 1 1 -0.0001" fill="#5470c6" transform="matrix(19.5,0,0,19.5,214.4785,232.7502)"></path><path d="M1 0A1 1 0 1 1 1 -0.0001" fill="#5470c6" transform="matrix(19.5,0,0,19.5,118.8716,182.3264)"></path><path d="M1 0A1 1 0 1 1 1 -0.0001" fill="#5470c6" transform="matrix(19.5,0,0,19.5,116.1226,73.6033)"></path><path d="M1 0A1 1 0 1 1 1 -0.0001" fill="#5470c6" transform="matrix(19.5,0,0,19.5,207.7072,16.8981)"></path><path d="M1 0A1 1 0 1 1 1 -0.0001" fill="#5470c6" transform="matrix(19.5,0,0,19.5,303.084,68.2154)"></path><path d="M-32.4922 -5l64.9844 0l0 33l-64.9844 0Z" fill="rgb(0,0,0)" fill-opacity="0" stroke="#ccc" stroke-width="0" transform="translate(237.5 5)"></path><text dominant-baseline="central" fill="#333" style="font-size:23px;font-family:sans-serif;font-weight:bolder;" text-anchor="middle" transform="translate(237.5 5)" y="11.5">C187</text></g></svg>