<svg baseprofile="full" height="250" style="position:absolute;left:0;top:0;user-select:none" version="1.1" width="475" xmlns="http://www.w3.org/2000/svg" xmlns:xlink="http://www.w3.org/1999/xlink"><rect fill="none" height="250" id="0" width="475" x="0" y="0"></rect><g><path d="M303.541 181.6029L118.7105 68.333" fill="none" stroke="#aaa" stroke-opacity="0.5"></path><path d="M116.4737 176.3961L207.9616 233.0692" fill="none" stroke="#aaa" stroke-opacity="0.5"></path><path d="M207.9616 233.0692L118.7105 68.333" fill="none" stroke="#aaa" stroke-opacity="0.5"></path><path d="M305.9523 73.3556L214.1162 17.2431" fill="none" stroke="#aaa" stroke-opacity="0.5"></path><path d="M116.4737 176.3961L118.7105 68.333" fill="none" stroke="#aaa" stroke-opacity="0.5"></path><path d="M118.7105 68.333L214.1162 17.2431" fill="none" stroke="#aaa" stroke-opacity="0.5"></path><path d="M207.9616 233.0692L214.1162 17.2431" fill="none" stroke="#aaa" stroke-opacity="0.5"></path><path d="M303.541 181.6029L305.9523 73.3556" fill="none" stroke="#aaa" stroke-opacity="0.5"></path><path d="M116.4737 176.3961L214.1162 17.2431" fill="none" stroke="#aaa" stroke-opacity="0.5"></path><path d="M207.9616 233.0692L305.9523 73.3556" fill="none" stroke="#aaa" stroke-opacity="0.5"></path><path d="M116.4737 176.3961L305.9523 73.3556" fill="none" stroke="#aaa" stroke-opacity="0.5"></path><path d="M207.9616 233.0692L303.541 181.6029" fill="none" stroke="#aaa" stroke-opacity="0.5"></path><path d="M116.4737 176.3961L303.541 181.6029" fill="none" stroke="#aaa" stroke-opacity="0.5"></path><path d="M303.541 181.6029L214.1162 17.2431" fill="none" stroke="#aaa" stroke-opacity="0.5"></path><path d="M305.9523 73.3556L118.7105 68.333" fill="none" stroke="#aaa" stroke-opacity="0.5"></path><path d="M1 0A1 1 0 1 1 1 -0.0001" fill="#5470c6" transform="matrix(19.5,0,0,19.5,303.541,181.6029)"></path><path d="M1 0A1 1 0 1 1 1 -0.0001" fill="#5470c6" transform="matrix(19.5,0,0,19.5,207.9616,233.0692)"></path><path d="M1 0A1 1 0 1 1 1 -0.0001" fill="#5470c6" transform="matrix(19.5,0,0,19.5,116.4737,176.3961)"></path><path d="M1 0A1 1 0 1 1 1 -0.0001" fill="#5470c6" transform="matrix(19.5,0,0,19.5,118.7105,68.333)"></path><path d="M1 0A1 1 0 1 1 1 -0.0001" fill="#5470c6" transform="matrix(19.5,0,0,19.5,214.1162,17.2431)"></path><path d="M1 0A1 1 0 1 1 1 -0.0001" fill="#5470c6" transform="matrix(19.5,0,0,19.5,305.9523,73.3556)"></path><path d="M-32.4922 -5l64.9844 0l0 33l-64.9844 0Z" fill="rgb(0,0,0)" fill-opacity="0" stroke="#ccc" stroke-width="0" transform="translate(237.5 5)"></path><text dominant-baseline="central" fill="#333" style="font-size:23px;font-family:sans-serif;font-weight:bolder;" text-anchor="middle" transform="translate(237.5 5)" y="11.5">C188</text></g></svg>