<svg baseprofile="full" height="250" style="position:absolute;left:0;top:0;user-select:none" version="1.1" width="475" xmlns="http://www.w3.org/2000/svg" xmlns:xlink="http://www.w3.org/1999/xlink"><rect fill="none" height="250" id="0" width="475" x="0" y="0"></rect><g><path d="M304.8242 178.4782L210.4034 16.6364" fill="none" stroke="#aaa" stroke-opacity="0.5"></path><path d="M117.4052 179.5858L304.8242 178.4782" fill="none" stroke="#aaa" stroke-opacity="0.5"></path><path d="M117.4052 179.5858L304.6414 69.9048" fill="none" stroke="#aaa" stroke-opacity="0.5"></path><path d="M212.0029 233.4613L304.6414 69.9048" fill="none" stroke="#aaa" stroke-opacity="0.5"></path><path d="M117.5 179.5858L117.5 71.9336" fill="none" stroke="#aaa" stroke-opacity="0.5"></path><path d="M212.0029 233.4613L117.4782 71.9336" fill="none" stroke="#aaa" stroke-opacity="0.5"></path><path d="M304.8242 178.4782L212.0029 233.4613" fill="none" stroke="#aaa" stroke-opacity="0.5"></path><path d="M117.4052 179.5858L210.4034 16.6364" fill="none" stroke="#aaa" stroke-opacity="0.5"></path><path d="M212.0029 233.4613L210.4034 16.6364" fill="none" stroke="#aaa" stroke-opacity="0.5"></path><path d="M210.4034 16.6364L304.6414 69.9048" fill="none" stroke="#aaa" stroke-opacity="0.5"></path><path d="M210.4034 16.6364L117.4782 71.9336" fill="none" stroke="#aaa" stroke-opacity="0.5"></path><path d="M117.4052 179.5858L212.0029 233.4613" fill="none" stroke="#aaa" stroke-opacity="0.5"></path><path d="M304.8242 178.4782L304.6414 69.9048" fill="none" stroke="#aaa" stroke-opacity="0.5"></path><path d="M304.8242 178.4782L117.4782 71.9336" fill="none" stroke="#aaa" stroke-opacity="0.5"></path><path d="M304.6414 69.9048L117.4782 71.9336" fill="none" stroke="#aaa" stroke-opacity="0.5"></path><path d="M1 0A1 1 0 1 1 1 -0.0001" fill="#5470c6" transform="matrix(19.5,0,0,19.5,304.8242,178.4782)"></path><path d="M1 0A1 1 0 1 1 1 -0.0001" fill="#5470c6" transform="matrix(19.5,0,0,19.5,212.0029,233.4613)"></path><path d="M1 0A1 1 0 1 1 1 -0.0001" fill="#5470c6" transform="matrix(19.5,0,0,19.5,117.4052,179.5858)"></path><path d="M1 0A1 1 0 1 1 1 -0.0001" fill="#5470c6" transform="matrix(19.5,0,0,19.5,117.4782,71.9336)"></path><path d="M1 0A1 1 0 1 1 1 -0.0001" fill="#5470c6" transform="matrix(19.5,0,0,19.5,210.4034,16.6364)"></path><path d="M1 0A1 1 0 1 1 1 -0.0001" fill="#5470c6" transform="matrix(19.5,0,0,19.5,304.6414,69.9048)"></path><path d="M-32.4922 -5l64.9844 0l0 33l-64.9844 0Z" fill="rgb(0,0,0)" fill-opacity="0" stroke="#ccc" stroke-width="0" transform="translate(237.5 5)"></path><text dominant-baseline="central" fill="#333" style="font-size:23px;font-family:sans-serif;font-weight:bolder;" text-anchor="middle" transform="translate(237.5 5)" y="11.5">C189</text></g></svg>