<svg baseprofile="full" height="250" style="position:absolute;left:0;top:0;user-select:none" version="1.1" width="475" xmlns="http://www.w3.org/2000/svg" xmlns:xlink="http://www.w3.org/1999/xlink"><rect fill="none" height="250" id="0" width="475" x="0" y="0"></rect><g><path d="M271.4337 121.9558L162.789 209.0712" fill="none" stroke="#aaa" stroke-opacity="0.5" stroke-width="0.5"></path><path d="M271.4337 121.9558L164.4821 130.7894" fill="none" stroke="#aaa" stroke-opacity="0.5" stroke-width="0.5"></path><path d="M292.8435 74.2843L266.3567 42.625" fill="none" stroke="#aaa" stroke-opacity="0.5" stroke-width="0.5"></path><path d="M266.3567 42.625L129.8113 79.5899" fill="none" stroke="#aaa" stroke-opacity="0.5" stroke-width="0.5"></path><path d="M201.7587 221.5319L241.4641 220.2123" fill="none" stroke="#aaa" stroke-opacity="0.5" stroke-width="0.5"></path><path d="M149.6468 47.0537L238.8347 76.8664" fill="none" stroke="#aaa" stroke-opacity="0.5" stroke-width="0.5"></path><path d="M266.3567 42.625L226.1505 28.8135" fill="none" stroke="#aaa" stroke-opacity="0.5" stroke-width="0.5"></path><path d="M194.6394 175.4596L186.372 79.9476" fill="none" stroke="#aaa" stroke-opacity="0.5" stroke-width="0.5"></path><path d="M238.8347 76.8664L186.372 79.9476" fill="none" stroke="#aaa" stroke-opacity="0.5" stroke-width="0.5"></path><path d="M292.8435 74.2843L241.4641 220.2123" fill="none" stroke="#aaa" stroke-opacity="0.5" stroke-width="0.5"></path><path d="M266.3567 42.625L238.8347 76.8664" fill="none" stroke="#aaa" stroke-opacity="0.5" stroke-width="0.5"></path><path d="M271.4337 121.9558L187.3969 32.511" fill="none" stroke="#aaa" stroke-opacity="0.5" stroke-width="0.5"></path><path d="M218.9165 126.2276L186.372 79.9476" fill="none" stroke="#aaa" stroke-opacity="0.5" stroke-width="0.5"></path><path d="M271.4337 121.9558L282.0095 194.6508" fill="none" stroke="#aaa" stroke-opacity="0.5" stroke-width="0.5"></path><path d="M134.2359 183.0616L241.4641 220.2123" fill="none" stroke="#aaa" stroke-opacity="0.5" stroke-width="0.5"></path><path d="M119.5209 149.2245L271.4337 121.9558" fill="none" stroke="#aaa" stroke-opacity="0.5" stroke-width="0.5"></path><path d="M241.4641 220.2123L164.4821 130.7894" fill="none" stroke="#aaa" stroke-opacity="0.5" stroke-width="0.5"></path><path d="M292.8435 74.2843L248.2078 173.2981" fill="none" stroke="#aaa" stroke-opacity="0.5" stroke-width="0.5"></path><path d="M119.5209 149.2245L149.6468 47.0537" fill="none" stroke="#aaa" stroke-opacity="0.5" stroke-width="0.5"></path><path d="M311.4178 113.2814L194.6394 175.4596" fill="none" stroke="#aaa" stroke-opacity="0.5" stroke-width="0.5"></path><path d="M201.7587 221.5319L194.6394 175.4596" fill="none" stroke="#aaa" stroke-opacity="0.5" stroke-width="0.5"></path><path d="M218.9165 126.2276L303.1373 157.766" fill="none" stroke="#aaa" stroke-opacity="0.5" stroke-width="0.5"></path><path d="M303.1373 157.766L162.789 209.0712" fill="none" stroke="#aaa" stroke-opacity="0.5" stroke-width="0.5"></path><path d="M303.1373 157.766L164.4821 130.7894" fill="none" stroke="#aaa" stroke-opacity="0.5" stroke-width="0.5"></path><path d="M311.4178 113.2814L271.4337 121.9558" fill="none" stroke="#aaa" stroke-opacity="0.5" stroke-width="0.5"></path><path d="M149.6468 47.0537L266.3567 42.625" fill="none" stroke="#aaa" stroke-opacity="0.5" stroke-width="0.5"></path><path d="M271.4337 121.9558L226.1505 28.8135" fill="none" stroke="#aaa" stroke-opacity="0.5" stroke-width="0.5"></path><path d="M201.7587 221.5319L271.4337 121.9558" fill="none" stroke="#aaa" stroke-opacity="0.5" stroke-width="0.5"></path><path d="M187.3969 32.511L186.372 79.9476" fill="none" stroke="#aaa" stroke-opacity="0.5" stroke-width="0.5"></path><path d="M241.4641 220.2123L129.8113 79.5899" fill="none" stroke="#aaa" stroke-opacity="0.5" stroke-width="0.5"></path><path d="M311.4178 113.2814L149.6468 47.0537" fill="none" stroke="#aaa" stroke-opacity="0.5" stroke-width="0.5"></path><path d="M201.7587 221.5319L149.6468 47.0537" fill="none" stroke="#aaa" stroke-opacity="0.5" stroke-width="0.5"></path><path d="M113.3444 111.7786L134.2359 183.0616" fill="none" stroke="#aaa" stroke-opacity="0.5" stroke-width="0.5"></path><path d="M134.2359 183.0616L194.6394 175.4596" fill="none" stroke="#aaa" stroke-opacity="0.5" stroke-width="0.5"></path><path d="M248.2078 173.2981L129.8113 79.5899" fill="none" stroke="#aaa" stroke-opacity="0.5" stroke-width="0.5"></path><path d="M271.4337 121.9558L238.8347 76.8664" fill="none" stroke="#aaa" stroke-opacity="0.5" stroke-width="0.5"></path><path d="M218.9165 126.2276L134.2359 183.0616" fill="none" stroke="#aaa" stroke-opacity="0.5" stroke-width="0.5"></path><path d="M292.8435 74.2843L271.4337 121.9558" fill="none" stroke="#aaa" stroke-opacity="0.5" stroke-width="0.5"></path><path d="M303.1373 157.766L187.3969 32.511" fill="none" stroke="#aaa" stroke-opacity="0.5" stroke-width="0.5"></path><path d="M134.2359 183.0616L271.4337 121.9558" fill="none" stroke="#aaa" stroke-opacity="0.5" stroke-width="0.5"></path><path d="M194.6394 175.4596L282.0095 194.6508" fill="none" stroke="#aaa" stroke-opacity="0.5" stroke-width="0.5"></path><path d="M303.1373 157.766L282.0095 194.6508" fill="none" stroke="#aaa" stroke-opacity="0.5" stroke-width="0.5"></path><path d="M303.1373 157.766L201.7587 221.5319" fill="none" stroke="#aaa" stroke-opacity="0.5" stroke-width="0.5"></path><path d="M162.789 209.0712L164.4821 130.7894" fill="none" stroke="#aaa" stroke-opacity="0.5" stroke-width="0.5"></path><path d="M226.1505 28.8135L186.372 79.9476" fill="none" stroke="#aaa" stroke-opacity="0.5" stroke-width="0.5"></path><path d="M248.2078 173.2981L238.8347 76.8664" fill="none" stroke="#aaa" stroke-opacity="0.5" stroke-width="0.5"></path><path d="M149.6468 47.0537L248.2078 173.2981" fill="none" stroke="#aaa" stroke-opacity="0.5" stroke-width="0.5"></path><path d="M218.9165 126.2276L282.0095 194.6508" fill="none" stroke="#aaa" stroke-opacity="0.5" stroke-width="0.5"></path><path d="M311.4178 113.2814L119.5209 149.2245" fill="none" stroke="#aaa" stroke-opacity="0.5" stroke-width="0.5"></path><path d="M201.7587 221.5319L119.5209 149.2245" fill="none" stroke="#aaa" stroke-opacity="0.5" stroke-width="0.5"></path><path d="M119.5209 149.2245L186.372 79.9476" fill="none" stroke="#aaa" stroke-opacity="0.5" stroke-width="0.5"></path><path d="M303.1373 157.766L292.8435 74.2843" fill="none" stroke="#aaa" stroke-opacity="0.5" stroke-width="0.5"></path><path d="M194.6394 175.4596L129.8113 79.5899" fill="none" stroke="#aaa" stroke-opacity="0.5" stroke-width="0.5"></path><path d="M113.3444 111.7786L129.8113 79.5899" fill="none" stroke="#aaa" stroke-opacity="0.5" stroke-width="0.5"></path><path d="M194.6394 175.4596L226.1505 28.8135" fill="none" stroke="#aaa" stroke-opacity="0.5" stroke-width="0.5"></path><path d="M303.1373 157.766L226.1505 28.8135" fill="none" stroke="#aaa" stroke-opacity="0.5" stroke-width="0.5"></path><path d="M218.9165 126.2276L129.8113 79.5899" fill="none" stroke="#aaa" stroke-opacity="0.5" stroke-width="0.5"></path><path d="M201.7587 221.5319L186.372 79.9476" fill="none" stroke="#aaa" stroke-opacity="0.5" stroke-width="0.5"></path><path d="M194.6394 175.4596L238.8347 76.8664" fill="none" stroke="#aaa" stroke-opacity="0.5" stroke-width="0.5"></path><path d="M303.1373 157.766L238.8347 76.8664" fill="none" stroke="#aaa" stroke-opacity="0.5" stroke-width="0.5"></path><path d="M241.4641 220.2123L266.3567 42.625" fill="none" stroke="#aaa" stroke-opacity="0.5" stroke-width="0.5"></path><path d="M129.8113 79.5899L162.789 209.0712" fill="none" stroke="#aaa" stroke-opacity="0.5" stroke-width="0.5"></path><path d="M113.3444 111.7786L292.8435 74.2843" fill="none" stroke="#aaa" stroke-opacity="0.5" stroke-width="0.5"></path><path d="M129.8113 79.5899L164.4821 130.7894" fill="none" stroke="#aaa" stroke-opacity="0.5" stroke-width="0.5"></path><path d="M218.9165 126.2276L238.8347 76.8664" fill="none" stroke="#aaa" stroke-opacity="0.5" stroke-width="0.5"></path><path d="M292.8435 74.2843L186.372 79.9476" fill="none" stroke="#aaa" stroke-opacity="0.5" stroke-width="0.5"></path><path d="M248.2078 173.2981L266.3567 42.625" fill="none" stroke="#aaa" stroke-opacity="0.5" stroke-width="0.5"></path><path d="M134.2359 183.0616L186.372 79.9476" fill="none" stroke="#aaa" stroke-opacity="0.5" stroke-width="0.5"></path><path d="M119.5209 149.2245L134.2359 183.0616" fill="none" stroke="#aaa" stroke-opacity="0.5" stroke-width="0.5"></path><path d="M187.3969 32.511L129.8113 79.5899" fill="none" stroke="#aaa" stroke-opacity="0.5" stroke-width="0.5"></path><path d="M271.4337 121.9558L194.6394 175.4596" fill="none" stroke="#aaa" stroke-opacity="0.5" stroke-width="0.5"></path><path d="M149.6468 47.0537L113.3444 111.7786" fill="none" stroke="#aaa" stroke-opacity="0.5" stroke-width="0.5"></path><path d="M164.4821 130.7894L226.1505 28.8135" fill="none" stroke="#aaa" stroke-opacity="0.5" stroke-width="0.5"></path><path d="M311.4178 113.2814L134.2359 183.0616" fill="none" stroke="#aaa" stroke-opacity="0.5" stroke-width="0.5"></path><path d="M119.5209 149.2245L282.0095 194.6508" fill="none" stroke="#aaa" stroke-opacity="0.5" stroke-width="0.5"></path><path d="M201.7587 221.5319L134.2359 183.0616" fill="none" stroke="#aaa" stroke-opacity="0.5" stroke-width="0.5"></path><path d="M187.3969 32.511L238.8347 76.8664" fill="none" stroke="#aaa" stroke-opacity="0.5" stroke-width="0.5"></path><path d="M113.3444 111.7786L266.3567 42.625" fill="none" stroke="#aaa" stroke-opacity="0.5" stroke-width="0.5"></path><path d="M311.4178 113.2814L164.4821 130.7894" fill="none" stroke="#aaa" stroke-opacity="0.5" stroke-width="0.5"></path><path d="M218.9165 126.2276L266.3567 42.625" fill="none" stroke="#aaa" stroke-opacity="0.5" stroke-width="0.5"></path><path d="M119.5209 149.2245L129.8113 79.5899" fill="none" stroke="#aaa" stroke-opacity="0.5" stroke-width="0.5"></path><path d="M119.5209 149.2245L226.1505 28.8135" fill="none" stroke="#aaa" stroke-opacity="0.5" stroke-width="0.5"></path><path d="M113.3444 111.7786L241.4641 220.2123" fill="none" stroke="#aaa" stroke-opacity="0.5" stroke-width="0.5"></path><path d="M292.8435 74.2843L187.3969 32.511" fill="none" stroke="#aaa" stroke-opacity="0.5" stroke-width="0.5"></path><path d="M303.1373 157.766L194.6394 175.4596" fill="none" stroke="#aaa" stroke-opacity="0.5" stroke-width="0.5"></path><path d="M311.4178 113.2814L129.8113 79.5899" fill="none" stroke="#aaa" stroke-opacity="0.5" stroke-width="0.5"></path><path d="M292.8435 74.2843L282.0095 194.6508" fill="none" stroke="#aaa" stroke-opacity="0.5" stroke-width="0.5"></path><path d="M201.7587 221.5319L129.8113 79.5899" fill="none" stroke="#aaa" stroke-opacity="0.5" stroke-width="0.5"></path><path d="M119.5209 149.2245L238.8347 76.8664" fill="none" stroke="#aaa" stroke-opacity="0.5" stroke-width="0.5"></path><path d="M113.3444 111.7786L248.2078 173.2981" fill="none" stroke="#aaa" stroke-opacity="0.5" stroke-width="0.5"></path><path d="M218.9165 126.2276L194.6394 175.4596" fill="none" stroke="#aaa" stroke-opacity="0.5" stroke-width="0.5"></path><path d="M187.3969 32.511L266.3567 42.625" fill="none" stroke="#aaa" stroke-opacity="0.5" stroke-width="0.5"></path><path d="M303.1373 157.766L271.4337 121.9558" fill="none" stroke="#aaa" stroke-opacity="0.5" stroke-width="0.5"></path><path d="M149.6468 47.0537L162.789 209.0712" fill="none" stroke="#aaa" stroke-opacity="0.5" stroke-width="0.5"></path><path d="M218.9165 126.2276L248.2078 173.2981" fill="none" stroke="#aaa" stroke-opacity="0.5" stroke-width="0.5"></path><path d="M303.1373 157.766L149.6468 47.0537" fill="none" stroke="#aaa" stroke-opacity="0.5" stroke-width="0.5"></path><path d="M149.6468 47.0537L164.4821 130.7894" fill="none" stroke="#aaa" stroke-opacity="0.5" stroke-width="0.5"></path><path d="M271.4337 121.9558L186.372 79.9476" fill="none" stroke="#aaa" stroke-opacity="0.5" stroke-width="0.5"></path><path d="M201.7587 221.5319L238.8347 76.8664" fill="none" stroke="#aaa" stroke-opacity="0.5" stroke-width="0.5"></path><path d="M311.4178 113.2814L292.8435 74.2843" fill="none" stroke="#aaa" stroke-opacity="0.5" stroke-width="0.5"></path><path d="M292.8435 74.2843L226.1505 28.8135" fill="none" stroke="#aaa" stroke-opacity="0.5" stroke-width="0.5"></path><path d="M134.2359 183.0616L129.8113 79.5899" fill="none" stroke="#aaa" stroke-opacity="0.5" stroke-width="0.5"></path><path d="M266.3567 42.625L162.789 209.0712" fill="none" stroke="#aaa" stroke-opacity="0.5" stroke-width="0.5"></path><path d="M266.3567 42.625L164.4821 130.7894" fill="none" stroke="#aaa" stroke-opacity="0.5" stroke-width="0.5"></path><path d="M292.8435 74.2843L238.8347 76.8664" fill="none" stroke="#aaa" stroke-opacity="0.5" stroke-width="0.5"></path><path d="M134.2359 183.0616L238.8347 76.8664" fill="none" stroke="#aaa" stroke-opacity="0.5" stroke-width="0.5"></path><path d="M187.3969 32.511L248.2078 173.2981" fill="none" stroke="#aaa" stroke-opacity="0.5" stroke-width="0.5"></path><path d="M149.6468 47.0537L187.3969 32.511" fill="none" stroke="#aaa" stroke-opacity="0.5" stroke-width="0.5"></path><path d="M303.1373 157.766L119.5209 149.2245" fill="none" stroke="#aaa" stroke-opacity="0.5" stroke-width="0.5"></path><path d="M149.6468 47.0537L282.0095 194.6508" fill="none" stroke="#aaa" stroke-opacity="0.5" stroke-width="0.5"></path><path d="M241.4641 220.2123L186.372 79.9476" fill="none" stroke="#aaa" stroke-opacity="0.5" stroke-width="0.5"></path><path d="M218.9165 126.2276L119.5209 149.2245" fill="none" stroke="#aaa" stroke-opacity="0.5" stroke-width="0.5"></path><path d="M311.4178 113.2814L266.3567 42.625" fill="none" stroke="#aaa" stroke-opacity="0.5" stroke-width="0.5"></path><path d="M149.6468 47.0537L292.8435 74.2843" fill="none" stroke="#aaa" stroke-opacity="0.5" stroke-width="0.5"></path><path d="M201.7587 221.5319L266.3567 42.625" fill="none" stroke="#aaa" stroke-opacity="0.5" stroke-width="0.5"></path><path d="M218.9165 126.2276L113.3444 111.7786" fill="none" stroke="#aaa" stroke-opacity="0.5" stroke-width="0.5"></path><path d="M303.1373 157.766L186.372 79.9476" fill="none" stroke="#aaa" stroke-opacity="0.5" stroke-width="0.5"></path><path d="M149.6468 47.0537L226.1505 28.8135" fill="none" stroke="#aaa" stroke-opacity="0.5" stroke-width="0.5"></path><path d="M119.5209 149.2245L194.6394 175.4596" fill="none" stroke="#aaa" stroke-opacity="0.5" stroke-width="0.5"></path><path d="M119.5209 149.2245L248.2078 173.2981" fill="none" stroke="#aaa" stroke-opacity="0.5" stroke-width="0.5"></path><path d="M241.4641 220.2123L162.789 209.0712" fill="none" stroke="#aaa" stroke-opacity="0.5" stroke-width="0.5"></path><path d="M311.4178 113.2814L241.4641 220.2123" fill="none" stroke="#aaa" stroke-opacity="0.5" stroke-width="0.5"></path><path d="M134.2359 183.0616L266.3567 42.625" fill="none" stroke="#aaa" stroke-opacity="0.5" stroke-width="0.5"></path><path d="M282.0095 194.6508L186.372 79.9476" fill="none" stroke="#aaa" stroke-opacity="0.5" stroke-width="0.5"></path><path d="M248.2078 173.2981L162.789 209.0712" fill="none" stroke="#aaa" stroke-opacity="0.5" stroke-width="0.5"></path><path d="M248.2078 173.2981L164.4821 130.7894" fill="none" stroke="#aaa" stroke-opacity="0.5" stroke-width="0.5"></path><path d="M113.3444 111.7786L186.372 79.9476" fill="none" stroke="#aaa" stroke-opacity="0.5" stroke-width="0.5"></path><path d="M271.4337 121.9558L129.8113 79.5899" fill="none" stroke="#aaa" stroke-opacity="0.5" stroke-width="0.5"></path><path d="M311.4178 113.2814L248.2078 173.2981" fill="none" stroke="#aaa" stroke-opacity="0.5" stroke-width="0.5"></path><path d="M201.7587 221.5319L248.2078 173.2981" fill="none" stroke="#aaa" stroke-opacity="0.5" stroke-width="0.5"></path><path d="M162.789 209.0712L186.372 79.9476" fill="none" stroke="#aaa" stroke-opacity="0.5" stroke-width="0.5"></path><path d="M292.8435 74.2843L194.6394 175.4596" fill="none" stroke="#aaa" stroke-opacity="0.5" stroke-width="0.5"></path><path d="M303.1373 157.766L134.2359 183.0616" fill="none" stroke="#aaa" stroke-opacity="0.5" stroke-width="0.5"></path><path d="M164.4821 130.7894L186.372 79.9476" fill="none" stroke="#aaa" stroke-opacity="0.5" stroke-width="0.5"></path><path d="M241.4641 220.2123L282.0095 194.6508" fill="none" stroke="#aaa" stroke-opacity="0.5" stroke-width="0.5"></path><path d="M194.6394 175.4596L162.789 209.0712" fill="none" stroke="#aaa" stroke-opacity="0.5" stroke-width="0.5"></path><path d="M134.2359 183.0616L248.2078 173.2981" fill="none" stroke="#aaa" stroke-opacity="0.5" stroke-width="0.5"></path><path d="M113.3444 111.7786L162.789 209.0712" fill="none" stroke="#aaa" stroke-opacity="0.5" stroke-width="0.5"></path><path d="M194.6394 175.4596L164.4821 130.7894" fill="none" stroke="#aaa" stroke-opacity="0.5" stroke-width="0.5"></path><path d="M149.6468 47.0537L241.4641 220.2123" fill="none" stroke="#aaa" stroke-opacity="0.5" stroke-width="0.5"></path><path d="M248.2078 173.2981L282.0095 194.6508" fill="none" stroke="#aaa" stroke-opacity="0.5" stroke-width="0.5"></path><path d="M113.3444 111.7786L164.4821 130.7894" fill="none" stroke="#aaa" stroke-opacity="0.5" stroke-width="0.5"></path><path d="M238.8347 76.8664L164.4821 130.7894" fill="none" stroke="#aaa" stroke-opacity="0.5" stroke-width="0.5"></path><path d="M218.9165 126.2276L162.789 209.0712" fill="none" stroke="#aaa" stroke-opacity="0.5" stroke-width="0.5"></path><path d="M119.5209 149.2245L113.3444 111.7786" fill="none" stroke="#aaa" stroke-opacity="0.5" stroke-width="0.5"></path><path d="M218.9165 126.2276L164.4821 130.7894" fill="none" stroke="#aaa" stroke-opacity="0.5" stroke-width="0.5"></path><path d="M241.4641 220.2123L226.1505 28.8135" fill="none" stroke="#aaa" stroke-opacity="0.5" stroke-width="0.5"></path><path d="M129.8113 79.5899L186.372 79.9476" fill="none" stroke="#aaa" stroke-opacity="0.5" stroke-width="0.5"></path><path d="M303.1373 157.766L129.8113 79.5899" fill="none" stroke="#aaa" stroke-opacity="0.5" stroke-width="0.5"></path><path d="M248.2078 173.2981L226.1505 28.8135" fill="none" stroke="#aaa" stroke-opacity="0.5" stroke-width="0.5"></path><path d="M311.4178 113.2814L113.3444 111.7786" fill="none" stroke="#aaa" stroke-opacity="0.5" stroke-width="0.5"></path><path d="M201.7587 221.5319L113.3444 111.7786" fill="none" stroke="#aaa" stroke-opacity="0.5" stroke-width="0.5"></path><path d="M241.4641 220.2123L238.8347 76.8664" fill="none" stroke="#aaa" stroke-opacity="0.5" stroke-width="0.5"></path><path d="M113.3444 111.7786L187.3969 32.511" fill="none" stroke="#aaa" stroke-opacity="0.5" stroke-width="0.5"></path><path d="M113.3444 111.7786L282.0095 194.6508" fill="none" stroke="#aaa" stroke-opacity="0.5" stroke-width="0.5"></path><path d="M149.6468 47.0537L194.6394 175.4596" fill="none" stroke="#aaa" stroke-opacity="0.5" stroke-width="0.5"></path><path d="M238.8347 76.8664L282.0095 194.6508" fill="none" stroke="#aaa" stroke-opacity="0.5" stroke-width="0.5"></path><path d="M187.3969 32.511L162.789 209.0712" fill="none" stroke="#aaa" stroke-opacity="0.5" stroke-width="0.5"></path><path d="M218.9165 126.2276L187.3969 32.511" fill="none" stroke="#aaa" stroke-opacity="0.5" stroke-width="0.5"></path><path d="M271.4337 121.9558L266.3567 42.625" fill="none" stroke="#aaa" stroke-opacity="0.5" stroke-width="0.5"></path><path d="M162.789 209.0712L282.0095 194.6508" fill="none" stroke="#aaa" stroke-opacity="0.5" stroke-width="0.5"></path><path d="M187.3969 32.511L164.4821 130.7894" fill="none" stroke="#aaa" stroke-opacity="0.5" stroke-width="0.5"></path><path d="M218.9165 126.2276L201.7587 221.5319" fill="none" stroke="#aaa" stroke-opacity="0.5" stroke-width="0.5"></path><path d="M149.6468 47.0537L271.4337 121.9558" fill="none" stroke="#aaa" stroke-opacity="0.5" stroke-width="0.5"></path><path d="M164.4821 130.7894L282.0095 194.6508" fill="none" stroke="#aaa" stroke-opacity="0.5" stroke-width="0.5"></path><path d="M218.9165 126.2276L292.8435 74.2843" fill="none" stroke="#aaa" stroke-opacity="0.5" stroke-width="0.5"></path><path d="M113.3444 111.7786L226.1505 28.8135" fill="none" stroke="#aaa" stroke-opacity="0.5" stroke-width="0.5"></path><path d="M271.4337 121.9558L241.4641 220.2123" fill="none" stroke="#aaa" stroke-opacity="0.5" stroke-width="0.5"></path><path d="M238.8347 76.8664L226.1505 28.8135" fill="none" stroke="#aaa" stroke-opacity="0.5" stroke-width="0.5"></path><path d="M162.789 209.0712L226.1505 28.8135" fill="none" stroke="#aaa" stroke-opacity="0.5" stroke-width="0.5"></path><path d="M311.4178 113.2814L186.372 79.9476" fill="none" stroke="#aaa" stroke-opacity="0.5" stroke-width="0.5"></path><path d="M218.9165 126.2276L226.1505 28.8135" fill="none" stroke="#aaa" stroke-opacity="0.5" stroke-width="0.5"></path><path d="M187.3969 32.511L282.0095 194.6508" fill="none" stroke="#aaa" stroke-opacity="0.5" stroke-width="0.5"></path><path d="M113.3444 111.7786L238.8347 76.8664" fill="none" stroke="#aaa" stroke-opacity="0.5" stroke-width="0.5"></path><path d="M119.5209 149.2245L162.789 209.0712" fill="none" stroke="#aaa" stroke-opacity="0.5" stroke-width="0.5"></path><path d="M271.4337 121.9558L248.2078 173.2981" fill="none" stroke="#aaa" stroke-opacity="0.5" stroke-width="0.5"></path><path d="M162.789 209.0712L238.8347 76.8664" fill="none" stroke="#aaa" stroke-opacity="0.5" stroke-width="0.5"></path><path d="M119.5209 149.2245L164.4821 130.7894" fill="none" stroke="#aaa" stroke-opacity="0.5" stroke-width="0.5"></path><path d="M248.2078 173.2981L241.4641 220.2123" fill="none" stroke="#aaa" stroke-opacity="0.5" stroke-width="0.5"></path><path d="M311.4178 113.2814L303.1373 157.766" fill="none" stroke="#aaa" stroke-opacity="0.5" stroke-width="0.5"></path><path d="M129.8113 79.5899L282.0095 194.6508" fill="none" stroke="#aaa" stroke-opacity="0.5" stroke-width="0.5"></path><path d="M194.6394 175.4596L266.3567 42.625" fill="none" stroke="#aaa" stroke-opacity="0.5" stroke-width="0.5"></path><path d="M303.1373 157.766L266.3567 42.625" fill="none" stroke="#aaa" stroke-opacity="0.5" stroke-width="0.5"></path><path d="M311.4178 113.2814L162.789 209.0712" fill="none" stroke="#aaa" stroke-opacity="0.5" stroke-width="0.5"></path><path d="M201.7587 221.5319L162.789 209.0712" fill="none" stroke="#aaa" stroke-opacity="0.5" stroke-width="0.5"></path><path d="M187.3969 32.511L226.1505 28.8135" fill="none" stroke="#aaa" stroke-opacity="0.5" stroke-width="0.5"></path><path d="M218.9165 126.2276L311.4178 113.2814" fill="none" stroke="#aaa" stroke-opacity="0.5" stroke-width="0.5"></path><path d="M226.1505 28.8135L282.0095 194.6508" fill="none" stroke="#aaa" stroke-opacity="0.5" stroke-width="0.5"></path><path d="M201.7587 221.5319L164.4821 130.7894" fill="none" stroke="#aaa" stroke-opacity="0.5" stroke-width="0.5"></path><path d="M292.8435 74.2843L134.2359 183.0616" fill="none" stroke="#aaa" stroke-opacity="0.5" stroke-width="0.5"></path><path d="M119.5209 149.2245L187.3969 32.511" fill="none" stroke="#aaa" stroke-opacity="0.5" stroke-width="0.5"></path><path d="M149.6468 47.0537L186.372 79.9476" fill="none" stroke="#aaa" stroke-opacity="0.5" stroke-width="0.5"></path><path d="M129.8113 79.5899L226.1505 28.8135" fill="none" stroke="#aaa" stroke-opacity="0.5" stroke-width="0.5"></path><path d="M194.6394 175.4596L241.4641 220.2123" fill="none" stroke="#aaa" stroke-opacity="0.5" stroke-width="0.5"></path><path d="M292.8435 74.2843L162.789 209.0712" fill="none" stroke="#aaa" stroke-opacity="0.5" stroke-width="0.5"></path><path d="M303.1373 157.766L241.4641 220.2123" fill="none" stroke="#aaa" stroke-opacity="0.5" stroke-width="0.5"></path><path d="M248.2078 173.2981L194.6394 175.4596" fill="none" stroke="#aaa" stroke-opacity="0.5" stroke-width="0.5"></path><path d="M292.8435 74.2843L164.4821 130.7894" fill="none" stroke="#aaa" stroke-opacity="0.5" stroke-width="0.5"></path><path d="M134.2359 183.0616L162.789 209.0712" fill="none" stroke="#aaa" stroke-opacity="0.5" stroke-width="0.5"></path><path d="M218.9165 126.2276L241.4641 220.2123" fill="none" stroke="#aaa" stroke-opacity="0.5" stroke-width="0.5"></path><path d="M134.2359 183.0616L164.4821 130.7894" fill="none" stroke="#aaa" stroke-opacity="0.5" stroke-width="0.5"></path><path d="M266.3567 42.625L186.372 79.9476" fill="none" stroke="#aaa" stroke-opacity="0.5" stroke-width="0.5"></path><path d="M129.8113 79.5899L238.8347 76.8664" fill="none" stroke="#aaa" stroke-opacity="0.5" stroke-width="0.5"></path><path d="M311.4178 113.2814L187.3969 32.511" fill="none" stroke="#aaa" stroke-opacity="0.5" stroke-width="0.5"></path><path d="M119.5209 149.2245L292.8435 74.2843" fill="none" stroke="#aaa" stroke-opacity="0.5" stroke-width="0.5"></path><path d="M303.1373 157.766L248.2078 173.2981" fill="none" stroke="#aaa" stroke-opacity="0.5" stroke-width="0.5"></path><path d="M201.7587 221.5319L187.3969 32.511" fill="none" stroke="#aaa" stroke-opacity="0.5" stroke-width="0.5"></path><path d="M311.4178 113.2814L282.0095 194.6508" fill="none" stroke="#aaa" stroke-opacity="0.5" stroke-width="0.5"></path><path d="M311.4178 113.2814L201.7587 221.5319" fill="none" stroke="#aaa" stroke-opacity="0.5" stroke-width="0.5"></path><path d="M201.7587 221.5319L282.0095 194.6508" fill="none" stroke="#aaa" stroke-opacity="0.5" stroke-width="0.5"></path><path d="M292.8435 74.2843L129.8113 79.5899" fill="none" stroke="#aaa" stroke-opacity="0.5" stroke-width="0.5"></path><path d="M201.7587 221.5319L292.8435 74.2843" fill="none" stroke="#aaa" stroke-opacity="0.5" stroke-width="0.5"></path><path d="M113.3444 111.7786L194.6394 175.4596" fill="none" stroke="#aaa" stroke-opacity="0.5" stroke-width="0.5"></path><path d="M134.2359 183.0616L187.3969 32.511" fill="none" stroke="#aaa" stroke-opacity="0.5" stroke-width="0.5"></path><path d="M187.3969 32.511L241.4641 220.2123" fill="none" stroke="#aaa" stroke-opacity="0.5" stroke-width="0.5"></path><path d="M149.6468 47.0537L134.2359 183.0616" fill="none" stroke="#aaa" stroke-opacity="0.5" stroke-width="0.5"></path><path d="M311.4178 113.2814L226.1505 28.8135" fill="none" stroke="#aaa" stroke-opacity="0.5" stroke-width="0.5"></path><path d="M134.2359 183.0616L282.0095 194.6508" fill="none" stroke="#aaa" stroke-opacity="0.5" stroke-width="0.5"></path><path d="M201.7587 221.5319L226.1505 28.8135" fill="none" stroke="#aaa" stroke-opacity="0.5" stroke-width="0.5"></path><path d="M113.3444 111.7786L271.4337 121.9558" fill="none" stroke="#aaa" stroke-opacity="0.5" stroke-width="0.5"></path><path d="M119.5209 149.2245L266.3567 42.625" fill="none" stroke="#aaa" stroke-opacity="0.5" stroke-width="0.5"></path><path d="M218.9165 126.2276L271.4337 121.9558" fill="none" stroke="#aaa" stroke-opacity="0.5" stroke-width="0.5"></path><path d="M311.4178 113.2814L238.8347 76.8664" fill="none" stroke="#aaa" stroke-opacity="0.5" stroke-width="0.5"></path><path d="M218.9165 126.2276L149.6468 47.0537" fill="none" stroke="#aaa" stroke-opacity="0.5" stroke-width="0.5"></path><path d="M134.2359 183.0616L226.1505 28.8135" fill="none" stroke="#aaa" stroke-opacity="0.5" stroke-width="0.5"></path><path d="M303.1373 157.766L113.3444 111.7786" fill="none" stroke="#aaa" stroke-opacity="0.5" stroke-width="0.5"></path><path d="M187.3969 32.511L194.6394 175.4596" fill="none" stroke="#aaa" stroke-opacity="0.5" stroke-width="0.5"></path><path d="M248.2078 173.2981L186.372 79.9476" fill="none" stroke="#aaa" stroke-opacity="0.5" stroke-width="0.5"></path><path d="M266.3567 42.625L282.0095 194.6508" fill="none" stroke="#aaa" stroke-opacity="0.5" stroke-width="0.5"></path><path d="M119.5209 149.2245L241.4641 220.2123" fill="none" stroke="#aaa" stroke-opacity="0.5" stroke-width="0.5"></path><path d="M149.6468 47.0537L129.8113 79.5899" fill="none" stroke="#aaa" stroke-opacity="0.5" stroke-width="0.5"></path><path d="M1 0A1 1 0 1 1 1 -0.0001" fill="#5470c6" transform="matrix(18,0,0,18,303.1373,157.766)"></path><path d="M1 0A1 1 0 1 1 1 -0.0001" fill="#5470c6" transform="matrix(18,0,0,18,271.4337,121.9558)"></path><path d="M1 0A1 1 0 1 1 1 -0.0001" fill="#5470c6" transform="matrix(18,0,0,18,282.0095,194.6508)"></path><path d="M1 0A1 1 0 1 1 1 -0.0001" fill="#5470c6" transform="matrix(18,0,0,18,241.4641,220.2123)"></path><path d="M1 0A1 1 0 1 1 1 -0.0001" fill="#5470c6" transform="matrix(18,0,0,18,248.2078,173.2981)"></path><path d="M1 0A1 1 0 1 1 1 -0.0001" fill="#5470c6" transform="matrix(18,0,0,18,201.7587,221.5319)"></path><path d="M1 0A1 1 0 1 1 1 -0.0001" fill="#5470c6" transform="matrix(18,0,0,18,162.789,209.0712)"></path><path d="M1 0A1 1 0 1 1 1 -0.0001" fill="#5470c6" transform="matrix(18,0,0,18,194.6394,175.4596)"></path><path d="M1 0A1 1 0 1 1 1 -0.0001" fill="#5470c6" transform="matrix(18,0,0,18,134.2359,183.0616)"></path><path d="M1 0A1 1 0 1 1 1 -0.0001" fill="#5470c6" transform="matrix(18,0,0,18,119.5209,149.2245)"></path><path d="M1 0A1 1 0 1 1 1 -0.0001" fill="#5470c6" transform="matrix(18,0,0,18,164.4821,130.7894)"></path><path d="M1 0A1 1 0 1 1 1 -0.0001" fill="#5470c6" transform="matrix(18,0,0,18,186.372,79.9476)"></path><path d="M1 0A1 1 0 1 1 1 -0.0001" fill="#5470c6" transform="matrix(18,0,0,18,113.3444,111.7786)"></path><path d="M1 0A1 1 0 1 1 1 -0.0001" fill="#5470c6" transform="matrix(18,0,0,18,129.8113,79.5899)"></path><path d="M1 0A1 1 0 1 1 1 -0.0001" fill="#5470c6" transform="matrix(18,0,0,18,149.6468,47.0537)"></path><path d="M1 0A1 1 0 1 1 1 -0.0001" fill="#5470c6" transform="matrix(18,0,0,18,238.8347,76.8664)"></path><path d="M1 0A1 1 0 1 1 1 -0.0001" fill="#5470c6" transform="matrix(18,0,0,18,187.3969,32.511)"></path><path d="M1 0A1 1 0 1 1 1 -0.0001" fill="#5470c6" transform="matrix(18,0,0,18,226.1505,28.8135)"></path><path d="M1 0A1 1 0 1 1 1 -0.0001" fill="#5470c6" transform="matrix(18,0,0,18,266.3567,42.625)"></path><path d="M1 0A1 1 0 1 1 1 -0.0001" fill="#5470c6" transform="matrix(18,0,0,18,218.9165,126.2276)"></path><path d="M1 0A1 1 0 1 1 1 -0.0001" fill="#5470c6" transform="matrix(18,0,0,18,292.8435,74.2843)"></path><path d="M1 0A1 1 0 1 1 1 -0.0001" fill="#5470c6" transform="matrix(18,0,0,18,311.4178,113.2814)"></path><path d="M-25.1792 -5l50.3584 0l0 32l-50.3584 0Z" fill="rgb(0,0,0)" fill-opacity="0" stroke="#ccc" stroke-width="0" transform="translate(237.5 5)"></path><text dominant-baseline="central" fill="#333" style="font-size:22px;font-family:sans-serif;font-weight:bolder;" text-anchor="middle" transform="translate(237.5 5)" y="11">C19</text></g></svg>