<svg baseprofile="full" height="250" style="position:absolute;left:0;top:0;user-select:none" version="1.1" width="475" xmlns="http://www.w3.org/2000/svg" xmlns:xlink="http://www.w3.org/1999/xlink"><rect fill="none" height="250" id="0" width="475" x="0" y="0"></rect><g><path d="M215.3214 17.1811L115.4914 175.5924" fill="none" stroke="#aaa" stroke-opacity="0.5"></path><path d="M302.1754 183.052L206.9251 232.6679" fill="none" stroke="#aaa" stroke-opacity="0.5"></path><path d="M302.1754 183.052L215.3214 17.1811" fill="none" stroke="#aaa" stroke-opacity="0.5"></path><path d="M307.3771 74.4918L115.4914 175.5924" fill="none" stroke="#aaa" stroke-opacity="0.5"></path><path d="M307.3771 74.4918L119.465 67.0149" fill="none" stroke="#aaa" stroke-opacity="0.5"></path><path d="M119.465 67.0149L215.3214 17.1811" fill="none" stroke="#aaa" stroke-opacity="0.5"></path><path d="M307.3771 74.4918L215.3214 17.1811" fill="none" stroke="#aaa" stroke-opacity="0.5"></path><path d="M115.4914 175.5924L206.9251 232.6679" fill="none" stroke="#aaa" stroke-opacity="0.5"></path><path d="M302.1754 183.052L115.4914 175.5924" fill="none" stroke="#aaa" stroke-opacity="0.5"></path><path d="M215.3214 17.1811L206.9251 232.6679" fill="none" stroke="#aaa" stroke-opacity="0.5"></path><path d="M119.465 67.0149L302.1754 183.052" fill="none" stroke="#aaa" stroke-opacity="0.5"></path><path d="M307.3771 74.4918L302.1754 183.052" fill="none" stroke="#aaa" stroke-opacity="0.5"></path><path d="M119.465 67.0149L115.4914 175.5924" fill="none" stroke="#aaa" stroke-opacity="0.5"></path><path d="M119.465 67.0149L206.9251 232.6679" fill="none" stroke="#aaa" stroke-opacity="0.5"></path><path d="M307.3771 74.4918L206.9251 232.6679" fill="none" stroke="#aaa" stroke-opacity="0.5"></path><path d="M1 0A1 1 0 1 1 1 -0.0001" fill="#5470c6" transform="matrix(19.5,0,0,19.5,302.1754,183.052)"></path><path d="M1 0A1 1 0 1 1 1 -0.0001" fill="#5470c6" transform="matrix(19.5,0,0,19.5,206.9251,232.6679)"></path><path d="M1 0A1 1 0 1 1 1 -0.0001" fill="#5470c6" transform="matrix(19.5,0,0,19.5,115.4914,175.5924)"></path><path d="M1 0A1 1 0 1 1 1 -0.0001" fill="#5470c6" transform="matrix(19.5,0,0,19.5,119.465,67.0149)"></path><path d="M1 0A1 1 0 1 1 1 -0.0001" fill="#5470c6" transform="matrix(19.5,0,0,19.5,215.3214,17.1811)"></path><path d="M1 0A1 1 0 1 1 1 -0.0001" fill="#5470c6" transform="matrix(19.5,0,0,19.5,307.3771,74.4918)"></path><path d="M-32.4922 -5l64.9844 0l0 33l-64.9844 0Z" fill="rgb(0,0,0)" fill-opacity="0" stroke="#ccc" stroke-width="0" transform="translate(237.5 5)"></path><text dominant-baseline="central" fill="#333" style="font-size:23px;font-family:sans-serif;font-weight:bolder;" text-anchor="middle" transform="translate(237.5 5)" y="11.5">C190</text></g></svg>