<svg baseprofile="full" height="250" style="position:absolute;left:0;top:0;user-select:none" version="1.1" width="475" xmlns="http://www.w3.org/2000/svg" xmlns:xlink="http://www.w3.org/1999/xlink"><rect fill="none" height="250" id="0" width="475" x="0" y="0"></rect><g><path d="M305.6232 176.6714L213.9797 233.0648" fill="none" stroke="#aaa" stroke-opacity="0.5"></path><path d="M116.3642 73.1917L118.8574 181.0374" fill="none" stroke="#aaa" stroke-opacity="0.5"></path><path d="M305.6232 176.6714L303.3446 68.9912" fill="none" stroke="#aaa" stroke-opacity="0.5"></path><path d="M208.5861 17.0436L116.3642 73.1917" fill="none" stroke="#aaa" stroke-opacity="0.5"></path><path d="M213.9797 233.0648L208.5861 17.0436" fill="none" stroke="#aaa" stroke-opacity="0.5"></path><path d="M213.9797 233.0648L303.3446 68.9912" fill="none" stroke="#aaa" stroke-opacity="0.5"></path><path d="M213.9797 233.0648L118.8574 181.0374" fill="none" stroke="#aaa" stroke-opacity="0.5"></path><path d="M208.5861 17.0436L303.3446 68.9912" fill="none" stroke="#aaa" stroke-opacity="0.5"></path><path d="M303.3446 68.9912L118.8574 181.0374" fill="none" stroke="#aaa" stroke-opacity="0.5"></path><path d="M305.6232 176.6714L208.5861 17.0436" fill="none" stroke="#aaa" stroke-opacity="0.5"></path><path d="M305.6232 176.6714L118.8574 181.0374" fill="none" stroke="#aaa" stroke-opacity="0.5"></path><path d="M208.5861 17.0436L118.8574 181.0374" fill="none" stroke="#aaa" stroke-opacity="0.5"></path><path d="M305.6232 176.6714L116.3642 73.1917" fill="none" stroke="#aaa" stroke-opacity="0.5"></path><path d="M116.3642 73.1917L303.3446 68.9912" fill="none" stroke="#aaa" stroke-opacity="0.5"></path><path d="M213.9797 233.0648L116.3642 73.1917" fill="none" stroke="#aaa" stroke-opacity="0.5"></path><path d="M1 0A1 1 0 1 1 1 -0.0001" fill="#5470c6" transform="matrix(19.5,0,0,19.5,305.6232,176.6714)"></path><path d="M1 0A1 1 0 1 1 1 -0.0001" fill="#5470c6" transform="matrix(19.5,0,0,19.5,213.9797,233.0648)"></path><path d="M1 0A1 1 0 1 1 1 -0.0001" fill="#5470c6" transform="matrix(19.5,0,0,19.5,118.8574,181.0374)"></path><path d="M1 0A1 1 0 1 1 1 -0.0001" fill="#5470c6" transform="matrix(19.5,0,0,19.5,116.3642,73.1917)"></path><path d="M1 0A1 1 0 1 1 1 -0.0001" fill="#5470c6" transform="matrix(19.5,0,0,19.5,208.5861,17.0436)"></path><path d="M1 0A1 1 0 1 1 1 -0.0001" fill="#5470c6" transform="matrix(19.5,0,0,19.5,303.3446,68.9912)"></path><path d="M-32.4922 -5l64.9844 0l0 33l-64.9844 0Z" fill="rgb(0,0,0)" fill-opacity="0" stroke="#ccc" stroke-width="0" transform="translate(237.5 5)"></path><text dominant-baseline="central" fill="#333" style="font-size:23px;font-family:sans-serif;font-weight:bolder;" text-anchor="middle" transform="translate(237.5 5)" y="11.5">C191</text></g></svg>