<svg baseprofile="full" height="250" style="position:absolute;left:0;top:0;user-select:none" version="1.1" width="475" xmlns="http://www.w3.org/2000/svg" xmlns:xlink="http://www.w3.org/1999/xlink"><rect fill="none" height="250" id="0" width="475" x="0" y="0"></rect><g><path d="M210.4634 232.6071L117.2808 178.7858" fill="none" stroke="#aaa" stroke-opacity="0.5"></path><path d="M304.4707 179.6056L305.267 71.8112" fill="none" stroke="#aaa" stroke-opacity="0.5"></path><path d="M210.4634 232.6071L304.4707 179.6056" fill="none" stroke="#aaa" stroke-opacity="0.5"></path><path d="M210.4634 232.6071L305.267 71.8112" fill="none" stroke="#aaa" stroke-opacity="0.5"></path><path d="M211.3626 16.8511L117.9107 70.3392" fill="none" stroke="#aaa" stroke-opacity="0.5"></path><path d="M117.9107 70.3392L304.4707 179.6056" fill="none" stroke="#aaa" stroke-opacity="0.5"></path><path d="M117.2808 178.7858L305.267 71.8112" fill="none" stroke="#aaa" stroke-opacity="0.5"></path><path d="M117.9107 70.3392L305.267 71.8112" fill="none" stroke="#aaa" stroke-opacity="0.5"></path><path d="M117.2808 178.7858L117.9107 70.3392" fill="none" stroke="#aaa" stroke-opacity="0.5"></path><path d="M211.3626 16.8511L117.2808 178.7858" fill="none" stroke="#aaa" stroke-opacity="0.5"></path><path d="M210.4634 232.6071L211.3626 16.8511" fill="none" stroke="#aaa" stroke-opacity="0.5"></path><path d="M211.3626 16.8511L304.4707 179.6056" fill="none" stroke="#aaa" stroke-opacity="0.5"></path><path d="M211.3626 16.8511L305.267 71.8112" fill="none" stroke="#aaa" stroke-opacity="0.5"></path><path d="M210.4634 232.6071L117.9107 70.3392" fill="none" stroke="#aaa" stroke-opacity="0.5"></path><path d="M117.2808 178.7858L304.4707 179.6056" fill="none" stroke="#aaa" stroke-opacity="0.5"></path><path d="M1 0A1 1 0 1 1 1 -0.0001" fill="#5470c6" transform="matrix(19.5,0,0,19.5,304.4707,179.6056)"></path><path d="M1 0A1 1 0 1 1 1 -0.0001" fill="#5470c6" transform="matrix(19.5,0,0,19.5,210.4634,232.6071)"></path><path d="M1 0A1 1 0 1 1 1 -0.0001" fill="#5470c6" transform="matrix(19.5,0,0,19.5,117.2808,178.7858)"></path><path d="M1 0A1 1 0 1 1 1 -0.0001" fill="#5470c6" transform="matrix(19.5,0,0,19.5,117.9107,70.3392)"></path><path d="M1 0A1 1 0 1 1 1 -0.0001" fill="#5470c6" transform="matrix(19.5,0,0,19.5,211.3626,16.8511)"></path><path d="M1 0A1 1 0 1 1 1 -0.0001" fill="#5470c6" transform="matrix(19.5,0,0,19.5,305.267,71.8112)"></path><path d="M-32.4922 -5l64.9844 0l0 33l-64.9844 0Z" fill="rgb(0,0,0)" fill-opacity="0" stroke="#ccc" stroke-width="0" transform="translate(237.5 5)"></path><text dominant-baseline="central" fill="#333" style="font-size:23px;font-family:sans-serif;font-weight:bolder;" text-anchor="middle" transform="translate(237.5 5)" y="11.5">C192</text></g></svg>