<svg baseprofile="full" height="250" style="position:absolute;left:0;top:0;user-select:none" version="1.1" width="475" xmlns="http://www.w3.org/2000/svg" xmlns:xlink="http://www.w3.org/1999/xlink"><rect fill="none" height="250" id="0" width="475" x="0" y="0"></rect><g><path d="M209.8954 233.0056L116.8849 178.4225" fill="none" stroke="#aaa" stroke-opacity="0.5"></path><path d="M209.8954 233.0056L118.1656 70.0856" fill="none" stroke="#aaa" stroke-opacity="0.5"></path><path d="M305.1866 71.8678L116.8849 178.4225" fill="none" stroke="#aaa" stroke-opacity="0.5"></path><path d="M304.5356 179.6765L305.1866 71.8678" fill="none" stroke="#aaa" stroke-opacity="0.5"></path><path d="M116.8849 178.4225L118.1656 70.0856" fill="none" stroke="#aaa" stroke-opacity="0.5"></path><path d="M212.0873 16.942L304.5356 179.6765" fill="none" stroke="#aaa" stroke-opacity="0.5"></path><path d="M212.0873 16.942L116.8849 178.4225" fill="none" stroke="#aaa" stroke-opacity="0.5"></path><path d="M304.5356 179.6765L116.8849 178.4225" fill="none" stroke="#aaa" stroke-opacity="0.5"></path><path d="M209.8954 233.0056L305.1866 71.8678" fill="none" stroke="#aaa" stroke-opacity="0.5"></path><path d="M212.0873 16.942L118.1656 70.0856" fill="none" stroke="#aaa" stroke-opacity="0.5"></path><path d="M212.0873 16.942L305.1866 71.8678" fill="none" stroke="#aaa" stroke-opacity="0.5"></path><path d="M304.5356 179.6765L118.1656 70.0856" fill="none" stroke="#aaa" stroke-opacity="0.5"></path><path d="M209.8954 233.0056L212.0873 16.942" fill="none" stroke="#aaa" stroke-opacity="0.5"></path><path d="M305.1866 71.8678L118.1656 70.0856" fill="none" stroke="#aaa" stroke-opacity="0.5"></path><path d="M209.8954 233.0056L304.5356 179.6765" fill="none" stroke="#aaa" stroke-opacity="0.5"></path><path d="M1 0A1 1 0 1 1 1 -0.0001" fill="#5470c6" transform="matrix(19.5,0,0,19.5,304.5356,179.6765)"></path><path d="M1 0A1 1 0 1 1 1 -0.0001" fill="#5470c6" transform="matrix(19.5,0,0,19.5,209.8954,233.0056)"></path><path d="M1 0A1 1 0 1 1 1 -0.0001" fill="#5470c6" transform="matrix(19.5,0,0,19.5,116.8849,178.4225)"></path><path d="M1 0A1 1 0 1 1 1 -0.0001" fill="#5470c6" transform="matrix(19.5,0,0,19.5,118.1656,70.0856)"></path><path d="M1 0A1 1 0 1 1 1 -0.0001" fill="#5470c6" transform="matrix(19.5,0,0,19.5,212.0873,16.942)"></path><path d="M1 0A1 1 0 1 1 1 -0.0001" fill="#5470c6" transform="matrix(19.5,0,0,19.5,305.1866,71.8678)"></path><path d="M-32.4922 -5l64.9844 0l0 33l-64.9844 0Z" fill="rgb(0,0,0)" fill-opacity="0" stroke="#ccc" stroke-width="0" transform="translate(237.5 5)"></path><text dominant-baseline="central" fill="#333" style="font-size:23px;font-family:sans-serif;font-weight:bolder;" text-anchor="middle" transform="translate(237.5 5)" y="11.5">C193</text></g></svg>