<svg baseprofile="full" height="250" style="position:absolute;left:0;top:0;user-select:none" version="1.1" width="475" xmlns="http://www.w3.org/2000/svg" xmlns:xlink="http://www.w3.org/1999/xlink"><rect fill="none" height="250" id="0" width="475" x="0" y="0"></rect><g><path d="M304.1227 179.8983L210.768 233.1901" fill="none" stroke="#aaa" stroke-opacity="0.5"></path><path d="M304.1227 179.8983L211.6339 17.0505" fill="none" stroke="#aaa" stroke-opacity="0.5"></path><path d="M304.1227 179.8983L117.2756 178.2438" fill="none" stroke="#aaa" stroke-opacity="0.5"></path><path d="M117.64 70.2043L210.768 233.1901" fill="none" stroke="#aaa" stroke-opacity="0.5"></path><path d="M117.64 70.2043L305.3152 71.413" fill="none" stroke="#aaa" stroke-opacity="0.5"></path><path d="M117.64 70.2043L211.6339 17.0505" fill="none" stroke="#aaa" stroke-opacity="0.5"></path><path d="M117.5 70.2043L117.5 178.2438" fill="none" stroke="#aaa" stroke-opacity="0.5"></path><path d="M305.3152 71.413L210.768 233.1901" fill="none" stroke="#aaa" stroke-opacity="0.5"></path><path d="M305.3152 71.413L211.6339 17.0505" fill="none" stroke="#aaa" stroke-opacity="0.5"></path><path d="M305.3152 71.413L117.2756 178.2438" fill="none" stroke="#aaa" stroke-opacity="0.5"></path><path d="M304.1227 179.8983L117.64 70.2043" fill="none" stroke="#aaa" stroke-opacity="0.5"></path><path d="M304.1227 179.8983L305.3152 71.413" fill="none" stroke="#aaa" stroke-opacity="0.5"></path><path d="M211.6339 17.0505L117.2756 178.2438" fill="none" stroke="#aaa" stroke-opacity="0.5"></path><path d="M210.768 233.1901L211.6339 17.0505" fill="none" stroke="#aaa" stroke-opacity="0.5"></path><path d="M210.768 233.1901L117.2756 178.2438" fill="none" stroke="#aaa" stroke-opacity="0.5"></path><path d="M1 0A1 1 0 1 1 1 -0.0001" fill="#5470c6" transform="matrix(19.5,0,0,19.5,304.1227,179.8983)"></path><path d="M1 0A1 1 0 1 1 1 -0.0001" fill="#5470c6" transform="matrix(19.5,0,0,19.5,210.768,233.1901)"></path><path d="M1 0A1 1 0 1 1 1 -0.0001" fill="#5470c6" transform="matrix(19.5,0,0,19.5,117.2756,178.2438)"></path><path d="M1 0A1 1 0 1 1 1 -0.0001" fill="#5470c6" transform="matrix(19.5,0,0,19.5,117.64,70.2043)"></path><path d="M1 0A1 1 0 1 1 1 -0.0001" fill="#5470c6" transform="matrix(19.5,0,0,19.5,211.6339,17.0505)"></path><path d="M1 0A1 1 0 1 1 1 -0.0001" fill="#5470c6" transform="matrix(19.5,0,0,19.5,305.3152,71.413)"></path><path d="M-32.4922 -5l64.9844 0l0 33l-64.9844 0Z" fill="rgb(0,0,0)" fill-opacity="0" stroke="#ccc" stroke-width="0" transform="translate(237.5 5)"></path><text dominant-baseline="central" fill="#333" style="font-size:23px;font-family:sans-serif;font-weight:bolder;" text-anchor="middle" transform="translate(237.5 5)" y="11.5">C194</text></g></svg>