<svg baseprofile="full" height="250" style="position:absolute;left:0;top:0;user-select:none" version="1.1" width="475" xmlns="http://www.w3.org/2000/svg" xmlns:xlink="http://www.w3.org/1999/xlink"><rect fill="none" height="250" id="0" width="475" x="0" y="0"></rect><g><path d="M116.9823 72.0074L304.54 70.3829" fill="none" stroke="#aaa" stroke-opacity="0.5"></path><path d="M305.0081 178.2367L304.54 70.3829" fill="none" stroke="#aaa" stroke-opacity="0.5"></path><path d="M117.7212 179.8585L304.54 70.3829" fill="none" stroke="#aaa" stroke-opacity="0.5"></path><path d="M116.9823 72.0074L212.2803 233.1346" fill="none" stroke="#aaa" stroke-opacity="0.5"></path><path d="M305.0081 178.2367L212.2803 233.1346" fill="none" stroke="#aaa" stroke-opacity="0.5"></path><path d="M117.7212 179.8585L116.9823 72.0074" fill="none" stroke="#aaa" stroke-opacity="0.5"></path><path d="M116.9823 72.0074L305.0081 178.2367" fill="none" stroke="#aaa" stroke-opacity="0.5"></path><path d="M210.2234 16.38L212.2803 233.1346" fill="none" stroke="#aaa" stroke-opacity="0.5"></path><path d="M210.2234 16.38L305.0081 178.2367" fill="none" stroke="#aaa" stroke-opacity="0.5"></path><path d="M117.7212 179.8585L210.2234 16.38" fill="none" stroke="#aaa" stroke-opacity="0.5"></path><path d="M304.54 70.3829L212.2803 233.1346" fill="none" stroke="#aaa" stroke-opacity="0.5"></path><path d="M117.7212 179.8585L212.2803 233.1346" fill="none" stroke="#aaa" stroke-opacity="0.5"></path><path d="M210.2234 16.38L304.54 70.3829" fill="none" stroke="#aaa" stroke-opacity="0.5"></path><path d="M117.7212 179.8585L305.0081 178.2367" fill="none" stroke="#aaa" stroke-opacity="0.5"></path><path d="M210.2234 16.38L116.9823 72.0074" fill="none" stroke="#aaa" stroke-opacity="0.5"></path><path d="M1 0A1 1 0 1 1 1 -0.0001" fill="#5470c6" transform="matrix(19.5,0,0,19.5,305.0081,178.2367)"></path><path d="M1 0A1 1 0 1 1 1 -0.0001" fill="#5470c6" transform="matrix(19.5,0,0,19.5,212.2803,233.1346)"></path><path d="M1 0A1 1 0 1 1 1 -0.0001" fill="#5470c6" transform="matrix(19.5,0,0,19.5,117.7212,179.8585)"></path><path d="M1 0A1 1 0 1 1 1 -0.0001" fill="#5470c6" transform="matrix(19.5,0,0,19.5,116.9823,72.0074)"></path><path d="M1 0A1 1 0 1 1 1 -0.0001" fill="#5470c6" transform="matrix(19.5,0,0,19.5,210.2234,16.38)"></path><path d="M1 0A1 1 0 1 1 1 -0.0001" fill="#5470c6" transform="matrix(19.5,0,0,19.5,304.54,70.3829)"></path><path d="M-32.4922 -5l64.9844 0l0 33l-64.9844 0Z" fill="rgb(0,0,0)" fill-opacity="0" stroke="#ccc" stroke-width="0" transform="translate(237.5 5)"></path><text dominant-baseline="central" fill="#333" style="font-size:23px;font-family:sans-serif;font-weight:bolder;" text-anchor="middle" transform="translate(237.5 5)" y="11.5">C195</text></g></svg>