<svg baseprofile="full" height="250" style="position:absolute;left:0;top:0;user-select:none" version="1.1" width="475" xmlns="http://www.w3.org/2000/svg" xmlns:xlink="http://www.w3.org/1999/xlink"><rect fill="none" height="250" id="0" width="475" x="0" y="0"></rect><g><path d="M289.0877 191.0047L255.0287 210.8061" fill="none" stroke="#aaa" stroke-opacity="0.5" stroke-width="0.5"></path><path d="M156.5737 167.0951L236.2159 144.2744" fill="none" stroke="#aaa" stroke-opacity="0.5" stroke-width="0.5"></path><path d="M213.883 187.8974L255.0287 210.8061" fill="none" stroke="#aaa" stroke-opacity="0.5" stroke-width="0.5"></path><path d="M112.9222 129.3397L181.7335 216.2553" fill="none" stroke="#aaa" stroke-opacity="0.5" stroke-width="0.5"></path><path d="M267.6627 164.5266L205.1421 30.838" fill="none" stroke="#aaa" stroke-opacity="0.5" stroke-width="0.5"></path><path d="M305.2758 150.1282L241.0858 30.1029" fill="none" stroke="#aaa" stroke-opacity="0.5" stroke-width="0.5"></path><path d="M181.7335 216.2553L274.687 51.1917" fill="none" stroke="#aaa" stroke-opacity="0.5" stroke-width="0.5"></path><path d="M274.687 51.1917L120.2235 166.4232" fill="none" stroke="#aaa" stroke-opacity="0.5" stroke-width="0.5"></path><path d="M266.7965 107.2345L120.2235 166.4232" fill="none" stroke="#aaa" stroke-opacity="0.5" stroke-width="0.5"></path><path d="M274.687 51.1917L118.5201 89.7102" fill="none" stroke="#aaa" stroke-opacity="0.5" stroke-width="0.5"></path><path d="M266.7965 107.2345L118.5201 89.7102" fill="none" stroke="#aaa" stroke-opacity="0.5" stroke-width="0.5"></path><path d="M297.2267 78.6762L308.5189 113.9225" fill="none" stroke="#aaa" stroke-opacity="0.5" stroke-width="0.5"></path><path d="M266.7965 107.2345L181.7335 216.2553" fill="none" stroke="#aaa" stroke-opacity="0.5" stroke-width="0.5"></path><path d="M289.0877 191.0047L171.3294 34.6188" fill="none" stroke="#aaa" stroke-opacity="0.5" stroke-width="0.5"></path><path d="M213.883 187.8974L171.3294 34.6188" fill="none" stroke="#aaa" stroke-opacity="0.5" stroke-width="0.5"></path><path d="M305.2758 150.1282L186.8968 143.7868" fill="none" stroke="#aaa" stroke-opacity="0.5" stroke-width="0.5"></path><path d="M150.0462 113.4695L297.2267 78.6762" fill="none" stroke="#aaa" stroke-opacity="0.5" stroke-width="0.5"></path><path d="M120.2235 166.4232L219.5868 223.7505" fill="none" stroke="#aaa" stroke-opacity="0.5" stroke-width="0.5"></path><path d="M112.9222 129.3397L186.8968 143.7868" fill="none" stroke="#aaa" stroke-opacity="0.5" stroke-width="0.5"></path><path d="M171.3294 34.6188L120.2235 166.4232" fill="none" stroke="#aaa" stroke-opacity="0.5" stroke-width="0.5"></path><path d="M171.3294 34.6188L118.5201 89.7102" fill="none" stroke="#aaa" stroke-opacity="0.5" stroke-width="0.5"></path><path d="M236.4049 68.1548L255.0287 210.8061" fill="none" stroke="#aaa" stroke-opacity="0.5" stroke-width="0.5"></path><path d="M289.0877 191.0047L267.6627 164.5266" fill="none" stroke="#aaa" stroke-opacity="0.5" stroke-width="0.5"></path><path d="M289.0877 191.0047L118.5201 89.7102" fill="none" stroke="#aaa" stroke-opacity="0.5" stroke-width="0.5"></path><path d="M213.883 187.8974L118.5201 89.7102" fill="none" stroke="#aaa" stroke-opacity="0.5" stroke-width="0.5"></path><path d="M236.4049 68.1548L171.3294 34.6188" fill="none" stroke="#aaa" stroke-opacity="0.5" stroke-width="0.5"></path><path d="M210.066 102.5753L297.2267 78.6762" fill="none" stroke="#aaa" stroke-opacity="0.5" stroke-width="0.5"></path><path d="M205.1421 30.838L213.883 187.8974" fill="none" stroke="#aaa" stroke-opacity="0.5" stroke-width="0.5"></path><path d="M241.0858 30.1029L274.687 51.1917" fill="none" stroke="#aaa" stroke-opacity="0.5" stroke-width="0.5"></path><path d="M305.2758 150.1282L236.4049 68.1548" fill="none" stroke="#aaa" stroke-opacity="0.5" stroke-width="0.5"></path><path d="M150.0462 113.4695L255.0287 210.8061" fill="none" stroke="#aaa" stroke-opacity="0.5" stroke-width="0.5"></path><path d="M289.0877 191.0047L241.0858 30.1029" fill="none" stroke="#aaa" stroke-opacity="0.5" stroke-width="0.5"></path><path d="M181.7335 216.2553L176.7837 73.4181" fill="none" stroke="#aaa" stroke-opacity="0.5" stroke-width="0.5"></path><path d="M181.7335 216.2553L149.0174 201.6401" fill="none" stroke="#aaa" stroke-opacity="0.5" stroke-width="0.5"></path><path d="M112.9222 129.3397L236.4049 68.1548" fill="none" stroke="#aaa" stroke-opacity="0.5" stroke-width="0.5"></path><path d="M118.5201 89.7102L120.2235 166.4232" fill="none" stroke="#aaa" stroke-opacity="0.5" stroke-width="0.5"></path><path d="M305.2758 150.1282L213.883 187.8974" fill="none" stroke="#aaa" stroke-opacity="0.5" stroke-width="0.5"></path><path d="M255.0287 210.8061L171.3294 34.6188" fill="none" stroke="#aaa" stroke-opacity="0.5" stroke-width="0.5"></path><path d="M112.9222 129.3397L289.0877 191.0047" fill="none" stroke="#aaa" stroke-opacity="0.5" stroke-width="0.5"></path><path d="M112.9222 129.3397L308.5189 113.9225" fill="none" stroke="#aaa" stroke-opacity="0.5" stroke-width="0.5"></path><path d="M112.9222 129.3397L213.883 187.8974" fill="none" stroke="#aaa" stroke-opacity="0.5" stroke-width="0.5"></path><path d="M236.4049 68.1548L118.5201 89.7102" fill="none" stroke="#aaa" stroke-opacity="0.5" stroke-width="0.5"></path><path d="M289.0877 191.0047L156.5737 167.0951" fill="none" stroke="#aaa" stroke-opacity="0.5" stroke-width="0.5"></path><path d="M210.066 102.5753L255.0287 210.8061" fill="none" stroke="#aaa" stroke-opacity="0.5" stroke-width="0.5"></path><path d="M150.0462 113.4695L186.8968 143.7868" fill="none" stroke="#aaa" stroke-opacity="0.5" stroke-width="0.5"></path><path d="M305.2758 150.1282L150.0462 113.4695" fill="none" stroke="#aaa" stroke-opacity="0.5" stroke-width="0.5"></path><path d="M241.0858 30.1029L205.1421 30.838" fill="none" stroke="#aaa" stroke-opacity="0.5" stroke-width="0.5"></path><path d="M112.9222 129.3397L150.0462 113.4695" fill="none" stroke="#aaa" stroke-opacity="0.5" stroke-width="0.5"></path><path d="M255.0287 210.8061L118.5201 89.7102" fill="none" stroke="#aaa" stroke-opacity="0.5" stroke-width="0.5"></path><path d="M210.066 102.5753L171.3294 34.6188" fill="none" stroke="#aaa" stroke-opacity="0.5" stroke-width="0.5"></path><path d="M138.5579 59.1593L297.2267 78.6762" fill="none" stroke="#aaa" stroke-opacity="0.5" stroke-width="0.5"></path><path d="M210.066 102.5753L186.8968 143.7868" fill="none" stroke="#aaa" stroke-opacity="0.5" stroke-width="0.5"></path><path d="M236.2159 144.2744L274.687 51.1917" fill="none" stroke="#aaa" stroke-opacity="0.5" stroke-width="0.5"></path><path d="M205.1421 30.838L274.687 51.1917" fill="none" stroke="#aaa" stroke-opacity="0.5" stroke-width="0.5"></path><path d="M150.0462 113.4695L236.4049 68.1548" fill="none" stroke="#aaa" stroke-opacity="0.5" stroke-width="0.5"></path><path d="M150.0462 113.4695L308.5189 113.9225" fill="none" stroke="#aaa" stroke-opacity="0.5" stroke-width="0.5"></path><path d="M150.0462 113.4695L213.883 187.8974" fill="none" stroke="#aaa" stroke-opacity="0.5" stroke-width="0.5"></path><path d="M297.2267 78.6762L149.0174 201.6401" fill="none" stroke="#aaa" stroke-opacity="0.5" stroke-width="0.5"></path><path d="M305.2758 150.1282L274.687 51.1917" fill="none" stroke="#aaa" stroke-opacity="0.5" stroke-width="0.5"></path><path d="M138.5579 59.1593L255.0287 210.8061" fill="none" stroke="#aaa" stroke-opacity="0.5" stroke-width="0.5"></path><path d="M112.9222 129.3397L274.687 51.1917" fill="none" stroke="#aaa" stroke-opacity="0.5" stroke-width="0.5"></path><path d="M267.6627 164.5266L297.2267 78.6762" fill="none" stroke="#aaa" stroke-opacity="0.5" stroke-width="0.5"></path><path d="M138.5579 59.1593L210.066 102.5753" fill="none" stroke="#aaa" stroke-opacity="0.5" stroke-width="0.5"></path><path d="M219.5868 223.7505L176.7837 73.4181" fill="none" stroke="#aaa" stroke-opacity="0.5" stroke-width="0.5"></path><path d="M266.7965 107.2345L274.687 51.1917" fill="none" stroke="#aaa" stroke-opacity="0.5" stroke-width="0.5"></path><path d="M210.066 102.5753L289.0877 191.0047" fill="none" stroke="#aaa" stroke-opacity="0.5" stroke-width="0.5"></path><path d="M289.0877 191.0047L266.7965 107.2345" fill="none" stroke="#aaa" stroke-opacity="0.5" stroke-width="0.5"></path><path d="M210.066 102.5753L308.5189 113.9225" fill="none" stroke="#aaa" stroke-opacity="0.5" stroke-width="0.5"></path><path d="M210.066 102.5753L213.883 187.8974" fill="none" stroke="#aaa" stroke-opacity="0.5" stroke-width="0.5"></path><path d="M213.883 187.8974L266.7965 107.2345" fill="none" stroke="#aaa" stroke-opacity="0.5" stroke-width="0.5"></path><path d="M266.7965 107.2345L219.5868 223.7505" fill="none" stroke="#aaa" stroke-opacity="0.5" stroke-width="0.5"></path><path d="M236.2159 144.2744L176.7837 73.4181" fill="none" stroke="#aaa" stroke-opacity="0.5" stroke-width="0.5"></path><path d="M186.8968 143.7868L176.7837 73.4181" fill="none" stroke="#aaa" stroke-opacity="0.5" stroke-width="0.5"></path><path d="M138.5579 59.1593L186.8968 143.7868" fill="none" stroke="#aaa" stroke-opacity="0.5" stroke-width="0.5"></path><path d="M205.1421 30.838L176.7837 73.4181" fill="none" stroke="#aaa" stroke-opacity="0.5" stroke-width="0.5"></path><path d="M149.0174 201.6401L219.5868 223.7505" fill="none" stroke="#aaa" stroke-opacity="0.5" stroke-width="0.5"></path><path d="M305.2758 150.1282L205.1421 30.838" fill="none" stroke="#aaa" stroke-opacity="0.5" stroke-width="0.5"></path><path d="M267.6627 164.5266L255.0287 210.8061" fill="none" stroke="#aaa" stroke-opacity="0.5" stroke-width="0.5"></path><path d="M156.5737 167.0951L297.2267 78.6762" fill="none" stroke="#aaa" stroke-opacity="0.5" stroke-width="0.5"></path><path d="M210.066 102.5753L150.0462 113.4695" fill="none" stroke="#aaa" stroke-opacity="0.5" stroke-width="0.5"></path><path d="M112.9222 129.3397L205.1421 30.838" fill="none" stroke="#aaa" stroke-opacity="0.5" stroke-width="0.5"></path><path d="M305.2758 150.1282L176.7837 73.4181" fill="none" stroke="#aaa" stroke-opacity="0.5" stroke-width="0.5"></path><path d="M289.0877 191.0047L236.2159 144.2744" fill="none" stroke="#aaa" stroke-opacity="0.5" stroke-width="0.5"></path><path d="M236.4049 68.1548L266.7965 107.2345" fill="none" stroke="#aaa" stroke-opacity="0.5" stroke-width="0.5"></path><path d="M213.883 187.8974L236.2159 144.2744" fill="none" stroke="#aaa" stroke-opacity="0.5" stroke-width="0.5"></path><path d="M112.9222 129.3397L176.7837 73.4181" fill="none" stroke="#aaa" stroke-opacity="0.5" stroke-width="0.5"></path><path d="M112.9222 129.3397L149.0174 201.6401" fill="none" stroke="#aaa" stroke-opacity="0.5" stroke-width="0.5"></path><path d="M213.883 187.8974L149.0174 201.6401" fill="none" stroke="#aaa" stroke-opacity="0.5" stroke-width="0.5"></path><path d="M274.687 51.1917L176.7837 73.4181" fill="none" stroke="#aaa" stroke-opacity="0.5" stroke-width="0.5"></path><path d="M266.7965 107.2345L176.7837 73.4181" fill="none" stroke="#aaa" stroke-opacity="0.5" stroke-width="0.5"></path><path d="M297.2267 78.6762L219.5868 223.7505" fill="none" stroke="#aaa" stroke-opacity="0.5" stroke-width="0.5"></path><path d="M150.0462 113.4695L274.687 51.1917" fill="none" stroke="#aaa" stroke-opacity="0.5" stroke-width="0.5"></path><path d="M267.6627 164.5266L186.8968 143.7868" fill="none" stroke="#aaa" stroke-opacity="0.5" stroke-width="0.5"></path><path d="M156.5737 167.0951L255.0287 210.8061" fill="none" stroke="#aaa" stroke-opacity="0.5" stroke-width="0.5"></path><path d="M138.5579 59.1593L289.0877 191.0047" fill="none" stroke="#aaa" stroke-opacity="0.5" stroke-width="0.5"></path><path d="M150.0462 113.4695L266.7965 107.2345" fill="none" stroke="#aaa" stroke-opacity="0.5" stroke-width="0.5"></path><path d="M138.5579 59.1593L308.5189 113.9225" fill="none" stroke="#aaa" stroke-opacity="0.5" stroke-width="0.5"></path><path d="M138.5579 59.1593L213.883 187.8974" fill="none" stroke="#aaa" stroke-opacity="0.5" stroke-width="0.5"></path><path d="M156.5737 167.0951L181.7335 216.2553" fill="none" stroke="#aaa" stroke-opacity="0.5" stroke-width="0.5"></path><path d="M171.3294 34.6188L176.7837 73.4181" fill="none" stroke="#aaa" stroke-opacity="0.5" stroke-width="0.5"></path><path d="M236.4049 68.1548L236.2159 144.2744" fill="none" stroke="#aaa" stroke-opacity="0.5" stroke-width="0.5"></path><path d="M241.0858 30.1029L297.2267 78.6762" fill="none" stroke="#aaa" stroke-opacity="0.5" stroke-width="0.5"></path><path d="M181.7335 216.2553L171.3294 34.6188" fill="none" stroke="#aaa" stroke-opacity="0.5" stroke-width="0.5"></path><path d="M210.066 102.5753L266.7965 107.2345" fill="none" stroke="#aaa" stroke-opacity="0.5" stroke-width="0.5"></path><path d="M138.5579 59.1593L150.0462 113.4695" fill="none" stroke="#aaa" stroke-opacity="0.5" stroke-width="0.5"></path><path d="M156.5737 167.0951L186.8968 143.7868" fill="none" stroke="#aaa" stroke-opacity="0.5" stroke-width="0.5"></path><path d="M150.0462 113.4695L205.1421 30.838" fill="none" stroke="#aaa" stroke-opacity="0.5" stroke-width="0.5"></path><path d="M267.6627 164.5266L236.4049 68.1548" fill="none" stroke="#aaa" stroke-opacity="0.5" stroke-width="0.5"></path><path d="M150.0462 113.4695L236.2159 144.2744" fill="none" stroke="#aaa" stroke-opacity="0.5" stroke-width="0.5"></path><path d="M267.6627 164.5266L308.5189 113.9225" fill="none" stroke="#aaa" stroke-opacity="0.5" stroke-width="0.5"></path><path d="M267.6627 164.5266L213.883 187.8974" fill="none" stroke="#aaa" stroke-opacity="0.5" stroke-width="0.5"></path><path d="M150.0462 113.4695L176.7837 73.4181" fill="none" stroke="#aaa" stroke-opacity="0.5" stroke-width="0.5"></path><path d="M150.0462 113.4695L149.0174 201.6401" fill="none" stroke="#aaa" stroke-opacity="0.5" stroke-width="0.5"></path><path d="M118.5201 89.7102L176.7837 73.4181" fill="none" stroke="#aaa" stroke-opacity="0.5" stroke-width="0.5"></path><path d="M289.0877 191.0047L219.5868 223.7505" fill="none" stroke="#aaa" stroke-opacity="0.5" stroke-width="0.5"></path><path d="M241.0858 30.1029L255.0287 210.8061" fill="none" stroke="#aaa" stroke-opacity="0.5" stroke-width="0.5"></path><path d="M181.7335 216.2553L118.5201 89.7102" fill="none" stroke="#aaa" stroke-opacity="0.5" stroke-width="0.5"></path><path d="M213.883 187.8974L219.5868 223.7505" fill="none" stroke="#aaa" stroke-opacity="0.5" stroke-width="0.5"></path><path d="M210.066 102.5753L236.2159 144.2744" fill="none" stroke="#aaa" stroke-opacity="0.5" stroke-width="0.5"></path><path d="M156.5737 167.0951L236.4049 68.1548" fill="none" stroke="#aaa" stroke-opacity="0.5" stroke-width="0.5"></path><path d="M210.066 102.5753L176.7837 73.4181" fill="none" stroke="#aaa" stroke-opacity="0.5" stroke-width="0.5"></path><path d="M210.066 102.5753L149.0174 201.6401" fill="none" stroke="#aaa" stroke-opacity="0.5" stroke-width="0.5"></path><path d="M241.0858 30.1029L171.3294 34.6188" fill="none" stroke="#aaa" stroke-opacity="0.5" stroke-width="0.5"></path><path d="M156.5737 167.0951L308.5189 113.9225" fill="none" stroke="#aaa" stroke-opacity="0.5" stroke-width="0.5"></path><path d="M156.5737 167.0951L213.883 187.8974" fill="none" stroke="#aaa" stroke-opacity="0.5" stroke-width="0.5"></path><path d="M138.5579 59.1593L274.687 51.1917" fill="none" stroke="#aaa" stroke-opacity="0.5" stroke-width="0.5"></path><path d="M241.0858 30.1029L186.8968 143.7868" fill="none" stroke="#aaa" stroke-opacity="0.5" stroke-width="0.5"></path><path d="M138.5579 59.1593L266.7965 107.2345" fill="none" stroke="#aaa" stroke-opacity="0.5" stroke-width="0.5"></path><path d="M236.4049 68.1548L219.5868 223.7505" fill="none" stroke="#aaa" stroke-opacity="0.5" stroke-width="0.5"></path><path d="M156.5737 167.0951L150.0462 113.4695" fill="none" stroke="#aaa" stroke-opacity="0.5" stroke-width="0.5"></path><path d="M149.0174 201.6401L120.2235 166.4232" fill="none" stroke="#aaa" stroke-opacity="0.5" stroke-width="0.5"></path><path d="M255.0287 210.8061L219.5868 223.7505" fill="none" stroke="#aaa" stroke-opacity="0.5" stroke-width="0.5"></path><path d="M150.0462 113.4695L219.5868 223.7505" fill="none" stroke="#aaa" stroke-opacity="0.5" stroke-width="0.5"></path><path d="M267.6627 164.5266L274.687 51.1917" fill="none" stroke="#aaa" stroke-opacity="0.5" stroke-width="0.5"></path><path d="M308.5189 113.9225L176.7837 73.4181" fill="none" stroke="#aaa" stroke-opacity="0.5" stroke-width="0.5"></path><path d="M236.2159 144.2744L255.0287 210.8061" fill="none" stroke="#aaa" stroke-opacity="0.5" stroke-width="0.5"></path><path d="M138.5579 59.1593L236.2159 144.2744" fill="none" stroke="#aaa" stroke-opacity="0.5" stroke-width="0.5"></path><path d="M266.7965 107.2345L297.2267 78.6762" fill="none" stroke="#aaa" stroke-opacity="0.5" stroke-width="0.5"></path><path d="M267.6627 164.5266L266.7965 107.2345" fill="none" stroke="#aaa" stroke-opacity="0.5" stroke-width="0.5"></path><path d="M205.1421 30.838L255.0287 210.8061" fill="none" stroke="#aaa" stroke-opacity="0.5" stroke-width="0.5"></path><path d="M138.5579 59.1593L176.7837 73.4181" fill="none" stroke="#aaa" stroke-opacity="0.5" stroke-width="0.5"></path><path d="M138.5579 59.1593L149.0174 201.6401" fill="none" stroke="#aaa" stroke-opacity="0.5" stroke-width="0.5"></path><path d="M241.0858 30.1029L308.5189 113.9225" fill="none" stroke="#aaa" stroke-opacity="0.5" stroke-width="0.5"></path><path d="M297.2267 78.6762L120.2235 166.4232" fill="none" stroke="#aaa" stroke-opacity="0.5" stroke-width="0.5"></path><path d="M241.0858 30.1029L213.883 187.8974" fill="none" stroke="#aaa" stroke-opacity="0.5" stroke-width="0.5"></path><path d="M236.2159 144.2744L171.3294 34.6188" fill="none" stroke="#aaa" stroke-opacity="0.5" stroke-width="0.5"></path><path d="M186.8968 143.7868L171.3294 34.6188" fill="none" stroke="#aaa" stroke-opacity="0.5" stroke-width="0.5"></path><path d="M210.066 102.5753L219.5868 223.7505" fill="none" stroke="#aaa" stroke-opacity="0.5" stroke-width="0.5"></path><path d="M305.2758 150.1282L255.0287 210.8061" fill="none" stroke="#aaa" stroke-opacity="0.5" stroke-width="0.5"></path><path d="M171.3294 34.6188L297.2267 78.6762" fill="none" stroke="#aaa" stroke-opacity="0.5" stroke-width="0.5"></path><path d="M205.1421 30.838L171.3294 34.6188" fill="none" stroke="#aaa" stroke-opacity="0.5" stroke-width="0.5"></path><path d="M210.066 102.5753L112.9222 129.3397" fill="none" stroke="#aaa" stroke-opacity="0.5" stroke-width="0.5"></path><path d="M112.9222 129.3397L255.0287 210.8061" fill="none" stroke="#aaa" stroke-opacity="0.5" stroke-width="0.5"></path><path d="M120.2235 166.4232L176.7837 73.4181" fill="none" stroke="#aaa" stroke-opacity="0.5" stroke-width="0.5"></path><path d="M156.5737 167.0951L274.687 51.1917" fill="none" stroke="#aaa" stroke-opacity="0.5" stroke-width="0.5"></path><path d="M266.7965 107.2345L255.0287 210.8061" fill="none" stroke="#aaa" stroke-opacity="0.5" stroke-width="0.5"></path><path d="M205.1421 30.838L186.8968 143.7868" fill="none" stroke="#aaa" stroke-opacity="0.5" stroke-width="0.5"></path><path d="M305.2758 150.1282L171.3294 34.6188" fill="none" stroke="#aaa" stroke-opacity="0.5" stroke-width="0.5"></path><path d="M267.6627 164.5266L236.2159 144.2744" fill="none" stroke="#aaa" stroke-opacity="0.5" stroke-width="0.5"></path><path d="M289.0877 191.0047L297.2267 78.6762" fill="none" stroke="#aaa" stroke-opacity="0.5" stroke-width="0.5"></path><path d="M156.5737 167.0951L266.7965 107.2345" fill="none" stroke="#aaa" stroke-opacity="0.5" stroke-width="0.5"></path><path d="M213.883 187.8974L297.2267 78.6762" fill="none" stroke="#aaa" stroke-opacity="0.5" stroke-width="0.5"></path><path d="M112.9222 129.3397L171.3294 34.6188" fill="none" stroke="#aaa" stroke-opacity="0.5" stroke-width="0.5"></path><path d="M186.8968 143.7868L118.5201 89.7102" fill="none" stroke="#aaa" stroke-opacity="0.5" stroke-width="0.5"></path><path d="M267.6627 164.5266L176.7837 73.4181" fill="none" stroke="#aaa" stroke-opacity="0.5" stroke-width="0.5"></path><path d="M267.6627 164.5266L149.0174 201.6401" fill="none" stroke="#aaa" stroke-opacity="0.5" stroke-width="0.5"></path><path d="M274.687 51.1917L171.3294 34.6188" fill="none" stroke="#aaa" stroke-opacity="0.5" stroke-width="0.5"></path><path d="M266.7965 107.2345L171.3294 34.6188" fill="none" stroke="#aaa" stroke-opacity="0.5" stroke-width="0.5"></path><path d="M149.0174 201.6401L308.5189 113.9225" fill="none" stroke="#aaa" stroke-opacity="0.5" stroke-width="0.5"></path><path d="M118.5201 89.7102L297.2267 78.6762" fill="none" stroke="#aaa" stroke-opacity="0.5" stroke-width="0.5"></path><path d="M112.9222 129.3397L267.6627 164.5266" fill="none" stroke="#aaa" stroke-opacity="0.5" stroke-width="0.5"></path><path d="M308.5189 113.9225L219.5868 223.7505" fill="none" stroke="#aaa" stroke-opacity="0.5" stroke-width="0.5"></path><path d="M305.2758 150.1282L118.5201 89.7102" fill="none" stroke="#aaa" stroke-opacity="0.5" stroke-width="0.5"></path><path d="M274.687 51.1917L186.8968 143.7868" fill="none" stroke="#aaa" stroke-opacity="0.5" stroke-width="0.5"></path><path d="M266.7965 107.2345L186.8968 143.7868" fill="none" stroke="#aaa" stroke-opacity="0.5" stroke-width="0.5"></path><path d="M156.5737 167.0951L205.1421 30.838" fill="none" stroke="#aaa" stroke-opacity="0.5" stroke-width="0.5"></path><path d="M112.9222 129.3397L120.2235 166.4232" fill="none" stroke="#aaa" stroke-opacity="0.5" stroke-width="0.5"></path><path d="M236.4049 68.1548L297.2267 78.6762" fill="none" stroke="#aaa" stroke-opacity="0.5" stroke-width="0.5"></path><path d="M236.2159 144.2744L308.5189 113.9225" fill="none" stroke="#aaa" stroke-opacity="0.5" stroke-width="0.5"></path><path d="M112.9222 129.3397L118.5201 89.7102" fill="none" stroke="#aaa" stroke-opacity="0.5" stroke-width="0.5"></path><path d="M186.8968 143.7868L308.5189 113.9225" fill="none" stroke="#aaa" stroke-opacity="0.5" stroke-width="0.5"></path><path d="M289.0877 191.0047L120.2235 166.4232" fill="none" stroke="#aaa" stroke-opacity="0.5" stroke-width="0.5"></path><path d="M138.5579 59.1593L219.5868 223.7505" fill="none" stroke="#aaa" stroke-opacity="0.5" stroke-width="0.5"></path><path d="M289.0877 191.0047L181.7335 216.2553" fill="none" stroke="#aaa" stroke-opacity="0.5" stroke-width="0.5"></path><path d="M213.883 187.8974L120.2235 166.4232" fill="none" stroke="#aaa" stroke-opacity="0.5" stroke-width="0.5"></path><path d="M205.1421 30.838L308.5189 113.9225" fill="none" stroke="#aaa" stroke-opacity="0.5" stroke-width="0.5"></path><path d="M213.883 187.8974L181.7335 216.2553" fill="none" stroke="#aaa" stroke-opacity="0.5" stroke-width="0.5"></path><path d="M156.5737 167.0951L176.7837 73.4181" fill="none" stroke="#aaa" stroke-opacity="0.5" stroke-width="0.5"></path><path d="M156.5737 167.0951L149.0174 201.6401" fill="none" stroke="#aaa" stroke-opacity="0.5" stroke-width="0.5"></path><path d="M112.9222 129.3397L241.0858 30.1029" fill="none" stroke="#aaa" stroke-opacity="0.5" stroke-width="0.5"></path><path d="M138.5579 59.1593L112.9222 129.3397" fill="none" stroke="#aaa" stroke-opacity="0.5" stroke-width="0.5"></path><path d="M255.0287 210.8061L297.2267 78.6762" fill="none" stroke="#aaa" stroke-opacity="0.5" stroke-width="0.5"></path><path d="M305.2758 150.1282L289.0877 191.0047" fill="none" stroke="#aaa" stroke-opacity="0.5" stroke-width="0.5"></path><path d="M241.0858 30.1029L266.7965 107.2345" fill="none" stroke="#aaa" stroke-opacity="0.5" stroke-width="0.5"></path><path d="M305.2758 150.1282L308.5189 113.9225" fill="none" stroke="#aaa" stroke-opacity="0.5" stroke-width="0.5"></path><path d="M305.2758 150.1282L156.5737 167.0951" fill="none" stroke="#aaa" stroke-opacity="0.5" stroke-width="0.5"></path><path d="M289.0877 191.0047L186.8968 143.7868" fill="none" stroke="#aaa" stroke-opacity="0.5" stroke-width="0.5"></path><path d="M213.883 187.8974L186.8968 143.7868" fill="none" stroke="#aaa" stroke-opacity="0.5" stroke-width="0.5"></path><path d="M150.0462 113.4695L171.3294 34.6188" fill="none" stroke="#aaa" stroke-opacity="0.5" stroke-width="0.5"></path><path d="M112.9222 129.3397L156.5737 167.0951" fill="none" stroke="#aaa" stroke-opacity="0.5" stroke-width="0.5"></path><path d="M236.4049 68.1548L120.2235 166.4232" fill="none" stroke="#aaa" stroke-opacity="0.5" stroke-width="0.5"></path><path d="M236.4049 68.1548L181.7335 216.2553" fill="none" stroke="#aaa" stroke-opacity="0.5" stroke-width="0.5"></path><path d="M274.687 51.1917L308.5189 113.9225" fill="none" stroke="#aaa" stroke-opacity="0.5" stroke-width="0.5"></path><path d="M266.7965 107.2345L308.5189 113.9225" fill="none" stroke="#aaa" stroke-opacity="0.5" stroke-width="0.5"></path><path d="M267.6627 164.5266L219.5868 223.7505" fill="none" stroke="#aaa" stroke-opacity="0.5" stroke-width="0.5"></path><path d="M150.0462 113.4695L267.6627 164.5266" fill="none" stroke="#aaa" stroke-opacity="0.5" stroke-width="0.5"></path><path d="M255.0287 210.8061L120.2235 166.4232" fill="none" stroke="#aaa" stroke-opacity="0.5" stroke-width="0.5"></path><path d="M241.0858 30.1029L236.2159 144.2744" fill="none" stroke="#aaa" stroke-opacity="0.5" stroke-width="0.5"></path><path d="M171.3294 34.6188L308.5189 113.9225" fill="none" stroke="#aaa" stroke-opacity="0.5" stroke-width="0.5"></path><path d="M255.0287 210.8061L181.7335 216.2553" fill="none" stroke="#aaa" stroke-opacity="0.5" stroke-width="0.5"></path><path d="M150.0462 113.4695L120.2235 166.4232" fill="none" stroke="#aaa" stroke-opacity="0.5" stroke-width="0.5"></path><path d="M236.4049 68.1548L186.8968 143.7868" fill="none" stroke="#aaa" stroke-opacity="0.5" stroke-width="0.5"></path><path d="M150.0462 113.4695L118.5201 89.7102" fill="none" stroke="#aaa" stroke-opacity="0.5" stroke-width="0.5"></path><path d="M241.0858 30.1029L176.7837 73.4181" fill="none" stroke="#aaa" stroke-opacity="0.5" stroke-width="0.5"></path><path d="M150.0462 113.4695L181.7335 216.2553" fill="none" stroke="#aaa" stroke-opacity="0.5" stroke-width="0.5"></path><path d="M241.0858 30.1029L149.0174 201.6401" fill="none" stroke="#aaa" stroke-opacity="0.5" stroke-width="0.5"></path><path d="M289.0877 191.0047L236.4049 68.1548" fill="none" stroke="#aaa" stroke-opacity="0.5" stroke-width="0.5"></path><path d="M289.0877 191.0047L308.5189 113.9225" fill="none" stroke="#aaa" stroke-opacity="0.5" stroke-width="0.5"></path><path d="M150.0462 113.4695L241.0858 30.1029" fill="none" stroke="#aaa" stroke-opacity="0.5" stroke-width="0.5"></path><path d="M289.0877 191.0047L213.883 187.8974" fill="none" stroke="#aaa" stroke-opacity="0.5" stroke-width="0.5"></path><path d="M213.883 187.8974L308.5189 113.9225" fill="none" stroke="#aaa" stroke-opacity="0.5" stroke-width="0.5"></path><path d="M156.5737 167.0951L219.5868 223.7505" fill="none" stroke="#aaa" stroke-opacity="0.5" stroke-width="0.5"></path><path d="M210.066 102.5753L267.6627 164.5266" fill="none" stroke="#aaa" stroke-opacity="0.5" stroke-width="0.5"></path><path d="M255.0287 210.8061L186.8968 143.7868" fill="none" stroke="#aaa" stroke-opacity="0.5" stroke-width="0.5"></path><path d="M181.7335 216.2553L219.5868 223.7505" fill="none" stroke="#aaa" stroke-opacity="0.5" stroke-width="0.5"></path><path d="M210.066 102.5753L120.2235 166.4232" fill="none" stroke="#aaa" stroke-opacity="0.5" stroke-width="0.5"></path><path d="M210.066 102.5753L118.5201 89.7102" fill="none" stroke="#aaa" stroke-opacity="0.5" stroke-width="0.5"></path><path d="M210.066 102.5753L181.7335 216.2553" fill="none" stroke="#aaa" stroke-opacity="0.5" stroke-width="0.5"></path><path d="M205.1421 30.838L266.7965 107.2345" fill="none" stroke="#aaa" stroke-opacity="0.5" stroke-width="0.5"></path><path d="M118.5201 89.7102L308.5189 113.9225" fill="none" stroke="#aaa" stroke-opacity="0.5" stroke-width="0.5"></path><path d="M289.0877 191.0047L150.0462 113.4695" fill="none" stroke="#aaa" stroke-opacity="0.5" stroke-width="0.5"></path><path d="M210.066 102.5753L241.0858 30.1029" fill="none" stroke="#aaa" stroke-opacity="0.5" stroke-width="0.5"></path><path d="M305.2758 150.1282L266.7965 107.2345" fill="none" stroke="#aaa" stroke-opacity="0.5" stroke-width="0.5"></path><path d="M236.4049 68.1548L308.5189 113.9225" fill="none" stroke="#aaa" stroke-opacity="0.5" stroke-width="0.5"></path><path d="M149.0174 201.6401L176.7837 73.4181" fill="none" stroke="#aaa" stroke-opacity="0.5" stroke-width="0.5"></path><path d="M236.4049 68.1548L213.883 187.8974" fill="none" stroke="#aaa" stroke-opacity="0.5" stroke-width="0.5"></path><path d="M112.9222 129.3397L266.7965 107.2345" fill="none" stroke="#aaa" stroke-opacity="0.5" stroke-width="0.5"></path><path d="M138.5579 59.1593L171.3294 34.6188" fill="none" stroke="#aaa" stroke-opacity="0.5" stroke-width="0.5"></path><path d="M210.066 102.5753L156.5737 167.0951" fill="none" stroke="#aaa" stroke-opacity="0.5" stroke-width="0.5"></path><path d="M205.1421 30.838L236.2159 144.2744" fill="none" stroke="#aaa" stroke-opacity="0.5" stroke-width="0.5"></path><path d="M255.0287 210.8061L308.5189 113.9225" fill="none" stroke="#aaa" stroke-opacity="0.5" stroke-width="0.5"></path><path d="M236.2159 144.2744L149.0174 201.6401" fill="none" stroke="#aaa" stroke-opacity="0.5" stroke-width="0.5"></path><path d="M186.8968 143.7868L149.0174 201.6401" fill="none" stroke="#aaa" stroke-opacity="0.5" stroke-width="0.5"></path><path d="M241.0858 30.1029L219.5868 223.7505" fill="none" stroke="#aaa" stroke-opacity="0.5" stroke-width="0.5"></path><path d="M205.1421 30.838L149.0174 201.6401" fill="none" stroke="#aaa" stroke-opacity="0.5" stroke-width="0.5"></path><path d="M297.2267 78.6762L176.7837 73.4181" fill="none" stroke="#aaa" stroke-opacity="0.5" stroke-width="0.5"></path><path d="M138.5579 59.1593L267.6627 164.5266" fill="none" stroke="#aaa" stroke-opacity="0.5" stroke-width="0.5"></path><path d="M305.2758 150.1282L236.2159 144.2744" fill="none" stroke="#aaa" stroke-opacity="0.5" stroke-width="0.5"></path><path d="M112.9222 129.3397L236.2159 144.2744" fill="none" stroke="#aaa" stroke-opacity="0.5" stroke-width="0.5"></path><path d="M138.5579 59.1593L120.2235 166.4232" fill="none" stroke="#aaa" stroke-opacity="0.5" stroke-width="0.5"></path><path d="M289.0877 191.0047L274.687 51.1917" fill="none" stroke="#aaa" stroke-opacity="0.5" stroke-width="0.5"></path><path d="M138.5579 59.1593L118.5201 89.7102" fill="none" stroke="#aaa" stroke-opacity="0.5" stroke-width="0.5"></path><path d="M305.2758 150.1282L149.0174 201.6401" fill="none" stroke="#aaa" stroke-opacity="0.5" stroke-width="0.5"></path><path d="M138.5579 59.1593L181.7335 216.2553" fill="none" stroke="#aaa" stroke-opacity="0.5" stroke-width="0.5"></path><path d="M210.066 102.5753L236.4049 68.1548" fill="none" stroke="#aaa" stroke-opacity="0.5" stroke-width="0.5"></path><path d="M213.883 187.8974L274.687 51.1917" fill="none" stroke="#aaa" stroke-opacity="0.5" stroke-width="0.5"></path><path d="M266.7965 107.2345L236.2159 144.2744" fill="none" stroke="#aaa" stroke-opacity="0.5" stroke-width="0.5"></path><path d="M267.6627 164.5266L171.3294 34.6188" fill="none" stroke="#aaa" stroke-opacity="0.5" stroke-width="0.5"></path><path d="M138.5579 59.1593L241.0858 30.1029" fill="none" stroke="#aaa" stroke-opacity="0.5" stroke-width="0.5"></path><path d="M274.687 51.1917L149.0174 201.6401" fill="none" stroke="#aaa" stroke-opacity="0.5" stroke-width="0.5"></path><path d="M266.7965 107.2345L149.0174 201.6401" fill="none" stroke="#aaa" stroke-opacity="0.5" stroke-width="0.5"></path><path d="M236.4049 68.1548L274.687 51.1917" fill="none" stroke="#aaa" stroke-opacity="0.5" stroke-width="0.5"></path><path d="M171.3294 34.6188L149.0174 201.6401" fill="none" stroke="#aaa" stroke-opacity="0.5" stroke-width="0.5"></path><path d="M138.5579 59.1593L156.5737 167.0951" fill="none" stroke="#aaa" stroke-opacity="0.5" stroke-width="0.5"></path><path d="M267.6627 164.5266L120.2235 166.4232" fill="none" stroke="#aaa" stroke-opacity="0.5" stroke-width="0.5"></path><path d="M267.6627 164.5266L118.5201 89.7102" fill="none" stroke="#aaa" stroke-opacity="0.5" stroke-width="0.5"></path><path d="M267.6627 164.5266L181.7335 216.2553" fill="none" stroke="#aaa" stroke-opacity="0.5" stroke-width="0.5"></path><path d="M289.0877 191.0047L205.1421 30.838" fill="none" stroke="#aaa" stroke-opacity="0.5" stroke-width="0.5"></path><path d="M156.5737 167.0951L171.3294 34.6188" fill="none" stroke="#aaa" stroke-opacity="0.5" stroke-width="0.5"></path><path d="M181.7335 216.2553L297.2267 78.6762" fill="none" stroke="#aaa" stroke-opacity="0.5" stroke-width="0.5"></path><path d="M236.2159 144.2744L219.5868 223.7505" fill="none" stroke="#aaa" stroke-opacity="0.5" stroke-width="0.5"></path><path d="M186.8968 143.7868L219.5868 223.7505" fill="none" stroke="#aaa" stroke-opacity="0.5" stroke-width="0.5"></path><path d="M120.2235 166.4232L308.5189 113.9225" fill="none" stroke="#aaa" stroke-opacity="0.5" stroke-width="0.5"></path><path d="M255.0287 210.8061L274.687 51.1917" fill="none" stroke="#aaa" stroke-opacity="0.5" stroke-width="0.5"></path><path d="M289.0877 191.0047L176.7837 73.4181" fill="none" stroke="#aaa" stroke-opacity="0.5" stroke-width="0.5"></path><path d="M289.0877 191.0047L149.0174 201.6401" fill="none" stroke="#aaa" stroke-opacity="0.5" stroke-width="0.5"></path><path d="M205.1421 30.838L219.5868 223.7505" fill="none" stroke="#aaa" stroke-opacity="0.5" stroke-width="0.5"></path><path d="M213.883 187.8974L176.7837 73.4181" fill="none" stroke="#aaa" stroke-opacity="0.5" stroke-width="0.5"></path><path d="M138.5579 59.1593L305.2758 150.1282" fill="none" stroke="#aaa" stroke-opacity="0.5" stroke-width="0.5"></path><path d="M138.5579 59.1593L236.4049 68.1548" fill="none" stroke="#aaa" stroke-opacity="0.5" stroke-width="0.5"></path><path d="M156.5737 167.0951L267.6627 164.5266" fill="none" stroke="#aaa" stroke-opacity="0.5" stroke-width="0.5"></path><path d="M305.2758 150.1282L219.5868 223.7505" fill="none" stroke="#aaa" stroke-opacity="0.5" stroke-width="0.5"></path><path d="M156.5737 167.0951L120.2235 166.4232" fill="none" stroke="#aaa" stroke-opacity="0.5" stroke-width="0.5"></path><path d="M156.5737 167.0951L118.5201 89.7102" fill="none" stroke="#aaa" stroke-opacity="0.5" stroke-width="0.5"></path><path d="M118.5201 89.7102L149.0174 201.6401" fill="none" stroke="#aaa" stroke-opacity="0.5" stroke-width="0.5"></path><path d="M236.4049 68.1548L205.1421 30.838" fill="none" stroke="#aaa" stroke-opacity="0.5" stroke-width="0.5"></path><path d="M112.9222 129.3397L219.5868 223.7505" fill="none" stroke="#aaa" stroke-opacity="0.5" stroke-width="0.5"></path><path d="M305.2758 150.1282L112.9222 129.3397" fill="none" stroke="#aaa" stroke-opacity="0.5" stroke-width="0.5"></path><path d="M181.7335 216.2553L120.2235 166.4232" fill="none" stroke="#aaa" stroke-opacity="0.5" stroke-width="0.5"></path><path d="M210.066 102.5753L274.687 51.1917" fill="none" stroke="#aaa" stroke-opacity="0.5" stroke-width="0.5"></path><path d="M156.5737 167.0951L241.0858 30.1029" fill="none" stroke="#aaa" stroke-opacity="0.5" stroke-width="0.5"></path><path d="M236.4049 68.1548L176.7837 73.4181" fill="none" stroke="#aaa" stroke-opacity="0.5" stroke-width="0.5"></path><path d="M274.687 51.1917L219.5868 223.7505" fill="none" stroke="#aaa" stroke-opacity="0.5" stroke-width="0.5"></path><path d="M236.4049 68.1548L149.0174 201.6401" fill="none" stroke="#aaa" stroke-opacity="0.5" stroke-width="0.5"></path><path d="M255.0287 210.8061L176.7837 73.4181" fill="none" stroke="#aaa" stroke-opacity="0.5" stroke-width="0.5"></path><path d="M171.3294 34.6188L219.5868 223.7505" fill="none" stroke="#aaa" stroke-opacity="0.5" stroke-width="0.5"></path><path d="M255.0287 210.8061L149.0174 201.6401" fill="none" stroke="#aaa" stroke-opacity="0.5" stroke-width="0.5"></path><path d="M181.7335 216.2553L186.8968 143.7868" fill="none" stroke="#aaa" stroke-opacity="0.5" stroke-width="0.5"></path><path d="M241.0858 30.1029L267.6627 164.5266" fill="none" stroke="#aaa" stroke-opacity="0.5" stroke-width="0.5"></path><path d="M210.066 102.5753L205.1421 30.838" fill="none" stroke="#aaa" stroke-opacity="0.5" stroke-width="0.5"></path><path d="M241.0858 30.1029L120.2235 166.4232" fill="none" stroke="#aaa" stroke-opacity="0.5" stroke-width="0.5"></path><path d="M241.0858 30.1029L118.5201 89.7102" fill="none" stroke="#aaa" stroke-opacity="0.5" stroke-width="0.5"></path><path d="M241.0858 30.1029L181.7335 216.2553" fill="none" stroke="#aaa" stroke-opacity="0.5" stroke-width="0.5"></path><path d="M118.5201 89.7102L219.5868 223.7505" fill="none" stroke="#aaa" stroke-opacity="0.5" stroke-width="0.5"></path><path d="M181.7335 216.2553L308.5189 113.9225" fill="none" stroke="#aaa" stroke-opacity="0.5" stroke-width="0.5"></path><path d="M236.2159 144.2744L297.2267 78.6762" fill="none" stroke="#aaa" stroke-opacity="0.5" stroke-width="0.5"></path><path d="M186.8968 143.7868L297.2267 78.6762" fill="none" stroke="#aaa" stroke-opacity="0.5" stroke-width="0.5"></path><path d="M205.1421 30.838L297.2267 78.6762" fill="none" stroke="#aaa" stroke-opacity="0.5" stroke-width="0.5"></path><path d="M305.2758 150.1282L297.2267 78.6762" fill="none" stroke="#aaa" stroke-opacity="0.5" stroke-width="0.5"></path><path d="M112.9222 129.3397L297.2267 78.6762" fill="none" stroke="#aaa" stroke-opacity="0.5" stroke-width="0.5"></path><path d="M138.5579 59.1593L205.1421 30.838" fill="none" stroke="#aaa" stroke-opacity="0.5" stroke-width="0.5"></path><path d="M236.2159 144.2744L120.2235 166.4232" fill="none" stroke="#aaa" stroke-opacity="0.5" stroke-width="0.5"></path><path d="M236.2159 144.2744L118.5201 89.7102" fill="none" stroke="#aaa" stroke-opacity="0.5" stroke-width="0.5"></path><path d="M241.0858 30.1029L236.4049 68.1548" fill="none" stroke="#aaa" stroke-opacity="0.5" stroke-width="0.5"></path><path d="M274.687 51.1917L297.2267 78.6762" fill="none" stroke="#aaa" stroke-opacity="0.5" stroke-width="0.5"></path><path d="M186.8968 143.7868L120.2235 166.4232" fill="none" stroke="#aaa" stroke-opacity="0.5" stroke-width="0.5"></path><path d="M236.2159 144.2744L181.7335 216.2553" fill="none" stroke="#aaa" stroke-opacity="0.5" stroke-width="0.5"></path><path d="M205.1421 30.838L120.2235 166.4232" fill="none" stroke="#aaa" stroke-opacity="0.5" stroke-width="0.5"></path><path d="M205.1421 30.838L118.5201 89.7102" fill="none" stroke="#aaa" stroke-opacity="0.5" stroke-width="0.5"></path><path d="M205.1421 30.838L181.7335 216.2553" fill="none" stroke="#aaa" stroke-opacity="0.5" stroke-width="0.5"></path><path d="M305.2758 150.1282L267.6627 164.5266" fill="none" stroke="#aaa" stroke-opacity="0.5" stroke-width="0.5"></path><path d="M305.2758 150.1282L120.2235 166.4232" fill="none" stroke="#aaa" stroke-opacity="0.5" stroke-width="0.5"></path><path d="M305.2758 150.1282L181.7335 216.2553" fill="none" stroke="#aaa" stroke-opacity="0.5" stroke-width="0.5"></path><path d="M236.2159 144.2744L186.8968 143.7868" fill="none" stroke="#aaa" stroke-opacity="0.5" stroke-width="0.5"></path><path d="M305.2758 150.1282L210.066 102.5753" fill="none" stroke="#aaa" stroke-opacity="0.5" stroke-width="0.5"></path><path d="M1 0A1 1 0 1 1 1 -0.0001" fill="#5470c6" transform="matrix(17.5,0,0,17.5,305.2758,150.1282)"></path><path d="M1 0A1 1 0 1 1 1 -0.0001" fill="#5470c6" transform="matrix(17.5,0,0,17.5,236.2159,144.2744)"></path><path d="M1 0A1 1 0 1 1 1 -0.0001" fill="#5470c6" transform="matrix(17.5,0,0,17.5,267.6627,164.5266)"></path><path d="M1 0A1 1 0 1 1 1 -0.0001" fill="#5470c6" transform="matrix(17.5,0,0,17.5,289.0877,191.0047)"></path><path d="M1 0A1 1 0 1 1 1 -0.0001" fill="#5470c6" transform="matrix(17.5,0,0,17.5,255.0287,210.8061)"></path><path d="M1 0A1 1 0 1 1 1 -0.0001" fill="#5470c6" transform="matrix(17.5,0,0,17.5,186.8968,143.7868)"></path><path d="M1 0A1 1 0 1 1 1 -0.0001" fill="#5470c6" transform="matrix(17.5,0,0,17.5,219.5868,223.7505)"></path><path d="M1 0A1 1 0 1 1 1 -0.0001" fill="#5470c6" transform="matrix(17.5,0,0,17.5,213.883,187.8974)"></path><path d="M1 0A1 1 0 1 1 1 -0.0001" fill="#5470c6" transform="matrix(17.5,0,0,17.5,181.7335,216.2553)"></path><path d="M1 0A1 1 0 1 1 1 -0.0001" fill="#5470c6" transform="matrix(17.5,0,0,17.5,156.5737,167.0951)"></path><path d="M1 0A1 1 0 1 1 1 -0.0001" fill="#5470c6" transform="matrix(17.5,0,0,17.5,149.0174,201.6401)"></path><path d="M1 0A1 1 0 1 1 1 -0.0001" fill="#5470c6" transform="matrix(17.5,0,0,17.5,120.2235,166.4232)"></path><path d="M1 0A1 1 0 1 1 1 -0.0001" fill="#5470c6" transform="matrix(17.5,0,0,17.5,112.9222,129.3397)"></path><path d="M1 0A1 1 0 1 1 1 -0.0001" fill="#5470c6" transform="matrix(17.5,0,0,17.5,118.5201,89.7102)"></path><path d="M1 0A1 1 0 1 1 1 -0.0001" fill="#5470c6" transform="matrix(17.5,0,0,17.5,150.0462,113.4695)"></path><path d="M1 0A1 1 0 1 1 1 -0.0001" fill="#5470c6" transform="matrix(17.5,0,0,17.5,138.5579,59.1593)"></path><path d="M1 0A1 1 0 1 1 1 -0.0001" fill="#5470c6" transform="matrix(17.5,0,0,17.5,176.7837,73.4181)"></path><path d="M1 0A1 1 0 1 1 1 -0.0001" fill="#5470c6" transform="matrix(17.5,0,0,17.5,171.3294,34.6188)"></path><path d="M1 0A1 1 0 1 1 1 -0.0001" fill="#5470c6" transform="matrix(17.5,0,0,17.5,210.066,102.5753)"></path><path d="M1 0A1 1 0 1 1 1 -0.0001" fill="#5470c6" transform="matrix(17.5,0,0,17.5,205.1421,30.838)"></path><path d="M1 0A1 1 0 1 1 1 -0.0001" fill="#5470c6" transform="matrix(17.5,0,0,17.5,241.0858,30.1029)"></path><path d="M1 0A1 1 0 1 1 1 -0.0001" fill="#5470c6" transform="matrix(17.5,0,0,17.5,236.4049,68.1548)"></path><path d="M1 0A1 1 0 1 1 1 -0.0001" fill="#5470c6" transform="matrix(17.5,0,0,17.5,274.687,51.1917)"></path><path d="M1 0A1 1 0 1 1 1 -0.0001" fill="#5470c6" transform="matrix(17.5,0,0,17.5,297.2267,78.6762)"></path><path d="M1 0A1 1 0 1 1 1 -0.0001" fill="#5470c6" transform="matrix(17.5,0,0,17.5,308.5189,113.9225)"></path><path d="M1 0A1 1 0 1 1 1 -0.0001" fill="#5470c6" transform="matrix(17.5,0,0,17.5,266.7965,107.2345)"></path><path d="M-31.2969 -5l62.5938 0l0 32l-62.5937 0Z" fill="rgb(0,0,0)" fill-opacity="0" stroke="#ccc" stroke-width="0" transform="translate(237.5 5)"></path><text dominant-baseline="central" fill="#333" style="font-size:22px;font-family:sans-serif;font-weight:bolder;" text-anchor="middle" transform="translate(237.5 5)" y="11">C197</text></g></svg>