<svg baseprofile="full" height="250" style="position:absolute;left:0;top:0;user-select:none" version="1.1" width="475" xmlns="http://www.w3.org/2000/svg" xmlns:xlink="http://www.w3.org/1999/xlink"><rect fill="none" height="250" id="0" width="475" x="0" y="0"></rect><g><path d="M312.1159 127.1625L296.8447 174.6134" fill="none" stroke="#aaa" stroke-opacity="0.5" stroke-width="0.5"></path><path d="M229.0901 179.5416L111.6324 140.3055" fill="none" stroke="#aaa" stroke-opacity="0.5" stroke-width="0.5"></path><path d="M200.4045 69.0074L187.7268 30.9053" fill="none" stroke="#aaa" stroke-opacity="0.5" stroke-width="0.5"></path><path d="M156.2725 111.8788L223.8458 30.1059" fill="none" stroke="#aaa" stroke-opacity="0.5" stroke-width="0.5"></path><path d="M156.2725 111.8788L254.5424 42.4374" fill="none" stroke="#aaa" stroke-opacity="0.5" stroke-width="0.5"></path><path d="M133.7073 69.9695L170.0783 210.9891" fill="none" stroke="#aaa" stroke-opacity="0.5" stroke-width="0.5"></path><path d="M229.0901 179.5416L280.3604 143.2209" fill="none" stroke="#aaa" stroke-opacity="0.5" stroke-width="0.5"></path><path d="M239.963 136.0727L199.7563 111.7446" fill="none" stroke="#aaa" stroke-opacity="0.5" stroke-width="0.5"></path><path d="M239.963 136.0727L115.907 102.6572" fill="none" stroke="#aaa" stroke-opacity="0.5" stroke-width="0.5"></path><path d="M250.6491 88.7785L298.3099 92.7652" fill="none" stroke="#aaa" stroke-opacity="0.5" stroke-width="0.5"></path><path d="M285.9016 59.9885L170.0783 210.9891" fill="none" stroke="#aaa" stroke-opacity="0.5" stroke-width="0.5"></path><path d="M139.7322 159.6192L298.3099 92.7652" fill="none" stroke="#aaa" stroke-opacity="0.5" stroke-width="0.5"></path><path d="M239.963 136.0727L237.3649 219.1386" fill="none" stroke="#aaa" stroke-opacity="0.5" stroke-width="0.5"></path><path d="M250.6491 88.7785L133.7073 69.9695" fill="none" stroke="#aaa" stroke-opacity="0.5" stroke-width="0.5"></path><path d="M139.7322 159.6192L133.7073 69.9695" fill="none" stroke="#aaa" stroke-opacity="0.5" stroke-width="0.5"></path><path d="M239.963 136.0727L138.3916 192.9587" fill="none" stroke="#aaa" stroke-opacity="0.5" stroke-width="0.5"></path><path d="M156.2725 111.8788L296.8447 174.6134" fill="none" stroke="#aaa" stroke-opacity="0.5" stroke-width="0.5"></path><path d="M184.8586 163.7754L200.4045 69.0074" fill="none" stroke="#aaa" stroke-opacity="0.5" stroke-width="0.5"></path><path d="M229.0901 179.5416L170.0783 210.9891" fill="none" stroke="#aaa" stroke-opacity="0.5" stroke-width="0.5"></path><path d="M237.3649 219.1386L184.8586 163.7754" fill="none" stroke="#aaa" stroke-opacity="0.5" stroke-width="0.5"></path><path d="M199.7563 111.7446L202.1956 219.1273" fill="none" stroke="#aaa" stroke-opacity="0.5" stroke-width="0.5"></path><path d="M156.2725 111.8788L139.7322 159.6192" fill="none" stroke="#aaa" stroke-opacity="0.5" stroke-width="0.5"></path><path d="M271.2618 199.9112L296.8447 174.6134" fill="none" stroke="#aaa" stroke-opacity="0.5" stroke-width="0.5"></path><path d="M111.6324 140.3055L187.7268 30.9053" fill="none" stroke="#aaa" stroke-opacity="0.5" stroke-width="0.5"></path><path d="M312.1159 127.1625L111.6324 140.3055" fill="none" stroke="#aaa" stroke-opacity="0.5" stroke-width="0.5"></path><path d="M237.3649 219.5L202.1956 219.5" fill="none" stroke="#aaa" stroke-opacity="0.5" stroke-width="0.5"></path><path d="M202.1956 219.1273L111.6324 140.3055" fill="none" stroke="#aaa" stroke-opacity="0.5" stroke-width="0.5"></path><path d="M239.963 136.0727L271.2618 199.9112" fill="none" stroke="#aaa" stroke-opacity="0.5" stroke-width="0.5"></path><path d="M312.1159 127.1625L280.3604 143.2209" fill="none" stroke="#aaa" stroke-opacity="0.5" stroke-width="0.5"></path><path d="M280.3604 143.2209L170.0783 210.9891" fill="none" stroke="#aaa" stroke-opacity="0.5" stroke-width="0.5"></path><path d="M250.6491 88.7785L200.4045 69.0074" fill="none" stroke="#aaa" stroke-opacity="0.5" stroke-width="0.5"></path><path d="M312.1159 127.1625L285.9016 59.9885" fill="none" stroke="#aaa" stroke-opacity="0.5" stroke-width="0.5"></path><path d="M139.7322 159.6192L200.4045 69.0074" fill="none" stroke="#aaa" stroke-opacity="0.5" stroke-width="0.5"></path><path d="M250.6491 88.7785L157.2343 48.3256" fill="none" stroke="#aaa" stroke-opacity="0.5" stroke-width="0.5"></path><path d="M139.7322 159.6192L157.2343 48.3256" fill="none" stroke="#aaa" stroke-opacity="0.5" stroke-width="0.5"></path><path d="M138.3916 192.9587L156.2725 111.8788" fill="none" stroke="#aaa" stroke-opacity="0.5" stroke-width="0.5"></path><path d="M156.2725 111.8788L202.1956 219.1273" fill="none" stroke="#aaa" stroke-opacity="0.5" stroke-width="0.5"></path><path d="M199.7563 111.7446L170.0783 210.9891" fill="none" stroke="#aaa" stroke-opacity="0.5" stroke-width="0.5"></path><path d="M156.2725 111.8788L111.6324 140.3055" fill="none" stroke="#aaa" stroke-opacity="0.5" stroke-width="0.5"></path><path d="M199.7563 111.7446L285.9016 59.9885" fill="none" stroke="#aaa" stroke-opacity="0.5" stroke-width="0.5"></path><path d="M239.963 136.0727L223.8458 30.1059" fill="none" stroke="#aaa" stroke-opacity="0.5" stroke-width="0.5"></path><path d="M239.963 136.0727L254.5424 42.4374" fill="none" stroke="#aaa" stroke-opacity="0.5" stroke-width="0.5"></path><path d="M156.2725 111.8788L280.3604 143.2209" fill="none" stroke="#aaa" stroke-opacity="0.5" stroke-width="0.5"></path><path d="M202.1956 219.1273L170.0783 210.9891" fill="none" stroke="#aaa" stroke-opacity="0.5" stroke-width="0.5"></path><path d="M157.2343 48.3256L200.4045 69.0074" fill="none" stroke="#aaa" stroke-opacity="0.5" stroke-width="0.5"></path><path d="M223.8458 30.1059L200.4045 69.0074" fill="none" stroke="#aaa" stroke-opacity="0.5" stroke-width="0.5"></path><path d="M254.5424 42.4374L202.1956 219.1273" fill="none" stroke="#aaa" stroke-opacity="0.5" stroke-width="0.5"></path><path d="M250.6491 88.7785L199.7563 111.7446" fill="none" stroke="#aaa" stroke-opacity="0.5" stroke-width="0.5"></path><path d="M237.3649 219.1386L170.0783 210.9891" fill="none" stroke="#aaa" stroke-opacity="0.5" stroke-width="0.5"></path><path d="M139.7322 159.6192L199.7563 111.7446" fill="none" stroke="#aaa" stroke-opacity="0.5" stroke-width="0.5"></path><path d="M133.7073 69.9695L200.4045 69.0074" fill="none" stroke="#aaa" stroke-opacity="0.5" stroke-width="0.5"></path><path d="M229.0901 179.5416L156.2725 111.8788" fill="none" stroke="#aaa" stroke-opacity="0.5" stroke-width="0.5"></path><path d="M184.8586 163.7754L187.7268 30.9053" fill="none" stroke="#aaa" stroke-opacity="0.5" stroke-width="0.5"></path><path d="M111.6324 140.3055L296.8447 174.6134" fill="none" stroke="#aaa" stroke-opacity="0.5" stroke-width="0.5"></path><path d="M239.963 136.0727L296.8447 174.6134" fill="none" stroke="#aaa" stroke-opacity="0.5" stroke-width="0.5"></path><path d="M138.3916 192.9587L115.907 102.6572" fill="none" stroke="#aaa" stroke-opacity="0.5" stroke-width="0.5"></path><path d="M271.2618 199.9112L111.6324 140.3055" fill="none" stroke="#aaa" stroke-opacity="0.5" stroke-width="0.5"></path><path d="M250.6491 88.7785L237.3649 219.1386" fill="none" stroke="#aaa" stroke-opacity="0.5" stroke-width="0.5"></path><path d="M133.7073 69.9695L157.2343 48.3256" fill="none" stroke="#aaa" stroke-opacity="0.5" stroke-width="0.5"></path><path d="M139.7322 159.6192L237.3649 219.1386" fill="none" stroke="#aaa" stroke-opacity="0.5" stroke-width="0.5"></path><path d="M280.3604 143.2209L298.3099 92.7652" fill="none" stroke="#aaa" stroke-opacity="0.5" stroke-width="0.5"></path><path d="M271.2618 199.9112L280.3604 143.2209" fill="none" stroke="#aaa" stroke-opacity="0.5" stroke-width="0.5"></path><path d="M200.4045 69.0074L170.0783 210.9891" fill="none" stroke="#aaa" stroke-opacity="0.5" stroke-width="0.5"></path><path d="M156.2725 111.8788L170.0783 210.9891" fill="none" stroke="#aaa" stroke-opacity="0.5" stroke-width="0.5"></path><path d="M285.9016 59.9885L200.4045 69.0074" fill="none" stroke="#aaa" stroke-opacity="0.5" stroke-width="0.5"></path><path d="M250.6491 88.7785L239.963 136.0727" fill="none" stroke="#aaa" stroke-opacity="0.5" stroke-width="0.5"></path><path d="M285.9016 59.9885L157.2343 48.3256" fill="none" stroke="#aaa" stroke-opacity="0.5" stroke-width="0.5"></path><path d="M296.8447 174.6134L115.907 102.6572" fill="none" stroke="#aaa" stroke-opacity="0.5" stroke-width="0.5"></path><path d="M199.7563 111.7446L298.3099 92.7652" fill="none" stroke="#aaa" stroke-opacity="0.5" stroke-width="0.5"></path><path d="M229.0901 179.5416L200.4045 69.0074" fill="none" stroke="#aaa" stroke-opacity="0.5" stroke-width="0.5"></path><path d="M254.5424 42.4374L170.0783 210.9891" fill="none" stroke="#aaa" stroke-opacity="0.5" stroke-width="0.5"></path><path d="M199.7563 111.7446L133.7073 69.9695" fill="none" stroke="#aaa" stroke-opacity="0.5" stroke-width="0.5"></path><path d="M229.0901 179.5416L115.907 102.6572" fill="none" stroke="#aaa" stroke-opacity="0.5" stroke-width="0.5"></path><path d="M250.6491 88.7785L187.7268 30.9053" fill="none" stroke="#aaa" stroke-opacity="0.5" stroke-width="0.5"></path><path d="M139.7322 159.6192L187.7268 30.9053" fill="none" stroke="#aaa" stroke-opacity="0.5" stroke-width="0.5"></path><path d="M237.3649 219.1386L298.3099 92.7652" fill="none" stroke="#aaa" stroke-opacity="0.5" stroke-width="0.5"></path><path d="M250.6491 88.7785L271.2618 199.9112" fill="none" stroke="#aaa" stroke-opacity="0.5" stroke-width="0.5"></path><path d="M139.7322 159.6192L271.2618 199.9112" fill="none" stroke="#aaa" stroke-opacity="0.5" stroke-width="0.5"></path><path d="M237.3649 219.1386L133.7073 69.9695" fill="none" stroke="#aaa" stroke-opacity="0.5" stroke-width="0.5"></path><path d="M280.3604 143.2209L200.4045 69.0074" fill="none" stroke="#aaa" stroke-opacity="0.5" stroke-width="0.5"></path><path d="M312.1159 127.1625L156.2725 111.8788" fill="none" stroke="#aaa" stroke-opacity="0.5" stroke-width="0.5"></path><path d="M184.8586 163.7754L296.8447 174.6134" fill="none" stroke="#aaa" stroke-opacity="0.5" stroke-width="0.5"></path><path d="M239.963 136.0727L111.6324 140.3055" fill="none" stroke="#aaa" stroke-opacity="0.5" stroke-width="0.5"></path><path d="M157.2343 48.3256L187.7268 30.9053" fill="none" stroke="#aaa" stroke-opacity="0.5" stroke-width="0.5"></path><path d="M223.8458 30.1059L187.7268 30.9053" fill="none" stroke="#aaa" stroke-opacity="0.5" stroke-width="0.5"></path><path d="M239.963 136.0727L280.3604 143.2209" fill="none" stroke="#aaa" stroke-opacity="0.5" stroke-width="0.5"></path><path d="M199.7563 111.7446L200.4045 69.0074" fill="none" stroke="#aaa" stroke-opacity="0.5" stroke-width="0.5"></path><path d="M250.6491 88.7785L223.8458 30.1059" fill="none" stroke="#aaa" stroke-opacity="0.5" stroke-width="0.5"></path><path d="M139.7322 159.6192L223.8458 30.1059" fill="none" stroke="#aaa" stroke-opacity="0.5" stroke-width="0.5"></path><path d="M133.7073 69.9695L187.7268 30.9053" fill="none" stroke="#aaa" stroke-opacity="0.5" stroke-width="0.5"></path><path d="M138.3916 192.9587L254.5424 42.4374" fill="none" stroke="#aaa" stroke-opacity="0.5" stroke-width="0.5"></path><path d="M254.5424 42.4374L298.3099 92.7652" fill="none" stroke="#aaa" stroke-opacity="0.5" stroke-width="0.5"></path><path d="M199.7563 111.7446L157.2343 48.3256" fill="none" stroke="#aaa" stroke-opacity="0.5" stroke-width="0.5"></path><path d="M254.5424 42.4374L133.7073 69.9695" fill="none" stroke="#aaa" stroke-opacity="0.5" stroke-width="0.5"></path><path d="M202.1956 219.1273L200.4045 69.0074" fill="none" stroke="#aaa" stroke-opacity="0.5" stroke-width="0.5"></path><path d="M285.9016 59.9885L187.7268 30.9053" fill="none" stroke="#aaa" stroke-opacity="0.5" stroke-width="0.5"></path><path d="M312.1159 127.1625L115.907 102.6572" fill="none" stroke="#aaa" stroke-opacity="0.5" stroke-width="0.5"></path><path d="M250.6491 88.7785L184.8586 163.7754" fill="none" stroke="#aaa" stroke-opacity="0.5" stroke-width="0.5"></path><path d="M139.7322 159.6192L184.8586 163.7754" fill="none" stroke="#aaa" stroke-opacity="0.5" stroke-width="0.5"></path><path d="M250.6491 88.7785L296.8447 174.6134" fill="none" stroke="#aaa" stroke-opacity="0.5" stroke-width="0.5"></path><path d="M239.963 136.0727L170.0783 210.9891" fill="none" stroke="#aaa" stroke-opacity="0.5" stroke-width="0.5"></path><path d="M139.7322 159.6192L296.8447 174.6134" fill="none" stroke="#aaa" stroke-opacity="0.5" stroke-width="0.5"></path><path d="M239.963 136.0727L312.1159 127.1625" fill="none" stroke="#aaa" stroke-opacity="0.5" stroke-width="0.5"></path><path d="M237.3649 219.1386L157.2343 48.3256" fill="none" stroke="#aaa" stroke-opacity="0.5" stroke-width="0.5"></path><path d="M229.0901 179.5416L187.7268 30.9053" fill="none" stroke="#aaa" stroke-opacity="0.5" stroke-width="0.5"></path><path d="M156.2725 111.8788L200.4045 69.0074" fill="none" stroke="#aaa" stroke-opacity="0.5" stroke-width="0.5"></path><path d="M138.3916 192.9587L139.7322 159.6192" fill="none" stroke="#aaa" stroke-opacity="0.5" stroke-width="0.5"></path><path d="M199.7563 111.7446L237.3649 219.1386" fill="none" stroke="#aaa" stroke-opacity="0.5" stroke-width="0.5"></path><path d="M184.8586 163.7754L111.6324 140.3055" fill="none" stroke="#aaa" stroke-opacity="0.5" stroke-width="0.5"></path><path d="M157.2343 48.3256L184.8586 163.7754" fill="none" stroke="#aaa" stroke-opacity="0.5" stroke-width="0.5"></path><path d="M223.8458 30.1059L184.8586 163.7754" fill="none" stroke="#aaa" stroke-opacity="0.5" stroke-width="0.5"></path><path d="M156.2725 111.8788L157.2343 48.3256" fill="none" stroke="#aaa" stroke-opacity="0.5" stroke-width="0.5"></path><path d="M184.8586 163.7754L280.3604 143.2209" fill="none" stroke="#aaa" stroke-opacity="0.5" stroke-width="0.5"></path><path d="M254.5424 42.4374L200.4045 69.0074" fill="none" stroke="#aaa" stroke-opacity="0.5" stroke-width="0.5"></path><path d="M133.7073 69.9695L184.8586 163.7754" fill="none" stroke="#aaa" stroke-opacity="0.5" stroke-width="0.5"></path><path d="M280.3604 143.2209L187.7268 30.9053" fill="none" stroke="#aaa" stroke-opacity="0.5" stroke-width="0.5"></path><path d="M254.5424 42.4374L157.2343 48.3256" fill="none" stroke="#aaa" stroke-opacity="0.5" stroke-width="0.5"></path><path d="M157.2343 48.3256L202.1956 219.1273" fill="none" stroke="#aaa" stroke-opacity="0.5" stroke-width="0.5"></path><path d="M298.3099 92.7652L296.8447 174.6134" fill="none" stroke="#aaa" stroke-opacity="0.5" stroke-width="0.5"></path><path d="M285.9016 59.9885L184.8586 163.7754" fill="none" stroke="#aaa" stroke-opacity="0.5" stroke-width="0.5"></path><path d="M229.0901 179.5416L139.7322 159.6192" fill="none" stroke="#aaa" stroke-opacity="0.5" stroke-width="0.5"></path><path d="M271.2618 199.9112L115.907 102.6572" fill="none" stroke="#aaa" stroke-opacity="0.5" stroke-width="0.5"></path><path d="M199.7563 111.7446L187.7268 30.9053" fill="none" stroke="#aaa" stroke-opacity="0.5" stroke-width="0.5"></path><path d="M138.3916 192.9587L202.1956 219.1273" fill="none" stroke="#aaa" stroke-opacity="0.5" stroke-width="0.5"></path><path d="M250.6491 88.7785L111.6324 140.3055" fill="none" stroke="#aaa" stroke-opacity="0.5" stroke-width="0.5"></path><path d="M139.7322 159.6192L111.6324 140.3055" fill="none" stroke="#aaa" stroke-opacity="0.5" stroke-width="0.5"></path><path d="M229.0901 179.5416L184.8586 163.7754" fill="none" stroke="#aaa" stroke-opacity="0.5" stroke-width="0.5"></path><path d="M199.7563 111.7446L271.2618 199.9112" fill="none" stroke="#aaa" stroke-opacity="0.5" stroke-width="0.5"></path><path d="M250.6491 88.7785L280.3604 143.2209" fill="none" stroke="#aaa" stroke-opacity="0.5" stroke-width="0.5"></path><path d="M139.7322 159.6192L280.3604 143.2209" fill="none" stroke="#aaa" stroke-opacity="0.5" stroke-width="0.5"></path><path d="M250.6491 88.7785L285.9016 59.9885" fill="none" stroke="#aaa" stroke-opacity="0.5" stroke-width="0.5"></path><path d="M312.1159 127.1625L254.5424 42.4374" fill="none" stroke="#aaa" stroke-opacity="0.5" stroke-width="0.5"></path><path d="M139.7322 159.6192L285.9016 59.9885" fill="none" stroke="#aaa" stroke-opacity="0.5" stroke-width="0.5"></path><path d="M202.1956 219.1273L187.7268 30.9053" fill="none" stroke="#aaa" stroke-opacity="0.5" stroke-width="0.5"></path><path d="M239.963 136.0727L156.2725 111.8788" fill="none" stroke="#aaa" stroke-opacity="0.5" stroke-width="0.5"></path><path d="M202.1956 219.1273L271.2618 199.9112" fill="none" stroke="#aaa" stroke-opacity="0.5" stroke-width="0.5"></path><path d="M229.0901 179.5416L202.1956 219.1273" fill="none" stroke="#aaa" stroke-opacity="0.5" stroke-width="0.5"></path><path d="M237.3649 219.1386L271.2618 199.9112" fill="none" stroke="#aaa" stroke-opacity="0.5" stroke-width="0.5"></path><path d="M199.7563 111.7446L223.8458 30.1059" fill="none" stroke="#aaa" stroke-opacity="0.5" stroke-width="0.5"></path><path d="M156.2725 111.8788L187.7268 30.9053" fill="none" stroke="#aaa" stroke-opacity="0.5" stroke-width="0.5"></path><path d="M138.3916 192.9587L170.0783 210.9891" fill="none" stroke="#aaa" stroke-opacity="0.5" stroke-width="0.5"></path><path d="M280.3604 143.2209L296.8447 174.6134" fill="none" stroke="#aaa" stroke-opacity="0.5" stroke-width="0.5"></path><path d="M239.963 136.0727L200.4045 69.0074" fill="none" stroke="#aaa" stroke-opacity="0.5" stroke-width="0.5"></path><path d="M138.3916 192.9587L312.1159 127.1625" fill="none" stroke="#aaa" stroke-opacity="0.5" stroke-width="0.5"></path><path d="M187.7268 30.9053L115.907 102.6572" fill="none" stroke="#aaa" stroke-opacity="0.5" stroke-width="0.5"></path><path d="M199.7563 111.7446L184.8586 163.7754" fill="none" stroke="#aaa" stroke-opacity="0.5" stroke-width="0.5"></path><path d="M111.6324 140.3055L115.907 102.6572" fill="none" stroke="#aaa" stroke-opacity="0.5" stroke-width="0.5"></path><path d="M312.1159 127.1625L139.7322 159.6192" fill="none" stroke="#aaa" stroke-opacity="0.5" stroke-width="0.5"></path><path d="M239.963 136.0727L157.2343 48.3256" fill="none" stroke="#aaa" stroke-opacity="0.5" stroke-width="0.5"></path><path d="M254.5424 42.4374L187.7268 30.9053" fill="none" stroke="#aaa" stroke-opacity="0.5" stroke-width="0.5"></path><path d="M199.7563 111.7446L296.8447 174.6134" fill="none" stroke="#aaa" stroke-opacity="0.5" stroke-width="0.5"></path><path d="M237.3649 219.1386L223.8458 30.1059" fill="none" stroke="#aaa" stroke-opacity="0.5" stroke-width="0.5"></path><path d="M296.8447 174.6134L170.0783 210.9891" fill="none" stroke="#aaa" stroke-opacity="0.5" stroke-width="0.5"></path><path d="M254.5424 42.4374L271.2618 199.9112" fill="none" stroke="#aaa" stroke-opacity="0.5" stroke-width="0.5"></path><path d="M271.2618 199.9112L187.7268 30.9053" fill="none" stroke="#aaa" stroke-opacity="0.5" stroke-width="0.5"></path><path d="M202.1956 219.1273L184.8586 163.7754" fill="none" stroke="#aaa" stroke-opacity="0.5" stroke-width="0.5"></path><path d="M202.1956 219.1273L296.8447 174.6134" fill="none" stroke="#aaa" stroke-opacity="0.5" stroke-width="0.5"></path><path d="M229.0901 179.5416L285.9016 59.9885" fill="none" stroke="#aaa" stroke-opacity="0.5" stroke-width="0.5"></path><path d="M237.3649 219.1386L296.8447 174.6134" fill="none" stroke="#aaa" stroke-opacity="0.5" stroke-width="0.5"></path><path d="M157.2343 48.3256L298.3099 92.7652" fill="none" stroke="#aaa" stroke-opacity="0.5" stroke-width="0.5"></path><path d="M223.8458 30.1059L298.3099 92.7652" fill="none" stroke="#aaa" stroke-opacity="0.5" stroke-width="0.5"></path><path d="M298.3099 92.7652L170.0783 210.9891" fill="none" stroke="#aaa" stroke-opacity="0.5" stroke-width="0.5"></path><path d="M312.1159 127.1625L202.1956 219.1273" fill="none" stroke="#aaa" stroke-opacity="0.5" stroke-width="0.5"></path><path d="M254.5424 42.4374L223.8458 30.1059" fill="none" stroke="#aaa" stroke-opacity="0.5" stroke-width="0.5"></path><path d="M138.3916 192.9587L298.3099 92.7652" fill="none" stroke="#aaa" stroke-opacity="0.5" stroke-width="0.5"></path><path d="M239.963 136.0727L229.0901 179.5416" fill="none" stroke="#aaa" stroke-opacity="0.5" stroke-width="0.5"></path><path d="M156.2725 111.8788L184.8586 163.7754" fill="none" stroke="#aaa" stroke-opacity="0.5" stroke-width="0.5"></path><path d="M133.7073 69.9695L298.3099 92.7652" fill="none" stroke="#aaa" stroke-opacity="0.5" stroke-width="0.5"></path><path d="M138.3916 192.9587L133.7073 69.9695" fill="none" stroke="#aaa" stroke-opacity="0.5" stroke-width="0.5"></path><path d="M280.3604 143.2209L111.6324 140.3055" fill="none" stroke="#aaa" stroke-opacity="0.5" stroke-width="0.5"></path><path d="M285.9016 59.9885L298.3099 92.7652" fill="none" stroke="#aaa" stroke-opacity="0.5" stroke-width="0.5"></path><path d="M184.8586 163.7754L115.907 102.6572" fill="none" stroke="#aaa" stroke-opacity="0.5" stroke-width="0.5"></path><path d="M254.5424 42.4374L184.8586 163.7754" fill="none" stroke="#aaa" stroke-opacity="0.5" stroke-width="0.5"></path><path d="M250.6491 88.7785L156.2725 111.8788" fill="none" stroke="#aaa" stroke-opacity="0.5" stroke-width="0.5"></path><path d="M170.0783 210.9891L115.907 102.6572" fill="none" stroke="#aaa" stroke-opacity="0.5" stroke-width="0.5"></path><path d="M254.5424 42.4374L296.8447 174.6134" fill="none" stroke="#aaa" stroke-opacity="0.5" stroke-width="0.5"></path><path d="M285.9016 59.9885L133.7073 69.9695" fill="none" stroke="#aaa" stroke-opacity="0.5" stroke-width="0.5"></path><path d="M199.7563 111.7446L111.6324 140.3055" fill="none" stroke="#aaa" stroke-opacity="0.5" stroke-width="0.5"></path><path d="M271.2618 199.9112L184.8586 163.7754" fill="none" stroke="#aaa" stroke-opacity="0.5" stroke-width="0.5"></path><path d="M199.7563 111.7446L280.3604 143.2209" fill="none" stroke="#aaa" stroke-opacity="0.5" stroke-width="0.5"></path><path d="M229.0901 179.5416L298.3099 92.7652" fill="none" stroke="#aaa" stroke-opacity="0.5" stroke-width="0.5"></path><path d="M239.963 136.0727L187.7268 30.9053" fill="none" stroke="#aaa" stroke-opacity="0.5" stroke-width="0.5"></path><path d="M229.0901 179.5416L133.7073 69.9695" fill="none" stroke="#aaa" stroke-opacity="0.5" stroke-width="0.5"></path><path d="M312.1159 127.1625L170.0783 210.9891" fill="none" stroke="#aaa" stroke-opacity="0.5" stroke-width="0.5"></path><path d="M202.1956 219.1273L280.3604 143.2209" fill="none" stroke="#aaa" stroke-opacity="0.5" stroke-width="0.5"></path><path d="M237.3649 219.1386L111.6324 140.3055" fill="none" stroke="#aaa" stroke-opacity="0.5" stroke-width="0.5"></path><path d="M138.3916 192.9587L200.4045 69.0074" fill="none" stroke="#aaa" stroke-opacity="0.5" stroke-width="0.5"></path><path d="M237.3649 219.1386L280.3604 143.2209" fill="none" stroke="#aaa" stroke-opacity="0.5" stroke-width="0.5"></path><path d="M250.6491 88.7785L115.907 102.6572" fill="none" stroke="#aaa" stroke-opacity="0.5" stroke-width="0.5"></path><path d="M139.7322 159.6192L115.907 102.6572" fill="none" stroke="#aaa" stroke-opacity="0.5" stroke-width="0.5"></path><path d="M138.3916 192.9587L157.2343 48.3256" fill="none" stroke="#aaa" stroke-opacity="0.5" stroke-width="0.5"></path><path d="M250.6491 88.7785L138.3916 192.9587" fill="none" stroke="#aaa" stroke-opacity="0.5" stroke-width="0.5"></path><path d="M296.8447 174.6134L200.4045 69.0074" fill="none" stroke="#aaa" stroke-opacity="0.5" stroke-width="0.5"></path><path d="M156.2725 111.8788L285.9016 59.9885" fill="none" stroke="#aaa" stroke-opacity="0.5" stroke-width="0.5"></path><path d="M239.963 136.0727L139.7322 159.6192" fill="none" stroke="#aaa" stroke-opacity="0.5" stroke-width="0.5"></path><path d="M254.5424 42.4374L111.6324 140.3055" fill="none" stroke="#aaa" stroke-opacity="0.5" stroke-width="0.5"></path><path d="M157.2343 48.3256L115.907 102.6572" fill="none" stroke="#aaa" stroke-opacity="0.5" stroke-width="0.5"></path><path d="M223.8458 30.1059L115.907 102.6572" fill="none" stroke="#aaa" stroke-opacity="0.5" stroke-width="0.5"></path><path d="M138.3916 192.9587L199.7563 111.7446" fill="none" stroke="#aaa" stroke-opacity="0.5" stroke-width="0.5"></path><path d="M254.5424 42.4374L280.3604 143.2209" fill="none" stroke="#aaa" stroke-opacity="0.5" stroke-width="0.5"></path><path d="M239.963 136.0727L184.8586 163.7754" fill="none" stroke="#aaa" stroke-opacity="0.5" stroke-width="0.5"></path><path d="M229.0901 179.5416L157.2343 48.3256" fill="none" stroke="#aaa" stroke-opacity="0.5" stroke-width="0.5"></path><path d="M312.1159 127.1625L298.3099 92.7652" fill="none" stroke="#aaa" stroke-opacity="0.5" stroke-width="0.5"></path><path d="M271.2618 199.9112L170.0783 210.9891" fill="none" stroke="#aaa" stroke-opacity="0.5" stroke-width="0.5"></path><path d="M202.1956 219.1273L298.3099 92.7652" fill="none" stroke="#aaa" stroke-opacity="0.5" stroke-width="0.5"></path><path d="M133.7073 69.9695L115.907 102.6572" fill="none" stroke="#aaa" stroke-opacity="0.5" stroke-width="0.5"></path><path d="M250.6491 88.7785L229.0901 179.5416" fill="none" stroke="#aaa" stroke-opacity="0.5" stroke-width="0.5"></path><path d="M312.1159 127.1625L133.7073 69.9695" fill="none" stroke="#aaa" stroke-opacity="0.5" stroke-width="0.5"></path><path d="M298.3099 92.7652L200.4045 69.0074" fill="none" stroke="#aaa" stroke-opacity="0.5" stroke-width="0.5"></path><path d="M138.3916 192.9587L237.3649 219.1386" fill="none" stroke="#aaa" stroke-opacity="0.5" stroke-width="0.5"></path><path d="M138.3916 192.9587L229.0901 179.5416" fill="none" stroke="#aaa" stroke-opacity="0.5" stroke-width="0.5"></path><path d="M298.3099 92.7652L115.907 102.6572" fill="none" stroke="#aaa" stroke-opacity="0.5" stroke-width="0.5"></path><path d="M285.9016 59.9885L115.907 102.6572" fill="none" stroke="#aaa" stroke-opacity="0.5" stroke-width="0.5"></path><path d="M239.963 136.0727L202.1956 219.1273" fill="none" stroke="#aaa" stroke-opacity="0.5" stroke-width="0.5"></path><path d="M285.9016 59.9885L237.3649 219.1386" fill="none" stroke="#aaa" stroke-opacity="0.5" stroke-width="0.5"></path><path d="M229.0901 179.5416L199.7563 111.7446" fill="none" stroke="#aaa" stroke-opacity="0.5" stroke-width="0.5"></path><path d="M156.2725 111.8788L298.3099 92.7652" fill="none" stroke="#aaa" stroke-opacity="0.5" stroke-width="0.5"></path><path d="M156.2725 111.8788L133.7073 69.9695" fill="none" stroke="#aaa" stroke-opacity="0.5" stroke-width="0.5"></path><path d="M229.0901 179.5416L237.3649 219.1386" fill="none" stroke="#aaa" stroke-opacity="0.5" stroke-width="0.5"></path><path d="M250.6491 88.7785L254.5424 42.4374" fill="none" stroke="#aaa" stroke-opacity="0.5" stroke-width="0.5"></path><path d="M139.7322 159.6192L254.5424 42.4374" fill="none" stroke="#aaa" stroke-opacity="0.5" stroke-width="0.5"></path><path d="M157.2343 48.3256L271.2618 199.9112" fill="none" stroke="#aaa" stroke-opacity="0.5" stroke-width="0.5"></path><path d="M138.3916 192.9587L187.7268 30.9053" fill="none" stroke="#aaa" stroke-opacity="0.5" stroke-width="0.5"></path><path d="M223.8458 30.1059L271.2618 199.9112" fill="none" stroke="#aaa" stroke-opacity="0.5" stroke-width="0.5"></path><path d="M312.1159 127.1625L200.4045 69.0074" fill="none" stroke="#aaa" stroke-opacity="0.5" stroke-width="0.5"></path><path d="M138.3916 192.9587L271.2618 199.9112" fill="none" stroke="#aaa" stroke-opacity="0.5" stroke-width="0.5"></path><path d="M133.7073 69.9695L271.2618 199.9112" fill="none" stroke="#aaa" stroke-opacity="0.5" stroke-width="0.5"></path><path d="M271.2618 199.9112L298.3099 92.7652" fill="none" stroke="#aaa" stroke-opacity="0.5" stroke-width="0.5"></path><path d="M187.7268 30.9053L170.0783 210.9891" fill="none" stroke="#aaa" stroke-opacity="0.5" stroke-width="0.5"></path><path d="M296.8447 174.6134L187.7268 30.9053" fill="none" stroke="#aaa" stroke-opacity="0.5" stroke-width="0.5"></path><path d="M312.1159 127.1625L157.2343 48.3256" fill="none" stroke="#aaa" stroke-opacity="0.5" stroke-width="0.5"></path><path d="M111.6324 140.3055L170.0783 210.9891" fill="none" stroke="#aaa" stroke-opacity="0.5" stroke-width="0.5"></path><path d="M280.3604 143.2209L115.907 102.6572" fill="none" stroke="#aaa" stroke-opacity="0.5" stroke-width="0.5"></path><path d="M285.9016 59.9885L271.2618 199.9112" fill="none" stroke="#aaa" stroke-opacity="0.5" stroke-width="0.5"></path><path d="M157.2343 48.3256L223.8458 30.1059" fill="none" stroke="#aaa" stroke-opacity="0.5" stroke-width="0.5"></path><path d="M239.963 136.0727L285.9016 59.9885" fill="none" stroke="#aaa" stroke-opacity="0.5" stroke-width="0.5"></path><path d="M138.3916 192.9587L223.8458 30.1059" fill="none" stroke="#aaa" stroke-opacity="0.5" stroke-width="0.5"></path><path d="M133.7073 69.9695L223.8458 30.1059" fill="none" stroke="#aaa" stroke-opacity="0.5" stroke-width="0.5"></path><path d="M229.0901 179.5416L271.2618 199.9112" fill="none" stroke="#aaa" stroke-opacity="0.5" stroke-width="0.5"></path><path d="M199.7563 111.7446L115.907 102.6572" fill="none" stroke="#aaa" stroke-opacity="0.5" stroke-width="0.5"></path><path d="M250.6491 88.7785L139.7322 159.6192" fill="none" stroke="#aaa" stroke-opacity="0.5" stroke-width="0.5"></path><path d="M312.1159 127.1625L199.7563 111.7446" fill="none" stroke="#aaa" stroke-opacity="0.5" stroke-width="0.5"></path><path d="M298.3099 92.7652L187.7268 30.9053" fill="none" stroke="#aaa" stroke-opacity="0.5" stroke-width="0.5"></path><path d="M157.2343 48.3256L296.8447 174.6134" fill="none" stroke="#aaa" stroke-opacity="0.5" stroke-width="0.5"></path><path d="M223.8458 30.1059L296.8447 174.6134" fill="none" stroke="#aaa" stroke-opacity="0.5" stroke-width="0.5"></path><path d="M285.9016 59.9885L223.8458 30.1059" fill="none" stroke="#aaa" stroke-opacity="0.5" stroke-width="0.5"></path><path d="M285.9016 59.9885L254.5424 42.4374" fill="none" stroke="#aaa" stroke-opacity="0.5" stroke-width="0.5"></path><path d="M237.3649 219.1386L200.4045 69.0074" fill="none" stroke="#aaa" stroke-opacity="0.5" stroke-width="0.5"></path><path d="M202.1956 219.1273L115.907 102.6572" fill="none" stroke="#aaa" stroke-opacity="0.5" stroke-width="0.5"></path><path d="M138.3916 192.9587L184.8586 163.7754" fill="none" stroke="#aaa" stroke-opacity="0.5" stroke-width="0.5"></path><path d="M312.1159 127.1625L237.3649 219.1386" fill="none" stroke="#aaa" stroke-opacity="0.5" stroke-width="0.5"></path><path d="M312.1159 127.1625L229.0901 179.5416" fill="none" stroke="#aaa" stroke-opacity="0.5" stroke-width="0.5"></path><path d="M138.3916 192.9587L296.8447 174.6134" fill="none" stroke="#aaa" stroke-opacity="0.5" stroke-width="0.5"></path><path d="M133.7073 69.9695L296.8447 174.6134" fill="none" stroke="#aaa" stroke-opacity="0.5" stroke-width="0.5"></path><path d="M237.3649 219.1386L115.907 102.6572" fill="none" stroke="#aaa" stroke-opacity="0.5" stroke-width="0.5"></path><path d="M271.2618 199.9112L200.4045 69.0074" fill="none" stroke="#aaa" stroke-opacity="0.5" stroke-width="0.5"></path><path d="M229.0901 179.5416L223.8458 30.1059" fill="none" stroke="#aaa" stroke-opacity="0.5" stroke-width="0.5"></path><path d="M229.0901 179.5416L254.5424 42.4374" fill="none" stroke="#aaa" stroke-opacity="0.5" stroke-width="0.5"></path><path d="M156.2725 111.8788L199.7563 111.7446" fill="none" stroke="#aaa" stroke-opacity="0.5" stroke-width="0.5"></path><path d="M285.9016 59.9885L296.8447 174.6134" fill="none" stroke="#aaa" stroke-opacity="0.5" stroke-width="0.5"></path><path d="M250.6491 88.7785L202.1956 219.1273" fill="none" stroke="#aaa" stroke-opacity="0.5" stroke-width="0.5"></path><path d="M111.6324 140.3055L298.3099 92.7652" fill="none" stroke="#aaa" stroke-opacity="0.5" stroke-width="0.5"></path><path d="M239.963 136.0727L298.3099 92.7652" fill="none" stroke="#aaa" stroke-opacity="0.5" stroke-width="0.5"></path><path d="M139.7322 159.6192L202.1956 219.1273" fill="none" stroke="#aaa" stroke-opacity="0.5" stroke-width="0.5"></path><path d="M200.4045 69.0074L115.907 102.6572" fill="none" stroke="#aaa" stroke-opacity="0.5" stroke-width="0.5"></path><path d="M184.8586 163.7754L170.0783 210.9891" fill="none" stroke="#aaa" stroke-opacity="0.5" stroke-width="0.5"></path><path d="M156.2725 111.8788L115.907 102.6572" fill="none" stroke="#aaa" stroke-opacity="0.5" stroke-width="0.5"></path><path d="M239.963 136.0727L133.7073 69.9695" fill="none" stroke="#aaa" stroke-opacity="0.5" stroke-width="0.5"></path><path d="M156.2725 111.8788L237.3649 219.1386" fill="none" stroke="#aaa" stroke-opacity="0.5" stroke-width="0.5"></path><path d="M229.0901 179.5416L296.8447 174.6134" fill="none" stroke="#aaa" stroke-opacity="0.5" stroke-width="0.5"></path><path d="M312.1159 127.1625L187.7268 30.9053" fill="none" stroke="#aaa" stroke-opacity="0.5" stroke-width="0.5"></path><path d="M254.5424 42.4374L115.907 102.6572" fill="none" stroke="#aaa" stroke-opacity="0.5" stroke-width="0.5"></path><path d="M312.1159 127.1625L271.2618 199.9112" fill="none" stroke="#aaa" stroke-opacity="0.5" stroke-width="0.5"></path><path d="M223.8458 30.1059L202.1956 219.1273" fill="none" stroke="#aaa" stroke-opacity="0.5" stroke-width="0.5"></path><path d="M157.2343 48.3256L111.6324 140.3055" fill="none" stroke="#aaa" stroke-opacity="0.5" stroke-width="0.5"></path><path d="M223.8458 30.1059L111.6324 140.3055" fill="none" stroke="#aaa" stroke-opacity="0.5" stroke-width="0.5"></path><path d="M199.7563 111.7446L254.5424 42.4374" fill="none" stroke="#aaa" stroke-opacity="0.5" stroke-width="0.5"></path><path d="M133.7073 69.9695L202.1956 219.1273" fill="none" stroke="#aaa" stroke-opacity="0.5" stroke-width="0.5"></path><path d="M250.6491 88.7785L170.0783 210.9891" fill="none" stroke="#aaa" stroke-opacity="0.5" stroke-width="0.5"></path><path d="M157.2343 48.3256L280.3604 143.2209" fill="none" stroke="#aaa" stroke-opacity="0.5" stroke-width="0.5"></path><path d="M223.8458 30.1059L280.3604 143.2209" fill="none" stroke="#aaa" stroke-opacity="0.5" stroke-width="0.5"></path><path d="M139.7322 159.6192L170.0783 210.9891" fill="none" stroke="#aaa" stroke-opacity="0.5" stroke-width="0.5"></path><path d="M138.3916 192.9587L111.6324 140.3055" fill="none" stroke="#aaa" stroke-opacity="0.5" stroke-width="0.5"></path><path d="M250.6491 88.7785L312.1159 127.1625" fill="none" stroke="#aaa" stroke-opacity="0.5" stroke-width="0.5"></path><path d="M133.7073 69.9695L111.6324 140.3055" fill="none" stroke="#aaa" stroke-opacity="0.5" stroke-width="0.5"></path><path d="M111.6324 140.3055L200.4045 69.0074" fill="none" stroke="#aaa" stroke-opacity="0.5" stroke-width="0.5"></path><path d="M138.3916 192.9587L280.3604 143.2209" fill="none" stroke="#aaa" stroke-opacity="0.5" stroke-width="0.5"></path><path d="M312.1159 127.1625L223.8458 30.1059" fill="none" stroke="#aaa" stroke-opacity="0.5" stroke-width="0.5"></path><path d="M133.7073 69.9695L280.3604 143.2209" fill="none" stroke="#aaa" stroke-opacity="0.5" stroke-width="0.5"></path><path d="M156.2725 111.8788L271.2618 199.9112" fill="none" stroke="#aaa" stroke-opacity="0.5" stroke-width="0.5"></path><path d="M285.9016 59.9885L202.1956 219.1273" fill="none" stroke="#aaa" stroke-opacity="0.5" stroke-width="0.5"></path><path d="M138.3916 192.9587L285.9016 59.9885" fill="none" stroke="#aaa" stroke-opacity="0.5" stroke-width="0.5"></path><path d="M184.8586 163.7754L298.3099 92.7652" fill="none" stroke="#aaa" stroke-opacity="0.5" stroke-width="0.5"></path><path d="M237.3649 219.1386L187.7268 30.9053" fill="none" stroke="#aaa" stroke-opacity="0.5" stroke-width="0.5"></path><path d="M285.9016 59.9885L111.6324 140.3055" fill="none" stroke="#aaa" stroke-opacity="0.5" stroke-width="0.5"></path><path d="M237.3649 219.1386L254.5424 42.4374" fill="none" stroke="#aaa" stroke-opacity="0.5" stroke-width="0.5"></path><path d="M285.9016 59.9885L280.3604 143.2209" fill="none" stroke="#aaa" stroke-opacity="0.5" stroke-width="0.5"></path><path d="M157.2343 48.3256L170.0783 210.9891" fill="none" stroke="#aaa" stroke-opacity="0.5" stroke-width="0.5"></path><path d="M223.8458 30.1059L170.0783 210.9891" fill="none" stroke="#aaa" stroke-opacity="0.5" stroke-width="0.5"></path><path d="M312.1159 127.1625L184.8586 163.7754" fill="none" stroke="#aaa" stroke-opacity="0.5" stroke-width="0.5"></path><path d="M1 0A1 1 0 1 1 1 -0.0001" fill="#5470c6" transform="matrix(17.5,0,0,17.5,312.1159,127.1625)"></path><path d="M1 0A1 1 0 1 1 1 -0.0001" fill="#5470c6" transform="matrix(17.5,0,0,17.5,296.8447,174.6134)"></path><path d="M1 0A1 1 0 1 1 1 -0.0001" fill="#5470c6" transform="matrix(17.5,0,0,17.5,271.2618,199.9112)"></path><path d="M1 0A1 1 0 1 1 1 -0.0001" fill="#5470c6" transform="matrix(17.5,0,0,17.5,229.0901,179.5416)"></path><path d="M1 0A1 1 0 1 1 1 -0.0001" fill="#5470c6" transform="matrix(17.5,0,0,17.5,237.3649,219.1386)"></path><path d="M1 0A1 1 0 1 1 1 -0.0001" fill="#5470c6" transform="matrix(17.5,0,0,17.5,199.7563,111.7446)"></path><path d="M1 0A1 1 0 1 1 1 -0.0001" fill="#5470c6" transform="matrix(17.5,0,0,17.5,202.1956,219.1273)"></path><path d="M1 0A1 1 0 1 1 1 -0.0001" fill="#5470c6" transform="matrix(17.5,0,0,17.5,184.8586,163.7754)"></path><path d="M1 0A1 1 0 1 1 1 -0.0001" fill="#5470c6" transform="matrix(17.5,0,0,17.5,170.0783,210.9891)"></path><path d="M1 0A1 1 0 1 1 1 -0.0001" fill="#5470c6" transform="matrix(17.5,0,0,17.5,138.3916,192.9587)"></path><path d="M1 0A1 1 0 1 1 1 -0.0001" fill="#5470c6" transform="matrix(17.5,0,0,17.5,156.2725,111.8788)"></path><path d="M1 0A1 1 0 1 1 1 -0.0001" fill="#5470c6" transform="matrix(17.5,0,0,17.5,139.7322,159.6192)"></path><path d="M1 0A1 1 0 1 1 1 -0.0001" fill="#5470c6" transform="matrix(17.5,0,0,17.5,111.6324,140.3055)"></path><path d="M1 0A1 1 0 1 1 1 -0.0001" fill="#5470c6" transform="matrix(17.5,0,0,17.5,115.907,102.6572)"></path><path d="M1 0A1 1 0 1 1 1 -0.0001" fill="#5470c6" transform="matrix(17.5,0,0,17.5,133.7073,69.9695)"></path><path d="M1 0A1 1 0 1 1 1 -0.0001" fill="#5470c6" transform="matrix(17.5,0,0,17.5,157.2343,48.3256)"></path><path d="M1 0A1 1 0 1 1 1 -0.0001" fill="#5470c6" transform="matrix(17.5,0,0,17.5,200.4045,69.0074)"></path><path d="M1 0A1 1 0 1 1 1 -0.0001" fill="#5470c6" transform="matrix(17.5,0,0,17.5,187.7268,30.9053)"></path><path d="M1 0A1 1 0 1 1 1 -0.0001" fill="#5470c6" transform="matrix(17.5,0,0,17.5,250.6491,88.7785)"></path><path d="M1 0A1 1 0 1 1 1 -0.0001" fill="#5470c6" transform="matrix(17.5,0,0,17.5,223.8458,30.1059)"></path><path d="M1 0A1 1 0 1 1 1 -0.0001" fill="#5470c6" transform="matrix(17.5,0,0,17.5,239.963,136.0727)"></path><path d="M1 0A1 1 0 1 1 1 -0.0001" fill="#5470c6" transform="matrix(17.5,0,0,17.5,254.5424,42.4374)"></path><path d="M1 0A1 1 0 1 1 1 -0.0001" fill="#5470c6" transform="matrix(17.5,0,0,17.5,280.3604,143.2209)"></path><path d="M1 0A1 1 0 1 1 1 -0.0001" fill="#5470c6" transform="matrix(17.5,0,0,17.5,285.9016,59.9885)"></path><path d="M1 0A1 1 0 1 1 1 -0.0001" fill="#5470c6" transform="matrix(17.5,0,0,17.5,298.3099,92.7652)"></path><path d="M-31.2969 -5l62.5938 0l0 32l-62.5937 0Z" fill="rgb(0,0,0)" fill-opacity="0" stroke="#ccc" stroke-width="0" transform="translate(237.5 5)"></path><text dominant-baseline="central" fill="#333" style="font-size:22px;font-family:sans-serif;font-weight:bolder;" text-anchor="middle" transform="translate(237.5 5)" y="11">C198</text></g></svg>