<svg baseprofile="full" height="250" style="position:absolute;left:0;top:0;user-select:none" version="1.1" width="475" xmlns="http://www.w3.org/2000/svg" xmlns:xlink="http://www.w3.org/1999/xlink"><rect fill="none" height="250" id="0" width="475" x="0" y="0"></rect><g><path d="M114.9682 131.8092L118.412 93.8275" fill="none" stroke="#aaa" stroke-opacity="0.5" stroke-width="0.5"></path><path d="M114.9682 131.8092L161.9047 158.8062" fill="none" stroke="#aaa" stroke-opacity="0.5" stroke-width="0.5"></path><path d="M114.9682 131.8092L156.6724 110.2147" fill="none" stroke="#aaa" stroke-opacity="0.5" stroke-width="0.5"></path><path d="M274.0064 48.8804L182.7499 219.9552" fill="none" stroke="#aaa" stroke-opacity="0.5" stroke-width="0.5"></path><path d="M263.8919 123.9907L254.7322 167.5941" fill="none" stroke="#aaa" stroke-opacity="0.5" stroke-width="0.5"></path><path d="M207.4689 170.8941L287.0168 190.2097" fill="none" stroke="#aaa" stroke-opacity="0.5" stroke-width="0.5"></path><path d="M123.3575 168.1228L194.7473 71.3815" fill="none" stroke="#aaa" stroke-opacity="0.5" stroke-width="0.5"></path><path d="M263.8919 123.9907L194.7473 71.3815" fill="none" stroke="#aaa" stroke-opacity="0.5" stroke-width="0.5"></path><path d="M161.9047 158.8062L274.0064 48.8804" fill="none" stroke="#aaa" stroke-opacity="0.5" stroke-width="0.5"></path><path d="M308.1458 115.2867L206.3319 119.7978" fill="none" stroke="#aaa" stroke-opacity="0.5" stroke-width="0.5"></path><path d="M114.9682 131.8092L263.8919 123.9907" fill="none" stroke="#aaa" stroke-opacity="0.5" stroke-width="0.5"></path><path d="M216.8675 215.2513L123.3575 168.1228" fill="none" stroke="#aaa" stroke-opacity="0.5" stroke-width="0.5"></path><path d="M308.1458 115.2867L123.3575 168.1228" fill="none" stroke="#aaa" stroke-opacity="0.5" stroke-width="0.5"></path><path d="M123.3575 168.1228L207.4689 170.8941" fill="none" stroke="#aaa" stroke-opacity="0.5" stroke-width="0.5"></path><path d="M263.8919 123.9907L207.4689 170.8941" fill="none" stroke="#aaa" stroke-opacity="0.5" stroke-width="0.5"></path><path d="M114.9682 131.8092L206.3319 119.7978" fill="none" stroke="#aaa" stroke-opacity="0.5" stroke-width="0.5"></path><path d="M118.412 93.8275L161.9047 158.8062" fill="none" stroke="#aaa" stroke-opacity="0.5" stroke-width="0.5"></path><path d="M118.412 93.8275L156.6724 110.2147" fill="none" stroke="#aaa" stroke-opacity="0.5" stroke-width="0.5"></path><path d="M206.3319 119.7978L194.7473 71.3815" fill="none" stroke="#aaa" stroke-opacity="0.5" stroke-width="0.5"></path><path d="M308.1458 115.2867L304.3095 152.9722" fill="none" stroke="#aaa" stroke-opacity="0.5" stroke-width="0.5"></path><path d="M287.0168 190.2097L161.9047 158.8062" fill="none" stroke="#aaa" stroke-opacity="0.5" stroke-width="0.5"></path><path d="M287.0168 190.2097L156.6724 110.2147" fill="none" stroke="#aaa" stroke-opacity="0.5" stroke-width="0.5"></path><path d="M206.3319 119.7978L207.4689 170.8941" fill="none" stroke="#aaa" stroke-opacity="0.5" stroke-width="0.5"></path><path d="M244.471 81.7492L252.5162 216.1624" fill="none" stroke="#aaa" stroke-opacity="0.5" stroke-width="0.5"></path><path d="M308.1458 115.2867L203.3094 28.3254" fill="none" stroke="#aaa" stroke-opacity="0.5" stroke-width="0.5"></path><path d="M244.471 81.7492L182.7499 219.9552" fill="none" stroke="#aaa" stroke-opacity="0.5" stroke-width="0.5"></path><path d="M254.7322 167.5941L165.4921 38.3086" fill="none" stroke="#aaa" stroke-opacity="0.5" stroke-width="0.5"></path><path d="M114.9682 131.8092L252.5162 216.1624" fill="none" stroke="#aaa" stroke-opacity="0.5" stroke-width="0.5"></path><path d="M123.3575 168.1228L118.412 93.8275" fill="none" stroke="#aaa" stroke-opacity="0.5" stroke-width="0.5"></path><path d="M263.8919 123.9907L118.412 93.8275" fill="none" stroke="#aaa" stroke-opacity="0.5" stroke-width="0.5"></path><path d="M123.3575 168.1228L161.9047 158.8062" fill="none" stroke="#aaa" stroke-opacity="0.5" stroke-width="0.5"></path><path d="M123.3575 168.1228L156.6724 110.2147" fill="none" stroke="#aaa" stroke-opacity="0.5" stroke-width="0.5"></path><path d="M165.4921 38.3086L194.7473 71.3815" fill="none" stroke="#aaa" stroke-opacity="0.5" stroke-width="0.5"></path><path d="M149.6338 201.5148L194.7473 71.3815" fill="none" stroke="#aaa" stroke-opacity="0.5" stroke-width="0.5"></path><path d="M216.8675 215.2513L252.5162 216.1624" fill="none" stroke="#aaa" stroke-opacity="0.5" stroke-width="0.5"></path><path d="M203.3094 28.3254L194.7473 71.3815" fill="none" stroke="#aaa" stroke-opacity="0.5" stroke-width="0.5"></path><path d="M165.4921 38.3086L207.4689 170.8941" fill="none" stroke="#aaa" stroke-opacity="0.5" stroke-width="0.5"></path><path d="M216.8675 215.2513L182.7499 219.9552" fill="none" stroke="#aaa" stroke-opacity="0.5" stroke-width="0.5"></path><path d="M308.1458 115.2867L138.9852 61.9021" fill="none" stroke="#aaa" stroke-opacity="0.5" stroke-width="0.5"></path><path d="M254.7322 167.5941L297.0136 80.1823" fill="none" stroke="#aaa" stroke-opacity="0.5" stroke-width="0.5"></path><path d="M156.6724 110.2147L240.0168 32.8612" fill="none" stroke="#aaa" stroke-opacity="0.5" stroke-width="0.5"></path><path d="M206.3319 119.7978L118.412 93.8275" fill="none" stroke="#aaa" stroke-opacity="0.5" stroke-width="0.5"></path><path d="M149.6338 201.5148L207.4689 170.8941" fill="none" stroke="#aaa" stroke-opacity="0.5" stroke-width="0.5"></path><path d="M206.3319 119.7978L161.9047 158.8062" fill="none" stroke="#aaa" stroke-opacity="0.5" stroke-width="0.5"></path><path d="M244.471 81.7492L287.0168 190.2097" fill="none" stroke="#aaa" stroke-opacity="0.5" stroke-width="0.5"></path><path d="M206.3319 119.7978L156.6724 110.2147" fill="none" stroke="#aaa" stroke-opacity="0.5" stroke-width="0.5"></path><path d="M118.412 93.8275L252.5162 216.1624" fill="none" stroke="#aaa" stroke-opacity="0.5" stroke-width="0.5"></path><path d="M123.3575 168.1228L206.3319 119.7978" fill="none" stroke="#aaa" stroke-opacity="0.5" stroke-width="0.5"></path><path d="M244.471 81.7492L149.6338 201.5148" fill="none" stroke="#aaa" stroke-opacity="0.5" stroke-width="0.5"></path><path d="M263.8919 123.9907L206.3319 119.7978" fill="none" stroke="#aaa" stroke-opacity="0.5" stroke-width="0.5"></path><path d="M297.0136 80.1823L194.7473 71.3815" fill="none" stroke="#aaa" stroke-opacity="0.5" stroke-width="0.5"></path><path d="M203.3094 28.3254L207.4689 170.8941" fill="none" stroke="#aaa" stroke-opacity="0.5" stroke-width="0.5"></path><path d="M263.8919 123.9907L123.3575 168.1228" fill="none" stroke="#aaa" stroke-opacity="0.5" stroke-width="0.5"></path><path d="M287.0168 190.2097L304.3095 152.9722" fill="none" stroke="#aaa" stroke-opacity="0.5" stroke-width="0.5"></path><path d="M194.7473 71.3815L182.7499 219.9552" fill="none" stroke="#aaa" stroke-opacity="0.5" stroke-width="0.5"></path><path d="M194.7473 71.3815L138.9852 61.9021" fill="none" stroke="#aaa" stroke-opacity="0.5" stroke-width="0.5"></path><path d="M114.9682 131.8092L287.0168 190.2097" fill="none" stroke="#aaa" stroke-opacity="0.5" stroke-width="0.5"></path><path d="M308.1458 115.2867L274.0064 48.8804" fill="none" stroke="#aaa" stroke-opacity="0.5" stroke-width="0.5"></path><path d="M240.0168 32.8612L182.7499 219.9552" fill="none" stroke="#aaa" stroke-opacity="0.5" stroke-width="0.5"></path><path d="M240.0168 32.8612L138.9852 61.9021" fill="none" stroke="#aaa" stroke-opacity="0.5" stroke-width="0.5"></path><path d="M263.8919 123.9907L216.8675 215.2513" fill="none" stroke="#aaa" stroke-opacity="0.5" stroke-width="0.5"></path><path d="M297.0136 80.1823L207.4689 170.8941" fill="none" stroke="#aaa" stroke-opacity="0.5" stroke-width="0.5"></path><path d="M287.0168 190.2097L252.5162 216.1624" fill="none" stroke="#aaa" stroke-opacity="0.5" stroke-width="0.5"></path><path d="M216.8675 215.2513L287.0168 190.2097" fill="none" stroke="#aaa" stroke-opacity="0.5" stroke-width="0.5"></path><path d="M216.8675 215.2513L149.6338 201.5148" fill="none" stroke="#aaa" stroke-opacity="0.5" stroke-width="0.5"></path><path d="M254.7322 167.5941L240.0168 32.8612" fill="none" stroke="#aaa" stroke-opacity="0.5" stroke-width="0.5"></path><path d="M123.3575 168.1228L304.3095 152.9722" fill="none" stroke="#aaa" stroke-opacity="0.5" stroke-width="0.5"></path><path d="M263.8919 123.9907L304.3095 152.9722" fill="none" stroke="#aaa" stroke-opacity="0.5" stroke-width="0.5"></path><path d="M194.7473 71.3815L274.0064 48.8804" fill="none" stroke="#aaa" stroke-opacity="0.5" stroke-width="0.5"></path><path d="M165.4921 38.3086L118.412 93.8275" fill="none" stroke="#aaa" stroke-opacity="0.5" stroke-width="0.5"></path><path d="M165.4921 38.3086L161.9047 158.8062" fill="none" stroke="#aaa" stroke-opacity="0.5" stroke-width="0.5"></path><path d="M304.3095 152.9722L138.9852 61.9021" fill="none" stroke="#aaa" stroke-opacity="0.5" stroke-width="0.5"></path><path d="M165.4921 38.3086L156.6724 110.2147" fill="none" stroke="#aaa" stroke-opacity="0.5" stroke-width="0.5"></path><path d="M240.0168 32.8612L274.0064 48.8804" fill="none" stroke="#aaa" stroke-opacity="0.5" stroke-width="0.5"></path><path d="M123.3575 168.1228L252.5162 216.1624" fill="none" stroke="#aaa" stroke-opacity="0.5" stroke-width="0.5"></path><path d="M156.6724 110.2147L161.9047 158.8062" fill="none" stroke="#aaa" stroke-opacity="0.5" stroke-width="0.5"></path><path d="M118.412 93.8275L287.0168 190.2097" fill="none" stroke="#aaa" stroke-opacity="0.5" stroke-width="0.5"></path><path d="M149.6338 201.5148L118.412 93.8275" fill="none" stroke="#aaa" stroke-opacity="0.5" stroke-width="0.5"></path><path d="M194.7473 71.3815L287.0168 190.2097" fill="none" stroke="#aaa" stroke-opacity="0.5" stroke-width="0.5"></path><path d="M203.3094 28.3254L118.412 93.8275" fill="none" stroke="#aaa" stroke-opacity="0.5" stroke-width="0.5"></path><path d="M263.8919 123.9907L203.3094 28.3254" fill="none" stroke="#aaa" stroke-opacity="0.5" stroke-width="0.5"></path><path d="M203.3094 28.3254L161.9047 158.8062" fill="none" stroke="#aaa" stroke-opacity="0.5" stroke-width="0.5"></path><path d="M203.3094 28.3254L156.6724 110.2147" fill="none" stroke="#aaa" stroke-opacity="0.5" stroke-width="0.5"></path><path d="M254.7322 167.5941L308.1458 115.2867" fill="none" stroke="#aaa" stroke-opacity="0.5" stroke-width="0.5"></path><path d="M304.3095 152.9722L274.0064 48.8804" fill="none" stroke="#aaa" stroke-opacity="0.5" stroke-width="0.5"></path><path d="M206.3319 119.7978L304.3095 152.9722" fill="none" stroke="#aaa" stroke-opacity="0.5" stroke-width="0.5"></path><path d="M297.0136 80.1823L118.412 93.8275" fill="none" stroke="#aaa" stroke-opacity="0.5" stroke-width="0.5"></path><path d="M297.0136 80.1823L161.9047 158.8062" fill="none" stroke="#aaa" stroke-opacity="0.5" stroke-width="0.5"></path><path d="M297.0136 80.1823L156.6724 110.2147" fill="none" stroke="#aaa" stroke-opacity="0.5" stroke-width="0.5"></path><path d="M165.4921 38.3086L206.3319 119.7978" fill="none" stroke="#aaa" stroke-opacity="0.5" stroke-width="0.5"></path><path d="M254.7322 167.5941L161.9047 158.8062" fill="none" stroke="#aaa" stroke-opacity="0.5" stroke-width="0.5"></path><path d="M254.7322 167.5941L156.6724 110.2147" fill="none" stroke="#aaa" stroke-opacity="0.5" stroke-width="0.5"></path><path d="M206.3319 119.7978L203.3094 28.3254" fill="none" stroke="#aaa" stroke-opacity="0.5" stroke-width="0.5"></path><path d="M207.4689 170.8941L161.9047 158.8062" fill="none" stroke="#aaa" stroke-opacity="0.5" stroke-width="0.5"></path><path d="M207.4689 170.8941L156.6724 110.2147" fill="none" stroke="#aaa" stroke-opacity="0.5" stroke-width="0.5"></path><path d="M263.8919 123.9907L138.9852 61.9021" fill="none" stroke="#aaa" stroke-opacity="0.5" stroke-width="0.5"></path><path d="M138.9852 61.9021L182.7499 219.9552" fill="none" stroke="#aaa" stroke-opacity="0.5" stroke-width="0.5"></path><path d="M165.4921 38.3086L304.3095 152.9722" fill="none" stroke="#aaa" stroke-opacity="0.5" stroke-width="0.5"></path><path d="M297.0136 80.1823L206.3319 119.7978" fill="none" stroke="#aaa" stroke-opacity="0.5" stroke-width="0.5"></path><path d="M308.1458 115.2867L165.4921 38.3086" fill="none" stroke="#aaa" stroke-opacity="0.5" stroke-width="0.5"></path><path d="M263.8919 123.9907L274.0064 48.8804" fill="none" stroke="#aaa" stroke-opacity="0.5" stroke-width="0.5"></path><path d="M149.6338 201.5148L304.3095 152.9722" fill="none" stroke="#aaa" stroke-opacity="0.5" stroke-width="0.5"></path><path d="M165.4921 38.3086L252.5162 216.1624" fill="none" stroke="#aaa" stroke-opacity="0.5" stroke-width="0.5"></path><path d="M244.471 81.7492L254.7322 167.5941" fill="none" stroke="#aaa" stroke-opacity="0.5" stroke-width="0.5"></path><path d="M206.3319 119.7978L138.9852 61.9021" fill="none" stroke="#aaa" stroke-opacity="0.5" stroke-width="0.5"></path><path d="M203.3094 28.3254L304.3095 152.9722" fill="none" stroke="#aaa" stroke-opacity="0.5" stroke-width="0.5"></path><path d="M156.6724 110.2147L252.5162 216.1624" fill="none" stroke="#aaa" stroke-opacity="0.5" stroke-width="0.5"></path><path d="M244.471 81.7492L194.7473 71.3815" fill="none" stroke="#aaa" stroke-opacity="0.5" stroke-width="0.5"></path><path d="M138.9852 61.9021L274.0064 48.8804" fill="none" stroke="#aaa" stroke-opacity="0.5" stroke-width="0.5"></path><path d="M156.6724 110.2147L182.7499 219.9552" fill="none" stroke="#aaa" stroke-opacity="0.5" stroke-width="0.5"></path><path d="M203.3094 28.3254L252.5162 216.1624" fill="none" stroke="#aaa" stroke-opacity="0.5" stroke-width="0.5"></path><path d="M149.6338 201.5148L203.3094 28.3254" fill="none" stroke="#aaa" stroke-opacity="0.5" stroke-width="0.5"></path><path d="M297.0136 80.1823L304.3095 152.9722" fill="none" stroke="#aaa" stroke-opacity="0.5" stroke-width="0.5"></path><path d="M308.1458 115.2867L297.0136 80.1823" fill="none" stroke="#aaa" stroke-opacity="0.5" stroke-width="0.5"></path><path d="M206.3319 119.7978L274.0064 48.8804" fill="none" stroke="#aaa" stroke-opacity="0.5" stroke-width="0.5"></path><path d="M244.471 81.7492L207.4689 170.8941" fill="none" stroke="#aaa" stroke-opacity="0.5" stroke-width="0.5"></path><path d="M216.8675 215.2513L254.7322 167.5941" fill="none" stroke="#aaa" stroke-opacity="0.5" stroke-width="0.5"></path><path d="M297.0136 80.1823L252.5162 216.1624" fill="none" stroke="#aaa" stroke-opacity="0.5" stroke-width="0.5"></path><path d="M207.4689 170.8941L304.3095 152.9722" fill="none" stroke="#aaa" stroke-opacity="0.5" stroke-width="0.5"></path><path d="M216.8675 215.2513L194.7473 71.3815" fill="none" stroke="#aaa" stroke-opacity="0.5" stroke-width="0.5"></path><path d="M254.7322 167.5941L252.5162 216.1624" fill="none" stroke="#aaa" stroke-opacity="0.5" stroke-width="0.5"></path><path d="M207.4689 170.8941L252.5162 216.1624" fill="none" stroke="#aaa" stroke-opacity="0.5" stroke-width="0.5"></path><path d="M254.7322 167.5941L182.7499 219.9552" fill="none" stroke="#aaa" stroke-opacity="0.5" stroke-width="0.5"></path><path d="M149.6338 201.5148L138.9852 61.9021" fill="none" stroke="#aaa" stroke-opacity="0.5" stroke-width="0.5"></path><path d="M216.8675 215.2513L207.4689 170.8941" fill="none" stroke="#aaa" stroke-opacity="0.5" stroke-width="0.5"></path><path d="M308.1458 115.2867L240.0168 32.8612" fill="none" stroke="#aaa" stroke-opacity="0.5" stroke-width="0.5"></path><path d="M114.9682 131.8092L240.0168 32.8612" fill="none" stroke="#aaa" stroke-opacity="0.5" stroke-width="0.5"></path><path d="M149.6338 201.5148L274.0064 48.8804" fill="none" stroke="#aaa" stroke-opacity="0.5" stroke-width="0.5"></path><path d="M244.471 81.7492L118.412 93.8275" fill="none" stroke="#aaa" stroke-opacity="0.5" stroke-width="0.5"></path><path d="M194.7473 71.3815L207.4689 170.8941" fill="none" stroke="#aaa" stroke-opacity="0.5" stroke-width="0.5"></path><path d="M161.9047 158.8062L182.7499 219.9552" fill="none" stroke="#aaa" stroke-opacity="0.5" stroke-width="0.5"></path><path d="M123.3575 168.1228L165.4921 38.3086" fill="none" stroke="#aaa" stroke-opacity="0.5" stroke-width="0.5"></path><path d="M263.8919 123.9907L165.4921 38.3086" fill="none" stroke="#aaa" stroke-opacity="0.5" stroke-width="0.5"></path><path d="M254.7322 167.5941L287.0168 190.2097" fill="none" stroke="#aaa" stroke-opacity="0.5" stroke-width="0.5"></path><path d="M252.5162 216.1624L182.7499 219.9552" fill="none" stroke="#aaa" stroke-opacity="0.5" stroke-width="0.5"></path><path d="M252.5162 216.1624L138.9852 61.9021" fill="none" stroke="#aaa" stroke-opacity="0.5" stroke-width="0.5"></path><path d="M254.7322 167.5941L149.6338 201.5148" fill="none" stroke="#aaa" stroke-opacity="0.5" stroke-width="0.5"></path><path d="M244.471 81.7492L263.8919 123.9907" fill="none" stroke="#aaa" stroke-opacity="0.5" stroke-width="0.5"></path><path d="M304.3095 152.9722L240.0168 32.8612" fill="none" stroke="#aaa" stroke-opacity="0.5" stroke-width="0.5"></path><path d="M216.8675 215.2513L118.412 93.8275" fill="none" stroke="#aaa" stroke-opacity="0.5" stroke-width="0.5"></path><path d="M216.8675 215.2513L161.9047 158.8062" fill="none" stroke="#aaa" stroke-opacity="0.5" stroke-width="0.5"></path><path d="M216.8675 215.2513L156.6724 110.2147" fill="none" stroke="#aaa" stroke-opacity="0.5" stroke-width="0.5"></path><path d="M308.1458 115.2867L161.9047 158.8062" fill="none" stroke="#aaa" stroke-opacity="0.5" stroke-width="0.5"></path><path d="M118.412 93.8275L240.0168 32.8612" fill="none" stroke="#aaa" stroke-opacity="0.5" stroke-width="0.5"></path><path d="M308.1458 115.2867L156.6724 110.2147" fill="none" stroke="#aaa" stroke-opacity="0.5" stroke-width="0.5"></path><path d="M244.471 81.7492L206.3319 119.7978" fill="none" stroke="#aaa" stroke-opacity="0.5" stroke-width="0.5"></path><path d="M252.5162 216.1624L274.0064 48.8804" fill="none" stroke="#aaa" stroke-opacity="0.5" stroke-width="0.5"></path><path d="M263.8919 123.9907L297.0136 80.1823" fill="none" stroke="#aaa" stroke-opacity="0.5" stroke-width="0.5"></path><path d="M194.7473 71.3815L161.9047 158.8062" fill="none" stroke="#aaa" stroke-opacity="0.5" stroke-width="0.5"></path><path d="M194.7473 71.3815L156.6724 110.2147" fill="none" stroke="#aaa" stroke-opacity="0.5" stroke-width="0.5"></path><path d="M244.471 81.7492L216.8675 215.2513" fill="none" stroke="#aaa" stroke-opacity="0.5" stroke-width="0.5"></path><path d="M114.9682 131.8092L123.3575 168.1228" fill="none" stroke="#aaa" stroke-opacity="0.5" stroke-width="0.5"></path><path d="M287.0168 190.2097L240.0168 32.8612" fill="none" stroke="#aaa" stroke-opacity="0.5" stroke-width="0.5"></path><path d="M240.0168 32.8612L161.9047 158.8062" fill="none" stroke="#aaa" stroke-opacity="0.5" stroke-width="0.5"></path><path d="M216.8675 215.2513L206.3319 119.7978" fill="none" stroke="#aaa" stroke-opacity="0.5" stroke-width="0.5"></path><path d="M114.9682 131.8092L216.8675 215.2513" fill="none" stroke="#aaa" stroke-opacity="0.5" stroke-width="0.5"></path><path d="M244.471 81.7492L304.3095 152.9722" fill="none" stroke="#aaa" stroke-opacity="0.5" stroke-width="0.5"></path><path d="M114.9682 131.8092L304.3095 152.9722" fill="none" stroke="#aaa" stroke-opacity="0.5" stroke-width="0.5"></path><path d="M304.3095 152.9722L161.9047 158.8062" fill="none" stroke="#aaa" stroke-opacity="0.5" stroke-width="0.5"></path><path d="M123.3575 168.1228L240.0168 32.8612" fill="none" stroke="#aaa" stroke-opacity="0.5" stroke-width="0.5"></path><path d="M304.3095 152.9722L156.6724 110.2147" fill="none" stroke="#aaa" stroke-opacity="0.5" stroke-width="0.5"></path><path d="M263.8919 123.9907L240.0168 32.8612" fill="none" stroke="#aaa" stroke-opacity="0.5" stroke-width="0.5"></path><path d="M244.471 81.7492L203.3094 28.3254" fill="none" stroke="#aaa" stroke-opacity="0.5" stroke-width="0.5"></path><path d="M216.8675 215.2513L304.3095 152.9722" fill="none" stroke="#aaa" stroke-opacity="0.5" stroke-width="0.5"></path><path d="M114.9682 131.8092L203.3094 28.3254" fill="none" stroke="#aaa" stroke-opacity="0.5" stroke-width="0.5"></path><path d="M263.8919 123.9907L308.1458 115.2867" fill="none" stroke="#aaa" stroke-opacity="0.5" stroke-width="0.5"></path><path d="M206.3319 119.7978L240.0168 32.8612" fill="none" stroke="#aaa" stroke-opacity="0.5" stroke-width="0.5"></path><path d="M308.1458 115.2867L252.5162 216.1624" fill="none" stroke="#aaa" stroke-opacity="0.5" stroke-width="0.5"></path><path d="M297.0136 80.1823L165.4921 38.3086" fill="none" stroke="#aaa" stroke-opacity="0.5" stroke-width="0.5"></path><path d="M118.412 93.8275L304.3095 152.9722" fill="none" stroke="#aaa" stroke-opacity="0.5" stroke-width="0.5"></path><path d="M216.8675 215.2513L203.3094 28.3254" fill="none" stroke="#aaa" stroke-opacity="0.5" stroke-width="0.5"></path><path d="M194.7473 71.3815L304.3095 152.9722" fill="none" stroke="#aaa" stroke-opacity="0.5" stroke-width="0.5"></path><path d="M308.1458 115.2867L182.7499 219.9552" fill="none" stroke="#aaa" stroke-opacity="0.5" stroke-width="0.5"></path><path d="M244.471 81.7492L138.9852 61.9021" fill="none" stroke="#aaa" stroke-opacity="0.5" stroke-width="0.5"></path><path d="M263.8919 123.9907L161.9047 158.8062" fill="none" stroke="#aaa" stroke-opacity="0.5" stroke-width="0.5"></path><path d="M263.8919 123.9907L156.6724 110.2147" fill="none" stroke="#aaa" stroke-opacity="0.5" stroke-width="0.5"></path><path d="M194.7473 71.3815L252.5162 216.1624" fill="none" stroke="#aaa" stroke-opacity="0.5" stroke-width="0.5"></path><path d="M114.9682 131.8092L182.7499 219.9552" fill="none" stroke="#aaa" stroke-opacity="0.5" stroke-width="0.5"></path><path d="M114.9682 131.8092L138.9852 61.9021" fill="none" stroke="#aaa" stroke-opacity="0.5" stroke-width="0.5"></path><path d="M240.0168 32.8612L252.5162 216.1624" fill="none" stroke="#aaa" stroke-opacity="0.5" stroke-width="0.5"></path><path d="M254.7322 167.5941L194.7473 71.3815" fill="none" stroke="#aaa" stroke-opacity="0.5" stroke-width="0.5"></path><path d="M244.471 81.7492L274.0064 48.8804" fill="none" stroke="#aaa" stroke-opacity="0.5" stroke-width="0.5"></path><path d="M165.4921 38.3086L240.0168 32.8612" fill="none" stroke="#aaa" stroke-opacity="0.5" stroke-width="0.5"></path><path d="M216.8675 215.2513L138.9852 61.9021" fill="none" stroke="#aaa" stroke-opacity="0.5" stroke-width="0.5"></path><path d="M114.9682 131.8092L274.0064 48.8804" fill="none" stroke="#aaa" stroke-opacity="0.5" stroke-width="0.5"></path><path d="M304.3095 152.9722L252.5162 216.1624" fill="none" stroke="#aaa" stroke-opacity="0.5" stroke-width="0.5"></path><path d="M254.7322 167.5941L207.4689 170.8941" fill="none" stroke="#aaa" stroke-opacity="0.5" stroke-width="0.5"></path><path d="M308.1458 115.2867L287.0168 190.2097" fill="none" stroke="#aaa" stroke-opacity="0.5" stroke-width="0.5"></path><path d="M149.6338 201.5148L240.0168 32.8612" fill="none" stroke="#aaa" stroke-opacity="0.5" stroke-width="0.5"></path><path d="M308.1458 115.2867L149.6338 201.5148" fill="none" stroke="#aaa" stroke-opacity="0.5" stroke-width="0.5"></path><path d="M304.3095 152.9722L182.7499 219.9552" fill="none" stroke="#aaa" stroke-opacity="0.5" stroke-width="0.5"></path><path d="M203.3094 28.3254L240.0168 32.8612" fill="none" stroke="#aaa" stroke-opacity="0.5" stroke-width="0.5"></path><path d="M118.412 93.8275L182.7499 219.9552" fill="none" stroke="#aaa" stroke-opacity="0.5" stroke-width="0.5"></path><path d="M118.412 93.8275L138.9852 61.9021" fill="none" stroke="#aaa" stroke-opacity="0.5" stroke-width="0.5"></path><path d="M216.8675 215.2513L274.0064 48.8804" fill="none" stroke="#aaa" stroke-opacity="0.5" stroke-width="0.5"></path><path d="M114.9682 131.8092L149.6338 201.5148" fill="none" stroke="#aaa" stroke-opacity="0.5" stroke-width="0.5"></path><path d="M123.3575 168.1228L203.3094 28.3254" fill="none" stroke="#aaa" stroke-opacity="0.5" stroke-width="0.5"></path><path d="M297.0136 80.1823L240.0168 32.8612" fill="none" stroke="#aaa" stroke-opacity="0.5" stroke-width="0.5"></path><path d="M244.471 81.7492L114.9682 131.8092" fill="none" stroke="#aaa" stroke-opacity="0.5" stroke-width="0.5"></path><path d="M287.0168 190.2097L182.7499 219.9552" fill="none" stroke="#aaa" stroke-opacity="0.5" stroke-width="0.5"></path><path d="M287.0168 190.2097L138.9852 61.9021" fill="none" stroke="#aaa" stroke-opacity="0.5" stroke-width="0.5"></path><path d="M118.412 93.8275L274.0064 48.8804" fill="none" stroke="#aaa" stroke-opacity="0.5" stroke-width="0.5"></path><path d="M207.4689 170.8941L240.0168 32.8612" fill="none" stroke="#aaa" stroke-opacity="0.5" stroke-width="0.5"></path><path d="M254.7322 167.5941L118.412 93.8275" fill="none" stroke="#aaa" stroke-opacity="0.5" stroke-width="0.5"></path><path d="M263.8919 123.9907L252.5162 216.1624" fill="none" stroke="#aaa" stroke-opacity="0.5" stroke-width="0.5"></path><path d="M149.6338 201.5148L161.9047 158.8062" fill="none" stroke="#aaa" stroke-opacity="0.5" stroke-width="0.5"></path><path d="M149.6338 201.5148L156.6724 110.2147" fill="none" stroke="#aaa" stroke-opacity="0.5" stroke-width="0.5"></path><path d="M287.0168 190.2097L274.0064 48.8804" fill="none" stroke="#aaa" stroke-opacity="0.5" stroke-width="0.5"></path><path d="M123.3575 168.1228L182.7499 219.9552" fill="none" stroke="#aaa" stroke-opacity="0.5" stroke-width="0.5"></path><path d="M263.8919 123.9907L182.7499 219.9552" fill="none" stroke="#aaa" stroke-opacity="0.5" stroke-width="0.5"></path><path d="M123.3575 168.1228L138.9852 61.9021" fill="none" stroke="#aaa" stroke-opacity="0.5" stroke-width="0.5"></path><path d="M297.0136 80.1823L123.3575 168.1228" fill="none" stroke="#aaa" stroke-opacity="0.5" stroke-width="0.5"></path><path d="M123.3575 168.1228L274.0064 48.8804" fill="none" stroke="#aaa" stroke-opacity="0.5" stroke-width="0.5"></path><path d="M244.471 81.7492L165.4921 38.3086" fill="none" stroke="#aaa" stroke-opacity="0.5" stroke-width="0.5"></path><path d="M206.3319 119.7978L252.5162 216.1624" fill="none" stroke="#aaa" stroke-opacity="0.5" stroke-width="0.5"></path><path d="M254.7322 167.5941L206.3319 119.7978" fill="none" stroke="#aaa" stroke-opacity="0.5" stroke-width="0.5"></path><path d="M206.3319 119.7978L182.7499 219.9552" fill="none" stroke="#aaa" stroke-opacity="0.5" stroke-width="0.5"></path><path d="M254.7322 167.5941L123.3575 168.1228" fill="none" stroke="#aaa" stroke-opacity="0.5" stroke-width="0.5"></path><path d="M165.4921 38.3086L203.3094 28.3254" fill="none" stroke="#aaa" stroke-opacity="0.5" stroke-width="0.5"></path><path d="M252.5162 216.1624L161.9047 158.8062" fill="none" stroke="#aaa" stroke-opacity="0.5" stroke-width="0.5"></path><path d="M114.9682 131.8092L165.4921 38.3086" fill="none" stroke="#aaa" stroke-opacity="0.5" stroke-width="0.5"></path><path d="M123.3575 168.1228L287.0168 190.2097" fill="none" stroke="#aaa" stroke-opacity="0.5" stroke-width="0.5"></path><path d="M263.8919 123.9907L287.0168 190.2097" fill="none" stroke="#aaa" stroke-opacity="0.5" stroke-width="0.5"></path><path d="M123.3575 168.1228L149.6338 201.5148" fill="none" stroke="#aaa" stroke-opacity="0.5" stroke-width="0.5"></path><path d="M263.8919 123.9907L149.6338 201.5148" fill="none" stroke="#aaa" stroke-opacity="0.5" stroke-width="0.5"></path><path d="M216.8675 215.2513L165.4921 38.3086" fill="none" stroke="#aaa" stroke-opacity="0.5" stroke-width="0.5"></path><path d="M244.471 81.7492L297.0136 80.1823" fill="none" stroke="#aaa" stroke-opacity="0.5" stroke-width="0.5"></path><path d="M254.7322 167.5941L304.3095 152.9722" fill="none" stroke="#aaa" stroke-opacity="0.5" stroke-width="0.5"></path><path d="M114.9682 131.8092L297.0136 80.1823" fill="none" stroke="#aaa" stroke-opacity="0.5" stroke-width="0.5"></path><path d="M297.0136 80.1823L203.3094 28.3254" fill="none" stroke="#aaa" stroke-opacity="0.5" stroke-width="0.5"></path><path d="M165.4921 38.3086L182.7499 219.9552" fill="none" stroke="#aaa" stroke-opacity="0.5" stroke-width="0.5"></path><path d="M165.4921 38.3086L138.9852 61.9021" fill="none" stroke="#aaa" stroke-opacity="0.5" stroke-width="0.5"></path><path d="M206.3319 119.7978L287.0168 190.2097" fill="none" stroke="#aaa" stroke-opacity="0.5" stroke-width="0.5"></path><path d="M308.1458 115.2867L194.7473 71.3815" fill="none" stroke="#aaa" stroke-opacity="0.5" stroke-width="0.5"></path><path d="M206.3319 119.7978L149.6338 201.5148" fill="none" stroke="#aaa" stroke-opacity="0.5" stroke-width="0.5"></path><path d="M149.6338 201.5148L252.5162 216.1624" fill="none" stroke="#aaa" stroke-opacity="0.5" stroke-width="0.5"></path><path d="M114.9682 131.8092L254.7322 167.5941" fill="none" stroke="#aaa" stroke-opacity="0.5" stroke-width="0.5"></path><path d="M156.6724 110.2147L138.9852 61.9021" fill="none" stroke="#aaa" stroke-opacity="0.5" stroke-width="0.5"></path><path d="M254.7322 167.5941L203.3094 28.3254" fill="none" stroke="#aaa" stroke-opacity="0.5" stroke-width="0.5"></path><path d="M149.6338 201.5148L182.7499 219.9552" fill="none" stroke="#aaa" stroke-opacity="0.5" stroke-width="0.5"></path><path d="M216.8675 215.2513L297.0136 80.1823" fill="none" stroke="#aaa" stroke-opacity="0.5" stroke-width="0.5"></path><path d="M203.3094 28.3254L182.7499 219.9552" fill="none" stroke="#aaa" stroke-opacity="0.5" stroke-width="0.5"></path><path d="M114.9682 131.8092L194.7473 71.3815" fill="none" stroke="#aaa" stroke-opacity="0.5" stroke-width="0.5"></path><path d="M203.3094 28.3254L138.9852 61.9021" fill="none" stroke="#aaa" stroke-opacity="0.5" stroke-width="0.5"></path><path d="M308.1458 115.2867L207.4689 170.8941" fill="none" stroke="#aaa" stroke-opacity="0.5" stroke-width="0.5"></path><path d="M244.471 81.7492L240.0168 32.8612" fill="none" stroke="#aaa" stroke-opacity="0.5" stroke-width="0.5"></path><path d="M165.4921 38.3086L274.0064 48.8804" fill="none" stroke="#aaa" stroke-opacity="0.5" stroke-width="0.5"></path><path d="M156.6724 110.2147L274.0064 48.8804" fill="none" stroke="#aaa" stroke-opacity="0.5" stroke-width="0.5"></path><path d="M297.0136 80.1823L182.7499 219.9552" fill="none" stroke="#aaa" stroke-opacity="0.5" stroke-width="0.5"></path><path d="M297.0136 80.1823L138.9852 61.9021" fill="none" stroke="#aaa" stroke-opacity="0.5" stroke-width="0.5"></path><path d="M114.9682 131.8092L207.4689 170.8941" fill="none" stroke="#aaa" stroke-opacity="0.5" stroke-width="0.5"></path><path d="M203.3094 28.3254L274.0064 48.8804" fill="none" stroke="#aaa" stroke-opacity="0.5" stroke-width="0.5"></path><path d="M165.4921 38.3086L287.0168 190.2097" fill="none" stroke="#aaa" stroke-opacity="0.5" stroke-width="0.5"></path><path d="M165.4921 38.3086L149.6338 201.5148" fill="none" stroke="#aaa" stroke-opacity="0.5" stroke-width="0.5"></path><path d="M254.7322 167.5941L138.9852 61.9021" fill="none" stroke="#aaa" stroke-opacity="0.5" stroke-width="0.5"></path><path d="M244.471 81.7492L308.1458 115.2867" fill="none" stroke="#aaa" stroke-opacity="0.5" stroke-width="0.5"></path><path d="M207.4689 170.8941L182.7499 219.9552" fill="none" stroke="#aaa" stroke-opacity="0.5" stroke-width="0.5"></path><path d="M207.4689 170.8941L138.9852 61.9021" fill="none" stroke="#aaa" stroke-opacity="0.5" stroke-width="0.5"></path><path d="M216.8675 215.2513L240.0168 32.8612" fill="none" stroke="#aaa" stroke-opacity="0.5" stroke-width="0.5"></path><path d="M149.6338 201.5148L287.0168 190.2097" fill="none" stroke="#aaa" stroke-opacity="0.5" stroke-width="0.5"></path><path d="M118.412 93.8275L194.7473 71.3815" fill="none" stroke="#aaa" stroke-opacity="0.5" stroke-width="0.5"></path><path d="M297.0136 80.1823L274.0064 48.8804" fill="none" stroke="#aaa" stroke-opacity="0.5" stroke-width="0.5"></path><path d="M203.3094 28.3254L287.0168 190.2097" fill="none" stroke="#aaa" stroke-opacity="0.5" stroke-width="0.5"></path><path d="M114.9682 131.8092L308.1458 115.2867" fill="none" stroke="#aaa" stroke-opacity="0.5" stroke-width="0.5"></path><path d="M254.7322 167.5941L274.0064 48.8804" fill="none" stroke="#aaa" stroke-opacity="0.5" stroke-width="0.5"></path><path d="M308.1458 115.2867L118.412 93.8275" fill="none" stroke="#aaa" stroke-opacity="0.5" stroke-width="0.5"></path><path d="M118.412 93.8275L207.4689 170.8941" fill="none" stroke="#aaa" stroke-opacity="0.5" stroke-width="0.5"></path><path d="M244.471 81.7492L161.9047 158.8062" fill="none" stroke="#aaa" stroke-opacity="0.5" stroke-width="0.5"></path><path d="M244.471 81.7492L156.6724 110.2147" fill="none" stroke="#aaa" stroke-opacity="0.5" stroke-width="0.5"></path><path d="M207.4689 170.8941L274.0064 48.8804" fill="none" stroke="#aaa" stroke-opacity="0.5" stroke-width="0.5"></path><path d="M297.0136 80.1823L287.0168 190.2097" fill="none" stroke="#aaa" stroke-opacity="0.5" stroke-width="0.5"></path><path d="M194.7473 71.3815L240.0168 32.8612" fill="none" stroke="#aaa" stroke-opacity="0.5" stroke-width="0.5"></path><path d="M297.0136 80.1823L149.6338 201.5148" fill="none" stroke="#aaa" stroke-opacity="0.5" stroke-width="0.5"></path><path d="M244.471 81.7492L123.3575 168.1228" fill="none" stroke="#aaa" stroke-opacity="0.5" stroke-width="0.5"></path><path d="M161.9047 158.8062L138.9852 61.9021" fill="none" stroke="#aaa" stroke-opacity="0.5" stroke-width="0.5"></path><path d="M216.8675 215.2513L308.1458 115.2867" fill="none" stroke="#aaa" stroke-opacity="0.5" stroke-width="0.5"></path><path d="M1 0A1 1 0 1 1 1 -0.0001" fill="#5470c6" transform="matrix(17.5,0,0,17.5,308.1458,115.2867)"></path><path d="M1 0A1 1 0 1 1 1 -0.0001" fill="#5470c6" transform="matrix(17.5,0,0,17.5,287.0168,190.2097)"></path><path d="M1 0A1 1 0 1 1 1 -0.0001" fill="#5470c6" transform="matrix(17.5,0,0,17.5,304.3095,152.9722)"></path><path d="M1 0A1 1 0 1 1 1 -0.0001" fill="#5470c6" transform="matrix(17.5,0,0,17.5,252.5162,216.1624)"></path><path d="M1 0A1 1 0 1 1 1 -0.0001" fill="#5470c6" transform="matrix(17.5,0,0,17.5,254.7322,167.5941)"></path><path d="M1 0A1 1 0 1 1 1 -0.0001" fill="#5470c6" transform="matrix(17.5,0,0,17.5,216.8675,215.2513)"></path><path d="M1 0A1 1 0 1 1 1 -0.0001" fill="#5470c6" transform="matrix(17.5,0,0,17.5,206.3319,119.7978)"></path><path d="M1 0A1 1 0 1 1 1 -0.0001" fill="#5470c6" transform="matrix(17.5,0,0,17.5,182.7499,219.9552)"></path><path d="M1 0A1 1 0 1 1 1 -0.0001" fill="#5470c6" transform="matrix(17.5,0,0,17.5,207.4689,170.8941)"></path><path d="M1 0A1 1 0 1 1 1 -0.0001" fill="#5470c6" transform="matrix(17.5,0,0,17.5,149.6338,201.5148)"></path><path d="M1 0A1 1 0 1 1 1 -0.0001" fill="#5470c6" transform="matrix(17.5,0,0,17.5,123.3575,168.1228)"></path><path d="M1 0A1 1 0 1 1 1 -0.0001" fill="#5470c6" transform="matrix(17.5,0,0,17.5,161.9047,158.8062)"></path><path d="M1 0A1 1 0 1 1 1 -0.0001" fill="#5470c6" transform="matrix(17.5,0,0,17.5,114.9682,131.8092)"></path><path d="M1 0A1 1 0 1 1 1 -0.0001" fill="#5470c6" transform="matrix(17.5,0,0,17.5,118.412,93.8275)"></path><path d="M1 0A1 1 0 1 1 1 -0.0001" fill="#5470c6" transform="matrix(17.5,0,0,17.5,156.6724,110.2147)"></path><path d="M1 0A1 1 0 1 1 1 -0.0001" fill="#5470c6" transform="matrix(17.5,0,0,17.5,138.9852,61.9021)"></path><path d="M1 0A1 1 0 1 1 1 -0.0001" fill="#5470c6" transform="matrix(17.5,0,0,17.5,165.4921,38.3086)"></path><path d="M1 0A1 1 0 1 1 1 -0.0001" fill="#5470c6" transform="matrix(17.5,0,0,17.5,194.7473,71.3815)"></path><path d="M1 0A1 1 0 1 1 1 -0.0001" fill="#5470c6" transform="matrix(17.5,0,0,17.5,203.3094,28.3254)"></path><path d="M1 0A1 1 0 1 1 1 -0.0001" fill="#5470c6" transform="matrix(17.5,0,0,17.5,240.0168,32.8612)"></path><path d="M1 0A1 1 0 1 1 1 -0.0001" fill="#5470c6" transform="matrix(17.5,0,0,17.5,274.0064,48.8804)"></path><path d="M1 0A1 1 0 1 1 1 -0.0001" fill="#5470c6" transform="matrix(17.5,0,0,17.5,244.471,81.7492)"></path><path d="M1 0A1 1 0 1 1 1 -0.0001" fill="#5470c6" transform="matrix(17.5,0,0,17.5,297.0136,80.1823)"></path><path d="M1 0A1 1 0 1 1 1 -0.0001" fill="#5470c6" transform="matrix(17.5,0,0,17.5,263.8919,123.9907)"></path><path d="M-31.2969 -5l62.5938 0l0 32l-62.5937 0Z" fill="rgb(0,0,0)" fill-opacity="0" stroke="#ccc" stroke-width="0" transform="translate(237.5 5)"></path><text dominant-baseline="central" fill="#333" style="font-size:22px;font-family:sans-serif;font-weight:bolder;" text-anchor="middle" transform="translate(237.5 5)" y="11">C199</text></g></svg>