<svg baseprofile="full" height="250" style="position:absolute;left:0;top:0;user-select:none" version="1.1" width="475" xmlns="http://www.w3.org/2000/svg" xmlns:xlink="http://www.w3.org/1999/xlink"><rect fill="none" height="250" id="0" width="475" x="0" y="0"></rect><g><path d="M142.8247 193.496L253.1298 157.6449" fill="none" stroke="#aaa" stroke-opacity="0.5" stroke-width="0.5"></path><path d="M195.5413 174.8072L152.4263 133.7027" fill="none" stroke="#aaa" stroke-opacity="0.5" stroke-width="0.5"></path><path d="M113.8954 110.83L227.9911 67.8811" fill="none" stroke="#aaa" stroke-opacity="0.5" stroke-width="0.5"></path><path d="M204.9284 26.3523L254.6282 209.8147" fill="none" stroke="#aaa" stroke-opacity="0.5" stroke-width="0.5"></path><path d="M162.8708 36.9008L204.9284 26.3523" fill="none" stroke="#aaa" stroke-opacity="0.5" stroke-width="0.5"></path><path d="M290.0659 188.7228L195.5413 174.8072" fill="none" stroke="#aaa" stroke-opacity="0.5" stroke-width="0.5"></path><path d="M195.5413 174.8072L217.9743 221.4259" fill="none" stroke="#aaa" stroke-opacity="0.5" stroke-width="0.5"></path><path d="M205.161 123.3746L227.9911 67.8811" fill="none" stroke="#aaa" stroke-opacity="0.5" stroke-width="0.5"></path><path d="M127.4819 71.2415L253.1298 157.6449" fill="none" stroke="#aaa" stroke-opacity="0.5" stroke-width="0.5"></path><path d="M116.2056 160.1846L253.1298 157.6449" fill="none" stroke="#aaa" stroke-opacity="0.5" stroke-width="0.5"></path><path d="M263.0269 106.2006L173.1219 79.9162" fill="none" stroke="#aaa" stroke-opacity="0.5" stroke-width="0.5"></path><path d="M254.6282 209.8147L290.0659 188.7228" fill="none" stroke="#aaa" stroke-opacity="0.5" stroke-width="0.5"></path><path d="M127.4819 71.2415L152.4263 133.7027" fill="none" stroke="#aaa" stroke-opacity="0.5" stroke-width="0.5"></path><path d="M308.7794 103.2683L173.1219 79.9162" fill="none" stroke="#aaa" stroke-opacity="0.5" stroke-width="0.5"></path><path d="M162.8708 36.9008L290.0659 188.7228" fill="none" stroke="#aaa" stroke-opacity="0.5" stroke-width="0.5"></path><path d="M127.4819 71.2415L217.9743 221.4259" fill="none" stroke="#aaa" stroke-opacity="0.5" stroke-width="0.5"></path><path d="M217.9743 221.4259L253.1298 157.6449" fill="none" stroke="#aaa" stroke-opacity="0.5" stroke-width="0.5"></path><path d="M175.3784 216.6973L227.9911 67.8811" fill="none" stroke="#aaa" stroke-opacity="0.5" stroke-width="0.5"></path><path d="M116.2056 160.1846L217.9743 221.4259" fill="none" stroke="#aaa" stroke-opacity="0.5" stroke-width="0.5"></path><path d="M263.0269 106.2006L253.1298 157.6449" fill="none" stroke="#aaa" stroke-opacity="0.5" stroke-width="0.5"></path><path d="M152.4263 133.7027L253.4406 32.6309" fill="none" stroke="#aaa" stroke-opacity="0.5" stroke-width="0.5"></path><path d="M290.0659 188.7228L253.4406 32.6309" fill="none" stroke="#aaa" stroke-opacity="0.5" stroke-width="0.5"></path><path d="M127.4819 71.2415L142.8247 193.496" fill="none" stroke="#aaa" stroke-opacity="0.5" stroke-width="0.5"></path><path d="M173.1219 79.9162L253.1298 157.6449" fill="none" stroke="#aaa" stroke-opacity="0.5" stroke-width="0.5"></path><path d="M142.8247 193.496L195.5413 174.8072" fill="none" stroke="#aaa" stroke-opacity="0.5" stroke-width="0.5"></path><path d="M204.9284 26.3523L227.9911 67.8811" fill="none" stroke="#aaa" stroke-opacity="0.5" stroke-width="0.5"></path><path d="M308.7794 103.2683L253.1298 157.6449" fill="none" stroke="#aaa" stroke-opacity="0.5" stroke-width="0.5"></path><path d="M263.0269 106.2006L152.4263 133.7027" fill="none" stroke="#aaa" stroke-opacity="0.5" stroke-width="0.5"></path><path d="M254.6282 209.8147L306.8555 147.1952" fill="none" stroke="#aaa" stroke-opacity="0.5" stroke-width="0.5"></path><path d="M173.1219 79.9162L152.4263 133.7027" fill="none" stroke="#aaa" stroke-opacity="0.5" stroke-width="0.5"></path><path d="M116.2056 160.1846L195.5413 174.8072" fill="none" stroke="#aaa" stroke-opacity="0.5" stroke-width="0.5"></path><path d="M263.0269 106.2006L217.9743 221.4259" fill="none" stroke="#aaa" stroke-opacity="0.5" stroke-width="0.5"></path><path d="M290.0659 188.7228L287.9162 62.7124" fill="none" stroke="#aaa" stroke-opacity="0.5" stroke-width="0.5"></path><path d="M308.7794 103.2683L152.4263 133.7027" fill="none" stroke="#aaa" stroke-opacity="0.5" stroke-width="0.5"></path><path d="M173.1219 79.9162L217.9743 221.4259" fill="none" stroke="#aaa" stroke-opacity="0.5" stroke-width="0.5"></path><path d="M287.9162 62.7124L227.9911 67.8811" fill="none" stroke="#aaa" stroke-opacity="0.5" stroke-width="0.5"></path><path d="M162.8708 36.9008L306.8555 147.1952" fill="none" stroke="#aaa" stroke-opacity="0.5" stroke-width="0.5"></path><path d="M254.6282 209.8147L116.2056 160.1846" fill="none" stroke="#aaa" stroke-opacity="0.5" stroke-width="0.5"></path><path d="M308.7794 103.2683L217.9743 221.4259" fill="none" stroke="#aaa" stroke-opacity="0.5" stroke-width="0.5"></path><path d="M195.5413 174.8072L253.4406 32.6309" fill="none" stroke="#aaa" stroke-opacity="0.5" stroke-width="0.5"></path><path d="M205.161 123.3746L173.1219 79.9162" fill="none" stroke="#aaa" stroke-opacity="0.5" stroke-width="0.5"></path><path d="M142.8247 193.496L253.4406 32.6309" fill="none" stroke="#aaa" stroke-opacity="0.5" stroke-width="0.5"></path><path d="M162.8708 36.9008L116.2056 160.1846" fill="none" stroke="#aaa" stroke-opacity="0.5" stroke-width="0.5"></path><path d="M263.0269 106.2006L195.5413 174.8072" fill="none" stroke="#aaa" stroke-opacity="0.5" stroke-width="0.5"></path><path d="M142.8247 193.496L175.3784 216.6973" fill="none" stroke="#aaa" stroke-opacity="0.5" stroke-width="0.5"></path><path d="M173.1219 79.9162L195.5413 174.8072" fill="none" stroke="#aaa" stroke-opacity="0.5" stroke-width="0.5"></path><path d="M175.3784 216.6973L173.1219 79.9162" fill="none" stroke="#aaa" stroke-opacity="0.5" stroke-width="0.5"></path><path d="M205.161 123.3746L253.1298 157.6449" fill="none" stroke="#aaa" stroke-opacity="0.5" stroke-width="0.5"></path><path d="M308.7794 103.2683L195.5413 174.8072" fill="none" stroke="#aaa" stroke-opacity="0.5" stroke-width="0.5"></path><path d="M116.2056 160.1846L253.4406 32.6309" fill="none" stroke="#aaa" stroke-opacity="0.5" stroke-width="0.5"></path><path d="M113.8954 110.83L152.4263 133.7027" fill="none" stroke="#aaa" stroke-opacity="0.5" stroke-width="0.5"></path><path d="M142.8247 193.496L287.9162 62.7124" fill="none" stroke="#aaa" stroke-opacity="0.5" stroke-width="0.5"></path><path d="M142.8247 193.496L290.0659 188.7228" fill="none" stroke="#aaa" stroke-opacity="0.5" stroke-width="0.5"></path><path d="M254.6282 209.8147L205.161 123.3746" fill="none" stroke="#aaa" stroke-opacity="0.5" stroke-width="0.5"></path><path d="M205.161 123.3746L152.4263 133.7027" fill="none" stroke="#aaa" stroke-opacity="0.5" stroke-width="0.5"></path><path d="M204.9284 26.3523L113.8954 110.83" fill="none" stroke="#aaa" stroke-opacity="0.5" stroke-width="0.5"></path><path d="M205.161 123.3746L217.9743 221.4259" fill="none" stroke="#aaa" stroke-opacity="0.5" stroke-width="0.5"></path><path d="M217.9743 221.4259L253.4406 32.6309" fill="none" stroke="#aaa" stroke-opacity="0.5" stroke-width="0.5"></path><path d="M116.2056 160.1846L287.9162 62.7124" fill="none" stroke="#aaa" stroke-opacity="0.5" stroke-width="0.5"></path><path d="M162.8708 36.9008L205.161 123.3746" fill="none" stroke="#aaa" stroke-opacity="0.5" stroke-width="0.5"></path><path d="M116.2056 160.1846L290.0659 188.7228" fill="none" stroke="#aaa" stroke-opacity="0.5" stroke-width="0.5"></path><path d="M263.0269 106.2006L253.4406 32.6309" fill="none" stroke="#aaa" stroke-opacity="0.5" stroke-width="0.5"></path><path d="M173.1219 79.9162L253.4406 32.6309" fill="none" stroke="#aaa" stroke-opacity="0.5" stroke-width="0.5"></path><path d="M152.4263 133.7027L227.9911 67.8811" fill="none" stroke="#aaa" stroke-opacity="0.5" stroke-width="0.5"></path><path d="M290.0659 188.7228L227.9911 67.8811" fill="none" stroke="#aaa" stroke-opacity="0.5" stroke-width="0.5"></path><path d="M175.3784 216.6973L152.4263 133.7027" fill="none" stroke="#aaa" stroke-opacity="0.5" stroke-width="0.5"></path><path d="M263.0269 106.2006L175.3784 216.6973" fill="none" stroke="#aaa" stroke-opacity="0.5" stroke-width="0.5"></path><path d="M308.7794 103.2683L253.4406 32.6309" fill="none" stroke="#aaa" stroke-opacity="0.5" stroke-width="0.5"></path><path d="M162.8708 36.9008L113.8954 110.83" fill="none" stroke="#aaa" stroke-opacity="0.5" stroke-width="0.5"></path><path d="M308.7794 103.2683L175.3784 216.6973" fill="none" stroke="#aaa" stroke-opacity="0.5" stroke-width="0.5"></path><path d="M205.161 123.3746L195.5413 174.8072" fill="none" stroke="#aaa" stroke-opacity="0.5" stroke-width="0.5"></path><path d="M263.0269 106.2006L287.9162 62.7124" fill="none" stroke="#aaa" stroke-opacity="0.5" stroke-width="0.5"></path><path d="M254.6282 209.8147L173.1219 79.9162" fill="none" stroke="#aaa" stroke-opacity="0.5" stroke-width="0.5"></path><path d="M204.9284 26.3523L152.4263 133.7027" fill="none" stroke="#aaa" stroke-opacity="0.5" stroke-width="0.5"></path><path d="M162.8708 36.9008L173.1219 79.9162" fill="none" stroke="#aaa" stroke-opacity="0.5" stroke-width="0.5"></path><path d="M195.5413 174.8072L227.9911 67.8811" fill="none" stroke="#aaa" stroke-opacity="0.5" stroke-width="0.5"></path><path d="M204.9284 26.3523L142.8247 193.496" fill="none" stroke="#aaa" stroke-opacity="0.5" stroke-width="0.5"></path><path d="M287.9162 62.7124L152.4263 133.7027" fill="none" stroke="#aaa" stroke-opacity="0.5" stroke-width="0.5"></path><path d="M263.0269 106.2006L254.6282 209.8147" fill="none" stroke="#aaa" stroke-opacity="0.5" stroke-width="0.5"></path><path d="M254.6282 209.8147L253.1298 157.6449" fill="none" stroke="#aaa" stroke-opacity="0.5" stroke-width="0.5"></path><path d="M142.8247 193.496L227.9911 67.8811" fill="none" stroke="#aaa" stroke-opacity="0.5" stroke-width="0.5"></path><path d="M287.9162 62.7124L217.9743 221.4259" fill="none" stroke="#aaa" stroke-opacity="0.5" stroke-width="0.5"></path><path d="M308.7794 103.2683L254.6282 209.8147" fill="none" stroke="#aaa" stroke-opacity="0.5" stroke-width="0.5"></path><path d="M162.8708 36.9008L253.1298 157.6449" fill="none" stroke="#aaa" stroke-opacity="0.5" stroke-width="0.5"></path><path d="M127.4819 71.2415L306.8555 147.1952" fill="none" stroke="#aaa" stroke-opacity="0.5" stroke-width="0.5"></path><path d="M116.2056 160.1846L227.9911 67.8811" fill="none" stroke="#aaa" stroke-opacity="0.5" stroke-width="0.5"></path><path d="M254.6282 209.8147L217.9743 221.4259" fill="none" stroke="#aaa" stroke-opacity="0.5" stroke-width="0.5"></path><path d="M290.0659 188.7228L173.1219 79.9162" fill="none" stroke="#aaa" stroke-opacity="0.5" stroke-width="0.5"></path><path d="M204.9284 26.3523L127.4819 71.2415" fill="none" stroke="#aaa" stroke-opacity="0.5" stroke-width="0.5"></path><path d="M162.8708 36.9008L217.9743 221.4259" fill="none" stroke="#aaa" stroke-opacity="0.5" stroke-width="0.5"></path><path d="M217.9743 221.4259L227.9911 67.8811" fill="none" stroke="#aaa" stroke-opacity="0.5" stroke-width="0.5"></path><path d="M263.0269 106.2006L227.9911 67.8811" fill="none" stroke="#aaa" stroke-opacity="0.5" stroke-width="0.5"></path><path d="M254.6282 209.8147L195.5413 174.8072" fill="none" stroke="#aaa" stroke-opacity="0.5" stroke-width="0.5"></path><path d="M227.9911 67.8811L306.8555 147.1952" fill="none" stroke="#aaa" stroke-opacity="0.5" stroke-width="0.5"></path><path d="M173.1219 79.9162L227.9911 67.8811" fill="none" stroke="#aaa" stroke-opacity="0.5" stroke-width="0.5"></path><path d="M308.7794 103.2683L227.9911 67.8811" fill="none" stroke="#aaa" stroke-opacity="0.5" stroke-width="0.5"></path><path d="M195.5413 174.8072L113.8954 110.83" fill="none" stroke="#aaa" stroke-opacity="0.5" stroke-width="0.5"></path><path d="M290.0659 188.7228L152.4263 133.7027" fill="none" stroke="#aaa" stroke-opacity="0.5" stroke-width="0.5"></path><path d="M162.8708 36.9008L195.5413 174.8072" fill="none" stroke="#aaa" stroke-opacity="0.5" stroke-width="0.5"></path><path d="M142.8247 193.496L173.1219 79.9162" fill="none" stroke="#aaa" stroke-opacity="0.5" stroke-width="0.5"></path><path d="M127.4819 71.2415L205.161 123.3746" fill="none" stroke="#aaa" stroke-opacity="0.5" stroke-width="0.5"></path><path d="M290.0659 188.7228L217.9743 221.4259" fill="none" stroke="#aaa" stroke-opacity="0.5" stroke-width="0.5"></path><path d="M116.2056 160.1846L173.1219 79.9162" fill="none" stroke="#aaa" stroke-opacity="0.5" stroke-width="0.5"></path><path d="M127.4819 71.2415L113.8954 110.83" fill="none" stroke="#aaa" stroke-opacity="0.5" stroke-width="0.5"></path><path d="M254.6282 209.8147L253.4406 32.6309" fill="none" stroke="#aaa" stroke-opacity="0.5" stroke-width="0.5"></path><path d="M113.8954 110.83L306.8555 147.1952" fill="none" stroke="#aaa" stroke-opacity="0.5" stroke-width="0.5"></path><path d="M254.6282 209.8147L175.3784 216.6973" fill="none" stroke="#aaa" stroke-opacity="0.5" stroke-width="0.5"></path><path d="M162.8708 36.9008L263.0269 106.2006" fill="none" stroke="#aaa" stroke-opacity="0.5" stroke-width="0.5"></path><path d="M162.8708 36.9008L253.4406 32.6309" fill="none" stroke="#aaa" stroke-opacity="0.5" stroke-width="0.5"></path><path d="M142.8247 193.496L152.4263 133.7027" fill="none" stroke="#aaa" stroke-opacity="0.5" stroke-width="0.5"></path><path d="M253.4406 32.6309L306.8555 147.1952" fill="none" stroke="#aaa" stroke-opacity="0.5" stroke-width="0.5"></path><path d="M204.9284 26.3523L290.0659 188.7228" fill="none" stroke="#aaa" stroke-opacity="0.5" stroke-width="0.5"></path><path d="M254.6282 209.8147L287.9162 62.7124" fill="none" stroke="#aaa" stroke-opacity="0.5" stroke-width="0.5"></path><path d="M162.8708 36.9008L175.3784 216.6973" fill="none" stroke="#aaa" stroke-opacity="0.5" stroke-width="0.5"></path><path d="M142.8247 193.496L217.9743 221.4259" fill="none" stroke="#aaa" stroke-opacity="0.5" stroke-width="0.5"></path><path d="M263.0269 106.2006L113.8954 110.83" fill="none" stroke="#aaa" stroke-opacity="0.5" stroke-width="0.5"></path><path d="M173.1219 79.9162L113.8954 110.83" fill="none" stroke="#aaa" stroke-opacity="0.5" stroke-width="0.5"></path><path d="M116.2056 160.1846L152.4263 133.7027" fill="none" stroke="#aaa" stroke-opacity="0.5" stroke-width="0.5"></path><path d="M162.8708 36.9008L287.9162 62.7124" fill="none" stroke="#aaa" stroke-opacity="0.5" stroke-width="0.5"></path><path d="M308.7794 103.2683L113.8954 110.83" fill="none" stroke="#aaa" stroke-opacity="0.5" stroke-width="0.5"></path><path d="M175.3784 216.6973L306.8555 147.1952" fill="none" stroke="#aaa" stroke-opacity="0.5" stroke-width="0.5"></path><path d="M217.9743 221.4259L152.4263 133.7027" fill="none" stroke="#aaa" stroke-opacity="0.5" stroke-width="0.5"></path><path d="M175.3784 216.6973L116.2056 160.1846" fill="none" stroke="#aaa" stroke-opacity="0.5" stroke-width="0.5"></path><path d="M204.9284 26.3523L306.8555 147.1952" fill="none" stroke="#aaa" stroke-opacity="0.5" stroke-width="0.5"></path><path d="M162.8708 36.9008L254.6282 209.8147" fill="none" stroke="#aaa" stroke-opacity="0.5" stroke-width="0.5"></path><path d="M204.9284 26.3523L116.2056 160.1846" fill="none" stroke="#aaa" stroke-opacity="0.5" stroke-width="0.5"></path><path d="M287.9162 62.7124L306.8555 147.1952" fill="none" stroke="#aaa" stroke-opacity="0.5" stroke-width="0.5"></path><path d="M263.0269 106.2006L142.8247 193.496" fill="none" stroke="#aaa" stroke-opacity="0.5" stroke-width="0.5"></path><path d="M227.9911 67.8811L253.1298 157.6449" fill="none" stroke="#aaa" stroke-opacity="0.5" stroke-width="0.5"></path><path d="M205.161 123.3746L113.8954 110.83" fill="none" stroke="#aaa" stroke-opacity="0.5" stroke-width="0.5"></path><path d="M308.7794 103.2683L142.8247 193.496" fill="none" stroke="#aaa" stroke-opacity="0.5" stroke-width="0.5"></path><path d="M254.6282 209.8147L227.9911 67.8811" fill="none" stroke="#aaa" stroke-opacity="0.5" stroke-width="0.5"></path><path d="M175.3784 216.6973L205.161 123.3746" fill="none" stroke="#aaa" stroke-opacity="0.5" stroke-width="0.5"></path><path d="M127.4819 71.2415L195.5413 174.8072" fill="none" stroke="#aaa" stroke-opacity="0.5" stroke-width="0.5"></path><path d="M162.8708 36.9008L227.9911 67.8811" fill="none" stroke="#aaa" stroke-opacity="0.5" stroke-width="0.5"></path><path d="M205.5 26.3523L205.5 123.3746" fill="none" stroke="#aaa" stroke-opacity="0.5" stroke-width="0.5"></path><path d="M175.3784 216.6973L113.8954 110.83" fill="none" stroke="#aaa" stroke-opacity="0.5" stroke-width="0.5"></path><path d="M263.0269 106.2006L127.4819 71.2415" fill="none" stroke="#aaa" stroke-opacity="0.5" stroke-width="0.5"></path><path d="M113.8954 110.83L253.1298 157.6449" fill="none" stroke="#aaa" stroke-opacity="0.5" stroke-width="0.5"></path><path d="M308.7794 103.2683L127.4819 71.2415" fill="none" stroke="#aaa" stroke-opacity="0.5" stroke-width="0.5"></path><path d="M127.4819 71.2415L253.4406 32.6309" fill="none" stroke="#aaa" stroke-opacity="0.5" stroke-width="0.5"></path><path d="M253.4406 32.6309L253.1298 157.6449" fill="none" stroke="#aaa" stroke-opacity="0.5" stroke-width="0.5"></path><path d="M152.4263 133.7027L306.8555 147.1952" fill="none" stroke="#aaa" stroke-opacity="0.5" stroke-width="0.5"></path><path d="M290.0659 188.7228L306.8555 147.1952" fill="none" stroke="#aaa" stroke-opacity="0.5" stroke-width="0.5"></path><path d="M127.4819 71.2415L175.3784 216.6973" fill="none" stroke="#aaa" stroke-opacity="0.5" stroke-width="0.5"></path><path d="M287.9162 62.7124L113.8954 110.83" fill="none" stroke="#aaa" stroke-opacity="0.5" stroke-width="0.5"></path><path d="M113.8954 110.83L217.9743 221.4259" fill="none" stroke="#aaa" stroke-opacity="0.5" stroke-width="0.5"></path><path d="M204.9284 26.3523L173.1219 79.9162" fill="none" stroke="#aaa" stroke-opacity="0.5" stroke-width="0.5"></path><path d="M127.4819 71.2415L287.9162 62.7124" fill="none" stroke="#aaa" stroke-opacity="0.5" stroke-width="0.5"></path><path d="M175.3784 216.6973L253.1298 157.6449" fill="none" stroke="#aaa" stroke-opacity="0.5" stroke-width="0.5"></path><path d="M263.0269 106.2006L204.9284 26.3523" fill="none" stroke="#aaa" stroke-opacity="0.5" stroke-width="0.5"></path><path d="M127.4819 71.2415L290.0659 188.7228" fill="none" stroke="#aaa" stroke-opacity="0.5" stroke-width="0.5"></path><path d="M254.6282 209.8147L113.8954 110.83" fill="none" stroke="#aaa" stroke-opacity="0.5" stroke-width="0.5"></path><path d="M227.9911 67.8811L253.4406 32.6309" fill="none" stroke="#aaa" stroke-opacity="0.5" stroke-width="0.5"></path><path d="M308.7794 103.2683L204.9284 26.3523" fill="none" stroke="#aaa" stroke-opacity="0.5" stroke-width="0.5"></path><path d="M308.7794 103.2683L263.0269 106.2006" fill="none" stroke="#aaa" stroke-opacity="0.5" stroke-width="0.5"></path><path d="M195.5413 174.8072L306.8555 147.1952" fill="none" stroke="#aaa" stroke-opacity="0.5" stroke-width="0.5"></path><path d="M204.9284 26.3523L253.1298 157.6449" fill="none" stroke="#aaa" stroke-opacity="0.5" stroke-width="0.5"></path><path d="M175.3784 216.6973L217.9743 221.4259" fill="none" stroke="#aaa" stroke-opacity="0.5" stroke-width="0.5"></path><path d="M142.8247 193.496L306.8555 147.1952" fill="none" stroke="#aaa" stroke-opacity="0.5" stroke-width="0.5"></path><path d="M173.1219 79.9162L287.9162 62.7124" fill="none" stroke="#aaa" stroke-opacity="0.5" stroke-width="0.5"></path><path d="M263.0269 106.2006L290.0659 188.7228" fill="none" stroke="#aaa" stroke-opacity="0.5" stroke-width="0.5"></path><path d="M254.6282 209.8147L152.4263 133.7027" fill="none" stroke="#aaa" stroke-opacity="0.5" stroke-width="0.5"></path><path d="M290.0659 188.7228L205.161 123.3746" fill="none" stroke="#aaa" stroke-opacity="0.5" stroke-width="0.5"></path><path d="M287.9162 62.7124L253.1298 157.6449" fill="none" stroke="#aaa" stroke-opacity="0.5" stroke-width="0.5"></path><path d="M308.7794 103.2683L287.9162 62.7124" fill="none" stroke="#aaa" stroke-opacity="0.5" stroke-width="0.5"></path><path d="M204.9284 26.3523L217.9743 221.4259" fill="none" stroke="#aaa" stroke-opacity="0.5" stroke-width="0.5"></path><path d="M142.8247 193.496L116.2056 160.1846" fill="none" stroke="#aaa" stroke-opacity="0.5" stroke-width="0.5"></path><path d="M116.2056 160.1846L306.8555 147.1952" fill="none" stroke="#aaa" stroke-opacity="0.5" stroke-width="0.5"></path><path d="M308.7794 103.2683L290.0659 188.7228" fill="none" stroke="#aaa" stroke-opacity="0.5" stroke-width="0.5"></path><path d="M175.3784 216.6973L195.5413 174.8072" fill="none" stroke="#aaa" stroke-opacity="0.5" stroke-width="0.5"></path><path d="M162.8708 36.9008L152.4263 133.7027" fill="none" stroke="#aaa" stroke-opacity="0.5" stroke-width="0.5"></path><path d="M290.0659 188.7228L113.8954 110.83" fill="none" stroke="#aaa" stroke-opacity="0.5" stroke-width="0.5"></path><path d="M254.6282 209.8147L142.8247 193.496" fill="none" stroke="#aaa" stroke-opacity="0.5" stroke-width="0.5"></path><path d="M113.8954 110.83L253.4406 32.6309" fill="none" stroke="#aaa" stroke-opacity="0.5" stroke-width="0.5"></path><path d="M127.4819 71.2415L116.2056 160.1846" fill="none" stroke="#aaa" stroke-opacity="0.5" stroke-width="0.5"></path><path d="M162.8708 36.9008L308.7794 103.2683" fill="none" stroke="#aaa" stroke-opacity="0.5" stroke-width="0.5"></path><path d="M217.9743 221.4259L306.8555 147.1952" fill="none" stroke="#aaa" stroke-opacity="0.5" stroke-width="0.5"></path><path d="M205.161 123.3746L253.4406 32.6309" fill="none" stroke="#aaa" stroke-opacity="0.5" stroke-width="0.5"></path><path d="M204.9284 26.3523L195.5413 174.8072" fill="none" stroke="#aaa" stroke-opacity="0.5" stroke-width="0.5"></path><path d="M162.8708 36.9008L142.8247 193.496" fill="none" stroke="#aaa" stroke-opacity="0.5" stroke-width="0.5"></path><path d="M263.0269 106.2006L306.8555 147.1952" fill="none" stroke="#aaa" stroke-opacity="0.5" stroke-width="0.5"></path><path d="M127.4819 71.2415L227.9911 67.8811" fill="none" stroke="#aaa" stroke-opacity="0.5" stroke-width="0.5"></path><path d="M173.1219 79.9162L306.8555 147.1952" fill="none" stroke="#aaa" stroke-opacity="0.5" stroke-width="0.5"></path><path d="M142.8247 193.496L205.161 123.3746" fill="none" stroke="#aaa" stroke-opacity="0.5" stroke-width="0.5"></path><path d="M308.7794 103.2683L306.8555 147.1952" fill="none" stroke="#aaa" stroke-opacity="0.5" stroke-width="0.5"></path><path d="M287.9162 62.7124L195.5413 174.8072" fill="none" stroke="#aaa" stroke-opacity="0.5" stroke-width="0.5"></path><path d="M263.0269 106.2006L116.2056 160.1846" fill="none" stroke="#aaa" stroke-opacity="0.5" stroke-width="0.5"></path><path d="M205.161 123.3746L287.9162 62.7124" fill="none" stroke="#aaa" stroke-opacity="0.5" stroke-width="0.5"></path><path d="M175.3784 216.6973L253.4406 32.6309" fill="none" stroke="#aaa" stroke-opacity="0.5" stroke-width="0.5"></path><path d="M142.8247 193.496L113.8954 110.83" fill="none" stroke="#aaa" stroke-opacity="0.5" stroke-width="0.5"></path><path d="M254.6282 209.8147L127.4819 71.2415" fill="none" stroke="#aaa" stroke-opacity="0.5" stroke-width="0.5"></path><path d="M253.1298 157.6449L306.8555 147.1952" fill="none" stroke="#aaa" stroke-opacity="0.5" stroke-width="0.5"></path><path d="M116.2056 160.1846L205.161 123.3746" fill="none" stroke="#aaa" stroke-opacity="0.5" stroke-width="0.5"></path><path d="M308.7794 103.2683L116.2056 160.1846" fill="none" stroke="#aaa" stroke-opacity="0.5" stroke-width="0.5"></path><path d="M152.4263 133.7027L253.1298 157.6449" fill="none" stroke="#aaa" stroke-opacity="0.5" stroke-width="0.5"></path><path d="M290.0659 188.7228L253.1298 157.6449" fill="none" stroke="#aaa" stroke-opacity="0.5" stroke-width="0.5"></path><path d="M204.9284 26.3523L253.4406 32.6309" fill="none" stroke="#aaa" stroke-opacity="0.5" stroke-width="0.5"></path><path d="M162.8708 36.9008L127.4819 71.2415" fill="none" stroke="#aaa" stroke-opacity="0.5" stroke-width="0.5"></path><path d="M175.3784 216.6973L287.9162 62.7124" fill="none" stroke="#aaa" stroke-opacity="0.5" stroke-width="0.5"></path><path d="M116.2056 160.1846L113.8954 110.83" fill="none" stroke="#aaa" stroke-opacity="0.5" stroke-width="0.5"></path><path d="M204.9284 26.3523L175.3784 216.6973" fill="none" stroke="#aaa" stroke-opacity="0.5" stroke-width="0.5"></path><path d="M175.3784 216.6973L290.0659 188.7228" fill="none" stroke="#aaa" stroke-opacity="0.5" stroke-width="0.5"></path><path d="M263.0269 106.2006L205.161 123.3746" fill="none" stroke="#aaa" stroke-opacity="0.5" stroke-width="0.5"></path><path d="M287.9162 62.7124L253.4406 32.6309" fill="none" stroke="#aaa" stroke-opacity="0.5" stroke-width="0.5"></path><path d="M204.9284 26.3523L287.9162 62.7124" fill="none" stroke="#aaa" stroke-opacity="0.5" stroke-width="0.5"></path><path d="M205.161 123.3746L306.8555 147.1952" fill="none" stroke="#aaa" stroke-opacity="0.5" stroke-width="0.5"></path><path d="M308.7794 103.2683L205.161 123.3746" fill="none" stroke="#aaa" stroke-opacity="0.5" stroke-width="0.5"></path><path d="M195.5413 174.8072L253.1298 157.6449" fill="none" stroke="#aaa" stroke-opacity="0.5" stroke-width="0.5"></path><path d="M127.4819 71.2415L173.1219 79.9162" fill="none" stroke="#aaa" stroke-opacity="0.5" stroke-width="0.5"></path><path d="M1 0A1 1 0 1 1 1 -0.0001" fill="#5470c6" transform="matrix(18,0,0,18,306.8555,147.1952)"></path><path d="M1 0A1 1 0 1 1 1 -0.0001" fill="#5470c6" transform="matrix(18,0,0,18,253.1298,157.6449)"></path><path d="M1 0A1 1 0 1 1 1 -0.0001" fill="#5470c6" transform="matrix(18,0,0,18,290.0659,188.7228)"></path><path d="M1 0A1 1 0 1 1 1 -0.0001" fill="#5470c6" transform="matrix(18,0,0,18,254.6282,209.8147)"></path><path d="M1 0A1 1 0 1 1 1 -0.0001" fill="#5470c6" transform="matrix(18,0,0,18,195.5413,174.8072)"></path><path d="M1 0A1 1 0 1 1 1 -0.0001" fill="#5470c6" transform="matrix(18,0,0,18,217.9743,221.4259)"></path><path d="M1 0A1 1 0 1 1 1 -0.0001" fill="#5470c6" transform="matrix(18,0,0,18,152.4263,133.7027)"></path><path d="M1 0A1 1 0 1 1 1 -0.0001" fill="#5470c6" transform="matrix(18,0,0,18,175.3784,216.6973)"></path><path d="M1 0A1 1 0 1 1 1 -0.0001" fill="#5470c6" transform="matrix(18,0,0,18,142.8247,193.496)"></path><path d="M1 0A1 1 0 1 1 1 -0.0001" fill="#5470c6" transform="matrix(18,0,0,18,116.2056,160.1846)"></path><path d="M1 0A1 1 0 1 1 1 -0.0001" fill="#5470c6" transform="matrix(18,0,0,18,113.8954,110.83)"></path><path d="M1 0A1 1 0 1 1 1 -0.0001" fill="#5470c6" transform="matrix(18,0,0,18,173.1219,79.9162)"></path><path d="M1 0A1 1 0 1 1 1 -0.0001" fill="#5470c6" transform="matrix(18,0,0,18,127.4819,71.2415)"></path><path d="M1 0A1 1 0 1 1 1 -0.0001" fill="#5470c6" transform="matrix(18,0,0,18,227.9911,67.8811)"></path><path d="M1 0A1 1 0 1 1 1 -0.0001" fill="#5470c6" transform="matrix(18,0,0,18,162.8708,36.9008)"></path><path d="M1 0A1 1 0 1 1 1 -0.0001" fill="#5470c6" transform="matrix(18,0,0,18,204.9284,26.3523)"></path><path d="M1 0A1 1 0 1 1 1 -0.0001" fill="#5470c6" transform="matrix(18,0,0,18,253.4406,32.6309)"></path><path d="M1 0A1 1 0 1 1 1 -0.0001" fill="#5470c6" transform="matrix(18,0,0,18,205.161,123.3746)"></path><path d="M1 0A1 1 0 1 1 1 -0.0001" fill="#5470c6" transform="matrix(18,0,0,18,287.9162,62.7124)"></path><path d="M1 0A1 1 0 1 1 1 -0.0001" fill="#5470c6" transform="matrix(18,0,0,18,263.0269,106.2006)"></path><path d="M1 0A1 1 0 1 1 1 -0.0001" fill="#5470c6" transform="matrix(18,0,0,18,308.7794,103.2683)"></path><path d="M-25.1792 -5l50.3584 0l0 32l-50.3584 0Z" fill="rgb(0,0,0)" fill-opacity="0" stroke="#ccc" stroke-width="0" transform="translate(237.5 5)"></path><text dominant-baseline="central" fill="#333" style="font-size:22px;font-family:sans-serif;font-weight:bolder;" text-anchor="middle" transform="translate(237.5 5)" y="11">C20</text></g></svg>