<svg baseprofile="full" height="250" style="position:absolute;left:0;top:0;user-select:none" version="1.1" width="475" xmlns="http://www.w3.org/2000/svg" xmlns:xlink="http://www.w3.org/1999/xlink"><rect fill="none" height="250" id="0" width="475" x="0" y="0"></rect><g><path d="M252.4141 124.9414L299.9562 162.6344" fill="none" stroke="#aaa" stroke-opacity="0.5" stroke-width="0.5"></path><path d="M151.8513 56.4262L125.7255 168.8597" fill="none" stroke="#aaa" stroke-opacity="0.5" stroke-width="0.5"></path><path d="M229.4014 30.1907L125.7255 168.8597" fill="none" stroke="#aaa" stroke-opacity="0.5" stroke-width="0.5"></path><path d="M151.8513 56.4262L113.5627 126.2056" fill="none" stroke="#aaa" stroke-opacity="0.5" stroke-width="0.5"></path><path d="M310.1195 119.2834L125.7255 168.8597" fill="none" stroke="#aaa" stroke-opacity="0.5" stroke-width="0.5"></path><path d="M151.8513 56.4262L252.4141 124.9414" fill="none" stroke="#aaa" stroke-opacity="0.5" stroke-width="0.5"></path><path d="M189.5729 220.8083L152.6408 200.75" fill="none" stroke="#aaa" stroke-opacity="0.5" stroke-width="0.5"></path><path d="M252.4141 124.9414L217.388 167.8753" fill="none" stroke="#aaa" stroke-opacity="0.5" stroke-width="0.5"></path><path d="M151.8513 56.4262L171.257 131.1627" fill="none" stroke="#aaa" stroke-opacity="0.5" stroke-width="0.5"></path><path d="M229.4014 30.1907L171.257 131.1627" fill="none" stroke="#aaa" stroke-opacity="0.5" stroke-width="0.5"></path><path d="M252.4141 124.9414L266.3926 48.0456" fill="none" stroke="#aaa" stroke-opacity="0.5" stroke-width="0.5"></path><path d="M299.9562 162.6344L171.257 131.1627" fill="none" stroke="#aaa" stroke-opacity="0.5" stroke-width="0.5"></path><path d="M310.1195 119.2834L171.257 131.1627" fill="none" stroke="#aaa" stroke-opacity="0.5" stroke-width="0.5"></path><path d="M125.7255 168.8597L209.8003 85.5549" fill="none" stroke="#aaa" stroke-opacity="0.5" stroke-width="0.5"></path><path d="M217.388 167.8753L171.257 131.1627" fill="none" stroke="#aaa" stroke-opacity="0.5" stroke-width="0.5"></path><path d="M113.5627 126.2056L171.257 131.1627" fill="none" stroke="#aaa" stroke-opacity="0.5" stroke-width="0.5"></path><path d="M217.388 167.8753L299.9562 162.6344" fill="none" stroke="#aaa" stroke-opacity="0.5" stroke-width="0.5"></path><path d="M183.5549 28.4933L294.5333 77.9789" fill="none" stroke="#aaa" stroke-opacity="0.5" stroke-width="0.5"></path><path d="M266.3926 48.0456L209.8003 85.5549" fill="none" stroke="#aaa" stroke-opacity="0.5" stroke-width="0.5"></path><path d="M274.4619 198.174L113.5627 126.2056" fill="none" stroke="#aaa" stroke-opacity="0.5" stroke-width="0.5"></path><path d="M235.7673 219.1318L209.8003 85.5549" fill="none" stroke="#aaa" stroke-opacity="0.5" stroke-width="0.5"></path><path d="M274.4619 198.174L252.4141 124.9414" fill="none" stroke="#aaa" stroke-opacity="0.5" stroke-width="0.5"></path><path d="M274.4619 198.174L217.388 167.8753" fill="none" stroke="#aaa" stroke-opacity="0.5" stroke-width="0.5"></path><path d="M274.4619 198.174L171.257 131.1627" fill="none" stroke="#aaa" stroke-opacity="0.5" stroke-width="0.5"></path><path d="M183.5549 28.4933L152.6408 200.75" fill="none" stroke="#aaa" stroke-opacity="0.5" stroke-width="0.5"></path><path d="M125.7255 168.8597L152.6408 200.75" fill="none" stroke="#aaa" stroke-opacity="0.5" stroke-width="0.5"></path><path d="M274.4619 198.174L266.3926 48.0456" fill="none" stroke="#aaa" stroke-opacity="0.5" stroke-width="0.5"></path><path d="M121.866 83.4839L299.9562 162.6344" fill="none" stroke="#aaa" stroke-opacity="0.5" stroke-width="0.5"></path><path d="M209.8003 85.5549L152.6408 200.75" fill="none" stroke="#aaa" stroke-opacity="0.5" stroke-width="0.5"></path><path d="M252.4141 124.9414L209.8003 85.5549" fill="none" stroke="#aaa" stroke-opacity="0.5" stroke-width="0.5"></path><path d="M294.5333 77.9789L171.257 131.1627" fill="none" stroke="#aaa" stroke-opacity="0.5" stroke-width="0.5"></path><path d="M125.7255 168.8597L189.5729 220.8083" fill="none" stroke="#aaa" stroke-opacity="0.5" stroke-width="0.5"></path><path d="M294.5333 77.9789L299.9562 162.6344" fill="none" stroke="#aaa" stroke-opacity="0.5" stroke-width="0.5"></path><path d="M266.3926 48.0456L152.6408 200.75" fill="none" stroke="#aaa" stroke-opacity="0.5" stroke-width="0.5"></path><path d="M235.7673 219.1318L152.6408 200.75" fill="none" stroke="#aaa" stroke-opacity="0.5" stroke-width="0.5"></path><path d="M235.7673 219.1318L274.4619 198.174" fill="none" stroke="#aaa" stroke-opacity="0.5" stroke-width="0.5"></path><path d="M151.8513 56.4262L294.5333 77.9789" fill="none" stroke="#aaa" stroke-opacity="0.5" stroke-width="0.5"></path><path d="M266.3926 48.0456L189.5729 220.8083" fill="none" stroke="#aaa" stroke-opacity="0.5" stroke-width="0.5"></path><path d="M121.866 83.4839L217.388 167.8753" fill="none" stroke="#aaa" stroke-opacity="0.5" stroke-width="0.5"></path><path d="M229.4014 30.1907L151.8513 56.4262" fill="none" stroke="#aaa" stroke-opacity="0.5" stroke-width="0.5"></path><path d="M121.866 83.4839L266.3926 48.0456" fill="none" stroke="#aaa" stroke-opacity="0.5" stroke-width="0.5"></path><path d="M235.7673 219.1318L189.5729 220.8083" fill="none" stroke="#aaa" stroke-opacity="0.5" stroke-width="0.5"></path><path d="M229.4014 30.1907L209.8003 85.5549" fill="none" stroke="#aaa" stroke-opacity="0.5" stroke-width="0.5"></path><path d="M310.1195 119.2834L151.8513 56.4262" fill="none" stroke="#aaa" stroke-opacity="0.5" stroke-width="0.5"></path><path d="M252.4141 124.9414L152.6408 200.75" fill="none" stroke="#aaa" stroke-opacity="0.5" stroke-width="0.5"></path><path d="M310.1195 119.2834L209.8003 85.5549" fill="none" stroke="#aaa" stroke-opacity="0.5" stroke-width="0.5"></path><path d="M252.4141 124.9414L189.5729 220.8083" fill="none" stroke="#aaa" stroke-opacity="0.5" stroke-width="0.5"></path><path d="M217.388 167.8753L209.8003 85.5549" fill="none" stroke="#aaa" stroke-opacity="0.5" stroke-width="0.5"></path><path d="M113.5627 126.2056L209.8003 85.5549" fill="none" stroke="#aaa" stroke-opacity="0.5" stroke-width="0.5"></path><path d="M189.5729 220.8083L171.257 131.1627" fill="none" stroke="#aaa" stroke-opacity="0.5" stroke-width="0.5"></path><path d="M189.5729 220.8083L299.9562 162.6344" fill="none" stroke="#aaa" stroke-opacity="0.5" stroke-width="0.5"></path><path d="M274.4619 198.174L294.5333 77.9789" fill="none" stroke="#aaa" stroke-opacity="0.5" stroke-width="0.5"></path><path d="M229.4014 30.1907L121.866 83.4839" fill="none" stroke="#aaa" stroke-opacity="0.5" stroke-width="0.5"></path><path d="M252.4141 124.9414L183.5549 28.4933" fill="none" stroke="#aaa" stroke-opacity="0.5" stroke-width="0.5"></path><path d="M171.257 131.1627L152.6408 200.75" fill="none" stroke="#aaa" stroke-opacity="0.5" stroke-width="0.5"></path><path d="M121.866 83.4839L209.8003 85.5549" fill="none" stroke="#aaa" stroke-opacity="0.5" stroke-width="0.5"></path><path d="M274.4619 198.174L152.6408 200.75" fill="none" stroke="#aaa" stroke-opacity="0.5" stroke-width="0.5"></path><path d="M294.5333 77.9789L209.8003 85.5549" fill="none" stroke="#aaa" stroke-opacity="0.5" stroke-width="0.5"></path><path d="M125.7255 168.8597L113.5627 126.2056" fill="none" stroke="#aaa" stroke-opacity="0.5" stroke-width="0.5"></path><path d="M125.7255 168.8597L252.4141 124.9414" fill="none" stroke="#aaa" stroke-opacity="0.5" stroke-width="0.5"></path><path d="M125.7255 168.8597L217.388 167.8753" fill="none" stroke="#aaa" stroke-opacity="0.5" stroke-width="0.5"></path><path d="M125.7255 168.8597L171.257 131.1627" fill="none" stroke="#aaa" stroke-opacity="0.5" stroke-width="0.5"></path><path d="M121.866 83.4839L152.6408 200.75" fill="none" stroke="#aaa" stroke-opacity="0.5" stroke-width="0.5"></path><path d="M183.5549 28.4933L299.9562 162.6344" fill="none" stroke="#aaa" stroke-opacity="0.5" stroke-width="0.5"></path><path d="M266.3926 48.0456L113.5627 126.2056" fill="none" stroke="#aaa" stroke-opacity="0.5" stroke-width="0.5"></path><path d="M121.866 83.4839L274.4619 198.174" fill="none" stroke="#aaa" stroke-opacity="0.5" stroke-width="0.5"></path><path d="M235.7673 219.1318L113.5627 126.2056" fill="none" stroke="#aaa" stroke-opacity="0.5" stroke-width="0.5"></path><path d="M209.8003 85.5549L299.9562 162.6344" fill="none" stroke="#aaa" stroke-opacity="0.5" stroke-width="0.5"></path><path d="M121.866 83.4839L189.5729 220.8083" fill="none" stroke="#aaa" stroke-opacity="0.5" stroke-width="0.5"></path><path d="M274.4619 198.174L183.5549 28.4933" fill="none" stroke="#aaa" stroke-opacity="0.5" stroke-width="0.5"></path><path d="M266.3926 48.0456L171.257 131.1627" fill="none" stroke="#aaa" stroke-opacity="0.5" stroke-width="0.5"></path><path d="M235.7673 219.1318L252.4141 124.9414" fill="none" stroke="#aaa" stroke-opacity="0.5" stroke-width="0.5"></path><path d="M235.7673 219.1318L217.388 167.8753" fill="none" stroke="#aaa" stroke-opacity="0.5" stroke-width="0.5"></path><path d="M235.7673 219.1318L171.257 131.1627" fill="none" stroke="#aaa" stroke-opacity="0.5" stroke-width="0.5"></path><path d="M235.7673 219.1318L266.3926 48.0456" fill="none" stroke="#aaa" stroke-opacity="0.5" stroke-width="0.5"></path><path d="M252.4141 124.9414L113.5627 126.2056" fill="none" stroke="#aaa" stroke-opacity="0.5" stroke-width="0.5"></path><path d="M252.4141 124.9414L171.257 131.1627" fill="none" stroke="#aaa" stroke-opacity="0.5" stroke-width="0.5"></path><path d="M121.866 83.4839L183.5549 28.4933" fill="none" stroke="#aaa" stroke-opacity="0.5" stroke-width="0.5"></path><path d="M151.8513 56.4262L299.9562 162.6344" fill="none" stroke="#aaa" stroke-opacity="0.5" stroke-width="0.5"></path><path d="M229.4014 30.1907L299.9562 162.6344" fill="none" stroke="#aaa" stroke-opacity="0.5" stroke-width="0.5"></path><path d="M229.4014 30.1907L113.5627 126.2056" fill="none" stroke="#aaa" stroke-opacity="0.5" stroke-width="0.5"></path><path d="M310.1195 119.2834L299.9562 162.6344" fill="none" stroke="#aaa" stroke-opacity="0.5" stroke-width="0.5"></path><path d="M310.1195 119.2834L113.5627 126.2056" fill="none" stroke="#aaa" stroke-opacity="0.5" stroke-width="0.5"></path><path d="M229.4014 30.1907L252.4141 124.9414" fill="none" stroke="#aaa" stroke-opacity="0.5" stroke-width="0.5"></path><path d="M151.8513 56.4262L217.388 167.8753" fill="none" stroke="#aaa" stroke-opacity="0.5" stroke-width="0.5"></path><path d="M235.7673 219.1318L310.1195 119.2834" fill="none" stroke="#aaa" stroke-opacity="0.5" stroke-width="0.5"></path><path d="M229.4014 30.1907L217.388 167.8753" fill="none" stroke="#aaa" stroke-opacity="0.5" stroke-width="0.5"></path><path d="M151.8513 56.4262L266.3926 48.0456" fill="none" stroke="#aaa" stroke-opacity="0.5" stroke-width="0.5"></path><path d="M229.4014 30.1907L266.3926 48.0456" fill="none" stroke="#aaa" stroke-opacity="0.5" stroke-width="0.5"></path><path d="M274.4619 198.174L125.7255 168.8597" fill="none" stroke="#aaa" stroke-opacity="0.5" stroke-width="0.5"></path><path d="M235.7673 219.1318L229.4014 30.1907" fill="none" stroke="#aaa" stroke-opacity="0.5" stroke-width="0.5"></path><path d="M125.7255 168.8597L294.5333 77.9789" fill="none" stroke="#aaa" stroke-opacity="0.5" stroke-width="0.5"></path><path d="M310.1195 119.2834L252.4141 124.9414" fill="none" stroke="#aaa" stroke-opacity="0.5" stroke-width="0.5"></path><path d="M113.5627 126.2056L299.9562 162.6344" fill="none" stroke="#aaa" stroke-opacity="0.5" stroke-width="0.5"></path><path d="M310.1195 119.2834L217.388 167.8753" fill="none" stroke="#aaa" stroke-opacity="0.5" stroke-width="0.5"></path><path d="M310.1195 119.2834L266.3926 48.0456" fill="none" stroke="#aaa" stroke-opacity="0.5" stroke-width="0.5"></path><path d="M217.388 167.8753L113.5627 126.2056" fill="none" stroke="#aaa" stroke-opacity="0.5" stroke-width="0.5"></path><path d="M183.5549 28.4933L209.8003 85.5549" fill="none" stroke="#aaa" stroke-opacity="0.5" stroke-width="0.5"></path><path d="M266.3926 48.0456L294.5333 77.9789" fill="none" stroke="#aaa" stroke-opacity="0.5" stroke-width="0.5"></path><path d="M235.7673 219.1318L294.5333 77.9789" fill="none" stroke="#aaa" stroke-opacity="0.5" stroke-width="0.5"></path><path d="M274.4619 198.174L299.9562 162.6344" fill="none" stroke="#aaa" stroke-opacity="0.5" stroke-width="0.5"></path><path d="M235.7673 219.1318L151.8513 56.4262" fill="none" stroke="#aaa" stroke-opacity="0.5" stroke-width="0.5"></path><path d="M217.388 167.8753L266.3926 48.0456" fill="none" stroke="#aaa" stroke-opacity="0.5" stroke-width="0.5"></path><path d="M121.866 83.4839L125.7255 168.8597" fill="none" stroke="#aaa" stroke-opacity="0.5" stroke-width="0.5"></path><path d="M121.866 83.4839L113.5627 126.2056" fill="none" stroke="#aaa" stroke-opacity="0.5" stroke-width="0.5"></path><path d="M229.4014 30.1907L310.1195 119.2834" fill="none" stroke="#aaa" stroke-opacity="0.5" stroke-width="0.5"></path><path d="M252.4141 124.9414L294.5333 77.9789" fill="none" stroke="#aaa" stroke-opacity="0.5" stroke-width="0.5"></path><path d="M121.866 83.4839L252.4141 124.9414" fill="none" stroke="#aaa" stroke-opacity="0.5" stroke-width="0.5"></path><path d="M121.866 83.4839L171.257 131.1627" fill="none" stroke="#aaa" stroke-opacity="0.5" stroke-width="0.5"></path><path d="M151.8513 56.4262L209.8003 85.5549" fill="none" stroke="#aaa" stroke-opacity="0.5" stroke-width="0.5"></path><path d="M183.5549 28.4933L189.5729 220.8083" fill="none" stroke="#aaa" stroke-opacity="0.5" stroke-width="0.5"></path><path d="M125.7255 168.8597L183.5549 28.4933" fill="none" stroke="#aaa" stroke-opacity="0.5" stroke-width="0.5"></path><path d="M209.8003 85.5549L189.5729 220.8083" fill="none" stroke="#aaa" stroke-opacity="0.5" stroke-width="0.5"></path><path d="M229.4014 30.1907L294.5333 77.9789" fill="none" stroke="#aaa" stroke-opacity="0.5" stroke-width="0.5"></path><path d="M235.7673 219.1318L121.866 83.4839" fill="none" stroke="#aaa" stroke-opacity="0.5" stroke-width="0.5"></path><path d="M310.1195 119.2834L294.5333 77.9789" fill="none" stroke="#aaa" stroke-opacity="0.5" stroke-width="0.5"></path><path d="M235.7673 219.1318L183.5549 28.4933" fill="none" stroke="#aaa" stroke-opacity="0.5" stroke-width="0.5"></path><path d="M151.8513 56.4262L152.6408 200.75" fill="none" stroke="#aaa" stroke-opacity="0.5" stroke-width="0.5"></path><path d="M229.4014 30.1907L152.6408 200.75" fill="none" stroke="#aaa" stroke-opacity="0.5" stroke-width="0.5"></path><path d="M229.4014 30.1907L274.4619 198.174" fill="none" stroke="#aaa" stroke-opacity="0.5" stroke-width="0.5"></path><path d="M121.866 83.4839L310.1195 119.2834" fill="none" stroke="#aaa" stroke-opacity="0.5" stroke-width="0.5"></path><path d="M217.388 167.8753L294.5333 77.9789" fill="none" stroke="#aaa" stroke-opacity="0.5" stroke-width="0.5"></path><path d="M299.9562 162.6344L152.6408 200.75" fill="none" stroke="#aaa" stroke-opacity="0.5" stroke-width="0.5"></path><path d="M274.4619 198.174L151.8513 56.4262" fill="none" stroke="#aaa" stroke-opacity="0.5" stroke-width="0.5"></path><path d="M310.1195 119.2834L152.6408 200.75" fill="none" stroke="#aaa" stroke-opacity="0.5" stroke-width="0.5"></path><path d="M151.8513 56.4262L189.5729 220.8083" fill="none" stroke="#aaa" stroke-opacity="0.5" stroke-width="0.5"></path><path d="M113.5627 126.2056L294.5333 77.9789" fill="none" stroke="#aaa" stroke-opacity="0.5" stroke-width="0.5"></path><path d="M229.4014 30.1907L189.5729 220.8083" fill="none" stroke="#aaa" stroke-opacity="0.5" stroke-width="0.5"></path><path d="M310.1195 119.2834L274.4619 198.174" fill="none" stroke="#aaa" stroke-opacity="0.5" stroke-width="0.5"></path><path d="M274.4619 198.174L209.8003 85.5549" fill="none" stroke="#aaa" stroke-opacity="0.5" stroke-width="0.5"></path><path d="M310.1195 119.2834L189.5729 220.8083" fill="none" stroke="#aaa" stroke-opacity="0.5" stroke-width="0.5"></path><path d="M217.388 167.8753L152.6408 200.75" fill="none" stroke="#aaa" stroke-opacity="0.5" stroke-width="0.5"></path><path d="M113.5627 126.2056L152.6408 200.75" fill="none" stroke="#aaa" stroke-opacity="0.5" stroke-width="0.5"></path><path d="M121.866 83.4839L294.5333 77.9789" fill="none" stroke="#aaa" stroke-opacity="0.5" stroke-width="0.5"></path><path d="M121.866 83.4839L151.8513 56.4262" fill="none" stroke="#aaa" stroke-opacity="0.5" stroke-width="0.5"></path><path d="M217.388 167.8753L189.5729 220.8083" fill="none" stroke="#aaa" stroke-opacity="0.5" stroke-width="0.5"></path><path d="M151.8513 56.4262L183.5549 28.4933" fill="none" stroke="#aaa" stroke-opacity="0.5" stroke-width="0.5"></path><path d="M113.5627 126.2056L189.5729 220.8083" fill="none" stroke="#aaa" stroke-opacity="0.5" stroke-width="0.5"></path><path d="M229.4014 30.1907L183.5549 28.4933" fill="none" stroke="#aaa" stroke-opacity="0.5" stroke-width="0.5"></path><path d="M310.1195 119.2834L183.5549 28.4933" fill="none" stroke="#aaa" stroke-opacity="0.5" stroke-width="0.5"></path><path d="M235.7673 219.1318L125.7255 168.8597" fill="none" stroke="#aaa" stroke-opacity="0.5" stroke-width="0.5"></path><path d="M125.7255 168.8597L299.9562 162.6344" fill="none" stroke="#aaa" stroke-opacity="0.5" stroke-width="0.5"></path><path d="M274.4619 198.174L189.5729 220.8083" fill="none" stroke="#aaa" stroke-opacity="0.5" stroke-width="0.5"></path><path d="M294.5333 77.9789L152.6408 200.75" fill="none" stroke="#aaa" stroke-opacity="0.5" stroke-width="0.5"></path><path d="M183.5549 28.4933L113.5627 126.2056" fill="none" stroke="#aaa" stroke-opacity="0.5" stroke-width="0.5"></path><path d="M217.388 167.8753L183.5549 28.4933" fill="none" stroke="#aaa" stroke-opacity="0.5" stroke-width="0.5"></path><path d="M294.5333 77.9789L189.5729 220.8083" fill="none" stroke="#aaa" stroke-opacity="0.5" stroke-width="0.5"></path><path d="M266.3926 48.0456L299.9562 162.6344" fill="none" stroke="#aaa" stroke-opacity="0.5" stroke-width="0.5"></path><path d="M235.7673 219.1318L299.9562 162.6344" fill="none" stroke="#aaa" stroke-opacity="0.5" stroke-width="0.5"></path><path d="M183.5549 28.4933L171.257 131.1627" fill="none" stroke="#aaa" stroke-opacity="0.5" stroke-width="0.5"></path><path d="M183.5549 28.4933L266.3926 48.0456" fill="none" stroke="#aaa" stroke-opacity="0.5" stroke-width="0.5"></path><path d="M125.7255 168.8597L266.3926 48.0456" fill="none" stroke="#aaa" stroke-opacity="0.5" stroke-width="0.5"></path><path d="M209.8003 85.5549L171.257 131.1627" fill="none" stroke="#aaa" stroke-opacity="0.5" stroke-width="0.5"></path><path d="M1 0A1 1 0 1 1 1 -0.0001" fill="#5470c6" transform="matrix(18,0,0,18,299.9562,162.6344)"></path><path d="M1 0A1 1 0 1 1 1 -0.0001" fill="#5470c6" transform="matrix(18,0,0,18,274.4619,198.174)"></path><path d="M1 0A1 1 0 1 1 1 -0.0001" fill="#5470c6" transform="matrix(18,0,0,18,252.4141,124.9414)"></path><path d="M1 0A1 1 0 1 1 1 -0.0001" fill="#5470c6" transform="matrix(18,0,0,18,235.7673,219.1318)"></path><path d="M1 0A1 1 0 1 1 1 -0.0001" fill="#5470c6" transform="matrix(18,0,0,18,189.5729,220.8083)"></path><path d="M1 0A1 1 0 1 1 1 -0.0001" fill="#5470c6" transform="matrix(18,0,0,18,152.6408,200.75)"></path><path d="M1 0A1 1 0 1 1 1 -0.0001" fill="#5470c6" transform="matrix(18,0,0,18,217.388,167.8753)"></path><path d="M1 0A1 1 0 1 1 1 -0.0001" fill="#5470c6" transform="matrix(18,0,0,18,125.7255,168.8597)"></path><path d="M1 0A1 1 0 1 1 1 -0.0001" fill="#5470c6" transform="matrix(18,0,0,18,113.5627,126.2056)"></path><path d="M1 0A1 1 0 1 1 1 -0.0001" fill="#5470c6" transform="matrix(18,0,0,18,171.257,131.1627)"></path><path d="M1 0A1 1 0 1 1 1 -0.0001" fill="#5470c6" transform="matrix(18,0,0,18,121.866,83.4839)"></path><path d="M1 0A1 1 0 1 1 1 -0.0001" fill="#5470c6" transform="matrix(18,0,0,18,151.8513,56.4262)"></path><path d="M1 0A1 1 0 1 1 1 -0.0001" fill="#5470c6" transform="matrix(18,0,0,18,183.5549,28.4933)"></path><path d="M1 0A1 1 0 1 1 1 -0.0001" fill="#5470c6" transform="matrix(18,0,0,18,229.4014,30.1907)"></path><path d="M1 0A1 1 0 1 1 1 -0.0001" fill="#5470c6" transform="matrix(18,0,0,18,266.3926,48.0456)"></path><path d="M1 0A1 1 0 1 1 1 -0.0001" fill="#5470c6" transform="matrix(18,0,0,18,209.8003,85.5549)"></path><path d="M1 0A1 1 0 1 1 1 -0.0001" fill="#5470c6" transform="matrix(18,0,0,18,294.5333,77.9789)"></path><path d="M1 0A1 1 0 1 1 1 -0.0001" fill="#5470c6" transform="matrix(18,0,0,18,310.1195,119.2834)"></path><path d="M-32.4922 -5l64.9844 0l0 33l-64.9844 0Z" fill="rgb(0,0,0)" fill-opacity="0" stroke="#ccc" stroke-width="0" transform="translate(237.5 5)"></path><text dominant-baseline="central" fill="#333" style="font-size:23px;font-family:sans-serif;font-weight:bolder;" text-anchor="middle" transform="translate(237.5 5)" y="11.5">C200</text></g></svg>