<svg baseprofile="full" height="250" style="position:absolute;left:0;top:0;user-select:none" version="1.1" width="475" xmlns="http://www.w3.org/2000/svg" xmlns:xlink="http://www.w3.org/1999/xlink"><rect fill="none" height="250" id="0" width="475" x="0" y="0"></rect><g><path d="M111.0558 136.4452L293.3231 179.1525" fill="none" stroke="#aaa" stroke-opacity="0.5" stroke-width="0.5"></path><path d="M119.5697 86.4907L187.2769 27.9079" fill="none" stroke="#aaa" stroke-opacity="0.5" stroke-width="0.5"></path><path d="M167.8179 125.9432L274.7919 53.2074" fill="none" stroke="#aaa" stroke-opacity="0.5" stroke-width="0.5"></path><path d="M213.7189 225.2334L119.5697 86.4907" fill="none" stroke="#aaa" stroke-opacity="0.5" stroke-width="0.5"></path><path d="M236.201 28.9682L274.7919 53.2074" fill="none" stroke="#aaa" stroke-opacity="0.5" stroke-width="0.5"></path><path d="M293.3231 179.1525L163.4106 212.8847" fill="none" stroke="#aaa" stroke-opacity="0.5" stroke-width="0.5"></path><path d="M148.1385 52.9009L119.5697 86.4907" fill="none" stroke="#aaa" stroke-opacity="0.5" stroke-width="0.5"></path><path d="M131.9138 180.2621L163.4106 212.8847" fill="none" stroke="#aaa" stroke-opacity="0.5" stroke-width="0.5"></path><path d="M111.0558 136.4452L236.201 28.9682" fill="none" stroke="#aaa" stroke-opacity="0.5" stroke-width="0.5"></path><path d="M208.2827 171.2478L250.6175 128.8196" fill="none" stroke="#aaa" stroke-opacity="0.5" stroke-width="0.5"></path><path d="M250.6175 128.8196L187.2769 27.9079" fill="none" stroke="#aaa" stroke-opacity="0.5" stroke-width="0.5"></path><path d="M211.6772 84.1277L208.2827 171.2478" fill="none" stroke="#aaa" stroke-opacity="0.5" stroke-width="0.5"></path><path d="M250.6175 128.8196L308.3262 134.3591" fill="none" stroke="#aaa" stroke-opacity="0.5" stroke-width="0.5"></path><path d="M167.8179 125.9432L163.4106 212.8847" fill="none" stroke="#aaa" stroke-opacity="0.5" stroke-width="0.5"></path><path d="M211.6772 84.1277L250.6175 128.8196" fill="none" stroke="#aaa" stroke-opacity="0.5" stroke-width="0.5"></path><path d="M208.2827 171.2478L187.2769 27.9079" fill="none" stroke="#aaa" stroke-opacity="0.5" stroke-width="0.5"></path><path d="M211.6772 84.1277L213.7189 225.2334" fill="none" stroke="#aaa" stroke-opacity="0.5" stroke-width="0.5"></path><path d="M236.201 28.9682L163.4106 212.8847" fill="none" stroke="#aaa" stroke-opacity="0.5" stroke-width="0.5"></path><path d="M208.2827 171.2478L308.3262 134.3591" fill="none" stroke="#aaa" stroke-opacity="0.5" stroke-width="0.5"></path><path d="M213.7189 225.2334L236.201 28.9682" fill="none" stroke="#aaa" stroke-opacity="0.5" stroke-width="0.5"></path><path d="M211.6772 84.1277L187.2769 27.9079" fill="none" stroke="#aaa" stroke-opacity="0.5" stroke-width="0.5"></path><path d="M211.6772 84.1277L308.3262 134.3591" fill="none" stroke="#aaa" stroke-opacity="0.5" stroke-width="0.5"></path><path d="M260.1836 209.0724L208.2827 171.2478" fill="none" stroke="#aaa" stroke-opacity="0.5" stroke-width="0.5"></path><path d="M187.2769 27.9079L236.201 28.9682" fill="none" stroke="#aaa" stroke-opacity="0.5" stroke-width="0.5"></path><path d="M148.1385 52.9009L302.8345 87.9772" fill="none" stroke="#aaa" stroke-opacity="0.5" stroke-width="0.5"></path><path d="M302.8345 87.9772L274.7919 53.2074" fill="none" stroke="#aaa" stroke-opacity="0.5" stroke-width="0.5"></path><path d="M131.9138 180.2621L208.2827 171.2478" fill="none" stroke="#aaa" stroke-opacity="0.5" stroke-width="0.5"></path><path d="M260.1836 209.0724L250.6175 128.8196" fill="none" stroke="#aaa" stroke-opacity="0.5" stroke-width="0.5"></path><path d="M119.5697 86.4907L302.8345 87.9772" fill="none" stroke="#aaa" stroke-opacity="0.5" stroke-width="0.5"></path><path d="M131.9138 180.2621L250.6175 128.8196" fill="none" stroke="#aaa" stroke-opacity="0.5" stroke-width="0.5"></path><path d="M211.6772 84.1277L293.3231 179.1525" fill="none" stroke="#aaa" stroke-opacity="0.5" stroke-width="0.5"></path><path d="M131.9138 180.2621L213.7189 225.2334" fill="none" stroke="#aaa" stroke-opacity="0.5" stroke-width="0.5"></path><path d="M167.8179 125.9432L208.2827 171.2478" fill="none" stroke="#aaa" stroke-opacity="0.5" stroke-width="0.5"></path><path d="M250.6175 128.8196L236.201 28.9682" fill="none" stroke="#aaa" stroke-opacity="0.5" stroke-width="0.5"></path><path d="M260.1836 209.0724L187.2769 27.9079" fill="none" stroke="#aaa" stroke-opacity="0.5" stroke-width="0.5"></path><path d="M111.0558 136.4452L260.1836 209.0724" fill="none" stroke="#aaa" stroke-opacity="0.5" stroke-width="0.5"></path><path d="M148.1385 53.5L274.7919 53.5" fill="none" stroke="#aaa" stroke-opacity="0.5" stroke-width="0.5"></path><path d="M293.3231 179.1525L119.5697 86.4907" fill="none" stroke="#aaa" stroke-opacity="0.5" stroke-width="0.5"></path><path d="M260.1836 209.0724L308.3262 134.3591" fill="none" stroke="#aaa" stroke-opacity="0.5" stroke-width="0.5"></path><path d="M131.9138 180.2621L187.2769 27.9079" fill="none" stroke="#aaa" stroke-opacity="0.5" stroke-width="0.5"></path><path d="M167.8179 125.9432L250.6175 128.8196" fill="none" stroke="#aaa" stroke-opacity="0.5" stroke-width="0.5"></path><path d="M131.9138 180.2621L308.3262 134.3591" fill="none" stroke="#aaa" stroke-opacity="0.5" stroke-width="0.5"></path><path d="M119.5697 86.4907L274.7919 53.2074" fill="none" stroke="#aaa" stroke-opacity="0.5" stroke-width="0.5"></path><path d="M167.8179 125.9432L213.7189 225.2334" fill="none" stroke="#aaa" stroke-opacity="0.5" stroke-width="0.5"></path><path d="M208.2827 171.2478L236.201 28.9682" fill="none" stroke="#aaa" stroke-opacity="0.5" stroke-width="0.5"></path><path d="M167.8179 125.9432L187.2769 27.9079" fill="none" stroke="#aaa" stroke-opacity="0.5" stroke-width="0.5"></path><path d="M163.4106 212.8847L274.7919 53.2074" fill="none" stroke="#aaa" stroke-opacity="0.5" stroke-width="0.5"></path><path d="M131.9138 180.2621L211.6772 84.1277" fill="none" stroke="#aaa" stroke-opacity="0.5" stroke-width="0.5"></path><path d="M211.6772 84.1277L236.201 28.9682" fill="none" stroke="#aaa" stroke-opacity="0.5" stroke-width="0.5"></path><path d="M260.1836 209.0724L293.3231 179.1525" fill="none" stroke="#aaa" stroke-opacity="0.5" stroke-width="0.5"></path><path d="M167.8179 125.9432L308.3262 134.3591" fill="none" stroke="#aaa" stroke-opacity="0.5" stroke-width="0.5"></path><path d="M131.9138 180.2621L293.3231 179.1525" fill="none" stroke="#aaa" stroke-opacity="0.5" stroke-width="0.5"></path><path d="M211.6772 84.1277L111.0558 136.4452" fill="none" stroke="#aaa" stroke-opacity="0.5" stroke-width="0.5"></path><path d="M111.0558 136.4452L148.1385 52.9009" fill="none" stroke="#aaa" stroke-opacity="0.5" stroke-width="0.5"></path><path d="M236.201 28.9682L308.3262 134.3591" fill="none" stroke="#aaa" stroke-opacity="0.5" stroke-width="0.5"></path><path d="M148.1385 52.9009L163.4106 212.8847" fill="none" stroke="#aaa" stroke-opacity="0.5" stroke-width="0.5"></path><path d="M167.8179 125.9432L293.3231 179.1525" fill="none" stroke="#aaa" stroke-opacity="0.5" stroke-width="0.5"></path><path d="M119.5697 86.4907L163.4106 212.8847" fill="none" stroke="#aaa" stroke-opacity="0.5" stroke-width="0.5"></path><path d="M293.3231 179.1525L236.201 28.9682" fill="none" stroke="#aaa" stroke-opacity="0.5" stroke-width="0.5"></path><path d="M111.0558 136.4452L250.6175 128.8196" fill="none" stroke="#aaa" stroke-opacity="0.5" stroke-width="0.5"></path><path d="M293.3231 179.1525L302.8345 87.9772" fill="none" stroke="#aaa" stroke-opacity="0.5" stroke-width="0.5"></path><path d="M131.9138 180.2621L236.201 28.9682" fill="none" stroke="#aaa" stroke-opacity="0.5" stroke-width="0.5"></path><path d="M111.0558 136.4452L187.2769 27.9079" fill="none" stroke="#aaa" stroke-opacity="0.5" stroke-width="0.5"></path><path d="M131.9138 180.2621L111.0558 136.4452" fill="none" stroke="#aaa" stroke-opacity="0.5" stroke-width="0.5"></path><path d="M213.7189 225.2334L208.2827 171.2478" fill="none" stroke="#aaa" stroke-opacity="0.5" stroke-width="0.5"></path><path d="M167.8179 125.9432L236.201 28.9682" fill="none" stroke="#aaa" stroke-opacity="0.5" stroke-width="0.5"></path><path d="M213.7189 225.2334L250.6175 128.8196" fill="none" stroke="#aaa" stroke-opacity="0.5" stroke-width="0.5"></path><path d="M148.1385 52.9009L208.2827 171.2478" fill="none" stroke="#aaa" stroke-opacity="0.5" stroke-width="0.5"></path><path d="M211.6772 84.1277L260.1836 209.0724" fill="none" stroke="#aaa" stroke-opacity="0.5" stroke-width="0.5"></path><path d="M148.1385 52.9009L250.6175 128.8196" fill="none" stroke="#aaa" stroke-opacity="0.5" stroke-width="0.5"></path><path d="M111.0558 136.4452L119.5697 86.4907" fill="none" stroke="#aaa" stroke-opacity="0.5" stroke-width="0.5"></path><path d="M213.7189 225.2334L187.2769 27.9079" fill="none" stroke="#aaa" stroke-opacity="0.5" stroke-width="0.5"></path><path d="M148.1385 52.9009L213.7189 225.2334" fill="none" stroke="#aaa" stroke-opacity="0.5" stroke-width="0.5"></path><path d="M260.1836 209.0724L274.7919 53.2074" fill="none" stroke="#aaa" stroke-opacity="0.5" stroke-width="0.5"></path><path d="M119.5697 86.4907L250.6175 128.8196" fill="none" stroke="#aaa" stroke-opacity="0.5" stroke-width="0.5"></path><path d="M213.7189 225.2334L308.3262 134.3591" fill="none" stroke="#aaa" stroke-opacity="0.5" stroke-width="0.5"></path><path d="M148.1385 52.9009L187.2769 27.9079" fill="none" stroke="#aaa" stroke-opacity="0.5" stroke-width="0.5"></path><path d="M148.1385 52.9009L308.3262 134.3591" fill="none" stroke="#aaa" stroke-opacity="0.5" stroke-width="0.5"></path><path d="M187.2769 27.9079L308.3262 134.3591" fill="none" stroke="#aaa" stroke-opacity="0.5" stroke-width="0.5"></path><path d="M308.3262 134.3591L302.8345 87.9772" fill="none" stroke="#aaa" stroke-opacity="0.5" stroke-width="0.5"></path><path d="M111.0558 136.4452L167.8179 125.9432" fill="none" stroke="#aaa" stroke-opacity="0.5" stroke-width="0.5"></path><path d="M119.5697 86.4907L308.3262 134.3591" fill="none" stroke="#aaa" stroke-opacity="0.5" stroke-width="0.5"></path><path d="M213.7189 225.2334L293.3231 179.1525" fill="none" stroke="#aaa" stroke-opacity="0.5" stroke-width="0.5"></path><path d="M211.6772 84.1277L148.1385 52.9009" fill="none" stroke="#aaa" stroke-opacity="0.5" stroke-width="0.5"></path><path d="M131.9138 180.2621L260.1836 209.0724" fill="none" stroke="#aaa" stroke-opacity="0.5" stroke-width="0.5"></path><path d="M148.1385 52.9009L293.3231 179.1525" fill="none" stroke="#aaa" stroke-opacity="0.5" stroke-width="0.5"></path><path d="M260.1836 209.0724L163.4106 212.8847" fill="none" stroke="#aaa" stroke-opacity="0.5" stroke-width="0.5"></path><path d="M308.3262 134.3591L274.7919 53.2074" fill="none" stroke="#aaa" stroke-opacity="0.5" stroke-width="0.5"></path><path d="M167.8179 125.9432L260.1836 209.0724" fill="none" stroke="#aaa" stroke-opacity="0.5" stroke-width="0.5"></path><path d="M111.0558 136.4452L302.8345 87.9772" fill="none" stroke="#aaa" stroke-opacity="0.5" stroke-width="0.5"></path><path d="M293.3231 179.1525L208.2827 171.2478" fill="none" stroke="#aaa" stroke-opacity="0.5" stroke-width="0.5"></path><path d="M131.9138 180.2621L148.1385 52.9009" fill="none" stroke="#aaa" stroke-opacity="0.5" stroke-width="0.5"></path><path d="M148.1385 52.9009L236.201 28.9682" fill="none" stroke="#aaa" stroke-opacity="0.5" stroke-width="0.5"></path><path d="M293.3231 179.1525L250.6175 128.8196" fill="none" stroke="#aaa" stroke-opacity="0.5" stroke-width="0.5"></path><path d="M111.0558 136.4452L274.7919 53.2074" fill="none" stroke="#aaa" stroke-opacity="0.5" stroke-width="0.5"></path><path d="M119.5697 86.4907L236.201 28.9682" fill="none" stroke="#aaa" stroke-opacity="0.5" stroke-width="0.5"></path><path d="M208.2827 171.2478L119.5697 86.4907" fill="none" stroke="#aaa" stroke-opacity="0.5" stroke-width="0.5"></path><path d="M167.8179 125.9432L148.1385 52.9009" fill="none" stroke="#aaa" stroke-opacity="0.5" stroke-width="0.5"></path><path d="M213.7189 225.2334L302.8345 87.9772" fill="none" stroke="#aaa" stroke-opacity="0.5" stroke-width="0.5"></path><path d="M308.3262 134.3591L163.4106 212.8847" fill="none" stroke="#aaa" stroke-opacity="0.5" stroke-width="0.5"></path><path d="M293.3231 179.1525L187.2769 27.9079" fill="none" stroke="#aaa" stroke-opacity="0.5" stroke-width="0.5"></path><path d="M211.6772 84.1277L119.5697 86.4907" fill="none" stroke="#aaa" stroke-opacity="0.5" stroke-width="0.5"></path><path d="M163.4106 212.8847L302.8345 87.9772" fill="none" stroke="#aaa" stroke-opacity="0.5" stroke-width="0.5"></path><path d="M187.2769 27.9079L302.8345 87.9772" fill="none" stroke="#aaa" stroke-opacity="0.5" stroke-width="0.5"></path><path d="M293.3231 179.1525L308.3262 134.3591" fill="none" stroke="#aaa" stroke-opacity="0.5" stroke-width="0.5"></path><path d="M213.7189 225.2334L274.7919 53.2074" fill="none" stroke="#aaa" stroke-opacity="0.5" stroke-width="0.5"></path><path d="M211.6772 84.1277L167.8179 125.9432" fill="none" stroke="#aaa" stroke-opacity="0.5" stroke-width="0.5"></path><path d="M111.0558 136.4452L163.4106 212.8847" fill="none" stroke="#aaa" stroke-opacity="0.5" stroke-width="0.5"></path><path d="M250.6175 128.8196L302.8345 87.9772" fill="none" stroke="#aaa" stroke-opacity="0.5" stroke-width="0.5"></path><path d="M187.2769 27.9079L274.7919 53.2074" fill="none" stroke="#aaa" stroke-opacity="0.5" stroke-width="0.5"></path><path d="M260.1836 209.0724L119.5697 86.4907" fill="none" stroke="#aaa" stroke-opacity="0.5" stroke-width="0.5"></path><path d="M213.7189 225.2334L260.1836 209.0724" fill="none" stroke="#aaa" stroke-opacity="0.5" stroke-width="0.5"></path><path d="M131.9138 180.2621L119.5697 86.4907" fill="none" stroke="#aaa" stroke-opacity="0.5" stroke-width="0.5"></path><path d="M208.2827 171.2478L302.8345 87.9772" fill="none" stroke="#aaa" stroke-opacity="0.5" stroke-width="0.5"></path><path d="M148.1385 52.9009L260.1836 209.0724" fill="none" stroke="#aaa" stroke-opacity="0.5" stroke-width="0.5"></path><path d="M250.6175 128.8196L274.7919 53.2074" fill="none" stroke="#aaa" stroke-opacity="0.5" stroke-width="0.5"></path><path d="M211.6772 84.1277L302.8345 87.9772" fill="none" stroke="#aaa" stroke-opacity="0.5" stroke-width="0.5"></path><path d="M167.8179 125.9432L119.5697 86.4907" fill="none" stroke="#aaa" stroke-opacity="0.5" stroke-width="0.5"></path><path d="M213.7189 225.2334L163.4106 212.8847" fill="none" stroke="#aaa" stroke-opacity="0.5" stroke-width="0.5"></path><path d="M131.9138 180.2621L167.8179 125.9432" fill="none" stroke="#aaa" stroke-opacity="0.5" stroke-width="0.5"></path><path d="M208.2827 171.2478L274.7919 53.2074" fill="none" stroke="#aaa" stroke-opacity="0.5" stroke-width="0.5"></path><path d="M187.2769 27.9079L163.4106 212.8847" fill="none" stroke="#aaa" stroke-opacity="0.5" stroke-width="0.5"></path><path d="M111.0558 136.4452L208.2827 171.2478" fill="none" stroke="#aaa" stroke-opacity="0.5" stroke-width="0.5"></path><path d="M211.6772 84.1277L274.7919 53.2074" fill="none" stroke="#aaa" stroke-opacity="0.5" stroke-width="0.5"></path><path d="M260.1836 209.0724L236.201 28.9682" fill="none" stroke="#aaa" stroke-opacity="0.5" stroke-width="0.5"></path><path d="M260.1836 209.0724L302.8345 87.9772" fill="none" stroke="#aaa" stroke-opacity="0.5" stroke-width="0.5"></path><path d="M111.0558 136.4452L213.7189 225.2334" fill="none" stroke="#aaa" stroke-opacity="0.5" stroke-width="0.5"></path><path d="M250.6175 128.8196L163.4106 212.8847" fill="none" stroke="#aaa" stroke-opacity="0.5" stroke-width="0.5"></path><path d="M131.9138 180.2621L302.8345 87.9772" fill="none" stroke="#aaa" stroke-opacity="0.5" stroke-width="0.5"></path><path d="M111.0558 136.4452L308.3262 134.3591" fill="none" stroke="#aaa" stroke-opacity="0.5" stroke-width="0.5"></path><path d="M208.2827 171.2478L163.4106 212.8847" fill="none" stroke="#aaa" stroke-opacity="0.5" stroke-width="0.5"></path><path d="M293.3231 179.1525L274.7919 53.2074" fill="none" stroke="#aaa" stroke-opacity="0.5" stroke-width="0.5"></path><path d="M167.8179 125.9432L302.8345 87.9772" fill="none" stroke="#aaa" stroke-opacity="0.5" stroke-width="0.5"></path><path d="M131.9138 180.2621L274.7919 53.2074" fill="none" stroke="#aaa" stroke-opacity="0.5" stroke-width="0.5"></path><path d="M211.6772 84.1277L163.4106 212.8847" fill="none" stroke="#aaa" stroke-opacity="0.5" stroke-width="0.5"></path><path d="M236.201 28.9682L302.8345 87.9772" fill="none" stroke="#aaa" stroke-opacity="0.5" stroke-width="0.5"></path><path d="M1 0A1 1 0 1 1 1 -0.0001" fill="#5470c6" transform="matrix(18,0,0,18,250.6175,128.8196)"></path><path d="M1 0A1 1 0 1 1 1 -0.0001" fill="#5470c6" transform="matrix(18,0,0,18,293.3231,179.1525)"></path><path d="M1 0A1 1 0 1 1 1 -0.0001" fill="#5470c6" transform="matrix(18,0,0,18,260.1836,209.0724)"></path><path d="M1 0A1 1 0 1 1 1 -0.0001" fill="#5470c6" transform="matrix(18,0,0,18,213.7189,225.2334)"></path><path d="M1 0A1 1 0 1 1 1 -0.0001" fill="#5470c6" transform="matrix(18,0,0,18,163.4106,212.8847)"></path><path d="M1 0A1 1 0 1 1 1 -0.0001" fill="#5470c6" transform="matrix(18,0,0,18,208.2827,171.2478)"></path><path d="M1 0A1 1 0 1 1 1 -0.0001" fill="#5470c6" transform="matrix(18,0,0,18,131.9138,180.2621)"></path><path d="M1 0A1 1 0 1 1 1 -0.0001" fill="#5470c6" transform="matrix(18,0,0,18,167.8179,125.9432)"></path><path d="M1 0A1 1 0 1 1 1 -0.0001" fill="#5470c6" transform="matrix(18,0,0,18,111.0558,136.4452)"></path><path d="M1 0A1 1 0 1 1 1 -0.0001" fill="#5470c6" transform="matrix(18,0,0,18,119.5697,86.4907)"></path><path d="M1 0A1 1 0 1 1 1 -0.0001" fill="#5470c6" transform="matrix(18,0,0,18,148.1385,52.9009)"></path><path d="M1 0A1 1 0 1 1 1 -0.0001" fill="#5470c6" transform="matrix(18,0,0,18,211.6772,84.1277)"></path><path d="M1 0A1 1 0 1 1 1 -0.0001" fill="#5470c6" transform="matrix(18,0,0,18,187.2769,27.9079)"></path><path d="M1 0A1 1 0 1 1 1 -0.0001" fill="#5470c6" transform="matrix(18,0,0,18,236.201,28.9682)"></path><path d="M1 0A1 1 0 1 1 1 -0.0001" fill="#5470c6" transform="matrix(18,0,0,18,274.7919,53.2074)"></path><path d="M1 0A1 1 0 1 1 1 -0.0001" fill="#5470c6" transform="matrix(18,0,0,18,302.8345,87.9772)"></path><path d="M1 0A1 1 0 1 1 1 -0.0001" fill="#5470c6" transform="matrix(18,0,0,18,308.3262,134.3591)"></path><path d="M-32.4922 -5l64.9844 0l0 33l-64.9844 0Z" fill="rgb(0,0,0)" fill-opacity="0" stroke="#ccc" stroke-width="0" transform="translate(237.5 5)"></path><text dominant-baseline="central" fill="#333" style="font-size:23px;font-family:sans-serif;font-weight:bolder;" text-anchor="middle" transform="translate(237.5 5)" y="11.5">C201</text></g></svg>