<svg baseprofile="full" height="250" style="position:absolute;left:0;top:0;user-select:none" version="1.1" width="475" xmlns="http://www.w3.org/2000/svg" xmlns:xlink="http://www.w3.org/1999/xlink"><rect fill="none" height="250" id="0" width="475" x="0" y="0"></rect><g><path d="M232.6286 219.2544L256.3834 35.9533" fill="none" stroke="#aaa" stroke-opacity="0.5" stroke-width="0.5"></path><path d="M187.9828 158.2273L274.7327 201.2836" fill="none" stroke="#aaa" stroke-opacity="0.5" stroke-width="0.5"></path><path d="M113.3114 114.3286L274.7327 201.2836" fill="none" stroke="#aaa" stroke-opacity="0.5" stroke-width="0.5"></path><path d="M121.1558 158.4115L232.6286 219.2544" fill="none" stroke="#aaa" stroke-opacity="0.5" stroke-width="0.5"></path><path d="M177.399 99.7763L308.2054 113.4998" fill="none" stroke="#aaa" stroke-opacity="0.5" stroke-width="0.5"></path><path d="M188.5 220.0586L188.5 158.2273" fill="none" stroke="#aaa" stroke-opacity="0.5" stroke-width="0.5"></path><path d="M232.6286 219.2544L128.4701 69.4375" fill="none" stroke="#aaa" stroke-opacity="0.5" stroke-width="0.5"></path><path d="M128.4701 69.4375L293.1368 70.5045" fill="none" stroke="#aaa" stroke-opacity="0.5" stroke-width="0.5"></path><path d="M177.399 99.7763L304.1348 159.923" fill="none" stroke="#aaa" stroke-opacity="0.5" stroke-width="0.5"></path><path d="M209.3092 28.7027L304.1348 159.923" fill="none" stroke="#aaa" stroke-opacity="0.5" stroke-width="0.5"></path><path d="M121.1558 158.4115L237.4619 88.8009" fill="none" stroke="#aaa" stroke-opacity="0.5" stroke-width="0.5"></path><path d="M308.2054 113.4998L293.1368 70.5045" fill="none" stroke="#aaa" stroke-opacity="0.5" stroke-width="0.5"></path><path d="M232.6286 219.2544L144.5488 199.1769" fill="none" stroke="#aaa" stroke-opacity="0.5" stroke-width="0.5"></path><path d="M237.4619 88.8009L187.9706 220.0586" fill="none" stroke="#aaa" stroke-opacity="0.5" stroke-width="0.5"></path><path d="M237.4619 88.8009L293.1368 70.5045" fill="none" stroke="#aaa" stroke-opacity="0.5" stroke-width="0.5"></path><path d="M209.3092 28.7027L128.4701 69.4375" fill="none" stroke="#aaa" stroke-opacity="0.5" stroke-width="0.5"></path><path d="M144.5488 199.1769L304.1348 159.923" fill="none" stroke="#aaa" stroke-opacity="0.5" stroke-width="0.5"></path><path d="M177.399 99.7763L232.6286 219.2544" fill="none" stroke="#aaa" stroke-opacity="0.5" stroke-width="0.5"></path><path d="M246.8497 149.8452L187.9828 158.2273" fill="none" stroke="#aaa" stroke-opacity="0.5" stroke-width="0.5"></path><path d="M187.9706 220.0586L246.8497 149.8452" fill="none" stroke="#aaa" stroke-opacity="0.5" stroke-width="0.5"></path><path d="M187.9828 158.2273L293.1368 70.5045" fill="none" stroke="#aaa" stroke-opacity="0.5" stroke-width="0.5"></path><path d="M144.5488 199.1769L128.4701 69.4375" fill="none" stroke="#aaa" stroke-opacity="0.5" stroke-width="0.5"></path><path d="M113.3114 114.3286L293.1368 70.5045" fill="none" stroke="#aaa" stroke-opacity="0.5" stroke-width="0.5"></path><path d="M121.1558 158.4115L187.9828 158.2273" fill="none" stroke="#aaa" stroke-opacity="0.5" stroke-width="0.5"></path><path d="M232.6286 219.2544L274.7327 201.2836" fill="none" stroke="#aaa" stroke-opacity="0.5" stroke-width="0.5"></path><path d="M177.399 99.7763L237.4619 88.8009" fill="none" stroke="#aaa" stroke-opacity="0.5" stroke-width="0.5"></path><path d="M187.9706 220.0586L165.4588 37.8159" fill="none" stroke="#aaa" stroke-opacity="0.5" stroke-width="0.5"></path><path d="M256.3834 35.9533L165.4588 37.8159" fill="none" stroke="#aaa" stroke-opacity="0.5" stroke-width="0.5"></path><path d="M121.1558 158.4115L113.3114 114.3286" fill="none" stroke="#aaa" stroke-opacity="0.5" stroke-width="0.5"></path><path d="M121.1558 158.4115L246.8497 149.8452" fill="none" stroke="#aaa" stroke-opacity="0.5" stroke-width="0.5"></path><path d="M177.399 99.7763L187.9828 158.2273" fill="none" stroke="#aaa" stroke-opacity="0.5" stroke-width="0.5"></path><path d="M128.4701 69.4375L304.1348 159.923" fill="none" stroke="#aaa" stroke-opacity="0.5" stroke-width="0.5"></path><path d="M209.3092 28.7027L187.9828 158.2273" fill="none" stroke="#aaa" stroke-opacity="0.5" stroke-width="0.5"></path><path d="M246.8497 149.8452L165.4588 37.8159" fill="none" stroke="#aaa" stroke-opacity="0.5" stroke-width="0.5"></path><path d="M237.4619 88.8009L308.2054 113.4998" fill="none" stroke="#aaa" stroke-opacity="0.5" stroke-width="0.5"></path><path d="M232.6286 219.2544L187.9706 220.0586" fill="none" stroke="#aaa" stroke-opacity="0.5" stroke-width="0.5"></path><path d="M232.6286 219.2544L293.1368 70.5045" fill="none" stroke="#aaa" stroke-opacity="0.5" stroke-width="0.5"></path><path d="M121.1558 158.4115L165.4588 37.8159" fill="none" stroke="#aaa" stroke-opacity="0.5" stroke-width="0.5"></path><path d="M308.2054 113.4998L304.1348 159.923" fill="none" stroke="#aaa" stroke-opacity="0.5" stroke-width="0.5"></path><path d="M237.4619 88.8009L209.3092 28.7027" fill="none" stroke="#aaa" stroke-opacity="0.5" stroke-width="0.5"></path><path d="M187.9828 158.2273L308.2054 113.4998" fill="none" stroke="#aaa" stroke-opacity="0.5" stroke-width="0.5"></path><path d="M177.399 99.7763L113.3114 114.3286" fill="none" stroke="#aaa" stroke-opacity="0.5" stroke-width="0.5"></path><path d="M113.3114 114.3286L308.2054 113.4998" fill="none" stroke="#aaa" stroke-opacity="0.5" stroke-width="0.5"></path><path d="M308.2054 113.4998L128.4701 69.4375" fill="none" stroke="#aaa" stroke-opacity="0.5" stroke-width="0.5"></path><path d="M304.1348 159.923L293.1368 70.5045" fill="none" stroke="#aaa" stroke-opacity="0.5" stroke-width="0.5"></path><path d="M177.399 99.7763L246.8497 149.8452" fill="none" stroke="#aaa" stroke-opacity="0.5" stroke-width="0.5"></path><path d="M237.4619 88.8009L256.3834 35.9533" fill="none" stroke="#aaa" stroke-opacity="0.5" stroke-width="0.5"></path><path d="M187.9828 158.2273L304.1348 159.923" fill="none" stroke="#aaa" stroke-opacity="0.5" stroke-width="0.5"></path><path d="M113.3114 114.3286L304.1348 159.923" fill="none" stroke="#aaa" stroke-opacity="0.5" stroke-width="0.5"></path><path d="M177.399 99.7763L165.4588 37.8159" fill="none" stroke="#aaa" stroke-opacity="0.5" stroke-width="0.5"></path><path d="M187.9706 220.0586L304.1348 159.923" fill="none" stroke="#aaa" stroke-opacity="0.5" stroke-width="0.5"></path><path d="M113.3114 114.3286L128.4701 69.4375" fill="none" stroke="#aaa" stroke-opacity="0.5" stroke-width="0.5"></path><path d="M209.3092 28.7027L165.4588 37.8159" fill="none" stroke="#aaa" stroke-opacity="0.5" stroke-width="0.5"></path><path d="M113.3114 114.3286L232.6286 219.2544" fill="none" stroke="#aaa" stroke-opacity="0.5" stroke-width="0.5"></path><path d="M274.7327 201.2836L293.1368 70.5045" fill="none" stroke="#aaa" stroke-opacity="0.5" stroke-width="0.5"></path><path d="M246.8497 149.8452L209.3092 28.7027" fill="none" stroke="#aaa" stroke-opacity="0.5" stroke-width="0.5"></path><path d="M187.9706 220.0586L128.4701 69.4375" fill="none" stroke="#aaa" stroke-opacity="0.5" stroke-width="0.5"></path><path d="M256.3834 35.9533L304.1348 159.923" fill="none" stroke="#aaa" stroke-opacity="0.5" stroke-width="0.5"></path><path d="M144.5488 199.1769L165.4588 37.8159" fill="none" stroke="#aaa" stroke-opacity="0.5" stroke-width="0.5"></path><path d="M121.1558 158.4115L209.3092 28.7027" fill="none" stroke="#aaa" stroke-opacity="0.5" stroke-width="0.5"></path><path d="M246.8497 149.8452L256.3834 35.9533" fill="none" stroke="#aaa" stroke-opacity="0.5" stroke-width="0.5"></path><path d="M232.6286 219.2544L308.2054 113.4998" fill="none" stroke="#aaa" stroke-opacity="0.5" stroke-width="0.5"></path><path d="M256.3834 35.9533L128.4701 69.4375" fill="none" stroke="#aaa" stroke-opacity="0.5" stroke-width="0.5"></path><path d="M187.9706 220.0586L144.5488 199.1769" fill="none" stroke="#aaa" stroke-opacity="0.5" stroke-width="0.5"></path><path d="M113.3114 114.3286L237.4619 88.8009" fill="none" stroke="#aaa" stroke-opacity="0.5" stroke-width="0.5"></path><path d="M121.1558 158.4115L256.3834 35.9533" fill="none" stroke="#aaa" stroke-opacity="0.5" stroke-width="0.5"></path><path d="M232.6286 219.2544L304.1348 159.923" fill="none" stroke="#aaa" stroke-opacity="0.5" stroke-width="0.5"></path><path d="M237.4619 88.8009L187.9828 158.2273" fill="none" stroke="#aaa" stroke-opacity="0.5" stroke-width="0.5"></path><path d="M246.8497 149.8452L128.4701 69.4375" fill="none" stroke="#aaa" stroke-opacity="0.5" stroke-width="0.5"></path><path d="M256.3834 35.9533L144.5488 199.1769" fill="none" stroke="#aaa" stroke-opacity="0.5" stroke-width="0.5"></path><path d="M209.3092 28.7027L308.2054 113.4998" fill="none" stroke="#aaa" stroke-opacity="0.5" stroke-width="0.5"></path><path d="M177.399 99.7763L209.3092 28.7027" fill="none" stroke="#aaa" stroke-opacity="0.5" stroke-width="0.5"></path><path d="M121.1558 158.4115L128.4701 69.4375" fill="none" stroke="#aaa" stroke-opacity="0.5" stroke-width="0.5"></path><path d="M187.9706 220.0586L274.7327 201.2836" fill="none" stroke="#aaa" stroke-opacity="0.5" stroke-width="0.5"></path><path d="M113.3114 114.3286L187.9828 158.2273" fill="none" stroke="#aaa" stroke-opacity="0.5" stroke-width="0.5"></path><path d="M177.399 99.7763L121.1558 158.4115" fill="none" stroke="#aaa" stroke-opacity="0.5" stroke-width="0.5"></path><path d="M246.8497 149.8452L144.5488 199.1769" fill="none" stroke="#aaa" stroke-opacity="0.5" stroke-width="0.5"></path><path d="M177.399 99.7763L256.3834 35.9533" fill="none" stroke="#aaa" stroke-opacity="0.5" stroke-width="0.5"></path><path d="M256.3834 35.9533L274.7327 201.2836" fill="none" stroke="#aaa" stroke-opacity="0.5" stroke-width="0.5"></path><path d="M128.4701 69.4375L165.4588 37.8159" fill="none" stroke="#aaa" stroke-opacity="0.5" stroke-width="0.5"></path><path d="M121.1558 158.4115L144.5488 199.1769" fill="none" stroke="#aaa" stroke-opacity="0.5" stroke-width="0.5"></path><path d="M237.4619 88.8009L246.8497 149.8452" fill="none" stroke="#aaa" stroke-opacity="0.5" stroke-width="0.5"></path><path d="M209.3092 28.7027L256.3834 35.9533" fill="none" stroke="#aaa" stroke-opacity="0.5" stroke-width="0.5"></path><path d="M274.7327 201.2836L304.1348 159.923" fill="none" stroke="#aaa" stroke-opacity="0.5" stroke-width="0.5"></path><path d="M246.8497 149.8452L274.7327 201.2836" fill="none" stroke="#aaa" stroke-opacity="0.5" stroke-width="0.5"></path><path d="M308.2054 113.4998L165.4588 37.8159" fill="none" stroke="#aaa" stroke-opacity="0.5" stroke-width="0.5"></path><path d="M177.399 99.7763L128.4701 69.4375" fill="none" stroke="#aaa" stroke-opacity="0.5" stroke-width="0.5"></path><path d="M113.3114 114.3286L187.9706 220.0586" fill="none" stroke="#aaa" stroke-opacity="0.5" stroke-width="0.5"></path><path d="M237.4619 88.8009L165.4588 37.8159" fill="none" stroke="#aaa" stroke-opacity="0.5" stroke-width="0.5"></path><path d="M113.3114 114.3286L246.8497 149.8452" fill="none" stroke="#aaa" stroke-opacity="0.5" stroke-width="0.5"></path><path d="M121.1558 158.4115L274.7327 201.2836" fill="none" stroke="#aaa" stroke-opacity="0.5" stroke-width="0.5"></path><path d="M187.9706 220.0586L293.1368 70.5045" fill="none" stroke="#aaa" stroke-opacity="0.5" stroke-width="0.5"></path><path d="M177.399 99.7763L144.5488 199.1769" fill="none" stroke="#aaa" stroke-opacity="0.5" stroke-width="0.5"></path><path d="M187.9828 158.2273L165.4588 37.8159" fill="none" stroke="#aaa" stroke-opacity="0.5" stroke-width="0.5"></path><path d="M113.3114 114.3286L165.4588 37.8159" fill="none" stroke="#aaa" stroke-opacity="0.5" stroke-width="0.5"></path><path d="M232.6286 219.2544L187.9828 158.2273" fill="none" stroke="#aaa" stroke-opacity="0.5" stroke-width="0.5"></path><path d="M209.3092 28.7027L144.5488 199.1769" fill="none" stroke="#aaa" stroke-opacity="0.5" stroke-width="0.5"></path><path d="M165.4588 37.8159L304.1348 159.923" fill="none" stroke="#aaa" stroke-opacity="0.5" stroke-width="0.5"></path><path d="M256.3834 35.9533L293.1368 70.5045" fill="none" stroke="#aaa" stroke-opacity="0.5" stroke-width="0.5"></path><path d="M177.399 99.7763L274.7327 201.2836" fill="none" stroke="#aaa" stroke-opacity="0.5" stroke-width="0.5"></path><path d="M209.3092 28.7027L274.7327 201.2836" fill="none" stroke="#aaa" stroke-opacity="0.5" stroke-width="0.5"></path><path d="M246.8497 149.8452L293.1368 70.5045" fill="none" stroke="#aaa" stroke-opacity="0.5" stroke-width="0.5"></path><path d="M121.1558 158.4115L187.9706 220.0586" fill="none" stroke="#aaa" stroke-opacity="0.5" stroke-width="0.5"></path><path d="M232.6286 219.2544L246.8497 149.8452" fill="none" stroke="#aaa" stroke-opacity="0.5" stroke-width="0.5"></path><path d="M121.1558 158.4115L293.1368 70.5045" fill="none" stroke="#aaa" stroke-opacity="0.5" stroke-width="0.5"></path><path d="M144.5488 199.1769L274.7327 201.2836" fill="none" stroke="#aaa" stroke-opacity="0.5" stroke-width="0.5"></path><path d="M308.2054 113.4998L256.3834 35.9533" fill="none" stroke="#aaa" stroke-opacity="0.5" stroke-width="0.5"></path><path d="M232.6286 219.2544L165.4588 37.8159" fill="none" stroke="#aaa" stroke-opacity="0.5" stroke-width="0.5"></path><path d="M113.3114 114.3286L209.3092 28.7027" fill="none" stroke="#aaa" stroke-opacity="0.5" stroke-width="0.5"></path><path d="M237.4619 88.8009L304.1348 159.923" fill="none" stroke="#aaa" stroke-opacity="0.5" stroke-width="0.5"></path><path d="M187.9706 220.0586L308.2054 113.4998" fill="none" stroke="#aaa" stroke-opacity="0.5" stroke-width="0.5"></path><path d="M177.399 99.7763L187.9706 220.0586" fill="none" stroke="#aaa" stroke-opacity="0.5" stroke-width="0.5"></path><path d="M187.9706 220.0586L209.3092 28.7027" fill="none" stroke="#aaa" stroke-opacity="0.5" stroke-width="0.5"></path><path d="M177.399 99.7763L293.1368 70.5045" fill="none" stroke="#aaa" stroke-opacity="0.5" stroke-width="0.5"></path><path d="M187.9828 158.2273L256.3834 35.9533" fill="none" stroke="#aaa" stroke-opacity="0.5" stroke-width="0.5"></path><path d="M237.4619 88.8009L128.4701 69.4375" fill="none" stroke="#aaa" stroke-opacity="0.5" stroke-width="0.5"></path><path d="M113.3114 114.3286L256.3834 35.9533" fill="none" stroke="#aaa" stroke-opacity="0.5" stroke-width="0.5"></path><path d="M209.3092 28.7027L293.1368 70.5045" fill="none" stroke="#aaa" stroke-opacity="0.5" stroke-width="0.5"></path><path d="M237.4619 88.8009L232.6286 219.2544" fill="none" stroke="#aaa" stroke-opacity="0.5" stroke-width="0.5"></path><path d="M187.9706 220.0586L256.3834 35.9533" fill="none" stroke="#aaa" stroke-opacity="0.5" stroke-width="0.5"></path><path d="M308.2054 113.4998L144.5488 199.1769" fill="none" stroke="#aaa" stroke-opacity="0.5" stroke-width="0.5"></path><path d="M187.9828 158.2273L128.4701 69.4375" fill="none" stroke="#aaa" stroke-opacity="0.5" stroke-width="0.5"></path><path d="M144.5488 199.1769L293.1368 70.5045" fill="none" stroke="#aaa" stroke-opacity="0.5" stroke-width="0.5"></path><path d="M237.4619 88.8009L144.5488 199.1769" fill="none" stroke="#aaa" stroke-opacity="0.5" stroke-width="0.5"></path><path d="M128.4701 69.4375L274.7327 201.2836" fill="none" stroke="#aaa" stroke-opacity="0.5" stroke-width="0.5"></path><path d="M246.8497 149.8452L308.2054 113.4998" fill="none" stroke="#aaa" stroke-opacity="0.5" stroke-width="0.5"></path><path d="M274.7327 201.2836L165.4588 37.8159" fill="none" stroke="#aaa" stroke-opacity="0.5" stroke-width="0.5"></path><path d="M121.1558 158.4115L308.2054 113.4998" fill="none" stroke="#aaa" stroke-opacity="0.5" stroke-width="0.5"></path><path d="M246.8497 149.8452L304.1348 159.923" fill="none" stroke="#aaa" stroke-opacity="0.5" stroke-width="0.5"></path><path d="M187.9828 158.2273L144.5488 199.1769" fill="none" stroke="#aaa" stroke-opacity="0.5" stroke-width="0.5"></path><path d="M232.6286 219.2544L209.3092 28.7027" fill="none" stroke="#aaa" stroke-opacity="0.5" stroke-width="0.5"></path><path d="M113.3114 114.3286L144.5488 199.1769" fill="none" stroke="#aaa" stroke-opacity="0.5" stroke-width="0.5"></path><path d="M165.4588 37.8159L293.1368 70.5045" fill="none" stroke="#aaa" stroke-opacity="0.5" stroke-width="0.5"></path><path d="M308.2054 113.4998L274.7327 201.2836" fill="none" stroke="#aaa" stroke-opacity="0.5" stroke-width="0.5"></path><path d="M121.1558 158.4115L304.1348 159.923" fill="none" stroke="#aaa" stroke-opacity="0.5" stroke-width="0.5"></path><path d="M237.4619 88.8009L274.7327 201.2836" fill="none" stroke="#aaa" stroke-opacity="0.5" stroke-width="0.5"></path><path d="M1 0A1 1 0 1 1 1 -0.0001" fill="#5470c6" transform="matrix(18,0,0,18,304.1348,159.923)"></path><path d="M1 0A1 1 0 1 1 1 -0.0001" fill="#5470c6" transform="matrix(18,0,0,18,246.8497,149.8452)"></path><path d="M1 0A1 1 0 1 1 1 -0.0001" fill="#5470c6" transform="matrix(18,0,0,18,274.7327,201.2836)"></path><path d="M1 0A1 1 0 1 1 1 -0.0001" fill="#5470c6" transform="matrix(18,0,0,18,232.6286,219.2544)"></path><path d="M1 0A1 1 0 1 1 1 -0.0001" fill="#5470c6" transform="matrix(18,0,0,18,187.9828,158.2273)"></path><path d="M1 0A1 1 0 1 1 1 -0.0001" fill="#5470c6" transform="matrix(18,0,0,18,187.9706,220.0586)"></path><path d="M1 0A1 1 0 1 1 1 -0.0001" fill="#5470c6" transform="matrix(18,0,0,18,144.5488,199.1769)"></path><path d="M1 0A1 1 0 1 1 1 -0.0001" fill="#5470c6" transform="matrix(18,0,0,18,121.1558,158.4115)"></path><path d="M1 0A1 1 0 1 1 1 -0.0001" fill="#5470c6" transform="matrix(18,0,0,18,113.3114,114.3286)"></path><path d="M1 0A1 1 0 1 1 1 -0.0001" fill="#5470c6" transform="matrix(18,0,0,18,177.399,99.7763)"></path><path d="M1 0A1 1 0 1 1 1 -0.0001" fill="#5470c6" transform="matrix(18,0,0,18,128.4701,69.4375)"></path><path d="M1 0A1 1 0 1 1 1 -0.0001" fill="#5470c6" transform="matrix(18,0,0,18,165.4588,37.8159)"></path><path d="M1 0A1 1 0 1 1 1 -0.0001" fill="#5470c6" transform="matrix(18,0,0,18,209.3092,28.7027)"></path><path d="M1 0A1 1 0 1 1 1 -0.0001" fill="#5470c6" transform="matrix(18,0,0,18,256.3834,35.9533)"></path><path d="M1 0A1 1 0 1 1 1 -0.0001" fill="#5470c6" transform="matrix(18,0,0,18,237.4619,88.8009)"></path><path d="M1 0A1 1 0 1 1 1 -0.0001" fill="#5470c6" transform="matrix(18,0,0,18,293.1368,70.5045)"></path><path d="M1 0A1 1 0 1 1 1 -0.0001" fill="#5470c6" transform="matrix(18,0,0,18,308.2054,113.4998)"></path><path d="M-32.4922 -5l64.9844 0l0 33l-64.9844 0Z" fill="rgb(0,0,0)" fill-opacity="0" stroke="#ccc" stroke-width="0" transform="translate(237.5 5)"></path><text dominant-baseline="central" fill="#333" style="font-size:23px;font-family:sans-serif;font-weight:bolder;" text-anchor="middle" transform="translate(237.5 5)" y="11.5">C202</text></g></svg>