<svg baseprofile="full" height="250" style="position:absolute;left:0;top:0;user-select:none" version="1.1" width="475" xmlns="http://www.w3.org/2000/svg" xmlns:xlink="http://www.w3.org/1999/xlink"><rect fill="none" height="250" id="0" width="475" x="0" y="0"></rect><g><path d="M307.7815 146.9019L238.4217 218.7974" fill="none" stroke="#aaa" stroke-opacity="0.5" stroke-width="0.5"></path><path d="M238.4217 218.7974L132.9465 58.8061" fill="none" stroke="#aaa" stroke-opacity="0.5" stroke-width="0.5"></path><path d="M307.7815 146.9019L132.9465 58.8061" fill="none" stroke="#aaa" stroke-opacity="0.5" stroke-width="0.5"></path><path d="M246.1373 154.497L284.4846 195.3718" fill="none" stroke="#aaa" stroke-opacity="0.5" stroke-width="0.5"></path><path d="M115.9594 157.6493L284.4846 195.3718" fill="none" stroke="#aaa" stroke-opacity="0.5" stroke-width="0.5"></path><path d="M280.7085 49.9155L115.9594 157.6493" fill="none" stroke="#aaa" stroke-opacity="0.5" stroke-width="0.5"></path><path d="M180.9507 29.2609L230.8051 29.0182" fill="none" stroke="#aaa" stroke-opacity="0.5" stroke-width="0.5"></path><path d="M246.1373 154.497L241.9399 92.7595" fill="none" stroke="#aaa" stroke-opacity="0.5" stroke-width="0.5"></path><path d="M115.9594 157.6493L241.9399 92.7595" fill="none" stroke="#aaa" stroke-opacity="0.5" stroke-width="0.5"></path><path d="M181.1264 151.8487L280.7085 49.9155" fill="none" stroke="#aaa" stroke-opacity="0.5" stroke-width="0.5"></path><path d="M132.9465 58.8061L191.3444 219.9304" fill="none" stroke="#aaa" stroke-opacity="0.5" stroke-width="0.5"></path><path d="M238.4217 218.7974L145.5379 201.1352" fill="none" stroke="#aaa" stroke-opacity="0.5" stroke-width="0.5"></path><path d="M307.7815 146.9019L145.5379 201.1352" fill="none" stroke="#aaa" stroke-opacity="0.5" stroke-width="0.5"></path><path d="M145.5379 201.1352L280.7085 49.9155" fill="none" stroke="#aaa" stroke-opacity="0.5" stroke-width="0.5"></path><path d="M180.9507 29.2609L305.9856 96.5322" fill="none" stroke="#aaa" stroke-opacity="0.5" stroke-width="0.5"></path><path d="M180.9507 29.2609L115.9594 157.6493" fill="none" stroke="#aaa" stroke-opacity="0.5" stroke-width="0.5"></path><path d="M246.1373 154.497L230.8051 29.0182" fill="none" stroke="#aaa" stroke-opacity="0.5" stroke-width="0.5"></path><path d="M115.9594 157.6493L230.8051 29.0182" fill="none" stroke="#aaa" stroke-opacity="0.5" stroke-width="0.5"></path><path d="M115.5866 108.4849L178.298 89.0911" fill="none" stroke="#aaa" stroke-opacity="0.5" stroke-width="0.5"></path><path d="M305.9856 96.5322L191.3444 219.9304" fill="none" stroke="#aaa" stroke-opacity="0.5" stroke-width="0.5"></path><path d="M145.5379 201.1352L132.9465 58.8061" fill="none" stroke="#aaa" stroke-opacity="0.5" stroke-width="0.5"></path><path d="M246.1373 154.497L305.9856 96.5322" fill="none" stroke="#aaa" stroke-opacity="0.5" stroke-width="0.5"></path><path d="M132.9465 58.8061L115.5866 108.4849" fill="none" stroke="#aaa" stroke-opacity="0.5" stroke-width="0.5"></path><path d="M246.1373 154.497L115.9594 157.6493" fill="none" stroke="#aaa" stroke-opacity="0.5" stroke-width="0.5"></path><path d="M238.4217 218.7974L178.298 89.0911" fill="none" stroke="#aaa" stroke-opacity="0.5" stroke-width="0.5"></path><path d="M180.9507 29.2609L280.7085 49.9155" fill="none" stroke="#aaa" stroke-opacity="0.5" stroke-width="0.5"></path><path d="M307.7815 146.9019L178.298 89.0911" fill="none" stroke="#aaa" stroke-opacity="0.5" stroke-width="0.5"></path><path d="M181.1264 151.8487L191.3444 219.9304" fill="none" stroke="#aaa" stroke-opacity="0.5" stroke-width="0.5"></path><path d="M238.4217 218.7974L284.4846 195.3718" fill="none" stroke="#aaa" stroke-opacity="0.5" stroke-width="0.5"></path><path d="M115.5866 108.4849L181.1264 151.8487" fill="none" stroke="#aaa" stroke-opacity="0.5" stroke-width="0.5"></path><path d="M307.7815 146.9019L284.4846 195.3718" fill="none" stroke="#aaa" stroke-opacity="0.5" stroke-width="0.5"></path><path d="M238.4217 218.7974L241.9399 92.7595" fill="none" stroke="#aaa" stroke-opacity="0.5" stroke-width="0.5"></path><path d="M307.7815 146.9019L241.9399 92.7595" fill="none" stroke="#aaa" stroke-opacity="0.5" stroke-width="0.5"></path><path d="M180.9507 29.2609L132.9465 58.8061" fill="none" stroke="#aaa" stroke-opacity="0.5" stroke-width="0.5"></path><path d="M145.5379 201.1352L115.5866 108.4849" fill="none" stroke="#aaa" stroke-opacity="0.5" stroke-width="0.5"></path><path d="M181.1264 151.8487L178.298 89.0911" fill="none" stroke="#aaa" stroke-opacity="0.5" stroke-width="0.5"></path><path d="M180.9507 29.2609L145.5379 201.1352" fill="none" stroke="#aaa" stroke-opacity="0.5" stroke-width="0.5"></path><path d="M307.7815 146.9019L230.8051 29.0182" fill="none" stroke="#aaa" stroke-opacity="0.5" stroke-width="0.5"></path><path d="M132.9465 58.8061L181.1264 151.8487" fill="none" stroke="#aaa" stroke-opacity="0.5" stroke-width="0.5"></path><path d="M132.9465 58.8061L115.9594 157.6493" fill="none" stroke="#aaa" stroke-opacity="0.5" stroke-width="0.5"></path><path d="M115.5866 108.4849L280.7085 49.9155" fill="none" stroke="#aaa" stroke-opacity="0.5" stroke-width="0.5"></path><path d="M145.5379 201.1352L178.298 89.0911" fill="none" stroke="#aaa" stroke-opacity="0.5" stroke-width="0.5"></path><path d="M246.1373 154.497L132.9465 58.8061" fill="none" stroke="#aaa" stroke-opacity="0.5" stroke-width="0.5"></path><path d="M181.1264 151.8487L284.4846 195.3718" fill="none" stroke="#aaa" stroke-opacity="0.5" stroke-width="0.5"></path><path d="M305.9856 96.5322L230.8051 29.0182" fill="none" stroke="#aaa" stroke-opacity="0.5" stroke-width="0.5"></path><path d="M181.1264 151.8487L241.9399 92.7595" fill="none" stroke="#aaa" stroke-opacity="0.5" stroke-width="0.5"></path><path d="M145.5379 201.1352L284.4846 195.3718" fill="none" stroke="#aaa" stroke-opacity="0.5" stroke-width="0.5"></path><path d="M307.7815 146.9019L305.9856 96.5322" fill="none" stroke="#aaa" stroke-opacity="0.5" stroke-width="0.5"></path><path d="M280.7085 49.9155L178.298 89.0911" fill="none" stroke="#aaa" stroke-opacity="0.5" stroke-width="0.5"></path><path d="M145.5379 201.1352L241.9399 92.7595" fill="none" stroke="#aaa" stroke-opacity="0.5" stroke-width="0.5"></path><path d="M246.1373 154.497L145.5379 201.1352" fill="none" stroke="#aaa" stroke-opacity="0.5" stroke-width="0.5"></path><path d="M305.9856 96.5322L115.9594 157.6493" fill="none" stroke="#aaa" stroke-opacity="0.5" stroke-width="0.5"></path><path d="M180.9507 29.2609L115.5866 108.4849" fill="none" stroke="#aaa" stroke-opacity="0.5" stroke-width="0.5"></path><path d="M280.7085 49.9155L284.4846 195.3718" fill="none" stroke="#aaa" stroke-opacity="0.5" stroke-width="0.5"></path><path d="M181.1264 151.8487L230.8051 29.0182" fill="none" stroke="#aaa" stroke-opacity="0.5" stroke-width="0.5"></path><path d="M132.9465 58.8061L280.7085 49.9155" fill="none" stroke="#aaa" stroke-opacity="0.5" stroke-width="0.5"></path><path d="M280.7085 49.9155L241.9399 92.7595" fill="none" stroke="#aaa" stroke-opacity="0.5" stroke-width="0.5"></path><path d="M145.5379 201.1352L181.1264 151.8487" fill="none" stroke="#aaa" stroke-opacity="0.5" stroke-width="0.5"></path><path d="M180.9507 29.2609L178.298 89.0911" fill="none" stroke="#aaa" stroke-opacity="0.5" stroke-width="0.5"></path><path d="M181.1264 151.8487L305.9856 96.5322" fill="none" stroke="#aaa" stroke-opacity="0.5" stroke-width="0.5"></path><path d="M246.1373 154.497L115.5866 108.4849" fill="none" stroke="#aaa" stroke-opacity="0.5" stroke-width="0.5"></path><path d="M181.1264 151.8487L115.9594 157.6493" fill="none" stroke="#aaa" stroke-opacity="0.5" stroke-width="0.5"></path><path d="M115.5866 108.4849L191.3444 219.9304" fill="none" stroke="#aaa" stroke-opacity="0.5" stroke-width="0.5"></path><path d="M305.9856 96.5322L280.7085 49.9155" fill="none" stroke="#aaa" stroke-opacity="0.5" stroke-width="0.5"></path><path d="M191.3444 219.9304L178.298 89.0911" fill="none" stroke="#aaa" stroke-opacity="0.5" stroke-width="0.5"></path><path d="M246.1373 154.497L178.298 89.0911" fill="none" stroke="#aaa" stroke-opacity="0.5" stroke-width="0.5"></path><path d="M115.9594 157.6493L178.298 89.0911" fill="none" stroke="#aaa" stroke-opacity="0.5" stroke-width="0.5"></path><path d="M230.8051 29.0182L178.298 89.0911" fill="none" stroke="#aaa" stroke-opacity="0.5" stroke-width="0.5"></path><path d="M191.3444 219.9304L284.4846 195.3718" fill="none" stroke="#aaa" stroke-opacity="0.5" stroke-width="0.5"></path><path d="M238.4217 218.7974L191.3444 219.9304" fill="none" stroke="#aaa" stroke-opacity="0.5" stroke-width="0.5"></path><path d="M181.5 29.2609L181.5 151.8487" fill="none" stroke="#aaa" stroke-opacity="0.5" stroke-width="0.5"></path><path d="M191.3444 219.9304L241.9399 92.7595" fill="none" stroke="#aaa" stroke-opacity="0.5" stroke-width="0.5"></path><path d="M307.7815 146.9019L191.3444 219.9304" fill="none" stroke="#aaa" stroke-opacity="0.5" stroke-width="0.5"></path><path d="M230.8051 29.0182L284.4846 195.3718" fill="none" stroke="#aaa" stroke-opacity="0.5" stroke-width="0.5"></path><path d="M230.8051 29.0182L241.9399 92.7595" fill="none" stroke="#aaa" stroke-opacity="0.5" stroke-width="0.5"></path><path d="M115.5866 108.4849L284.4846 195.3718" fill="none" stroke="#aaa" stroke-opacity="0.5" stroke-width="0.5"></path><path d="M246.1373 154.497L181.1264 151.8487" fill="none" stroke="#aaa" stroke-opacity="0.5" stroke-width="0.5"></path><path d="M191.3444 219.9304L230.8051 29.0182" fill="none" stroke="#aaa" stroke-opacity="0.5" stroke-width="0.5"></path><path d="M115.5866 108.4849L241.9399 92.7595" fill="none" stroke="#aaa" stroke-opacity="0.5" stroke-width="0.5"></path><path d="M238.4217 218.7974L246.1373 154.497" fill="none" stroke="#aaa" stroke-opacity="0.5" stroke-width="0.5"></path><path d="M238.4217 218.7974L115.5866 108.4849" fill="none" stroke="#aaa" stroke-opacity="0.5" stroke-width="0.5"></path><path d="M132.9465 58.8061L178.298 89.0911" fill="none" stroke="#aaa" stroke-opacity="0.5" stroke-width="0.5"></path><path d="M307.7815 146.9019L246.1373 154.497" fill="none" stroke="#aaa" stroke-opacity="0.5" stroke-width="0.5"></path><path d="M307.7815 146.9019L115.5866 108.4849" fill="none" stroke="#aaa" stroke-opacity="0.5" stroke-width="0.5"></path><path d="M191.3444 219.9304L115.9594 157.6493" fill="none" stroke="#aaa" stroke-opacity="0.5" stroke-width="0.5"></path><path d="M145.5379 201.1352L191.3444 219.9304" fill="none" stroke="#aaa" stroke-opacity="0.5" stroke-width="0.5"></path><path d="M115.5866 108.4849L230.8051 29.0182" fill="none" stroke="#aaa" stroke-opacity="0.5" stroke-width="0.5"></path><path d="M132.9465 58.8061L284.4846 195.3718" fill="none" stroke="#aaa" stroke-opacity="0.5" stroke-width="0.5"></path><path d="M180.9507 29.2609L238.4217 218.7974" fill="none" stroke="#aaa" stroke-opacity="0.5" stroke-width="0.5"></path><path d="M132.9465 58.8061L241.9399 92.7595" fill="none" stroke="#aaa" stroke-opacity="0.5" stroke-width="0.5"></path><path d="M246.1373 154.497L280.7085 49.9155" fill="none" stroke="#aaa" stroke-opacity="0.5" stroke-width="0.5"></path><path d="M280.7085 49.9155L191.3444 219.9304" fill="none" stroke="#aaa" stroke-opacity="0.5" stroke-width="0.5"></path><path d="M305.9856 96.5322L178.298 89.0911" fill="none" stroke="#aaa" stroke-opacity="0.5" stroke-width="0.5"></path><path d="M115.5866 108.4849L305.9856 96.5322" fill="none" stroke="#aaa" stroke-opacity="0.5" stroke-width="0.5"></path><path d="M115.5866 108.4849L115.9594 157.6493" fill="none" stroke="#aaa" stroke-opacity="0.5" stroke-width="0.5"></path><path d="M238.4217 218.7974L230.8051 29.0182" fill="none" stroke="#aaa" stroke-opacity="0.5" stroke-width="0.5"></path><path d="M305.9856 96.5322L284.4846 195.3718" fill="none" stroke="#aaa" stroke-opacity="0.5" stroke-width="0.5"></path><path d="M132.9465 58.8061L230.8051 29.0182" fill="none" stroke="#aaa" stroke-opacity="0.5" stroke-width="0.5"></path><path d="M305.9856 96.5322L241.9399 92.7595" fill="none" stroke="#aaa" stroke-opacity="0.5" stroke-width="0.5"></path><path d="M180.9507 29.2609L191.3444 219.9304" fill="none" stroke="#aaa" stroke-opacity="0.5" stroke-width="0.5"></path><path d="M238.4217 218.7974L181.1264 151.8487" fill="none" stroke="#aaa" stroke-opacity="0.5" stroke-width="0.5"></path><path d="M238.4217 218.7974L305.9856 96.5322" fill="none" stroke="#aaa" stroke-opacity="0.5" stroke-width="0.5"></path><path d="M178.298 89.0911L284.4846 195.3718" fill="none" stroke="#aaa" stroke-opacity="0.5" stroke-width="0.5"></path><path d="M307.7815 146.9019L181.1264 151.8487" fill="none" stroke="#aaa" stroke-opacity="0.5" stroke-width="0.5"></path><path d="M180.9507 29.2609L307.7815 146.9019" fill="none" stroke="#aaa" stroke-opacity="0.5" stroke-width="0.5"></path><path d="M238.4217 218.7974L115.9594 157.6493" fill="none" stroke="#aaa" stroke-opacity="0.5" stroke-width="0.5"></path><path d="M178.298 89.0911L241.9399 92.7595" fill="none" stroke="#aaa" stroke-opacity="0.5" stroke-width="0.5"></path><path d="M307.7815 146.9019L115.9594 157.6493" fill="none" stroke="#aaa" stroke-opacity="0.5" stroke-width="0.5"></path><path d="M132.9465 58.8061L305.9856 96.5322" fill="none" stroke="#aaa" stroke-opacity="0.5" stroke-width="0.5"></path><path d="M246.1373 154.497L191.3444 219.9304" fill="none" stroke="#aaa" stroke-opacity="0.5" stroke-width="0.5"></path><path d="M145.5379 201.1352L230.8051 29.0182" fill="none" stroke="#aaa" stroke-opacity="0.5" stroke-width="0.5"></path><path d="M238.4217 218.7974L280.7085 49.9155" fill="none" stroke="#aaa" stroke-opacity="0.5" stroke-width="0.5"></path><path d="M180.9507 29.2609L246.1373 154.497" fill="none" stroke="#aaa" stroke-opacity="0.5" stroke-width="0.5"></path><path d="M307.7815 146.9019L280.7085 49.9155" fill="none" stroke="#aaa" stroke-opacity="0.5" stroke-width="0.5"></path><path d="M180.9507 29.2609L284.4846 195.3718" fill="none" stroke="#aaa" stroke-opacity="0.5" stroke-width="0.5"></path><path d="M180.9507 29.2609L241.9399 92.7595" fill="none" stroke="#aaa" stroke-opacity="0.5" stroke-width="0.5"></path><path d="M280.7085 49.9155L230.8051 29.0182" fill="none" stroke="#aaa" stroke-opacity="0.5" stroke-width="0.5"></path><path d="M241.9399 92.7595L284.4846 195.3718" fill="none" stroke="#aaa" stroke-opacity="0.5" stroke-width="0.5"></path><path d="M145.5379 201.1352L305.9856 96.5322" fill="none" stroke="#aaa" stroke-opacity="0.5" stroke-width="0.5"></path><path d="M145.5379 201.1352L115.9594 157.6493" fill="none" stroke="#aaa" stroke-opacity="0.5" stroke-width="0.5"></path><path d="M1 0A1 1 0 1 1 1 -0.0001" fill="#5470c6" transform="matrix(18,0,0,18,307.7815,146.9019)"></path><path d="M1 0A1 1 0 1 1 1 -0.0001" fill="#5470c6" transform="matrix(18,0,0,18,284.4846,195.3718)"></path><path d="M1 0A1 1 0 1 1 1 -0.0001" fill="#5470c6" transform="matrix(18,0,0,18,246.1373,154.497)"></path><path d="M1 0A1 1 0 1 1 1 -0.0001" fill="#5470c6" transform="matrix(18,0,0,18,238.4217,218.7974)"></path><path d="M1 0A1 1 0 1 1 1 -0.0001" fill="#5470c6" transform="matrix(18,0,0,18,191.3444,219.9304)"></path><path d="M1 0A1 1 0 1 1 1 -0.0001" fill="#5470c6" transform="matrix(18,0,0,18,145.5379,201.1352)"></path><path d="M1 0A1 1 0 1 1 1 -0.0001" fill="#5470c6" transform="matrix(18,0,0,18,115.9594,157.6493)"></path><path d="M1 0A1 1 0 1 1 1 -0.0001" fill="#5470c6" transform="matrix(18,0,0,18,181.1264,151.8487)"></path><path d="M1 0A1 1 0 1 1 1 -0.0001" fill="#5470c6" transform="matrix(18,0,0,18,115.5866,108.4849)"></path><path d="M1 0A1 1 0 1 1 1 -0.0001" fill="#5470c6" transform="matrix(18,0,0,18,132.9465,58.8061)"></path><path d="M1 0A1 1 0 1 1 1 -0.0001" fill="#5470c6" transform="matrix(18,0,0,18,180.9507,29.2609)"></path><path d="M1 0A1 1 0 1 1 1 -0.0001" fill="#5470c6" transform="matrix(18,0,0,18,178.298,89.0911)"></path><path d="M1 0A1 1 0 1 1 1 -0.0001" fill="#5470c6" transform="matrix(18,0,0,18,230.8051,29.0182)"></path><path d="M1 0A1 1 0 1 1 1 -0.0001" fill="#5470c6" transform="matrix(18,0,0,18,241.9399,92.7595)"></path><path d="M1 0A1 1 0 1 1 1 -0.0001" fill="#5470c6" transform="matrix(18,0,0,18,280.7085,49.9155)"></path><path d="M1 0A1 1 0 1 1 1 -0.0001" fill="#5470c6" transform="matrix(18,0,0,18,305.9856,96.5322)"></path><path d="M-32.4922 -5l64.9844 0l0 33l-64.9844 0Z" fill="rgb(0,0,0)" fill-opacity="0" stroke="#ccc" stroke-width="0" transform="translate(237.5 5)"></path><text dominant-baseline="central" fill="#333" style="font-size:23px;font-family:sans-serif;font-weight:bolder;" text-anchor="middle" transform="translate(237.5 5)" y="11.5">C203</text></g></svg>