<svg baseprofile="full" height="250" style="position:absolute;left:0;top:0;user-select:none" version="1.1" width="475" xmlns="http://www.w3.org/2000/svg" xmlns:xlink="http://www.w3.org/1999/xlink"><rect fill="none" height="250" id="0" width="475" x="0" y="0"></rect><g><path d="M243.2236 218.0807L195.6844 220.9519" fill="none" stroke="#aaa" stroke-opacity="0.5" stroke-width="0.5"></path><path d="M112.6455 111.7827L246.8282 153.2604" fill="none" stroke="#aaa" stroke-opacity="0.5" stroke-width="0.5"></path><path d="M195.6844 220.9519L177.6015 30.5099" fill="none" stroke="#aaa" stroke-opacity="0.5" stroke-width="0.5"></path><path d="M304.3769 92.5528L239.1556 90.6113" fill="none" stroke="#aaa" stroke-opacity="0.5" stroke-width="0.5"></path><path d="M175.598 93.5054L246.8282 153.2604" fill="none" stroke="#aaa" stroke-opacity="0.5" stroke-width="0.5"></path><path d="M228.4303 27.6833L239.1556 90.6113" fill="none" stroke="#aaa" stroke-opacity="0.5" stroke-width="0.5"></path><path d="M147.4815 204.145L195.6844 220.9519" fill="none" stroke="#aaa" stroke-opacity="0.5" stroke-width="0.5"></path><path d="M112.6455 111.7827L132.1319 61.7117" fill="none" stroke="#aaa" stroke-opacity="0.5" stroke-width="0.5"></path><path d="M275.9607 48.2429L239.1556 90.6113" fill="none" stroke="#aaa" stroke-opacity="0.5" stroke-width="0.5"></path><path d="M132.1319 61.7117L177.6015 30.5099" fill="none" stroke="#aaa" stroke-opacity="0.5" stroke-width="0.5"></path><path d="M175.598 93.5054L132.1319 61.7117" fill="none" stroke="#aaa" stroke-opacity="0.5" stroke-width="0.5"></path><path d="M289.3187 190.2683L308.3297 141.0506" fill="none" stroke="#aaa" stroke-opacity="0.5" stroke-width="0.5"></path><path d="M195.6844 220.9519L246.8282 153.2604" fill="none" stroke="#aaa" stroke-opacity="0.5" stroke-width="0.5"></path><path d="M243.2236 218.0807L177.6015 30.5099" fill="none" stroke="#aaa" stroke-opacity="0.5" stroke-width="0.5"></path><path d="M289.3187 190.2683L132.1319 61.7117" fill="none" stroke="#aaa" stroke-opacity="0.5" stroke-width="0.5"></path><path d="M118.8899 160.1734L182.3576 155.4698" fill="none" stroke="#aaa" stroke-opacity="0.5" stroke-width="0.5"></path><path d="M304.3769 92.5528L308.3297 141.0506" fill="none" stroke="#aaa" stroke-opacity="0.5" stroke-width="0.5"></path><path d="M195.6844 220.9519L308.3297 141.0506" fill="none" stroke="#aaa" stroke-opacity="0.5" stroke-width="0.5"></path><path d="M228.4303 27.6833L308.3297 141.0506" fill="none" stroke="#aaa" stroke-opacity="0.5" stroke-width="0.5"></path><path d="M304.3769 92.5528L132.1319 61.7117" fill="none" stroke="#aaa" stroke-opacity="0.5" stroke-width="0.5"></path><path d="M112.6455 111.7827L182.3576 155.4698" fill="none" stroke="#aaa" stroke-opacity="0.5" stroke-width="0.5"></path><path d="M246.8282 153.2604L239.1556 90.6113" fill="none" stroke="#aaa" stroke-opacity="0.5" stroke-width="0.5"></path><path d="M275.9607 48.2429L308.3297 141.0506" fill="none" stroke="#aaa" stroke-opacity="0.5" stroke-width="0.5"></path><path d="M175.598 93.5054L182.3576 155.4698" fill="none" stroke="#aaa" stroke-opacity="0.5" stroke-width="0.5"></path><path d="M132.1319 61.7117L246.8282 153.2604" fill="none" stroke="#aaa" stroke-opacity="0.5" stroke-width="0.5"></path><path d="M147.4815 204.145L239.1556 90.6113" fill="none" stroke="#aaa" stroke-opacity="0.5" stroke-width="0.5"></path><path d="M289.3187 190.2683L182.3576 155.4698" fill="none" stroke="#aaa" stroke-opacity="0.5" stroke-width="0.5"></path><path d="M243.2236 218.0807L246.8282 153.2604" fill="none" stroke="#aaa" stroke-opacity="0.5" stroke-width="0.5"></path><path d="M289.3187 190.2683L112.6455 111.7827" fill="none" stroke="#aaa" stroke-opacity="0.5" stroke-width="0.5"></path><path d="M304.3769 92.5528L182.3576 155.4698" fill="none" stroke="#aaa" stroke-opacity="0.5" stroke-width="0.5"></path><path d="M195.6844 220.9519L182.3576 155.4698" fill="none" stroke="#aaa" stroke-opacity="0.5" stroke-width="0.5"></path><path d="M246.8282 153.2604L228.4303 27.6833" fill="none" stroke="#aaa" stroke-opacity="0.5" stroke-width="0.5"></path><path d="M228.4303 27.6833L275.9607 48.2429" fill="none" stroke="#aaa" stroke-opacity="0.5" stroke-width="0.5"></path><path d="M147.4815 204.145L308.3297 141.0506" fill="none" stroke="#aaa" stroke-opacity="0.5" stroke-width="0.5"></path><path d="M147.4815 204.145L228.4303 27.6833" fill="none" stroke="#aaa" stroke-opacity="0.5" stroke-width="0.5"></path><path d="M132.1319 61.7117L182.3576 155.4698" fill="none" stroke="#aaa" stroke-opacity="0.5" stroke-width="0.5"></path><path d="M112.6455 111.7827L118.8899 160.1734" fill="none" stroke="#aaa" stroke-opacity="0.5" stroke-width="0.5"></path><path d="M182.3576 155.4698L239.1556 90.6113" fill="none" stroke="#aaa" stroke-opacity="0.5" stroke-width="0.5"></path><path d="M118.8899 160.1734L239.1556 90.6113" fill="none" stroke="#aaa" stroke-opacity="0.5" stroke-width="0.5"></path><path d="M243.2236 218.0807L182.3576 155.4698" fill="none" stroke="#aaa" stroke-opacity="0.5" stroke-width="0.5"></path><path d="M118.8899 160.1734L147.4815 204.145" fill="none" stroke="#aaa" stroke-opacity="0.5" stroke-width="0.5"></path><path d="M304.3769 92.5528L243.2236 218.0807" fill="none" stroke="#aaa" stroke-opacity="0.5" stroke-width="0.5"></path><path d="M175.598 93.5054L118.8899 160.1734" fill="none" stroke="#aaa" stroke-opacity="0.5" stroke-width="0.5"></path><path d="M246.8282 153.2604L275.9607 48.2429" fill="none" stroke="#aaa" stroke-opacity="0.5" stroke-width="0.5"></path><path d="M112.6455 111.7827L239.1556 90.6113" fill="none" stroke="#aaa" stroke-opacity="0.5" stroke-width="0.5"></path><path d="M112.6455 111.7827L147.4815 204.145" fill="none" stroke="#aaa" stroke-opacity="0.5" stroke-width="0.5"></path><path d="M289.3187 190.2683L118.8899 160.1734" fill="none" stroke="#aaa" stroke-opacity="0.5" stroke-width="0.5"></path><path d="M147.4815 204.145L275.9607 48.2429" fill="none" stroke="#aaa" stroke-opacity="0.5" stroke-width="0.5"></path><path d="M175.598 93.5054L239.1556 90.6113" fill="none" stroke="#aaa" stroke-opacity="0.5" stroke-width="0.5"></path><path d="M175.598 93.5054L147.4815 204.145" fill="none" stroke="#aaa" stroke-opacity="0.5" stroke-width="0.5"></path><path d="M132.1319 61.7117L195.6844 220.9519" fill="none" stroke="#aaa" stroke-opacity="0.5" stroke-width="0.5"></path><path d="M304.3769 92.5528L118.8899 160.1734" fill="none" stroke="#aaa" stroke-opacity="0.5" stroke-width="0.5"></path><path d="M308.3297 141.0506L177.6015 30.5099" fill="none" stroke="#aaa" stroke-opacity="0.5" stroke-width="0.5"></path><path d="M289.3187 190.2683L239.1556 90.6113" fill="none" stroke="#aaa" stroke-opacity="0.5" stroke-width="0.5"></path><path d="M182.3576 155.4698L308.3297 141.0506" fill="none" stroke="#aaa" stroke-opacity="0.5" stroke-width="0.5"></path><path d="M289.3187 190.2683L147.4815 204.145" fill="none" stroke="#aaa" stroke-opacity="0.5" stroke-width="0.5"></path><path d="M118.8899 160.1734L308.3297 141.0506" fill="none" stroke="#aaa" stroke-opacity="0.5" stroke-width="0.5"></path><path d="M182.3576 155.4698L228.4303 27.6833" fill="none" stroke="#aaa" stroke-opacity="0.5" stroke-width="0.5"></path><path d="M118.8899 160.1734L228.4303 27.6833" fill="none" stroke="#aaa" stroke-opacity="0.5" stroke-width="0.5"></path><path d="M308.3297 141.0506L239.1556 90.6113" fill="none" stroke="#aaa" stroke-opacity="0.5" stroke-width="0.5"></path><path d="M304.3769 92.5528L147.4815 204.145" fill="none" stroke="#aaa" stroke-opacity="0.5" stroke-width="0.5"></path><path d="M112.6455 111.7827L308.3297 141.0506" fill="none" stroke="#aaa" stroke-opacity="0.5" stroke-width="0.5"></path><path d="M112.6455 111.7827L228.4303 27.6833" fill="none" stroke="#aaa" stroke-opacity="0.5" stroke-width="0.5"></path><path d="M195.6844 220.9519L239.1556 90.6113" fill="none" stroke="#aaa" stroke-opacity="0.5" stroke-width="0.5"></path><path d="M175.598 93.5054L308.3297 141.0506" fill="none" stroke="#aaa" stroke-opacity="0.5" stroke-width="0.5"></path><path d="M228.4303 27.6833L177.6015 30.5099" fill="none" stroke="#aaa" stroke-opacity="0.5" stroke-width="0.5"></path><path d="M132.1319 61.7117L118.8899 160.1734" fill="none" stroke="#aaa" stroke-opacity="0.5" stroke-width="0.5"></path><path d="M175.598 93.5054L228.4303 27.6833" fill="none" stroke="#aaa" stroke-opacity="0.5" stroke-width="0.5"></path><path d="M275.9607 48.2429L177.6015 30.5099" fill="none" stroke="#aaa" stroke-opacity="0.5" stroke-width="0.5"></path><path d="M289.3187 190.2683L228.4303 27.6833" fill="none" stroke="#aaa" stroke-opacity="0.5" stroke-width="0.5"></path><path d="M132.1319 61.7117L239.1556 90.6113" fill="none" stroke="#aaa" stroke-opacity="0.5" stroke-width="0.5"></path><path d="M289.3187 190.2683L246.8282 153.2604" fill="none" stroke="#aaa" stroke-opacity="0.5" stroke-width="0.5"></path><path d="M289.3187 190.2683L175.598 93.5054" fill="none" stroke="#aaa" stroke-opacity="0.5" stroke-width="0.5"></path><path d="M132.1319 61.7117L147.4815 204.145" fill="none" stroke="#aaa" stroke-opacity="0.5" stroke-width="0.5"></path><path d="M304.3769 92.5528L228.4303 27.6833" fill="none" stroke="#aaa" stroke-opacity="0.5" stroke-width="0.5"></path><path d="M182.3576 155.4698L275.9607 48.2429" fill="none" stroke="#aaa" stroke-opacity="0.5" stroke-width="0.5"></path><path d="M118.8899 160.1734L275.9607 48.2429" fill="none" stroke="#aaa" stroke-opacity="0.5" stroke-width="0.5"></path><path d="M195.6844 220.9519L228.4303 27.6833" fill="none" stroke="#aaa" stroke-opacity="0.5" stroke-width="0.5"></path><path d="M304.3769 92.5528L246.8282 153.2604" fill="none" stroke="#aaa" stroke-opacity="0.5" stroke-width="0.5"></path><path d="M243.2236 218.0807L239.1556 90.6113" fill="none" stroke="#aaa" stroke-opacity="0.5" stroke-width="0.5"></path><path d="M243.2236 218.0807L147.4815 204.145" fill="none" stroke="#aaa" stroke-opacity="0.5" stroke-width="0.5"></path><path d="M112.6455 111.7827L304.3769 92.5528" fill="none" stroke="#aaa" stroke-opacity="0.5" stroke-width="0.5"></path><path d="M112.6455 111.7827L275.9607 48.2429" fill="none" stroke="#aaa" stroke-opacity="0.5" stroke-width="0.5"></path><path d="M246.8282 153.2604L177.6015 30.5099" fill="none" stroke="#aaa" stroke-opacity="0.5" stroke-width="0.5"></path><path d="M175.598 93.5054L304.3769 92.5528" fill="none" stroke="#aaa" stroke-opacity="0.5" stroke-width="0.5"></path><path d="M175.598 93.5054L112.6455 111.7827" fill="none" stroke="#aaa" stroke-opacity="0.5" stroke-width="0.5"></path><path d="M175.598 93.5054L275.9607 48.2429" fill="none" stroke="#aaa" stroke-opacity="0.5" stroke-width="0.5"></path><path d="M147.4815 204.145L177.6015 30.5099" fill="none" stroke="#aaa" stroke-opacity="0.5" stroke-width="0.5"></path><path d="M289.3187 190.2683L304.3769 92.5528" fill="none" stroke="#aaa" stroke-opacity="0.5" stroke-width="0.5"></path><path d="M132.1319 61.7117L308.3297 141.0506" fill="none" stroke="#aaa" stroke-opacity="0.5" stroke-width="0.5"></path><path d="M132.1319 61.7117L228.4303 27.6833" fill="none" stroke="#aaa" stroke-opacity="0.5" stroke-width="0.5"></path><path d="M289.3187 190.2683L275.9607 48.2429" fill="none" stroke="#aaa" stroke-opacity="0.5" stroke-width="0.5"></path><path d="M118.8899 160.1734L243.2236 218.0807" fill="none" stroke="#aaa" stroke-opacity="0.5" stroke-width="0.5"></path><path d="M243.2236 218.0807L308.3297 141.0506" fill="none" stroke="#aaa" stroke-opacity="0.5" stroke-width="0.5"></path><path d="M243.2236 218.0807L228.4303 27.6833" fill="none" stroke="#aaa" stroke-opacity="0.5" stroke-width="0.5"></path><path d="M304.3769 92.5528L275.9607 48.2429" fill="none" stroke="#aaa" stroke-opacity="0.5" stroke-width="0.5"></path><path d="M195.6844 220.9519L275.9607 48.2429" fill="none" stroke="#aaa" stroke-opacity="0.5" stroke-width="0.5"></path><path d="M118.8899 160.1734L195.6844 220.9519" fill="none" stroke="#aaa" stroke-opacity="0.5" stroke-width="0.5"></path><path d="M112.6455 111.7827L243.2236 218.0807" fill="none" stroke="#aaa" stroke-opacity="0.5" stroke-width="0.5"></path><path d="M112.6455 111.7827L195.6844 220.9519" fill="none" stroke="#aaa" stroke-opacity="0.5" stroke-width="0.5"></path><path d="M246.8282 153.2604L308.3297 141.0506" fill="none" stroke="#aaa" stroke-opacity="0.5" stroke-width="0.5"></path><path d="M175.598 93.5054L243.2236 218.0807" fill="none" stroke="#aaa" stroke-opacity="0.5" stroke-width="0.5"></path><path d="M147.4815 204.145L246.8282 153.2604" fill="none" stroke="#aaa" stroke-opacity="0.5" stroke-width="0.5"></path><path d="M175.598 93.5054L195.6844 220.9519" fill="none" stroke="#aaa" stroke-opacity="0.5" stroke-width="0.5"></path><path d="M289.3187 190.2683L243.2236 218.0807" fill="none" stroke="#aaa" stroke-opacity="0.5" stroke-width="0.5"></path><path d="M132.1319 61.7117L275.9607 48.2429" fill="none" stroke="#aaa" stroke-opacity="0.5" stroke-width="0.5"></path><path d="M289.3187 190.2683L195.6844 220.9519" fill="none" stroke="#aaa" stroke-opacity="0.5" stroke-width="0.5"></path><path d="M239.1556 90.6113L177.6015 30.5099" fill="none" stroke="#aaa" stroke-opacity="0.5" stroke-width="0.5"></path><path d="M243.2236 218.0807L275.9607 48.2429" fill="none" stroke="#aaa" stroke-opacity="0.5" stroke-width="0.5"></path><path d="M182.3576 155.4698L177.6015 30.5099" fill="none" stroke="#aaa" stroke-opacity="0.5" stroke-width="0.5"></path><path d="M118.8899 160.1734L177.6015 30.5099" fill="none" stroke="#aaa" stroke-opacity="0.5" stroke-width="0.5"></path><path d="M304.3769 92.5528L195.6844 220.9519" fill="none" stroke="#aaa" stroke-opacity="0.5" stroke-width="0.5"></path><path d="M112.6455 111.7827L177.6015 30.5099" fill="none" stroke="#aaa" stroke-opacity="0.5" stroke-width="0.5"></path><path d="M246.8282 153.2604L182.3576 155.4698" fill="none" stroke="#aaa" stroke-opacity="0.5" stroke-width="0.5"></path><path d="M175.598 93.5054L177.6015 30.5099" fill="none" stroke="#aaa" stroke-opacity="0.5" stroke-width="0.5"></path><path d="M132.1319 61.7117L243.2236 218.0807" fill="none" stroke="#aaa" stroke-opacity="0.5" stroke-width="0.5"></path><path d="M147.4815 204.145L182.3576 155.4698" fill="none" stroke="#aaa" stroke-opacity="0.5" stroke-width="0.5"></path><path d="M289.3187 190.2683L177.6015 30.5099" fill="none" stroke="#aaa" stroke-opacity="0.5" stroke-width="0.5"></path><path d="M118.8899 160.1734L246.8282 153.2604" fill="none" stroke="#aaa" stroke-opacity="0.5" stroke-width="0.5"></path><path d="M304.3769 92.5528L177.6015 30.5099" fill="none" stroke="#aaa" stroke-opacity="0.5" stroke-width="0.5"></path><path d="M1 0A1 1 0 1 1 1 -0.0001" fill="#5470c6" transform="matrix(18,0,0,18,239.1556,90.6113)"></path><path d="M1 0A1 1 0 1 1 1 -0.0001" fill="#5470c6" transform="matrix(18,0,0,18,289.3187,190.2683)"></path><path d="M1 0A1 1 0 1 1 1 -0.0001" fill="#5470c6" transform="matrix(18,0,0,18,246.8282,153.2604)"></path><path d="M1 0A1 1 0 1 1 1 -0.0001" fill="#5470c6" transform="matrix(18,0,0,18,243.2236,218.0807)"></path><path d="M1 0A1 1 0 1 1 1 -0.0001" fill="#5470c6" transform="matrix(18,0,0,18,195.6844,220.9519)"></path><path d="M1 0A1 1 0 1 1 1 -0.0001" fill="#5470c6" transform="matrix(18,0,0,18,147.4815,204.145)"></path><path d="M1 0A1 1 0 1 1 1 -0.0001" fill="#5470c6" transform="matrix(18,0,0,18,182.3576,155.4698)"></path><path d="M1 0A1 1 0 1 1 1 -0.0001" fill="#5470c6" transform="matrix(18,0,0,18,118.8899,160.1734)"></path><path d="M1 0A1 1 0 1 1 1 -0.0001" fill="#5470c6" transform="matrix(18,0,0,18,112.6455,111.7827)"></path><path d="M1 0A1 1 0 1 1 1 -0.0001" fill="#5470c6" transform="matrix(18,0,0,18,132.1319,61.7117)"></path><path d="M1 0A1 1 0 1 1 1 -0.0001" fill="#5470c6" transform="matrix(18,0,0,18,175.598,93.5054)"></path><path d="M1 0A1 1 0 1 1 1 -0.0001" fill="#5470c6" transform="matrix(18,0,0,18,177.6015,30.5099)"></path><path d="M1 0A1 1 0 1 1 1 -0.0001" fill="#5470c6" transform="matrix(18,0,0,18,228.4303,27.6833)"></path><path d="M1 0A1 1 0 1 1 1 -0.0001" fill="#5470c6" transform="matrix(18,0,0,18,275.9607,48.2429)"></path><path d="M1 0A1 1 0 1 1 1 -0.0001" fill="#5470c6" transform="matrix(18,0,0,18,304.3769,92.5528)"></path><path d="M1 0A1 1 0 1 1 1 -0.0001" fill="#5470c6" transform="matrix(18,0,0,18,308.3297,141.0506)"></path><path d="M-32.4922 -5l64.9844 0l0 33l-64.9844 0Z" fill="rgb(0,0,0)" fill-opacity="0" stroke="#ccc" stroke-width="0" transform="translate(237.5 5)"></path><text dominant-baseline="central" fill="#333" style="font-size:23px;font-family:sans-serif;font-weight:bolder;" text-anchor="middle" transform="translate(237.5 5)" y="11.5">C204</text></g></svg>