<svg baseprofile="full" height="250" style="position:absolute;left:0;top:0;user-select:none" version="1.1" width="475" xmlns="http://www.w3.org/2000/svg" xmlns:xlink="http://www.w3.org/1999/xlink"><rect fill="none" height="250" id="0" width="475" x="0" y="0"></rect><g><path d="M251.5421 99.5948L139.7972 54.9801" fill="none" stroke="#aaa" stroke-opacity="0.5" stroke-width="0.5"></path><path d="M188.0581 88.6672L235.5215 161.1742" fill="none" stroke="#aaa" stroke-opacity="0.5" stroke-width="0.5"></path><path d="M279.9261 51.7441L282.1728 195.4417" fill="none" stroke="#aaa" stroke-opacity="0.5" stroke-width="0.5"></path><path d="M113.7559 150.6603L309.6442 99.8198" fill="none" stroke="#aaa" stroke-opacity="0.5" stroke-width="0.5"></path><path d="M173.2538 148.3509L116.0915 100.3695" fill="none" stroke="#aaa" stroke-opacity="0.5" stroke-width="0.5"></path><path d="M139.7972 54.9801L140.6044 198.16" fill="none" stroke="#aaa" stroke-opacity="0.5" stroke-width="0.5"></path><path d="M251.5421 99.5948L116.0915 100.3695" fill="none" stroke="#aaa" stroke-opacity="0.5" stroke-width="0.5"></path><path d="M305.1589 150.698L188.0581 88.6672" fill="none" stroke="#aaa" stroke-opacity="0.5" stroke-width="0.5"></path><path d="M305.1589 150.698L234.1033 29.6157" fill="none" stroke="#aaa" stroke-opacity="0.5" stroke-width="0.5"></path><path d="M139.7972 54.9801L235.5215 161.1742" fill="none" stroke="#aaa" stroke-opacity="0.5" stroke-width="0.5"></path><path d="M188.0581 88.6672L234.1033 29.6157" fill="none" stroke="#aaa" stroke-opacity="0.5" stroke-width="0.5"></path><path d="M305.1589 150.698L236.1956 222.7087" fill="none" stroke="#aaa" stroke-opacity="0.5" stroke-width="0.5"></path><path d="M188.0581 88.6672L236.1956 222.7087" fill="none" stroke="#aaa" stroke-opacity="0.5" stroke-width="0.5"></path><path d="M187.0377 219.3272L116.0915 100.3695" fill="none" stroke="#aaa" stroke-opacity="0.5" stroke-width="0.5"></path><path d="M140.6044 198.16L116.0915 100.3695" fill="none" stroke="#aaa" stroke-opacity="0.5" stroke-width="0.5"></path><path d="M251.5421 99.5948L309.6442 99.8198" fill="none" stroke="#aaa" stroke-opacity="0.5" stroke-width="0.5"></path><path d="M236.1956 222.7087L116.0915 100.3695" fill="none" stroke="#aaa" stroke-opacity="0.5" stroke-width="0.5"></path><path d="M139.7972 54.9801L188.0581 88.6672" fill="none" stroke="#aaa" stroke-opacity="0.5" stroke-width="0.5"></path><path d="M139.7972 54.9801L234.1033 29.6157" fill="none" stroke="#aaa" stroke-opacity="0.5" stroke-width="0.5"></path><path d="M309.6442 99.8198L140.6044 198.16" fill="none" stroke="#aaa" stroke-opacity="0.5" stroke-width="0.5"></path><path d="M305.1589 150.698L173.2538 148.3509" fill="none" stroke="#aaa" stroke-opacity="0.5" stroke-width="0.5"></path><path d="M188.0581 88.6672L173.2538 148.3509" fill="none" stroke="#aaa" stroke-opacity="0.5" stroke-width="0.5"></path><path d="M305.1589 150.698L251.5421 99.5948" fill="none" stroke="#aaa" stroke-opacity="0.5" stroke-width="0.5"></path><path d="M113.7559 150.6603L235.5215 161.1742" fill="none" stroke="#aaa" stroke-opacity="0.5" stroke-width="0.5"></path><path d="M309.6442 99.8198L235.5215 161.1742" fill="none" stroke="#aaa" stroke-opacity="0.5" stroke-width="0.5"></path><path d="M185.1509 28.6878L188.0581 88.6672" fill="none" stroke="#aaa" stroke-opacity="0.5" stroke-width="0.5"></path><path d="M185.1509 28.6878L234.1033 29.6157" fill="none" stroke="#aaa" stroke-opacity="0.5" stroke-width="0.5"></path><path d="M279.9261 51.7441L116.0915 100.3695" fill="none" stroke="#aaa" stroke-opacity="0.5" stroke-width="0.5"></path><path d="M185.1509 28.6878L236.1956 222.7087" fill="none" stroke="#aaa" stroke-opacity="0.5" stroke-width="0.5"></path><path d="M305.1589 150.698L279.9261 51.7441" fill="none" stroke="#aaa" stroke-opacity="0.5" stroke-width="0.5"></path><path d="M113.7559 150.6603L188.0581 88.6672" fill="none" stroke="#aaa" stroke-opacity="0.5" stroke-width="0.5"></path><path d="M309.6442 99.8198L188.0581 88.6672" fill="none" stroke="#aaa" stroke-opacity="0.5" stroke-width="0.5"></path><path d="M113.7559 150.6603L234.1033 29.6157" fill="none" stroke="#aaa" stroke-opacity="0.5" stroke-width="0.5"></path><path d="M309.6442 99.8198L234.1033 29.6157" fill="none" stroke="#aaa" stroke-opacity="0.5" stroke-width="0.5"></path><path d="M234.1033 29.6157L282.1728 195.4417" fill="none" stroke="#aaa" stroke-opacity="0.5" stroke-width="0.5"></path><path d="M113.7559 150.6603L236.1956 222.7087" fill="none" stroke="#aaa" stroke-opacity="0.5" stroke-width="0.5"></path><path d="M185.1509 28.6878L173.2538 148.3509" fill="none" stroke="#aaa" stroke-opacity="0.5" stroke-width="0.5"></path><path d="M309.6442 99.8198L236.1956 222.7087" fill="none" stroke="#aaa" stroke-opacity="0.5" stroke-width="0.5"></path><path d="M234.1033 29.6157L236.1956 222.7087" fill="none" stroke="#aaa" stroke-opacity="0.5" stroke-width="0.5"></path><path d="M185.1509 28.6878L251.5421 99.5948" fill="none" stroke="#aaa" stroke-opacity="0.5" stroke-width="0.5"></path><path d="M236.1956 222.7087L140.6044 198.16" fill="none" stroke="#aaa" stroke-opacity="0.5" stroke-width="0.5"></path><path d="M251.5421 99.5948L188.0581 88.6672" fill="none" stroke="#aaa" stroke-opacity="0.5" stroke-width="0.5"></path><path d="M251.5421 99.5948L234.1033 29.6157" fill="none" stroke="#aaa" stroke-opacity="0.5" stroke-width="0.5"></path><path d="M173.2538 148.3509L236.1956 222.7087" fill="none" stroke="#aaa" stroke-opacity="0.5" stroke-width="0.5"></path><path d="M236.1956 222.7087L235.5215 161.1742" fill="none" stroke="#aaa" stroke-opacity="0.5" stroke-width="0.5"></path><path d="M234.1033 29.6157L173.2538 148.3509" fill="none" stroke="#aaa" stroke-opacity="0.5" stroke-width="0.5"></path><path d="M185.1509 28.6878L279.9261 51.7441" fill="none" stroke="#aaa" stroke-opacity="0.5" stroke-width="0.5"></path><path d="M113.7559 150.6603L251.5421 99.5948" fill="none" stroke="#aaa" stroke-opacity="0.5" stroke-width="0.5"></path><path d="M251.5421 99.5948L236.1956 222.7087" fill="none" stroke="#aaa" stroke-opacity="0.5" stroke-width="0.5"></path><path d="M279.9261 51.7441L140.6044 198.16" fill="none" stroke="#aaa" stroke-opacity="0.5" stroke-width="0.5"></path><path d="M279.9261 51.7441L235.5215 161.1742" fill="none" stroke="#aaa" stroke-opacity="0.5" stroke-width="0.5"></path><path d="M187.0377 219.3272L282.1728 195.4417" fill="none" stroke="#aaa" stroke-opacity="0.5" stroke-width="0.5"></path><path d="M187.0377 219.3272L236.1956 222.7087" fill="none" stroke="#aaa" stroke-opacity="0.5" stroke-width="0.5"></path><path d="M305.1589 150.698L140.6044 198.16" fill="none" stroke="#aaa" stroke-opacity="0.5" stroke-width="0.5"></path><path d="M251.5421 99.5948L173.2538 148.3509" fill="none" stroke="#aaa" stroke-opacity="0.5" stroke-width="0.5"></path><path d="M234.1033 29.6157L279.9261 51.7441" fill="none" stroke="#aaa" stroke-opacity="0.5" stroke-width="0.5"></path><path d="M188.0581 88.6672L140.6044 198.16" fill="none" stroke="#aaa" stroke-opacity="0.5" stroke-width="0.5"></path><path d="M305.1589 150.698L235.5215 161.1742" fill="none" stroke="#aaa" stroke-opacity="0.5" stroke-width="0.5"></path><path d="M187.0377 219.3272L173.2538 148.3509" fill="none" stroke="#aaa" stroke-opacity="0.5" stroke-width="0.5"></path><path d="M279.9261 51.7441L236.1956 222.7087" fill="none" stroke="#aaa" stroke-opacity="0.5" stroke-width="0.5"></path><path d="M173.2538 148.3509L279.9261 51.7441" fill="none" stroke="#aaa" stroke-opacity="0.5" stroke-width="0.5"></path><path d="M251.5421 99.5948L279.9261 51.7441" fill="none" stroke="#aaa" stroke-opacity="0.5" stroke-width="0.5"></path><path d="M185.1509 28.6878L140.6044 198.16" fill="none" stroke="#aaa" stroke-opacity="0.5" stroke-width="0.5"></path><path d="M185.1509 28.6878L235.5215 161.1742" fill="none" stroke="#aaa" stroke-opacity="0.5" stroke-width="0.5"></path><path d="M187.0377 219.3272L279.9261 51.7441" fill="none" stroke="#aaa" stroke-opacity="0.5" stroke-width="0.5"></path><path d="M305.1589 150.698L187.0377 219.3272" fill="none" stroke="#aaa" stroke-opacity="0.5" stroke-width="0.5"></path><path d="M305.1589 150.698L282.1728 195.4417" fill="none" stroke="#aaa" stroke-opacity="0.5" stroke-width="0.5"></path><path d="M188.0581 88.6672L187.0377 219.3272" fill="none" stroke="#aaa" stroke-opacity="0.5" stroke-width="0.5"></path><path d="M188.0581 88.6672L282.1728 195.4417" fill="none" stroke="#aaa" stroke-opacity="0.5" stroke-width="0.5"></path><path d="M113.7559 150.6603L140.6044 198.16" fill="none" stroke="#aaa" stroke-opacity="0.5" stroke-width="0.5"></path><path d="M234.1033 29.6157L140.6044 198.16" fill="none" stroke="#aaa" stroke-opacity="0.5" stroke-width="0.5"></path><path d="M235.5215 161.1742L116.0915 100.3695" fill="none" stroke="#aaa" stroke-opacity="0.5" stroke-width="0.5"></path><path d="M282.1728 195.4417L235.5215 161.1742" fill="none" stroke="#aaa" stroke-opacity="0.5" stroke-width="0.5"></path><path d="M234.1033 29.6157L235.5215 161.1742" fill="none" stroke="#aaa" stroke-opacity="0.5" stroke-width="0.5"></path><path d="M139.7972 54.9801L187.0377 219.3272" fill="none" stroke="#aaa" stroke-opacity="0.5" stroke-width="0.5"></path><path d="M139.7972 54.9801L282.1728 195.4417" fill="none" stroke="#aaa" stroke-opacity="0.5" stroke-width="0.5"></path><path d="M139.7972 54.9801L236.1956 222.7087" fill="none" stroke="#aaa" stroke-opacity="0.5" stroke-width="0.5"></path><path d="M185.1509 28.6878L187.0377 219.3272" fill="none" stroke="#aaa" stroke-opacity="0.5" stroke-width="0.5"></path><path d="M173.2538 148.3509L140.6044 198.16" fill="none" stroke="#aaa" stroke-opacity="0.5" stroke-width="0.5"></path><path d="M305.1589 150.698L139.7972 54.9801" fill="none" stroke="#aaa" stroke-opacity="0.5" stroke-width="0.5"></path><path d="M185.1509 28.6878L282.1728 195.4417" fill="none" stroke="#aaa" stroke-opacity="0.5" stroke-width="0.5"></path><path d="M251.5421 99.5948L140.6044 198.16" fill="none" stroke="#aaa" stroke-opacity="0.5" stroke-width="0.5"></path><path d="M173.2538 148.3509L235.5215 161.1742" fill="none" stroke="#aaa" stroke-opacity="0.5" stroke-width="0.5"></path><path d="M251.5421 99.5948L235.5215 161.1742" fill="none" stroke="#aaa" stroke-opacity="0.5" stroke-width="0.5"></path><path d="M139.7972 54.9801L173.2538 148.3509" fill="none" stroke="#aaa" stroke-opacity="0.5" stroke-width="0.5"></path><path d="M185.1509 28.6878L305.1589 150.698" fill="none" stroke="#aaa" stroke-opacity="0.5" stroke-width="0.5"></path><path d="M113.7559 150.6603L187.0377 219.3272" fill="none" stroke="#aaa" stroke-opacity="0.5" stroke-width="0.5"></path><path d="M305.1589 150.698L116.0915 100.3695" fill="none" stroke="#aaa" stroke-opacity="0.5" stroke-width="0.5"></path><path d="M309.6442 99.8198L187.0377 219.3272" fill="none" stroke="#aaa" stroke-opacity="0.5" stroke-width="0.5"></path><path d="M187.0377 219.3272L140.6044 198.16" fill="none" stroke="#aaa" stroke-opacity="0.5" stroke-width="0.5"></path><path d="M113.7559 150.6603L282.1728 195.4417" fill="none" stroke="#aaa" stroke-opacity="0.5" stroke-width="0.5"></path><path d="M188.0581 88.6672L279.9261 51.7441" fill="none" stroke="#aaa" stroke-opacity="0.5" stroke-width="0.5"></path><path d="M234.1033 29.6157L187.0377 219.3272" fill="none" stroke="#aaa" stroke-opacity="0.5" stroke-width="0.5"></path><path d="M309.6442 99.8198L282.1728 195.4417" fill="none" stroke="#aaa" stroke-opacity="0.5" stroke-width="0.5"></path><path d="M188.0581 88.6672L116.0915 100.3695" fill="none" stroke="#aaa" stroke-opacity="0.5" stroke-width="0.5"></path><path d="M187.0377 219.3272L235.5215 161.1742" fill="none" stroke="#aaa" stroke-opacity="0.5" stroke-width="0.5"></path><path d="M140.6044 198.16L235.5215 161.1742" fill="none" stroke="#aaa" stroke-opacity="0.5" stroke-width="0.5"></path><path d="M185.1509 28.6878L139.7972 54.9801" fill="none" stroke="#aaa" stroke-opacity="0.5" stroke-width="0.5"></path><path d="M113.7559 150.5L305.1589 150.5" fill="none" stroke="#aaa" stroke-opacity="0.5" stroke-width="0.5"></path><path d="M305.1589 150.698L309.6442 99.8198" fill="none" stroke="#aaa" stroke-opacity="0.5" stroke-width="0.5"></path><path d="M139.7972 54.9801L279.9261 51.7441" fill="none" stroke="#aaa" stroke-opacity="0.5" stroke-width="0.5"></path><path d="M139.7972 54.9801L116.0915 100.3695" fill="none" stroke="#aaa" stroke-opacity="0.5" stroke-width="0.5"></path><path d="M173.2538 148.3509L282.1728 195.4417" fill="none" stroke="#aaa" stroke-opacity="0.5" stroke-width="0.5"></path><path d="M251.5421 99.5948L187.0377 219.3272" fill="none" stroke="#aaa" stroke-opacity="0.5" stroke-width="0.5"></path><path d="M113.7559 150.6603L173.2538 148.3509" fill="none" stroke="#aaa" stroke-opacity="0.5" stroke-width="0.5"></path><path d="M309.6442 99.8198L173.2538 148.3509" fill="none" stroke="#aaa" stroke-opacity="0.5" stroke-width="0.5"></path><path d="M251.5421 99.5948L282.1728 195.4417" fill="none" stroke="#aaa" stroke-opacity="0.5" stroke-width="0.5"></path><path d="M185.1509 28.6878L116.0915 100.3695" fill="none" stroke="#aaa" stroke-opacity="0.5" stroke-width="0.5"></path><path d="M113.7559 150.6603L139.7972 54.9801" fill="none" stroke="#aaa" stroke-opacity="0.5" stroke-width="0.5"></path><path d="M309.6442 99.8198L139.7972 54.9801" fill="none" stroke="#aaa" stroke-opacity="0.5" stroke-width="0.5"></path><path d="M113.7559 150.6603L185.1509 28.6878" fill="none" stroke="#aaa" stroke-opacity="0.5" stroke-width="0.5"></path><path d="M140.6044 198.16L282.1728 195.4417" fill="none" stroke="#aaa" stroke-opacity="0.5" stroke-width="0.5"></path><path d="M113.7559 150.6603L279.9261 51.7441" fill="none" stroke="#aaa" stroke-opacity="0.5" stroke-width="0.5"></path><path d="M309.6442 99.8198L279.9261 51.7441" fill="none" stroke="#aaa" stroke-opacity="0.5" stroke-width="0.5"></path><path d="M113.7559 150.6603L116.0915 100.3695" fill="none" stroke="#aaa" stroke-opacity="0.5" stroke-width="0.5"></path><path d="M236.1956 222.7087L282.1728 195.4417" fill="none" stroke="#aaa" stroke-opacity="0.5" stroke-width="0.5"></path><path d="M309.6442 99.8198L116.0915 100.3695" fill="none" stroke="#aaa" stroke-opacity="0.5" stroke-width="0.5"></path><path d="M282.1728 195.4417L116.0915 100.3695" fill="none" stroke="#aaa" stroke-opacity="0.5" stroke-width="0.5"></path><path d="M185.1509 28.6878L309.6442 99.8198" fill="none" stroke="#aaa" stroke-opacity="0.5" stroke-width="0.5"></path><path d="M234.1033 29.6157L116.0915 100.3695" fill="none" stroke="#aaa" stroke-opacity="0.5" stroke-width="0.5"></path><path d="M1 0A1 1 0 1 1 1 -0.0001" fill="#5470c6" transform="matrix(18,0,0,18,305.1589,150.698)"></path><path d="M1 0A1 1 0 1 1 1 -0.0001" fill="#5470c6" transform="matrix(18,0,0,18,282.1728,195.4417)"></path><path d="M1 0A1 1 0 1 1 1 -0.0001" fill="#5470c6" transform="matrix(18,0,0,18,235.5215,161.1742)"></path><path d="M1 0A1 1 0 1 1 1 -0.0001" fill="#5470c6" transform="matrix(18,0,0,18,236.1956,222.7087)"></path><path d="M1 0A1 1 0 1 1 1 -0.0001" fill="#5470c6" transform="matrix(18,0,0,18,187.0377,219.3272)"></path><path d="M1 0A1 1 0 1 1 1 -0.0001" fill="#5470c6" transform="matrix(18,0,0,18,173.2538,148.3509)"></path><path d="M1 0A1 1 0 1 1 1 -0.0001" fill="#5470c6" transform="matrix(18,0,0,18,140.6044,198.16)"></path><path d="M1 0A1 1 0 1 1 1 -0.0001" fill="#5470c6" transform="matrix(18,0,0,18,113.7559,150.6603)"></path><path d="M1 0A1 1 0 1 1 1 -0.0001" fill="#5470c6" transform="matrix(18,0,0,18,116.0915,100.3695)"></path><path d="M1 0A1 1 0 1 1 1 -0.0001" fill="#5470c6" transform="matrix(18,0,0,18,139.7972,54.9801)"></path><path d="M1 0A1 1 0 1 1 1 -0.0001" fill="#5470c6" transform="matrix(18,0,0,18,188.0581,88.6672)"></path><path d="M1 0A1 1 0 1 1 1 -0.0001" fill="#5470c6" transform="matrix(18,0,0,18,185.1509,28.6878)"></path><path d="M1 0A1 1 0 1 1 1 -0.0001" fill="#5470c6" transform="matrix(18,0,0,18,234.1033,29.6157)"></path><path d="M1 0A1 1 0 1 1 1 -0.0001" fill="#5470c6" transform="matrix(18,0,0,18,279.9261,51.7441)"></path><path d="M1 0A1 1 0 1 1 1 -0.0001" fill="#5470c6" transform="matrix(18,0,0,18,309.6442,99.8198)"></path><path d="M1 0A1 1 0 1 1 1 -0.0001" fill="#5470c6" transform="matrix(18,0,0,18,251.5421,99.5948)"></path><path d="M-32.4922 -5l64.9844 0l0 33l-64.9844 0Z" fill="rgb(0,0,0)" fill-opacity="0" stroke="#ccc" stroke-width="0" transform="translate(237.5 5)"></path><text dominant-baseline="central" fill="#333" style="font-size:23px;font-family:sans-serif;font-weight:bolder;" text-anchor="middle" transform="translate(237.5 5)" y="11.5">C205</text></g></svg>