<svg baseprofile="full" height="250" style="position:absolute;left:0;top:0;user-select:none" version="1.1" width="475" xmlns="http://www.w3.org/2000/svg" xmlns:xlink="http://www.w3.org/1999/xlink"><rect fill="none" height="250" id="0" width="475" x="0" y="0"></rect><g><path d="M162.1255 39.8385L123.4076 75.3942" fill="none" stroke="#aaa" stroke-opacity="0.5" stroke-width="0.5"></path><path d="M301.8131 172.0181L294.702 73.54" fill="none" stroke="#aaa" stroke-opacity="0.5" stroke-width="0.5"></path><path d="M208.6936 27.8445L112.0635 128.5335" fill="none" stroke="#aaa" stroke-opacity="0.5" stroke-width="0.5"></path><path d="M163.4692 213.1392L112.0635 128.5335" fill="none" stroke="#aaa" stroke-opacity="0.5" stroke-width="0.5"></path><path d="M162.1255 39.8385L294.702 73.54" fill="none" stroke="#aaa" stroke-opacity="0.5" stroke-width="0.5"></path><path d="M170.113 103.3146L250.0341 148.9" fill="none" stroke="#aaa" stroke-opacity="0.5" stroke-width="0.5"></path><path d="M163.4692 213.1392L262.6497 209.1952" fill="none" stroke="#aaa" stroke-opacity="0.5" stroke-width="0.5"></path><path d="M231.4504 89.5933L208.6936 27.8445" fill="none" stroke="#aaa" stroke-opacity="0.5" stroke-width="0.5"></path><path d="M125.9914 175.6584L112.0635 128.5335" fill="none" stroke="#aaa" stroke-opacity="0.5" stroke-width="0.5"></path><path d="M125.9914 175.6584L262.6497 209.1952" fill="none" stroke="#aaa" stroke-opacity="0.5" stroke-width="0.5"></path><path d="M170.113 103.3146L188.9545 163.5771" fill="none" stroke="#aaa" stroke-opacity="0.5" stroke-width="0.5"></path><path d="M231.4504 89.5933L301.8131 172.0181" fill="none" stroke="#aaa" stroke-opacity="0.5" stroke-width="0.5"></path><path d="M301.8131 172.0181L208.6936 27.8445" fill="none" stroke="#aaa" stroke-opacity="0.5" stroke-width="0.5"></path><path d="M258.6728 36.4168L231.4504 89.5933" fill="none" stroke="#aaa" stroke-opacity="0.5" stroke-width="0.5"></path><path d="M188.9545 163.5771L162.1255 39.8385" fill="none" stroke="#aaa" stroke-opacity="0.5" stroke-width="0.5"></path><path d="M170.113 103.3146L112.0635 128.5335" fill="none" stroke="#aaa" stroke-opacity="0.5" stroke-width="0.5"></path><path d="M162.1255 39.8385L208.6936 27.8445" fill="none" stroke="#aaa" stroke-opacity="0.5" stroke-width="0.5"></path><path d="M231.4504 89.5933L250.0341 148.9" fill="none" stroke="#aaa" stroke-opacity="0.5" stroke-width="0.5"></path><path d="M309.0642 119.083L231.4504 89.5933" fill="none" stroke="#aaa" stroke-opacity="0.5" stroke-width="0.5"></path><path d="M258.6728 36.4168L162.1255 39.8385" fill="none" stroke="#aaa" stroke-opacity="0.5" stroke-width="0.5"></path><path d="M250.0341 148.9L112.0635 128.5335" fill="none" stroke="#aaa" stroke-opacity="0.5" stroke-width="0.5"></path><path d="M258.6728 36.4168L294.702 73.54" fill="none" stroke="#aaa" stroke-opacity="0.5" stroke-width="0.5"></path><path d="M250.0341 148.9L262.6497 209.1952" fill="none" stroke="#aaa" stroke-opacity="0.5" stroke-width="0.5"></path><path d="M163.4692 213.1392L162.1255 39.8385" fill="none" stroke="#aaa" stroke-opacity="0.5" stroke-width="0.5"></path><path d="M208.6936 27.8445L123.4076 75.3942" fill="none" stroke="#aaa" stroke-opacity="0.5" stroke-width="0.5"></path><path d="M309.0642 119.083L123.4076 75.3942" fill="none" stroke="#aaa" stroke-opacity="0.5" stroke-width="0.5"></path><path d="M231.4504 89.5933L112.0635 128.5335" fill="none" stroke="#aaa" stroke-opacity="0.5" stroke-width="0.5"></path><path d="M208.6936 27.8445L294.702 73.54" fill="none" stroke="#aaa" stroke-opacity="0.5" stroke-width="0.5"></path><path d="M309.0642 119.083L294.702 73.54" fill="none" stroke="#aaa" stroke-opacity="0.5" stroke-width="0.5"></path><path d="M170.113 103.3146L231.4504 89.5933" fill="none" stroke="#aaa" stroke-opacity="0.5" stroke-width="0.5"></path><path d="M125.9914 175.6584L162.1255 39.8385" fill="none" stroke="#aaa" stroke-opacity="0.5" stroke-width="0.5"></path><path d="M231.4504 89.5933L262.6497 209.1952" fill="none" stroke="#aaa" stroke-opacity="0.5" stroke-width="0.5"></path><path d="M188.9545 163.5771L250.0341 148.9" fill="none" stroke="#aaa" stroke-opacity="0.5" stroke-width="0.5"></path><path d="M258.6728 36.4168L208.6936 27.8445" fill="none" stroke="#aaa" stroke-opacity="0.5" stroke-width="0.5"></path><path d="M170.113 103.3146L162.1255 39.8385" fill="none" stroke="#aaa" stroke-opacity="0.5" stroke-width="0.5"></path><path d="M170.113 103.3146L123.4076 75.3942" fill="none" stroke="#aaa" stroke-opacity="0.5" stroke-width="0.5"></path><path d="M309.0642 119.083L214.8094 223.9538" fill="none" stroke="#aaa" stroke-opacity="0.5" stroke-width="0.5"></path><path d="M162.1255 39.8385L262.6497 209.1952" fill="none" stroke="#aaa" stroke-opacity="0.5" stroke-width="0.5"></path><path d="M163.4692 213.1392L301.8131 172.0181" fill="none" stroke="#aaa" stroke-opacity="0.5" stroke-width="0.5"></path><path d="M170.113 103.3146L294.702 73.54" fill="none" stroke="#aaa" stroke-opacity="0.5" stroke-width="0.5"></path><path d="M309.0642 119.083L208.6936 27.8445" fill="none" stroke="#aaa" stroke-opacity="0.5" stroke-width="0.5"></path><path d="M163.4692 213.1392L125.9914 175.6584" fill="none" stroke="#aaa" stroke-opacity="0.5" stroke-width="0.5"></path><path d="M125.9914 175.6584L301.8131 172.0181" fill="none" stroke="#aaa" stroke-opacity="0.5" stroke-width="0.5"></path><path d="M170.113 103.3146L309.0642 119.083" fill="none" stroke="#aaa" stroke-opacity="0.5" stroke-width="0.5"></path><path d="M250.0341 148.9L123.4076 75.3942" fill="none" stroke="#aaa" stroke-opacity="0.5" stroke-width="0.5"></path><path d="M163.4692 213.1392L250.0341 148.9" fill="none" stroke="#aaa" stroke-opacity="0.5" stroke-width="0.5"></path><path d="M294.702 73.54L112.0635 128.5335" fill="none" stroke="#aaa" stroke-opacity="0.5" stroke-width="0.5"></path><path d="M250.0341 148.9L294.702 73.54" fill="none" stroke="#aaa" stroke-opacity="0.5" stroke-width="0.5"></path><path d="M170.113 103.3146L214.8094 223.9538" fill="none" stroke="#aaa" stroke-opacity="0.5" stroke-width="0.5"></path><path d="M231.4504 89.5933L162.1255 39.8385" fill="none" stroke="#aaa" stroke-opacity="0.5" stroke-width="0.5"></path><path d="M125.9914 175.6584L250.0341 148.9" fill="none" stroke="#aaa" stroke-opacity="0.5" stroke-width="0.5"></path><path d="M170.113 103.3146L208.6936 27.8445" fill="none" stroke="#aaa" stroke-opacity="0.5" stroke-width="0.5"></path><path d="M163.4692 213.1392L188.9545 163.5771" fill="none" stroke="#aaa" stroke-opacity="0.5" stroke-width="0.5"></path><path d="M214.8094 223.9538L301.8131 172.0181" fill="none" stroke="#aaa" stroke-opacity="0.5" stroke-width="0.5"></path><path d="M214.8094 223.9538L258.6728 36.4168" fill="none" stroke="#aaa" stroke-opacity="0.5" stroke-width="0.5"></path><path d="M214.8094 223.9538L125.9914 175.6584" fill="none" stroke="#aaa" stroke-opacity="0.5" stroke-width="0.5"></path><path d="M112.0635 128.5335L123.4076 75.3942" fill="none" stroke="#aaa" stroke-opacity="0.5" stroke-width="0.5"></path><path d="M125.9914 175.6584L188.9545 163.5771" fill="none" stroke="#aaa" stroke-opacity="0.5" stroke-width="0.5"></path><path d="M188.9545 163.5771L231.4504 89.5933" fill="none" stroke="#aaa" stroke-opacity="0.5" stroke-width="0.5"></path><path d="M309.0642 119.083L112.0635 128.5335" fill="none" stroke="#aaa" stroke-opacity="0.5" stroke-width="0.5"></path><path d="M214.8094 223.9538L250.0341 148.9" fill="none" stroke="#aaa" stroke-opacity="0.5" stroke-width="0.5"></path><path d="M208.6936 27.8445L262.6497 209.1952" fill="none" stroke="#aaa" stroke-opacity="0.5" stroke-width="0.5"></path><path d="M309.0642 119.083L262.6497 209.1952" fill="none" stroke="#aaa" stroke-opacity="0.5" stroke-width="0.5"></path><path d="M262.6497 209.1952L123.4076 75.3942" fill="none" stroke="#aaa" stroke-opacity="0.5" stroke-width="0.5"></path><path d="M188.9545 163.5771L123.4076 75.3942" fill="none" stroke="#aaa" stroke-opacity="0.5" stroke-width="0.5"></path><path d="M214.8094 223.9538L188.9545 163.5771" fill="none" stroke="#aaa" stroke-opacity="0.5" stroke-width="0.5"></path><path d="M188.9545 163.5771L294.702 73.54" fill="none" stroke="#aaa" stroke-opacity="0.5" stroke-width="0.5"></path><path d="M214.8094 223.9538L112.0635 128.5335" fill="none" stroke="#aaa" stroke-opacity="0.5" stroke-width="0.5"></path><path d="M163.4692 213.1392L231.4504 89.5933" fill="none" stroke="#aaa" stroke-opacity="0.5" stroke-width="0.5"></path><path d="M294.702 73.54L123.4076 75.3942" fill="none" stroke="#aaa" stroke-opacity="0.5" stroke-width="0.5"></path><path d="M258.6728 36.4168L123.4076 75.3942" fill="none" stroke="#aaa" stroke-opacity="0.5" stroke-width="0.5"></path><path d="M214.8094 223.9538L262.6497 209.1952" fill="none" stroke="#aaa" stroke-opacity="0.5" stroke-width="0.5"></path><path d="M170.113 103.3146L262.6497 209.1952" fill="none" stroke="#aaa" stroke-opacity="0.5" stroke-width="0.5"></path><path d="M301.8131 172.0181L250.0341 148.9" fill="none" stroke="#aaa" stroke-opacity="0.5" stroke-width="0.5"></path><path d="M125.9914 175.6584L231.4504 89.5933" fill="none" stroke="#aaa" stroke-opacity="0.5" stroke-width="0.5"></path><path d="M162.1255 39.8385L250.0341 148.9" fill="none" stroke="#aaa" stroke-opacity="0.5" stroke-width="0.5"></path><path d="M163.4692 213.1392L123.4076 75.3942" fill="none" stroke="#aaa" stroke-opacity="0.5" stroke-width="0.5"></path><path d="M188.9545 163.5771L208.6936 27.8445" fill="none" stroke="#aaa" stroke-opacity="0.5" stroke-width="0.5"></path><path d="M163.4692 213.1392L294.702 73.54" fill="none" stroke="#aaa" stroke-opacity="0.5" stroke-width="0.5"></path><path d="M309.0642 119.083L162.1255 39.8385" fill="none" stroke="#aaa" stroke-opacity="0.5" stroke-width="0.5"></path><path d="M125.9914 175.6584L123.4076 75.3942" fill="none" stroke="#aaa" stroke-opacity="0.5" stroke-width="0.5"></path><path d="M301.8131 172.0181L112.0635 128.5335" fill="none" stroke="#aaa" stroke-opacity="0.5" stroke-width="0.5"></path><path d="M188.9545 163.5771L301.8131 172.0181" fill="none" stroke="#aaa" stroke-opacity="0.5" stroke-width="0.5"></path><path d="M125.9914 175.6584L294.702 73.54" fill="none" stroke="#aaa" stroke-opacity="0.5" stroke-width="0.5"></path><path d="M163.4692 213.1392L309.0642 119.083" fill="none" stroke="#aaa" stroke-opacity="0.5" stroke-width="0.5"></path><path d="M214.8094 223.9538L231.4504 89.5933" fill="none" stroke="#aaa" stroke-opacity="0.5" stroke-width="0.5"></path><path d="M162.1255 39.8385L112.0635 128.5335" fill="none" stroke="#aaa" stroke-opacity="0.5" stroke-width="0.5"></path><path d="M301.8131 172.0181L262.6497 209.1952" fill="none" stroke="#aaa" stroke-opacity="0.5" stroke-width="0.5"></path><path d="M163.4692 213.1392L214.8094 223.9538" fill="none" stroke="#aaa" stroke-opacity="0.5" stroke-width="0.5"></path><path d="M258.6728 36.4168L301.8131 172.0181" fill="none" stroke="#aaa" stroke-opacity="0.5" stroke-width="0.5"></path><path d="M163.4692 213.1392L170.113 103.3146" fill="none" stroke="#aaa" stroke-opacity="0.5" stroke-width="0.5"></path><path d="M163.4692 213.1392L208.6936 27.8445" fill="none" stroke="#aaa" stroke-opacity="0.5" stroke-width="0.5"></path><path d="M214.8094 223.9538L162.1255 39.8385" fill="none" stroke="#aaa" stroke-opacity="0.5" stroke-width="0.5"></path><path d="M258.6728 36.4168L125.9914 175.6584" fill="none" stroke="#aaa" stroke-opacity="0.5" stroke-width="0.5"></path><path d="M214.8094 223.9538L123.4076 75.3942" fill="none" stroke="#aaa" stroke-opacity="0.5" stroke-width="0.5"></path><path d="M112.0635 128.5335L262.6497 209.1952" fill="none" stroke="#aaa" stroke-opacity="0.5" stroke-width="0.5"></path><path d="M309.0642 119.083L301.8131 172.0181" fill="none" stroke="#aaa" stroke-opacity="0.5" stroke-width="0.5"></path><path d="M214.8094 223.9538L294.702 73.54" fill="none" stroke="#aaa" stroke-opacity="0.5" stroke-width="0.5"></path><path d="M125.9914 175.6584L208.6936 27.8445" fill="none" stroke="#aaa" stroke-opacity="0.5" stroke-width="0.5"></path><path d="M309.0642 119.083L258.6728 36.4168" fill="none" stroke="#aaa" stroke-opacity="0.5" stroke-width="0.5"></path><path d="M258.6728 36.4168L250.0341 148.9" fill="none" stroke="#aaa" stroke-opacity="0.5" stroke-width="0.5"></path><path d="M163.4692 213.1392L258.6728 36.4168" fill="none" stroke="#aaa" stroke-opacity="0.5" stroke-width="0.5"></path><path d="M309.0642 119.083L125.9914 175.6584" fill="none" stroke="#aaa" stroke-opacity="0.5" stroke-width="0.5"></path><path d="M188.9545 163.5771L112.0635 128.5335" fill="none" stroke="#aaa" stroke-opacity="0.5" stroke-width="0.5"></path><path d="M231.4504 89.5933L123.4076 75.3942" fill="none" stroke="#aaa" stroke-opacity="0.5" stroke-width="0.5"></path><path d="M208.6936 27.8445L250.0341 148.9" fill="none" stroke="#aaa" stroke-opacity="0.5" stroke-width="0.5"></path><path d="M309.0642 119.083L250.0341 148.9" fill="none" stroke="#aaa" stroke-opacity="0.5" stroke-width="0.5"></path><path d="M188.9545 163.5771L262.6497 209.1952" fill="none" stroke="#aaa" stroke-opacity="0.5" stroke-width="0.5"></path><path d="M258.6728 36.4168L188.9545 163.5771" fill="none" stroke="#aaa" stroke-opacity="0.5" stroke-width="0.5"></path><path d="M231.4504 89.5933L294.702 73.54" fill="none" stroke="#aaa" stroke-opacity="0.5" stroke-width="0.5"></path><path d="M301.8131 172.0181L162.1255 39.8385" fill="none" stroke="#aaa" stroke-opacity="0.5" stroke-width="0.5"></path><path d="M258.6728 36.4168L112.0635 128.5335" fill="none" stroke="#aaa" stroke-opacity="0.5" stroke-width="0.5"></path><path d="M170.113 103.3146L301.8131 172.0181" fill="none" stroke="#aaa" stroke-opacity="0.5" stroke-width="0.5"></path><path d="M301.8131 172.0181L123.4076 75.3942" fill="none" stroke="#aaa" stroke-opacity="0.5" stroke-width="0.5"></path><path d="M170.113 103.3146L258.6728 36.4168" fill="none" stroke="#aaa" stroke-opacity="0.5" stroke-width="0.5"></path><path d="M214.8094 223.9538L208.6936 27.8445" fill="none" stroke="#aaa" stroke-opacity="0.5" stroke-width="0.5"></path><path d="M294.702 73.54L262.6497 209.1952" fill="none" stroke="#aaa" stroke-opacity="0.5" stroke-width="0.5"></path><path d="M170.113 103.3146L125.9914 175.6584" fill="none" stroke="#aaa" stroke-opacity="0.5" stroke-width="0.5"></path><path d="M258.6728 36.4168L262.6497 209.1952" fill="none" stroke="#aaa" stroke-opacity="0.5" stroke-width="0.5"></path><path d="M309.0642 119.083L188.9545 163.5771" fill="none" stroke="#aaa" stroke-opacity="0.5" stroke-width="0.5"></path><path d="M1 0A1 1 0 1 1 1 -0.0001" fill="#5470c6" transform="matrix(18,0,0,18,309.0642,119.083)"></path><path d="M1 0A1 1 0 1 1 1 -0.0001" fill="#5470c6" transform="matrix(18,0,0,18,301.8131,172.0181)"></path><path d="M1 0A1 1 0 1 1 1 -0.0001" fill="#5470c6" transform="matrix(18,0,0,18,262.6497,209.1952)"></path><path d="M1 0A1 1 0 1 1 1 -0.0001" fill="#5470c6" transform="matrix(18,0,0,18,214.8094,223.9538)"></path><path d="M1 0A1 1 0 1 1 1 -0.0001" fill="#5470c6" transform="matrix(18,0,0,18,188.9545,163.5771)"></path><path d="M1 0A1 1 0 1 1 1 -0.0001" fill="#5470c6" transform="matrix(18,0,0,18,163.4692,213.1392)"></path><path d="M1 0A1 1 0 1 1 1 -0.0001" fill="#5470c6" transform="matrix(18,0,0,18,125.9914,175.6584)"></path><path d="M1 0A1 1 0 1 1 1 -0.0001" fill="#5470c6" transform="matrix(18,0,0,18,170.113,103.3146)"></path><path d="M1 0A1 1 0 1 1 1 -0.0001" fill="#5470c6" transform="matrix(18,0,0,18,112.0635,128.5335)"></path><path d="M1 0A1 1 0 1 1 1 -0.0001" fill="#5470c6" transform="matrix(18,0,0,18,123.4076,75.3942)"></path><path d="M1 0A1 1 0 1 1 1 -0.0001" fill="#5470c6" transform="matrix(18,0,0,18,162.1255,39.8385)"></path><path d="M1 0A1 1 0 1 1 1 -0.0001" fill="#5470c6" transform="matrix(18,0,0,18,231.4504,89.5933)"></path><path d="M1 0A1 1 0 1 1 1 -0.0001" fill="#5470c6" transform="matrix(18,0,0,18,208.6936,27.8445)"></path><path d="M1 0A1 1 0 1 1 1 -0.0001" fill="#5470c6" transform="matrix(18,0,0,18,258.6728,36.4168)"></path><path d="M1 0A1 1 0 1 1 1 -0.0001" fill="#5470c6" transform="matrix(18,0,0,18,294.702,73.54)"></path><path d="M1 0A1 1 0 1 1 1 -0.0001" fill="#5470c6" transform="matrix(18,0,0,18,250.0341,148.9)"></path><path d="M-32.4922 -5l64.9844 0l0 33l-64.9844 0Z" fill="rgb(0,0,0)" fill-opacity="0" stroke="#ccc" stroke-width="0" transform="translate(237.5 5)"></path><text dominant-baseline="central" fill="#333" style="font-size:23px;font-family:sans-serif;font-weight:bolder;" text-anchor="middle" transform="translate(237.5 5)" y="11.5">C206</text></g></svg>