<svg baseprofile="full" height="250" style="position:absolute;left:0;top:0;user-select:none" version="1.1" width="475" xmlns="http://www.w3.org/2000/svg" xmlns:xlink="http://www.w3.org/1999/xlink"><rect fill="none" height="250" id="0" width="475" x="0" y="0"></rect><g><path d="M122.6585 169.7218L300.403 173.978" fill="none" stroke="#aaa" stroke-opacity="0.5" stroke-width="0.5"></path><path d="M122.6585 169.7218L258.9225 129.279" fill="none" stroke="#aaa" stroke-opacity="0.5" stroke-width="0.5"></path><path d="M122.6585 169.7218L212.2313 225.4217" fill="none" stroke="#aaa" stroke-opacity="0.5" stroke-width="0.5"></path><path d="M122.6585 169.7218L134.7125 58.3047" fill="none" stroke="#aaa" stroke-opacity="0.5" stroke-width="0.5"></path><path d="M163.5999 109.3173L300.403 173.978" fill="none" stroke="#aaa" stroke-opacity="0.5" stroke-width="0.5"></path><path d="M163.5999 109.3173L258.9225 129.279" fill="none" stroke="#aaa" stroke-opacity="0.5" stroke-width="0.5"></path><path d="M181.747 28.8599L300.403 173.978" fill="none" stroke="#aaa" stroke-opacity="0.5" stroke-width="0.5"></path><path d="M163.5999 109.3173L212.2313 225.4217" fill="none" stroke="#aaa" stroke-opacity="0.5" stroke-width="0.5"></path><path d="M163.5999 109.3173L198.8309 164.3171" fill="none" stroke="#aaa" stroke-opacity="0.5" stroke-width="0.5"></path><path d="M163.5999 109.3173L134.7125 58.3047" fill="none" stroke="#aaa" stroke-opacity="0.5" stroke-width="0.5"></path><path d="M289.4461 61.5055L242.2264 26.6124" fill="none" stroke="#aaa" stroke-opacity="0.5" stroke-width="0.5"></path><path d="M289.4461 61.5055L181.747 28.8599" fill="none" stroke="#aaa" stroke-opacity="0.5" stroke-width="0.5"></path><path d="M134.7125 58.3047L242.2264 26.6124" fill="none" stroke="#aaa" stroke-opacity="0.5" stroke-width="0.5"></path><path d="M134.7125 58.3047L181.747 28.8599" fill="none" stroke="#aaa" stroke-opacity="0.5" stroke-width="0.5"></path><path d="M289.4461 61.5055L122.6585 169.7218" fill="none" stroke="#aaa" stroke-opacity="0.5" stroke-width="0.5"></path><path d="M198.8309 164.3171L300.403 173.978" fill="none" stroke="#aaa" stroke-opacity="0.5" stroke-width="0.5"></path><path d="M157.4366 211.0623L242.2264 26.6124" fill="none" stroke="#aaa" stroke-opacity="0.5" stroke-width="0.5"></path><path d="M157.4366 211.0623L181.747 28.8599" fill="none" stroke="#aaa" stroke-opacity="0.5" stroke-width="0.5"></path><path d="M198.8309 164.3171L212.2313 225.4217" fill="none" stroke="#aaa" stroke-opacity="0.5" stroke-width="0.5"></path><path d="M221.3566 77.0959L242.2264 26.6124" fill="none" stroke="#aaa" stroke-opacity="0.5" stroke-width="0.5"></path><path d="M221.3566 77.0959L181.747 28.8599" fill="none" stroke="#aaa" stroke-opacity="0.5" stroke-width="0.5"></path><path d="M122.6585 169.7218L314.2491 114.8563" fill="none" stroke="#aaa" stroke-opacity="0.5" stroke-width="0.5"></path><path d="M122.6585 169.7218L157.4366 211.0623" fill="none" stroke="#aaa" stroke-opacity="0.5" stroke-width="0.5"></path><path d="M212.2313 225.4217L260.8192 208.9856" fill="none" stroke="#aaa" stroke-opacity="0.5" stroke-width="0.5"></path><path d="M163.5999 109.3173L314.2491 114.8563" fill="none" stroke="#aaa" stroke-opacity="0.5" stroke-width="0.5"></path><path d="M181.747 28.8599L314.2491 114.8563" fill="none" stroke="#aaa" stroke-opacity="0.5" stroke-width="0.5"></path><path d="M163.5999 109.3173L157.4366 211.0623" fill="none" stroke="#aaa" stroke-opacity="0.5" stroke-width="0.5"></path><path d="M289.4461 61.5055L258.9225 129.279" fill="none" stroke="#aaa" stroke-opacity="0.5" stroke-width="0.5"></path><path d="M289.4461 61.5055L212.2313 225.4217" fill="none" stroke="#aaa" stroke-opacity="0.5" stroke-width="0.5"></path><path d="M134.7125 58.3047L258.9225 129.279" fill="none" stroke="#aaa" stroke-opacity="0.5" stroke-width="0.5"></path><path d="M157.4366 211.0623L258.9225 129.279" fill="none" stroke="#aaa" stroke-opacity="0.5" stroke-width="0.5"></path><path d="M212.2313 225.4217L300.403 173.978" fill="none" stroke="#aaa" stroke-opacity="0.5" stroke-width="0.5"></path><path d="M289.4461 61.5055L134.7125 58.3047" fill="none" stroke="#aaa" stroke-opacity="0.5" stroke-width="0.5"></path><path d="M157.4366 211.0623L134.7125 58.3047" fill="none" stroke="#aaa" stroke-opacity="0.5" stroke-width="0.5"></path><path d="M198.8309 164.3171L314.2491 114.8563" fill="none" stroke="#aaa" stroke-opacity="0.5" stroke-width="0.5"></path><path d="M221.3566 77.0959L163.5999 109.3173" fill="none" stroke="#aaa" stroke-opacity="0.5" stroke-width="0.5"></path><path d="M198.8309 164.3171L157.4366 211.0623" fill="none" stroke="#aaa" stroke-opacity="0.5" stroke-width="0.5"></path><path d="M221.3566 77.0959L258.9225 129.279" fill="none" stroke="#aaa" stroke-opacity="0.5" stroke-width="0.5"></path><path d="M258.9225 129.279L242.2264 26.6124" fill="none" stroke="#aaa" stroke-opacity="0.5" stroke-width="0.5"></path><path d="M258.9225 129.279L181.747 28.8599" fill="none" stroke="#aaa" stroke-opacity="0.5" stroke-width="0.5"></path><path d="M221.3566 77.0959L212.2313 225.4217" fill="none" stroke="#aaa" stroke-opacity="0.5" stroke-width="0.5"></path><path d="M221.3566 77.0959L134.7125 58.3047" fill="none" stroke="#aaa" stroke-opacity="0.5" stroke-width="0.5"></path><path d="M108.2485 115.6826L122.6585 169.7218" fill="none" stroke="#aaa" stroke-opacity="0.5" stroke-width="0.5"></path><path d="M108.2485 115.6826L260.8192 208.9856" fill="none" stroke="#aaa" stroke-opacity="0.5" stroke-width="0.5"></path><path d="M108.2485 115.6826L163.5999 109.3173" fill="none" stroke="#aaa" stroke-opacity="0.5" stroke-width="0.5"></path><path d="M212.2313 225.4217L314.2491 114.8563" fill="none" stroke="#aaa" stroke-opacity="0.5" stroke-width="0.5"></path><path d="M108.2485 115.6826L300.403 173.978" fill="none" stroke="#aaa" stroke-opacity="0.5" stroke-width="0.5"></path><path d="M212.2313 225.4217L157.4366 211.0623" fill="none" stroke="#aaa" stroke-opacity="0.5" stroke-width="0.5"></path><path d="M314.2491 114.8563L260.8192 208.9856" fill="none" stroke="#aaa" stroke-opacity="0.5" stroke-width="0.5"></path><path d="M108.2485 115.6826L198.8309 164.3171" fill="none" stroke="#aaa" stroke-opacity="0.5" stroke-width="0.5"></path><path d="M242.2264 26.6124L300.403 173.978" fill="none" stroke="#aaa" stroke-opacity="0.5" stroke-width="0.5"></path><path d="M221.3566 77.0959L157.4366 211.0623" fill="none" stroke="#aaa" stroke-opacity="0.5" stroke-width="0.5"></path><path d="M314.2491 114.8563L300.403 173.978" fill="none" stroke="#aaa" stroke-opacity="0.5" stroke-width="0.5"></path><path d="M122.6585 169.7218L181.747 28.8599" fill="none" stroke="#aaa" stroke-opacity="0.5" stroke-width="0.5"></path><path d="M122.6585 169.7218L260.8192 208.9856" fill="none" stroke="#aaa" stroke-opacity="0.5" stroke-width="0.5"></path><path d="M163.5999 109.3173L181.747 28.8599" fill="none" stroke="#aaa" stroke-opacity="0.5" stroke-width="0.5"></path><path d="M181.747 28.8599L242.2264 26.6124" fill="none" stroke="#aaa" stroke-opacity="0.5" stroke-width="0.5"></path><path d="M163.5999 109.3173L122.6585 169.7218" fill="none" stroke="#aaa" stroke-opacity="0.5" stroke-width="0.5"></path><path d="M163.5999 109.3173L260.8192 208.9856" fill="none" stroke="#aaa" stroke-opacity="0.5" stroke-width="0.5"></path><path d="M198.8309 164.3171L181.747 28.8599" fill="none" stroke="#aaa" stroke-opacity="0.5" stroke-width="0.5"></path><path d="M108.2485 115.6826L314.2491 114.8563" fill="none" stroke="#aaa" stroke-opacity="0.5" stroke-width="0.5"></path><path d="M198.8309 164.3171L122.6585 169.7218" fill="none" stroke="#aaa" stroke-opacity="0.5" stroke-width="0.5"></path><path d="M108.2485 115.6826L157.4366 211.0623" fill="none" stroke="#aaa" stroke-opacity="0.5" stroke-width="0.5"></path><path d="M198.8309 164.3171L260.8192 208.9856" fill="none" stroke="#aaa" stroke-opacity="0.5" stroke-width="0.5"></path><path d="M108.2485 115.6826L289.4461 61.5055" fill="none" stroke="#aaa" stroke-opacity="0.5" stroke-width="0.5"></path><path d="M108.2485 115.6826L221.3566 77.0959" fill="none" stroke="#aaa" stroke-opacity="0.5" stroke-width="0.5"></path><path d="M198.8309 164.3171L258.9225 129.279" fill="none" stroke="#aaa" stroke-opacity="0.5" stroke-width="0.5"></path><path d="M289.4461 61.5055L260.8192 208.9856" fill="none" stroke="#aaa" stroke-opacity="0.5" stroke-width="0.5"></path><path d="M212.2313 225.4217L242.2264 26.6124" fill="none" stroke="#aaa" stroke-opacity="0.5" stroke-width="0.5"></path><path d="M212.2313 225.4217L181.747 28.8599" fill="none" stroke="#aaa" stroke-opacity="0.5" stroke-width="0.5"></path><path d="M134.7125 58.3047L260.8192 208.9856" fill="none" stroke="#aaa" stroke-opacity="0.5" stroke-width="0.5"></path><path d="M157.4366 211.0623L260.8192 208.9856" fill="none" stroke="#aaa" stroke-opacity="0.5" stroke-width="0.5"></path><path d="M198.8309 164.3171L134.7125 58.3047" fill="none" stroke="#aaa" stroke-opacity="0.5" stroke-width="0.5"></path><path d="M289.4461 61.5055L163.5999 109.3173" fill="none" stroke="#aaa" stroke-opacity="0.5" stroke-width="0.5"></path><path d="M289.4461 61.5055L300.403 173.978" fill="none" stroke="#aaa" stroke-opacity="0.5" stroke-width="0.5"></path><path d="M134.7125 58.3047L300.403 173.978" fill="none" stroke="#aaa" stroke-opacity="0.5" stroke-width="0.5"></path><path d="M221.3566 77.0959L122.6585 169.7218" fill="none" stroke="#aaa" stroke-opacity="0.5" stroke-width="0.5"></path><path d="M289.4461 61.5055L198.8309 164.3171" fill="none" stroke="#aaa" stroke-opacity="0.5" stroke-width="0.5"></path><path d="M157.4366 211.0623L300.403 173.978" fill="none" stroke="#aaa" stroke-opacity="0.5" stroke-width="0.5"></path><path d="M221.3566 77.0959L260.8192 208.9856" fill="none" stroke="#aaa" stroke-opacity="0.5" stroke-width="0.5"></path><path d="M221.3566 77.0959L300.403 173.978" fill="none" stroke="#aaa" stroke-opacity="0.5" stroke-width="0.5"></path><path d="M212.2313 225.4217L258.9225 129.279" fill="none" stroke="#aaa" stroke-opacity="0.5" stroke-width="0.5"></path><path d="M221.3566 77.0959L198.8309 164.3171" fill="none" stroke="#aaa" stroke-opacity="0.5" stroke-width="0.5"></path><path d="M212.2313 225.4217L134.7125 58.3047" fill="none" stroke="#aaa" stroke-opacity="0.5" stroke-width="0.5"></path><path d="M108.2485 115.6826L242.2264 26.6124" fill="none" stroke="#aaa" stroke-opacity="0.5" stroke-width="0.5"></path><path d="M108.2485 115.6826L181.747 28.8599" fill="none" stroke="#aaa" stroke-opacity="0.5" stroke-width="0.5"></path><path d="M258.9225 129.279L260.8192 208.9856" fill="none" stroke="#aaa" stroke-opacity="0.5" stroke-width="0.5"></path><path d="M289.4461 61.5055L314.2491 114.8563" fill="none" stroke="#aaa" stroke-opacity="0.5" stroke-width="0.5"></path><path d="M134.7125 58.3047L314.2491 114.8563" fill="none" stroke="#aaa" stroke-opacity="0.5" stroke-width="0.5"></path><path d="M242.2264 26.6124L260.8192 208.9856" fill="none" stroke="#aaa" stroke-opacity="0.5" stroke-width="0.5"></path><path d="M157.4366 211.0623L314.2491 114.8563" fill="none" stroke="#aaa" stroke-opacity="0.5" stroke-width="0.5"></path><path d="M289.4461 61.5055L157.4366 211.0623" fill="none" stroke="#aaa" stroke-opacity="0.5" stroke-width="0.5"></path><path d="M314.2491 114.8563L242.2264 26.6124" fill="none" stroke="#aaa" stroke-opacity="0.5" stroke-width="0.5"></path><path d="M258.9225 129.279L300.403 173.978" fill="none" stroke="#aaa" stroke-opacity="0.5" stroke-width="0.5"></path><path d="M221.3566 77.0959L314.2491 114.8563" fill="none" stroke="#aaa" stroke-opacity="0.5" stroke-width="0.5"></path><path d="M300.403 173.978L260.8192 208.9856" fill="none" stroke="#aaa" stroke-opacity="0.5" stroke-width="0.5"></path><path d="M108.2485 115.6826L258.9225 129.279" fill="none" stroke="#aaa" stroke-opacity="0.5" stroke-width="0.5"></path><path d="M122.6585 169.7218L242.2264 26.6124" fill="none" stroke="#aaa" stroke-opacity="0.5" stroke-width="0.5"></path><path d="M108.2485 115.6826L212.2313 225.4217" fill="none" stroke="#aaa" stroke-opacity="0.5" stroke-width="0.5"></path><path d="M108.2485 115.6826L134.7125 58.3047" fill="none" stroke="#aaa" stroke-opacity="0.5" stroke-width="0.5"></path><path d="M163.5999 109.3173L242.2264 26.6124" fill="none" stroke="#aaa" stroke-opacity="0.5" stroke-width="0.5"></path><path d="M221.3566 77.0959L289.4461 61.5055" fill="none" stroke="#aaa" stroke-opacity="0.5" stroke-width="0.5"></path><path d="M198.8309 164.3171L242.2264 26.6124" fill="none" stroke="#aaa" stroke-opacity="0.5" stroke-width="0.5"></path><path d="M258.9225 129.279L314.2491 114.8563" fill="none" stroke="#aaa" stroke-opacity="0.5" stroke-width="0.5"></path><path d="M181.747 28.8599L260.8192 208.9856" fill="none" stroke="#aaa" stroke-opacity="0.5" stroke-width="0.5"></path><path d="M1 0A1 1 0 1 1 1 -0.0001" fill="#5470c6" transform="matrix(18,0,0,18,300.403,173.978)"></path><path d="M1 0A1 1 0 1 1 1 -0.0001" fill="#5470c6" transform="matrix(18,0,0,18,258.9225,129.279)"></path><path d="M1 0A1 1 0 1 1 1 -0.0001" fill="#5470c6" transform="matrix(18,0,0,18,260.8192,208.9856)"></path><path d="M1 0A1 1 0 1 1 1 -0.0001" fill="#5470c6" transform="matrix(18,0,0,18,212.2313,225.4217)"></path><path d="M1 0A1 1 0 1 1 1 -0.0001" fill="#5470c6" transform="matrix(18,0,0,18,198.8309,164.3171)"></path><path d="M1 0A1 1 0 1 1 1 -0.0001" fill="#5470c6" transform="matrix(18,0,0,18,157.4366,211.0623)"></path><path d="M1 0A1 1 0 1 1 1 -0.0001" fill="#5470c6" transform="matrix(18,0,0,18,122.6585,169.7218)"></path><path d="M1 0A1 1 0 1 1 1 -0.0001" fill="#5470c6" transform="matrix(18,0,0,18,108.2485,115.6826)"></path><path d="M1 0A1 1 0 1 1 1 -0.0001" fill="#5470c6" transform="matrix(18,0,0,18,134.7125,58.3047)"></path><path d="M1 0A1 1 0 1 1 1 -0.0001" fill="#5470c6" transform="matrix(18,0,0,18,163.5999,109.3173)"></path><path d="M1 0A1 1 0 1 1 1 -0.0001" fill="#5470c6" transform="matrix(18,0,0,18,181.747,28.8599)"></path><path d="M1 0A1 1 0 1 1 1 -0.0001" fill="#5470c6" transform="matrix(18,0,0,18,242.2264,26.6124)"></path><path d="M1 0A1 1 0 1 1 1 -0.0001" fill="#5470c6" transform="matrix(18,0,0,18,289.4461,61.5055)"></path><path d="M1 0A1 1 0 1 1 1 -0.0001" fill="#5470c6" transform="matrix(18,0,0,18,314.2491,114.8563)"></path><path d="M1 0A1 1 0 1 1 1 -0.0001" fill="#5470c6" transform="matrix(18,0,0,18,221.3566,77.0959)"></path><path d="M-32.4922 -5l64.9844 0l0 33l-64.9844 0Z" fill="rgb(0,0,0)" fill-opacity="0" stroke="#ccc" stroke-width="0" transform="translate(237.5 5)"></path><text dominant-baseline="central" fill="#333" style="font-size:23px;font-family:sans-serif;font-weight:bolder;" text-anchor="middle" transform="translate(237.5 5)" y="11.5">C207</text></g></svg>