<svg baseprofile="full" height="250" style="position:absolute;left:0;top:0;user-select:none" version="1.1" width="475" xmlns="http://www.w3.org/2000/svg" xmlns:xlink="http://www.w3.org/1999/xlink"><rect fill="none" height="250" id="0" width="475" x="0" y="0"></rect><g><path d="M221.2362 26.4398L306.5064 150.6251" fill="none" stroke="#aaa" stroke-opacity="0.5"></path><path d="M243.5351 100.6892L221.2362 26.4398" fill="none" stroke="#aaa" stroke-opacity="0.5"></path><path d="M131.8488 184.2795L306.5064 150.6251" fill="none" stroke="#aaa" stroke-opacity="0.5"></path><path d="M274.9618 45.0364L308.6502 95.0126" fill="none" stroke="#aaa" stroke-opacity="0.5"></path><path d="M167.4388 33.7827L274.9618 45.0364" fill="none" stroke="#aaa" stroke-opacity="0.5"></path><path d="M120.3138 75.3787L172.9675 101.6864" fill="none" stroke="#aaa" stroke-opacity="0.5"></path><path d="M173.8305 219.1556L231.777 224.9066" fill="none" stroke="#aaa" stroke-opacity="0.5"></path><path d="M308.6502 95.0126L172.9675 101.6864" fill="none" stroke="#aaa" stroke-opacity="0.5"></path><path d="M211.637 162.3441L274.9618 45.0364" fill="none" stroke="#aaa" stroke-opacity="0.5"></path><path d="M211.637 162.3441L167.4388 33.7827" fill="none" stroke="#aaa" stroke-opacity="0.5"></path><path d="M231.777 224.9066L221.2362 26.4398" fill="none" stroke="#aaa" stroke-opacity="0.5"></path><path d="M111.1954 134.6223L221.2362 26.4398" fill="none" stroke="#aaa" stroke-opacity="0.5"></path><path d="M231.777 224.9066L243.5351 100.6892" fill="none" stroke="#aaa" stroke-opacity="0.5"></path><path d="M243.5351 100.6892L279.8637 196.0411" fill="none" stroke="#aaa" stroke-opacity="0.5"></path><path d="M111.1954 134.6223L243.5351 100.6892" fill="none" stroke="#aaa" stroke-opacity="0.5"></path><path d="M274.9618 45.0364L131.8488 184.2795" fill="none" stroke="#aaa" stroke-opacity="0.5"></path><path d="M231.777 224.9066L274.9618 45.0364" fill="none" stroke="#aaa" stroke-opacity="0.5"></path><path d="M231.777 224.9066L308.6502 95.0126" fill="none" stroke="#aaa" stroke-opacity="0.5"></path><path d="M167.4388 33.7827L306.5064 150.6251" fill="none" stroke="#aaa" stroke-opacity="0.5"></path><path d="M243.5351 100.6892L172.9675 101.6864" fill="none" stroke="#aaa" stroke-opacity="0.5"></path><path d="M167.4388 33.7827L172.9675 101.6864" fill="none" stroke="#aaa" stroke-opacity="0.5"></path><path d="M173.8305 219.1556L308.6502 95.0126" fill="none" stroke="#aaa" stroke-opacity="0.5"></path><path d="M274.9618 45.0364L306.5064 150.6251" fill="none" stroke="#aaa" stroke-opacity="0.5"></path><path d="M211.637 162.3441L306.5064 150.6251" fill="none" stroke="#aaa" stroke-opacity="0.5"></path><path d="M131.8488 184.2795L221.2362 26.4398" fill="none" stroke="#aaa" stroke-opacity="0.5"></path><path d="M211.637 162.3441L172.9675 101.6864" fill="none" stroke="#aaa" stroke-opacity="0.5"></path><path d="M231.777 224.9066L279.8637 196.0411" fill="none" stroke="#aaa" stroke-opacity="0.5"></path><path d="M111.1954 134.6223L279.8637 196.0411" fill="none" stroke="#aaa" stroke-opacity="0.5"></path><path d="M131.8488 184.2795L243.5351 100.6892" fill="none" stroke="#aaa" stroke-opacity="0.5"></path><path d="M274.9618 45.0364L120.3138 75.3787" fill="none" stroke="#aaa" stroke-opacity="0.5"></path><path d="M120.3138 75.3787L243.5351 100.6892" fill="none" stroke="#aaa" stroke-opacity="0.5"></path><path d="M231.777 224.9066L172.9675 101.6864" fill="none" stroke="#aaa" stroke-opacity="0.5"></path><path d="M172.9675 101.6864L279.8637 196.0411" fill="none" stroke="#aaa" stroke-opacity="0.5"></path><path d="M173.8305 219.1556L131.8488 184.2795" fill="none" stroke="#aaa" stroke-opacity="0.5"></path><path d="M111.1954 134.6223L172.9675 101.6864" fill="none" stroke="#aaa" stroke-opacity="0.5"></path><path d="M308.6502 95.0126L243.5351 100.6892" fill="none" stroke="#aaa" stroke-opacity="0.5"></path><path d="M274.9618 45.0364L111.1954 134.6223" fill="none" stroke="#aaa" stroke-opacity="0.5"></path><path d="M221.2362 26.4398L279.8637 196.0411" fill="none" stroke="#aaa" stroke-opacity="0.5"></path><path d="M131.8488 184.2795L279.8637 196.0411" fill="none" stroke="#aaa" stroke-opacity="0.5"></path><path d="M211.637 162.3441L231.777 224.9066" fill="none" stroke="#aaa" stroke-opacity="0.5"></path><path d="M173.8305 219.1556L306.5064 150.6251" fill="none" stroke="#aaa" stroke-opacity="0.5"></path><path d="M167.4388 33.7827L221.2362 26.4398" fill="none" stroke="#aaa" stroke-opacity="0.5"></path><path d="M120.3138 75.3787L279.8637 196.0411" fill="none" stroke="#aaa" stroke-opacity="0.5"></path><path d="M231.777 224.9066L120.3138 75.3787" fill="none" stroke="#aaa" stroke-opacity="0.5"></path><path d="M221.2362 26.4398L172.9675 101.6864" fill="none" stroke="#aaa" stroke-opacity="0.5"></path><path d="M308.6502 95.0126L279.8637 196.0411" fill="none" stroke="#aaa" stroke-opacity="0.5"></path><path d="M131.8488 184.2795L172.9675 101.6864" fill="none" stroke="#aaa" stroke-opacity="0.5"></path><path d="M111.1954 134.6223L120.3138 75.3787" fill="none" stroke="#aaa" stroke-opacity="0.5"></path><path d="M274.9618 45.0364L221.2362 26.4398" fill="none" stroke="#aaa" stroke-opacity="0.5"></path><path d="M167.4388 33.7827L243.5351 100.6892" fill="none" stroke="#aaa" stroke-opacity="0.5"></path><path d="M211.637 162.3441L221.2362 26.4398" fill="none" stroke="#aaa" stroke-opacity="0.5"></path><path d="M308.6502 95.0126L131.8488 184.2795" fill="none" stroke="#aaa" stroke-opacity="0.5"></path><path d="M173.8305 219.1556L120.3138 75.3787" fill="none" stroke="#aaa" stroke-opacity="0.5"></path><path d="M274.9618 45.0364L243.5351 100.6892" fill="none" stroke="#aaa" stroke-opacity="0.5"></path><path d="M167.4388 33.7827L308.6502 95.0126" fill="none" stroke="#aaa" stroke-opacity="0.5"></path><path d="M211.637 162.3441L243.5351 100.6892" fill="none" stroke="#aaa" stroke-opacity="0.5"></path><path d="M231.777 224.9066L111.1954 134.6223" fill="none" stroke="#aaa" stroke-opacity="0.5"></path><path d="M211.637 162.3441L308.6502 95.0126" fill="none" stroke="#aaa" stroke-opacity="0.5"></path><path d="M120.3138 75.3787L306.5064 150.6251" fill="none" stroke="#aaa" stroke-opacity="0.5"></path><path d="M173.8305 219.1556L111.1954 134.6223" fill="none" stroke="#aaa" stroke-opacity="0.5"></path><path d="M308.6502 95.0126L306.5064 150.6251" fill="none" stroke="#aaa" stroke-opacity="0.5"></path><path d="M131.8488 184.2795L120.3138 75.3787" fill="none" stroke="#aaa" stroke-opacity="0.5"></path><path d="M167.4388 33.7827L279.8637 196.0411" fill="none" stroke="#aaa" stroke-opacity="0.5"></path><path d="M167.4388 33.7827L131.8488 184.2795" fill="none" stroke="#aaa" stroke-opacity="0.5"></path><path d="M274.9618 45.0364L279.8637 196.0411" fill="none" stroke="#aaa" stroke-opacity="0.5"></path><path d="M279.8637 196.0411L306.5064 150.6251" fill="none" stroke="#aaa" stroke-opacity="0.5"></path><path d="M211.637 162.3441L279.8637 196.0411" fill="none" stroke="#aaa" stroke-opacity="0.5"></path><path d="M173.8305 219.1556L221.2362 26.4398" fill="none" stroke="#aaa" stroke-opacity="0.5"></path><path d="M308.6502 95.0126L120.3138 75.3787" fill="none" stroke="#aaa" stroke-opacity="0.5"></path><path d="M211.637 162.3441L131.8488 184.2795" fill="none" stroke="#aaa" stroke-opacity="0.5"></path><path d="M231.777 224.9066L167.4388 33.7827" fill="none" stroke="#aaa" stroke-opacity="0.5"></path><path d="M211.637 162.3441L173.8305 219.1556" fill="none" stroke="#aaa" stroke-opacity="0.5"></path><path d="M173.8305 219.1556L243.5351 100.6892" fill="none" stroke="#aaa" stroke-opacity="0.5"></path><path d="M274.9618 45.0364L172.9675 101.6864" fill="none" stroke="#aaa" stroke-opacity="0.5"></path><path d="M243.5351 100.6892L306.5064 150.6251" fill="none" stroke="#aaa" stroke-opacity="0.5"></path><path d="M173.8305 219.1556L274.9618 45.0364" fill="none" stroke="#aaa" stroke-opacity="0.5"></path><path d="M308.6502 95.0126L111.1954 134.6223" fill="none" stroke="#aaa" stroke-opacity="0.5"></path><path d="M173.8305 219.1556L167.4388 33.7827" fill="none" stroke="#aaa" stroke-opacity="0.5"></path><path d="M231.777 224.9066L131.8488 184.2795" fill="none" stroke="#aaa" stroke-opacity="0.5"></path><path d="M111.1954 134.6223L131.8488 184.2795" fill="none" stroke="#aaa" stroke-opacity="0.5"></path><path d="M167.4388 33.7827L120.3138 75.3787" fill="none" stroke="#aaa" stroke-opacity="0.5"></path><path d="M120.3138 75.3787L221.2362 26.4398" fill="none" stroke="#aaa" stroke-opacity="0.5"></path><path d="M173.8305 219.1556L279.8637 196.0411" fill="none" stroke="#aaa" stroke-opacity="0.5"></path><path d="M308.6502 95.0126L221.2362 26.4398" fill="none" stroke="#aaa" stroke-opacity="0.5"></path><path d="M231.777 224.9066L306.5064 150.6251" fill="none" stroke="#aaa" stroke-opacity="0.5"></path><path d="M111.1954 134.6223L306.5064 150.6251" fill="none" stroke="#aaa" stroke-opacity="0.5"></path><path d="M211.637 162.3441L120.3138 75.3787" fill="none" stroke="#aaa" stroke-opacity="0.5"></path><path d="M167.4388 33.7827L111.1954 134.6223" fill="none" stroke="#aaa" stroke-opacity="0.5"></path><path d="M173.8305 219.1556L172.9675 101.6864" fill="none" stroke="#aaa" stroke-opacity="0.5"></path><path d="M172.9675 101.6864L306.5064 150.6251" fill="none" stroke="#aaa" stroke-opacity="0.5"></path><path d="M211.637 162.3441L111.1954 134.6223" fill="none" stroke="#aaa" stroke-opacity="0.5"></path><path d="M1 0A1 1 0 1 1 1 -0.0001" fill="#5470c6" transform="matrix(18.5,0,0,18.5,306.5064,150.6251)"></path><path d="M1 0A1 1 0 1 1 1 -0.0001" fill="#5470c6" transform="matrix(18.5,0,0,18.5,279.8637,196.0411)"></path><path d="M1 0A1 1 0 1 1 1 -0.0001" fill="#5470c6" transform="matrix(18.5,0,0,18.5,231.777,224.9066)"></path><path d="M1 0A1 1 0 1 1 1 -0.0001" fill="#5470c6" transform="matrix(18.5,0,0,18.5,173.8305,219.1556)"></path><path d="M1 0A1 1 0 1 1 1 -0.0001" fill="#5470c6" transform="matrix(18.5,0,0,18.5,211.637,162.3441)"></path><path d="M1 0A1 1 0 1 1 1 -0.0001" fill="#5470c6" transform="matrix(18.5,0,0,18.5,131.8488,184.2795)"></path><path d="M1 0A1 1 0 1 1 1 -0.0001" fill="#5470c6" transform="matrix(18.5,0,0,18.5,111.1954,134.6223)"></path><path d="M1 0A1 1 0 1 1 1 -0.0001" fill="#5470c6" transform="matrix(18.5,0,0,18.5,120.3138,75.3787)"></path><path d="M1 0A1 1 0 1 1 1 -0.0001" fill="#5470c6" transform="matrix(18.5,0,0,18.5,172.9675,101.6864)"></path><path d="M1 0A1 1 0 1 1 1 -0.0001" fill="#5470c6" transform="matrix(18.5,0,0,18.5,167.4388,33.7827)"></path><path d="M1 0A1 1 0 1 1 1 -0.0001" fill="#5470c6" transform="matrix(18.5,0,0,18.5,221.2362,26.4398)"></path><path d="M1 0A1 1 0 1 1 1 -0.0001" fill="#5470c6" transform="matrix(18.5,0,0,18.5,274.9618,45.0364)"></path><path d="M1 0A1 1 0 1 1 1 -0.0001" fill="#5470c6" transform="matrix(18.5,0,0,18.5,243.5351,100.6892)"></path><path d="M1 0A1 1 0 1 1 1 -0.0001" fill="#5470c6" transform="matrix(18.5,0,0,18.5,308.6502,95.0126)"></path><path d="M-32.4922 -5l64.9844 0l0 33l-64.9844 0Z" fill="rgb(0,0,0)" fill-opacity="0" stroke="#ccc" stroke-width="0" transform="translate(237.5 5)"></path><text dominant-baseline="central" fill="#333" style="font-size:23px;font-family:sans-serif;font-weight:bolder;" text-anchor="middle" transform="translate(237.5 5)" y="11.5">C208</text></g></svg>