<svg baseprofile="full" height="250" style="position:absolute;left:0;top:0;user-select:none" version="1.1" width="475" xmlns="http://www.w3.org/2000/svg" xmlns:xlink="http://www.w3.org/1999/xlink"><rect fill="none" height="250" id="0" width="475" x="0" y="0"></rect><g><path d="M306.1531 156.0633L108.4768 116.5159" fill="none" stroke="#aaa" stroke-opacity="0.5"></path><path d="M230.2867 90.0416L306.1531 156.0633" fill="none" stroke="#aaa" stroke-opacity="0.5"></path><path d="M108.4768 116.5159L132.7802 65.0564" fill="none" stroke="#aaa" stroke-opacity="0.5"></path><path d="M169.2086 127.7413L132.7802 65.0564" fill="none" stroke="#aaa" stroke-opacity="0.5"></path><path d="M165.1052 211.9624L284.3117 52.2527" fill="none" stroke="#aaa" stroke-opacity="0.5"></path><path d="M108.4768 116.5159L229.9423 24.888" fill="none" stroke="#aaa" stroke-opacity="0.5"></path><path d="M275.5652 204.6447L284.3117 52.2527" fill="none" stroke="#aaa" stroke-opacity="0.5"></path><path d="M108.4768 116.5159L122.7196 175.5579" fill="none" stroke="#aaa" stroke-opacity="0.5"></path><path d="M169.2086 127.7413L165.1052 211.9624" fill="none" stroke="#aaa" stroke-opacity="0.5"></path><path d="M229.9423 24.888L132.7802 65.0564" fill="none" stroke="#aaa" stroke-opacity="0.5"></path><path d="M169.2086 127.7413L229.9423 24.888" fill="none" stroke="#aaa" stroke-opacity="0.5"></path><path d="M275.5652 204.6447L306.8929 104.34" fill="none" stroke="#aaa" stroke-opacity="0.5"></path><path d="M169.2086 127.7413L122.7196 175.5579" fill="none" stroke="#aaa" stroke-opacity="0.5"></path><path d="M169.2086 127.7413L230.2737 160.9844" fill="none" stroke="#aaa" stroke-opacity="0.5"></path><path d="M306.1531 156.0633L284.3117 52.2527" fill="none" stroke="#aaa" stroke-opacity="0.5"></path><path d="M230.2737 160.9844L132.7802 65.0564" fill="none" stroke="#aaa" stroke-opacity="0.5"></path><path d="M306.1531 156.0633L306.8929 104.34" fill="none" stroke="#aaa" stroke-opacity="0.5"></path><path d="M230.2737 160.9844L165.1052 211.9624" fill="none" stroke="#aaa" stroke-opacity="0.5"></path><path d="M169.2086 127.7413L230.2867 90.0416" fill="none" stroke="#aaa" stroke-opacity="0.5"></path><path d="M230.2737 160.9844L306.8929 104.34" fill="none" stroke="#aaa" stroke-opacity="0.5"></path><path d="M230.2867 90.0416L275.5652 204.6447" fill="none" stroke="#aaa" stroke-opacity="0.5"></path><path d="M218.5134 226.2166L132.7802 65.0564" fill="none" stroke="#aaa" stroke-opacity="0.5"></path><path d="M284.3117 52.2527L122.7196 175.5579" fill="none" stroke="#aaa" stroke-opacity="0.5"></path><path d="M306.8929 104.34L132.7802 65.0564" fill="none" stroke="#aaa" stroke-opacity="0.5"></path><path d="M230.2867 90.0416L132.7802 65.0564" fill="none" stroke="#aaa" stroke-opacity="0.5"></path><path d="M306.8929 104.34L229.9423 24.888" fill="none" stroke="#aaa" stroke-opacity="0.5"></path><path d="M175.5328 33.7347L284.3117 52.2527" fill="none" stroke="#aaa" stroke-opacity="0.5"></path><path d="M306.8929 104.34L122.7196 175.5579" fill="none" stroke="#aaa" stroke-opacity="0.5"></path><path d="M230.2867 90.0416L165.1052 211.9624" fill="none" stroke="#aaa" stroke-opacity="0.5"></path><path d="M230.2867 90.0416L229.9423 24.888" fill="none" stroke="#aaa" stroke-opacity="0.5"></path><path d="M230.2867 90.0416L122.7196 175.5579" fill="none" stroke="#aaa" stroke-opacity="0.5"></path><path d="M165.1052 211.9624L108.4768 116.5159" fill="none" stroke="#aaa" stroke-opacity="0.5"></path><path d="M169.2086 127.7413L175.5328 33.7347" fill="none" stroke="#aaa" stroke-opacity="0.5"></path><path d="M306.1531 156.0633L175.5328 33.7347" fill="none" stroke="#aaa" stroke-opacity="0.5"></path><path d="M306.1531 156.0633L275.5652 204.6447" fill="none" stroke="#aaa" stroke-opacity="0.5"></path><path d="M108.4768 116.5159L218.5134 226.2166" fill="none" stroke="#aaa" stroke-opacity="0.5"></path><path d="M229.9423 24.888L175.5328 33.7347" fill="none" stroke="#aaa" stroke-opacity="0.5"></path><path d="M165.1052 211.9624L132.7802 65.0564" fill="none" stroke="#aaa" stroke-opacity="0.5"></path><path d="M275.5652 204.6447L132.7802 65.0564" fill="none" stroke="#aaa" stroke-opacity="0.5"></path><path d="M169.2086 127.7413L218.5134 226.2166" fill="none" stroke="#aaa" stroke-opacity="0.5"></path><path d="M275.5652 204.6447L165.1052 211.9624" fill="none" stroke="#aaa" stroke-opacity="0.5"></path><path d="M275.5652 204.6447L229.9423 24.888" fill="none" stroke="#aaa" stroke-opacity="0.5"></path><path d="M169.2086 127.7413L108.4768 116.5159" fill="none" stroke="#aaa" stroke-opacity="0.5"></path><path d="M275.5652 204.6447L122.7196 175.5579" fill="none" stroke="#aaa" stroke-opacity="0.5"></path><path d="M230.2737 160.9844L175.5328 33.7347" fill="none" stroke="#aaa" stroke-opacity="0.5"></path><path d="M230.2737 160.9844L275.5652 204.6447" fill="none" stroke="#aaa" stroke-opacity="0.5"></path><path d="M306.1531 156.0633L132.7802 65.0564" fill="none" stroke="#aaa" stroke-opacity="0.5"></path><path d="M165.1052 211.9624L306.8929 104.34" fill="none" stroke="#aaa" stroke-opacity="0.5"></path><path d="M306.1531 156.0633L165.1052 211.9624" fill="none" stroke="#aaa" stroke-opacity="0.5"></path><path d="M306.1531 156.0633L229.9423 24.888" fill="none" stroke="#aaa" stroke-opacity="0.5"></path><path d="M230.2737 160.9844L218.5134 226.2166" fill="none" stroke="#aaa" stroke-opacity="0.5"></path><path d="M306.1531 156.0633L122.7196 175.5579" fill="none" stroke="#aaa" stroke-opacity="0.5"></path><path d="M306.1531 156.0633L230.2737 160.9844" fill="none" stroke="#aaa" stroke-opacity="0.5"></path><path d="M229.9423 24.888L122.7196 175.5579" fill="none" stroke="#aaa" stroke-opacity="0.5"></path><path d="M230.2737 160.9844L108.4768 116.5159" fill="none" stroke="#aaa" stroke-opacity="0.5"></path><path d="M108.4768 116.5159L284.3117 52.2527" fill="none" stroke="#aaa" stroke-opacity="0.5"></path><path d="M218.5134 226.2166L175.5328 33.7347" fill="none" stroke="#aaa" stroke-opacity="0.5"></path><path d="M169.2086 127.7413L284.3117 52.2527" fill="none" stroke="#aaa" stroke-opacity="0.5"></path><path d="M132.7802 65.0564L122.7196 175.5579" fill="none" stroke="#aaa" stroke-opacity="0.5"></path><path d="M230.2737 160.9844L229.9423 24.888" fill="none" stroke="#aaa" stroke-opacity="0.5"></path><path d="M230.2737 160.9844L122.7196 175.5579" fill="none" stroke="#aaa" stroke-opacity="0.5"></path><path d="M169.2086 127.7413L306.8929 104.34" fill="none" stroke="#aaa" stroke-opacity="0.5"></path><path d="M229.9423 24.888L284.3117 52.2527" fill="none" stroke="#aaa" stroke-opacity="0.5"></path><path d="M306.8929 104.34L175.5328 33.7347" fill="none" stroke="#aaa" stroke-opacity="0.5"></path><path d="M230.2867 90.0416L175.5328 33.7347" fill="none" stroke="#aaa" stroke-opacity="0.5"></path><path d="M169.2086 127.7413L306.1531 156.0633" fill="none" stroke="#aaa" stroke-opacity="0.5"></path><path d="M284.3117 52.2527L132.7802 65.0564" fill="none" stroke="#aaa" stroke-opacity="0.5"></path><path d="M230.2737 160.9844L284.3117 52.2527" fill="none" stroke="#aaa" stroke-opacity="0.5"></path><path d="M306.8929 104.34L218.5134 226.2166" fill="none" stroke="#aaa" stroke-opacity="0.5"></path><path d="M175.5328 33.7347L132.7802 65.0564" fill="none" stroke="#aaa" stroke-opacity="0.5"></path><path d="M230.2867 90.0416L218.5134 226.2166" fill="none" stroke="#aaa" stroke-opacity="0.5"></path><path d="M218.5134 226.2166L229.9423 24.888" fill="none" stroke="#aaa" stroke-opacity="0.5"></path><path d="M306.8929 104.34L108.4768 116.5159" fill="none" stroke="#aaa" stroke-opacity="0.5"></path><path d="M218.5134 226.2166L122.7196 175.5579" fill="none" stroke="#aaa" stroke-opacity="0.5"></path><path d="M175.5328 33.7347L122.7196 175.5579" fill="none" stroke="#aaa" stroke-opacity="0.5"></path><path d="M230.2867 90.0416L108.4768 116.5159" fill="none" stroke="#aaa" stroke-opacity="0.5"></path><path d="M165.1052 211.9624L175.5328 33.7347" fill="none" stroke="#aaa" stroke-opacity="0.5"></path><path d="M275.5652 204.6447L175.5328 33.7347" fill="none" stroke="#aaa" stroke-opacity="0.5"></path><path d="M218.5134 226.2166L284.3117 52.2527" fill="none" stroke="#aaa" stroke-opacity="0.5"></path><path d="M230.5 90.0416L230.5 160.9844" fill="none" stroke="#aaa" stroke-opacity="0.5"></path><path d="M165.1052 211.9624L218.5134 226.2166" fill="none" stroke="#aaa" stroke-opacity="0.5"></path><path d="M275.5652 204.6447L218.5134 226.2166" fill="none" stroke="#aaa" stroke-opacity="0.5"></path><path d="M306.8929 104.34L284.3117 52.2527" fill="none" stroke="#aaa" stroke-opacity="0.5"></path><path d="M108.4768 116.5159L175.5328 33.7347" fill="none" stroke="#aaa" stroke-opacity="0.5"></path><path d="M230.2867 90.0416L284.3117 52.2527" fill="none" stroke="#aaa" stroke-opacity="0.5"></path><path d="M275.5652 204.6447L108.4768 116.5159" fill="none" stroke="#aaa" stroke-opacity="0.5"></path><path d="M169.2086 127.7413L275.5652 204.6447" fill="none" stroke="#aaa" stroke-opacity="0.5"></path><path d="M306.1531 156.0633L218.5134 226.2166" fill="none" stroke="#aaa" stroke-opacity="0.5"></path><path d="M230.2867 90.0416L306.8929 104.34" fill="none" stroke="#aaa" stroke-opacity="0.5"></path><path d="M165.1052 211.9624L229.9423 24.888" fill="none" stroke="#aaa" stroke-opacity="0.5"></path><path d="M165.1052 211.9624L122.7196 175.5579" fill="none" stroke="#aaa" stroke-opacity="0.5"></path><path d="M1 0A1 1 0 1 1 1 -0.0001" fill="#5470c6" transform="matrix(18.5,0,0,18.5,306.1531,156.0633)"></path><path d="M1 0A1 1 0 1 1 1 -0.0001" fill="#5470c6" transform="matrix(18.5,0,0,18.5,275.5652,204.6447)"></path><path d="M1 0A1 1 0 1 1 1 -0.0001" fill="#5470c6" transform="matrix(18.5,0,0,18.5,230.2737,160.9844)"></path><path d="M1 0A1 1 0 1 1 1 -0.0001" fill="#5470c6" transform="matrix(18.5,0,0,18.5,218.5134,226.2166)"></path><path d="M1 0A1 1 0 1 1 1 -0.0001" fill="#5470c6" transform="matrix(18.5,0,0,18.5,165.1052,211.9624)"></path><path d="M1 0A1 1 0 1 1 1 -0.0001" fill="#5470c6" transform="matrix(18.5,0,0,18.5,122.7196,175.5579)"></path><path d="M1 0A1 1 0 1 1 1 -0.0001" fill="#5470c6" transform="matrix(18.5,0,0,18.5,169.2086,127.7413)"></path><path d="M1 0A1 1 0 1 1 1 -0.0001" fill="#5470c6" transform="matrix(18.5,0,0,18.5,108.4768,116.5159)"></path><path d="M1 0A1 1 0 1 1 1 -0.0001" fill="#5470c6" transform="matrix(18.5,0,0,18.5,132.7802,65.0564)"></path><path d="M1 0A1 1 0 1 1 1 -0.0001" fill="#5470c6" transform="matrix(18.5,0,0,18.5,175.5328,33.7347)"></path><path d="M1 0A1 1 0 1 1 1 -0.0001" fill="#5470c6" transform="matrix(18.5,0,0,18.5,230.2867,90.0416)"></path><path d="M1 0A1 1 0 1 1 1 -0.0001" fill="#5470c6" transform="matrix(18.5,0,0,18.5,229.9423,24.888)"></path><path d="M1 0A1 1 0 1 1 1 -0.0001" fill="#5470c6" transform="matrix(18.5,0,0,18.5,284.3117,52.2527)"></path><path d="M1 0A1 1 0 1 1 1 -0.0001" fill="#5470c6" transform="matrix(18.5,0,0,18.5,306.8929,104.34)"></path><path d="M-32.4922 -5l64.9844 0l0 33l-64.9844 0Z" fill="rgb(0,0,0)" fill-opacity="0" stroke="#ccc" stroke-width="0" transform="translate(237.5 5)"></path><text dominant-baseline="central" fill="#333" style="font-size:23px;font-family:sans-serif;font-weight:bolder;" text-anchor="middle" transform="translate(237.5 5)" y="11.5">C209</text></g></svg>