<svg baseprofile="full" height="250" style="position:absolute;left:0;top:0;user-select:none" version="1.1" width="475" xmlns="http://www.w3.org/2000/svg" xmlns:xlink="http://www.w3.org/1999/xlink"><rect fill="none" height="250" id="0" width="475" x="0" y="0"></rect><g><path d="M198.2148 221.2632L155.6046 123.0172" fill="none" stroke="#aaa" stroke-opacity="0.5" stroke-width="0.5"></path><path d="M183.8157 31.435L226.4045 27.1081" fill="none" stroke="#aaa" stroke-opacity="0.5" stroke-width="0.5"></path><path d="M155.5983 208.2738L189.7906 89.2592" fill="none" stroke="#aaa" stroke-opacity="0.5" stroke-width="0.5"></path><path d="M198.2148 221.2632L240.1869 219.7343" fill="none" stroke="#aaa" stroke-opacity="0.5" stroke-width="0.5"></path><path d="M234.5497 166.5L185.4979 166.5" fill="none" stroke="#aaa" stroke-opacity="0.5" stroke-width="0.5"></path><path d="M119.9449 85.576L189.7906 89.2592" fill="none" stroke="#aaa" stroke-opacity="0.5" stroke-width="0.5"></path><path d="M183.8157 31.435L185.4979 165.7741" fill="none" stroke="#aaa" stroke-opacity="0.5" stroke-width="0.5"></path><path d="M240.1869 219.7343L296.2326 79.3313" fill="none" stroke="#aaa" stroke-opacity="0.5" stroke-width="0.5"></path><path d="M155.5983 208.2738L309.8124 119.663" fill="none" stroke="#aaa" stroke-opacity="0.5" stroke-width="0.5"></path><path d="M234.5497 166.0394L189.7906 89.2592" fill="none" stroke="#aaa" stroke-opacity="0.5" stroke-width="0.5"></path><path d="M183.8157 31.435L189.7906 89.2592" fill="none" stroke="#aaa" stroke-opacity="0.5" stroke-width="0.5"></path><path d="M240.1869 219.7343L147.1109 51.6532" fill="none" stroke="#aaa" stroke-opacity="0.5" stroke-width="0.5"></path><path d="M234.6157 76.4986L296.2326 79.3313" fill="none" stroke="#aaa" stroke-opacity="0.5" stroke-width="0.5"></path><path d="M198.2148 221.2632L127.7137 175.2654" fill="none" stroke="#aaa" stroke-opacity="0.5" stroke-width="0.5"></path><path d="M257.3787 123.9676L296.2326 79.3313" fill="none" stroke="#aaa" stroke-opacity="0.5" stroke-width="0.5"></path><path d="M234.5497 166.0394L309.8124 119.663" fill="none" stroke="#aaa" stroke-opacity="0.5" stroke-width="0.5"></path><path d="M183.8157 31.435L309.8124 119.663" fill="none" stroke="#aaa" stroke-opacity="0.5" stroke-width="0.5"></path><path d="M110.3046 132.8138L296.2326 79.3313" fill="none" stroke="#aaa" stroke-opacity="0.5" stroke-width="0.5"></path><path d="M189.7906 89.2592L226.4045 27.1081" fill="none" stroke="#aaa" stroke-opacity="0.5" stroke-width="0.5"></path><path d="M240.1869 219.7343L277.544 197.1694" fill="none" stroke="#aaa" stroke-opacity="0.5" stroke-width="0.5"></path><path d="M234.6157 76.4986L147.1109 51.6532" fill="none" stroke="#aaa" stroke-opacity="0.5" stroke-width="0.5"></path><path d="M257.3787 123.9676L147.1109 51.6532" fill="none" stroke="#aaa" stroke-opacity="0.5" stroke-width="0.5"></path><path d="M296.2326 79.3313L127.7137 175.2654" fill="none" stroke="#aaa" stroke-opacity="0.5" stroke-width="0.5"></path><path d="M240.1869 219.7343L301.1431 161.6085" fill="none" stroke="#aaa" stroke-opacity="0.5" stroke-width="0.5"></path><path d="M189.7906 89.2592L127.7137 175.2654" fill="none" stroke="#aaa" stroke-opacity="0.5" stroke-width="0.5"></path><path d="M110.3046 132.8138L147.1109 51.6532" fill="none" stroke="#aaa" stroke-opacity="0.5" stroke-width="0.5"></path><path d="M185.4979 165.7741L296.2326 79.3313" fill="none" stroke="#aaa" stroke-opacity="0.5" stroke-width="0.5"></path><path d="M155.5983 208.2738L110.3046 132.8138" fill="none" stroke="#aaa" stroke-opacity="0.5" stroke-width="0.5"></path><path d="M309.8124 119.663L127.7137 175.2654" fill="none" stroke="#aaa" stroke-opacity="0.5" stroke-width="0.5"></path><path d="M257.3787 123.9676L277.544 197.1694" fill="none" stroke="#aaa" stroke-opacity="0.5" stroke-width="0.5"></path><path d="M198.2148 221.2632L271.0539 44.549" fill="none" stroke="#aaa" stroke-opacity="0.5" stroke-width="0.5"></path><path d="M234.6157 76.4986L198.2148 221.2632" fill="none" stroke="#aaa" stroke-opacity="0.5" stroke-width="0.5"></path><path d="M110.3046 132.8138L277.544 197.1694" fill="none" stroke="#aaa" stroke-opacity="0.5" stroke-width="0.5"></path><path d="M257.3787 123.9676L198.2148 221.2632" fill="none" stroke="#aaa" stroke-opacity="0.5" stroke-width="0.5"></path><path d="M234.6157 76.4986L301.1431 161.6085" fill="none" stroke="#aaa" stroke-opacity="0.5" stroke-width="0.5"></path><path d="M198.2148 221.2632L189.7906 89.2592" fill="none" stroke="#aaa" stroke-opacity="0.5" stroke-width="0.5"></path><path d="M257.3787 123.9676L301.1431 161.6085" fill="none" stroke="#aaa" stroke-opacity="0.5" stroke-width="0.5"></path><path d="M185.4979 165.7741L147.1109 51.6532" fill="none" stroke="#aaa" stroke-opacity="0.5" stroke-width="0.5"></path><path d="M110.3046 132.8138L198.2148 221.2632" fill="none" stroke="#aaa" stroke-opacity="0.5" stroke-width="0.5"></path><path d="M110.3046 132.8138L301.1431 161.6085" fill="none" stroke="#aaa" stroke-opacity="0.5" stroke-width="0.5"></path><path d="M234.5497 166.0394L110.3046 132.8138" fill="none" stroke="#aaa" stroke-opacity="0.5" stroke-width="0.5"></path><path d="M296.2326 79.3313L271.0539 44.549" fill="none" stroke="#aaa" stroke-opacity="0.5" stroke-width="0.5"></path><path d="M198.2148 221.2632L309.8124 119.663" fill="none" stroke="#aaa" stroke-opacity="0.5" stroke-width="0.5"></path><path d="M189.7906 89.2592L271.0539 44.549" fill="none" stroke="#aaa" stroke-opacity="0.5" stroke-width="0.5"></path><path d="M185.4979 165.7741L277.544 197.1694" fill="none" stroke="#aaa" stroke-opacity="0.5" stroke-width="0.5"></path><path d="M147.1109 51.6532L277.544 197.1694" fill="none" stroke="#aaa" stroke-opacity="0.5" stroke-width="0.5"></path><path d="M309.8124 119.663L271.0539 44.549" fill="none" stroke="#aaa" stroke-opacity="0.5" stroke-width="0.5"></path><path d="M185.4979 165.7741L301.1431 161.6085" fill="none" stroke="#aaa" stroke-opacity="0.5" stroke-width="0.5"></path><path d="M296.2326 79.3313L309.8124 119.663" fill="none" stroke="#aaa" stroke-opacity="0.5" stroke-width="0.5"></path><path d="M155.6046 123.0172L277.544 197.1694" fill="none" stroke="#aaa" stroke-opacity="0.5" stroke-width="0.5"></path><path d="M240.1869 219.7343L226.4045 27.1081" fill="none" stroke="#aaa" stroke-opacity="0.5" stroke-width="0.5"></path><path d="M155.6046 123.0172L301.1431 161.6085" fill="none" stroke="#aaa" stroke-opacity="0.5" stroke-width="0.5"></path><path d="M234.5497 166.0394L296.2326 79.3313" fill="none" stroke="#aaa" stroke-opacity="0.5" stroke-width="0.5"></path><path d="M183.8157 31.435L296.2326 79.3313" fill="none" stroke="#aaa" stroke-opacity="0.5" stroke-width="0.5"></path><path d="M240.1869 219.7343L185.4979 165.7741" fill="none" stroke="#aaa" stroke-opacity="0.5" stroke-width="0.5"></path><path d="M155.5983 208.2738L234.6157 76.4986" fill="none" stroke="#aaa" stroke-opacity="0.5" stroke-width="0.5"></path><path d="M155.5983 208.2738L277.544 197.1694" fill="none" stroke="#aaa" stroke-opacity="0.5" stroke-width="0.5"></path><path d="M234.5497 166.0394L147.1109 51.6532" fill="none" stroke="#aaa" stroke-opacity="0.5" stroke-width="0.5"></path><path d="M234.6157 76.4986L226.4045 27.1081" fill="none" stroke="#aaa" stroke-opacity="0.5" stroke-width="0.5"></path><path d="M257.3787 123.9676L226.4045 27.1081" fill="none" stroke="#aaa" stroke-opacity="0.5" stroke-width="0.5"></path><path d="M119.9449 85.576L277.544 197.1694" fill="none" stroke="#aaa" stroke-opacity="0.5" stroke-width="0.5"></path><path d="M155.5983 208.2738L257.3787 123.9676" fill="none" stroke="#aaa" stroke-opacity="0.5" stroke-width="0.5"></path><path d="M155.5983 208.2738L198.2148 221.2632" fill="none" stroke="#aaa" stroke-opacity="0.5" stroke-width="0.5"></path><path d="M155.5983 208.2738L301.1431 161.6085" fill="none" stroke="#aaa" stroke-opacity="0.5" stroke-width="0.5"></path><path d="M110.3046 132.8138L226.4045 27.1081" fill="none" stroke="#aaa" stroke-opacity="0.5" stroke-width="0.5"></path><path d="M271.0539 44.549L127.7137 175.2654" fill="none" stroke="#aaa" stroke-opacity="0.5" stroke-width="0.5"></path><path d="M234.6157 76.4986L185.4979 165.7741" fill="none" stroke="#aaa" stroke-opacity="0.5" stroke-width="0.5"></path><path d="M257.3787 123.9676L185.4979 165.7741" fill="none" stroke="#aaa" stroke-opacity="0.5" stroke-width="0.5"></path><path d="M234.5 166.0394L234.5 76.4986" fill="none" stroke="#aaa" stroke-opacity="0.5" stroke-width="0.5"></path><path d="M183.8157 31.435L234.6157 76.4986" fill="none" stroke="#aaa" stroke-opacity="0.5" stroke-width="0.5"></path><path d="M234.5497 166.0394L277.544 197.1694" fill="none" stroke="#aaa" stroke-opacity="0.5" stroke-width="0.5"></path><path d="M183.8157 31.435L277.544 197.1694" fill="none" stroke="#aaa" stroke-opacity="0.5" stroke-width="0.5"></path><path d="M234.5497 166.0394L257.3787 123.9676" fill="none" stroke="#aaa" stroke-opacity="0.5" stroke-width="0.5"></path><path d="M234.5497 166.0394L198.2148 221.2632" fill="none" stroke="#aaa" stroke-opacity="0.5" stroke-width="0.5"></path><path d="M234.6157 76.4986L189.7906 89.2592" fill="none" stroke="#aaa" stroke-opacity="0.5" stroke-width="0.5"></path><path d="M234.5497 166.0394L301.1431 161.6085" fill="none" stroke="#aaa" stroke-opacity="0.5" stroke-width="0.5"></path><path d="M183.8157 31.435L198.2148 221.2632" fill="none" stroke="#aaa" stroke-opacity="0.5" stroke-width="0.5"></path><path d="M183.8157 31.435L301.1431 161.6085" fill="none" stroke="#aaa" stroke-opacity="0.5" stroke-width="0.5"></path><path d="M185.4979 165.7741L226.4045 27.1081" fill="none" stroke="#aaa" stroke-opacity="0.5" stroke-width="0.5"></path><path d="M147.1109 51.6532L226.4045 27.1081" fill="none" stroke="#aaa" stroke-opacity="0.5" stroke-width="0.5"></path><path d="M198.2148 221.2632L296.2326 79.3313" fill="none" stroke="#aaa" stroke-opacity="0.5" stroke-width="0.5"></path><path d="M147.1109 51.6532L127.7137 175.2654" fill="none" stroke="#aaa" stroke-opacity="0.5" stroke-width="0.5"></path><path d="M155.5 208.2738L155.5 123.0172" fill="none" stroke="#aaa" stroke-opacity="0.5" stroke-width="0.5"></path><path d="M155.5983 208.2738L119.9449 85.576" fill="none" stroke="#aaa" stroke-opacity="0.5" stroke-width="0.5"></path><path d="M119.9449 85.576L155.6046 123.0172" fill="none" stroke="#aaa" stroke-opacity="0.5" stroke-width="0.5"></path><path d="M301.1431 161.6085L127.7137 175.2654" fill="none" stroke="#aaa" stroke-opacity="0.5" stroke-width="0.5"></path><path d="M198.2148 221.2632L147.1109 51.6532" fill="none" stroke="#aaa" stroke-opacity="0.5" stroke-width="0.5"></path><path d="M155.6046 123.0172L127.7137 175.2654" fill="none" stroke="#aaa" stroke-opacity="0.5" stroke-width="0.5"></path><path d="M119.9449 85.576L240.1869 219.7343" fill="none" stroke="#aaa" stroke-opacity="0.5" stroke-width="0.5"></path><path d="M234.5497 166.0394L155.6046 123.0172" fill="none" stroke="#aaa" stroke-opacity="0.5" stroke-width="0.5"></path><path d="M183.8157 31.435L155.6046 123.0172" fill="none" stroke="#aaa" stroke-opacity="0.5" stroke-width="0.5"></path><path d="M183.8157 31.435L119.9449 85.576" fill="none" stroke="#aaa" stroke-opacity="0.5" stroke-width="0.5"></path><path d="M198.2148 221.2632L277.544 197.1694" fill="none" stroke="#aaa" stroke-opacity="0.5" stroke-width="0.5"></path><path d="M296.2326 79.3313L147.1109 51.6532" fill="none" stroke="#aaa" stroke-opacity="0.5" stroke-width="0.5"></path><path d="M147.1109 51.6532L271.0539 44.549" fill="none" stroke="#aaa" stroke-opacity="0.5" stroke-width="0.5"></path><path d="M198.2148 221.2632L301.1431 161.6085" fill="none" stroke="#aaa" stroke-opacity="0.5" stroke-width="0.5"></path><path d="M155.5983 208.2738L127.7137 175.2654" fill="none" stroke="#aaa" stroke-opacity="0.5" stroke-width="0.5"></path><path d="M309.8124 119.663L147.1109 51.6532" fill="none" stroke="#aaa" stroke-opacity="0.5" stroke-width="0.5"></path><path d="M119.9449 85.576L127.7137 175.2654" fill="none" stroke="#aaa" stroke-opacity="0.5" stroke-width="0.5"></path><path d="M301.1431 161.6085L271.0539 44.549" fill="none" stroke="#aaa" stroke-opacity="0.5" stroke-width="0.5"></path><path d="M257.3787 123.9676L110.3046 132.8138" fill="none" stroke="#aaa" stroke-opacity="0.5" stroke-width="0.5"></path><path d="M301.1431 161.6085L189.7906 89.2592" fill="none" stroke="#aaa" stroke-opacity="0.5" stroke-width="0.5"></path><path d="M234.5497 166.0394L226.4045 27.1081" fill="none" stroke="#aaa" stroke-opacity="0.5" stroke-width="0.5"></path><path d="M155.6046 123.0172L271.0539 44.549" fill="none" stroke="#aaa" stroke-opacity="0.5" stroke-width="0.5"></path><path d="M296.2326 79.3313L301.1431 161.6085" fill="none" stroke="#aaa" stroke-opacity="0.5" stroke-width="0.5"></path><path d="M234.5497 166.0394L127.7137 175.2654" fill="none" stroke="#aaa" stroke-opacity="0.5" stroke-width="0.5"></path><path d="M183.8157 31.435L127.7137 175.2654" fill="none" stroke="#aaa" stroke-opacity="0.5" stroke-width="0.5"></path><path d="M257.3787 123.9676L183.8157 31.435" fill="none" stroke="#aaa" stroke-opacity="0.5" stroke-width="0.5"></path><path d="M309.8124 119.663L301.1431 161.6085" fill="none" stroke="#aaa" stroke-opacity="0.5" stroke-width="0.5"></path><path d="M110.3046 132.8138L183.8157 31.435" fill="none" stroke="#aaa" stroke-opacity="0.5" stroke-width="0.5"></path><path d="M155.5983 208.2738L271.0539 44.549" fill="none" stroke="#aaa" stroke-opacity="0.5" stroke-width="0.5"></path><path d="M119.9449 85.576L271.0539 44.549" fill="none" stroke="#aaa" stroke-opacity="0.5" stroke-width="0.5"></path><path d="M234.5497 166.0394L271.0539 44.549" fill="none" stroke="#aaa" stroke-opacity="0.5" stroke-width="0.5"></path><path d="M183.8157 31.435L271.0539 44.549" fill="none" stroke="#aaa" stroke-opacity="0.5" stroke-width="0.5"></path><path d="M119.9449 85.576L309.8124 119.663" fill="none" stroke="#aaa" stroke-opacity="0.5" stroke-width="0.5"></path><path d="M198.2148 221.2632L226.4045 27.1081" fill="none" stroke="#aaa" stroke-opacity="0.5" stroke-width="0.5"></path><path d="M198.2148 221.2632L185.4979 165.7741" fill="none" stroke="#aaa" stroke-opacity="0.5" stroke-width="0.5"></path><path d="M257.3787 123.9676L234.6157 76.4986" fill="none" stroke="#aaa" stroke-opacity="0.5" stroke-width="0.5"></path><path d="M234.6157 76.4986L277.544 197.1694" fill="none" stroke="#aaa" stroke-opacity="0.5" stroke-width="0.5"></path><path d="M296.2326 79.3313L226.4045 27.1081" fill="none" stroke="#aaa" stroke-opacity="0.5" stroke-width="0.5"></path><path d="M110.3046 132.8138L234.6157 76.4986" fill="none" stroke="#aaa" stroke-opacity="0.5" stroke-width="0.5"></path><path d="M309.8124 119.663L226.4045 27.1081" fill="none" stroke="#aaa" stroke-opacity="0.5" stroke-width="0.5"></path><path d="M155.5983 208.2738L183.8157 31.435" fill="none" stroke="#aaa" stroke-opacity="0.5" stroke-width="0.5"></path><path d="M277.544 197.1694L226.4045 27.1081" fill="none" stroke="#aaa" stroke-opacity="0.5" stroke-width="0.5"></path><path d="M296.2326 79.3313L189.7906 89.2592" fill="none" stroke="#aaa" stroke-opacity="0.5" stroke-width="0.5"></path><path d="M240.1869 219.7343L155.6046 123.0172" fill="none" stroke="#aaa" stroke-opacity="0.5" stroke-width="0.5"></path><path d="M277.544 197.1694L127.7137 175.2654" fill="none" stroke="#aaa" stroke-opacity="0.5" stroke-width="0.5"></path><path d="M234.5497 166.0394L183.8157 31.435" fill="none" stroke="#aaa" stroke-opacity="0.5" stroke-width="0.5"></path><path d="M309.8124 119.663L189.7906 89.2592" fill="none" stroke="#aaa" stroke-opacity="0.5" stroke-width="0.5"></path><path d="M155.6046 123.0172L296.2326 79.3313" fill="none" stroke="#aaa" stroke-opacity="0.5" stroke-width="0.5"></path><path d="M234.6157 76.4986L155.6046 123.0172" fill="none" stroke="#aaa" stroke-opacity="0.5" stroke-width="0.5"></path><path d="M234.6157 76.4986L119.9449 85.576" fill="none" stroke="#aaa" stroke-opacity="0.5" stroke-width="0.5"></path><path d="M257.3787 123.9676L155.6046 123.0172" fill="none" stroke="#aaa" stroke-opacity="0.5" stroke-width="0.5"></path><path d="M257.3787 123.9676L119.9449 85.576" fill="none" stroke="#aaa" stroke-opacity="0.5" stroke-width="0.5"></path><path d="M301.1431 161.6085L147.1109 51.6532" fill="none" stroke="#aaa" stroke-opacity="0.5" stroke-width="0.5"></path><path d="M234.6157 76.4986L240.1869 219.7343" fill="none" stroke="#aaa" stroke-opacity="0.5" stroke-width="0.5"></path><path d="M155.6046 123.0172L147.1109 51.6532" fill="none" stroke="#aaa" stroke-opacity="0.5" stroke-width="0.5"></path><path d="M110.3046 132.8138L155.6046 123.0172" fill="none" stroke="#aaa" stroke-opacity="0.5" stroke-width="0.5"></path><path d="M257.3787 123.9676L240.1869 219.7343" fill="none" stroke="#aaa" stroke-opacity="0.5" stroke-width="0.5"></path><path d="M110.3046 132.8138L119.9449 85.576" fill="none" stroke="#aaa" stroke-opacity="0.5" stroke-width="0.5"></path><path d="M110.3046 132.8138L240.1869 219.7343" fill="none" stroke="#aaa" stroke-opacity="0.5" stroke-width="0.5"></path><path d="M240.1869 219.7343L127.7137 175.2654" fill="none" stroke="#aaa" stroke-opacity="0.5" stroke-width="0.5"></path><path d="M301.1431 161.6085L277.544 197.1694" fill="none" stroke="#aaa" stroke-opacity="0.5" stroke-width="0.5"></path><path d="M155.5983 208.2738L296.2326 79.3313" fill="none" stroke="#aaa" stroke-opacity="0.5" stroke-width="0.5"></path><path d="M277.544 197.1694L271.0539 44.549" fill="none" stroke="#aaa" stroke-opacity="0.5" stroke-width="0.5"></path><path d="M119.9449 85.576L296.2326 79.3313" fill="none" stroke="#aaa" stroke-opacity="0.5" stroke-width="0.5"></path><path d="M185.4979 165.7741L155.6046 123.0172" fill="none" stroke="#aaa" stroke-opacity="0.5" stroke-width="0.5"></path><path d="M155.5983 208.2738L147.1109 51.6532" fill="none" stroke="#aaa" stroke-opacity="0.5" stroke-width="0.5"></path><path d="M234.6157 76.4986L127.7137 175.2654" fill="none" stroke="#aaa" stroke-opacity="0.5" stroke-width="0.5"></path><path d="M119.9449 85.576L147.1109 51.6532" fill="none" stroke="#aaa" stroke-opacity="0.5" stroke-width="0.5"></path><path d="M257.3787 123.9676L127.7137 175.2654" fill="none" stroke="#aaa" stroke-opacity="0.5" stroke-width="0.5"></path><path d="M110.3046 132.8138L127.7137 175.2654" fill="none" stroke="#aaa" stroke-opacity="0.5" stroke-width="0.5"></path><path d="M271.0539 44.549L226.4045 27.1081" fill="none" stroke="#aaa" stroke-opacity="0.5" stroke-width="0.5"></path><path d="M240.1869 219.7343L271.0539 44.549" fill="none" stroke="#aaa" stroke-opacity="0.5" stroke-width="0.5"></path><path d="M240.1869 219.7343L189.7906 89.2592" fill="none" stroke="#aaa" stroke-opacity="0.5" stroke-width="0.5"></path><path d="M183.8157 31.435L147.1109 51.6532" fill="none" stroke="#aaa" stroke-opacity="0.5" stroke-width="0.5"></path><path d="M119.9449 85.576L198.2148 221.2632" fill="none" stroke="#aaa" stroke-opacity="0.5" stroke-width="0.5"></path><path d="M119.9449 85.576L301.1431 161.6085" fill="none" stroke="#aaa" stroke-opacity="0.5" stroke-width="0.5"></path><path d="M185.4979 165.7741L127.7137 175.2654" fill="none" stroke="#aaa" stroke-opacity="0.5" stroke-width="0.5"></path><path d="M110.3046 132.8138L185.4979 165.7741" fill="none" stroke="#aaa" stroke-opacity="0.5" stroke-width="0.5"></path><path d="M240.1869 219.7343L309.8124 119.663" fill="none" stroke="#aaa" stroke-opacity="0.5" stroke-width="0.5"></path><path d="M226.4045 27.1081L127.7137 175.2654" fill="none" stroke="#aaa" stroke-opacity="0.5" stroke-width="0.5"></path><path d="M234.6157 76.4986L271.0539 44.549" fill="none" stroke="#aaa" stroke-opacity="0.5" stroke-width="0.5"></path><path d="M257.3787 123.9676L271.0539 44.549" fill="none" stroke="#aaa" stroke-opacity="0.5" stroke-width="0.5"></path><path d="M257.3787 123.9676L189.7906 89.2592" fill="none" stroke="#aaa" stroke-opacity="0.5" stroke-width="0.5"></path><path d="M155.5983 208.2738L240.1869 219.7343" fill="none" stroke="#aaa" stroke-opacity="0.5" stroke-width="0.5"></path><path d="M110.3046 132.8138L271.0539 44.549" fill="none" stroke="#aaa" stroke-opacity="0.5" stroke-width="0.5"></path><path d="M110.3046 132.8138L189.7906 89.2592" fill="none" stroke="#aaa" stroke-opacity="0.5" stroke-width="0.5"></path><path d="M234.6157 76.4986L309.8124 119.663" fill="none" stroke="#aaa" stroke-opacity="0.5" stroke-width="0.5"></path><path d="M234.5497 166.0394L119.9449 85.576" fill="none" stroke="#aaa" stroke-opacity="0.5" stroke-width="0.5"></path><path d="M257.3787 123.9676L309.8124 119.663" fill="none" stroke="#aaa" stroke-opacity="0.5" stroke-width="0.5"></path><path d="M301.1431 161.6085L226.4045 27.1081" fill="none" stroke="#aaa" stroke-opacity="0.5" stroke-width="0.5"></path><path d="M234.5497 166.0394L240.1869 219.7343" fill="none" stroke="#aaa" stroke-opacity="0.5" stroke-width="0.5"></path><path d="M155.6046 123.0172L226.4045 27.1081" fill="none" stroke="#aaa" stroke-opacity="0.5" stroke-width="0.5"></path><path d="M110.3046 132.8138L309.8124 119.663" fill="none" stroke="#aaa" stroke-opacity="0.5" stroke-width="0.5"></path><path d="M189.7906 89.2592L147.1109 51.6532" fill="none" stroke="#aaa" stroke-opacity="0.5" stroke-width="0.5"></path><path d="M183.8157 31.435L240.1869 219.7343" fill="none" stroke="#aaa" stroke-opacity="0.5" stroke-width="0.5"></path><path d="M185.4979 165.7741L271.0539 44.549" fill="none" stroke="#aaa" stroke-opacity="0.5" stroke-width="0.5"></path><path d="M185.4979 165.7741L189.7906 89.2592" fill="none" stroke="#aaa" stroke-opacity="0.5" stroke-width="0.5"></path><path d="M234.5497 166.0394L155.5983 208.2738" fill="none" stroke="#aaa" stroke-opacity="0.5" stroke-width="0.5"></path><path d="M296.2326 79.3313L277.544 197.1694" fill="none" stroke="#aaa" stroke-opacity="0.5" stroke-width="0.5"></path><path d="M189.7906 89.2592L277.544 197.1694" fill="none" stroke="#aaa" stroke-opacity="0.5" stroke-width="0.5"></path><path d="M185.4979 165.7741L309.8124 119.663" fill="none" stroke="#aaa" stroke-opacity="0.5" stroke-width="0.5"></path><path d="M155.6046 123.0172L189.7906 89.2592" fill="none" stroke="#aaa" stroke-opacity="0.5" stroke-width="0.5"></path><path d="M155.5983 208.2738L226.4045 27.1081" fill="none" stroke="#aaa" stroke-opacity="0.5" stroke-width="0.5"></path><path d="M309.8124 119.663L277.544 197.1694" fill="none" stroke="#aaa" stroke-opacity="0.5" stroke-width="0.5"></path><path d="M119.9449 85.576L226.4045 27.1081" fill="none" stroke="#aaa" stroke-opacity="0.5" stroke-width="0.5"></path><path d="M155.5983 208.2738L185.4979 165.7741" fill="none" stroke="#aaa" stroke-opacity="0.5" stroke-width="0.5"></path><path d="M155.6046 123.0172L309.8124 119.663" fill="none" stroke="#aaa" stroke-opacity="0.5" stroke-width="0.5"></path><path d="M119.9449 85.576L185.4979 165.7741" fill="none" stroke="#aaa" stroke-opacity="0.5" stroke-width="0.5"></path><path d="M1 0A1 1 0 1 1 1 -0.0001" fill="#5470c6" transform="matrix(18,0,0,18,257.3787,123.9676)"></path><path d="M1 0A1 1 0 1 1 1 -0.0001" fill="#5470c6" transform="matrix(18,0,0,18,301.1431,161.6085)"></path><path d="M1 0A1 1 0 1 1 1 -0.0001" fill="#5470c6" transform="matrix(18,0,0,18,277.544,197.1694)"></path><path d="M1 0A1 1 0 1 1 1 -0.0001" fill="#5470c6" transform="matrix(18,0,0,18,240.1869,219.7343)"></path><path d="M1 0A1 1 0 1 1 1 -0.0001" fill="#5470c6" transform="matrix(18,0,0,18,234.5497,166.0394)"></path><path d="M1 0A1 1 0 1 1 1 -0.0001" fill="#5470c6" transform="matrix(18,0,0,18,198.2148,221.2632)"></path><path d="M1 0A1 1 0 1 1 1 -0.0001" fill="#5470c6" transform="matrix(18,0,0,18,155.5983,208.2738)"></path><path d="M1 0A1 1 0 1 1 1 -0.0001" fill="#5470c6" transform="matrix(18,0,0,18,185.4979,165.7741)"></path><path d="M1 0A1 1 0 1 1 1 -0.0001" fill="#5470c6" transform="matrix(18,0,0,18,127.7137,175.2654)"></path><path d="M1 0A1 1 0 1 1 1 -0.0001" fill="#5470c6" transform="matrix(18,0,0,18,110.3046,132.8138)"></path><path d="M1 0A1 1 0 1 1 1 -0.0001" fill="#5470c6" transform="matrix(18,0,0,18,119.9449,85.576)"></path><path d="M1 0A1 1 0 1 1 1 -0.0001" fill="#5470c6" transform="matrix(18,0,0,18,155.6046,123.0172)"></path><path d="M1 0A1 1 0 1 1 1 -0.0001" fill="#5470c6" transform="matrix(18,0,0,18,147.1109,51.6532)"></path><path d="M1 0A1 1 0 1 1 1 -0.0001" fill="#5470c6" transform="matrix(18,0,0,18,189.7906,89.2592)"></path><path d="M1 0A1 1 0 1 1 1 -0.0001" fill="#5470c6" transform="matrix(18,0,0,18,183.8157,31.435)"></path><path d="M1 0A1 1 0 1 1 1 -0.0001" fill="#5470c6" transform="matrix(18,0,0,18,226.4045,27.1081)"></path><path d="M1 0A1 1 0 1 1 1 -0.0001" fill="#5470c6" transform="matrix(18,0,0,18,271.0539,44.549)"></path><path d="M1 0A1 1 0 1 1 1 -0.0001" fill="#5470c6" transform="matrix(18,0,0,18,296.2326,79.3313)"></path><path d="M1 0A1 1 0 1 1 1 -0.0001" fill="#5470c6" transform="matrix(18,0,0,18,234.6157,76.4986)"></path><path d="M1 0A1 1 0 1 1 1 -0.0001" fill="#5470c6" transform="matrix(18,0,0,18,309.8124,119.663)"></path><path d="M-25.1792 -5l50.3584 0l0 32l-50.3584 0Z" fill="rgb(0,0,0)" fill-opacity="0" stroke="#ccc" stroke-width="0" transform="translate(237.5 5)"></path><text dominant-baseline="central" fill="#333" style="font-size:22px;font-family:sans-serif;font-weight:bolder;" text-anchor="middle" transform="translate(237.5 5)" y="11">C21</text></g></svg>