<svg baseprofile="full" height="250" style="position:absolute;left:0;top:0;user-select:none" version="1.1" width="475" xmlns="http://www.w3.org/2000/svg" xmlns:xlink="http://www.w3.org/1999/xlink"><rect fill="none" height="250" id="0" width="475" x="0" y="0"></rect><g><path d="M121.863 173.8257L285.1906 198.2925" fill="none" stroke="#aaa" stroke-opacity="0.5"></path><path d="M285.1906 198.2925L141.2492 51.4583" fill="none" stroke="#aaa" stroke-opacity="0.5"></path><path d="M224.8042 227.897L304.9706 82.4115" fill="none" stroke="#aaa" stroke-opacity="0.5"></path><path d="M285.1906 198.2925L304.9706 82.4115" fill="none" stroke="#aaa" stroke-opacity="0.5"></path><path d="M194.6483 24.8762L226.6327 162.7215" fill="none" stroke="#aaa" stroke-opacity="0.5"></path><path d="M194.6483 24.8762L141.2492 51.4583" fill="none" stroke="#aaa" stroke-opacity="0.5"></path><path d="M194.6483 24.8762L258.459 32.184" fill="none" stroke="#aaa" stroke-opacity="0.5"></path><path d="M237.9312 89.8738L309.6837 142.063" fill="none" stroke="#aaa" stroke-opacity="0.5"></path><path d="M141.2492 51.4583L106.4833 108.8863" fill="none" stroke="#aaa" stroke-opacity="0.5"></path><path d="M167.6815 116.9659L237.9312 89.8738" fill="none" stroke="#aaa" stroke-opacity="0.5"></path><path d="M121.863 173.8257L309.6837 142.063" fill="none" stroke="#aaa" stroke-opacity="0.5"></path><path d="M224.8042 227.897L285.1906 198.2925" fill="none" stroke="#aaa" stroke-opacity="0.5"></path><path d="M165.0393 213.5445L106.4833 108.8863" fill="none" stroke="#aaa" stroke-opacity="0.5"></path><path d="M237.9312 89.8738L141.2492 51.4583" fill="none" stroke="#aaa" stroke-opacity="0.5"></path><path d="M237.9312 89.8738L258.459 32.184" fill="none" stroke="#aaa" stroke-opacity="0.5"></path><path d="M167.6815 116.9659L309.6837 142.063" fill="none" stroke="#aaa" stroke-opacity="0.5"></path><path d="M121.863 173.8257L226.6327 162.7215" fill="none" stroke="#aaa" stroke-opacity="0.5"></path><path d="M106.4833 108.8863L309.6837 142.063" fill="none" stroke="#aaa" stroke-opacity="0.5"></path><path d="M121.863 173.8257L258.459 32.184" fill="none" stroke="#aaa" stroke-opacity="0.5"></path><path d="M224.8042 227.897L194.6483 24.8762" fill="none" stroke="#aaa" stroke-opacity="0.5"></path><path d="M224.8042 227.897L165.0393 213.5445" fill="none" stroke="#aaa" stroke-opacity="0.5"></path><path d="M167.6815 116.9659L226.6327 162.7215" fill="none" stroke="#aaa" stroke-opacity="0.5"></path><path d="M224.8042 227.897L121.863 173.8257" fill="none" stroke="#aaa" stroke-opacity="0.5"></path><path d="M165.0393 213.5445L167.6815 116.9659" fill="none" stroke="#aaa" stroke-opacity="0.5"></path><path d="M285.1906 198.2925L106.4833 108.8863" fill="none" stroke="#aaa" stroke-opacity="0.5"></path><path d="M167.6815 116.9659L141.2492 51.4583" fill="none" stroke="#aaa" stroke-opacity="0.5"></path><path d="M224.8042 227.897L309.6837 142.063" fill="none" stroke="#aaa" stroke-opacity="0.5"></path><path d="M167.6815 116.9659L258.459 32.184" fill="none" stroke="#aaa" stroke-opacity="0.5"></path><path d="M258.459 32.184L309.6837 142.063" fill="none" stroke="#aaa" stroke-opacity="0.5"></path><path d="M194.6483 24.8762L106.4833 108.8863" fill="none" stroke="#aaa" stroke-opacity="0.5"></path><path d="M224.8042 227.897L226.6327 162.7215" fill="none" stroke="#aaa" stroke-opacity="0.5"></path><path d="M304.9706 82.4115L237.9312 89.8738" fill="none" stroke="#aaa" stroke-opacity="0.5"></path><path d="M226.6327 162.7215L237.9312 89.8738" fill="none" stroke="#aaa" stroke-opacity="0.5"></path><path d="M224.8042 227.897L258.459 32.184" fill="none" stroke="#aaa" stroke-opacity="0.5"></path><path d="M285.1906 198.2925L226.6327 162.7215" fill="none" stroke="#aaa" stroke-opacity="0.5"></path><path d="M165.0393 213.5445L304.9706 82.4115" fill="none" stroke="#aaa" stroke-opacity="0.5"></path><path d="M285.1906 198.2925L258.459 32.184" fill="none" stroke="#aaa" stroke-opacity="0.5"></path><path d="M304.9706 82.4115L309.6837 142.063" fill="none" stroke="#aaa" stroke-opacity="0.5"></path><path d="M226.6327 162.7215L309.6837 142.063" fill="none" stroke="#aaa" stroke-opacity="0.5"></path><path d="M194.6483 24.8762L167.6815 116.9659" fill="none" stroke="#aaa" stroke-opacity="0.5"></path><path d="M237.9312 89.8738L106.4833 108.8863" fill="none" stroke="#aaa" stroke-opacity="0.5"></path><path d="M121.863 173.8257L106.4833 108.8863" fill="none" stroke="#aaa" stroke-opacity="0.5"></path><path d="M304.9706 82.4115L226.6327 162.7215" fill="none" stroke="#aaa" stroke-opacity="0.5"></path><path d="M121.863 173.8257L237.9312 89.8738" fill="none" stroke="#aaa" stroke-opacity="0.5"></path><path d="M304.9706 82.4115L141.2492 51.4583" fill="none" stroke="#aaa" stroke-opacity="0.5"></path><path d="M304.9706 82.4115L258.459 32.184" fill="none" stroke="#aaa" stroke-opacity="0.5"></path><path d="M165.0393 213.5445L285.1906 198.2925" fill="none" stroke="#aaa" stroke-opacity="0.5"></path><path d="M226.6327 162.7215L141.2492 51.4583" fill="none" stroke="#aaa" stroke-opacity="0.5"></path><path d="M226.6327 162.7215L258.459 32.184" fill="none" stroke="#aaa" stroke-opacity="0.5"></path><path d="M167.6815 116.9659L106.4833 108.8863" fill="none" stroke="#aaa" stroke-opacity="0.5"></path><path d="M194.6483 24.8762L304.9706 82.4115" fill="none" stroke="#aaa" stroke-opacity="0.5"></path><path d="M121.863 173.8257L167.6815 116.9659" fill="none" stroke="#aaa" stroke-opacity="0.5"></path><path d="M165.0393 213.5445L237.9312 89.8738" fill="none" stroke="#aaa" stroke-opacity="0.5"></path><path d="M141.2492 51.4583L309.6837 142.063" fill="none" stroke="#aaa" stroke-opacity="0.5"></path><path d="M224.8042 227.897L106.4833 108.8863" fill="none" stroke="#aaa" stroke-opacity="0.5"></path><path d="M165.0393 213.5445L121.863 173.8257" fill="none" stroke="#aaa" stroke-opacity="0.5"></path><path d="M258.459 32.184L106.4833 108.8863" fill="none" stroke="#aaa" stroke-opacity="0.5"></path><path d="M224.8042 227.897L237.9312 89.8738" fill="none" stroke="#aaa" stroke-opacity="0.5"></path><path d="M165.0393 213.5445L309.6837 142.063" fill="none" stroke="#aaa" stroke-opacity="0.5"></path><path d="M121.863 173.8257L141.2492 51.4583" fill="none" stroke="#aaa" stroke-opacity="0.5"></path><path d="M194.6483 24.8762L285.1906 198.2925" fill="none" stroke="#aaa" stroke-opacity="0.5"></path><path d="M285.1906 198.2925L237.9312 89.8738" fill="none" stroke="#aaa" stroke-opacity="0.5"></path><path d="M141.2492 51.4583L258.459 32.184" fill="none" stroke="#aaa" stroke-opacity="0.5"></path><path d="M121.863 173.8257L304.9706 82.4115" fill="none" stroke="#aaa" stroke-opacity="0.5"></path><path d="M165.0393 213.5445L226.6327 162.7215" fill="none" stroke="#aaa" stroke-opacity="0.5"></path><path d="M224.8042 227.897L167.6815 116.9659" fill="none" stroke="#aaa" stroke-opacity="0.5"></path><path d="M165.0393 213.5445L141.2492 51.4583" fill="none" stroke="#aaa" stroke-opacity="0.5"></path><path d="M194.6483 24.8762L237.9312 89.8738" fill="none" stroke="#aaa" stroke-opacity="0.5"></path><path d="M165.0393 213.5445L258.459 32.184" fill="none" stroke="#aaa" stroke-opacity="0.5"></path><path d="M285.1906 198.2925L309.6837 142.063" fill="none" stroke="#aaa" stroke-opacity="0.5"></path><path d="M167.6815 116.9659L304.9706 82.4115" fill="none" stroke="#aaa" stroke-opacity="0.5"></path><path d="M285.1906 198.2925L167.6815 116.9659" fill="none" stroke="#aaa" stroke-opacity="0.5"></path><path d="M304.9706 82.4115L106.4833 108.8863" fill="none" stroke="#aaa" stroke-opacity="0.5"></path><path d="M194.6483 24.8762L165.0393 213.5445" fill="none" stroke="#aaa" stroke-opacity="0.5"></path><path d="M226.6327 162.7215L106.4833 108.8863" fill="none" stroke="#aaa" stroke-opacity="0.5"></path><path d="M194.6483 24.8762L121.863 173.8257" fill="none" stroke="#aaa" stroke-opacity="0.5"></path><path d="M224.8042 227.897L141.2492 51.4583" fill="none" stroke="#aaa" stroke-opacity="0.5"></path><path d="M194.6483 24.8762L309.6837 142.063" fill="none" stroke="#aaa" stroke-opacity="0.5"></path><path d="M1 0A1 1 0 1 1 1 -0.0001" fill="#5470c6" transform="matrix(18.5,0,0,18.5,309.6837,142.063)"></path><path d="M1 0A1 1 0 1 1 1 -0.0001" fill="#5470c6" transform="matrix(18.5,0,0,18.5,285.1906,198.2925)"></path><path d="M1 0A1 1 0 1 1 1 -0.0001" fill="#5470c6" transform="matrix(18.5,0,0,18.5,224.8042,227.897)"></path><path d="M1 0A1 1 0 1 1 1 -0.0001" fill="#5470c6" transform="matrix(18.5,0,0,18.5,165.0393,213.5445)"></path><path d="M1 0A1 1 0 1 1 1 -0.0001" fill="#5470c6" transform="matrix(18.5,0,0,18.5,226.6327,162.7215)"></path><path d="M1 0A1 1 0 1 1 1 -0.0001" fill="#5470c6" transform="matrix(18.5,0,0,18.5,121.863,173.8257)"></path><path d="M1 0A1 1 0 1 1 1 -0.0001" fill="#5470c6" transform="matrix(18.5,0,0,18.5,106.4833,108.8863)"></path><path d="M1 0A1 1 0 1 1 1 -0.0001" fill="#5470c6" transform="matrix(18.5,0,0,18.5,167.6815,116.9659)"></path><path d="M1 0A1 1 0 1 1 1 -0.0001" fill="#5470c6" transform="matrix(18.5,0,0,18.5,141.2492,51.4583)"></path><path d="M1 0A1 1 0 1 1 1 -0.0001" fill="#5470c6" transform="matrix(18.5,0,0,18.5,194.6483,24.8762)"></path><path d="M1 0A1 1 0 1 1 1 -0.0001" fill="#5470c6" transform="matrix(18.5,0,0,18.5,237.9312,89.8738)"></path><path d="M1 0A1 1 0 1 1 1 -0.0001" fill="#5470c6" transform="matrix(18.5,0,0,18.5,258.459,32.184)"></path><path d="M1 0A1 1 0 1 1 1 -0.0001" fill="#5470c6" transform="matrix(18.5,0,0,18.5,304.9706,82.4115)"></path><path d="M-32.4922 -5l64.9844 0l0 33l-64.9844 0Z" fill="rgb(0,0,0)" fill-opacity="0" stroke="#ccc" stroke-width="0" transform="translate(237.5 5)"></path><text dominant-baseline="central" fill="#333" style="font-size:23px;font-family:sans-serif;font-weight:bolder;" text-anchor="middle" transform="translate(237.5 5)" y="11.5">C210</text></g></svg>