<svg baseprofile="full" height="250" style="position:absolute;left:0;top:0;user-select:none" version="1.1" width="475" xmlns="http://www.w3.org/2000/svg" xmlns:xlink="http://www.w3.org/1999/xlink"><rect fill="none" height="250" id="0" width="475" x="0" y="0"></rect><g><path d="M256.2715 139.9338L316.5279 115.7919" fill="none" stroke="#aaa" stroke-opacity="0.5"></path><path d="M316.5279 115.7919L174.6357 156.2073" fill="none" stroke="#aaa" stroke-opacity="0.5"></path><path d="M202.9019 82.2768L174.6357 156.2073" fill="none" stroke="#aaa" stroke-opacity="0.5"></path><path d="M233.5285 224.1108L152.3267 36.3798" fill="none" stroke="#aaa" stroke-opacity="0.5"></path><path d="M233.5285 224.1108L293.8482 192.3444" fill="none" stroke="#aaa" stroke-opacity="0.5"></path><path d="M202.9019 82.2768L227.4785 20.7146" fill="none" stroke="#aaa" stroke-opacity="0.5"></path><path d="M114.1561 93.2024L174.6357 156.2073" fill="none" stroke="#aaa" stroke-opacity="0.5"></path><path d="M202.9019 82.2768L316.5279 115.7919" fill="none" stroke="#aaa" stroke-opacity="0.5"></path><path d="M165.6667 221.1215L202.9019 82.2768" fill="none" stroke="#aaa" stroke-opacity="0.5"></path><path d="M233.5285 224.1108L174.6357 156.2073" fill="none" stroke="#aaa" stroke-opacity="0.5"></path><path d="M227.4785 20.7146L285.374 55.2268" fill="none" stroke="#aaa" stroke-opacity="0.5"></path><path d="M114.1561 93.2024L316.5279 115.7919" fill="none" stroke="#aaa" stroke-opacity="0.5"></path><path d="M165.6667 221.1215L285.374 55.2268" fill="none" stroke="#aaa" stroke-opacity="0.5"></path><path d="M227.4785 20.7146L256.2715 139.9338" fill="none" stroke="#aaa" stroke-opacity="0.5"></path><path d="M165.6667 221.1215L256.2715 139.9338" fill="none" stroke="#aaa" stroke-opacity="0.5"></path><path d="M152.3267 36.3798L285.374 55.2268" fill="none" stroke="#aaa" stroke-opacity="0.5"></path><path d="M233.5285 224.1108L227.4785 20.7146" fill="none" stroke="#aaa" stroke-opacity="0.5"></path><path d="M152.3267 36.3798L256.2715 139.9338" fill="none" stroke="#aaa" stroke-opacity="0.5"></path><path d="M233.5285 224.1108L316.5279 115.7919" fill="none" stroke="#aaa" stroke-opacity="0.5"></path><path d="M285.374 55.2268L174.6357 156.2073" fill="none" stroke="#aaa" stroke-opacity="0.5"></path><path d="M227.4785 20.7146L293.8482 192.3444" fill="none" stroke="#aaa" stroke-opacity="0.5"></path><path d="M256.2715 139.9338L285.374 55.2268" fill="none" stroke="#aaa" stroke-opacity="0.5"></path><path d="M165.6667 221.1215L233.5285 224.1108" fill="none" stroke="#aaa" stroke-opacity="0.5"></path><path d="M152.3267 36.3798L293.8482 192.3444" fill="none" stroke="#aaa" stroke-opacity="0.5"></path><path d="M285.374 55.2268L316.5279 115.7919" fill="none" stroke="#aaa" stroke-opacity="0.5"></path><path d="M202.9019 82.2768L285.374 55.2268" fill="none" stroke="#aaa" stroke-opacity="0.5"></path><path d="M227.4785 20.7146L174.6357 156.2073" fill="none" stroke="#aaa" stroke-opacity="0.5"></path><path d="M256.2715 139.9338L293.8482 192.3444" fill="none" stroke="#aaa" stroke-opacity="0.5"></path><path d="M293.8482 192.3444L174.6357 156.2073" fill="none" stroke="#aaa" stroke-opacity="0.5"></path><path d="M202.9019 82.2768L256.2715 139.9338" fill="none" stroke="#aaa" stroke-opacity="0.5"></path><path d="M227.4785 20.7146L110.7948 162.6899" fill="none" stroke="#aaa" stroke-opacity="0.5"></path><path d="M293.8482 192.3444L110.7948 162.6899" fill="none" stroke="#aaa" stroke-opacity="0.5"></path><path d="M165.6667 221.1215L110.7948 162.6899" fill="none" stroke="#aaa" stroke-opacity="0.5"></path><path d="M114.1561 93.2024L285.374 55.2268" fill="none" stroke="#aaa" stroke-opacity="0.5"></path><path d="M114.1561 93.2024L256.2715 139.9338" fill="none" stroke="#aaa" stroke-opacity="0.5"></path><path d="M202.9019 82.2768L293.8482 192.3444" fill="none" stroke="#aaa" stroke-opacity="0.5"></path><path d="M152.3267 36.3798L110.7948 162.6899" fill="none" stroke="#aaa" stroke-opacity="0.5"></path><path d="M233.5285 224.1108L202.9019 82.2768" fill="none" stroke="#aaa" stroke-opacity="0.5"></path><path d="M227.4785 20.7146L114.1561 93.2024" fill="none" stroke="#aaa" stroke-opacity="0.5"></path><path d="M233.5285 224.1108L285.374 55.2268" fill="none" stroke="#aaa" stroke-opacity="0.5"></path><path d="M110.7948 162.6899L316.5279 115.7919" fill="none" stroke="#aaa" stroke-opacity="0.5"></path><path d="M114.1561 93.2024L293.8482 192.3444" fill="none" stroke="#aaa" stroke-opacity="0.5"></path><path d="M233.5285 224.1108L256.2715 139.9338" fill="none" stroke="#aaa" stroke-opacity="0.5"></path><path d="M256.2715 139.9338L110.7948 162.6899" fill="none" stroke="#aaa" stroke-opacity="0.5"></path><path d="M152.3267 36.3798L114.1561 93.2024" fill="none" stroke="#aaa" stroke-opacity="0.5"></path><path d="M202.9019 82.2768L110.7948 162.6899" fill="none" stroke="#aaa" stroke-opacity="0.5"></path><path d="M114.1561 93.2024L110.7948 162.6899" fill="none" stroke="#aaa" stroke-opacity="0.5"></path><path d="M202.9019 82.2768L114.1561 93.2024" fill="none" stroke="#aaa" stroke-opacity="0.5"></path><path d="M293.8482 192.3444L285.374 55.2268" fill="none" stroke="#aaa" stroke-opacity="0.5"></path><path d="M227.4785 20.7146L152.3267 36.3798" fill="none" stroke="#aaa" stroke-opacity="0.5"></path><path d="M165.6667 221.1215L152.3267 36.3798" fill="none" stroke="#aaa" stroke-opacity="0.5"></path><path d="M233.5285 224.1108L110.7948 162.6899" fill="none" stroke="#aaa" stroke-opacity="0.5"></path><path d="M165.6667 221.1215L293.8482 192.3444" fill="none" stroke="#aaa" stroke-opacity="0.5"></path><path d="M233.5285 224.1108L114.1561 93.2024" fill="none" stroke="#aaa" stroke-opacity="0.5"></path><path d="M285.374 55.2268L110.7948 162.6899" fill="none" stroke="#aaa" stroke-opacity="0.5"></path><path d="M165.6667 221.1215L174.6357 156.2073" fill="none" stroke="#aaa" stroke-opacity="0.5"></path><path d="M152.3267 36.3798L174.6357 156.2073" fill="none" stroke="#aaa" stroke-opacity="0.5"></path><path d="M202.9019 82.2768L152.3267 36.3798" fill="none" stroke="#aaa" stroke-opacity="0.5"></path><path d="M165.6667 221.1215L227.4785 20.7146" fill="none" stroke="#aaa" stroke-opacity="0.5"></path><path d="M227.4785 20.7146L316.5279 115.7919" fill="none" stroke="#aaa" stroke-opacity="0.5"></path><path d="M293.8482 192.3444L316.5279 115.7919" fill="none" stroke="#aaa" stroke-opacity="0.5"></path><path d="M165.6667 221.1215L316.5279 115.7919" fill="none" stroke="#aaa" stroke-opacity="0.5"></path><path d="M110.7948 162.6899L174.6357 156.2073" fill="none" stroke="#aaa" stroke-opacity="0.5"></path><path d="M256.2715 139.9338L174.6357 156.2073" fill="none" stroke="#aaa" stroke-opacity="0.5"></path><path d="M152.3267 36.3798L316.5279 115.7919" fill="none" stroke="#aaa" stroke-opacity="0.5"></path><path d="M165.6667 221.1215L114.1561 93.2024" fill="none" stroke="#aaa" stroke-opacity="0.5"></path><path d="M1 0A1 1 0 1 1 1 -0.0001" fill="#5470c6" transform="matrix(18.5,0,0,18.5,256.2715,139.9338)"></path><path d="M1 0A1 1 0 1 1 1 -0.0001" fill="#5470c6" transform="matrix(18.5,0,0,18.5,293.8482,192.3444)"></path><path d="M1 0A1 1 0 1 1 1 -0.0001" fill="#5470c6" transform="matrix(18.5,0,0,18.5,233.5285,224.1108)"></path><path d="M1 0A1 1 0 1 1 1 -0.0001" fill="#5470c6" transform="matrix(18.5,0,0,18.5,165.6667,221.1215)"></path><path d="M1 0A1 1 0 1 1 1 -0.0001" fill="#5470c6" transform="matrix(18.5,0,0,18.5,174.6357,156.2073)"></path><path d="M1 0A1 1 0 1 1 1 -0.0001" fill="#5470c6" transform="matrix(18.5,0,0,18.5,110.7948,162.6899)"></path><path d="M1 0A1 1 0 1 1 1 -0.0001" fill="#5470c6" transform="matrix(18.5,0,0,18.5,114.1561,93.2024)"></path><path d="M1 0A1 1 0 1 1 1 -0.0001" fill="#5470c6" transform="matrix(18.5,0,0,18.5,202.9019,82.2768)"></path><path d="M1 0A1 1 0 1 1 1 -0.0001" fill="#5470c6" transform="matrix(18.5,0,0,18.5,152.3267,36.3798)"></path><path d="M1 0A1 1 0 1 1 1 -0.0001" fill="#5470c6" transform="matrix(18.5,0,0,18.5,227.4785,20.7146)"></path><path d="M1 0A1 1 0 1 1 1 -0.0001" fill="#5470c6" transform="matrix(18.5,0,0,18.5,285.374,55.2268)"></path><path d="M1 0A1 1 0 1 1 1 -0.0001" fill="#5470c6" transform="matrix(18.5,0,0,18.5,316.5279,115.7919)"></path><path d="M-31.8633 -5l63.7266 0l0 33l-63.7266 0Z" fill="rgb(0,0,0)" fill-opacity="0" stroke="#ccc" stroke-width="0" transform="translate(237.5 5)"></path><text dominant-baseline="central" fill="#333" style="font-size:23px;font-family:sans-serif;font-weight:bolder;" text-anchor="middle" transform="translate(237.5 5)" y="11.5">C211</text></g></svg>