<svg baseprofile="full" height="250" style="position:absolute;left:0;top:0;user-select:none" version="1.1" width="475" xmlns="http://www.w3.org/2000/svg" xmlns:xlink="http://www.w3.org/1999/xlink"><rect fill="none" height="250" id="0" width="475" x="0" y="0"></rect><g><path d="M107.6038 117.8623L288.0292 189.6844" fill="none" stroke="#aaa" stroke-opacity="0.5"></path><path d="M296.8001 67.1057L179.8819 136.0069" fill="none" stroke="#aaa" stroke-opacity="0.5"></path><path d="M184.8666 29.917L179.8819 136.0069" fill="none" stroke="#aaa" stroke-opacity="0.5"></path><path d="M243.9231 29.2401L107.6038 117.8623" fill="none" stroke="#aaa" stroke-opacity="0.5"></path><path d="M241.2189 112.5839L107.6038 117.8623" fill="none" stroke="#aaa" stroke-opacity="0.5"></path><path d="M126.0072 183.3668L107.6038 117.8623" fill="none" stroke="#aaa" stroke-opacity="0.5"></path><path d="M243.9231 29.2401L184.8666 29.917" fill="none" stroke="#aaa" stroke-opacity="0.5"></path><path d="M296.8001 67.1057L313.483 132.3842" fill="none" stroke="#aaa" stroke-opacity="0.5"></path><path d="M243.9231 29.2401L296.8001 67.1057" fill="none" stroke="#aaa" stroke-opacity="0.5"></path><path d="M241.2189 112.5839L184.8666 29.917" fill="none" stroke="#aaa" stroke-opacity="0.5"></path><path d="M184.8666 29.917L313.483 132.3842" fill="none" stroke="#aaa" stroke-opacity="0.5"></path><path d="M241.2189 112.5839L296.8001 67.1057" fill="none" stroke="#aaa" stroke-opacity="0.5"></path><path d="M179.418 221.4265L237.7827 220.2089" fill="none" stroke="#aaa" stroke-opacity="0.5"></path><path d="M179.418 221.4265L288.0292 189.6844" fill="none" stroke="#aaa" stroke-opacity="0.5"></path><path d="M134.496 60.2134L243.9231 29.2401" fill="none" stroke="#aaa" stroke-opacity="0.5"></path><path d="M243.9231 29.2401L288.0292 189.6844" fill="none" stroke="#aaa" stroke-opacity="0.5"></path><path d="M134.496 60.2134L179.418 221.4265" fill="none" stroke="#aaa" stroke-opacity="0.5"></path><path d="M241.2189 112.5839L288.0292 189.6844" fill="none" stroke="#aaa" stroke-opacity="0.5"></path><path d="M243.9231 29.2401L179.8819 136.0069" fill="none" stroke="#aaa" stroke-opacity="0.5"></path><path d="M241.2189 112.5839L179.8819 136.0069" fill="none" stroke="#aaa" stroke-opacity="0.5"></path><path d="M126.0072 183.3668L179.8819 136.0069" fill="none" stroke="#aaa" stroke-opacity="0.5"></path><path d="M179.418 221.4265L313.483 132.3842" fill="none" stroke="#aaa" stroke-opacity="0.5"></path><path d="M296.8001 67.1057L237.7827 220.2089" fill="none" stroke="#aaa" stroke-opacity="0.5"></path><path d="M241.2189 112.5839L126.0072 183.3668" fill="none" stroke="#aaa" stroke-opacity="0.5"></path><path d="M184.8666 29.917L237.7827 220.2089" fill="none" stroke="#aaa" stroke-opacity="0.5"></path><path d="M243.9231 29.2401L313.483 132.3842" fill="none" stroke="#aaa" stroke-opacity="0.5"></path><path d="M184.8666 29.917L288.0292 189.6844" fill="none" stroke="#aaa" stroke-opacity="0.5"></path><path d="M179.8819 136.0069L237.7827 220.2089" fill="none" stroke="#aaa" stroke-opacity="0.5"></path><path d="M241.2189 112.5839L313.483 132.3842" fill="none" stroke="#aaa" stroke-opacity="0.5"></path><path d="M179.8819 136.0069L288.0292 189.6844" fill="none" stroke="#aaa" stroke-opacity="0.5"></path><path d="M126.0072 183.3668L313.483 132.3842" fill="none" stroke="#aaa" stroke-opacity="0.5"></path><path d="M134.496 60.2134L107.6038 117.8623" fill="none" stroke="#aaa" stroke-opacity="0.5"></path><path d="M296.8001 67.1057L179.418 221.4265" fill="none" stroke="#aaa" stroke-opacity="0.5"></path><path d="M134.496 60.2134L184.8666 29.917" fill="none" stroke="#aaa" stroke-opacity="0.5"></path><path d="M179.418 221.4265L107.6038 117.8623" fill="none" stroke="#aaa" stroke-opacity="0.5"></path><path d="M134.496 60.2134L296.8001 67.1057" fill="none" stroke="#aaa" stroke-opacity="0.5"></path><path d="M184.8666 29.917L179.418 221.4265" fill="none" stroke="#aaa" stroke-opacity="0.5"></path><path d="M241.2189 112.5839L134.496 60.2134" fill="none" stroke="#aaa" stroke-opacity="0.5"></path><path d="M107.6038 117.8623L179.8819 136.0069" fill="none" stroke="#aaa" stroke-opacity="0.5"></path><path d="M126.0072 183.3668L134.496 60.2134" fill="none" stroke="#aaa" stroke-opacity="0.5"></path><path d="M134.496 60.2134L237.7827 220.2089" fill="none" stroke="#aaa" stroke-opacity="0.5"></path><path d="M126.0072 183.3668L184.8666 29.917" fill="none" stroke="#aaa" stroke-opacity="0.5"></path><path d="M126.0072 183.3668L296.8001 67.1057" fill="none" stroke="#aaa" stroke-opacity="0.5"></path><path d="M134.496 60.2134L288.0292 189.6844" fill="none" stroke="#aaa" stroke-opacity="0.5"></path><path d="M313.483 132.3842L237.7827 220.2089" fill="none" stroke="#aaa" stroke-opacity="0.5"></path><path d="M313.483 132.3842L288.0292 189.6844" fill="none" stroke="#aaa" stroke-opacity="0.5"></path><path d="M243.9231 29.2401L237.7827 220.2089" fill="none" stroke="#aaa" stroke-opacity="0.5"></path><path d="M107.6038 117.8623L313.483 132.3842" fill="none" stroke="#aaa" stroke-opacity="0.5"></path><path d="M241.2189 112.5839L237.7827 220.2089" fill="none" stroke="#aaa" stroke-opacity="0.5"></path><path d="M134.496 60.2134L179.8819 136.0069" fill="none" stroke="#aaa" stroke-opacity="0.5"></path><path d="M126.0072 183.3668L237.7827 220.2089" fill="none" stroke="#aaa" stroke-opacity="0.5"></path><path d="M296.8001 67.1057L107.6038 117.8623" fill="none" stroke="#aaa" stroke-opacity="0.5"></path><path d="M126.0072 183.3668L288.0292 189.6844" fill="none" stroke="#aaa" stroke-opacity="0.5"></path><path d="M313.483 132.3842L179.8819 136.0069" fill="none" stroke="#aaa" stroke-opacity="0.5"></path><path d="M184.8666 29.917L107.6038 117.8623" fill="none" stroke="#aaa" stroke-opacity="0.5"></path><path d="M179.418 221.4265L179.8819 136.0069" fill="none" stroke="#aaa" stroke-opacity="0.5"></path><path d="M288.0292 189.6844L237.7827 220.2089" fill="none" stroke="#aaa" stroke-opacity="0.5"></path><path d="M241.2189 112.5839L243.9231 29.2401" fill="none" stroke="#aaa" stroke-opacity="0.5"></path><path d="M296.8001 67.1057L184.8666 29.917" fill="none" stroke="#aaa" stroke-opacity="0.5"></path><path d="M126.0072 183.3668L243.9231 29.2401" fill="none" stroke="#aaa" stroke-opacity="0.5"></path><path d="M243.9231 29.2401L179.418 221.4265" fill="none" stroke="#aaa" stroke-opacity="0.5"></path><path d="M134.496 60.2134L313.483 132.3842" fill="none" stroke="#aaa" stroke-opacity="0.5"></path><path d="M241.2189 112.5839L179.418 221.4265" fill="none" stroke="#aaa" stroke-opacity="0.5"></path><path d="M126.0072 183.3668L179.418 221.4265" fill="none" stroke="#aaa" stroke-opacity="0.5"></path><path d="M296.8001 67.1057L288.0292 189.6844" fill="none" stroke="#aaa" stroke-opacity="0.5"></path><path d="M107.6038 117.8623L237.7827 220.2089" fill="none" stroke="#aaa" stroke-opacity="0.5"></path><path d="M1 0A1 1 0 1 1 1 -0.0001" fill="#5470c6" transform="matrix(18.5,0,0,18.5,241.2189,112.5839)"></path><path d="M1 0A1 1 0 1 1 1 -0.0001" fill="#5470c6" transform="matrix(18.5,0,0,18.5,288.0292,189.6844)"></path><path d="M1 0A1 1 0 1 1 1 -0.0001" fill="#5470c6" transform="matrix(18.5,0,0,18.5,237.7827,220.2089)"></path><path d="M1 0A1 1 0 1 1 1 -0.0001" fill="#5470c6" transform="matrix(18.5,0,0,18.5,179.418,221.4265)"></path><path d="M1 0A1 1 0 1 1 1 -0.0001" fill="#5470c6" transform="matrix(18.5,0,0,18.5,126.0072,183.3668)"></path><path d="M1 0A1 1 0 1 1 1 -0.0001" fill="#5470c6" transform="matrix(18.5,0,0,18.5,179.8819,136.0069)"></path><path d="M1 0A1 1 0 1 1 1 -0.0001" fill="#5470c6" transform="matrix(18.5,0,0,18.5,107.6038,117.8623)"></path><path d="M1 0A1 1 0 1 1 1 -0.0001" fill="#5470c6" transform="matrix(18.5,0,0,18.5,134.496,60.2134)"></path><path d="M1 0A1 1 0 1 1 1 -0.0001" fill="#5470c6" transform="matrix(18.5,0,0,18.5,184.8666,29.917)"></path><path d="M1 0A1 1 0 1 1 1 -0.0001" fill="#5470c6" transform="matrix(18.5,0,0,18.5,243.9231,29.2401)"></path><path d="M1 0A1 1 0 1 1 1 -0.0001" fill="#5470c6" transform="matrix(18.5,0,0,18.5,296.8001,67.1057)"></path><path d="M1 0A1 1 0 1 1 1 -0.0001" fill="#5470c6" transform="matrix(18.5,0,0,18.5,313.483,132.3842)"></path><path d="M-32.4922 -5l64.9844 0l0 33l-64.9844 0Z" fill="rgb(0,0,0)" fill-opacity="0" stroke="#ccc" stroke-width="0" transform="translate(237.5 5)"></path><text dominant-baseline="central" fill="#333" style="font-size:23px;font-family:sans-serif;font-weight:bolder;" text-anchor="middle" transform="translate(237.5 5)" y="11.5">C212</text></g></svg>