<svg baseprofile="full" height="250" style="position:absolute;left:0;top:0;user-select:none" version="1.1" width="475" xmlns="http://www.w3.org/2000/svg" xmlns:xlink="http://www.w3.org/1999/xlink"><rect fill="none" height="250" id="0" width="475" x="0" y="0"></rect><g><path d="M127.9311 67.7605L203.6905 230.3258" fill="none" stroke="#aaa" stroke-opacity="0.5"></path><path d="M179.783 26.0434L271.404 208.5633" fill="none" stroke="#aaa" stroke-opacity="0.5"></path><path d="M203.6905 230.3258L271.404 208.5633" fill="none" stroke="#aaa" stroke-opacity="0.5"></path><path d="M108.344 129.9987L271.404 208.5633" fill="none" stroke="#aaa" stroke-opacity="0.5"></path><path d="M133.5931 196.4555L271.404 208.5633" fill="none" stroke="#aaa" stroke-opacity="0.5"></path><path d="M127.9311 67.7605L271.404 208.5633" fill="none" stroke="#aaa" stroke-opacity="0.5"></path><path d="M255.2844 27.5672L309.0924 153.3301" fill="none" stroke="#aaa" stroke-opacity="0.5"></path><path d="M127.9311 67.7605L309.0924 153.3301" fill="none" stroke="#aaa" stroke-opacity="0.5"></path><path d="M255.2844 27.5672L307.3059 84.7445" fill="none" stroke="#aaa" stroke-opacity="0.5"></path><path d="M196.4231 156.5731L133.5931 196.4555" fill="none" stroke="#aaa" stroke-opacity="0.5"></path><path d="M196.4231 156.5731L127.9311 67.7605" fill="none" stroke="#aaa" stroke-opacity="0.5"></path><path d="M307.3059 84.7445L229.533 93.6379" fill="none" stroke="#aaa" stroke-opacity="0.5"></path><path d="M196.4231 156.5731L203.6905 230.3258" fill="none" stroke="#aaa" stroke-opacity="0.5"></path><path d="M307.3059 84.7445L108.344 129.9987" fill="none" stroke="#aaa" stroke-opacity="0.5"></path><path d="M179.783 26.0434L229.533 93.6379" fill="none" stroke="#aaa" stroke-opacity="0.5"></path><path d="M203.6905 230.3258L229.533 93.6379" fill="none" stroke="#aaa" stroke-opacity="0.5"></path><path d="M108.344 129.9987L229.533 93.6379" fill="none" stroke="#aaa" stroke-opacity="0.5"></path><path d="M255.2844 27.5672L133.5931 196.4555" fill="none" stroke="#aaa" stroke-opacity="0.5"></path><path d="M255.2844 27.5672L127.9311 67.7605" fill="none" stroke="#aaa" stroke-opacity="0.5"></path><path d="M127.9311 67.7605L133.5931 196.4555" fill="none" stroke="#aaa" stroke-opacity="0.5"></path><path d="M133.5931 196.4555L229.533 93.6379" fill="none" stroke="#aaa" stroke-opacity="0.5"></path><path d="M179.783 26.0434L108.344 129.9987" fill="none" stroke="#aaa" stroke-opacity="0.5"></path><path d="M196.4231 156.5731L271.404 208.5633" fill="none" stroke="#aaa" stroke-opacity="0.5"></path><path d="M196.4231 156.5731L309.0924 153.3301" fill="none" stroke="#aaa" stroke-opacity="0.5"></path><path d="M307.3059 84.7445L309.0924 153.3301" fill="none" stroke="#aaa" stroke-opacity="0.5"></path><path d="M255.2844 27.5672L203.6905 230.3258" fill="none" stroke="#aaa" stroke-opacity="0.5"></path><path d="M196.4231 156.5731L307.3059 84.7445" fill="none" stroke="#aaa" stroke-opacity="0.5"></path><path d="M255.2844 27.5672L179.783 26.0434" fill="none" stroke="#aaa" stroke-opacity="0.5"></path><path d="M179.783 26.0434L309.0924 153.3301" fill="none" stroke="#aaa" stroke-opacity="0.5"></path><path d="M255.2844 27.5672L271.404 208.5633" fill="none" stroke="#aaa" stroke-opacity="0.5"></path><path d="M108.344 129.9987L309.0924 153.3301" fill="none" stroke="#aaa" stroke-opacity="0.5"></path><path d="M133.5931 196.4555L309.0924 153.3301" fill="none" stroke="#aaa" stroke-opacity="0.5"></path><path d="M309.0924 153.3301L229.533 93.6379" fill="none" stroke="#aaa" stroke-opacity="0.5"></path><path d="M196.4231 156.5731L229.533 93.6379" fill="none" stroke="#aaa" stroke-opacity="0.5"></path><path d="M307.3059 84.7445L133.5931 196.4555" fill="none" stroke="#aaa" stroke-opacity="0.5"></path><path d="M307.3059 84.7445L127.9311 67.7605" fill="none" stroke="#aaa" stroke-opacity="0.5"></path><path d="M196.4231 156.5731L179.783 26.0434" fill="none" stroke="#aaa" stroke-opacity="0.5"></path><path d="M196.4231 156.5731L108.344 129.9987" fill="none" stroke="#aaa" stroke-opacity="0.5"></path><path d="M307.3059 84.7445L203.6905 230.3258" fill="none" stroke="#aaa" stroke-opacity="0.5"></path><path d="M179.783 26.0434L133.5931 196.4555" fill="none" stroke="#aaa" stroke-opacity="0.5"></path><path d="M179.783 26.0434L127.9311 67.7605" fill="none" stroke="#aaa" stroke-opacity="0.5"></path><path d="M309.0924 153.3301L203.6905 230.3258" fill="none" stroke="#aaa" stroke-opacity="0.5"></path><path d="M307.3059 84.7445L179.783 26.0434" fill="none" stroke="#aaa" stroke-opacity="0.5"></path><path d="M108.344 129.9987L133.5931 196.4555" fill="none" stroke="#aaa" stroke-opacity="0.5"></path><path d="M108.344 129.9987L127.9311 67.7605" fill="none" stroke="#aaa" stroke-opacity="0.5"></path><path d="M255.2844 27.5672L196.4231 156.5731" fill="none" stroke="#aaa" stroke-opacity="0.5"></path><path d="M255.2844 27.5672L229.533 93.6379" fill="none" stroke="#aaa" stroke-opacity="0.5"></path><path d="M127.9311 67.7605L229.533 93.6379" fill="none" stroke="#aaa" stroke-opacity="0.5"></path><path d="M179.783 26.0434L203.6905 230.3258" fill="none" stroke="#aaa" stroke-opacity="0.5"></path><path d="M307.3059 84.7445L271.404 208.5633" fill="none" stroke="#aaa" stroke-opacity="0.5"></path><path d="M309.0924 153.3301L271.404 208.5633" fill="none" stroke="#aaa" stroke-opacity="0.5"></path><path d="M271.404 208.5633L229.533 93.6379" fill="none" stroke="#aaa" stroke-opacity="0.5"></path><path d="M108.344 129.9987L203.6905 230.3258" fill="none" stroke="#aaa" stroke-opacity="0.5"></path><path d="M255.2844 27.5672L108.344 129.9987" fill="none" stroke="#aaa" stroke-opacity="0.5"></path><path d="M133.5931 196.4555L203.6905 230.3258" fill="none" stroke="#aaa" stroke-opacity="0.5"></path><path d="M1 0A1 1 0 1 1 1 -0.0001" fill="#5470c6" transform="matrix(18.5,0,0,18.5,309.0924,153.3301)"></path><path d="M1 0A1 1 0 1 1 1 -0.0001" fill="#5470c6" transform="matrix(18.5,0,0,18.5,271.404,208.5633)"></path><path d="M1 0A1 1 0 1 1 1 -0.0001" fill="#5470c6" transform="matrix(18.5,0,0,18.5,203.6905,230.3258)"></path><path d="M1 0A1 1 0 1 1 1 -0.0001" fill="#5470c6" transform="matrix(18.5,0,0,18.5,196.4231,156.5731)"></path><path d="M1 0A1 1 0 1 1 1 -0.0001" fill="#5470c6" transform="matrix(18.5,0,0,18.5,133.5931,196.4555)"></path><path d="M1 0A1 1 0 1 1 1 -0.0001" fill="#5470c6" transform="matrix(18.5,0,0,18.5,108.344,129.9987)"></path><path d="M1 0A1 1 0 1 1 1 -0.0001" fill="#5470c6" transform="matrix(18.5,0,0,18.5,127.9311,67.7605)"></path><path d="M1 0A1 1 0 1 1 1 -0.0001" fill="#5470c6" transform="matrix(18.5,0,0,18.5,179.783,26.0434)"></path><path d="M1 0A1 1 0 1 1 1 -0.0001" fill="#5470c6" transform="matrix(18.5,0,0,18.5,255.2844,27.5672)"></path><path d="M1 0A1 1 0 1 1 1 -0.0001" fill="#5470c6" transform="matrix(18.5,0,0,18.5,229.533,93.6379)"></path><path d="M1 0A1 1 0 1 1 1 -0.0001" fill="#5470c6" transform="matrix(18.5,0,0,18.5,307.3059,84.7445)"></path><path d="M-32.4922 -5l64.9844 0l0 33l-64.9844 0Z" fill="rgb(0,0,0)" fill-opacity="0" stroke="#ccc" stroke-width="0" transform="translate(237.5 5)"></path><text dominant-baseline="central" fill="#333" style="font-size:23px;font-family:sans-serif;font-weight:bolder;" text-anchor="middle" transform="translate(237.5 5)" y="11.5">C213</text></g></svg>