<svg baseprofile="full" height="250" style="position:absolute;left:0;top:0;user-select:none" version="1.1" width="475" xmlns="http://www.w3.org/2000/svg" xmlns:xlink="http://www.w3.org/1999/xlink"><rect fill="none" height="250" id="0" width="475" x="0" y="0"></rect><g><path d="M281.2949 198.1639L219.531 230.1761" fill="none" stroke="#aaa" stroke-opacity="0.5"></path><path d="M281.2949 198.1639L110.7183 145.1623" fill="none" stroke="#aaa" stroke-opacity="0.5"></path><path d="M281.2949 198.1639L245.4456 22.8467" fill="none" stroke="#aaa" stroke-opacity="0.5"></path><path d="M219.531 230.1761L110.7183 145.1623" fill="none" stroke="#aaa" stroke-opacity="0.5"></path><path d="M219.531 230.1761L245.4456 22.8467" fill="none" stroke="#aaa" stroke-opacity="0.5"></path><path d="M199.9789 156.593L120.3424 80.1802" fill="none" stroke="#aaa" stroke-opacity="0.5"></path><path d="M199.9789 156.593L110.7183 145.1623" fill="none" stroke="#aaa" stroke-opacity="0.5"></path><path d="M281.2949 198.1639L301.6149 74.9856" fill="none" stroke="#aaa" stroke-opacity="0.5"></path><path d="M199.9789 156.593L166.8143 30.4094" fill="none" stroke="#aaa" stroke-opacity="0.5"></path><path d="M120.3424 80.1802L219.531 230.1761" fill="none" stroke="#aaa" stroke-opacity="0.5"></path><path d="M166.8143 30.4094L220.1475 87.6017" fill="none" stroke="#aaa" stroke-opacity="0.5"></path><path d="M120.3424 80.1802L245.4456 22.8467" fill="none" stroke="#aaa" stroke-opacity="0.5"></path><path d="M245.4456 22.8467L220.1475 87.6017" fill="none" stroke="#aaa" stroke-opacity="0.5"></path><path d="M311.023 141.1932L120.3424 80.1802" fill="none" stroke="#aaa" stroke-opacity="0.5"></path><path d="M199.9789 156.593L220.1475 87.6017" fill="none" stroke="#aaa" stroke-opacity="0.5"></path><path d="M145.4738 207.6879L219.531 230.1761" fill="none" stroke="#aaa" stroke-opacity="0.5"></path><path d="M199.9789 156.593L311.023 141.1932" fill="none" stroke="#aaa" stroke-opacity="0.5"></path><path d="M311.023 141.1932L110.7183 145.1623" fill="none" stroke="#aaa" stroke-opacity="0.5"></path><path d="M145.4738 207.6879L110.7183 145.1623" fill="none" stroke="#aaa" stroke-opacity="0.5"></path><path d="M145.4738 207.6879L245.4456 22.8467" fill="none" stroke="#aaa" stroke-opacity="0.5"></path><path d="M311.023 141.1932L166.8143 30.4094" fill="none" stroke="#aaa" stroke-opacity="0.5"></path><path d="M199.9789 156.593L281.2949 198.1639" fill="none" stroke="#aaa" stroke-opacity="0.5"></path><path d="M120.3424 80.1802L301.6149 74.9856" fill="none" stroke="#aaa" stroke-opacity="0.5"></path><path d="M199.9789 156.593L145.4738 207.6879" fill="none" stroke="#aaa" stroke-opacity="0.5"></path><path d="M311.023 141.1932L220.1475 87.6017" fill="none" stroke="#aaa" stroke-opacity="0.5"></path><path d="M145.4738 207.6879L301.6149 74.9856" fill="none" stroke="#aaa" stroke-opacity="0.5"></path><path d="M110.7183 145.1623L220.1475 87.6017" fill="none" stroke="#aaa" stroke-opacity="0.5"></path><path d="M301.6149 74.9856L220.1475 87.6017" fill="none" stroke="#aaa" stroke-opacity="0.5"></path><path d="M311.023 141.1932L281.2949 198.1639" fill="none" stroke="#aaa" stroke-opacity="0.5"></path><path d="M145.4738 207.6879L281.2949 198.1639" fill="none" stroke="#aaa" stroke-opacity="0.5"></path><path d="M311.023 141.1932L145.4738 207.6879" fill="none" stroke="#aaa" stroke-opacity="0.5"></path><path d="M166.8143 30.4094L120.3424 80.1802" fill="none" stroke="#aaa" stroke-opacity="0.5"></path><path d="M166.8143 30.4094L219.531 230.1761" fill="none" stroke="#aaa" stroke-opacity="0.5"></path><path d="M166.8143 30.4094L110.7183 145.1623" fill="none" stroke="#aaa" stroke-opacity="0.5"></path><path d="M166.8143 30.4094L245.4456 22.8467" fill="none" stroke="#aaa" stroke-opacity="0.5"></path><path d="M281.2949 198.1639L220.1475 87.6017" fill="none" stroke="#aaa" stroke-opacity="0.5"></path><path d="M245.4456 22.8467L110.7183 145.1623" fill="none" stroke="#aaa" stroke-opacity="0.5"></path><path d="M199.9789 156.593L219.531 230.1761" fill="none" stroke="#aaa" stroke-opacity="0.5"></path><path d="M219.531 230.1761L220.1475 87.6017" fill="none" stroke="#aaa" stroke-opacity="0.5"></path><path d="M199.9789 156.593L245.4456 22.8467" fill="none" stroke="#aaa" stroke-opacity="0.5"></path><path d="M120.3424 80.1802L110.7183 145.1623" fill="none" stroke="#aaa" stroke-opacity="0.5"></path><path d="M166.8143 30.4094L301.6149 74.9856" fill="none" stroke="#aaa" stroke-opacity="0.5"></path><path d="M166.8143 30.4094L281.2949 198.1639" fill="none" stroke="#aaa" stroke-opacity="0.5"></path><path d="M311.023 141.1932L219.531 230.1761" fill="none" stroke="#aaa" stroke-opacity="0.5"></path><path d="M199.9789 156.593L301.6149 74.9856" fill="none" stroke="#aaa" stroke-opacity="0.5"></path><path d="M166.8143 30.4094L145.4738 207.6879" fill="none" stroke="#aaa" stroke-opacity="0.5"></path><path d="M120.3424 80.1802L220.1475 87.6017" fill="none" stroke="#aaa" stroke-opacity="0.5"></path><path d="M311.023 141.1932L245.4456 22.8467" fill="none" stroke="#aaa" stroke-opacity="0.5"></path><path d="M301.6149 74.9856L219.531 230.1761" fill="none" stroke="#aaa" stroke-opacity="0.5"></path><path d="M301.6149 74.9856L110.7183 145.1623" fill="none" stroke="#aaa" stroke-opacity="0.5"></path><path d="M301.6149 74.9856L245.4456 22.8467" fill="none" stroke="#aaa" stroke-opacity="0.5"></path><path d="M120.3424 80.1802L281.2949 198.1639" fill="none" stroke="#aaa" stroke-opacity="0.5"></path><path d="M145.4738 207.6879L220.1475 87.6017" fill="none" stroke="#aaa" stroke-opacity="0.5"></path><path d="M120.3424 80.1802L145.4738 207.6879" fill="none" stroke="#aaa" stroke-opacity="0.5"></path><path d="M311.023 141.1932L301.6149 74.9856" fill="none" stroke="#aaa" stroke-opacity="0.5"></path><path d="M1 0A1 1 0 1 1 1 -0.0001" fill="#5470c6" transform="matrix(18.5,0,0,18.5,311.023,141.1932)"></path><path d="M1 0A1 1 0 1 1 1 -0.0001" fill="#5470c6" transform="matrix(18.5,0,0,18.5,281.2949,198.1639)"></path><path d="M1 0A1 1 0 1 1 1 -0.0001" fill="#5470c6" transform="matrix(18.5,0,0,18.5,219.531,230.1761)"></path><path d="M1 0A1 1 0 1 1 1 -0.0001" fill="#5470c6" transform="matrix(18.5,0,0,18.5,145.4738,207.6879)"></path><path d="M1 0A1 1 0 1 1 1 -0.0001" fill="#5470c6" transform="matrix(18.5,0,0,18.5,110.7183,145.1623)"></path><path d="M1 0A1 1 0 1 1 1 -0.0001" fill="#5470c6" transform="matrix(18.5,0,0,18.5,199.9789,156.593)"></path><path d="M1 0A1 1 0 1 1 1 -0.0001" fill="#5470c6" transform="matrix(18.5,0,0,18.5,120.3424,80.1802)"></path><path d="M1 0A1 1 0 1 1 1 -0.0001" fill="#5470c6" transform="matrix(18.5,0,0,18.5,166.8143,30.4094)"></path><path d="M1 0A1 1 0 1 1 1 -0.0001" fill="#5470c6" transform="matrix(18.5,0,0,18.5,220.1475,87.6017)"></path><path d="M1 0A1 1 0 1 1 1 -0.0001" fill="#5470c6" transform="matrix(18.5,0,0,18.5,245.4456,22.8467)"></path><path d="M1 0A1 1 0 1 1 1 -0.0001" fill="#5470c6" transform="matrix(18.5,0,0,18.5,301.6149,74.9856)"></path><path d="M-32.4922 -5l64.9844 0l0 33l-64.9844 0Z" fill="rgb(0,0,0)" fill-opacity="0" stroke="#ccc" stroke-width="0" transform="translate(237.5 5)"></path><text dominant-baseline="central" fill="#333" style="font-size:23px;font-family:sans-serif;font-weight:bolder;" text-anchor="middle" transform="translate(237.5 5)" y="11.5">C214</text></g></svg>