<svg baseprofile="full" height="250" style="position:absolute;left:0;top:0;user-select:none" version="1.1" width="475" xmlns="http://www.w3.org/2000/svg" xmlns:xlink="http://www.w3.org/1999/xlink"><rect fill="none" height="250" id="0" width="475" x="0" y="0"></rect><g><path d="M308.0387 161.9252L258.4366 221.5008" fill="none" stroke="#aaa" stroke-opacity="0.5"></path><path d="M165.3549 224.6486L112.7127 159.0638" fill="none" stroke="#aaa" stroke-opacity="0.5"></path><path d="M164.5373 30.5784L248.332 22.9714" fill="none" stroke="#aaa" stroke-opacity="0.5"></path><path d="M225.5698 91.4477L165.3549 224.6486" fill="none" stroke="#aaa" stroke-opacity="0.5"></path><path d="M202.3842 166.3874L112.7127 159.0638" fill="none" stroke="#aaa" stroke-opacity="0.5"></path><path d="M116.3568 86.481L225.5698 91.4477" fill="none" stroke="#aaa" stroke-opacity="0.5"></path><path d="M116.3568 86.481L308.0387 161.9252" fill="none" stroke="#aaa" stroke-opacity="0.5"></path><path d="M116.3568 86.481L248.332 22.9714" fill="none" stroke="#aaa" stroke-opacity="0.5"></path><path d="M164.5373 30.5784L112.7127 159.0638" fill="none" stroke="#aaa" stroke-opacity="0.5"></path><path d="M309.5357 84.9958L202.3842 166.3874" fill="none" stroke="#aaa" stroke-opacity="0.5"></path><path d="M225.5698 91.4477L308.0387 161.9252" fill="none" stroke="#aaa" stroke-opacity="0.5"></path><path d="M225.5698 91.4477L248.332 22.9714" fill="none" stroke="#aaa" stroke-opacity="0.5"></path><path d="M309.5357 84.9958L225.5698 91.4477" fill="none" stroke="#aaa" stroke-opacity="0.5"></path><path d="M116.3568 86.481L258.4366 221.5008" fill="none" stroke="#aaa" stroke-opacity="0.5"></path><path d="M202.3842 166.3874L165.3549 224.6486" fill="none" stroke="#aaa" stroke-opacity="0.5"></path><path d="M164.5373 30.5784L165.3549 224.6486" fill="none" stroke="#aaa" stroke-opacity="0.5"></path><path d="M225.5698 91.4477L258.4366 221.5008" fill="none" stroke="#aaa" stroke-opacity="0.5"></path><path d="M165.3549 224.6486L308.0387 161.9252" fill="none" stroke="#aaa" stroke-opacity="0.5"></path><path d="M164.5373 30.5784L202.3842 166.3874" fill="none" stroke="#aaa" stroke-opacity="0.5"></path><path d="M116.3568 86.481L309.5357 84.9958" fill="none" stroke="#aaa" stroke-opacity="0.5"></path><path d="M202.3842 166.3874L308.0387 161.9252" fill="none" stroke="#aaa" stroke-opacity="0.5"></path><path d="M202.3842 166.3874L248.332 22.9714" fill="none" stroke="#aaa" stroke-opacity="0.5"></path><path d="M248.332 22.9714L165.3549 224.6486" fill="none" stroke="#aaa" stroke-opacity="0.5"></path><path d="M164.5373 30.5784L225.5698 91.4477" fill="none" stroke="#aaa" stroke-opacity="0.5"></path><path d="M164.5373 30.5784L308.0387 161.9252" fill="none" stroke="#aaa" stroke-opacity="0.5"></path><path d="M309.5357 84.9958L165.3549 224.6486" fill="none" stroke="#aaa" stroke-opacity="0.5"></path><path d="M225.5698 91.4477L202.3842 166.3874" fill="none" stroke="#aaa" stroke-opacity="0.5"></path><path d="M248.332 22.9714L308.0387 161.9252" fill="none" stroke="#aaa" stroke-opacity="0.5"></path><path d="M165.3549 224.6486L258.4366 221.5008" fill="none" stroke="#aaa" stroke-opacity="0.5"></path><path d="M202.3842 166.3874L258.4366 221.5008" fill="none" stroke="#aaa" stroke-opacity="0.5"></path><path d="M116.3568 86.481L112.7127 159.0638" fill="none" stroke="#aaa" stroke-opacity="0.5"></path><path d="M309.5357 84.9958L308.0387 161.9252" fill="none" stroke="#aaa" stroke-opacity="0.5"></path><path d="M309.5357 84.9958L248.332 22.9714" fill="none" stroke="#aaa" stroke-opacity="0.5"></path><path d="M248.332 22.9714L112.7127 159.0638" fill="none" stroke="#aaa" stroke-opacity="0.5"></path><path d="M164.5373 30.5784L258.4366 221.5008" fill="none" stroke="#aaa" stroke-opacity="0.5"></path><path d="M225.5698 91.4477L112.7127 159.0638" fill="none" stroke="#aaa" stroke-opacity="0.5"></path><path d="M248.332 22.9714L258.4366 221.5008" fill="none" stroke="#aaa" stroke-opacity="0.5"></path><path d="M112.7127 159.0638L258.4366 221.5008" fill="none" stroke="#aaa" stroke-opacity="0.5"></path><path d="M309.5357 84.9958L112.7127 159.0638" fill="none" stroke="#aaa" stroke-opacity="0.5"></path><path d="M116.3568 86.481L164.5373 30.5784" fill="none" stroke="#aaa" stroke-opacity="0.5"></path><path d="M164.5373 30.5784L309.5357 84.9958" fill="none" stroke="#aaa" stroke-opacity="0.5"></path><path d="M308.0387 161.9252L112.7127 159.0638" fill="none" stroke="#aaa" stroke-opacity="0.5"></path><path d="M116.3568 86.481L165.3549 224.6486" fill="none" stroke="#aaa" stroke-opacity="0.5"></path><path d="M309.5357 84.9958L258.4366 221.5008" fill="none" stroke="#aaa" stroke-opacity="0.5"></path><path d="M116.3568 86.481L202.3842 166.3874" fill="none" stroke="#aaa" stroke-opacity="0.5"></path><path d="M1 0A1 1 0 1 1 1 -0.0001" fill="#5470c6" transform="matrix(19,0,0,19,308.0387,161.9252)"></path><path d="M1 0A1 1 0 1 1 1 -0.0001" fill="#5470c6" transform="matrix(19,0,0,19,258.4366,221.5008)"></path><path d="M1 0A1 1 0 1 1 1 -0.0001" fill="#5470c6" transform="matrix(19,0,0,19,202.3842,166.3874)"></path><path d="M1 0A1 1 0 1 1 1 -0.0001" fill="#5470c6" transform="matrix(19,0,0,19,165.3549,224.6486)"></path><path d="M1 0A1 1 0 1 1 1 -0.0001" fill="#5470c6" transform="matrix(19,0,0,19,112.7127,159.0638)"></path><path d="M1 0A1 1 0 1 1 1 -0.0001" fill="#5470c6" transform="matrix(19,0,0,19,116.3568,86.481)"></path><path d="M1 0A1 1 0 1 1 1 -0.0001" fill="#5470c6" transform="matrix(19,0,0,19,164.5373,30.5784)"></path><path d="M1 0A1 1 0 1 1 1 -0.0001" fill="#5470c6" transform="matrix(19,0,0,19,248.332,22.9714)"></path><path d="M1 0A1 1 0 1 1 1 -0.0001" fill="#5470c6" transform="matrix(19,0,0,19,225.5698,91.4477)"></path><path d="M1 0A1 1 0 1 1 1 -0.0001" fill="#5470c6" transform="matrix(19,0,0,19,309.5357,84.9958)"></path><path d="M-32.4922 -5l64.9844 0l0 33l-64.9844 0Z" fill="rgb(0,0,0)" fill-opacity="0" stroke="#ccc" stroke-width="0" transform="translate(237.5 5)"></path><text dominant-baseline="central" fill="#333" style="font-size:23px;font-family:sans-serif;font-weight:bolder;" text-anchor="middle" transform="translate(237.5 5)" y="11.5">C215</text></g></svg>