<svg baseprofile="full" height="250" style="position:absolute;left:0;top:0;user-select:none" version="1.1" width="475" xmlns="http://www.w3.org/2000/svg" xmlns:xlink="http://www.w3.org/1999/xlink"><rect fill="none" height="250" id="0" width="475" x="0" y="0"></rect><g><path d="M250.1502 30.8327L301.0273 77.8605" fill="none" stroke="#aaa" stroke-opacity="0.5"></path><path d="M211.3162 123.8372L310.7726 147.7292" fill="none" stroke="#aaa" stroke-opacity="0.5"></path><path d="M180.1963 27.9271L125.3282 70.3757" fill="none" stroke="#aaa" stroke-opacity="0.5"></path><path d="M272.4442 205.6576L207.2113 226.776" fill="none" stroke="#aaa" stroke-opacity="0.5"></path><path d="M110.3658 138.8824L250.1502 30.8327" fill="none" stroke="#aaa" stroke-opacity="0.5"></path><path d="M180.1963 27.9271L211.3162 123.8372" fill="none" stroke="#aaa" stroke-opacity="0.5"></path><path d="M180.1963 27.9271L207.2113 226.776" fill="none" stroke="#aaa" stroke-opacity="0.5"></path><path d="M125.3282 70.3757L310.7726 147.7292" fill="none" stroke="#aaa" stroke-opacity="0.5"></path><path d="M125.3282 70.3757L142.4468 200.1215" fill="none" stroke="#aaa" stroke-opacity="0.5"></path><path d="M125.3282 70.3757L110.3658 138.8824" fill="none" stroke="#aaa" stroke-opacity="0.5"></path><path d="M110.3658 138.8824L211.3162 123.8372" fill="none" stroke="#aaa" stroke-opacity="0.5"></path><path d="M250.1502 30.8327L211.3162 123.8372" fill="none" stroke="#aaa" stroke-opacity="0.5"></path><path d="M211.3162 123.8372L301.0273 77.8605" fill="none" stroke="#aaa" stroke-opacity="0.5"></path><path d="M110.3658 138.8824L207.2113 226.776" fill="none" stroke="#aaa" stroke-opacity="0.5"></path><path d="M250.1502 30.8327L207.2113 226.776" fill="none" stroke="#aaa" stroke-opacity="0.5"></path><path d="M301.0273 77.8605L207.2113 226.776" fill="none" stroke="#aaa" stroke-opacity="0.5"></path><path d="M125.3282 70.3757L301.0273 77.8605" fill="none" stroke="#aaa" stroke-opacity="0.5"></path><path d="M211.3162 123.8372L207.2113 226.776" fill="none" stroke="#aaa" stroke-opacity="0.5"></path><path d="M110.3658 138.8824L142.4468 200.1215" fill="none" stroke="#aaa" stroke-opacity="0.5"></path><path d="M125.3282 70.3757L211.3162 123.8372" fill="none" stroke="#aaa" stroke-opacity="0.5"></path><path d="M125.3282 70.3757L207.2113 226.776" fill="none" stroke="#aaa" stroke-opacity="0.5"></path><path d="M110.3658 138.8824L301.0273 77.8605" fill="none" stroke="#aaa" stroke-opacity="0.5"></path><path d="M272.4442 205.6576L250.1502 30.8327" fill="none" stroke="#aaa" stroke-opacity="0.5"></path><path d="M142.4468 200.1215L310.7726 147.7292" fill="none" stroke="#aaa" stroke-opacity="0.5"></path><path d="M180.1963 27.9271L250.1502 30.8327" fill="none" stroke="#aaa" stroke-opacity="0.5"></path><path d="M211.3162 123.8372L142.4468 200.1215" fill="none" stroke="#aaa" stroke-opacity="0.5"></path><path d="M272.4442 205.6576L211.3162 123.8372" fill="none" stroke="#aaa" stroke-opacity="0.5"></path><path d="M180.1963 27.9271L272.4442 205.6576" fill="none" stroke="#aaa" stroke-opacity="0.5"></path><path d="M142.4468 200.1215L301.0273 77.8605" fill="none" stroke="#aaa" stroke-opacity="0.5"></path><path d="M272.4442 205.6576L310.7726 147.7292" fill="none" stroke="#aaa" stroke-opacity="0.5"></path><path d="M272.4442 205.6576L142.4468 200.1215" fill="none" stroke="#aaa" stroke-opacity="0.5"></path><path d="M180.1963 27.9271L310.7726 147.7292" fill="none" stroke="#aaa" stroke-opacity="0.5"></path><path d="M180.1963 27.9271L142.4468 200.1215" fill="none" stroke="#aaa" stroke-opacity="0.5"></path><path d="M272.4442 205.6576L110.3658 138.8824" fill="none" stroke="#aaa" stroke-opacity="0.5"></path><path d="M142.4468 200.1215L207.2113 226.776" fill="none" stroke="#aaa" stroke-opacity="0.5"></path><path d="M125.3282 70.3757L250.1502 30.8327" fill="none" stroke="#aaa" stroke-opacity="0.5"></path><path d="M310.7726 147.7292L207.2113 226.776" fill="none" stroke="#aaa" stroke-opacity="0.5"></path><path d="M180.1963 27.9271L110.3658 138.8824" fill="none" stroke="#aaa" stroke-opacity="0.5"></path><path d="M110.3658 138.8824L310.7726 147.7292" fill="none" stroke="#aaa" stroke-opacity="0.5"></path><path d="M250.1502 30.8327L310.7726 147.7292" fill="none" stroke="#aaa" stroke-opacity="0.5"></path><path d="M250.1502 30.8327L142.4468 200.1215" fill="none" stroke="#aaa" stroke-opacity="0.5"></path><path d="M272.4442 205.6576L301.0273 77.8605" fill="none" stroke="#aaa" stroke-opacity="0.5"></path><path d="M180.1963 27.9271L301.0273 77.8605" fill="none" stroke="#aaa" stroke-opacity="0.5"></path><path d="M301.0273 77.8605L310.7726 147.7292" fill="none" stroke="#aaa" stroke-opacity="0.5"></path><path d="M125.3282 70.3757L272.4442 205.6576" fill="none" stroke="#aaa" stroke-opacity="0.5"></path><path d="M1 0A1 1 0 1 1 1 -0.0001" fill="#5470c6" transform="matrix(19,0,0,19,310.7726,147.7292)"></path><path d="M1 0A1 1 0 1 1 1 -0.0001" fill="#5470c6" transform="matrix(19,0,0,19,272.4442,205.6576)"></path><path d="M1 0A1 1 0 1 1 1 -0.0001" fill="#5470c6" transform="matrix(19,0,0,19,207.2113,226.776)"></path><path d="M1 0A1 1 0 1 1 1 -0.0001" fill="#5470c6" transform="matrix(19,0,0,19,142.4468,200.1215)"></path><path d="M1 0A1 1 0 1 1 1 -0.0001" fill="#5470c6" transform="matrix(19,0,0,19,110.3658,138.8824)"></path><path d="M1 0A1 1 0 1 1 1 -0.0001" fill="#5470c6" transform="matrix(19,0,0,19,125.3282,70.3757)"></path><path d="M1 0A1 1 0 1 1 1 -0.0001" fill="#5470c6" transform="matrix(19,0,0,19,211.3162,123.8372)"></path><path d="M1 0A1 1 0 1 1 1 -0.0001" fill="#5470c6" transform="matrix(19,0,0,19,180.1963,27.9271)"></path><path d="M1 0A1 1 0 1 1 1 -0.0001" fill="#5470c6" transform="matrix(19,0,0,19,250.1502,30.8327)"></path><path d="M1 0A1 1 0 1 1 1 -0.0001" fill="#5470c6" transform="matrix(19,0,0,19,301.0273,77.8605)"></path><path d="M-32.4922 -5l64.9844 0l0 33l-64.9844 0Z" fill="rgb(0,0,0)" fill-opacity="0" stroke="#ccc" stroke-width="0" transform="translate(237.5 5)"></path><text dominant-baseline="central" fill="#333" style="font-size:23px;font-family:sans-serif;font-weight:bolder;" text-anchor="middle" transform="translate(237.5 5)" y="11.5">C216</text></g></svg>