<svg baseprofile="full" height="250" style="position:absolute;left:0;top:0;user-select:none" version="1.1" width="475" xmlns="http://www.w3.org/2000/svg" xmlns:xlink="http://www.w3.org/1999/xlink"><rect fill="none" height="250" id="0" width="475" x="0" y="0"></rect><g><path d="M278.7994 203.2676L210.8645 228.5402" fill="none" stroke="#aaa" stroke-opacity="0.5"></path><path d="M103.3332 107.1046L149.8587 42.0312" fill="none" stroke="#aaa" stroke-opacity="0.5"></path><path d="M165.3057 140.6296L210.8645 228.5402" fill="none" stroke="#aaa" stroke-opacity="0.5"></path><path d="M278.7994 203.2676L219.6648 20.8934" fill="none" stroke="#aaa" stroke-opacity="0.5"></path><path d="M165.3057 140.6296L317.8363 134.8405" fill="none" stroke="#aaa" stroke-opacity="0.5"></path><path d="M165.3057 140.6296L219.6648 20.8934" fill="none" stroke="#aaa" stroke-opacity="0.5"></path><path d="M219.6648 20.8934L210.8645 228.5402" fill="none" stroke="#aaa" stroke-opacity="0.5"></path><path d="M219.6648 20.8934L317.8363 134.8405" fill="none" stroke="#aaa" stroke-opacity="0.5"></path><path d="M165.3057 140.6296L133.7236 203.081" fill="none" stroke="#aaa" stroke-opacity="0.5"></path><path d="M240.7396 115.7979L278.7994 203.2676" fill="none" stroke="#aaa" stroke-opacity="0.5"></path><path d="M291.1331 53.814L210.8645 228.5402" fill="none" stroke="#aaa" stroke-opacity="0.5"></path><path d="M103.3332 107.1046L210.8645 228.5402" fill="none" stroke="#aaa" stroke-opacity="0.5"></path><path d="M291.1331 53.814L317.8363 134.8405" fill="none" stroke="#aaa" stroke-opacity="0.5"></path><path d="M291.1331 53.814L219.6648 20.8934" fill="none" stroke="#aaa" stroke-opacity="0.5"></path><path d="M240.7396 115.7979L149.8587 42.0312" fill="none" stroke="#aaa" stroke-opacity="0.5"></path><path d="M133.7236 203.081L317.8363 134.8405" fill="none" stroke="#aaa" stroke-opacity="0.5"></path><path d="M133.7236 203.081L219.6648 20.8934" fill="none" stroke="#aaa" stroke-opacity="0.5"></path><path d="M103.3332 107.1046L219.6648 20.8934" fill="none" stroke="#aaa" stroke-opacity="0.5"></path><path d="M240.7396 115.7979L103.3332 107.1046" fill="none" stroke="#aaa" stroke-opacity="0.5"></path><path d="M149.8587 42.0312L278.7994 203.2676" fill="none" stroke="#aaa" stroke-opacity="0.5"></path><path d="M291.1331 53.814L133.7236 203.081" fill="none" stroke="#aaa" stroke-opacity="0.5"></path><path d="M278.7994 203.2676L317.8363 134.8405" fill="none" stroke="#aaa" stroke-opacity="0.5"></path><path d="M165.3057 140.6296L240.7396 115.7979" fill="none" stroke="#aaa" stroke-opacity="0.5"></path><path d="M240.7396 115.7979L210.8645 228.5402" fill="none" stroke="#aaa" stroke-opacity="0.5"></path><path d="M240.7396 115.7979L317.8363 134.8405" fill="none" stroke="#aaa" stroke-opacity="0.5"></path><path d="M240.7396 115.7979L219.6648 20.8934" fill="none" stroke="#aaa" stroke-opacity="0.5"></path><path d="M165.3057 140.6296L278.7994 203.2676" fill="none" stroke="#aaa" stroke-opacity="0.5"></path><path d="M149.8587 42.0312L210.8645 228.5402" fill="none" stroke="#aaa" stroke-opacity="0.5"></path><path d="M240.7396 115.7979L133.7236 203.081" fill="none" stroke="#aaa" stroke-opacity="0.5"></path><path d="M165.3057 140.6296L149.8587 42.0312" fill="none" stroke="#aaa" stroke-opacity="0.5"></path><path d="M291.1331 53.814L240.7396 115.7979" fill="none" stroke="#aaa" stroke-opacity="0.5"></path><path d="M165.3057 140.6296L103.3332 107.1046" fill="none" stroke="#aaa" stroke-opacity="0.5"></path><path d="M133.7236 203.081L210.8645 228.5402" fill="none" stroke="#aaa" stroke-opacity="0.5"></path><path d="M149.8587 42.0312L317.8363 134.8405" fill="none" stroke="#aaa" stroke-opacity="0.5"></path><path d="M103.3332 107.1046L317.8363 134.8405" fill="none" stroke="#aaa" stroke-opacity="0.5"></path><path d="M149.8587 42.0312L219.6648 20.8934" fill="none" stroke="#aaa" stroke-opacity="0.5"></path><path d="M165.3057 140.6296L291.1331 53.814" fill="none" stroke="#aaa" stroke-opacity="0.5"></path><path d="M210.8645 228.5402L317.8363 134.8405" fill="none" stroke="#aaa" stroke-opacity="0.5"></path><path d="M291.1331 53.814L278.7994 203.2676" fill="none" stroke="#aaa" stroke-opacity="0.5"></path><path d="M133.7236 203.081L278.7994 203.2676" fill="none" stroke="#aaa" stroke-opacity="0.5"></path><path d="M103.3332 107.1046L278.7994 203.2676" fill="none" stroke="#aaa" stroke-opacity="0.5"></path><path d="M149.8587 42.0312L133.7236 203.081" fill="none" stroke="#aaa" stroke-opacity="0.5"></path><path d="M103.3332 107.1046L133.7236 203.081" fill="none" stroke="#aaa" stroke-opacity="0.5"></path><path d="M291.1331 53.814L149.8587 42.0312" fill="none" stroke="#aaa" stroke-opacity="0.5"></path><path d="M291.1331 53.814L103.3332 107.1046" fill="none" stroke="#aaa" stroke-opacity="0.5"></path><path d="M1 0A1 1 0 1 1 1 -0.0001" fill="#5470c6" transform="matrix(19,0,0,19,317.8363,134.8405)"></path><path d="M1 0A1 1 0 1 1 1 -0.0001" fill="#5470c6" transform="matrix(19,0,0,19,278.7994,203.2676)"></path><path d="M1 0A1 1 0 1 1 1 -0.0001" fill="#5470c6" transform="matrix(19,0,0,19,210.8645,228.5402)"></path><path d="M1 0A1 1 0 1 1 1 -0.0001" fill="#5470c6" transform="matrix(19,0,0,19,133.7236,203.081)"></path><path d="M1 0A1 1 0 1 1 1 -0.0001" fill="#5470c6" transform="matrix(19,0,0,19,165.3057,140.6296)"></path><path d="M1 0A1 1 0 1 1 1 -0.0001" fill="#5470c6" transform="matrix(19,0,0,19,103.3332,107.1046)"></path><path d="M1 0A1 1 0 1 1 1 -0.0001" fill="#5470c6" transform="matrix(19,0,0,19,149.8587,42.0312)"></path><path d="M1 0A1 1 0 1 1 1 -0.0001" fill="#5470c6" transform="matrix(19,0,0,19,219.6648,20.8934)"></path><path d="M1 0A1 1 0 1 1 1 -0.0001" fill="#5470c6" transform="matrix(19,0,0,19,291.1331,53.814)"></path><path d="M1 0A1 1 0 1 1 1 -0.0001" fill="#5470c6" transform="matrix(19,0,0,19,240.7396,115.7979)"></path><path d="M-32.4922 -5l64.9844 0l0 33l-64.9844 0Z" fill="rgb(0,0,0)" fill-opacity="0" stroke="#ccc" stroke-width="0" transform="translate(237.5 5)"></path><text dominant-baseline="central" fill="#333" style="font-size:23px;font-family:sans-serif;font-weight:bolder;" text-anchor="middle" transform="translate(237.5 5)" y="11.5">C217</text></g></svg>