<svg baseprofile="full" height="250" style="position:absolute;left:0;top:0;user-select:none" version="1.1" width="475" xmlns="http://www.w3.org/2000/svg" xmlns:xlink="http://www.w3.org/1999/xlink"><rect fill="none" height="250" id="0" width="475" x="0" y="0"></rect><g><path d="M269.8495 208.0312L202.7176 226.3383" fill="none" stroke="#aaa" stroke-opacity="0.5"></path><path d="M211.6432 127.5794L139.051 197.4587" fill="none" stroke="#aaa" stroke-opacity="0.5"></path><path d="M211.6432 127.5794L310.1864 150.5356" fill="none" stroke="#aaa" stroke-opacity="0.5"></path><path d="M303.3666 80.7631L108.9074 133.4499" fill="none" stroke="#aaa" stroke-opacity="0.5"></path><path d="M128.1439 66.6728L269.8495 208.0312" fill="none" stroke="#aaa" stroke-opacity="0.5"></path><path d="M108.9074 133.4499L202.7176 226.3383" fill="none" stroke="#aaa" stroke-opacity="0.5"></path><path d="M303.3666 80.7631L139.051 197.4587" fill="none" stroke="#aaa" stroke-opacity="0.5"></path><path d="M139.051 197.4587L202.7176 226.3383" fill="none" stroke="#aaa" stroke-opacity="0.5"></path><path d="M252.9587 32.8061L128.1439 66.6728" fill="none" stroke="#aaa" stroke-opacity="0.5"></path><path d="M184.4345 26.3649L303.3666 80.7631" fill="none" stroke="#aaa" stroke-opacity="0.5"></path><path d="M310.1864 150.5356L269.8495 208.0312" fill="none" stroke="#aaa" stroke-opacity="0.5"></path><path d="M252.9587 32.8061L108.9074 133.4499" fill="none" stroke="#aaa" stroke-opacity="0.5"></path><path d="M211.6432 127.5794L202.7176 226.3383" fill="none" stroke="#aaa" stroke-opacity="0.5"></path><path d="M310.1864 150.5356L128.1439 66.6728" fill="none" stroke="#aaa" stroke-opacity="0.5"></path><path d="M211.6432 127.5794L269.8495 208.0312" fill="none" stroke="#aaa" stroke-opacity="0.5"></path><path d="M252.9587 32.8061L139.051 197.4587" fill="none" stroke="#aaa" stroke-opacity="0.5"></path><path d="M211.6432 127.5794L184.4345 26.3649" fill="none" stroke="#aaa" stroke-opacity="0.5"></path><path d="M252.9587 32.8061L310.1864 150.5356" fill="none" stroke="#aaa" stroke-opacity="0.5"></path><path d="M184.4345 26.3649L269.8495 208.0312" fill="none" stroke="#aaa" stroke-opacity="0.5"></path><path d="M128.1439 66.6728L139.051 197.4587" fill="none" stroke="#aaa" stroke-opacity="0.5"></path><path d="M303.3666 80.7631L202.7176 226.3383" fill="none" stroke="#aaa" stroke-opacity="0.5"></path><path d="M252.9587 32.8061L211.6432 127.5794" fill="none" stroke="#aaa" stroke-opacity="0.5"></path><path d="M128.1439 66.6728L303.3666 80.7631" fill="none" stroke="#aaa" stroke-opacity="0.5"></path><path d="M310.1864 150.5356L139.051 197.4587" fill="none" stroke="#aaa" stroke-opacity="0.5"></path><path d="M303.3666 80.7631L269.8495 208.0312" fill="none" stroke="#aaa" stroke-opacity="0.5"></path><path d="M310.1864 150.5356L303.3666 80.7631" fill="none" stroke="#aaa" stroke-opacity="0.5"></path><path d="M184.4345 26.3649L108.9074 133.4499" fill="none" stroke="#aaa" stroke-opacity="0.5"></path><path d="M252.9587 32.8061L202.7176 226.3383" fill="none" stroke="#aaa" stroke-opacity="0.5"></path><path d="M211.6432 127.5794L303.3666 80.7631" fill="none" stroke="#aaa" stroke-opacity="0.5"></path><path d="M184.4345 26.3649L139.051 197.4587" fill="none" stroke="#aaa" stroke-opacity="0.5"></path><path d="M252.9587 32.8061L269.8495 208.0312" fill="none" stroke="#aaa" stroke-opacity="0.5"></path><path d="M128.1439 66.6728L202.7176 226.3383" fill="none" stroke="#aaa" stroke-opacity="0.5"></path><path d="M252.9587 32.8061L184.4345 26.3649" fill="none" stroke="#aaa" stroke-opacity="0.5"></path><path d="M108.9074 133.4499L269.8495 208.0312" fill="none" stroke="#aaa" stroke-opacity="0.5"></path><path d="M128.1439 66.6728L184.4345 26.3649" fill="none" stroke="#aaa" stroke-opacity="0.5"></path><path d="M139.051 197.4587L269.8495 208.0312" fill="none" stroke="#aaa" stroke-opacity="0.5"></path><path d="M310.1864 150.5356L202.7176 226.3383" fill="none" stroke="#aaa" stroke-opacity="0.5"></path><path d="M310.1864 150.5356L184.4345 26.3649" fill="none" stroke="#aaa" stroke-opacity="0.5"></path><path d="M128.1439 66.6728L108.9074 133.4499" fill="none" stroke="#aaa" stroke-opacity="0.5"></path><path d="M310.1864 150.5356L108.9074 133.4499" fill="none" stroke="#aaa" stroke-opacity="0.5"></path><path d="M139.051 197.4587L108.9074 133.4499" fill="none" stroke="#aaa" stroke-opacity="0.5"></path><path d="M184.4345 26.3649L202.7176 226.3383" fill="none" stroke="#aaa" stroke-opacity="0.5"></path><path d="M211.6432 127.5794L128.1439 66.6728" fill="none" stroke="#aaa" stroke-opacity="0.5"></path><path d="M252.9587 32.8061L303.3666 80.7631" fill="none" stroke="#aaa" stroke-opacity="0.5"></path><path d="M211.6432 127.5794L108.9074 133.4499" fill="none" stroke="#aaa" stroke-opacity="0.5"></path><path d="M1 0A1 1 0 1 1 1 -0.0001" fill="#5470c6" transform="matrix(19,0,0,19,310.1864,150.5356)"></path><path d="M1 0A1 1 0 1 1 1 -0.0001" fill="#5470c6" transform="matrix(19,0,0,19,269.8495,208.0312)"></path><path d="M1 0A1 1 0 1 1 1 -0.0001" fill="#5470c6" transform="matrix(19,0,0,19,202.7176,226.3383)"></path><path d="M1 0A1 1 0 1 1 1 -0.0001" fill="#5470c6" transform="matrix(19,0,0,19,139.051,197.4587)"></path><path d="M1 0A1 1 0 1 1 1 -0.0001" fill="#5470c6" transform="matrix(19,0,0,19,108.9074,133.4499)"></path><path d="M1 0A1 1 0 1 1 1 -0.0001" fill="#5470c6" transform="matrix(19,0,0,19,128.1439,66.6728)"></path><path d="M1 0A1 1 0 1 1 1 -0.0001" fill="#5470c6" transform="matrix(19,0,0,19,211.6432,127.5794)"></path><path d="M1 0A1 1 0 1 1 1 -0.0001" fill="#5470c6" transform="matrix(19,0,0,19,184.4345,26.3649)"></path><path d="M1 0A1 1 0 1 1 1 -0.0001" fill="#5470c6" transform="matrix(19,0,0,19,252.9587,32.8061)"></path><path d="M1 0A1 1 0 1 1 1 -0.0001" fill="#5470c6" transform="matrix(19,0,0,19,303.3666,80.7631)"></path><path d="M-32.4922 -5l64.9844 0l0 33l-64.9844 0Z" fill="rgb(0,0,0)" fill-opacity="0" stroke="#ccc" stroke-width="0" transform="translate(237.5 5)"></path><text dominant-baseline="central" fill="#333" style="font-size:23px;font-family:sans-serif;font-weight:bolder;" text-anchor="middle" transform="translate(237.5 5)" y="11.5">C218</text></g></svg>