<svg baseprofile="full" height="250" style="position:absolute;left:0;top:0;user-select:none" version="1.1" width="475" xmlns="http://www.w3.org/2000/svg" xmlns:xlink="http://www.w3.org/1999/xlink"><rect fill="none" height="250" id="0" width="475" x="0" y="0"></rect><g><path d="M128.8903 184.2337L108.7348 117.0122" fill="none" stroke="#aaa" stroke-opacity="0.5"></path><path d="M309.2998 97.7764L256.2911 216.5476" fill="none" stroke="#aaa" stroke-opacity="0.5"></path><path d="M202.1484 23.4917L108.7348 117.0122" fill="none" stroke="#aaa" stroke-opacity="0.5"></path><path d="M139.1878 53.827L269.0393 41.9611" fill="none" stroke="#aaa" stroke-opacity="0.5"></path><path d="M128.8903 184.2337L208.1114 125.226" fill="none" stroke="#aaa" stroke-opacity="0.5"></path><path d="M309.2998 97.7764L186.5781 224.3784" fill="none" stroke="#aaa" stroke-opacity="0.5"></path><path d="M269.0393 41.9611L108.7348 117.0122" fill="none" stroke="#aaa" stroke-opacity="0.5"></path><path d="M309.2998 97.7764L202.1484 23.4917" fill="none" stroke="#aaa" stroke-opacity="0.5"></path><path d="M208.1114 125.226L108.7348 117.0122" fill="none" stroke="#aaa" stroke-opacity="0.5"></path><path d="M139.1878 53.827L108.7348 117.0122" fill="none" stroke="#aaa" stroke-opacity="0.5"></path><path d="M202.1484 23.4917L256.2911 216.5476" fill="none" stroke="#aaa" stroke-opacity="0.5"></path><path d="M309.2998 97.7764L269.0393 41.9611" fill="none" stroke="#aaa" stroke-opacity="0.5"></path><path d="M256.2911 216.5476L108.7348 117.0122" fill="none" stroke="#aaa" stroke-opacity="0.5"></path><path d="M309.2998 97.7764L208.1114 125.226" fill="none" stroke="#aaa" stroke-opacity="0.5"></path><path d="M309.2998 97.7764L302.9779 165.546" fill="none" stroke="#aaa" stroke-opacity="0.5"></path><path d="M202.1484 23.4917L269.0393 41.9611" fill="none" stroke="#aaa" stroke-opacity="0.5"></path><path d="M309.2998 97.7764L128.8903 184.2337" fill="none" stroke="#aaa" stroke-opacity="0.5"></path><path d="M309.2998 97.7764L139.1878 53.827" fill="none" stroke="#aaa" stroke-opacity="0.5"></path><path d="M186.5781 224.3784L208.1114 125.226" fill="none" stroke="#aaa" stroke-opacity="0.5"></path><path d="M186.5781 224.3784L302.9779 165.546" fill="none" stroke="#aaa" stroke-opacity="0.5"></path><path d="M128.8903 184.2337L302.9779 165.546" fill="none" stroke="#aaa" stroke-opacity="0.5"></path><path d="M202.1484 23.4917L208.1114 125.226" fill="none" stroke="#aaa" stroke-opacity="0.5"></path><path d="M186.5781 224.3784L128.8903 184.2337" fill="none" stroke="#aaa" stroke-opacity="0.5"></path><path d="M202.1484 23.4917L302.9779 165.546" fill="none" stroke="#aaa" stroke-opacity="0.5"></path><path d="M202.1484 23.4917L128.8903 184.2337" fill="none" stroke="#aaa" stroke-opacity="0.5"></path><path d="M269.0393 41.9611L208.1114 125.226" fill="none" stroke="#aaa" stroke-opacity="0.5"></path><path d="M139.1878 53.827L208.1114 125.226" fill="none" stroke="#aaa" stroke-opacity="0.5"></path><path d="M186.5781 224.3784L256.2911 216.5476" fill="none" stroke="#aaa" stroke-opacity="0.5"></path><path d="M269.0393 41.9611L302.9779 165.546" fill="none" stroke="#aaa" stroke-opacity="0.5"></path><path d="M208.1114 125.226L302.9779 165.546" fill="none" stroke="#aaa" stroke-opacity="0.5"></path><path d="M139.1878 53.827L302.9779 165.546" fill="none" stroke="#aaa" stroke-opacity="0.5"></path><path d="M269.0393 41.9611L128.8903 184.2337" fill="none" stroke="#aaa" stroke-opacity="0.5"></path><path d="M139.1878 53.827L128.8903 184.2337" fill="none" stroke="#aaa" stroke-opacity="0.5"></path><path d="M108.7348 117.0122L302.9779 165.546" fill="none" stroke="#aaa" stroke-opacity="0.5"></path><path d="M269.0393 41.9611L256.2911 216.5476" fill="none" stroke="#aaa" stroke-opacity="0.5"></path><path d="M139.1878 53.827L256.2911 216.5476" fill="none" stroke="#aaa" stroke-opacity="0.5"></path><path d="M202.1484 23.4917L186.5781 224.3784" fill="none" stroke="#aaa" stroke-opacity="0.5"></path><path d="M309.2998 97.7764L108.7348 117.0122" fill="none" stroke="#aaa" stroke-opacity="0.5"></path><path d="M139.1878 53.827L186.5781 224.3784" fill="none" stroke="#aaa" stroke-opacity="0.5"></path><path d="M256.2911 216.5476L208.1114 125.226" fill="none" stroke="#aaa" stroke-opacity="0.5"></path><path d="M139.1878 53.827L202.1484 23.4917" fill="none" stroke="#aaa" stroke-opacity="0.5"></path><path d="M256.2911 216.5476L302.9779 165.546" fill="none" stroke="#aaa" stroke-opacity="0.5"></path><path d="M186.5781 224.3784L269.0393 41.9611" fill="none" stroke="#aaa" stroke-opacity="0.5"></path><path d="M256.2911 216.5476L128.8903 184.2337" fill="none" stroke="#aaa" stroke-opacity="0.5"></path><path d="M186.5781 224.3784L108.7348 117.0122" fill="none" stroke="#aaa" stroke-opacity="0.5"></path><path d="M1 0A1 1 0 1 1 1 -0.0001" fill="#5470c6" transform="matrix(19,0,0,19,302.9779,165.546)"></path><path d="M1 0A1 1 0 1 1 1 -0.0001" fill="#5470c6" transform="matrix(19,0,0,19,256.2911,216.5476)"></path><path d="M1 0A1 1 0 1 1 1 -0.0001" fill="#5470c6" transform="matrix(19,0,0,19,186.5781,224.3784)"></path><path d="M1 0A1 1 0 1 1 1 -0.0001" fill="#5470c6" transform="matrix(19,0,0,19,208.1114,125.226)"></path><path d="M1 0A1 1 0 1 1 1 -0.0001" fill="#5470c6" transform="matrix(19,0,0,19,128.8903,184.2337)"></path><path d="M1 0A1 1 0 1 1 1 -0.0001" fill="#5470c6" transform="matrix(19,0,0,19,108.7348,117.0122)"></path><path d="M1 0A1 1 0 1 1 1 -0.0001" fill="#5470c6" transform="matrix(19,0,0,19,139.1878,53.827)"></path><path d="M1 0A1 1 0 1 1 1 -0.0001" fill="#5470c6" transform="matrix(19,0,0,19,202.1484,23.4917)"></path><path d="M1 0A1 1 0 1 1 1 -0.0001" fill="#5470c6" transform="matrix(19,0,0,19,269.0393,41.9611)"></path><path d="M1 0A1 1 0 1 1 1 -0.0001" fill="#5470c6" transform="matrix(19,0,0,19,309.2998,97.7764)"></path><path d="M-32.4922 -5l64.9844 0l0 33l-64.9844 0Z" fill="rgb(0,0,0)" fill-opacity="0" stroke="#ccc" stroke-width="0" transform="translate(237.5 5)"></path><text dominant-baseline="central" fill="#333" style="font-size:23px;font-family:sans-serif;font-weight:bolder;" text-anchor="middle" transform="translate(237.5 5)" y="11.5">C219</text></g></svg>