<svg baseprofile="full" height="250" style="position:absolute;left:0;top:0;user-select:none" version="1.1" width="475" xmlns="http://www.w3.org/2000/svg" xmlns:xlink="http://www.w3.org/1999/xlink"><rect fill="none" height="250" id="0" width="475" x="0" y="0"></rect><g><path d="M128.0792 194.7626L259.644 222.5886" fill="none" stroke="#aaa" stroke-opacity="0.5"></path><path d="M194.6826 202.8541L302.4908 160.9843" fill="none" stroke="#aaa" stroke-opacity="0.5"></path><path d="M202.1338 66.6652L113.6983 119.684" fill="none" stroke="#aaa" stroke-opacity="0.5"></path><path d="M259.644 222.5886L135.8382 42.8223" fill="none" stroke="#aaa" stroke-opacity="0.5"></path><path d="M258.8312 24.2366L135.8382 42.8223" fill="none" stroke="#aaa" stroke-opacity="0.5"></path><path d="M194.6826 202.8541L304.7349 90.4023" fill="none" stroke="#aaa" stroke-opacity="0.5"></path><path d="M194.6826 202.8541L128.0792 194.7626" fill="none" stroke="#aaa" stroke-opacity="0.5"></path><path d="M202.1338 66.6652L259.644 222.5886" fill="none" stroke="#aaa" stroke-opacity="0.5"></path><path d="M128.0792 194.7626L135.8382 42.8223" fill="none" stroke="#aaa" stroke-opacity="0.5"></path><path d="M258.8312 24.2366L304.7349 90.4023" fill="none" stroke="#aaa" stroke-opacity="0.5"></path><path d="M128.0792 194.7626L304.7349 90.4023" fill="none" stroke="#aaa" stroke-opacity="0.5"></path><path d="M304.7349 90.4023L259.644 222.5886" fill="none" stroke="#aaa" stroke-opacity="0.5"></path><path d="M202.1338 66.6652L302.4908 160.9843" fill="none" stroke="#aaa" stroke-opacity="0.5"></path><path d="M194.6826 202.8541L202.1338 66.6652" fill="none" stroke="#aaa" stroke-opacity="0.5"></path><path d="M258.8312 24.2366L194.6826 202.8541" fill="none" stroke="#aaa" stroke-opacity="0.5"></path><path d="M202.1338 66.6652L135.8382 42.8223" fill="none" stroke="#aaa" stroke-opacity="0.5"></path><path d="M258.8312 24.2366L259.644 222.5886" fill="none" stroke="#aaa" stroke-opacity="0.5"></path><path d="M302.4908 160.9843L113.6983 119.684" fill="none" stroke="#aaa" stroke-opacity="0.5"></path><path d="M113.6983 119.684L259.644 222.5886" fill="none" stroke="#aaa" stroke-opacity="0.5"></path><path d="M202.1338 66.6652L304.7349 90.4023" fill="none" stroke="#aaa" stroke-opacity="0.5"></path><path d="M202.1338 66.6652L128.0792 194.7626" fill="none" stroke="#aaa" stroke-opacity="0.5"></path><path d="M302.4908 160.9843L259.644 222.5886" fill="none" stroke="#aaa" stroke-opacity="0.5"></path><path d="M194.6826 202.8541L135.8382 42.8223" fill="none" stroke="#aaa" stroke-opacity="0.5"></path><path d="M258.8312 24.2366L302.4908 160.9843" fill="none" stroke="#aaa" stroke-opacity="0.5"></path><path d="M113.6983 119.684L135.8382 42.8223" fill="none" stroke="#aaa" stroke-opacity="0.5"></path><path d="M128.0792 194.7626L302.4908 160.9843" fill="none" stroke="#aaa" stroke-opacity="0.5"></path><path d="M302.4908 160.9843L135.8382 42.8223" fill="none" stroke="#aaa" stroke-opacity="0.5"></path><path d="M258.8312 24.2366L128.0792 194.7626" fill="none" stroke="#aaa" stroke-opacity="0.5"></path><path d="M113.6983 119.684L304.7349 90.4023" fill="none" stroke="#aaa" stroke-opacity="0.5"></path><path d="M194.6826 202.8541L113.6983 119.684" fill="none" stroke="#aaa" stroke-opacity="0.5"></path><path d="M258.8312 24.2366L113.6983 119.684" fill="none" stroke="#aaa" stroke-opacity="0.5"></path><path d="M302.4908 160.9843L304.7349 90.4023" fill="none" stroke="#aaa" stroke-opacity="0.5"></path><path d="M194.6826 202.8541L259.644 222.5886" fill="none" stroke="#aaa" stroke-opacity="0.5"></path><path d="M128.0792 194.7626L113.6983 119.684" fill="none" stroke="#aaa" stroke-opacity="0.5"></path><path d="M258.8312 24.2366L202.1338 66.6652" fill="none" stroke="#aaa" stroke-opacity="0.5"></path><path d="M304.7349 90.4023L135.8382 42.8223" fill="none" stroke="#aaa" stroke-opacity="0.5"></path><path d="M1 0A1 1 0 1 1 1 -0.0001" fill="#5470c6" transform="matrix(19,0,0,19,302.4908,160.9843)"></path><path d="M1 0A1 1 0 1 1 1 -0.0001" fill="#5470c6" transform="matrix(19,0,0,19,259.644,222.5886)"></path><path d="M1 0A1 1 0 1 1 1 -0.0001" fill="#5470c6" transform="matrix(19,0,0,19,194.6826,202.8541)"></path><path d="M1 0A1 1 0 1 1 1 -0.0001" fill="#5470c6" transform="matrix(19,0,0,19,128.0792,194.7626)"></path><path d="M1 0A1 1 0 1 1 1 -0.0001" fill="#5470c6" transform="matrix(19,0,0,19,113.6983,119.684)"></path><path d="M1 0A1 1 0 1 1 1 -0.0001" fill="#5470c6" transform="matrix(19,0,0,19,135.8382,42.8223)"></path><path d="M1 0A1 1 0 1 1 1 -0.0001" fill="#5470c6" transform="matrix(19,0,0,19,202.1338,66.6652)"></path><path d="M1 0A1 1 0 1 1 1 -0.0001" fill="#5470c6" transform="matrix(19,0,0,19,258.8312,24.2366)"></path><path d="M1 0A1 1 0 1 1 1 -0.0001" fill="#5470c6" transform="matrix(19,0,0,19,304.7349,90.4023)"></path><path d="M-32.4922 -5l64.9844 0l0 33l-64.9844 0Z" fill="rgb(0,0,0)" fill-opacity="0" stroke="#ccc" stroke-width="0" transform="translate(237.5 5)"></path><text dominant-baseline="central" fill="#333" style="font-size:23px;font-family:sans-serif;font-weight:bolder;" text-anchor="middle" transform="translate(237.5 5)" y="11.5">C220</text></g></svg>