<svg baseprofile="full" height="250" style="position:absolute;left:0;top:0;user-select:none" version="1.1" width="475" xmlns="http://www.w3.org/2000/svg" xmlns:xlink="http://www.w3.org/1999/xlink"><rect fill="none" height="250" id="0" width="475" x="0" y="0"></rect><g><path d="M129.5479 183.3562L101.6748 105.6825" fill="none" stroke="#aaa" stroke-opacity="0.5"></path><path d="M189.3315 225.1725L101.6748 105.6825" fill="none" stroke="#aaa" stroke-opacity="0.5"></path><path d="M172.8145 20.4536L101.6748 105.6825" fill="none" stroke="#aaa" stroke-opacity="0.5"></path><path d="M307.1223 159.2715L256.8639 33.1382" fill="none" stroke="#aaa" stroke-opacity="0.5"></path><path d="M129.5479 183.3562L307.1223 159.2715" fill="none" stroke="#aaa" stroke-opacity="0.5"></path><path d="M129.5479 183.3562L189.3315 225.1725" fill="none" stroke="#aaa" stroke-opacity="0.5"></path><path d="M189.3315 225.1725L307.1223 159.2715" fill="none" stroke="#aaa" stroke-opacity="0.5"></path><path d="M180.3708 97.7856L256.8639 33.1382" fill="none" stroke="#aaa" stroke-opacity="0.5"></path><path d="M303.9063 89.0448L180.3708 97.7856" fill="none" stroke="#aaa" stroke-opacity="0.5"></path><path d="M258.5009 211.095L256.8639 33.1382" fill="none" stroke="#aaa" stroke-opacity="0.5"></path><path d="M129.5479 183.3562L172.8145 20.4536" fill="none" stroke="#aaa" stroke-opacity="0.5"></path><path d="M189.3315 225.1725L172.8145 20.4536" fill="none" stroke="#aaa" stroke-opacity="0.5"></path><path d="M129.5479 183.3562L256.8639 33.1382" fill="none" stroke="#aaa" stroke-opacity="0.5"></path><path d="M129.5479 183.3562L258.5009 211.095" fill="none" stroke="#aaa" stroke-opacity="0.5"></path><path d="M189.3315 225.1725L256.8639 33.1382" fill="none" stroke="#aaa" stroke-opacity="0.5"></path><path d="M172.8145 20.4536L256.8639 33.1382" fill="none" stroke="#aaa" stroke-opacity="0.5"></path><path d="M189.3315 225.1725L258.5009 211.095" fill="none" stroke="#aaa" stroke-opacity="0.5"></path><path d="M303.9063 89.0448L101.6748 105.6825" fill="none" stroke="#aaa" stroke-opacity="0.5"></path><path d="M172.8145 20.4536L258.5009 211.095" fill="none" stroke="#aaa" stroke-opacity="0.5"></path><path d="M303.9063 89.0448L307.1223 159.2715" fill="none" stroke="#aaa" stroke-opacity="0.5"></path><path d="M180.3708 97.7856L307.1223 159.2715" fill="none" stroke="#aaa" stroke-opacity="0.5"></path><path d="M101.6748 105.6825L307.1223 159.2715" fill="none" stroke="#aaa" stroke-opacity="0.5"></path><path d="M258.5009 211.095L307.1223 159.2715" fill="none" stroke="#aaa" stroke-opacity="0.5"></path><path d="M172.8145 20.4536L307.1223 159.2715" fill="none" stroke="#aaa" stroke-opacity="0.5"></path><path d="M129.5479 183.3562L303.9063 89.0448" fill="none" stroke="#aaa" stroke-opacity="0.5"></path><path d="M189.3315 225.1725L303.9063 89.0448" fill="none" stroke="#aaa" stroke-opacity="0.5"></path><path d="M303.9063 89.0448L172.8145 20.4536" fill="none" stroke="#aaa" stroke-opacity="0.5"></path><path d="M303.9063 89.0448L256.8639 33.1382" fill="none" stroke="#aaa" stroke-opacity="0.5"></path><path d="M303.9063 89.0448L258.5009 211.095" fill="none" stroke="#aaa" stroke-opacity="0.5"></path><path d="M101.6748 105.6825L256.8639 33.1382" fill="none" stroke="#aaa" stroke-opacity="0.5"></path><path d="M258.5009 211.095L180.3708 97.7856" fill="none" stroke="#aaa" stroke-opacity="0.5"></path><path d="M180.3708 97.7856L101.6748 105.6825" fill="none" stroke="#aaa" stroke-opacity="0.5"></path><path d="M129.5479 183.3562L180.3708 97.7856" fill="none" stroke="#aaa" stroke-opacity="0.5"></path><path d="M189.3315 225.1725L180.3708 97.7856" fill="none" stroke="#aaa" stroke-opacity="0.5"></path><path d="M172.8145 20.4536L180.3708 97.7856" fill="none" stroke="#aaa" stroke-opacity="0.5"></path><path d="M258.5009 211.095L101.6748 105.6825" fill="none" stroke="#aaa" stroke-opacity="0.5"></path><path d="M1 0A1 1 0 1 1 1 -0.0001" fill="#5470c6" transform="matrix(19,0,0,19,307.1223,159.2715)"></path><path d="M1 0A1 1 0 1 1 1 -0.0001" fill="#5470c6" transform="matrix(19,0,0,19,258.5009,211.095)"></path><path d="M1 0A1 1 0 1 1 1 -0.0001" fill="#5470c6" transform="matrix(19,0,0,19,189.3315,225.1725)"></path><path d="M1 0A1 1 0 1 1 1 -0.0001" fill="#5470c6" transform="matrix(19,0,0,19,129.5479,183.3562)"></path><path d="M1 0A1 1 0 1 1 1 -0.0001" fill="#5470c6" transform="matrix(19,0,0,19,101.6748,105.6825)"></path><path d="M1 0A1 1 0 1 1 1 -0.0001" fill="#5470c6" transform="matrix(19,0,0,19,180.3708,97.7856)"></path><path d="M1 0A1 1 0 1 1 1 -0.0001" fill="#5470c6" transform="matrix(19,0,0,19,172.8145,20.4536)"></path><path d="M1 0A1 1 0 1 1 1 -0.0001" fill="#5470c6" transform="matrix(19,0,0,19,256.8639,33.1382)"></path><path d="M1 0A1 1 0 1 1 1 -0.0001" fill="#5470c6" transform="matrix(19,0,0,19,303.9063,89.0448)"></path><path d="M-32.4922 -5l64.9844 0l0 33l-64.9844 0Z" fill="rgb(0,0,0)" fill-opacity="0" stroke="#ccc" stroke-width="0" transform="translate(237.5 5)"></path><text dominant-baseline="central" fill="#333" style="font-size:23px;font-family:sans-serif;font-weight:bolder;" text-anchor="middle" transform="translate(237.5 5)" y="11.5">C221</text></g></svg>