<svg baseprofile="full" height="250" style="position:absolute;left:0;top:0;user-select:none" version="1.1" width="475" xmlns="http://www.w3.org/2000/svg" xmlns:xlink="http://www.w3.org/1999/xlink"><rect fill="none" height="250" id="0" width="475" x="0" y="0"></rect><g><path d="M122.6929 178.713L303.7944 163.1562" fill="none" stroke="#aaa" stroke-opacity="0.5"></path><path d="M188.5257 103.1178L256.1257 215.0694" fill="none" stroke="#aaa" stroke-opacity="0.5"></path><path d="M258.7896 32.7848L183.5379 223.6552" fill="none" stroke="#aaa" stroke-opacity="0.5"></path><path d="M303.7944 163.1562L256.1257 215.0694" fill="none" stroke="#aaa" stroke-opacity="0.5"></path><path d="M307.8417 90.6171L256.1257 215.0694" fill="none" stroke="#aaa" stroke-opacity="0.5"></path><path d="M188.5257 103.1178L105.2146 96.1862" fill="none" stroke="#aaa" stroke-opacity="0.5"></path><path d="M188.5257 103.1178L307.8417 90.6171" fill="none" stroke="#aaa" stroke-opacity="0.5"></path><path d="M303.7944 163.1562L105.2146 96.1862" fill="none" stroke="#aaa" stroke-opacity="0.5"></path><path d="M307.8417 90.6171L105.2146 96.1862" fill="none" stroke="#aaa" stroke-opacity="0.5"></path><path d="M122.6929 178.713L105.2146 96.1862" fill="none" stroke="#aaa" stroke-opacity="0.5"></path><path d="M188.5257 103.1178L173.6104 21.7005" fill="none" stroke="#aaa" stroke-opacity="0.5"></path><path d="M307.8417 90.6171L122.6929 178.713" fill="none" stroke="#aaa" stroke-opacity="0.5"></path><path d="M258.7896 32.7848L122.6929 178.713" fill="none" stroke="#aaa" stroke-opacity="0.5"></path><path d="M258.7896 32.7848L303.7944 163.1562" fill="none" stroke="#aaa" stroke-opacity="0.5"></path><path d="M303.7944 163.1562L173.6104 21.7005" fill="none" stroke="#aaa" stroke-opacity="0.5"></path><path d="M188.5257 103.1178L258.7896 32.7848" fill="none" stroke="#aaa" stroke-opacity="0.5"></path><path d="M183.5379 223.6552L122.6929 178.713" fill="none" stroke="#aaa" stroke-opacity="0.5"></path><path d="M188.5257 103.1178L183.5379 223.6552" fill="none" stroke="#aaa" stroke-opacity="0.5"></path><path d="M183.5379 223.6552L173.6104 21.7005" fill="none" stroke="#aaa" stroke-opacity="0.5"></path><path d="M183.5379 223.6552L303.7944 163.1562" fill="none" stroke="#aaa" stroke-opacity="0.5"></path><path d="M307.8417 90.6171L183.5379 223.6552" fill="none" stroke="#aaa" stroke-opacity="0.5"></path><path d="M258.7896 32.7848L256.1257 215.0694" fill="none" stroke="#aaa" stroke-opacity="0.5"></path><path d="M122.6929 178.713L256.1257 215.0694" fill="none" stroke="#aaa" stroke-opacity="0.5"></path><path d="M256.1257 215.0694L105.2146 96.1862" fill="none" stroke="#aaa" stroke-opacity="0.5"></path><path d="M183.5379 223.6552L256.1257 215.0694" fill="none" stroke="#aaa" stroke-opacity="0.5"></path><path d="M258.7896 32.7848L105.2146 96.1862" fill="none" stroke="#aaa" stroke-opacity="0.5"></path><path d="M258.7896 32.7848L307.8417 90.6171" fill="none" stroke="#aaa" stroke-opacity="0.5"></path><path d="M183.5379 223.6552L105.2146 96.1862" fill="none" stroke="#aaa" stroke-opacity="0.5"></path><path d="M188.5257 103.1178L122.6929 178.713" fill="none" stroke="#aaa" stroke-opacity="0.5"></path><path d="M188.5257 103.1178L303.7944 163.1562" fill="none" stroke="#aaa" stroke-opacity="0.5"></path><path d="M256.1257 215.0694L173.6104 21.7005" fill="none" stroke="#aaa" stroke-opacity="0.5"></path><path d="M307.8417 90.6171L173.6104 21.7005" fill="none" stroke="#aaa" stroke-opacity="0.5"></path><path d="M258.7896 32.7848L173.6104 21.7005" fill="none" stroke="#aaa" stroke-opacity="0.5"></path><path d="M307.8417 90.6171L303.7944 163.1562" fill="none" stroke="#aaa" stroke-opacity="0.5"></path><path d="M173.6104 21.7005L105.2146 96.1862" fill="none" stroke="#aaa" stroke-opacity="0.5"></path><path d="M122.6929 178.713L173.6104 21.7005" fill="none" stroke="#aaa" stroke-opacity="0.5"></path><path d="M1 0A1 1 0 1 1 1 -0.0001" fill="#5470c6" transform="matrix(19,0,0,19,303.7944,163.1562)"></path><path d="M1 0A1 1 0 1 1 1 -0.0001" fill="#5470c6" transform="matrix(19,0,0,19,256.1257,215.0694)"></path><path d="M1 0A1 1 0 1 1 1 -0.0001" fill="#5470c6" transform="matrix(19,0,0,19,183.5379,223.6552)"></path><path d="M1 0A1 1 0 1 1 1 -0.0001" fill="#5470c6" transform="matrix(19,0,0,19,122.6929,178.713)"></path><path d="M1 0A1 1 0 1 1 1 -0.0001" fill="#5470c6" transform="matrix(19,0,0,19,105.2146,96.1862)"></path><path d="M1 0A1 1 0 1 1 1 -0.0001" fill="#5470c6" transform="matrix(19,0,0,19,188.5257,103.1178)"></path><path d="M1 0A1 1 0 1 1 1 -0.0001" fill="#5470c6" transform="matrix(19,0,0,19,173.6104,21.7005)"></path><path d="M1 0A1 1 0 1 1 1 -0.0001" fill="#5470c6" transform="matrix(19,0,0,19,258.7896,32.7848)"></path><path d="M1 0A1 1 0 1 1 1 -0.0001" fill="#5470c6" transform="matrix(19,0,0,19,307.8417,90.6171)"></path><path d="M-32.4922 -5l64.9844 0l0 33l-64.9844 0Z" fill="rgb(0,0,0)" fill-opacity="0" stroke="#ccc" stroke-width="0" transform="translate(237.5 5)"></path><text dominant-baseline="central" fill="#333" style="font-size:23px;font-family:sans-serif;font-weight:bolder;" text-anchor="middle" transform="translate(237.5 5)" y="11.5">C222</text></g></svg>