<svg baseprofile="full" height="250" style="position:absolute;left:0;top:0;user-select:none" version="1.1" width="475" xmlns="http://www.w3.org/2000/svg" xmlns:xlink="http://www.w3.org/1999/xlink"><rect fill="none" height="250" id="0" width="475" x="0" y="0"></rect><g><path d="M266.0148 220.4561L200.2309 203.7871" fill="none" stroke="#aaa" stroke-opacity="0.5"></path><path d="M266.0148 220.4561L133.9192 198.0775" fill="none" stroke="#aaa" stroke-opacity="0.5"></path><path d="M266.0148 220.4561L189.4293 18.4522" fill="none" stroke="#aaa" stroke-opacity="0.5"></path><path d="M266.0148 220.4561L295.1768 154.0467" fill="none" stroke="#aaa" stroke-opacity="0.5"></path><path d="M295.1768 154.0467L200.2309 203.7871" fill="none" stroke="#aaa" stroke-opacity="0.5"></path><path d="M189.4293 18.4522L252.5288 48.2082" fill="none" stroke="#aaa" stroke-opacity="0.5"></path><path d="M189.4293 18.4522L143.7006 70.5245" fill="none" stroke="#aaa" stroke-opacity="0.5"></path><path d="M107.1455 126.0314L143.7006 70.5245" fill="none" stroke="#aaa" stroke-opacity="0.5"></path><path d="M200.2309 203.7871L252.5288 48.2082" fill="none" stroke="#aaa" stroke-opacity="0.5"></path><path d="M311.987 85.4162L107.1455 126.0314" fill="none" stroke="#aaa" stroke-opacity="0.5"></path><path d="M252.5288 48.2082L143.7006 70.5245" fill="none" stroke="#aaa" stroke-opacity="0.5"></path><path d="M200.2309 203.7871L107.1455 126.0314" fill="none" stroke="#aaa" stroke-opacity="0.5"></path><path d="M295.1768 154.0467L107.1455 126.0314" fill="none" stroke="#aaa" stroke-opacity="0.5"></path><path d="M133.9192 198.0775L252.5288 48.2082" fill="none" stroke="#aaa" stroke-opacity="0.5"></path><path d="M200.2309 203.7871L143.7006 70.5245" fill="none" stroke="#aaa" stroke-opacity="0.5"></path><path d="M133.9192 198.0775L107.1455 126.0314" fill="none" stroke="#aaa" stroke-opacity="0.5"></path><path d="M189.4293 18.4522L311.987 85.4162" fill="none" stroke="#aaa" stroke-opacity="0.5"></path><path d="M133.9192 198.0775L143.7006 70.5245" fill="none" stroke="#aaa" stroke-opacity="0.5"></path><path d="M200.2309 203.7871L311.987 85.4162" fill="none" stroke="#aaa" stroke-opacity="0.5"></path><path d="M295.1768 154.0467L311.987 85.4162" fill="none" stroke="#aaa" stroke-opacity="0.5"></path><path d="M133.9192 198.0775L311.987 85.4162" fill="none" stroke="#aaa" stroke-opacity="0.5"></path><path d="M189.4293 18.4522L200.2309 203.7871" fill="none" stroke="#aaa" stroke-opacity="0.5"></path><path d="M266.0148 220.4561L252.5288 48.2082" fill="none" stroke="#aaa" stroke-opacity="0.5"></path><path d="M266.0148 220.4561L107.1455 126.0314" fill="none" stroke="#aaa" stroke-opacity="0.5"></path><path d="M107.1455 126.0314L252.5288 48.2082" fill="none" stroke="#aaa" stroke-opacity="0.5"></path><path d="M266.0148 220.4561L143.7006 70.5245" fill="none" stroke="#aaa" stroke-opacity="0.5"></path><path d="M295.1768 154.0467L133.9192 198.0775" fill="none" stroke="#aaa" stroke-opacity="0.5"></path><path d="M133.9192 198.0775L200.2309 203.7871" fill="none" stroke="#aaa" stroke-opacity="0.5"></path><path d="M311.987 85.4162L252.5288 48.2082" fill="none" stroke="#aaa" stroke-opacity="0.5"></path><path d="M189.4293 18.4522L107.1455 126.0314" fill="none" stroke="#aaa" stroke-opacity="0.5"></path><path d="M295.1768 154.0467L252.5288 48.2082" fill="none" stroke="#aaa" stroke-opacity="0.5"></path><path d="M266.0148 220.4561L311.987 85.4162" fill="none" stroke="#aaa" stroke-opacity="0.5"></path><path d="M311.987 85.4162L143.7006 70.5245" fill="none" stroke="#aaa" stroke-opacity="0.5"></path><path d="M295.1768 154.0467L189.4293 18.4522" fill="none" stroke="#aaa" stroke-opacity="0.5"></path><path d="M295.1768 154.0467L143.7006 70.5245" fill="none" stroke="#aaa" stroke-opacity="0.5"></path><path d="M133.9192 198.0775L189.4293 18.4522" fill="none" stroke="#aaa" stroke-opacity="0.5"></path><path d="M1 0A1 1 0 1 1 1 -0.0001" fill="#5470c6" transform="matrix(19,0,0,19,295.1768,154.0467)"></path><path d="M1 0A1 1 0 1 1 1 -0.0001" fill="#5470c6" transform="matrix(19,0,0,19,266.0148,220.4561)"></path><path d="M1 0A1 1 0 1 1 1 -0.0001" fill="#5470c6" transform="matrix(19,0,0,19,200.2309,203.7871)"></path><path d="M1 0A1 1 0 1 1 1 -0.0001" fill="#5470c6" transform="matrix(19,0,0,19,133.9192,198.0775)"></path><path d="M1 0A1 1 0 1 1 1 -0.0001" fill="#5470c6" transform="matrix(19,0,0,19,107.1455,126.0314)"></path><path d="M1 0A1 1 0 1 1 1 -0.0001" fill="#5470c6" transform="matrix(19,0,0,19,143.7006,70.5245)"></path><path d="M1 0A1 1 0 1 1 1 -0.0001" fill="#5470c6" transform="matrix(19,0,0,19,189.4293,18.4522)"></path><path d="M1 0A1 1 0 1 1 1 -0.0001" fill="#5470c6" transform="matrix(19,0,0,19,252.5288,48.2082)"></path><path d="M1 0A1 1 0 1 1 1 -0.0001" fill="#5470c6" transform="matrix(19,0,0,19,311.987,85.4162)"></path><path d="M-32.4922 -5l64.9844 0l0 33l-64.9844 0Z" fill="rgb(0,0,0)" fill-opacity="0" stroke="#ccc" stroke-width="0" transform="translate(237.5 5)"></path><text dominant-baseline="central" fill="#333" style="font-size:23px;font-family:sans-serif;font-weight:bolder;" text-anchor="middle" transform="translate(237.5 5)" y="11.5">C223</text></g></svg>