<svg baseprofile="full" height="250" style="position:absolute;left:0;top:0;user-select:none" version="1.1" width="475" xmlns="http://www.w3.org/2000/svg" xmlns:xlink="http://www.w3.org/1999/xlink"><rect fill="none" height="250" id="0" width="475" x="0" y="0"></rect><g><path d="M114.2187 171.2178L308.1405 159.1784" fill="none" stroke="#aaa" stroke-opacity="0.5"></path><path d="M308.1405 159.1784L179.6293 226.2184" fill="none" stroke="#aaa" stroke-opacity="0.5"></path><path d="M304.5787 84.1416L179.6293 226.2184" fill="none" stroke="#aaa" stroke-opacity="0.5"></path><path d="M251.992 29.895L304.5787 84.1416" fill="none" stroke="#aaa" stroke-opacity="0.5"></path><path d="M251.992 29.895L112.6904 84.2654" fill="none" stroke="#aaa" stroke-opacity="0.5"></path><path d="M251.992 29.895L173.1683 26.9348" fill="none" stroke="#aaa" stroke-opacity="0.5"></path><path d="M308.1405 159.1784L258.1841 216.5139" fill="none" stroke="#aaa" stroke-opacity="0.5"></path><path d="M112.6904 84.2654L173.1683 26.9348" fill="none" stroke="#aaa" stroke-opacity="0.5"></path><path d="M308.1405 159.1784L197.5309 126.6345" fill="none" stroke="#aaa" stroke-opacity="0.5"></path><path d="M197.5309 126.6345L304.5787 84.1416" fill="none" stroke="#aaa" stroke-opacity="0.5"></path><path d="M197.5309 126.6345L112.6904 84.2654" fill="none" stroke="#aaa" stroke-opacity="0.5"></path><path d="M251.992 29.895L258.1841 216.5139" fill="none" stroke="#aaa" stroke-opacity="0.5"></path><path d="M251.992 29.895L308.1405 159.1784" fill="none" stroke="#aaa" stroke-opacity="0.5"></path><path d="M258.1841 216.5139L304.5787 84.1416" fill="none" stroke="#aaa" stroke-opacity="0.5"></path><path d="M258.1841 216.5139L179.6293 226.2184" fill="none" stroke="#aaa" stroke-opacity="0.5"></path><path d="M258.1841 216.5139L173.1683 26.9348" fill="none" stroke="#aaa" stroke-opacity="0.5"></path><path d="M114.2187 171.2178L258.1841 216.5139" fill="none" stroke="#aaa" stroke-opacity="0.5"></path><path d="M114.2187 171.2178L197.5309 126.6345" fill="none" stroke="#aaa" stroke-opacity="0.5"></path><path d="M308.1405 159.1784L304.5787 84.1416" fill="none" stroke="#aaa" stroke-opacity="0.5"></path><path d="M308.1405 159.1784L112.6904 84.2654" fill="none" stroke="#aaa" stroke-opacity="0.5"></path><path d="M304.5787 84.1416L112.6904 84.2654" fill="none" stroke="#aaa" stroke-opacity="0.5"></path><path d="M308.1405 159.1784L173.1683 26.9348" fill="none" stroke="#aaa" stroke-opacity="0.5"></path><path d="M304.5787 84.1416L173.1683 26.9348" fill="none" stroke="#aaa" stroke-opacity="0.5"></path><path d="M258.1841 216.5139L197.5309 126.6345" fill="none" stroke="#aaa" stroke-opacity="0.5"></path><path d="M251.992 29.895L114.2187 171.2178" fill="none" stroke="#aaa" stroke-opacity="0.5"></path><path d="M251.992 29.895L179.6293 226.2184" fill="none" stroke="#aaa" stroke-opacity="0.5"></path><path d="M179.6293 226.2184L173.1683 26.9348" fill="none" stroke="#aaa" stroke-opacity="0.5"></path><path d="M112.6904 84.2654L179.6293 226.2184" fill="none" stroke="#aaa" stroke-opacity="0.5"></path><path d="M114.2187 171.2178L304.5787 84.1416" fill="none" stroke="#aaa" stroke-opacity="0.5"></path><path d="M114.2187 171.2178L112.6904 84.2654" fill="none" stroke="#aaa" stroke-opacity="0.5"></path><path d="M114.2187 171.2178L179.6293 226.2184" fill="none" stroke="#aaa" stroke-opacity="0.5"></path><path d="M114.2187 171.2178L173.1683 26.9348" fill="none" stroke="#aaa" stroke-opacity="0.5"></path><path d="M251.992 29.895L197.5309 126.6345" fill="none" stroke="#aaa" stroke-opacity="0.5"></path><path d="M258.1841 216.5139L112.6904 84.2654" fill="none" stroke="#aaa" stroke-opacity="0.5"></path><path d="M197.5309 126.6345L179.6293 226.2184" fill="none" stroke="#aaa" stroke-opacity="0.5"></path><path d="M197.5309 126.6345L173.1683 26.9348" fill="none" stroke="#aaa" stroke-opacity="0.5"></path><path d="M1 0A1 1 0 1 1 1 -0.0001" fill="#5470c6" transform="matrix(19,0,0,19,308.1405,159.1784)"></path><path d="M1 0A1 1 0 1 1 1 -0.0001" fill="#5470c6" transform="matrix(19,0,0,19,258.1841,216.5139)"></path><path d="M1 0A1 1 0 1 1 1 -0.0001" fill="#5470c6" transform="matrix(19,0,0,19,179.6293,226.2184)"></path><path d="M1 0A1 1 0 1 1 1 -0.0001" fill="#5470c6" transform="matrix(19,0,0,19,114.2187,171.2178)"></path><path d="M1 0A1 1 0 1 1 1 -0.0001" fill="#5470c6" transform="matrix(19,0,0,19,197.5309,126.6345)"></path><path d="M1 0A1 1 0 1 1 1 -0.0001" fill="#5470c6" transform="matrix(19,0,0,19,112.6904,84.2654)"></path><path d="M1 0A1 1 0 1 1 1 -0.0001" fill="#5470c6" transform="matrix(19,0,0,19,173.1683,26.9348)"></path><path d="M1 0A1 1 0 1 1 1 -0.0001" fill="#5470c6" transform="matrix(19,0,0,19,251.992,29.895)"></path><path d="M1 0A1 1 0 1 1 1 -0.0001" fill="#5470c6" transform="matrix(19,0,0,19,304.5787,84.1416)"></path><path d="M-32.4922 -5l64.9844 0l0 33l-64.9844 0Z" fill="rgb(0,0,0)" fill-opacity="0" stroke="#ccc" stroke-width="0" transform="translate(237.5 5)"></path><text dominant-baseline="central" fill="#333" style="font-size:23px;font-family:sans-serif;font-weight:bolder;" text-anchor="middle" transform="translate(237.5 5)" y="11.5">C224</text></g></svg>