<svg baseprofile="full" height="250" style="position:absolute;left:0;top:0;user-select:none" version="1.1" width="475" xmlns="http://www.w3.org/2000/svg" xmlns:xlink="http://www.w3.org/1999/xlink"><rect fill="none" height="250" id="0" width="475" x="0" y="0"></rect><g><path d="M304.0697 163.7532L250.1663 218.5773" fill="none" stroke="#aaa" stroke-opacity="0.5"></path><path d="M119.6456 87.346L304.0697 163.7532" fill="none" stroke="#aaa" stroke-opacity="0.5"></path><path d="M171.8038 29.9605L249.2009 32.2844" fill="none" stroke="#aaa" stroke-opacity="0.5"></path><path d="M305.3947 86.2584L172.565 217.7133" fill="none" stroke="#aaa" stroke-opacity="0.5"></path><path d="M116.1611 164.1068L249.2009 32.2844" fill="none" stroke="#aaa" stroke-opacity="0.5"></path><path d="M119.6456 87.346L116.1611 164.1068" fill="none" stroke="#aaa" stroke-opacity="0.5"></path><path d="M171.8038 29.9605L172.565 217.7133" fill="none" stroke="#aaa" stroke-opacity="0.5"></path><path d="M116.1611 164.1068L172.565 217.7133" fill="none" stroke="#aaa" stroke-opacity="0.5"></path><path d="M119.6456 87.346L171.8038 29.9605" fill="none" stroke="#aaa" stroke-opacity="0.5"></path><path d="M305.3947 86.2584L250.1663 218.5773" fill="none" stroke="#aaa" stroke-opacity="0.5"></path><path d="M249.2009 32.2844L172.565 217.7133" fill="none" stroke="#aaa" stroke-opacity="0.5"></path><path d="M305.3947 86.2584L304.0697 163.7532" fill="none" stroke="#aaa" stroke-opacity="0.5"></path><path d="M171.8038 29.9605L250.1663 218.5773" fill="none" stroke="#aaa" stroke-opacity="0.5"></path><path d="M119.6456 87.346L249.2009 32.2844" fill="none" stroke="#aaa" stroke-opacity="0.5"></path><path d="M305.3947 86.2584L119.6456 87.346" fill="none" stroke="#aaa" stroke-opacity="0.5"></path><path d="M116.1611 164.1068L250.1663 218.5773" fill="none" stroke="#aaa" stroke-opacity="0.5"></path><path d="M304.0697 163.7532L249.2009 32.2844" fill="none" stroke="#aaa" stroke-opacity="0.5"></path><path d="M171.8038 29.9605L304.0697 163.7532" fill="none" stroke="#aaa" stroke-opacity="0.5"></path><path d="M305.3947 86.2584L116.1611 164.1068" fill="none" stroke="#aaa" stroke-opacity="0.5"></path><path d="M119.6456 87.346L172.565 217.7133" fill="none" stroke="#aaa" stroke-opacity="0.5"></path><path d="M172.565 217.7133L250.1663 218.5773" fill="none" stroke="#aaa" stroke-opacity="0.5"></path><path d="M116.1611 164.5L304.0697 164.5" fill="none" stroke="#aaa" stroke-opacity="0.5"></path><path d="M249.2009 32.2844L250.1663 218.5773" fill="none" stroke="#aaa" stroke-opacity="0.5"></path><path d="M305.3947 86.2584L171.8038 29.9605" fill="none" stroke="#aaa" stroke-opacity="0.5"></path><path d="M304.0697 163.7532L172.565 217.7133" fill="none" stroke="#aaa" stroke-opacity="0.5"></path><path d="M171.8038 29.9605L116.1611 164.1068" fill="none" stroke="#aaa" stroke-opacity="0.5"></path><path d="M119.6456 87.346L250.1663 218.5773" fill="none" stroke="#aaa" stroke-opacity="0.5"></path><path d="M305.3947 86.2584L249.2009 32.2844" fill="none" stroke="#aaa" stroke-opacity="0.5"></path><path d="M1 0A1 1 0 1 1 1 -0.0001" fill="#5470c6" transform="matrix(19,0,0,19,304.0697,163.7532)"></path><path d="M1 0A1 1 0 1 1 1 -0.0001" fill="#5470c6" transform="matrix(19,0,0,19,250.1663,218.5773)"></path><path d="M1 0A1 1 0 1 1 1 -0.0001" fill="#5470c6" transform="matrix(19,0,0,19,172.565,217.7133)"></path><path d="M1 0A1 1 0 1 1 1 -0.0001" fill="#5470c6" transform="matrix(19,0,0,19,116.1611,164.1068)"></path><path d="M1 0A1 1 0 1 1 1 -0.0001" fill="#5470c6" transform="matrix(19,0,0,19,119.6456,87.346)"></path><path d="M1 0A1 1 0 1 1 1 -0.0001" fill="#5470c6" transform="matrix(19,0,0,19,171.8038,29.9605)"></path><path d="M1 0A1 1 0 1 1 1 -0.0001" fill="#5470c6" transform="matrix(19,0,0,19,249.2009,32.2844)"></path><path d="M1 0A1 1 0 1 1 1 -0.0001" fill="#5470c6" transform="matrix(19,0,0,19,305.3947,86.2584)"></path><path d="M-32.4922 -5l64.9844 0l0 33l-64.9844 0Z" fill="rgb(0,0,0)" fill-opacity="0" stroke="#ccc" stroke-width="0" transform="translate(237.5 5)"></path><text dominant-baseline="central" fill="#333" style="font-size:23px;font-family:sans-serif;font-weight:bolder;" text-anchor="middle" transform="translate(237.5 5)" y="11.5">C225</text></g></svg>