<svg baseprofile="full" height="250" style="position:absolute;left:0;top:0;user-select:none" version="1.1" width="475" xmlns="http://www.w3.org/2000/svg" xmlns:xlink="http://www.w3.org/1999/xlink"><rect fill="none" height="250" id="0" width="475" x="0" y="0"></rect><g><path d="M118.3273 162.7415L174.0678 33.7134" fill="none" stroke="#aaa" stroke-opacity="0.5"></path><path d="M115.5346 85.1158L249.3479 218.6926" fill="none" stroke="#aaa" stroke-opacity="0.5"></path><path d="M115.5346 85.1158L304.5068 164.3683" fill="none" stroke="#aaa" stroke-opacity="0.5"></path><path d="M172.4025 218.1795L249.3479 218.6926" fill="none" stroke="#aaa" stroke-opacity="0.5"></path><path d="M304.5068 164.3683L172.4025 218.1795" fill="none" stroke="#aaa" stroke-opacity="0.5"></path><path d="M303.9445 87.0055L172.4025 218.1795" fill="none" stroke="#aaa" stroke-opacity="0.5"></path><path d="M304.5068 164.3683L249.3479 218.6926" fill="none" stroke="#aaa" stroke-opacity="0.5"></path><path d="M115.5346 85.1158L303.9445 87.0055" fill="none" stroke="#aaa" stroke-opacity="0.5"></path><path d="M174.0678 33.7134L303.9445 87.0055" fill="none" stroke="#aaa" stroke-opacity="0.5"></path><path d="M174.0678 33.7134L172.4025 218.1795" fill="none" stroke="#aaa" stroke-opacity="0.5"></path><path d="M303.9445 87.0055L250.8756 30.1834" fill="none" stroke="#aaa" stroke-opacity="0.5"></path><path d="M115.5346 85.1158L250.8756 30.1834" fill="none" stroke="#aaa" stroke-opacity="0.5"></path><path d="M174.0678 33.7134L250.8756 30.1834" fill="none" stroke="#aaa" stroke-opacity="0.5"></path><path d="M303.9445 87.0055L249.3479 218.6926" fill="none" stroke="#aaa" stroke-opacity="0.5"></path><path d="M303.9445 87.0055L304.5068 164.3683" fill="none" stroke="#aaa" stroke-opacity="0.5"></path><path d="M118.3273 162.7415L115.5346 85.1158" fill="none" stroke="#aaa" stroke-opacity="0.5"></path><path d="M174.0678 33.7134L249.3479 218.6926" fill="none" stroke="#aaa" stroke-opacity="0.5"></path><path d="M174.0678 33.7134L304.5068 164.3683" fill="none" stroke="#aaa" stroke-opacity="0.5"></path><path d="M118.3273 162.7415L303.9445 87.0055" fill="none" stroke="#aaa" stroke-opacity="0.5"></path><path d="M118.3273 162.7415L172.4025 218.1795" fill="none" stroke="#aaa" stroke-opacity="0.5"></path><path d="M250.8756 30.1834L172.4025 218.1795" fill="none" stroke="#aaa" stroke-opacity="0.5"></path><path d="M118.3273 162.7415L250.8756 30.1834" fill="none" stroke="#aaa" stroke-opacity="0.5"></path><path d="M118.3273 162.7415L249.3479 218.6926" fill="none" stroke="#aaa" stroke-opacity="0.5"></path><path d="M118.3273 162.7415L304.5068 164.3683" fill="none" stroke="#aaa" stroke-opacity="0.5"></path><path d="M250.8756 30.1834L249.3479 218.6926" fill="none" stroke="#aaa" stroke-opacity="0.5"></path><path d="M250.8756 30.1834L304.5068 164.3683" fill="none" stroke="#aaa" stroke-opacity="0.5"></path><path d="M115.5346 85.1158L174.0678 33.7134" fill="none" stroke="#aaa" stroke-opacity="0.5"></path><path d="M115.5346 85.1158L172.4025 218.1795" fill="none" stroke="#aaa" stroke-opacity="0.5"></path><path d="M1 0A1 1 0 1 1 1 -0.0001" fill="#5470c6" transform="matrix(19,0,0,19,304.5068,164.3683)"></path><path d="M1 0A1 1 0 1 1 1 -0.0001" fill="#5470c6" transform="matrix(19,0,0,19,249.3479,218.6926)"></path><path d="M1 0A1 1 0 1 1 1 -0.0001" fill="#5470c6" transform="matrix(19,0,0,19,172.4025,218.1795)"></path><path d="M1 0A1 1 0 1 1 1 -0.0001" fill="#5470c6" transform="matrix(19,0,0,19,118.3273,162.7415)"></path><path d="M1 0A1 1 0 1 1 1 -0.0001" fill="#5470c6" transform="matrix(19,0,0,19,115.5346,85.1158)"></path><path d="M1 0A1 1 0 1 1 1 -0.0001" fill="#5470c6" transform="matrix(19,0,0,19,174.0678,33.7134)"></path><path d="M1 0A1 1 0 1 1 1 -0.0001" fill="#5470c6" transform="matrix(19,0,0,19,250.8756,30.1834)"></path><path d="M1 0A1 1 0 1 1 1 -0.0001" fill="#5470c6" transform="matrix(19,0,0,19,303.9445,87.0055)"></path><path d="M-32.4922 -5l64.9844 0l0 33l-64.9844 0Z" fill="rgb(0,0,0)" fill-opacity="0" stroke="#ccc" stroke-width="0" transform="translate(237.5 5)"></path><text dominant-baseline="central" fill="#333" style="font-size:23px;font-family:sans-serif;font-weight:bolder;" text-anchor="middle" transform="translate(237.5 5)" y="11.5">C226</text></g></svg>