<svg baseprofile="full" height="250" style="position:absolute;left:0;top:0;user-select:none" version="1.1" width="475" xmlns="http://www.w3.org/2000/svg" xmlns:xlink="http://www.w3.org/1999/xlink"><rect fill="none" height="250" id="0" width="475" x="0" y="0"></rect><g><path d="M304.6715 163.3454L172.4965 218.3766" fill="none" stroke="#aaa" stroke-opacity="0.5"></path><path d="M118.7676 86.8617L249.7546 218.3836" fill="none" stroke="#aaa" stroke-opacity="0.5"></path><path d="M118.7676 86.8617L171.2822 30.6866" fill="none" stroke="#aaa" stroke-opacity="0.5"></path><path d="M117.8899 163.8914L172.4965 218.3766" fill="none" stroke="#aaa" stroke-opacity="0.5"></path><path d="M304.6715 163.3454L171.2822 30.6866" fill="none" stroke="#aaa" stroke-opacity="0.5"></path><path d="M304.5156 86.3165L249.7546 218.3836" fill="none" stroke="#aaa" stroke-opacity="0.5"></path><path d="M304.5156 86.3165L171.2822 30.6866" fill="none" stroke="#aaa" stroke-opacity="0.5"></path><path d="M304.5 86.3165L304.5 163.3454" fill="none" stroke="#aaa" stroke-opacity="0.5"></path><path d="M249.629 32.1382L249.7546 218.3836" fill="none" stroke="#aaa" stroke-opacity="0.5"></path><path d="M249.629 32.1382L304.6715 163.3454" fill="none" stroke="#aaa" stroke-opacity="0.5"></path><path d="M117.8899 163.8914L249.7546 218.3836" fill="none" stroke="#aaa" stroke-opacity="0.5"></path><path d="M117.8899 163.8914L171.2822 30.6866" fill="none" stroke="#aaa" stroke-opacity="0.5"></path><path d="M118.7676 86.8617L117.8899 163.8914" fill="none" stroke="#aaa" stroke-opacity="0.5"></path><path d="M249.7546 218.5L172.4965 218.5" fill="none" stroke="#aaa" stroke-opacity="0.5"></path><path d="M118.7676 86.8617L172.4965 218.3766" fill="none" stroke="#aaa" stroke-opacity="0.5"></path><path d="M304.5156 86.3165L117.8899 163.8914" fill="none" stroke="#aaa" stroke-opacity="0.5"></path><path d="M249.629 32.1382L117.8899 163.8914" fill="none" stroke="#aaa" stroke-opacity="0.5"></path><path d="M304.5156 86.3165L172.4965 218.3766" fill="none" stroke="#aaa" stroke-opacity="0.5"></path><path d="M171.2822 30.6866L249.7546 218.3836" fill="none" stroke="#aaa" stroke-opacity="0.5"></path><path d="M249.629 32.1382L172.4965 218.3766" fill="none" stroke="#aaa" stroke-opacity="0.5"></path><path d="M118.7676 86.8617L304.6715 163.3454" fill="none" stroke="#aaa" stroke-opacity="0.5"></path><path d="M304.5156 86.3165L249.629 32.1382" fill="none" stroke="#aaa" stroke-opacity="0.5"></path><path d="M304.6715 163.3454L249.7546 218.3836" fill="none" stroke="#aaa" stroke-opacity="0.5"></path><path d="M249.629 32.1382L171.2822 30.6866" fill="none" stroke="#aaa" stroke-opacity="0.5"></path><path d="M304.5156 86.3165L118.7676 86.8617" fill="none" stroke="#aaa" stroke-opacity="0.5"></path><path d="M249.629 32.1382L118.7676 86.8617" fill="none" stroke="#aaa" stroke-opacity="0.5"></path><path d="M171.2822 30.6866L172.4965 218.3766" fill="none" stroke="#aaa" stroke-opacity="0.5"></path><path d="M304.6715 163.3454L117.8899 163.8914" fill="none" stroke="#aaa" stroke-opacity="0.5"></path><path d="M1 0A1 1 0 1 1 1 -0.0001" fill="#5470c6" transform="matrix(19,0,0,19,304.6715,163.3454)"></path><path d="M1 0A1 1 0 1 1 1 -0.0001" fill="#5470c6" transform="matrix(19,0,0,19,249.7546,218.3836)"></path><path d="M1 0A1 1 0 1 1 1 -0.0001" fill="#5470c6" transform="matrix(19,0,0,19,172.4965,218.3766)"></path><path d="M1 0A1 1 0 1 1 1 -0.0001" fill="#5470c6" transform="matrix(19,0,0,19,117.8899,163.8914)"></path><path d="M1 0A1 1 0 1 1 1 -0.0001" fill="#5470c6" transform="matrix(19,0,0,19,118.7676,86.8617)"></path><path d="M1 0A1 1 0 1 1 1 -0.0001" fill="#5470c6" transform="matrix(19,0,0,19,171.2822,30.6866)"></path><path d="M1 0A1 1 0 1 1 1 -0.0001" fill="#5470c6" transform="matrix(19,0,0,19,249.629,32.1382)"></path><path d="M1 0A1 1 0 1 1 1 -0.0001" fill="#5470c6" transform="matrix(19,0,0,19,304.5156,86.3165)"></path><path d="M-32.4922 -5l64.9844 0l0 33l-64.9844 0Z" fill="rgb(0,0,0)" fill-opacity="0" stroke="#ccc" stroke-width="0" transform="translate(237.5 5)"></path><text dominant-baseline="central" fill="#333" style="font-size:23px;font-family:sans-serif;font-weight:bolder;" text-anchor="middle" transform="translate(237.5 5)" y="11.5">C227</text></g></svg>