<svg baseprofile="full" height="250" style="position:absolute;left:0;top:0;user-select:none" version="1.1" width="475" xmlns="http://www.w3.org/2000/svg" xmlns:xlink="http://www.w3.org/1999/xlink"><rect fill="none" height="250" id="0" width="475" x="0" y="0"></rect><g><path d="M305.1093 171.6546L233.4511 227.0554" fill="none" stroke="#aaa" stroke-opacity="0.5"></path><path d="M106.0192 123.4638L147.1949 43.6366" fill="none" stroke="#aaa" stroke-opacity="0.5"></path><path d="M235.3625 23.3094L304.9975 80.4164" fill="none" stroke="#aaa" stroke-opacity="0.5"></path><path d="M305.1093 171.6546L147.1949 43.6366" fill="none" stroke="#aaa" stroke-opacity="0.5"></path><path d="M305.1093 171.6546L235.3625 23.3094" fill="none" stroke="#aaa" stroke-opacity="0.5"></path><path d="M235.3625 23.3094L147.1949 43.6366" fill="none" stroke="#aaa" stroke-opacity="0.5"></path><path d="M106.0192 123.4638L305.1093 171.6546" fill="none" stroke="#aaa" stroke-opacity="0.5"></path><path d="M106.0192 123.4638L233.4511 227.0554" fill="none" stroke="#aaa" stroke-opacity="0.5"></path><path d="M233.4511 227.0554L145.7466 205.4638" fill="none" stroke="#aaa" stroke-opacity="0.5"></path><path d="M106.0192 123.4638L145.7466 205.4638" fill="none" stroke="#aaa" stroke-opacity="0.5"></path><path d="M304.9975 80.4164L147.1949 43.6366" fill="none" stroke="#aaa" stroke-opacity="0.5"></path><path d="M106.0192 123.4638L235.3625 23.3094" fill="none" stroke="#aaa" stroke-opacity="0.5"></path><path d="M233.4511 227.0554L304.9975 80.4164" fill="none" stroke="#aaa" stroke-opacity="0.5"></path><path d="M304.9975 80.4164L145.7466 205.4638" fill="none" stroke="#aaa" stroke-opacity="0.5"></path><path d="M305.1093 171.6546L145.7466 205.4638" fill="none" stroke="#aaa" stroke-opacity="0.5"></path><path d="M147.1949 43.6366L145.7466 205.4638" fill="none" stroke="#aaa" stroke-opacity="0.5"></path><path d="M235.3625 23.3094L145.7466 205.4638" fill="none" stroke="#aaa" stroke-opacity="0.5"></path><path d="M233.4511 227.0554L147.1949 43.6366" fill="none" stroke="#aaa" stroke-opacity="0.5"></path><path d="M106.0192 123.4638L304.9975 80.4164" fill="none" stroke="#aaa" stroke-opacity="0.5"></path><path d="M233.4511 227.0554L235.3625 23.3094" fill="none" stroke="#aaa" stroke-opacity="0.5"></path><path d="M305.5 171.6546L305.5 80.4164" fill="none" stroke="#aaa" stroke-opacity="0.5"></path><path d="M1 0A1 1 0 1 1 1 -0.0001" fill="#5470c6" transform="matrix(19,0,0,19,305.1093,171.6546)"></path><path d="M1 0A1 1 0 1 1 1 -0.0001" fill="#5470c6" transform="matrix(19,0,0,19,233.4511,227.0554)"></path><path d="M1 0A1 1 0 1 1 1 -0.0001" fill="#5470c6" transform="matrix(19,0,0,19,145.7466,205.4638)"></path><path d="M1 0A1 1 0 1 1 1 -0.0001" fill="#5470c6" transform="matrix(19,0,0,19,106.0192,123.4638)"></path><path d="M1 0A1 1 0 1 1 1 -0.0001" fill="#5470c6" transform="matrix(19,0,0,19,147.1949,43.6366)"></path><path d="M1 0A1 1 0 1 1 1 -0.0001" fill="#5470c6" transform="matrix(19,0,0,19,235.3625,23.3094)"></path><path d="M1 0A1 1 0 1 1 1 -0.0001" fill="#5470c6" transform="matrix(19,0,0,19,304.9975,80.4164)"></path><path d="M-32.4922 -5l64.9844 0l0 33l-64.9844 0Z" fill="rgb(0,0,0)" fill-opacity="0" stroke="#ccc" stroke-width="0" transform="translate(237.5 5)"></path><text dominant-baseline="central" fill="#333" style="font-size:23px;font-family:sans-serif;font-weight:bolder;" text-anchor="middle" transform="translate(237.5 5)" y="11.5">C228</text></g></svg>