<svg baseprofile="full" height="250" style="position:absolute;left:0;top:0;user-select:none" version="1.1" width="475" xmlns="http://www.w3.org/2000/svg" xmlns:xlink="http://www.w3.org/1999/xlink"><rect fill="none" height="250" id="0" width="475" x="0" y="0"></rect><g><path d="M146.6107 43.6027L233.9682 22.5987" fill="none" stroke="#aaa" stroke-opacity="0.5"></path><path d="M146.3126 206.7189L233.9682 22.5987" fill="none" stroke="#aaa" stroke-opacity="0.5"></path><path d="M105.9563 124.8577L234.3735 226.8038" fill="none" stroke="#aaa" stroke-opacity="0.5"></path><path d="M105.9563 124.8577L233.9682 22.5987" fill="none" stroke="#aaa" stroke-opacity="0.5"></path><path d="M234.3735 226.8038L233.9682 22.5987" fill="none" stroke="#aaa" stroke-opacity="0.5"></path><path d="M305.208 79.6628L146.6107 43.6027" fill="none" stroke="#aaa" stroke-opacity="0.5"></path><path d="M305.4519 170.7555L234.3735 226.8038" fill="none" stroke="#aaa" stroke-opacity="0.5"></path><path d="M305.4519 170.7555L233.9682 22.5987" fill="none" stroke="#aaa" stroke-opacity="0.5"></path><path d="M146.5 43.6027L146.5 206.7189" fill="none" stroke="#aaa" stroke-opacity="0.5"></path><path d="M234.3735 226.8038L146.3126 206.7189" fill="none" stroke="#aaa" stroke-opacity="0.5"></path><path d="M305.4519 170.7555L146.6107 43.6027" fill="none" stroke="#aaa" stroke-opacity="0.5"></path><path d="M305.4519 170.7555L105.9563 124.8577" fill="none" stroke="#aaa" stroke-opacity="0.5"></path><path d="M146.6107 43.6027L234.3735 226.8038" fill="none" stroke="#aaa" stroke-opacity="0.5"></path><path d="M305.208 79.6628L146.3126 206.7189" fill="none" stroke="#aaa" stroke-opacity="0.5"></path><path d="M105.9563 124.8577L305.208 79.6628" fill="none" stroke="#aaa" stroke-opacity="0.5"></path><path d="M105.9563 124.8577L146.6107 43.6027" fill="none" stroke="#aaa" stroke-opacity="0.5"></path><path d="M105.9563 124.8577L146.3126 206.7189" fill="none" stroke="#aaa" stroke-opacity="0.5"></path><path d="M305.4519 170.7555L305.208 79.6628" fill="none" stroke="#aaa" stroke-opacity="0.5"></path><path d="M305.208 79.6628L234.3735 226.8038" fill="none" stroke="#aaa" stroke-opacity="0.5"></path><path d="M305.4519 170.7555L146.3126 206.7189" fill="none" stroke="#aaa" stroke-opacity="0.5"></path><path d="M305.208 79.6628L233.9682 22.5987" fill="none" stroke="#aaa" stroke-opacity="0.5"></path><path d="M1 0A1 1 0 1 1 1 -0.0001" fill="#5470c6" transform="matrix(19,0,0,19,305.4519,170.7555)"></path><path d="M1 0A1 1 0 1 1 1 -0.0001" fill="#5470c6" transform="matrix(19,0,0,19,234.3735,226.8038)"></path><path d="M1 0A1 1 0 1 1 1 -0.0001" fill="#5470c6" transform="matrix(19,0,0,19,146.3126,206.7189)"></path><path d="M1 0A1 1 0 1 1 1 -0.0001" fill="#5470c6" transform="matrix(19,0,0,19,105.9563,124.8577)"></path><path d="M1 0A1 1 0 1 1 1 -0.0001" fill="#5470c6" transform="matrix(19,0,0,19,146.6107,43.6027)"></path><path d="M1 0A1 1 0 1 1 1 -0.0001" fill="#5470c6" transform="matrix(19,0,0,19,233.9682,22.5987)"></path><path d="M1 0A1 1 0 1 1 1 -0.0001" fill="#5470c6" transform="matrix(19,0,0,19,305.208,79.6628)"></path><path d="M-32.4922 -5l64.9844 0l0 33l-64.9844 0Z" fill="rgb(0,0,0)" fill-opacity="0" stroke="#ccc" stroke-width="0" transform="translate(237.5 5)"></path><text dominant-baseline="central" fill="#333" style="font-size:23px;font-family:sans-serif;font-weight:bolder;" text-anchor="middle" transform="translate(237.5 5)" y="11.5">C229</text></g></svg>