<svg baseprofile="full" height="250" style="position:absolute;left:0;top:0;user-select:none" version="1.1" width="475" xmlns="http://www.w3.org/2000/svg" xmlns:xlink="http://www.w3.org/1999/xlink"><rect fill="none" height="250" id="0" width="475" x="0" y="0"></rect><g><path d="M277.1805 198.3753L237.0147 218.7134" fill="none" stroke="#aaa" stroke-opacity="0.5" stroke-width="0.5"></path><path d="M112.0413 112.5917L237.0147 218.7134" fill="none" stroke="#aaa" stroke-opacity="0.5" stroke-width="0.5"></path><path d="M209.8352 28.7699L252.9405 36.2488" fill="none" stroke="#aaa" stroke-opacity="0.5" stroke-width="0.5"></path><path d="M161.9248 131.3298L306.3285 157.3729" fill="none" stroke="#aaa" stroke-opacity="0.5" stroke-width="0.5"></path><path d="M164.3275 36.5914L188.4677 223.5053" fill="none" stroke="#aaa" stroke-opacity="0.5" stroke-width="0.5"></path><path d="M188.4677 223.5053L118.8864 162.5841" fill="none" stroke="#aaa" stroke-opacity="0.5" stroke-width="0.5"></path><path d="M188.4677 223.5053L131.2954 70.0355" fill="none" stroke="#aaa" stroke-opacity="0.5" stroke-width="0.5"></path><path d="M164.3275 36.5914L202.9714 171.4412" fill="none" stroke="#aaa" stroke-opacity="0.5" stroke-width="0.5"></path><path d="M190.8919 85.61L307.57 110.4988" fill="none" stroke="#aaa" stroke-opacity="0.5" stroke-width="0.5"></path><path d="M190.8919 85.61L161.9248 131.3298" fill="none" stroke="#aaa" stroke-opacity="0.5" stroke-width="0.5"></path><path d="M161.9248 131.3298L202.9714 171.4412" fill="none" stroke="#aaa" stroke-opacity="0.5" stroke-width="0.5"></path><path d="M209.8352 28.7699L306.3285 157.3729" fill="none" stroke="#aaa" stroke-opacity="0.5" stroke-width="0.5"></path><path d="M190.8919 85.61L253.3409 147.6323" fill="none" stroke="#aaa" stroke-opacity="0.5" stroke-width="0.5"></path><path d="M164.3275 36.5914L209.8352 28.7699" fill="none" stroke="#aaa" stroke-opacity="0.5" stroke-width="0.5"></path><path d="M161.9248 131.3298L245.3481 93.0645" fill="none" stroke="#aaa" stroke-opacity="0.5" stroke-width="0.5"></path><path d="M161.9248 131.3298L209.8352 28.7699" fill="none" stroke="#aaa" stroke-opacity="0.5" stroke-width="0.5"></path><path d="M161.9248 131.3298L277.1805 198.3753" fill="none" stroke="#aaa" stroke-opacity="0.5" stroke-width="0.5"></path><path d="M148.1863 199.1863L307.57 110.4988" fill="none" stroke="#aaa" stroke-opacity="0.5" stroke-width="0.5"></path><path d="M253.3409 147.6323L291.7149 66.4488" fill="none" stroke="#aaa" stroke-opacity="0.5" stroke-width="0.5"></path><path d="M307.57 110.4988L306.3285 157.3729" fill="none" stroke="#aaa" stroke-opacity="0.5" stroke-width="0.5"></path><path d="M291.7149 66.4488L188.4677 223.5053" fill="none" stroke="#aaa" stroke-opacity="0.5" stroke-width="0.5"></path><path d="M161.9248 131.3298L164.3275 36.5914" fill="none" stroke="#aaa" stroke-opacity="0.5" stroke-width="0.5"></path><path d="M253.3409 147.6323L237.0147 218.7134" fill="none" stroke="#aaa" stroke-opacity="0.5" stroke-width="0.5"></path><path d="M190.8919 85.61L306.3285 157.3729" fill="none" stroke="#aaa" stroke-opacity="0.5" stroke-width="0.5"></path><path d="M148.1863 199.1863L253.3409 147.6323" fill="none" stroke="#aaa" stroke-opacity="0.5" stroke-width="0.5"></path><path d="M202.9714 171.4412L131.2954 70.0355" fill="none" stroke="#aaa" stroke-opacity="0.5" stroke-width="0.5"></path><path d="M291.7149 66.4488L202.9714 171.4412" fill="none" stroke="#aaa" stroke-opacity="0.5" stroke-width="0.5"></path><path d="M209.8352 28.7699L245.3481 93.0645" fill="none" stroke="#aaa" stroke-opacity="0.5" stroke-width="0.5"></path><path d="M307.57 110.4988L202.9714 171.4412" fill="none" stroke="#aaa" stroke-opacity="0.5" stroke-width="0.5"></path><path d="M164.3275 36.5914L118.8864 162.5841" fill="none" stroke="#aaa" stroke-opacity="0.5" stroke-width="0.5"></path><path d="M188.4677 223.5053L252.9405 36.2488" fill="none" stroke="#aaa" stroke-opacity="0.5" stroke-width="0.5"></path><path d="M148.1863 199.1863L306.3285 157.3729" fill="none" stroke="#aaa" stroke-opacity="0.5" stroke-width="0.5"></path><path d="M164.3275 36.5914L131.2954 70.0355" fill="none" stroke="#aaa" stroke-opacity="0.5" stroke-width="0.5"></path><path d="M190.8919 85.61L202.9714 171.4412" fill="none" stroke="#aaa" stroke-opacity="0.5" stroke-width="0.5"></path><path d="M277.1805 198.3753L252.9405 36.2488" fill="none" stroke="#aaa" stroke-opacity="0.5" stroke-width="0.5"></path><path d="M161.9248 131.3298L131.2954 70.0355" fill="none" stroke="#aaa" stroke-opacity="0.5" stroke-width="0.5"></path><path d="M307.57 110.4988L245.3481 93.0645" fill="none" stroke="#aaa" stroke-opacity="0.5" stroke-width="0.5"></path><path d="M148.1863 199.1863L188.4677 223.5053" fill="none" stroke="#aaa" stroke-opacity="0.5" stroke-width="0.5"></path><path d="M307.57 110.4988L209.8352 28.7699" fill="none" stroke="#aaa" stroke-opacity="0.5" stroke-width="0.5"></path><path d="M253.3409 147.6323L118.8864 162.5841" fill="none" stroke="#aaa" stroke-opacity="0.5" stroke-width="0.5"></path><path d="M237.0147 218.7134L118.8864 162.5841" fill="none" stroke="#aaa" stroke-opacity="0.5" stroke-width="0.5"></path><path d="M190.8919 85.61L245.3481 93.0645" fill="none" stroke="#aaa" stroke-opacity="0.5" stroke-width="0.5"></path><path d="M291.7149 66.4488L164.3275 36.5914" fill="none" stroke="#aaa" stroke-opacity="0.5" stroke-width="0.5"></path><path d="M190.8919 85.61L209.8352 28.7699" fill="none" stroke="#aaa" stroke-opacity="0.5" stroke-width="0.5"></path><path d="M209.8352 28.7699L237.0147 218.7134" fill="none" stroke="#aaa" stroke-opacity="0.5" stroke-width="0.5"></path><path d="M307.57 110.4988L164.3275 36.5914" fill="none" stroke="#aaa" stroke-opacity="0.5" stroke-width="0.5"></path><path d="M190.8919 85.61L277.1805 198.3753" fill="none" stroke="#aaa" stroke-opacity="0.5" stroke-width="0.5"></path><path d="M148.1863 199.1863L202.9714 171.4412" fill="none" stroke="#aaa" stroke-opacity="0.5" stroke-width="0.5"></path><path d="M307.57 110.4988L291.7149 66.4488" fill="none" stroke="#aaa" stroke-opacity="0.5" stroke-width="0.5"></path><path d="M148.1863 199.1863L190.8919 85.61" fill="none" stroke="#aaa" stroke-opacity="0.5" stroke-width="0.5"></path><path d="M190.8919 85.61L164.3275 36.5914" fill="none" stroke="#aaa" stroke-opacity="0.5" stroke-width="0.5"></path><path d="M188.4677 223.5053L306.3285 157.3729" fill="none" stroke="#aaa" stroke-opacity="0.5" stroke-width="0.5"></path><path d="M131.2954 70.0355L252.9405 36.2488" fill="none" stroke="#aaa" stroke-opacity="0.5" stroke-width="0.5"></path><path d="M307.57 110.4988L237.0147 218.7134" fill="none" stroke="#aaa" stroke-opacity="0.5" stroke-width="0.5"></path><path d="M112.0413 112.5917L253.3409 147.6323" fill="none" stroke="#aaa" stroke-opacity="0.5" stroke-width="0.5"></path><path d="M190.8919 85.61L291.7149 66.4488" fill="none" stroke="#aaa" stroke-opacity="0.5" stroke-width="0.5"></path><path d="M148.1863 199.1863L245.3481 93.0645" fill="none" stroke="#aaa" stroke-opacity="0.5" stroke-width="0.5"></path><path d="M148.1863 199.1863L209.8352 28.7699" fill="none" stroke="#aaa" stroke-opacity="0.5" stroke-width="0.5"></path><path d="M148.1863 199.1863L277.1805 198.3753" fill="none" stroke="#aaa" stroke-opacity="0.5" stroke-width="0.5"></path><path d="M190.8919 85.61L237.0147 218.7134" fill="none" stroke="#aaa" stroke-opacity="0.5" stroke-width="0.5"></path><path d="M291.7149 66.4488L118.8864 162.5841" fill="none" stroke="#aaa" stroke-opacity="0.5" stroke-width="0.5"></path><path d="M291.7149 66.4488L131.2954 70.0355" fill="none" stroke="#aaa" stroke-opacity="0.5" stroke-width="0.5"></path><path d="M148.1863 199.1863L164.3275 36.5914" fill="none" stroke="#aaa" stroke-opacity="0.5" stroke-width="0.5"></path><path d="M202.9714 171.4412L252.9405 36.2488" fill="none" stroke="#aaa" stroke-opacity="0.5" stroke-width="0.5"></path><path d="M190.8919 85.61L131.2954 70.0355" fill="none" stroke="#aaa" stroke-opacity="0.5" stroke-width="0.5"></path><path d="M277.1805 198.3753L188.4677 223.5053" fill="none" stroke="#aaa" stroke-opacity="0.5" stroke-width="0.5"></path><path d="M131.2954 70.0355L306.3285 157.3729" fill="none" stroke="#aaa" stroke-opacity="0.5" stroke-width="0.5"></path><path d="M112.0413 112.5917L188.4677 223.5053" fill="none" stroke="#aaa" stroke-opacity="0.5" stroke-width="0.5"></path><path d="M188.4677 223.5053L245.3481 93.0645" fill="none" stroke="#aaa" stroke-opacity="0.5" stroke-width="0.5"></path><path d="M164.3275 36.5914L252.9405 36.2488" fill="none" stroke="#aaa" stroke-opacity="0.5" stroke-width="0.5"></path><path d="M245.3481 93.0645L131.2954 70.0355" fill="none" stroke="#aaa" stroke-opacity="0.5" stroke-width="0.5"></path><path d="M161.9248 131.3298L252.9405 36.2488" fill="none" stroke="#aaa" stroke-opacity="0.5" stroke-width="0.5"></path><path d="M277.1805 198.3753L202.9714 171.4412" fill="none" stroke="#aaa" stroke-opacity="0.5" stroke-width="0.5"></path><path d="M112.0413 112.5917L202.9714 171.4412" fill="none" stroke="#aaa" stroke-opacity="0.5" stroke-width="0.5"></path><path d="M253.3409 147.6323L307.57 110.4988" fill="none" stroke="#aaa" stroke-opacity="0.5" stroke-width="0.5"></path><path d="M112.0413 112.5917L190.8919 85.61" fill="none" stroke="#aaa" stroke-opacity="0.5" stroke-width="0.5"></path><path d="M148.1863 199.1863L131.2954 70.0355" fill="none" stroke="#aaa" stroke-opacity="0.5" stroke-width="0.5"></path><path d="M202.9714 171.4412L306.3285 157.3729" fill="none" stroke="#aaa" stroke-opacity="0.5" stroke-width="0.5"></path><path d="M188.4677 223.5053L237.0147 218.7134" fill="none" stroke="#aaa" stroke-opacity="0.5" stroke-width="0.5"></path><path d="M164.3275 36.5914L306.3285 157.3729" fill="none" stroke="#aaa" stroke-opacity="0.5" stroke-width="0.5"></path><path d="M277.1805 198.3753L164.3275 36.5914" fill="none" stroke="#aaa" stroke-opacity="0.5" stroke-width="0.5"></path><path d="M112.0413 112.5917L164.3275 36.5914" fill="none" stroke="#aaa" stroke-opacity="0.5" stroke-width="0.5"></path><path d="M253.3409 147.6323L306.3285 157.3729" fill="none" stroke="#aaa" stroke-opacity="0.5" stroke-width="0.5"></path><path d="M291.7149 66.4488L252.9405 36.2488" fill="none" stroke="#aaa" stroke-opacity="0.5" stroke-width="0.5"></path><path d="M237.0147 218.7134L306.3285 157.3729" fill="none" stroke="#aaa" stroke-opacity="0.5" stroke-width="0.5"></path><path d="M253.3409 147.6323L188.4677 223.5053" fill="none" stroke="#aaa" stroke-opacity="0.5" stroke-width="0.5"></path><path d="M307.57 110.4988L252.9405 36.2488" fill="none" stroke="#aaa" stroke-opacity="0.5" stroke-width="0.5"></path><path d="M202.9714 171.4412L245.3481 93.0645" fill="none" stroke="#aaa" stroke-opacity="0.5" stroke-width="0.5"></path><path d="M190.8919 85.61L252.9405 36.2488" fill="none" stroke="#aaa" stroke-opacity="0.5" stroke-width="0.5"></path><path d="M118.8864 162.5841L306.3285 157.3729" fill="none" stroke="#aaa" stroke-opacity="0.5" stroke-width="0.5"></path><path d="M277.1805 198.3753L118.8864 162.5841" fill="none" stroke="#aaa" stroke-opacity="0.5" stroke-width="0.5"></path><path d="M161.9248 131.3298L188.4677 223.5053" fill="none" stroke="#aaa" stroke-opacity="0.5" stroke-width="0.5"></path><path d="M112.0413 112.5917L118.8864 162.5841" fill="none" stroke="#aaa" stroke-opacity="0.5" stroke-width="0.5"></path><path d="M253.3409 147.6323L202.9714 171.4412" fill="none" stroke="#aaa" stroke-opacity="0.5" stroke-width="0.5"></path><path d="M277.1805 198.3753L131.2954 70.0355" fill="none" stroke="#aaa" stroke-opacity="0.5" stroke-width="0.5"></path><path d="M112.0413 112.5917L131.2954 70.0355" fill="none" stroke="#aaa" stroke-opacity="0.5" stroke-width="0.5"></path><path d="M164.3275 36.5914L245.3481 93.0645" fill="none" stroke="#aaa" stroke-opacity="0.5" stroke-width="0.5"></path><path d="M237.0147 218.7134L202.9714 171.4412" fill="none" stroke="#aaa" stroke-opacity="0.5" stroke-width="0.5"></path><path d="M245.3481 93.0645L252.9405 36.2488" fill="none" stroke="#aaa" stroke-opacity="0.5" stroke-width="0.5"></path><path d="M291.7149 66.4488L306.3285 157.3729" fill="none" stroke="#aaa" stroke-opacity="0.5" stroke-width="0.5"></path><path d="M148.1863 199.1863L161.9248 131.3298" fill="none" stroke="#aaa" stroke-opacity="0.5" stroke-width="0.5"></path><path d="M253.3409 147.6323L245.3481 93.0645" fill="none" stroke="#aaa" stroke-opacity="0.5" stroke-width="0.5"></path><path d="M148.1863 199.1863L252.9405 36.2488" fill="none" stroke="#aaa" stroke-opacity="0.5" stroke-width="0.5"></path><path d="M253.3409 147.6323L209.8352 28.7699" fill="none" stroke="#aaa" stroke-opacity="0.5" stroke-width="0.5"></path><path d="M253.3409 147.6323L277.1805 198.3753" fill="none" stroke="#aaa" stroke-opacity="0.5" stroke-width="0.5"></path><path d="M118.8864 162.5841L202.9714 171.4412" fill="none" stroke="#aaa" stroke-opacity="0.5" stroke-width="0.5"></path><path d="M237.0147 218.7134L245.3481 93.0645" fill="none" stroke="#aaa" stroke-opacity="0.5" stroke-width="0.5"></path><path d="M253.3409 147.6323L164.3275 36.5914" fill="none" stroke="#aaa" stroke-opacity="0.5" stroke-width="0.5"></path><path d="M161.9248 131.3298L291.7149 66.4488" fill="none" stroke="#aaa" stroke-opacity="0.5" stroke-width="0.5"></path><path d="M164.3275 36.5914L237.0147 218.7134" fill="none" stroke="#aaa" stroke-opacity="0.5" stroke-width="0.5"></path><path d="M118.8864 162.5841L245.3481 93.0645" fill="none" stroke="#aaa" stroke-opacity="0.5" stroke-width="0.5"></path><path d="M161.9248 131.3298L237.0147 218.7134" fill="none" stroke="#aaa" stroke-opacity="0.5" stroke-width="0.5"></path><path d="M245.3481 93.0645L306.3285 157.3729" fill="none" stroke="#aaa" stroke-opacity="0.5" stroke-width="0.5"></path><path d="M307.57 110.4988L188.4677 223.5053" fill="none" stroke="#aaa" stroke-opacity="0.5" stroke-width="0.5"></path><path d="M209.8352 28.7699L202.9714 171.4412" fill="none" stroke="#aaa" stroke-opacity="0.5" stroke-width="0.5"></path><path d="M306.3285 157.3729L252.9405 36.2488" fill="none" stroke="#aaa" stroke-opacity="0.5" stroke-width="0.5"></path><path d="M291.7149 66.4488L245.3481 93.0645" fill="none" stroke="#aaa" stroke-opacity="0.5" stroke-width="0.5"></path><path d="M190.8919 85.61L188.4677 223.5053" fill="none" stroke="#aaa" stroke-opacity="0.5" stroke-width="0.5"></path><path d="M291.7149 66.4488L209.8352 28.7699" fill="none" stroke="#aaa" stroke-opacity="0.5" stroke-width="0.5"></path><path d="M253.3409 147.6323L131.2954 70.0355" fill="none" stroke="#aaa" stroke-opacity="0.5" stroke-width="0.5"></path><path d="M237.0147 218.7134L131.2954 70.0355" fill="none" stroke="#aaa" stroke-opacity="0.5" stroke-width="0.5"></path><path d="M277.1805 198.3753L307.57 110.4988" fill="none" stroke="#aaa" stroke-opacity="0.5" stroke-width="0.5"></path><path d="M161.9248 131.3298L118.8864 162.5841" fill="none" stroke="#aaa" stroke-opacity="0.5" stroke-width="0.5"></path><path d="M112.0413 112.5917L307.57 110.4988" fill="none" stroke="#aaa" stroke-opacity="0.5" stroke-width="0.5"></path><path d="M112.0413 112.5917L161.9248 131.3298" fill="none" stroke="#aaa" stroke-opacity="0.5" stroke-width="0.5"></path><path d="M112.0413 112.5917L252.9405 36.2488" fill="none" stroke="#aaa" stroke-opacity="0.5" stroke-width="0.5"></path><path d="M291.7149 66.4488L237.0147 218.7134" fill="none" stroke="#aaa" stroke-opacity="0.5" stroke-width="0.5"></path><path d="M118.8864 162.5841L131.2954 70.0355" fill="none" stroke="#aaa" stroke-opacity="0.5" stroke-width="0.5"></path><path d="M209.8352 28.7699L118.8864 162.5841" fill="none" stroke="#aaa" stroke-opacity="0.5" stroke-width="0.5"></path><path d="M277.1805 198.3753L306.3285 157.3729" fill="none" stroke="#aaa" stroke-opacity="0.5" stroke-width="0.5"></path><path d="M209.8352 28.7699L131.2954 70.0355" fill="none" stroke="#aaa" stroke-opacity="0.5" stroke-width="0.5"></path><path d="M112.0413 112.5917L306.3285 157.3729" fill="none" stroke="#aaa" stroke-opacity="0.5" stroke-width="0.5"></path><path d="M148.1863 199.1863L291.7149 66.4488" fill="none" stroke="#aaa" stroke-opacity="0.5" stroke-width="0.5"></path><path d="M148.1863 199.1863L237.0147 218.7134" fill="none" stroke="#aaa" stroke-opacity="0.5" stroke-width="0.5"></path><path d="M307.57 110.4988L118.8864 162.5841" fill="none" stroke="#aaa" stroke-opacity="0.5" stroke-width="0.5"></path><path d="M307.57 110.4988L131.2954 70.0355" fill="none" stroke="#aaa" stroke-opacity="0.5" stroke-width="0.5"></path><path d="M188.4677 223.5053L202.9714 171.4412" fill="none" stroke="#aaa" stroke-opacity="0.5" stroke-width="0.5"></path><path d="M190.8919 85.61L118.8864 162.5841" fill="none" stroke="#aaa" stroke-opacity="0.5" stroke-width="0.5"></path><path d="M253.3409 147.6323L161.9248 131.3298" fill="none" stroke="#aaa" stroke-opacity="0.5" stroke-width="0.5"></path><path d="M253.3409 147.6323L252.9405 36.2488" fill="none" stroke="#aaa" stroke-opacity="0.5" stroke-width="0.5"></path><path d="M237.0147 218.7134L252.9405 36.2488" fill="none" stroke="#aaa" stroke-opacity="0.5" stroke-width="0.5"></path><path d="M188.4677 223.5053L209.8352 28.7699" fill="none" stroke="#aaa" stroke-opacity="0.5" stroke-width="0.5"></path><path d="M277.1805 198.3753L245.3481 93.0645" fill="none" stroke="#aaa" stroke-opacity="0.5" stroke-width="0.5"></path><path d="M161.9248 131.3298L307.57 110.4988" fill="none" stroke="#aaa" stroke-opacity="0.5" stroke-width="0.5"></path><path d="M277.1805 198.3753L209.8352 28.7699" fill="none" stroke="#aaa" stroke-opacity="0.5" stroke-width="0.5"></path><path d="M112.0413 112.5917L245.3481 93.0645" fill="none" stroke="#aaa" stroke-opacity="0.5" stroke-width="0.5"></path><path d="M112.0413 112.5917L209.8352 28.7699" fill="none" stroke="#aaa" stroke-opacity="0.5" stroke-width="0.5"></path><path d="M112.0413 112.5917L277.1805 198.3753" fill="none" stroke="#aaa" stroke-opacity="0.5" stroke-width="0.5"></path><path d="M148.1863 199.1863L118.8864 162.5841" fill="none" stroke="#aaa" stroke-opacity="0.5" stroke-width="0.5"></path><path d="M112.0413 112.5917L148.1863 199.1863" fill="none" stroke="#aaa" stroke-opacity="0.5" stroke-width="0.5"></path><path d="M118.8864 162.5841L252.9405 36.2488" fill="none" stroke="#aaa" stroke-opacity="0.5" stroke-width="0.5"></path><path d="M277.1805 198.3753L291.7149 66.4488" fill="none" stroke="#aaa" stroke-opacity="0.5" stroke-width="0.5"></path><path d="M112.0413 112.5917L291.7149 66.4488" fill="none" stroke="#aaa" stroke-opacity="0.5" stroke-width="0.5"></path><path d="M1 0A1 1 0 1 1 1 -0.0001" fill="#5470c6" transform="matrix(18,0,0,18,253.3409,147.6323)"></path><path d="M1 0A1 1 0 1 1 1 -0.0001" fill="#5470c6" transform="matrix(18,0,0,18,306.3285,157.3729)"></path><path d="M1 0A1 1 0 1 1 1 -0.0001" fill="#5470c6" transform="matrix(18,0,0,18,202.9714,171.4412)"></path><path d="M1 0A1 1 0 1 1 1 -0.0001" fill="#5470c6" transform="matrix(18,0,0,18,277.1805,198.3753)"></path><path d="M1 0A1 1 0 1 1 1 -0.0001" fill="#5470c6" transform="matrix(18,0,0,18,237.0147,218.7134)"></path><path d="M1 0A1 1 0 1 1 1 -0.0001" fill="#5470c6" transform="matrix(18,0,0,18,188.4677,223.5053)"></path><path d="M1 0A1 1 0 1 1 1 -0.0001" fill="#5470c6" transform="matrix(18,0,0,18,161.9248,131.3298)"></path><path d="M1 0A1 1 0 1 1 1 -0.0001" fill="#5470c6" transform="matrix(18,0,0,18,148.1863,199.1863)"></path><path d="M1 0A1 1 0 1 1 1 -0.0001" fill="#5470c6" transform="matrix(18,0,0,18,118.8864,162.5841)"></path><path d="M1 0A1 1 0 1 1 1 -0.0001" fill="#5470c6" transform="matrix(18,0,0,18,112.0413,112.5917)"></path><path d="M1 0A1 1 0 1 1 1 -0.0001" fill="#5470c6" transform="matrix(18,0,0,18,131.2954,70.0355)"></path><path d="M1 0A1 1 0 1 1 1 -0.0001" fill="#5470c6" transform="matrix(18,0,0,18,164.3275,36.5914)"></path><path d="M1 0A1 1 0 1 1 1 -0.0001" fill="#5470c6" transform="matrix(18,0,0,18,190.8919,85.61)"></path><path d="M1 0A1 1 0 1 1 1 -0.0001" fill="#5470c6" transform="matrix(18,0,0,18,209.8352,28.7699)"></path><path d="M1 0A1 1 0 1 1 1 -0.0001" fill="#5470c6" transform="matrix(18,0,0,18,252.9405,36.2488)"></path><path d="M1 0A1 1 0 1 1 1 -0.0001" fill="#5470c6" transform="matrix(18,0,0,18,245.3481,93.0645)"></path><path d="M1 0A1 1 0 1 1 1 -0.0001" fill="#5470c6" transform="matrix(18,0,0,18,291.7149,66.4488)"></path><path d="M1 0A1 1 0 1 1 1 -0.0001" fill="#5470c6" transform="matrix(18,0,0,18,307.57,110.4988)"></path><path d="M-26.0964 -5l52.1929 0l0 33l-52.1929 0Z" fill="rgb(0,0,0)" fill-opacity="0" stroke="#ccc" stroke-width="0" transform="translate(237.5 5)"></path><text dominant-baseline="central" fill="#333" style="font-size:23px;font-family:sans-serif;font-weight:bolder;" text-anchor="middle" transform="translate(237.5 5)" y="11.5">C23</text></g></svg>