<svg baseprofile="full" height="250" style="position:absolute;left:0;top:0;user-select:none" version="1.1" width="475" xmlns="http://www.w3.org/2000/svg" xmlns:xlink="http://www.w3.org/1999/xlink"><rect fill="none" height="250" id="0" width="475" x="0" y="0"></rect><g><path d="M305.7654 170.6595L146.0159 43.6075" fill="none" stroke="#aaa" stroke-opacity="0.5"></path><path d="M304.7866 79.4917L234.5717 23.1793" fill="none" stroke="#aaa" stroke-opacity="0.5"></path><path d="M304.7866 79.4917L234.4148 227.0345" fill="none" stroke="#aaa" stroke-opacity="0.5"></path><path d="M106.0711 124.6785L304.7866 79.4917" fill="none" stroke="#aaa" stroke-opacity="0.5"></path><path d="M106.0711 124.6785L146.0159 43.6075" fill="none" stroke="#aaa" stroke-opacity="0.5"></path><path d="M146.2556 206.349L305.7654 170.6595" fill="none" stroke="#aaa" stroke-opacity="0.5"></path><path d="M106.0711 124.6785L234.5717 23.1793" fill="none" stroke="#aaa" stroke-opacity="0.5"></path><path d="M106.0711 124.6785L234.4148 227.0345" fill="none" stroke="#aaa" stroke-opacity="0.5"></path><path d="M146.2556 206.349L146.0159 43.6075" fill="none" stroke="#aaa" stroke-opacity="0.5"></path><path d="M106.0711 124.6785L305.7654 170.6595" fill="none" stroke="#aaa" stroke-opacity="0.5"></path><path d="M234.5 227.0345L234.5 23.1793" fill="none" stroke="#aaa" stroke-opacity="0.5"></path><path d="M305.7654 170.6595L234.5717 23.1793" fill="none" stroke="#aaa" stroke-opacity="0.5"></path><path d="M305.7654 170.6595L234.4148 227.0345" fill="none" stroke="#aaa" stroke-opacity="0.5"></path><path d="M146.0159 43.6075L234.5717 23.1793" fill="none" stroke="#aaa" stroke-opacity="0.5"></path><path d="M146.0159 43.6075L234.4148 227.0345" fill="none" stroke="#aaa" stroke-opacity="0.5"></path><path d="M146.2556 206.349L234.5717 23.1793" fill="none" stroke="#aaa" stroke-opacity="0.5"></path><path d="M146.2556 206.349L234.4148 227.0345" fill="none" stroke="#aaa" stroke-opacity="0.5"></path><path d="M305.7654 170.6595L304.7866 79.4917" fill="none" stroke="#aaa" stroke-opacity="0.5"></path><path d="M146.0159 43.6075L304.7866 79.4917" fill="none" stroke="#aaa" stroke-opacity="0.5"></path><path d="M146.2556 206.349L304.7866 79.4917" fill="none" stroke="#aaa" stroke-opacity="0.5"></path><path d="M106.0711 124.6785L146.2556 206.349" fill="none" stroke="#aaa" stroke-opacity="0.5"></path><path d="M1 0A1 1 0 1 1 1 -0.0001" fill="#5470c6" transform="matrix(19,0,0,19,305.7654,170.6595)"></path><path d="M1 0A1 1 0 1 1 1 -0.0001" fill="#5470c6" transform="matrix(19,0,0,19,234.4148,227.0345)"></path><path d="M1 0A1 1 0 1 1 1 -0.0001" fill="#5470c6" transform="matrix(19,0,0,19,146.2556,206.349)"></path><path d="M1 0A1 1 0 1 1 1 -0.0001" fill="#5470c6" transform="matrix(19,0,0,19,106.0711,124.6785)"></path><path d="M1 0A1 1 0 1 1 1 -0.0001" fill="#5470c6" transform="matrix(19,0,0,19,146.0159,43.6075)"></path><path d="M1 0A1 1 0 1 1 1 -0.0001" fill="#5470c6" transform="matrix(19,0,0,19,234.5717,23.1793)"></path><path d="M1 0A1 1 0 1 1 1 -0.0001" fill="#5470c6" transform="matrix(19,0,0,19,304.7866,79.4917)"></path><path d="M-32.4922 -5l64.9844 0l0 33l-64.9844 0Z" fill="rgb(0,0,0)" fill-opacity="0" stroke="#ccc" stroke-width="0" transform="translate(237.5 5)"></path><text dominant-baseline="central" fill="#333" style="font-size:23px;font-family:sans-serif;font-weight:bolder;" text-anchor="middle" transform="translate(237.5 5)" y="11.5">C230</text></g></svg>