<svg baseprofile="full" height="250" style="position:absolute;left:0;top:0;user-select:none" version="1.1" width="475" xmlns="http://www.w3.org/2000/svg" xmlns:xlink="http://www.w3.org/1999/xlink"><rect fill="none" height="250" id="0" width="475" x="0" y="0"></rect><g><path d="M106.6598 125.2904L146.0752 206.2338" fill="none" stroke="#aaa" stroke-opacity="0.5"></path><path d="M146.0752 206.2338L233.7338 226.8431" fill="none" stroke="#aaa" stroke-opacity="0.5"></path><path d="M234.8197 23.083L146.0752 206.2338" fill="none" stroke="#aaa" stroke-opacity="0.5"></path><path d="M304.9747 170.4121L305.7353 80.0713" fill="none" stroke="#aaa" stroke-opacity="0.5"></path><path d="M146.5 43.0663L146.5 206.2338" fill="none" stroke="#aaa" stroke-opacity="0.5"></path><path d="M234.8197 23.083L106.6598 125.2904" fill="none" stroke="#aaa" stroke-opacity="0.5"></path><path d="M106.6598 125.2904L233.7338 226.8431" fill="none" stroke="#aaa" stroke-opacity="0.5"></path><path d="M234.8197 23.083L233.7338 226.8431" fill="none" stroke="#aaa" stroke-opacity="0.5"></path><path d="M304.9747 170.4121L234.8197 23.083" fill="none" stroke="#aaa" stroke-opacity="0.5"></path><path d="M304.9747 170.4121L233.7338 226.8431" fill="none" stroke="#aaa" stroke-opacity="0.5"></path><path d="M145.8827 43.0663L233.7338 226.8431" fill="none" stroke="#aaa" stroke-opacity="0.5"></path><path d="M146.0752 206.2338L305.7353 80.0713" fill="none" stroke="#aaa" stroke-opacity="0.5"></path><path d="M304.9747 170.4121L145.8827 43.0663" fill="none" stroke="#aaa" stroke-opacity="0.5"></path><path d="M106.6598 125.2904L305.7353 80.0713" fill="none" stroke="#aaa" stroke-opacity="0.5"></path><path d="M304.9747 170.4121L146.0752 206.2338" fill="none" stroke="#aaa" stroke-opacity="0.5"></path><path d="M234.8197 23.083L305.7353 80.0713" fill="none" stroke="#aaa" stroke-opacity="0.5"></path><path d="M145.8827 43.0663L305.7353 80.0713" fill="none" stroke="#aaa" stroke-opacity="0.5"></path><path d="M304.9747 170.4121L106.6598 125.2904" fill="none" stroke="#aaa" stroke-opacity="0.5"></path><path d="M233.7338 226.8431L305.7353 80.0713" fill="none" stroke="#aaa" stroke-opacity="0.5"></path><path d="M106.6598 125.2904L145.8827 43.0663" fill="none" stroke="#aaa" stroke-opacity="0.5"></path><path d="M234.8197 23.083L145.8827 43.0663" fill="none" stroke="#aaa" stroke-opacity="0.5"></path><path d="M1 0A1 1 0 1 1 1 -0.0001" fill="#5470c6" transform="matrix(19,0,0,19,304.9747,170.4121)"></path><path d="M1 0A1 1 0 1 1 1 -0.0001" fill="#5470c6" transform="matrix(19,0,0,19,233.7338,226.8431)"></path><path d="M1 0A1 1 0 1 1 1 -0.0001" fill="#5470c6" transform="matrix(19,0,0,19,146.0752,206.2338)"></path><path d="M1 0A1 1 0 1 1 1 -0.0001" fill="#5470c6" transform="matrix(19,0,0,19,106.6598,125.2904)"></path><path d="M1 0A1 1 0 1 1 1 -0.0001" fill="#5470c6" transform="matrix(19,0,0,19,145.8827,43.0663)"></path><path d="M1 0A1 1 0 1 1 1 -0.0001" fill="#5470c6" transform="matrix(19,0,0,19,234.8197,23.083)"></path><path d="M1 0A1 1 0 1 1 1 -0.0001" fill="#5470c6" transform="matrix(19,0,0,19,305.7353,80.0713)"></path><path d="M-32.4922 -5l64.9844 0l0 33l-64.9844 0Z" fill="rgb(0,0,0)" fill-opacity="0" stroke="#ccc" stroke-width="0" transform="translate(237.5 5)"></path><text dominant-baseline="central" fill="#333" style="font-size:23px;font-family:sans-serif;font-weight:bolder;" text-anchor="middle" transform="translate(237.5 5)" y="11.5">C231</text></g></svg>