<svg baseprofile="full" height="250" style="position:absolute;left:0;top:0;user-select:none" version="1.1" width="475" xmlns="http://www.w3.org/2000/svg" xmlns:xlink="http://www.w3.org/1999/xlink"><rect fill="none" height="250" id="0" width="475" x="0" y="0"></rect><g><path d="M306.0012 168.1161L237.3778 226.3809" fill="none" stroke="#aaa" stroke-opacity="0.5"></path><path d="M106.7649 127.8223L237.3778 226.3809" fill="none" stroke="#aaa" stroke-opacity="0.5"></path><path d="M106.7649 127.8223L231.6265 22.0179" fill="none" stroke="#aaa" stroke-opacity="0.5"></path><path d="M148.1939 208.0097L306.0012 168.1161" fill="none" stroke="#aaa" stroke-opacity="0.5"></path><path d="M143.9359 45.0328L237.3778 226.3809" fill="none" stroke="#aaa" stroke-opacity="0.5"></path><path d="M143.9359 45.0328L306.0012 168.1161" fill="none" stroke="#aaa" stroke-opacity="0.5"></path><path d="M303.9809 77.6203L143.9359 45.0328" fill="none" stroke="#aaa" stroke-opacity="0.5"></path><path d="M148.1939 208.0097L231.6265 22.0179" fill="none" stroke="#aaa" stroke-opacity="0.5"></path><path d="M143.9359 45.0328L231.6265 22.0179" fill="none" stroke="#aaa" stroke-opacity="0.5"></path><path d="M303.9809 77.6203L237.3778 226.3809" fill="none" stroke="#aaa" stroke-opacity="0.5"></path><path d="M303.9809 77.6203L306.0012 168.1161" fill="none" stroke="#aaa" stroke-opacity="0.5"></path><path d="M148.1939 208.0097L106.7649 127.8223" fill="none" stroke="#aaa" stroke-opacity="0.5"></path><path d="M237.3778 226.3809L231.6265 22.0179" fill="none" stroke="#aaa" stroke-opacity="0.5"></path><path d="M143.9359 45.0328L106.7649 127.8223" fill="none" stroke="#aaa" stroke-opacity="0.5"></path><path d="M306.0012 168.1161L231.6265 22.0179" fill="none" stroke="#aaa" stroke-opacity="0.5"></path><path d="M303.9809 77.6203L231.6265 22.0179" fill="none" stroke="#aaa" stroke-opacity="0.5"></path><path d="M143.9359 45.0328L148.1939 208.0097" fill="none" stroke="#aaa" stroke-opacity="0.5"></path><path d="M148.1939 208.0097L237.3778 226.3809" fill="none" stroke="#aaa" stroke-opacity="0.5"></path><path d="M306.0012 168.1161L106.7649 127.8223" fill="none" stroke="#aaa" stroke-opacity="0.5"></path><path d="M303.9809 77.6203L106.7649 127.8223" fill="none" stroke="#aaa" stroke-opacity="0.5"></path><path d="M303.9809 77.6203L148.1939 208.0097" fill="none" stroke="#aaa" stroke-opacity="0.5"></path><path d="M1 0A1 1 0 1 1 1 -0.0001" fill="#5470c6" transform="matrix(19,0,0,19,306.0012,168.1161)"></path><path d="M1 0A1 1 0 1 1 1 -0.0001" fill="#5470c6" transform="matrix(19,0,0,19,237.3778,226.3809)"></path><path d="M1 0A1 1 0 1 1 1 -0.0001" fill="#5470c6" transform="matrix(19,0,0,19,148.1939,208.0097)"></path><path d="M1 0A1 1 0 1 1 1 -0.0001" fill="#5470c6" transform="matrix(19,0,0,19,106.7649,127.8223)"></path><path d="M1 0A1 1 0 1 1 1 -0.0001" fill="#5470c6" transform="matrix(19,0,0,19,143.9359,45.0328)"></path><path d="M1 0A1 1 0 1 1 1 -0.0001" fill="#5470c6" transform="matrix(19,0,0,19,231.6265,22.0179)"></path><path d="M1 0A1 1 0 1 1 1 -0.0001" fill="#5470c6" transform="matrix(19,0,0,19,303.9809,77.6203)"></path><path d="M-32.4922 -5l64.9844 0l0 33l-64.9844 0Z" fill="rgb(0,0,0)" fill-opacity="0" stroke="#ccc" stroke-width="0" transform="translate(237.5 5)"></path><text dominant-baseline="central" fill="#333" style="font-size:23px;font-family:sans-serif;font-weight:bolder;" text-anchor="middle" transform="translate(237.5 5)" y="11.5">C232</text></g></svg>