<svg baseprofile="full" height="250" style="position:absolute;left:0;top:0;user-select:none" version="1.1" width="475" xmlns="http://www.w3.org/2000/svg" xmlns:xlink="http://www.w3.org/1999/xlink"><rect fill="none" height="250" id="0" width="475" x="0" y="0"></rect><g><path d="M145.8665 43.1622L145.6685 206.4207" fill="none" stroke="#aaa" stroke-opacity="0.5"></path><path d="M145.8665 43.1622L106.47 124.4184" fill="none" stroke="#aaa" stroke-opacity="0.5"></path><path d="M145.8665 43.1622L305.1432 80.2238" fill="none" stroke="#aaa" stroke-opacity="0.5"></path><path d="M145.8665 43.1622L234.4247 226.6477" fill="none" stroke="#aaa" stroke-opacity="0.5"></path><path d="M305.5691 170.7386L234.7391 23.3885" fill="none" stroke="#aaa" stroke-opacity="0.5"></path><path d="M305.5691 170.7386L145.8665 43.1622" fill="none" stroke="#aaa" stroke-opacity="0.5"></path><path d="M305.5691 170.7386L145.6685 206.4207" fill="none" stroke="#aaa" stroke-opacity="0.5"></path><path d="M305.5691 170.7386L106.47 124.4184" fill="none" stroke="#aaa" stroke-opacity="0.5"></path><path d="M305.5691 170.7386L305.1432 80.2238" fill="none" stroke="#aaa" stroke-opacity="0.5"></path><path d="M305.5691 170.7386L234.4247 226.6477" fill="none" stroke="#aaa" stroke-opacity="0.5"></path><path d="M234.4247 226.6477L106.47 124.4184" fill="none" stroke="#aaa" stroke-opacity="0.5"></path><path d="M234.4247 226.6477L305.1432 80.2238" fill="none" stroke="#aaa" stroke-opacity="0.5"></path><path d="M145.6685 206.4207L106.47 124.4184" fill="none" stroke="#aaa" stroke-opacity="0.5"></path><path d="M234.7391 23.3885L145.6685 206.4207" fill="none" stroke="#aaa" stroke-opacity="0.5"></path><path d="M234.7391 23.3885L106.47 124.4184" fill="none" stroke="#aaa" stroke-opacity="0.5"></path><path d="M234.7391 23.3885L305.1432 80.2238" fill="none" stroke="#aaa" stroke-opacity="0.5"></path><path d="M234.5 23.3885L234.5 226.6477" fill="none" stroke="#aaa" stroke-opacity="0.5"></path><path d="M305.1432 80.2238L145.6685 206.4207" fill="none" stroke="#aaa" stroke-opacity="0.5"></path><path d="M305.1432 80.2238L106.47 124.4184" fill="none" stroke="#aaa" stroke-opacity="0.5"></path><path d="M234.4247 226.6477L145.6685 206.4207" fill="none" stroke="#aaa" stroke-opacity="0.5"></path><path d="M145.8665 43.1622L234.7391 23.3885" fill="none" stroke="#aaa" stroke-opacity="0.5"></path><path d="M1 0A1 1 0 1 1 1 -0.0001" fill="#5470c6" transform="matrix(19,0,0,19,305.5691,170.7386)"></path><path d="M1 0A1 1 0 1 1 1 -0.0001" fill="#5470c6" transform="matrix(19,0,0,19,234.4247,226.6477)"></path><path d="M1 0A1 1 0 1 1 1 -0.0001" fill="#5470c6" transform="matrix(19,0,0,19,145.6685,206.4207)"></path><path d="M1 0A1 1 0 1 1 1 -0.0001" fill="#5470c6" transform="matrix(19,0,0,19,106.47,124.4184)"></path><path d="M1 0A1 1 0 1 1 1 -0.0001" fill="#5470c6" transform="matrix(19,0,0,19,145.8665,43.1622)"></path><path d="M1 0A1 1 0 1 1 1 -0.0001" fill="#5470c6" transform="matrix(19,0,0,19,234.7391,23.3885)"></path><path d="M1 0A1 1 0 1 1 1 -0.0001" fill="#5470c6" transform="matrix(19,0,0,19,305.1432,80.2238)"></path><path d="M-32.4922 -5l64.9844 0l0 33l-64.9844 0Z" fill="rgb(0,0,0)" fill-opacity="0" stroke="#ccc" stroke-width="0" transform="translate(237.5 5)"></path><text dominant-baseline="central" fill="#333" style="font-size:23px;font-family:sans-serif;font-weight:bolder;" text-anchor="middle" transform="translate(237.5 5)" y="11.5">C233</text></g></svg>