<svg baseprofile="full" height="250" style="position:absolute;left:0;top:0;user-select:none" version="1.1" width="475" xmlns="http://www.w3.org/2000/svg" xmlns:xlink="http://www.w3.org/1999/xlink"><rect fill="none" height="250" id="0" width="475" x="0" y="0"></rect><g><path d="M234.7307 227.3156L145.5653 42.5508" fill="none" stroke="#aaa" stroke-opacity="0.5"></path><path d="M145.909 206.5187L145.5653 42.5508" fill="none" stroke="#aaa" stroke-opacity="0.5"></path><path d="M234.7307 227.3156L304.0775 170.1484" fill="none" stroke="#aaa" stroke-opacity="0.5"></path><path d="M306.1019 79.2016L145.5653 42.5508" fill="none" stroke="#aaa" stroke-opacity="0.5"></path><path d="M145.909 206.5187L304.0775 170.1484" fill="none" stroke="#aaa" stroke-opacity="0.5"></path><path d="M234.3561 24.5885L306.1019 79.2016" fill="none" stroke="#aaa" stroke-opacity="0.5"></path><path d="M107.1406 124.6764L145.5653 42.5508" fill="none" stroke="#aaa" stroke-opacity="0.5"></path><path d="M234.3561 24.5885L145.5653 42.5508" fill="none" stroke="#aaa" stroke-opacity="0.5"></path><path d="M234.7307 227.3156L306.1019 79.2016" fill="none" stroke="#aaa" stroke-opacity="0.5"></path><path d="M107.1406 124.6764L304.0775 170.1484" fill="none" stroke="#aaa" stroke-opacity="0.5"></path><path d="M145.909 206.5187L306.1019 79.2016" fill="none" stroke="#aaa" stroke-opacity="0.5"></path><path d="M304.0775 170.1484L306.1019 79.2016" fill="none" stroke="#aaa" stroke-opacity="0.5"></path><path d="M234.3561 24.5885L304.0775 170.1484" fill="none" stroke="#aaa" stroke-opacity="0.5"></path><path d="M107.1406 124.6764L234.3561 24.5885" fill="none" stroke="#aaa" stroke-opacity="0.5"></path><path d="M107.1406 124.6764L145.909 206.5187" fill="none" stroke="#aaa" stroke-opacity="0.5"></path><path d="M234.3561 24.5885L145.909 206.5187" fill="none" stroke="#aaa" stroke-opacity="0.5"></path><path d="M304.0775 170.1484L145.5653 42.5508" fill="none" stroke="#aaa" stroke-opacity="0.5"></path><path d="M107.1406 124.6764L306.1019 79.2016" fill="none" stroke="#aaa" stroke-opacity="0.5"></path><path d="M234.5 227.3156L234.5 24.5885" fill="none" stroke="#aaa" stroke-opacity="0.5"></path><path d="M234.7307 227.3156L145.909 206.5187" fill="none" stroke="#aaa" stroke-opacity="0.5"></path><path d="M234.7307 227.3156L107.1406 124.6764" fill="none" stroke="#aaa" stroke-opacity="0.5"></path><path d="M1 0A1 1 0 1 1 1 -0.0001" fill="#5470c6" transform="matrix(19,0,0,19,304.0775,170.1484)"></path><path d="M1 0A1 1 0 1 1 1 -0.0001" fill="#5470c6" transform="matrix(19,0,0,19,234.7307,227.3156)"></path><path d="M1 0A1 1 0 1 1 1 -0.0001" fill="#5470c6" transform="matrix(19,0,0,19,145.909,206.5187)"></path><path d="M1 0A1 1 0 1 1 1 -0.0001" fill="#5470c6" transform="matrix(19,0,0,19,107.1406,124.6764)"></path><path d="M1 0A1 1 0 1 1 1 -0.0001" fill="#5470c6" transform="matrix(19,0,0,19,145.5653,42.5508)"></path><path d="M1 0A1 1 0 1 1 1 -0.0001" fill="#5470c6" transform="matrix(19,0,0,19,234.3561,24.5885)"></path><path d="M1 0A1 1 0 1 1 1 -0.0001" fill="#5470c6" transform="matrix(19,0,0,19,306.1019,79.2016)"></path><path d="M-32.4922 -5l64.9844 0l0 33l-64.9844 0Z" fill="rgb(0,0,0)" fill-opacity="0" stroke="#ccc" stroke-width="0" transform="translate(237.5 5)"></path><text dominant-baseline="central" fill="#333" style="font-size:23px;font-family:sans-serif;font-weight:bolder;" text-anchor="middle" transform="translate(237.5 5)" y="11.5">C234</text></g></svg>