<svg baseprofile="full" height="250" style="position:absolute;left:0;top:0;user-select:none" version="1.1" width="475" xmlns="http://www.w3.org/2000/svg" xmlns:xlink="http://www.w3.org/1999/xlink"><rect fill="none" height="250" id="0" width="475" x="0" y="0"></rect><g><path d="M144.5639 205.703L306.4463 80.9872" fill="none" stroke="#aaa" stroke-opacity="0.5"></path><path d="M106.1105 122.865L306.4463 80.9872" fill="none" stroke="#aaa" stroke-opacity="0.5"></path><path d="M144.5639 205.703L147.2408 42.341" fill="none" stroke="#aaa" stroke-opacity="0.5"></path><path d="M144.5639 205.703L304.2749 172.2641" fill="none" stroke="#aaa" stroke-opacity="0.5"></path><path d="M232.925 227.6478L147.2408 42.341" fill="none" stroke="#aaa" stroke-opacity="0.5"></path><path d="M232.925 227.6478L304.2749 172.2641" fill="none" stroke="#aaa" stroke-opacity="0.5"></path><path d="M236.3197 23.1919L106.1105 122.865" fill="none" stroke="#aaa" stroke-opacity="0.5"></path><path d="M106.1105 122.865L147.2408 42.341" fill="none" stroke="#aaa" stroke-opacity="0.5"></path><path d="M106.1105 122.865L304.2749 172.2641" fill="none" stroke="#aaa" stroke-opacity="0.5"></path><path d="M236.3197 23.1919L232.925 227.6478" fill="none" stroke="#aaa" stroke-opacity="0.5"></path><path d="M304.2749 172.2641L147.2408 42.341" fill="none" stroke="#aaa" stroke-opacity="0.5"></path><path d="M236.3197 23.1919L144.5639 205.703" fill="none" stroke="#aaa" stroke-opacity="0.5"></path><path d="M236.3197 23.1919L306.4463 80.9872" fill="none" stroke="#aaa" stroke-opacity="0.5"></path><path d="M232.925 227.6478L106.1105 122.865" fill="none" stroke="#aaa" stroke-opacity="0.5"></path><path d="M147.2408 42.341L306.4463 80.9872" fill="none" stroke="#aaa" stroke-opacity="0.5"></path><path d="M236.3197 23.1919L147.2408 42.341" fill="none" stroke="#aaa" stroke-opacity="0.5"></path><path d="M236.3197 23.1919L304.2749 172.2641" fill="none" stroke="#aaa" stroke-opacity="0.5"></path><path d="M232.925 227.6478L144.5639 205.703" fill="none" stroke="#aaa" stroke-opacity="0.5"></path><path d="M232.925 227.6478L306.4463 80.9872" fill="none" stroke="#aaa" stroke-opacity="0.5"></path><path d="M106.1105 122.865L144.5639 205.703" fill="none" stroke="#aaa" stroke-opacity="0.5"></path><path d="M304.2749 172.2641L306.4463 80.9872" fill="none" stroke="#aaa" stroke-opacity="0.5"></path><path d="M1 0A1 1 0 1 1 1 -0.0001" fill="#5470c6" transform="matrix(19,0,0,19,304.2749,172.2641)"></path><path d="M1 0A1 1 0 1 1 1 -0.0001" fill="#5470c6" transform="matrix(19,0,0,19,232.925,227.6478)"></path><path d="M1 0A1 1 0 1 1 1 -0.0001" fill="#5470c6" transform="matrix(19,0,0,19,144.5639,205.703)"></path><path d="M1 0A1 1 0 1 1 1 -0.0001" fill="#5470c6" transform="matrix(19,0,0,19,106.1105,122.865)"></path><path d="M1 0A1 1 0 1 1 1 -0.0001" fill="#5470c6" transform="matrix(19,0,0,19,147.2408,42.341)"></path><path d="M1 0A1 1 0 1 1 1 -0.0001" fill="#5470c6" transform="matrix(19,0,0,19,236.3197,23.1919)"></path><path d="M1 0A1 1 0 1 1 1 -0.0001" fill="#5470c6" transform="matrix(19,0,0,19,306.4463,80.9872)"></path><path d="M-32.4922 -5l64.9844 0l0 33l-64.9844 0Z" fill="rgb(0,0,0)" fill-opacity="0" stroke="#ccc" stroke-width="0" transform="translate(237.5 5)"></path><text dominant-baseline="central" fill="#333" style="font-size:23px;font-family:sans-serif;font-weight:bolder;" text-anchor="middle" transform="translate(237.5 5)" y="11.5">C235</text></g></svg>