<svg baseprofile="full" height="250" style="position:absolute;left:0;top:0;user-select:none" version="1.1" width="475" xmlns="http://www.w3.org/2000/svg" xmlns:xlink="http://www.w3.org/1999/xlink"><rect fill="none" height="250" id="0" width="475" x="0" y="0"></rect><g><path d="M306.0797 81.0478L144.2272 205.5608" fill="none" stroke="#aaa" stroke-opacity="0.5"></path><path d="M236.2194 24.0557L147.6143 41.6083" fill="none" stroke="#aaa" stroke-opacity="0.5"></path><path d="M236.2194 24.0557L306.0797 81.0478" fill="none" stroke="#aaa" stroke-opacity="0.5"></path><path d="M233.0192 227.5216L306.0797 81.0478" fill="none" stroke="#aaa" stroke-opacity="0.5"></path><path d="M304.0085 171.988L147.6143 41.6083" fill="none" stroke="#aaa" stroke-opacity="0.5"></path><path d="M233.0192 227.5216L304.0085 171.988" fill="none" stroke="#aaa" stroke-opacity="0.5"></path><path d="M233.0192 227.5216L106.713 123.218" fill="none" stroke="#aaa" stroke-opacity="0.5"></path><path d="M306.0797 81.0478L304.0085 171.988" fill="none" stroke="#aaa" stroke-opacity="0.5"></path><path d="M233.0192 227.5216L236.2194 24.0557" fill="none" stroke="#aaa" stroke-opacity="0.5"></path><path d="M106.713 123.218L304.0085 171.988" fill="none" stroke="#aaa" stroke-opacity="0.5"></path><path d="M106.713 123.218L144.2272 205.5608" fill="none" stroke="#aaa" stroke-opacity="0.5"></path><path d="M233.0192 227.5216L147.6143 41.6083" fill="none" stroke="#aaa" stroke-opacity="0.5"></path><path d="M236.2194 24.0557L304.0085 171.988" fill="none" stroke="#aaa" stroke-opacity="0.5"></path><path d="M236.2194 24.0557L144.2272 205.5608" fill="none" stroke="#aaa" stroke-opacity="0.5"></path><path d="M106.713 123.218L236.2194 24.0557" fill="none" stroke="#aaa" stroke-opacity="0.5"></path><path d="M144.2272 205.5608L147.6143 41.6083" fill="none" stroke="#aaa" stroke-opacity="0.5"></path><path d="M306.0797 81.0478L147.6143 41.6083" fill="none" stroke="#aaa" stroke-opacity="0.5"></path><path d="M233.0192 227.5216L144.2272 205.5608" fill="none" stroke="#aaa" stroke-opacity="0.5"></path><path d="M144.2272 205.5608L304.0085 171.988" fill="none" stroke="#aaa" stroke-opacity="0.5"></path><path d="M106.713 123.218L147.6143 41.6083" fill="none" stroke="#aaa" stroke-opacity="0.5"></path><path d="M106.713 123.218L306.0797 81.0478" fill="none" stroke="#aaa" stroke-opacity="0.5"></path><path d="M1 0A1 1 0 1 1 1 -0.0001" fill="#5470c6" transform="matrix(19,0,0,19,304.0085,171.988)"></path><path d="M1 0A1 1 0 1 1 1 -0.0001" fill="#5470c6" transform="matrix(19,0,0,19,233.0192,227.5216)"></path><path d="M1 0A1 1 0 1 1 1 -0.0001" fill="#5470c6" transform="matrix(19,0,0,19,144.2272,205.5608)"></path><path d="M1 0A1 1 0 1 1 1 -0.0001" fill="#5470c6" transform="matrix(19,0,0,19,106.713,123.218)"></path><path d="M1 0A1 1 0 1 1 1 -0.0001" fill="#5470c6" transform="matrix(19,0,0,19,147.6143,41.6083)"></path><path d="M1 0A1 1 0 1 1 1 -0.0001" fill="#5470c6" transform="matrix(19,0,0,19,236.2194,24.0557)"></path><path d="M1 0A1 1 0 1 1 1 -0.0001" fill="#5470c6" transform="matrix(19,0,0,19,306.0797,81.0478)"></path><path d="M-32.4922 -5l64.9844 0l0 33l-64.9844 0Z" fill="rgb(0,0,0)" fill-opacity="0" stroke="#ccc" stroke-width="0" transform="translate(237.5 5)"></path><text dominant-baseline="central" fill="#333" style="font-size:23px;font-family:sans-serif;font-weight:bolder;" text-anchor="middle" transform="translate(237.5 5)" y="11.5">C236</text></g></svg>