<svg baseprofile="full" height="250" style="position:absolute;left:0;top:0;user-select:none" version="1.1" width="475" xmlns="http://www.w3.org/2000/svg" xmlns:xlink="http://www.w3.org/1999/xlink"><rect fill="none" height="250" id="0" width="475" x="0" y="0"></rect><g><path d="M304.6287 77.561L147.8829 207.882" fill="none" stroke="#aaa" stroke-opacity="0.5"></path><path d="M305.9733 167.7807L304.6287 77.561" fill="none" stroke="#aaa" stroke-opacity="0.5"></path><path d="M305.9733 167.7807L231.8103 23.2859" fill="none" stroke="#aaa" stroke-opacity="0.5"></path><path d="M305.9733 167.7807L144.2197 44.4114" fill="none" stroke="#aaa" stroke-opacity="0.5"></path><path d="M144.2197 44.4114L231.8103 23.2859" fill="none" stroke="#aaa" stroke-opacity="0.5"></path><path d="M236.8448 226.415L106.5214 127.664" fill="none" stroke="#aaa" stroke-opacity="0.5"></path><path d="M147.8829 207.882L106.5214 127.664" fill="none" stroke="#aaa" stroke-opacity="0.5"></path><path d="M236.8448 226.415L144.2197 44.4114" fill="none" stroke="#aaa" stroke-opacity="0.5"></path><path d="M236.8448 226.415L147.8829 207.882" fill="none" stroke="#aaa" stroke-opacity="0.5"></path><path d="M304.6287 77.561L106.5214 127.664" fill="none" stroke="#aaa" stroke-opacity="0.5"></path><path d="M304.6287 77.561L231.8103 23.2859" fill="none" stroke="#aaa" stroke-opacity="0.5"></path><path d="M304.6287 77.561L144.2197 44.4114" fill="none" stroke="#aaa" stroke-opacity="0.5"></path><path d="M236.8448 226.415L305.9733 167.7807" fill="none" stroke="#aaa" stroke-opacity="0.5"></path><path d="M305.9733 167.7807L106.5214 127.664" fill="none" stroke="#aaa" stroke-opacity="0.5"></path><path d="M144.2197 44.4114L106.5214 127.664" fill="none" stroke="#aaa" stroke-opacity="0.5"></path><path d="M305.9733 167.7807L147.8829 207.882" fill="none" stroke="#aaa" stroke-opacity="0.5"></path><path d="M231.8103 23.2859L106.5214 127.664" fill="none" stroke="#aaa" stroke-opacity="0.5"></path><path d="M236.8448 226.415L304.6287 77.561" fill="none" stroke="#aaa" stroke-opacity="0.5"></path><path d="M144.2197 44.4114L147.8829 207.882" fill="none" stroke="#aaa" stroke-opacity="0.5"></path><path d="M236.8448 226.415L231.8103 23.2859" fill="none" stroke="#aaa" stroke-opacity="0.5"></path><path d="M231.8103 23.2859L147.8829 207.882" fill="none" stroke="#aaa" stroke-opacity="0.5"></path><path d="M1 0A1 1 0 1 1 1 -0.0001" fill="#5470c6" transform="matrix(19,0,0,19,305.9733,167.7807)"></path><path d="M1 0A1 1 0 1 1 1 -0.0001" fill="#5470c6" transform="matrix(19,0,0,19,236.8448,226.415)"></path><path d="M1 0A1 1 0 1 1 1 -0.0001" fill="#5470c6" transform="matrix(19,0,0,19,147.8829,207.882)"></path><path d="M1 0A1 1 0 1 1 1 -0.0001" fill="#5470c6" transform="matrix(19,0,0,19,106.5214,127.664)"></path><path d="M1 0A1 1 0 1 1 1 -0.0001" fill="#5470c6" transform="matrix(19,0,0,19,144.2197,44.4114)"></path><path d="M1 0A1 1 0 1 1 1 -0.0001" fill="#5470c6" transform="matrix(19,0,0,19,231.8103,23.2859)"></path><path d="M1 0A1 1 0 1 1 1 -0.0001" fill="#5470c6" transform="matrix(19,0,0,19,304.6287,77.561)"></path><path d="M-32.4922 -5l64.9844 0l0 33l-64.9844 0Z" fill="rgb(0,0,0)" fill-opacity="0" stroke="#ccc" stroke-width="0" transform="translate(237.5 5)"></path><text dominant-baseline="central" fill="#333" style="font-size:23px;font-family:sans-serif;font-weight:bolder;" text-anchor="middle" transform="translate(237.5 5)" y="11.5">C237</text></g></svg>