<svg baseprofile="full" height="250" style="position:absolute;left:0;top:0;user-select:none" version="1.1" width="475" xmlns="http://www.w3.org/2000/svg" xmlns:xlink="http://www.w3.org/1999/xlink"><rect fill="none" height="250" id="0" width="475" x="0" y="0"></rect><g><path d="M213.6211 232.8589L305.7368 177.3137" fill="none" stroke="#aaa" stroke-opacity="0.5"></path><path d="M213.6211 232.8589L208.8727 16.331" fill="none" stroke="#aaa" stroke-opacity="0.5"></path><path d="M208.8727 16.331L305.7368 177.3137" fill="none" stroke="#aaa" stroke-opacity="0.5"></path><path d="M213.6211 232.8589L118.6044 181.4502" fill="none" stroke="#aaa" stroke-opacity="0.5"></path><path d="M305.7368 177.3137L118.6044 181.4502" fill="none" stroke="#aaa" stroke-opacity="0.5"></path><path d="M303.6683 68.9988L118.6044 181.4502" fill="none" stroke="#aaa" stroke-opacity="0.5"></path><path d="M208.8727 16.331L118.6044 181.4502" fill="none" stroke="#aaa" stroke-opacity="0.5"></path><path d="M303.6683 68.9988L305.7368 177.3137" fill="none" stroke="#aaa" stroke-opacity="0.5"></path><path d="M303.6683 68.9988L208.8727 16.331" fill="none" stroke="#aaa" stroke-opacity="0.5"></path><path d="M303.6683 68.9988L213.6211 232.8589" fill="none" stroke="#aaa" stroke-opacity="0.5"></path><path d="M213.6211 232.8589L116.2519 73.0475" fill="none" stroke="#aaa" stroke-opacity="0.5"></path><path d="M305.7368 177.3137L116.2519 73.0475" fill="none" stroke="#aaa" stroke-opacity="0.5"></path><path d="M116.2519 73.0475L118.6044 181.4502" fill="none" stroke="#aaa" stroke-opacity="0.5"></path><path d="M303.6683 68.9988L116.2519 73.0475" fill="none" stroke="#aaa" stroke-opacity="0.5"></path><path d="M208.8727 16.331L116.2519 73.0475" fill="none" stroke="#aaa" stroke-opacity="0.5"></path><path d="M1 0A1 1 0 1 1 1 -0.0001" fill="#5470c6" transform="matrix(19.5,0,0,19.5,305.7368,177.3137)"></path><path d="M1 0A1 1 0 1 1 1 -0.0001" fill="#5470c6" transform="matrix(19.5,0,0,19.5,213.6211,232.8589)"></path><path d="M1 0A1 1 0 1 1 1 -0.0001" fill="#5470c6" transform="matrix(19.5,0,0,19.5,118.6044,181.4502)"></path><path d="M1 0A1 1 0 1 1 1 -0.0001" fill="#5470c6" transform="matrix(19.5,0,0,19.5,116.2519,73.0475)"></path><path d="M1 0A1 1 0 1 1 1 -0.0001" fill="#5470c6" transform="matrix(19.5,0,0,19.5,208.8727,16.331)"></path><path d="M1 0A1 1 0 1 1 1 -0.0001" fill="#5470c6" transform="matrix(19.5,0,0,19.5,303.6683,68.9988)"></path><path d="M-32.4922 -5l64.9844 0l0 33l-64.9844 0Z" fill="rgb(0,0,0)" fill-opacity="0" stroke="#ccc" stroke-width="0" transform="translate(237.5 5)"></path><text dominant-baseline="central" fill="#333" style="font-size:23px;font-family:sans-serif;font-weight:bolder;" text-anchor="middle" transform="translate(237.5 5)" y="11.5">C238</text></g></svg>