<svg baseprofile="full" height="250" style="position:absolute;left:0;top:0;user-select:none" version="1.1" width="475" xmlns="http://www.w3.org/2000/svg" xmlns:xlink="http://www.w3.org/1999/xlink"><rect fill="none" height="250" id="0" width="475" x="0" y="0"></rect><g><path d="M302.2074 67.801L307.313 175.2472" fill="none" stroke="#aaa" stroke-opacity="0.5"></path><path d="M206.8143 16.8943L307.313 175.2472" fill="none" stroke="#aaa" stroke-opacity="0.5"></path><path d="M115.5992 74.3821L307.313 175.2472" fill="none" stroke="#aaa" stroke-opacity="0.5"></path><path d="M115.5992 74.3821L206.8143 16.8943" fill="none" stroke="#aaa" stroke-opacity="0.5"></path><path d="M119.5291 182.515L307.313 175.2472" fill="none" stroke="#aaa" stroke-opacity="0.5"></path><path d="M302.2074 67.801L215.2923 233.1603" fill="none" stroke="#aaa" stroke-opacity="0.5"></path><path d="M206.8143 16.8943L215.2923 233.1603" fill="none" stroke="#aaa" stroke-opacity="0.5"></path><path d="M115.5992 74.3821L119.5291 182.515" fill="none" stroke="#aaa" stroke-opacity="0.5"></path><path d="M302.2074 67.801L206.8143 16.8943" fill="none" stroke="#aaa" stroke-opacity="0.5"></path><path d="M115.5992 74.3821L215.2923 233.1603" fill="none" stroke="#aaa" stroke-opacity="0.5"></path><path d="M119.5291 182.515L215.2923 233.1603" fill="none" stroke="#aaa" stroke-opacity="0.5"></path><path d="M115.5992 74.3821L302.2074 67.801" fill="none" stroke="#aaa" stroke-opacity="0.5"></path><path d="M119.5291 182.515L206.8143 16.8943" fill="none" stroke="#aaa" stroke-opacity="0.5"></path><path d="M119.5291 182.515L302.2074 67.801" fill="none" stroke="#aaa" stroke-opacity="0.5"></path><path d="M307.313 175.2472L215.2923 233.1603" fill="none" stroke="#aaa" stroke-opacity="0.5"></path><path d="M1 0A1 1 0 1 1 1 -0.0001" fill="#5470c6" transform="matrix(19.5,0,0,19.5,307.313,175.2472)"></path><path d="M1 0A1 1 0 1 1 1 -0.0001" fill="#5470c6" transform="matrix(19.5,0,0,19.5,215.2923,233.1603)"></path><path d="M1 0A1 1 0 1 1 1 -0.0001" fill="#5470c6" transform="matrix(19.5,0,0,19.5,119.5291,182.515)"></path><path d="M1 0A1 1 0 1 1 1 -0.0001" fill="#5470c6" transform="matrix(19.5,0,0,19.5,115.5992,74.3821)"></path><path d="M1 0A1 1 0 1 1 1 -0.0001" fill="#5470c6" transform="matrix(19.5,0,0,19.5,206.8143,16.8943)"></path><path d="M1 0A1 1 0 1 1 1 -0.0001" fill="#5470c6" transform="matrix(19.5,0,0,19.5,302.2074,67.801)"></path><path d="M-32.4922 -5l64.9844 0l0 33l-64.9844 0Z" fill="rgb(0,0,0)" fill-opacity="0" stroke="#ccc" stroke-width="0" transform="translate(237.5 5)"></path><text dominant-baseline="central" fill="#333" style="font-size:23px;font-family:sans-serif;font-weight:bolder;" text-anchor="middle" transform="translate(237.5 5)" y="11.5">C239</text></g></svg>