<svg baseprofile="full" height="250" style="position:absolute;left:0;top:0;user-select:none" version="1.1" width="475" xmlns="http://www.w3.org/2000/svg" xmlns:xlink="http://www.w3.org/1999/xlink"><rect fill="none" height="250" id="0" width="475" x="0" y="0"></rect><g><path d="M115.6862 74.0381L119.2853 181.4802" fill="none" stroke="#aaa" stroke-opacity="0.5"></path><path d="M214.3568 233.1213L306.0108 176.3573" fill="none" stroke="#aaa" stroke-opacity="0.5"></path><path d="M119.2853 181.4802L306.0108 176.3573" fill="none" stroke="#aaa" stroke-opacity="0.5"></path><path d="M214.3568 233.1213L208.0176 16.7956" fill="none" stroke="#aaa" stroke-opacity="0.5"></path><path d="M119.2853 181.4802L208.0176 16.7956" fill="none" stroke="#aaa" stroke-opacity="0.5"></path><path d="M214.3568 233.1213L119.2853 181.4802" fill="none" stroke="#aaa" stroke-opacity="0.5"></path><path d="M303.3985 68.2074L214.3568 233.1213" fill="none" stroke="#aaa" stroke-opacity="0.5"></path><path d="M303.3985 68.2074L306.0108 176.3573" fill="none" stroke="#aaa" stroke-opacity="0.5"></path><path d="M306.0108 176.3573L208.0176 16.7956" fill="none" stroke="#aaa" stroke-opacity="0.5"></path><path d="M115.6862 74.0381L214.3568 233.1213" fill="none" stroke="#aaa" stroke-opacity="0.5"></path><path d="M115.6862 74.0381L306.0108 176.3573" fill="none" stroke="#aaa" stroke-opacity="0.5"></path><path d="M115.6862 74.0381L303.3985 68.2074" fill="none" stroke="#aaa" stroke-opacity="0.5"></path><path d="M303.3985 68.2074L208.0176 16.7956" fill="none" stroke="#aaa" stroke-opacity="0.5"></path><path d="M303.3985 68.2074L119.2853 181.4802" fill="none" stroke="#aaa" stroke-opacity="0.5"></path><path d="M115.6862 74.0381L208.0176 16.7956" fill="none" stroke="#aaa" stroke-opacity="0.5"></path><path d="M1 0A1 1 0 1 1 1 -0.0001" fill="#5470c6" transform="matrix(19.5,0,0,19.5,306.0108,176.3573)"></path><path d="M1 0A1 1 0 1 1 1 -0.0001" fill="#5470c6" transform="matrix(19.5,0,0,19.5,214.3568,233.1213)"></path><path d="M1 0A1 1 0 1 1 1 -0.0001" fill="#5470c6" transform="matrix(19.5,0,0,19.5,119.2853,181.4802)"></path><path d="M1 0A1 1 0 1 1 1 -0.0001" fill="#5470c6" transform="matrix(19.5,0,0,19.5,115.6862,74.0381)"></path><path d="M1 0A1 1 0 1 1 1 -0.0001" fill="#5470c6" transform="matrix(19.5,0,0,19.5,208.0176,16.7956)"></path><path d="M1 0A1 1 0 1 1 1 -0.0001" fill="#5470c6" transform="matrix(19.5,0,0,19.5,303.3985,68.2074)"></path><path d="M-32.4922 -5l64.9844 0l0 33l-64.9844 0Z" fill="rgb(0,0,0)" fill-opacity="0" stroke="#ccc" stroke-width="0" transform="translate(237.5 5)"></path><text dominant-baseline="central" fill="#333" style="font-size:23px;font-family:sans-serif;font-weight:bolder;" text-anchor="middle" transform="translate(237.5 5)" y="11.5">C240</text></g></svg>