<svg baseprofile="full" height="250" style="position:absolute;left:0;top:0;user-select:none" version="1.1" width="475" xmlns="http://www.w3.org/2000/svg" xmlns:xlink="http://www.w3.org/1999/xlink"><rect fill="none" height="250" id="0" width="475" x="0" y="0"></rect><g><path d="M210.7089 16.7027L211.2891 233.4866" fill="none" stroke="#aaa" stroke-opacity="0.5"></path><path d="M117.7553 179.5937L211.2891 233.4866" fill="none" stroke="#aaa" stroke-opacity="0.5"></path><path d="M304.981 178.404L304.6961 70.8111" fill="none" stroke="#aaa" stroke-opacity="0.5"></path><path d="M304.6961 70.8111L117.7553 179.5937" fill="none" stroke="#aaa" stroke-opacity="0.5"></path><path d="M304.981 178.404L117.7553 179.5937" fill="none" stroke="#aaa" stroke-opacity="0.5"></path><path d="M117.3249 71.0019L210.7089 16.7027" fill="none" stroke="#aaa" stroke-opacity="0.5"></path><path d="M304.6961 71.5L117.3249 71.5" fill="none" stroke="#aaa" stroke-opacity="0.5"></path><path d="M117.3249 71.0019L211.2891 233.4866" fill="none" stroke="#aaa" stroke-opacity="0.5"></path><path d="M304.981 178.404L117.3249 71.0019" fill="none" stroke="#aaa" stroke-opacity="0.5"></path><path d="M117.7553 179.5937L210.7089 16.7027" fill="none" stroke="#aaa" stroke-opacity="0.5"></path><path d="M304.6961 70.8111L210.7089 16.7027" fill="none" stroke="#aaa" stroke-opacity="0.5"></path><path d="M304.981 178.404L210.7089 16.7027" fill="none" stroke="#aaa" stroke-opacity="0.5"></path><path d="M304.6961 70.8111L211.2891 233.4866" fill="none" stroke="#aaa" stroke-opacity="0.5"></path><path d="M117.3249 71.0019L117.7553 179.5937" fill="none" stroke="#aaa" stroke-opacity="0.5"></path><path d="M304.981 178.404L211.2891 233.4866" fill="none" stroke="#aaa" stroke-opacity="0.5"></path><path d="M1 0A1 1 0 1 1 1 -0.0001" fill="#5470c6" transform="matrix(19.5,0,0,19.5,304.981,178.404)"></path><path d="M1 0A1 1 0 1 1 1 -0.0001" fill="#5470c6" transform="matrix(19.5,0,0,19.5,211.2891,233.4866)"></path><path d="M1 0A1 1 0 1 1 1 -0.0001" fill="#5470c6" transform="matrix(19.5,0,0,19.5,117.7553,179.5937)"></path><path d="M1 0A1 1 0 1 1 1 -0.0001" fill="#5470c6" transform="matrix(19.5,0,0,19.5,117.3249,71.0019)"></path><path d="M1 0A1 1 0 1 1 1 -0.0001" fill="#5470c6" transform="matrix(19.5,0,0,19.5,210.7089,16.7027)"></path><path d="M1 0A1 1 0 1 1 1 -0.0001" fill="#5470c6" transform="matrix(19.5,0,0,19.5,304.6961,70.8111)"></path><path d="M-32.4922 -5l64.9844 0l0 33l-64.9844 0Z" fill="rgb(0,0,0)" fill-opacity="0" stroke="#ccc" stroke-width="0" transform="translate(237.5 5)"></path><text dominant-baseline="central" fill="#333" style="font-size:23px;font-family:sans-serif;font-weight:bolder;" text-anchor="middle" transform="translate(237.5 5)" y="11.5">C241</text></g></svg>