<svg baseprofile="full" height="250" style="position:absolute;left:0;top:0;user-select:none" version="1.1" width="475" xmlns="http://www.w3.org/2000/svg" xmlns:xlink="http://www.w3.org/1999/xlink"><rect fill="none" height="250" id="0" width="475" x="0" y="0"></rect><g><path d="M119.1039 181.254L213.3046 232.9867" fill="none" stroke="#aaa" stroke-opacity="0.5"></path><path d="M209.1758 16.8875L119.1039 181.254" fill="none" stroke="#aaa" stroke-opacity="0.5"></path><path d="M115.9911 72.7493L303.7006 68.9864" fill="none" stroke="#aaa" stroke-opacity="0.5"></path><path d="M305.4792 177.1362L213.3046 232.9867" fill="none" stroke="#aaa" stroke-opacity="0.5"></path><path d="M305.4792 177.1362L119.1039 181.254" fill="none" stroke="#aaa" stroke-opacity="0.5"></path><path d="M115.9911 72.7493L213.3046 232.9867" fill="none" stroke="#aaa" stroke-opacity="0.5"></path><path d="M209.1758 16.8875L303.7006 68.9864" fill="none" stroke="#aaa" stroke-opacity="0.5"></path><path d="M209.1758 16.8875L305.4792 177.1362" fill="none" stroke="#aaa" stroke-opacity="0.5"></path><path d="M303.7006 68.9864L213.3046 232.9867" fill="none" stroke="#aaa" stroke-opacity="0.5"></path><path d="M209.1758 16.8875L213.3046 232.9867" fill="none" stroke="#aaa" stroke-opacity="0.5"></path><path d="M305.4792 177.1362L303.7006 68.9864" fill="none" stroke="#aaa" stroke-opacity="0.5"></path><path d="M305.4792 177.1362L115.9911 72.7493" fill="none" stroke="#aaa" stroke-opacity="0.5"></path><path d="M209.1758 16.8875L115.9911 72.7493" fill="none" stroke="#aaa" stroke-opacity="0.5"></path><path d="M119.1039 181.254L303.7006 68.9864" fill="none" stroke="#aaa" stroke-opacity="0.5"></path><path d="M115.9911 72.7493L119.1039 181.254" fill="none" stroke="#aaa" stroke-opacity="0.5"></path><path d="M1 0A1 1 0 1 1 1 -0.0001" fill="#5470c6" transform="matrix(19.5,0,0,19.5,305.4792,177.1362)"></path><path d="M1 0A1 1 0 1 1 1 -0.0001" fill="#5470c6" transform="matrix(19.5,0,0,19.5,213.3046,232.9867)"></path><path d="M1 0A1 1 0 1 1 1 -0.0001" fill="#5470c6" transform="matrix(19.5,0,0,19.5,119.1039,181.254)"></path><path d="M1 0A1 1 0 1 1 1 -0.0001" fill="#5470c6" transform="matrix(19.5,0,0,19.5,115.9911,72.7493)"></path><path d="M1 0A1 1 0 1 1 1 -0.0001" fill="#5470c6" transform="matrix(19.5,0,0,19.5,209.1758,16.8875)"></path><path d="M1 0A1 1 0 1 1 1 -0.0001" fill="#5470c6" transform="matrix(19.5,0,0,19.5,303.7006,68.9864)"></path><path d="M-32.4922 -5l64.9844 0l0 33l-64.9844 0Z" fill="rgb(0,0,0)" fill-opacity="0" stroke="#ccc" stroke-width="0" transform="translate(237.5 5)"></path><text dominant-baseline="central" fill="#333" style="font-size:23px;font-family:sans-serif;font-weight:bolder;" text-anchor="middle" transform="translate(237.5 5)" y="11.5">C242</text></g></svg>