<svg baseprofile="full" height="250" style="position:absolute;left:0;top:0;user-select:none" version="1.1" width="475" xmlns="http://www.w3.org/2000/svg" xmlns:xlink="http://www.w3.org/1999/xlink"><rect fill="none" height="250" id="0" width="475" x="0" y="0"></rect><g><path d="M303.667 69.5393L305.7727 177.1757" fill="none" stroke="#aaa" stroke-opacity="0.5"></path><path d="M303.667 69.5393L209.4825 17.4377" fill="none" stroke="#aaa" stroke-opacity="0.5"></path><path d="M212.7538 233.2227L116.7259 72.0564" fill="none" stroke="#aaa" stroke-opacity="0.5"></path><path d="M118.3533 180.5682L305.7727 177.1757" fill="none" stroke="#aaa" stroke-opacity="0.5"></path><path d="M209.4825 17.4377L305.7727 177.1757" fill="none" stroke="#aaa" stroke-opacity="0.5"></path><path d="M209.4825 17.4377L116.7259 72.0564" fill="none" stroke="#aaa" stroke-opacity="0.5"></path><path d="M305.7727 177.1757L116.7259 72.0564" fill="none" stroke="#aaa" stroke-opacity="0.5"></path><path d="M212.7538 233.2227L118.3533 180.5682" fill="none" stroke="#aaa" stroke-opacity="0.5"></path><path d="M303.667 69.5393L116.7259 72.0564" fill="none" stroke="#aaa" stroke-opacity="0.5"></path><path d="M303.667 69.5393L212.7538 233.2227" fill="none" stroke="#aaa" stroke-opacity="0.5"></path><path d="M209.4825 17.4377L118.3533 180.5682" fill="none" stroke="#aaa" stroke-opacity="0.5"></path><path d="M212.7538 233.2227L305.7727 177.1757" fill="none" stroke="#aaa" stroke-opacity="0.5"></path><path d="M212.7538 233.2227L209.4825 17.4377" fill="none" stroke="#aaa" stroke-opacity="0.5"></path><path d="M118.3533 180.5682L116.7259 72.0564" fill="none" stroke="#aaa" stroke-opacity="0.5"></path><path d="M303.667 69.5393L118.3533 180.5682" fill="none" stroke="#aaa" stroke-opacity="0.5"></path><path d="M1 0A1 1 0 1 1 1 -0.0001" fill="#5470c6" transform="matrix(19.5,0,0,19.5,305.7727,177.1757)"></path><path d="M1 0A1 1 0 1 1 1 -0.0001" fill="#5470c6" transform="matrix(19.5,0,0,19.5,212.7538,233.2227)"></path><path d="M1 0A1 1 0 1 1 1 -0.0001" fill="#5470c6" transform="matrix(19.5,0,0,19.5,118.3533,180.5682)"></path><path d="M1 0A1 1 0 1 1 1 -0.0001" fill="#5470c6" transform="matrix(19.5,0,0,19.5,116.7259,72.0564)"></path><path d="M1 0A1 1 0 1 1 1 -0.0001" fill="#5470c6" transform="matrix(19.5,0,0,19.5,209.4825,17.4377)"></path><path d="M1 0A1 1 0 1 1 1 -0.0001" fill="#5470c6" transform="matrix(19.5,0,0,19.5,303.667,69.5393)"></path><path d="M-32.4922 -5l64.9844 0l0 33l-64.9844 0Z" fill="rgb(0,0,0)" fill-opacity="0" stroke="#ccc" stroke-width="0" transform="translate(237.5 5)"></path><text dominant-baseline="central" fill="#333" style="font-size:23px;font-family:sans-serif;font-weight:bolder;" text-anchor="middle" transform="translate(237.5 5)" y="11.5">C243</text></g></svg>