<svg baseprofile="full" height="250" style="position:absolute;left:0;top:0;user-select:none" version="1.1" width="475" xmlns="http://www.w3.org/2000/svg" xmlns:xlink="http://www.w3.org/1999/xlink"><rect fill="none" height="250" id="0" width="475" x="0" y="0"></rect><g><path d="M210.633 233.7021L211.6984 16.8458" fill="none" stroke="#aaa" stroke-opacity="0.5"></path><path d="M118.0592 70.6869L117.1998 178.1275" fill="none" stroke="#aaa" stroke-opacity="0.5"></path><path d="M304.7157 71.1188L211.6984 16.8458" fill="none" stroke="#aaa" stroke-opacity="0.5"></path><path d="M210.633 233.7021L304.7157 71.1188" fill="none" stroke="#aaa" stroke-opacity="0.5"></path><path d="M304.4492 179.519L211.6984 16.8458" fill="none" stroke="#aaa" stroke-opacity="0.5"></path><path d="M304.4492 179.519L117.1998 178.1275" fill="none" stroke="#aaa" stroke-opacity="0.5"></path><path d="M118.0592 70.6869L211.6984 16.8458" fill="none" stroke="#aaa" stroke-opacity="0.5"></path><path d="M304.4492 179.519L210.633 233.7021" fill="none" stroke="#aaa" stroke-opacity="0.5"></path><path d="M304.5 179.519L304.5 71.1188" fill="none" stroke="#aaa" stroke-opacity="0.5"></path><path d="M118.0592 70.6869L210.633 233.7021" fill="none" stroke="#aaa" stroke-opacity="0.5"></path><path d="M118.0592 70.6869L304.7157 71.1188" fill="none" stroke="#aaa" stroke-opacity="0.5"></path><path d="M117.1998 178.1275L211.6984 16.8458" fill="none" stroke="#aaa" stroke-opacity="0.5"></path><path d="M304.4492 179.519L118.0592 70.6869" fill="none" stroke="#aaa" stroke-opacity="0.5"></path><path d="M117.1998 178.1275L210.633 233.7021" fill="none" stroke="#aaa" stroke-opacity="0.5"></path><path d="M117.1998 178.1275L304.7157 71.1188" fill="none" stroke="#aaa" stroke-opacity="0.5"></path><path d="M1 0A1 1 0 1 1 1 -0.0001" fill="#5470c6" transform="matrix(19.5,0,0,19.5,304.4492,179.519)"></path><path d="M1 0A1 1 0 1 1 1 -0.0001" fill="#5470c6" transform="matrix(19.5,0,0,19.5,210.633,233.7021)"></path><path d="M1 0A1 1 0 1 1 1 -0.0001" fill="#5470c6" transform="matrix(19.5,0,0,19.5,117.1998,178.1275)"></path><path d="M1 0A1 1 0 1 1 1 -0.0001" fill="#5470c6" transform="matrix(19.5,0,0,19.5,118.0592,70.6869)"></path><path d="M1 0A1 1 0 1 1 1 -0.0001" fill="#5470c6" transform="matrix(19.5,0,0,19.5,211.6984,16.8458)"></path><path d="M1 0A1 1 0 1 1 1 -0.0001" fill="#5470c6" transform="matrix(19.5,0,0,19.5,304.7157,71.1188)"></path><path d="M-32.4922 -5l64.9844 0l0 33l-64.9844 0Z" fill="rgb(0,0,0)" fill-opacity="0" stroke="#ccc" stroke-width="0" transform="translate(237.5 5)"></path><text dominant-baseline="central" fill="#333" style="font-size:23px;font-family:sans-serif;font-weight:bolder;" text-anchor="middle" transform="translate(237.5 5)" y="11.5">C244</text></g></svg>