<svg baseprofile="full" height="250" style="position:absolute;left:0;top:0;user-select:none" version="1.1" width="475" xmlns="http://www.w3.org/2000/svg" xmlns:xlink="http://www.w3.org/1999/xlink"><rect fill="none" height="250" id="0" width="475" x="0" y="0"></rect><g><path d="M304.3938 70.3343L116.8328 72.0395" fill="none" stroke="#aaa" stroke-opacity="0.5"></path><path d="M209.8062 16.6872L212.1851 233.1137" fill="none" stroke="#aaa" stroke-opacity="0.5"></path><path d="M304.3938 70.3343L304.9952 178.1092" fill="none" stroke="#aaa" stroke-opacity="0.5"></path><path d="M209.8062 16.6872L116.8328 72.0395" fill="none" stroke="#aaa" stroke-opacity="0.5"></path><path d="M209.8062 16.6872L304.9952 178.1092" fill="none" stroke="#aaa" stroke-opacity="0.5"></path><path d="M304.9952 178.1092L212.1851 233.1137" fill="none" stroke="#aaa" stroke-opacity="0.5"></path><path d="M304.3938 70.3343L212.1851 233.1137" fill="none" stroke="#aaa" stroke-opacity="0.5"></path><path d="M116.8328 72.0395L118.5421 179.7161" fill="none" stroke="#aaa" stroke-opacity="0.5"></path><path d="M212.1851 233.1137L118.5421 179.7161" fill="none" stroke="#aaa" stroke-opacity="0.5"></path><path d="M209.8062 16.6872L118.5421 179.7161" fill="none" stroke="#aaa" stroke-opacity="0.5"></path><path d="M212.1851 233.1137L116.8328 72.0395" fill="none" stroke="#aaa" stroke-opacity="0.5"></path><path d="M304.9952 178.1092L118.5421 179.7161" fill="none" stroke="#aaa" stroke-opacity="0.5"></path><path d="M304.3938 70.3343L209.8062 16.6872" fill="none" stroke="#aaa" stroke-opacity="0.5"></path><path d="M304.9952 178.1092L116.8328 72.0395" fill="none" stroke="#aaa" stroke-opacity="0.5"></path><path d="M304.3938 70.3343L118.5421 179.7161" fill="none" stroke="#aaa" stroke-opacity="0.5"></path><path d="M1 0A1 1 0 1 1 1 -0.0001" fill="#5470c6" transform="matrix(19.5,0,0,19.5,304.9952,178.1092)"></path><path d="M1 0A1 1 0 1 1 1 -0.0001" fill="#5470c6" transform="matrix(19.5,0,0,19.5,212.1851,233.1137)"></path><path d="M1 0A1 1 0 1 1 1 -0.0001" fill="#5470c6" transform="matrix(19.5,0,0,19.5,118.5421,179.7161)"></path><path d="M1 0A1 1 0 1 1 1 -0.0001" fill="#5470c6" transform="matrix(19.5,0,0,19.5,116.8328,72.0395)"></path><path d="M1 0A1 1 0 1 1 1 -0.0001" fill="#5470c6" transform="matrix(19.5,0,0,19.5,209.8062,16.6872)"></path><path d="M1 0A1 1 0 1 1 1 -0.0001" fill="#5470c6" transform="matrix(19.5,0,0,19.5,304.3938,70.3343)"></path><path d="M-32.4922 -5l64.9844 0l0 33l-64.9844 0Z" fill="rgb(0,0,0)" fill-opacity="0" stroke="#ccc" stroke-width="0" transform="translate(237.5 5)"></path><text dominant-baseline="central" fill="#333" style="font-size:23px;font-family:sans-serif;font-weight:bolder;" text-anchor="middle" transform="translate(237.5 5)" y="11.5">C245</text></g></svg>