<svg baseprofile="full" height="250" style="position:absolute;left:0;top:0;user-select:none" version="1.1" width="475" xmlns="http://www.w3.org/2000/svg" xmlns:xlink="http://www.w3.org/1999/xlink"><rect fill="none" height="250" id="0" width="475" x="0" y="0"></rect><g><path d="M303.2098 181.8839L208.4519 232.9345" fill="none" stroke="#aaa" stroke-opacity="0.5"></path><path d="M118.5901 68.3741L208.4519 232.9345" fill="none" stroke="#aaa" stroke-opacity="0.5"></path><path d="M116.34 176.7557L208.4519 232.9345" fill="none" stroke="#aaa" stroke-opacity="0.5"></path><path d="M118.5901 68.3741L303.2098 181.8839" fill="none" stroke="#aaa" stroke-opacity="0.5"></path><path d="M303.2098 181.8839L214.1636 16.7504" fill="none" stroke="#aaa" stroke-opacity="0.5"></path><path d="M116.34 176.7557L303.2098 181.8839" fill="none" stroke="#aaa" stroke-opacity="0.5"></path><path d="M116.34 176.7557L214.1636 16.7504" fill="none" stroke="#aaa" stroke-opacity="0.5"></path><path d="M214.1636 16.7504L305.9998 73.3013" fill="none" stroke="#aaa" stroke-opacity="0.5"></path><path d="M208.4519 232.9345L305.9998 73.3013" fill="none" stroke="#aaa" stroke-opacity="0.5"></path><path d="M303.2098 181.8839L305.9998 73.3013" fill="none" stroke="#aaa" stroke-opacity="0.5"></path><path d="M118.5901 68.3741L305.9998 73.3013" fill="none" stroke="#aaa" stroke-opacity="0.5"></path><path d="M116.34 176.7557L305.9998 73.3013" fill="none" stroke="#aaa" stroke-opacity="0.5"></path><path d="M118.5901 68.3741L116.34 176.7557" fill="none" stroke="#aaa" stroke-opacity="0.5"></path><path d="M214.1636 16.7504L208.4519 232.9345" fill="none" stroke="#aaa" stroke-opacity="0.5"></path><path d="M118.5901 68.3741L214.1636 16.7504" fill="none" stroke="#aaa" stroke-opacity="0.5"></path><path d="M1 0A1 1 0 1 1 1 -0.0001" fill="#5470c6" transform="matrix(19.5,0,0,19.5,303.2098,181.8839)"></path><path d="M1 0A1 1 0 1 1 1 -0.0001" fill="#5470c6" transform="matrix(19.5,0,0,19.5,208.4519,232.9345)"></path><path d="M1 0A1 1 0 1 1 1 -0.0001" fill="#5470c6" transform="matrix(19.5,0,0,19.5,116.34,176.7557)"></path><path d="M1 0A1 1 0 1 1 1 -0.0001" fill="#5470c6" transform="matrix(19.5,0,0,19.5,118.5901,68.3741)"></path><path d="M1 0A1 1 0 1 1 1 -0.0001" fill="#5470c6" transform="matrix(19.5,0,0,19.5,214.1636,16.7504)"></path><path d="M1 0A1 1 0 1 1 1 -0.0001" fill="#5470c6" transform="matrix(19.5,0,0,19.5,305.9998,73.3013)"></path><path d="M-32.4922 -5l64.9844 0l0 33l-64.9844 0Z" fill="rgb(0,0,0)" fill-opacity="0" stroke="#ccc" stroke-width="0" transform="translate(237.5 5)"></path><text dominant-baseline="central" fill="#333" style="font-size:23px;font-family:sans-serif;font-weight:bolder;" text-anchor="middle" transform="translate(237.5 5)" y="11.5">C246</text></g></svg>