<svg baseprofile="full" height="250" style="position:absolute;left:0;top:0;user-select:none" version="1.1" width="475" xmlns="http://www.w3.org/2000/svg" xmlns:xlink="http://www.w3.org/1999/xlink"><rect fill="none" height="250" id="0" width="475" x="0" y="0"></rect><g><path d="M119.3397 181.6581L115.6192 74.3181" fill="none" stroke="#aaa" stroke-opacity="0.5"></path><path d="M119.3397 181.6581L207.7069 16.9486" fill="none" stroke="#aaa" stroke-opacity="0.5"></path><path d="M303.5418 67.7185L214.5783 233.3482" fill="none" stroke="#aaa" stroke-opacity="0.5"></path><path d="M305.9693 176.0084L214.5783 233.3482" fill="none" stroke="#aaa" stroke-opacity="0.5"></path><path d="M119.3397 181.6581L303.5418 67.7185" fill="none" stroke="#aaa" stroke-opacity="0.5"></path><path d="M207.7069 16.9486L214.5783 233.3482" fill="none" stroke="#aaa" stroke-opacity="0.5"></path><path d="M119.3397 181.6581L214.5783 233.3482" fill="none" stroke="#aaa" stroke-opacity="0.5"></path><path d="M303.5418 67.7185L305.9693 176.0084" fill="none" stroke="#aaa" stroke-opacity="0.5"></path><path d="M214.5783 233.3482L115.6192 74.3181" fill="none" stroke="#aaa" stroke-opacity="0.5"></path><path d="M119.3397 181.6581L305.9693 176.0084" fill="none" stroke="#aaa" stroke-opacity="0.5"></path><path d="M303.5418 67.7185L115.6192 74.3181" fill="none" stroke="#aaa" stroke-opacity="0.5"></path><path d="M303.5418 67.7185L207.7069 16.9486" fill="none" stroke="#aaa" stroke-opacity="0.5"></path><path d="M305.9693 176.0084L115.6192 74.3181" fill="none" stroke="#aaa" stroke-opacity="0.5"></path><path d="M207.7069 16.9486L115.6192 74.3181" fill="none" stroke="#aaa" stroke-opacity="0.5"></path><path d="M305.9693 176.0084L207.7069 16.9486" fill="none" stroke="#aaa" stroke-opacity="0.5"></path><path d="M1 0A1 1 0 1 1 1 -0.0001" fill="#5470c6" transform="matrix(19.5,0,0,19.5,305.9693,176.0084)"></path><path d="M1 0A1 1 0 1 1 1 -0.0001" fill="#5470c6" transform="matrix(19.5,0,0,19.5,214.5783,233.3482)"></path><path d="M1 0A1 1 0 1 1 1 -0.0001" fill="#5470c6" transform="matrix(19.5,0,0,19.5,119.3397,181.6581)"></path><path d="M1 0A1 1 0 1 1 1 -0.0001" fill="#5470c6" transform="matrix(19.5,0,0,19.5,115.6192,74.3181)"></path><path d="M1 0A1 1 0 1 1 1 -0.0001" fill="#5470c6" transform="matrix(19.5,0,0,19.5,207.7069,16.9486)"></path><path d="M1 0A1 1 0 1 1 1 -0.0001" fill="#5470c6" transform="matrix(19.5,0,0,19.5,303.5418,67.7185)"></path><path d="M-32.4922 -5l64.9844 0l0 33l-64.9844 0Z" fill="rgb(0,0,0)" fill-opacity="0" stroke="#ccc" stroke-width="0" transform="translate(237.5 5)"></path><text dominant-baseline="central" fill="#333" style="font-size:23px;font-family:sans-serif;font-weight:bolder;" text-anchor="middle" transform="translate(237.5 5)" y="11.5">C247</text></g></svg>