<svg baseprofile="full" height="250" style="position:absolute;left:0;top:0;user-select:none" version="1.1" width="475" xmlns="http://www.w3.org/2000/svg" xmlns:xlink="http://www.w3.org/1999/xlink"><rect fill="none" height="250" id="0" width="475" x="0" y="0"></rect><g><path d="M212.4319 233.0945L118.6874 180.0818" fill="none" stroke="#aaa" stroke-opacity="0.5"></path><path d="M209.4731 17.4165L116.6921 71.9196" fill="none" stroke="#aaa" stroke-opacity="0.5"></path><path d="M212.4319 233.0945L116.6921 71.9196" fill="none" stroke="#aaa" stroke-opacity="0.5"></path><path d="M116.6921 71.9196L118.6874 180.0818" fill="none" stroke="#aaa" stroke-opacity="0.5"></path><path d="M303.9078 69.7376L116.6921 71.9196" fill="none" stroke="#aaa" stroke-opacity="0.5"></path><path d="M305.5629 177.75L116.6921 71.9196" fill="none" stroke="#aaa" stroke-opacity="0.5"></path><path d="M212.4319 233.0945L305.5629 177.75" fill="none" stroke="#aaa" stroke-opacity="0.5"></path><path d="M303.9078 69.7376L305.5629 177.75" fill="none" stroke="#aaa" stroke-opacity="0.5"></path><path d="M303.9078 69.7376L209.4731 17.4165" fill="none" stroke="#aaa" stroke-opacity="0.5"></path><path d="M209.4731 17.4165L118.6874 180.0818" fill="none" stroke="#aaa" stroke-opacity="0.5"></path><path d="M209.4731 17.4165L212.4319 233.0945" fill="none" stroke="#aaa" stroke-opacity="0.5"></path><path d="M303.9078 69.7376L118.6874 180.0818" fill="none" stroke="#aaa" stroke-opacity="0.5"></path><path d="M305.5629 177.75L118.6874 180.0818" fill="none" stroke="#aaa" stroke-opacity="0.5"></path><path d="M209.4731 17.4165L305.5629 177.75" fill="none" stroke="#aaa" stroke-opacity="0.5"></path><path d="M303.9078 69.7376L212.4319 233.0945" fill="none" stroke="#aaa" stroke-opacity="0.5"></path><path d="M1 0A1 1 0 1 1 1 -0.0001" fill="#5470c6" transform="matrix(19.5,0,0,19.5,305.5629,177.75)"></path><path d="M1 0A1 1 0 1 1 1 -0.0001" fill="#5470c6" transform="matrix(19.5,0,0,19.5,212.4319,233.0945)"></path><path d="M1 0A1 1 0 1 1 1 -0.0001" fill="#5470c6" transform="matrix(19.5,0,0,19.5,118.6874,180.0818)"></path><path d="M1 0A1 1 0 1 1 1 -0.0001" fill="#5470c6" transform="matrix(19.5,0,0,19.5,116.6921,71.9196)"></path><path d="M1 0A1 1 0 1 1 1 -0.0001" fill="#5470c6" transform="matrix(19.5,0,0,19.5,209.4731,17.4165)"></path><path d="M1 0A1 1 0 1 1 1 -0.0001" fill="#5470c6" transform="matrix(19.5,0,0,19.5,303.9078,69.7376)"></path><path d="M-32.4922 -5l64.9844 0l0 33l-64.9844 0Z" fill="rgb(0,0,0)" fill-opacity="0" stroke="#ccc" stroke-width="0" transform="translate(237.5 5)"></path><text dominant-baseline="central" fill="#333" style="font-size:23px;font-family:sans-serif;font-weight:bolder;" text-anchor="middle" transform="translate(237.5 5)" y="11.5">C249</text></g></svg>