<svg baseprofile="full" height="250" style="position:absolute;left:0;top:0;user-select:none" version="1.1" width="475" xmlns="http://www.w3.org/2000/svg" xmlns:xlink="http://www.w3.org/1999/xlink"><rect fill="none" height="250" id="0" width="475" x="0" y="0"></rect><g><path d="M207.4656 16.8368L306.51 176.1065" fill="none" stroke="#aaa" stroke-opacity="0.5"></path><path d="M207.4656 16.8368L116.1559 73.9595" fill="none" stroke="#aaa" stroke-opacity="0.5"></path><path d="M207.4656 16.8368L214.2057 233.1227" fill="none" stroke="#aaa" stroke-opacity="0.5"></path><path d="M118.9282 181.9038L306.51 176.1065" fill="none" stroke="#aaa" stroke-opacity="0.5"></path><path d="M303.4898 68.0708L118.9282 181.9038" fill="none" stroke="#aaa" stroke-opacity="0.5"></path><path d="M118.9282 181.9038L116.1559 73.9595" fill="none" stroke="#aaa" stroke-opacity="0.5"></path><path d="M118.9282 181.9038L214.2057 233.1227" fill="none" stroke="#aaa" stroke-opacity="0.5"></path><path d="M303.4898 68.0708L306.51 176.1065" fill="none" stroke="#aaa" stroke-opacity="0.5"></path><path d="M303.4898 68.0708L116.1559 73.9595" fill="none" stroke="#aaa" stroke-opacity="0.5"></path><path d="M207.4656 16.8368L118.9282 181.9038" fill="none" stroke="#aaa" stroke-opacity="0.5"></path><path d="M303.4898 68.0708L214.2057 233.1227" fill="none" stroke="#aaa" stroke-opacity="0.5"></path><path d="M214.2057 233.1227L116.1559 73.9595" fill="none" stroke="#aaa" stroke-opacity="0.5"></path><path d="M303.4898 68.0708L207.4656 16.8368" fill="none" stroke="#aaa" stroke-opacity="0.5"></path><path d="M306.51 176.1065L116.1559 73.9595" fill="none" stroke="#aaa" stroke-opacity="0.5"></path><path d="M306.51 176.1065L214.2057 233.1227" fill="none" stroke="#aaa" stroke-opacity="0.5"></path><path d="M1 0A1 1 0 1 1 1 -0.0001" fill="#5470c6" transform="matrix(19.5,0,0,19.5,306.51,176.1065)"></path><path d="M1 0A1 1 0 1 1 1 -0.0001" fill="#5470c6" transform="matrix(19.5,0,0,19.5,214.2057,233.1227)"></path><path d="M1 0A1 1 0 1 1 1 -0.0001" fill="#5470c6" transform="matrix(19.5,0,0,19.5,118.9282,181.9038)"></path><path d="M1 0A1 1 0 1 1 1 -0.0001" fill="#5470c6" transform="matrix(19.5,0,0,19.5,116.1559,73.9595)"></path><path d="M1 0A1 1 0 1 1 1 -0.0001" fill="#5470c6" transform="matrix(19.5,0,0,19.5,207.4656,16.8368)"></path><path d="M1 0A1 1 0 1 1 1 -0.0001" fill="#5470c6" transform="matrix(19.5,0,0,19.5,303.4898,68.0708)"></path><path d="M-32.4922 -5l64.9844 0l0 33l-64.9844 0Z" fill="rgb(0,0,0)" fill-opacity="0" stroke="#ccc" stroke-width="0" transform="translate(237.5 5)"></path><text dominant-baseline="central" fill="#333" style="font-size:23px;font-family:sans-serif;font-weight:bolder;" text-anchor="middle" transform="translate(237.5 5)" y="11.5">C250</text></g></svg>