<svg baseprofile="full" height="250" style="position:absolute;left:0;top:0;user-select:none" version="1.1" width="475" xmlns="http://www.w3.org/2000/svg" xmlns:xlink="http://www.w3.org/1999/xlink"><rect fill="none" height="250" id="0" width="475" x="0" y="0"></rect><g><path d="M302.1147 192.3624L175.3902 232.5492" fill="none" stroke="#aaa" stroke-opacity="0.5"></path><path d="M302.1147 192.3624L97.6227 124.1307" fill="none" stroke="#aaa" stroke-opacity="0.5"></path><path d="M175.3902 232.5492L176.9551 16.7" fill="none" stroke="#aaa" stroke-opacity="0.5"></path><path d="M302.1147 192.3624L303.5467 59.2577" fill="none" stroke="#aaa" stroke-opacity="0.5"></path><path d="M302.1147 192.3624L176.9551 16.7" fill="none" stroke="#aaa" stroke-opacity="0.5"></path><path d="M97.6227 124.1307L303.5467 59.2577" fill="none" stroke="#aaa" stroke-opacity="0.5"></path><path d="M175.3902 232.5492L97.6227 124.1307" fill="none" stroke="#aaa" stroke-opacity="0.5"></path><path d="M175.3902 232.5492L303.5467 59.2577" fill="none" stroke="#aaa" stroke-opacity="0.5"></path><path d="M303.5467 59.2577L176.9551 16.7" fill="none" stroke="#aaa" stroke-opacity="0.5"></path><path d="M97.6227 124.1307L176.9551 16.7" fill="none" stroke="#aaa" stroke-opacity="0.5"></path><path d="M1 0A1 1 0 1 1 1 -0.0001" fill="#5470c6" transform="matrix(19.5,0,0,19.5,302.1147,192.3624)"></path><path d="M1 0A1 1 0 1 1 1 -0.0001" fill="#5470c6" transform="matrix(19.5,0,0,19.5,175.3902,232.5492)"></path><path d="M1 0A1 1 0 1 1 1 -0.0001" fill="#5470c6" transform="matrix(19.5,0,0,19.5,97.6227,124.1307)"></path><path d="M1 0A1 1 0 1 1 1 -0.0001" fill="#5470c6" transform="matrix(19.5,0,0,19.5,176.9551,16.7)"></path><path d="M1 0A1 1 0 1 1 1 -0.0001" fill="#5470c6" transform="matrix(19.5,0,0,19.5,303.5467,59.2577)"></path><path d="M-32.4922 -5l64.9844 0l0 33l-64.9844 0Z" fill="rgb(0,0,0)" fill-opacity="0" stroke="#ccc" stroke-width="0" transform="translate(237.5 5)"></path><text dominant-baseline="central" fill="#333" style="font-size:23px;font-family:sans-serif;font-weight:bolder;" text-anchor="middle" transform="translate(237.5 5)" y="11.5">C251</text></g></svg>