<svg baseprofile="full" height="250" style="position:absolute;left:0;top:0;user-select:none" version="1.1" width="475" xmlns="http://www.w3.org/2000/svg" xmlns:xlink="http://www.w3.org/1999/xlink"><rect fill="none" height="250" id="0" width="475" x="0" y="0"></rect><g><path d="M302.5727 191.7476L175.9962 232.7883" fill="none" stroke="#aaa" stroke-opacity="0.5"></path><path d="M175.9962 232.7883L176.5552 17.074" fill="none" stroke="#aaa" stroke-opacity="0.5"></path><path d="M302.5727 191.7476L97.7832 124.5003" fill="none" stroke="#aaa" stroke-opacity="0.5"></path><path d="M175.9962 232.7883L97.7832 124.5003" fill="none" stroke="#aaa" stroke-opacity="0.5"></path><path d="M302.5 191.7476L302.5 58.8898" fill="none" stroke="#aaa" stroke-opacity="0.5"></path><path d="M176.5552 17.074L97.7832 124.5003" fill="none" stroke="#aaa" stroke-opacity="0.5"></path><path d="M302.7221 58.8898L176.5552 17.074" fill="none" stroke="#aaa" stroke-opacity="0.5"></path><path d="M175.9962 232.7883L302.7221 58.8898" fill="none" stroke="#aaa" stroke-opacity="0.5"></path><path d="M302.7221 58.8898L97.7832 124.5003" fill="none" stroke="#aaa" stroke-opacity="0.5"></path><path d="M302.5727 191.7476L176.5552 17.074" fill="none" stroke="#aaa" stroke-opacity="0.5"></path><path d="M1 0A1 1 0 1 1 1 -0.0001" fill="#5470c6" transform="matrix(19.5,0,0,19.5,302.5727,191.7476)"></path><path d="M1 0A1 1 0 1 1 1 -0.0001" fill="#5470c6" transform="matrix(19.5,0,0,19.5,175.9962,232.7883)"></path><path d="M1 0A1 1 0 1 1 1 -0.0001" fill="#5470c6" transform="matrix(19.5,0,0,19.5,97.7832,124.5003)"></path><path d="M1 0A1 1 0 1 1 1 -0.0001" fill="#5470c6" transform="matrix(19.5,0,0,19.5,176.5552,17.074)"></path><path d="M1 0A1 1 0 1 1 1 -0.0001" fill="#5470c6" transform="matrix(19.5,0,0,19.5,302.7221,58.8898)"></path><path d="M-32.4922 -5l64.9844 0l0 33l-64.9844 0Z" fill="rgb(0,0,0)" fill-opacity="0" stroke="#ccc" stroke-width="0" transform="translate(237.5 5)"></path><text dominant-baseline="central" fill="#333" style="font-size:23px;font-family:sans-serif;font-weight:bolder;" text-anchor="middle" transform="translate(237.5 5)" y="11.5">C252</text></g></svg>