<svg baseprofile="full" height="250" style="position:absolute;left:0;top:0;user-select:none" version="1.1" width="475" xmlns="http://www.w3.org/2000/svg" xmlns:xlink="http://www.w3.org/1999/xlink"><rect fill="none" height="250" id="0" width="475" x="0" y="0"></rect><g><path d="M176.8132 232.6546L97.6545 125.9049" fill="none" stroke="#aaa" stroke-opacity="0.5"></path><path d="M303.1631 191.3298L176.8132 232.6546" fill="none" stroke="#aaa" stroke-opacity="0.5"></path><path d="M302.2588 57.7921L175.7398 17.3185" fill="none" stroke="#aaa" stroke-opacity="0.5"></path><path d="M176.8132 232.6546L302.2588 57.7921" fill="none" stroke="#aaa" stroke-opacity="0.5"></path><path d="M176.8132 232.6546L175.7398 17.3185" fill="none" stroke="#aaa" stroke-opacity="0.5"></path><path d="M302.2588 57.7921L97.6545 125.9049" fill="none" stroke="#aaa" stroke-opacity="0.5"></path><path d="M303.1631 191.3298L175.7398 17.3185" fill="none" stroke="#aaa" stroke-opacity="0.5"></path><path d="M303.1631 191.3298L97.6545 125.9049" fill="none" stroke="#aaa" stroke-opacity="0.5"></path><path d="M97.6545 125.9049L175.7398 17.3185" fill="none" stroke="#aaa" stroke-opacity="0.5"></path><path d="M303.1631 191.3298L302.2588 57.7921" fill="none" stroke="#aaa" stroke-opacity="0.5"></path><path d="M1 0A1 1 0 1 1 1 -0.0001" fill="#5470c6" transform="matrix(19.5,0,0,19.5,303.1631,191.3298)"></path><path d="M1 0A1 1 0 1 1 1 -0.0001" fill="#5470c6" transform="matrix(19.5,0,0,19.5,176.8132,232.6546)"></path><path d="M1 0A1 1 0 1 1 1 -0.0001" fill="#5470c6" transform="matrix(19.5,0,0,19.5,97.6545,125.9049)"></path><path d="M1 0A1 1 0 1 1 1 -0.0001" fill="#5470c6" transform="matrix(19.5,0,0,19.5,175.7398,17.3185)"></path><path d="M1 0A1 1 0 1 1 1 -0.0001" fill="#5470c6" transform="matrix(19.5,0,0,19.5,302.2588,57.7921)"></path><path d="M-32.4922 -5l64.9844 0l0 33l-64.9844 0Z" fill="rgb(0,0,0)" fill-opacity="0" stroke="#ccc" stroke-width="0" transform="translate(237.5 5)"></path><text dominant-baseline="central" fill="#333" style="font-size:23px;font-family:sans-serif;font-weight:bolder;" text-anchor="middle" transform="translate(237.5 5)" y="11.5">C253</text></g></svg>