<svg baseprofile="full" height="250" style="position:absolute;left:0;top:0;user-select:none" version="1.1" width="475" xmlns="http://www.w3.org/2000/svg" xmlns:xlink="http://www.w3.org/1999/xlink"><rect fill="none" height="250" id="0" width="475" x="0" y="0"></rect><g><path d="M175.1946 232.3108L98.062 124.1048" fill="none" stroke="#aaa" stroke-opacity="0.5"></path><path d="M177.1978 17.1039L303.113 59.3246" fill="none" stroke="#aaa" stroke-opacity="0.5"></path><path d="M98.062 124.1048L177.1978 17.1039" fill="none" stroke="#aaa" stroke-opacity="0.5"></path><path d="M302.062 192.1559L303.113 59.3246" fill="none" stroke="#aaa" stroke-opacity="0.5"></path><path d="M302.062 192.1559L175.1946 232.3108" fill="none" stroke="#aaa" stroke-opacity="0.5"></path><path d="M98.062 124.1048L303.113 59.3246" fill="none" stroke="#aaa" stroke-opacity="0.5"></path><path d="M175.1946 232.3108L303.113 59.3246" fill="none" stroke="#aaa" stroke-opacity="0.5"></path><path d="M302.062 192.1559L177.1978 17.1039" fill="none" stroke="#aaa" stroke-opacity="0.5"></path><path d="M175.1946 232.3108L177.1978 17.1039" fill="none" stroke="#aaa" stroke-opacity="0.5"></path><path d="M302.062 192.1559L98.062 124.1048" fill="none" stroke="#aaa" stroke-opacity="0.5"></path><path d="M1 0A1 1 0 1 1 1 -0.0001" fill="#5470c6" transform="matrix(19.5,0,0,19.5,302.062,192.1559)"></path><path d="M1 0A1 1 0 1 1 1 -0.0001" fill="#5470c6" transform="matrix(19.5,0,0,19.5,175.1946,232.3108)"></path><path d="M1 0A1 1 0 1 1 1 -0.0001" fill="#5470c6" transform="matrix(19.5,0,0,19.5,98.062,124.1048)"></path><path d="M1 0A1 1 0 1 1 1 -0.0001" fill="#5470c6" transform="matrix(19.5,0,0,19.5,177.1978,17.1039)"></path><path d="M1 0A1 1 0 1 1 1 -0.0001" fill="#5470c6" transform="matrix(19.5,0,0,19.5,303.113,59.3246)"></path><path d="M-32.4922 -5l64.9844 0l0 33l-64.9844 0Z" fill="rgb(0,0,0)" fill-opacity="0" stroke="#ccc" stroke-width="0" transform="translate(237.5 5)"></path><text dominant-baseline="central" fill="#333" style="font-size:23px;font-family:sans-serif;font-weight:bolder;" text-anchor="middle" transform="translate(237.5 5)" y="11.5">C254</text></g></svg>