<svg baseprofile="full" height="250" style="position:absolute;left:0;top:0;user-select:none" version="1.1" width="475" xmlns="http://www.w3.org/2000/svg" xmlns:xlink="http://www.w3.org/1999/xlink"><rect fill="none" height="250" id="0" width="475" x="0" y="0"></rect><g><path d="M302.1163 192.6887L175.2032 232.1914" fill="none" stroke="#aaa" stroke-opacity="0.5"></path><path d="M175.2032 232.1914L98.0363 124.1067" fill="none" stroke="#aaa" stroke-opacity="0.5"></path><path d="M176.7017 16.9647L98.0363 124.1067" fill="none" stroke="#aaa" stroke-opacity="0.5"></path><path d="M303.5719 59.0486L175.2032 232.1914" fill="none" stroke="#aaa" stroke-opacity="0.5"></path><path d="M176.7017 16.9647L175.2032 232.1914" fill="none" stroke="#aaa" stroke-opacity="0.5"></path><path d="M302.1163 192.6887L98.0363 124.1067" fill="none" stroke="#aaa" stroke-opacity="0.5"></path><path d="M302.1163 192.6887L176.7017 16.9647" fill="none" stroke="#aaa" stroke-opacity="0.5"></path><path d="M303.5719 59.0486L98.0363 124.1067" fill="none" stroke="#aaa" stroke-opacity="0.5"></path><path d="M303.5719 59.0486L302.1163 192.6887" fill="none" stroke="#aaa" stroke-opacity="0.5"></path><path d="M303.5719 59.0486L176.7017 16.9647" fill="none" stroke="#aaa" stroke-opacity="0.5"></path><path d="M1 0A1 1 0 1 1 1 -0.0001" fill="#5470c6" transform="matrix(19.5,0,0,19.5,302.1163,192.6887)"></path><path d="M1 0A1 1 0 1 1 1 -0.0001" fill="#5470c6" transform="matrix(19.5,0,0,19.5,175.2032,232.1914)"></path><path d="M1 0A1 1 0 1 1 1 -0.0001" fill="#5470c6" transform="matrix(19.5,0,0,19.5,98.0363,124.1067)"></path><path d="M1 0A1 1 0 1 1 1 -0.0001" fill="#5470c6" transform="matrix(19.5,0,0,19.5,176.7017,16.9647)"></path><path d="M1 0A1 1 0 1 1 1 -0.0001" fill="#5470c6" transform="matrix(19.5,0,0,19.5,303.5719,59.0486)"></path><path d="M-32.4922 -5l64.9844 0l0 33l-64.9844 0Z" fill="rgb(0,0,0)" fill-opacity="0" stroke="#ccc" stroke-width="0" transform="translate(237.5 5)"></path><text dominant-baseline="central" fill="#333" style="font-size:23px;font-family:sans-serif;font-weight:bolder;" text-anchor="middle" transform="translate(237.5 5)" y="11.5">C255</text></g></svg>