<svg baseprofile="full" height="250" style="position:absolute;left:0;top:0;user-select:none" version="1.1" width="475" xmlns="http://www.w3.org/2000/svg" xmlns:xlink="http://www.w3.org/1999/xlink"><rect fill="none" height="250" id="0" width="475" x="0" y="0"></rect><g><path d="M175.9323 232.5396L302.568 192.1239" fill="none" stroke="#aaa" stroke-opacity="0.5"></path><path d="M175.9323 232.5396L302.8447 58.5033" fill="none" stroke="#aaa" stroke-opacity="0.5"></path><path d="M302.568 192.1239L97.8705 124.6195" fill="none" stroke="#aaa" stroke-opacity="0.5"></path><path d="M176.4139 17.2137L302.8447 58.5033" fill="none" stroke="#aaa" stroke-opacity="0.5"></path><path d="M302.568 192.1239L176.4139 17.2137" fill="none" stroke="#aaa" stroke-opacity="0.5"></path><path d="M97.8705 124.6195L176.4139 17.2137" fill="none" stroke="#aaa" stroke-opacity="0.5"></path><path d="M302.568 192.1239L302.8447 58.5033" fill="none" stroke="#aaa" stroke-opacity="0.5"></path><path d="M175.9323 232.5396L97.8705 124.6195" fill="none" stroke="#aaa" stroke-opacity="0.5"></path><path d="M175.9323 232.5396L176.4139 17.2137" fill="none" stroke="#aaa" stroke-opacity="0.5"></path><path d="M97.8705 124.6195L302.8447 58.5033" fill="none" stroke="#aaa" stroke-opacity="0.5"></path><path d="M1 0A1 1 0 1 1 1 -0.0001" fill="#5470c6" transform="matrix(19.5,0,0,19.5,302.568,192.1239)"></path><path d="M1 0A1 1 0 1 1 1 -0.0001" fill="#5470c6" transform="matrix(19.5,0,0,19.5,175.9323,232.5396)"></path><path d="M1 0A1 1 0 1 1 1 -0.0001" fill="#5470c6" transform="matrix(19.5,0,0,19.5,97.8705,124.6195)"></path><path d="M1 0A1 1 0 1 1 1 -0.0001" fill="#5470c6" transform="matrix(19.5,0,0,19.5,176.4139,17.2137)"></path><path d="M1 0A1 1 0 1 1 1 -0.0001" fill="#5470c6" transform="matrix(19.5,0,0,19.5,302.8447,58.5033)"></path><path d="M-32.4922 -5l64.9844 0l0 33l-64.9844 0Z" fill="rgb(0,0,0)" fill-opacity="0" stroke="#ccc" stroke-width="0" transform="translate(237.5 5)"></path><text dominant-baseline="central" fill="#333" style="font-size:23px;font-family:sans-serif;font-weight:bolder;" text-anchor="middle" transform="translate(237.5 5)" y="11.5">C257</text></g></svg>