<svg baseprofile="full" height="250" style="position:absolute;left:0;top:0;user-select:none" version="1.1" width="475" xmlns="http://www.w3.org/2000/svg" xmlns:xlink="http://www.w3.org/1999/xlink"><rect fill="none" height="250" id="0" width="475" x="0" y="0"></rect><g><path d="M302.7241 191.2821L176.3649 232.7476" fill="none" stroke="#aaa" stroke-opacity="0.5"></path><path d="M97.9931 124.961L176.0109 17.6487" fill="none" stroke="#aaa" stroke-opacity="0.5"></path><path d="M302.5 191.2821L302.5 58.3607" fill="none" stroke="#aaa" stroke-opacity="0.5"></path><path d="M302.5362 58.3607L176.0109 17.6487" fill="none" stroke="#aaa" stroke-opacity="0.5"></path><path d="M302.7241 191.2821L176.0109 17.6487" fill="none" stroke="#aaa" stroke-opacity="0.5"></path><path d="M302.5362 58.3607L97.9931 124.961" fill="none" stroke="#aaa" stroke-opacity="0.5"></path><path d="M97.9931 124.961L176.3649 232.7476" fill="none" stroke="#aaa" stroke-opacity="0.5"></path><path d="M176.3649 232.7476L176.0109 17.6487" fill="none" stroke="#aaa" stroke-opacity="0.5"></path><path d="M302.7241 191.2821L97.9931 124.961" fill="none" stroke="#aaa" stroke-opacity="0.5"></path><path d="M302.5362 58.3607L176.3649 232.7476" fill="none" stroke="#aaa" stroke-opacity="0.5"></path><path d="M1 0A1 1 0 1 1 1 -0.0001" fill="#5470c6" transform="matrix(19.5,0,0,19.5,302.7241,191.2821)"></path><path d="M1 0A1 1 0 1 1 1 -0.0001" fill="#5470c6" transform="matrix(19.5,0,0,19.5,176.3649,232.7476)"></path><path d="M1 0A1 1 0 1 1 1 -0.0001" fill="#5470c6" transform="matrix(19.5,0,0,19.5,97.9931,124.961)"></path><path d="M1 0A1 1 0 1 1 1 -0.0001" fill="#5470c6" transform="matrix(19.5,0,0,19.5,176.0109,17.6487)"></path><path d="M1 0A1 1 0 1 1 1 -0.0001" fill="#5470c6" transform="matrix(19.5,0,0,19.5,302.5362,58.3607)"></path><path d="M-32.4922 -5l64.9844 0l0 33l-64.9844 0Z" fill="rgb(0,0,0)" fill-opacity="0" stroke="#ccc" stroke-width="0" transform="translate(237.5 5)"></path><text dominant-baseline="central" fill="#333" style="font-size:23px;font-family:sans-serif;font-weight:bolder;" text-anchor="middle" transform="translate(237.5 5)" y="11.5">C258</text></g></svg>