<svg baseprofile="full" height="250" style="position:absolute;left:0;top:0;user-select:none" version="1.1" width="475" xmlns="http://www.w3.org/2000/svg" xmlns:xlink="http://www.w3.org/1999/xlink"><rect fill="none" height="250" id="0" width="475" x="0" y="0"></rect><g><path d="M174.6754 17.2986L303.9415 190.756" fill="none" stroke="#aaa" stroke-opacity="0.5"></path><path d="M174.6754 17.2986L177.5876 233.3786" fill="none" stroke="#aaa" stroke-opacity="0.5"></path><path d="M97.8208 126.2885L303.9415 190.756" fill="none" stroke="#aaa" stroke-opacity="0.5"></path><path d="M174.6754 17.2986L301.6041 57.2783" fill="none" stroke="#aaa" stroke-opacity="0.5"></path><path d="M303.9415 190.756L177.5876 233.3786" fill="none" stroke="#aaa" stroke-opacity="0.5"></path><path d="M97.8208 126.2885L174.6754 17.2986" fill="none" stroke="#aaa" stroke-opacity="0.5"></path><path d="M97.8208 126.2885L177.5876 233.3786" fill="none" stroke="#aaa" stroke-opacity="0.5"></path><path d="M177.5876 233.3786L301.6041 57.2783" fill="none" stroke="#aaa" stroke-opacity="0.5"></path><path d="M303.9415 190.756L301.6041 57.2783" fill="none" stroke="#aaa" stroke-opacity="0.5"></path><path d="M97.8208 126.2885L301.6041 57.2783" fill="none" stroke="#aaa" stroke-opacity="0.5"></path><path d="M1 0A1 1 0 1 1 1 -0.0001" fill="#5470c6" transform="matrix(19.5,0,0,19.5,303.9415,190.756)"></path><path d="M1 0A1 1 0 1 1 1 -0.0001" fill="#5470c6" transform="matrix(19.5,0,0,19.5,177.5876,233.3786)"></path><path d="M1 0A1 1 0 1 1 1 -0.0001" fill="#5470c6" transform="matrix(19.5,0,0,19.5,97.8208,126.2885)"></path><path d="M1 0A1 1 0 1 1 1 -0.0001" fill="#5470c6" transform="matrix(19.5,0,0,19.5,174.6754,17.2986)"></path><path d="M1 0A1 1 0 1 1 1 -0.0001" fill="#5470c6" transform="matrix(19.5,0,0,19.5,301.6041,57.2783)"></path><path d="M-32.4922 -5l64.9844 0l0 33l-64.9844 0Z" fill="rgb(0,0,0)" fill-opacity="0" stroke="#ccc" stroke-width="0" transform="translate(237.5 5)"></path><text dominant-baseline="central" fill="#333" style="font-size:23px;font-family:sans-serif;font-weight:bolder;" text-anchor="middle" transform="translate(237.5 5)" y="11.5">C259</text></g></svg>