<svg baseprofile="full" height="250" style="position:absolute;left:0;top:0;user-select:none" version="1.1" width="475" xmlns="http://www.w3.org/2000/svg" xmlns:xlink="http://www.w3.org/1999/xlink"><rect fill="none" height="250" id="0" width="475" x="0" y="0"></rect><g><path d="M307.5 109.1293L307.5 157.8805" fill="none" stroke="#aaa" stroke-opacity="0.5" stroke-width="0.5"></path><path d="M239.1713 220.2671L213.6974 175.6301" fill="none" stroke="#aaa" stroke-opacity="0.5" stroke-width="0.5"></path><path d="M121.1854 170.0335L112.2571 119.6416" fill="none" stroke="#aaa" stroke-opacity="0.5" stroke-width="0.5"></path><path d="M156.9824 142.476L192.7338 222.3998" fill="none" stroke="#aaa" stroke-opacity="0.5" stroke-width="0.5"></path><path d="M192.7338 222.3998L213.6974 175.6301" fill="none" stroke="#aaa" stroke-opacity="0.5" stroke-width="0.5"></path><path d="M292.1354 64.9949L206.3189 117.3429" fill="none" stroke="#aaa" stroke-opacity="0.5" stroke-width="0.5"></path><path d="M277.2407 197.5889L206.3189 117.3429" fill="none" stroke="#aaa" stroke-opacity="0.5" stroke-width="0.5"></path><path d="M307.1917 109.1293L206.3189 117.3429" fill="none" stroke="#aaa" stroke-opacity="0.5" stroke-width="0.5"></path><path d="M307.1606 157.8805L213.6974 175.6301" fill="none" stroke="#aaa" stroke-opacity="0.5" stroke-width="0.5"></path><path d="M158.1815 36.5249L192.7338 222.3998" fill="none" stroke="#aaa" stroke-opacity="0.5" stroke-width="0.5"></path><path d="M248.8247 83.1206L206.3189 117.3429" fill="none" stroke="#aaa" stroke-opacity="0.5" stroke-width="0.5"></path><path d="M153.1587 202.406L277.2407 197.5889" fill="none" stroke="#aaa" stroke-opacity="0.5" stroke-width="0.5"></path><path d="M277.2407 197.5889L292.1354 64.9949" fill="none" stroke="#aaa" stroke-opacity="0.5" stroke-width="0.5"></path><path d="M153.1587 202.406L112.2571 119.6416" fill="none" stroke="#aaa" stroke-opacity="0.5" stroke-width="0.5"></path><path d="M307.1917 109.1293L292.1354 64.9949" fill="none" stroke="#aaa" stroke-opacity="0.5" stroke-width="0.5"></path><path d="M208.0761 27.4516L277.2407 197.5889" fill="none" stroke="#aaa" stroke-opacity="0.5" stroke-width="0.5"></path><path d="M264.4795 142.5L156.9824 142.5" fill="none" stroke="#aaa" stroke-opacity="0.5" stroke-width="0.5"></path><path d="M208.0761 27.4516L112.2571 119.6416" fill="none" stroke="#aaa" stroke-opacity="0.5" stroke-width="0.5"></path><path d="M248.8247 83.1206L292.1354 64.9949" fill="none" stroke="#aaa" stroke-opacity="0.5" stroke-width="0.5"></path><path d="M307.1917 109.1293L239.1713 220.2671" fill="none" stroke="#aaa" stroke-opacity="0.5" stroke-width="0.5"></path><path d="M307.1917 109.1293L264.4795 142.6767" fill="none" stroke="#aaa" stroke-opacity="0.5" stroke-width="0.5"></path><path d="M176.6679 74.6728L251.568 34.4492" fill="none" stroke="#aaa" stroke-opacity="0.5" stroke-width="0.5"></path><path d="M307.1606 157.8805L192.7338 222.3998" fill="none" stroke="#aaa" stroke-opacity="0.5" stroke-width="0.5"></path><path d="M264.4795 142.6767L192.7338 222.3998" fill="none" stroke="#aaa" stroke-opacity="0.5" stroke-width="0.5"></path><path d="M124.3606 76.3137L251.568 34.4492" fill="none" stroke="#aaa" stroke-opacity="0.5" stroke-width="0.5"></path><path d="M153.1587 202.406L206.3189 117.3429" fill="none" stroke="#aaa" stroke-opacity="0.5" stroke-width="0.5"></path><path d="M208.0761 27.4516L206.3189 117.3429" fill="none" stroke="#aaa" stroke-opacity="0.5" stroke-width="0.5"></path><path d="M176.6679 74.6728L307.1606 157.8805" fill="none" stroke="#aaa" stroke-opacity="0.5" stroke-width="0.5"></path><path d="M176.6679 74.6728L208.0761 27.4516" fill="none" stroke="#aaa" stroke-opacity="0.5" stroke-width="0.5"></path><path d="M112.2571 119.6416L206.3189 117.3429" fill="none" stroke="#aaa" stroke-opacity="0.5" stroke-width="0.5"></path><path d="M153.1587 202.406L292.1354 64.9949" fill="none" stroke="#aaa" stroke-opacity="0.5" stroke-width="0.5"></path><path d="M292.1354 64.9949L213.6974 175.6301" fill="none" stroke="#aaa" stroke-opacity="0.5" stroke-width="0.5"></path><path d="M176.6679 74.6728L112.2571 119.6416" fill="none" stroke="#aaa" stroke-opacity="0.5" stroke-width="0.5"></path><path d="M277.2407 197.5889L213.6974 175.6301" fill="none" stroke="#aaa" stroke-opacity="0.5" stroke-width="0.5"></path><path d="M208.0761 27.4516L292.1354 64.9949" fill="none" stroke="#aaa" stroke-opacity="0.5" stroke-width="0.5"></path><path d="M307.1917 109.1293L213.6974 175.6301" fill="none" stroke="#aaa" stroke-opacity="0.5" stroke-width="0.5"></path><path d="M112.2571 119.6416L292.1354 64.9949" fill="none" stroke="#aaa" stroke-opacity="0.5" stroke-width="0.5"></path><path d="M158.1815 36.5249L277.2407 197.5889" fill="none" stroke="#aaa" stroke-opacity="0.5" stroke-width="0.5"></path><path d="M153.1587 202.406L264.4795 142.6767" fill="none" stroke="#aaa" stroke-opacity="0.5" stroke-width="0.5"></path><path d="M248.8247 83.1206L213.6974 175.6301" fill="none" stroke="#aaa" stroke-opacity="0.5" stroke-width="0.5"></path><path d="M307.1917 109.1293L124.3606 76.3137" fill="none" stroke="#aaa" stroke-opacity="0.5" stroke-width="0.5"></path><path d="M192.7338 222.3998L251.568 34.4492" fill="none" stroke="#aaa" stroke-opacity="0.5" stroke-width="0.5"></path><path d="M307.1917 109.1293L158.1815 36.5249" fill="none" stroke="#aaa" stroke-opacity="0.5" stroke-width="0.5"></path><path d="M112.2571 119.6416L239.1713 220.2671" fill="none" stroke="#aaa" stroke-opacity="0.5" stroke-width="0.5"></path><path d="M156.9824 142.476L206.3189 117.3429" fill="none" stroke="#aaa" stroke-opacity="0.5" stroke-width="0.5"></path><path d="M307.1606 157.8805L251.568 34.4492" fill="none" stroke="#aaa" stroke-opacity="0.5" stroke-width="0.5"></path><path d="M121.1854 170.0335L156.9824 142.476" fill="none" stroke="#aaa" stroke-opacity="0.5" stroke-width="0.5"></path><path d="M277.2407 197.5889L192.7338 222.3998" fill="none" stroke="#aaa" stroke-opacity="0.5" stroke-width="0.5"></path><path d="M156.9824 142.476L292.1354 64.9949" fill="none" stroke="#aaa" stroke-opacity="0.5" stroke-width="0.5"></path><path d="M176.6679 74.6728L239.1713 220.2671" fill="none" stroke="#aaa" stroke-opacity="0.5" stroke-width="0.5"></path><path d="M248.8247 83.1206L192.7338 222.3998" fill="none" stroke="#aaa" stroke-opacity="0.5" stroke-width="0.5"></path><path d="M124.3606 76.3137L239.1713 220.2671" fill="none" stroke="#aaa" stroke-opacity="0.5" stroke-width="0.5"></path><path d="M158.1815 36.5249L206.3189 117.3429" fill="none" stroke="#aaa" stroke-opacity="0.5" stroke-width="0.5"></path><path d="M121.1854 170.0335L192.7338 222.3998" fill="none" stroke="#aaa" stroke-opacity="0.5" stroke-width="0.5"></path><path d="M156.9824 142.476L239.1713 220.2671" fill="none" stroke="#aaa" stroke-opacity="0.5" stroke-width="0.5"></path><path d="M153.1587 202.406L213.6974 175.6301" fill="none" stroke="#aaa" stroke-opacity="0.5" stroke-width="0.5"></path><path d="M208.0761 27.4516L213.6974 175.6301" fill="none" stroke="#aaa" stroke-opacity="0.5" stroke-width="0.5"></path><path d="M158.1815 36.5249L292.1354 64.9949" fill="none" stroke="#aaa" stroke-opacity="0.5" stroke-width="0.5"></path><path d="M112.2571 119.6416L213.6974 175.6301" fill="none" stroke="#aaa" stroke-opacity="0.5" stroke-width="0.5"></path><path d="M206.3189 117.3429L239.1713 220.2671" fill="none" stroke="#aaa" stroke-opacity="0.5" stroke-width="0.5"></path><path d="M251.568 34.4492L292.1354 64.9949" fill="none" stroke="#aaa" stroke-opacity="0.5" stroke-width="0.5"></path><path d="M307.1917 109.1293L248.8247 83.1206" fill="none" stroke="#aaa" stroke-opacity="0.5" stroke-width="0.5"></path><path d="M192.7338 222.3998L239.1713 220.2671" fill="none" stroke="#aaa" stroke-opacity="0.5" stroke-width="0.5"></path><path d="M264.4795 142.6767L292.1354 64.9949" fill="none" stroke="#aaa" stroke-opacity="0.5" stroke-width="0.5"></path><path d="M251.568 34.4492L239.1713 220.2671" fill="none" stroke="#aaa" stroke-opacity="0.5" stroke-width="0.5"></path><path d="M156.9824 142.476L213.6974 175.6301" fill="none" stroke="#aaa" stroke-opacity="0.5" stroke-width="0.5"></path><path d="M307.1917 109.1293L251.568 34.4492" fill="none" stroke="#aaa" stroke-opacity="0.5" stroke-width="0.5"></path><path d="M176.6679 74.6728L158.1815 36.5249" fill="none" stroke="#aaa" stroke-opacity="0.5" stroke-width="0.5"></path><path d="M307.1606 157.8805L239.1713 220.2671" fill="none" stroke="#aaa" stroke-opacity="0.5" stroke-width="0.5"></path><path d="M264.4795 142.6767L239.1713 220.2671" fill="none" stroke="#aaa" stroke-opacity="0.5" stroke-width="0.5"></path><path d="M248.8247 83.1206L251.568 34.4492" fill="none" stroke="#aaa" stroke-opacity="0.5" stroke-width="0.5"></path><path d="M307.1606 157.8805L264.4795 142.6767" fill="none" stroke="#aaa" stroke-opacity="0.5" stroke-width="0.5"></path><path d="M156.9824 142.476L124.3606 76.3137" fill="none" stroke="#aaa" stroke-opacity="0.5" stroke-width="0.5"></path><path d="M307.1917 109.1293L153.1587 202.406" fill="none" stroke="#aaa" stroke-opacity="0.5" stroke-width="0.5"></path><path d="M156.9824 142.476L158.1815 36.5249" fill="none" stroke="#aaa" stroke-opacity="0.5" stroke-width="0.5"></path><path d="M307.1917 109.1293L176.6679 74.6728" fill="none" stroke="#aaa" stroke-opacity="0.5" stroke-width="0.5"></path><path d="M206.3189 117.3429L213.6974 175.6301" fill="none" stroke="#aaa" stroke-opacity="0.5" stroke-width="0.5"></path><path d="M248.8247 83.1206L153.1587 202.406" fill="none" stroke="#aaa" stroke-opacity="0.5" stroke-width="0.5"></path><path d="M158.1815 36.5249L213.6974 175.6301" fill="none" stroke="#aaa" stroke-opacity="0.5" stroke-width="0.5"></path><path d="M176.6679 74.6728L156.9824 142.476" fill="none" stroke="#aaa" stroke-opacity="0.5" stroke-width="0.5"></path><path d="M248.8247 83.1206L176.6679 74.6728" fill="none" stroke="#aaa" stroke-opacity="0.5" stroke-width="0.5"></path><path d="M121.1854 170.0335L153.1587 202.406" fill="none" stroke="#aaa" stroke-opacity="0.5" stroke-width="0.5"></path><path d="M307.1917 109.1293L208.0761 27.4516" fill="none" stroke="#aaa" stroke-opacity="0.5" stroke-width="0.5"></path><path d="M158.1815 36.5249L124.3606 76.3137" fill="none" stroke="#aaa" stroke-opacity="0.5" stroke-width="0.5"></path><path d="M248.8247 83.1206L307.1606 157.8805" fill="none" stroke="#aaa" stroke-opacity="0.5" stroke-width="0.5"></path><path d="M307.1917 109.1293L277.2407 197.5889" fill="none" stroke="#aaa" stroke-opacity="0.5" stroke-width="0.5"></path><path d="M307.1917 109.1293L112.2571 119.6416" fill="none" stroke="#aaa" stroke-opacity="0.5" stroke-width="0.5"></path><path d="M121.1854 170.0335L307.1606 157.8805" fill="none" stroke="#aaa" stroke-opacity="0.5" stroke-width="0.5"></path><path d="M176.6679 74.6728L192.7338 222.3998" fill="none" stroke="#aaa" stroke-opacity="0.5" stroke-width="0.5"></path><path d="M251.568 34.4492L213.6974 175.6301" fill="none" stroke="#aaa" stroke-opacity="0.5" stroke-width="0.5"></path><path d="M153.1587 202.406L251.568 34.4492" fill="none" stroke="#aaa" stroke-opacity="0.5" stroke-width="0.5"></path><path d="M192.7338 222.3998L124.3606 76.3137" fill="none" stroke="#aaa" stroke-opacity="0.5" stroke-width="0.5"></path><path d="M264.4795 142.6767L213.6974 175.6301" fill="none" stroke="#aaa" stroke-opacity="0.5" stroke-width="0.5"></path><path d="M208.0761 27.4516L251.568 34.4492" fill="none" stroke="#aaa" stroke-opacity="0.5" stroke-width="0.5"></path><path d="M121.1854 170.0335L206.3189 117.3429" fill="none" stroke="#aaa" stroke-opacity="0.5" stroke-width="0.5"></path><path d="M307.1606 157.8805L124.3606 76.3137" fill="none" stroke="#aaa" stroke-opacity="0.5" stroke-width="0.5"></path><path d="M153.1587 202.406L176.6679 74.6728" fill="none" stroke="#aaa" stroke-opacity="0.5" stroke-width="0.5"></path><path d="M264.4795 142.6767L124.3606 76.3137" fill="none" stroke="#aaa" stroke-opacity="0.5" stroke-width="0.5"></path><path d="M307.1606 157.8805L158.1815 36.5249" fill="none" stroke="#aaa" stroke-opacity="0.5" stroke-width="0.5"></path><path d="M264.4795 142.6767L158.1815 36.5249" fill="none" stroke="#aaa" stroke-opacity="0.5" stroke-width="0.5"></path><path d="M292.1354 64.9949L239.1713 220.2671" fill="none" stroke="#aaa" stroke-opacity="0.5" stroke-width="0.5"></path><path d="M277.2407 197.5889L239.1713 220.2671" fill="none" stroke="#aaa" stroke-opacity="0.5" stroke-width="0.5"></path><path d="M153.1587 202.406L307.1606 157.8805" fill="none" stroke="#aaa" stroke-opacity="0.5" stroke-width="0.5"></path><path d="M121.1854 170.0335L292.1354 64.9949" fill="none" stroke="#aaa" stroke-opacity="0.5" stroke-width="0.5"></path><path d="M153.1587 202.406L208.0761 27.4516" fill="none" stroke="#aaa" stroke-opacity="0.5" stroke-width="0.5"></path><path d="M248.8247 83.1206L239.1713 220.2671" fill="none" stroke="#aaa" stroke-opacity="0.5" stroke-width="0.5"></path><path d="M307.1606 157.8805L156.9824 142.476" fill="none" stroke="#aaa" stroke-opacity="0.5" stroke-width="0.5"></path><path d="M121.1854 170.0335L239.1713 220.2671" fill="none" stroke="#aaa" stroke-opacity="0.5" stroke-width="0.5"></path><path d="M248.8247 83.1206L264.4795 142.6767" fill="none" stroke="#aaa" stroke-opacity="0.5" stroke-width="0.5"></path><path d="M156.9824 142.476L251.568 34.4492" fill="none" stroke="#aaa" stroke-opacity="0.5" stroke-width="0.5"></path><path d="M121.1854 170.0335L264.4795 142.6767" fill="none" stroke="#aaa" stroke-opacity="0.5" stroke-width="0.5"></path><path d="M176.6679 74.6728L277.2407 197.5889" fill="none" stroke="#aaa" stroke-opacity="0.5" stroke-width="0.5"></path><path d="M158.1815 36.5249L251.568 34.4492" fill="none" stroke="#aaa" stroke-opacity="0.5" stroke-width="0.5"></path><path d="M156.9824 142.476L208.0761 27.4516" fill="none" stroke="#aaa" stroke-opacity="0.5" stroke-width="0.5"></path><path d="M153.1587 202.406L239.1713 220.2671" fill="none" stroke="#aaa" stroke-opacity="0.5" stroke-width="0.5"></path><path d="M124.3606 76.3137L112.2571 119.6416" fill="none" stroke="#aaa" stroke-opacity="0.5" stroke-width="0.5"></path><path d="M156.9824 142.476L277.2407 197.5889" fill="none" stroke="#aaa" stroke-opacity="0.5" stroke-width="0.5"></path><path d="M156.9824 142.476L112.2571 119.6416" fill="none" stroke="#aaa" stroke-opacity="0.5" stroke-width="0.5"></path><path d="M277.2407 197.5889L124.3606 76.3137" fill="none" stroke="#aaa" stroke-opacity="0.5" stroke-width="0.5"></path><path d="M208.0761 27.4516L239.1713 220.2671" fill="none" stroke="#aaa" stroke-opacity="0.5" stroke-width="0.5"></path><path d="M121.1854 170.0335L213.6974 175.6301" fill="none" stroke="#aaa" stroke-opacity="0.5" stroke-width="0.5"></path><path d="M248.8247 83.1206L124.3606 76.3137" fill="none" stroke="#aaa" stroke-opacity="0.5" stroke-width="0.5"></path><path d="M121.1854 170.0335L124.3606 76.3137" fill="none" stroke="#aaa" stroke-opacity="0.5" stroke-width="0.5"></path><path d="M248.8247 83.1206L158.1815 36.5249" fill="none" stroke="#aaa" stroke-opacity="0.5" stroke-width="0.5"></path><path d="M264.4795 142.6767L251.568 34.4492" fill="none" stroke="#aaa" stroke-opacity="0.5" stroke-width="0.5"></path><path d="M121.1854 170.0335L158.1815 36.5249" fill="none" stroke="#aaa" stroke-opacity="0.5" stroke-width="0.5"></path><path d="M158.1815 36.5249L112.2571 119.6416" fill="none" stroke="#aaa" stroke-opacity="0.5" stroke-width="0.5"></path><path d="M176.6679 74.6728L206.3189 117.3429" fill="none" stroke="#aaa" stroke-opacity="0.5" stroke-width="0.5"></path><path d="M307.1917 109.1293L156.9824 142.476" fill="none" stroke="#aaa" stroke-opacity="0.5" stroke-width="0.5"></path><path d="M124.3606 76.3137L206.3189 117.3429" fill="none" stroke="#aaa" stroke-opacity="0.5" stroke-width="0.5"></path><path d="M248.8247 83.1206L156.9824 142.476" fill="none" stroke="#aaa" stroke-opacity="0.5" stroke-width="0.5"></path><path d="M176.6679 74.6728L292.1354 64.9949" fill="none" stroke="#aaa" stroke-opacity="0.5" stroke-width="0.5"></path><path d="M192.7338 222.3998L112.2571 119.6416" fill="none" stroke="#aaa" stroke-opacity="0.5" stroke-width="0.5"></path><path d="M307.1606 157.8805L208.0761 27.4516" fill="none" stroke="#aaa" stroke-opacity="0.5" stroke-width="0.5"></path><path d="M251.568 34.4492L112.2571 119.6416" fill="none" stroke="#aaa" stroke-opacity="0.5" stroke-width="0.5"></path><path d="M124.3606 76.3137L292.1354 64.9949" fill="none" stroke="#aaa" stroke-opacity="0.5" stroke-width="0.5"></path><path d="M307.1917 109.1293L192.7338 222.3998" fill="none" stroke="#aaa" stroke-opacity="0.5" stroke-width="0.5"></path><path d="M264.4795 142.6767L208.0761 27.4516" fill="none" stroke="#aaa" stroke-opacity="0.5" stroke-width="0.5"></path><path d="M307.1606 157.8805L277.2407 197.5889" fill="none" stroke="#aaa" stroke-opacity="0.5" stroke-width="0.5"></path><path d="M307.1606 157.8805L112.2571 119.6416" fill="none" stroke="#aaa" stroke-opacity="0.5" stroke-width="0.5"></path><path d="M264.4795 142.6767L277.2407 197.5889" fill="none" stroke="#aaa" stroke-opacity="0.5" stroke-width="0.5"></path><path d="M153.1587 202.406L124.3606 76.3137" fill="none" stroke="#aaa" stroke-opacity="0.5" stroke-width="0.5"></path><path d="M176.6679 74.6728L264.4795 142.6767" fill="none" stroke="#aaa" stroke-opacity="0.5" stroke-width="0.5"></path><path d="M264.4795 142.6767L112.2571 119.6416" fill="none" stroke="#aaa" stroke-opacity="0.5" stroke-width="0.5"></path><path d="M153.1587 202.406L158.1815 36.5249" fill="none" stroke="#aaa" stroke-opacity="0.5" stroke-width="0.5"></path><path d="M208.0761 27.4516L124.3606 76.3137" fill="none" stroke="#aaa" stroke-opacity="0.5" stroke-width="0.5"></path><path d="M307.1917 109.1293L121.1854 170.0335" fill="none" stroke="#aaa" stroke-opacity="0.5" stroke-width="0.5"></path><path d="M158.1815 36.5249L239.1713 220.2671" fill="none" stroke="#aaa" stroke-opacity="0.5" stroke-width="0.5"></path><path d="M208.0761 27.4516L158.1815 36.5249" fill="none" stroke="#aaa" stroke-opacity="0.5" stroke-width="0.5"></path><path d="M192.7338 222.3998L206.3189 117.3429" fill="none" stroke="#aaa" stroke-opacity="0.5" stroke-width="0.5"></path><path d="M153.1587 202.406L156.9824 142.476" fill="none" stroke="#aaa" stroke-opacity="0.5" stroke-width="0.5"></path><path d="M251.568 34.4492L206.3189 117.3429" fill="none" stroke="#aaa" stroke-opacity="0.5" stroke-width="0.5"></path><path d="M277.2407 197.5889L251.568 34.4492" fill="none" stroke="#aaa" stroke-opacity="0.5" stroke-width="0.5"></path><path d="M307.1606 157.8805L206.3189 117.3429" fill="none" stroke="#aaa" stroke-opacity="0.5" stroke-width="0.5"></path><path d="M264.4795 142.6767L206.3189 117.3429" fill="none" stroke="#aaa" stroke-opacity="0.5" stroke-width="0.5"></path><path d="M121.1854 170.0335L248.8247 83.1206" fill="none" stroke="#aaa" stroke-opacity="0.5" stroke-width="0.5"></path><path d="M192.7338 222.3998L292.1354 64.9949" fill="none" stroke="#aaa" stroke-opacity="0.5" stroke-width="0.5"></path><path d="M153.1587 202.406L192.7338 222.3998" fill="none" stroke="#aaa" stroke-opacity="0.5" stroke-width="0.5"></path><path d="M176.6679 74.6728L213.6974 175.6301" fill="none" stroke="#aaa" stroke-opacity="0.5" stroke-width="0.5"></path><path d="M121.1854 170.0335L251.568 34.4492" fill="none" stroke="#aaa" stroke-opacity="0.5" stroke-width="0.5"></path><path d="M208.0761 27.4516L192.7338 222.3998" fill="none" stroke="#aaa" stroke-opacity="0.5" stroke-width="0.5"></path><path d="M307.1606 157.8805L292.1354 64.9949" fill="none" stroke="#aaa" stroke-opacity="0.5" stroke-width="0.5"></path><path d="M124.3606 76.3137L213.6974 175.6301" fill="none" stroke="#aaa" stroke-opacity="0.5" stroke-width="0.5"></path><path d="M176.6679 74.6728L124.3606 76.3137" fill="none" stroke="#aaa" stroke-opacity="0.5" stroke-width="0.5"></path><path d="M121.1854 170.0335L176.6679 74.6728" fill="none" stroke="#aaa" stroke-opacity="0.5" stroke-width="0.5"></path><path d="M277.2407 197.5889L112.2571 119.6416" fill="none" stroke="#aaa" stroke-opacity="0.5" stroke-width="0.5"></path><path d="M248.8247 83.1206L208.0761 27.4516" fill="none" stroke="#aaa" stroke-opacity="0.5" stroke-width="0.5"></path><path d="M121.1854 170.0335L208.0761 27.4516" fill="none" stroke="#aaa" stroke-opacity="0.5" stroke-width="0.5"></path><path d="M248.8247 83.1206L277.2407 197.5889" fill="none" stroke="#aaa" stroke-opacity="0.5" stroke-width="0.5"></path><path d="M248.8247 83.1206L112.2571 119.6416" fill="none" stroke="#aaa" stroke-opacity="0.5" stroke-width="0.5"></path><path d="M121.1854 170.0335L277.2407 197.5889" fill="none" stroke="#aaa" stroke-opacity="0.5" stroke-width="0.5"></path><path d="M1 0A1 1 0 1 1 1 -0.0001" fill="#5470c6" transform="matrix(18,0,0,18,307.1917,109.1293)"></path><path d="M1 0A1 1 0 1 1 1 -0.0001" fill="#5470c6" transform="matrix(18,0,0,18,307.1606,157.8805)"></path><path d="M1 0A1 1 0 1 1 1 -0.0001" fill="#5470c6" transform="matrix(18,0,0,18,277.2407,197.5889)"></path><path d="M1 0A1 1 0 1 1 1 -0.0001" fill="#5470c6" transform="matrix(18,0,0,18,239.1713,220.2671)"></path><path d="M1 0A1 1 0 1 1 1 -0.0001" fill="#5470c6" transform="matrix(18,0,0,18,213.6974,175.6301)"></path><path d="M1 0A1 1 0 1 1 1 -0.0001" fill="#5470c6" transform="matrix(18,0,0,18,192.7338,222.3998)"></path><path d="M1 0A1 1 0 1 1 1 -0.0001" fill="#5470c6" transform="matrix(18,0,0,18,153.1587,202.406)"></path><path d="M1 0A1 1 0 1 1 1 -0.0001" fill="#5470c6" transform="matrix(18,0,0,18,156.9824,142.476)"></path><path d="M1 0A1 1 0 1 1 1 -0.0001" fill="#5470c6" transform="matrix(18,0,0,18,121.1854,170.0335)"></path><path d="M1 0A1 1 0 1 1 1 -0.0001" fill="#5470c6" transform="matrix(18,0,0,18,112.2571,119.6416)"></path><path d="M1 0A1 1 0 1 1 1 -0.0001" fill="#5470c6" transform="matrix(18,0,0,18,124.3606,76.3137)"></path><path d="M1 0A1 1 0 1 1 1 -0.0001" fill="#5470c6" transform="matrix(18,0,0,18,176.6679,74.6728)"></path><path d="M1 0A1 1 0 1 1 1 -0.0001" fill="#5470c6" transform="matrix(18,0,0,18,158.1815,36.5249)"></path><path d="M1 0A1 1 0 1 1 1 -0.0001" fill="#5470c6" transform="matrix(18,0,0,18,208.0761,27.4516)"></path><path d="M1 0A1 1 0 1 1 1 -0.0001" fill="#5470c6" transform="matrix(18,0,0,18,248.8247,83.1206)"></path><path d="M1 0A1 1 0 1 1 1 -0.0001" fill="#5470c6" transform="matrix(18,0,0,18,251.568,34.4492)"></path><path d="M1 0A1 1 0 1 1 1 -0.0001" fill="#5470c6" transform="matrix(18,0,0,18,206.3189,117.3429)"></path><path d="M1 0A1 1 0 1 1 1 -0.0001" fill="#5470c6" transform="matrix(18,0,0,18,292.1354,64.9949)"></path><path d="M1 0A1 1 0 1 1 1 -0.0001" fill="#5470c6" transform="matrix(18,0,0,18,264.4795,142.6767)"></path><path d="M-25.1792 -5l50.3584 0l0 32l-50.3584 0Z" fill="rgb(0,0,0)" fill-opacity="0" stroke="#ccc" stroke-width="0" transform="translate(237.5 5)"></path><text dominant-baseline="central" fill="#333" style="font-size:22px;font-family:sans-serif;font-weight:bolder;" text-anchor="middle" transform="translate(237.5 5)" y="11">C26</text></g></svg>