<svg baseprofile="full" height="250" style="position:absolute;left:0;top:0;user-select:none" version="1.1" width="475" xmlns="http://www.w3.org/2000/svg" xmlns:xlink="http://www.w3.org/1999/xlink"><rect fill="none" height="250" id="0" width="475" x="0" y="0"></rect><g><path d="M304.6161 188.4912L179.8359 233.9804" fill="none" stroke="#aaa" stroke-opacity="0.5"></path><path d="M179.8359 233.9804L172.7886 18.4198" fill="none" stroke="#aaa" stroke-opacity="0.5"></path><path d="M97.6041 128.6032L300.7847 55.5054" fill="none" stroke="#aaa" stroke-opacity="0.5"></path><path d="M304.6161 188.4912L300.7847 55.5054" fill="none" stroke="#aaa" stroke-opacity="0.5"></path><path d="M300.7847 55.5054L172.7886 18.4198" fill="none" stroke="#aaa" stroke-opacity="0.5"></path><path d="M97.6041 128.6032L172.7886 18.4198" fill="none" stroke="#aaa" stroke-opacity="0.5"></path><path d="M97.6041 128.6032L304.6161 188.4912" fill="none" stroke="#aaa" stroke-opacity="0.5"></path><path d="M304.6161 188.4912L172.7886 18.4198" fill="none" stroke="#aaa" stroke-opacity="0.5"></path><path d="M179.8359 233.9804L300.7847 55.5054" fill="none" stroke="#aaa" stroke-opacity="0.5"></path><path d="M97.6041 128.6032L179.8359 233.9804" fill="none" stroke="#aaa" stroke-opacity="0.5"></path><path d="M1 0A1 1 0 1 1 1 -0.0001" fill="#5470c6" transform="matrix(19.5,0,0,19.5,304.6161,188.4912)"></path><path d="M1 0A1 1 0 1 1 1 -0.0001" fill="#5470c6" transform="matrix(19.5,0,0,19.5,179.8359,233.9804)"></path><path d="M1 0A1 1 0 1 1 1 -0.0001" fill="#5470c6" transform="matrix(19.5,0,0,19.5,97.6041,128.6032)"></path><path d="M1 0A1 1 0 1 1 1 -0.0001" fill="#5470c6" transform="matrix(19.5,0,0,19.5,172.7886,18.4198)"></path><path d="M1 0A1 1 0 1 1 1 -0.0001" fill="#5470c6" transform="matrix(19.5,0,0,19.5,300.7847,55.5054)"></path><path d="M-32.4922 -5l64.9844 0l0 33l-64.9844 0Z" fill="rgb(0,0,0)" fill-opacity="0" stroke="#ccc" stroke-width="0" transform="translate(237.5 5)"></path><text dominant-baseline="central" fill="#333" style="font-size:23px;font-family:sans-serif;font-weight:bolder;" text-anchor="middle" transform="translate(237.5 5)" y="11.5">C260</text></g></svg>