<svg baseprofile="full" height="250" style="position:absolute;left:0;top:0;user-select:none" version="1.1" width="475" xmlns="http://www.w3.org/2000/svg" xmlns:xlink="http://www.w3.org/1999/xlink"><rect fill="none" height="250" id="0" width="475" x="0" y="0"></rect><g><path d="M97.7421 124.5476L176.1021 17.2046" fill="none" stroke="#aaa" stroke-opacity="0.5"></path><path d="M97.7421 124.5476L302.9819 58.6255" fill="none" stroke="#aaa" stroke-opacity="0.5"></path><path d="M303.5 58.6255L303.5 191.5877" fill="none" stroke="#aaa" stroke-opacity="0.5"></path><path d="M176.1021 17.2046L302.9354 191.5877" fill="none" stroke="#aaa" stroke-opacity="0.5"></path><path d="M302.9819 58.6255L175.8679 233.0346" fill="none" stroke="#aaa" stroke-opacity="0.5"></path><path d="M176.5 17.2046L176.5 233.0346" fill="none" stroke="#aaa" stroke-opacity="0.5"></path><path d="M302.9819 58.6255L176.1021 17.2046" fill="none" stroke="#aaa" stroke-opacity="0.5"></path><path d="M97.7421 124.5476L302.9354 191.5877" fill="none" stroke="#aaa" stroke-opacity="0.5"></path><path d="M175.8679 233.0346L302.9354 191.5877" fill="none" stroke="#aaa" stroke-opacity="0.5"></path><path d="M97.7421 124.5476L175.8679 233.0346" fill="none" stroke="#aaa" stroke-opacity="0.5"></path><path d="M1 0A1 1 0 1 1 1 -0.0001" fill="#5470c6" transform="matrix(19.5,0,0,19.5,302.9354,191.5877)"></path><path d="M1 0A1 1 0 1 1 1 -0.0001" fill="#5470c6" transform="matrix(19.5,0,0,19.5,175.8679,233.0346)"></path><path d="M1 0A1 1 0 1 1 1 -0.0001" fill="#5470c6" transform="matrix(19.5,0,0,19.5,97.7421,124.5476)"></path><path d="M1 0A1 1 0 1 1 1 -0.0001" fill="#5470c6" transform="matrix(19.5,0,0,19.5,176.1021,17.2046)"></path><path d="M1 0A1 1 0 1 1 1 -0.0001" fill="#5470c6" transform="matrix(19.5,0,0,19.5,302.9819,58.6255)"></path><path d="M-32.4922 -5l64.9844 0l0 33l-64.9844 0Z" fill="rgb(0,0,0)" fill-opacity="0" stroke="#ccc" stroke-width="0" transform="translate(237.5 5)"></path><text dominant-baseline="central" fill="#333" style="font-size:23px;font-family:sans-serif;font-weight:bolder;" text-anchor="middle" transform="translate(237.5 5)" y="11.5">C263</text></g></svg>