<svg baseprofile="full" height="250" style="position:absolute;left:0;top:0;user-select:none" version="1.1" width="475" xmlns="http://www.w3.org/2000/svg" xmlns:xlink="http://www.w3.org/1999/xlink"><rect fill="none" height="250" id="0" width="475" x="0" y="0"></rect><g><path d="M302.9143 191.6836L97.7566 124.4275" fill="none" stroke="#aaa" stroke-opacity="0.5"></path><path d="M303.5 191.6836L303.5 58.7316" fill="none" stroke="#aaa" stroke-opacity="0.5"></path><path d="M176.452 17.4736L97.7566 124.4275" fill="none" stroke="#aaa" stroke-opacity="0.5"></path><path d="M176.452 17.4736L302.8822 58.7316" fill="none" stroke="#aaa" stroke-opacity="0.5"></path><path d="M302.8822 58.7316L97.7566 124.4275" fill="none" stroke="#aaa" stroke-opacity="0.5"></path><path d="M302.9143 191.6836L176.452 17.4736" fill="none" stroke="#aaa" stroke-opacity="0.5"></path><path d="M175.6244 232.6838L97.7566 124.4275" fill="none" stroke="#aaa" stroke-opacity="0.5"></path><path d="M175.6244 232.6838L176.452 17.4736" fill="none" stroke="#aaa" stroke-opacity="0.5"></path><path d="M175.6244 232.6838L302.8822 58.7316" fill="none" stroke="#aaa" stroke-opacity="0.5"></path><path d="M175.6244 232.6838L302.9143 191.6836" fill="none" stroke="#aaa" stroke-opacity="0.5"></path><path d="M1 0A1 1 0 1 1 1 -0.0001" fill="#5470c6" transform="matrix(19.5,0,0,19.5,302.9143,191.6836)"></path><path d="M1 0A1 1 0 1 1 1 -0.0001" fill="#5470c6" transform="matrix(19.5,0,0,19.5,175.6244,232.6838)"></path><path d="M1 0A1 1 0 1 1 1 -0.0001" fill="#5470c6" transform="matrix(19.5,0,0,19.5,97.7566,124.4275)"></path><path d="M1 0A1 1 0 1 1 1 -0.0001" fill="#5470c6" transform="matrix(19.5,0,0,19.5,176.452,17.4736)"></path><path d="M1 0A1 1 0 1 1 1 -0.0001" fill="#5470c6" transform="matrix(19.5,0,0,19.5,302.8822,58.7316)"></path><path d="M-32.4922 -5l64.9844 0l0 33l-64.9844 0Z" fill="rgb(0,0,0)" fill-opacity="0" stroke="#ccc" stroke-width="0" transform="translate(237.5 5)"></path><text dominant-baseline="central" fill="#333" style="font-size:23px;font-family:sans-serif;font-weight:bolder;" text-anchor="middle" transform="translate(237.5 5)" y="11.5">C264</text></g></svg>