<svg baseprofile="full" height="250" style="position:absolute;left:0;top:0;user-select:none" version="1.1" width="475" xmlns="http://www.w3.org/2000/svg" xmlns:xlink="http://www.w3.org/1999/xlink"><rect fill="none" height="250" id="0" width="475" x="0" y="0"></rect><g><path d="M302.0883 57.3559L303.7159 190.3622" fill="none" stroke="#aaa" stroke-opacity="0.5"></path><path d="M303.7159 190.3622L97.3895 126.4325" fill="none" stroke="#aaa" stroke-opacity="0.5"></path><path d="M302.0883 57.3559L97.3895 126.4325" fill="none" stroke="#aaa" stroke-opacity="0.5"></path><path d="M302.0883 57.3559L174.8103 17.8921" fill="none" stroke="#aaa" stroke-opacity="0.5"></path><path d="M174.8103 17.8921L303.7159 190.3622" fill="none" stroke="#aaa" stroke-opacity="0.5"></path><path d="M177.6253 232.9574L303.7159 190.3622" fill="none" stroke="#aaa" stroke-opacity="0.5"></path><path d="M177.6253 232.9574L302.0883 57.3559" fill="none" stroke="#aaa" stroke-opacity="0.5"></path><path d="M174.8103 17.8921L97.3895 126.4325" fill="none" stroke="#aaa" stroke-opacity="0.5"></path><path d="M177.6253 232.9574L97.3895 126.4325" fill="none" stroke="#aaa" stroke-opacity="0.5"></path><path d="M177.6253 232.9574L174.8103 17.8921" fill="none" stroke="#aaa" stroke-opacity="0.5"></path><path d="M1 0A1 1 0 1 1 1 -0.0001" fill="#5470c6" transform="matrix(19.5,0,0,19.5,303.7159,190.3622)"></path><path d="M1 0A1 1 0 1 1 1 -0.0001" fill="#5470c6" transform="matrix(19.5,0,0,19.5,177.6253,232.9574)"></path><path d="M1 0A1 1 0 1 1 1 -0.0001" fill="#5470c6" transform="matrix(19.5,0,0,19.5,97.3895,126.4325)"></path><path d="M1 0A1 1 0 1 1 1 -0.0001" fill="#5470c6" transform="matrix(19.5,0,0,19.5,174.8103,17.8921)"></path><path d="M1 0A1 1 0 1 1 1 -0.0001" fill="#5470c6" transform="matrix(19.5,0,0,19.5,302.0883,57.3559)"></path><path d="M-32.4922 -5l64.9844 0l0 33l-64.9844 0Z" fill="rgb(0,0,0)" fill-opacity="0" stroke="#ccc" stroke-width="0" transform="translate(237.5 5)"></path><text dominant-baseline="central" fill="#333" style="font-size:23px;font-family:sans-serif;font-weight:bolder;" text-anchor="middle" transform="translate(237.5 5)" y="11.5">C265</text></g></svg>