<svg baseprofile="full" height="250" style="position:absolute;left:0;top:0;user-select:none" version="1.1" width="475" xmlns="http://www.w3.org/2000/svg" xmlns:xlink="http://www.w3.org/1999/xlink"><rect fill="none" height="250" id="0" width="475" x="0" y="0"></rect><g><path d="M172.7491 18.2524L300.4523 55.2746" fill="none" stroke="#aaa" stroke-opacity="0.5"></path><path d="M172.7491 18.2524L179.4642 234.1717" fill="none" stroke="#aaa" stroke-opacity="0.5"></path><path d="M179.4642 234.1717L300.4523 55.2746" fill="none" stroke="#aaa" stroke-opacity="0.5"></path><path d="M172.7491 18.2524L98.1768 128.6242" fill="none" stroke="#aaa" stroke-opacity="0.5"></path><path d="M172.7491 18.2524L304.787 188.6772" fill="none" stroke="#aaa" stroke-opacity="0.5"></path><path d="M179.4642 234.1717L98.1768 128.6242" fill="none" stroke="#aaa" stroke-opacity="0.5"></path><path d="M98.1768 128.6242L300.4523 55.2746" fill="none" stroke="#aaa" stroke-opacity="0.5"></path><path d="M179.4642 234.1717L304.787 188.6772" fill="none" stroke="#aaa" stroke-opacity="0.5"></path><path d="M304.787 188.6772L300.4523 55.2746" fill="none" stroke="#aaa" stroke-opacity="0.5"></path><path d="M304.787 188.6772L98.1768 128.6242" fill="none" stroke="#aaa" stroke-opacity="0.5"></path><path d="M1 0A1 1 0 1 1 1 -0.0001" fill="#5470c6" transform="matrix(19.5,0,0,19.5,304.787,188.6772)"></path><path d="M1 0A1 1 0 1 1 1 -0.0001" fill="#5470c6" transform="matrix(19.5,0,0,19.5,179.4642,234.1717)"></path><path d="M1 0A1 1 0 1 1 1 -0.0001" fill="#5470c6" transform="matrix(19.5,0,0,19.5,98.1768,128.6242)"></path><path d="M1 0A1 1 0 1 1 1 -0.0001" fill="#5470c6" transform="matrix(19.5,0,0,19.5,172.7491,18.2524)"></path><path d="M1 0A1 1 0 1 1 1 -0.0001" fill="#5470c6" transform="matrix(19.5,0,0,19.5,300.4523,55.2746)"></path><path d="M-32.4922 -5l64.9844 0l0 33l-64.9844 0Z" fill="rgb(0,0,0)" fill-opacity="0" stroke="#ccc" stroke-width="0" transform="translate(237.5 5)"></path><text dominant-baseline="central" fill="#333" style="font-size:23px;font-family:sans-serif;font-weight:bolder;" text-anchor="middle" transform="translate(237.5 5)" y="11.5">C266</text></g></svg>