<svg baseprofile="full" height="250" style="position:absolute;left:0;top:0;user-select:none" version="1.1" width="475" xmlns="http://www.w3.org/2000/svg" xmlns:xlink="http://www.w3.org/1999/xlink"><rect fill="none" height="250" id="0" width="475" x="0" y="0"></rect><g><path d="M175.7918 232.6247L302.3826 192.2635" fill="none" stroke="#aaa" stroke-opacity="0.5"></path><path d="M176.4963 16.8077L175.7918 232.6247" fill="none" stroke="#aaa" stroke-opacity="0.5"></path><path d="M176.4963 16.8077L302.3826 192.2635" fill="none" stroke="#aaa" stroke-opacity="0.5"></path><path d="M303.2443 58.5816L97.7144 124.7225" fill="none" stroke="#aaa" stroke-opacity="0.5"></path><path d="M97.7144 124.7225L175.7918 232.6247" fill="none" stroke="#aaa" stroke-opacity="0.5"></path><path d="M97.7144 124.7225L302.3826 192.2635" fill="none" stroke="#aaa" stroke-opacity="0.5"></path><path d="M176.4963 16.8077L303.2443 58.5816" fill="none" stroke="#aaa" stroke-opacity="0.5"></path><path d="M303.2443 58.5816L175.7918 232.6247" fill="none" stroke="#aaa" stroke-opacity="0.5"></path><path d="M303.2443 58.5816L302.3826 192.2635" fill="none" stroke="#aaa" stroke-opacity="0.5"></path><path d="M176.4963 16.8077L97.7144 124.7225" fill="none" stroke="#aaa" stroke-opacity="0.5"></path><path d="M1 0A1 1 0 1 1 1 -0.0001" fill="#5470c6" transform="matrix(19.5,0,0,19.5,302.3826,192.2635)"></path><path d="M1 0A1 1 0 1 1 1 -0.0001" fill="#5470c6" transform="matrix(19.5,0,0,19.5,175.7918,232.6247)"></path><path d="M1 0A1 1 0 1 1 1 -0.0001" fill="#5470c6" transform="matrix(19.5,0,0,19.5,97.7144,124.7225)"></path><path d="M1 0A1 1 0 1 1 1 -0.0001" fill="#5470c6" transform="matrix(19.5,0,0,19.5,176.4963,16.8077)"></path><path d="M1 0A1 1 0 1 1 1 -0.0001" fill="#5470c6" transform="matrix(19.5,0,0,19.5,303.2443,58.5816)"></path><path d="M-32.4922 -5l64.9844 0l0 33l-64.9844 0Z" fill="rgb(0,0,0)" fill-opacity="0" stroke="#ccc" stroke-width="0" transform="translate(237.5 5)"></path><text dominant-baseline="central" fill="#333" style="font-size:23px;font-family:sans-serif;font-weight:bolder;" text-anchor="middle" transform="translate(237.5 5)" y="11.5">C267</text></g></svg>