<svg baseprofile="full" height="250" style="position:absolute;left:0;top:0;user-select:none" version="1.1" width="475" xmlns="http://www.w3.org/2000/svg" xmlns:xlink="http://www.w3.org/1999/xlink"><rect fill="none" height="250" id="0" width="475" x="0" y="0"></rect><g><path d="M174.7394 17.4313L303.8766 190.4506" fill="none" stroke="#aaa" stroke-opacity="0.5"></path><path d="M174.7394 17.4313L177.2517 233.5924" fill="none" stroke="#aaa" stroke-opacity="0.5"></path><path d="M302.0634 57.0917L177.2517 233.5924" fill="none" stroke="#aaa" stroke-opacity="0.5"></path><path d="M303.8766 190.4506L302.0634 57.0917" fill="none" stroke="#aaa" stroke-opacity="0.5"></path><path d="M303.8766 190.4506L97.6982 126.434" fill="none" stroke="#aaa" stroke-opacity="0.5"></path><path d="M174.7394 17.4313L302.0634 57.0917" fill="none" stroke="#aaa" stroke-opacity="0.5"></path><path d="M97.6982 126.434L302.0634 57.0917" fill="none" stroke="#aaa" stroke-opacity="0.5"></path><path d="M97.6982 126.434L177.2517 233.5924" fill="none" stroke="#aaa" stroke-opacity="0.5"></path><path d="M174.7394 17.4313L97.6982 126.434" fill="none" stroke="#aaa" stroke-opacity="0.5"></path><path d="M303.8766 190.4506L177.2517 233.5924" fill="none" stroke="#aaa" stroke-opacity="0.5"></path><path d="M1 0A1 1 0 1 1 1 -0.0001" fill="#5470c6" transform="matrix(19.5,0,0,19.5,303.8766,190.4506)"></path><path d="M1 0A1 1 0 1 1 1 -0.0001" fill="#5470c6" transform="matrix(19.5,0,0,19.5,177.2517,233.5924)"></path><path d="M1 0A1 1 0 1 1 1 -0.0001" fill="#5470c6" transform="matrix(19.5,0,0,19.5,97.6982,126.434)"></path><path d="M1 0A1 1 0 1 1 1 -0.0001" fill="#5470c6" transform="matrix(19.5,0,0,19.5,174.7394,17.4313)"></path><path d="M1 0A1 1 0 1 1 1 -0.0001" fill="#5470c6" transform="matrix(19.5,0,0,19.5,302.0634,57.0917)"></path><path d="M-32.4922 -5l64.9844 0l0 33l-64.9844 0Z" fill="rgb(0,0,0)" fill-opacity="0" stroke="#ccc" stroke-width="0" transform="translate(237.5 5)"></path><text dominant-baseline="central" fill="#333" style="font-size:23px;font-family:sans-serif;font-weight:bolder;" text-anchor="middle" transform="translate(237.5 5)" y="11.5">C268</text></g></svg>