<svg baseprofile="full" height="250" style="position:absolute;left:0;top:0;user-select:none" version="1.1" width="475" xmlns="http://www.w3.org/2000/svg" xmlns:xlink="http://www.w3.org/1999/xlink"><rect fill="none" height="250" id="0" width="475" x="0" y="0"></rect><g><path d="M302.1429 192.3772L175.3188 232.3259" fill="none" stroke="#aaa" stroke-opacity="0.5"></path><path d="M97.8869 124.254L175.3188 232.3259" fill="none" stroke="#aaa" stroke-opacity="0.5"></path><path d="M302.1429 192.3772L303.394 59.4516" fill="none" stroke="#aaa" stroke-opacity="0.5"></path><path d="M97.8869 124.254L303.394 59.4516" fill="none" stroke="#aaa" stroke-opacity="0.5"></path><path d="M303.394 59.4516L175.3188 232.3259" fill="none" stroke="#aaa" stroke-opacity="0.5"></path><path d="M175.3188 232.3259L176.8867 16.5913" fill="none" stroke="#aaa" stroke-opacity="0.5"></path><path d="M302.1429 192.3772L97.8869 124.254" fill="none" stroke="#aaa" stroke-opacity="0.5"></path><path d="M302.1429 192.3772L176.8867 16.5913" fill="none" stroke="#aaa" stroke-opacity="0.5"></path><path d="M97.8869 124.254L176.8867 16.5913" fill="none" stroke="#aaa" stroke-opacity="0.5"></path><path d="M303.394 59.4516L176.8867 16.5913" fill="none" stroke="#aaa" stroke-opacity="0.5"></path><path d="M1 0A1 1 0 1 1 1 -0.0001" fill="#5470c6" transform="matrix(19.5,0,0,19.5,302.1429,192.3772)"></path><path d="M1 0A1 1 0 1 1 1 -0.0001" fill="#5470c6" transform="matrix(19.5,0,0,19.5,175.3188,232.3259)"></path><path d="M1 0A1 1 0 1 1 1 -0.0001" fill="#5470c6" transform="matrix(19.5,0,0,19.5,97.8869,124.254)"></path><path d="M1 0A1 1 0 1 1 1 -0.0001" fill="#5470c6" transform="matrix(19.5,0,0,19.5,176.8867,16.5913)"></path><path d="M1 0A1 1 0 1 1 1 -0.0001" fill="#5470c6" transform="matrix(19.5,0,0,19.5,303.394,59.4516)"></path><path d="M-32.4922 -5l64.9844 0l0 33l-64.9844 0Z" fill="rgb(0,0,0)" fill-opacity="0" stroke="#ccc" stroke-width="0" transform="translate(237.5 5)"></path><text dominant-baseline="central" fill="#333" style="font-size:23px;font-family:sans-serif;font-weight:bolder;" text-anchor="middle" transform="translate(237.5 5)" y="11.5">C269</text></g></svg>