<svg baseprofile="full" height="250" style="position:absolute;left:0;top:0;user-select:none" version="1.1" width="475" xmlns="http://www.w3.org/2000/svg" xmlns:xlink="http://www.w3.org/1999/xlink"><rect fill="none" height="250" id="0" width="475" x="0" y="0"></rect><g><path d="M166.6705 116.9738L308.2531 137.273" fill="none" stroke="#aaa" stroke-opacity="0.5" stroke-width="0.5"></path><path d="M251.8643 111.7323L122.8496 83.3263" fill="none" stroke="#aaa" stroke-opacity="0.5" stroke-width="0.5"></path><path d="M308.2531 137.273L278.9413 53.9747" fill="none" stroke="#aaa" stroke-opacity="0.5" stroke-width="0.5"></path><path d="M191.9551 27.3356L251.8643 111.7323" fill="none" stroke="#aaa" stroke-opacity="0.5" stroke-width="0.5"></path><path d="M191.9551 27.3356L150.4823 47.7031" fill="none" stroke="#aaa" stroke-opacity="0.5" stroke-width="0.5"></path><path d="M150.4823 47.7031L293.6959 181.4375" fill="none" stroke="#aaa" stroke-opacity="0.5" stroke-width="0.5"></path><path d="M111.4495 128.9199L278.9413 53.9747" fill="none" stroke="#aaa" stroke-opacity="0.5" stroke-width="0.5"></path><path d="M293.6959 181.4375L251.8643 111.7323" fill="none" stroke="#aaa" stroke-opacity="0.5" stroke-width="0.5"></path><path d="M125.7113 173.6911L278.9413 53.9747" fill="none" stroke="#aaa" stroke-opacity="0.5" stroke-width="0.5"></path><path d="M186.9314 168.8783L239.3585 31.4663" fill="none" stroke="#aaa" stroke-opacity="0.5" stroke-width="0.5"></path><path d="M303.4219 91.6354L157.5024 211.0686" fill="none" stroke="#aaa" stroke-opacity="0.5" stroke-width="0.5"></path><path d="M150.4823 47.7031L122.8496 83.3263" fill="none" stroke="#aaa" stroke-opacity="0.5" stroke-width="0.5"></path><path d="M303.4219 91.6354L241.758 167.0802" fill="none" stroke="#aaa" stroke-opacity="0.5" stroke-width="0.5"></path><path d="M254.6098 215.5066L157.5024 211.0686" fill="none" stroke="#aaa" stroke-opacity="0.5" stroke-width="0.5"></path><path d="M293.6959 181.4375L157.5024 211.0686" fill="none" stroke="#aaa" stroke-opacity="0.5" stroke-width="0.5"></path><path d="M254.6098 215.5066L241.758 167.0802" fill="none" stroke="#aaa" stroke-opacity="0.5" stroke-width="0.5"></path><path d="M293.6959 181.4375L241.758 167.0802" fill="none" stroke="#aaa" stroke-opacity="0.5" stroke-width="0.5"></path><path d="M150.4823 47.7031L254.6098 215.5066" fill="none" stroke="#aaa" stroke-opacity="0.5" stroke-width="0.5"></path><path d="M111.4495 128.9199L293.6959 181.4375" fill="none" stroke="#aaa" stroke-opacity="0.5" stroke-width="0.5"></path><path d="M241.758 167.0802L157.5024 211.0686" fill="none" stroke="#aaa" stroke-opacity="0.5" stroke-width="0.5"></path><path d="M125.7113 173.6911L293.6959 181.4375" fill="none" stroke="#aaa" stroke-opacity="0.5" stroke-width="0.5"></path><path d="M308.2531 137.273L208.5403 79.0571" fill="none" stroke="#aaa" stroke-opacity="0.5" stroke-width="0.5"></path><path d="M206.2707 222.9403L157.5024 211.0686" fill="none" stroke="#aaa" stroke-opacity="0.5" stroke-width="0.5"></path><path d="M166.6705 116.9738L122.8496 83.3263" fill="none" stroke="#aaa" stroke-opacity="0.5" stroke-width="0.5"></path><path d="M251.8643 111.7323L157.5024 211.0686" fill="none" stroke="#aaa" stroke-opacity="0.5" stroke-width="0.5"></path><path d="M206.2707 222.9403L241.758 167.0802" fill="none" stroke="#aaa" stroke-opacity="0.5" stroke-width="0.5"></path><path d="M125.7113 173.6911L208.5403 79.0571" fill="none" stroke="#aaa" stroke-opacity="0.5" stroke-width="0.5"></path><path d="M303.4219 91.6354L239.3585 31.4663" fill="none" stroke="#aaa" stroke-opacity="0.5" stroke-width="0.5"></path><path d="M254.6098 215.5066L186.9314 168.8783" fill="none" stroke="#aaa" stroke-opacity="0.5" stroke-width="0.5"></path><path d="M251.8643 111.7323L241.758 167.0802" fill="none" stroke="#aaa" stroke-opacity="0.5" stroke-width="0.5"></path><path d="M293.6959 181.4375L186.9314 168.8783" fill="none" stroke="#aaa" stroke-opacity="0.5" stroke-width="0.5"></path><path d="M150.4823 47.7031L251.8643 111.7323" fill="none" stroke="#aaa" stroke-opacity="0.5" stroke-width="0.5"></path><path d="M254.6098 215.5066L239.3585 31.4663" fill="none" stroke="#aaa" stroke-opacity="0.5" stroke-width="0.5"></path><path d="M111.4495 128.9199L254.6098 215.5066" fill="none" stroke="#aaa" stroke-opacity="0.5" stroke-width="0.5"></path><path d="M125.7113 173.6911L254.6098 215.5066" fill="none" stroke="#aaa" stroke-opacity="0.5" stroke-width="0.5"></path><path d="M191.9551 27.3356L239.3585 31.4663" fill="none" stroke="#aaa" stroke-opacity="0.5" stroke-width="0.5"></path><path d="M166.6705 116.9738L206.2707 222.9403" fill="none" stroke="#aaa" stroke-opacity="0.5" stroke-width="0.5"></path><path d="M254.6098 215.5066L303.4219 91.6354" fill="none" stroke="#aaa" stroke-opacity="0.5" stroke-width="0.5"></path><path d="M293.6959 181.4375L303.4219 91.6354" fill="none" stroke="#aaa" stroke-opacity="0.5" stroke-width="0.5"></path><path d="M111.4495 128.9199L251.8643 111.7323" fill="none" stroke="#aaa" stroke-opacity="0.5" stroke-width="0.5"></path><path d="M125.7113 173.6911L251.8643 111.7323" fill="none" stroke="#aaa" stroke-opacity="0.5" stroke-width="0.5"></path><path d="M122.8496 83.3263L278.9413 53.9747" fill="none" stroke="#aaa" stroke-opacity="0.5" stroke-width="0.5"></path><path d="M251.8643 111.7323L186.9314 168.8783" fill="none" stroke="#aaa" stroke-opacity="0.5" stroke-width="0.5"></path><path d="M278.9413 53.9747L208.5403 79.0571" fill="none" stroke="#aaa" stroke-opacity="0.5" stroke-width="0.5"></path><path d="M111.4495 128.9199L150.4823 47.7031" fill="none" stroke="#aaa" stroke-opacity="0.5" stroke-width="0.5"></path><path d="M125.7113 173.6911L150.4823 47.7031" fill="none" stroke="#aaa" stroke-opacity="0.5" stroke-width="0.5"></path><path d="M186.9314 168.8783L122.8496 83.3263" fill="none" stroke="#aaa" stroke-opacity="0.5" stroke-width="0.5"></path><path d="M239.3585 31.4663L241.758 167.0802" fill="none" stroke="#aaa" stroke-opacity="0.5" stroke-width="0.5"></path><path d="M208.5403 79.0571L157.5024 211.0686" fill="none" stroke="#aaa" stroke-opacity="0.5" stroke-width="0.5"></path><path d="M191.9551 27.3356L308.2531 137.273" fill="none" stroke="#aaa" stroke-opacity="0.5" stroke-width="0.5"></path><path d="M208.5403 79.0571L241.758 167.0802" fill="none" stroke="#aaa" stroke-opacity="0.5" stroke-width="0.5"></path><path d="M166.6705 116.9738L157.5024 211.0686" fill="none" stroke="#aaa" stroke-opacity="0.5" stroke-width="0.5"></path><path d="M303.4219 91.6354L278.9413 53.9747" fill="none" stroke="#aaa" stroke-opacity="0.5" stroke-width="0.5"></path><path d="M150.4823 47.7031L186.9314 168.8783" fill="none" stroke="#aaa" stroke-opacity="0.5" stroke-width="0.5"></path><path d="M166.6705 116.9738L241.758 167.0802" fill="none" stroke="#aaa" stroke-opacity="0.5" stroke-width="0.5"></path><path d="M254.6098 215.5066L278.9413 53.9747" fill="none" stroke="#aaa" stroke-opacity="0.5" stroke-width="0.5"></path><path d="M293.6959 181.4375L278.9413 53.9747" fill="none" stroke="#aaa" stroke-opacity="0.5" stroke-width="0.5"></path><path d="M251.8643 111.7323L303.4219 91.6354" fill="none" stroke="#aaa" stroke-opacity="0.5" stroke-width="0.5"></path><path d="M186.9314 168.8783L206.2707 222.9403" fill="none" stroke="#aaa" stroke-opacity="0.5" stroke-width="0.5"></path><path d="M122.8496 83.3263L208.5403 79.0571" fill="none" stroke="#aaa" stroke-opacity="0.5" stroke-width="0.5"></path><path d="M303.4219 91.6354L122.8496 83.3263" fill="none" stroke="#aaa" stroke-opacity="0.5" stroke-width="0.5"></path><path d="M166.6705 116.9738L186.9314 168.8783" fill="none" stroke="#aaa" stroke-opacity="0.5" stroke-width="0.5"></path><path d="M251.8643 111.7323L278.9413 53.9747" fill="none" stroke="#aaa" stroke-opacity="0.5" stroke-width="0.5"></path><path d="M166.6705 116.9738L239.3585 31.4663" fill="none" stroke="#aaa" stroke-opacity="0.5" stroke-width="0.5"></path><path d="M186.9314 168.8783L157.5024 211.0686" fill="none" stroke="#aaa" stroke-opacity="0.5" stroke-width="0.5"></path><path d="M293.6959 181.4375L208.5403 79.0571" fill="none" stroke="#aaa" stroke-opacity="0.5" stroke-width="0.5"></path><path d="M186.9314 168.8783L241.758 167.0802" fill="none" stroke="#aaa" stroke-opacity="0.5" stroke-width="0.5"></path><path d="M125.7113 173.6911L191.9551 27.3356" fill="none" stroke="#aaa" stroke-opacity="0.5" stroke-width="0.5"></path><path d="M191.9551 27.3356L122.8496 83.3263" fill="none" stroke="#aaa" stroke-opacity="0.5" stroke-width="0.5"></path><path d="M125.7113 173.6911L239.3585 31.4663" fill="none" stroke="#aaa" stroke-opacity="0.5" stroke-width="0.5"></path><path d="M150.4823 47.7031L308.2531 137.273" fill="none" stroke="#aaa" stroke-opacity="0.5" stroke-width="0.5"></path><path d="M150.4823 47.7031L278.9413 53.9747" fill="none" stroke="#aaa" stroke-opacity="0.5" stroke-width="0.5"></path><path d="M293.6959 181.4375L254.6098 215.5066" fill="none" stroke="#aaa" stroke-opacity="0.5" stroke-width="0.5"></path><path d="M166.6705 116.9738L303.4219 91.6354" fill="none" stroke="#aaa" stroke-opacity="0.5" stroke-width="0.5"></path><path d="M122.8496 83.3263L206.2707 222.9403" fill="none" stroke="#aaa" stroke-opacity="0.5" stroke-width="0.5"></path><path d="M166.6705 116.9738L111.4495 128.9199" fill="none" stroke="#aaa" stroke-opacity="0.5" stroke-width="0.5"></path><path d="M191.9551 27.3356L206.2707 222.9403" fill="none" stroke="#aaa" stroke-opacity="0.5" stroke-width="0.5"></path><path d="M239.3585 31.4663L278.9413 53.9747" fill="none" stroke="#aaa" stroke-opacity="0.5" stroke-width="0.5"></path><path d="M111.4495 128.9199L308.2531 137.273" fill="none" stroke="#aaa" stroke-opacity="0.5" stroke-width="0.5"></path><path d="M251.8643 111.7323L208.5403 79.0571" fill="none" stroke="#aaa" stroke-opacity="0.5" stroke-width="0.5"></path><path d="M254.6098 215.5066L251.8643 111.7323" fill="none" stroke="#aaa" stroke-opacity="0.5" stroke-width="0.5"></path><path d="M125.7113 173.6911L308.2531 137.273" fill="none" stroke="#aaa" stroke-opacity="0.5" stroke-width="0.5"></path><path d="M293.6959 181.4375L206.2707 222.9403" fill="none" stroke="#aaa" stroke-opacity="0.5" stroke-width="0.5"></path><path d="M166.6705 116.9738L278.9413 53.9747" fill="none" stroke="#aaa" stroke-opacity="0.5" stroke-width="0.5"></path><path d="M122.8496 83.3263L157.5024 211.0686" fill="none" stroke="#aaa" stroke-opacity="0.5" stroke-width="0.5"></path><path d="M122.8496 83.3263L241.758 167.0802" fill="none" stroke="#aaa" stroke-opacity="0.5" stroke-width="0.5"></path><path d="M150.4823 47.7031L208.5403 79.0571" fill="none" stroke="#aaa" stroke-opacity="0.5" stroke-width="0.5"></path><path d="M191.9551 27.3356L157.5024 211.0686" fill="none" stroke="#aaa" stroke-opacity="0.5" stroke-width="0.5"></path><path d="M186.9314 168.8783L303.4219 91.6354" fill="none" stroke="#aaa" stroke-opacity="0.5" stroke-width="0.5"></path><path d="M191.9551 27.3356L241.758 167.0802" fill="none" stroke="#aaa" stroke-opacity="0.5" stroke-width="0.5"></path><path d="M166.6705 116.9738L293.6959 181.4375" fill="none" stroke="#aaa" stroke-opacity="0.5" stroke-width="0.5"></path><path d="M251.8643 111.7323L206.2707 222.9403" fill="none" stroke="#aaa" stroke-opacity="0.5" stroke-width="0.5"></path><path d="M239.3585 31.4663L208.5403 79.0571" fill="none" stroke="#aaa" stroke-opacity="0.5" stroke-width="0.5"></path><path d="M308.2531 137.273L122.8496 83.3263" fill="none" stroke="#aaa" stroke-opacity="0.5" stroke-width="0.5"></path><path d="M111.4495 128.9199L208.5403 79.0571" fill="none" stroke="#aaa" stroke-opacity="0.5" stroke-width="0.5"></path><path d="M122.8496 83.3263L239.3585 31.4663" fill="none" stroke="#aaa" stroke-opacity="0.5" stroke-width="0.5"></path><path d="M166.6705 116.9738L208.5403 79.0571" fill="none" stroke="#aaa" stroke-opacity="0.5" stroke-width="0.5"></path><path d="M150.4823 47.7031L206.2707 222.9403" fill="none" stroke="#aaa" stroke-opacity="0.5" stroke-width="0.5"></path><path d="M111.4495 128.9199L122.8496 83.3263" fill="none" stroke="#aaa" stroke-opacity="0.5" stroke-width="0.5"></path><path d="M125.7113 173.6911L122.8496 83.3263" fill="none" stroke="#aaa" stroke-opacity="0.5" stroke-width="0.5"></path><path d="M186.9314 168.8783L278.9413 53.9747" fill="none" stroke="#aaa" stroke-opacity="0.5" stroke-width="0.5"></path><path d="M166.6705 116.9738L254.6098 215.5066" fill="none" stroke="#aaa" stroke-opacity="0.5" stroke-width="0.5"></path><path d="M191.9551 27.3356L186.9314 168.8783" fill="none" stroke="#aaa" stroke-opacity="0.5" stroke-width="0.5"></path><path d="M308.2531 137.273L206.2707 222.9403" fill="none" stroke="#aaa" stroke-opacity="0.5" stroke-width="0.5"></path><path d="M293.6959 181.4375L239.3585 31.4663" fill="none" stroke="#aaa" stroke-opacity="0.5" stroke-width="0.5"></path><path d="M239.3585 31.4663L206.2707 222.9403" fill="none" stroke="#aaa" stroke-opacity="0.5" stroke-width="0.5"></path><path d="M111.4495 128.9199L206.2707 222.9403" fill="none" stroke="#aaa" stroke-opacity="0.5" stroke-width="0.5"></path><path d="M150.4823 47.7031L157.5024 211.0686" fill="none" stroke="#aaa" stroke-opacity="0.5" stroke-width="0.5"></path><path d="M125.7113 173.6911L206.2707 222.9403" fill="none" stroke="#aaa" stroke-opacity="0.5" stroke-width="0.5"></path><path d="M208.5403 79.0571L206.2707 222.9403" fill="none" stroke="#aaa" stroke-opacity="0.5" stroke-width="0.5"></path><path d="M191.9551 27.3356L303.4219 91.6354" fill="none" stroke="#aaa" stroke-opacity="0.5" stroke-width="0.5"></path><path d="M166.6705 116.9738L251.8643 111.7323" fill="none" stroke="#aaa" stroke-opacity="0.5" stroke-width="0.5"></path><path d="M150.4823 47.7031L241.758 167.0802" fill="none" stroke="#aaa" stroke-opacity="0.5" stroke-width="0.5"></path><path d="M125.7113 173.6911L166.6705 116.9738" fill="none" stroke="#aaa" stroke-opacity="0.5" stroke-width="0.5"></path><path d="M166.6705 116.9738L150.4823 47.7031" fill="none" stroke="#aaa" stroke-opacity="0.5" stroke-width="0.5"></path><path d="M191.9551 27.3356L111.4495 128.9199" fill="none" stroke="#aaa" stroke-opacity="0.5" stroke-width="0.5"></path><path d="M308.2531 137.273L157.5024 211.0686" fill="none" stroke="#aaa" stroke-opacity="0.5" stroke-width="0.5"></path><path d="M186.9314 168.8783L208.5403 79.0571" fill="none" stroke="#aaa" stroke-opacity="0.5" stroke-width="0.5"></path><path d="M254.6098 215.5066L308.2531 137.273" fill="none" stroke="#aaa" stroke-opacity="0.5" stroke-width="0.5"></path><path d="M308.2531 137.273L241.758 167.0802" fill="none" stroke="#aaa" stroke-opacity="0.5" stroke-width="0.5"></path><path d="M293.6959 181.4375L308.2531 137.273" fill="none" stroke="#aaa" stroke-opacity="0.5" stroke-width="0.5"></path><path d="M251.8643 111.7323L239.3585 31.4663" fill="none" stroke="#aaa" stroke-opacity="0.5" stroke-width="0.5"></path><path d="M239.3585 31.4663L157.5024 211.0686" fill="none" stroke="#aaa" stroke-opacity="0.5" stroke-width="0.5"></path><path d="M111.4495 128.9199L157.5024 211.0686" fill="none" stroke="#aaa" stroke-opacity="0.5" stroke-width="0.5"></path><path d="M125.7113 173.6911L157.5024 211.0686" fill="none" stroke="#aaa" stroke-opacity="0.5" stroke-width="0.5"></path><path d="M111.4495 128.9199L241.758 167.0802" fill="none" stroke="#aaa" stroke-opacity="0.5" stroke-width="0.5"></path><path d="M125.7113 173.6911L241.758 167.0802" fill="none" stroke="#aaa" stroke-opacity="0.5" stroke-width="0.5"></path><path d="M191.9551 27.3356L278.9413 53.9747" fill="none" stroke="#aaa" stroke-opacity="0.5" stroke-width="0.5"></path><path d="M278.9413 53.9747L206.2707 222.9403" fill="none" stroke="#aaa" stroke-opacity="0.5" stroke-width="0.5"></path><path d="M150.4823 47.7031L239.3585 31.4663" fill="none" stroke="#aaa" stroke-opacity="0.5" stroke-width="0.5"></path><path d="M251.8643 111.7323L308.2531 137.273" fill="none" stroke="#aaa" stroke-opacity="0.5" stroke-width="0.5"></path><path d="M308.2531 137.273L186.9314 168.8783" fill="none" stroke="#aaa" stroke-opacity="0.5" stroke-width="0.5"></path><path d="M308.2531 137.273L239.3585 31.4663" fill="none" stroke="#aaa" stroke-opacity="0.5" stroke-width="0.5"></path><path d="M303.4219 91.6354L208.5403 79.0571" fill="none" stroke="#aaa" stroke-opacity="0.5" stroke-width="0.5"></path><path d="M150.4823 47.7031L303.4219 91.6354" fill="none" stroke="#aaa" stroke-opacity="0.5" stroke-width="0.5"></path><path d="M191.9551 27.3356L293.6959 181.4375" fill="none" stroke="#aaa" stroke-opacity="0.5" stroke-width="0.5"></path><path d="M254.6098 215.5066L208.5403 79.0571" fill="none" stroke="#aaa" stroke-opacity="0.5" stroke-width="0.5"></path><path d="M111.4495 128.9199L186.9314 168.8783" fill="none" stroke="#aaa" stroke-opacity="0.5" stroke-width="0.5"></path><path d="M278.9413 53.9747L157.5024 211.0686" fill="none" stroke="#aaa" stroke-opacity="0.5" stroke-width="0.5"></path><path d="M125.7113 173.6911L186.9314 168.8783" fill="none" stroke="#aaa" stroke-opacity="0.5" stroke-width="0.5"></path><path d="M111.4495 128.9199L239.3585 31.4663" fill="none" stroke="#aaa" stroke-opacity="0.5" stroke-width="0.5"></path><path d="M278.9413 53.9747L241.758 167.0802" fill="none" stroke="#aaa" stroke-opacity="0.5" stroke-width="0.5"></path><path d="M166.6705 116.9738L191.9551 27.3356" fill="none" stroke="#aaa" stroke-opacity="0.5" stroke-width="0.5"></path><path d="M254.6098 215.5066L122.8496 83.3263" fill="none" stroke="#aaa" stroke-opacity="0.5" stroke-width="0.5"></path><path d="M293.6959 181.4375L122.8496 83.3263" fill="none" stroke="#aaa" stroke-opacity="0.5" stroke-width="0.5"></path><path d="M191.9551 27.3356L208.5403 79.0571" fill="none" stroke="#aaa" stroke-opacity="0.5" stroke-width="0.5"></path><path d="M308.2531 137.273L303.4219 91.6354" fill="none" stroke="#aaa" stroke-opacity="0.5" stroke-width="0.5"></path><path d="M191.9551 27.3356L254.6098 215.5066" fill="none" stroke="#aaa" stroke-opacity="0.5" stroke-width="0.5"></path><path d="M111.4495 128.9199L303.4219 91.6354" fill="none" stroke="#aaa" stroke-opacity="0.5" stroke-width="0.5"></path><path d="M125.7113 173.6911L303.4219 91.6354" fill="none" stroke="#aaa" stroke-opacity="0.5" stroke-width="0.5"></path><path d="M303.4219 91.6354L206.2707 222.9403" fill="none" stroke="#aaa" stroke-opacity="0.5" stroke-width="0.5"></path><path d="M254.6098 215.5066L206.2707 222.9403" fill="none" stroke="#aaa" stroke-opacity="0.5" stroke-width="0.5"></path><path d="M125.7113 173.6911L111.4495 128.9199" fill="none" stroke="#aaa" stroke-opacity="0.5" stroke-width="0.5"></path><path d="M1 0A1 1 0 1 1 1 -0.0001" fill="#5470c6" transform="matrix(18,0,0,18,303.4219,91.6354)"></path><path d="M1 0A1 1 0 1 1 1 -0.0001" fill="#5470c6" transform="matrix(18,0,0,18,308.2531,137.273)"></path><path d="M1 0A1 1 0 1 1 1 -0.0001" fill="#5470c6" transform="matrix(18,0,0,18,293.6959,181.4375)"></path><path d="M1 0A1 1 0 1 1 1 -0.0001" fill="#5470c6" transform="matrix(18,0,0,18,254.6098,215.5066)"></path><path d="M1 0A1 1 0 1 1 1 -0.0001" fill="#5470c6" transform="matrix(18,0,0,18,206.2707,222.9403)"></path><path d="M1 0A1 1 0 1 1 1 -0.0001" fill="#5470c6" transform="matrix(18,0,0,18,157.5024,211.0686)"></path><path d="M1 0A1 1 0 1 1 1 -0.0001" fill="#5470c6" transform="matrix(18,0,0,18,125.7113,173.6911)"></path><path d="M1 0A1 1 0 1 1 1 -0.0001" fill="#5470c6" transform="matrix(18,0,0,18,186.9314,168.8783)"></path><path d="M1 0A1 1 0 1 1 1 -0.0001" fill="#5470c6" transform="matrix(18,0,0,18,111.4495,128.9199)"></path><path d="M1 0A1 1 0 1 1 1 -0.0001" fill="#5470c6" transform="matrix(18,0,0,18,122.8496,83.3263)"></path><path d="M1 0A1 1 0 1 1 1 -0.0001" fill="#5470c6" transform="matrix(18,0,0,18,166.6705,116.9738)"></path><path d="M1 0A1 1 0 1 1 1 -0.0001" fill="#5470c6" transform="matrix(18,0,0,18,150.4823,47.7031)"></path><path d="M1 0A1 1 0 1 1 1 -0.0001" fill="#5470c6" transform="matrix(18,0,0,18,208.5403,79.0571)"></path><path d="M1 0A1 1 0 1 1 1 -0.0001" fill="#5470c6" transform="matrix(18,0,0,18,191.9551,27.3356)"></path><path d="M1 0A1 1 0 1 1 1 -0.0001" fill="#5470c6" transform="matrix(18,0,0,18,239.3585,31.4663)"></path><path d="M1 0A1 1 0 1 1 1 -0.0001" fill="#5470c6" transform="matrix(18,0,0,18,251.8643,111.7323)"></path><path d="M1 0A1 1 0 1 1 1 -0.0001" fill="#5470c6" transform="matrix(18,0,0,18,278.9413,53.9747)"></path><path d="M1 0A1 1 0 1 1 1 -0.0001" fill="#5470c6" transform="matrix(18,0,0,18,241.758,167.0802)"></path><path d="M-26.0964 -5l52.1929 0l0 33l-52.1929 0Z" fill="rgb(0,0,0)" fill-opacity="0" stroke="#ccc" stroke-width="0" transform="translate(237.5 5)"></path><text dominant-baseline="central" fill="#333" style="font-size:23px;font-family:sans-serif;font-weight:bolder;" text-anchor="middle" transform="translate(237.5 5)" y="11.5">C27</text></g></svg>