<svg baseprofile="full" height="250" style="position:absolute;left:0;top:0;user-select:none" version="1.1" width="475" xmlns="http://www.w3.org/2000/svg" xmlns:xlink="http://www.w3.org/1999/xlink"><rect fill="none" height="250" id="0" width="475" x="0" y="0"></rect><g><path d="M302.6286 191.9316L175.9944 232.6691" fill="none" stroke="#aaa" stroke-opacity="0.5"></path><path d="M303.1045 58.3567L97.7743 125.056" fill="none" stroke="#aaa" stroke-opacity="0.5"></path><path d="M302.6286 191.9316L176.1275 16.9865" fill="none" stroke="#aaa" stroke-opacity="0.5"></path><path d="M175.9944 232.6691L97.7743 125.056" fill="none" stroke="#aaa" stroke-opacity="0.5"></path><path d="M303.1045 58.3567L175.9944 232.6691" fill="none" stroke="#aaa" stroke-opacity="0.5"></path><path d="M176.5 232.6691L176.5 16.9865" fill="none" stroke="#aaa" stroke-opacity="0.5"></path><path d="M302.6286 191.9316L97.7743 125.056" fill="none" stroke="#aaa" stroke-opacity="0.5"></path><path d="M303.1045 58.3567L302.6286 191.9316" fill="none" stroke="#aaa" stroke-opacity="0.5"></path><path d="M303.1045 58.3567L176.1275 16.9865" fill="none" stroke="#aaa" stroke-opacity="0.5"></path><path d="M176.1275 16.9865L97.7743 125.056" fill="none" stroke="#aaa" stroke-opacity="0.5"></path><path d="M1 0A1 1 0 1 1 1 -0.0001" fill="#5470c6" transform="matrix(19.5,0,0,19.5,302.6286,191.9316)"></path><path d="M1 0A1 1 0 1 1 1 -0.0001" fill="#5470c6" transform="matrix(19.5,0,0,19.5,175.9944,232.6691)"></path><path d="M1 0A1 1 0 1 1 1 -0.0001" fill="#5470c6" transform="matrix(19.5,0,0,19.5,97.7743,125.056)"></path><path d="M1 0A1 1 0 1 1 1 -0.0001" fill="#5470c6" transform="matrix(19.5,0,0,19.5,176.1275,16.9865)"></path><path d="M1 0A1 1 0 1 1 1 -0.0001" fill="#5470c6" transform="matrix(19.5,0,0,19.5,303.1045,58.3567)"></path><path d="M-32.4922 -5l64.9844 0l0 33l-64.9844 0Z" fill="rgb(0,0,0)" fill-opacity="0" stroke="#ccc" stroke-width="0" transform="translate(237.5 5)"></path><text dominant-baseline="central" fill="#333" style="font-size:23px;font-family:sans-serif;font-weight:bolder;" text-anchor="middle" transform="translate(237.5 5)" y="11.5">C270</text></g></svg>