<svg baseprofile="full" height="250" style="position:absolute;left:0;top:0;user-select:none" version="1.1" width="475" xmlns="http://www.w3.org/2000/svg" xmlns:xlink="http://www.w3.org/1999/xlink"><rect fill="none" height="250" id="0" width="475" x="0" y="0"></rect><g><path d="M175.2777 17.5696L301.8906 57.5003" fill="none" stroke="#aaa" stroke-opacity="0.5"></path><path d="M303.4881 190.6739L97.6208 125.9238" fill="none" stroke="#aaa" stroke-opacity="0.5"></path><path d="M177.3521 233.3325L303.4881 190.6739" fill="none" stroke="#aaa" stroke-opacity="0.5"></path><path d="M177.3521 233.3325L301.8906 57.5003" fill="none" stroke="#aaa" stroke-opacity="0.5"></path><path d="M177.3521 233.3325L175.2777 17.5696" fill="none" stroke="#aaa" stroke-opacity="0.5"></path><path d="M303.4881 190.6739L301.8906 57.5003" fill="none" stroke="#aaa" stroke-opacity="0.5"></path><path d="M175.2777 17.5696L97.6208 125.9238" fill="none" stroke="#aaa" stroke-opacity="0.5"></path><path d="M301.8906 57.5003L97.6208 125.9238" fill="none" stroke="#aaa" stroke-opacity="0.5"></path><path d="M177.3521 233.3325L97.6208 125.9238" fill="none" stroke="#aaa" stroke-opacity="0.5"></path><path d="M175.2777 17.5696L303.4881 190.6739" fill="none" stroke="#aaa" stroke-opacity="0.5"></path><path d="M1 0A1 1 0 1 1 1 -0.0001" fill="#5470c6" transform="matrix(19.5,0,0,19.5,303.4881,190.6739)"></path><path d="M1 0A1 1 0 1 1 1 -0.0001" fill="#5470c6" transform="matrix(19.5,0,0,19.5,177.3521,233.3325)"></path><path d="M1 0A1 1 0 1 1 1 -0.0001" fill="#5470c6" transform="matrix(19.5,0,0,19.5,97.6208,125.9238)"></path><path d="M1 0A1 1 0 1 1 1 -0.0001" fill="#5470c6" transform="matrix(19.5,0,0,19.5,175.2777,17.5696)"></path><path d="M1 0A1 1 0 1 1 1 -0.0001" fill="#5470c6" transform="matrix(19.5,0,0,19.5,301.8906,57.5003)"></path><path d="M-32.4922 -5l64.9844 0l0 33l-64.9844 0Z" fill="rgb(0,0,0)" fill-opacity="0" stroke="#ccc" stroke-width="0" transform="translate(237.5 5)"></path><text dominant-baseline="central" fill="#333" style="font-size:23px;font-family:sans-serif;font-weight:bolder;" text-anchor="middle" transform="translate(237.5 5)" y="11.5">C271</text></g></svg>