<svg baseprofile="full" height="250" style="position:absolute;left:0;top:0;user-select:none" version="1.1" width="475" xmlns="http://www.w3.org/2000/svg" xmlns:xlink="http://www.w3.org/1999/xlink"><rect fill="none" height="250" id="0" width="475" x="0" y="0"></rect><g><path d="M179.1514 16.22L301.0665 194.4969" fill="none" stroke="#aaa" stroke-opacity="0.5"></path><path d="M172.9827 231.7702L304.9614 60.9228" fill="none" stroke="#aaa" stroke-opacity="0.5"></path><path d="M97.4674 121.5901L304.9614 60.9228" fill="none" stroke="#aaa" stroke-opacity="0.5"></path><path d="M97.4674 121.5901L179.1514 16.22" fill="none" stroke="#aaa" stroke-opacity="0.5"></path><path d="M179.1514 16.22L304.9614 60.9228" fill="none" stroke="#aaa" stroke-opacity="0.5"></path><path d="M179.1514 16.22L172.9827 231.7702" fill="none" stroke="#aaa" stroke-opacity="0.5"></path><path d="M97.4674 121.5901L301.0665 194.4969" fill="none" stroke="#aaa" stroke-opacity="0.5"></path><path d="M304.9614 60.9228L301.0665 194.4969" fill="none" stroke="#aaa" stroke-opacity="0.5"></path><path d="M172.9827 231.7702L301.0665 194.4969" fill="none" stroke="#aaa" stroke-opacity="0.5"></path><path d="M97.4674 121.5901L172.9827 231.7702" fill="none" stroke="#aaa" stroke-opacity="0.5"></path><path d="M1 0A1 1 0 1 1 1 -0.0001" fill="#5470c6" transform="matrix(19.5,0,0,19.5,301.0665,194.4969)"></path><path d="M1 0A1 1 0 1 1 1 -0.0001" fill="#5470c6" transform="matrix(19.5,0,0,19.5,172.9827,231.7702)"></path><path d="M1 0A1 1 0 1 1 1 -0.0001" fill="#5470c6" transform="matrix(19.5,0,0,19.5,97.4674,121.5901)"></path><path d="M1 0A1 1 0 1 1 1 -0.0001" fill="#5470c6" transform="matrix(19.5,0,0,19.5,179.1514,16.22)"></path><path d="M1 0A1 1 0 1 1 1 -0.0001" fill="#5470c6" transform="matrix(19.5,0,0,19.5,304.9614,60.9228)"></path><path d="M-32.4922 -5l64.9844 0l0 33l-64.9844 0Z" fill="rgb(0,0,0)" fill-opacity="0" stroke="#ccc" stroke-width="0" transform="translate(237.5 5)"></path><text dominant-baseline="central" fill="#333" style="font-size:23px;font-family:sans-serif;font-weight:bolder;" text-anchor="middle" transform="translate(237.5 5)" y="11.5">C272</text></g></svg>