<svg baseprofile="full" height="250" style="position:absolute;left:0;top:0;user-select:none" version="1.1" width="475" xmlns="http://www.w3.org/2000/svg" xmlns:xlink="http://www.w3.org/1999/xlink"><rect fill="none" height="250" id="0" width="475" x="0" y="0"></rect><g><path d="M303.0471 191.5945L175.6386 17.1747" fill="none" stroke="#aaa" stroke-opacity="0.5"></path><path d="M175.6386 17.1747L97.8488 125.2381" fill="none" stroke="#aaa" stroke-opacity="0.5"></path><path d="M176.2919 232.5035L97.8488 125.2381" fill="none" stroke="#aaa" stroke-opacity="0.5"></path><path d="M176.2919 232.5035L175.6386 17.1747" fill="none" stroke="#aaa" stroke-opacity="0.5"></path><path d="M303.5 58.4893L303.5 191.5945" fill="none" stroke="#aaa" stroke-opacity="0.5"></path><path d="M303.0471 191.5945L97.8488 125.2381" fill="none" stroke="#aaa" stroke-opacity="0.5"></path><path d="M176.2919 232.5035L303.0471 191.5945" fill="none" stroke="#aaa" stroke-opacity="0.5"></path><path d="M176.2919 232.5035L302.803 58.4893" fill="none" stroke="#aaa" stroke-opacity="0.5"></path><path d="M302.803 58.4893L97.8488 125.2381" fill="none" stroke="#aaa" stroke-opacity="0.5"></path><path d="M302.803 58.4893L175.6386 17.1747" fill="none" stroke="#aaa" stroke-opacity="0.5"></path><path d="M1 0A1 1 0 1 1 1 -0.0001" fill="#5470c6" transform="matrix(19.5,0,0,19.5,303.0471,191.5945)"></path><path d="M1 0A1 1 0 1 1 1 -0.0001" fill="#5470c6" transform="matrix(19.5,0,0,19.5,176.2919,232.5035)"></path><path d="M1 0A1 1 0 1 1 1 -0.0001" fill="#5470c6" transform="matrix(19.5,0,0,19.5,97.8488,125.2381)"></path><path d="M1 0A1 1 0 1 1 1 -0.0001" fill="#5470c6" transform="matrix(19.5,0,0,19.5,175.6386,17.1747)"></path><path d="M1 0A1 1 0 1 1 1 -0.0001" fill="#5470c6" transform="matrix(19.5,0,0,19.5,302.803,58.4893)"></path><path d="M-32.4922 -5l64.9844 0l0 33l-64.9844 0Z" fill="rgb(0,0,0)" fill-opacity="0" stroke="#ccc" stroke-width="0" transform="translate(237.5 5)"></path><text dominant-baseline="central" fill="#333" style="font-size:23px;font-family:sans-serif;font-weight:bolder;" text-anchor="middle" transform="translate(237.5 5)" y="11.5">C273</text></g></svg>