<svg baseprofile="full" height="250" style="position:absolute;left:0;top:0;user-select:none" version="1.1" width="475" xmlns="http://www.w3.org/2000/svg" xmlns:xlink="http://www.w3.org/1999/xlink"><rect fill="none" height="250" id="0" width="475" x="0" y="0"></rect><g><path d="M302.9898 191.2253L175.2664 17.1433" fill="none" stroke="#aaa" stroke-opacity="0.5"></path><path d="M302.7162 57.7951L97.8256 125.6603" fill="none" stroke="#aaa" stroke-opacity="0.5"></path><path d="M176.8313 233.176L302.9898 191.2253" fill="none" stroke="#aaa" stroke-opacity="0.5"></path><path d="M176.8313 233.176L175.2664 17.1433" fill="none" stroke="#aaa" stroke-opacity="0.5"></path><path d="M175.2664 17.1433L97.8256 125.6603" fill="none" stroke="#aaa" stroke-opacity="0.5"></path><path d="M176.8313 233.176L97.8256 125.6603" fill="none" stroke="#aaa" stroke-opacity="0.5"></path><path d="M302.9898 191.2253L97.8256 125.6603" fill="none" stroke="#aaa" stroke-opacity="0.5"></path><path d="M302.7162 57.7951L176.8313 233.176" fill="none" stroke="#aaa" stroke-opacity="0.5"></path><path d="M302.7162 57.7951L302.9898 191.2253" fill="none" stroke="#aaa" stroke-opacity="0.5"></path><path d="M302.7162 57.7951L175.2664 17.1433" fill="none" stroke="#aaa" stroke-opacity="0.5"></path><path d="M1 0A1 1 0 1 1 1 -0.0001" fill="#5470c6" transform="matrix(19.5,0,0,19.5,302.9898,191.2253)"></path><path d="M1 0A1 1 0 1 1 1 -0.0001" fill="#5470c6" transform="matrix(19.5,0,0,19.5,176.8313,233.176)"></path><path d="M1 0A1 1 0 1 1 1 -0.0001" fill="#5470c6" transform="matrix(19.5,0,0,19.5,97.8256,125.6603)"></path><path d="M1 0A1 1 0 1 1 1 -0.0001" fill="#5470c6" transform="matrix(19.5,0,0,19.5,175.2664,17.1433)"></path><path d="M1 0A1 1 0 1 1 1 -0.0001" fill="#5470c6" transform="matrix(19.5,0,0,19.5,302.7162,57.7951)"></path><path d="M-32.4922 -5l64.9844 0l0 33l-64.9844 0Z" fill="rgb(0,0,0)" fill-opacity="0" stroke="#ccc" stroke-width="0" transform="translate(237.5 5)"></path><text dominant-baseline="central" fill="#333" style="font-size:23px;font-family:sans-serif;font-weight:bolder;" text-anchor="middle" transform="translate(237.5 5)" y="11.5">C274</text></g></svg>