<svg baseprofile="full" height="250" style="position:absolute;left:0;top:0;user-select:none" version="1.1" width="475" xmlns="http://www.w3.org/2000/svg" xmlns:xlink="http://www.w3.org/1999/xlink"><rect fill="none" height="250" id="0" width="475" x="0" y="0"></rect><g><path d="M175.7488 17.4571L302.358 57.6458" fill="none" stroke="#aaa" stroke-opacity="0.5"></path><path d="M97.4009 125.6168L303.2669 191.274" fill="none" stroke="#aaa" stroke-opacity="0.5"></path><path d="M303.2669 191.274L176.8548 233.0062" fill="none" stroke="#aaa" stroke-opacity="0.5"></path><path d="M175.7488 17.4571L176.8548 233.0062" fill="none" stroke="#aaa" stroke-opacity="0.5"></path><path d="M302.358 57.6458L176.8548 233.0062" fill="none" stroke="#aaa" stroke-opacity="0.5"></path><path d="M97.4009 125.6168L302.358 57.6458" fill="none" stroke="#aaa" stroke-opacity="0.5"></path><path d="M97.4009 125.6168L176.8548 233.0062" fill="none" stroke="#aaa" stroke-opacity="0.5"></path><path d="M97.4009 125.6168L175.7488 17.4571" fill="none" stroke="#aaa" stroke-opacity="0.5"></path><path d="M175.7488 17.4571L303.2669 191.274" fill="none" stroke="#aaa" stroke-opacity="0.5"></path><path d="M302.358 57.6458L303.2669 191.274" fill="none" stroke="#aaa" stroke-opacity="0.5"></path><path d="M1 0A1 1 0 1 1 1 -0.0001" fill="#5470c6" transform="matrix(19.5,0,0,19.5,303.2669,191.274)"></path><path d="M1 0A1 1 0 1 1 1 -0.0001" fill="#5470c6" transform="matrix(19.5,0,0,19.5,176.8548,233.0062)"></path><path d="M1 0A1 1 0 1 1 1 -0.0001" fill="#5470c6" transform="matrix(19.5,0,0,19.5,97.4009,125.6168)"></path><path d="M1 0A1 1 0 1 1 1 -0.0001" fill="#5470c6" transform="matrix(19.5,0,0,19.5,175.7488,17.4571)"></path><path d="M1 0A1 1 0 1 1 1 -0.0001" fill="#5470c6" transform="matrix(19.5,0,0,19.5,302.358,57.6458)"></path><path d="M-32.4922 -5l64.9844 0l0 33l-64.9844 0Z" fill="rgb(0,0,0)" fill-opacity="0" stroke="#ccc" stroke-width="0" transform="translate(237.5 5)"></path><text dominant-baseline="central" fill="#333" style="font-size:23px;font-family:sans-serif;font-weight:bolder;" text-anchor="middle" transform="translate(237.5 5)" y="11.5">C275</text></g></svg>