<svg baseprofile="full" height="250" style="position:absolute;left:0;top:0;user-select:none" version="1.1" width="475" xmlns="http://www.w3.org/2000/svg" xmlns:xlink="http://www.w3.org/1999/xlink"><rect fill="none" height="250" id="0" width="475" x="0" y="0"></rect><g><path d="M97.3649 125.2021L303.1068 191.553" fill="none" stroke="#aaa" stroke-opacity="0.5"></path><path d="M97.3649 125.2021L302.7724 57.9319" fill="none" stroke="#aaa" stroke-opacity="0.5"></path><path d="M97.3649 125.2021L175.8215 17.4598" fill="none" stroke="#aaa" stroke-opacity="0.5"></path><path d="M175.8215 17.4598L302.7724 57.9319" fill="none" stroke="#aaa" stroke-opacity="0.5"></path><path d="M175.8215 17.4598L176.5638 232.8531" fill="none" stroke="#aaa" stroke-opacity="0.5"></path><path d="M303.1068 191.553L175.8215 17.4598" fill="none" stroke="#aaa" stroke-opacity="0.5"></path><path d="M303.1068 191.553L176.5638 232.8531" fill="none" stroke="#aaa" stroke-opacity="0.5"></path><path d="M302.7724 57.9319L176.5638 232.8531" fill="none" stroke="#aaa" stroke-opacity="0.5"></path><path d="M97.3649 125.2021L176.5638 232.8531" fill="none" stroke="#aaa" stroke-opacity="0.5"></path><path d="M303.5 191.553L303.5 57.9319" fill="none" stroke="#aaa" stroke-opacity="0.5"></path><path d="M1 0A1 1 0 1 1 1 -0.0001" fill="#5470c6" transform="matrix(19.5,0,0,19.5,303.1068,191.553)"></path><path d="M1 0A1 1 0 1 1 1 -0.0001" fill="#5470c6" transform="matrix(19.5,0,0,19.5,176.5638,232.8531)"></path><path d="M1 0A1 1 0 1 1 1 -0.0001" fill="#5470c6" transform="matrix(19.5,0,0,19.5,97.3649,125.2021)"></path><path d="M1 0A1 1 0 1 1 1 -0.0001" fill="#5470c6" transform="matrix(19.5,0,0,19.5,175.8215,17.4598)"></path><path d="M1 0A1 1 0 1 1 1 -0.0001" fill="#5470c6" transform="matrix(19.5,0,0,19.5,302.7724,57.9319)"></path><path d="M-32.4922 -5l64.9844 0l0 33l-64.9844 0Z" fill="rgb(0,0,0)" fill-opacity="0" stroke="#ccc" stroke-width="0" transform="translate(237.5 5)"></path><text dominant-baseline="central" fill="#333" style="font-size:23px;font-family:sans-serif;font-weight:bolder;" text-anchor="middle" transform="translate(237.5 5)" y="11.5">C276</text></g></svg>