<svg baseprofile="full" height="250" style="position:absolute;left:0;top:0;user-select:none" version="1.1" width="475" xmlns="http://www.w3.org/2000/svg" xmlns:xlink="http://www.w3.org/1999/xlink"><rect fill="none" height="250" id="0" width="475" x="0" y="0"></rect><g><path d="M300.3469 194.4932L305.3514 61.5006" fill="none" stroke="#aaa" stroke-opacity="0.5"></path><path d="M172.5134 231.396L305.3514 61.5006" fill="none" stroke="#aaa" stroke-opacity="0.5"></path><path d="M97.7574 121.3044L305.3514 61.5006" fill="none" stroke="#aaa" stroke-opacity="0.5"></path><path d="M300.3469 194.4932L172.5134 231.396" fill="none" stroke="#aaa" stroke-opacity="0.5"></path><path d="M97.7574 121.3044L172.5134 231.396" fill="none" stroke="#aaa" stroke-opacity="0.5"></path><path d="M300.3469 194.4932L179.6602 16.3058" fill="none" stroke="#aaa" stroke-opacity="0.5"></path><path d="M97.7574 121.3044L179.6602 16.3058" fill="none" stroke="#aaa" stroke-opacity="0.5"></path><path d="M179.6602 16.3058L305.3514 61.5006" fill="none" stroke="#aaa" stroke-opacity="0.5"></path><path d="M300.3469 194.4932L97.7574 121.3044" fill="none" stroke="#aaa" stroke-opacity="0.5"></path><path d="M179.6602 16.3058L172.5134 231.396" fill="none" stroke="#aaa" stroke-opacity="0.5"></path><path d="M1 0A1 1 0 1 1 1 -0.0001" fill="#5470c6" transform="matrix(19.5,0,0,19.5,300.3469,194.4932)"></path><path d="M1 0A1 1 0 1 1 1 -0.0001" fill="#5470c6" transform="matrix(19.5,0,0,19.5,172.5134,231.396)"></path><path d="M1 0A1 1 0 1 1 1 -0.0001" fill="#5470c6" transform="matrix(19.5,0,0,19.5,97.7574,121.3044)"></path><path d="M1 0A1 1 0 1 1 1 -0.0001" fill="#5470c6" transform="matrix(19.5,0,0,19.5,179.6602,16.3058)"></path><path d="M1 0A1 1 0 1 1 1 -0.0001" fill="#5470c6" transform="matrix(19.5,0,0,19.5,305.3514,61.5006)"></path><path d="M-32.4922 -5l64.9844 0l0 33l-64.9844 0Z" fill="rgb(0,0,0)" fill-opacity="0" stroke="#ccc" stroke-width="0" transform="translate(237.5 5)"></path><text dominant-baseline="central" fill="#333" style="font-size:23px;font-family:sans-serif;font-weight:bolder;" text-anchor="middle" transform="translate(237.5 5)" y="11.5">C277</text></g></svg>