<svg baseprofile="full" height="250" style="position:absolute;left:0;top:0;user-select:none" version="1.1" width="475" xmlns="http://www.w3.org/2000/svg" xmlns:xlink="http://www.w3.org/1999/xlink"><rect fill="none" height="250" id="0" width="475" x="0" y="0"></rect><g><path d="M303.7293 190.963L177.5093 232.7161" fill="none" stroke="#aaa" stroke-opacity="0.5"></path><path d="M97.8942 126.1406L303.7293 190.963" fill="none" stroke="#aaa" stroke-opacity="0.5"></path><path d="M97.8942 126.1406L174.6279 17.662" fill="none" stroke="#aaa" stroke-opacity="0.5"></path><path d="M97.8942 126.1406L177.5093 232.7161" fill="none" stroke="#aaa" stroke-opacity="0.5"></path><path d="M177.5093 232.7161L174.6279 17.662" fill="none" stroke="#aaa" stroke-opacity="0.5"></path><path d="M303.7293 190.963L174.6279 17.662" fill="none" stroke="#aaa" stroke-opacity="0.5"></path><path d="M303.7293 190.963L301.8687 57.5183" fill="none" stroke="#aaa" stroke-opacity="0.5"></path><path d="M301.8687 57.5183L174.6279 17.662" fill="none" stroke="#aaa" stroke-opacity="0.5"></path><path d="M301.8687 57.5183L177.5093 232.7161" fill="none" stroke="#aaa" stroke-opacity="0.5"></path><path d="M97.8942 126.1406L301.8687 57.5183" fill="none" stroke="#aaa" stroke-opacity="0.5"></path><path d="M1 0A1 1 0 1 1 1 -0.0001" fill="#5470c6" transform="matrix(19.5,0,0,19.5,303.7293,190.963)"></path><path d="M1 0A1 1 0 1 1 1 -0.0001" fill="#5470c6" transform="matrix(19.5,0,0,19.5,177.5093,232.7161)"></path><path d="M1 0A1 1 0 1 1 1 -0.0001" fill="#5470c6" transform="matrix(19.5,0,0,19.5,97.8942,126.1406)"></path><path d="M1 0A1 1 0 1 1 1 -0.0001" fill="#5470c6" transform="matrix(19.5,0,0,19.5,174.6279,17.662)"></path><path d="M1 0A1 1 0 1 1 1 -0.0001" fill="#5470c6" transform="matrix(19.5,0,0,19.5,301.8687,57.5183)"></path><path d="M-32.4922 -5l64.9844 0l0 33l-64.9844 0Z" fill="rgb(0,0,0)" fill-opacity="0" stroke="#ccc" stroke-width="0" transform="translate(237.5 5)"></path><text dominant-baseline="central" fill="#333" style="font-size:23px;font-family:sans-serif;font-weight:bolder;" text-anchor="middle" transform="translate(237.5 5)" y="11.5">C278</text></g></svg>