<svg baseprofile="full" height="250" style="position:absolute;left:0;top:0;user-select:none" version="1.1" width="475" xmlns="http://www.w3.org/2000/svg" xmlns:xlink="http://www.w3.org/1999/xlink"><rect fill="none" height="250" id="0" width="475" x="0" y="0"></rect><g><path d="M177.2685 232.774L303.1944 190.6197" fill="none" stroke="#aaa" stroke-opacity="0.5"></path><path d="M302.2589 57.558L303.1944 190.6197" fill="none" stroke="#aaa" stroke-opacity="0.5"></path><path d="M97.8001 126.3086L177.2685 232.774" fill="none" stroke="#aaa" stroke-opacity="0.5"></path><path d="M97.8001 126.3086L303.1944 190.6197" fill="none" stroke="#aaa" stroke-opacity="0.5"></path><path d="M97.8001 126.3086L302.2589 57.558" fill="none" stroke="#aaa" stroke-opacity="0.5"></path><path d="M175.1076 17.7397L302.2589 57.558" fill="none" stroke="#aaa" stroke-opacity="0.5"></path><path d="M97.8001 126.3086L175.1076 17.7397" fill="none" stroke="#aaa" stroke-opacity="0.5"></path><path d="M177.2685 232.774L302.2589 57.558" fill="none" stroke="#aaa" stroke-opacity="0.5"></path><path d="M175.1076 17.7397L177.2685 232.774" fill="none" stroke="#aaa" stroke-opacity="0.5"></path><path d="M175.1076 17.7397L303.1944 190.6197" fill="none" stroke="#aaa" stroke-opacity="0.5"></path><path d="M1 0A1 1 0 1 1 1 -0.0001" fill="#5470c6" transform="matrix(19.5,0,0,19.5,303.1944,190.6197)"></path><path d="M1 0A1 1 0 1 1 1 -0.0001" fill="#5470c6" transform="matrix(19.5,0,0,19.5,177.2685,232.774)"></path><path d="M1 0A1 1 0 1 1 1 -0.0001" fill="#5470c6" transform="matrix(19.5,0,0,19.5,97.8001,126.3086)"></path><path d="M1 0A1 1 0 1 1 1 -0.0001" fill="#5470c6" transform="matrix(19.5,0,0,19.5,175.1076,17.7397)"></path><path d="M1 0A1 1 0 1 1 1 -0.0001" fill="#5470c6" transform="matrix(19.5,0,0,19.5,302.2589,57.558)"></path><path d="M-32.4922 -5l64.9844 0l0 33l-64.9844 0Z" fill="rgb(0,0,0)" fill-opacity="0" stroke="#ccc" stroke-width="0" transform="translate(237.5 5)"></path><text dominant-baseline="central" fill="#333" style="font-size:23px;font-family:sans-serif;font-weight:bolder;" text-anchor="middle" transform="translate(237.5 5)" y="11.5">C279</text></g></svg>