<svg baseprofile="full" height="250" style="position:absolute;left:0;top:0;user-select:none" version="1.1" width="475" xmlns="http://www.w3.org/2000/svg" xmlns:xlink="http://www.w3.org/1999/xlink"><rect fill="none" height="250" id="0" width="475" x="0" y="0"></rect><g><path d="M303.119 58.6491L302.4102 191.4229" fill="none" stroke="#aaa" stroke-opacity="0.5"></path><path d="M303.119 58.6491L97.7059 124.8298" fill="none" stroke="#aaa" stroke-opacity="0.5"></path><path d="M97.7059 124.8298L176.237 17.3689" fill="none" stroke="#aaa" stroke-opacity="0.5"></path><path d="M303.119 58.6491L176.237 17.3689" fill="none" stroke="#aaa" stroke-opacity="0.5"></path><path d="M302.4102 191.4229L176.237 17.3689" fill="none" stroke="#aaa" stroke-opacity="0.5"></path><path d="M302.4102 191.4229L176.1574 232.7294" fill="none" stroke="#aaa" stroke-opacity="0.5"></path><path d="M176.5 17.3689L176.5 232.7294" fill="none" stroke="#aaa" stroke-opacity="0.5"></path><path d="M97.7059 124.8298L176.1574 232.7294" fill="none" stroke="#aaa" stroke-opacity="0.5"></path><path d="M303.119 58.6491L176.1574 232.7294" fill="none" stroke="#aaa" stroke-opacity="0.5"></path><path d="M97.7059 124.8298L302.4102 191.4229" fill="none" stroke="#aaa" stroke-opacity="0.5"></path><path d="M1 0A1 1 0 1 1 1 -0.0001" fill="#5470c6" transform="matrix(19.5,0,0,19.5,302.4102,191.4229)"></path><path d="M1 0A1 1 0 1 1 1 -0.0001" fill="#5470c6" transform="matrix(19.5,0,0,19.5,176.1574,232.7294)"></path><path d="M1 0A1 1 0 1 1 1 -0.0001" fill="#5470c6" transform="matrix(19.5,0,0,19.5,97.7059,124.8298)"></path><path d="M1 0A1 1 0 1 1 1 -0.0001" fill="#5470c6" transform="matrix(19.5,0,0,19.5,176.237,17.3689)"></path><path d="M1 0A1 1 0 1 1 1 -0.0001" fill="#5470c6" transform="matrix(19.5,0,0,19.5,303.119,58.6491)"></path><path d="M-32.4922 -5l64.9844 0l0 33l-64.9844 0Z" fill="rgb(0,0,0)" fill-opacity="0" stroke="#ccc" stroke-width="0" transform="translate(237.5 5)"></path><text dominant-baseline="central" fill="#333" style="font-size:23px;font-family:sans-serif;font-weight:bolder;" text-anchor="middle" transform="translate(237.5 5)" y="11.5">C280</text></g></svg>