<svg baseprofile="full" height="250" style="position:absolute;left:0;top:0;user-select:none" version="1.1" width="475" xmlns="http://www.w3.org/2000/svg" xmlns:xlink="http://www.w3.org/1999/xlink"><rect fill="none" height="250" id="0" width="475" x="0" y="0"></rect><g><path d="M174.9773 17.8356L301.6889 57.3146" fill="none" stroke="#aaa" stroke-opacity="0.5"></path><path d="M177.707 233.358L303.4877 190.3019" fill="none" stroke="#aaa" stroke-opacity="0.5"></path><path d="M174.9773 17.8356L97.7686 126.19" fill="none" stroke="#aaa" stroke-opacity="0.5"></path><path d="M97.7686 126.19L301.6889 57.3146" fill="none" stroke="#aaa" stroke-opacity="0.5"></path><path d="M301.6889 57.3146L303.4877 190.3019" fill="none" stroke="#aaa" stroke-opacity="0.5"></path><path d="M301.6889 57.3146L177.707 233.358" fill="none" stroke="#aaa" stroke-opacity="0.5"></path><path d="M174.9773 17.8356L303.4877 190.3019" fill="none" stroke="#aaa" stroke-opacity="0.5"></path><path d="M174.9773 17.8356L177.707 233.358" fill="none" stroke="#aaa" stroke-opacity="0.5"></path><path d="M97.7686 126.19L303.4877 190.3019" fill="none" stroke="#aaa" stroke-opacity="0.5"></path><path d="M97.7686 126.19L177.707 233.358" fill="none" stroke="#aaa" stroke-opacity="0.5"></path><path d="M1 0A1 1 0 1 1 1 -0.0001" fill="#5470c6" transform="matrix(19.5,0,0,19.5,303.4877,190.3019)"></path><path d="M1 0A1 1 0 1 1 1 -0.0001" fill="#5470c6" transform="matrix(19.5,0,0,19.5,177.707,233.358)"></path><path d="M1 0A1 1 0 1 1 1 -0.0001" fill="#5470c6" transform="matrix(19.5,0,0,19.5,97.7686,126.19)"></path><path d="M1 0A1 1 0 1 1 1 -0.0001" fill="#5470c6" transform="matrix(19.5,0,0,19.5,174.9773,17.8356)"></path><path d="M1 0A1 1 0 1 1 1 -0.0001" fill="#5470c6" transform="matrix(19.5,0,0,19.5,301.6889,57.3146)"></path><path d="M-32.4922 -5l64.9844 0l0 33l-64.9844 0Z" fill="rgb(0,0,0)" fill-opacity="0" stroke="#ccc" stroke-width="0" transform="translate(237.5 5)"></path><text dominant-baseline="central" fill="#333" style="font-size:23px;font-family:sans-serif;font-weight:bolder;" text-anchor="middle" transform="translate(237.5 5)" y="11.5">C281</text></g></svg>