<svg baseprofile="full" height="250" style="position:absolute;left:0;top:0;user-select:none" version="1.1" width="475" xmlns="http://www.w3.org/2000/svg" xmlns:xlink="http://www.w3.org/1999/xlink"><rect fill="none" height="250" id="0" width="475" x="0" y="0"></rect><g><path d="M136.8128 189.0679L209.1471 123.17" fill="none" stroke="#aaa" stroke-opacity="0.5" stroke-width="0.5"></path><path d="M159.1481 44.4187L133.897 68.0521" fill="none" stroke="#aaa" stroke-opacity="0.5" stroke-width="0.5"></path><path d="M230.3478 29.3328L262.5649 44.3141" fill="none" stroke="#aaa" stroke-opacity="0.5" stroke-width="0.5"></path><path d="M270.8491 204.4879L136.5657 125.7695" fill="none" stroke="#aaa" stroke-opacity="0.5" stroke-width="0.5"></path><path d="M249.0628 173.0594L206.3206 175.0005" fill="none" stroke="#aaa" stroke-opacity="0.5" stroke-width="0.5"></path><path d="M115.2663 154.5288L165.679 207.2179" fill="none" stroke="#aaa" stroke-opacity="0.5" stroke-width="0.5"></path><path d="M133.897 68.0521L260.5525 132.1294" fill="none" stroke="#aaa" stroke-opacity="0.5" stroke-width="0.5"></path><path d="M260.5525 132.1294L209.1471 123.17" fill="none" stroke="#aaa" stroke-opacity="0.5" stroke-width="0.5"></path><path d="M191.5909 29.275L198.3923 220.3213" fill="none" stroke="#aaa" stroke-opacity="0.5" stroke-width="0.5"></path><path d="M252.0327 88.2045L171.379 92.7063" fill="none" stroke="#aaa" stroke-opacity="0.5" stroke-width="0.5"></path><path d="M133.897 68.0521L136.5657 125.7695" fill="none" stroke="#aaa" stroke-opacity="0.5" stroke-width="0.5"></path><path d="M292.1941 68.9754L206.3206 175.0005" fill="none" stroke="#aaa" stroke-opacity="0.5" stroke-width="0.5"></path><path d="M115.2663 154.5288L249.0628 173.0594" fill="none" stroke="#aaa" stroke-opacity="0.5" stroke-width="0.5"></path><path d="M206.3206 175.0005L297.4181 172.3095" fill="none" stroke="#aaa" stroke-opacity="0.5" stroke-width="0.5"></path><path d="M166.5331 153.5122L171.379 92.7063" fill="none" stroke="#aaa" stroke-opacity="0.5" stroke-width="0.5"></path><path d="M115.2663 154.5288L198.3923 220.3213" fill="none" stroke="#aaa" stroke-opacity="0.5" stroke-width="0.5"></path><path d="M306.0058 137.1585L206.3206 175.0005" fill="none" stroke="#aaa" stroke-opacity="0.5" stroke-width="0.5"></path><path d="M136.8128 189.0679L297.4181 172.3095" fill="none" stroke="#aaa" stroke-opacity="0.5" stroke-width="0.5"></path><path d="M209.1471 123.17L166.5331 153.5122" fill="none" stroke="#aaa" stroke-opacity="0.5" stroke-width="0.5"></path><path d="M113.5045 101.4962L191.5909 29.275" fill="none" stroke="#aaa" stroke-opacity="0.5" stroke-width="0.5"></path><path d="M191.5909 29.275L262.5649 44.3141" fill="none" stroke="#aaa" stroke-opacity="0.5" stroke-width="0.5"></path><path d="M252.0327 88.2045L136.5657 125.7695" fill="none" stroke="#aaa" stroke-opacity="0.5" stroke-width="0.5"></path><path d="M230.3478 29.3328L206.3206 175.0005" fill="none" stroke="#aaa" stroke-opacity="0.5" stroke-width="0.5"></path><path d="M113.5045 101.4962L115.2663 154.5288" fill="none" stroke="#aaa" stroke-opacity="0.5" stroke-width="0.5"></path><path d="M136.8128 189.0679L165.679 207.2179" fill="none" stroke="#aaa" stroke-opacity="0.5" stroke-width="0.5"></path><path d="M260.5525 132.1294L297.4181 172.3095" fill="none" stroke="#aaa" stroke-opacity="0.5" stroke-width="0.5"></path><path d="M166.5331 153.5122L136.5657 125.7695" fill="none" stroke="#aaa" stroke-opacity="0.5" stroke-width="0.5"></path><path d="M159.1481 44.4187L191.5909 29.275" fill="none" stroke="#aaa" stroke-opacity="0.5" stroke-width="0.5"></path><path d="M260.5525 132.1294L165.679 207.2179" fill="none" stroke="#aaa" stroke-opacity="0.5" stroke-width="0.5"></path><path d="M270.8491 204.4879L206.3206 175.0005" fill="none" stroke="#aaa" stroke-opacity="0.5" stroke-width="0.5"></path><path d="M113.5045 101.4962L166.5331 153.5122" fill="none" stroke="#aaa" stroke-opacity="0.5" stroke-width="0.5"></path><path d="M136.8128 189.0679L249.0628 173.0594" fill="none" stroke="#aaa" stroke-opacity="0.5" stroke-width="0.5"></path><path d="M166.5331 153.5122L198.3923 220.3213" fill="none" stroke="#aaa" stroke-opacity="0.5" stroke-width="0.5"></path><path d="M159.1481 44.4187L115.2663 154.5288" fill="none" stroke="#aaa" stroke-opacity="0.5" stroke-width="0.5"></path><path d="M113.5045 101.4962L305.828 102.7711" fill="none" stroke="#aaa" stroke-opacity="0.5" stroke-width="0.5"></path><path d="M113.5045 101.4962L230.3478 29.3328" fill="none" stroke="#aaa" stroke-opacity="0.5" stroke-width="0.5"></path><path d="M305.828 102.7711L191.5909 29.275" fill="none" stroke="#aaa" stroke-opacity="0.5" stroke-width="0.5"></path><path d="M212.2441 68.3132L234.8106 219.4076" fill="none" stroke="#aaa" stroke-opacity="0.5" stroke-width="0.5"></path><path d="M292.1941 68.9754L191.5909 29.275" fill="none" stroke="#aaa" stroke-opacity="0.5" stroke-width="0.5"></path><path d="M206.3206 175.0005L136.5657 125.7695" fill="none" stroke="#aaa" stroke-opacity="0.5" stroke-width="0.5"></path><path d="M260.5525 132.1294L249.0628 173.0594" fill="none" stroke="#aaa" stroke-opacity="0.5" stroke-width="0.5"></path><path d="M165.679 207.2179L136.5657 125.7695" fill="none" stroke="#aaa" stroke-opacity="0.5" stroke-width="0.5"></path><path d="M252.0327 88.2045L262.5649 44.3141" fill="none" stroke="#aaa" stroke-opacity="0.5" stroke-width="0.5"></path><path d="M159.1481 44.4187L166.5331 153.5122" fill="none" stroke="#aaa" stroke-opacity="0.5" stroke-width="0.5"></path><path d="M136.8128 189.0679L136.5657 125.7695" fill="none" stroke="#aaa" stroke-opacity="0.5" stroke-width="0.5"></path><path d="M234.8106 219.4076L171.379 92.7063" fill="none" stroke="#aaa" stroke-opacity="0.5" stroke-width="0.5"></path><path d="M113.5045 101.4962L209.1471 123.17" fill="none" stroke="#aaa" stroke-opacity="0.5" stroke-width="0.5"></path><path d="M159.1481 44.4187L305.828 102.7711" fill="none" stroke="#aaa" stroke-opacity="0.5" stroke-width="0.5"></path><path d="M212.2441 68.3132L115.2663 154.5288" fill="none" stroke="#aaa" stroke-opacity="0.5" stroke-width="0.5"></path><path d="M292.1941 68.9754L234.8106 219.4076" fill="none" stroke="#aaa" stroke-opacity="0.5" stroke-width="0.5"></path><path d="M230.3478 29.5L191.5909 29.5" fill="none" stroke="#aaa" stroke-opacity="0.5" stroke-width="0.5"></path><path d="M209.1471 123.17L297.4181 172.3095" fill="none" stroke="#aaa" stroke-opacity="0.5" stroke-width="0.5"></path><path d="M260.5525 132.1294L136.5657 125.7695" fill="none" stroke="#aaa" stroke-opacity="0.5" stroke-width="0.5"></path><path d="M115.2663 154.5288L206.3206 175.0005" fill="none" stroke="#aaa" stroke-opacity="0.5" stroke-width="0.5"></path><path d="M306.0058 137.1585L234.8106 219.4076" fill="none" stroke="#aaa" stroke-opacity="0.5" stroke-width="0.5"></path><path d="M212.2441 68.3132L166.5331 153.5122" fill="none" stroke="#aaa" stroke-opacity="0.5" stroke-width="0.5"></path><path d="M159.1481 44.4187L209.1471 123.17" fill="none" stroke="#aaa" stroke-opacity="0.5" stroke-width="0.5"></path><path d="M234.8106 219.4076L136.5657 125.7695" fill="none" stroke="#aaa" stroke-opacity="0.5" stroke-width="0.5"></path><path d="M292.1941 68.9754L230.3478 29.3328" fill="none" stroke="#aaa" stroke-opacity="0.5" stroke-width="0.5"></path><path d="M209.1471 123.17L165.679 207.2179" fill="none" stroke="#aaa" stroke-opacity="0.5" stroke-width="0.5"></path><path d="M159.1481 44.4187L252.0327 88.2045" fill="none" stroke="#aaa" stroke-opacity="0.5" stroke-width="0.5"></path><path d="M212.2441 68.3132L305.828 102.7711" fill="none" stroke="#aaa" stroke-opacity="0.5" stroke-width="0.5"></path><path d="M230.3478 29.3328L234.8106 219.4076" fill="none" stroke="#aaa" stroke-opacity="0.5" stroke-width="0.5"></path><path d="M306.0058 137.1585L292.1941 68.9754" fill="none" stroke="#aaa" stroke-opacity="0.5" stroke-width="0.5"></path><path d="M306.0058 137.1585L115.2663 154.5288" fill="none" stroke="#aaa" stroke-opacity="0.5" stroke-width="0.5"></path><path d="M113.5045 101.4962L297.4181 172.3095" fill="none" stroke="#aaa" stroke-opacity="0.5" stroke-width="0.5"></path><path d="M209.1471 123.17L249.0628 173.0594" fill="none" stroke="#aaa" stroke-opacity="0.5" stroke-width="0.5"></path><path d="M212.2441 68.3132L209.1471 123.17" fill="none" stroke="#aaa" stroke-opacity="0.5" stroke-width="0.5"></path><path d="M270.8491 204.4879L234.8106 219.4076" fill="none" stroke="#aaa" stroke-opacity="0.5" stroke-width="0.5"></path><path d="M171.379 92.7063L297.4181 172.3095" fill="none" stroke="#aaa" stroke-opacity="0.5" stroke-width="0.5"></path><path d="M212.2441 68.3132L252.0327 88.2045" fill="none" stroke="#aaa" stroke-opacity="0.5" stroke-width="0.5"></path><path d="M113.5045 101.4962L165.679 207.2179" fill="none" stroke="#aaa" stroke-opacity="0.5" stroke-width="0.5"></path><path d="M306.0058 137.1585L166.5331 153.5122" fill="none" stroke="#aaa" stroke-opacity="0.5" stroke-width="0.5"></path><path d="M136.8128 189.0679L206.3206 175.0005" fill="none" stroke="#aaa" stroke-opacity="0.5" stroke-width="0.5"></path><path d="M159.1481 44.4187L297.4181 172.3095" fill="none" stroke="#aaa" stroke-opacity="0.5" stroke-width="0.5"></path><path d="M270.8491 204.4879L292.1941 68.9754" fill="none" stroke="#aaa" stroke-opacity="0.5" stroke-width="0.5"></path><path d="M305.828 102.7711L136.8128 189.0679" fill="none" stroke="#aaa" stroke-opacity="0.5" stroke-width="0.5"></path><path d="M209.1471 123.17L136.5657 125.7695" fill="none" stroke="#aaa" stroke-opacity="0.5" stroke-width="0.5"></path><path d="M292.1941 68.9754L136.8128 189.0679" fill="none" stroke="#aaa" stroke-opacity="0.5" stroke-width="0.5"></path><path d="M115.2663 154.5288L191.5909 29.275" fill="none" stroke="#aaa" stroke-opacity="0.5" stroke-width="0.5"></path><path d="M260.5525 132.1294L206.3206 175.0005" fill="none" stroke="#aaa" stroke-opacity="0.5" stroke-width="0.5"></path><path d="M159.1481 44.4187L165.679 207.2179" fill="none" stroke="#aaa" stroke-opacity="0.5" stroke-width="0.5"></path><path d="M305.828 102.7711L297.4181 172.3095" fill="none" stroke="#aaa" stroke-opacity="0.5" stroke-width="0.5"></path><path d="M113.5045 101.4962L260.5525 132.1294" fill="none" stroke="#aaa" stroke-opacity="0.5" stroke-width="0.5"></path><path d="M191.5909 29.275L166.5331 153.5122" fill="none" stroke="#aaa" stroke-opacity="0.5" stroke-width="0.5"></path><path d="M306.0058 137.1585L209.1471 123.17" fill="none" stroke="#aaa" stroke-opacity="0.5" stroke-width="0.5"></path><path d="M133.897 68.0521L115.2663 154.5288" fill="none" stroke="#aaa" stroke-opacity="0.5" stroke-width="0.5"></path><path d="M306.0058 137.1585L252.0327 88.2045" fill="none" stroke="#aaa" stroke-opacity="0.5" stroke-width="0.5"></path><path d="M230.3478 29.3328L136.8128 189.0679" fill="none" stroke="#aaa" stroke-opacity="0.5" stroke-width="0.5"></path><path d="M171.379 92.7063L198.3923 220.3213" fill="none" stroke="#aaa" stroke-opacity="0.5" stroke-width="0.5"></path><path d="M212.2441 68.3132L171.379 92.7063" fill="none" stroke="#aaa" stroke-opacity="0.5" stroke-width="0.5"></path><path d="M115.2663 154.5288L234.8106 219.4076" fill="none" stroke="#aaa" stroke-opacity="0.5" stroke-width="0.5"></path><path d="M113.5045 101.4962L136.5657 125.7695" fill="none" stroke="#aaa" stroke-opacity="0.5" stroke-width="0.5"></path><path d="M159.1481 44.4187L249.0628 173.0594" fill="none" stroke="#aaa" stroke-opacity="0.5" stroke-width="0.5"></path><path d="M249.0628 173.0594L171.379 92.7063" fill="none" stroke="#aaa" stroke-opacity="0.5" stroke-width="0.5"></path><path d="M159.1481 44.4187L260.5525 132.1294" fill="none" stroke="#aaa" stroke-opacity="0.5" stroke-width="0.5"></path><path d="M212.2441 68.3132L165.679 207.2179" fill="none" stroke="#aaa" stroke-opacity="0.5" stroke-width="0.5"></path><path d="M133.897 68.0521L166.5331 153.5122" fill="none" stroke="#aaa" stroke-opacity="0.5" stroke-width="0.5"></path><path d="M191.5909 29.275L209.1471 123.17" fill="none" stroke="#aaa" stroke-opacity="0.5" stroke-width="0.5"></path><path d="M270.8491 204.4879L136.8128 189.0679" fill="none" stroke="#aaa" stroke-opacity="0.5" stroke-width="0.5"></path><path d="M133.897 68.0521L305.828 102.7711" fill="none" stroke="#aaa" stroke-opacity="0.5" stroke-width="0.5"></path><path d="M159.1481 44.4187L136.5657 125.7695" fill="none" stroke="#aaa" stroke-opacity="0.5" stroke-width="0.5"></path><path d="M270.8491 204.4879L252.0327 88.2045" fill="none" stroke="#aaa" stroke-opacity="0.5" stroke-width="0.5"></path><path d="M113.5045 101.4962L159.1481 44.4187" fill="none" stroke="#aaa" stroke-opacity="0.5" stroke-width="0.5"></path><path d="M262.5649 44.3141L297.4181 172.3095" fill="none" stroke="#aaa" stroke-opacity="0.5" stroke-width="0.5"></path><path d="M292.1941 68.9754L260.5525 132.1294" fill="none" stroke="#aaa" stroke-opacity="0.5" stroke-width="0.5"></path><path d="M212.2441 68.3132L249.0628 173.0594" fill="none" stroke="#aaa" stroke-opacity="0.5" stroke-width="0.5"></path><path d="M297.4181 172.3095L136.5657 125.7695" fill="none" stroke="#aaa" stroke-opacity="0.5" stroke-width="0.5"></path><path d="M306.0058 137.1585L171.379 92.7063" fill="none" stroke="#aaa" stroke-opacity="0.5" stroke-width="0.5"></path><path d="M252.0327 88.2045L166.5331 153.5122" fill="none" stroke="#aaa" stroke-opacity="0.5" stroke-width="0.5"></path><path d="M209.1471 123.17L206.3206 175.0005" fill="none" stroke="#aaa" stroke-opacity="0.5" stroke-width="0.5"></path><path d="M212.2441 68.3132L198.3923 220.3213" fill="none" stroke="#aaa" stroke-opacity="0.5" stroke-width="0.5"></path><path d="M252.0327 88.2045L305.828 102.7711" fill="none" stroke="#aaa" stroke-opacity="0.5" stroke-width="0.5"></path><path d="M133.897 68.0521L209.1471 123.17" fill="none" stroke="#aaa" stroke-opacity="0.5" stroke-width="0.5"></path><path d="M305.828 102.7711L136.5657 125.7695" fill="none" stroke="#aaa" stroke-opacity="0.5" stroke-width="0.5"></path><path d="M249.0628 173.0594L198.3923 220.3213" fill="none" stroke="#aaa" stroke-opacity="0.5" stroke-width="0.5"></path><path d="M136.8128 189.0679L234.8106 219.4076" fill="none" stroke="#aaa" stroke-opacity="0.5" stroke-width="0.5"></path><path d="M133.897 68.0521L252.0327 88.2045" fill="none" stroke="#aaa" stroke-opacity="0.5" stroke-width="0.5"></path><path d="M230.3478 29.3328L171.379 92.7063" fill="none" stroke="#aaa" stroke-opacity="0.5" stroke-width="0.5"></path><path d="M292.1941 68.9754L136.5657 125.7695" fill="none" stroke="#aaa" stroke-opacity="0.5" stroke-width="0.5"></path><path d="M306.0058 137.1585L165.679 207.2179" fill="none" stroke="#aaa" stroke-opacity="0.5" stroke-width="0.5"></path><path d="M230.3478 29.3328L260.5525 132.1294" fill="none" stroke="#aaa" stroke-opacity="0.5" stroke-width="0.5"></path><path d="M191.5909 29.275L297.4181 172.3095" fill="none" stroke="#aaa" stroke-opacity="0.5" stroke-width="0.5"></path><path d="M260.5525 132.1294L234.8106 219.4076" fill="none" stroke="#aaa" stroke-opacity="0.5" stroke-width="0.5"></path><path d="M115.2663 154.5288L136.8128 189.0679" fill="none" stroke="#aaa" stroke-opacity="0.5" stroke-width="0.5"></path><path d="M252.0327 88.2045L209.1471 123.17" fill="none" stroke="#aaa" stroke-opacity="0.5" stroke-width="0.5"></path><path d="M113.5045 101.4962L206.3206 175.0005" fill="none" stroke="#aaa" stroke-opacity="0.5" stroke-width="0.5"></path><path d="M270.8491 204.4879L171.379 92.7063" fill="none" stroke="#aaa" stroke-opacity="0.5" stroke-width="0.5"></path><path d="M212.2441 68.3132L262.5649 44.3141" fill="none" stroke="#aaa" stroke-opacity="0.5" stroke-width="0.5"></path><path d="M306.0058 137.1585L249.0628 173.0594" fill="none" stroke="#aaa" stroke-opacity="0.5" stroke-width="0.5"></path><path d="M230.3478 29.3328L136.5657 125.7695" fill="none" stroke="#aaa" stroke-opacity="0.5" stroke-width="0.5"></path><path d="M191.5909 29.275L165.679 207.2179" fill="none" stroke="#aaa" stroke-opacity="0.5" stroke-width="0.5"></path><path d="M306.0058 137.1585L198.3923 220.3213" fill="none" stroke="#aaa" stroke-opacity="0.5" stroke-width="0.5"></path><path d="M171.379 92.7063L206.3206 175.0005" fill="none" stroke="#aaa" stroke-opacity="0.5" stroke-width="0.5"></path><path d="M270.8491 204.4879L165.679 207.2179" fill="none" stroke="#aaa" stroke-opacity="0.5" stroke-width="0.5"></path><path d="M133.897 68.0521L297.4181 172.3095" fill="none" stroke="#aaa" stroke-opacity="0.5" stroke-width="0.5"></path><path d="M133.897 68.0521L171.379 92.7063" fill="none" stroke="#aaa" stroke-opacity="0.5" stroke-width="0.5"></path><path d="M262.5649 44.3141L136.5657 125.7695" fill="none" stroke="#aaa" stroke-opacity="0.5" stroke-width="0.5"></path><path d="M159.1481 44.4187L206.3206 175.0005" fill="none" stroke="#aaa" stroke-opacity="0.5" stroke-width="0.5"></path><path d="M191.5909 29.275L249.0628 173.0594" fill="none" stroke="#aaa" stroke-opacity="0.5" stroke-width="0.5"></path><path d="M133.897 68.0521L165.679 207.2179" fill="none" stroke="#aaa" stroke-opacity="0.5" stroke-width="0.5"></path><path d="M270.8491 204.4879L249.0628 173.0594" fill="none" stroke="#aaa" stroke-opacity="0.5" stroke-width="0.5"></path><path d="M306.0058 137.1585L262.5649 44.3141" fill="none" stroke="#aaa" stroke-opacity="0.5" stroke-width="0.5"></path><path d="M270.8491 204.4879L198.3923 220.3213" fill="none" stroke="#aaa" stroke-opacity="0.5" stroke-width="0.5"></path><path d="M305.828 102.7711L206.3206 175.0005" fill="none" stroke="#aaa" stroke-opacity="0.5" stroke-width="0.5"></path><path d="M252.0327 88.2045L297.4181 172.3095" fill="none" stroke="#aaa" stroke-opacity="0.5" stroke-width="0.5"></path><path d="M212.2441 68.3132L133.897 68.0521" fill="none" stroke="#aaa" stroke-opacity="0.5" stroke-width="0.5"></path><path d="M234.8106 219.4076L166.5331 153.5122" fill="none" stroke="#aaa" stroke-opacity="0.5" stroke-width="0.5"></path><path d="M115.2663 154.5288L171.379 92.7063" fill="none" stroke="#aaa" stroke-opacity="0.5" stroke-width="0.5"></path><path d="M191.5909 29.275L136.5657 125.7695" fill="none" stroke="#aaa" stroke-opacity="0.5" stroke-width="0.5"></path><path d="M306.0058 137.1585L270.8491 204.4879" fill="none" stroke="#aaa" stroke-opacity="0.5" stroke-width="0.5"></path><path d="M209.1471 123.17L234.8106 219.4076" fill="none" stroke="#aaa" stroke-opacity="0.5" stroke-width="0.5"></path><path d="M212.2441 68.3132L206.3206 175.0005" fill="none" stroke="#aaa" stroke-opacity="0.5" stroke-width="0.5"></path><path d="M306.0058 137.1585L212.2441 68.3132" fill="none" stroke="#aaa" stroke-opacity="0.5" stroke-width="0.5"></path><path d="M166.5331 153.5122L297.4181 172.3095" fill="none" stroke="#aaa" stroke-opacity="0.5" stroke-width="0.5"></path><path d="M133.897 68.0521L249.0628 173.0594" fill="none" stroke="#aaa" stroke-opacity="0.5" stroke-width="0.5"></path><path d="M252.0327 88.2045L165.679 207.2179" fill="none" stroke="#aaa" stroke-opacity="0.5" stroke-width="0.5"></path><path d="M115.2663 154.5288L260.5525 132.1294" fill="none" stroke="#aaa" stroke-opacity="0.5" stroke-width="0.5"></path><path d="M260.5525 132.1294L136.8128 189.0679" fill="none" stroke="#aaa" stroke-opacity="0.5" stroke-width="0.5"></path><path d="M133.897 68.0521L198.3923 220.3213" fill="none" stroke="#aaa" stroke-opacity="0.5" stroke-width="0.5"></path><path d="M198.3923 220.3213L297.4181 172.3095" fill="none" stroke="#aaa" stroke-opacity="0.5" stroke-width="0.5"></path><path d="M166.5331 153.5122L165.679 207.2179" fill="none" stroke="#aaa" stroke-opacity="0.5" stroke-width="0.5"></path><path d="M260.5525 132.1294L252.0327 88.2045" fill="none" stroke="#aaa" stroke-opacity="0.5" stroke-width="0.5"></path><path d="M292.1941 68.9754L133.897 68.0521" fill="none" stroke="#aaa" stroke-opacity="0.5" stroke-width="0.5"></path><path d="M115.2663 154.5288L136.5657 125.7695" fill="none" stroke="#aaa" stroke-opacity="0.5" stroke-width="0.5"></path><path d="M270.8491 204.4879L262.5649 44.3141" fill="none" stroke="#aaa" stroke-opacity="0.5" stroke-width="0.5"></path><path d="M252.0327 88.2045L249.0628 173.0594" fill="none" stroke="#aaa" stroke-opacity="0.5" stroke-width="0.5"></path><path d="M113.5045 101.4962L234.8106 219.4076" fill="none" stroke="#aaa" stroke-opacity="0.5" stroke-width="0.5"></path><path d="M306.0058 137.1585L133.897 68.0521" fill="none" stroke="#aaa" stroke-opacity="0.5" stroke-width="0.5"></path><path d="M252.0327 88.2045L198.3923 220.3213" fill="none" stroke="#aaa" stroke-opacity="0.5" stroke-width="0.5"></path><path d="M270.8491 204.4879L212.2441 68.3132" fill="none" stroke="#aaa" stroke-opacity="0.5" stroke-width="0.5"></path><path d="M262.5649 44.3141L206.3206 175.0005" fill="none" stroke="#aaa" stroke-opacity="0.5" stroke-width="0.5"></path><path d="M165.679 207.2179L297.4181 172.3095" fill="none" stroke="#aaa" stroke-opacity="0.5" stroke-width="0.5"></path><path d="M113.5045 101.4962L306.0058 137.1585" fill="none" stroke="#aaa" stroke-opacity="0.5" stroke-width="0.5"></path><path d="M166.5331 153.5122L249.0628 173.0594" fill="none" stroke="#aaa" stroke-opacity="0.5" stroke-width="0.5"></path><path d="M165.679 207.2179L171.379 92.7063" fill="none" stroke="#aaa" stroke-opacity="0.5" stroke-width="0.5"></path><path d="M133.897 68.0521L262.5649 44.3141" fill="none" stroke="#aaa" stroke-opacity="0.5" stroke-width="0.5"></path><path d="M136.8128 189.0679L171.379 92.7063" fill="none" stroke="#aaa" stroke-opacity="0.5" stroke-width="0.5"></path><path d="M230.3478 29.3328L133.897 68.0521" fill="none" stroke="#aaa" stroke-opacity="0.5" stroke-width="0.5"></path><path d="M113.5045 101.4962L292.1941 68.9754" fill="none" stroke="#aaa" stroke-opacity="0.5" stroke-width="0.5"></path><path d="M159.1481 44.4187L234.8106 219.4076" fill="none" stroke="#aaa" stroke-opacity="0.5" stroke-width="0.5"></path><path d="M260.5525 132.1294L171.379 92.7063" fill="none" stroke="#aaa" stroke-opacity="0.5" stroke-width="0.5"></path><path d="M159.1481 44.4187L306.0058 137.1585" fill="none" stroke="#aaa" stroke-opacity="0.5" stroke-width="0.5"></path><path d="M212.2441 68.3132L191.5909 29.275" fill="none" stroke="#aaa" stroke-opacity="0.5" stroke-width="0.5"></path><path d="M191.5909 29.275L206.3206 175.0005" fill="none" stroke="#aaa" stroke-opacity="0.5" stroke-width="0.5"></path><path d="M270.8491 204.4879L133.897 68.0521" fill="none" stroke="#aaa" stroke-opacity="0.5" stroke-width="0.5"></path><path d="M115.2663 154.5288L262.5649 44.3141" fill="none" stroke="#aaa" stroke-opacity="0.5" stroke-width="0.5"></path><path d="M234.8106 219.4076L297.4181 172.3095" fill="none" stroke="#aaa" stroke-opacity="0.5" stroke-width="0.5"></path><path d="M159.1481 44.4187L292.1941 68.9754" fill="none" stroke="#aaa" stroke-opacity="0.5" stroke-width="0.5"></path><path d="M198.3923 220.3213L136.5657 125.7695" fill="none" stroke="#aaa" stroke-opacity="0.5" stroke-width="0.5"></path><path d="M165.679 207.2179L249.0628 173.0594" fill="none" stroke="#aaa" stroke-opacity="0.5" stroke-width="0.5"></path><path d="M159.1481 44.4187L230.3478 29.3328" fill="none" stroke="#aaa" stroke-opacity="0.5" stroke-width="0.5"></path><path d="M305.828 102.7711L234.8106 219.4076" fill="none" stroke="#aaa" stroke-opacity="0.5" stroke-width="0.5"></path><path d="M165.679 207.2179L198.3923 220.3213" fill="none" stroke="#aaa" stroke-opacity="0.5" stroke-width="0.5"></path><path d="M234.8106 219.4076L165.679 207.2179" fill="none" stroke="#aaa" stroke-opacity="0.5" stroke-width="0.5"></path><path d="M136.8128 189.0679L198.3923 220.3213" fill="none" stroke="#aaa" stroke-opacity="0.5" stroke-width="0.5"></path><path d="M133.897 68.0521L206.3206 175.0005" fill="none" stroke="#aaa" stroke-opacity="0.5" stroke-width="0.5"></path><path d="M113.5045 101.4962L136.8128 189.0679" fill="none" stroke="#aaa" stroke-opacity="0.5" stroke-width="0.5"></path><path d="M292.1941 68.9754L115.2663 154.5288" fill="none" stroke="#aaa" stroke-opacity="0.5" stroke-width="0.5"></path><path d="M260.5525 132.1294L198.3923 220.3213" fill="none" stroke="#aaa" stroke-opacity="0.5" stroke-width="0.5"></path><path d="M306.0058 137.1585L191.5909 29.275" fill="none" stroke="#aaa" stroke-opacity="0.5" stroke-width="0.5"></path><path d="M212.2441 68.3132L230.3478 29.3328" fill="none" stroke="#aaa" stroke-opacity="0.5" stroke-width="0.5"></path><path d="M234.8106 219.4076L249.0628 173.0594" fill="none" stroke="#aaa" stroke-opacity="0.5" stroke-width="0.5"></path><path d="M113.5045 101.4962L252.0327 88.2045" fill="none" stroke="#aaa" stroke-opacity="0.5" stroke-width="0.5"></path><path d="M234.8106 219.4076L198.3923 220.3213" fill="none" stroke="#aaa" stroke-opacity="0.5" stroke-width="0.5"></path><path d="M136.8128 189.0679L262.5649 44.3141" fill="none" stroke="#aaa" stroke-opacity="0.5" stroke-width="0.5"></path><path d="M305.828 102.7711L166.5331 153.5122" fill="none" stroke="#aaa" stroke-opacity="0.5" stroke-width="0.5"></path><path d="M252.0327 88.2045L206.3206 175.0005" fill="none" stroke="#aaa" stroke-opacity="0.5" stroke-width="0.5"></path><path d="M209.1471 123.17L171.379 92.7063" fill="none" stroke="#aaa" stroke-opacity="0.5" stroke-width="0.5"></path><path d="M292.1941 68.9754L166.5331 153.5122" fill="none" stroke="#aaa" stroke-opacity="0.5" stroke-width="0.5"></path><path d="M262.5649 44.3141L234.8106 219.4076" fill="none" stroke="#aaa" stroke-opacity="0.5" stroke-width="0.5"></path><path d="M159.1481 44.4187L136.8128 189.0679" fill="none" stroke="#aaa" stroke-opacity="0.5" stroke-width="0.5"></path><path d="M230.3478 29.3328L115.2663 154.5288" fill="none" stroke="#aaa" stroke-opacity="0.5" stroke-width="0.5"></path><path d="M292.1941 68.9754L305.828 102.7711" fill="none" stroke="#aaa" stroke-opacity="0.5" stroke-width="0.5"></path><path d="M166.5331 153.5122L206.3206 175.0005" fill="none" stroke="#aaa" stroke-opacity="0.5" stroke-width="0.5"></path><path d="M260.5525 132.1294L262.5649 44.3141" fill="none" stroke="#aaa" stroke-opacity="0.5" stroke-width="0.5"></path><path d="M270.8491 204.4879L191.5909 29.275" fill="none" stroke="#aaa" stroke-opacity="0.5" stroke-width="0.5"></path><path d="M306.5 137.1585L306.5 102.7711" fill="none" stroke="#aaa" stroke-opacity="0.5" stroke-width="0.5"></path><path d="M198.3923 220.3213L206.3206 175.0005" fill="none" stroke="#aaa" stroke-opacity="0.5" stroke-width="0.5"></path><path d="M306.0058 137.1585L230.3478 29.3328" fill="none" stroke="#aaa" stroke-opacity="0.5" stroke-width="0.5"></path><path d="M230.3478 29.3328L166.5331 153.5122" fill="none" stroke="#aaa" stroke-opacity="0.5" stroke-width="0.5"></path><path d="M305.828 102.7711L209.1471 123.17" fill="none" stroke="#aaa" stroke-opacity="0.5" stroke-width="0.5"></path><path d="M270.8491 204.4879L115.2663 154.5288" fill="none" stroke="#aaa" stroke-opacity="0.5" stroke-width="0.5"></path><path d="M292.1941 68.9754L209.1471 123.17" fill="none" stroke="#aaa" stroke-opacity="0.5" stroke-width="0.5"></path><path d="M113.5045 101.4962L171.379 92.7063" fill="none" stroke="#aaa" stroke-opacity="0.5" stroke-width="0.5"></path><path d="M191.5909 29.275L234.8106 219.4076" fill="none" stroke="#aaa" stroke-opacity="0.5" stroke-width="0.5"></path><path d="M230.3478 29.3328L305.828 102.7711" fill="none" stroke="#aaa" stroke-opacity="0.5" stroke-width="0.5"></path><path d="M212.2441 68.3132L136.8128 189.0679" fill="none" stroke="#aaa" stroke-opacity="0.5" stroke-width="0.5"></path><path d="M292.1941 68.9754L252.0327 88.2045" fill="none" stroke="#aaa" stroke-opacity="0.5" stroke-width="0.5"></path><path d="M133.897 68.0521L191.5909 29.275" fill="none" stroke="#aaa" stroke-opacity="0.5" stroke-width="0.5"></path><path d="M209.1471 123.17L198.3923 220.3213" fill="none" stroke="#aaa" stroke-opacity="0.5" stroke-width="0.5"></path><path d="M262.5649 44.3141L166.5331 153.5122" fill="none" stroke="#aaa" stroke-opacity="0.5" stroke-width="0.5"></path><path d="M165.679 207.2179L206.3206 175.0005" fill="none" stroke="#aaa" stroke-opacity="0.5" stroke-width="0.5"></path><path d="M270.8491 204.4879L166.5331 153.5122" fill="none" stroke="#aaa" stroke-opacity="0.5" stroke-width="0.5"></path><path d="M212.2441 68.3132L297.4181 172.3095" fill="none" stroke="#aaa" stroke-opacity="0.5" stroke-width="0.5"></path><path d="M270.8491 204.4879L305.828 102.7711" fill="none" stroke="#aaa" stroke-opacity="0.5" stroke-width="0.5"></path><path d="M159.1481 44.4187L171.379 92.7063" fill="none" stroke="#aaa" stroke-opacity="0.5" stroke-width="0.5"></path><path d="M230.3478 29.3328L209.1471 123.17" fill="none" stroke="#aaa" stroke-opacity="0.5" stroke-width="0.5"></path><path d="M249.0628 173.0594L297.4181 172.3095" fill="none" stroke="#aaa" stroke-opacity="0.5" stroke-width="0.5"></path><path d="M270.8491 204.4879L230.3478 29.3328" fill="none" stroke="#aaa" stroke-opacity="0.5" stroke-width="0.5"></path><path d="M133.897 68.0521L234.8106 219.4076" fill="none" stroke="#aaa" stroke-opacity="0.5" stroke-width="0.5"></path><path d="M230.3478 29.3328L252.0327 88.2045" fill="none" stroke="#aaa" stroke-opacity="0.5" stroke-width="0.5"></path><path d="M252.0327 88.2045L191.5909 29.275" fill="none" stroke="#aaa" stroke-opacity="0.5" stroke-width="0.5"></path><path d="M113.5045 101.4962L249.0628 173.0594" fill="none" stroke="#aaa" stroke-opacity="0.5" stroke-width="0.5"></path><path d="M171.379 92.7063L136.5657 125.7695" fill="none" stroke="#aaa" stroke-opacity="0.5" stroke-width="0.5"></path><path d="M306.0058 137.1585L136.8128 189.0679" fill="none" stroke="#aaa" stroke-opacity="0.5" stroke-width="0.5"></path><path d="M209.1471 123.17L262.5649 44.3141" fill="none" stroke="#aaa" stroke-opacity="0.5" stroke-width="0.5"></path><path d="M113.5045 101.4962L198.3923 220.3213" fill="none" stroke="#aaa" stroke-opacity="0.5" stroke-width="0.5"></path><path d="M305.828 102.7711L171.379 92.7063" fill="none" stroke="#aaa" stroke-opacity="0.5" stroke-width="0.5"></path><path d="M292.1941 68.9754L297.4181 172.3095" fill="none" stroke="#aaa" stroke-opacity="0.5" stroke-width="0.5"></path><path d="M234.8106 219.4076L206.3206 175.0005" fill="none" stroke="#aaa" stroke-opacity="0.5" stroke-width="0.5"></path><path d="M270.8491 204.4879L209.1471 123.17" fill="none" stroke="#aaa" stroke-opacity="0.5" stroke-width="0.5"></path><path d="M292.1941 68.9754L171.379 92.7063" fill="none" stroke="#aaa" stroke-opacity="0.5" stroke-width="0.5"></path><path d="M252.0327 88.2045L234.8106 219.4076" fill="none" stroke="#aaa" stroke-opacity="0.5" stroke-width="0.5"></path><path d="M305.828 102.7711L165.679 207.2179" fill="none" stroke="#aaa" stroke-opacity="0.5" stroke-width="0.5"></path><path d="M306.0058 137.1585L297.4181 172.3095" fill="none" stroke="#aaa" stroke-opacity="0.5" stroke-width="0.5"></path><path d="M292.1941 68.9754L165.679 207.2179" fill="none" stroke="#aaa" stroke-opacity="0.5" stroke-width="0.5"></path><path d="M212.2441 68.3132L260.5525 132.1294" fill="none" stroke="#aaa" stroke-opacity="0.5" stroke-width="0.5"></path><path d="M115.2663 154.5288L166.5331 153.5122" fill="none" stroke="#aaa" stroke-opacity="0.5" stroke-width="0.5"></path><path d="M159.1481 44.4187L198.3923 220.3213" fill="none" stroke="#aaa" stroke-opacity="0.5" stroke-width="0.5"></path><path d="M230.3478 29.3328L297.4181 172.3095" fill="none" stroke="#aaa" stroke-opacity="0.5" stroke-width="0.5"></path><path d="M115.2663 154.5288L305.828 102.7711" fill="none" stroke="#aaa" stroke-opacity="0.5" stroke-width="0.5"></path><path d="M113.5045 101.4962L262.5649 44.3141" fill="none" stroke="#aaa" stroke-opacity="0.5" stroke-width="0.5"></path><path d="M305.828 102.7711L249.0628 173.0594" fill="none" stroke="#aaa" stroke-opacity="0.5" stroke-width="0.5"></path><path d="M212.2441 68.3132L136.5657 125.7695" fill="none" stroke="#aaa" stroke-opacity="0.5" stroke-width="0.5"></path><path d="M136.8128 189.0679L191.5909 29.275" fill="none" stroke="#aaa" stroke-opacity="0.5" stroke-width="0.5"></path><path d="M292.1941 68.9754L249.0628 173.0594" fill="none" stroke="#aaa" stroke-opacity="0.5" stroke-width="0.5"></path><path d="M230.3478 29.3328L165.679 207.2179" fill="none" stroke="#aaa" stroke-opacity="0.5" stroke-width="0.5"></path><path d="M305.828 102.7711L198.3923 220.3213" fill="none" stroke="#aaa" stroke-opacity="0.5" stroke-width="0.5"></path><path d="M249.0628 173.0594L136.5657 125.7695" fill="none" stroke="#aaa" stroke-opacity="0.5" stroke-width="0.5"></path><path d="M113.5045 101.4962L270.8491 204.4879" fill="none" stroke="#aaa" stroke-opacity="0.5" stroke-width="0.5"></path><path d="M113.5045 101.4962L212.2441 68.3132" fill="none" stroke="#aaa" stroke-opacity="0.5" stroke-width="0.5"></path><path d="M292.1941 68.9754L198.3923 220.3213" fill="none" stroke="#aaa" stroke-opacity="0.5" stroke-width="0.5"></path><path d="M262.5649 44.3141L171.379 92.7063" fill="none" stroke="#aaa" stroke-opacity="0.5" stroke-width="0.5"></path><path d="M270.8491 204.4879L297.4181 172.3095" fill="none" stroke="#aaa" stroke-opacity="0.5" stroke-width="0.5"></path><path d="M133.897 68.0521L136.8128 189.0679" fill="none" stroke="#aaa" stroke-opacity="0.5" stroke-width="0.5"></path><path d="M115.2663 154.5288L209.1471 123.17" fill="none" stroke="#aaa" stroke-opacity="0.5" stroke-width="0.5"></path><path d="M159.1481 44.5L262.5649 44.5" fill="none" stroke="#aaa" stroke-opacity="0.5" stroke-width="0.5"></path><path d="M260.5525 132.1294L191.5909 29.275" fill="none" stroke="#aaa" stroke-opacity="0.5" stroke-width="0.5"></path><path d="M115.2663 154.5288L252.0327 88.2045" fill="none" stroke="#aaa" stroke-opacity="0.5" stroke-width="0.5"></path><path d="M262.5649 44.3141L165.679 207.2179" fill="none" stroke="#aaa" stroke-opacity="0.5" stroke-width="0.5"></path><path d="M306.0058 137.1585L260.5525 132.1294" fill="none" stroke="#aaa" stroke-opacity="0.5" stroke-width="0.5"></path><path d="M230.3478 29.3328L249.0628 173.0594" fill="none" stroke="#aaa" stroke-opacity="0.5" stroke-width="0.5"></path><path d="M159.1481 44.4187L270.8491 204.4879" fill="none" stroke="#aaa" stroke-opacity="0.5" stroke-width="0.5"></path><path d="M159.1481 44.4187L212.2441 68.3132" fill="none" stroke="#aaa" stroke-opacity="0.5" stroke-width="0.5"></path><path d="M136.8128 189.0679L166.5331 153.5122" fill="none" stroke="#aaa" stroke-opacity="0.5" stroke-width="0.5"></path><path d="M230.3478 29.3328L198.3923 220.3213" fill="none" stroke="#aaa" stroke-opacity="0.5" stroke-width="0.5"></path><path d="M305.828 102.7711L262.5649 44.3141" fill="none" stroke="#aaa" stroke-opacity="0.5" stroke-width="0.5"></path><path d="M252.0327 88.2045L136.8128 189.0679" fill="none" stroke="#aaa" stroke-opacity="0.5" stroke-width="0.5"></path><path d="M306.0058 137.1585L136.5657 125.7695" fill="none" stroke="#aaa" stroke-opacity="0.5" stroke-width="0.5"></path><path d="M191.5909 29.275L171.379 92.7063" fill="none" stroke="#aaa" stroke-opacity="0.5" stroke-width="0.5"></path><path d="M113.5045 101.4962L133.897 68.0521" fill="none" stroke="#aaa" stroke-opacity="0.5" stroke-width="0.5"></path><path d="M292.1941 68.9754L262.5649 44.3141" fill="none" stroke="#aaa" stroke-opacity="0.5" stroke-width="0.5"></path><path d="M262.5649 44.3141L249.0628 173.0594" fill="none" stroke="#aaa" stroke-opacity="0.5" stroke-width="0.5"></path><path d="M260.5525 132.1294L166.5331 153.5122" fill="none" stroke="#aaa" stroke-opacity="0.5" stroke-width="0.5"></path><path d="M262.5649 44.3141L198.3923 220.3213" fill="none" stroke="#aaa" stroke-opacity="0.5" stroke-width="0.5"></path><path d="M292.1941 68.9754L212.2441 68.3132" fill="none" stroke="#aaa" stroke-opacity="0.5" stroke-width="0.5"></path><path d="M270.8491 204.4879L260.5525 132.1294" fill="none" stroke="#aaa" stroke-opacity="0.5" stroke-width="0.5"></path><path d="M260.5525 132.1294L305.828 102.7711" fill="none" stroke="#aaa" stroke-opacity="0.5" stroke-width="0.5"></path><path d="M115.2663 154.5288L297.4181 172.3095" fill="none" stroke="#aaa" stroke-opacity="0.5" stroke-width="0.5"></path><path d="M1 0A1 1 0 1 1 1 -0.0001" fill="#5470c6" transform="matrix(17.5,0,0,17.5,306.0058,137.1585)"></path><path d="M1 0A1 1 0 1 1 1 -0.0001" fill="#5470c6" transform="matrix(17.5,0,0,17.5,297.4181,172.3095)"></path><path d="M1 0A1 1 0 1 1 1 -0.0001" fill="#5470c6" transform="matrix(17.5,0,0,17.5,249.0628,173.0594)"></path><path d="M1 0A1 1 0 1 1 1 -0.0001" fill="#5470c6" transform="matrix(17.5,0,0,17.5,270.8491,204.4879)"></path><path d="M1 0A1 1 0 1 1 1 -0.0001" fill="#5470c6" transform="matrix(17.5,0,0,17.5,206.3206,175.0005)"></path><path d="M1 0A1 1 0 1 1 1 -0.0001" fill="#5470c6" transform="matrix(17.5,0,0,17.5,234.8106,219.4076)"></path><path d="M1 0A1 1 0 1 1 1 -0.0001" fill="#5470c6" transform="matrix(17.5,0,0,17.5,198.3923,220.3213)"></path><path d="M1 0A1 1 0 1 1 1 -0.0001" fill="#5470c6" transform="matrix(17.5,0,0,17.5,166.5331,153.5122)"></path><path d="M1 0A1 1 0 1 1 1 -0.0001" fill="#5470c6" transform="matrix(17.5,0,0,17.5,165.679,207.2179)"></path><path d="M1 0A1 1 0 1 1 1 -0.0001" fill="#5470c6" transform="matrix(17.5,0,0,17.5,136.8128,189.0679)"></path><path d="M1 0A1 1 0 1 1 1 -0.0001" fill="#5470c6" transform="matrix(17.5,0,0,17.5,209.1471,123.17)"></path><path d="M1 0A1 1 0 1 1 1 -0.0001" fill="#5470c6" transform="matrix(17.5,0,0,17.5,115.2663,154.5288)"></path><path d="M1 0A1 1 0 1 1 1 -0.0001" fill="#5470c6" transform="matrix(17.5,0,0,17.5,136.5657,125.7695)"></path><path d="M1 0A1 1 0 1 1 1 -0.0001" fill="#5470c6" transform="matrix(17.5,0,0,17.5,113.5045,101.4962)"></path><path d="M1 0A1 1 0 1 1 1 -0.0001" fill="#5470c6" transform="matrix(17.5,0,0,17.5,171.379,92.7063)"></path><path d="M1 0A1 1 0 1 1 1 -0.0001" fill="#5470c6" transform="matrix(17.5,0,0,17.5,133.897,68.0521)"></path><path d="M1 0A1 1 0 1 1 1 -0.0001" fill="#5470c6" transform="matrix(17.5,0,0,17.5,159.1481,44.4187)"></path><path d="M1 0A1 1 0 1 1 1 -0.0001" fill="#5470c6" transform="matrix(17.5,0,0,17.5,191.5909,29.275)"></path><path d="M1 0A1 1 0 1 1 1 -0.0001" fill="#5470c6" transform="matrix(17.5,0,0,17.5,212.2441,68.3132)"></path><path d="M1 0A1 1 0 1 1 1 -0.0001" fill="#5470c6" transform="matrix(17.5,0,0,17.5,230.3478,29.3328)"></path><path d="M1 0A1 1 0 1 1 1 -0.0001" fill="#5470c6" transform="matrix(17.5,0,0,17.5,252.0327,88.2045)"></path><path d="M1 0A1 1 0 1 1 1 -0.0001" fill="#5470c6" transform="matrix(17.5,0,0,17.5,262.5649,44.3141)"></path><path d="M1 0A1 1 0 1 1 1 -0.0001" fill="#5470c6" transform="matrix(17.5,0,0,17.5,292.1941,68.9754)"></path><path d="M1 0A1 1 0 1 1 1 -0.0001" fill="#5470c6" transform="matrix(17.5,0,0,17.5,305.828,102.7711)"></path><path d="M1 0A1 1 0 1 1 1 -0.0001" fill="#5470c6" transform="matrix(17.5,0,0,17.5,260.5525,132.1294)"></path><path d="M-25.1792 -5l50.3584 0l0 32l-50.3584 0Z" fill="rgb(0,0,0)" fill-opacity="0" stroke="#ccc" stroke-width="0" transform="translate(237.5 5)"></path><text dominant-baseline="central" fill="#333" style="font-size:22px;font-family:sans-serif;font-weight:bolder;" text-anchor="middle" transform="translate(237.5 5)" y="11">C29</text></g></svg>