<svg baseprofile="full" height="250" style="position:absolute;left:0;top:0;user-select:none" version="1.1" width="475" xmlns="http://www.w3.org/2000/svg" xmlns:xlink="http://www.w3.org/1999/xlink"><rect fill="none" height="250" id="0" width="475" x="0" y="0"></rect><g><path d="M173.8661 161.3922L262.0049 141.7593" fill="none" stroke="#aaa" stroke-opacity="0.5" stroke-width="0.5"></path><path d="M161.1855 108.8539L262.0049 141.7593" fill="none" stroke="#aaa" stroke-opacity="0.5" stroke-width="0.5"></path><path d="M197.785 67.6831L117.3285 138.971" fill="none" stroke="#aaa" stroke-opacity="0.5" stroke-width="0.5"></path><path d="M197.785 67.6831L135.7704 63.3166" fill="none" stroke="#aaa" stroke-opacity="0.5" stroke-width="0.5"></path><path d="M161.1855 108.8539L249.2444 85.8031" fill="none" stroke="#aaa" stroke-opacity="0.5" stroke-width="0.5"></path><path d="M262.0049 141.7593L117.3285 138.971" fill="none" stroke="#aaa" stroke-opacity="0.5" stroke-width="0.5"></path><path d="M197.785 67.6831L191.9985 218.2713" fill="none" stroke="#aaa" stroke-opacity="0.5" stroke-width="0.5"></path><path d="M285.4883 59.0848L262.0049 141.7593" fill="none" stroke="#aaa" stroke-opacity="0.5" stroke-width="0.5"></path><path d="M161.1855 108.8539L224.3239 179.7537" fill="none" stroke="#aaa" stroke-opacity="0.5" stroke-width="0.5"></path><path d="M115.6652 99.6094L262.0049 141.7593" fill="none" stroke="#aaa" stroke-opacity="0.5" stroke-width="0.5"></path><path d="M165.9351 37.9786L234.1984 222.2922" fill="none" stroke="#aaa" stroke-opacity="0.5" stroke-width="0.5"></path><path d="M154.9714 206.2585L117.3285 138.971" fill="none" stroke="#aaa" stroke-opacity="0.5" stroke-width="0.5"></path><path d="M154.9714 206.2585L135.7704 63.3166" fill="none" stroke="#aaa" stroke-opacity="0.5" stroke-width="0.5"></path><path d="M262.0049 141.7593L191.9985 218.2713" fill="none" stroke="#aaa" stroke-opacity="0.5" stroke-width="0.5"></path><path d="M297.1423 171.9718L310.4643 132.6382" fill="none" stroke="#aaa" stroke-opacity="0.5" stroke-width="0.5"></path><path d="M161.1855 108.8539L127.8445 175.0682" fill="none" stroke="#aaa" stroke-opacity="0.5" stroke-width="0.5"></path><path d="M135.7704 63.3166L165.9351 37.9786" fill="none" stroke="#aaa" stroke-opacity="0.5" stroke-width="0.5"></path><path d="M234.1984 222.2922L117.3285 138.971" fill="none" stroke="#aaa" stroke-opacity="0.5" stroke-width="0.5"></path><path d="M154.9714 206.2585L191.9985 218.2713" fill="none" stroke="#aaa" stroke-opacity="0.5" stroke-width="0.5"></path><path d="M249.2444 85.8031L115.6652 99.6094" fill="none" stroke="#aaa" stroke-opacity="0.5" stroke-width="0.5"></path><path d="M285.4883 59.0848L224.3239 179.7537" fill="none" stroke="#aaa" stroke-opacity="0.5" stroke-width="0.5"></path><path d="M115.6652 99.6094L224.3239 179.7537" fill="none" stroke="#aaa" stroke-opacity="0.5" stroke-width="0.5"></path><path d="M127.8445 175.0682L117.3285 138.971" fill="none" stroke="#aaa" stroke-opacity="0.5" stroke-width="0.5"></path><path d="M299.3425 96.0639L310.4643 132.6382" fill="none" stroke="#aaa" stroke-opacity="0.5" stroke-width="0.5"></path><path d="M154.9714 206.2585L299.3425 96.0639" fill="none" stroke="#aaa" stroke-opacity="0.5" stroke-width="0.5"></path><path d="M135.7704 63.3166L310.4643 132.6382" fill="none" stroke="#aaa" stroke-opacity="0.5" stroke-width="0.5"></path><path d="M127.8445 175.0682L191.9985 218.2713" fill="none" stroke="#aaa" stroke-opacity="0.5" stroke-width="0.5"></path><path d="M210.1404 25.4545L310.4643 132.6382" fill="none" stroke="#aaa" stroke-opacity="0.5" stroke-width="0.5"></path><path d="M173.8661 161.3922L161.1855 108.8539" fill="none" stroke="#aaa" stroke-opacity="0.5" stroke-width="0.5"></path><path d="M173.8661 161.3922L115.6652 99.6094" fill="none" stroke="#aaa" stroke-opacity="0.5" stroke-width="0.5"></path><path d="M285.4883 59.0848L173.8661 161.3922" fill="none" stroke="#aaa" stroke-opacity="0.5" stroke-width="0.5"></path><path d="M224.3239 179.7537L269.8668 200.9526" fill="none" stroke="#aaa" stroke-opacity="0.5" stroke-width="0.5"></path><path d="M135.7704 63.3166L297.1423 171.9718" fill="none" stroke="#aaa" stroke-opacity="0.5" stroke-width="0.5"></path><path d="M250.0843 35.6206L210.1186 121.2024" fill="none" stroke="#aaa" stroke-opacity="0.5" stroke-width="0.5"></path><path d="M297.1423 171.9718L234.1984 222.2922" fill="none" stroke="#aaa" stroke-opacity="0.5" stroke-width="0.5"></path><path d="M197.785 67.6831L310.4643 132.6382" fill="none" stroke="#aaa" stroke-opacity="0.5" stroke-width="0.5"></path><path d="M285.4883 59.0848L161.1855 108.8539" fill="none" stroke="#aaa" stroke-opacity="0.5" stroke-width="0.5"></path><path d="M285.4883 59.0848L115.6652 99.6094" fill="none" stroke="#aaa" stroke-opacity="0.5" stroke-width="0.5"></path><path d="M161.1855 108.8539L250.0843 35.6206" fill="none" stroke="#aaa" stroke-opacity="0.5" stroke-width="0.5"></path><path d="M250.0843 35.6206L269.8668 200.9526" fill="none" stroke="#aaa" stroke-opacity="0.5" stroke-width="0.5"></path><path d="M249.2444 85.8031L269.8668 200.9526" fill="none" stroke="#aaa" stroke-opacity="0.5" stroke-width="0.5"></path><path d="M269.8668 200.9526L310.4643 132.6382" fill="none" stroke="#aaa" stroke-opacity="0.5" stroke-width="0.5"></path><path d="M299.3425 96.0639L262.0049 141.7593" fill="none" stroke="#aaa" stroke-opacity="0.5" stroke-width="0.5"></path><path d="M210.1186 121.2024L117.3285 138.971" fill="none" stroke="#aaa" stroke-opacity="0.5" stroke-width="0.5"></path><path d="M161.1855 108.8539L210.1186 121.2024" fill="none" stroke="#aaa" stroke-opacity="0.5" stroke-width="0.5"></path><path d="M154.9714 206.2585L310.4643 132.6382" fill="none" stroke="#aaa" stroke-opacity="0.5" stroke-width="0.5"></path><path d="M285.4883 59.0848L250.0843 35.6206" fill="none" stroke="#aaa" stroke-opacity="0.5" stroke-width="0.5"></path><path d="M115.6652 99.6094L250.0843 35.6206" fill="none" stroke="#aaa" stroke-opacity="0.5" stroke-width="0.5"></path><path d="M210.1404 25.4545L262.0049 141.7593" fill="none" stroke="#aaa" stroke-opacity="0.5" stroke-width="0.5"></path><path d="M210.1186 121.2024L191.9985 218.2713" fill="none" stroke="#aaa" stroke-opacity="0.5" stroke-width="0.5"></path><path d="M135.7704 63.3166L249.2444 85.8031" fill="none" stroke="#aaa" stroke-opacity="0.5" stroke-width="0.5"></path><path d="M262.0049 141.7593L234.1984 222.2922" fill="none" stroke="#aaa" stroke-opacity="0.5" stroke-width="0.5"></path><path d="M165.9351 37.9786L115.6652 99.6094" fill="none" stroke="#aaa" stroke-opacity="0.5" stroke-width="0.5"></path><path d="M299.3425 96.0639L224.3239 179.7537" fill="none" stroke="#aaa" stroke-opacity="0.5" stroke-width="0.5"></path><path d="M173.8661 161.3922L269.8668 200.9526" fill="none" stroke="#aaa" stroke-opacity="0.5" stroke-width="0.5"></path><path d="M161.1855 108.8539L269.8668 200.9526" fill="none" stroke="#aaa" stroke-opacity="0.5" stroke-width="0.5"></path><path d="M135.7704 63.3166L224.3239 179.7537" fill="none" stroke="#aaa" stroke-opacity="0.5" stroke-width="0.5"></path><path d="M285.4883 59.0848L210.1186 121.2024" fill="none" stroke="#aaa" stroke-opacity="0.5" stroke-width="0.5"></path><path d="M127.8445 175.0682L310.4643 132.6382" fill="none" stroke="#aaa" stroke-opacity="0.5" stroke-width="0.5"></path><path d="M115.6652 99.6094L210.1186 121.2024" fill="none" stroke="#aaa" stroke-opacity="0.5" stroke-width="0.5"></path><path d="M173.8661 161.3922L299.3425 96.0639" fill="none" stroke="#aaa" stroke-opacity="0.5" stroke-width="0.5"></path><path d="M210.1404 25.4545L224.3239 179.7537" fill="none" stroke="#aaa" stroke-opacity="0.5" stroke-width="0.5"></path><path d="M161.1855 108.8539L117.3285 138.971" fill="none" stroke="#aaa" stroke-opacity="0.5" stroke-width="0.5"></path><path d="M135.7704 63.3166L127.8445 175.0682" fill="none" stroke="#aaa" stroke-opacity="0.5" stroke-width="0.5"></path><path d="M161.1855 108.8539L135.7704 63.3166" fill="none" stroke="#aaa" stroke-opacity="0.5" stroke-width="0.5"></path><path d="M197.785 67.6831L262.0049 141.7593" fill="none" stroke="#aaa" stroke-opacity="0.5" stroke-width="0.5"></path><path d="M249.2444 85.8031L165.9351 37.9786" fill="none" stroke="#aaa" stroke-opacity="0.5" stroke-width="0.5"></path><path d="M285.4883 59.0848L269.8668 200.9526" fill="none" stroke="#aaa" stroke-opacity="0.5" stroke-width="0.5"></path><path d="M115.6652 99.6094L269.8668 200.9526" fill="none" stroke="#aaa" stroke-opacity="0.5" stroke-width="0.5"></path><path d="M161.1855 108.8539L191.9985 218.2713" fill="none" stroke="#aaa" stroke-opacity="0.5" stroke-width="0.5"></path><path d="M154.9714 206.2585L210.1404 25.4545" fill="none" stroke="#aaa" stroke-opacity="0.5" stroke-width="0.5"></path><path d="M269.8668 200.9526L262.0049 141.7593" fill="none" stroke="#aaa" stroke-opacity="0.5" stroke-width="0.5"></path><path d="M285.4883 59.0848L299.3425 96.0639" fill="none" stroke="#aaa" stroke-opacity="0.5" stroke-width="0.5"></path><path d="M197.785 67.6831L224.3239 179.7537" fill="none" stroke="#aaa" stroke-opacity="0.5" stroke-width="0.5"></path><path d="M154.9714 206.2585L262.0049 141.7593" fill="none" stroke="#aaa" stroke-opacity="0.5" stroke-width="0.5"></path><path d="M165.9351 37.9786L117.3285 138.971" fill="none" stroke="#aaa" stroke-opacity="0.5" stroke-width="0.5"></path><path d="M210.1404 25.4545L173.8661 161.3922" fill="none" stroke="#aaa" stroke-opacity="0.5" stroke-width="0.5"></path><path d="M173.8661 161.3922L165.9351 37.9786" fill="none" stroke="#aaa" stroke-opacity="0.5" stroke-width="0.5"></path><path d="M161.1855 108.8539L165.9351 37.9786" fill="none" stroke="#aaa" stroke-opacity="0.5" stroke-width="0.5"></path><path d="M297.1423 171.9718L250.0843 35.6206" fill="none" stroke="#aaa" stroke-opacity="0.5" stroke-width="0.5"></path><path d="M165.9351 37.9786L191.9985 218.2713" fill="none" stroke="#aaa" stroke-opacity="0.5" stroke-width="0.5"></path><path d="M127.8445 175.0682L262.0049 141.7593" fill="none" stroke="#aaa" stroke-opacity="0.5" stroke-width="0.5"></path><path d="M154.9714 206.2585L224.3239 179.7537" fill="none" stroke="#aaa" stroke-opacity="0.5" stroke-width="0.5"></path><path d="M210.1404 25.4545L161.1855 108.8539" fill="none" stroke="#aaa" stroke-opacity="0.5" stroke-width="0.5"></path><path d="M210.1404 25.4545L115.6652 99.6094" fill="none" stroke="#aaa" stroke-opacity="0.5" stroke-width="0.5"></path><path d="M249.2444 85.8031L297.1423 171.9718" fill="none" stroke="#aaa" stroke-opacity="0.5" stroke-width="0.5"></path><path d="M210.1186 121.2024L310.4643 132.6382" fill="none" stroke="#aaa" stroke-opacity="0.5" stroke-width="0.5"></path><path d="M297.1423 171.9718L210.1186 121.2024" fill="none" stroke="#aaa" stroke-opacity="0.5" stroke-width="0.5"></path><path d="M285.4883 59.0848L165.9351 37.9786" fill="none" stroke="#aaa" stroke-opacity="0.5" stroke-width="0.5"></path><path d="M173.8661 161.3922L310.4643 132.6382" fill="none" stroke="#aaa" stroke-opacity="0.5" stroke-width="0.5"></path><path d="M197.785 67.6831L173.8661 161.3922" fill="none" stroke="#aaa" stroke-opacity="0.5" stroke-width="0.5"></path><path d="M224.3239 179.7537L234.1984 222.2922" fill="none" stroke="#aaa" stroke-opacity="0.5" stroke-width="0.5"></path><path d="M299.3425 96.0639L250.0843 35.6206" fill="none" stroke="#aaa" stroke-opacity="0.5" stroke-width="0.5"></path><path d="M135.7704 63.3166L250.0843 35.6206" fill="none" stroke="#aaa" stroke-opacity="0.5" stroke-width="0.5"></path><path d="M127.8445 175.0682L224.3239 179.7537" fill="none" stroke="#aaa" stroke-opacity="0.5" stroke-width="0.5"></path><path d="M210.1404 25.4545L250.0843 35.6206" fill="none" stroke="#aaa" stroke-opacity="0.5" stroke-width="0.5"></path><path d="M299.3425 96.0639L210.1186 121.2024" fill="none" stroke="#aaa" stroke-opacity="0.5" stroke-width="0.5"></path><path d="M197.785 67.6831L161.1855 108.8539" fill="none" stroke="#aaa" stroke-opacity="0.5" stroke-width="0.5"></path><path d="M197.785 67.6831L115.6652 99.6094" fill="none" stroke="#aaa" stroke-opacity="0.5" stroke-width="0.5"></path><path d="M250.0843 35.6206L234.1984 222.2922" fill="none" stroke="#aaa" stroke-opacity="0.5" stroke-width="0.5"></path><path d="M154.9714 206.2585L173.8661 161.3922" fill="none" stroke="#aaa" stroke-opacity="0.5" stroke-width="0.5"></path><path d="M173.8661 161.3922L297.1423 171.9718" fill="none" stroke="#aaa" stroke-opacity="0.5" stroke-width="0.5"></path><path d="M135.7704 63.3166L210.1186 121.2024" fill="none" stroke="#aaa" stroke-opacity="0.5" stroke-width="0.5"></path><path d="M249.2444 85.8031L234.1984 222.2922" fill="none" stroke="#aaa" stroke-opacity="0.5" stroke-width="0.5"></path><path d="M297.1423 171.9718L117.3285 138.971" fill="none" stroke="#aaa" stroke-opacity="0.5" stroke-width="0.5"></path><path d="M210.5 25.4545L210.5 121.2024" fill="none" stroke="#aaa" stroke-opacity="0.5" stroke-width="0.5"></path><path d="M299.3425 96.0639L269.8668 200.9526" fill="none" stroke="#aaa" stroke-opacity="0.5" stroke-width="0.5"></path><path d="M154.9714 206.2585L161.1855 108.8539" fill="none" stroke="#aaa" stroke-opacity="0.5" stroke-width="0.5"></path><path d="M197.785 67.6831L250.0843 35.6206" fill="none" stroke="#aaa" stroke-opacity="0.5" stroke-width="0.5"></path><path d="M297.1423 171.9718L191.9985 218.2713" fill="none" stroke="#aaa" stroke-opacity="0.5" stroke-width="0.5"></path><path d="M285.4883 59.0848L297.1423 171.9718" fill="none" stroke="#aaa" stroke-opacity="0.5" stroke-width="0.5"></path><path d="M210.1404 25.4545L269.8668 200.9526" fill="none" stroke="#aaa" stroke-opacity="0.5" stroke-width="0.5"></path><path d="M210.1186 121.2024L262.0049 141.7593" fill="none" stroke="#aaa" stroke-opacity="0.5" stroke-width="0.5"></path><path d="M161.1855 108.8539L234.1984 222.2922" fill="none" stroke="#aaa" stroke-opacity="0.5" stroke-width="0.5"></path><path d="M135.7704 63.3166L117.3285 138.971" fill="none" stroke="#aaa" stroke-opacity="0.5" stroke-width="0.5"></path><path d="M165.9351 37.9786L310.4643 132.6382" fill="none" stroke="#aaa" stroke-opacity="0.5" stroke-width="0.5"></path><path d="M197.785 67.6831L210.1186 121.2024" fill="none" stroke="#aaa" stroke-opacity="0.5" stroke-width="0.5"></path><path d="M210.1404 25.4545L299.3425 96.0639" fill="none" stroke="#aaa" stroke-opacity="0.5" stroke-width="0.5"></path><path d="M127.8445 175.0682L115.6652 99.6094" fill="none" stroke="#aaa" stroke-opacity="0.5" stroke-width="0.5"></path><path d="M154.9714 206.2585L250.0843 35.6206" fill="none" stroke="#aaa" stroke-opacity="0.5" stroke-width="0.5"></path><path d="M135.7704 63.3166L191.9985 218.2713" fill="none" stroke="#aaa" stroke-opacity="0.5" stroke-width="0.5"></path><path d="M173.8661 161.3922L249.2444 85.8031" fill="none" stroke="#aaa" stroke-opacity="0.5" stroke-width="0.5"></path><path d="M210.1186 121.2024L224.3239 179.7537" fill="none" stroke="#aaa" stroke-opacity="0.5" stroke-width="0.5"></path><path d="M285.4883 59.0848L234.1984 222.2922" fill="none" stroke="#aaa" stroke-opacity="0.5" stroke-width="0.5"></path><path d="M197.785 67.6831L269.8668 200.9526" fill="none" stroke="#aaa" stroke-opacity="0.5" stroke-width="0.5"></path><path d="M115.6652 99.6094L234.1984 222.2922" fill="none" stroke="#aaa" stroke-opacity="0.5" stroke-width="0.5"></path><path d="M173.8661 161.3922L224.3239 179.7537" fill="none" stroke="#aaa" stroke-opacity="0.5" stroke-width="0.5"></path><path d="M154.9714 206.2585L210.1186 121.2024" fill="none" stroke="#aaa" stroke-opacity="0.5" stroke-width="0.5"></path><path d="M299.3425 96.0639L165.9351 37.9786" fill="none" stroke="#aaa" stroke-opacity="0.5" stroke-width="0.5"></path><path d="M127.8445 175.0682L250.0843 35.6206" fill="none" stroke="#aaa" stroke-opacity="0.5" stroke-width="0.5"></path><path d="M197.785 67.6831L299.3425 96.0639" fill="none" stroke="#aaa" stroke-opacity="0.5" stroke-width="0.5"></path><path d="M173.8661 161.3922L127.8445 175.0682" fill="none" stroke="#aaa" stroke-opacity="0.5" stroke-width="0.5"></path><path d="M285.4883 59.0848L249.2444 85.8031" fill="none" stroke="#aaa" stroke-opacity="0.5" stroke-width="0.5"></path><path d="M117.3285 138.971L310.4643 132.6382" fill="none" stroke="#aaa" stroke-opacity="0.5" stroke-width="0.5"></path><path d="M210.1404 25.4545L165.9351 37.9786" fill="none" stroke="#aaa" stroke-opacity="0.5" stroke-width="0.5"></path><path d="M154.9714 206.2585L269.8668 200.9526" fill="none" stroke="#aaa" stroke-opacity="0.5" stroke-width="0.5"></path><path d="M127.8445 175.0682L210.1186 121.2024" fill="none" stroke="#aaa" stroke-opacity="0.5" stroke-width="0.5"></path><path d="M269.8668 200.9526L117.3285 138.971" fill="none" stroke="#aaa" stroke-opacity="0.5" stroke-width="0.5"></path><path d="M234.1984 222.2922L191.9985 218.2713" fill="none" stroke="#aaa" stroke-opacity="0.5" stroke-width="0.5"></path><path d="M285.4883 59.0848L127.8445 175.0682" fill="none" stroke="#aaa" stroke-opacity="0.5" stroke-width="0.5"></path><path d="M165.9351 37.9786L262.0049 141.7593" fill="none" stroke="#aaa" stroke-opacity="0.5" stroke-width="0.5"></path><path d="M269.8668 200.9526L191.9985 218.2713" fill="none" stroke="#aaa" stroke-opacity="0.5" stroke-width="0.5"></path><path d="M127.8445 175.0682L269.8668 200.9526" fill="none" stroke="#aaa" stroke-opacity="0.5" stroke-width="0.5"></path><path d="M197.785 67.6831L154.9714 206.2585" fill="none" stroke="#aaa" stroke-opacity="0.5" stroke-width="0.5"></path><path d="M249.2444 85.8031L250.0843 35.6206" fill="none" stroke="#aaa" stroke-opacity="0.5" stroke-width="0.5"></path><path d="M197.785 67.6831L165.9351 37.9786" fill="none" stroke="#aaa" stroke-opacity="0.5" stroke-width="0.5"></path><path d="M299.3425 96.0639L297.1423 171.9718" fill="none" stroke="#aaa" stroke-opacity="0.5" stroke-width="0.5"></path><path d="M165.9351 37.9786L224.3239 179.7537" fill="none" stroke="#aaa" stroke-opacity="0.5" stroke-width="0.5"></path><path d="M249.2444 85.8031L210.1186 121.2024" fill="none" stroke="#aaa" stroke-opacity="0.5" stroke-width="0.5"></path><path d="M210.1404 25.4545L297.1423 171.9718" fill="none" stroke="#aaa" stroke-opacity="0.5" stroke-width="0.5"></path><path d="M224.3239 179.7537L117.3285 138.971" fill="none" stroke="#aaa" stroke-opacity="0.5" stroke-width="0.5"></path><path d="M154.9714 206.2585L165.9351 37.9786" fill="none" stroke="#aaa" stroke-opacity="0.5" stroke-width="0.5"></path><path d="M173.8661 161.3922L250.0843 35.6206" fill="none" stroke="#aaa" stroke-opacity="0.5" stroke-width="0.5"></path><path d="M161.1855 108.8539L115.6652 99.6094" fill="none" stroke="#aaa" stroke-opacity="0.5" stroke-width="0.5"></path><path d="M262.0049 141.7593L310.4643 132.6382" fill="none" stroke="#aaa" stroke-opacity="0.5" stroke-width="0.5"></path><path d="M224.3239 179.7537L191.9985 218.2713" fill="none" stroke="#aaa" stroke-opacity="0.5" stroke-width="0.5"></path><path d="M299.3425 96.0639L234.1984 222.2922" fill="none" stroke="#aaa" stroke-opacity="0.5" stroke-width="0.5"></path><path d="M135.7704 63.3166L234.1984 222.2922" fill="none" stroke="#aaa" stroke-opacity="0.5" stroke-width="0.5"></path><path d="M250.0843 35.6206L117.3285 138.971" fill="none" stroke="#aaa" stroke-opacity="0.5" stroke-width="0.5"></path><path d="M127.8445 175.0682L165.9351 37.9786" fill="none" stroke="#aaa" stroke-opacity="0.5" stroke-width="0.5"></path><path d="M173.8661 161.3922L210.1186 121.2024" fill="none" stroke="#aaa" stroke-opacity="0.5" stroke-width="0.5"></path><path d="M197.785 67.6831L297.1423 171.9718" fill="none" stroke="#aaa" stroke-opacity="0.5" stroke-width="0.5"></path><path d="M249.2444 85.8031L117.3285 138.971" fill="none" stroke="#aaa" stroke-opacity="0.5" stroke-width="0.5"></path><path d="M297.1423 171.9718L262.0049 141.7593" fill="none" stroke="#aaa" stroke-opacity="0.5" stroke-width="0.5"></path><path d="M210.1404 25.4545L234.1984 222.2922" fill="none" stroke="#aaa" stroke-opacity="0.5" stroke-width="0.5"></path><path d="M299.3425 96.0639L249.2444 85.8031" fill="none" stroke="#aaa" stroke-opacity="0.5" stroke-width="0.5"></path><path d="M250.0843 35.6206L191.9985 218.2713" fill="none" stroke="#aaa" stroke-opacity="0.5" stroke-width="0.5"></path><path d="M234.1984 222.2922L310.4643 132.6382" fill="none" stroke="#aaa" stroke-opacity="0.5" stroke-width="0.5"></path><path d="M210.1186 121.2024L269.8668 200.9526" fill="none" stroke="#aaa" stroke-opacity="0.5" stroke-width="0.5"></path><path d="M249.2444 85.8031L191.9985 218.2713" fill="none" stroke="#aaa" stroke-opacity="0.5" stroke-width="0.5"></path><path d="M210.1404 25.4545L249.2444 85.8031" fill="none" stroke="#aaa" stroke-opacity="0.5" stroke-width="0.5"></path><path d="M154.9714 206.2585L297.1423 171.9718" fill="none" stroke="#aaa" stroke-opacity="0.5" stroke-width="0.5"></path><path d="M297.1423 171.9718L224.3239 179.7537" fill="none" stroke="#aaa" stroke-opacity="0.5" stroke-width="0.5"></path><path d="M197.785 67.6831L210.1404 25.4545" fill="none" stroke="#aaa" stroke-opacity="0.5" stroke-width="0.5"></path><path d="M299.3425 96.0639L127.8445 175.0682" fill="none" stroke="#aaa" stroke-opacity="0.5" stroke-width="0.5"></path><path d="M135.7704 63.3166L262.0049 141.7593" fill="none" stroke="#aaa" stroke-opacity="0.5" stroke-width="0.5"></path><path d="M173.8661 161.3922L117.3285 138.971" fill="none" stroke="#aaa" stroke-opacity="0.5" stroke-width="0.5"></path><path d="M173.8661 161.3922L135.7704 63.3166" fill="none" stroke="#aaa" stroke-opacity="0.5" stroke-width="0.5"></path><path d="M197.785 67.6831L234.1984 222.2922" fill="none" stroke="#aaa" stroke-opacity="0.5" stroke-width="0.5"></path><path d="M165.9351 37.9786L250.0843 35.6206" fill="none" stroke="#aaa" stroke-opacity="0.5" stroke-width="0.5"></path><path d="M210.1404 25.4545L127.8445 175.0682" fill="none" stroke="#aaa" stroke-opacity="0.5" stroke-width="0.5"></path><path d="M173.8661 161.3922L191.9985 218.2713" fill="none" stroke="#aaa" stroke-opacity="0.5" stroke-width="0.5"></path><path d="M127.8445 175.0682L297.1423 171.9718" fill="none" stroke="#aaa" stroke-opacity="0.5" stroke-width="0.5"></path><path d="M269.8668 200.9526L234.1984 222.2922" fill="none" stroke="#aaa" stroke-opacity="0.5" stroke-width="0.5"></path><path d="M197.785 67.6831L249.2444 85.8031" fill="none" stroke="#aaa" stroke-opacity="0.5" stroke-width="0.5"></path><path d="M285.4883 59.0848L117.3285 138.971" fill="none" stroke="#aaa" stroke-opacity="0.5" stroke-width="0.5"></path><path d="M285.4883 59.0848L135.7704 63.3166" fill="none" stroke="#aaa" stroke-opacity="0.5" stroke-width="0.5"></path><path d="M115.6652 99.6094L117.3285 138.971" fill="none" stroke="#aaa" stroke-opacity="0.5" stroke-width="0.5"></path><path d="M154.9714 206.2585L234.1984 222.2922" fill="none" stroke="#aaa" stroke-opacity="0.5" stroke-width="0.5"></path><path d="M165.9351 37.9786L210.1186 121.2024" fill="none" stroke="#aaa" stroke-opacity="0.5" stroke-width="0.5"></path><path d="M161.1855 108.8539L299.3425 96.0639" fill="none" stroke="#aaa" stroke-opacity="0.5" stroke-width="0.5"></path><path d="M224.3239 179.7537L310.4643 132.6382" fill="none" stroke="#aaa" stroke-opacity="0.5" stroke-width="0.5"></path><path d="M285.4883 59.0848L191.9985 218.2713" fill="none" stroke="#aaa" stroke-opacity="0.5" stroke-width="0.5"></path><path d="M115.6652 99.6094L191.9985 218.2713" fill="none" stroke="#aaa" stroke-opacity="0.5" stroke-width="0.5"></path><path d="M197.785 67.6831L127.8445 175.0682" fill="none" stroke="#aaa" stroke-opacity="0.5" stroke-width="0.5"></path><path d="M154.9714 206.2585L249.2444 85.8031" fill="none" stroke="#aaa" stroke-opacity="0.5" stroke-width="0.5"></path><path d="M165.9351 37.9786L269.8668 200.9526" fill="none" stroke="#aaa" stroke-opacity="0.5" stroke-width="0.5"></path><path d="M297.1423 171.9718L115.6652 99.6094" fill="none" stroke="#aaa" stroke-opacity="0.5" stroke-width="0.5"></path><path d="M127.8445 175.0682L234.1984 222.2922" fill="none" stroke="#aaa" stroke-opacity="0.5" stroke-width="0.5"></path><path d="M250.0843 35.6206L310.4643 132.6382" fill="none" stroke="#aaa" stroke-opacity="0.5" stroke-width="0.5"></path><path d="M249.2444 85.8031L310.4643 132.6382" fill="none" stroke="#aaa" stroke-opacity="0.5" stroke-width="0.5"></path><path d="M154.9714 206.2585L127.8445 175.0682" fill="none" stroke="#aaa" stroke-opacity="0.5" stroke-width="0.5"></path><path d="M127.8445 175.0682L249.2444 85.8031" fill="none" stroke="#aaa" stroke-opacity="0.5" stroke-width="0.5"></path><path d="M299.3425 96.0639L115.6652 99.6094" fill="none" stroke="#aaa" stroke-opacity="0.5" stroke-width="0.5"></path><path d="M210.1404 25.4545L285.4883 59.0848" fill="none" stroke="#aaa" stroke-opacity="0.5" stroke-width="0.5"></path><path d="M135.7704 63.3166L115.6652 99.6094" fill="none" stroke="#aaa" stroke-opacity="0.5" stroke-width="0.5"></path><path d="M161.1855 108.8539L310.4643 132.6382" fill="none" stroke="#aaa" stroke-opacity="0.5" stroke-width="0.5"></path><path d="M224.3239 179.7537L262.0049 141.7593" fill="none" stroke="#aaa" stroke-opacity="0.5" stroke-width="0.5"></path><path d="M197.785 67.6831L285.4883 59.0848" fill="none" stroke="#aaa" stroke-opacity="0.5" stroke-width="0.5"></path><path d="M310.4643 132.6382L191.9985 218.2713" fill="none" stroke="#aaa" stroke-opacity="0.5" stroke-width="0.5"></path><path d="M297.1423 171.9718L269.8668 200.9526" fill="none" stroke="#aaa" stroke-opacity="0.5" stroke-width="0.5"></path><path d="M117.3285 138.971L191.9985 218.2713" fill="none" stroke="#aaa" stroke-opacity="0.5" stroke-width="0.5"></path><path d="M299.3425 96.0639L117.3285 138.971" fill="none" stroke="#aaa" stroke-opacity="0.5" stroke-width="0.5"></path><path d="M210.1186 121.2024L234.1984 222.2922" fill="none" stroke="#aaa" stroke-opacity="0.5" stroke-width="0.5"></path><path d="M285.4883 59.0848L310.4643 132.6382" fill="none" stroke="#aaa" stroke-opacity="0.5" stroke-width="0.5"></path><path d="M115.6652 99.6094L310.4643 132.6382" fill="none" stroke="#aaa" stroke-opacity="0.5" stroke-width="0.5"></path><path d="M161.1855 108.8539L297.1423 171.9718" fill="none" stroke="#aaa" stroke-opacity="0.5" stroke-width="0.5"></path><path d="M250.0843 35.6206L262.0049 141.7593" fill="none" stroke="#aaa" stroke-opacity="0.5" stroke-width="0.5"></path><path d="M173.8661 161.3922L234.1984 222.2922" fill="none" stroke="#aaa" stroke-opacity="0.5" stroke-width="0.5"></path><path d="M154.9714 206.2585L285.4883 59.0848" fill="none" stroke="#aaa" stroke-opacity="0.5" stroke-width="0.5"></path><path d="M249.2444 85.8031L262.0049 141.7593" fill="none" stroke="#aaa" stroke-opacity="0.5" stroke-width="0.5"></path><path d="M299.3425 96.0639L191.9985 218.2713" fill="none" stroke="#aaa" stroke-opacity="0.5" stroke-width="0.5"></path><path d="M210.1404 25.4545L117.3285 138.971" fill="none" stroke="#aaa" stroke-opacity="0.5" stroke-width="0.5"></path><path d="M210.1404 25.4545L135.7704 63.3166" fill="none" stroke="#aaa" stroke-opacity="0.5" stroke-width="0.5"></path><path d="M154.9714 206.2585L115.6652 99.6094" fill="none" stroke="#aaa" stroke-opacity="0.5" stroke-width="0.5"></path><path d="M135.7704 63.3166L269.8668 200.9526" fill="none" stroke="#aaa" stroke-opacity="0.5" stroke-width="0.5"></path><path d="M250.0843 35.6206L224.3239 179.7537" fill="none" stroke="#aaa" stroke-opacity="0.5" stroke-width="0.5"></path><path d="M210.1404 25.4545L191.9985 218.2713" fill="none" stroke="#aaa" stroke-opacity="0.5" stroke-width="0.5"></path><path d="M249.2444 85.8031L224.3239 179.7537" fill="none" stroke="#aaa" stroke-opacity="0.5" stroke-width="0.5"></path><path d="M165.9351 37.9786L297.1423 171.9718" fill="none" stroke="#aaa" stroke-opacity="0.5" stroke-width="0.5"></path><path d="M135.7704 63.3166L299.3425 96.0639" fill="none" stroke="#aaa" stroke-opacity="0.5" stroke-width="0.5"></path><path d="M1 0A1 1 0 1 1 1 -0.0001" fill="#5470c6" transform="matrix(18,0,0,18,310.4643,132.6382)"></path><path d="M1 0A1 1 0 1 1 1 -0.0001" fill="#5470c6" transform="matrix(18,0,0,18,297.1423,171.9718)"></path><path d="M1 0A1 1 0 1 1 1 -0.0001" fill="#5470c6" transform="matrix(18,0,0,18,262.0049,141.7593)"></path><path d="M1 0A1 1 0 1 1 1 -0.0001" fill="#5470c6" transform="matrix(18,0,0,18,269.8668,200.9526)"></path><path d="M1 0A1 1 0 1 1 1 -0.0001" fill="#5470c6" transform="matrix(18,0,0,18,234.1984,222.2922)"></path><path d="M1 0A1 1 0 1 1 1 -0.0001" fill="#5470c6" transform="matrix(18,0,0,18,224.3239,179.7537)"></path><path d="M1 0A1 1 0 1 1 1 -0.0001" fill="#5470c6" transform="matrix(18,0,0,18,191.9985,218.2713)"></path><path d="M1 0A1 1 0 1 1 1 -0.0001" fill="#5470c6" transform="matrix(18,0,0,18,154.9714,206.2585)"></path><path d="M1 0A1 1 0 1 1 1 -0.0001" fill="#5470c6" transform="matrix(18,0,0,18,127.8445,175.0682)"></path><path d="M1 0A1 1 0 1 1 1 -0.0001" fill="#5470c6" transform="matrix(18,0,0,18,173.8661,161.3922)"></path><path d="M1 0A1 1 0 1 1 1 -0.0001" fill="#5470c6" transform="matrix(18,0,0,18,117.3285,138.971)"></path><path d="M1 0A1 1 0 1 1 1 -0.0001" fill="#5470c6" transform="matrix(18,0,0,18,161.1855,108.8539)"></path><path d="M1 0A1 1 0 1 1 1 -0.0001" fill="#5470c6" transform="matrix(18,0,0,18,115.6652,99.6094)"></path><path d="M1 0A1 1 0 1 1 1 -0.0001" fill="#5470c6" transform="matrix(18,0,0,18,135.7704,63.3166)"></path><path d="M1 0A1 1 0 1 1 1 -0.0001" fill="#5470c6" transform="matrix(18,0,0,18,165.9351,37.9786)"></path><path d="M1 0A1 1 0 1 1 1 -0.0001" fill="#5470c6" transform="matrix(18,0,0,18,210.1404,25.4545)"></path><path d="M1 0A1 1 0 1 1 1 -0.0001" fill="#5470c6" transform="matrix(18,0,0,18,197.785,67.6831)"></path><path d="M1 0A1 1 0 1 1 1 -0.0001" fill="#5470c6" transform="matrix(18,0,0,18,250.0843,35.6206)"></path><path d="M1 0A1 1 0 1 1 1 -0.0001" fill="#5470c6" transform="matrix(18,0,0,18,249.2444,85.8031)"></path><path d="M1 0A1 1 0 1 1 1 -0.0001" fill="#5470c6" transform="matrix(18,0,0,18,285.4883,59.0848)"></path><path d="M1 0A1 1 0 1 1 1 -0.0001" fill="#5470c6" transform="matrix(18,0,0,18,299.3425,96.0639)"></path><path d="M1 0A1 1 0 1 1 1 -0.0001" fill="#5470c6" transform="matrix(18,0,0,18,210.1186,121.2024)"></path><path d="M-25.1792 -5l50.3584 0l0 32l-50.3584 0Z" fill="rgb(0,0,0)" fill-opacity="0" stroke="#ccc" stroke-width="0" transform="translate(237.5 5)"></path><text dominant-baseline="central" fill="#333" style="font-size:22px;font-family:sans-serif;font-weight:bolder;" text-anchor="middle" transform="translate(237.5 5)" y="11">C30</text></g></svg>