<svg baseprofile="full" height="250" style="position:absolute;left:0;top:0;user-select:none" version="1.1" width="475" xmlns="http://www.w3.org/2000/svg" xmlns:xlink="http://www.w3.org/1999/xlink"><rect fill="none" height="250" id="0" width="475" x="0" y="0"></rect><g><path d="M197.0808 84.0433L175.1018 139.1092" fill="none" stroke="#aaa" stroke-opacity="0.5" stroke-width="0.5"></path><path d="M112.9595 137.7664L143.9996 55.6032" fill="none" stroke="#aaa" stroke-opacity="0.5" stroke-width="0.5"></path><path d="M143.9996 55.6032L183.9225 28.9278" fill="none" stroke="#aaa" stroke-opacity="0.5" stroke-width="0.5"></path><path d="M119.8602 92.7278L232.1409 30.0348" fill="none" stroke="#aaa" stroke-opacity="0.5" stroke-width="0.5"></path><path d="M271.9843 50.5517L112.9595 137.7664" fill="none" stroke="#aaa" stroke-opacity="0.5" stroke-width="0.5"></path><path d="M271.9843 50.5517L308.8809 133.3968" fill="none" stroke="#aaa" stroke-opacity="0.5" stroke-width="0.5"></path><path d="M302.776 85.8813L209.9806 223.3706" fill="none" stroke="#aaa" stroke-opacity="0.5" stroke-width="0.5"></path><path d="M251.1997 112.3998L175.1018 139.1092" fill="none" stroke="#aaa" stroke-opacity="0.5" stroke-width="0.5"></path><path d="M197.0808 84.0433L293.8854 177.0277" fill="none" stroke="#aaa" stroke-opacity="0.5" stroke-width="0.5"></path><path d="M131.7129 181.4517L165.2324 211.0883" fill="none" stroke="#aaa" stroke-opacity="0.5" stroke-width="0.5"></path><path d="M119.8602 92.7278L228.562 168.0866" fill="none" stroke="#aaa" stroke-opacity="0.5" stroke-width="0.5"></path><path d="M143.9996 55.6032L119.8602 92.7278" fill="none" stroke="#aaa" stroke-opacity="0.5" stroke-width="0.5"></path><path d="M112.9595 137.7664L209.9806 223.3706" fill="none" stroke="#aaa" stroke-opacity="0.5" stroke-width="0.5"></path><path d="M228.562 168.0866L175.1018 139.1092" fill="none" stroke="#aaa" stroke-opacity="0.5" stroke-width="0.5"></path><path d="M119.8602 92.7278L131.7129 181.4517" fill="none" stroke="#aaa" stroke-opacity="0.5" stroke-width="0.5"></path><path d="M197.0808 84.0433L143.9996 55.6032" fill="none" stroke="#aaa" stroke-opacity="0.5" stroke-width="0.5"></path><path d="M251.1997 112.3998L293.8854 177.0277" fill="none" stroke="#aaa" stroke-opacity="0.5" stroke-width="0.5"></path><path d="M302.776 85.8813L183.9225 28.9278" fill="none" stroke="#aaa" stroke-opacity="0.5" stroke-width="0.5"></path><path d="M119.8602 92.7278L165.2324 211.0883" fill="none" stroke="#aaa" stroke-opacity="0.5" stroke-width="0.5"></path><path d="M259.8605 213.5331L209.9806 223.3706" fill="none" stroke="#aaa" stroke-opacity="0.5" stroke-width="0.5"></path><path d="M271.9843 50.5517L175.1018 139.1092" fill="none" stroke="#aaa" stroke-opacity="0.5" stroke-width="0.5"></path><path d="M251.1997 112.3998L143.9996 55.6032" fill="none" stroke="#aaa" stroke-opacity="0.5" stroke-width="0.5"></path><path d="M112.9595 137.7664L183.9225 28.9278" fill="none" stroke="#aaa" stroke-opacity="0.5" stroke-width="0.5"></path><path d="M119.8602 92.7278L259.8605 213.5331" fill="none" stroke="#aaa" stroke-opacity="0.5" stroke-width="0.5"></path><path d="M302.776 85.8813L112.9595 137.7664" fill="none" stroke="#aaa" stroke-opacity="0.5" stroke-width="0.5"></path><path d="M197.0808 84.0433L209.9806 223.3706" fill="none" stroke="#aaa" stroke-opacity="0.5" stroke-width="0.5"></path><path d="M302.776 85.8813L308.8809 133.3968" fill="none" stroke="#aaa" stroke-opacity="0.5" stroke-width="0.5"></path><path d="M302.776 85.8813L271.9843 50.5517" fill="none" stroke="#aaa" stroke-opacity="0.5" stroke-width="0.5"></path><path d="M183.9225 28.9278L175.1018 139.1092" fill="none" stroke="#aaa" stroke-opacity="0.5" stroke-width="0.5"></path><path d="M112.9595 137.7664L308.8809 133.3968" fill="none" stroke="#aaa" stroke-opacity="0.5" stroke-width="0.5"></path><path d="M271.9843 50.5517L293.8854 177.0277" fill="none" stroke="#aaa" stroke-opacity="0.5" stroke-width="0.5"></path><path d="M112.9595 137.7664L119.8602 92.7278" fill="none" stroke="#aaa" stroke-opacity="0.5" stroke-width="0.5"></path><path d="M251.1997 112.3998L209.9806 223.3706" fill="none" stroke="#aaa" stroke-opacity="0.5" stroke-width="0.5"></path><path d="M143.9996 55.6032L232.1409 30.0348" fill="none" stroke="#aaa" stroke-opacity="0.5" stroke-width="0.5"></path><path d="M259.8605 213.5331L183.9225 28.9278" fill="none" stroke="#aaa" stroke-opacity="0.5" stroke-width="0.5"></path><path d="M308.8809 133.3968L293.8854 177.0277" fill="none" stroke="#aaa" stroke-opacity="0.5" stroke-width="0.5"></path><path d="M183.9225 28.9278L232.1409 30.0348" fill="none" stroke="#aaa" stroke-opacity="0.5" stroke-width="0.5"></path><path d="M183.9225 28.9278L293.8854 177.0277" fill="none" stroke="#aaa" stroke-opacity="0.5" stroke-width="0.5"></path><path d="M271.9843 50.5517L143.9996 55.6032" fill="none" stroke="#aaa" stroke-opacity="0.5" stroke-width="0.5"></path><path d="M197.0808 84.0433L183.9225 28.9278" fill="none" stroke="#aaa" stroke-opacity="0.5" stroke-width="0.5"></path><path d="M293.8854 177.0277L175.1018 139.1092" fill="none" stroke="#aaa" stroke-opacity="0.5" stroke-width="0.5"></path><path d="M143.9996 55.6032L228.562 168.0866" fill="none" stroke="#aaa" stroke-opacity="0.5" stroke-width="0.5"></path><path d="M251.1997 112.3998L302.776 85.8813" fill="none" stroke="#aaa" stroke-opacity="0.5" stroke-width="0.5"></path><path d="M183.9225 28.9278L228.562 168.0866" fill="none" stroke="#aaa" stroke-opacity="0.5" stroke-width="0.5"></path><path d="M197.0808 84.0433L308.8809 133.3968" fill="none" stroke="#aaa" stroke-opacity="0.5" stroke-width="0.5"></path><path d="M302.776 85.8813L175.1018 139.1092" fill="none" stroke="#aaa" stroke-opacity="0.5" stroke-width="0.5"></path><path d="M143.9996 55.6032L131.7129 181.4517" fill="none" stroke="#aaa" stroke-opacity="0.5" stroke-width="0.5"></path><path d="M251.1997 112.3998L183.9225 28.9278" fill="none" stroke="#aaa" stroke-opacity="0.5" stroke-width="0.5"></path><path d="M197.0808 84.0433L271.9843 50.5517" fill="none" stroke="#aaa" stroke-opacity="0.5" stroke-width="0.5"></path><path d="M197.0808 84.0433L119.8602 92.7278" fill="none" stroke="#aaa" stroke-opacity="0.5" stroke-width="0.5"></path><path d="M271.9843 50.5517L209.9806 223.3706" fill="none" stroke="#aaa" stroke-opacity="0.5" stroke-width="0.5"></path><path d="M112.9595 137.7664L175.1018 139.1092" fill="none" stroke="#aaa" stroke-opacity="0.5" stroke-width="0.5"></path><path d="M271.9843 50.5517L165.2324 211.0883" fill="none" stroke="#aaa" stroke-opacity="0.5" stroke-width="0.5"></path><path d="M209.9806 223.3706L131.7129 181.4517" fill="none" stroke="#aaa" stroke-opacity="0.5" stroke-width="0.5"></path><path d="M251.1997 112.3998L308.8809 133.3968" fill="none" stroke="#aaa" stroke-opacity="0.5" stroke-width="0.5"></path><path d="M302.776 85.8813L232.1409 30.0348" fill="none" stroke="#aaa" stroke-opacity="0.5" stroke-width="0.5"></path><path d="M302.776 85.8813L293.8854 177.0277" fill="none" stroke="#aaa" stroke-opacity="0.5" stroke-width="0.5"></path><path d="M308.8809 133.3968L209.9806 223.3706" fill="none" stroke="#aaa" stroke-opacity="0.5" stroke-width="0.5"></path><path d="M251.1997 112.3998L271.9843 50.5517" fill="none" stroke="#aaa" stroke-opacity="0.5" stroke-width="0.5"></path><path d="M251.1997 112.3998L119.8602 92.7278" fill="none" stroke="#aaa" stroke-opacity="0.5" stroke-width="0.5"></path><path d="M112.9595 137.7664L232.1409 30.0348" fill="none" stroke="#aaa" stroke-opacity="0.5" stroke-width="0.5"></path><path d="M112.9595 137.7664L293.8854 177.0277" fill="none" stroke="#aaa" stroke-opacity="0.5" stroke-width="0.5"></path><path d="M183.9225 28.9278L165.2324 211.0883" fill="none" stroke="#aaa" stroke-opacity="0.5" stroke-width="0.5"></path><path d="M131.7129 181.4517L228.562 168.0866" fill="none" stroke="#aaa" stroke-opacity="0.5" stroke-width="0.5"></path><path d="M259.8605 213.5331L175.1018 139.1092" fill="none" stroke="#aaa" stroke-opacity="0.5" stroke-width="0.5"></path><path d="M302.776 85.8813L228.562 168.0866" fill="none" stroke="#aaa" stroke-opacity="0.5" stroke-width="0.5"></path><path d="M302.776 85.8813L143.9996 55.6032" fill="none" stroke="#aaa" stroke-opacity="0.5" stroke-width="0.5"></path><path d="M271.9843 50.5517L183.9225 28.9278" fill="none" stroke="#aaa" stroke-opacity="0.5" stroke-width="0.5"></path><path d="M112.9595 137.7664L228.562 168.0866" fill="none" stroke="#aaa" stroke-opacity="0.5" stroke-width="0.5"></path><path d="M119.8602 92.7278L175.1018 139.1092" fill="none" stroke="#aaa" stroke-opacity="0.5" stroke-width="0.5"></path><path d="M293.8854 177.0277L209.9806 223.3706" fill="none" stroke="#aaa" stroke-opacity="0.5" stroke-width="0.5"></path><path d="M308.8809 133.3968L183.9225 28.9278" fill="none" stroke="#aaa" stroke-opacity="0.5" stroke-width="0.5"></path><path d="M293.8854 177.0277L165.2324 211.0883" fill="none" stroke="#aaa" stroke-opacity="0.5" stroke-width="0.5"></path><path d="M259.8605 213.5331L232.1409 30.0348" fill="none" stroke="#aaa" stroke-opacity="0.5" stroke-width="0.5"></path><path d="M259.8605 213.5331L293.8854 177.0277" fill="none" stroke="#aaa" stroke-opacity="0.5" stroke-width="0.5"></path><path d="M112.9595 137.7664L131.7129 181.4517" fill="none" stroke="#aaa" stroke-opacity="0.5" stroke-width="0.5"></path><path d="M271.9843 50.5517L119.8602 92.7278" fill="none" stroke="#aaa" stroke-opacity="0.5" stroke-width="0.5"></path><path d="M197.0808 84.0433L232.1409 30.0348" fill="none" stroke="#aaa" stroke-opacity="0.5" stroke-width="0.5"></path><path d="M119.8602 92.7278L293.8854 177.0277" fill="none" stroke="#aaa" stroke-opacity="0.5" stroke-width="0.5"></path><path d="M302.776 85.8813L165.2324 211.0883" fill="none" stroke="#aaa" stroke-opacity="0.5" stroke-width="0.5"></path><path d="M259.8605 213.5331L228.562 168.0866" fill="none" stroke="#aaa" stroke-opacity="0.5" stroke-width="0.5"></path><path d="M302.776 85.8813L259.8605 213.5331" fill="none" stroke="#aaa" stroke-opacity="0.5" stroke-width="0.5"></path><path d="M112.9595 137.7664L165.2324 211.0883" fill="none" stroke="#aaa" stroke-opacity="0.5" stroke-width="0.5"></path><path d="M143.9996 55.6032L308.8809 133.3968" fill="none" stroke="#aaa" stroke-opacity="0.5" stroke-width="0.5"></path><path d="M232.1409 30.0348L175.1018 139.1092" fill="none" stroke="#aaa" stroke-opacity="0.5" stroke-width="0.5"></path><path d="M197.0808 84.0433L228.562 168.0866" fill="none" stroke="#aaa" stroke-opacity="0.5" stroke-width="0.5"></path><path d="M251.1997 112.3998L232.1409 30.0348" fill="none" stroke="#aaa" stroke-opacity="0.5" stroke-width="0.5"></path><path d="M112.9595 137.7664L259.8605 213.5331" fill="none" stroke="#aaa" stroke-opacity="0.5" stroke-width="0.5"></path><path d="M259.8605 213.5331L131.7129 181.4517" fill="none" stroke="#aaa" stroke-opacity="0.5" stroke-width="0.5"></path><path d="M175.1018 139.1092L165.2324 211.0883" fill="none" stroke="#aaa" stroke-opacity="0.5" stroke-width="0.5"></path><path d="M228.562 168.0866L232.1409 30.0348" fill="none" stroke="#aaa" stroke-opacity="0.5" stroke-width="0.5"></path><path d="M197.0808 84.0433L131.7129 181.4517" fill="none" stroke="#aaa" stroke-opacity="0.5" stroke-width="0.5"></path><path d="M251.1997 112.3998L228.562 168.0866" fill="none" stroke="#aaa" stroke-opacity="0.5" stroke-width="0.5"></path><path d="M259.8605 213.5331L165.2324 211.0883" fill="none" stroke="#aaa" stroke-opacity="0.5" stroke-width="0.5"></path><path d="M119.8602 92.7278L209.9806 223.3706" fill="none" stroke="#aaa" stroke-opacity="0.5" stroke-width="0.5"></path><path d="M251.1997 112.3998L131.7129 181.4517" fill="none" stroke="#aaa" stroke-opacity="0.5" stroke-width="0.5"></path><path d="M197.0808 84.0433L165.2324 211.0883" fill="none" stroke="#aaa" stroke-opacity="0.5" stroke-width="0.5"></path><path d="M308.8809 133.3968L175.1018 139.1092" fill="none" stroke="#aaa" stroke-opacity="0.5" stroke-width="0.5"></path><path d="M302.776 85.8813L119.8602 92.7278" fill="none" stroke="#aaa" stroke-opacity="0.5" stroke-width="0.5"></path><path d="M197.0808 84.0433L259.8605 213.5331" fill="none" stroke="#aaa" stroke-opacity="0.5" stroke-width="0.5"></path><path d="M271.9843 50.5517L232.1409 30.0348" fill="none" stroke="#aaa" stroke-opacity="0.5" stroke-width="0.5"></path><path d="M143.9996 55.6032L175.1018 139.1092" fill="none" stroke="#aaa" stroke-opacity="0.5" stroke-width="0.5"></path><path d="M302.776 85.8813L197.0808 84.0433" fill="none" stroke="#aaa" stroke-opacity="0.5" stroke-width="0.5"></path><path d="M251.1997 112.3998L165.2324 211.0883" fill="none" stroke="#aaa" stroke-opacity="0.5" stroke-width="0.5"></path><path d="M308.8809 133.3968L232.1409 30.0348" fill="none" stroke="#aaa" stroke-opacity="0.5" stroke-width="0.5"></path><path d="M251.1997 112.3998L259.8605 213.5331" fill="none" stroke="#aaa" stroke-opacity="0.5" stroke-width="0.5"></path><path d="M271.9843 50.5517L228.562 168.0866" fill="none" stroke="#aaa" stroke-opacity="0.5" stroke-width="0.5"></path><path d="M209.9806 223.3706L175.1018 139.1092" fill="none" stroke="#aaa" stroke-opacity="0.5" stroke-width="0.5"></path><path d="M119.8602 92.7278L183.9225 28.9278" fill="none" stroke="#aaa" stroke-opacity="0.5" stroke-width="0.5"></path><path d="M228.562 168.0866L165.2324 211.0883" fill="none" stroke="#aaa" stroke-opacity="0.5" stroke-width="0.5"></path><path d="M143.9996 55.6032L293.8854 177.0277" fill="none" stroke="#aaa" stroke-opacity="0.5" stroke-width="0.5"></path><path d="M232.1409 30.0348L165.2324 211.0883" fill="none" stroke="#aaa" stroke-opacity="0.5" stroke-width="0.5"></path><path d="M271.9843 50.5517L131.7129 181.4517" fill="none" stroke="#aaa" stroke-opacity="0.5" stroke-width="0.5"></path><path d="M308.8809 133.3968L228.562 168.0866" fill="none" stroke="#aaa" stroke-opacity="0.5" stroke-width="0.5"></path><path d="M119.8602 92.7278L308.8809 133.3968" fill="none" stroke="#aaa" stroke-opacity="0.5" stroke-width="0.5"></path><path d="M209.9806 223.3706L232.1409 30.0348" fill="none" stroke="#aaa" stroke-opacity="0.5" stroke-width="0.5"></path><path d="M293.8854 177.0277L232.1409 30.0348" fill="none" stroke="#aaa" stroke-opacity="0.5" stroke-width="0.5"></path><path d="M308.8809 133.3968L131.7129 181.4517" fill="none" stroke="#aaa" stroke-opacity="0.5" stroke-width="0.5"></path><path d="M183.9225 28.9278L131.7129 181.4517" fill="none" stroke="#aaa" stroke-opacity="0.5" stroke-width="0.5"></path><path d="M197.0808 84.0433L112.9595 137.7664" fill="none" stroke="#aaa" stroke-opacity="0.5" stroke-width="0.5"></path><path d="M131.7129 181.4517L175.1018 139.1092" fill="none" stroke="#aaa" stroke-opacity="0.5" stroke-width="0.5"></path><path d="M271.9843 50.5517L259.8605 213.5331" fill="none" stroke="#aaa" stroke-opacity="0.5" stroke-width="0.5"></path><path d="M209.9806 223.3706L228.562 168.0866" fill="none" stroke="#aaa" stroke-opacity="0.5" stroke-width="0.5"></path><path d="M293.8854 177.0277L228.562 168.0866" fill="none" stroke="#aaa" stroke-opacity="0.5" stroke-width="0.5"></path><path d="M308.8809 133.3968L165.2324 211.0883" fill="none" stroke="#aaa" stroke-opacity="0.5" stroke-width="0.5"></path><path d="M251.1997 112.3998L112.9595 137.7664" fill="none" stroke="#aaa" stroke-opacity="0.5" stroke-width="0.5"></path><path d="M143.9996 55.6032L209.9806 223.3706" fill="none" stroke="#aaa" stroke-opacity="0.5" stroke-width="0.5"></path><path d="M308.8809 133.3968L259.8605 213.5331" fill="none" stroke="#aaa" stroke-opacity="0.5" stroke-width="0.5"></path><path d="M131.7129 181.4517L232.1409 30.0348" fill="none" stroke="#aaa" stroke-opacity="0.5" stroke-width="0.5"></path><path d="M251.1997 112.3998L197.0808 84.0433" fill="none" stroke="#aaa" stroke-opacity="0.5" stroke-width="0.5"></path><path d="M143.9996 55.6032L165.2324 211.0883" fill="none" stroke="#aaa" stroke-opacity="0.5" stroke-width="0.5"></path><path d="M293.8854 177.0277L131.7129 181.4517" fill="none" stroke="#aaa" stroke-opacity="0.5" stroke-width="0.5"></path><path d="M183.9225 28.9278L209.9806 223.3706" fill="none" stroke="#aaa" stroke-opacity="0.5" stroke-width="0.5"></path><path d="M143.9996 55.6032L259.8605 213.5331" fill="none" stroke="#aaa" stroke-opacity="0.5" stroke-width="0.5"></path><path d="M302.776 85.8813L131.7129 181.4517" fill="none" stroke="#aaa" stroke-opacity="0.5" stroke-width="0.5"></path><path d="M209.9806 223.3706L165.2324 211.0883" fill="none" stroke="#aaa" stroke-opacity="0.5" stroke-width="0.5"></path><path d="M1 0A1 1 0 1 1 1 -0.0001" fill="#5470c6" transform="matrix(18,0,0,18,308.8809,133.3968)"></path><path d="M1 0A1 1 0 1 1 1 -0.0001" fill="#5470c6" transform="matrix(18,0,0,18,293.8854,177.0277)"></path><path d="M1 0A1 1 0 1 1 1 -0.0001" fill="#5470c6" transform="matrix(18,0,0,18,259.8605,213.5331)"></path><path d="M1 0A1 1 0 1 1 1 -0.0001" fill="#5470c6" transform="matrix(18,0,0,18,228.562,168.0866)"></path><path d="M1 0A1 1 0 1 1 1 -0.0001" fill="#5470c6" transform="matrix(18,0,0,18,209.9806,223.3706)"></path><path d="M1 0A1 1 0 1 1 1 -0.0001" fill="#5470c6" transform="matrix(18,0,0,18,165.2324,211.0883)"></path><path d="M1 0A1 1 0 1 1 1 -0.0001" fill="#5470c6" transform="matrix(18,0,0,18,175.1018,139.1092)"></path><path d="M1 0A1 1 0 1 1 1 -0.0001" fill="#5470c6" transform="matrix(18,0,0,18,131.7129,181.4517)"></path><path d="M1 0A1 1 0 1 1 1 -0.0001" fill="#5470c6" transform="matrix(18,0,0,18,112.9595,137.7664)"></path><path d="M1 0A1 1 0 1 1 1 -0.0001" fill="#5470c6" transform="matrix(18,0,0,18,119.8602,92.7278)"></path><path d="M1 0A1 1 0 1 1 1 -0.0001" fill="#5470c6" transform="matrix(18,0,0,18,143.9996,55.6032)"></path><path d="M1 0A1 1 0 1 1 1 -0.0001" fill="#5470c6" transform="matrix(18,0,0,18,183.9225,28.9278)"></path><path d="M1 0A1 1 0 1 1 1 -0.0001" fill="#5470c6" transform="matrix(18,0,0,18,197.0808,84.0433)"></path><path d="M1 0A1 1 0 1 1 1 -0.0001" fill="#5470c6" transform="matrix(18,0,0,18,232.1409,30.0348)"></path><path d="M1 0A1 1 0 1 1 1 -0.0001" fill="#5470c6" transform="matrix(18,0,0,18,271.9843,50.5517)"></path><path d="M1 0A1 1 0 1 1 1 -0.0001" fill="#5470c6" transform="matrix(18,0,0,18,302.776,85.8813)"></path><path d="M1 0A1 1 0 1 1 1 -0.0001" fill="#5470c6" transform="matrix(18,0,0,18,251.1997,112.3998)"></path><path d="M-26.0964 -5l52.1929 0l0 33l-52.1929 0Z" fill="rgb(0,0,0)" fill-opacity="0" stroke="#ccc" stroke-width="0" transform="translate(237.5 5)"></path><text dominant-baseline="central" fill="#333" style="font-size:23px;font-family:sans-serif;font-weight:bolder;" text-anchor="middle" transform="translate(237.5 5)" y="11.5">C32</text></g></svg>