<svg baseprofile="full" height="250" style="position:absolute;left:0;top:0;user-select:none" version="1.1" width="475" xmlns="http://www.w3.org/2000/svg" xmlns:xlink="http://www.w3.org/1999/xlink"><rect fill="none" height="250" id="0" width="475" x="0" y="0"></rect><g><path d="M255.3768 215.3995L204.4781 224.1394" fill="none" stroke="#aaa" stroke-opacity="0.5" stroke-width="0.5"></path><path d="M255.3768 215.3995L122.9963 172.9893" fill="none" stroke="#aaa" stroke-opacity="0.5" stroke-width="0.5"></path><path d="M312.5384 134.216L221.3308 164.2643" fill="none" stroke="#aaa" stroke-opacity="0.5" stroke-width="0.5"></path><path d="M109.1637 119.7123L162.8937 37.8811" fill="none" stroke="#aaa" stroke-opacity="0.5" stroke-width="0.5"></path><path d="M166.6564 132.5079L259.6104 113.2513" fill="none" stroke="#aaa" stroke-opacity="0.5" stroke-width="0.5"></path><path d="M158.4549 207.7645L214.0553 23.6382" fill="none" stroke="#aaa" stroke-opacity="0.5" stroke-width="0.5"></path><path d="M312.5384 134.216L214.0553 23.6382" fill="none" stroke="#aaa" stroke-opacity="0.5" stroke-width="0.5"></path><path d="M263.0311 40.3816L162.8937 37.8811" fill="none" stroke="#aaa" stroke-opacity="0.5" stroke-width="0.5"></path><path d="M300.639 77.4888L291.0729 180.6156" fill="none" stroke="#aaa" stroke-opacity="0.5" stroke-width="0.5"></path><path d="M291.0729 180.6156L204.4781 224.1394" fill="none" stroke="#aaa" stroke-opacity="0.5" stroke-width="0.5"></path><path d="M291.0729 180.6156L122.9963 172.9893" fill="none" stroke="#aaa" stroke-opacity="0.5" stroke-width="0.5"></path><path d="M158.4549 207.7645L206.3532 82.2028" fill="none" stroke="#aaa" stroke-opacity="0.5" stroke-width="0.5"></path><path d="M214.0553 23.6382L259.6104 113.2513" fill="none" stroke="#aaa" stroke-opacity="0.5" stroke-width="0.5"></path><path d="M300.639 77.4888L312.5384 134.216" fill="none" stroke="#aaa" stroke-opacity="0.5" stroke-width="0.5"></path><path d="M221.3308 164.2643L206.3532 82.2028" fill="none" stroke="#aaa" stroke-opacity="0.5" stroke-width="0.5"></path><path d="M158.4549 207.7645L263.0311 40.3816" fill="none" stroke="#aaa" stroke-opacity="0.5" stroke-width="0.5"></path><path d="M263.0311 40.3816L255.3768 215.3995" fill="none" stroke="#aaa" stroke-opacity="0.5" stroke-width="0.5"></path><path d="M263.0311 40.3816L109.1637 119.7123" fill="none" stroke="#aaa" stroke-opacity="0.5" stroke-width="0.5"></path><path d="M255.3768 215.3995L162.8937 37.8811" fill="none" stroke="#aaa" stroke-opacity="0.5" stroke-width="0.5"></path><path d="M214.0553 23.6382L166.6564 132.5079" fill="none" stroke="#aaa" stroke-opacity="0.5" stroke-width="0.5"></path><path d="M158.4549 207.7645L129.3632 73.5474" fill="none" stroke="#aaa" stroke-opacity="0.5" stroke-width="0.5"></path><path d="M263.0311 40.3816L221.3308 164.2643" fill="none" stroke="#aaa" stroke-opacity="0.5" stroke-width="0.5"></path><path d="M204.4781 224.1394L162.8937 37.8811" fill="none" stroke="#aaa" stroke-opacity="0.5" stroke-width="0.5"></path><path d="M312.5384 134.216L129.3632 73.5474" fill="none" stroke="#aaa" stroke-opacity="0.5" stroke-width="0.5"></path><path d="M263.0311 40.3816L214.0553 23.6382" fill="none" stroke="#aaa" stroke-opacity="0.5" stroke-width="0.5"></path><path d="M166.6564 132.5079L162.8937 37.8811" fill="none" stroke="#aaa" stroke-opacity="0.5" stroke-width="0.5"></path><path d="M158.4549 207.7645L259.6104 113.2513" fill="none" stroke="#aaa" stroke-opacity="0.5" stroke-width="0.5"></path><path d="M291.0729 180.6156L109.1637 119.7123" fill="none" stroke="#aaa" stroke-opacity="0.5" stroke-width="0.5"></path><path d="M221.3308 164.2643L259.6104 113.2513" fill="none" stroke="#aaa" stroke-opacity="0.5" stroke-width="0.5"></path><path d="M312.5384 134.216L166.6564 132.5079" fill="none" stroke="#aaa" stroke-opacity="0.5" stroke-width="0.5"></path><path d="M158.4549 207.7645L204.4781 224.1394" fill="none" stroke="#aaa" stroke-opacity="0.5" stroke-width="0.5"></path><path d="M158.4549 207.7645L122.9963 172.9893" fill="none" stroke="#aaa" stroke-opacity="0.5" stroke-width="0.5"></path><path d="M214.0553 23.6382L162.8937 37.8811" fill="none" stroke="#aaa" stroke-opacity="0.5" stroke-width="0.5"></path><path d="M221.3308 164.2643L204.4781 224.1394" fill="none" stroke="#aaa" stroke-opacity="0.5" stroke-width="0.5"></path><path d="M109.1637 119.7123L129.3632 73.5474" fill="none" stroke="#aaa" stroke-opacity="0.5" stroke-width="0.5"></path><path d="M312.5384 134.216L122.9963 172.9893" fill="none" stroke="#aaa" stroke-opacity="0.5" stroke-width="0.5"></path><path d="M300.639 77.4888L206.3532 82.2028" fill="none" stroke="#aaa" stroke-opacity="0.5" stroke-width="0.5"></path><path d="M221.3308 164.2643L166.6564 132.5079" fill="none" stroke="#aaa" stroke-opacity="0.5" stroke-width="0.5"></path><path d="M263.0311 40.3816L129.3632 73.5474" fill="none" stroke="#aaa" stroke-opacity="0.5" stroke-width="0.5"></path><path d="M158.4549 207.7645L291.0729 180.6156" fill="none" stroke="#aaa" stroke-opacity="0.5" stroke-width="0.5"></path><path d="M300.639 77.4888L158.4549 207.7645" fill="none" stroke="#aaa" stroke-opacity="0.5" stroke-width="0.5"></path><path d="M214.0553 23.6382L255.3768 215.3995" fill="none" stroke="#aaa" stroke-opacity="0.5" stroke-width="0.5"></path><path d="M214.0553 23.6382L109.1637 119.7123" fill="none" stroke="#aaa" stroke-opacity="0.5" stroke-width="0.5"></path><path d="M291.0729 180.6156L206.3532 82.2028" fill="none" stroke="#aaa" stroke-opacity="0.5" stroke-width="0.5"></path><path d="M214.0553 23.6382L221.3308 164.2643" fill="none" stroke="#aaa" stroke-opacity="0.5" stroke-width="0.5"></path><path d="M158.4549 207.7645L162.8937 37.8811" fill="none" stroke="#aaa" stroke-opacity="0.5" stroke-width="0.5"></path><path d="M291.0729 180.6156L263.0311 40.3816" fill="none" stroke="#aaa" stroke-opacity="0.5" stroke-width="0.5"></path><path d="M300.639 77.4888L259.6104 113.2513" fill="none" stroke="#aaa" stroke-opacity="0.5" stroke-width="0.5"></path><path d="M221.3308 164.2643L162.8937 37.8811" fill="none" stroke="#aaa" stroke-opacity="0.5" stroke-width="0.5"></path><path d="M206.3532 82.2028L259.6104 113.2513" fill="none" stroke="#aaa" stroke-opacity="0.5" stroke-width="0.5"></path><path d="M263.0311 40.3816L204.4781 224.1394" fill="none" stroke="#aaa" stroke-opacity="0.5" stroke-width="0.5"></path><path d="M263.0311 40.3816L122.9963 172.9893" fill="none" stroke="#aaa" stroke-opacity="0.5" stroke-width="0.5"></path><path d="M312.5384 134.216L109.1637 119.7123" fill="none" stroke="#aaa" stroke-opacity="0.5" stroke-width="0.5"></path><path d="M122.9963 172.9893L109.1637 119.7123" fill="none" stroke="#aaa" stroke-opacity="0.5" stroke-width="0.5"></path><path d="M206.3532 82.2028L204.4781 224.1394" fill="none" stroke="#aaa" stroke-opacity="0.5" stroke-width="0.5"></path><path d="M166.6564 132.5079L129.3632 73.5474" fill="none" stroke="#aaa" stroke-opacity="0.5" stroke-width="0.5"></path><path d="M300.639 77.4888L166.6564 132.5079" fill="none" stroke="#aaa" stroke-opacity="0.5" stroke-width="0.5"></path><path d="M158.4549 207.7645L255.3768 215.3995" fill="none" stroke="#aaa" stroke-opacity="0.5" stroke-width="0.5"></path><path d="M255.3768 215.3995L166.6564 132.5079" fill="none" stroke="#aaa" stroke-opacity="0.5" stroke-width="0.5"></path><path d="M291.0729 180.6156L259.6104 113.2513" fill="none" stroke="#aaa" stroke-opacity="0.5" stroke-width="0.5"></path><path d="M221.3308 164.2643L255.3768 215.3995" fill="none" stroke="#aaa" stroke-opacity="0.5" stroke-width="0.5"></path><path d="M214.0553 23.6382L129.3632 73.5474" fill="none" stroke="#aaa" stroke-opacity="0.5" stroke-width="0.5"></path><path d="M259.6104 113.2513L162.8937 37.8811" fill="none" stroke="#aaa" stroke-opacity="0.5" stroke-width="0.5"></path><path d="M291.0729 180.6156L166.6564 132.5079" fill="none" stroke="#aaa" stroke-opacity="0.5" stroke-width="0.5"></path><path d="M166.6564 132.5079L204.4781 224.1394" fill="none" stroke="#aaa" stroke-opacity="0.5" stroke-width="0.5"></path><path d="M166.6564 132.5079L122.9963 172.9893" fill="none" stroke="#aaa" stroke-opacity="0.5" stroke-width="0.5"></path><path d="M312.5384 134.216L206.3532 82.2028" fill="none" stroke="#aaa" stroke-opacity="0.5" stroke-width="0.5"></path><path d="M122.9963 172.9893L206.3532 82.2028" fill="none" stroke="#aaa" stroke-opacity="0.5" stroke-width="0.5"></path><path d="M300.639 77.4888L162.8937 37.8811" fill="none" stroke="#aaa" stroke-opacity="0.5" stroke-width="0.5"></path><path d="M206.3532 82.2028L162.8937 37.8811" fill="none" stroke="#aaa" stroke-opacity="0.5" stroke-width="0.5"></path><path d="M312.5384 134.216L263.0311 40.3816" fill="none" stroke="#aaa" stroke-opacity="0.5" stroke-width="0.5"></path><path d="M122.9963 172.9893L129.3632 73.5474" fill="none" stroke="#aaa" stroke-opacity="0.5" stroke-width="0.5"></path><path d="M214.0553 23.6382L204.4781 224.1394" fill="none" stroke="#aaa" stroke-opacity="0.5" stroke-width="0.5"></path><path d="M214.0553 23.6382L122.9963 172.9893" fill="none" stroke="#aaa" stroke-opacity="0.5" stroke-width="0.5"></path><path d="M291.0729 180.6156L162.8937 37.8811" fill="none" stroke="#aaa" stroke-opacity="0.5" stroke-width="0.5"></path><path d="M300.639 77.4888L255.3768 215.3995" fill="none" stroke="#aaa" stroke-opacity="0.5" stroke-width="0.5"></path><path d="M300.639 77.4888L109.1637 119.7123" fill="none" stroke="#aaa" stroke-opacity="0.5" stroke-width="0.5"></path><path d="M255.3768 215.3995L109.1637 119.7123" fill="none" stroke="#aaa" stroke-opacity="0.5" stroke-width="0.5"></path><path d="M221.3308 164.2643L129.3632 73.5474" fill="none" stroke="#aaa" stroke-opacity="0.5" stroke-width="0.5"></path><path d="M109.1637 119.7123L206.3532 82.2028" fill="none" stroke="#aaa" stroke-opacity="0.5" stroke-width="0.5"></path><path d="M129.3632 73.5474L259.6104 113.2513" fill="none" stroke="#aaa" stroke-opacity="0.5" stroke-width="0.5"></path><path d="M300.639 77.4888L221.3308 164.2643" fill="none" stroke="#aaa" stroke-opacity="0.5" stroke-width="0.5"></path><path d="M312.5384 134.216L259.6104 113.2513" fill="none" stroke="#aaa" stroke-opacity="0.5" stroke-width="0.5"></path><path d="M122.9963 172.9893L259.6104 113.2513" fill="none" stroke="#aaa" stroke-opacity="0.5" stroke-width="0.5"></path><path d="M263.0311 40.3816L206.3532 82.2028" fill="none" stroke="#aaa" stroke-opacity="0.5" stroke-width="0.5"></path><path d="M158.4549 207.7645L166.6564 132.5079" fill="none" stroke="#aaa" stroke-opacity="0.5" stroke-width="0.5"></path><path d="M129.3632 73.5474L204.4781 224.1394" fill="none" stroke="#aaa" stroke-opacity="0.5" stroke-width="0.5"></path><path d="M300.639 77.4888L214.0553 23.6382" fill="none" stroke="#aaa" stroke-opacity="0.5" stroke-width="0.5"></path><path d="M166.6564 132.5079L109.1637 119.7123" fill="none" stroke="#aaa" stroke-opacity="0.5" stroke-width="0.5"></path><path d="M312.5384 134.216L204.4781 224.1394" fill="none" stroke="#aaa" stroke-opacity="0.5" stroke-width="0.5"></path><path d="M291.0729 180.6156L255.3768 215.3995" fill="none" stroke="#aaa" stroke-opacity="0.5" stroke-width="0.5"></path><path d="M122.9963 172.9893L204.4781 224.1394" fill="none" stroke="#aaa" stroke-opacity="0.5" stroke-width="0.5"></path><path d="M291.0729 180.6156L221.3308 164.2643" fill="none" stroke="#aaa" stroke-opacity="0.5" stroke-width="0.5"></path><path d="M221.3308 164.2643L122.9963 172.9893" fill="none" stroke="#aaa" stroke-opacity="0.5" stroke-width="0.5"></path><path d="M255.3768 215.3995L206.3532 82.2028" fill="none" stroke="#aaa" stroke-opacity="0.5" stroke-width="0.5"></path><path d="M291.0729 180.6156L214.0553 23.6382" fill="none" stroke="#aaa" stroke-opacity="0.5" stroke-width="0.5"></path><path d="M109.1637 119.7123L259.6104 113.2513" fill="none" stroke="#aaa" stroke-opacity="0.5" stroke-width="0.5"></path><path d="M312.5384 134.216L291.0729 180.6156" fill="none" stroke="#aaa" stroke-opacity="0.5" stroke-width="0.5"></path><path d="M300.639 77.4888L263.0311 40.3816" fill="none" stroke="#aaa" stroke-opacity="0.5" stroke-width="0.5"></path><path d="M263.0311 40.3816L259.6104 113.2513" fill="none" stroke="#aaa" stroke-opacity="0.5" stroke-width="0.5"></path><path d="M109.1637 119.7123L204.4781 224.1394" fill="none" stroke="#aaa" stroke-opacity="0.5" stroke-width="0.5"></path><path d="M300.639 77.4888L129.3632 73.5474" fill="none" stroke="#aaa" stroke-opacity="0.5" stroke-width="0.5"></path><path d="M206.3532 82.2028L129.3632 73.5474" fill="none" stroke="#aaa" stroke-opacity="0.5" stroke-width="0.5"></path><path d="M255.3768 215.3995L129.3632 73.5474" fill="none" stroke="#aaa" stroke-opacity="0.5" stroke-width="0.5"></path><path d="M158.4549 207.7645L312.5384 134.216" fill="none" stroke="#aaa" stroke-opacity="0.5" stroke-width="0.5"></path><path d="M166.6564 132.5079L206.3532 82.2028" fill="none" stroke="#aaa" stroke-opacity="0.5" stroke-width="0.5"></path><path d="M129.3632 73.5474L162.8937 37.8811" fill="none" stroke="#aaa" stroke-opacity="0.5" stroke-width="0.5"></path><path d="M312.5384 134.216L162.8937 37.8811" fill="none" stroke="#aaa" stroke-opacity="0.5" stroke-width="0.5"></path><path d="M122.9963 172.9893L162.8937 37.8811" fill="none" stroke="#aaa" stroke-opacity="0.5" stroke-width="0.5"></path><path d="M263.0311 40.3816L166.6564 132.5079" fill="none" stroke="#aaa" stroke-opacity="0.5" stroke-width="0.5"></path><path d="M291.0729 180.6156L129.3632 73.5474" fill="none" stroke="#aaa" stroke-opacity="0.5" stroke-width="0.5"></path><path d="M158.4549 207.7645L109.1637 119.7123" fill="none" stroke="#aaa" stroke-opacity="0.5" stroke-width="0.5"></path><path d="M255.3768 215.3995L259.6104 113.2513" fill="none" stroke="#aaa" stroke-opacity="0.5" stroke-width="0.5"></path><path d="M214.0553 23.6382L206.3532 82.2028" fill="none" stroke="#aaa" stroke-opacity="0.5" stroke-width="0.5"></path><path d="M158.4549 207.7645L221.3308 164.2643" fill="none" stroke="#aaa" stroke-opacity="0.5" stroke-width="0.5"></path><path d="M221.3308 164.2643L109.1637 119.7123" fill="none" stroke="#aaa" stroke-opacity="0.5" stroke-width="0.5"></path><path d="M312.5384 134.216L255.3768 215.3995" fill="none" stroke="#aaa" stroke-opacity="0.5" stroke-width="0.5"></path><path d="M204.4781 224.1394L259.6104 113.2513" fill="none" stroke="#aaa" stroke-opacity="0.5" stroke-width="0.5"></path><path d="M300.639 77.4888L204.4781 224.1394" fill="none" stroke="#aaa" stroke-opacity="0.5" stroke-width="0.5"></path><path d="M300.639 77.4888L122.9963 172.9893" fill="none" stroke="#aaa" stroke-opacity="0.5" stroke-width="0.5"></path><path d="M1 0A1 1 0 1 1 1 -0.0001" fill="#5470c6" transform="matrix(18,0,0,18,312.5384,134.216)"></path><path d="M1 0A1 1 0 1 1 1 -0.0001" fill="#5470c6" transform="matrix(18,0,0,18,291.0729,180.6156)"></path><path d="M1 0A1 1 0 1 1 1 -0.0001" fill="#5470c6" transform="matrix(18,0,0,18,255.3768,215.3995)"></path><path d="M1 0A1 1 0 1 1 1 -0.0001" fill="#5470c6" transform="matrix(18,0,0,18,204.4781,224.1394)"></path><path d="M1 0A1 1 0 1 1 1 -0.0001" fill="#5470c6" transform="matrix(18,0,0,18,221.3308,164.2643)"></path><path d="M1 0A1 1 0 1 1 1 -0.0001" fill="#5470c6" transform="matrix(18,0,0,18,158.4549,207.7645)"></path><path d="M1 0A1 1 0 1 1 1 -0.0001" fill="#5470c6" transform="matrix(18,0,0,18,122.9963,172.9893)"></path><path d="M1 0A1 1 0 1 1 1 -0.0001" fill="#5470c6" transform="matrix(18,0,0,18,166.6564,132.5079)"></path><path d="M1 0A1 1 0 1 1 1 -0.0001" fill="#5470c6" transform="matrix(18,0,0,18,109.1637,119.7123)"></path><path d="M1 0A1 1 0 1 1 1 -0.0001" fill="#5470c6" transform="matrix(18,0,0,18,129.3632,73.5474)"></path><path d="M1 0A1 1 0 1 1 1 -0.0001" fill="#5470c6" transform="matrix(18,0,0,18,162.8937,37.8811)"></path><path d="M1 0A1 1 0 1 1 1 -0.0001" fill="#5470c6" transform="matrix(18,0,0,18,206.3532,82.2028)"></path><path d="M1 0A1 1 0 1 1 1 -0.0001" fill="#5470c6" transform="matrix(18,0,0,18,214.0553,23.6382)"></path><path d="M1 0A1 1 0 1 1 1 -0.0001" fill="#5470c6" transform="matrix(18,0,0,18,263.0311,40.3816)"></path><path d="M1 0A1 1 0 1 1 1 -0.0001" fill="#5470c6" transform="matrix(18,0,0,18,259.6104,113.2513)"></path><path d="M1 0A1 1 0 1 1 1 -0.0001" fill="#5470c6" transform="matrix(18,0,0,18,300.639,77.4888)"></path><path d="M-26.0964 -5l52.1929 0l0 33l-52.1929 0Z" fill="rgb(0,0,0)" fill-opacity="0" stroke="#ccc" stroke-width="0" transform="translate(237.5 5)"></path><text dominant-baseline="central" fill="#333" style="font-size:23px;font-family:sans-serif;font-weight:bolder;" text-anchor="middle" transform="translate(237.5 5)" y="11.5">C33</text></g></svg>