<svg baseprofile="full" height="250" style="position:absolute;left:0;top:0;user-select:none" version="1.1" width="475" xmlns="http://www.w3.org/2000/svg" xmlns:xlink="http://www.w3.org/1999/xlink"><rect fill="none" height="250" id="0" width="475" x="0" y="0"></rect><g><path d="M223.1989 160.9811L248.7011 217.2749" fill="none" stroke="#aaa" stroke-opacity="0.5" stroke-width="0.5"></path><path d="M195.1611 224.0042L153.1488 200.0478" fill="none" stroke="#aaa" stroke-opacity="0.5" stroke-width="0.5"></path><path d="M111.8805 113.3456L132.3155 62.956" fill="none" stroke="#aaa" stroke-opacity="0.5" stroke-width="0.5"></path><path d="M223.074 26.1L195.1611 224.0042" fill="none" stroke="#aaa" stroke-opacity="0.5" stroke-width="0.5"></path><path d="M111.8805 113.3456L120.0142 164.7644" fill="none" stroke="#aaa" stroke-opacity="0.5" stroke-width="0.5"></path><path d="M223.074 26.1L132.3155 62.956" fill="none" stroke="#aaa" stroke-opacity="0.5" stroke-width="0.5"></path><path d="M223.074 26.1L120.0142 164.7644" fill="none" stroke="#aaa" stroke-opacity="0.5" stroke-width="0.5"></path><path d="M223.1989 160.9811L273.0193 44.8212" fill="none" stroke="#aaa" stroke-opacity="0.5" stroke-width="0.5"></path><path d="M237.2701 96.4953L174.9333 36.4679" fill="none" stroke="#aaa" stroke-opacity="0.5" stroke-width="0.5"></path><path d="M223.1989 160.9811L174.3094 114.2838" fill="none" stroke="#aaa" stroke-opacity="0.5" stroke-width="0.5"></path><path d="M223.1989 160.9811L303.7668 89.731" fill="none" stroke="#aaa" stroke-opacity="0.5" stroke-width="0.5"></path><path d="M273.0193 44.8212L290.7363 184.8093" fill="none" stroke="#aaa" stroke-opacity="0.5" stroke-width="0.5"></path><path d="M305.3589 138.9174L223.1989 160.9811" fill="none" stroke="#aaa" stroke-opacity="0.5" stroke-width="0.5"></path><path d="M195.1611 224.0042L273.0193 44.8212" fill="none" stroke="#aaa" stroke-opacity="0.5" stroke-width="0.5"></path><path d="M223.1989 160.9811L195.1611 224.0042" fill="none" stroke="#aaa" stroke-opacity="0.5" stroke-width="0.5"></path><path d="M153.1488 200.0478L273.0193 44.8212" fill="none" stroke="#aaa" stroke-opacity="0.5" stroke-width="0.5"></path><path d="M111.8805 113.3456L223.1989 160.9811" fill="none" stroke="#aaa" stroke-opacity="0.5" stroke-width="0.5"></path><path d="M305.3589 138.9174L290.7363 184.8093" fill="none" stroke="#aaa" stroke-opacity="0.5" stroke-width="0.5"></path><path d="M237.2701 96.4953L305.3589 138.9174" fill="none" stroke="#aaa" stroke-opacity="0.5" stroke-width="0.5"></path><path d="M237.2701 96.4953L132.3155 62.956" fill="none" stroke="#aaa" stroke-opacity="0.5" stroke-width="0.5"></path><path d="M237.2701 96.4953L120.0142 164.7644" fill="none" stroke="#aaa" stroke-opacity="0.5" stroke-width="0.5"></path><path d="M111.8805 113.3456L290.7363 184.8093" fill="none" stroke="#aaa" stroke-opacity="0.5" stroke-width="0.5"></path><path d="M174.9333 36.4679L174.3094 114.2838" fill="none" stroke="#aaa" stroke-opacity="0.5" stroke-width="0.5"></path><path d="M305.3589 138.9174L153.1488 200.0478" fill="none" stroke="#aaa" stroke-opacity="0.5" stroke-width="0.5"></path><path d="M174.9333 36.4679L195.1611 224.0042" fill="none" stroke="#aaa" stroke-opacity="0.5" stroke-width="0.5"></path><path d="M174.9333 36.4679L132.3155 62.956" fill="none" stroke="#aaa" stroke-opacity="0.5" stroke-width="0.5"></path><path d="M303.7668 89.731L153.1488 200.0478" fill="none" stroke="#aaa" stroke-opacity="0.5" stroke-width="0.5"></path><path d="M174.9333 36.4679L120.0142 164.7644" fill="none" stroke="#aaa" stroke-opacity="0.5" stroke-width="0.5"></path><path d="M132.3155 62.956L273.0193 44.8212" fill="none" stroke="#aaa" stroke-opacity="0.5" stroke-width="0.5"></path><path d="M111.8805 113.3456L237.2701 96.4953" fill="none" stroke="#aaa" stroke-opacity="0.5" stroke-width="0.5"></path><path d="M237.2701 96.4953L223.1989 160.9811" fill="none" stroke="#aaa" stroke-opacity="0.5" stroke-width="0.5"></path><path d="M111.8805 113.3456L153.1488 200.0478" fill="none" stroke="#aaa" stroke-opacity="0.5" stroke-width="0.5"></path><path d="M223.074 26.1L153.1488 200.0478" fill="none" stroke="#aaa" stroke-opacity="0.5" stroke-width="0.5"></path><path d="M305.3589 138.9174L248.7011 217.2749" fill="none" stroke="#aaa" stroke-opacity="0.5" stroke-width="0.5"></path><path d="M273.0193 44.8212L174.3094 114.2838" fill="none" stroke="#aaa" stroke-opacity="0.5" stroke-width="0.5"></path><path d="M237.2701 96.4953L290.7363 184.8093" fill="none" stroke="#aaa" stroke-opacity="0.5" stroke-width="0.5"></path><path d="M305.3589 138.9174L273.0193 44.8212" fill="none" stroke="#aaa" stroke-opacity="0.5" stroke-width="0.5"></path><path d="M111.8805 113.3456L248.7011 217.2749" fill="none" stroke="#aaa" stroke-opacity="0.5" stroke-width="0.5"></path><path d="M303.7668 89.731L273.0193 44.8212" fill="none" stroke="#aaa" stroke-opacity="0.5" stroke-width="0.5"></path><path d="M305.3589 138.9174L174.3094 114.2838" fill="none" stroke="#aaa" stroke-opacity="0.5" stroke-width="0.5"></path><path d="M305.3589 138.9174L303.7668 89.731" fill="none" stroke="#aaa" stroke-opacity="0.5" stroke-width="0.5"></path><path d="M111.8805 113.3456L273.0193 44.8212" fill="none" stroke="#aaa" stroke-opacity="0.5" stroke-width="0.5"></path><path d="M223.074 26.1L273.0193 44.8212" fill="none" stroke="#aaa" stroke-opacity="0.5" stroke-width="0.5"></path><path d="M303.7668 89.731L174.9333 36.4679" fill="none" stroke="#aaa" stroke-opacity="0.5" stroke-width="0.5"></path><path d="M132.3155 62.956L120.0142 164.7644" fill="none" stroke="#aaa" stroke-opacity="0.5" stroke-width="0.5"></path><path d="M305.3589 138.9174L195.1611 224.0042" fill="none" stroke="#aaa" stroke-opacity="0.5" stroke-width="0.5"></path><path d="M195.1611 224.0042L290.7363 184.8093" fill="none" stroke="#aaa" stroke-opacity="0.5" stroke-width="0.5"></path><path d="M223.5 160.9811L223.5 26.1" fill="none" stroke="#aaa" stroke-opacity="0.5" stroke-width="0.5"></path><path d="M153.1488 200.0478L290.7363 184.8093" fill="none" stroke="#aaa" stroke-opacity="0.5" stroke-width="0.5"></path><path d="M237.2701 96.4953L153.1488 200.0478" fill="none" stroke="#aaa" stroke-opacity="0.5" stroke-width="0.5"></path><path d="M174.9333 36.4679L290.7363 184.8093" fill="none" stroke="#aaa" stroke-opacity="0.5" stroke-width="0.5"></path><path d="M120.0142 164.7644L290.7363 184.8093" fill="none" stroke="#aaa" stroke-opacity="0.5" stroke-width="0.5"></path><path d="M223.074 26.1L174.9333 36.4679" fill="none" stroke="#aaa" stroke-opacity="0.5" stroke-width="0.5"></path><path d="M248.7011 217.2749L174.3094 114.2838" fill="none" stroke="#aaa" stroke-opacity="0.5" stroke-width="0.5"></path><path d="M237.2701 96.4953L248.7011 217.2749" fill="none" stroke="#aaa" stroke-opacity="0.5" stroke-width="0.5"></path><path d="M303.7668 89.731L120.0142 164.7644" fill="none" stroke="#aaa" stroke-opacity="0.5" stroke-width="0.5"></path><path d="M174.9333 36.4679L153.1488 200.0478" fill="none" stroke="#aaa" stroke-opacity="0.5" stroke-width="0.5"></path><path d="M248.7011 217.2749L132.3155 62.956" fill="none" stroke="#aaa" stroke-opacity="0.5" stroke-width="0.5"></path><path d="M237.2701 96.4953L273.0193 44.8212" fill="none" stroke="#aaa" stroke-opacity="0.5" stroke-width="0.5"></path><path d="M248.7011 217.2749L120.0142 164.7644" fill="none" stroke="#aaa" stroke-opacity="0.5" stroke-width="0.5"></path><path d="M223.1989 160.9811L174.9333 36.4679" fill="none" stroke="#aaa" stroke-opacity="0.5" stroke-width="0.5"></path><path d="M237.2701 96.4953L174.3094 114.2838" fill="none" stroke="#aaa" stroke-opacity="0.5" stroke-width="0.5"></path><path d="M237.2701 96.4953L303.7668 89.731" fill="none" stroke="#aaa" stroke-opacity="0.5" stroke-width="0.5"></path><path d="M132.3155 62.956L290.7363 184.8093" fill="none" stroke="#aaa" stroke-opacity="0.5" stroke-width="0.5"></path><path d="M195.1611 224.0042L248.7011 217.2749" fill="none" stroke="#aaa" stroke-opacity="0.5" stroke-width="0.5"></path><path d="M290.7363 184.8093L174.3094 114.2838" fill="none" stroke="#aaa" stroke-opacity="0.5" stroke-width="0.5"></path><path d="M174.9333 36.4679L248.7011 217.2749" fill="none" stroke="#aaa" stroke-opacity="0.5" stroke-width="0.5"></path><path d="M237.2701 96.4953L195.1611 224.0042" fill="none" stroke="#aaa" stroke-opacity="0.5" stroke-width="0.5"></path><path d="M174.9333 36.4679L273.0193 44.8212" fill="none" stroke="#aaa" stroke-opacity="0.5" stroke-width="0.5"></path><path d="M223.1989 160.9811L132.3155 62.956" fill="none" stroke="#aaa" stroke-opacity="0.5" stroke-width="0.5"></path><path d="M223.1989 160.9811L120.0142 164.7644" fill="none" stroke="#aaa" stroke-opacity="0.5" stroke-width="0.5"></path><path d="M195.1611 224.0042L174.3094 114.2838" fill="none" stroke="#aaa" stroke-opacity="0.5" stroke-width="0.5"></path><path d="M153.1488 200.0478L174.3094 114.2838" fill="none" stroke="#aaa" stroke-opacity="0.5" stroke-width="0.5"></path><path d="M120.0142 164.7644L174.3094 114.2838" fill="none" stroke="#aaa" stroke-opacity="0.5" stroke-width="0.5"></path><path d="M132.3155 62.956L153.1488 200.0478" fill="none" stroke="#aaa" stroke-opacity="0.5" stroke-width="0.5"></path><path d="M303.7668 89.731L290.7363 184.8093" fill="none" stroke="#aaa" stroke-opacity="0.5" stroke-width="0.5"></path><path d="M195.1611 224.0042L132.3155 62.956" fill="none" stroke="#aaa" stroke-opacity="0.5" stroke-width="0.5"></path><path d="M248.7011 217.2749L290.7363 184.8093" fill="none" stroke="#aaa" stroke-opacity="0.5" stroke-width="0.5"></path><path d="M195.1611 224.0042L120.0142 164.7644" fill="none" stroke="#aaa" stroke-opacity="0.5" stroke-width="0.5"></path><path d="M223.074 26.1L290.7363 184.8093" fill="none" stroke="#aaa" stroke-opacity="0.5" stroke-width="0.5"></path><path d="M153.1488 200.0478L120.0142 164.7644" fill="none" stroke="#aaa" stroke-opacity="0.5" stroke-width="0.5"></path><path d="M305.3589 138.9174L223.074 26.1" fill="none" stroke="#aaa" stroke-opacity="0.5" stroke-width="0.5"></path><path d="M303.7668 89.731L223.074 26.1" fill="none" stroke="#aaa" stroke-opacity="0.5" stroke-width="0.5"></path><path d="M111.8805 113.3456L223.074 26.1" fill="none" stroke="#aaa" stroke-opacity="0.5" stroke-width="0.5"></path><path d="M248.7011 217.2749L153.1488 200.0478" fill="none" stroke="#aaa" stroke-opacity="0.5" stroke-width="0.5"></path><path d="M132.3155 62.956L174.3094 114.2838" fill="none" stroke="#aaa" stroke-opacity="0.5" stroke-width="0.5"></path><path d="M223.1989 160.9811L290.7363 184.8093" fill="none" stroke="#aaa" stroke-opacity="0.5" stroke-width="0.5"></path><path d="M303.7668 89.731L248.7011 217.2749" fill="none" stroke="#aaa" stroke-opacity="0.5" stroke-width="0.5"></path><path d="M305.3589 138.9174L174.9333 36.4679" fill="none" stroke="#aaa" stroke-opacity="0.5" stroke-width="0.5"></path><path d="M223.074 26.1L248.7011 217.2749" fill="none" stroke="#aaa" stroke-opacity="0.5" stroke-width="0.5"></path><path d="M273.0193 44.8212L120.0142 164.7644" fill="none" stroke="#aaa" stroke-opacity="0.5" stroke-width="0.5"></path><path d="M111.8805 113.3456L174.9333 36.4679" fill="none" stroke="#aaa" stroke-opacity="0.5" stroke-width="0.5"></path><path d="M303.7668 89.731L174.3094 114.2838" fill="none" stroke="#aaa" stroke-opacity="0.5" stroke-width="0.5"></path><path d="M248.7011 217.2749L273.0193 44.8212" fill="none" stroke="#aaa" stroke-opacity="0.5" stroke-width="0.5"></path><path d="M223.1989 160.9811L153.1488 200.0478" fill="none" stroke="#aaa" stroke-opacity="0.5" stroke-width="0.5"></path><path d="M237.2701 96.4953L223.074 26.1" fill="none" stroke="#aaa" stroke-opacity="0.5" stroke-width="0.5"></path><path d="M111.8805 113.3456L174.3094 114.2838" fill="none" stroke="#aaa" stroke-opacity="0.5" stroke-width="0.5"></path><path d="M111.8805 113.3456L303.7668 89.731" fill="none" stroke="#aaa" stroke-opacity="0.5" stroke-width="0.5"></path><path d="M305.3589 138.9174L132.3155 62.956" fill="none" stroke="#aaa" stroke-opacity="0.5" stroke-width="0.5"></path><path d="M223.074 26.1L174.3094 114.2838" fill="none" stroke="#aaa" stroke-opacity="0.5" stroke-width="0.5"></path><path d="M305.3589 138.9174L120.0142 164.7644" fill="none" stroke="#aaa" stroke-opacity="0.5" stroke-width="0.5"></path><path d="M303.7668 89.731L195.1611 224.0042" fill="none" stroke="#aaa" stroke-opacity="0.5" stroke-width="0.5"></path><path d="M303.7668 89.731L132.3155 62.956" fill="none" stroke="#aaa" stroke-opacity="0.5" stroke-width="0.5"></path><path d="M111.8805 113.3456L305.3589 138.9174" fill="none" stroke="#aaa" stroke-opacity="0.5" stroke-width="0.5"></path><path d="M111.8805 113.3456L195.1611 224.0042" fill="none" stroke="#aaa" stroke-opacity="0.5" stroke-width="0.5"></path><path d="M1 0A1 1 0 1 1 1 -0.0001" fill="#5470c6" transform="matrix(18,0,0,18,305.3589,138.9174)"></path><path d="M1 0A1 1 0 1 1 1 -0.0001" fill="#5470c6" transform="matrix(18,0,0,18,290.7363,184.8093)"></path><path d="M1 0A1 1 0 1 1 1 -0.0001" fill="#5470c6" transform="matrix(18,0,0,18,223.1989,160.9811)"></path><path d="M1 0A1 1 0 1 1 1 -0.0001" fill="#5470c6" transform="matrix(18,0,0,18,248.7011,217.2749)"></path><path d="M1 0A1 1 0 1 1 1 -0.0001" fill="#5470c6" transform="matrix(18,0,0,18,195.1611,224.0042)"></path><path d="M1 0A1 1 0 1 1 1 -0.0001" fill="#5470c6" transform="matrix(18,0,0,18,153.1488,200.0478)"></path><path d="M1 0A1 1 0 1 1 1 -0.0001" fill="#5470c6" transform="matrix(18,0,0,18,120.0142,164.7644)"></path><path d="M1 0A1 1 0 1 1 1 -0.0001" fill="#5470c6" transform="matrix(18,0,0,18,111.8805,113.3456)"></path><path d="M1 0A1 1 0 1 1 1 -0.0001" fill="#5470c6" transform="matrix(18,0,0,18,132.3155,62.956)"></path><path d="M1 0A1 1 0 1 1 1 -0.0001" fill="#5470c6" transform="matrix(18,0,0,18,174.3094,114.2838)"></path><path d="M1 0A1 1 0 1 1 1 -0.0001" fill="#5470c6" transform="matrix(18,0,0,18,174.9333,36.4679)"></path><path d="M1 0A1 1 0 1 1 1 -0.0001" fill="#5470c6" transform="matrix(18,0,0,18,223.074,26.1)"></path><path d="M1 0A1 1 0 1 1 1 -0.0001" fill="#5470c6" transform="matrix(18,0,0,18,237.2701,96.4953)"></path><path d="M1 0A1 1 0 1 1 1 -0.0001" fill="#5470c6" transform="matrix(18,0,0,18,273.0193,44.8212)"></path><path d="M1 0A1 1 0 1 1 1 -0.0001" fill="#5470c6" transform="matrix(18,0,0,18,303.7668,89.731)"></path><path d="M-26.0964 -5l52.1929 0l0 33l-52.1929 0Z" fill="rgb(0,0,0)" fill-opacity="0" stroke="#ccc" stroke-width="0" transform="translate(237.5 5)"></path><text dominant-baseline="central" fill="#333" style="font-size:23px;font-family:sans-serif;font-weight:bolder;" text-anchor="middle" transform="translate(237.5 5)" y="11.5">C34</text></g></svg>