<svg baseprofile="full" height="250" style="position:absolute;left:0;top:0;user-select:none" version="1.1" width="475" xmlns="http://www.w3.org/2000/svg" xmlns:xlink="http://www.w3.org/1999/xlink"><rect fill="none" height="250" id="0" width="475" x="0" y="0"></rect><g><path d="M214.3882 168.0431L128.5797 65.7856" fill="none" stroke="#aaa" stroke-opacity="0.5"></path><path d="M223.9048 89.1311L284.2084 142.1804" fill="none" stroke="#aaa" stroke-opacity="0.5"></path><path d="M106.4451 126.154L128.5797 65.7856" fill="none" stroke="#aaa" stroke-opacity="0.5"></path><path d="M223.9048 89.1311L106.4451 126.154" fill="none" stroke="#aaa" stroke-opacity="0.5"></path><path d="M284.2084 142.1804L175.4418 220.4178" fill="none" stroke="#aaa" stroke-opacity="0.5"></path><path d="M291.261 192.2424L230.9496 24.3671" fill="none" stroke="#aaa" stroke-opacity="0.5"></path><path d="M281.8411 54.7654L106.4451 126.154" fill="none" stroke="#aaa" stroke-opacity="0.5"></path><path d="M230.9496 24.3671L313.8624 103.1675" fill="none" stroke="#aaa" stroke-opacity="0.5"></path><path d="M173.5995 32.6928L313.8624 103.1675" fill="none" stroke="#aaa" stroke-opacity="0.5"></path><path d="M163.1325 122.1793L130.152 184.4194" fill="none" stroke="#aaa" stroke-opacity="0.5"></path><path d="M291.261 192.2424L223.9048 89.1311" fill="none" stroke="#aaa" stroke-opacity="0.5"></path><path d="M175.4418 220.4178L106.4451 126.154" fill="none" stroke="#aaa" stroke-opacity="0.5"></path><path d="M130.152 184.4194L230.9496 24.3671" fill="none" stroke="#aaa" stroke-opacity="0.5"></path><path d="M223.9048 89.1311L175.4418 220.4178" fill="none" stroke="#aaa" stroke-opacity="0.5"></path><path d="M291.261 192.2424L106.4451 126.154" fill="none" stroke="#aaa" stroke-opacity="0.5"></path><path d="M173.5995 32.6928L214.3882 168.0431" fill="none" stroke="#aaa" stroke-opacity="0.5"></path><path d="M284.2084 142.1804L313.8624 103.1675" fill="none" stroke="#aaa" stroke-opacity="0.5"></path><path d="M163.1325 122.1793L173.5995 32.6928" fill="none" stroke="#aaa" stroke-opacity="0.5"></path><path d="M173.5995 32.6928L130.152 184.4194" fill="none" stroke="#aaa" stroke-opacity="0.5"></path><path d="M130.152 184.4194L106.4451 126.154" fill="none" stroke="#aaa" stroke-opacity="0.5"></path><path d="M237.9961 224.454L173.5995 32.6928" fill="none" stroke="#aaa" stroke-opacity="0.5"></path><path d="M223.9048 89.1311L313.8624 103.1675" fill="none" stroke="#aaa" stroke-opacity="0.5"></path><path d="M313.8624 103.1675L128.5797 65.7856" fill="none" stroke="#aaa" stroke-opacity="0.5"></path><path d="M163.1325 122.1793L230.9496 24.3671" fill="none" stroke="#aaa" stroke-opacity="0.5"></path><path d="M281.8411 54.7654L313.8624 103.1675" fill="none" stroke="#aaa" stroke-opacity="0.5"></path><path d="M313.8624 103.1675L175.4418 220.4178" fill="none" stroke="#aaa" stroke-opacity="0.5"></path><path d="M223.9048 89.1311L214.3882 168.0431" fill="none" stroke="#aaa" stroke-opacity="0.5"></path><path d="M163.1325 122.1793L223.9048 89.1311" fill="none" stroke="#aaa" stroke-opacity="0.5"></path><path d="M291.261 192.2424L237.9961 224.454" fill="none" stroke="#aaa" stroke-opacity="0.5"></path><path d="M223.9048 89.1311L130.152 184.4194" fill="none" stroke="#aaa" stroke-opacity="0.5"></path><path d="M237.9961 224.454L230.9496 24.3671" fill="none" stroke="#aaa" stroke-opacity="0.5"></path><path d="M281.8411 54.7654L214.3882 168.0431" fill="none" stroke="#aaa" stroke-opacity="0.5"></path><path d="M163.1325 122.1793L106.4451 126.154" fill="none" stroke="#aaa" stroke-opacity="0.5"></path><path d="M291.261 192.2424L313.8624 103.1675" fill="none" stroke="#aaa" stroke-opacity="0.5"></path><path d="M237.9961 224.454L281.8411 54.7654" fill="none" stroke="#aaa" stroke-opacity="0.5"></path><path d="M237.9961 224.454L284.2084 142.1804" fill="none" stroke="#aaa" stroke-opacity="0.5"></path><path d="M237.9961 224.454L106.4451 126.154" fill="none" stroke="#aaa" stroke-opacity="0.5"></path><path d="M130.152 184.4194L313.8624 103.1675" fill="none" stroke="#aaa" stroke-opacity="0.5"></path><path d="M291.261 192.2424L214.3882 168.0431" fill="none" stroke="#aaa" stroke-opacity="0.5"></path><path d="M214.3882 168.0431L230.9496 24.3671" fill="none" stroke="#aaa" stroke-opacity="0.5"></path><path d="M173.5995 32.6928L281.8411 54.7654" fill="none" stroke="#aaa" stroke-opacity="0.5"></path><path d="M130.152 184.4194L214.3882 168.0431" fill="none" stroke="#aaa" stroke-opacity="0.5"></path><path d="M214.3882 168.0431L284.2084 142.1804" fill="none" stroke="#aaa" stroke-opacity="0.5"></path><path d="M237.9961 224.454L175.4418 220.4178" fill="none" stroke="#aaa" stroke-opacity="0.5"></path><path d="M214.3882 168.0431L106.4451 126.154" fill="none" stroke="#aaa" stroke-opacity="0.5"></path><path d="M230.9496 24.3671L128.5797 65.7856" fill="none" stroke="#aaa" stroke-opacity="0.5"></path><path d="M173.5995 32.6928L128.5797 65.7856" fill="none" stroke="#aaa" stroke-opacity="0.5"></path><path d="M163.1325 122.1793L313.8624 103.1675" fill="none" stroke="#aaa" stroke-opacity="0.5"></path><path d="M237.9961 224.454L313.8624 103.1675" fill="none" stroke="#aaa" stroke-opacity="0.5"></path><path d="M223.9048 89.1311L281.8411 54.7654" fill="none" stroke="#aaa" stroke-opacity="0.5"></path><path d="M214.3882 168.0431L175.4418 220.4178" fill="none" stroke="#aaa" stroke-opacity="0.5"></path><path d="M281.8411 54.7654L230.9496 24.3671" fill="none" stroke="#aaa" stroke-opacity="0.5"></path><path d="M284.2084 142.1804L128.5797 65.7856" fill="none" stroke="#aaa" stroke-opacity="0.5"></path><path d="M163.1325 122.1793L214.3882 168.0431" fill="none" stroke="#aaa" stroke-opacity="0.5"></path><path d="M237.9961 224.454L214.3882 168.0431" fill="none" stroke="#aaa" stroke-opacity="0.5"></path><path d="M281.8411 54.7654L284.2084 142.1804" fill="none" stroke="#aaa" stroke-opacity="0.5"></path><path d="M237.9961 224.454L130.152 184.4194" fill="none" stroke="#aaa" stroke-opacity="0.5"></path><path d="M223.9048 89.1311L128.5797 65.7856" fill="none" stroke="#aaa" stroke-opacity="0.5"></path><path d="M214.3882 168.0431L313.8624 103.1675" fill="none" stroke="#aaa" stroke-opacity="0.5"></path><path d="M291.261 192.2424L281.8411 54.7654" fill="none" stroke="#aaa" stroke-opacity="0.5"></path><path d="M291.261 192.2424L284.2084 142.1804" fill="none" stroke="#aaa" stroke-opacity="0.5"></path><path d="M281.8411 54.7654L128.5797 65.7856" fill="none" stroke="#aaa" stroke-opacity="0.5"></path><path d="M313.8624 103.1675L106.4451 126.154" fill="none" stroke="#aaa" stroke-opacity="0.5"></path><path d="M291.261 192.2424L163.1325 122.1793" fill="none" stroke="#aaa" stroke-opacity="0.5"></path><path d="M130.152 184.4194L281.8411 54.7654" fill="none" stroke="#aaa" stroke-opacity="0.5"></path><path d="M175.4418 220.4178L128.5797 65.7856" fill="none" stroke="#aaa" stroke-opacity="0.5"></path><path d="M281.8411 54.7654L175.4418 220.4178" fill="none" stroke="#aaa" stroke-opacity="0.5"></path><path d="M130.152 184.4194L284.2084 142.1804" fill="none" stroke="#aaa" stroke-opacity="0.5"></path><path d="M291.261 192.2424L128.5797 65.7856" fill="none" stroke="#aaa" stroke-opacity="0.5"></path><path d="M291.261 192.2424L175.4418 220.4178" fill="none" stroke="#aaa" stroke-opacity="0.5"></path><path d="M130.152 184.4194L128.5797 65.7856" fill="none" stroke="#aaa" stroke-opacity="0.5"></path><path d="M237.9961 224.454L223.9048 89.1311" fill="none" stroke="#aaa" stroke-opacity="0.5"></path><path d="M130.152 184.4194L175.4418 220.4178" fill="none" stroke="#aaa" stroke-opacity="0.5"></path><path d="M163.1325 122.1793L281.8411 54.7654" fill="none" stroke="#aaa" stroke-opacity="0.5"></path><path d="M163.1325 122.1793L284.2084 142.1804" fill="none" stroke="#aaa" stroke-opacity="0.5"></path><path d="M173.5995 32.6928L230.9496 24.3671" fill="none" stroke="#aaa" stroke-opacity="0.5"></path><path d="M223.9048 89.1311L173.5995 32.6928" fill="none" stroke="#aaa" stroke-opacity="0.5"></path><path d="M237.9961 224.454L163.1325 122.1793" fill="none" stroke="#aaa" stroke-opacity="0.5"></path><path d="M163.1325 122.1793L128.5797 65.7856" fill="none" stroke="#aaa" stroke-opacity="0.5"></path><path d="M230.9496 24.3671L284.2084 142.1804" fill="none" stroke="#aaa" stroke-opacity="0.5"></path><path d="M173.5995 32.6928L284.2084 142.1804" fill="none" stroke="#aaa" stroke-opacity="0.5"></path><path d="M230.9496 24.3671L106.4451 126.154" fill="none" stroke="#aaa" stroke-opacity="0.5"></path><path d="M173.5995 32.6928L106.4451 126.154" fill="none" stroke="#aaa" stroke-opacity="0.5"></path><path d="M291.261 192.2424L130.152 184.4194" fill="none" stroke="#aaa" stroke-opacity="0.5"></path><path d="M237.9961 224.454L128.5797 65.7856" fill="none" stroke="#aaa" stroke-opacity="0.5"></path><path d="M163.1325 122.1793L175.4418 220.4178" fill="none" stroke="#aaa" stroke-opacity="0.5"></path><path d="M223.9048 89.1311L230.9496 24.3671" fill="none" stroke="#aaa" stroke-opacity="0.5"></path><path d="M284.2084 142.1804L106.4451 126.154" fill="none" stroke="#aaa" stroke-opacity="0.5"></path><path d="M291.261 192.2424L173.5995 32.6928" fill="none" stroke="#aaa" stroke-opacity="0.5"></path><path d="M230.9496 24.3671L175.4418 220.4178" fill="none" stroke="#aaa" stroke-opacity="0.5"></path><path d="M173.5995 32.6928L175.4418 220.4178" fill="none" stroke="#aaa" stroke-opacity="0.5"></path><path d="M1 0A1 1 0 1 1 1 -0.0001" fill="#5470c6" transform="matrix(18.5,0,0,18.5,284.2084,142.1804)"></path><path d="M1 0A1 1 0 1 1 1 -0.0001" fill="#5470c6" transform="matrix(18.5,0,0,18.5,291.261,192.2424)"></path><path d="M1 0A1 1 0 1 1 1 -0.0001" fill="#5470c6" transform="matrix(18.5,0,0,18.5,237.9961,224.454)"></path><path d="M1 0A1 1 0 1 1 1 -0.0001" fill="#5470c6" transform="matrix(18.5,0,0,18.5,214.3882,168.0431)"></path><path d="M1 0A1 1 0 1 1 1 -0.0001" fill="#5470c6" transform="matrix(18.5,0,0,18.5,175.4418,220.4178)"></path><path d="M1 0A1 1 0 1 1 1 -0.0001" fill="#5470c6" transform="matrix(18.5,0,0,18.5,130.152,184.4194)"></path><path d="M1 0A1 1 0 1 1 1 -0.0001" fill="#5470c6" transform="matrix(18.5,0,0,18.5,106.4451,126.154)"></path><path d="M1 0A1 1 0 1 1 1 -0.0001" fill="#5470c6" transform="matrix(18.5,0,0,18.5,163.1325,122.1793)"></path><path d="M1 0A1 1 0 1 1 1 -0.0001" fill="#5470c6" transform="matrix(18.5,0,0,18.5,128.5797,65.7856)"></path><path d="M1 0A1 1 0 1 1 1 -0.0001" fill="#5470c6" transform="matrix(18.5,0,0,18.5,223.9048,89.1311)"></path><path d="M1 0A1 1 0 1 1 1 -0.0001" fill="#5470c6" transform="matrix(18.5,0,0,18.5,173.5995,32.6928)"></path><path d="M1 0A1 1 0 1 1 1 -0.0001" fill="#5470c6" transform="matrix(18.5,0,0,18.5,230.9496,24.3671)"></path><path d="M1 0A1 1 0 1 1 1 -0.0001" fill="#5470c6" transform="matrix(18.5,0,0,18.5,281.8411,54.7654)"></path><path d="M1 0A1 1 0 1 1 1 -0.0001" fill="#5470c6" transform="matrix(18.5,0,0,18.5,313.8624,103.1675)"></path><path d="M-26.0964 -5l52.1929 0l0 33l-52.1929 0Z" fill="rgb(0,0,0)" fill-opacity="0" stroke="#ccc" stroke-width="0" transform="translate(237.5 5)"></path><text dominant-baseline="central" fill="#333" style="font-size:23px;font-family:sans-serif;font-weight:bolder;" text-anchor="middle" transform="translate(237.5 5)" y="11.5">C35</text></g></svg>