<svg baseprofile="full" height="250" style="position:absolute;left:0;top:0;user-select:none" version="1.1" width="475" xmlns="http://www.w3.org/2000/svg" xmlns:xlink="http://www.w3.org/1999/xlink"><rect fill="none" height="250" id="0" width="475" x="0" y="0"></rect><g><path d="M297.708 172.6807L304.8591 101.7591" fill="none" stroke="#aaa" stroke-opacity="0.5" stroke-width="0.5"></path><path d="M297.708 172.6807L273.8376 201.6029" fill="none" stroke="#aaa" stroke-opacity="0.5" stroke-width="0.5"></path><path d="M157.5937 111.3602L304.8591 101.7591" fill="none" stroke="#aaa" stroke-opacity="0.5" stroke-width="0.5"></path><path d="M234.1048 183.293L142.3335 60.9931" fill="none" stroke="#aaa" stroke-opacity="0.5" stroke-width="0.5"></path><path d="M199.7548 34.5134L304.8591 101.7591" fill="none" stroke="#aaa" stroke-opacity="0.5" stroke-width="0.5"></path><path d="M157.5937 111.3602L199.7548 34.5134" fill="none" stroke="#aaa" stroke-opacity="0.5" stroke-width="0.5"></path><path d="M265.8735 44.7225L142.3335 60.9931" fill="none" stroke="#aaa" stroke-opacity="0.5" stroke-width="0.5"></path><path d="M297.708 172.6807L290.1658 69.7952" fill="none" stroke="#aaa" stroke-opacity="0.5" stroke-width="0.5"></path><path d="M237.2239 220.9811L306.1399 136.9841" fill="none" stroke="#aaa" stroke-opacity="0.5" stroke-width="0.5"></path><path d="M237.2239 220.9811L138.3278 192.4726" fill="none" stroke="#aaa" stroke-opacity="0.5" stroke-width="0.5"></path><path d="M199.7548 34.5134L290.1658 69.7952" fill="none" stroke="#aaa" stroke-opacity="0.5" stroke-width="0.5"></path><path d="M196.2642 169.2164L261.8815 150.1189" fill="none" stroke="#aaa" stroke-opacity="0.5" stroke-width="0.5"></path><path d="M234.1048 183.293L235.4838 73.6239" fill="none" stroke="#aaa" stroke-opacity="0.5" stroke-width="0.5"></path><path d="M157.5937 111.3602L114.8487 122.0429" fill="none" stroke="#aaa" stroke-opacity="0.5" stroke-width="0.5"></path><path d="M196.2642 169.2164L235.4838 73.6239" fill="none" stroke="#aaa" stroke-opacity="0.5" stroke-width="0.5"></path><path d="M297.708 172.6807L306.1399 136.9841" fill="none" stroke="#aaa" stroke-opacity="0.5" stroke-width="0.5"></path><path d="M187.9113 78.4905L201.254 220.5541" fill="none" stroke="#aaa" stroke-opacity="0.5" stroke-width="0.5"></path><path d="M297.708 172.6807L138.3278 192.4726" fill="none" stroke="#aaa" stroke-opacity="0.5" stroke-width="0.5"></path><path d="M157.5937 111.3602L306.1399 136.9841" fill="none" stroke="#aaa" stroke-opacity="0.5" stroke-width="0.5"></path><path d="M199.7548 34.5134L306.1399 136.9841" fill="none" stroke="#aaa" stroke-opacity="0.5" stroke-width="0.5"></path><path d="M234.1048 183.293L196.2642 169.2164" fill="none" stroke="#aaa" stroke-opacity="0.5" stroke-width="0.5"></path><path d="M231.959 27.9162L199.7548 34.5134" fill="none" stroke="#aaa" stroke-opacity="0.5" stroke-width="0.5"></path><path d="M167.4022 38.142L235.4838 73.6239" fill="none" stroke="#aaa" stroke-opacity="0.5" stroke-width="0.5"></path><path d="M261.8815 150.1189L168.2113 208.7008" fill="none" stroke="#aaa" stroke-opacity="0.5" stroke-width="0.5"></path><path d="M213.866 122.0199L201.254 220.5541" fill="none" stroke="#aaa" stroke-opacity="0.5" stroke-width="0.5"></path><path d="M265.8735 44.7225L196.2642 169.2164" fill="none" stroke="#aaa" stroke-opacity="0.5" stroke-width="0.5"></path><path d="M231.959 27.9162L234.1048 183.293" fill="none" stroke="#aaa" stroke-opacity="0.5" stroke-width="0.5"></path><path d="M231.959 27.9162L114.8487 122.0429" fill="none" stroke="#aaa" stroke-opacity="0.5" stroke-width="0.5"></path><path d="M187.9113 78.4905L262.961 107.589" fill="none" stroke="#aaa" stroke-opacity="0.5" stroke-width="0.5"></path><path d="M237.2239 220.9811L213.866 122.0199" fill="none" stroke="#aaa" stroke-opacity="0.5" stroke-width="0.5"></path><path d="M118.8035 157.9631L158.7203 154.8271" fill="none" stroke="#aaa" stroke-opacity="0.5" stroke-width="0.5"></path><path d="M158.7203 154.8271L168.2113 208.7008" fill="none" stroke="#aaa" stroke-opacity="0.5" stroke-width="0.5"></path><path d="M121.7834 87.6373L158.7203 154.8271" fill="none" stroke="#aaa" stroke-opacity="0.5" stroke-width="0.5"></path><path d="M121.7834 87.6373L118.8035 157.9631" fill="none" stroke="#aaa" stroke-opacity="0.5" stroke-width="0.5"></path><path d="M187.9113 78.4905L167.4022 38.142" fill="none" stroke="#aaa" stroke-opacity="0.5" stroke-width="0.5"></path><path d="M213.866 122.0199L262.961 107.589" fill="none" stroke="#aaa" stroke-opacity="0.5" stroke-width="0.5"></path><path d="M118.8035 157.9631L168.2113 208.7008" fill="none" stroke="#aaa" stroke-opacity="0.5" stroke-width="0.5"></path><path d="M273.8376 201.6029L118.8035 157.9631" fill="none" stroke="#aaa" stroke-opacity="0.5" stroke-width="0.5"></path><path d="M297.708 172.6807L213.866 122.0199" fill="none" stroke="#aaa" stroke-opacity="0.5" stroke-width="0.5"></path><path d="M121.7834 87.6373L168.2113 208.7008" fill="none" stroke="#aaa" stroke-opacity="0.5" stroke-width="0.5"></path><path d="M231.959 27.9162L297.708 172.6807" fill="none" stroke="#aaa" stroke-opacity="0.5" stroke-width="0.5"></path><path d="M213.866 122.0199L167.4022 38.142" fill="none" stroke="#aaa" stroke-opacity="0.5" stroke-width="0.5"></path><path d="M262.961 107.589L304.8591 101.7591" fill="none" stroke="#aaa" stroke-opacity="0.5" stroke-width="0.5"></path><path d="M262.961 107.589L199.7548 34.5134" fill="none" stroke="#aaa" stroke-opacity="0.5" stroke-width="0.5"></path><path d="M138.3278 192.4726L167.4022 38.142" fill="none" stroke="#aaa" stroke-opacity="0.5" stroke-width="0.5"></path><path d="M237.2239 220.9811L118.8035 157.9631" fill="none" stroke="#aaa" stroke-opacity="0.5" stroke-width="0.5"></path><path d="M142.3335 60.9931L235.4838 73.6239" fill="none" stroke="#aaa" stroke-opacity="0.5" stroke-width="0.5"></path><path d="M168.2113 208.7008L304.8591 101.7591" fill="none" stroke="#aaa" stroke-opacity="0.5" stroke-width="0.5"></path><path d="M118.8035 157.9631L142.3335 60.9931" fill="none" stroke="#aaa" stroke-opacity="0.5" stroke-width="0.5"></path><path d="M121.7834 87.6373L142.3335 60.9931" fill="none" stroke="#aaa" stroke-opacity="0.5" stroke-width="0.5"></path><path d="M168.2113 208.7008L290.1658 69.7952" fill="none" stroke="#aaa" stroke-opacity="0.5" stroke-width="0.5"></path><path d="M297.708 172.6807L118.8035 157.9631" fill="none" stroke="#aaa" stroke-opacity="0.5" stroke-width="0.5"></path><path d="M265.8735 44.7225L262.961 107.589" fill="none" stroke="#aaa" stroke-opacity="0.5" stroke-width="0.5"></path><path d="M138.3278 192.4726L157.5937 111.3602" fill="none" stroke="#aaa" stroke-opacity="0.5" stroke-width="0.5"></path><path d="M262.961 107.589L306.1399 136.9841" fill="none" stroke="#aaa" stroke-opacity="0.5" stroke-width="0.5"></path><path d="M157.5937 111.3602L158.7203 154.8271" fill="none" stroke="#aaa" stroke-opacity="0.5" stroke-width="0.5"></path><path d="M114.8487 122.0429L261.8815 150.1189" fill="none" stroke="#aaa" stroke-opacity="0.5" stroke-width="0.5"></path><path d="M157.5937 111.3602L168.2113 208.7008" fill="none" stroke="#aaa" stroke-opacity="0.5" stroke-width="0.5"></path><path d="M196.2642 169.2164L201.254 220.5541" fill="none" stroke="#aaa" stroke-opacity="0.5" stroke-width="0.5"></path><path d="M187.9113 78.4905L304.8591 101.7591" fill="none" stroke="#aaa" stroke-opacity="0.5" stroke-width="0.5"></path><path d="M114.8487 122.0429L235.4838 73.6239" fill="none" stroke="#aaa" stroke-opacity="0.5" stroke-width="0.5"></path><path d="M187.9113 78.4905L273.8376 201.6029" fill="none" stroke="#aaa" stroke-opacity="0.5" stroke-width="0.5"></path><path d="M168.2113 208.7008L306.1399 136.9841" fill="none" stroke="#aaa" stroke-opacity="0.5" stroke-width="0.5"></path><path d="M187.9113 78.4905L199.7548 34.5134" fill="none" stroke="#aaa" stroke-opacity="0.5" stroke-width="0.5"></path><path d="M273.8376 201.6029L235.4838 73.6239" fill="none" stroke="#aaa" stroke-opacity="0.5" stroke-width="0.5"></path><path d="M290.1658 69.7952L306.1399 136.9841" fill="none" stroke="#aaa" stroke-opacity="0.5" stroke-width="0.5"></path><path d="M118.8035 157.9631L265.8735 44.7225" fill="none" stroke="#aaa" stroke-opacity="0.5" stroke-width="0.5"></path><path d="M167.4022 38.142L201.254 220.5541" fill="none" stroke="#aaa" stroke-opacity="0.5" stroke-width="0.5"></path><path d="M187.9113 78.4905L290.1658 69.7952" fill="none" stroke="#aaa" stroke-opacity="0.5" stroke-width="0.5"></path><path d="M213.866 122.0199L304.8591 101.7591" fill="none" stroke="#aaa" stroke-opacity="0.5" stroke-width="0.5"></path><path d="M121.7834 87.6373L265.8735 44.7225" fill="none" stroke="#aaa" stroke-opacity="0.5" stroke-width="0.5"></path><path d="M118.8035 157.9631L196.2642 169.2164" fill="none" stroke="#aaa" stroke-opacity="0.5" stroke-width="0.5"></path><path d="M213.866 122.0199L273.8376 201.6029" fill="none" stroke="#aaa" stroke-opacity="0.5" stroke-width="0.5"></path><path d="M213.866 122.0199L199.7548 34.5134" fill="none" stroke="#aaa" stroke-opacity="0.5" stroke-width="0.5"></path><path d="M121.7834 87.6373L196.2642 169.2164" fill="none" stroke="#aaa" stroke-opacity="0.5" stroke-width="0.5"></path><path d="M231.959 27.9162L158.7203 154.8271" fill="none" stroke="#aaa" stroke-opacity="0.5" stroke-width="0.5"></path><path d="M231.959 27.9162L118.8035 157.9631" fill="none" stroke="#aaa" stroke-opacity="0.5" stroke-width="0.5"></path><path d="M196.2642 169.2164L262.961 107.589" fill="none" stroke="#aaa" stroke-opacity="0.5" stroke-width="0.5"></path><path d="M234.1048 183.293L167.4022 38.142" fill="none" stroke="#aaa" stroke-opacity="0.5" stroke-width="0.5"></path><path d="M237.2239 220.9811L235.4838 73.6239" fill="none" stroke="#aaa" stroke-opacity="0.5" stroke-width="0.5"></path><path d="M261.8815 150.1189L201.254 220.5541" fill="none" stroke="#aaa" stroke-opacity="0.5" stroke-width="0.5"></path><path d="M138.3278 192.4726L199.7548 34.5134" fill="none" stroke="#aaa" stroke-opacity="0.5" stroke-width="0.5"></path><path d="M231.959 27.9162L121.7834 87.6373" fill="none" stroke="#aaa" stroke-opacity="0.5" stroke-width="0.5"></path><path d="M231.959 27.9162L168.2113 208.7008" fill="none" stroke="#aaa" stroke-opacity="0.5" stroke-width="0.5"></path><path d="M213.866 122.5L114.8487 122.5" fill="none" stroke="#aaa" stroke-opacity="0.5" stroke-width="0.5"></path><path d="M157.5937 111.3602L142.3335 60.9931" fill="none" stroke="#aaa" stroke-opacity="0.5" stroke-width="0.5"></path><path d="M187.9113 78.4905L306.1399 136.9841" fill="none" stroke="#aaa" stroke-opacity="0.5" stroke-width="0.5"></path><path d="M187.9113 78.4905L138.3278 192.4726" fill="none" stroke="#aaa" stroke-opacity="0.5" stroke-width="0.5"></path><path d="M231.959 27.9162L261.8815 150.1189" fill="none" stroke="#aaa" stroke-opacity="0.5" stroke-width="0.5"></path><path d="M138.3278 192.4726L114.8487 122.0429" fill="none" stroke="#aaa" stroke-opacity="0.5" stroke-width="0.5"></path><path d="M297.708 172.6807L235.4838 73.6239" fill="none" stroke="#aaa" stroke-opacity="0.5" stroke-width="0.5"></path><path d="M234.1048 183.293L157.5937 111.3602" fill="none" stroke="#aaa" stroke-opacity="0.5" stroke-width="0.5"></path><path d="M213.866 122.0199L306.1399 136.9841" fill="none" stroke="#aaa" stroke-opacity="0.5" stroke-width="0.5"></path><path d="M213.866 122.0199L138.3278 192.4726" fill="none" stroke="#aaa" stroke-opacity="0.5" stroke-width="0.5"></path><path d="M199.7548 34.5134L235.4838 73.6239" fill="none" stroke="#aaa" stroke-opacity="0.5" stroke-width="0.5"></path><path d="M261.8815 150.1189L262.961 107.589" fill="none" stroke="#aaa" stroke-opacity="0.5" stroke-width="0.5"></path><path d="M231.959 27.9162L237.2239 220.9811" fill="none" stroke="#aaa" stroke-opacity="0.5" stroke-width="0.5"></path><path d="M265.8735 44.7225L304.8591 101.7591" fill="none" stroke="#aaa" stroke-opacity="0.5" stroke-width="0.5"></path><path d="M231.959 27.9162L142.3335 60.9931" fill="none" stroke="#aaa" stroke-opacity="0.5" stroke-width="0.5"></path><path d="M142.3335 60.9931L201.254 220.5541" fill="none" stroke="#aaa" stroke-opacity="0.5" stroke-width="0.5"></path><path d="M167.4022 38.142L157.5937 111.3602" fill="none" stroke="#aaa" stroke-opacity="0.5" stroke-width="0.5"></path><path d="M265.8735 44.7225L290.1658 69.7952" fill="none" stroke="#aaa" stroke-opacity="0.5" stroke-width="0.5"></path><path d="M157.5937 111.3602L196.2642 169.2164" fill="none" stroke="#aaa" stroke-opacity="0.5" stroke-width="0.5"></path><path d="M262.961 107.589L168.2113 208.7008" fill="none" stroke="#aaa" stroke-opacity="0.5" stroke-width="0.5"></path><path d="M265.8735 44.7225L306.1399 136.9841" fill="none" stroke="#aaa" stroke-opacity="0.5" stroke-width="0.5"></path><path d="M234.1048 183.293L199.7548 34.5134" fill="none" stroke="#aaa" stroke-opacity="0.5" stroke-width="0.5"></path><path d="M142.3335 60.9931L262.961 107.589" fill="none" stroke="#aaa" stroke-opacity="0.5" stroke-width="0.5"></path><path d="M196.2642 169.2164L304.8591 101.7591" fill="none" stroke="#aaa" stroke-opacity="0.5" stroke-width="0.5"></path><path d="M231.959 27.9162L265.8735 44.7225" fill="none" stroke="#aaa" stroke-opacity="0.5" stroke-width="0.5"></path><path d="M196.2642 169.2164L199.7548 34.5134" fill="none" stroke="#aaa" stroke-opacity="0.5" stroke-width="0.5"></path><path d="M114.8487 122.0429L201.254 220.5541" fill="none" stroke="#aaa" stroke-opacity="0.5" stroke-width="0.5"></path><path d="M231.959 27.9162L196.2642 169.2164" fill="none" stroke="#aaa" stroke-opacity="0.5" stroke-width="0.5"></path><path d="M234.1048 183.293L114.8487 122.0429" fill="none" stroke="#aaa" stroke-opacity="0.5" stroke-width="0.5"></path><path d="M273.8376 201.6029L201.254 220.5541" fill="none" stroke="#aaa" stroke-opacity="0.5" stroke-width="0.5"></path><path d="M167.4022 38.142L199.7548 34.5134" fill="none" stroke="#aaa" stroke-opacity="0.5" stroke-width="0.5"></path><path d="M187.9113 78.4905L118.8035 157.9631" fill="none" stroke="#aaa" stroke-opacity="0.5" stroke-width="0.5"></path><path d="M261.8815 150.1189L304.8591 101.7591" fill="none" stroke="#aaa" stroke-opacity="0.5" stroke-width="0.5"></path><path d="M167.4022 38.142L114.8487 122.0429" fill="none" stroke="#aaa" stroke-opacity="0.5" stroke-width="0.5"></path><path d="M114.8487 122.0429L262.961 107.589" fill="none" stroke="#aaa" stroke-opacity="0.5" stroke-width="0.5"></path><path d="M213.866 122.0199L158.7203 154.8271" fill="none" stroke="#aaa" stroke-opacity="0.5" stroke-width="0.5"></path><path d="M213.866 122.0199L118.8035 157.9631" fill="none" stroke="#aaa" stroke-opacity="0.5" stroke-width="0.5"></path><path d="M237.2239 220.9811L201.254 220.5541" fill="none" stroke="#aaa" stroke-opacity="0.5" stroke-width="0.5"></path><path d="M261.8815 150.1189L199.7548 34.5134" fill="none" stroke="#aaa" stroke-opacity="0.5" stroke-width="0.5"></path><path d="M201.254 220.5541L168.2113 208.7008" fill="none" stroke="#aaa" stroke-opacity="0.5" stroke-width="0.5"></path><path d="M213.866 122.0199L168.2113 208.7008" fill="none" stroke="#aaa" stroke-opacity="0.5" stroke-width="0.5"></path><path d="M261.8815 150.1189L290.1658 69.7952" fill="none" stroke="#aaa" stroke-opacity="0.5" stroke-width="0.5"></path><path d="M138.3278 192.4726L158.7203 154.8271" fill="none" stroke="#aaa" stroke-opacity="0.5" stroke-width="0.5"></path><path d="M273.8376 201.6029L167.4022 38.142" fill="none" stroke="#aaa" stroke-opacity="0.5" stroke-width="0.5"></path><path d="M297.708 172.6807L201.254 220.5541" fill="none" stroke="#aaa" stroke-opacity="0.5" stroke-width="0.5"></path><path d="M168.2113 208.7008L235.4838 73.6239" fill="none" stroke="#aaa" stroke-opacity="0.5" stroke-width="0.5"></path><path d="M138.3278 192.4726L168.2113 208.7008" fill="none" stroke="#aaa" stroke-opacity="0.5" stroke-width="0.5"></path><path d="M290.1658 69.7952L235.4838 73.6239" fill="none" stroke="#aaa" stroke-opacity="0.5" stroke-width="0.5"></path><path d="M237.2239 220.9811L262.961 107.589" fill="none" stroke="#aaa" stroke-opacity="0.5" stroke-width="0.5"></path><path d="M118.8035 157.9631L157.5937 111.3602" fill="none" stroke="#aaa" stroke-opacity="0.5" stroke-width="0.5"></path><path d="M138.3278 192.4726L261.8815 150.1189" fill="none" stroke="#aaa" stroke-opacity="0.5" stroke-width="0.5"></path><path d="M121.7834 87.6373L157.5937 111.3602" fill="none" stroke="#aaa" stroke-opacity="0.5" stroke-width="0.5"></path><path d="M158.7203 154.8271L290.1658 69.7952" fill="none" stroke="#aaa" stroke-opacity="0.5" stroke-width="0.5"></path><path d="M261.8815 150.1189L306.1399 136.9841" fill="none" stroke="#aaa" stroke-opacity="0.5" stroke-width="0.5"></path><path d="M187.9113 78.4905L142.3335 60.9931" fill="none" stroke="#aaa" stroke-opacity="0.5" stroke-width="0.5"></path><path d="M237.2239 220.9811L167.4022 38.142" fill="none" stroke="#aaa" stroke-opacity="0.5" stroke-width="0.5"></path><path d="M273.8376 201.6029L157.5937 111.3602" fill="none" stroke="#aaa" stroke-opacity="0.5" stroke-width="0.5"></path><path d="M118.8035 157.9631L290.1658 69.7952" fill="none" stroke="#aaa" stroke-opacity="0.5" stroke-width="0.5"></path><path d="M142.3335 60.9931L199.7548 34.5134" fill="none" stroke="#aaa" stroke-opacity="0.5" stroke-width="0.5"></path><path d="M121.7834 87.6373L290.1658 69.7952" fill="none" stroke="#aaa" stroke-opacity="0.5" stroke-width="0.5"></path><path d="M213.866 122.0199L142.3335 60.9931" fill="none" stroke="#aaa" stroke-opacity="0.5" stroke-width="0.5"></path><path d="M187.9113 78.4905L235.4838 73.6239" fill="none" stroke="#aaa" stroke-opacity="0.5" stroke-width="0.5"></path><path d="M297.708 172.6807L167.4022 38.142" fill="none" stroke="#aaa" stroke-opacity="0.5" stroke-width="0.5"></path><path d="M142.3335 60.9931L114.8487 122.0429" fill="none" stroke="#aaa" stroke-opacity="0.5" stroke-width="0.5"></path><path d="M138.3278 192.4726L142.3335 60.9931" fill="none" stroke="#aaa" stroke-opacity="0.5" stroke-width="0.5"></path><path d="M237.2239 220.9811L157.5937 111.3602" fill="none" stroke="#aaa" stroke-opacity="0.5" stroke-width="0.5"></path><path d="M187.9113 78.4905L196.2642 169.2164" fill="none" stroke="#aaa" stroke-opacity="0.5" stroke-width="0.5"></path><path d="M114.8487 122.0429L304.8591 101.7591" fill="none" stroke="#aaa" stroke-opacity="0.5" stroke-width="0.5"></path><path d="M234.1048 183.293L158.7203 154.8271" fill="none" stroke="#aaa" stroke-opacity="0.5" stroke-width="0.5"></path><path d="M297.708 172.6807L157.5937 111.3602" fill="none" stroke="#aaa" stroke-opacity="0.5" stroke-width="0.5"></path><path d="M114.8487 122.0429L199.7548 34.5134" fill="none" stroke="#aaa" stroke-opacity="0.5" stroke-width="0.5"></path><path d="M213.866 122.0199L265.8735 44.7225" fill="none" stroke="#aaa" stroke-opacity="0.5" stroke-width="0.5"></path><path d="M121.7834 87.6373L234.1048 183.293" fill="none" stroke="#aaa" stroke-opacity="0.5" stroke-width="0.5"></path><path d="M273.8376 201.6029L199.7548 34.5134" fill="none" stroke="#aaa" stroke-opacity="0.5" stroke-width="0.5"></path><path d="M196.2642 169.2164L158.7203 154.8271" fill="none" stroke="#aaa" stroke-opacity="0.5" stroke-width="0.5"></path><path d="M213.866 122.0199L196.2642 169.2164" fill="none" stroke="#aaa" stroke-opacity="0.5" stroke-width="0.5"></path><path d="M234.1048 183.293L168.2113 208.7008" fill="none" stroke="#aaa" stroke-opacity="0.5" stroke-width="0.5"></path><path d="M234.1048 183.293L261.8815 150.1189" fill="none" stroke="#aaa" stroke-opacity="0.5" stroke-width="0.5"></path><path d="M138.3278 192.4726L265.8735 44.7225" fill="none" stroke="#aaa" stroke-opacity="0.5" stroke-width="0.5"></path><path d="M196.2642 169.2164L168.2113 208.7008" fill="none" stroke="#aaa" stroke-opacity="0.5" stroke-width="0.5"></path><path d="M157.5937 111.3602L290.1658 69.7952" fill="none" stroke="#aaa" stroke-opacity="0.5" stroke-width="0.5"></path><path d="M273.8376 201.6029L114.8487 122.0429" fill="none" stroke="#aaa" stroke-opacity="0.5" stroke-width="0.5"></path><path d="M167.4022 38.142L158.7203 154.8271" fill="none" stroke="#aaa" stroke-opacity="0.5" stroke-width="0.5"></path><path d="M237.2239 220.9811L199.7548 34.5134" fill="none" stroke="#aaa" stroke-opacity="0.5" stroke-width="0.5"></path><path d="M167.4022 38.142L168.2113 208.7008" fill="none" stroke="#aaa" stroke-opacity="0.5" stroke-width="0.5"></path><path d="M265.8735 44.7225L235.4838 73.6239" fill="none" stroke="#aaa" stroke-opacity="0.5" stroke-width="0.5"></path><path d="M114.8487 122.0429L306.1399 136.9841" fill="none" stroke="#aaa" stroke-opacity="0.5" stroke-width="0.5"></path><path d="M121.7834 87.6373L213.866 122.0199" fill="none" stroke="#aaa" stroke-opacity="0.5" stroke-width="0.5"></path><path d="M167.4022 38.142L261.8815 150.1189" fill="none" stroke="#aaa" stroke-opacity="0.5" stroke-width="0.5"></path><path d="M237.2239 220.9811L234.1048 183.293" fill="none" stroke="#aaa" stroke-opacity="0.5" stroke-width="0.5"></path><path d="M237.2239 220.9811L114.8487 122.0429" fill="none" stroke="#aaa" stroke-opacity="0.5" stroke-width="0.5"></path><path d="M231.959 27.9162L304.8591 101.7591" fill="none" stroke="#aaa" stroke-opacity="0.5" stroke-width="0.5"></path><path d="M231.959 27.9162L273.8376 201.6029" fill="none" stroke="#aaa" stroke-opacity="0.5" stroke-width="0.5"></path><path d="M297.708 172.6807L199.7548 34.5134" fill="none" stroke="#aaa" stroke-opacity="0.5" stroke-width="0.5"></path><path d="M297.708 172.6807L234.1048 183.293" fill="none" stroke="#aaa" stroke-opacity="0.5" stroke-width="0.5"></path><path d="M231.959 27.9162L290.1658 69.7952" fill="none" stroke="#aaa" stroke-opacity="0.5" stroke-width="0.5"></path><path d="M297.708 172.6807L114.8487 122.0429" fill="none" stroke="#aaa" stroke-opacity="0.5" stroke-width="0.5"></path><path d="M304.8591 101.7591L235.4838 73.6239" fill="none" stroke="#aaa" stroke-opacity="0.5" stroke-width="0.5"></path><path d="M138.3278 192.4726L201.254 220.5541" fill="none" stroke="#aaa" stroke-opacity="0.5" stroke-width="0.5"></path><path d="M167.4022 38.142L142.3335 60.9931" fill="none" stroke="#aaa" stroke-opacity="0.5" stroke-width="0.5"></path><path d="M231.959 27.9162L306.1399 136.9841" fill="none" stroke="#aaa" stroke-opacity="0.5" stroke-width="0.5"></path><path d="M231.959 27.9162L138.3278 192.4726" fill="none" stroke="#aaa" stroke-opacity="0.5" stroke-width="0.5"></path><path d="M234.1048 183.293L265.8735 44.7225" fill="none" stroke="#aaa" stroke-opacity="0.5" stroke-width="0.5"></path><path d="M142.3335 60.9931L158.7203 154.8271" fill="none" stroke="#aaa" stroke-opacity="0.5" stroke-width="0.5"></path><path d="M138.3278 192.4726L262.961 107.589" fill="none" stroke="#aaa" stroke-opacity="0.5" stroke-width="0.5"></path><path d="M142.3335 60.9931L168.2113 208.7008" fill="none" stroke="#aaa" stroke-opacity="0.5" stroke-width="0.5"></path><path d="M142.3335 60.9931L261.8815 150.1189" fill="none" stroke="#aaa" stroke-opacity="0.5" stroke-width="0.5"></path><path d="M261.8815 150.1189L235.4838 73.6239" fill="none" stroke="#aaa" stroke-opacity="0.5" stroke-width="0.5"></path><path d="M262.961 107.589L290.1658 69.7952" fill="none" stroke="#aaa" stroke-opacity="0.5" stroke-width="0.5"></path><path d="M167.4022 38.142L196.2642 169.2164" fill="none" stroke="#aaa" stroke-opacity="0.5" stroke-width="0.5"></path><path d="M158.7203 154.8271L261.8815 150.1189" fill="none" stroke="#aaa" stroke-opacity="0.5" stroke-width="0.5"></path><path d="M114.8487 122.0429L158.7203 154.8271" fill="none" stroke="#aaa" stroke-opacity="0.5" stroke-width="0.5"></path><path d="M187.9113 78.4905L231.959 27.9162" fill="none" stroke="#aaa" stroke-opacity="0.5" stroke-width="0.5"></path><path d="M273.8376 201.6029L158.7203 154.8271" fill="none" stroke="#aaa" stroke-opacity="0.5" stroke-width="0.5"></path><path d="M231.959 27.9162L213.866 122.0199" fill="none" stroke="#aaa" stroke-opacity="0.5" stroke-width="0.5"></path><path d="M118.8035 157.9631L261.8815 150.1189" fill="none" stroke="#aaa" stroke-opacity="0.5" stroke-width="0.5"></path><path d="M158.7203 154.8271L235.4838 73.6239" fill="none" stroke="#aaa" stroke-opacity="0.5" stroke-width="0.5"></path><path d="M114.8487 122.0429L168.2113 208.7008" fill="none" stroke="#aaa" stroke-opacity="0.5" stroke-width="0.5"></path><path d="M121.7834 87.6373L261.8815 150.1189" fill="none" stroke="#aaa" stroke-opacity="0.5" stroke-width="0.5"></path><path d="M234.1048 183.293L201.254 220.5541" fill="none" stroke="#aaa" stroke-opacity="0.5" stroke-width="0.5"></path><path d="M273.8376 201.6029L168.2113 208.7008" fill="none" stroke="#aaa" stroke-opacity="0.5" stroke-width="0.5"></path><path d="M118.8035 157.9631L235.4838 73.6239" fill="none" stroke="#aaa" stroke-opacity="0.5" stroke-width="0.5"></path><path d="M187.9113 78.4905L157.5937 111.3602" fill="none" stroke="#aaa" stroke-opacity="0.5" stroke-width="0.5"></path><path d="M265.8735 44.7225L201.254 220.5541" fill="none" stroke="#aaa" stroke-opacity="0.5" stroke-width="0.5"></path><path d="M273.8376 201.6029L261.8815 150.1189" fill="none" stroke="#aaa" stroke-opacity="0.5" stroke-width="0.5"></path><path d="M121.7834 87.6373L235.4838 73.6239" fill="none" stroke="#aaa" stroke-opacity="0.5" stroke-width="0.5"></path><path d="M237.2239 220.9811L158.7203 154.8271" fill="none" stroke="#aaa" stroke-opacity="0.5" stroke-width="0.5"></path><path d="M201.254 220.5541L304.8591 101.7591" fill="none" stroke="#aaa" stroke-opacity="0.5" stroke-width="0.5"></path><path d="M213.866 122.0199L157.5937 111.3602" fill="none" stroke="#aaa" stroke-opacity="0.5" stroke-width="0.5"></path><path d="M290.1658 69.7952L304.8591 101.7591" fill="none" stroke="#aaa" stroke-opacity="0.5" stroke-width="0.5"></path><path d="M237.2239 220.9811L121.7834 87.6373" fill="none" stroke="#aaa" stroke-opacity="0.5" stroke-width="0.5"></path><path d="M237.2239 220.9811L168.2113 208.7008" fill="none" stroke="#aaa" stroke-opacity="0.5" stroke-width="0.5"></path><path d="M234.1048 183.293L262.961 107.589" fill="none" stroke="#aaa" stroke-opacity="0.5" stroke-width="0.5"></path><path d="M201.254 220.5541L199.7548 34.5134" fill="none" stroke="#aaa" stroke-opacity="0.5" stroke-width="0.5"></path><path d="M237.2239 220.9811L261.8815 150.1189" fill="none" stroke="#aaa" stroke-opacity="0.5" stroke-width="0.5"></path><path d="M297.708 172.6807L158.7203 154.8271" fill="none" stroke="#aaa" stroke-opacity="0.5" stroke-width="0.5"></path><path d="M201.254 220.5541L290.1658 69.7952" fill="none" stroke="#aaa" stroke-opacity="0.5" stroke-width="0.5"></path><path d="M138.3278 192.4726L304.8591 101.7591" fill="none" stroke="#aaa" stroke-opacity="0.5" stroke-width="0.5"></path><path d="M213.866 122.0199L290.1658 69.7952" fill="none" stroke="#aaa" stroke-opacity="0.5" stroke-width="0.5"></path><path d="M142.3335 60.9931L196.2642 169.2164" fill="none" stroke="#aaa" stroke-opacity="0.5" stroke-width="0.5"></path><path d="M273.8376 201.6029L142.3335 60.9931" fill="none" stroke="#aaa" stroke-opacity="0.5" stroke-width="0.5"></path><path d="M297.708 172.6807L121.7834 87.6373" fill="none" stroke="#aaa" stroke-opacity="0.5" stroke-width="0.5"></path><path d="M297.708 172.6807L168.2113 208.7008" fill="none" stroke="#aaa" stroke-opacity="0.5" stroke-width="0.5"></path><path d="M265.8735 44.7225L167.4022 38.142" fill="none" stroke="#aaa" stroke-opacity="0.5" stroke-width="0.5"></path><path d="M167.4022 38.142L262.961 107.589" fill="none" stroke="#aaa" stroke-opacity="0.5" stroke-width="0.5"></path><path d="M297.708 172.6807L261.8815 150.1189" fill="none" stroke="#aaa" stroke-opacity="0.5" stroke-width="0.5"></path><path d="M199.7548 34.5134L168.2113 208.7008" fill="none" stroke="#aaa" stroke-opacity="0.5" stroke-width="0.5"></path><path d="M138.3278 192.4726L290.1658 69.7952" fill="none" stroke="#aaa" stroke-opacity="0.5" stroke-width="0.5"></path><path d="M157.5937 111.3602L261.8815 150.1189" fill="none" stroke="#aaa" stroke-opacity="0.5" stroke-width="0.5"></path><path d="M201.254 220.5541L306.1399 136.9841" fill="none" stroke="#aaa" stroke-opacity="0.5" stroke-width="0.5"></path><path d="M237.2239 220.9811L142.3335 60.9931" fill="none" stroke="#aaa" stroke-opacity="0.5" stroke-width="0.5"></path><path d="M157.5937 111.3602L235.4838 73.6239" fill="none" stroke="#aaa" stroke-opacity="0.5" stroke-width="0.5"></path><path d="M187.9113 78.4905L234.1048 183.293" fill="none" stroke="#aaa" stroke-opacity="0.5" stroke-width="0.5"></path><path d="M297.708 172.6807L237.2239 220.9811" fill="none" stroke="#aaa" stroke-opacity="0.5" stroke-width="0.5"></path><path d="M187.9113 78.4905L114.8487 122.0429" fill="none" stroke="#aaa" stroke-opacity="0.5" stroke-width="0.5"></path><path d="M265.8735 44.7225L157.5937 111.3602" fill="none" stroke="#aaa" stroke-opacity="0.5" stroke-width="0.5"></path><path d="M138.3278 192.4726L306.1399 136.9841" fill="none" stroke="#aaa" stroke-opacity="0.5" stroke-width="0.5"></path><path d="M273.8376 201.6029L265.8735 44.7225" fill="none" stroke="#aaa" stroke-opacity="0.5" stroke-width="0.5"></path><path d="M114.8487 122.0429L196.2642 169.2164" fill="none" stroke="#aaa" stroke-opacity="0.5" stroke-width="0.5"></path><path d="M213.866 122.0199L234.1048 183.293" fill="none" stroke="#aaa" stroke-opacity="0.5" stroke-width="0.5"></path><path d="M297.708 172.6807L142.3335 60.9931" fill="none" stroke="#aaa" stroke-opacity="0.5" stroke-width="0.5"></path><path d="M273.8376 201.6029L196.2642 169.2164" fill="none" stroke="#aaa" stroke-opacity="0.5" stroke-width="0.5"></path><path d="M187.9113 78.4905L213.866 122.0199" fill="none" stroke="#aaa" stroke-opacity="0.5" stroke-width="0.5"></path><path d="M237.2239 220.9811L265.8735 44.7225" fill="none" stroke="#aaa" stroke-opacity="0.5" stroke-width="0.5"></path><path d="M187.9113 78.4905L297.708 172.6807" fill="none" stroke="#aaa" stroke-opacity="0.5" stroke-width="0.5"></path><path d="M231.959 27.9162L235.4838 73.6239" fill="none" stroke="#aaa" stroke-opacity="0.5" stroke-width="0.5"></path><path d="M158.7203 154.8271L201.254 220.5541" fill="none" stroke="#aaa" stroke-opacity="0.5" stroke-width="0.5"></path><path d="M237.2239 220.9811L196.2642 169.2164" fill="none" stroke="#aaa" stroke-opacity="0.5" stroke-width="0.5"></path><path d="M234.1048 183.293L304.8591 101.7591" fill="none" stroke="#aaa" stroke-opacity="0.5" stroke-width="0.5"></path><path d="M234.1048 183.293L273.8376 201.6029" fill="none" stroke="#aaa" stroke-opacity="0.5" stroke-width="0.5"></path><path d="M118.8035 157.9631L201.254 220.5541" fill="none" stroke="#aaa" stroke-opacity="0.5" stroke-width="0.5"></path><path d="M297.708 172.6807L265.8735 44.7225" fill="none" stroke="#aaa" stroke-opacity="0.5" stroke-width="0.5"></path><path d="M121.7834 87.6373L201.254 220.5541" fill="none" stroke="#aaa" stroke-opacity="0.5" stroke-width="0.5"></path><path d="M265.8735 44.7225L199.7548 34.5134" fill="none" stroke="#aaa" stroke-opacity="0.5" stroke-width="0.5"></path><path d="M234.1048 183.293L290.1658 69.7952" fill="none" stroke="#aaa" stroke-opacity="0.5" stroke-width="0.5"></path><path d="M297.708 172.6807L196.2642 169.2164" fill="none" stroke="#aaa" stroke-opacity="0.5" stroke-width="0.5"></path><path d="M196.2642 169.2164L290.1658 69.7952" fill="none" stroke="#aaa" stroke-opacity="0.5" stroke-width="0.5"></path><path d="M158.7203 154.8271L262.961 107.589" fill="none" stroke="#aaa" stroke-opacity="0.5" stroke-width="0.5"></path><path d="M167.4022 38.142L304.8591 101.7591" fill="none" stroke="#aaa" stroke-opacity="0.5" stroke-width="0.5"></path><path d="M265.8735 44.7225L114.8487 122.0429" fill="none" stroke="#aaa" stroke-opacity="0.5" stroke-width="0.5"></path><path d="M118.8035 157.9631L262.961 107.589" fill="none" stroke="#aaa" stroke-opacity="0.5" stroke-width="0.5"></path><path d="M234.1048 183.293L306.1399 136.9841" fill="none" stroke="#aaa" stroke-opacity="0.5" stroke-width="0.5"></path><path d="M234.1048 183.293L138.3278 192.4726" fill="none" stroke="#aaa" stroke-opacity="0.5" stroke-width="0.5"></path><path d="M167.4022 38.142L290.1658 69.7952" fill="none" stroke="#aaa" stroke-opacity="0.5" stroke-width="0.5"></path><path d="M121.7834 87.6373L262.961 107.589" fill="none" stroke="#aaa" stroke-opacity="0.5" stroke-width="0.5"></path><path d="M262.961 107.589L235.4838 73.6239" fill="none" stroke="#aaa" stroke-opacity="0.5" stroke-width="0.5"></path><path d="M118.8035 157.9631L167.4022 38.142" fill="none" stroke="#aaa" stroke-opacity="0.5" stroke-width="0.5"></path><path d="M196.2642 169.2164L306.1399 136.9841" fill="none" stroke="#aaa" stroke-opacity="0.5" stroke-width="0.5"></path><path d="M273.8376 201.6029L262.961 107.589" fill="none" stroke="#aaa" stroke-opacity="0.5" stroke-width="0.5"></path><path d="M121.7834 87.6373L167.4022 38.142" fill="none" stroke="#aaa" stroke-opacity="0.5" stroke-width="0.5"></path><path d="M306.1399 136.9841L235.4838 73.6239" fill="none" stroke="#aaa" stroke-opacity="0.5" stroke-width="0.5"></path><path d="M167.4022 38.142L306.1399 136.9841" fill="none" stroke="#aaa" stroke-opacity="0.5" stroke-width="0.5"></path><path d="M157.5937 111.3602L201.254 220.5541" fill="none" stroke="#aaa" stroke-opacity="0.5" stroke-width="0.5"></path><path d="M187.9113 78.4905L158.7203 154.8271" fill="none" stroke="#aaa" stroke-opacity="0.5" stroke-width="0.5"></path><path d="M304.8591 101.7591L306.1399 136.9841" fill="none" stroke="#aaa" stroke-opacity="0.5" stroke-width="0.5"></path><path d="M187.9113 78.4905L121.7834 87.6373" fill="none" stroke="#aaa" stroke-opacity="0.5" stroke-width="0.5"></path><path d="M187.9113 78.4905L168.2113 208.7008" fill="none" stroke="#aaa" stroke-opacity="0.5" stroke-width="0.5"></path><path d="M142.3335 60.9931L304.8591 101.7591" fill="none" stroke="#aaa" stroke-opacity="0.5" stroke-width="0.5"></path><path d="M187.9113 78.4905L261.8815 150.1189" fill="none" stroke="#aaa" stroke-opacity="0.5" stroke-width="0.5"></path><path d="M297.708 172.6807L262.961 107.589" fill="none" stroke="#aaa" stroke-opacity="0.5" stroke-width="0.5"></path><path d="M157.5937 111.3602L262.961 107.589" fill="none" stroke="#aaa" stroke-opacity="0.5" stroke-width="0.5"></path><path d="M142.3335 60.9931L290.1658 69.7952" fill="none" stroke="#aaa" stroke-opacity="0.5" stroke-width="0.5"></path><path d="M213.866 122.0199L261.8815 150.1189" fill="none" stroke="#aaa" stroke-opacity="0.5" stroke-width="0.5"></path><path d="M231.959 27.9162L201.254 220.5541" fill="none" stroke="#aaa" stroke-opacity="0.5" stroke-width="0.5"></path><path d="M158.7203 154.8271L304.8591 101.7591" fill="none" stroke="#aaa" stroke-opacity="0.5" stroke-width="0.5"></path><path d="M187.9113 78.4905L237.2239 220.9811" fill="none" stroke="#aaa" stroke-opacity="0.5" stroke-width="0.5"></path><path d="M201.254 220.5541L235.4838 73.6239" fill="none" stroke="#aaa" stroke-opacity="0.5" stroke-width="0.5"></path><path d="M158.7203 154.8271L199.7548 34.5134" fill="none" stroke="#aaa" stroke-opacity="0.5" stroke-width="0.5"></path><path d="M213.866 122.0199L235.4838 73.6239" fill="none" stroke="#aaa" stroke-opacity="0.5" stroke-width="0.5"></path><path d="M118.8035 157.9631L304.8591 101.7591" fill="none" stroke="#aaa" stroke-opacity="0.5" stroke-width="0.5"></path><path d="M118.8035 157.9631L199.7548 34.5134" fill="none" stroke="#aaa" stroke-opacity="0.5" stroke-width="0.5"></path><path d="M121.7834 87.6373L304.8591 101.7591" fill="none" stroke="#aaa" stroke-opacity="0.5" stroke-width="0.5"></path><path d="M121.7834 87.6373L273.8376 201.6029" fill="none" stroke="#aaa" stroke-opacity="0.5" stroke-width="0.5"></path><path d="M142.3335 60.9931L306.1399 136.9841" fill="none" stroke="#aaa" stroke-opacity="0.5" stroke-width="0.5"></path><path d="M121.7834 87.6373L199.7548 34.5134" fill="none" stroke="#aaa" stroke-opacity="0.5" stroke-width="0.5"></path><path d="M138.3278 192.4726L235.4838 73.6239" fill="none" stroke="#aaa" stroke-opacity="0.5" stroke-width="0.5"></path><path d="M234.1048 183.293L118.8035 157.9631" fill="none" stroke="#aaa" stroke-opacity="0.5" stroke-width="0.5"></path><path d="M273.8376 201.6029L304.8591 101.7591" fill="none" stroke="#aaa" stroke-opacity="0.5" stroke-width="0.5"></path><path d="M231.959 27.9162L262.961 107.589" fill="none" stroke="#aaa" stroke-opacity="0.5" stroke-width="0.5"></path><path d="M118.8035 157.9631L114.8487 122.0429" fill="none" stroke="#aaa" stroke-opacity="0.5" stroke-width="0.5"></path><path d="M265.8735 44.7225L158.7203 154.8271" fill="none" stroke="#aaa" stroke-opacity="0.5" stroke-width="0.5"></path><path d="M121.7834 87.6373L114.8487 122.0429" fill="none" stroke="#aaa" stroke-opacity="0.5" stroke-width="0.5"></path><path d="M114.8487 122.0429L290.1658 69.7952" fill="none" stroke="#aaa" stroke-opacity="0.5" stroke-width="0.5"></path><path d="M158.7203 154.8271L306.1399 136.9841" fill="none" stroke="#aaa" stroke-opacity="0.5" stroke-width="0.5"></path><path d="M273.8376 201.6029L290.1658 69.7952" fill="none" stroke="#aaa" stroke-opacity="0.5" stroke-width="0.5"></path><path d="M265.8735 44.7225L168.2113 208.7008" fill="none" stroke="#aaa" stroke-opacity="0.5" stroke-width="0.5"></path><path d="M231.959 27.9162L167.4022 38.142" fill="none" stroke="#aaa" stroke-opacity="0.5" stroke-width="0.5"></path><path d="M138.3278 192.4726L196.2642 169.2164" fill="none" stroke="#aaa" stroke-opacity="0.5" stroke-width="0.5"></path><path d="M265.8735 44.7225L261.8815 150.1189" fill="none" stroke="#aaa" stroke-opacity="0.5" stroke-width="0.5"></path><path d="M118.8035 157.9631L306.1399 136.9841" fill="none" stroke="#aaa" stroke-opacity="0.5" stroke-width="0.5"></path><path d="M237.2239 220.9811L304.8591 101.7591" fill="none" stroke="#aaa" stroke-opacity="0.5" stroke-width="0.5"></path><path d="M118.8035 157.9631L138.3278 192.4726" fill="none" stroke="#aaa" stroke-opacity="0.5" stroke-width="0.5"></path><path d="M237.2239 220.9811L273.8376 201.6029" fill="none" stroke="#aaa" stroke-opacity="0.5" stroke-width="0.5"></path><path d="M262.961 107.589L201.254 220.5541" fill="none" stroke="#aaa" stroke-opacity="0.5" stroke-width="0.5"></path><path d="M187.9113 78.4905L265.8735 44.7225" fill="none" stroke="#aaa" stroke-opacity="0.5" stroke-width="0.5"></path><path d="M121.7834 87.6373L306.1399 136.9841" fill="none" stroke="#aaa" stroke-opacity="0.5" stroke-width="0.5"></path><path d="M121.7834 87.6373L138.3278 192.4726" fill="none" stroke="#aaa" stroke-opacity="0.5" stroke-width="0.5"></path><path d="M237.2239 220.9811L290.1658 69.7952" fill="none" stroke="#aaa" stroke-opacity="0.5" stroke-width="0.5"></path><path d="M273.8376 201.6029L306.1399 136.9841" fill="none" stroke="#aaa" stroke-opacity="0.5" stroke-width="0.5"></path><path d="M273.8376 201.6029L138.3278 192.4726" fill="none" stroke="#aaa" stroke-opacity="0.5" stroke-width="0.5"></path><path d="M231.959 27.9162L157.5937 111.3602" fill="none" stroke="#aaa" stroke-opacity="0.5" stroke-width="0.5"></path><path d="M1 0A1 1 0 1 1 1 -0.0001" fill="#5470c6" transform="matrix(17.5,0,0,17.5,297.708,172.6807)"></path><path d="M1 0A1 1 0 1 1 1 -0.0001" fill="#5470c6" transform="matrix(17.5,0,0,17.5,304.8591,101.7591)"></path><path d="M1 0A1 1 0 1 1 1 -0.0001" fill="#5470c6" transform="matrix(17.5,0,0,17.5,306.1399,136.9841)"></path><path d="M1 0A1 1 0 1 1 1 -0.0001" fill="#5470c6" transform="matrix(17.5,0,0,17.5,273.8376,201.6029)"></path><path d="M1 0A1 1 0 1 1 1 -0.0001" fill="#5470c6" transform="matrix(17.5,0,0,17.5,234.1048,183.293)"></path><path d="M1 0A1 1 0 1 1 1 -0.0001" fill="#5470c6" transform="matrix(17.5,0,0,17.5,237.2239,220.9811)"></path><path d="M1 0A1 1 0 1 1 1 -0.0001" fill="#5470c6" transform="matrix(17.5,0,0,17.5,201.254,220.5541)"></path><path d="M1 0A1 1 0 1 1 1 -0.0001" fill="#5470c6" transform="matrix(17.5,0,0,17.5,196.2642,169.2164)"></path><path d="M1 0A1 1 0 1 1 1 -0.0001" fill="#5470c6" transform="matrix(17.5,0,0,17.5,168.2113,208.7008)"></path><path d="M1 0A1 1 0 1 1 1 -0.0001" fill="#5470c6" transform="matrix(17.5,0,0,17.5,138.3278,192.4726)"></path><path d="M1 0A1 1 0 1 1 1 -0.0001" fill="#5470c6" transform="matrix(17.5,0,0,17.5,158.7203,154.8271)"></path><path d="M1 0A1 1 0 1 1 1 -0.0001" fill="#5470c6" transform="matrix(17.5,0,0,17.5,118.8035,157.9631)"></path><path d="M1 0A1 1 0 1 1 1 -0.0001" fill="#5470c6" transform="matrix(17.5,0,0,17.5,114.8487,122.0429)"></path><path d="M1 0A1 1 0 1 1 1 -0.0001" fill="#5470c6" transform="matrix(17.5,0,0,17.5,157.5937,111.3602)"></path><path d="M1 0A1 1 0 1 1 1 -0.0001" fill="#5470c6" transform="matrix(17.5,0,0,17.5,213.866,122.0199)"></path><path d="M1 0A1 1 0 1 1 1 -0.0001" fill="#5470c6" transform="matrix(17.5,0,0,17.5,121.7834,87.6373)"></path><path d="M1 0A1 1 0 1 1 1 -0.0001" fill="#5470c6" transform="matrix(17.5,0,0,17.5,142.3335,60.9931)"></path><path d="M1 0A1 1 0 1 1 1 -0.0001" fill="#5470c6" transform="matrix(17.5,0,0,17.5,187.9113,78.4905)"></path><path d="M1 0A1 1 0 1 1 1 -0.0001" fill="#5470c6" transform="matrix(17.5,0,0,17.5,167.4022,38.142)"></path><path d="M1 0A1 1 0 1 1 1 -0.0001" fill="#5470c6" transform="matrix(17.5,0,0,17.5,199.7548,34.5134)"></path><path d="M1 0A1 1 0 1 1 1 -0.0001" fill="#5470c6" transform="matrix(17.5,0,0,17.5,231.959,27.9162)"></path><path d="M1 0A1 1 0 1 1 1 -0.0001" fill="#5470c6" transform="matrix(17.5,0,0,17.5,235.4838,73.6239)"></path><path d="M1 0A1 1 0 1 1 1 -0.0001" fill="#5470c6" transform="matrix(17.5,0,0,17.5,265.8735,44.7225)"></path><path d="M1 0A1 1 0 1 1 1 -0.0001" fill="#5470c6" transform="matrix(17.5,0,0,17.5,261.8815,150.1189)"></path><path d="M1 0A1 1 0 1 1 1 -0.0001" fill="#5470c6" transform="matrix(17.5,0,0,17.5,290.1658,69.7952)"></path><path d="M1 0A1 1 0 1 1 1 -0.0001" fill="#5470c6" transform="matrix(17.5,0,0,17.5,262.961,107.589)"></path><path d="M-25.1792 -5l50.3584 0l0 32l-50.3584 0Z" fill="rgb(0,0,0)" fill-opacity="0" stroke="#ccc" stroke-width="0" transform="translate(237.5 5)"></path><text dominant-baseline="central" fill="#333" style="font-size:22px;font-family:sans-serif;font-weight:bolder;" text-anchor="middle" transform="translate(237.5 5)" y="11">C36</text></g></svg>