<svg baseprofile="full" height="250" style="position:absolute;left:0;top:0;user-select:none" version="1.1" width="475" xmlns="http://www.w3.org/2000/svg" xmlns:xlink="http://www.w3.org/1999/xlink"><rect fill="none" height="250" id="0" width="475" x="0" y="0"></rect><g><path d="M256.1187 211.1791L223.0095 220.9553" fill="none" stroke="#aaa" stroke-opacity="0.5" stroke-width="0.5"></path><path d="M155.1152 104.8106L115.0458 139.2571" fill="none" stroke="#aaa" stroke-opacity="0.5" stroke-width="0.5"></path><path d="M241.8927 112.2353L256.1187 211.1791" fill="none" stroke="#aaa" stroke-opacity="0.5" stroke-width="0.5"></path><path d="M239.1166 71.2891L271.8407 138.0934" fill="none" stroke="#aaa" stroke-opacity="0.5" stroke-width="0.5"></path><path d="M156.9762 155.0345L256.1187 211.1791" fill="none" stroke="#aaa" stroke-opacity="0.5" stroke-width="0.5"></path><path d="M271.8407 138.0934L296.9208 93.3311" fill="none" stroke="#aaa" stroke-opacity="0.5" stroke-width="0.5"></path><path d="M223.0095 220.9553L311.5115 123.8544" fill="none" stroke="#aaa" stroke-opacity="0.5" stroke-width="0.5"></path><path d="M192.1507 76.1272L241.8927 112.2353" fill="none" stroke="#aaa" stroke-opacity="0.5" stroke-width="0.5"></path><path d="M286.3788 62.0413L157.2675 45.7298" fill="none" stroke="#aaa" stroke-opacity="0.5" stroke-width="0.5"></path><path d="M187.0714 219.7423L233.8726 169.3844" fill="none" stroke="#aaa" stroke-opacity="0.5" stroke-width="0.5"></path><path d="M301.5893 161.8753L296.9208 93.3311" fill="none" stroke="#aaa" stroke-opacity="0.5" stroke-width="0.5"></path><path d="M156.9762 155.0345L296.9208 93.3311" fill="none" stroke="#aaa" stroke-opacity="0.5" stroke-width="0.5"></path><path d="M187.0714 219.7423L188.2703 31.9002" fill="none" stroke="#aaa" stroke-opacity="0.5" stroke-width="0.5"></path><path d="M155.1152 104.8106L256.1187 211.1791" fill="none" stroke="#aaa" stroke-opacity="0.5" stroke-width="0.5"></path><path d="M115.0498 101.811L296.9208 93.3311" fill="none" stroke="#aaa" stroke-opacity="0.5" stroke-width="0.5"></path><path d="M155.1152 104.8106L187.0714 219.7423" fill="none" stroke="#aaa" stroke-opacity="0.5" stroke-width="0.5"></path><path d="M192.1507 76.1272L271.8407 138.0934" fill="none" stroke="#aaa" stroke-opacity="0.5" stroke-width="0.5"></path><path d="M286.3788 62.0413L192.5967 179.3455" fill="none" stroke="#aaa" stroke-opacity="0.5" stroke-width="0.5"></path><path d="M311.5115 123.8544L192.5967 179.3455" fill="none" stroke="#aaa" stroke-opacity="0.5" stroke-width="0.5"></path><path d="M280.983 190.2827L115.0458 139.2571" fill="none" stroke="#aaa" stroke-opacity="0.5" stroke-width="0.5"></path><path d="M132.1515 67.1935L192.5967 179.3455" fill="none" stroke="#aaa" stroke-opacity="0.5" stroke-width="0.5"></path><path d="M192.1507 76.1272L192.5967 179.3455" fill="none" stroke="#aaa" stroke-opacity="0.5" stroke-width="0.5"></path><path d="M239.1166 71.2891L115.0458 139.2571" fill="none" stroke="#aaa" stroke-opacity="0.5" stroke-width="0.5"></path><path d="M192.1507 76.1272L132.1515 67.1935" fill="none" stroke="#aaa" stroke-opacity="0.5" stroke-width="0.5"></path><path d="M115.0458 139.2571L296.9208 93.3311" fill="none" stroke="#aaa" stroke-opacity="0.5" stroke-width="0.5"></path><path d="M223.0095 220.9553L125.4086 175.8812" fill="none" stroke="#aaa" stroke-opacity="0.5" stroke-width="0.5"></path><path d="M286.3788 62.0413L153.0749 204.4654" fill="none" stroke="#aaa" stroke-opacity="0.5" stroke-width="0.5"></path><path d="M233.8726 169.3844L125.4086 175.8812" fill="none" stroke="#aaa" stroke-opacity="0.5" stroke-width="0.5"></path><path d="M286.3788 62.0413L257.5714 37.6479" fill="none" stroke="#aaa" stroke-opacity="0.5" stroke-width="0.5"></path><path d="M280.983 190.2827L256.1187 211.1791" fill="none" stroke="#aaa" stroke-opacity="0.5" stroke-width="0.5"></path><path d="M271.8407 138.0934L125.4086 175.8812" fill="none" stroke="#aaa" stroke-opacity="0.5" stroke-width="0.5"></path><path d="M296.9208 93.3311L125.4086 175.8812" fill="none" stroke="#aaa" stroke-opacity="0.5" stroke-width="0.5"></path><path d="M153.0749 204.4654L196.9317 126.4972" fill="none" stroke="#aaa" stroke-opacity="0.5" stroke-width="0.5"></path><path d="M239.1166 71.2891L256.1187 211.1791" fill="none" stroke="#aaa" stroke-opacity="0.5" stroke-width="0.5"></path><path d="M157.2675 45.7298L311.5115 123.8544" fill="none" stroke="#aaa" stroke-opacity="0.5" stroke-width="0.5"></path><path d="M153.0749 204.4654L221.3572 30.0351" fill="none" stroke="#aaa" stroke-opacity="0.5" stroke-width="0.5"></path><path d="M286.3788 62.0413L280.983 190.2827" fill="none" stroke="#aaa" stroke-opacity="0.5" stroke-width="0.5"></path><path d="M301.5893 161.8753L125.4086 175.8812" fill="none" stroke="#aaa" stroke-opacity="0.5" stroke-width="0.5"></path><path d="M155.1152 104.8106L311.5115 123.8544" fill="none" stroke="#aaa" stroke-opacity="0.5" stroke-width="0.5"></path><path d="M156.9762 155.0345L125.4086 175.8812" fill="none" stroke="#aaa" stroke-opacity="0.5" stroke-width="0.5"></path><path d="M192.1507 76.1272L301.5893 161.8753" fill="none" stroke="#aaa" stroke-opacity="0.5" stroke-width="0.5"></path><path d="M257.5714 37.6479L311.5115 123.8544" fill="none" stroke="#aaa" stroke-opacity="0.5" stroke-width="0.5"></path><path d="M132.1515 67.1935L280.983 190.2827" fill="none" stroke="#aaa" stroke-opacity="0.5" stroke-width="0.5"></path><path d="M192.1507 76.1272L280.983 190.2827" fill="none" stroke="#aaa" stroke-opacity="0.5" stroke-width="0.5"></path><path d="M115.0498 101.811L125.4086 175.8812" fill="none" stroke="#aaa" stroke-opacity="0.5" stroke-width="0.5"></path><path d="M241.8927 112.2353L196.9317 126.4972" fill="none" stroke="#aaa" stroke-opacity="0.5" stroke-width="0.5"></path><path d="M286.3788 62.0413L233.8726 169.3844" fill="none" stroke="#aaa" stroke-opacity="0.5" stroke-width="0.5"></path><path d="M286.3788 62.0413L188.2703 31.9002" fill="none" stroke="#aaa" stroke-opacity="0.5" stroke-width="0.5"></path><path d="M188.2703 31.9002L311.5115 123.8544" fill="none" stroke="#aaa" stroke-opacity="0.5" stroke-width="0.5"></path><path d="M241.8927 112.2353L221.3572 30.0351" fill="none" stroke="#aaa" stroke-opacity="0.5" stroke-width="0.5"></path><path d="M132.1515 67.1935L233.8726 169.3844" fill="none" stroke="#aaa" stroke-opacity="0.5" stroke-width="0.5"></path><path d="M192.1507 76.1272L233.8726 169.3844" fill="none" stroke="#aaa" stroke-opacity="0.5" stroke-width="0.5"></path><path d="M286.3788 62.0413L187.0714 219.7423" fill="none" stroke="#aaa" stroke-opacity="0.5" stroke-width="0.5"></path><path d="M156.9762 155.0345L221.3572 30.0351" fill="none" stroke="#aaa" stroke-opacity="0.5" stroke-width="0.5"></path><path d="M132.1515 67.1935L188.2703 31.9002" fill="none" stroke="#aaa" stroke-opacity="0.5" stroke-width="0.5"></path><path d="M192.1507 76.1272L188.2703 31.9002" fill="none" stroke="#aaa" stroke-opacity="0.5" stroke-width="0.5"></path><path d="M132.1515 67.1935L256.1187 211.1791" fill="none" stroke="#aaa" stroke-opacity="0.5" stroke-width="0.5"></path><path d="M192.1507 76.1272L256.1187 211.1791" fill="none" stroke="#aaa" stroke-opacity="0.5" stroke-width="0.5"></path><path d="M271.8407 138.0934L223.0095 220.9553" fill="none" stroke="#aaa" stroke-opacity="0.5" stroke-width="0.5"></path><path d="M296.9208 93.3311L223.0095 220.9553" fill="none" stroke="#aaa" stroke-opacity="0.5" stroke-width="0.5"></path><path d="M132.1515 67.1935L187.0714 219.7423" fill="none" stroke="#aaa" stroke-opacity="0.5" stroke-width="0.5"></path><path d="M192.1507 76.1272L187.0714 219.7423" fill="none" stroke="#aaa" stroke-opacity="0.5" stroke-width="0.5"></path><path d="M157.2675 45.7298L196.9317 126.4972" fill="none" stroke="#aaa" stroke-opacity="0.5" stroke-width="0.5"></path><path d="M153.0749 204.4654L157.2675 45.7298" fill="none" stroke="#aaa" stroke-opacity="0.5" stroke-width="0.5"></path><path d="M155.1152 104.8106L196.9317 126.4972" fill="none" stroke="#aaa" stroke-opacity="0.5" stroke-width="0.5"></path><path d="M115.0458 139.2571L125.4086 175.8812" fill="none" stroke="#aaa" stroke-opacity="0.5" stroke-width="0.5"></path><path d="M157.2675 45.7298L221.3572 30.0351" fill="none" stroke="#aaa" stroke-opacity="0.5" stroke-width="0.5"></path><path d="M257.5714 37.6479L196.9317 126.4972" fill="none" stroke="#aaa" stroke-opacity="0.5" stroke-width="0.5"></path><path d="M286.3788 62.0413L239.1166 71.2891" fill="none" stroke="#aaa" stroke-opacity="0.5" stroke-width="0.5"></path><path d="M155.1152 104.8106L221.3572 30.0351" fill="none" stroke="#aaa" stroke-opacity="0.5" stroke-width="0.5"></path><path d="M301.5893 161.8753L241.8927 112.2353" fill="none" stroke="#aaa" stroke-opacity="0.5" stroke-width="0.5"></path><path d="M156.9762 155.0345L241.8927 112.2353" fill="none" stroke="#aaa" stroke-opacity="0.5" stroke-width="0.5"></path><path d="M280.983 190.2827L311.5115 123.8544" fill="none" stroke="#aaa" stroke-opacity="0.5" stroke-width="0.5"></path><path d="M188.2703 31.9002L196.9317 126.4972" fill="none" stroke="#aaa" stroke-opacity="0.5" stroke-width="0.5"></path><path d="M187.0714 219.7423L125.4086 175.8812" fill="none" stroke="#aaa" stroke-opacity="0.5" stroke-width="0.5"></path><path d="M192.1507 76.1272L239.1166 71.2891" fill="none" stroke="#aaa" stroke-opacity="0.5" stroke-width="0.5"></path><path d="M115.0498 101.811L241.8927 112.2353" fill="none" stroke="#aaa" stroke-opacity="0.5" stroke-width="0.5"></path><path d="M125.4086 175.8812L311.5115 123.8544" fill="none" stroke="#aaa" stroke-opacity="0.5" stroke-width="0.5"></path><path d="M115.0458 139.2571L221.3572 30.0351" fill="none" stroke="#aaa" stroke-opacity="0.5" stroke-width="0.5"></path><path d="M241.8927 112.2353L157.2675 45.7298" fill="none" stroke="#aaa" stroke-opacity="0.5" stroke-width="0.5"></path><path d="M153.0749 204.4654L192.5967 179.3455" fill="none" stroke="#aaa" stroke-opacity="0.5" stroke-width="0.5"></path><path d="M156.9762 155.0345L157.2675 45.7298" fill="none" stroke="#aaa" stroke-opacity="0.5" stroke-width="0.5"></path><path d="M188.2703 31.9002L221.3572 30.0351" fill="none" stroke="#aaa" stroke-opacity="0.5" stroke-width="0.5"></path><path d="M286.3788 62.0413L296.9208 93.3311" fill="none" stroke="#aaa" stroke-opacity="0.5" stroke-width="0.5"></path><path d="M153.0749 204.4654L132.1515 67.1935" fill="none" stroke="#aaa" stroke-opacity="0.5" stroke-width="0.5"></path><path d="M301.5893 161.8753L271.8407 138.0934" fill="none" stroke="#aaa" stroke-opacity="0.5" stroke-width="0.5"></path><path d="M156.9762 155.0345L271.8407 138.0934" fill="none" stroke="#aaa" stroke-opacity="0.5" stroke-width="0.5"></path><path d="M241.8927 112.2353L192.5967 179.3455" fill="none" stroke="#aaa" stroke-opacity="0.5" stroke-width="0.5"></path><path d="M115.0498 101.811L271.8407 138.0934" fill="none" stroke="#aaa" stroke-opacity="0.5" stroke-width="0.5"></path><path d="M271.8407 138.0934L132.1515 67.1935" fill="none" stroke="#aaa" stroke-opacity="0.5" stroke-width="0.5"></path><path d="M256.1187 211.1791L311.5115 123.8544" fill="none" stroke="#aaa" stroke-opacity="0.5" stroke-width="0.5"></path><path d="M156.9762 155.0345L192.5967 179.3455" fill="none" stroke="#aaa" stroke-opacity="0.5" stroke-width="0.5"></path><path d="M155.1152 104.8106L157.2675 45.7298" fill="none" stroke="#aaa" stroke-opacity="0.5" stroke-width="0.5"></path><path d="M280.983 190.2827L196.9317 126.4972" fill="none" stroke="#aaa" stroke-opacity="0.5" stroke-width="0.5"></path><path d="M196.9317 126.4972L221.3572 30.0351" fill="none" stroke="#aaa" stroke-opacity="0.5" stroke-width="0.5"></path><path d="M115.0498 101.811L192.5967 179.3455" fill="none" stroke="#aaa" stroke-opacity="0.5" stroke-width="0.5"></path><path d="M153.0749 204.4654L257.5714 37.6479" fill="none" stroke="#aaa" stroke-opacity="0.5" stroke-width="0.5"></path><path d="M125.4086 175.8812L196.9317 126.4972" fill="none" stroke="#aaa" stroke-opacity="0.5" stroke-width="0.5"></path><path d="M132.1515 67.1935L311.5115 123.8544" fill="none" stroke="#aaa" stroke-opacity="0.5" stroke-width="0.5"></path><path d="M192.1507 76.1272L311.5115 123.8544" fill="none" stroke="#aaa" stroke-opacity="0.5" stroke-width="0.5"></path><path d="M241.8927 112.2353L132.1515 67.1935" fill="none" stroke="#aaa" stroke-opacity="0.5" stroke-width="0.5"></path><path d="M155.1152 104.8106L223.0095 220.9553" fill="none" stroke="#aaa" stroke-opacity="0.5" stroke-width="0.5"></path><path d="M280.983 190.2827L221.3572 30.0351" fill="none" stroke="#aaa" stroke-opacity="0.5" stroke-width="0.5"></path><path d="M301.5893 161.8753L132.1515 67.1935" fill="none" stroke="#aaa" stroke-opacity="0.5" stroke-width="0.5"></path><path d="M239.1166 71.2891L196.9317 126.4972" fill="none" stroke="#aaa" stroke-opacity="0.5" stroke-width="0.5"></path><path d="M156.9762 155.0345L132.1515 67.1935" fill="none" stroke="#aaa" stroke-opacity="0.5" stroke-width="0.5"></path><path d="M192.1507 76.1272L155.1152 104.8106" fill="none" stroke="#aaa" stroke-opacity="0.5" stroke-width="0.5"></path><path d="M125.4086 175.8812L221.3572 30.0351" fill="none" stroke="#aaa" stroke-opacity="0.5" stroke-width="0.5"></path><path d="M188.2703 31.9002L157.2675 45.7298" fill="none" stroke="#aaa" stroke-opacity="0.5" stroke-width="0.5"></path><path d="M157.2675 45.7298L192.5967 179.3455" fill="none" stroke="#aaa" stroke-opacity="0.5" stroke-width="0.5"></path><path d="M115.0498 101.811L132.1515 67.1935" fill="none" stroke="#aaa" stroke-opacity="0.5" stroke-width="0.5"></path><path d="M239.1166 71.2891L221.3572 30.0351" fill="none" stroke="#aaa" stroke-opacity="0.5" stroke-width="0.5"></path><path d="M155.1152 104.8106L192.5967 179.3455" fill="none" stroke="#aaa" stroke-opacity="0.5" stroke-width="0.5"></path><path d="M241.8927 112.2353L153.0749 204.4654" fill="none" stroke="#aaa" stroke-opacity="0.5" stroke-width="0.5"></path><path d="M271.8407 138.0934L115.0458 139.2571" fill="none" stroke="#aaa" stroke-opacity="0.5" stroke-width="0.5"></path><path d="M156.9762 155.0345L153.0749 204.4654" fill="none" stroke="#aaa" stroke-opacity="0.5" stroke-width="0.5"></path><path d="M241.8927 112.2353L257.5714 37.6479" fill="none" stroke="#aaa" stroke-opacity="0.5" stroke-width="0.5"></path><path d="M153.0749 204.4654L280.983 190.2827" fill="none" stroke="#aaa" stroke-opacity="0.5" stroke-width="0.5"></path><path d="M256.1187 211.1791L196.9317 126.4972" fill="none" stroke="#aaa" stroke-opacity="0.5" stroke-width="0.5"></path><path d="M115.0458 139.2571L192.5967 179.3455" fill="none" stroke="#aaa" stroke-opacity="0.5" stroke-width="0.5"></path><path d="M188.2703 31.9002L192.5967 179.3455" fill="none" stroke="#aaa" stroke-opacity="0.5" stroke-width="0.5"></path><path d="M155.1152 104.8106L286.3788 62.0413" fill="none" stroke="#aaa" stroke-opacity="0.5" stroke-width="0.5"></path><path d="M153.0749 204.4654L233.8726 169.3844" fill="none" stroke="#aaa" stroke-opacity="0.5" stroke-width="0.5"></path><path d="M256.1187 211.1791L221.3572 30.0351" fill="none" stroke="#aaa" stroke-opacity="0.5" stroke-width="0.5"></path><path d="M132.1515 67.1935L196.9317 126.4972" fill="none" stroke="#aaa" stroke-opacity="0.5" stroke-width="0.5"></path><path d="M192.1507 76.1272L196.9317 126.4972" fill="none" stroke="#aaa" stroke-opacity="0.5" stroke-width="0.5"></path><path d="M153.0749 204.4654L188.2703 31.9002" fill="none" stroke="#aaa" stroke-opacity="0.5" stroke-width="0.5"></path><path d="M157.2675 45.7298L257.5714 37.6479" fill="none" stroke="#aaa" stroke-opacity="0.5" stroke-width="0.5"></path><path d="M280.983 190.2827L157.2675 45.7298" fill="none" stroke="#aaa" stroke-opacity="0.5" stroke-width="0.5"></path><path d="M153.0749 204.4654L187.0714 219.7423" fill="none" stroke="#aaa" stroke-opacity="0.5" stroke-width="0.5"></path><path d="M155.1152 104.8106L153.0749 204.4654" fill="none" stroke="#aaa" stroke-opacity="0.5" stroke-width="0.5"></path><path d="M132.1515 67.1935L221.3572 30.0351" fill="none" stroke="#aaa" stroke-opacity="0.5" stroke-width="0.5"></path><path d="M286.3788 62.0413L125.4086 175.8812" fill="none" stroke="#aaa" stroke-opacity="0.5" stroke-width="0.5"></path><path d="M241.8927 112.2353L280.983 190.2827" fill="none" stroke="#aaa" stroke-opacity="0.5" stroke-width="0.5"></path><path d="M155.1152 104.8106L257.5714 37.6479" fill="none" stroke="#aaa" stroke-opacity="0.5" stroke-width="0.5"></path><path d="M125.4086 175.8812L157.2675 45.7298" fill="none" stroke="#aaa" stroke-opacity="0.5" stroke-width="0.5"></path><path d="M156.9762 155.0345L280.983 190.2827" fill="none" stroke="#aaa" stroke-opacity="0.5" stroke-width="0.5"></path><path d="M271.8407 138.0934L256.1187 211.1791" fill="none" stroke="#aaa" stroke-opacity="0.5" stroke-width="0.5"></path><path d="M296.9208 93.3311L256.1187 211.1791" fill="none" stroke="#aaa" stroke-opacity="0.5" stroke-width="0.5"></path><path d="M280.983 190.2827L223.0095 220.9553" fill="none" stroke="#aaa" stroke-opacity="0.5" stroke-width="0.5"></path><path d="M239.1166 71.2891L157.2675 45.7298" fill="none" stroke="#aaa" stroke-opacity="0.5" stroke-width="0.5"></path><path d="M115.0498 101.811L301.5893 161.8753" fill="none" stroke="#aaa" stroke-opacity="0.5" stroke-width="0.5"></path><path d="M241.8927 112.2353L233.8726 169.3844" fill="none" stroke="#aaa" stroke-opacity="0.5" stroke-width="0.5"></path><path d="M301.5893 161.8753L233.8726 169.3844" fill="none" stroke="#aaa" stroke-opacity="0.5" stroke-width="0.5"></path><path d="M156.9762 155.0345L233.8726 169.3844" fill="none" stroke="#aaa" stroke-opacity="0.5" stroke-width="0.5"></path><path d="M196.9317 126.4972L192.5967 179.3455" fill="none" stroke="#aaa" stroke-opacity="0.5" stroke-width="0.5"></path><path d="M241.8927 112.2353L188.2703 31.9002" fill="none" stroke="#aaa" stroke-opacity="0.5" stroke-width="0.5"></path><path d="M156.9762 155.0345L188.2703 31.9002" fill="none" stroke="#aaa" stroke-opacity="0.5" stroke-width="0.5"></path><path d="M301.5893 161.8753L256.1187 211.1791" fill="none" stroke="#aaa" stroke-opacity="0.5" stroke-width="0.5"></path><path d="M188.2703 31.9002L257.5714 37.6479" fill="none" stroke="#aaa" stroke-opacity="0.5" stroke-width="0.5"></path><path d="M241.8927 112.2353L187.0714 219.7423" fill="none" stroke="#aaa" stroke-opacity="0.5" stroke-width="0.5"></path><path d="M280.983 190.2827L192.5967 179.3455" fill="none" stroke="#aaa" stroke-opacity="0.5" stroke-width="0.5"></path><path d="M115.0498 101.811L233.8726 169.3844" fill="none" stroke="#aaa" stroke-opacity="0.5" stroke-width="0.5"></path><path d="M301.5893 161.8753L187.0714 219.7423" fill="none" stroke="#aaa" stroke-opacity="0.5" stroke-width="0.5"></path><path d="M156.9762 155.0345L187.0714 219.7423" fill="none" stroke="#aaa" stroke-opacity="0.5" stroke-width="0.5"></path><path d="M115.0498 101.811L188.2703 31.9002" fill="none" stroke="#aaa" stroke-opacity="0.5" stroke-width="0.5"></path><path d="M125.4086 175.8812L192.5967 179.3455" fill="none" stroke="#aaa" stroke-opacity="0.5" stroke-width="0.5"></path><path d="M115.0498 101.811L256.1187 211.1791" fill="none" stroke="#aaa" stroke-opacity="0.5" stroke-width="0.5"></path><path d="M155.1152 104.8106L280.983 190.2827" fill="none" stroke="#aaa" stroke-opacity="0.5" stroke-width="0.5"></path><path d="M239.1166 71.2891L192.5967 179.3455" fill="none" stroke="#aaa" stroke-opacity="0.5" stroke-width="0.5"></path><path d="M256.1187 211.1791L157.2675 45.7298" fill="none" stroke="#aaa" stroke-opacity="0.5" stroke-width="0.5"></path><path d="M115.0498 101.811L187.0714 219.7423" fill="none" stroke="#aaa" stroke-opacity="0.5" stroke-width="0.5"></path><path d="M155.1152 104.8106L233.8726 169.3844" fill="none" stroke="#aaa" stroke-opacity="0.5" stroke-width="0.5"></path><path d="M132.1515 67.1935L157.2675 45.7298" fill="none" stroke="#aaa" stroke-opacity="0.5" stroke-width="0.5"></path><path d="M286.3788 62.0413L223.0095 220.9553" fill="none" stroke="#aaa" stroke-opacity="0.5" stroke-width="0.5"></path><path d="M192.1507 76.1272L157.2675 45.7298" fill="none" stroke="#aaa" stroke-opacity="0.5" stroke-width="0.5"></path><path d="M153.0749 204.4654L296.9208 93.3311" fill="none" stroke="#aaa" stroke-opacity="0.5" stroke-width="0.5"></path><path d="M239.1166 71.2891L132.1515 67.1935" fill="none" stroke="#aaa" stroke-opacity="0.5" stroke-width="0.5"></path><path d="M155.1152 104.8106L188.2703 31.9002" fill="none" stroke="#aaa" stroke-opacity="0.5" stroke-width="0.5"></path><path d="M241.8927 112.2353L239.1166 71.2891" fill="none" stroke="#aaa" stroke-opacity="0.5" stroke-width="0.5"></path><path d="M286.3788 62.0413L241.8927 112.2353" fill="none" stroke="#aaa" stroke-opacity="0.5" stroke-width="0.5"></path><path d="M132.1515 67.1935L223.0095 220.9553" fill="none" stroke="#aaa" stroke-opacity="0.5" stroke-width="0.5"></path><path d="M192.1507 76.1272L223.0095 220.9553" fill="none" stroke="#aaa" stroke-opacity="0.5" stroke-width="0.5"></path><path d="M301.5893 161.8753L239.1166 71.2891" fill="none" stroke="#aaa" stroke-opacity="0.5" stroke-width="0.5"></path><path d="M156.9762 155.0345L239.1166 71.2891" fill="none" stroke="#aaa" stroke-opacity="0.5" stroke-width="0.5"></path><path d="M115.0458 139.2571L233.8726 169.3844" fill="none" stroke="#aaa" stroke-opacity="0.5" stroke-width="0.5"></path><path d="M256.1187 211.1791L192.5967 179.3455" fill="none" stroke="#aaa" stroke-opacity="0.5" stroke-width="0.5"></path><path d="M280.983 190.2827L257.5714 37.6479" fill="none" stroke="#aaa" stroke-opacity="0.5" stroke-width="0.5"></path><path d="M188.2703 31.9002L233.8726 169.3844" fill="none" stroke="#aaa" stroke-opacity="0.5" stroke-width="0.5"></path><path d="M115.0458 139.2571L188.2703 31.9002" fill="none" stroke="#aaa" stroke-opacity="0.5" stroke-width="0.5"></path><path d="M115.0458 139.2571L256.1187 211.1791" fill="none" stroke="#aaa" stroke-opacity="0.5" stroke-width="0.5"></path><path d="M115.0498 101.811L239.1166 71.2891" fill="none" stroke="#aaa" stroke-opacity="0.5" stroke-width="0.5"></path><path d="M239.1166 71.2891L153.0749 204.4654" fill="none" stroke="#aaa" stroke-opacity="0.5" stroke-width="0.5"></path><path d="M125.4086 175.8812L257.5714 37.6479" fill="none" stroke="#aaa" stroke-opacity="0.5" stroke-width="0.5"></path><path d="M115.0458 139.2571L187.0714 219.7423" fill="none" stroke="#aaa" stroke-opacity="0.5" stroke-width="0.5"></path><path d="M233.8726 169.3844L311.5115 123.8544" fill="none" stroke="#aaa" stroke-opacity="0.5" stroke-width="0.5"></path><path d="M239.1166 71.2891L257.5714 37.6479" fill="none" stroke="#aaa" stroke-opacity="0.5" stroke-width="0.5"></path><path d="M153.0749 204.4654L311.5115 123.8544" fill="none" stroke="#aaa" stroke-opacity="0.5" stroke-width="0.5"></path><path d="M241.8927 112.2353L296.9208 93.3311" fill="none" stroke="#aaa" stroke-opacity="0.5" stroke-width="0.5"></path><path d="M115.0498 101.811L192.1507 76.1272" fill="none" stroke="#aaa" stroke-opacity="0.5" stroke-width="0.5"></path><path d="M187.0714 219.7423L256.1187 211.1791" fill="none" stroke="#aaa" stroke-opacity="0.5" stroke-width="0.5"></path><path d="M286.3788 62.0413L271.8407 138.0934" fill="none" stroke="#aaa" stroke-opacity="0.5" stroke-width="0.5"></path><path d="M271.8407 138.0934L311.5115 123.8544" fill="none" stroke="#aaa" stroke-opacity="0.5" stroke-width="0.5"></path><path d="M155.1152 104.8106L239.1166 71.2891" fill="none" stroke="#aaa" stroke-opacity="0.5" stroke-width="0.5"></path><path d="M296.9208 93.3311L311.5115 123.8544" fill="none" stroke="#aaa" stroke-opacity="0.5" stroke-width="0.5"></path><path d="M192.1507 76.1272L286.3788 62.0413" fill="none" stroke="#aaa" stroke-opacity="0.5" stroke-width="0.5"></path><path d="M256.1187 211.1791L257.5714 37.6479" fill="none" stroke="#aaa" stroke-opacity="0.5" stroke-width="0.5"></path><path d="M241.8927 112.2353L311.5115 123.8544" fill="none" stroke="#aaa" stroke-opacity="0.5" stroke-width="0.5"></path><path d="M301.5893 161.8753L311.5115 123.8544" fill="none" stroke="#aaa" stroke-opacity="0.5" stroke-width="0.5"></path><path d="M239.1166 71.2891L280.983 190.2827" fill="none" stroke="#aaa" stroke-opacity="0.5" stroke-width="0.5"></path><path d="M156.9762 155.0345L311.5115 123.8544" fill="none" stroke="#aaa" stroke-opacity="0.5" stroke-width="0.5"></path><path d="M223.0095 220.9553L196.9317 126.4972" fill="none" stroke="#aaa" stroke-opacity="0.5" stroke-width="0.5"></path><path d="M280.983 190.2827L233.8726 169.3844" fill="none" stroke="#aaa" stroke-opacity="0.5" stroke-width="0.5"></path><path d="M221.3572 30.0351L192.5967 179.3455" fill="none" stroke="#aaa" stroke-opacity="0.5" stroke-width="0.5"></path><path d="M192.1507 76.1272L153.0749 204.4654" fill="none" stroke="#aaa" stroke-opacity="0.5" stroke-width="0.5"></path><path d="M155.1152 104.8106L296.9208 93.3311" fill="none" stroke="#aaa" stroke-opacity="0.5" stroke-width="0.5"></path><path d="M301.5893 161.8753L155.1152 104.8106" fill="none" stroke="#aaa" stroke-opacity="0.5" stroke-width="0.5"></path><path d="M280.983 190.2827L188.2703 31.9002" fill="none" stroke="#aaa" stroke-opacity="0.5" stroke-width="0.5"></path><path d="M156.9762 155.0345L155.1152 104.8106" fill="none" stroke="#aaa" stroke-opacity="0.5" stroke-width="0.5"></path><path d="M286.3788 62.0413L132.1515 67.1935" fill="none" stroke="#aaa" stroke-opacity="0.5" stroke-width="0.5"></path><path d="M132.1515 67.1935L257.5714 37.6479" fill="none" stroke="#aaa" stroke-opacity="0.5" stroke-width="0.5"></path><path d="M192.1507 76.1272L257.5714 37.6479" fill="none" stroke="#aaa" stroke-opacity="0.5" stroke-width="0.5"></path><path d="M233.8726 169.3844L196.9317 126.4972" fill="none" stroke="#aaa" stroke-opacity="0.5" stroke-width="0.5"></path><path d="M115.0498 101.811L311.5115 123.8544" fill="none" stroke="#aaa" stroke-opacity="0.5" stroke-width="0.5"></path><path d="M223.0095 220.9553L221.3572 30.0351" fill="none" stroke="#aaa" stroke-opacity="0.5" stroke-width="0.5"></path><path d="M239.1166 71.2891L233.8726 169.3844" fill="none" stroke="#aaa" stroke-opacity="0.5" stroke-width="0.5"></path><path d="M280.983 190.2827L187.0714 219.7423" fill="none" stroke="#aaa" stroke-opacity="0.5" stroke-width="0.5"></path><path d="M115.0498 101.811L155.1152 104.8106" fill="none" stroke="#aaa" stroke-opacity="0.5" stroke-width="0.5"></path><path d="M239.1166 71.2891L188.2703 31.9002" fill="none" stroke="#aaa" stroke-opacity="0.5" stroke-width="0.5"></path><path d="M233.8726 169.3844L221.3572 30.0351" fill="none" stroke="#aaa" stroke-opacity="0.5" stroke-width="0.5"></path><path d="M239.1166 71.2891L187.0714 219.7423" fill="none" stroke="#aaa" stroke-opacity="0.5" stroke-width="0.5"></path><path d="M271.8407 138.0934L196.9317 126.4972" fill="none" stroke="#aaa" stroke-opacity="0.5" stroke-width="0.5"></path><path d="M296.9208 93.3311L196.9317 126.4972" fill="none" stroke="#aaa" stroke-opacity="0.5" stroke-width="0.5"></path><path d="M153.0749 204.4654L125.4086 175.8812" fill="none" stroke="#aaa" stroke-opacity="0.5" stroke-width="0.5"></path><path d="M271.8407 138.0934L221.3572 30.0351" fill="none" stroke="#aaa" stroke-opacity="0.5" stroke-width="0.5"></path><path d="M296.9208 93.3311L221.3572 30.0351" fill="none" stroke="#aaa" stroke-opacity="0.5" stroke-width="0.5"></path><path d="M256.1187 211.1791L233.8726 169.3844" fill="none" stroke="#aaa" stroke-opacity="0.5" stroke-width="0.5"></path><path d="M286.3788 62.0413L115.0458 139.2571" fill="none" stroke="#aaa" stroke-opacity="0.5" stroke-width="0.5"></path><path d="M301.5893 161.8753L196.9317 126.4972" fill="none" stroke="#aaa" stroke-opacity="0.5" stroke-width="0.5"></path><path d="M156.9762 155.0345L196.9317 126.4972" fill="none" stroke="#aaa" stroke-opacity="0.5" stroke-width="0.5"></path><path d="M115.0458 139.2571L311.5115 123.8544" fill="none" stroke="#aaa" stroke-opacity="0.5" stroke-width="0.5"></path><path d="M256.1187 211.1791L188.2703 31.9002" fill="none" stroke="#aaa" stroke-opacity="0.5" stroke-width="0.5"></path><path d="M132.1515 67.1935L115.0458 139.2571" fill="none" stroke="#aaa" stroke-opacity="0.5" stroke-width="0.5"></path><path d="M192.1507 76.1272L115.0458 139.2571" fill="none" stroke="#aaa" stroke-opacity="0.5" stroke-width="0.5"></path><path d="M115.0498 101.811L196.9317 126.4972" fill="none" stroke="#aaa" stroke-opacity="0.5" stroke-width="0.5"></path><path d="M301.5893 161.8753L221.3572 30.0351" fill="none" stroke="#aaa" stroke-opacity="0.5" stroke-width="0.5"></path><path d="M223.0095 220.9553L157.2675 45.7298" fill="none" stroke="#aaa" stroke-opacity="0.5" stroke-width="0.5"></path><path d="M241.8927 112.2353L125.4086 175.8812" fill="none" stroke="#aaa" stroke-opacity="0.5" stroke-width="0.5"></path><path d="M187.0714 219.7423L311.5115 123.8544" fill="none" stroke="#aaa" stroke-opacity="0.5" stroke-width="0.5"></path><path d="M115.0498 101.811L221.3572 30.0351" fill="none" stroke="#aaa" stroke-opacity="0.5" stroke-width="0.5"></path><path d="M280.983 190.2827L296.9208 93.3311" fill="none" stroke="#aaa" stroke-opacity="0.5" stroke-width="0.5"></path><path d="M192.1507 76.1272L156.9762 155.0345" fill="none" stroke="#aaa" stroke-opacity="0.5" stroke-width="0.5"></path><path d="M233.8726 169.3844L157.2675 45.7298" fill="none" stroke="#aaa" stroke-opacity="0.5" stroke-width="0.5"></path><path d="M239.1166 71.2891L296.9208 93.3311" fill="none" stroke="#aaa" stroke-opacity="0.5" stroke-width="0.5"></path><path d="M233.8726 169.3844L223.0095 220.9553" fill="none" stroke="#aaa" stroke-opacity="0.5" stroke-width="0.5"></path><path d="M286.3788 62.0413L256.1187 211.1791" fill="none" stroke="#aaa" stroke-opacity="0.5" stroke-width="0.5"></path><path d="M153.0749 204.4654L223.0095 220.9553" fill="none" stroke="#aaa" stroke-opacity="0.5" stroke-width="0.5"></path><path d="M271.8407 138.0934L157.2675 45.7298" fill="none" stroke="#aaa" stroke-opacity="0.5" stroke-width="0.5"></path><path d="M296.9208 93.3311L157.2675 45.7298" fill="none" stroke="#aaa" stroke-opacity="0.5" stroke-width="0.5"></path><path d="M223.0095 220.9553L192.5967 179.3455" fill="none" stroke="#aaa" stroke-opacity="0.5" stroke-width="0.5"></path><path d="M115.0458 139.2571L196.9317 126.4972" fill="none" stroke="#aaa" stroke-opacity="0.5" stroke-width="0.5"></path><path d="M155.1152 104.8106L125.4086 175.8812" fill="none" stroke="#aaa" stroke-opacity="0.5" stroke-width="0.5"></path><path d="M233.8726 169.3844L192.5967 179.3455" fill="none" stroke="#aaa" stroke-opacity="0.5" stroke-width="0.5"></path><path d="M239.1166 71.2891L311.5115 123.8544" fill="none" stroke="#aaa" stroke-opacity="0.5" stroke-width="0.5"></path><path d="M301.5893 161.8753L157.2675 45.7298" fill="none" stroke="#aaa" stroke-opacity="0.5" stroke-width="0.5"></path><path d="M187.0714 219.7423L196.9317 126.4972" fill="none" stroke="#aaa" stroke-opacity="0.5" stroke-width="0.5"></path><path d="M241.8927 112.2353L223.0095 220.9553" fill="none" stroke="#aaa" stroke-opacity="0.5" stroke-width="0.5"></path><path d="M301.5893 161.8753L223.0095 220.9553" fill="none" stroke="#aaa" stroke-opacity="0.5" stroke-width="0.5"></path><path d="M271.8407 138.0934L192.5967 179.3455" fill="none" stroke="#aaa" stroke-opacity="0.5" stroke-width="0.5"></path><path d="M115.0498 101.811L157.2675 45.7298" fill="none" stroke="#aaa" stroke-opacity="0.5" stroke-width="0.5"></path><path d="M156.9762 155.0345L223.0095 220.9553" fill="none" stroke="#aaa" stroke-opacity="0.5" stroke-width="0.5"></path><path d="M188.2703 31.9002L125.4086 175.8812" fill="none" stroke="#aaa" stroke-opacity="0.5" stroke-width="0.5"></path><path d="M296.9208 93.3311L192.5967 179.3455" fill="none" stroke="#aaa" stroke-opacity="0.5" stroke-width="0.5"></path><path d="M132.1515 67.1935L296.9208 93.3311" fill="none" stroke="#aaa" stroke-opacity="0.5" stroke-width="0.5"></path><path d="M192.1507 76.1272L296.9208 93.3311" fill="none" stroke="#aaa" stroke-opacity="0.5" stroke-width="0.5"></path><path d="M187.0714 219.7423L221.3572 30.0351" fill="none" stroke="#aaa" stroke-opacity="0.5" stroke-width="0.5"></path><path d="M115.0498 101.811L223.0095 220.9553" fill="none" stroke="#aaa" stroke-opacity="0.5" stroke-width="0.5"></path><path d="M257.5714 37.6479L221.3572 30.0351" fill="none" stroke="#aaa" stroke-opacity="0.5" stroke-width="0.5"></path><path d="M223.0095 220.9553L257.5714 37.6479" fill="none" stroke="#aaa" stroke-opacity="0.5" stroke-width="0.5"></path><path d="M301.5893 161.8753L192.5967 179.3455" fill="none" stroke="#aaa" stroke-opacity="0.5" stroke-width="0.5"></path><path d="M233.8726 169.3844L257.5714 37.6479" fill="none" stroke="#aaa" stroke-opacity="0.5" stroke-width="0.5"></path><path d="M271.8407 138.0934L153.0749 204.4654" fill="none" stroke="#aaa" stroke-opacity="0.5" stroke-width="0.5"></path><path d="M115.0458 139.2571L157.2675 45.7298" fill="none" stroke="#aaa" stroke-opacity="0.5" stroke-width="0.5"></path><path d="M241.8927 112.2353L271.8407 138.0934" fill="none" stroke="#aaa" stroke-opacity="0.5" stroke-width="0.5"></path><path d="M301.5893 161.8753L286.3788 62.0413" fill="none" stroke="#aaa" stroke-opacity="0.5" stroke-width="0.5"></path><path d="M155.1152 104.8106L241.8927 112.2353" fill="none" stroke="#aaa" stroke-opacity="0.5" stroke-width="0.5"></path><path d="M156.9762 155.0345L286.3788 62.0413" fill="none" stroke="#aaa" stroke-opacity="0.5" stroke-width="0.5"></path><path d="M271.8407 138.0934L257.5714 37.6479" fill="none" stroke="#aaa" stroke-opacity="0.5" stroke-width="0.5"></path><path d="M296.9208 93.3311L257.5714 37.6479" fill="none" stroke="#aaa" stroke-opacity="0.5" stroke-width="0.5"></path><path d="M280.983 190.2827L125.4086 175.8812" fill="none" stroke="#aaa" stroke-opacity="0.5" stroke-width="0.5"></path><path d="M115.0458 139.2571L223.0095 220.9553" fill="none" stroke="#aaa" stroke-opacity="0.5" stroke-width="0.5"></path><path d="M115.0498 101.811L286.3788 62.0413" fill="none" stroke="#aaa" stroke-opacity="0.5" stroke-width="0.5"></path><path d="M188.2703 31.9002L223.0095 220.9553" fill="none" stroke="#aaa" stroke-opacity="0.5" stroke-width="0.5"></path><path d="M301.5893 161.8753L153.0749 204.4654" fill="none" stroke="#aaa" stroke-opacity="0.5" stroke-width="0.5"></path><path d="M286.3788 62.0413L311.5115 123.8544" fill="none" stroke="#aaa" stroke-opacity="0.5" stroke-width="0.5"></path><path d="M187.0714 219.7423L157.2675 45.7298" fill="none" stroke="#aaa" stroke-opacity="0.5" stroke-width="0.5"></path><path d="M239.1166 71.2891L125.4086 175.8812" fill="none" stroke="#aaa" stroke-opacity="0.5" stroke-width="0.5"></path><path d="M301.5893 161.8753L257.5714 37.6479" fill="none" stroke="#aaa" stroke-opacity="0.5" stroke-width="0.5"></path><path d="M156.9762 155.0345L257.5714 37.6479" fill="none" stroke="#aaa" stroke-opacity="0.5" stroke-width="0.5"></path><path d="M115.0498 101.811L153.0749 204.4654" fill="none" stroke="#aaa" stroke-opacity="0.5" stroke-width="0.5"></path><path d="M187.0714 219.7423L223.0095 220.9553" fill="none" stroke="#aaa" stroke-opacity="0.5" stroke-width="0.5"></path><path d="M115.0498 101.811L257.5714 37.6479" fill="none" stroke="#aaa" stroke-opacity="0.5" stroke-width="0.5"></path><path d="M155.1152 104.8106L271.8407 138.0934" fill="none" stroke="#aaa" stroke-opacity="0.5" stroke-width="0.5"></path><path d="M271.8407 138.0934L280.983 190.2827" fill="none" stroke="#aaa" stroke-opacity="0.5" stroke-width="0.5"></path><path d="M153.0749 204.4654L115.0458 139.2571" fill="none" stroke="#aaa" stroke-opacity="0.5" stroke-width="0.5"></path><path d="M187.0714 219.7423L192.5967 179.3455" fill="none" stroke="#aaa" stroke-opacity="0.5" stroke-width="0.5"></path><path d="M256.1187 211.1791L125.4086 175.8812" fill="none" stroke="#aaa" stroke-opacity="0.5" stroke-width="0.5"></path><path d="M271.8407 138.0934L233.8726 169.3844" fill="none" stroke="#aaa" stroke-opacity="0.5" stroke-width="0.5"></path><path d="M296.9208 93.3311L233.8726 169.3844" fill="none" stroke="#aaa" stroke-opacity="0.5" stroke-width="0.5"></path><path d="M271.8407 138.0934L188.2703 31.9002" fill="none" stroke="#aaa" stroke-opacity="0.5" stroke-width="0.5"></path><path d="M301.5893 161.8753L280.983 190.2827" fill="none" stroke="#aaa" stroke-opacity="0.5" stroke-width="0.5"></path><path d="M296.9208 93.3311L188.2703 31.9002" fill="none" stroke="#aaa" stroke-opacity="0.5" stroke-width="0.5"></path><path d="M257.5714 37.6479L192.5967 179.3455" fill="none" stroke="#aaa" stroke-opacity="0.5" stroke-width="0.5"></path><path d="M132.1515 67.1935L125.4086 175.8812" fill="none" stroke="#aaa" stroke-opacity="0.5" stroke-width="0.5"></path><path d="M192.1507 76.1272L125.4086 175.8812" fill="none" stroke="#aaa" stroke-opacity="0.5" stroke-width="0.5"></path><path d="M271.8407 138.0934L187.0714 219.7423" fill="none" stroke="#aaa" stroke-opacity="0.5" stroke-width="0.5"></path><path d="M296.9208 93.3311L187.0714 219.7423" fill="none" stroke="#aaa" stroke-opacity="0.5" stroke-width="0.5"></path><path d="M286.3788 62.0413L196.9317 126.4972" fill="none" stroke="#aaa" stroke-opacity="0.5" stroke-width="0.5"></path><path d="M155.1152 104.8106L132.1515 67.1935" fill="none" stroke="#aaa" stroke-opacity="0.5" stroke-width="0.5"></path><path d="M241.8927 112.2353L115.0458 139.2571" fill="none" stroke="#aaa" stroke-opacity="0.5" stroke-width="0.5"></path><path d="M115.0498 101.811L280.983 190.2827" fill="none" stroke="#aaa" stroke-opacity="0.5" stroke-width="0.5"></path><path d="M311.5115 123.8544L196.9317 126.4972" fill="none" stroke="#aaa" stroke-opacity="0.5" stroke-width="0.5"></path><path d="M301.5893 161.8753L115.0458 139.2571" fill="none" stroke="#aaa" stroke-opacity="0.5" stroke-width="0.5"></path><path d="M156.9762 155.0345L115.0458 139.2571" fill="none" stroke="#aaa" stroke-opacity="0.5" stroke-width="0.5"></path><path d="M239.1166 71.2891L223.0095 220.9553" fill="none" stroke="#aaa" stroke-opacity="0.5" stroke-width="0.5"></path><path d="M115.0458 139.2571L257.5714 37.6479" fill="none" stroke="#aaa" stroke-opacity="0.5" stroke-width="0.5"></path><path d="M301.5893 161.8753L188.2703 31.9002" fill="none" stroke="#aaa" stroke-opacity="0.5" stroke-width="0.5"></path><path d="M286.3788 62.0413L221.3572 30.0351" fill="none" stroke="#aaa" stroke-opacity="0.5" stroke-width="0.5"></path><path d="M311.5115 123.8544L221.3572 30.0351" fill="none" stroke="#aaa" stroke-opacity="0.5" stroke-width="0.5"></path><path d="M153.0749 204.4654L256.1187 211.1791" fill="none" stroke="#aaa" stroke-opacity="0.5" stroke-width="0.5"></path><path d="M115.5 101.811L115.5 139.2571" fill="none" stroke="#aaa" stroke-opacity="0.5" stroke-width="0.5"></path><path d="M301.5893 161.8753L156.9762 155.0345" fill="none" stroke="#aaa" stroke-opacity="0.5" stroke-width="0.5"></path><path d="M192.1507 76.1272L221.3572 30.0351" fill="none" stroke="#aaa" stroke-opacity="0.5" stroke-width="0.5"></path><path d="M187.0714 219.7423L257.5714 37.6479" fill="none" stroke="#aaa" stroke-opacity="0.5" stroke-width="0.5"></path><path d="M115.0498 101.811L156.9762 155.0345" fill="none" stroke="#aaa" stroke-opacity="0.5" stroke-width="0.5"></path><path d="M1 0A1 1 0 1 1 1 -0.0001" fill="#5470c6" transform="matrix(17.5,0,0,17.5,311.5115,123.8544)"></path><path d="M1 0A1 1 0 1 1 1 -0.0001" fill="#5470c6" transform="matrix(17.5,0,0,17.5,301.5893,161.8753)"></path><path d="M1 0A1 1 0 1 1 1 -0.0001" fill="#5470c6" transform="matrix(17.5,0,0,17.5,233.8726,169.3844)"></path><path d="M1 0A1 1 0 1 1 1 -0.0001" fill="#5470c6" transform="matrix(17.5,0,0,17.5,280.983,190.2827)"></path><path d="M1 0A1 1 0 1 1 1 -0.0001" fill="#5470c6" transform="matrix(17.5,0,0,17.5,196.9317,126.4972)"></path><path d="M1 0A1 1 0 1 1 1 -0.0001" fill="#5470c6" transform="matrix(17.5,0,0,17.5,256.1187,211.1791)"></path><path d="M1 0A1 1 0 1 1 1 -0.0001" fill="#5470c6" transform="matrix(17.5,0,0,17.5,223.0095,220.9553)"></path><path d="M1 0A1 1 0 1 1 1 -0.0001" fill="#5470c6" transform="matrix(17.5,0,0,17.5,187.0714,219.7423)"></path><path d="M1 0A1 1 0 1 1 1 -0.0001" fill="#5470c6" transform="matrix(17.5,0,0,17.5,192.5967,179.3455)"></path><path d="M1 0A1 1 0 1 1 1 -0.0001" fill="#5470c6" transform="matrix(17.5,0,0,17.5,153.0749,204.4654)"></path><path d="M1 0A1 1 0 1 1 1 -0.0001" fill="#5470c6" transform="matrix(17.5,0,0,17.5,125.4086,175.8812)"></path><path d="M1 0A1 1 0 1 1 1 -0.0001" fill="#5470c6" transform="matrix(17.5,0,0,17.5,115.0458,139.2571)"></path><path d="M1 0A1 1 0 1 1 1 -0.0001" fill="#5470c6" transform="matrix(17.5,0,0,17.5,156.9762,155.0345)"></path><path d="M1 0A1 1 0 1 1 1 -0.0001" fill="#5470c6" transform="matrix(17.5,0,0,17.5,115.0498,101.811)"></path><path d="M1 0A1 1 0 1 1 1 -0.0001" fill="#5470c6" transform="matrix(17.5,0,0,17.5,155.1152,104.8106)"></path><path d="M1 0A1 1 0 1 1 1 -0.0001" fill="#5470c6" transform="matrix(17.5,0,0,17.5,132.1515,67.1935)"></path><path d="M1 0A1 1 0 1 1 1 -0.0001" fill="#5470c6" transform="matrix(17.5,0,0,17.5,192.1507,76.1272)"></path><path d="M1 0A1 1 0 1 1 1 -0.0001" fill="#5470c6" transform="matrix(17.5,0,0,17.5,157.2675,45.7298)"></path><path d="M1 0A1 1 0 1 1 1 -0.0001" fill="#5470c6" transform="matrix(17.5,0,0,17.5,188.2703,31.9002)"></path><path d="M1 0A1 1 0 1 1 1 -0.0001" fill="#5470c6" transform="matrix(17.5,0,0,17.5,241.8927,112.2353)"></path><path d="M1 0A1 1 0 1 1 1 -0.0001" fill="#5470c6" transform="matrix(17.5,0,0,17.5,221.3572,30.0351)"></path><path d="M1 0A1 1 0 1 1 1 -0.0001" fill="#5470c6" transform="matrix(17.5,0,0,17.5,239.1166,71.2891)"></path><path d="M1 0A1 1 0 1 1 1 -0.0001" fill="#5470c6" transform="matrix(17.5,0,0,17.5,257.5714,37.6479)"></path><path d="M1 0A1 1 0 1 1 1 -0.0001" fill="#5470c6" transform="matrix(17.5,0,0,17.5,286.3788,62.0413)"></path><path d="M1 0A1 1 0 1 1 1 -0.0001" fill="#5470c6" transform="matrix(17.5,0,0,17.5,271.8407,138.0934)"></path><path d="M1 0A1 1 0 1 1 1 -0.0001" fill="#5470c6" transform="matrix(17.5,0,0,17.5,296.9208,93.3311)"></path><path d="M-25.1792 -5l50.3584 0l0 32l-50.3584 0Z" fill="rgb(0,0,0)" fill-opacity="0" stroke="#ccc" stroke-width="0" transform="translate(237.5 5)"></path><text dominant-baseline="central" fill="#333" style="font-size:22px;font-family:sans-serif;font-weight:bolder;" text-anchor="middle" transform="translate(237.5 5)" y="11">C37</text></g></svg>