<svg baseprofile="full" height="250" style="position:absolute;left:0;top:0;user-select:none" version="1.1" width="475" xmlns="http://www.w3.org/2000/svg" xmlns:xlink="http://www.w3.org/1999/xlink"><rect fill="none" height="250" id="0" width="475" x="0" y="0"></rect><g><path d="M310.5599 143.8057L283.2333 193.1404" fill="none" stroke="#aaa" stroke-opacity="0.5"></path><path d="M236.4765 219.5496L181.6947 136.4445" fill="none" stroke="#aaa" stroke-opacity="0.5"></path><path d="M181.9744 218.2197L132.0526 191.3973" fill="none" stroke="#aaa" stroke-opacity="0.5"></path><path d="M108.7363 132.6114L125.1809 78.352" fill="none" stroke="#aaa" stroke-opacity="0.5"></path><path d="M162.5384 40.1165L212.4929 26.851" fill="none" stroke="#aaa" stroke-opacity="0.5"></path><path d="M181.9744 218.2197L181.6947 136.4445" fill="none" stroke="#aaa" stroke-opacity="0.5"></path><path d="M310.5599 143.8057L212.4929 26.851" fill="none" stroke="#aaa" stroke-opacity="0.5"></path><path d="M212.4929 26.851L283.2333 193.1404" fill="none" stroke="#aaa" stroke-opacity="0.5"></path><path d="M132.0526 191.3973L283.2333 193.1404" fill="none" stroke="#aaa" stroke-opacity="0.5"></path><path d="M181.6947 136.4445L125.1809 78.352" fill="none" stroke="#aaa" stroke-opacity="0.5"></path><path d="M305.0629 83.3088L310.5599 143.8057" fill="none" stroke="#aaa" stroke-opacity="0.5"></path><path d="M305.0629 83.3088L108.7363 132.6114" fill="none" stroke="#aaa" stroke-opacity="0.5"></path><path d="M236.4765 219.5496L125.1809 78.352" fill="none" stroke="#aaa" stroke-opacity="0.5"></path><path d="M162.5384 40.1165L310.5599 143.8057" fill="none" stroke="#aaa" stroke-opacity="0.5"></path><path d="M305.0629 83.3088L132.0526 191.3973" fill="none" stroke="#aaa" stroke-opacity="0.5"></path><path d="M162.5384 40.1165L108.7363 132.6114" fill="none" stroke="#aaa" stroke-opacity="0.5"></path><path d="M181.9744 218.2197L125.1809 78.352" fill="none" stroke="#aaa" stroke-opacity="0.5"></path><path d="M305.0629 83.3088L181.6947 136.4445" fill="none" stroke="#aaa" stroke-opacity="0.5"></path><path d="M132.0526 191.3973L264.6949 42.0857" fill="none" stroke="#aaa" stroke-opacity="0.5"></path><path d="M162.5384 40.1165L132.0526 191.3973" fill="none" stroke="#aaa" stroke-opacity="0.5"></path><path d="M162.5384 40.1165L181.6947 136.4445" fill="none" stroke="#aaa" stroke-opacity="0.5"></path><path d="M239.9388 119.1174L132.0526 191.3973" fill="none" stroke="#aaa" stroke-opacity="0.5"></path><path d="M310.5599 143.8057L132.0526 191.3973" fill="none" stroke="#aaa" stroke-opacity="0.5"></path><path d="M212.4929 26.851L108.7363 132.6114" fill="none" stroke="#aaa" stroke-opacity="0.5"></path><path d="M125.1809 78.352L264.6949 42.0857" fill="none" stroke="#aaa" stroke-opacity="0.5"></path><path d="M108.7363 132.6114L283.2333 193.1404" fill="none" stroke="#aaa" stroke-opacity="0.5"></path><path d="M108.7363 132.6114L239.9388 119.1174" fill="none" stroke="#aaa" stroke-opacity="0.5"></path><path d="M212.4929 26.851L132.0526 191.3973" fill="none" stroke="#aaa" stroke-opacity="0.5"></path><path d="M125.1809 78.352L132.0526 191.3973" fill="none" stroke="#aaa" stroke-opacity="0.5"></path><path d="M212.4929 26.851L181.6947 136.4445" fill="none" stroke="#aaa" stroke-opacity="0.5"></path><path d="M305.0629 83.3088L125.1809 78.352" fill="none" stroke="#aaa" stroke-opacity="0.5"></path><path d="M181.6947 136.4445L283.2333 193.1404" fill="none" stroke="#aaa" stroke-opacity="0.5"></path><path d="M181.6947 136.4445L239.9388 119.1174" fill="none" stroke="#aaa" stroke-opacity="0.5"></path><path d="M162.5384 40.1165L125.1809 78.352" fill="none" stroke="#aaa" stroke-opacity="0.5"></path><path d="M239.9388 119.1174L125.1809 78.352" fill="none" stroke="#aaa" stroke-opacity="0.5"></path><path d="M310.5599 143.8057L125.1809 78.352" fill="none" stroke="#aaa" stroke-opacity="0.5"></path><path d="M236.4765 219.5496L283.2333 193.1404" fill="none" stroke="#aaa" stroke-opacity="0.5"></path><path d="M236.4765 219.5496L239.9388 119.1174" fill="none" stroke="#aaa" stroke-opacity="0.5"></path><path d="M236.4765 219.5496L212.4929 26.851" fill="none" stroke="#aaa" stroke-opacity="0.5"></path><path d="M181.9744 218.2197L239.9388 119.1174" fill="none" stroke="#aaa" stroke-opacity="0.5"></path><path d="M212.4929 26.851L125.1809 78.352" fill="none" stroke="#aaa" stroke-opacity="0.5"></path><path d="M264.6949 42.0857L283.2333 193.1404" fill="none" stroke="#aaa" stroke-opacity="0.5"></path><path d="M236.4765 219.5496L305.0629 83.3088" fill="none" stroke="#aaa" stroke-opacity="0.5"></path><path d="M181.9744 218.2197L108.7363 132.6114" fill="none" stroke="#aaa" stroke-opacity="0.5"></path><path d="M181.9744 218.2197L264.6949 42.0857" fill="none" stroke="#aaa" stroke-opacity="0.5"></path><path d="M305.0629 83.3088L239.9388 119.1174" fill="none" stroke="#aaa" stroke-opacity="0.5"></path><path d="M239.9388 119.1174L283.2333 193.1404" fill="none" stroke="#aaa" stroke-opacity="0.5"></path><path d="M162.5384 40.1165L239.9388 119.1174" fill="none" stroke="#aaa" stroke-opacity="0.5"></path><path d="M310.5599 143.8057L239.9388 119.1174" fill="none" stroke="#aaa" stroke-opacity="0.5"></path><path d="M305.0629 83.3088L264.6949 42.0857" fill="none" stroke="#aaa" stroke-opacity="0.5"></path><path d="M125.1809 78.352L283.2333 193.1404" fill="none" stroke="#aaa" stroke-opacity="0.5"></path><path d="M212.4929 26.851L239.9388 119.1174" fill="none" stroke="#aaa" stroke-opacity="0.5"></path><path d="M305.0629 83.3088L181.9744 218.2197" fill="none" stroke="#aaa" stroke-opacity="0.5"></path><path d="M162.5384 40.1165L264.6949 42.0857" fill="none" stroke="#aaa" stroke-opacity="0.5"></path><path d="M310.5599 143.8057L108.7363 132.6114" fill="none" stroke="#aaa" stroke-opacity="0.5"></path><path d="M239.9388 119.1174L264.6949 42.0857" fill="none" stroke="#aaa" stroke-opacity="0.5"></path><path d="M310.5599 143.8057L264.6949 42.0857" fill="none" stroke="#aaa" stroke-opacity="0.5"></path><path d="M162.5384 40.1165L181.9744 218.2197" fill="none" stroke="#aaa" stroke-opacity="0.5"></path><path d="M310.5599 143.8057L181.9744 218.2197" fill="none" stroke="#aaa" stroke-opacity="0.5"></path><path d="M212.4929 26.851L264.6949 42.0857" fill="none" stroke="#aaa" stroke-opacity="0.5"></path><path d="M310.5599 143.8057L181.6947 136.4445" fill="none" stroke="#aaa" stroke-opacity="0.5"></path><path d="M236.4765 219.5496L162.5384 40.1165" fill="none" stroke="#aaa" stroke-opacity="0.5"></path><path d="M181.9744 218.2197L283.2333 193.1404" fill="none" stroke="#aaa" stroke-opacity="0.5"></path><path d="M305.0629 83.3088L162.5384 40.1165" fill="none" stroke="#aaa" stroke-opacity="0.5"></path><path d="M108.7363 132.6114L264.6949 42.0857" fill="none" stroke="#aaa" stroke-opacity="0.5"></path><path d="M181.9744 218.2197L212.4929 26.851" fill="none" stroke="#aaa" stroke-opacity="0.5"></path><path d="M108.7363 132.6114L132.0526 191.3973" fill="none" stroke="#aaa" stroke-opacity="0.5"></path><path d="M181.6947 136.4445L108.7363 132.6114" fill="none" stroke="#aaa" stroke-opacity="0.5"></path><path d="M181.6947 136.4445L264.6949 42.0857" fill="none" stroke="#aaa" stroke-opacity="0.5"></path><path d="M181.6947 136.4445L132.0526 191.3973" fill="none" stroke="#aaa" stroke-opacity="0.5"></path><path d="M305.0629 83.3088L283.2333 193.1404" fill="none" stroke="#aaa" stroke-opacity="0.5"></path><path d="M236.4765 219.5496L310.5599 143.8057" fill="none" stroke="#aaa" stroke-opacity="0.5"></path><path d="M236.4765 219.5496L108.7363 132.6114" fill="none" stroke="#aaa" stroke-opacity="0.5"></path><path d="M236.4765 219.5496L264.6949 42.0857" fill="none" stroke="#aaa" stroke-opacity="0.5"></path><path d="M305.0629 83.3088L212.4929 26.851" fill="none" stroke="#aaa" stroke-opacity="0.5"></path><path d="M236.4765 219.5496L181.9744 218.2197" fill="none" stroke="#aaa" stroke-opacity="0.5"></path><path d="M162.5384 40.1165L283.2333 193.1404" fill="none" stroke="#aaa" stroke-opacity="0.5"></path><path d="M236.4765 219.5496L132.0526 191.3973" fill="none" stroke="#aaa" stroke-opacity="0.5"></path><path d="M1 0A1 1 0 1 1 1 -0.0001" fill="#5470c6" transform="matrix(18.5,0,0,18.5,310.5599,143.8057)"></path><path d="M1 0A1 1 0 1 1 1 -0.0001" fill="#5470c6" transform="matrix(18.5,0,0,18.5,283.2333,193.1404)"></path><path d="M1 0A1 1 0 1 1 1 -0.0001" fill="#5470c6" transform="matrix(18.5,0,0,18.5,236.4765,219.5496)"></path><path d="M1 0A1 1 0 1 1 1 -0.0001" fill="#5470c6" transform="matrix(18.5,0,0,18.5,181.6947,136.4445)"></path><path d="M1 0A1 1 0 1 1 1 -0.0001" fill="#5470c6" transform="matrix(18.5,0,0,18.5,181.9744,218.2197)"></path><path d="M1 0A1 1 0 1 1 1 -0.0001" fill="#5470c6" transform="matrix(18.5,0,0,18.5,132.0526,191.3973)"></path><path d="M1 0A1 1 0 1 1 1 -0.0001" fill="#5470c6" transform="matrix(18.5,0,0,18.5,108.7363,132.6114)"></path><path d="M1 0A1 1 0 1 1 1 -0.0001" fill="#5470c6" transform="matrix(18.5,0,0,18.5,125.1809,78.352)"></path><path d="M1 0A1 1 0 1 1 1 -0.0001" fill="#5470c6" transform="matrix(18.5,0,0,18.5,162.5384,40.1165)"></path><path d="M1 0A1 1 0 1 1 1 -0.0001" fill="#5470c6" transform="matrix(18.5,0,0,18.5,212.4929,26.851)"></path><path d="M1 0A1 1 0 1 1 1 -0.0001" fill="#5470c6" transform="matrix(18.5,0,0,18.5,264.6949,42.0857)"></path><path d="M1 0A1 1 0 1 1 1 -0.0001" fill="#5470c6" transform="matrix(18.5,0,0,18.5,239.9388,119.1174)"></path><path d="M1 0A1 1 0 1 1 1 -0.0001" fill="#5470c6" transform="matrix(18.5,0,0,18.5,305.0629,83.3088)"></path><path d="M-26.0964 -5l52.1929 0l0 33l-52.1929 0Z" fill="rgb(0,0,0)" fill-opacity="0" stroke="#ccc" stroke-width="0" transform="translate(237.5 5)"></path><text dominant-baseline="central" fill="#333" style="font-size:23px;font-family:sans-serif;font-weight:bolder;" text-anchor="middle" transform="translate(237.5 5)" y="11.5">C38</text></g></svg>