<svg baseprofile="full" height="250" style="position:absolute;left:0;top:0;user-select:none" version="1.1" width="475" xmlns="http://www.w3.org/2000/svg" xmlns:xlink="http://www.w3.org/1999/xlink"><rect fill="none" height="250" id="0" width="475" x="0" y="0"></rect><g><path d="M307.6965 166.2624L141.5723 201.8484" fill="none" stroke="#aaa" stroke-opacity="0.5"></path><path d="M259.0288 217.1635L141.5723 201.8484" fill="none" stroke="#aaa" stroke-opacity="0.5"></path><path d="M216.1609 85.2L307.6965 166.2624" fill="none" stroke="#aaa" stroke-opacity="0.5"></path><path d="M170.9756 143.9576L141.5723 201.8484" fill="none" stroke="#aaa" stroke-opacity="0.5"></path><path d="M246.3839 152.7259L198.901 224.8329" fill="none" stroke="#aaa" stroke-opacity="0.5"></path><path d="M281.2104 51.5182L160.5299 36.6759" fill="none" stroke="#aaa" stroke-opacity="0.5"></path><path d="M121.917 79.9504L223.5557 21.3509" fill="none" stroke="#aaa" stroke-opacity="0.5"></path><path d="M246.3839 152.7259L170.9756 143.9576" fill="none" stroke="#aaa" stroke-opacity="0.5"></path><path d="M216.1609 85.2L281.2104 51.5182" fill="none" stroke="#aaa" stroke-opacity="0.5"></path><path d="M216.1609 85.2L259.0288 217.1635" fill="none" stroke="#aaa" stroke-opacity="0.5"></path><path d="M121.917 79.9504L160.5299 36.6759" fill="none" stroke="#aaa" stroke-opacity="0.5"></path><path d="M216.1609 85.2L246.3839 152.7259" fill="none" stroke="#aaa" stroke-opacity="0.5"></path><path d="M246.3839 152.7259L307.6965 166.2624" fill="none" stroke="#aaa" stroke-opacity="0.5"></path><path d="M308.6841 102.6998L198.901 224.8329" fill="none" stroke="#aaa" stroke-opacity="0.5"></path><path d="M216.1609 85.2L308.6841 102.6998" fill="none" stroke="#aaa" stroke-opacity="0.5"></path><path d="M246.3839 152.7259L108.0205 140.8142" fill="none" stroke="#aaa" stroke-opacity="0.5"></path><path d="M281.2104 51.5182L198.901 224.8329" fill="none" stroke="#aaa" stroke-opacity="0.5"></path><path d="M108.0205 140.8142L160.5299 36.6759" fill="none" stroke="#aaa" stroke-opacity="0.5"></path><path d="M281.2104 51.5182L170.9756 143.9576" fill="none" stroke="#aaa" stroke-opacity="0.5"></path><path d="M246.3839 152.7259L281.2104 51.5182" fill="none" stroke="#aaa" stroke-opacity="0.5"></path><path d="M307.6965 166.2624L160.5299 36.6759" fill="none" stroke="#aaa" stroke-opacity="0.5"></path><path d="M216.1609 85.2L160.5299 36.6759" fill="none" stroke="#aaa" stroke-opacity="0.5"></path><path d="M246.3839 152.7259L259.0288 217.1635" fill="none" stroke="#aaa" stroke-opacity="0.5"></path><path d="M121.917 79.9504L198.901 224.8329" fill="none" stroke="#aaa" stroke-opacity="0.5"></path><path d="M223.5557 21.3509L198.901 224.8329" fill="none" stroke="#aaa" stroke-opacity="0.5"></path><path d="M121.917 79.9504L170.9756 143.9576" fill="none" stroke="#aaa" stroke-opacity="0.5"></path><path d="M216.1609 85.2L121.917 79.9504" fill="none" stroke="#aaa" stroke-opacity="0.5"></path><path d="M246.3839 152.7259L308.6841 102.6998" fill="none" stroke="#aaa" stroke-opacity="0.5"></path><path d="M223.5557 21.3509L170.9756 143.9576" fill="none" stroke="#aaa" stroke-opacity="0.5"></path><path d="M281.2104 51.5182L307.6965 166.2624" fill="none" stroke="#aaa" stroke-opacity="0.5"></path><path d="M281.2104 51.5182L108.0205 140.8142" fill="none" stroke="#aaa" stroke-opacity="0.5"></path><path d="M108.0205 140.8142L198.901 224.8329" fill="none" stroke="#aaa" stroke-opacity="0.5"></path><path d="M108.0205 140.8142L170.9756 143.9576" fill="none" stroke="#aaa" stroke-opacity="0.5"></path><path d="M307.6965 166.2624L198.901 224.8329" fill="none" stroke="#aaa" stroke-opacity="0.5"></path><path d="M259.0288 217.1635L198.901 224.8329" fill="none" stroke="#aaa" stroke-opacity="0.5"></path><path d="M121.917 79.9504L307.6965 166.2624" fill="none" stroke="#aaa" stroke-opacity="0.5"></path><path d="M281.2104 51.5182L259.0288 217.1635" fill="none" stroke="#aaa" stroke-opacity="0.5"></path><path d="M307.6965 166.2624L170.9756 143.9576" fill="none" stroke="#aaa" stroke-opacity="0.5"></path><path d="M216.1609 85.2L170.9756 143.9576" fill="none" stroke="#aaa" stroke-opacity="0.5"></path><path d="M223.5557 21.3509L307.6965 166.2624" fill="none" stroke="#aaa" stroke-opacity="0.5"></path><path d="M259.0288 217.1635L170.9756 143.9576" fill="none" stroke="#aaa" stroke-opacity="0.5"></path><path d="M160.5299 36.6759L198.901 224.8329" fill="none" stroke="#aaa" stroke-opacity="0.5"></path><path d="M246.3839 152.7259L121.917 79.9504" fill="none" stroke="#aaa" stroke-opacity="0.5"></path><path d="M160.5299 36.6759L170.9756 143.9576" fill="none" stroke="#aaa" stroke-opacity="0.5"></path><path d="M170.9756 143.9576L198.901 224.8329" fill="none" stroke="#aaa" stroke-opacity="0.5"></path><path d="M281.2104 51.5182L308.6841 102.6998" fill="none" stroke="#aaa" stroke-opacity="0.5"></path><path d="M121.917 79.9504L281.2104 51.5182" fill="none" stroke="#aaa" stroke-opacity="0.5"></path><path d="M121.917 79.9504L259.0288 217.1635" fill="none" stroke="#aaa" stroke-opacity="0.5"></path><path d="M223.5557 21.3509L259.0288 217.1635" fill="none" stroke="#aaa" stroke-opacity="0.5"></path><path d="M281.2104 51.5182L223.5557 21.3509" fill="none" stroke="#aaa" stroke-opacity="0.5"></path><path d="M216.1609 85.2L141.5723 201.8484" fill="none" stroke="#aaa" stroke-opacity="0.5"></path><path d="M307.6965 166.2624L108.0205 140.8142" fill="none" stroke="#aaa" stroke-opacity="0.5"></path><path d="M216.1609 85.2L108.0205 140.8142" fill="none" stroke="#aaa" stroke-opacity="0.5"></path><path d="M121.917 79.9504L308.6841 102.6998" fill="none" stroke="#aaa" stroke-opacity="0.5"></path><path d="M160.5299 36.6759L141.5723 201.8484" fill="none" stroke="#aaa" stroke-opacity="0.5"></path><path d="M223.5557 21.3509L308.6841 102.6998" fill="none" stroke="#aaa" stroke-opacity="0.5"></path><path d="M108.0205 140.8142L259.0288 217.1635" fill="none" stroke="#aaa" stroke-opacity="0.5"></path><path d="M307.6965 166.2624L259.0288 217.1635" fill="none" stroke="#aaa" stroke-opacity="0.5"></path><path d="M108.0205 140.8142L308.6841 102.6998" fill="none" stroke="#aaa" stroke-opacity="0.5"></path><path d="M223.5557 21.3509L160.5299 36.6759" fill="none" stroke="#aaa" stroke-opacity="0.5"></path><path d="M160.5299 36.6759L259.0288 217.1635" fill="none" stroke="#aaa" stroke-opacity="0.5"></path><path d="M246.3839 152.7259L141.5723 201.8484" fill="none" stroke="#aaa" stroke-opacity="0.5"></path><path d="M307.6965 166.2624L308.6841 102.6998" fill="none" stroke="#aaa" stroke-opacity="0.5"></path><path d="M259.0288 217.1635L308.6841 102.6998" fill="none" stroke="#aaa" stroke-opacity="0.5"></path><path d="M308.6841 102.6998L170.9756 143.9576" fill="none" stroke="#aaa" stroke-opacity="0.5"></path><path d="M160.5299 36.6759L308.6841 102.6998" fill="none" stroke="#aaa" stroke-opacity="0.5"></path><path d="M216.1609 85.2L223.5557 21.3509" fill="none" stroke="#aaa" stroke-opacity="0.5"></path><path d="M308.6841 102.6998L141.5723 201.8484" fill="none" stroke="#aaa" stroke-opacity="0.5"></path><path d="M281.2104 51.5182L141.5723 201.8484" fill="none" stroke="#aaa" stroke-opacity="0.5"></path><path d="M246.3839 152.7259L223.5557 21.3509" fill="none" stroke="#aaa" stroke-opacity="0.5"></path><path d="M121.917 79.9504L141.5723 201.8484" fill="none" stroke="#aaa" stroke-opacity="0.5"></path><path d="M141.5723 201.8484L198.901 224.8329" fill="none" stroke="#aaa" stroke-opacity="0.5"></path><path d="M223.5557 21.3509L141.5723 201.8484" fill="none" stroke="#aaa" stroke-opacity="0.5"></path><path d="M121.917 79.9504L108.0205 140.8142" fill="none" stroke="#aaa" stroke-opacity="0.5"></path><path d="M246.3839 152.7259L160.5299 36.6759" fill="none" stroke="#aaa" stroke-opacity="0.5"></path><path d="M223.5557 21.3509L108.0205 140.8142" fill="none" stroke="#aaa" stroke-opacity="0.5"></path><path d="M216.1609 85.2L198.901 224.8329" fill="none" stroke="#aaa" stroke-opacity="0.5"></path><path d="M108.0205 140.8142L141.5723 201.8484" fill="none" stroke="#aaa" stroke-opacity="0.5"></path><path d="M1 0A1 1 0 1 1 1 -0.0001" fill="#5470c6" transform="matrix(18.5,0,0,18.5,307.6965,166.2624)"></path><path d="M1 0A1 1 0 1 1 1 -0.0001" fill="#5470c6" transform="matrix(18.5,0,0,18.5,246.3839,152.7259)"></path><path d="M1 0A1 1 0 1 1 1 -0.0001" fill="#5470c6" transform="matrix(18.5,0,0,18.5,259.0288,217.1635)"></path><path d="M1 0A1 1 0 1 1 1 -0.0001" fill="#5470c6" transform="matrix(18.5,0,0,18.5,198.901,224.8329)"></path><path d="M1 0A1 1 0 1 1 1 -0.0001" fill="#5470c6" transform="matrix(18.5,0,0,18.5,141.5723,201.8484)"></path><path d="M1 0A1 1 0 1 1 1 -0.0001" fill="#5470c6" transform="matrix(18.5,0,0,18.5,170.9756,143.9576)"></path><path d="M1 0A1 1 0 1 1 1 -0.0001" fill="#5470c6" transform="matrix(18.5,0,0,18.5,108.0205,140.8142)"></path><path d="M1 0A1 1 0 1 1 1 -0.0001" fill="#5470c6" transform="matrix(18.5,0,0,18.5,121.917,79.9504)"></path><path d="M1 0A1 1 0 1 1 1 -0.0001" fill="#5470c6" transform="matrix(18.5,0,0,18.5,160.5299,36.6759)"></path><path d="M1 0A1 1 0 1 1 1 -0.0001" fill="#5470c6" transform="matrix(18.5,0,0,18.5,223.5557,21.3509)"></path><path d="M1 0A1 1 0 1 1 1 -0.0001" fill="#5470c6" transform="matrix(18.5,0,0,18.5,216.1609,85.2)"></path><path d="M1 0A1 1 0 1 1 1 -0.0001" fill="#5470c6" transform="matrix(18.5,0,0,18.5,281.2104,51.5182)"></path><path d="M1 0A1 1 0 1 1 1 -0.0001" fill="#5470c6" transform="matrix(18.5,0,0,18.5,308.6841,102.6998)"></path><path d="M-26.0964 -5l52.1929 0l0 33l-52.1929 0Z" fill="rgb(0,0,0)" fill-opacity="0" stroke="#ccc" stroke-width="0" transform="translate(237.5 5)"></path><text dominant-baseline="central" fill="#333" style="font-size:23px;font-family:sans-serif;font-weight:bolder;" text-anchor="middle" transform="translate(237.5 5)" y="11.5">C39</text></g></svg>