<svg baseprofile="full" height="250" style="position:absolute;left:0;top:0;user-select:none" version="1.1" width="475" xmlns="http://www.w3.org/2000/svg" xmlns:xlink="http://www.w3.org/1999/xlink"><rect fill="none" height="250" id="0" width="475" x="0" y="0"></rect><g><path d="M111.983 143.0761L282.0546 178.8244" fill="none" stroke="#aaa" stroke-opacity="0.5"></path><path d="M192.2439 223.8602L121.9177 90.4513" fill="none" stroke="#aaa" stroke-opacity="0.5"></path><path d="M138.1398 197.3087L121.9177 90.4513" fill="none" stroke="#aaa" stroke-opacity="0.5"></path><path d="M250.9967 219.7333L191.3638 149.6892" fill="none" stroke="#aaa" stroke-opacity="0.5"></path><path d="M201.8023 26.2861L282.0546 178.8244" fill="none" stroke="#aaa" stroke-opacity="0.5"></path><path d="M111.983 143.0761L259.7612 34.2687" fill="none" stroke="#aaa" stroke-opacity="0.5"></path><path d="M201.8023 26.2861L259.7612 34.2687" fill="none" stroke="#aaa" stroke-opacity="0.5"></path><path d="M259.7612 34.2687L138.1398 197.3087" fill="none" stroke="#aaa" stroke-opacity="0.5"></path><path d="M282.0546 178.8244L250.9967 219.7333" fill="none" stroke="#aaa" stroke-opacity="0.5"></path><path d="M301.0235 79.9535L138.1398 197.3087" fill="none" stroke="#aaa" stroke-opacity="0.5"></path><path d="M250.9967 219.7333L121.9177 90.4513" fill="none" stroke="#aaa" stroke-opacity="0.5"></path><path d="M192.2439 223.8602L138.1398 197.3087" fill="none" stroke="#aaa" stroke-opacity="0.5"></path><path d="M259.7612 34.2687L282.0546 178.8244" fill="none" stroke="#aaa" stroke-opacity="0.5"></path><path d="M229.534 99.4123L138.1398 197.3087" fill="none" stroke="#aaa" stroke-opacity="0.5"></path><path d="M301.0235 79.9535L150.2892 45.4943" fill="none" stroke="#aaa" stroke-opacity="0.5"></path><path d="M111.983 143.0761L250.9967 219.7333" fill="none" stroke="#aaa" stroke-opacity="0.5"></path><path d="M111.983 143.0761L191.3638 149.6892" fill="none" stroke="#aaa" stroke-opacity="0.5"></path><path d="M192.2439 223.8602L150.2892 45.4943" fill="none" stroke="#aaa" stroke-opacity="0.5"></path><path d="M201.8023 26.2861L250.9967 219.7333" fill="none" stroke="#aaa" stroke-opacity="0.5"></path><path d="M229.534 99.4123L150.2892 45.4943" fill="none" stroke="#aaa" stroke-opacity="0.5"></path><path d="M259.7612 34.2687L229.534 99.4123" fill="none" stroke="#aaa" stroke-opacity="0.5"></path><path d="M150.2892 45.4943L313.5267 136.6419" fill="none" stroke="#aaa" stroke-opacity="0.5"></path><path d="M111.983 143.0761L121.9177 90.4513" fill="none" stroke="#aaa" stroke-opacity="0.5"></path><path d="M192.2439 223.8602L301.0235 79.9535" fill="none" stroke="#aaa" stroke-opacity="0.5"></path><path d="M201.8023 26.2861L121.9177 90.4513" fill="none" stroke="#aaa" stroke-opacity="0.5"></path><path d="M259.7612 34.2687L250.9967 219.7333" fill="none" stroke="#aaa" stroke-opacity="0.5"></path><path d="M138.1398 197.3087L250.9967 219.7333" fill="none" stroke="#aaa" stroke-opacity="0.5"></path><path d="M301.0235 79.9535L313.5267 136.6419" fill="none" stroke="#aaa" stroke-opacity="0.5"></path><path d="M259.7612 34.2687L191.3638 149.6892" fill="none" stroke="#aaa" stroke-opacity="0.5"></path><path d="M301.0235 79.9535L191.3638 149.6892" fill="none" stroke="#aaa" stroke-opacity="0.5"></path><path d="M192.2439 223.8602L313.5267 136.6419" fill="none" stroke="#aaa" stroke-opacity="0.5"></path><path d="M282.0546 178.8244L138.1398 197.3087" fill="none" stroke="#aaa" stroke-opacity="0.5"></path><path d="M192.2439 223.8602L191.3638 149.6892" fill="none" stroke="#aaa" stroke-opacity="0.5"></path><path d="M313.5267 136.6419L191.3638 149.6892" fill="none" stroke="#aaa" stroke-opacity="0.5"></path><path d="M229.534 99.4123L313.5267 136.6419" fill="none" stroke="#aaa" stroke-opacity="0.5"></path><path d="M229.534 99.4123L191.3638 149.6892" fill="none" stroke="#aaa" stroke-opacity="0.5"></path><path d="M121.9177 90.4513L191.3638 149.6892" fill="none" stroke="#aaa" stroke-opacity="0.5"></path><path d="M259.7612 34.2687L121.9177 90.4513" fill="none" stroke="#aaa" stroke-opacity="0.5"></path><path d="M201.8023 26.2861L138.1398 197.3087" fill="none" stroke="#aaa" stroke-opacity="0.5"></path><path d="M111.983 143.0761L201.8023 26.2861" fill="none" stroke="#aaa" stroke-opacity="0.5"></path><path d="M313.5267 136.6419L121.9177 90.4513" fill="none" stroke="#aaa" stroke-opacity="0.5"></path><path d="M111.983 143.0761L150.2892 45.4943" fill="none" stroke="#aaa" stroke-opacity="0.5"></path><path d="M229.534 99.4123L121.9177 90.4513" fill="none" stroke="#aaa" stroke-opacity="0.5"></path><path d="M150.2892 45.4943L138.1398 197.3087" fill="none" stroke="#aaa" stroke-opacity="0.5"></path><path d="M201.8023 26.2861L150.2892 45.4943" fill="none" stroke="#aaa" stroke-opacity="0.5"></path><path d="M150.2892 45.4943L282.0546 178.8244" fill="none" stroke="#aaa" stroke-opacity="0.5"></path><path d="M111.983 143.0761L229.534 99.4123" fill="none" stroke="#aaa" stroke-opacity="0.5"></path><path d="M201.8023 26.2861L229.534 99.4123" fill="none" stroke="#aaa" stroke-opacity="0.5"></path><path d="M282.0546 178.8244L313.5267 136.6419" fill="none" stroke="#aaa" stroke-opacity="0.5"></path><path d="M301.0235 79.9535L282.0546 178.8244" fill="none" stroke="#aaa" stroke-opacity="0.5"></path><path d="M282.0546 178.8244L191.3638 149.6892" fill="none" stroke="#aaa" stroke-opacity="0.5"></path><path d="M111.983 143.0761L301.0235 79.9535" fill="none" stroke="#aaa" stroke-opacity="0.5"></path><path d="M192.2439 223.8602L282.0546 178.8244" fill="none" stroke="#aaa" stroke-opacity="0.5"></path><path d="M111.983 143.0761L192.2439 223.8602" fill="none" stroke="#aaa" stroke-opacity="0.5"></path><path d="M201.8023 26.2861L301.0235 79.9535" fill="none" stroke="#aaa" stroke-opacity="0.5"></path><path d="M259.7612 34.2687L150.2892 45.4943" fill="none" stroke="#aaa" stroke-opacity="0.5"></path><path d="M229.534 99.4123L282.0546 178.8244" fill="none" stroke="#aaa" stroke-opacity="0.5"></path><path d="M201.8023 26.2861L192.2439 223.8602" fill="none" stroke="#aaa" stroke-opacity="0.5"></path><path d="M111.983 143.0761L313.5267 136.6419" fill="none" stroke="#aaa" stroke-opacity="0.5"></path><path d="M201.8023 26.2861L313.5267 136.6419" fill="none" stroke="#aaa" stroke-opacity="0.5"></path><path d="M201.8023 26.2861L191.3638 149.6892" fill="none" stroke="#aaa" stroke-opacity="0.5"></path><path d="M282.0546 178.8244L121.9177 90.4513" fill="none" stroke="#aaa" stroke-opacity="0.5"></path><path d="M150.2892 45.4943L250.9967 219.7333" fill="none" stroke="#aaa" stroke-opacity="0.5"></path><path d="M150.2892 45.4943L191.3638 149.6892" fill="none" stroke="#aaa" stroke-opacity="0.5"></path><path d="M259.7612 34.2687L301.0235 79.9535" fill="none" stroke="#aaa" stroke-opacity="0.5"></path><path d="M301.0235 79.9535L250.9967 219.7333" fill="none" stroke="#aaa" stroke-opacity="0.5"></path><path d="M259.7612 34.2687L192.2439 223.8602" fill="none" stroke="#aaa" stroke-opacity="0.5"></path><path d="M192.2439 223.8602L250.9967 219.7333" fill="none" stroke="#aaa" stroke-opacity="0.5"></path><path d="M313.5267 136.6419L250.9967 219.7333" fill="none" stroke="#aaa" stroke-opacity="0.5"></path><path d="M259.7612 34.2687L313.5267 136.6419" fill="none" stroke="#aaa" stroke-opacity="0.5"></path><path d="M138.1398 197.3087L313.5267 136.6419" fill="none" stroke="#aaa" stroke-opacity="0.5"></path><path d="M229.534 99.4123L250.9967 219.7333" fill="none" stroke="#aaa" stroke-opacity="0.5"></path><path d="M229.534 99.4123L301.0235 79.9535" fill="none" stroke="#aaa" stroke-opacity="0.5"></path><path d="M138.1398 197.3087L191.3638 149.6892" fill="none" stroke="#aaa" stroke-opacity="0.5"></path><path d="M229.534 99.4123L192.2439 223.8602" fill="none" stroke="#aaa" stroke-opacity="0.5"></path><path d="M150.2892 45.4943L121.9177 90.4513" fill="none" stroke="#aaa" stroke-opacity="0.5"></path><path d="M111.983 143.0761L138.1398 197.3087" fill="none" stroke="#aaa" stroke-opacity="0.5"></path><path d="M301.0235 79.9535L121.9177 90.4513" fill="none" stroke="#aaa" stroke-opacity="0.5"></path><path d="M1 0A1 1 0 1 1 1 -0.0001" fill="#5470c6" transform="matrix(18.5,0,0,18.5,313.5267,136.6419)"></path><path d="M1 0A1 1 0 1 1 1 -0.0001" fill="#5470c6" transform="matrix(18.5,0,0,18.5,282.0546,178.8244)"></path><path d="M1 0A1 1 0 1 1 1 -0.0001" fill="#5470c6" transform="matrix(18.5,0,0,18.5,250.9967,219.7333)"></path><path d="M1 0A1 1 0 1 1 1 -0.0001" fill="#5470c6" transform="matrix(18.5,0,0,18.5,192.2439,223.8602)"></path><path d="M1 0A1 1 0 1 1 1 -0.0001" fill="#5470c6" transform="matrix(18.5,0,0,18.5,138.1398,197.3087)"></path><path d="M1 0A1 1 0 1 1 1 -0.0001" fill="#5470c6" transform="matrix(18.5,0,0,18.5,111.983,143.0761)"></path><path d="M1 0A1 1 0 1 1 1 -0.0001" fill="#5470c6" transform="matrix(18.5,0,0,18.5,121.9177,90.4513)"></path><path d="M1 0A1 1 0 1 1 1 -0.0001" fill="#5470c6" transform="matrix(18.5,0,0,18.5,191.3638,149.6892)"></path><path d="M1 0A1 1 0 1 1 1 -0.0001" fill="#5470c6" transform="matrix(18.5,0,0,18.5,150.2892,45.4943)"></path><path d="M1 0A1 1 0 1 1 1 -0.0001" fill="#5470c6" transform="matrix(18.5,0,0,18.5,201.8023,26.2861)"></path><path d="M1 0A1 1 0 1 1 1 -0.0001" fill="#5470c6" transform="matrix(18.5,0,0,18.5,259.7612,34.2687)"></path><path d="M1 0A1 1 0 1 1 1 -0.0001" fill="#5470c6" transform="matrix(18.5,0,0,18.5,229.534,99.4123)"></path><path d="M1 0A1 1 0 1 1 1 -0.0001" fill="#5470c6" transform="matrix(18.5,0,0,18.5,301.0235,79.9535)"></path><path d="M-26.0964 -5l52.1929 0l0 33l-52.1929 0Z" fill="rgb(0,0,0)" fill-opacity="0" stroke="#ccc" stroke-width="0" transform="translate(237.5 5)"></path><text dominant-baseline="central" fill="#333" style="font-size:23px;font-family:sans-serif;font-weight:bolder;" text-anchor="middle" transform="translate(237.5 5)" y="11.5">C40</text></g></svg>