<svg baseprofile="full" height="250" style="position:absolute;left:0;top:0;user-select:none" version="1.1" width="475" xmlns="http://www.w3.org/2000/svg" xmlns:xlink="http://www.w3.org/1999/xlink"><rect fill="none" height="250" id="0" width="475" x="0" y="0"></rect><g><path d="M307.09 140.5943L262.0143 160.2811" fill="none" stroke="#aaa" stroke-opacity="0.5" stroke-width="0.5"></path><path d="M269.1957 200.3258L240.0107 220.0257" fill="none" stroke="#aaa" stroke-opacity="0.5" stroke-width="0.5"></path><path d="M205.593 220.5379L180.4019 179.1932" fill="none" stroke="#aaa" stroke-opacity="0.5" stroke-width="0.5"></path><path d="M259.8642 39.6519L180.4019 179.1932" fill="none" stroke="#aaa" stroke-opacity="0.5" stroke-width="0.5"></path><path d="M189.4809 31.8246L259.8642 39.6519" fill="none" stroke="#aaa" stroke-opacity="0.5" stroke-width="0.5"></path><path d="M307.3289 99.9766L262.0143 160.2811" fill="none" stroke="#aaa" stroke-opacity="0.5" stroke-width="0.5"></path><path d="M141.8342 193.4451L195.9014 143.0639" fill="none" stroke="#aaa" stroke-opacity="0.5" stroke-width="0.5"></path><path d="M141.8342 193.4451L290.4438 65.5671" fill="none" stroke="#aaa" stroke-opacity="0.5" stroke-width="0.5"></path><path d="M117.5282 95.1787L258.2252 81.2546" fill="none" stroke="#aaa" stroke-opacity="0.5" stroke-width="0.5"></path><path d="M278.2661 119.6566L259.8642 39.6519" fill="none" stroke="#aaa" stroke-opacity="0.5" stroke-width="0.5"></path><path d="M224.7506 26.5817L117.5282 95.1787" fill="none" stroke="#aaa" stroke-opacity="0.5" stroke-width="0.5"></path><path d="M151.9771 139.5098L156.8632 95.6467" fill="none" stroke="#aaa" stroke-opacity="0.5" stroke-width="0.5"></path><path d="M141.8342 193.4451L180.4019 179.1932" fill="none" stroke="#aaa" stroke-opacity="0.5" stroke-width="0.5"></path><path d="M193.4426 89.2034L205.593 220.5379" fill="none" stroke="#aaa" stroke-opacity="0.5" stroke-width="0.5"></path><path d="M136.2246 63.7255L160.7632 44.0814" fill="none" stroke="#aaa" stroke-opacity="0.5" stroke-width="0.5"></path><path d="M262.0143 160.2811L258.2252 81.2546" fill="none" stroke="#aaa" stroke-opacity="0.5" stroke-width="0.5"></path><path d="M160.7632 44.0814L259.8642 39.6519" fill="none" stroke="#aaa" stroke-opacity="0.5" stroke-width="0.5"></path><path d="M240.0107 220.0257L262.0143 160.2811" fill="none" stroke="#aaa" stroke-opacity="0.5" stroke-width="0.5"></path><path d="M278.2661 119.6566L156.8632 95.6467" fill="none" stroke="#aaa" stroke-opacity="0.5" stroke-width="0.5"></path><path d="M117.5282 95.1787L113.7068 129.1934" fill="none" stroke="#aaa" stroke-opacity="0.5" stroke-width="0.5"></path><path d="M224.7506 26.5817L222.1661 61.8121" fill="none" stroke="#aaa" stroke-opacity="0.5" stroke-width="0.5"></path><path d="M262.0143 160.2811L113.7068 129.1934" fill="none" stroke="#aaa" stroke-opacity="0.5" stroke-width="0.5"></path><path d="M231.3503 120.4973L290.4438 65.5671" fill="none" stroke="#aaa" stroke-opacity="0.5" stroke-width="0.5"></path><path d="M141.8342 193.4451L224.7506 26.5817" fill="none" stroke="#aaa" stroke-opacity="0.5" stroke-width="0.5"></path><path d="M259.8642 39.6519L227.3329 182.7326" fill="none" stroke="#aaa" stroke-opacity="0.5" stroke-width="0.5"></path><path d="M113.7068 129.1934L171.7388 215.7763" fill="none" stroke="#aaa" stroke-opacity="0.5" stroke-width="0.5"></path><path d="M195.9014 143.0639L259.8642 39.6519" fill="none" stroke="#aaa" stroke-opacity="0.5" stroke-width="0.5"></path><path d="M195.9014 143.0639L295.6651 175.3995" fill="none" stroke="#aaa" stroke-opacity="0.5" stroke-width="0.5"></path><path d="M224.7506 26.5817L193.4426 89.2034" fill="none" stroke="#aaa" stroke-opacity="0.5" stroke-width="0.5"></path><path d="M231.3503 120.4973L205.593 220.5379" fill="none" stroke="#aaa" stroke-opacity="0.5" stroke-width="0.5"></path><path d="M122.3648 165.2634L195.9014 143.0639" fill="none" stroke="#aaa" stroke-opacity="0.5" stroke-width="0.5"></path><path d="M195.9014 143.0639L156.8632 95.6467" fill="none" stroke="#aaa" stroke-opacity="0.5" stroke-width="0.5"></path><path d="M193.4426 89.2034L258.2252 81.2546" fill="none" stroke="#aaa" stroke-opacity="0.5" stroke-width="0.5"></path><path d="M117.5282 95.1787L222.1661 61.8121" fill="none" stroke="#aaa" stroke-opacity="0.5" stroke-width="0.5"></path><path d="M189.4809 31.8246L151.9771 139.5098" fill="none" stroke="#aaa" stroke-opacity="0.5" stroke-width="0.5"></path><path d="M227.3329 182.7326L180.4019 179.1932" fill="none" stroke="#aaa" stroke-opacity="0.5" stroke-width="0.5"></path><path d="M122.3648 165.2634L180.4019 179.1932" fill="none" stroke="#aaa" stroke-opacity="0.5" stroke-width="0.5"></path><path d="M278.2661 119.6566L151.9771 139.5098" fill="none" stroke="#aaa" stroke-opacity="0.5" stroke-width="0.5"></path><path d="M262.0143 160.2811L222.1661 61.8121" fill="none" stroke="#aaa" stroke-opacity="0.5" stroke-width="0.5"></path><path d="M171.7388 215.7763L222.1661 61.8121" fill="none" stroke="#aaa" stroke-opacity="0.5" stroke-width="0.5"></path><path d="M193.4426 89.2034L113.7068 129.1934" fill="none" stroke="#aaa" stroke-opacity="0.5" stroke-width="0.5"></path><path d="M160.7632 44.0814L151.9771 139.5098" fill="none" stroke="#aaa" stroke-opacity="0.5" stroke-width="0.5"></path><path d="M189.4809 31.8246L141.8342 193.4451" fill="none" stroke="#aaa" stroke-opacity="0.5" stroke-width="0.5"></path><path d="M224.7506 26.5817L295.6651 175.3995" fill="none" stroke="#aaa" stroke-opacity="0.5" stroke-width="0.5"></path><path d="M117.5282 95.1787L193.4426 89.2034" fill="none" stroke="#aaa" stroke-opacity="0.5" stroke-width="0.5"></path><path d="M227.3329 182.7326L113.7068 129.1934" fill="none" stroke="#aaa" stroke-opacity="0.5" stroke-width="0.5"></path><path d="M278.2661 119.6566L141.8342 193.4451" fill="none" stroke="#aaa" stroke-opacity="0.5" stroke-width="0.5"></path><path d="M122.3648 165.2634L113.7068 129.1934" fill="none" stroke="#aaa" stroke-opacity="0.5" stroke-width="0.5"></path><path d="M307.09 140.5943L195.9014 143.0639" fill="none" stroke="#aaa" stroke-opacity="0.5" stroke-width="0.5"></path><path d="M231.3503 120.4973L258.2252 81.2546" fill="none" stroke="#aaa" stroke-opacity="0.5" stroke-width="0.5"></path><path d="M231.3503 120.4973L307.09 140.5943" fill="none" stroke="#aaa" stroke-opacity="0.5" stroke-width="0.5"></path><path d="M269.1957 200.3258L205.593 220.5379" fill="none" stroke="#aaa" stroke-opacity="0.5" stroke-width="0.5"></path><path d="M122.3648 165.2634L224.7506 26.5817" fill="none" stroke="#aaa" stroke-opacity="0.5" stroke-width="0.5"></path><path d="M231.3503 120.4973L227.3329 182.7326" fill="none" stroke="#aaa" stroke-opacity="0.5" stroke-width="0.5"></path><path d="M136.2246 63.7255L195.9014 143.0639" fill="none" stroke="#aaa" stroke-opacity="0.5" stroke-width="0.5"></path><path d="M136.2246 63.7255L290.4438 65.5671" fill="none" stroke="#aaa" stroke-opacity="0.5" stroke-width="0.5"></path><path d="M151.9771 139.5098L240.0107 220.0257" fill="none" stroke="#aaa" stroke-opacity="0.5" stroke-width="0.5"></path><path d="M141.8342 193.4451L193.4426 89.2034" fill="none" stroke="#aaa" stroke-opacity="0.5" stroke-width="0.5"></path><path d="M189.4809 31.8246L240.0107 220.0257" fill="none" stroke="#aaa" stroke-opacity="0.5" stroke-width="0.5"></path><path d="M156.8632 95.6467L258.2252 81.2546" fill="none" stroke="#aaa" stroke-opacity="0.5" stroke-width="0.5"></path><path d="M307.3289 99.9766L195.9014 143.0639" fill="none" stroke="#aaa" stroke-opacity="0.5" stroke-width="0.5"></path><path d="M307.09 140.5943L180.4019 179.1932" fill="none" stroke="#aaa" stroke-opacity="0.5" stroke-width="0.5"></path><path d="M195.9014 143.0639L151.9771 139.5098" fill="none" stroke="#aaa" stroke-opacity="0.5" stroke-width="0.5"></path><path d="M136.2246 63.7255L205.593 220.5379" fill="none" stroke="#aaa" stroke-opacity="0.5" stroke-width="0.5"></path><path d="M136.2246 63.7255L180.4019 179.1932" fill="none" stroke="#aaa" stroke-opacity="0.5" stroke-width="0.5"></path><path d="M278.2661 119.6566L240.0107 220.0257" fill="none" stroke="#aaa" stroke-opacity="0.5" stroke-width="0.5"></path><path d="M227.3329 182.7326L117.5282 95.1787" fill="none" stroke="#aaa" stroke-opacity="0.5" stroke-width="0.5"></path><path d="M193.4426 89.2034L222.1661 61.8121" fill="none" stroke="#aaa" stroke-opacity="0.5" stroke-width="0.5"></path><path d="M307.3289 99.9766L180.4019 179.1932" fill="none" stroke="#aaa" stroke-opacity="0.5" stroke-width="0.5"></path><path d="M160.7632 44.0814L240.0107 220.0257" fill="none" stroke="#aaa" stroke-opacity="0.5" stroke-width="0.5"></path><path d="M136.2246 63.7255L231.3503 120.4973" fill="none" stroke="#aaa" stroke-opacity="0.5" stroke-width="0.5"></path><path d="M195.9014 143.0639L171.7388 215.7763" fill="none" stroke="#aaa" stroke-opacity="0.5" stroke-width="0.5"></path><path d="M227.3329 182.7326L222.1661 61.8121" fill="none" stroke="#aaa" stroke-opacity="0.5" stroke-width="0.5"></path><path d="M151.9771 139.5098L262.0143 160.2811" fill="none" stroke="#aaa" stroke-opacity="0.5" stroke-width="0.5"></path><path d="M189.4809 31.8246L262.0143 160.2811" fill="none" stroke="#aaa" stroke-opacity="0.5" stroke-width="0.5"></path><path d="M307.09 140.5943L224.7506 26.5817" fill="none" stroke="#aaa" stroke-opacity="0.5" stroke-width="0.5"></path><path d="M117.5282 95.1787L156.8632 95.6467" fill="none" stroke="#aaa" stroke-opacity="0.5" stroke-width="0.5"></path><path d="M231.3503 120.4973L117.5282 95.1787" fill="none" stroke="#aaa" stroke-opacity="0.5" stroke-width="0.5"></path><path d="M240.0107 220.0257L180.4019 179.1932" fill="none" stroke="#aaa" stroke-opacity="0.5" stroke-width="0.5"></path><path d="M278.2661 119.6566L262.0143 160.2811" fill="none" stroke="#aaa" stroke-opacity="0.5" stroke-width="0.5"></path><path d="M269.1957 200.3258L258.2252 81.2546" fill="none" stroke="#aaa" stroke-opacity="0.5" stroke-width="0.5"></path><path d="M269.1957 200.3258L307.09 140.5943" fill="none" stroke="#aaa" stroke-opacity="0.5" stroke-width="0.5"></path><path d="M278.2661 119.6566L269.1957 200.3258" fill="none" stroke="#aaa" stroke-opacity="0.5" stroke-width="0.5"></path><path d="M269.1957 200.3258L227.3329 182.7326" fill="none" stroke="#aaa" stroke-opacity="0.5" stroke-width="0.5"></path><path d="M307.3289 99.9766L224.7506 26.5817" fill="none" stroke="#aaa" stroke-opacity="0.5" stroke-width="0.5"></path><path d="M195.9014 143.0639L240.0107 220.0257" fill="none" stroke="#aaa" stroke-opacity="0.5" stroke-width="0.5"></path><path d="M227.3329 182.7326L193.4426 89.2034" fill="none" stroke="#aaa" stroke-opacity="0.5" stroke-width="0.5"></path><path d="M231.3503 120.4973L222.1661 61.8121" fill="none" stroke="#aaa" stroke-opacity="0.5" stroke-width="0.5"></path><path d="M122.3648 165.2634L193.4426 89.2034" fill="none" stroke="#aaa" stroke-opacity="0.5" stroke-width="0.5"></path><path d="M136.2246 63.7255L227.3329 182.7326" fill="none" stroke="#aaa" stroke-opacity="0.5" stroke-width="0.5"></path><path d="M231.3503 120.4973L122.3648 165.2634" fill="none" stroke="#aaa" stroke-opacity="0.5" stroke-width="0.5"></path><path d="M269.1957 200.3258L113.7068 129.1934" fill="none" stroke="#aaa" stroke-opacity="0.5" stroke-width="0.5"></path><path d="M156.8632 95.6467L222.1661 61.8121" fill="none" stroke="#aaa" stroke-opacity="0.5" stroke-width="0.5"></path><path d="M240.0107 220.0257L113.7068 129.1934" fill="none" stroke="#aaa" stroke-opacity="0.5" stroke-width="0.5"></path><path d="M295.6651 175.3995L156.8632 95.6467" fill="none" stroke="#aaa" stroke-opacity="0.5" stroke-width="0.5"></path><path d="M224.7506 26.5817L171.7388 215.7763" fill="none" stroke="#aaa" stroke-opacity="0.5" stroke-width="0.5"></path><path d="M205.593 220.5379L156.8632 95.6467" fill="none" stroke="#aaa" stroke-opacity="0.5" stroke-width="0.5"></path><path d="M290.4438 65.5671L205.593 220.5379" fill="none" stroke="#aaa" stroke-opacity="0.5" stroke-width="0.5"></path><path d="M141.8342 193.4451L259.8642 39.6519" fill="none" stroke="#aaa" stroke-opacity="0.5" stroke-width="0.5"></path><path d="M195.9014 143.0639L262.0143 160.2811" fill="none" stroke="#aaa" stroke-opacity="0.5" stroke-width="0.5"></path><path d="M269.1957 200.3258L117.5282 95.1787" fill="none" stroke="#aaa" stroke-opacity="0.5" stroke-width="0.5"></path><path d="M227.3329 182.7326L295.6651 175.3995" fill="none" stroke="#aaa" stroke-opacity="0.5" stroke-width="0.5"></path><path d="M193.4426 89.2034L156.8632 95.6467" fill="none" stroke="#aaa" stroke-opacity="0.5" stroke-width="0.5"></path><path d="M122.3648 165.2634L295.6651 175.3995" fill="none" stroke="#aaa" stroke-opacity="0.5" stroke-width="0.5"></path><path d="M307.09 140.5943L193.4426 89.2034" fill="none" stroke="#aaa" stroke-opacity="0.5" stroke-width="0.5"></path><path d="M269.1957 200.3258L222.1661 61.8121" fill="none" stroke="#aaa" stroke-opacity="0.5" stroke-width="0.5"></path><path d="M240.0107 220.0257L222.1661 61.8121" fill="none" stroke="#aaa" stroke-opacity="0.5" stroke-width="0.5"></path><path d="M117.5282 95.1787L171.7388 215.7763" fill="none" stroke="#aaa" stroke-opacity="0.5" stroke-width="0.5"></path><path d="M307.3289 99.9766L193.4426 89.2034" fill="none" stroke="#aaa" stroke-opacity="0.5" stroke-width="0.5"></path><path d="M189.4809 31.8246L205.593 220.5379" fill="none" stroke="#aaa" stroke-opacity="0.5" stroke-width="0.5"></path><path d="M231.3503 120.4973L259.8642 39.6519" fill="none" stroke="#aaa" stroke-opacity="0.5" stroke-width="0.5"></path><path d="M295.6651 175.3995L151.9771 139.5098" fill="none" stroke="#aaa" stroke-opacity="0.5" stroke-width="0.5"></path><path d="M290.4438 65.5671L258.2252 81.2546" fill="none" stroke="#aaa" stroke-opacity="0.5" stroke-width="0.5"></path><path d="M290.4438 65.5671L307.09 140.5943" fill="none" stroke="#aaa" stroke-opacity="0.5" stroke-width="0.5"></path><path d="M113.7068 129.1934L180.4019 179.1932" fill="none" stroke="#aaa" stroke-opacity="0.5" stroke-width="0.5"></path><path d="M262.0143 160.2811L171.7388 215.7763" fill="none" stroke="#aaa" stroke-opacity="0.5" stroke-width="0.5"></path><path d="M290.4438 65.5671L227.3329 182.7326" fill="none" stroke="#aaa" stroke-opacity="0.5" stroke-width="0.5"></path><path d="M136.2246 63.7255L122.3648 165.2634" fill="none" stroke="#aaa" stroke-opacity="0.5" stroke-width="0.5"></path><path d="M259.8642 39.6519L151.9771 139.5098" fill="none" stroke="#aaa" stroke-opacity="0.5" stroke-width="0.5"></path><path d="M231.3503 120.4973L156.8632 95.6467" fill="none" stroke="#aaa" stroke-opacity="0.5" stroke-width="0.5"></path><path d="M160.7632 44.0814L205.593 220.5379" fill="none" stroke="#aaa" stroke-opacity="0.5" stroke-width="0.5"></path><path d="M290.4438 65.5671L113.7068 129.1934" fill="none" stroke="#aaa" stroke-opacity="0.5" stroke-width="0.5"></path><path d="M151.9771 139.5098L180.4019 179.1932" fill="none" stroke="#aaa" stroke-opacity="0.5" stroke-width="0.5"></path><path d="M295.6651 175.3995L240.0107 220.0257" fill="none" stroke="#aaa" stroke-opacity="0.5" stroke-width="0.5"></path><path d="M189.4809 31.8246L258.2252 81.2546" fill="none" stroke="#aaa" stroke-opacity="0.5" stroke-width="0.5"></path><path d="M189.4809 31.8246L307.09 140.5943" fill="none" stroke="#aaa" stroke-opacity="0.5" stroke-width="0.5"></path><path d="M205.593 220.5379L240.0107 220.0257" fill="none" stroke="#aaa" stroke-opacity="0.5" stroke-width="0.5"></path><path d="M290.4438 65.5671L117.5282 95.1787" fill="none" stroke="#aaa" stroke-opacity="0.5" stroke-width="0.5"></path><path d="M258.2252 81.2546L222.1661 61.8121" fill="none" stroke="#aaa" stroke-opacity="0.5" stroke-width="0.5"></path><path d="M189.4809 31.8246L227.3329 182.7326" fill="none" stroke="#aaa" stroke-opacity="0.5" stroke-width="0.5"></path><path d="M193.4426 89.2034L171.7388 215.7763" fill="none" stroke="#aaa" stroke-opacity="0.5" stroke-width="0.5"></path><path d="M278.2661 119.6566L180.4019 179.1932" fill="none" stroke="#aaa" stroke-opacity="0.5" stroke-width="0.5"></path><path d="M269.1957 200.3258L295.6651 175.3995" fill="none" stroke="#aaa" stroke-opacity="0.5" stroke-width="0.5"></path><path d="M259.8642 39.6519L240.0107 220.0257" fill="none" stroke="#aaa" stroke-opacity="0.5" stroke-width="0.5"></path><path d="M278.2661 119.6566L307.09 140.5943" fill="none" stroke="#aaa" stroke-opacity="0.5" stroke-width="0.5"></path><path d="M227.3329 182.7326L171.7388 215.7763" fill="none" stroke="#aaa" stroke-opacity="0.5" stroke-width="0.5"></path><path d="M307.09 140.5943L259.8642 39.6519" fill="none" stroke="#aaa" stroke-opacity="0.5" stroke-width="0.5"></path><path d="M151.9771 139.5098L113.7068 129.1934" fill="none" stroke="#aaa" stroke-opacity="0.5" stroke-width="0.5"></path><path d="M290.4438 65.5671L222.1661 61.8121" fill="none" stroke="#aaa" stroke-opacity="0.5" stroke-width="0.5"></path><path d="M136.2246 63.7255L259.8642 39.6519" fill="none" stroke="#aaa" stroke-opacity="0.5" stroke-width="0.5"></path><path d="M269.1957 200.3258L156.8632 95.6467" fill="none" stroke="#aaa" stroke-opacity="0.5" stroke-width="0.5"></path><path d="M189.4809 31.8246L113.7068 129.1934" fill="none" stroke="#aaa" stroke-opacity="0.5" stroke-width="0.5"></path><path d="M160.7632 44.0814L258.2252 81.2546" fill="none" stroke="#aaa" stroke-opacity="0.5" stroke-width="0.5"></path><path d="M160.7632 44.0814L307.09 140.5943" fill="none" stroke="#aaa" stroke-opacity="0.5" stroke-width="0.5"></path><path d="M160.7632 44.0814L227.3329 182.7326" fill="none" stroke="#aaa" stroke-opacity="0.5" stroke-width="0.5"></path><path d="M231.3503 120.4973L151.9771 139.5098" fill="none" stroke="#aaa" stroke-opacity="0.5" stroke-width="0.5"></path><path d="M141.8342 193.4451L240.0107 220.0257" fill="none" stroke="#aaa" stroke-opacity="0.5" stroke-width="0.5"></path><path d="M307.3289 99.9766L259.8642 39.6519" fill="none" stroke="#aaa" stroke-opacity="0.5" stroke-width="0.5"></path><path d="M278.2661 119.6566L113.7068 129.1934" fill="none" stroke="#aaa" stroke-opacity="0.5" stroke-width="0.5"></path><path d="M295.6651 175.3995L262.0143 160.2811" fill="none" stroke="#aaa" stroke-opacity="0.5" stroke-width="0.5"></path><path d="M205.593 220.5379L262.0143 160.2811" fill="none" stroke="#aaa" stroke-opacity="0.5" stroke-width="0.5"></path><path d="M136.2246 63.7255L156.8632 95.6467" fill="none" stroke="#aaa" stroke-opacity="0.5" stroke-width="0.5"></path><path d="M278.2661 119.6566L224.7506 26.5817" fill="none" stroke="#aaa" stroke-opacity="0.5" stroke-width="0.5"></path><path d="M259.8642 39.6519L262.0143 160.2811" fill="none" stroke="#aaa" stroke-opacity="0.5" stroke-width="0.5"></path><path d="M160.7632 44.0814L113.7068 129.1934" fill="none" stroke="#aaa" stroke-opacity="0.5" stroke-width="0.5"></path><path d="M231.3503 120.4973L171.7388 215.7763" fill="none" stroke="#aaa" stroke-opacity="0.5" stroke-width="0.5"></path><path d="M195.9014 143.0639L180.4019 179.1932" fill="none" stroke="#aaa" stroke-opacity="0.5" stroke-width="0.5"></path><path d="M231.3503 120.4973L141.8342 193.4451" fill="none" stroke="#aaa" stroke-opacity="0.5" stroke-width="0.5"></path><path d="M189.4809 31.8246L117.5282 95.1787" fill="none" stroke="#aaa" stroke-opacity="0.5" stroke-width="0.5"></path><path d="M278.2661 119.6566L117.5282 95.1787" fill="none" stroke="#aaa" stroke-opacity="0.5" stroke-width="0.5"></path><path d="M193.4426 89.2034L262.0143 160.2811" fill="none" stroke="#aaa" stroke-opacity="0.5" stroke-width="0.5"></path><path d="M122.3648 165.2634L307.3289 99.9766" fill="none" stroke="#aaa" stroke-opacity="0.5" stroke-width="0.5"></path><path d="M189.4809 31.8246L222.1661 61.8121" fill="none" stroke="#aaa" stroke-opacity="0.5" stroke-width="0.5"></path><path d="M231.3503 120.4973L240.0107 220.0257" fill="none" stroke="#aaa" stroke-opacity="0.5" stroke-width="0.5"></path><path d="M160.7632 44.0814L117.5282 95.1787" fill="none" stroke="#aaa" stroke-opacity="0.5" stroke-width="0.5"></path><path d="M189.4809 31.8246L122.3648 165.2634" fill="none" stroke="#aaa" stroke-opacity="0.5" stroke-width="0.5"></path><path d="M278.2661 119.6566L222.1661 61.8121" fill="none" stroke="#aaa" stroke-opacity="0.5" stroke-width="0.5"></path><path d="M269.1957 200.3258L151.9771 139.5098" fill="none" stroke="#aaa" stroke-opacity="0.5" stroke-width="0.5"></path><path d="M224.7506 26.5817L195.9014 143.0639" fill="none" stroke="#aaa" stroke-opacity="0.5" stroke-width="0.5"></path><path d="M290.4438 65.5671L259.8642 39.6519" fill="none" stroke="#aaa" stroke-opacity="0.5" stroke-width="0.5"></path><path d="M160.7632 44.0814L222.1661 61.8121" fill="none" stroke="#aaa" stroke-opacity="0.5" stroke-width="0.5"></path><path d="M307.09 140.5943L151.9771 139.5098" fill="none" stroke="#aaa" stroke-opacity="0.5" stroke-width="0.5"></path><path d="M151.9771 139.5098L193.4426 89.2034" fill="none" stroke="#aaa" stroke-opacity="0.5" stroke-width="0.5"></path><path d="M224.7506 26.5817L205.593 220.5379" fill="none" stroke="#aaa" stroke-opacity="0.5" stroke-width="0.5"></path><path d="M224.7506 26.5817L180.4019 179.1932" fill="none" stroke="#aaa" stroke-opacity="0.5" stroke-width="0.5"></path><path d="M136.2246 63.7255L151.9771 139.5098" fill="none" stroke="#aaa" stroke-opacity="0.5" stroke-width="0.5"></path><path d="M189.4809 31.8246L193.4426 89.2034" fill="none" stroke="#aaa" stroke-opacity="0.5" stroke-width="0.5"></path><path d="M269.1957 200.3258L171.7388 215.7763" fill="none" stroke="#aaa" stroke-opacity="0.5" stroke-width="0.5"></path><path d="M240.0107 220.0257L171.7388 215.7763" fill="none" stroke="#aaa" stroke-opacity="0.5" stroke-width="0.5"></path><path d="M307.3289 99.9766L151.9771 139.5098" fill="none" stroke="#aaa" stroke-opacity="0.5" stroke-width="0.5"></path><path d="M290.4438 65.5671L156.8632 95.6467" fill="none" stroke="#aaa" stroke-opacity="0.5" stroke-width="0.5"></path><path d="M231.3503 120.4973L262.0143 160.2811" fill="none" stroke="#aaa" stroke-opacity="0.5" stroke-width="0.5"></path><path d="M278.2661 119.6566L193.4426 89.2034" fill="none" stroke="#aaa" stroke-opacity="0.5" stroke-width="0.5"></path><path d="M231.3503 120.4973L269.1957 200.3258" fill="none" stroke="#aaa" stroke-opacity="0.5" stroke-width="0.5"></path><path d="M278.2661 119.6566L189.4809 31.8246" fill="none" stroke="#aaa" stroke-opacity="0.5" stroke-width="0.5"></path><path d="M156.8632 95.6467L262.0143 160.2811" fill="none" stroke="#aaa" stroke-opacity="0.5" stroke-width="0.5"></path><path d="M136.2246 63.7255L141.8342 193.4451" fill="none" stroke="#aaa" stroke-opacity="0.5" stroke-width="0.5"></path><path d="M259.8642 39.6519L205.593 220.5379" fill="none" stroke="#aaa" stroke-opacity="0.5" stroke-width="0.5"></path><path d="M231.3503 120.4973L160.7632 44.0814" fill="none" stroke="#aaa" stroke-opacity="0.5" stroke-width="0.5"></path><path d="M307.09 140.5943L240.0107 220.0257" fill="none" stroke="#aaa" stroke-opacity="0.5" stroke-width="0.5"></path><path d="M189.4809 31.8246L295.6651 175.3995" fill="none" stroke="#aaa" stroke-opacity="0.5" stroke-width="0.5"></path><path d="M117.5282 95.1787L180.4019 179.1932" fill="none" stroke="#aaa" stroke-opacity="0.5" stroke-width="0.5"></path><path d="M136.2246 63.7255L240.0107 220.0257" fill="none" stroke="#aaa" stroke-opacity="0.5" stroke-width="0.5"></path><path d="M269.1957 200.3258L307.3289 99.9766" fill="none" stroke="#aaa" stroke-opacity="0.5" stroke-width="0.5"></path><path d="M278.2661 119.6566L295.6651 175.3995" fill="none" stroke="#aaa" stroke-opacity="0.5" stroke-width="0.5"></path><path d="M224.7506 26.5817L227.3329 182.7326" fill="none" stroke="#aaa" stroke-opacity="0.5" stroke-width="0.5"></path><path d="M195.9014 143.0639L193.4426 89.2034" fill="none" stroke="#aaa" stroke-opacity="0.5" stroke-width="0.5"></path><path d="M307.3289 99.9766L240.0107 220.0257" fill="none" stroke="#aaa" stroke-opacity="0.5" stroke-width="0.5"></path><path d="M262.0143 160.2811L180.4019 179.1932" fill="none" stroke="#aaa" stroke-opacity="0.5" stroke-width="0.5"></path><path d="M189.4809 31.8246L156.8632 95.6467" fill="none" stroke="#aaa" stroke-opacity="0.5" stroke-width="0.5"></path><path d="M141.8342 193.4451L205.593 220.5379" fill="none" stroke="#aaa" stroke-opacity="0.5" stroke-width="0.5"></path><path d="M160.7632 44.0814L295.6651 175.3995" fill="none" stroke="#aaa" stroke-opacity="0.5" stroke-width="0.5"></path><path d="M269.1957 200.3258L262.0143 160.2811" fill="none" stroke="#aaa" stroke-opacity="0.5" stroke-width="0.5"></path><path d="M290.4438 65.5671L151.9771 139.5098" fill="none" stroke="#aaa" stroke-opacity="0.5" stroke-width="0.5"></path><path d="M258.2252 81.2546L171.7388 215.7763" fill="none" stroke="#aaa" stroke-opacity="0.5" stroke-width="0.5"></path><path d="M160.7632 44.0814L156.8632 95.6467" fill="none" stroke="#aaa" stroke-opacity="0.5" stroke-width="0.5"></path><path d="M295.6651 175.3995L258.2252 81.2546" fill="none" stroke="#aaa" stroke-opacity="0.5" stroke-width="0.5"></path><path d="M136.2246 63.7255L262.0143 160.2811" fill="none" stroke="#aaa" stroke-opacity="0.5" stroke-width="0.5"></path><path d="M136.2246 63.7255L269.1957 200.3258" fill="none" stroke="#aaa" stroke-opacity="0.5" stroke-width="0.5"></path><path d="M205.593 220.5379L258.2252 81.2546" fill="none" stroke="#aaa" stroke-opacity="0.5" stroke-width="0.5"></path><path d="M290.4438 65.5671L171.7388 215.7763" fill="none" stroke="#aaa" stroke-opacity="0.5" stroke-width="0.5"></path><path d="M259.8642 39.6519L258.2252 81.2546" fill="none" stroke="#aaa" stroke-opacity="0.5" stroke-width="0.5"></path><path d="M295.6651 175.3995L113.7068 129.1934" fill="none" stroke="#aaa" stroke-opacity="0.5" stroke-width="0.5"></path><path d="M205.593 220.5379L113.7068 129.1934" fill="none" stroke="#aaa" stroke-opacity="0.5" stroke-width="0.5"></path><path d="M193.4426 89.2034L180.4019 179.1932" fill="none" stroke="#aaa" stroke-opacity="0.5" stroke-width="0.5"></path><path d="M122.3648 165.2634L290.4438 65.5671" fill="none" stroke="#aaa" stroke-opacity="0.5" stroke-width="0.5"></path><path d="M259.8642 39.6519L113.7068 129.1934" fill="none" stroke="#aaa" stroke-opacity="0.5" stroke-width="0.5"></path><path d="M141.8342 193.4451L258.2252 81.2546" fill="none" stroke="#aaa" stroke-opacity="0.5" stroke-width="0.5"></path><path d="M141.8342 193.4451L307.09 140.5943" fill="none" stroke="#aaa" stroke-opacity="0.5" stroke-width="0.5"></path><path d="M141.8342 193.4451L227.3329 182.7326" fill="none" stroke="#aaa" stroke-opacity="0.5" stroke-width="0.5"></path><path d="M290.4438 65.5671L240.0107 220.0257" fill="none" stroke="#aaa" stroke-opacity="0.5" stroke-width="0.5"></path><path d="M227.3329 182.7326L205.593 220.5379" fill="none" stroke="#aaa" stroke-opacity="0.5" stroke-width="0.5"></path><path d="M122.3648 165.2634L205.593 220.5379" fill="none" stroke="#aaa" stroke-opacity="0.5" stroke-width="0.5"></path><path d="M295.6651 175.3995L117.5282 95.1787" fill="none" stroke="#aaa" stroke-opacity="0.5" stroke-width="0.5"></path><path d="M151.9771 139.5098L171.7388 215.7763" fill="none" stroke="#aaa" stroke-opacity="0.5" stroke-width="0.5"></path><path d="M141.8342 193.4451L113.7068 129.1934" fill="none" stroke="#aaa" stroke-opacity="0.5" stroke-width="0.5"></path><path d="M290.4438 65.5671L307.3289 99.9766" fill="none" stroke="#aaa" stroke-opacity="0.5" stroke-width="0.5"></path><path d="M231.3503 120.4973L195.9014 143.0639" fill="none" stroke="#aaa" stroke-opacity="0.5" stroke-width="0.5"></path><path d="M189.4809 31.8246L171.7388 215.7763" fill="none" stroke="#aaa" stroke-opacity="0.5" stroke-width="0.5"></path><path d="M259.8642 39.6519L117.5282 95.1787" fill="none" stroke="#aaa" stroke-opacity="0.5" stroke-width="0.5"></path><path d="M278.2661 119.6566L171.7388 215.7763" fill="none" stroke="#aaa" stroke-opacity="0.5" stroke-width="0.5"></path><path d="M295.6651 175.3995L222.1661 61.8121" fill="none" stroke="#aaa" stroke-opacity="0.5" stroke-width="0.5"></path><path d="M231.3503 120.4973L180.4019 179.1932" fill="none" stroke="#aaa" stroke-opacity="0.5" stroke-width="0.5"></path><path d="M290.4438 65.5671L262.0143 160.2811" fill="none" stroke="#aaa" stroke-opacity="0.5" stroke-width="0.5"></path><path d="M205.593 220.5379L222.1661 61.8121" fill="none" stroke="#aaa" stroke-opacity="0.5" stroke-width="0.5"></path><path d="M259.8642 39.6519L222.1661 61.8121" fill="none" stroke="#aaa" stroke-opacity="0.5" stroke-width="0.5"></path><path d="M160.7632 44.0814L171.7388 215.7763" fill="none" stroke="#aaa" stroke-opacity="0.5" stroke-width="0.5"></path><path d="M156.8632 95.6467L180.4019 179.1932" fill="none" stroke="#aaa" stroke-opacity="0.5" stroke-width="0.5"></path><path d="M141.8342 193.4451L117.5282 95.1787" fill="none" stroke="#aaa" stroke-opacity="0.5" stroke-width="0.5"></path><path d="M307.09 140.5943L205.593 220.5379" fill="none" stroke="#aaa" stroke-opacity="0.5" stroke-width="0.5"></path><path d="M227.3329 182.7326L258.2252 81.2546" fill="none" stroke="#aaa" stroke-opacity="0.5" stroke-width="0.5"></path><path d="M231.3503 120.4973L113.7068 129.1934" fill="none" stroke="#aaa" stroke-opacity="0.5" stroke-width="0.5"></path><path d="M122.3648 165.2634L258.2252 81.2546" fill="none" stroke="#aaa" stroke-opacity="0.5" stroke-width="0.5"></path><path d="M295.6651 175.3995L193.4426 89.2034" fill="none" stroke="#aaa" stroke-opacity="0.5" stroke-width="0.5"></path><path d="M122.3648 165.2634L307.09 140.5943" fill="none" stroke="#aaa" stroke-opacity="0.5" stroke-width="0.5"></path><path d="M122.3648 165.2634L227.3329 182.7326" fill="none" stroke="#aaa" stroke-opacity="0.5" stroke-width="0.5"></path><path d="M141.8342 193.4451L222.1661 61.8121" fill="none" stroke="#aaa" stroke-opacity="0.5" stroke-width="0.5"></path><path d="M307.3289 99.9766L205.593 220.5379" fill="none" stroke="#aaa" stroke-opacity="0.5" stroke-width="0.5"></path><path d="M231.3503 120.4973L224.7506 26.5817" fill="none" stroke="#aaa" stroke-opacity="0.5" stroke-width="0.5"></path><path d="M189.4809 31.8246L307.3289 99.9766" fill="none" stroke="#aaa" stroke-opacity="0.5" stroke-width="0.5"></path><path d="M156.8632 95.6467L113.7068 129.1934" fill="none" stroke="#aaa" stroke-opacity="0.5" stroke-width="0.5"></path><path d="M259.8642 39.6519L193.4426 89.2034" fill="none" stroke="#aaa" stroke-opacity="0.5" stroke-width="0.5"></path><path d="M224.7506 26.5817L259.8642 39.6519" fill="none" stroke="#aaa" stroke-opacity="0.5" stroke-width="0.5"></path><path d="M269.1957 200.3258L195.9014 143.0639" fill="none" stroke="#aaa" stroke-opacity="0.5" stroke-width="0.5"></path><path d="M269.1957 200.3258L290.4438 65.5671" fill="none" stroke="#aaa" stroke-opacity="0.5" stroke-width="0.5"></path><path d="M278.2661 119.6566L307.3289 99.9766" fill="none" stroke="#aaa" stroke-opacity="0.5" stroke-width="0.5"></path><path d="M189.4809 31.8246L269.1957 200.3258" fill="none" stroke="#aaa" stroke-opacity="0.5" stroke-width="0.5"></path><path d="M269.1957 200.3258L180.4019 179.1932" fill="none" stroke="#aaa" stroke-opacity="0.5" stroke-width="0.5"></path><path d="M160.7632 44.0814L307.3289 99.9766" fill="none" stroke="#aaa" stroke-opacity="0.5" stroke-width="0.5"></path><path d="M224.7506 26.5817L156.8632 95.6467" fill="none" stroke="#aaa" stroke-opacity="0.5" stroke-width="0.5"></path><path d="M160.7632 44.0814L262.0143 160.2811" fill="none" stroke="#aaa" stroke-opacity="0.5" stroke-width="0.5"></path><path d="M307.09 140.5943L258.2252 81.2546" fill="none" stroke="#aaa" stroke-opacity="0.5" stroke-width="0.5"></path><path d="M160.7632 44.0814L269.1957 200.3258" fill="none" stroke="#aaa" stroke-opacity="0.5" stroke-width="0.5"></path><path d="M307.09 140.5943L227.3329 182.7326" fill="none" stroke="#aaa" stroke-opacity="0.5" stroke-width="0.5"></path><path d="M136.2246 63.7255L258.2252 81.2546" fill="none" stroke="#aaa" stroke-opacity="0.5" stroke-width="0.5"></path><path d="M136.2246 63.7255L307.09 140.5943" fill="none" stroke="#aaa" stroke-opacity="0.5" stroke-width="0.5"></path><path d="M122.3648 165.2634L117.5282 95.1787" fill="none" stroke="#aaa" stroke-opacity="0.5" stroke-width="0.5"></path><path d="M189.4809 31.8246L160.7632 44.0814" fill="none" stroke="#aaa" stroke-opacity="0.5" stroke-width="0.5"></path><path d="M259.8642 39.6519L295.6651 175.3995" fill="none" stroke="#aaa" stroke-opacity="0.5" stroke-width="0.5"></path><path d="M307.3289 99.9766L258.2252 81.2546" fill="none" stroke="#aaa" stroke-opacity="0.5" stroke-width="0.5"></path><path d="M307.3289 99.9766L307.09 140.5943" fill="none" stroke="#aaa" stroke-opacity="0.5" stroke-width="0.5"></path><path d="M180.4019 179.1932L258.2252 81.2546" fill="none" stroke="#aaa" stroke-opacity="0.5" stroke-width="0.5"></path><path d="M269.1957 200.3258L224.7506 26.5817" fill="none" stroke="#aaa" stroke-opacity="0.5" stroke-width="0.5"></path><path d="M278.2661 119.6566L160.7632 44.0814" fill="none" stroke="#aaa" stroke-opacity="0.5" stroke-width="0.5"></path><path d="M307.3289 99.9766L227.3329 182.7326" fill="none" stroke="#aaa" stroke-opacity="0.5" stroke-width="0.5"></path><path d="M307.09 140.5943L113.7068 129.1934" fill="none" stroke="#aaa" stroke-opacity="0.5" stroke-width="0.5"></path><path d="M259.8642 39.6519L156.8632 95.6467" fill="none" stroke="#aaa" stroke-opacity="0.5" stroke-width="0.5"></path><path d="M122.3648 165.2634L222.1661 61.8121" fill="none" stroke="#aaa" stroke-opacity="0.5" stroke-width="0.5"></path><path d="M136.2246 63.7255L113.7068 129.1934" fill="none" stroke="#aaa" stroke-opacity="0.5" stroke-width="0.5"></path><path d="M231.3503 120.4973L193.4426 89.2034" fill="none" stroke="#aaa" stroke-opacity="0.5" stroke-width="0.5"></path><path d="M141.8342 193.4451L295.6651 175.3995" fill="none" stroke="#aaa" stroke-opacity="0.5" stroke-width="0.5"></path><path d="M136.2246 63.7255L224.7506 26.5817" fill="none" stroke="#aaa" stroke-opacity="0.5" stroke-width="0.5"></path><path d="M307.3289 99.9766L113.7068 129.1934" fill="none" stroke="#aaa" stroke-opacity="0.5" stroke-width="0.5"></path><path d="M240.0107 220.0257L258.2252 81.2546" fill="none" stroke="#aaa" stroke-opacity="0.5" stroke-width="0.5"></path><path d="M224.7506 26.5817L151.9771 139.5098" fill="none" stroke="#aaa" stroke-opacity="0.5" stroke-width="0.5"></path><path d="M141.8342 193.4451L156.8632 95.6467" fill="none" stroke="#aaa" stroke-opacity="0.5" stroke-width="0.5"></path><path d="M307.09 140.5943L117.5282 95.1787" fill="none" stroke="#aaa" stroke-opacity="0.5" stroke-width="0.5"></path><path d="M136.2246 63.7255L117.5282 95.1787" fill="none" stroke="#aaa" stroke-opacity="0.5" stroke-width="0.5"></path><path d="M290.4438 65.5671L195.9014 143.0639" fill="none" stroke="#aaa" stroke-opacity="0.5" stroke-width="0.5"></path><path d="M307.3289 99.9766L117.5282 95.1787" fill="none" stroke="#aaa" stroke-opacity="0.5" stroke-width="0.5"></path><path d="M290.4438 65.5671L180.4019 179.1932" fill="none" stroke="#aaa" stroke-opacity="0.5" stroke-width="0.5"></path><path d="M307.09 140.5943L222.1661 61.8121" fill="none" stroke="#aaa" stroke-opacity="0.5" stroke-width="0.5"></path><path d="M136.2246 63.7255L222.1661 61.8121" fill="none" stroke="#aaa" stroke-opacity="0.5" stroke-width="0.5"></path><path d="M231.3503 120.4973L295.6651 175.3995" fill="none" stroke="#aaa" stroke-opacity="0.5" stroke-width="0.5"></path><path d="M307.3289 99.9766L222.1661 61.8121" fill="none" stroke="#aaa" stroke-opacity="0.5" stroke-width="0.5"></path><path d="M180.4019 179.1932L222.1661 61.8121" fill="none" stroke="#aaa" stroke-opacity="0.5" stroke-width="0.5"></path><path d="M269.1957 200.3258L193.4426 89.2034" fill="none" stroke="#aaa" stroke-opacity="0.5" stroke-width="0.5"></path><path d="M224.7506 26.5817L240.0107 220.0257" fill="none" stroke="#aaa" stroke-opacity="0.5" stroke-width="0.5"></path><path d="M295.6651 175.3995L171.7388 215.7763" fill="none" stroke="#aaa" stroke-opacity="0.5" stroke-width="0.5"></path><path d="M122.3648 165.2634L259.8642 39.6519" fill="none" stroke="#aaa" stroke-opacity="0.5" stroke-width="0.5"></path><path d="M205.593 220.5379L171.7388 215.7763" fill="none" stroke="#aaa" stroke-opacity="0.5" stroke-width="0.5"></path><path d="M290.4438 65.5671L224.7506 26.5817" fill="none" stroke="#aaa" stroke-opacity="0.5" stroke-width="0.5"></path><path d="M136.2246 63.7255L193.4426 89.2034" fill="none" stroke="#aaa" stroke-opacity="0.5" stroke-width="0.5"></path><path d="M259.8642 39.6519L171.7388 215.7763" fill="none" stroke="#aaa" stroke-opacity="0.5" stroke-width="0.5"></path><path d="M189.4809 31.8246L195.9014 143.0639" fill="none" stroke="#aaa" stroke-opacity="0.5" stroke-width="0.5"></path><path d="M189.4809 31.8246L290.4438 65.5671" fill="none" stroke="#aaa" stroke-opacity="0.5" stroke-width="0.5"></path><path d="M141.8342 193.4451L151.9771 139.5098" fill="none" stroke="#aaa" stroke-opacity="0.5" stroke-width="0.5"></path><path d="M227.3329 182.7326L156.8632 95.6467" fill="none" stroke="#aaa" stroke-opacity="0.5" stroke-width="0.5"></path><path d="M136.2246 63.7255L189.4809 31.8246" fill="none" stroke="#aaa" stroke-opacity="0.5" stroke-width="0.5"></path><path d="M122.3648 165.2634L156.8632 95.6467" fill="none" stroke="#aaa" stroke-opacity="0.5" stroke-width="0.5"></path><path d="M151.9771 139.5098L205.593 220.5379" fill="none" stroke="#aaa" stroke-opacity="0.5" stroke-width="0.5"></path><path d="M278.2661 119.6566L195.9014 143.0639" fill="none" stroke="#aaa" stroke-opacity="0.5" stroke-width="0.5"></path><path d="M278.2661 119.6566L290.4438 65.5671" fill="none" stroke="#aaa" stroke-opacity="0.5" stroke-width="0.5"></path><path d="M189.4809 31.8246L180.4019 179.1932" fill="none" stroke="#aaa" stroke-opacity="0.5" stroke-width="0.5"></path><path d="M141.8342 193.4451L171.7388 215.7763" fill="none" stroke="#aaa" stroke-opacity="0.5" stroke-width="0.5"></path><path d="M160.7632 44.0814L195.9014 143.0639" fill="none" stroke="#aaa" stroke-opacity="0.5" stroke-width="0.5"></path><path d="M160.7632 44.0814L290.4438 65.5671" fill="none" stroke="#aaa" stroke-opacity="0.5" stroke-width="0.5"></path><path d="M224.7506 26.5817L262.0143 160.2811" fill="none" stroke="#aaa" stroke-opacity="0.5" stroke-width="0.5"></path><path d="M278.2661 119.6566L205.593 220.5379" fill="none" stroke="#aaa" stroke-opacity="0.5" stroke-width="0.5"></path><path d="M113.7068 129.1934L258.2252 81.2546" fill="none" stroke="#aaa" stroke-opacity="0.5" stroke-width="0.5"></path><path d="M189.4809 31.8246L231.3503 120.4973" fill="none" stroke="#aaa" stroke-opacity="0.5" stroke-width="0.5"></path><path d="M117.5282 95.1787L240.0107 220.0257" fill="none" stroke="#aaa" stroke-opacity="0.5" stroke-width="0.5"></path><path d="M160.7632 44.0814L180.4019 179.1932" fill="none" stroke="#aaa" stroke-opacity="0.5" stroke-width="0.5"></path><path d="M307.09 140.5943L295.6651 175.3995" fill="none" stroke="#aaa" stroke-opacity="0.5" stroke-width="0.5"></path><path d="M136.2246 63.7255L295.6651 175.3995" fill="none" stroke="#aaa" stroke-opacity="0.5" stroke-width="0.5"></path><path d="M278.2661 119.6566L231.3503 120.4973" fill="none" stroke="#aaa" stroke-opacity="0.5" stroke-width="0.5"></path><path d="M189.4809 31.8246L224.7506 26.5817" fill="none" stroke="#aaa" stroke-opacity="0.5" stroke-width="0.5"></path><path d="M307.3289 99.9766L295.6651 175.3995" fill="none" stroke="#aaa" stroke-opacity="0.5" stroke-width="0.5"></path><path d="M307.09 140.5943L156.8632 95.6467" fill="none" stroke="#aaa" stroke-opacity="0.5" stroke-width="0.5"></path><path d="M227.3329 182.7326L151.9771 139.5098" fill="none" stroke="#aaa" stroke-opacity="0.5" stroke-width="0.5"></path><path d="M151.9771 139.5098L258.2252 81.2546" fill="none" stroke="#aaa" stroke-opacity="0.5" stroke-width="0.5"></path><path d="M307.3289 99.9766L156.8632 95.6467" fill="none" stroke="#aaa" stroke-opacity="0.5" stroke-width="0.5"></path><path d="M195.9014 143.0639L205.593 220.5379" fill="none" stroke="#aaa" stroke-opacity="0.5" stroke-width="0.5"></path><path d="M122.3648 165.2634L151.9771 139.5098" fill="none" stroke="#aaa" stroke-opacity="0.5" stroke-width="0.5"></path><path d="M290.4438 65.5671L193.4426 89.2034" fill="none" stroke="#aaa" stroke-opacity="0.5" stroke-width="0.5"></path><path d="M141.8342 193.4451L307.3289 99.9766" fill="none" stroke="#aaa" stroke-opacity="0.5" stroke-width="0.5"></path><path d="M160.7632 44.0814L224.7506 26.5817" fill="none" stroke="#aaa" stroke-opacity="0.5" stroke-width="0.5"></path><path d="M117.5282 95.1787L262.0143 160.2811" fill="none" stroke="#aaa" stroke-opacity="0.5" stroke-width="0.5"></path><path d="M269.1957 200.3258L259.8642 39.6519" fill="none" stroke="#aaa" stroke-opacity="0.5" stroke-width="0.5"></path><path d="M156.8632 95.6467L171.7388 215.7763" fill="none" stroke="#aaa" stroke-opacity="0.5" stroke-width="0.5"></path><path d="M278.2661 119.6566L258.2252 81.2546" fill="none" stroke="#aaa" stroke-opacity="0.5" stroke-width="0.5"></path><path d="M278.2661 119.6566L227.3329 182.7326" fill="none" stroke="#aaa" stroke-opacity="0.5" stroke-width="0.5"></path><path d="M141.8342 193.4451L262.0143 160.2811" fill="none" stroke="#aaa" stroke-opacity="0.5" stroke-width="0.5"></path><path d="M136.2246 63.7255L278.2661 119.6566" fill="none" stroke="#aaa" stroke-opacity="0.5" stroke-width="0.5"></path><path d="M141.8342 193.4451L269.1957 200.3258" fill="none" stroke="#aaa" stroke-opacity="0.5" stroke-width="0.5"></path><path d="M122.3648 165.2634L171.7388 215.7763" fill="none" stroke="#aaa" stroke-opacity="0.5" stroke-width="0.5"></path><path d="M122.3648 165.2634L141.8342 193.4451" fill="none" stroke="#aaa" stroke-opacity="0.5" stroke-width="0.5"></path><path d="M240.0107 220.0257L156.8632 95.6467" fill="none" stroke="#aaa" stroke-opacity="0.5" stroke-width="0.5"></path><path d="M113.7068 129.1934L222.1661 61.8121" fill="none" stroke="#aaa" stroke-opacity="0.5" stroke-width="0.5"></path><path d="M193.4426 89.2034L240.0107 220.0257" fill="none" stroke="#aaa" stroke-opacity="0.5" stroke-width="0.5"></path><path d="M227.3329 182.7326L240.0107 220.0257" fill="none" stroke="#aaa" stroke-opacity="0.5" stroke-width="0.5"></path><path d="M290.4438 65.5671L295.6651 175.3995" fill="none" stroke="#aaa" stroke-opacity="0.5" stroke-width="0.5"></path><path d="M231.3503 120.4973L307.3289 99.9766" fill="none" stroke="#aaa" stroke-opacity="0.5" stroke-width="0.5"></path><path d="M141.8342 193.4451L160.7632 44.0814" fill="none" stroke="#aaa" stroke-opacity="0.5" stroke-width="0.5"></path><path d="M151.9771 139.5098L117.5282 95.1787" fill="none" stroke="#aaa" stroke-opacity="0.5" stroke-width="0.5"></path><path d="M122.3648 165.2634L240.0107 220.0257" fill="none" stroke="#aaa" stroke-opacity="0.5" stroke-width="0.5"></path><path d="M195.9014 143.0639L258.2252 81.2546" fill="none" stroke="#aaa" stroke-opacity="0.5" stroke-width="0.5"></path><path d="M195.9014 143.0639L227.3329 182.7326" fill="none" stroke="#aaa" stroke-opacity="0.5" stroke-width="0.5"></path><path d="M151.9771 139.5098L222.1661 61.8121" fill="none" stroke="#aaa" stroke-opacity="0.5" stroke-width="0.5"></path><path d="M307.09 140.5943L171.7388 215.7763" fill="none" stroke="#aaa" stroke-opacity="0.5" stroke-width="0.5"></path><path d="M136.2246 63.7255L171.7388 215.7763" fill="none" stroke="#aaa" stroke-opacity="0.5" stroke-width="0.5"></path><path d="M160.7632 44.0814L193.4426 89.2034" fill="none" stroke="#aaa" stroke-opacity="0.5" stroke-width="0.5"></path><path d="M195.9014 143.0639L113.7068 129.1934" fill="none" stroke="#aaa" stroke-opacity="0.5" stroke-width="0.5"></path><path d="M307.3289 99.9766L171.7388 215.7763" fill="none" stroke="#aaa" stroke-opacity="0.5" stroke-width="0.5"></path><path d="M227.3329 182.7326L262.0143 160.2811" fill="none" stroke="#aaa" stroke-opacity="0.5" stroke-width="0.5"></path><path d="M180.4019 179.1932L171.7388 215.7763" fill="none" stroke="#aaa" stroke-opacity="0.5" stroke-width="0.5"></path><path d="M122.3648 165.2634L262.0143 160.2811" fill="none" stroke="#aaa" stroke-opacity="0.5" stroke-width="0.5"></path><path d="M122.3648 165.2634L269.1957 200.3258" fill="none" stroke="#aaa" stroke-opacity="0.5" stroke-width="0.5"></path><path d="M278.2661 119.6566L122.3648 165.2634" fill="none" stroke="#aaa" stroke-opacity="0.5" stroke-width="0.5"></path><path d="M117.5282 95.1787L205.593 220.5379" fill="none" stroke="#aaa" stroke-opacity="0.5" stroke-width="0.5"></path><path d="M224.7506 26.5817L258.2252 81.2546" fill="none" stroke="#aaa" stroke-opacity="0.5" stroke-width="0.5"></path><path d="M195.9014 143.0639L117.5282 95.1787" fill="none" stroke="#aaa" stroke-opacity="0.5" stroke-width="0.5"></path><path d="M122.3648 165.2634L160.7632 44.0814" fill="none" stroke="#aaa" stroke-opacity="0.5" stroke-width="0.5"></path><path d="M136.2246 63.7255L307.3289 99.9766" fill="none" stroke="#aaa" stroke-opacity="0.5" stroke-width="0.5"></path><path d="M195.9014 143.0639L222.1661 61.8121" fill="none" stroke="#aaa" stroke-opacity="0.5" stroke-width="0.5"></path><path d="M224.7506 26.5817L113.7068 129.1934" fill="none" stroke="#aaa" stroke-opacity="0.5" stroke-width="0.5"></path><path d="M295.6651 175.3995L205.593 220.5379" fill="none" stroke="#aaa" stroke-opacity="0.5" stroke-width="0.5"></path><path d="M295.6651 175.3995L180.4019 179.1932" fill="none" stroke="#aaa" stroke-opacity="0.5" stroke-width="0.5"></path><path d="M1 0A1 1 0 1 1 1 -0.0001" fill="#5470c6" transform="matrix(17.5,0,0,17.5,307.09,140.5943)"></path><path d="M1 0A1 1 0 1 1 1 -0.0001" fill="#5470c6" transform="matrix(17.5,0,0,17.5,262.0143,160.2811)"></path><path d="M1 0A1 1 0 1 1 1 -0.0001" fill="#5470c6" transform="matrix(17.5,0,0,17.5,295.6651,175.3995)"></path><path d="M1 0A1 1 0 1 1 1 -0.0001" fill="#5470c6" transform="matrix(17.5,0,0,17.5,231.3503,120.4973)"></path><path d="M1 0A1 1 0 1 1 1 -0.0001" fill="#5470c6" transform="matrix(17.5,0,0,17.5,269.1957,200.3258)"></path><path d="M1 0A1 1 0 1 1 1 -0.0001" fill="#5470c6" transform="matrix(17.5,0,0,17.5,240.0107,220.0257)"></path><path d="M1 0A1 1 0 1 1 1 -0.0001" fill="#5470c6" transform="matrix(17.5,0,0,17.5,205.593,220.5379)"></path><path d="M1 0A1 1 0 1 1 1 -0.0001" fill="#5470c6" transform="matrix(17.5,0,0,17.5,180.4019,179.1932)"></path><path d="M1 0A1 1 0 1 1 1 -0.0001" fill="#5470c6" transform="matrix(17.5,0,0,17.5,171.7388,215.7763)"></path><path d="M1 0A1 1 0 1 1 1 -0.0001" fill="#5470c6" transform="matrix(17.5,0,0,17.5,227.3329,182.7326)"></path><path d="M1 0A1 1 0 1 1 1 -0.0001" fill="#5470c6" transform="matrix(17.5,0,0,17.5,151.9771,139.5098)"></path><path d="M1 0A1 1 0 1 1 1 -0.0001" fill="#5470c6" transform="matrix(17.5,0,0,17.5,156.8632,95.6467)"></path><path d="M1 0A1 1 0 1 1 1 -0.0001" fill="#5470c6" transform="matrix(17.5,0,0,17.5,141.8342,193.4451)"></path><path d="M1 0A1 1 0 1 1 1 -0.0001" fill="#5470c6" transform="matrix(17.5,0,0,17.5,117.5282,95.1787)"></path><path d="M1 0A1 1 0 1 1 1 -0.0001" fill="#5470c6" transform="matrix(17.5,0,0,17.5,122.3648,165.2634)"></path><path d="M1 0A1 1 0 1 1 1 -0.0001" fill="#5470c6" transform="matrix(17.5,0,0,17.5,195.9014,143.0639)"></path><path d="M1 0A1 1 0 1 1 1 -0.0001" fill="#5470c6" transform="matrix(17.5,0,0,17.5,113.7068,129.1934)"></path><path d="M1 0A1 1 0 1 1 1 -0.0001" fill="#5470c6" transform="matrix(17.5,0,0,17.5,136.2246,63.7255)"></path><path d="M1 0A1 1 0 1 1 1 -0.0001" fill="#5470c6" transform="matrix(17.5,0,0,17.5,160.7632,44.0814)"></path><path d="M1 0A1 1 0 1 1 1 -0.0001" fill="#5470c6" transform="matrix(17.5,0,0,17.5,193.4426,89.2034)"></path><path d="M1 0A1 1 0 1 1 1 -0.0001" fill="#5470c6" transform="matrix(17.5,0,0,17.5,189.4809,31.8246)"></path><path d="M1 0A1 1 0 1 1 1 -0.0001" fill="#5470c6" transform="matrix(17.5,0,0,17.5,222.1661,61.8121)"></path><path d="M1 0A1 1 0 1 1 1 -0.0001" fill="#5470c6" transform="matrix(17.5,0,0,17.5,224.7506,26.5817)"></path><path d="M1 0A1 1 0 1 1 1 -0.0001" fill="#5470c6" transform="matrix(17.5,0,0,17.5,259.8642,39.6519)"></path><path d="M1 0A1 1 0 1 1 1 -0.0001" fill="#5470c6" transform="matrix(17.5,0,0,17.5,290.4438,65.5671)"></path><path d="M1 0A1 1 0 1 1 1 -0.0001" fill="#5470c6" transform="matrix(17.5,0,0,17.5,258.2252,81.2546)"></path><path d="M1 0A1 1 0 1 1 1 -0.0001" fill="#5470c6" transform="matrix(17.5,0,0,17.5,307.3289,99.9766)"></path><path d="M1 0A1 1 0 1 1 1 -0.0001" fill="#5470c6" transform="matrix(17.5,0,0,17.5,278.2661,119.6566)"></path><path d="M-25.1792 -5l50.3584 0l0 32l-50.3584 0Z" fill="rgb(0,0,0)" fill-opacity="0" stroke="#ccc" stroke-width="0" transform="translate(237.5 5)"></path><text dominant-baseline="central" fill="#333" style="font-size:22px;font-family:sans-serif;font-weight:bolder;" text-anchor="middle" transform="translate(237.5 5)" y="11">C41</text></g></svg>