<svg baseprofile="full" height="250" style="position:absolute;left:0;top:0;user-select:none" version="1.1" width="475" xmlns="http://www.w3.org/2000/svg" xmlns:xlink="http://www.w3.org/1999/xlink"><rect fill="none" height="250" id="0" width="475" x="0" y="0"></rect><g><path d="M255.4716 156.2821L232.3178 221.5706" fill="none" stroke="#aaa" stroke-opacity="0.5" stroke-width="0.5"></path><path d="M217.6295 175.1621L162.7037 91.4926" fill="none" stroke="#aaa" stroke-opacity="0.5" stroke-width="0.5"></path><path d="M255.4716 156.2821L173.8467 165.6308" fill="none" stroke="#aaa" stroke-opacity="0.5" stroke-width="0.5"></path><path d="M130.941 68.5545L293.6512 73.5604" fill="none" stroke="#aaa" stroke-opacity="0.5" stroke-width="0.5"></path><path d="M162.7037 91.4926L306.1743 146.6429" fill="none" stroke="#aaa" stroke-opacity="0.5" stroke-width="0.5"></path><path d="M292.3091 181.5737L145.1701 128.8178" fill="none" stroke="#aaa" stroke-opacity="0.5" stroke-width="0.5"></path><path d="M196.9605 218.2701L292.3091 181.5737" fill="none" stroke="#aaa" stroke-opacity="0.5" stroke-width="0.5"></path><path d="M159.9202 42.3817L235.0085 31.672" fill="none" stroke="#aaa" stroke-opacity="0.5" stroke-width="0.5"></path><path d="M116.8236 150.792L306.1743 146.6429" fill="none" stroke="#aaa" stroke-opacity="0.5" stroke-width="0.5"></path><path d="M196.9605 218.2701L130.941 68.5545" fill="none" stroke="#aaa" stroke-opacity="0.5" stroke-width="0.5"></path><path d="M264.1589 204.6004L162.7037 91.4926" fill="none" stroke="#aaa" stroke-opacity="0.5" stroke-width="0.5"></path><path d="M162.7037 91.4926L112.4221 105.8155" fill="none" stroke="#aaa" stroke-opacity="0.5" stroke-width="0.5"></path><path d="M133.8169 186.0748L292.3091 181.5737" fill="none" stroke="#aaa" stroke-opacity="0.5" stroke-width="0.5"></path><path d="M307.9716 108.4676L267.2119 114.4722" fill="none" stroke="#aaa" stroke-opacity="0.5" stroke-width="0.5"></path><path d="M204.6686 122.63L112.4221 105.8155" fill="none" stroke="#aaa" stroke-opacity="0.5" stroke-width="0.5"></path><path d="M199.2188 66.2125L235.0085 31.672" fill="none" stroke="#aaa" stroke-opacity="0.5" stroke-width="0.5"></path><path d="M116.8236 150.792L112.4221 105.8155" fill="none" stroke="#aaa" stroke-opacity="0.5" stroke-width="0.5"></path><path d="M267.2119 114.4722L197.637 27.9305" fill="none" stroke="#aaa" stroke-opacity="0.5" stroke-width="0.5"></path><path d="M307.9716 108.4676L173.8467 165.6308" fill="none" stroke="#aaa" stroke-opacity="0.5" stroke-width="0.5"></path><path d="M159.9202 42.3817L145.1701 128.8178" fill="none" stroke="#aaa" stroke-opacity="0.5" stroke-width="0.5"></path><path d="M133.8169 186.0748L264.1589 204.6004" fill="none" stroke="#aaa" stroke-opacity="0.5" stroke-width="0.5"></path><path d="M267.2119 114.4722L159.9202 42.3817" fill="none" stroke="#aaa" stroke-opacity="0.5" stroke-width="0.5"></path><path d="M199.2188 66.2125L232.3178 221.5706" fill="none" stroke="#aaa" stroke-opacity="0.5" stroke-width="0.5"></path><path d="M199.2188 66.2125L173.8467 165.6308" fill="none" stroke="#aaa" stroke-opacity="0.5" stroke-width="0.5"></path><path d="M173.8467 165.6308L159.9202 42.3817" fill="none" stroke="#aaa" stroke-opacity="0.5" stroke-width="0.5"></path><path d="M217.6295 175.1621L173.8467 165.6308" fill="none" stroke="#aaa" stroke-opacity="0.5" stroke-width="0.5"></path><path d="M267.2119 114.4722L235.0085 31.672" fill="none" stroke="#aaa" stroke-opacity="0.5" stroke-width="0.5"></path><path d="M204.6686 122.63L162.7037 91.4926" fill="none" stroke="#aaa" stroke-opacity="0.5" stroke-width="0.5"></path><path d="M116.8236 150.792L162.7037 91.4926" fill="none" stroke="#aaa" stroke-opacity="0.5" stroke-width="0.5"></path><path d="M130.941 68.5545L306.1743 146.6429" fill="none" stroke="#aaa" stroke-opacity="0.5" stroke-width="0.5"></path><path d="M264.1589 204.6004L197.637 27.9305" fill="none" stroke="#aaa" stroke-opacity="0.5" stroke-width="0.5"></path><path d="M196.9605 218.2701L306.1743 146.6429" fill="none" stroke="#aaa" stroke-opacity="0.5" stroke-width="0.5"></path><path d="M307.9716 108.4676L163.9527 209.0324" fill="none" stroke="#aaa" stroke-opacity="0.5" stroke-width="0.5"></path><path d="M267.2119 114.4722L232.3178 221.5706" fill="none" stroke="#aaa" stroke-opacity="0.5" stroke-width="0.5"></path><path d="M264.1589 204.6004L159.9202 42.3817" fill="none" stroke="#aaa" stroke-opacity="0.5" stroke-width="0.5"></path><path d="M130.941 68.5545L112.4221 105.8155" fill="none" stroke="#aaa" stroke-opacity="0.5" stroke-width="0.5"></path><path d="M267.2119 114.4722L217.6295 175.1621" fill="none" stroke="#aaa" stroke-opacity="0.5" stroke-width="0.5"></path><path d="M116.8236 150.792L196.9605 218.2701" fill="none" stroke="#aaa" stroke-opacity="0.5" stroke-width="0.5"></path><path d="M196.9605 218.2701L112.4221 105.8155" fill="none" stroke="#aaa" stroke-opacity="0.5" stroke-width="0.5"></path><path d="M133.8169 186.0748L240.1291 80.2725" fill="none" stroke="#aaa" stroke-opacity="0.5" stroke-width="0.5"></path><path d="M267.2119 114.4722L145.1701 128.8178" fill="none" stroke="#aaa" stroke-opacity="0.5" stroke-width="0.5"></path><path d="M255.4716 156.2821L307.9716 108.4676" fill="none" stroke="#aaa" stroke-opacity="0.5" stroke-width="0.5"></path><path d="M232.3178 221.5706L268.0317 47.0883" fill="none" stroke="#aaa" stroke-opacity="0.5" stroke-width="0.5"></path><path d="M264.1589 204.6004L235.0085 31.672" fill="none" stroke="#aaa" stroke-opacity="0.5" stroke-width="0.5"></path><path d="M173.8467 165.6308L163.9527 209.0324" fill="none" stroke="#aaa" stroke-opacity="0.5" stroke-width="0.5"></path><path d="M162.7037 91.4926L197.637 27.9305" fill="none" stroke="#aaa" stroke-opacity="0.5" stroke-width="0.5"></path><path d="M173.8467 165.6308L145.1701 128.8178" fill="none" stroke="#aaa" stroke-opacity="0.5" stroke-width="0.5"></path><path d="M217.6295 175.1621L163.9527 209.0324" fill="none" stroke="#aaa" stroke-opacity="0.5" stroke-width="0.5"></path><path d="M133.8169 186.0748L199.2188 66.2125" fill="none" stroke="#aaa" stroke-opacity="0.5" stroke-width="0.5"></path><path d="M306.1743 146.6429L112.4221 105.8155" fill="none" stroke="#aaa" stroke-opacity="0.5" stroke-width="0.5"></path><path d="M292.3091 181.5737L268.0317 47.0883" fill="none" stroke="#aaa" stroke-opacity="0.5" stroke-width="0.5"></path><path d="M204.6686 122.63L197.637 27.9305" fill="none" stroke="#aaa" stroke-opacity="0.5" stroke-width="0.5"></path><path d="M264.1589 204.6004L232.3178 221.5706" fill="none" stroke="#aaa" stroke-opacity="0.5" stroke-width="0.5"></path><path d="M255.4716 156.2821L268.0317 47.0883" fill="none" stroke="#aaa" stroke-opacity="0.5" stroke-width="0.5"></path><path d="M162.7037 91.4926L159.9202 42.3817" fill="none" stroke="#aaa" stroke-opacity="0.5" stroke-width="0.5"></path><path d="M130.941 68.5545L162.7037 91.4926" fill="none" stroke="#aaa" stroke-opacity="0.5" stroke-width="0.5"></path><path d="M204.6686 122.63L267.2119 114.4722" fill="none" stroke="#aaa" stroke-opacity="0.5" stroke-width="0.5"></path><path d="M116.8236 150.792L267.2119 114.4722" fill="none" stroke="#aaa" stroke-opacity="0.5" stroke-width="0.5"></path><path d="M196.9605 218.2701L162.7037 91.4926" fill="none" stroke="#aaa" stroke-opacity="0.5" stroke-width="0.5"></path><path d="M204.6686 122.63L159.9202 42.3817" fill="none" stroke="#aaa" stroke-opacity="0.5" stroke-width="0.5"></path><path d="M116.8236 150.792L173.8467 165.6308" fill="none" stroke="#aaa" stroke-opacity="0.5" stroke-width="0.5"></path><path d="M264.1589 204.6004L163.9527 209.0324" fill="none" stroke="#aaa" stroke-opacity="0.5" stroke-width="0.5"></path><path d="M264.1589 204.6004L145.1701 128.8178" fill="none" stroke="#aaa" stroke-opacity="0.5" stroke-width="0.5"></path><path d="M240.1291 80.2725L197.637 27.9305" fill="none" stroke="#aaa" stroke-opacity="0.5" stroke-width="0.5"></path><path d="M240.1291 80.2725L159.9202 42.3817" fill="none" stroke="#aaa" stroke-opacity="0.5" stroke-width="0.5"></path><path d="M204.6686 122.63L235.0085 31.672" fill="none" stroke="#aaa" stroke-opacity="0.5" stroke-width="0.5"></path><path d="M232.3178 221.5706L292.3091 181.5737" fill="none" stroke="#aaa" stroke-opacity="0.5" stroke-width="0.5"></path><path d="M255.4716 156.2821L293.6512 73.5604" fill="none" stroke="#aaa" stroke-opacity="0.5" stroke-width="0.5"></path><path d="M204.6686 122.63L232.3178 221.5706" fill="none" stroke="#aaa" stroke-opacity="0.5" stroke-width="0.5"></path><path d="M133.8169 186.0748L196.9605 218.2701" fill="none" stroke="#aaa" stroke-opacity="0.5" stroke-width="0.5"></path><path d="M240.1291 80.2725L235.0085 31.672" fill="none" stroke="#aaa" stroke-opacity="0.5" stroke-width="0.5"></path><path d="M255.4716 156.2821L133.8169 186.0748" fill="none" stroke="#aaa" stroke-opacity="0.5" stroke-width="0.5"></path><path d="M162.7037 91.4926L163.9527 209.0324" fill="none" stroke="#aaa" stroke-opacity="0.5" stroke-width="0.5"></path><path d="M162.7037 91.4926L145.1701 128.8178" fill="none" stroke="#aaa" stroke-opacity="0.5" stroke-width="0.5"></path><path d="M199.2188 66.2125L268.0317 47.0883" fill="none" stroke="#aaa" stroke-opacity="0.5" stroke-width="0.5"></path><path d="M204.6686 122.63L217.6295 175.1621" fill="none" stroke="#aaa" stroke-opacity="0.5" stroke-width="0.5"></path><path d="M130.941 68.5545L197.637 27.9305" fill="none" stroke="#aaa" stroke-opacity="0.5" stroke-width="0.5"></path><path d="M204.6686 122.63L163.9527 209.0324" fill="none" stroke="#aaa" stroke-opacity="0.5" stroke-width="0.5"></path><path d="M255.4716 156.2821L130.941 68.5545" fill="none" stroke="#aaa" stroke-opacity="0.5" stroke-width="0.5"></path><path d="M116.8236 150.792L163.9527 209.0324" fill="none" stroke="#aaa" stroke-opacity="0.5" stroke-width="0.5"></path><path d="M204.6686 122.63L145.1701 128.8178" fill="none" stroke="#aaa" stroke-opacity="0.5" stroke-width="0.5"></path><path d="M116.8236 150.792L145.1701 128.8178" fill="none" stroke="#aaa" stroke-opacity="0.5" stroke-width="0.5"></path><path d="M240.1291 80.2725L232.3178 221.5706" fill="none" stroke="#aaa" stroke-opacity="0.5" stroke-width="0.5"></path><path d="M145.1701 128.8178L112.4221 105.8155" fill="none" stroke="#aaa" stroke-opacity="0.5" stroke-width="0.5"></path><path d="M196.9605 218.2701L267.2119 114.4722" fill="none" stroke="#aaa" stroke-opacity="0.5" stroke-width="0.5"></path><path d="M130.941 68.5545L159.9202 42.3817" fill="none" stroke="#aaa" stroke-opacity="0.5" stroke-width="0.5"></path><path d="M307.9716 108.4676L293.6512 73.5604" fill="none" stroke="#aaa" stroke-opacity="0.5" stroke-width="0.5"></path><path d="M240.1291 80.2725L145.1701 128.8178" fill="none" stroke="#aaa" stroke-opacity="0.5" stroke-width="0.5"></path><path d="M307.9716 108.4676L133.8169 186.0748" fill="none" stroke="#aaa" stroke-opacity="0.5" stroke-width="0.5"></path><path d="M267.2119 114.4722L268.0317 47.0883" fill="none" stroke="#aaa" stroke-opacity="0.5" stroke-width="0.5"></path><path d="M116.8236 150.792L204.6686 122.63" fill="none" stroke="#aaa" stroke-opacity="0.5" stroke-width="0.5"></path><path d="M133.8169 186.0748L173.8467 165.6308" fill="none" stroke="#aaa" stroke-opacity="0.5" stroke-width="0.5"></path><path d="M163.9527 209.0324L235.0085 31.672" fill="none" stroke="#aaa" stroke-opacity="0.5" stroke-width="0.5"></path><path d="M197.637 27.9305L235.0085 31.672" fill="none" stroke="#aaa" stroke-opacity="0.5" stroke-width="0.5"></path><path d="M232.3178 221.5706L306.1743 146.6429" fill="none" stroke="#aaa" stroke-opacity="0.5" stroke-width="0.5"></path><path d="M199.2188 66.2125L293.6512 73.5604" fill="none" stroke="#aaa" stroke-opacity="0.5" stroke-width="0.5"></path><path d="M293.6512 73.5604L235.0085 31.672" fill="none" stroke="#aaa" stroke-opacity="0.5" stroke-width="0.5"></path><path d="M217.6295 175.1621L293.6512 73.5604" fill="none" stroke="#aaa" stroke-opacity="0.5" stroke-width="0.5"></path><path d="M292.3091 181.5737L306.1743 146.6429" fill="none" stroke="#aaa" stroke-opacity="0.5" stroke-width="0.5"></path><path d="M199.2188 66.2125L130.941 68.5545" fill="none" stroke="#aaa" stroke-opacity="0.5" stroke-width="0.5"></path><path d="M232.3178 221.5706L112.4221 105.8155" fill="none" stroke="#aaa" stroke-opacity="0.5" stroke-width="0.5"></path><path d="M255.4716 156.2821L306.1743 146.6429" fill="none" stroke="#aaa" stroke-opacity="0.5" stroke-width="0.5"></path><path d="M130.941 68.5545L163.9527 209.0324" fill="none" stroke="#aaa" stroke-opacity="0.5" stroke-width="0.5"></path><path d="M197.637 27.9305L173.8467 165.6308" fill="none" stroke="#aaa" stroke-opacity="0.5" stroke-width="0.5"></path><path d="M130.941 68.5545L145.1701 128.8178" fill="none" stroke="#aaa" stroke-opacity="0.5" stroke-width="0.5"></path><path d="M196.9605 218.2701L163.9527 209.0324" fill="none" stroke="#aaa" stroke-opacity="0.5" stroke-width="0.5"></path><path d="M196.9605 218.2701L145.1701 128.8178" fill="none" stroke="#aaa" stroke-opacity="0.5" stroke-width="0.5"></path><path d="M293.6512 73.5604L173.8467 165.6308" fill="none" stroke="#aaa" stroke-opacity="0.5" stroke-width="0.5"></path><path d="M163.9527 209.0324L145.1701 128.8178" fill="none" stroke="#aaa" stroke-opacity="0.5" stroke-width="0.5"></path><path d="M112.4221 105.8155L235.0085 31.672" fill="none" stroke="#aaa" stroke-opacity="0.5" stroke-width="0.5"></path><path d="M292.3091 181.5737L112.4221 105.8155" fill="none" stroke="#aaa" stroke-opacity="0.5" stroke-width="0.5"></path><path d="M255.4716 156.2821L112.4221 105.8155" fill="none" stroke="#aaa" stroke-opacity="0.5" stroke-width="0.5"></path><path d="M267.2119 114.4722L292.3091 181.5737" fill="none" stroke="#aaa" stroke-opacity="0.5" stroke-width="0.5"></path><path d="M306.1743 146.6429L163.9527 209.0324" fill="none" stroke="#aaa" stroke-opacity="0.5" stroke-width="0.5"></path><path d="M306.1743 146.6429L145.1701 128.8178" fill="none" stroke="#aaa" stroke-opacity="0.5" stroke-width="0.5"></path><path d="M267.2119 114.4722L130.941 68.5545" fill="none" stroke="#aaa" stroke-opacity="0.5" stroke-width="0.5"></path><path d="M196.9605 218.2701L204.6686 122.63" fill="none" stroke="#aaa" stroke-opacity="0.5" stroke-width="0.5"></path><path d="M267.2119 114.4722L264.1589 204.6004" fill="none" stroke="#aaa" stroke-opacity="0.5" stroke-width="0.5"></path><path d="M307.9716 108.4676L112.4221 105.8155" fill="none" stroke="#aaa" stroke-opacity="0.5" stroke-width="0.5"></path><path d="M199.2188 66.2125L306.1743 146.6429" fill="none" stroke="#aaa" stroke-opacity="0.5" stroke-width="0.5"></path><path d="M255.4716 156.2821L162.7037 91.4926" fill="none" stroke="#aaa" stroke-opacity="0.5" stroke-width="0.5"></path><path d="M217.6295 175.1621L264.1589 204.6004" fill="none" stroke="#aaa" stroke-opacity="0.5" stroke-width="0.5"></path><path d="M264.1589 204.6004L292.3091 181.5737" fill="none" stroke="#aaa" stroke-opacity="0.5" stroke-width="0.5"></path><path d="M116.8236 150.792L293.6512 73.5604" fill="none" stroke="#aaa" stroke-opacity="0.5" stroke-width="0.5"></path><path d="M199.2188 66.2125L112.4221 105.8155" fill="none" stroke="#aaa" stroke-opacity="0.5" stroke-width="0.5"></path><path d="M268.0317 47.0883L112.4221 105.8155" fill="none" stroke="#aaa" stroke-opacity="0.5" stroke-width="0.5"></path><path d="M240.1291 80.2725L268.0317 47.0883" fill="none" stroke="#aaa" stroke-opacity="0.5" stroke-width="0.5"></path><path d="M267.2119 114.4722L306.1743 146.6429" fill="none" stroke="#aaa" stroke-opacity="0.5" stroke-width="0.5"></path><path d="M307.9716 108.4676L162.7037 91.4926" fill="none" stroke="#aaa" stroke-opacity="0.5" stroke-width="0.5"></path><path d="M267.2119 114.4722L240.1291 80.2725" fill="none" stroke="#aaa" stroke-opacity="0.5" stroke-width="0.5"></path><path d="M133.8169 186.0748L268.0317 47.0883" fill="none" stroke="#aaa" stroke-opacity="0.5" stroke-width="0.5"></path><path d="M162.7037 91.4926L292.3091 181.5737" fill="none" stroke="#aaa" stroke-opacity="0.5" stroke-width="0.5"></path><path d="M232.3178 221.5706L173.8467 165.6308" fill="none" stroke="#aaa" stroke-opacity="0.5" stroke-width="0.5"></path><path d="M255.4716 156.2821L197.637 27.9305" fill="none" stroke="#aaa" stroke-opacity="0.5" stroke-width="0.5"></path><path d="M204.6686 122.63L292.3091 181.5737" fill="none" stroke="#aaa" stroke-opacity="0.5" stroke-width="0.5"></path><path d="M199.2188 66.2125L162.7037 91.4926" fill="none" stroke="#aaa" stroke-opacity="0.5" stroke-width="0.5"></path><path d="M217.6295 175.1621L240.1291 80.2725" fill="none" stroke="#aaa" stroke-opacity="0.5" stroke-width="0.5"></path><path d="M255.4716 156.2821L267.2119 114.4722" fill="none" stroke="#aaa" stroke-opacity="0.5" stroke-width="0.5"></path><path d="M292.3091 181.5737L173.8467 165.6308" fill="none" stroke="#aaa" stroke-opacity="0.5" stroke-width="0.5"></path><path d="M204.6686 122.63L130.941 68.5545" fill="none" stroke="#aaa" stroke-opacity="0.5" stroke-width="0.5"></path><path d="M255.4716 156.2821L159.9202 42.3817" fill="none" stroke="#aaa" stroke-opacity="0.5" stroke-width="0.5"></path><path d="M163.9527 209.0324L268.0317 47.0883" fill="none" stroke="#aaa" stroke-opacity="0.5" stroke-width="0.5"></path><path d="M196.9605 218.2701L293.6512 73.5604" fill="none" stroke="#aaa" stroke-opacity="0.5" stroke-width="0.5"></path><path d="M240.1291 80.2725L292.3091 181.5737" fill="none" stroke="#aaa" stroke-opacity="0.5" stroke-width="0.5"></path><path d="M204.6686 122.63L264.1589 204.6004" fill="none" stroke="#aaa" stroke-opacity="0.5" stroke-width="0.5"></path><path d="M197.637 27.9305L268.0317 47.0883" fill="none" stroke="#aaa" stroke-opacity="0.5" stroke-width="0.5"></path><path d="M264.1589 204.6004L306.1743 146.6429" fill="none" stroke="#aaa" stroke-opacity="0.5" stroke-width="0.5"></path><path d="M116.8236 150.792L264.1589 204.6004" fill="none" stroke="#aaa" stroke-opacity="0.5" stroke-width="0.5"></path><path d="M293.6512 73.5604L268.0317 47.0883" fill="none" stroke="#aaa" stroke-opacity="0.5" stroke-width="0.5"></path><path d="M264.1589 204.6004L240.1291 80.2725" fill="none" stroke="#aaa" stroke-opacity="0.5" stroke-width="0.5"></path><path d="M307.9716 108.4676L197.637 27.9305" fill="none" stroke="#aaa" stroke-opacity="0.5" stroke-width="0.5"></path><path d="M133.8169 186.0748L293.6512 73.5604" fill="none" stroke="#aaa" stroke-opacity="0.5" stroke-width="0.5"></path><path d="M232.3178 221.5706L163.9527 209.0324" fill="none" stroke="#aaa" stroke-opacity="0.5" stroke-width="0.5"></path><path d="M232.3178 221.5706L145.1701 128.8178" fill="none" stroke="#aaa" stroke-opacity="0.5" stroke-width="0.5"></path><path d="M307.9716 108.4676L159.9202 42.3817" fill="none" stroke="#aaa" stroke-opacity="0.5" stroke-width="0.5"></path><path d="M133.8169 186.0748L130.941 68.5545" fill="none" stroke="#aaa" stroke-opacity="0.5" stroke-width="0.5"></path><path d="M199.2188 66.2125L197.637 27.9305" fill="none" stroke="#aaa" stroke-opacity="0.5" stroke-width="0.5"></path><path d="M292.3091 181.5737L163.9527 209.0324" fill="none" stroke="#aaa" stroke-opacity="0.5" stroke-width="0.5"></path><path d="M255.4716 156.2821L217.6295 175.1621" fill="none" stroke="#aaa" stroke-opacity="0.5" stroke-width="0.5"></path><path d="M130.941 68.5545L292.3091 181.5737" fill="none" stroke="#aaa" stroke-opacity="0.5" stroke-width="0.5"></path><path d="M199.2188 66.2125L267.2119 114.4722" fill="none" stroke="#aaa" stroke-opacity="0.5" stroke-width="0.5"></path><path d="M255.4716 156.2821L163.9527 209.0324" fill="none" stroke="#aaa" stroke-opacity="0.5" stroke-width="0.5"></path><path d="M162.7037 91.4926L240.1291 80.2725" fill="none" stroke="#aaa" stroke-opacity="0.5" stroke-width="0.5"></path><path d="M197.637 27.9305L293.6512 73.5604" fill="none" stroke="#aaa" stroke-opacity="0.5" stroke-width="0.5"></path><path d="M255.4716 156.2821L145.1701 128.8178" fill="none" stroke="#aaa" stroke-opacity="0.5" stroke-width="0.5"></path><path d="M217.6295 175.1621L197.637 27.9305" fill="none" stroke="#aaa" stroke-opacity="0.5" stroke-width="0.5"></path><path d="M307.9716 108.4676L235.0085 31.672" fill="none" stroke="#aaa" stroke-opacity="0.5" stroke-width="0.5"></path><path d="M204.6686 122.63L306.1743 146.6429" fill="none" stroke="#aaa" stroke-opacity="0.5" stroke-width="0.5"></path><path d="M199.2188 66.2125L159.9202 42.3817" fill="none" stroke="#aaa" stroke-opacity="0.5" stroke-width="0.5"></path><path d="M204.6686 122.63L240.1291 80.2725" fill="none" stroke="#aaa" stroke-opacity="0.5" stroke-width="0.5"></path><path d="M116.8236 150.792L240.1291 80.2725" fill="none" stroke="#aaa" stroke-opacity="0.5" stroke-width="0.5"></path><path d="M255.4716 156.2821L116.8236 150.792" fill="none" stroke="#aaa" stroke-opacity="0.5" stroke-width="0.5"></path><path d="M130.941 68.5545L264.1589 204.6004" fill="none" stroke="#aaa" stroke-opacity="0.5" stroke-width="0.5"></path><path d="M217.6295 175.1621L159.9202 42.3817" fill="none" stroke="#aaa" stroke-opacity="0.5" stroke-width="0.5"></path><path d="M307.9716 108.4676L232.3178 221.5706" fill="none" stroke="#aaa" stroke-opacity="0.5" stroke-width="0.5"></path><path d="M196.9605 218.2701L264.1589 204.6004" fill="none" stroke="#aaa" stroke-opacity="0.5" stroke-width="0.5"></path><path d="M240.1291 80.2725L306.1743 146.6429" fill="none" stroke="#aaa" stroke-opacity="0.5" stroke-width="0.5"></path><path d="M268.0317 47.0883L235.0085 31.672" fill="none" stroke="#aaa" stroke-opacity="0.5" stroke-width="0.5"></path><path d="M255.4716 156.2821L204.6686 122.63" fill="none" stroke="#aaa" stroke-opacity="0.5" stroke-width="0.5"></path><path d="M307.9716 108.4676L217.6295 175.1621" fill="none" stroke="#aaa" stroke-opacity="0.5" stroke-width="0.5"></path><path d="M204.6686 122.63L199.2188 66.2125" fill="none" stroke="#aaa" stroke-opacity="0.5" stroke-width="0.5"></path><path d="M116.8236 150.792L199.2188 66.2125" fill="none" stroke="#aaa" stroke-opacity="0.5" stroke-width="0.5"></path><path d="M159.9202 42.3817L163.9527 209.0324" fill="none" stroke="#aaa" stroke-opacity="0.5" stroke-width="0.5"></path><path d="M173.8467 165.6308L235.0085 31.672" fill="none" stroke="#aaa" stroke-opacity="0.5" stroke-width="0.5"></path><path d="M217.6295 175.1621L235.0085 31.672" fill="none" stroke="#aaa" stroke-opacity="0.5" stroke-width="0.5"></path><path d="M307.9716 108.4676L145.1701 128.8178" fill="none" stroke="#aaa" stroke-opacity="0.5" stroke-width="0.5"></path><path d="M267.2119 114.4722L173.8467 165.6308" fill="none" stroke="#aaa" stroke-opacity="0.5" stroke-width="0.5"></path><path d="M240.1291 80.2725L112.4221 105.8155" fill="none" stroke="#aaa" stroke-opacity="0.5" stroke-width="0.5"></path><path d="M133.8169 186.0748L306.1743 146.6429" fill="none" stroke="#aaa" stroke-opacity="0.5" stroke-width="0.5"></path><path d="M199.2188 66.2125L217.6295 175.1621" fill="none" stroke="#aaa" stroke-opacity="0.5" stroke-width="0.5"></path><path d="M217.6295 175.1621L232.3178 221.5706" fill="none" stroke="#aaa" stroke-opacity="0.5" stroke-width="0.5"></path><path d="M199.2188 66.2125L163.9527 209.0324" fill="none" stroke="#aaa" stroke-opacity="0.5" stroke-width="0.5"></path><path d="M199.2188 66.2125L145.1701 128.8178" fill="none" stroke="#aaa" stroke-opacity="0.5" stroke-width="0.5"></path><path d="M268.0317 47.0883L145.1701 128.8178" fill="none" stroke="#aaa" stroke-opacity="0.5" stroke-width="0.5"></path><path d="M307.9716 108.4676L204.6686 122.63" fill="none" stroke="#aaa" stroke-opacity="0.5" stroke-width="0.5"></path><path d="M133.8169 186.0748L112.4221 105.8155" fill="none" stroke="#aaa" stroke-opacity="0.5" stroke-width="0.5"></path><path d="M217.6295 175.1621L145.1701 128.8178" fill="none" stroke="#aaa" stroke-opacity="0.5" stroke-width="0.5"></path><path d="M130.941 68.5545L240.1291 80.2725" fill="none" stroke="#aaa" stroke-opacity="0.5" stroke-width="0.5"></path><path d="M196.9605 218.2701L240.1291 80.2725" fill="none" stroke="#aaa" stroke-opacity="0.5" stroke-width="0.5"></path><path d="M197.637 27.9305L306.1743 146.6429" fill="none" stroke="#aaa" stroke-opacity="0.5" stroke-width="0.5"></path><path d="M116.8236 150.792L197.637 27.9305" fill="none" stroke="#aaa" stroke-opacity="0.5" stroke-width="0.5"></path><path d="M293.6512 73.5604L306.1743 146.6429" fill="none" stroke="#aaa" stroke-opacity="0.5" stroke-width="0.5"></path><path d="M264.1589 204.6004L173.8467 165.6308" fill="none" stroke="#aaa" stroke-opacity="0.5" stroke-width="0.5"></path><path d="M163.9527 209.0324L112.4221 105.8155" fill="none" stroke="#aaa" stroke-opacity="0.5" stroke-width="0.5"></path><path d="M116.8236 150.792L159.9202 42.3817" fill="none" stroke="#aaa" stroke-opacity="0.5" stroke-width="0.5"></path><path d="M267.2119 114.4722L163.9527 209.0324" fill="none" stroke="#aaa" stroke-opacity="0.5" stroke-width="0.5"></path><path d="M196.9605 218.2701L199.2188 66.2125" fill="none" stroke="#aaa" stroke-opacity="0.5" stroke-width="0.5"></path><path d="M197.637 27.9305L112.4221 105.8155" fill="none" stroke="#aaa" stroke-opacity="0.5" stroke-width="0.5"></path><path d="M293.6512 73.5604L112.4221 105.8155" fill="none" stroke="#aaa" stroke-opacity="0.5" stroke-width="0.5"></path><path d="M162.7037 91.4926L235.0085 31.672" fill="none" stroke="#aaa" stroke-opacity="0.5" stroke-width="0.5"></path><path d="M133.8169 186.0748L162.7037 91.4926" fill="none" stroke="#aaa" stroke-opacity="0.5" stroke-width="0.5"></path><path d="M232.3178 221.5706L293.6512 73.5604" fill="none" stroke="#aaa" stroke-opacity="0.5" stroke-width="0.5"></path><path d="M116.8236 150.792L235.0085 31.672" fill="none" stroke="#aaa" stroke-opacity="0.5" stroke-width="0.5"></path><path d="M159.9202 42.3817L268.0317 47.0883" fill="none" stroke="#aaa" stroke-opacity="0.5" stroke-width="0.5"></path><path d="M162.7037 91.4926L232.3178 221.5706" fill="none" stroke="#aaa" stroke-opacity="0.5" stroke-width="0.5"></path><path d="M292.3091 181.5737L293.6512 73.5604" fill="none" stroke="#aaa" stroke-opacity="0.5" stroke-width="0.5"></path><path d="M162.7037 91.4926L173.8467 165.6308" fill="none" stroke="#aaa" stroke-opacity="0.5" stroke-width="0.5"></path><path d="M116.8236 150.792L232.3178 221.5706" fill="none" stroke="#aaa" stroke-opacity="0.5" stroke-width="0.5"></path><path d="M204.6686 122.63L173.8467 165.6308" fill="none" stroke="#aaa" stroke-opacity="0.5" stroke-width="0.5"></path><path d="M116.8236 150.792L217.6295 175.1621" fill="none" stroke="#aaa" stroke-opacity="0.5" stroke-width="0.5"></path><path d="M196.9605 218.2701L197.637 27.9305" fill="none" stroke="#aaa" stroke-opacity="0.5" stroke-width="0.5"></path><path d="M240.1291 80.2725L173.8467 165.6308" fill="none" stroke="#aaa" stroke-opacity="0.5" stroke-width="0.5"></path><path d="M196.9605 218.2701L159.9202 42.3817" fill="none" stroke="#aaa" stroke-opacity="0.5" stroke-width="0.5"></path><path d="M307.9716 108.4676L268.0317 47.0883" fill="none" stroke="#aaa" stroke-opacity="0.5" stroke-width="0.5"></path><path d="M133.8169 186.0748L197.637 27.9305" fill="none" stroke="#aaa" stroke-opacity="0.5" stroke-width="0.5"></path><path d="M133.8169 186.0748L267.2119 114.4722" fill="none" stroke="#aaa" stroke-opacity="0.5" stroke-width="0.5"></path><path d="M130.941 68.5545L235.0085 31.672" fill="none" stroke="#aaa" stroke-opacity="0.5" stroke-width="0.5"></path><path d="M133.8169 186.0748L159.9202 42.3817" fill="none" stroke="#aaa" stroke-opacity="0.5" stroke-width="0.5"></path><path d="M255.4716 156.2821L292.3091 181.5737" fill="none" stroke="#aaa" stroke-opacity="0.5" stroke-width="0.5"></path><path d="M196.9605 218.2701L235.0085 31.672" fill="none" stroke="#aaa" stroke-opacity="0.5" stroke-width="0.5"></path><path d="M306.1743 146.6429L159.9202 42.3817" fill="none" stroke="#aaa" stroke-opacity="0.5" stroke-width="0.5"></path><path d="M173.8467 165.6308L268.0317 47.0883" fill="none" stroke="#aaa" stroke-opacity="0.5" stroke-width="0.5"></path><path d="M130.941 68.5545L232.3178 221.5706" fill="none" stroke="#aaa" stroke-opacity="0.5" stroke-width="0.5"></path><path d="M217.6295 175.1621L268.0317 47.0883" fill="none" stroke="#aaa" stroke-opacity="0.5" stroke-width="0.5"></path><path d="M255.4716 156.2821L264.1589 204.6004" fill="none" stroke="#aaa" stroke-opacity="0.5" stroke-width="0.5"></path><path d="M133.8169 186.0748L235.0085 31.672" fill="none" stroke="#aaa" stroke-opacity="0.5" stroke-width="0.5"></path><path d="M196.9605 218.2701L232.3178 221.5706" fill="none" stroke="#aaa" stroke-opacity="0.5" stroke-width="0.5"></path><path d="M130.941 68.5545L173.8467 165.6308" fill="none" stroke="#aaa" stroke-opacity="0.5" stroke-width="0.5"></path><path d="M196.9605 218.2701L173.8467 165.6308" fill="none" stroke="#aaa" stroke-opacity="0.5" stroke-width="0.5"></path><path d="M306.1743 146.6429L235.0085 31.672" fill="none" stroke="#aaa" stroke-opacity="0.5" stroke-width="0.5"></path><path d="M196.9605 218.2701L217.6295 175.1621" fill="none" stroke="#aaa" stroke-opacity="0.5" stroke-width="0.5"></path><path d="M240.1291 80.2725L163.9527 209.0324" fill="none" stroke="#aaa" stroke-opacity="0.5" stroke-width="0.5"></path><path d="M197.637 27.9305L159.9202 42.3817" fill="none" stroke="#aaa" stroke-opacity="0.5" stroke-width="0.5"></path><path d="M307.9716 108.4676L292.3091 181.5737" fill="none" stroke="#aaa" stroke-opacity="0.5" stroke-width="0.5"></path><path d="M293.6512 73.5604L159.9202 42.3817" fill="none" stroke="#aaa" stroke-opacity="0.5" stroke-width="0.5"></path><path d="M133.8169 186.0748L232.3178 221.5706" fill="none" stroke="#aaa" stroke-opacity="0.5" stroke-width="0.5"></path><path d="M264.1589 204.6004L268.0317 47.0883" fill="none" stroke="#aaa" stroke-opacity="0.5" stroke-width="0.5"></path><path d="M267.2119 114.4722L293.6512 73.5604" fill="none" stroke="#aaa" stroke-opacity="0.5" stroke-width="0.5"></path><path d="M307.9716 108.4676L130.941 68.5545" fill="none" stroke="#aaa" stroke-opacity="0.5" stroke-width="0.5"></path><path d="M133.8169 186.0748L217.6295 175.1621" fill="none" stroke="#aaa" stroke-opacity="0.5" stroke-width="0.5"></path><path d="M133.8169 186.0748L163.9527 209.0324" fill="none" stroke="#aaa" stroke-opacity="0.5" stroke-width="0.5"></path><path d="M133.8169 186.0748L145.1701 128.8178" fill="none" stroke="#aaa" stroke-opacity="0.5" stroke-width="0.5"></path><path d="M307.9716 108.4676L264.1589 204.6004" fill="none" stroke="#aaa" stroke-opacity="0.5" stroke-width="0.5"></path><path d="M199.2188 66.2125L292.3091 181.5737" fill="none" stroke="#aaa" stroke-opacity="0.5" stroke-width="0.5"></path><path d="M217.6295 175.1621L292.3091 181.5737" fill="none" stroke="#aaa" stroke-opacity="0.5" stroke-width="0.5"></path><path d="M116.8236 150.792L307.9716 108.4676" fill="none" stroke="#aaa" stroke-opacity="0.5" stroke-width="0.5"></path><path d="M255.4716 156.2821L240.1291 80.2725" fill="none" stroke="#aaa" stroke-opacity="0.5" stroke-width="0.5"></path><path d="M199.2188 66.2125L264.1589 204.6004" fill="none" stroke="#aaa" stroke-opacity="0.5" stroke-width="0.5"></path><path d="M217.6295 175.1621L130.941 68.5545" fill="none" stroke="#aaa" stroke-opacity="0.5" stroke-width="0.5"></path><path d="M159.9202 42.3817L112.4221 105.8155" fill="none" stroke="#aaa" stroke-opacity="0.5" stroke-width="0.5"></path><path d="M133.8169 186.0748L204.6686 122.63" fill="none" stroke="#aaa" stroke-opacity="0.5" stroke-width="0.5"></path><path d="M162.7037 91.4926L268.0317 47.0883" fill="none" stroke="#aaa" stroke-opacity="0.5" stroke-width="0.5"></path><path d="M197.637 27.9305L163.9527 209.0324" fill="none" stroke="#aaa" stroke-opacity="0.5" stroke-width="0.5"></path><path d="M197.637 27.9305L145.1701 128.8178" fill="none" stroke="#aaa" stroke-opacity="0.5" stroke-width="0.5"></path><path d="M293.6512 73.5604L163.9527 209.0324" fill="none" stroke="#aaa" stroke-opacity="0.5" stroke-width="0.5"></path><path d="M264.1589 204.6004L293.6512 73.5604" fill="none" stroke="#aaa" stroke-opacity="0.5" stroke-width="0.5"></path><path d="M293.6512 73.5604L145.1701 128.8178" fill="none" stroke="#aaa" stroke-opacity="0.5" stroke-width="0.5"></path><path d="M204.6686 122.63L268.0317 47.0883" fill="none" stroke="#aaa" stroke-opacity="0.5" stroke-width="0.5"></path><path d="M116.8236 150.792L268.0317 47.0883" fill="none" stroke="#aaa" stroke-opacity="0.5" stroke-width="0.5"></path><path d="M255.4716 156.2821L199.2188 66.2125" fill="none" stroke="#aaa" stroke-opacity="0.5" stroke-width="0.5"></path><path d="M145.1701 128.8178L235.0085 31.672" fill="none" stroke="#aaa" stroke-opacity="0.5" stroke-width="0.5"></path><path d="M307.9716 108.4676L306.1743 146.6429" fill="none" stroke="#aaa" stroke-opacity="0.5" stroke-width="0.5"></path><path d="M307.9716 108.4676L240.1291 80.2725" fill="none" stroke="#aaa" stroke-opacity="0.5" stroke-width="0.5"></path><path d="M232.3178 221.5706L197.637 27.9305" fill="none" stroke="#aaa" stroke-opacity="0.5" stroke-width="0.5"></path><path d="M162.7037 91.4926L293.6512 73.5604" fill="none" stroke="#aaa" stroke-opacity="0.5" stroke-width="0.5"></path><path d="M307.9716 108.4676L199.2188 66.2125" fill="none" stroke="#aaa" stroke-opacity="0.5" stroke-width="0.5"></path><path d="M199.2188 66.2125L240.1291 80.2725" fill="none" stroke="#aaa" stroke-opacity="0.5" stroke-width="0.5"></path><path d="M292.3091 181.5737L197.637 27.9305" fill="none" stroke="#aaa" stroke-opacity="0.5" stroke-width="0.5"></path><path d="M232.3178 221.5706L159.9202 42.3817" fill="none" stroke="#aaa" stroke-opacity="0.5" stroke-width="0.5"></path><path d="M173.8467 165.6308L306.1743 146.6429" fill="none" stroke="#aaa" stroke-opacity="0.5" stroke-width="0.5"></path><path d="M204.6686 122.63L293.6512 73.5604" fill="none" stroke="#aaa" stroke-opacity="0.5" stroke-width="0.5"></path><path d="M217.6295 175.1621L306.1743 146.6429" fill="none" stroke="#aaa" stroke-opacity="0.5" stroke-width="0.5"></path><path d="M267.2119 114.4722L112.4221 105.8155" fill="none" stroke="#aaa" stroke-opacity="0.5" stroke-width="0.5"></path><path d="M116.8236 150.792L292.3091 181.5737" fill="none" stroke="#aaa" stroke-opacity="0.5" stroke-width="0.5"></path><path d="M116.8236 150.792L133.8169 186.0748" fill="none" stroke="#aaa" stroke-opacity="0.5" stroke-width="0.5"></path><path d="M292.3091 181.5737L159.9202 42.3817" fill="none" stroke="#aaa" stroke-opacity="0.5" stroke-width="0.5"></path><path d="M130.941 68.5545L268.0317 47.0883" fill="none" stroke="#aaa" stroke-opacity="0.5" stroke-width="0.5"></path><path d="M255.4716 156.2821L196.9605 218.2701" fill="none" stroke="#aaa" stroke-opacity="0.5" stroke-width="0.5"></path><path d="M116.8236 150.792L130.941 68.5545" fill="none" stroke="#aaa" stroke-opacity="0.5" stroke-width="0.5"></path><path d="M173.8467 165.6308L112.4221 105.8155" fill="none" stroke="#aaa" stroke-opacity="0.5" stroke-width="0.5"></path><path d="M232.3178 221.5706L235.0085 31.672" fill="none" stroke="#aaa" stroke-opacity="0.5" stroke-width="0.5"></path><path d="M196.9605 218.2701L268.0317 47.0883" fill="none" stroke="#aaa" stroke-opacity="0.5" stroke-width="0.5"></path><path d="M240.1291 80.2725L293.6512 73.5604" fill="none" stroke="#aaa" stroke-opacity="0.5" stroke-width="0.5"></path><path d="M217.6295 175.1621L112.4221 105.8155" fill="none" stroke="#aaa" stroke-opacity="0.5" stroke-width="0.5"></path><path d="M292.3091 181.5737L235.0085 31.672" fill="none" stroke="#aaa" stroke-opacity="0.5" stroke-width="0.5"></path><path d="M255.4716 156.2821L235.0085 31.672" fill="none" stroke="#aaa" stroke-opacity="0.5" stroke-width="0.5"></path><path d="M267.2119 114.4722L162.7037 91.4926" fill="none" stroke="#aaa" stroke-opacity="0.5" stroke-width="0.5"></path><path d="M306.1743 146.6429L268.0317 47.0883" fill="none" stroke="#aaa" stroke-opacity="0.5" stroke-width="0.5"></path><path d="M264.1589 204.6004L112.4221 105.8155" fill="none" stroke="#aaa" stroke-opacity="0.5" stroke-width="0.5"></path><path d="M307.9716 108.4676L196.9605 218.2701" fill="none" stroke="#aaa" stroke-opacity="0.5" stroke-width="0.5"></path><path d="M1 0A1 1 0 1 1 1 -0.0001" fill="#5470c6" transform="matrix(17.5,0,0,17.5,306.1743,146.6429)"></path><path d="M1 0A1 1 0 1 1 1 -0.0001" fill="#5470c6" transform="matrix(17.5,0,0,17.5,292.3091,181.5737)"></path><path d="M1 0A1 1 0 1 1 1 -0.0001" fill="#5470c6" transform="matrix(17.5,0,0,17.5,204.6686,122.63)"></path><path d="M1 0A1 1 0 1 1 1 -0.0001" fill="#5470c6" transform="matrix(17.5,0,0,17.5,264.1589,204.6004)"></path><path d="M1 0A1 1 0 1 1 1 -0.0001" fill="#5470c6" transform="matrix(17.5,0,0,17.5,255.4716,156.2821)"></path><path d="M1 0A1 1 0 1 1 1 -0.0001" fill="#5470c6" transform="matrix(17.5,0,0,17.5,232.3178,221.5706)"></path><path d="M1 0A1 1 0 1 1 1 -0.0001" fill="#5470c6" transform="matrix(17.5,0,0,17.5,217.6295,175.1621)"></path><path d="M1 0A1 1 0 1 1 1 -0.0001" fill="#5470c6" transform="matrix(17.5,0,0,17.5,196.9605,218.2701)"></path><path d="M1 0A1 1 0 1 1 1 -0.0001" fill="#5470c6" transform="matrix(17.5,0,0,17.5,173.8467,165.6308)"></path><path d="M1 0A1 1 0 1 1 1 -0.0001" fill="#5470c6" transform="matrix(17.5,0,0,17.5,163.9527,209.0324)"></path><path d="M1 0A1 1 0 1 1 1 -0.0001" fill="#5470c6" transform="matrix(17.5,0,0,17.5,133.8169,186.0748)"></path><path d="M1 0A1 1 0 1 1 1 -0.0001" fill="#5470c6" transform="matrix(17.5,0,0,17.5,116.8236,150.792)"></path><path d="M1 0A1 1 0 1 1 1 -0.0001" fill="#5470c6" transform="matrix(17.5,0,0,17.5,145.1701,128.8178)"></path><path d="M1 0A1 1 0 1 1 1 -0.0001" fill="#5470c6" transform="matrix(17.5,0,0,17.5,112.4221,105.8155)"></path><path d="M1 0A1 1 0 1 1 1 -0.0001" fill="#5470c6" transform="matrix(17.5,0,0,17.5,130.941,68.5545)"></path><path d="M1 0A1 1 0 1 1 1 -0.0001" fill="#5470c6" transform="matrix(17.5,0,0,17.5,159.9202,42.3817)"></path><path d="M1 0A1 1 0 1 1 1 -0.0001" fill="#5470c6" transform="matrix(17.5,0,0,17.5,162.7037,91.4926)"></path><path d="M1 0A1 1 0 1 1 1 -0.0001" fill="#5470c6" transform="matrix(17.5,0,0,17.5,197.637,27.9305)"></path><path d="M1 0A1 1 0 1 1 1 -0.0001" fill="#5470c6" transform="matrix(17.5,0,0,17.5,235.0085,31.672)"></path><path d="M1 0A1 1 0 1 1 1 -0.0001" fill="#5470c6" transform="matrix(17.5,0,0,17.5,268.0317,47.0883)"></path><path d="M1 0A1 1 0 1 1 1 -0.0001" fill="#5470c6" transform="matrix(17.5,0,0,17.5,199.2188,66.2125)"></path><path d="M1 0A1 1 0 1 1 1 -0.0001" fill="#5470c6" transform="matrix(17.5,0,0,17.5,240.1291,80.2725)"></path><path d="M1 0A1 1 0 1 1 1 -0.0001" fill="#5470c6" transform="matrix(17.5,0,0,17.5,293.6512,73.5604)"></path><path d="M1 0A1 1 0 1 1 1 -0.0001" fill="#5470c6" transform="matrix(17.5,0,0,17.5,267.2119,114.4722)"></path><path d="M1 0A1 1 0 1 1 1 -0.0001" fill="#5470c6" transform="matrix(17.5,0,0,17.5,307.9716,108.4676)"></path><path d="M-25.1792 -5l50.3584 0l0 32l-50.3584 0Z" fill="rgb(0,0,0)" fill-opacity="0" stroke="#ccc" stroke-width="0" transform="translate(237.5 5)"></path><text dominant-baseline="central" fill="#333" style="font-size:22px;font-family:sans-serif;font-weight:bolder;" text-anchor="middle" transform="translate(237.5 5)" y="11">C42</text></g></svg>