<svg baseprofile="full" height="250" style="position:absolute;left:0;top:0;user-select:none" version="1.1" width="475" xmlns="http://www.w3.org/2000/svg" xmlns:xlink="http://www.w3.org/1999/xlink"><rect fill="none" height="250" id="0" width="475" x="0" y="0"></rect><g><path d="M212.8401 187.6018L259.1374 206.9709" fill="none" stroke="#aaa" stroke-opacity="0.5" stroke-width="0.5"></path><path d="M202.4051 26.5086L167.3386 40.1641" fill="none" stroke="#aaa" stroke-opacity="0.5" stroke-width="0.5"></path><path d="M246.2581 157.3517L176.408 165.1619" fill="none" stroke="#aaa" stroke-opacity="0.5" stroke-width="0.5"></path><path d="M285.0416 185.4951L246.6053 82.0992" fill="none" stroke="#aaa" stroke-opacity="0.5" stroke-width="0.5"></path><path d="M202.4051 26.5086L309.3263 118.2749" fill="none" stroke="#aaa" stroke-opacity="0.5" stroke-width="0.5"></path><path d="M208.7609 120.8157L137.1462 60.9041" fill="none" stroke="#aaa" stroke-opacity="0.5" stroke-width="0.5"></path><path d="M246.2581 157.3517L259.1374 206.9709" fill="none" stroke="#aaa" stroke-opacity="0.5" stroke-width="0.5"></path><path d="M126.2545 171.6198L246.6053 82.0992" fill="none" stroke="#aaa" stroke-opacity="0.5" stroke-width="0.5"></path><path d="M176.408 165.1619L168.1003 90.8784" fill="none" stroke="#aaa" stroke-opacity="0.5" stroke-width="0.5"></path><path d="M149.6802 201.2803L149.1186 133.0826" fill="none" stroke="#aaa" stroke-opacity="0.5" stroke-width="0.5"></path><path d="M259.1374 206.9709L183.7699 219.2599" fill="none" stroke="#aaa" stroke-opacity="0.5" stroke-width="0.5"></path><path d="M208.7609 120.8157L302.6361 156.7024" fill="none" stroke="#aaa" stroke-opacity="0.5" stroke-width="0.5"></path><path d="M246.2581 157.3517L268.4472 120.7495" fill="none" stroke="#aaa" stroke-opacity="0.5" stroke-width="0.5"></path><path d="M168.1003 90.8784L137.1462 60.9041" fill="none" stroke="#aaa" stroke-opacity="0.5" stroke-width="0.5"></path><path d="M206.5245 65.9992L208.7609 120.8157" fill="none" stroke="#aaa" stroke-opacity="0.5" stroke-width="0.5"></path><path d="M212.8401 187.6018L137.1462 60.9041" fill="none" stroke="#aaa" stroke-opacity="0.5" stroke-width="0.5"></path><path d="M246.2581 157.3517L275.5558 50.786" fill="none" stroke="#aaa" stroke-opacity="0.5" stroke-width="0.5"></path><path d="M110.2256 133.8695L183.7699 219.2599" fill="none" stroke="#aaa" stroke-opacity="0.5" stroke-width="0.5"></path><path d="M299.3981 80.5181L242.2608 31.8332" fill="none" stroke="#aaa" stroke-opacity="0.5" stroke-width="0.5"></path><path d="M176.408 165.1619L268.4472 120.7495" fill="none" stroke="#aaa" stroke-opacity="0.5" stroke-width="0.5"></path><path d="M206.5245 65.9992L202.4051 26.5086" fill="none" stroke="#aaa" stroke-opacity="0.5" stroke-width="0.5"></path><path d="M246.2581 157.3517L137.1462 60.9041" fill="none" stroke="#aaa" stroke-opacity="0.5" stroke-width="0.5"></path><path d="M168.1003 90.8784L302.6361 156.7024" fill="none" stroke="#aaa" stroke-opacity="0.5" stroke-width="0.5"></path><path d="M212.8401 187.6018L302.6361 156.7024" fill="none" stroke="#aaa" stroke-opacity="0.5" stroke-width="0.5"></path><path d="M246.2581 157.3517L206.5245 65.9992" fill="none" stroke="#aaa" stroke-opacity="0.5" stroke-width="0.5"></path><path d="M225.5535 223.4064L275.5558 50.786" fill="none" stroke="#aaa" stroke-opacity="0.5" stroke-width="0.5"></path><path d="M206.5245 65.9992L212.8401 187.6018" fill="none" stroke="#aaa" stroke-opacity="0.5" stroke-width="0.5"></path><path d="M299.3981 80.5181L119.3542 93.6667" fill="none" stroke="#aaa" stroke-opacity="0.5" stroke-width="0.5"></path><path d="M206.5245 65.9992L119.3542 93.6667" fill="none" stroke="#aaa" stroke-opacity="0.5" stroke-width="0.5"></path><path d="M242.2608 31.8332L149.6802 201.2803" fill="none" stroke="#aaa" stroke-opacity="0.5" stroke-width="0.5"></path><path d="M242.2608 31.8332L110.2256 133.8695" fill="none" stroke="#aaa" stroke-opacity="0.5" stroke-width="0.5"></path><path d="M202.4051 26.5086L183.7699 219.2599" fill="none" stroke="#aaa" stroke-opacity="0.5" stroke-width="0.5"></path><path d="M275.5558 50.786L110.2256 133.8695" fill="none" stroke="#aaa" stroke-opacity="0.5" stroke-width="0.5"></path><path d="M206.5245 65.9992L299.3981 80.5181" fill="none" stroke="#aaa" stroke-opacity="0.5" stroke-width="0.5"></path><path d="M246.2581 157.3517L302.6361 156.7024" fill="none" stroke="#aaa" stroke-opacity="0.5" stroke-width="0.5"></path><path d="M167.3386 40.1641L149.6802 201.2803" fill="none" stroke="#aaa" stroke-opacity="0.5" stroke-width="0.5"></path><path d="M225.5535 223.4064L309.3263 118.2749" fill="none" stroke="#aaa" stroke-opacity="0.5" stroke-width="0.5"></path><path d="M167.3386 40.1641L110.2256 133.8695" fill="none" stroke="#aaa" stroke-opacity="0.5" stroke-width="0.5"></path><path d="M202.4051 26.5086L208.7609 120.8157" fill="none" stroke="#aaa" stroke-opacity="0.5" stroke-width="0.5"></path><path d="M242.2608 31.8332L149.1186 133.0826" fill="none" stroke="#aaa" stroke-opacity="0.5" stroke-width="0.5"></path><path d="M259.1374 206.9709L246.6053 82.0992" fill="none" stroke="#aaa" stroke-opacity="0.5" stroke-width="0.5"></path><path d="M126.2545 171.6198L225.5535 223.4064" fill="none" stroke="#aaa" stroke-opacity="0.5" stroke-width="0.5"></path><path d="M208.7609 120.8157L242.2608 31.8332" fill="none" stroke="#aaa" stroke-opacity="0.5" stroke-width="0.5"></path><path d="M206.5245 65.9992L246.6053 82.0992" fill="none" stroke="#aaa" stroke-opacity="0.5" stroke-width="0.5"></path><path d="M167.3386 40.1641L149.1186 133.0826" fill="none" stroke="#aaa" stroke-opacity="0.5" stroke-width="0.5"></path><path d="M225.5535 223.4064L285.0416 185.4951" fill="none" stroke="#aaa" stroke-opacity="0.5" stroke-width="0.5"></path><path d="M302.6361 156.7024L110.2256 133.8695" fill="none" stroke="#aaa" stroke-opacity="0.5" stroke-width="0.5"></path><path d="M202.4051 26.5086L212.8401 187.6018" fill="none" stroke="#aaa" stroke-opacity="0.5" stroke-width="0.5"></path><path d="M126.2545 171.6198L149.6802 201.2803" fill="none" stroke="#aaa" stroke-opacity="0.5" stroke-width="0.5"></path><path d="M126.2545 171.6198L110.2256 133.8695" fill="none" stroke="#aaa" stroke-opacity="0.5" stroke-width="0.5"></path><path d="M176.408 165.1619L167.3386 40.1641" fill="none" stroke="#aaa" stroke-opacity="0.5" stroke-width="0.5"></path><path d="M208.7609 120.8157L119.3542 93.6667" fill="none" stroke="#aaa" stroke-opacity="0.5" stroke-width="0.5"></path><path d="M137.1462 60.9041L110.2256 133.8695" fill="none" stroke="#aaa" stroke-opacity="0.5" stroke-width="0.5"></path><path d="M176.408 165.1619L309.3263 118.2749" fill="none" stroke="#aaa" stroke-opacity="0.5" stroke-width="0.5"></path><path d="M285.0416 185.4951L176.408 165.1619" fill="none" stroke="#aaa" stroke-opacity="0.5" stroke-width="0.5"></path><path d="M302.6361 156.7024L149.1186 133.0826" fill="none" stroke="#aaa" stroke-opacity="0.5" stroke-width="0.5"></path><path d="M246.6053 82.0992L149.1186 133.0826" fill="none" stroke="#aaa" stroke-opacity="0.5" stroke-width="0.5"></path><path d="M285.0416 185.4951L168.1003 90.8784" fill="none" stroke="#aaa" stroke-opacity="0.5" stroke-width="0.5"></path><path d="M126.2545 171.6198L149.1186 133.0826" fill="none" stroke="#aaa" stroke-opacity="0.5" stroke-width="0.5"></path><path d="M168.1003 90.8784L208.7609 120.8157" fill="none" stroke="#aaa" stroke-opacity="0.5" stroke-width="0.5"></path><path d="M285.0416 185.4951L259.1374 206.9709" fill="none" stroke="#aaa" stroke-opacity="0.5" stroke-width="0.5"></path><path d="M309.3263 118.2749L119.3542 93.6667" fill="none" stroke="#aaa" stroke-opacity="0.5" stroke-width="0.5"></path><path d="M168.1003 90.8784L242.2608 31.8332" fill="none" stroke="#aaa" stroke-opacity="0.5" stroke-width="0.5"></path><path d="M212.8401 187.6018L242.2608 31.8332" fill="none" stroke="#aaa" stroke-opacity="0.5" stroke-width="0.5"></path><path d="M126.2545 171.6198L168.1003 90.8784" fill="none" stroke="#aaa" stroke-opacity="0.5" stroke-width="0.5"></path><path d="M149.1186 133.0826L268.4472 120.7495" fill="none" stroke="#aaa" stroke-opacity="0.5" stroke-width="0.5"></path><path d="M208.7609 120.8157L246.6053 82.0992" fill="none" stroke="#aaa" stroke-opacity="0.5" stroke-width="0.5"></path><path d="M225.5535 223.4064L183.7699 219.2599" fill="none" stroke="#aaa" stroke-opacity="0.5" stroke-width="0.5"></path><path d="M275.5558 50.786L259.1374 206.9709" fill="none" stroke="#aaa" stroke-opacity="0.5" stroke-width="0.5"></path><path d="M168.1003 90.8784L119.3542 93.6667" fill="none" stroke="#aaa" stroke-opacity="0.5" stroke-width="0.5"></path><path d="M246.2581 157.3517L242.2608 31.8332" fill="none" stroke="#aaa" stroke-opacity="0.5" stroke-width="0.5"></path><path d="M212.8401 187.6018L119.3542 93.6667" fill="none" stroke="#aaa" stroke-opacity="0.5" stroke-width="0.5"></path><path d="M285.0416 185.4951L268.4472 120.7495" fill="none" stroke="#aaa" stroke-opacity="0.5" stroke-width="0.5"></path><path d="M225.5535 223.4064L208.7609 120.8157" fill="none" stroke="#aaa" stroke-opacity="0.5" stroke-width="0.5"></path><path d="M309.3263 118.2749L246.6053 82.0992" fill="none" stroke="#aaa" stroke-opacity="0.5" stroke-width="0.5"></path><path d="M176.408 165.1619L242.2608 31.8332" fill="none" stroke="#aaa" stroke-opacity="0.5" stroke-width="0.5"></path><path d="M246.2581 157.3517L119.3542 93.6667" fill="none" stroke="#aaa" stroke-opacity="0.5" stroke-width="0.5"></path><path d="M126.2545 171.6198L268.4472 120.7495" fill="none" stroke="#aaa" stroke-opacity="0.5" stroke-width="0.5"></path><path d="M302.6361 156.7024L259.1374 206.9709" fill="none" stroke="#aaa" stroke-opacity="0.5" stroke-width="0.5"></path><path d="M225.5535 223.4064L202.4051 26.5086" fill="none" stroke="#aaa" stroke-opacity="0.5" stroke-width="0.5"></path><path d="M246.2581 157.3517L299.3981 80.5181" fill="none" stroke="#aaa" stroke-opacity="0.5" stroke-width="0.5"></path><path d="M299.3981 80.5181L225.5535 223.4064" fill="none" stroke="#aaa" stroke-opacity="0.5" stroke-width="0.5"></path><path d="M225.5535 223.4064L212.8401 187.6018" fill="none" stroke="#aaa" stroke-opacity="0.5" stroke-width="0.5"></path><path d="M176.408 165.1619L183.7699 219.2599" fill="none" stroke="#aaa" stroke-opacity="0.5" stroke-width="0.5"></path><path d="M168.1003 90.8784L246.6053 82.0992" fill="none" stroke="#aaa" stroke-opacity="0.5" stroke-width="0.5"></path><path d="M212.8401 187.6018L246.6053 82.0992" fill="none" stroke="#aaa" stroke-opacity="0.5" stroke-width="0.5"></path><path d="M242.2608 31.8332L137.1462 60.9041" fill="none" stroke="#aaa" stroke-opacity="0.5" stroke-width="0.5"></path><path d="M299.3981 80.5181L149.6802 201.2803" fill="none" stroke="#aaa" stroke-opacity="0.5" stroke-width="0.5"></path><path d="M299.3981 80.5181L110.2256 133.8695" fill="none" stroke="#aaa" stroke-opacity="0.5" stroke-width="0.5"></path><path d="M275.5558 50.786L137.1462 60.9041" fill="none" stroke="#aaa" stroke-opacity="0.5" stroke-width="0.5"></path><path d="M202.4051 26.5086L110.2256 133.8695" fill="none" stroke="#aaa" stroke-opacity="0.5" stroke-width="0.5"></path><path d="M167.3386 40.1641L137.1462 60.9041" fill="none" stroke="#aaa" stroke-opacity="0.5" stroke-width="0.5"></path><path d="M246.2581 157.3517L126.2545 171.6198" fill="none" stroke="#aaa" stroke-opacity="0.5" stroke-width="0.5"></path><path d="M299.3981 80.5181L149.1186 133.0826" fill="none" stroke="#aaa" stroke-opacity="0.5" stroke-width="0.5"></path><path d="M225.5535 223.4064L246.6053 82.0992" fill="none" stroke="#aaa" stroke-opacity="0.5" stroke-width="0.5"></path><path d="M275.5558 50.786L302.6361 156.7024" fill="none" stroke="#aaa" stroke-opacity="0.5" stroke-width="0.5"></path><path d="M285.0416 185.4951L167.3386 40.1641" fill="none" stroke="#aaa" stroke-opacity="0.5" stroke-width="0.5"></path><path d="M202.4051 26.5086L149.1186 133.0826" fill="none" stroke="#aaa" stroke-opacity="0.5" stroke-width="0.5"></path><path d="M206.5245 65.9992L176.408 165.1619" fill="none" stroke="#aaa" stroke-opacity="0.5" stroke-width="0.5"></path><path d="M299.3981 80.5181L168.1003 90.8784" fill="none" stroke="#aaa" stroke-opacity="0.5" stroke-width="0.5"></path><path d="M167.3386 40.1641L302.6361 156.7024" fill="none" stroke="#aaa" stroke-opacity="0.5" stroke-width="0.5"></path><path d="M206.5245 65.9992L168.1003 90.8784" fill="none" stroke="#aaa" stroke-opacity="0.5" stroke-width="0.5"></path><path d="M285.0416 185.4951L309.3263 118.2749" fill="none" stroke="#aaa" stroke-opacity="0.5" stroke-width="0.5"></path><path d="M302.6361 156.7024L137.1462 60.9041" fill="none" stroke="#aaa" stroke-opacity="0.5" stroke-width="0.5"></path><path d="M149.6802 201.2803L119.3542 93.6667" fill="none" stroke="#aaa" stroke-opacity="0.5" stroke-width="0.5"></path><path d="M126.2545 171.6198L167.3386 40.1641" fill="none" stroke="#aaa" stroke-opacity="0.5" stroke-width="0.5"></path><path d="M206.5245 65.9992L259.1374 206.9709" fill="none" stroke="#aaa" stroke-opacity="0.5" stroke-width="0.5"></path><path d="M126.2545 171.6198L309.3263 118.2749" fill="none" stroke="#aaa" stroke-opacity="0.5" stroke-width="0.5"></path><path d="M259.1374 206.9709L268.4472 120.7495" fill="none" stroke="#aaa" stroke-opacity="0.5" stroke-width="0.5"></path><path d="M126.2545 171.6198L285.0416 185.4951" fill="none" stroke="#aaa" stroke-opacity="0.5" stroke-width="0.5"></path><path d="M206.5245 65.9992L268.4472 120.7495" fill="none" stroke="#aaa" stroke-opacity="0.5" stroke-width="0.5"></path><path d="M119.3542 93.6667L268.4472 120.7495" fill="none" stroke="#aaa" stroke-opacity="0.5" stroke-width="0.5"></path><path d="M149.6802 201.2803L246.6053 82.0992" fill="none" stroke="#aaa" stroke-opacity="0.5" stroke-width="0.5"></path><path d="M202.4051 26.5086L259.1374 206.9709" fill="none" stroke="#aaa" stroke-opacity="0.5" stroke-width="0.5"></path><path d="M149.1186 133.0826L183.7699 219.2599" fill="none" stroke="#aaa" stroke-opacity="0.5" stroke-width="0.5"></path><path d="M285.0416 185.4951L242.2608 31.8332" fill="none" stroke="#aaa" stroke-opacity="0.5" stroke-width="0.5"></path><path d="M259.1374 206.9709L137.1462 60.9041" fill="none" stroke="#aaa" stroke-opacity="0.5" stroke-width="0.5"></path><path d="M212.8401 187.6018L149.6802 201.2803" fill="none" stroke="#aaa" stroke-opacity="0.5" stroke-width="0.5"></path><path d="M212.8401 187.6018L110.2256 133.8695" fill="none" stroke="#aaa" stroke-opacity="0.5" stroke-width="0.5"></path><path d="M246.2581 157.3517L225.5535 223.4064" fill="none" stroke="#aaa" stroke-opacity="0.5" stroke-width="0.5"></path><path d="M206.5245 65.9992L137.1462 60.9041" fill="none" stroke="#aaa" stroke-opacity="0.5" stroke-width="0.5"></path><path d="M275.5558 50.786L242.2608 31.8332" fill="none" stroke="#aaa" stroke-opacity="0.5" stroke-width="0.5"></path><path d="M285.0416 185.4951L183.7699 219.2599" fill="none" stroke="#aaa" stroke-opacity="0.5" stroke-width="0.5"></path><path d="M167.3386 40.1641L208.7609 120.8157" fill="none" stroke="#aaa" stroke-opacity="0.5" stroke-width="0.5"></path><path d="M246.2581 157.3517L149.6802 201.2803" fill="none" stroke="#aaa" stroke-opacity="0.5" stroke-width="0.5"></path><path d="M246.2581 157.3517L110.2256 133.8695" fill="none" stroke="#aaa" stroke-opacity="0.5" stroke-width="0.5"></path><path d="M242.2608 31.8332L119.3542 93.6667" fill="none" stroke="#aaa" stroke-opacity="0.5" stroke-width="0.5"></path><path d="M212.8401 187.6018L149.1186 133.0826" fill="none" stroke="#aaa" stroke-opacity="0.5" stroke-width="0.5"></path><path d="M126.2545 171.6198L183.7699 219.2599" fill="none" stroke="#aaa" stroke-opacity="0.5" stroke-width="0.5"></path><path d="M208.7609 120.8157L268.4472 120.7495" fill="none" stroke="#aaa" stroke-opacity="0.5" stroke-width="0.5"></path><path d="M275.5558 50.786L119.3542 93.6667" fill="none" stroke="#aaa" stroke-opacity="0.5" stroke-width="0.5"></path><path d="M212.8401 187.6018L168.1003 90.8784" fill="none" stroke="#aaa" stroke-opacity="0.5" stroke-width="0.5"></path><path d="M176.408 165.1619L149.6802 201.2803" fill="none" stroke="#aaa" stroke-opacity="0.5" stroke-width="0.5"></path><path d="M176.408 165.1619L110.2256 133.8695" fill="none" stroke="#aaa" stroke-opacity="0.5" stroke-width="0.5"></path><path d="M167.3386 40.1641L119.3542 93.6667" fill="none" stroke="#aaa" stroke-opacity="0.5" stroke-width="0.5"></path><path d="M246.2581 157.3517L149.1186 133.0826" fill="none" stroke="#aaa" stroke-opacity="0.5" stroke-width="0.5"></path><path d="M299.3981 80.5181L167.3386 40.1641" fill="none" stroke="#aaa" stroke-opacity="0.5" stroke-width="0.5"></path><path d="M206.5245 65.9992L167.3386 40.1641" fill="none" stroke="#aaa" stroke-opacity="0.5" stroke-width="0.5"></path><path d="M302.6361 156.7024L242.2608 31.8332" fill="none" stroke="#aaa" stroke-opacity="0.5" stroke-width="0.5"></path><path d="M126.2545 171.6198L208.7609 120.8157" fill="none" stroke="#aaa" stroke-opacity="0.5" stroke-width="0.5"></path><path d="M202.4051 26.5086L137.1462 60.9041" fill="none" stroke="#aaa" stroke-opacity="0.5" stroke-width="0.5"></path><path d="M299.3981 80.5181L309.3263 118.2749" fill="none" stroke="#aaa" stroke-opacity="0.5" stroke-width="0.5"></path><path d="M246.2581 157.3517L168.1003 90.8784" fill="none" stroke="#aaa" stroke-opacity="0.5" stroke-width="0.5"></path><path d="M309.3263 118.2749L268.4472 120.7495" fill="none" stroke="#aaa" stroke-opacity="0.5" stroke-width="0.5"></path><path d="M176.408 165.1619L149.1186 133.0826" fill="none" stroke="#aaa" stroke-opacity="0.5" stroke-width="0.5"></path><path d="M242.2608 31.8332L246.6053 82.0992" fill="none" stroke="#aaa" stroke-opacity="0.5" stroke-width="0.5"></path><path d="M126.2545 171.6198L202.4051 26.5086" fill="none" stroke="#aaa" stroke-opacity="0.5" stroke-width="0.5"></path><path d="M302.6361 156.7024L119.3542 93.6667" fill="none" stroke="#aaa" stroke-opacity="0.5" stroke-width="0.5"></path><path d="M246.6053 82.0992L119.3542 93.6667" fill="none" stroke="#aaa" stroke-opacity="0.5" stroke-width="0.5"></path><path d="M225.5535 223.4064L176.408 165.1619" fill="none" stroke="#aaa" stroke-opacity="0.5" stroke-width="0.5"></path><path d="M126.2545 171.6198L212.8401 187.6018" fill="none" stroke="#aaa" stroke-opacity="0.5" stroke-width="0.5"></path><path d="M275.5558 50.786L246.6053 82.0992" fill="none" stroke="#aaa" stroke-opacity="0.5" stroke-width="0.5"></path><path d="M225.5535 223.4064L168.1003 90.8784" fill="none" stroke="#aaa" stroke-opacity="0.5" stroke-width="0.5"></path><path d="M202.4051 26.5086L302.6361 156.7024" fill="none" stroke="#aaa" stroke-opacity="0.5" stroke-width="0.5"></path><path d="M168.1003 90.8784L268.4472 120.7495" fill="none" stroke="#aaa" stroke-opacity="0.5" stroke-width="0.5"></path><path d="M299.3981 80.5181L285.0416 185.4951" fill="none" stroke="#aaa" stroke-opacity="0.5" stroke-width="0.5"></path><path d="M167.3386 40.1641L246.6053 82.0992" fill="none" stroke="#aaa" stroke-opacity="0.5" stroke-width="0.5"></path><path d="M137.1462 60.9041L119.3542 93.6667" fill="none" stroke="#aaa" stroke-opacity="0.5" stroke-width="0.5"></path><path d="M212.8401 187.6018L268.4472 120.7495" fill="none" stroke="#aaa" stroke-opacity="0.5" stroke-width="0.5"></path><path d="M225.5535 223.4064L259.1374 206.9709" fill="none" stroke="#aaa" stroke-opacity="0.5" stroke-width="0.5"></path><path d="M302.6361 156.7024L246.6053 82.0992" fill="none" stroke="#aaa" stroke-opacity="0.5" stroke-width="0.5"></path><path d="M208.7609 120.8157L309.3263 118.2749" fill="none" stroke="#aaa" stroke-opacity="0.5" stroke-width="0.5"></path><path d="M206.5245 65.9992L242.2608 31.8332" fill="none" stroke="#aaa" stroke-opacity="0.5" stroke-width="0.5"></path><path d="M225.5535 223.4064L268.4472 120.7495" fill="none" stroke="#aaa" stroke-opacity="0.5" stroke-width="0.5"></path><path d="M137.1462 60.9041L246.6053 82.0992" fill="none" stroke="#aaa" stroke-opacity="0.5" stroke-width="0.5"></path><path d="M176.408 165.1619L259.1374 206.9709" fill="none" stroke="#aaa" stroke-opacity="0.5" stroke-width="0.5"></path><path d="M259.1374 206.9709L119.3542 93.6667" fill="none" stroke="#aaa" stroke-opacity="0.5" stroke-width="0.5"></path><path d="M299.3981 80.5181L183.7699 219.2599" fill="none" stroke="#aaa" stroke-opacity="0.5" stroke-width="0.5"></path><path d="M206.5245 65.9992L183.7699 219.2599" fill="none" stroke="#aaa" stroke-opacity="0.5" stroke-width="0.5"></path><path d="M225.5535 223.4064L137.1462 60.9041" fill="none" stroke="#aaa" stroke-opacity="0.5" stroke-width="0.5"></path><path d="M168.1003 90.8784L167.3386 40.1641" fill="none" stroke="#aaa" stroke-opacity="0.5" stroke-width="0.5"></path><path d="M212.8401 187.6018L167.3386 40.1641" fill="none" stroke="#aaa" stroke-opacity="0.5" stroke-width="0.5"></path><path d="M299.3981 80.5181L208.7609 120.8157" fill="none" stroke="#aaa" stroke-opacity="0.5" stroke-width="0.5"></path><path d="M168.1003 90.8784L309.3263 118.2749" fill="none" stroke="#aaa" stroke-opacity="0.5" stroke-width="0.5"></path><path d="M110.2256 133.8695L119.3542 93.6667" fill="none" stroke="#aaa" stroke-opacity="0.5" stroke-width="0.5"></path><path d="M212.8401 187.6018L309.3263 118.2749" fill="none" stroke="#aaa" stroke-opacity="0.5" stroke-width="0.5"></path><path d="M202.4051 26.5086L242.2608 31.8332" fill="none" stroke="#aaa" stroke-opacity="0.5" stroke-width="0.5"></path><path d="M225.5535 223.4064L302.6361 156.7024" fill="none" stroke="#aaa" stroke-opacity="0.5" stroke-width="0.5"></path><path d="M299.3981 80.5181L202.4051 26.5086" fill="none" stroke="#aaa" stroke-opacity="0.5" stroke-width="0.5"></path><path d="M246.2581 157.3517L167.3386 40.1641" fill="none" stroke="#aaa" stroke-opacity="0.5" stroke-width="0.5"></path><path d="M285.0416 185.4951L149.6802 201.2803" fill="none" stroke="#aaa" stroke-opacity="0.5" stroke-width="0.5"></path><path d="M285.0416 185.4951L110.2256 133.8695" fill="none" stroke="#aaa" stroke-opacity="0.5" stroke-width="0.5"></path><path d="M149.6802 201.2803L268.4472 120.7495" fill="none" stroke="#aaa" stroke-opacity="0.5" stroke-width="0.5"></path><path d="M299.3981 80.5181L212.8401 187.6018" fill="none" stroke="#aaa" stroke-opacity="0.5" stroke-width="0.5"></path><path d="M246.2581 157.3517L309.3263 118.2749" fill="none" stroke="#aaa" stroke-opacity="0.5" stroke-width="0.5"></path><path d="M202.4051 26.5086L119.3542 93.6667" fill="none" stroke="#aaa" stroke-opacity="0.5" stroke-width="0.5"></path><path d="M225.5535 223.4064L167.3386 40.1641" fill="none" stroke="#aaa" stroke-opacity="0.5" stroke-width="0.5"></path><path d="M275.5558 50.786L149.6802 201.2803" fill="none" stroke="#aaa" stroke-opacity="0.5" stroke-width="0.5"></path><path d="M176.408 165.1619L137.1462 60.9041" fill="none" stroke="#aaa" stroke-opacity="0.5" stroke-width="0.5"></path><path d="M208.7609 120.8157L183.7699 219.2599" fill="none" stroke="#aaa" stroke-opacity="0.5" stroke-width="0.5"></path><path d="M285.0416 185.4951L149.1186 133.0826" fill="none" stroke="#aaa" stroke-opacity="0.5" stroke-width="0.5"></path><path d="M110.2256 133.8695L246.6053 82.0992" fill="none" stroke="#aaa" stroke-opacity="0.5" stroke-width="0.5"></path><path d="M183.7699 219.2599L119.3542 93.6667" fill="none" stroke="#aaa" stroke-opacity="0.5" stroke-width="0.5"></path><path d="M246.2581 157.3517L285.0416 185.4951" fill="none" stroke="#aaa" stroke-opacity="0.5" stroke-width="0.5"></path><path d="M176.408 165.1619L302.6361 156.7024" fill="none" stroke="#aaa" stroke-opacity="0.5" stroke-width="0.5"></path><path d="M275.5558 50.786L149.1186 133.0826" fill="none" stroke="#aaa" stroke-opacity="0.5" stroke-width="0.5"></path><path d="M309.3263 118.2749L183.7699 219.2599" fill="none" stroke="#aaa" stroke-opacity="0.5" stroke-width="0.5"></path><path d="M299.3981 80.5181L246.6053 82.0992" fill="none" stroke="#aaa" stroke-opacity="0.5" stroke-width="0.5"></path><path d="M275.5558 50.786L176.408 165.1619" fill="none" stroke="#aaa" stroke-opacity="0.5" stroke-width="0.5"></path><path d="M202.4051 26.5086L246.6053 82.0992" fill="none" stroke="#aaa" stroke-opacity="0.5" stroke-width="0.5"></path><path d="M302.6361 156.7024L149.6802 201.2803" fill="none" stroke="#aaa" stroke-opacity="0.5" stroke-width="0.5"></path><path d="M275.5558 50.786L168.1003 90.8784" fill="none" stroke="#aaa" stroke-opacity="0.5" stroke-width="0.5"></path><path d="M242.2608 31.8332L259.1374 206.9709" fill="none" stroke="#aaa" stroke-opacity="0.5" stroke-width="0.5"></path><path d="M137.1462 60.9041L149.6802 201.2803" fill="none" stroke="#aaa" stroke-opacity="0.5" stroke-width="0.5"></path><path d="M168.1003 90.8784L183.7699 219.2599" fill="none" stroke="#aaa" stroke-opacity="0.5" stroke-width="0.5"></path><path d="M212.8401 187.6018L183.7699 219.2599" fill="none" stroke="#aaa" stroke-opacity="0.5" stroke-width="0.5"></path><path d="M167.3386 40.1641L259.1374 206.9709" fill="none" stroke="#aaa" stroke-opacity="0.5" stroke-width="0.5"></path><path d="M246.2581 157.3517L183.7699 219.2599" fill="none" stroke="#aaa" stroke-opacity="0.5" stroke-width="0.5"></path><path d="M212.8401 187.6018L208.7609 120.8157" fill="none" stroke="#aaa" stroke-opacity="0.5" stroke-width="0.5"></path><path d="M225.5535 223.4064L242.2608 31.8332" fill="none" stroke="#aaa" stroke-opacity="0.5" stroke-width="0.5"></path><path d="M242.2608 31.8332L268.4472 120.7495" fill="none" stroke="#aaa" stroke-opacity="0.5" stroke-width="0.5"></path><path d="M126.2545 171.6198L176.408 165.1619" fill="none" stroke="#aaa" stroke-opacity="0.5" stroke-width="0.5"></path><path d="M137.1462 60.9041L149.1186 133.0826" fill="none" stroke="#aaa" stroke-opacity="0.5" stroke-width="0.5"></path><path d="M275.5558 50.786L268.4472 120.7495" fill="none" stroke="#aaa" stroke-opacity="0.5" stroke-width="0.5"></path><path d="M126.2545 171.6198L259.1374 206.9709" fill="none" stroke="#aaa" stroke-opacity="0.5" stroke-width="0.5"></path><path d="M206.5245 65.9992L225.5535 223.4064" fill="none" stroke="#aaa" stroke-opacity="0.5" stroke-width="0.5"></path><path d="M167.3386 40.1641L268.4472 120.7495" fill="none" stroke="#aaa" stroke-opacity="0.5" stroke-width="0.5"></path><path d="M246.2581 157.3517L208.7609 120.8157" fill="none" stroke="#aaa" stroke-opacity="0.5" stroke-width="0.5"></path><path d="M225.5535 223.4064L119.3542 93.6667" fill="none" stroke="#aaa" stroke-opacity="0.5" stroke-width="0.5"></path><path d="M259.1374 206.9709L149.6802 201.2803" fill="none" stroke="#aaa" stroke-opacity="0.5" stroke-width="0.5"></path><path d="M259.1374 206.9709L110.2256 133.8695" fill="none" stroke="#aaa" stroke-opacity="0.5" stroke-width="0.5"></path><path d="M206.5245 65.9992L149.6802 201.2803" fill="none" stroke="#aaa" stroke-opacity="0.5" stroke-width="0.5"></path><path d="M206.5245 65.9992L110.2256 133.8695" fill="none" stroke="#aaa" stroke-opacity="0.5" stroke-width="0.5"></path><path d="M246.2581 157.3517L202.4051 26.5086" fill="none" stroke="#aaa" stroke-opacity="0.5" stroke-width="0.5"></path><path d="M176.408 165.1619L208.7609 120.8157" fill="none" stroke="#aaa" stroke-opacity="0.5" stroke-width="0.5"></path><path d="M246.2581 157.3517L212.8401 187.6018" fill="none" stroke="#aaa" stroke-opacity="0.5" stroke-width="0.5"></path><path d="M302.6361 156.7024L268.4472 120.7495" fill="none" stroke="#aaa" stroke-opacity="0.5" stroke-width="0.5"></path><path d="M246.6053 82.0992L268.4472 120.7495" fill="none" stroke="#aaa" stroke-opacity="0.5" stroke-width="0.5"></path><path d="M259.1374 206.9709L149.1186 133.0826" fill="none" stroke="#aaa" stroke-opacity="0.5" stroke-width="0.5"></path><path d="M285.0416 185.4951L275.5558 50.786" fill="none" stroke="#aaa" stroke-opacity="0.5" stroke-width="0.5"></path><path d="M137.1462 60.9041L268.4472 120.7495" fill="none" stroke="#aaa" stroke-opacity="0.5" stroke-width="0.5"></path><path d="M110.2256 133.8695L149.6802 201.2803" fill="none" stroke="#aaa" stroke-opacity="0.5" stroke-width="0.5"></path><path d="M206.5245 65.9992L149.1186 133.0826" fill="none" stroke="#aaa" stroke-opacity="0.5" stroke-width="0.5"></path><path d="M176.408 165.1619L119.3542 93.6667" fill="none" stroke="#aaa" stroke-opacity="0.5" stroke-width="0.5"></path><path d="M285.0416 185.4951L137.1462 60.9041" fill="none" stroke="#aaa" stroke-opacity="0.5" stroke-width="0.5"></path><path d="M126.2545 171.6198L275.5558 50.786" fill="none" stroke="#aaa" stroke-opacity="0.5" stroke-width="0.5"></path><path d="M149.6802 201.2803L183.7699 219.2599" fill="none" stroke="#aaa" stroke-opacity="0.5" stroke-width="0.5"></path><path d="M275.5558 50.786L167.3386 40.1641" fill="none" stroke="#aaa" stroke-opacity="0.5" stroke-width="0.5"></path><path d="M126.2545 171.6198L137.1462 60.9041" fill="none" stroke="#aaa" stroke-opacity="0.5" stroke-width="0.5"></path><path d="M242.2608 31.8332L309.3263 118.2749" fill="none" stroke="#aaa" stroke-opacity="0.5" stroke-width="0.5"></path><path d="M202.4051 26.5086L149.6802 201.2803" fill="none" stroke="#aaa" stroke-opacity="0.5" stroke-width="0.5"></path><path d="M110.2256 133.8695L149.1186 133.0826" fill="none" stroke="#aaa" stroke-opacity="0.5" stroke-width="0.5"></path><path d="M126.2545 171.6198L206.5245 65.9992" fill="none" stroke="#aaa" stroke-opacity="0.5" stroke-width="0.5"></path><path d="M246.5 157.3517L246.5 82.0992" fill="none" stroke="#aaa" stroke-opacity="0.5" stroke-width="0.5"></path><path d="M285.0416 185.4951L302.6361 156.7024" fill="none" stroke="#aaa" stroke-opacity="0.5" stroke-width="0.5"></path><path d="M275.5558 50.786L309.3263 118.2749" fill="none" stroke="#aaa" stroke-opacity="0.5" stroke-width="0.5"></path><path d="M208.7609 120.8157L149.6802 201.2803" fill="none" stroke="#aaa" stroke-opacity="0.5" stroke-width="0.5"></path><path d="M208.7609 120.8157L110.2256 133.8695" fill="none" stroke="#aaa" stroke-opacity="0.5" stroke-width="0.5"></path><path d="M167.3386 40.1641L309.3263 118.2749" fill="none" stroke="#aaa" stroke-opacity="0.5" stroke-width="0.5"></path><path d="M126.2545 171.6198L302.6361 156.7024" fill="none" stroke="#aaa" stroke-opacity="0.5" stroke-width="0.5"></path><path d="M176.408 165.1619L246.6053 82.0992" fill="none" stroke="#aaa" stroke-opacity="0.5" stroke-width="0.5"></path><path d="M299.3981 80.5181L176.408 165.1619" fill="none" stroke="#aaa" stroke-opacity="0.5" stroke-width="0.5"></path><path d="M202.4051 26.5086L176.408 165.1619" fill="none" stroke="#aaa" stroke-opacity="0.5" stroke-width="0.5"></path><path d="M208.7609 120.8157L149.1186 133.0826" fill="none" stroke="#aaa" stroke-opacity="0.5" stroke-width="0.5"></path><path d="M309.3263 118.2749L149.6802 201.2803" fill="none" stroke="#aaa" stroke-opacity="0.5" stroke-width="0.5"></path><path d="M309.3263 118.2749L110.2256 133.8695" fill="none" stroke="#aaa" stroke-opacity="0.5" stroke-width="0.5"></path><path d="M202.4051 26.5086L168.1003 90.8784" fill="none" stroke="#aaa" stroke-opacity="0.5" stroke-width="0.5"></path><path d="M299.3981 80.5181L259.1374 206.9709" fill="none" stroke="#aaa" stroke-opacity="0.5" stroke-width="0.5"></path><path d="M302.6361 156.7024L309.3263 118.2749" fill="none" stroke="#aaa" stroke-opacity="0.5" stroke-width="0.5"></path><path d="M110.2256 133.8695L268.4472 120.7495" fill="none" stroke="#aaa" stroke-opacity="0.5" stroke-width="0.5"></path><path d="M168.1003 90.8784L149.6802 201.2803" fill="none" stroke="#aaa" stroke-opacity="0.5" stroke-width="0.5"></path><path d="M168.1003 90.8784L110.2256 133.8695" fill="none" stroke="#aaa" stroke-opacity="0.5" stroke-width="0.5"></path><path d="M137.1462 60.9041L309.3263 118.2749" fill="none" stroke="#aaa" stroke-opacity="0.5" stroke-width="0.5"></path><path d="M309.3263 118.2749L149.1186 133.0826" fill="none" stroke="#aaa" stroke-opacity="0.5" stroke-width="0.5"></path><path d="M299.3981 80.5181L268.4472 120.7495" fill="none" stroke="#aaa" stroke-opacity="0.5" stroke-width="0.5"></path><path d="M167.3386 40.1641L242.2608 31.8332" fill="none" stroke="#aaa" stroke-opacity="0.5" stroke-width="0.5"></path><path d="M242.2608 31.8332L183.7699 219.2599" fill="none" stroke="#aaa" stroke-opacity="0.5" stroke-width="0.5"></path><path d="M202.4051 26.5086L268.4472 120.7495" fill="none" stroke="#aaa" stroke-opacity="0.5" stroke-width="0.5"></path><path d="M168.1003 90.8784L149.1186 133.0826" fill="none" stroke="#aaa" stroke-opacity="0.5" stroke-width="0.5"></path><path d="M275.5558 50.786L183.7699 219.2599" fill="none" stroke="#aaa" stroke-opacity="0.5" stroke-width="0.5"></path><path d="M285.0416 185.4951L208.7609 120.8157" fill="none" stroke="#aaa" stroke-opacity="0.5" stroke-width="0.5"></path><path d="M299.3981 80.5181L275.5558 50.786" fill="none" stroke="#aaa" stroke-opacity="0.5" stroke-width="0.5"></path><path d="M206.5245 65.9992L275.5558 50.786" fill="none" stroke="#aaa" stroke-opacity="0.5" stroke-width="0.5"></path><path d="M149.1186 133.0826L119.3542 93.6667" fill="none" stroke="#aaa" stroke-opacity="0.5" stroke-width="0.5"></path><path d="M225.5535 223.4064L149.6802 201.2803" fill="none" stroke="#aaa" stroke-opacity="0.5" stroke-width="0.5"></path><path d="M167.3386 40.1641L183.7699 219.2599" fill="none" stroke="#aaa" stroke-opacity="0.5" stroke-width="0.5"></path><path d="M225.5535 223.4064L110.2256 133.8695" fill="none" stroke="#aaa" stroke-opacity="0.5" stroke-width="0.5"></path><path d="M183.7699 219.2599L268.4472 120.7495" fill="none" stroke="#aaa" stroke-opacity="0.5" stroke-width="0.5"></path><path d="M208.7609 120.8157L259.1374 206.9709" fill="none" stroke="#aaa" stroke-opacity="0.5" stroke-width="0.5"></path><path d="M299.3981 80.5181L137.1462 60.9041" fill="none" stroke="#aaa" stroke-opacity="0.5" stroke-width="0.5"></path><path d="M259.1374 206.9709L309.3263 118.2749" fill="none" stroke="#aaa" stroke-opacity="0.5" stroke-width="0.5"></path><path d="M275.5558 50.786L208.7609 120.8157" fill="none" stroke="#aaa" stroke-opacity="0.5" stroke-width="0.5"></path><path d="M285.0416 185.4951L202.4051 26.5086" fill="none" stroke="#aaa" stroke-opacity="0.5" stroke-width="0.5"></path><path d="M126.2545 171.6198L242.2608 31.8332" fill="none" stroke="#aaa" stroke-opacity="0.5" stroke-width="0.5"></path><path d="M285.0416 185.4951L212.8401 187.6018" fill="none" stroke="#aaa" stroke-opacity="0.5" stroke-width="0.5"></path><path d="M206.5245 65.9992L309.3263 118.2749" fill="none" stroke="#aaa" stroke-opacity="0.5" stroke-width="0.5"></path><path d="M285.0416 185.4951L119.3542 93.6667" fill="none" stroke="#aaa" stroke-opacity="0.5" stroke-width="0.5"></path><path d="M225.5535 223.4064L149.1186 133.0826" fill="none" stroke="#aaa" stroke-opacity="0.5" stroke-width="0.5"></path><path d="M302.6361 156.7024L183.7699 219.2599" fill="none" stroke="#aaa" stroke-opacity="0.5" stroke-width="0.5"></path><path d="M246.6053 82.0992L183.7699 219.2599" fill="none" stroke="#aaa" stroke-opacity="0.5" stroke-width="0.5"></path><path d="M275.5558 50.786L202.4051 26.5086" fill="none" stroke="#aaa" stroke-opacity="0.5" stroke-width="0.5"></path><path d="M299.3981 80.5181L302.6361 156.7024" fill="none" stroke="#aaa" stroke-opacity="0.5" stroke-width="0.5"></path><path d="M206.5245 65.9992L302.6361 156.7024" fill="none" stroke="#aaa" stroke-opacity="0.5" stroke-width="0.5"></path><path d="M275.5558 50.786L212.8401 187.6018" fill="none" stroke="#aaa" stroke-opacity="0.5" stroke-width="0.5"></path><path d="M126.2545 171.6198L119.3542 93.6667" fill="none" stroke="#aaa" stroke-opacity="0.5" stroke-width="0.5"></path><path d="M212.8401 187.6018L176.408 165.1619" fill="none" stroke="#aaa" stroke-opacity="0.5" stroke-width="0.5"></path><path d="M137.1462 60.9041L183.7699 219.2599" fill="none" stroke="#aaa" stroke-opacity="0.5" stroke-width="0.5"></path><path d="M206.5245 65.9992L285.0416 185.4951" fill="none" stroke="#aaa" stroke-opacity="0.5" stroke-width="0.5"></path><path d="M126.2545 171.6198L299.3981 80.5181" fill="none" stroke="#aaa" stroke-opacity="0.5" stroke-width="0.5"></path><path d="M168.1003 90.8784L259.1374 206.9709" fill="none" stroke="#aaa" stroke-opacity="0.5" stroke-width="0.5"></path><path d="M1 0A1 1 0 1 1 1 -0.0001" fill="#5470c6" transform="matrix(17.5,0,0,17.5,268.4472,120.7495)"></path><path d="M1 0A1 1 0 1 1 1 -0.0001" fill="#5470c6" transform="matrix(17.5,0,0,17.5,302.6361,156.7024)"></path><path d="M1 0A1 1 0 1 1 1 -0.0001" fill="#5470c6" transform="matrix(17.5,0,0,17.5,285.0416,185.4951)"></path><path d="M1 0A1 1 0 1 1 1 -0.0001" fill="#5470c6" transform="matrix(17.5,0,0,17.5,246.2581,157.3517)"></path><path d="M1 0A1 1 0 1 1 1 -0.0001" fill="#5470c6" transform="matrix(17.5,0,0,17.5,259.1374,206.9709)"></path><path d="M1 0A1 1 0 1 1 1 -0.0001" fill="#5470c6" transform="matrix(17.5,0,0,17.5,212.8401,187.6018)"></path><path d="M1 0A1 1 0 1 1 1 -0.0001" fill="#5470c6" transform="matrix(17.5,0,0,17.5,225.5535,223.4064)"></path><path d="M1 0A1 1 0 1 1 1 -0.0001" fill="#5470c6" transform="matrix(17.5,0,0,17.5,208.7609,120.8157)"></path><path d="M1 0A1 1 0 1 1 1 -0.0001" fill="#5470c6" transform="matrix(17.5,0,0,17.5,183.7699,219.2599)"></path><path d="M1 0A1 1 0 1 1 1 -0.0001" fill="#5470c6" transform="matrix(17.5,0,0,17.5,149.6802,201.2803)"></path><path d="M1 0A1 1 0 1 1 1 -0.0001" fill="#5470c6" transform="matrix(17.5,0,0,17.5,126.2545,171.6198)"></path><path d="M1 0A1 1 0 1 1 1 -0.0001" fill="#5470c6" transform="matrix(17.5,0,0,17.5,176.408,165.1619)"></path><path d="M1 0A1 1 0 1 1 1 -0.0001" fill="#5470c6" transform="matrix(17.5,0,0,17.5,110.2256,133.8695)"></path><path d="M1 0A1 1 0 1 1 1 -0.0001" fill="#5470c6" transform="matrix(17.5,0,0,17.5,119.3542,93.6667)"></path><path d="M1 0A1 1 0 1 1 1 -0.0001" fill="#5470c6" transform="matrix(17.5,0,0,17.5,149.1186,133.0826)"></path><path d="M1 0A1 1 0 1 1 1 -0.0001" fill="#5470c6" transform="matrix(17.5,0,0,17.5,137.1462,60.9041)"></path><path d="M1 0A1 1 0 1 1 1 -0.0001" fill="#5470c6" transform="matrix(17.5,0,0,17.5,168.1003,90.8784)"></path><path d="M1 0A1 1 0 1 1 1 -0.0001" fill="#5470c6" transform="matrix(17.5,0,0,17.5,167.3386,40.1641)"></path><path d="M1 0A1 1 0 1 1 1 -0.0001" fill="#5470c6" transform="matrix(17.5,0,0,17.5,206.5245,65.9992)"></path><path d="M1 0A1 1 0 1 1 1 -0.0001" fill="#5470c6" transform="matrix(17.5,0,0,17.5,202.4051,26.5086)"></path><path d="M1 0A1 1 0 1 1 1 -0.0001" fill="#5470c6" transform="matrix(17.5,0,0,17.5,246.6053,82.0992)"></path><path d="M1 0A1 1 0 1 1 1 -0.0001" fill="#5470c6" transform="matrix(17.5,0,0,17.5,242.2608,31.8332)"></path><path d="M1 0A1 1 0 1 1 1 -0.0001" fill="#5470c6" transform="matrix(17.5,0,0,17.5,275.5558,50.786)"></path><path d="M1 0A1 1 0 1 1 1 -0.0001" fill="#5470c6" transform="matrix(17.5,0,0,17.5,299.3981,80.5181)"></path><path d="M1 0A1 1 0 1 1 1 -0.0001" fill="#5470c6" transform="matrix(17.5,0,0,17.5,309.3263,118.2749)"></path><path d="M-25.1792 -5l50.3584 0l0 32l-50.3584 0Z" fill="rgb(0,0,0)" fill-opacity="0" stroke="#ccc" stroke-width="0" transform="translate(237.5 5)"></path><text dominant-baseline="central" fill="#333" style="font-size:22px;font-family:sans-serif;font-weight:bolder;" text-anchor="middle" transform="translate(237.5 5)" y="11">C43</text></g></svg>