<svg baseprofile="full" height="250" style="position:absolute;left:0;top:0;user-select:none" version="1.1" width="475" xmlns="http://www.w3.org/2000/svg" xmlns:xlink="http://www.w3.org/1999/xlink"><rect fill="none" height="250" id="0" width="475" x="0" y="0"></rect><g><path d="M309.3648 117.4875L174.7178 34.0332" fill="none" stroke="#aaa" stroke-opacity="0.5" stroke-width="0.5"></path><path d="M254.6223 131.2341L215.6656 171.5149" fill="none" stroke="#aaa" stroke-opacity="0.5" stroke-width="0.5"></path><path d="M144.5906 198.1578L170.1358 91.247" fill="none" stroke="#aaa" stroke-opacity="0.5" stroke-width="0.5"></path><path d="M221.1632 26.8939L116.2513 156.913" fill="none" stroke="#aaa" stroke-opacity="0.5" stroke-width="0.5"></path><path d="M114.0323 109.2257L116.2513 156.913" fill="none" stroke="#aaa" stroke-opacity="0.5" stroke-width="0.5"></path><path d="M168.2711 146.799L294.2211 75.9962" fill="none" stroke="#aaa" stroke-opacity="0.5" stroke-width="0.5"></path><path d="M185.5605 219.8204L233.661 222.4041" fill="none" stroke="#aaa" stroke-opacity="0.5" stroke-width="0.5"></path><path d="M225.0176 82.9029L116.2513 156.913" fill="none" stroke="#aaa" stroke-opacity="0.5" stroke-width="0.5"></path><path d="M144.5906 198.1578L225.0176 82.9029" fill="none" stroke="#aaa" stroke-opacity="0.5" stroke-width="0.5"></path><path d="M170.1358 91.247L254.6223 131.2341" fill="none" stroke="#aaa" stroke-opacity="0.5" stroke-width="0.5"></path><path d="M185.5605 219.8204L114.0323 109.2257" fill="none" stroke="#aaa" stroke-opacity="0.5" stroke-width="0.5"></path><path d="M170.1358 91.247L215.6656 171.5149" fill="none" stroke="#aaa" stroke-opacity="0.5" stroke-width="0.5"></path><path d="M144.5906 198.1578L302.4515 163.5591" fill="none" stroke="#aaa" stroke-opacity="0.5" stroke-width="0.5"></path><path d="M273.7959 198.1544L294.2211 75.9962" fill="none" stroke="#aaa" stroke-opacity="0.5" stroke-width="0.5"></path><path d="M265.1477 41.8604L302.4515 163.5591" fill="none" stroke="#aaa" stroke-opacity="0.5" stroke-width="0.5"></path><path d="M144.5906 198.1578L168.2711 146.799" fill="none" stroke="#aaa" stroke-opacity="0.5" stroke-width="0.5"></path><path d="M254.6223 131.2341L294.2211 75.9962" fill="none" stroke="#aaa" stroke-opacity="0.5" stroke-width="0.5"></path><path d="M265.1477 41.8604L168.2711 146.799" fill="none" stroke="#aaa" stroke-opacity="0.5" stroke-width="0.5"></path><path d="M185.5605 219.8204L294.2211 75.9962" fill="none" stroke="#aaa" stroke-opacity="0.5" stroke-width="0.5"></path><path d="M273.7959 198.1544L170.1358 91.247" fill="none" stroke="#aaa" stroke-opacity="0.5" stroke-width="0.5"></path><path d="M168.2711 146.799L302.4515 163.5591" fill="none" stroke="#aaa" stroke-opacity="0.5" stroke-width="0.5"></path><path d="M114.0323 109.2257L233.661 222.4041" fill="none" stroke="#aaa" stroke-opacity="0.5" stroke-width="0.5"></path><path d="M170.1358 91.247L221.1632 26.8939" fill="none" stroke="#aaa" stroke-opacity="0.5" stroke-width="0.5"></path><path d="M170.1358 91.247L174.7178 34.0332" fill="none" stroke="#aaa" stroke-opacity="0.5" stroke-width="0.5"></path><path d="M131.5956 61.7967L294.2211 75.9962" fill="none" stroke="#aaa" stroke-opacity="0.5" stroke-width="0.5"></path><path d="M273.7959 198.1544L225.0176 82.9029" fill="none" stroke="#aaa" stroke-opacity="0.5" stroke-width="0.5"></path><path d="M215.6656 171.5149L309.3648 117.4875" fill="none" stroke="#aaa" stroke-opacity="0.5" stroke-width="0.5"></path><path d="M273.7959 198.1544L302.4515 163.5591" fill="none" stroke="#aaa" stroke-opacity="0.5" stroke-width="0.5"></path><path d="M273.7959 198.1544L265.1477 41.8604" fill="none" stroke="#aaa" stroke-opacity="0.5" stroke-width="0.5"></path><path d="M185.5605 219.8204L170.1358 91.247" fill="none" stroke="#aaa" stroke-opacity="0.5" stroke-width="0.5"></path><path d="M185.5605 219.8204L144.5906 198.1578" fill="none" stroke="#aaa" stroke-opacity="0.5" stroke-width="0.5"></path><path d="M273.7959 198.1544L168.2711 146.799" fill="none" stroke="#aaa" stroke-opacity="0.5" stroke-width="0.5"></path><path d="M170.1358 91.247L309.3648 117.4875" fill="none" stroke="#aaa" stroke-opacity="0.5" stroke-width="0.5"></path><path d="M144.5906 198.1578L254.6223 131.2341" fill="none" stroke="#aaa" stroke-opacity="0.5" stroke-width="0.5"></path><path d="M254.6223 131.2341L302.4515 163.5591" fill="none" stroke="#aaa" stroke-opacity="0.5" stroke-width="0.5"></path><path d="M185.5605 219.8204L225.0176 82.9029" fill="none" stroke="#aaa" stroke-opacity="0.5" stroke-width="0.5"></path><path d="M265.1477 41.8604L254.6223 131.2341" fill="none" stroke="#aaa" stroke-opacity="0.5" stroke-width="0.5"></path><path d="M114.0323 109.2257L294.2211 75.9962" fill="none" stroke="#aaa" stroke-opacity="0.5" stroke-width="0.5"></path><path d="M185.5605 219.8204L302.4515 163.5591" fill="none" stroke="#aaa" stroke-opacity="0.5" stroke-width="0.5"></path><path d="M131.5956 61.7967L170.1358 91.247" fill="none" stroke="#aaa" stroke-opacity="0.5" stroke-width="0.5"></path><path d="M225.0176 82.9029L294.2211 75.9962" fill="none" stroke="#aaa" stroke-opacity="0.5" stroke-width="0.5"></path><path d="M185.5605 219.8204L265.1477 41.8604" fill="none" stroke="#aaa" stroke-opacity="0.5" stroke-width="0.5"></path><path d="M302.4515 163.5591L309.3648 117.4875" fill="none" stroke="#aaa" stroke-opacity="0.5" stroke-width="0.5"></path><path d="M114.0323 109.2257L131.5956 61.7967" fill="none" stroke="#aaa" stroke-opacity="0.5" stroke-width="0.5"></path><path d="M294.2211 75.9962L309.3648 117.4875" fill="none" stroke="#aaa" stroke-opacity="0.5" stroke-width="0.5"></path><path d="M185.5605 219.8204L168.2711 146.799" fill="none" stroke="#aaa" stroke-opacity="0.5" stroke-width="0.5"></path><path d="M131.5956 61.7967L302.4515 163.5591" fill="none" stroke="#aaa" stroke-opacity="0.5" stroke-width="0.5"></path><path d="M233.661 222.4041L294.2211 75.9962" fill="none" stroke="#aaa" stroke-opacity="0.5" stroke-width="0.5"></path><path d="M131.5956 61.7967L265.1477 41.8604" fill="none" stroke="#aaa" stroke-opacity="0.5" stroke-width="0.5"></path><path d="M185.5605 219.8204L116.2513 156.913" fill="none" stroke="#aaa" stroke-opacity="0.5" stroke-width="0.5"></path><path d="M168.2711 146.799L254.6223 131.2341" fill="none" stroke="#aaa" stroke-opacity="0.5" stroke-width="0.5"></path><path d="M168.2711 146.799L215.6656 171.5149" fill="none" stroke="#aaa" stroke-opacity="0.5" stroke-width="0.5"></path><path d="M131.5956 61.7967L168.2711 146.799" fill="none" stroke="#aaa" stroke-opacity="0.5" stroke-width="0.5"></path><path d="M114.0323 109.2257L170.1358 91.247" fill="none" stroke="#aaa" stroke-opacity="0.5" stroke-width="0.5"></path><path d="M114.0323 109.2257L144.5906 198.1578" fill="none" stroke="#aaa" stroke-opacity="0.5" stroke-width="0.5"></path><path d="M225.0176 82.9029L170.1358 91.247" fill="none" stroke="#aaa" stroke-opacity="0.5" stroke-width="0.5"></path><path d="M215.6656 171.5149L116.2513 156.913" fill="none" stroke="#aaa" stroke-opacity="0.5" stroke-width="0.5"></path><path d="M273.7959 198.1544L254.6223 131.2341" fill="none" stroke="#aaa" stroke-opacity="0.5" stroke-width="0.5"></path><path d="M131.5956 61.7967L116.2513 156.913" fill="none" stroke="#aaa" stroke-opacity="0.5" stroke-width="0.5"></path><path d="M273.7959 198.1544L215.6656 171.5149" fill="none" stroke="#aaa" stroke-opacity="0.5" stroke-width="0.5"></path><path d="M265.1477 41.8604L221.1632 26.8939" fill="none" stroke="#aaa" stroke-opacity="0.5" stroke-width="0.5"></path><path d="M265.1477 41.8604L174.7178 34.0332" fill="none" stroke="#aaa" stroke-opacity="0.5" stroke-width="0.5"></path><path d="M114.0323 109.2257L225.0176 82.9029" fill="none" stroke="#aaa" stroke-opacity="0.5" stroke-width="0.5"></path><path d="M221.1632 26.8939L302.4515 163.5591" fill="none" stroke="#aaa" stroke-opacity="0.5" stroke-width="0.5"></path><path d="M114.0323 109.2257L302.4515 163.5591" fill="none" stroke="#aaa" stroke-opacity="0.5" stroke-width="0.5"></path><path d="M233.661 222.4041L170.1358 91.247" fill="none" stroke="#aaa" stroke-opacity="0.5" stroke-width="0.5"></path><path d="M144.5906 198.1578L294.2211 75.9962" fill="none" stroke="#aaa" stroke-opacity="0.5" stroke-width="0.5"></path><path d="M233.661 222.4041L144.5906 198.1578" fill="none" stroke="#aaa" stroke-opacity="0.5" stroke-width="0.5"></path><path d="M225.0176 82.9029L302.4515 163.5591" fill="none" stroke="#aaa" stroke-opacity="0.5" stroke-width="0.5"></path><path d="M114.0323 109.2257L265.1477 41.8604" fill="none" stroke="#aaa" stroke-opacity="0.5" stroke-width="0.5"></path><path d="M170.1358 91.247L116.2513 156.913" fill="none" stroke="#aaa" stroke-opacity="0.5" stroke-width="0.5"></path><path d="M144.5906 198.1578L309.3648 117.4875" fill="none" stroke="#aaa" stroke-opacity="0.5" stroke-width="0.5"></path><path d="M144.5906 198.5L273.7959 198.5" fill="none" stroke="#aaa" stroke-opacity="0.5" stroke-width="0.5"></path><path d="M225.0176 82.9029L265.1477 41.8604" fill="none" stroke="#aaa" stroke-opacity="0.5" stroke-width="0.5"></path><path d="M114.0323 109.2257L168.2711 146.799" fill="none" stroke="#aaa" stroke-opacity="0.5" stroke-width="0.5"></path><path d="M233.661 222.4041L225.0176 82.9029" fill="none" stroke="#aaa" stroke-opacity="0.5" stroke-width="0.5"></path><path d="M265.1477 41.8604L309.3648 117.4875" fill="none" stroke="#aaa" stroke-opacity="0.5" stroke-width="0.5"></path><path d="M185.5605 219.8204L254.6223 131.2341" fill="none" stroke="#aaa" stroke-opacity="0.5" stroke-width="0.5"></path><path d="M185.5605 219.8204L215.6656 171.5149" fill="none" stroke="#aaa" stroke-opacity="0.5" stroke-width="0.5"></path><path d="M233.661 222.4041L302.4515 163.5591" fill="none" stroke="#aaa" stroke-opacity="0.5" stroke-width="0.5"></path><path d="M225.0176 82.9029L168.2711 146.799" fill="none" stroke="#aaa" stroke-opacity="0.5" stroke-width="0.5"></path><path d="M302.4515 163.5591L116.2513 156.913" fill="none" stroke="#aaa" stroke-opacity="0.5" stroke-width="0.5"></path><path d="M233.661 222.4041L265.1477 41.8604" fill="none" stroke="#aaa" stroke-opacity="0.5" stroke-width="0.5"></path><path d="M168.2711 146.799L221.1632 26.8939" fill="none" stroke="#aaa" stroke-opacity="0.5" stroke-width="0.5"></path><path d="M116.2513 156.913L174.7178 34.0332" fill="none" stroke="#aaa" stroke-opacity="0.5" stroke-width="0.5"></path><path d="M168.2711 146.799L174.7178 34.0332" fill="none" stroke="#aaa" stroke-opacity="0.5" stroke-width="0.5"></path><path d="M294.2211 75.9962L116.2513 156.913" fill="none" stroke="#aaa" stroke-opacity="0.5" stroke-width="0.5"></path><path d="M233.661 222.4041L168.2711 146.799" fill="none" stroke="#aaa" stroke-opacity="0.5" stroke-width="0.5"></path><path d="M131.5956 61.7967L254.6223 131.2341" fill="none" stroke="#aaa" stroke-opacity="0.5" stroke-width="0.5"></path><path d="M273.7959 198.1544L221.1632 26.8939" fill="none" stroke="#aaa" stroke-opacity="0.5" stroke-width="0.5"></path><path d="M131.5956 61.7967L215.6656 171.5149" fill="none" stroke="#aaa" stroke-opacity="0.5" stroke-width="0.5"></path><path d="M273.7959 198.1544L174.7178 34.0332" fill="none" stroke="#aaa" stroke-opacity="0.5" stroke-width="0.5"></path><path d="M233.661 222.4041L116.2513 156.913" fill="none" stroke="#aaa" stroke-opacity="0.5" stroke-width="0.5"></path><path d="M273.7959 198.1544L131.5956 61.7967" fill="none" stroke="#aaa" stroke-opacity="0.5" stroke-width="0.5"></path><path d="M116.2513 156.913L309.3648 117.4875" fill="none" stroke="#aaa" stroke-opacity="0.5" stroke-width="0.5"></path><path d="M168.2711 146.799L309.3648 117.4875" fill="none" stroke="#aaa" stroke-opacity="0.5" stroke-width="0.5"></path><path d="M254.6223 131.2341L221.1632 26.8939" fill="none" stroke="#aaa" stroke-opacity="0.5" stroke-width="0.5"></path><path d="M254.6223 131.2341L174.7178 34.0332" fill="none" stroke="#aaa" stroke-opacity="0.5" stroke-width="0.5"></path><path d="M144.5906 198.1578L265.1477 41.8604" fill="none" stroke="#aaa" stroke-opacity="0.5" stroke-width="0.5"></path><path d="M273.7959 198.1544L309.3648 117.4875" fill="none" stroke="#aaa" stroke-opacity="0.5" stroke-width="0.5"></path><path d="M185.5605 219.8204L221.1632 26.8939" fill="none" stroke="#aaa" stroke-opacity="0.5" stroke-width="0.5"></path><path d="M185.5605 219.8204L174.7178 34.0332" fill="none" stroke="#aaa" stroke-opacity="0.5" stroke-width="0.5"></path><path d="M114.0323 109.2257L254.6223 131.2341" fill="none" stroke="#aaa" stroke-opacity="0.5" stroke-width="0.5"></path><path d="M114.0323 109.2257L215.6656 171.5149" fill="none" stroke="#aaa" stroke-opacity="0.5" stroke-width="0.5"></path><path d="M185.5605 219.8204L131.5956 61.7967" fill="none" stroke="#aaa" stroke-opacity="0.5" stroke-width="0.5"></path><path d="M225.0176 82.9029L254.6223 131.2341" fill="none" stroke="#aaa" stroke-opacity="0.5" stroke-width="0.5"></path><path d="M225.0176 82.9029L215.6656 171.5149" fill="none" stroke="#aaa" stroke-opacity="0.5" stroke-width="0.5"></path><path d="M294.2211 75.9962L215.6656 171.5149" fill="none" stroke="#aaa" stroke-opacity="0.5" stroke-width="0.5"></path><path d="M144.5906 198.1578L116.2513 156.913" fill="none" stroke="#aaa" stroke-opacity="0.5" stroke-width="0.5"></path><path d="M215.6656 171.5149L221.1632 26.8939" fill="none" stroke="#aaa" stroke-opacity="0.5" stroke-width="0.5"></path><path d="M254.6223 131.2341L309.3648 117.4875" fill="none" stroke="#aaa" stroke-opacity="0.5" stroke-width="0.5"></path><path d="M131.5956 61.7967L221.1632 26.8939" fill="none" stroke="#aaa" stroke-opacity="0.5" stroke-width="0.5"></path><path d="M215.6656 171.5149L174.7178 34.0332" fill="none" stroke="#aaa" stroke-opacity="0.5" stroke-width="0.5"></path><path d="M131.5956 61.7967L174.7178 34.0332" fill="none" stroke="#aaa" stroke-opacity="0.5" stroke-width="0.5"></path><path d="M265.1477 41.8604L116.2513 156.913" fill="none" stroke="#aaa" stroke-opacity="0.5" stroke-width="0.5"></path><path d="M185.5605 219.8204L309.3648 117.4875" fill="none" stroke="#aaa" stroke-opacity="0.5" stroke-width="0.5"></path><path d="M185.5605 219.8204L273.7959 198.1544" fill="none" stroke="#aaa" stroke-opacity="0.5" stroke-width="0.5"></path><path d="M233.661 222.4041L254.6223 131.2341" fill="none" stroke="#aaa" stroke-opacity="0.5" stroke-width="0.5"></path><path d="M233.661 222.4041L215.6656 171.5149" fill="none" stroke="#aaa" stroke-opacity="0.5" stroke-width="0.5"></path><path d="M170.1358 91.247L294.2211 75.9962" fill="none" stroke="#aaa" stroke-opacity="0.5" stroke-width="0.5"></path><path d="M131.5956 61.7967L309.3648 117.4875" fill="none" stroke="#aaa" stroke-opacity="0.5" stroke-width="0.5"></path><path d="M114.0323 109.2257L221.1632 26.8939" fill="none" stroke="#aaa" stroke-opacity="0.5" stroke-width="0.5"></path><path d="M221.1632 26.8939L174.7178 34.0332" fill="none" stroke="#aaa" stroke-opacity="0.5" stroke-width="0.5"></path><path d="M114.0323 109.2257L174.7178 34.0332" fill="none" stroke="#aaa" stroke-opacity="0.5" stroke-width="0.5"></path><path d="M302.4515 163.5591L174.7178 34.0332" fill="none" stroke="#aaa" stroke-opacity="0.5" stroke-width="0.5"></path><path d="M168.2711 146.799L116.2513 156.913" fill="none" stroke="#aaa" stroke-opacity="0.5" stroke-width="0.5"></path><path d="M225.0176 82.9029L221.1632 26.8939" fill="none" stroke="#aaa" stroke-opacity="0.5" stroke-width="0.5"></path><path d="M225.0176 82.9029L174.7178 34.0332" fill="none" stroke="#aaa" stroke-opacity="0.5" stroke-width="0.5"></path><path d="M294.2211 75.9962L221.1632 26.8939" fill="none" stroke="#aaa" stroke-opacity="0.5" stroke-width="0.5"></path><path d="M144.5906 198.1578L215.6656 171.5149" fill="none" stroke="#aaa" stroke-opacity="0.5" stroke-width="0.5"></path><path d="M294.2211 75.9962L174.7178 34.0332" fill="none" stroke="#aaa" stroke-opacity="0.5" stroke-width="0.5"></path><path d="M225.0176 82.9029L131.5956 61.7967" fill="none" stroke="#aaa" stroke-opacity="0.5" stroke-width="0.5"></path><path d="M273.7959 198.1544L116.2513 156.913" fill="none" stroke="#aaa" stroke-opacity="0.5" stroke-width="0.5"></path><path d="M215.6656 171.5149L302.4515 163.5591" fill="none" stroke="#aaa" stroke-opacity="0.5" stroke-width="0.5"></path><path d="M265.1477 41.8604L215.6656 171.5149" fill="none" stroke="#aaa" stroke-opacity="0.5" stroke-width="0.5"></path><path d="M233.661 222.4041L221.1632 26.8939" fill="none" stroke="#aaa" stroke-opacity="0.5" stroke-width="0.5"></path><path d="M233.661 222.4041L174.7178 34.0332" fill="none" stroke="#aaa" stroke-opacity="0.5" stroke-width="0.5"></path><path d="M221.1632 26.8939L309.3648 117.4875" fill="none" stroke="#aaa" stroke-opacity="0.5" stroke-width="0.5"></path><path d="M114.0323 109.2257L309.3648 117.4875" fill="none" stroke="#aaa" stroke-opacity="0.5" stroke-width="0.5"></path><path d="M114.0323 109.2257L273.7959 198.1544" fill="none" stroke="#aaa" stroke-opacity="0.5" stroke-width="0.5"></path><path d="M233.661 222.4041L131.5956 61.7967" fill="none" stroke="#aaa" stroke-opacity="0.5" stroke-width="0.5"></path><path d="M225.0176 82.9029L309.3648 117.4875" fill="none" stroke="#aaa" stroke-opacity="0.5" stroke-width="0.5"></path><path d="M170.1358 91.247L302.4515 163.5591" fill="none" stroke="#aaa" stroke-opacity="0.5" stroke-width="0.5"></path><path d="M254.6223 131.2341L116.2513 156.913" fill="none" stroke="#aaa" stroke-opacity="0.5" stroke-width="0.5"></path><path d="M170.1358 91.247L265.1477 41.8604" fill="none" stroke="#aaa" stroke-opacity="0.5" stroke-width="0.5"></path><path d="M233.661 222.4041L309.3648 117.4875" fill="none" stroke="#aaa" stroke-opacity="0.5" stroke-width="0.5"></path><path d="M233.661 222.4041L273.7959 198.1544" fill="none" stroke="#aaa" stroke-opacity="0.5" stroke-width="0.5"></path><path d="M170.1358 91.247L168.2711 146.799" fill="none" stroke="#aaa" stroke-opacity="0.5" stroke-width="0.5"></path><path d="M144.5906 198.1578L221.1632 26.8939" fill="none" stroke="#aaa" stroke-opacity="0.5" stroke-width="0.5"></path><path d="M144.5906 198.1578L174.7178 34.0332" fill="none" stroke="#aaa" stroke-opacity="0.5" stroke-width="0.5"></path><path d="M294.2211 75.9962L302.4515 163.5591" fill="none" stroke="#aaa" stroke-opacity="0.5" stroke-width="0.5"></path><path d="M144.5906 198.1578L131.5956 61.7967" fill="none" stroke="#aaa" stroke-opacity="0.5" stroke-width="0.5"></path><path d="M265.1477 41.8604L294.2211 75.9962" fill="none" stroke="#aaa" stroke-opacity="0.5" stroke-width="0.5"></path><path d="M1 0A1 1 0 1 1 1 -0.0001" fill="#5470c6" transform="matrix(18,0,0,18,254.6223,131.2341)"></path><path d="M1 0A1 1 0 1 1 1 -0.0001" fill="#5470c6" transform="matrix(18,0,0,18,302.4515,163.5591)"></path><path d="M1 0A1 1 0 1 1 1 -0.0001" fill="#5470c6" transform="matrix(18,0,0,18,273.7959,198.1544)"></path><path d="M1 0A1 1 0 1 1 1 -0.0001" fill="#5470c6" transform="matrix(18,0,0,18,233.661,222.4041)"></path><path d="M1 0A1 1 0 1 1 1 -0.0001" fill="#5470c6" transform="matrix(18,0,0,18,215.6656,171.5149)"></path><path d="M1 0A1 1 0 1 1 1 -0.0001" fill="#5470c6" transform="matrix(18,0,0,18,185.5605,219.8204)"></path><path d="M1 0A1 1 0 1 1 1 -0.0001" fill="#5470c6" transform="matrix(18,0,0,18,144.5906,198.1578)"></path><path d="M1 0A1 1 0 1 1 1 -0.0001" fill="#5470c6" transform="matrix(18,0,0,18,116.2513,156.913)"></path><path d="M1 0A1 1 0 1 1 1 -0.0001" fill="#5470c6" transform="matrix(18,0,0,18,168.2711,146.799)"></path><path d="M1 0A1 1 0 1 1 1 -0.0001" fill="#5470c6" transform="matrix(18,0,0,18,114.0323,109.2257)"></path><path d="M1 0A1 1 0 1 1 1 -0.0001" fill="#5470c6" transform="matrix(18,0,0,18,131.5956,61.7967)"></path><path d="M1 0A1 1 0 1 1 1 -0.0001" fill="#5470c6" transform="matrix(18,0,0,18,174.7178,34.0332)"></path><path d="M1 0A1 1 0 1 1 1 -0.0001" fill="#5470c6" transform="matrix(18,0,0,18,170.1358,91.247)"></path><path d="M1 0A1 1 0 1 1 1 -0.0001" fill="#5470c6" transform="matrix(18,0,0,18,221.1632,26.8939)"></path><path d="M1 0A1 1 0 1 1 1 -0.0001" fill="#5470c6" transform="matrix(18,0,0,18,225.0176,82.9029)"></path><path d="M1 0A1 1 0 1 1 1 -0.0001" fill="#5470c6" transform="matrix(18,0,0,18,265.1477,41.8604)"></path><path d="M1 0A1 1 0 1 1 1 -0.0001" fill="#5470c6" transform="matrix(18,0,0,18,294.2211,75.9962)"></path><path d="M1 0A1 1 0 1 1 1 -0.0001" fill="#5470c6" transform="matrix(18,0,0,18,309.3648,117.4875)"></path><path d="M-26.0964 -5l52.1929 0l0 33l-52.1929 0Z" fill="rgb(0,0,0)" fill-opacity="0" stroke="#ccc" stroke-width="0" transform="translate(237.5 5)"></path><text dominant-baseline="central" fill="#333" style="font-size:23px;font-family:sans-serif;font-weight:bolder;" text-anchor="middle" transform="translate(237.5 5)" y="11.5">C44</text></g></svg>