<svg baseprofile="full" height="250" style="position:absolute;left:0;top:0;user-select:none" version="1.1" width="475" xmlns="http://www.w3.org/2000/svg" xmlns:xlink="http://www.w3.org/1999/xlink"><rect fill="none" height="250" id="0" width="475" x="0" y="0"></rect><g><path d="M143.8496 53.2498L190.7926 25.0681" fill="none" stroke="#aaa" stroke-opacity="0.5"></path><path d="M301.501 177.7238L178.6229 144.4996" fill="none" stroke="#aaa" stroke-opacity="0.5"></path><path d="M250.0026 30.7276L190.7926 25.0681" fill="none" stroke="#aaa" stroke-opacity="0.5"></path><path d="M250.0026 30.7276L113.2834 152.9268" fill="none" stroke="#aaa" stroke-opacity="0.5"></path><path d="M113.2834 152.9268L247.5501 151.4629" fill="none" stroke="#aaa" stroke-opacity="0.5"></path><path d="M178.6229 144.4996L190.7926 25.0681" fill="none" stroke="#aaa" stroke-opacity="0.5"></path><path d="M145.5333 203.679L143.8496 53.2498" fill="none" stroke="#aaa" stroke-opacity="0.5"></path><path d="M113.2834 152.9268L216.1366 86.3662" fill="none" stroke="#aaa" stroke-opacity="0.5"></path><path d="M292.128 68.4903L301.501 177.7238" fill="none" stroke="#aaa" stroke-opacity="0.5"></path><path d="M143.8496 53.2498L301.501 177.7238" fill="none" stroke="#aaa" stroke-opacity="0.5"></path><path d="M252.3281 218.2441L178.6229 144.4996" fill="none" stroke="#aaa" stroke-opacity="0.5"></path><path d="M143.8496 53.2498L311.0467 118.3814" fill="none" stroke="#aaa" stroke-opacity="0.5"></path><path d="M292.128 68.4903L145.5333 203.679" fill="none" stroke="#aaa" stroke-opacity="0.5"></path><path d="M250.0026 30.7276L301.501 177.7238" fill="none" stroke="#aaa" stroke-opacity="0.5"></path><path d="M250.0026 30.7276L311.0467 118.3814" fill="none" stroke="#aaa" stroke-opacity="0.5"></path><path d="M311.0467 118.3814L115.4576 97.7801" fill="none" stroke="#aaa" stroke-opacity="0.5"></path><path d="M250.0026 30.7276L145.5333 203.679" fill="none" stroke="#aaa" stroke-opacity="0.5"></path><path d="M247.5501 151.4629L178.6229 144.4996" fill="none" stroke="#aaa" stroke-opacity="0.5"></path><path d="M145.5333 203.679L197.5297 221.4004" fill="none" stroke="#aaa" stroke-opacity="0.5"></path><path d="M252.3281 218.2441L143.8496 53.2498" fill="none" stroke="#aaa" stroke-opacity="0.5"></path><path d="M145.5333 203.679L247.5501 151.4629" fill="none" stroke="#aaa" stroke-opacity="0.5"></path><path d="M301.501 177.7238L115.4576 97.7801" fill="none" stroke="#aaa" stroke-opacity="0.5"></path><path d="M145.5333 203.679L190.7926 25.0681" fill="none" stroke="#aaa" stroke-opacity="0.5"></path><path d="M216.1366 86.3662L115.4576 97.7801" fill="none" stroke="#aaa" stroke-opacity="0.5"></path><path d="M252.3281 218.2441L197.5297 221.4004" fill="none" stroke="#aaa" stroke-opacity="0.5"></path><path d="M113.2834 152.9268L178.6229 144.4996" fill="none" stroke="#aaa" stroke-opacity="0.5"></path><path d="M252.3281 218.2441L292.128 68.4903" fill="none" stroke="#aaa" stroke-opacity="0.5"></path><path d="M311.0467 118.3814L301.501 177.7238" fill="none" stroke="#aaa" stroke-opacity="0.5"></path><path d="M252.3281 218.2441L115.4576 97.7801" fill="none" stroke="#aaa" stroke-opacity="0.5"></path><path d="M197.5297 221.4004L247.5501 151.4629" fill="none" stroke="#aaa" stroke-opacity="0.5"></path><path d="M301.501 177.7238L190.7926 25.0681" fill="none" stroke="#aaa" stroke-opacity="0.5"></path><path d="M197.5297 221.4004L216.1366 86.3662" fill="none" stroke="#aaa" stroke-opacity="0.5"></path><path d="M145.5333 203.679L301.501 177.7238" fill="none" stroke="#aaa" stroke-opacity="0.5"></path><path d="M113.2834 152.9268L143.8496 53.2498" fill="none" stroke="#aaa" stroke-opacity="0.5"></path><path d="M311.0467 118.3814L178.6229 144.4996" fill="none" stroke="#aaa" stroke-opacity="0.5"></path><path d="M252.3281 218.2441L190.7926 25.0681" fill="none" stroke="#aaa" stroke-opacity="0.5"></path><path d="M252.3281 218.2441L113.2834 152.9268" fill="none" stroke="#aaa" stroke-opacity="0.5"></path><path d="M292.128 68.4903L115.4576 97.7801" fill="none" stroke="#aaa" stroke-opacity="0.5"></path><path d="M292.128 68.4903L216.1366 86.3662" fill="none" stroke="#aaa" stroke-opacity="0.5"></path><path d="M216.1366 86.3662L301.501 177.7238" fill="none" stroke="#aaa" stroke-opacity="0.5"></path><path d="M143.8496 53.2498L216.1366 86.3662" fill="none" stroke="#aaa" stroke-opacity="0.5"></path><path d="M247.5501 151.4629L190.7926 25.0681" fill="none" stroke="#aaa" stroke-opacity="0.5"></path><path d="M250.0026 30.7276L247.5501 151.4629" fill="none" stroke="#aaa" stroke-opacity="0.5"></path><path d="M113.2834 152.9268L197.5297 221.4004" fill="none" stroke="#aaa" stroke-opacity="0.5"></path><path d="M178.6229 144.4996L115.4576 97.7801" fill="none" stroke="#aaa" stroke-opacity="0.5"></path><path d="M252.3281 218.2441L301.501 177.7238" fill="none" stroke="#aaa" stroke-opacity="0.5"></path><path d="M113.2834 152.9268L292.128 68.4903" fill="none" stroke="#aaa" stroke-opacity="0.5"></path><path d="M250.0026 30.7276L216.1366 86.3662" fill="none" stroke="#aaa" stroke-opacity="0.5"></path><path d="M252.3281 218.2441L311.0467 118.3814" fill="none" stroke="#aaa" stroke-opacity="0.5"></path><path d="M113.2834 152.9268L115.4576 97.7801" fill="none" stroke="#aaa" stroke-opacity="0.5"></path><path d="M252.3281 218.2441L145.5333 203.679" fill="none" stroke="#aaa" stroke-opacity="0.5"></path><path d="M216.1366 86.3662L178.6229 144.4996" fill="none" stroke="#aaa" stroke-opacity="0.5"></path><path d="M197.5297 221.4004L178.6229 144.4996" fill="none" stroke="#aaa" stroke-opacity="0.5"></path><path d="M113.2834 152.9268L190.7926 25.0681" fill="none" stroke="#aaa" stroke-opacity="0.5"></path><path d="M292.128 68.4903L311.0467 118.3814" fill="none" stroke="#aaa" stroke-opacity="0.5"></path><path d="M197.5297 221.4004L143.8496 53.2498" fill="none" stroke="#aaa" stroke-opacity="0.5"></path><path d="M311.0467 118.3814L247.5501 151.4629" fill="none" stroke="#aaa" stroke-opacity="0.5"></path><path d="M292.128 68.4903L178.6229 144.4996" fill="none" stroke="#aaa" stroke-opacity="0.5"></path><path d="M143.8496 53.2498L178.6229 144.4996" fill="none" stroke="#aaa" stroke-opacity="0.5"></path><path d="M311.0467 118.3814L216.1366 86.3662" fill="none" stroke="#aaa" stroke-opacity="0.5"></path><path d="M113.2834 152.9268L301.501 177.7238" fill="none" stroke="#aaa" stroke-opacity="0.5"></path><path d="M311.0467 118.3814L190.7926 25.0681" fill="none" stroke="#aaa" stroke-opacity="0.5"></path><path d="M113.2834 152.9268L311.0467 118.3814" fill="none" stroke="#aaa" stroke-opacity="0.5"></path><path d="M145.5333 203.679L115.4576 97.7801" fill="none" stroke="#aaa" stroke-opacity="0.5"></path><path d="M113.2834 152.9268L145.5333 203.679" fill="none" stroke="#aaa" stroke-opacity="0.5"></path><path d="M250.0026 30.7276L178.6229 144.4996" fill="none" stroke="#aaa" stroke-opacity="0.5"></path><path d="M145.5333 203.679L216.1366 86.3662" fill="none" stroke="#aaa" stroke-opacity="0.5"></path><path d="M292.128 68.4903L143.8496 53.2498" fill="none" stroke="#aaa" stroke-opacity="0.5"></path><path d="M301.501 177.7238L247.5501 151.4629" fill="none" stroke="#aaa" stroke-opacity="0.5"></path><path d="M197.5297 221.4004L115.4576 97.7801" fill="none" stroke="#aaa" stroke-opacity="0.5"></path><path d="M216.1366 86.3662L247.5501 151.4629" fill="none" stroke="#aaa" stroke-opacity="0.5"></path><path d="M250.0026 30.7276L143.8496 53.2498" fill="none" stroke="#aaa" stroke-opacity="0.5"></path><path d="M190.7926 25.0681L115.4576 97.7801" fill="none" stroke="#aaa" stroke-opacity="0.5"></path><path d="M216.1366 86.3662L190.7926 25.0681" fill="none" stroke="#aaa" stroke-opacity="0.5"></path><path d="M252.3281 218.2441L247.5501 151.4629" fill="none" stroke="#aaa" stroke-opacity="0.5"></path><path d="M252.3281 218.2441L216.1366 86.3662" fill="none" stroke="#aaa" stroke-opacity="0.5"></path><path d="M292.128 68.4903L197.5297 221.4004" fill="none" stroke="#aaa" stroke-opacity="0.5"></path><path d="M197.5297 221.4004L190.7926 25.0681" fill="none" stroke="#aaa" stroke-opacity="0.5"></path><path d="M145.5333 203.679L311.0467 118.3814" fill="none" stroke="#aaa" stroke-opacity="0.5"></path><path d="M143.8496 53.2498L115.4576 97.7801" fill="none" stroke="#aaa" stroke-opacity="0.5"></path><path d="M247.5501 151.4629L115.4576 97.7801" fill="none" stroke="#aaa" stroke-opacity="0.5"></path><path d="M250.0026 30.7276L197.5297 221.4004" fill="none" stroke="#aaa" stroke-opacity="0.5"></path><path d="M250.0026 30.7276L292.128 68.4903" fill="none" stroke="#aaa" stroke-opacity="0.5"></path><path d="M250.0026 30.7276L115.4576 97.7801" fill="none" stroke="#aaa" stroke-opacity="0.5"></path><path d="M292.128 68.4903L247.5501 151.4629" fill="none" stroke="#aaa" stroke-opacity="0.5"></path><path d="M250.0026 30.7276L252.3281 218.2441" fill="none" stroke="#aaa" stroke-opacity="0.5"></path><path d="M143.8496 53.2498L247.5501 151.4629" fill="none" stroke="#aaa" stroke-opacity="0.5"></path><path d="M145.5333 203.679L178.6229 144.4996" fill="none" stroke="#aaa" stroke-opacity="0.5"></path><path d="M197.5297 221.4004L301.501 177.7238" fill="none" stroke="#aaa" stroke-opacity="0.5"></path><path d="M292.128 68.4903L190.7926 25.0681" fill="none" stroke="#aaa" stroke-opacity="0.5"></path><path d="M197.5297 221.4004L311.0467 118.3814" fill="none" stroke="#aaa" stroke-opacity="0.5"></path><path d="M1 0A1 1 0 1 1 1 -0.0001" fill="#5470c6" transform="matrix(18.5,0,0,18.5,247.5501,151.4629)"></path><path d="M1 0A1 1 0 1 1 1 -0.0001" fill="#5470c6" transform="matrix(18.5,0,0,18.5,301.501,177.7238)"></path><path d="M1 0A1 1 0 1 1 1 -0.0001" fill="#5470c6" transform="matrix(18.5,0,0,18.5,252.3281,218.2441)"></path><path d="M1 0A1 1 0 1 1 1 -0.0001" fill="#5470c6" transform="matrix(18.5,0,0,18.5,197.5297,221.4004)"></path><path d="M1 0A1 1 0 1 1 1 -0.0001" fill="#5470c6" transform="matrix(18.5,0,0,18.5,178.6229,144.4996)"></path><path d="M1 0A1 1 0 1 1 1 -0.0001" fill="#5470c6" transform="matrix(18.5,0,0,18.5,145.5333,203.679)"></path><path d="M1 0A1 1 0 1 1 1 -0.0001" fill="#5470c6" transform="matrix(18.5,0,0,18.5,113.2834,152.9268)"></path><path d="M1 0A1 1 0 1 1 1 -0.0001" fill="#5470c6" transform="matrix(18.5,0,0,18.5,115.4576,97.7801)"></path><path d="M1 0A1 1 0 1 1 1 -0.0001" fill="#5470c6" transform="matrix(18.5,0,0,18.5,143.8496,53.2498)"></path><path d="M1 0A1 1 0 1 1 1 -0.0001" fill="#5470c6" transform="matrix(18.5,0,0,18.5,190.7926,25.0681)"></path><path d="M1 0A1 1 0 1 1 1 -0.0001" fill="#5470c6" transform="matrix(18.5,0,0,18.5,250.0026,30.7276)"></path><path d="M1 0A1 1 0 1 1 1 -0.0001" fill="#5470c6" transform="matrix(18.5,0,0,18.5,216.1366,86.3662)"></path><path d="M1 0A1 1 0 1 1 1 -0.0001" fill="#5470c6" transform="matrix(18.5,0,0,18.5,292.128,68.4903)"></path><path d="M1 0A1 1 0 1 1 1 -0.0001" fill="#5470c6" transform="matrix(18.5,0,0,18.5,311.0467,118.3814)"></path><path d="M-26.0964 -5l52.1929 0l0 33l-52.1929 0Z" fill="rgb(0,0,0)" fill-opacity="0" stroke="#ccc" stroke-width="0" transform="translate(237.5 5)"></path><text dominant-baseline="central" fill="#333" style="font-size:23px;font-family:sans-serif;font-weight:bolder;" text-anchor="middle" transform="translate(237.5 5)" y="11.5">C45</text></g></svg>