<svg baseprofile="full" height="250" style="position:absolute;left:0;top:0;user-select:none" version="1.1" width="475" xmlns="http://www.w3.org/2000/svg" xmlns:xlink="http://www.w3.org/1999/xlink"><rect fill="none" height="250" id="0" width="475" x="0" y="0"></rect><g><path d="M164.544 219.577L283.5078 193.3615" fill="none" stroke="#aaa" stroke-opacity="0.5"></path><path d="M195.627 24.8242L121.615 172.3426" fill="none" stroke="#aaa" stroke-opacity="0.5"></path><path d="M164.544 219.577L254.8279 32.9594" fill="none" stroke="#aaa" stroke-opacity="0.5"></path><path d="M249.9189 107.3531L136.3088 50.536" fill="none" stroke="#aaa" stroke-opacity="0.5"></path><path d="M249.9189 107.3531L176.2345 97.5744" fill="none" stroke="#aaa" stroke-opacity="0.5"></path><path d="M233.7528 226.9876L283.5078 193.3615" fill="none" stroke="#aaa" stroke-opacity="0.5"></path><path d="M283.5078 193.3615L254.8279 32.9594" fill="none" stroke="#aaa" stroke-opacity="0.5"></path><path d="M176.2345 97.5744L136.3088 50.536" fill="none" stroke="#aaa" stroke-opacity="0.5"></path><path d="M312.8031 141.8852L121.615 172.3426" fill="none" stroke="#aaa" stroke-opacity="0.5"></path><path d="M233.7528 226.9876L136.3088 50.536" fill="none" stroke="#aaa" stroke-opacity="0.5"></path><path d="M164.544 219.577L249.9189 107.3531" fill="none" stroke="#aaa" stroke-opacity="0.5"></path><path d="M164.544 219.577L195.627 24.8242" fill="none" stroke="#aaa" stroke-opacity="0.5"></path><path d="M202.7919 167.7628L136.3088 50.536" fill="none" stroke="#aaa" stroke-opacity="0.5"></path><path d="M202.7919 167.7628L176.2345 97.5744" fill="none" stroke="#aaa" stroke-opacity="0.5"></path><path d="M254.8279 32.9594L176.2345 97.5744" fill="none" stroke="#aaa" stroke-opacity="0.5"></path><path d="M249.9189 107.3531L195.627 24.8242" fill="none" stroke="#aaa" stroke-opacity="0.5"></path><path d="M303.7126 75.9686L176.2345 97.5744" fill="none" stroke="#aaa" stroke-opacity="0.5"></path><path d="M249.9189 107.3531L108.9921 113.8678" fill="none" stroke="#aaa" stroke-opacity="0.5"></path><path d="M233.7528 226.9876L195.627 24.8242" fill="none" stroke="#aaa" stroke-opacity="0.5"></path><path d="M164.544 219.577L312.8031 141.8852" fill="none" stroke="#aaa" stroke-opacity="0.5"></path><path d="M202.7919 167.7628L195.627 24.8242" fill="none" stroke="#aaa" stroke-opacity="0.5"></path><path d="M303.7126 75.9686L254.8279 32.9594" fill="none" stroke="#aaa" stroke-opacity="0.5"></path><path d="M202.7919 167.7628L108.9921 113.8678" fill="none" stroke="#aaa" stroke-opacity="0.5"></path><path d="M195.627 24.8242L136.3088 50.536" fill="none" stroke="#aaa" stroke-opacity="0.5"></path><path d="M195.627 24.8242L176.2345 97.5744" fill="none" stroke="#aaa" stroke-opacity="0.5"></path><path d="M249.9189 107.3531L303.7126 75.9686" fill="none" stroke="#aaa" stroke-opacity="0.5"></path><path d="M303.7126 75.9686L108.9921 113.8678" fill="none" stroke="#aaa" stroke-opacity="0.5"></path><path d="M233.7528 226.9876L303.7126 75.9686" fill="none" stroke="#aaa" stroke-opacity="0.5"></path><path d="M108.9921 113.8678L176.2345 97.5744" fill="none" stroke="#aaa" stroke-opacity="0.5"></path><path d="M283.5078 193.3615L121.615 172.3426" fill="none" stroke="#aaa" stroke-opacity="0.5"></path><path d="M249.9189 107.3531L233.7528 226.9876" fill="none" stroke="#aaa" stroke-opacity="0.5"></path><path d="M312.8031 141.8852L136.3088 50.536" fill="none" stroke="#aaa" stroke-opacity="0.5"></path><path d="M136.3088 50.536L121.615 172.3426" fill="none" stroke="#aaa" stroke-opacity="0.5"></path><path d="M108.9921 113.8678L254.8279 32.9594" fill="none" stroke="#aaa" stroke-opacity="0.5"></path><path d="M195.627 24.8242L108.9921 113.8678" fill="none" stroke="#aaa" stroke-opacity="0.5"></path><path d="M303.7126 75.9686L312.8031 141.8852" fill="none" stroke="#aaa" stroke-opacity="0.5"></path><path d="M176.2345 97.5744L121.615 172.3426" fill="none" stroke="#aaa" stroke-opacity="0.5"></path><path d="M312.8031 141.8852L195.627 24.8242" fill="none" stroke="#aaa" stroke-opacity="0.5"></path><path d="M254.8279 32.9594L121.615 172.3426" fill="none" stroke="#aaa" stroke-opacity="0.5"></path><path d="M312.8031 141.8852L108.9921 113.8678" fill="none" stroke="#aaa" stroke-opacity="0.5"></path><path d="M303.7126 75.9686L121.615 172.3426" fill="none" stroke="#aaa" stroke-opacity="0.5"></path><path d="M303.7126 75.9686L202.7919 167.7628" fill="none" stroke="#aaa" stroke-opacity="0.5"></path><path d="M164.544 219.577L136.3088 50.536" fill="none" stroke="#aaa" stroke-opacity="0.5"></path><path d="M164.544 219.577L176.2345 97.5744" fill="none" stroke="#aaa" stroke-opacity="0.5"></path><path d="M283.5078 193.3615L136.3088 50.536" fill="none" stroke="#aaa" stroke-opacity="0.5"></path><path d="M283.5078 193.3615L176.2345 97.5744" fill="none" stroke="#aaa" stroke-opacity="0.5"></path><path d="M249.9189 107.3531L283.5078 193.3615" fill="none" stroke="#aaa" stroke-opacity="0.5"></path><path d="M233.7528 226.9876L176.2345 97.5744" fill="none" stroke="#aaa" stroke-opacity="0.5"></path><path d="M108.9921 113.8678L121.615 172.3426" fill="none" stroke="#aaa" stroke-opacity="0.5"></path><path d="M249.9189 107.3531L254.8279 32.9594" fill="none" stroke="#aaa" stroke-opacity="0.5"></path><path d="M164.544 219.577L108.9921 113.8678" fill="none" stroke="#aaa" stroke-opacity="0.5"></path><path d="M202.7919 167.7628L283.5078 193.3615" fill="none" stroke="#aaa" stroke-opacity="0.5"></path><path d="M233.7528 226.9876L254.8279 32.9594" fill="none" stroke="#aaa" stroke-opacity="0.5"></path><path d="M254.8279 32.9594L136.3088 50.536" fill="none" stroke="#aaa" stroke-opacity="0.5"></path><path d="M202.7919 167.7628L254.8279 32.9594" fill="none" stroke="#aaa" stroke-opacity="0.5"></path><path d="M303.7126 75.9686L283.5078 193.3615" fill="none" stroke="#aaa" stroke-opacity="0.5"></path><path d="M303.7126 75.9686L136.3088 50.536" fill="none" stroke="#aaa" stroke-opacity="0.5"></path><path d="M233.7528 226.9876L108.9921 113.8678" fill="none" stroke="#aaa" stroke-opacity="0.5"></path><path d="M164.544 219.577L303.7126 75.9686" fill="none" stroke="#aaa" stroke-opacity="0.5"></path><path d="M249.9189 107.3531L312.8031 141.8852" fill="none" stroke="#aaa" stroke-opacity="0.5"></path><path d="M195.627 24.8242L283.5078 193.3615" fill="none" stroke="#aaa" stroke-opacity="0.5"></path><path d="M164.544 219.577L233.7528 226.9876" fill="none" stroke="#aaa" stroke-opacity="0.5"></path><path d="M303.7126 75.9686L195.627 24.8242" fill="none" stroke="#aaa" stroke-opacity="0.5"></path><path d="M233.7528 226.9876L312.8031 141.8852" fill="none" stroke="#aaa" stroke-opacity="0.5"></path><path d="M195.627 24.8242L254.8279 32.9594" fill="none" stroke="#aaa" stroke-opacity="0.5"></path><path d="M164.544 219.577L121.615 172.3426" fill="none" stroke="#aaa" stroke-opacity="0.5"></path><path d="M108.9921 113.8678L283.5078 193.3615" fill="none" stroke="#aaa" stroke-opacity="0.5"></path><path d="M164.544 219.577L202.7919 167.7628" fill="none" stroke="#aaa" stroke-opacity="0.5"></path><path d="M312.8031 141.8852L176.2345 97.5744" fill="none" stroke="#aaa" stroke-opacity="0.5"></path><path d="M108.9921 113.8678L136.3088 50.536" fill="none" stroke="#aaa" stroke-opacity="0.5"></path><path d="M202.7919 167.7628L312.8031 141.8852" fill="none" stroke="#aaa" stroke-opacity="0.5"></path><path d="M249.9189 107.3531L121.615 172.3426" fill="none" stroke="#aaa" stroke-opacity="0.5"></path><path d="M312.8031 141.8852L283.5078 193.3615" fill="none" stroke="#aaa" stroke-opacity="0.5"></path><path d="M249.9189 107.3531L202.7919 167.7628" fill="none" stroke="#aaa" stroke-opacity="0.5"></path><path d="M312.8031 141.8852L254.8279 32.9594" fill="none" stroke="#aaa" stroke-opacity="0.5"></path><path d="M233.7528 226.9876L121.615 172.3426" fill="none" stroke="#aaa" stroke-opacity="0.5"></path><path d="M233.7528 226.9876L202.7919 167.7628" fill="none" stroke="#aaa" stroke-opacity="0.5"></path><path d="M202.7919 167.7628L121.615 172.3426" fill="none" stroke="#aaa" stroke-opacity="0.5"></path><path d="M1 0A1 1 0 1 1 1 -0.0001" fill="#5470c6" transform="matrix(18.5,0,0,18.5,312.8031,141.8852)"></path><path d="M1 0A1 1 0 1 1 1 -0.0001" fill="#5470c6" transform="matrix(18.5,0,0,18.5,283.5078,193.3615)"></path><path d="M1 0A1 1 0 1 1 1 -0.0001" fill="#5470c6" transform="matrix(18.5,0,0,18.5,233.7528,226.9876)"></path><path d="M1 0A1 1 0 1 1 1 -0.0001" fill="#5470c6" transform="matrix(18.5,0,0,18.5,202.7919,167.7628)"></path><path d="M1 0A1 1 0 1 1 1 -0.0001" fill="#5470c6" transform="matrix(18.5,0,0,18.5,164.544,219.577)"></path><path d="M1 0A1 1 0 1 1 1 -0.0001" fill="#5470c6" transform="matrix(18.5,0,0,18.5,121.615,172.3426)"></path><path d="M1 0A1 1 0 1 1 1 -0.0001" fill="#5470c6" transform="matrix(18.5,0,0,18.5,108.9921,113.8678)"></path><path d="M1 0A1 1 0 1 1 1 -0.0001" fill="#5470c6" transform="matrix(18.5,0,0,18.5,176.2345,97.5744)"></path><path d="M1 0A1 1 0 1 1 1 -0.0001" fill="#5470c6" transform="matrix(18.5,0,0,18.5,136.3088,50.536)"></path><path d="M1 0A1 1 0 1 1 1 -0.0001" fill="#5470c6" transform="matrix(18.5,0,0,18.5,195.627,24.8242)"></path><path d="M1 0A1 1 0 1 1 1 -0.0001" fill="#5470c6" transform="matrix(18.5,0,0,18.5,254.8279,32.9594)"></path><path d="M1 0A1 1 0 1 1 1 -0.0001" fill="#5470c6" transform="matrix(18.5,0,0,18.5,303.7126,75.9686)"></path><path d="M1 0A1 1 0 1 1 1 -0.0001" fill="#5470c6" transform="matrix(18.5,0,0,18.5,249.9189,107.3531)"></path><path d="M-26.0964 -5l52.1929 0l0 33l-52.1929 0Z" fill="rgb(0,0,0)" fill-opacity="0" stroke="#ccc" stroke-width="0" transform="translate(237.5 5)"></path><text dominant-baseline="central" fill="#333" style="font-size:23px;font-family:sans-serif;font-weight:bolder;" text-anchor="middle" transform="translate(237.5 5)" y="11.5">C46</text></g></svg>