<svg baseprofile="full" height="250" style="position:absolute;left:0;top:0;user-select:none" version="1.1" width="475" xmlns="http://www.w3.org/2000/svg" xmlns:xlink="http://www.w3.org/1999/xlink"><rect fill="none" height="250" id="0" width="475" x="0" y="0"></rect><g><path d="M309.1954 141.7686L186.8254 148.0937" fill="none" stroke="#aaa" stroke-opacity="0.5"></path><path d="M119.3229 173.4798L110.9672 109.5523" fill="none" stroke="#aaa" stroke-opacity="0.5"></path><path d="M170.3144 219.7892L186.8254 148.0937" fill="none" stroke="#aaa" stroke-opacity="0.5"></path><path d="M233.4659 223.683L190.7914 24.9566" fill="none" stroke="#aaa" stroke-opacity="0.5"></path><path d="M139.0435 56.0742L283.3231 193.6183" fill="none" stroke="#aaa" stroke-opacity="0.5"></path><path d="M139.0435 56.0742L309.1954 141.7686" fill="none" stroke="#aaa" stroke-opacity="0.5"></path><path d="M190.7914 24.9566L229.8959 97.7812" fill="none" stroke="#aaa" stroke-opacity="0.5"></path><path d="M170.3144 219.7892L304.0859 79.7255" fill="none" stroke="#aaa" stroke-opacity="0.5"></path><path d="M190.7914 24.9566L186.8254 148.0937" fill="none" stroke="#aaa" stroke-opacity="0.5"></path><path d="M233.4659 223.683L110.9672 109.5523" fill="none" stroke="#aaa" stroke-opacity="0.5"></path><path d="M119.3229 173.4798L229.8959 97.7812" fill="none" stroke="#aaa" stroke-opacity="0.5"></path><path d="M139.0435 56.0742L233.4659 223.683" fill="none" stroke="#aaa" stroke-opacity="0.5"></path><path d="M119.3229 173.4798L186.8254 148.0937" fill="none" stroke="#aaa" stroke-opacity="0.5"></path><path d="M190.7914 24.9566L304.0859 79.7255" fill="none" stroke="#aaa" stroke-opacity="0.5"></path><path d="M186.8254 148.0937L110.9672 109.5523" fill="none" stroke="#aaa" stroke-opacity="0.5"></path><path d="M170.3144 219.7892L283.3231 193.6183" fill="none" stroke="#aaa" stroke-opacity="0.5"></path><path d="M283.3231 193.6183L110.9672 109.5523" fill="none" stroke="#aaa" stroke-opacity="0.5"></path><path d="M233.4659 223.683L229.8959 97.7812" fill="none" stroke="#aaa" stroke-opacity="0.5"></path><path d="M119.3229 173.4798L304.0859 79.7255" fill="none" stroke="#aaa" stroke-opacity="0.5"></path><path d="M309.1954 141.7686L256.2796 31.4776" fill="none" stroke="#aaa" stroke-opacity="0.5"></path><path d="M233.4659 223.683L186.8254 148.0937" fill="none" stroke="#aaa" stroke-opacity="0.5"></path><path d="M170.3144 219.7892L309.1954 141.7686" fill="none" stroke="#aaa" stroke-opacity="0.5"></path><path d="M304.0859 79.7255L256.2796 31.4776" fill="none" stroke="#aaa" stroke-opacity="0.5"></path><path d="M139.0435 56.0742L170.3144 219.7892" fill="none" stroke="#aaa" stroke-opacity="0.5"></path><path d="M190.7914 24.9566L283.3231 193.6183" fill="none" stroke="#aaa" stroke-opacity="0.5"></path><path d="M186.8254 148.0937L229.8959 97.7812" fill="none" stroke="#aaa" stroke-opacity="0.5"></path><path d="M283.3231 193.6183L229.8959 97.7812" fill="none" stroke="#aaa" stroke-opacity="0.5"></path><path d="M233.4659 223.683L304.0859 79.7255" fill="none" stroke="#aaa" stroke-opacity="0.5"></path><path d="M119.3229 173.4798L283.3231 193.6183" fill="none" stroke="#aaa" stroke-opacity="0.5"></path><path d="M190.7914 24.9566L256.2796 31.4776" fill="none" stroke="#aaa" stroke-opacity="0.5"></path><path d="M283.3231 193.6183L186.8254 148.0937" fill="none" stroke="#aaa" stroke-opacity="0.5"></path><path d="M190.7914 24.9566L309.1954 141.7686" fill="none" stroke="#aaa" stroke-opacity="0.5"></path><path d="M304.0859 79.7255L110.9672 109.5523" fill="none" stroke="#aaa" stroke-opacity="0.5"></path><path d="M139.0435 56.0742L119.3229 173.4798" fill="none" stroke="#aaa" stroke-opacity="0.5"></path><path d="M110.9672 109.5523L229.8959 97.7812" fill="none" stroke="#aaa" stroke-opacity="0.5"></path><path d="M119.3229 173.4798L309.1954 141.7686" fill="none" stroke="#aaa" stroke-opacity="0.5"></path><path d="M233.4659 223.683L283.3231 193.6183" fill="none" stroke="#aaa" stroke-opacity="0.5"></path><path d="M304.0859 79.7255L229.8959 97.7812" fill="none" stroke="#aaa" stroke-opacity="0.5"></path><path d="M233.4659 223.683L256.2796 31.4776" fill="none" stroke="#aaa" stroke-opacity="0.5"></path><path d="M304.0859 79.7255L186.8254 148.0937" fill="none" stroke="#aaa" stroke-opacity="0.5"></path><path d="M233.4659 223.683L309.1954 141.7686" fill="none" stroke="#aaa" stroke-opacity="0.5"></path><path d="M190.7914 24.9566L170.3144 219.7892" fill="none" stroke="#aaa" stroke-opacity="0.5"></path><path d="M139.0435 56.0742L190.7914 24.9566" fill="none" stroke="#aaa" stroke-opacity="0.5"></path><path d="M139.0435 56.0742L256.2796 31.4776" fill="none" stroke="#aaa" stroke-opacity="0.5"></path><path d="M283.3231 193.6183L256.2796 31.4776" fill="none" stroke="#aaa" stroke-opacity="0.5"></path><path d="M283.3231 193.6183L309.1954 141.7686" fill="none" stroke="#aaa" stroke-opacity="0.5"></path><path d="M119.3229 173.4798L170.3144 219.7892" fill="none" stroke="#aaa" stroke-opacity="0.5"></path><path d="M256.2796 31.4776L110.9672 109.5523" fill="none" stroke="#aaa" stroke-opacity="0.5"></path><path d="M190.7914 24.9566L119.3229 173.4798" fill="none" stroke="#aaa" stroke-opacity="0.5"></path><path d="M139.0435 56.0742L110.9672 109.5523" fill="none" stroke="#aaa" stroke-opacity="0.5"></path><path d="M304.0859 79.7255L283.3231 193.6183" fill="none" stroke="#aaa" stroke-opacity="0.5"></path><path d="M233.4659 223.683L170.3144 219.7892" fill="none" stroke="#aaa" stroke-opacity="0.5"></path><path d="M304.0859 79.7255L309.1954 141.7686" fill="none" stroke="#aaa" stroke-opacity="0.5"></path><path d="M256.2796 31.4776L229.8959 97.7812" fill="none" stroke="#aaa" stroke-opacity="0.5"></path><path d="M170.3144 219.7892L256.2796 31.4776" fill="none" stroke="#aaa" stroke-opacity="0.5"></path><path d="M139.0435 56.0742L229.8959 97.7812" fill="none" stroke="#aaa" stroke-opacity="0.5"></path><path d="M256.2796 31.4776L186.8254 148.0937" fill="none" stroke="#aaa" stroke-opacity="0.5"></path><path d="M233.4659 223.683L119.3229 173.4798" fill="none" stroke="#aaa" stroke-opacity="0.5"></path><path d="M139.0435 56.0742L186.8254 148.0937" fill="none" stroke="#aaa" stroke-opacity="0.5"></path><path d="M309.1954 141.7686L110.9672 109.5523" fill="none" stroke="#aaa" stroke-opacity="0.5"></path><path d="M170.3144 219.7892L110.9672 109.5523" fill="none" stroke="#aaa" stroke-opacity="0.5"></path><path d="M139.0435 56.0742L304.0859 79.7255" fill="none" stroke="#aaa" stroke-opacity="0.5"></path><path d="M119.3229 173.4798L256.2796 31.4776" fill="none" stroke="#aaa" stroke-opacity="0.5"></path><path d="M190.7914 24.9566L110.9672 109.5523" fill="none" stroke="#aaa" stroke-opacity="0.5"></path><path d="M309.1954 141.7686L229.8959 97.7812" fill="none" stroke="#aaa" stroke-opacity="0.5"></path><path d="M170.3144 219.7892L229.8959 97.7812" fill="none" stroke="#aaa" stroke-opacity="0.5"></path><path d="M1 0A1 1 0 1 1 1 -0.0001" fill="#5470c6" transform="matrix(18.5,0,0,18.5,309.1954,141.7686)"></path><path d="M1 0A1 1 0 1 1 1 -0.0001" fill="#5470c6" transform="matrix(18.5,0,0,18.5,283.3231,193.6183)"></path><path d="M1 0A1 1 0 1 1 1 -0.0001" fill="#5470c6" transform="matrix(18.5,0,0,18.5,233.4659,223.683)"></path><path d="M1 0A1 1 0 1 1 1 -0.0001" fill="#5470c6" transform="matrix(18.5,0,0,18.5,170.3144,219.7892)"></path><path d="M1 0A1 1 0 1 1 1 -0.0001" fill="#5470c6" transform="matrix(18.5,0,0,18.5,186.8254,148.0937)"></path><path d="M1 0A1 1 0 1 1 1 -0.0001" fill="#5470c6" transform="matrix(18.5,0,0,18.5,119.3229,173.4798)"></path><path d="M1 0A1 1 0 1 1 1 -0.0001" fill="#5470c6" transform="matrix(18.5,0,0,18.5,110.9672,109.5523)"></path><path d="M1 0A1 1 0 1 1 1 -0.0001" fill="#5470c6" transform="matrix(18.5,0,0,18.5,139.0435,56.0742)"></path><path d="M1 0A1 1 0 1 1 1 -0.0001" fill="#5470c6" transform="matrix(18.5,0,0,18.5,190.7914,24.9566)"></path><path d="M1 0A1 1 0 1 1 1 -0.0001" fill="#5470c6" transform="matrix(18.5,0,0,18.5,256.2796,31.4776)"></path><path d="M1 0A1 1 0 1 1 1 -0.0001" fill="#5470c6" transform="matrix(18.5,0,0,18.5,229.8959,97.7812)"></path><path d="M1 0A1 1 0 1 1 1 -0.0001" fill="#5470c6" transform="matrix(18.5,0,0,18.5,304.0859,79.7255)"></path><path d="M-26.0964 -5l52.1929 0l0 33l-52.1929 0Z" fill="rgb(0,0,0)" fill-opacity="0" stroke="#ccc" stroke-width="0" transform="translate(237.5 5)"></path><text dominant-baseline="central" fill="#333" style="font-size:23px;font-family:sans-serif;font-weight:bolder;" text-anchor="middle" transform="translate(237.5 5)" y="11.5">C47</text></g></svg>