<svg baseprofile="full" height="250" style="position:absolute;left:0;top:0;user-select:none" version="1.1" width="475" xmlns="http://www.w3.org/2000/svg" xmlns:xlink="http://www.w3.org/1999/xlink"><rect fill="none" height="250" id="0" width="475" x="0" y="0"></rect><g><path d="M244.4773 221.2357L202.6234 223.1874" fill="none" stroke="#aaa" stroke-opacity="0.5" stroke-width="0.5"></path><path d="M200.2039 171.2785L118.494 157.2206" fill="none" stroke="#aaa" stroke-opacity="0.5" stroke-width="0.5"></path><path d="M123.6953 78.8806L146.0826 109.3578" fill="none" stroke="#aaa" stroke-opacity="0.5" stroke-width="0.5"></path><path d="M180.4838 30.5396L118.494 157.2206" fill="none" stroke="#aaa" stroke-opacity="0.5" stroke-width="0.5"></path><path d="M146.4201 49.852L233.0619 190.6609" fill="none" stroke="#aaa" stroke-opacity="0.5" stroke-width="0.5"></path><path d="M222.9863 116.4664L123.6953 78.8806" fill="none" stroke="#aaa" stroke-opacity="0.5" stroke-width="0.5"></path><path d="M244.4773 221.2357L217.9459 26.3217" fill="none" stroke="#aaa" stroke-opacity="0.5" stroke-width="0.5"></path><path d="M200.2039 171.2785L153.7188 164.2694" fill="none" stroke="#aaa" stroke-opacity="0.5" stroke-width="0.5"></path><path d="M180.4838 30.5396L153.7188 164.2694" fill="none" stroke="#aaa" stroke-opacity="0.5" stroke-width="0.5"></path><path d="M222.9863 116.4664L257.5745 79.9171" fill="none" stroke="#aaa" stroke-opacity="0.5" stroke-width="0.5"></path><path d="M112.8492 119.4536L146.0826 109.3578" fill="none" stroke="#aaa" stroke-opacity="0.5" stroke-width="0.5"></path><path d="M222.9863 116.4664L200.2039 171.2785" fill="none" stroke="#aaa" stroke-opacity="0.5" stroke-width="0.5"></path><path d="M123.6953 78.8806L202.6234 223.1874" fill="none" stroke="#aaa" stroke-opacity="0.5" stroke-width="0.5"></path><path d="M274.7916 120.0458L278.8494 196.4612" fill="none" stroke="#aaa" stroke-opacity="0.5" stroke-width="0.5"></path><path d="M123.6953 78.8806L217.9459 26.3217" fill="none" stroke="#aaa" stroke-opacity="0.5" stroke-width="0.5"></path><path d="M200.2039 171.2785L179.4743 129.4745" fill="none" stroke="#aaa" stroke-opacity="0.5" stroke-width="0.5"></path><path d="M180.4838 30.5396L179.4743 129.4745" fill="none" stroke="#aaa" stroke-opacity="0.5" stroke-width="0.5"></path><path d="M138.8604 194.4419L118.494 157.2206" fill="none" stroke="#aaa" stroke-opacity="0.5" stroke-width="0.5"></path><path d="M171.1481 209.6548L202.6234 223.1874" fill="none" stroke="#aaa" stroke-opacity="0.5" stroke-width="0.5"></path><path d="M146.4201 49.852L171.1481 209.6548" fill="none" stroke="#aaa" stroke-opacity="0.5" stroke-width="0.5"></path><path d="M179.4743 129.4745L118.494 157.2206" fill="none" stroke="#aaa" stroke-opacity="0.5" stroke-width="0.5"></path><path d="M138.8604 194.4419L153.7188 164.2694" fill="none" stroke="#aaa" stroke-opacity="0.5" stroke-width="0.5"></path><path d="M200.2039 171.2785L215.7398 68.603" fill="none" stroke="#aaa" stroke-opacity="0.5" stroke-width="0.5"></path><path d="M112.8492 119.4536L176.3027 73.0505" fill="none" stroke="#aaa" stroke-opacity="0.5" stroke-width="0.5"></path><path d="M278.8494 196.4612L303.6265 92.4399" fill="none" stroke="#aaa" stroke-opacity="0.5" stroke-width="0.5"></path><path d="M180.4838 30.5396L233.0619 190.6609" fill="none" stroke="#aaa" stroke-opacity="0.5" stroke-width="0.5"></path><path d="M146.4201 49.852L278.8494 196.4612" fill="none" stroke="#aaa" stroke-opacity="0.5" stroke-width="0.5"></path><path d="M309.1477 132.3939L215.7398 68.603" fill="none" stroke="#aaa" stroke-opacity="0.5" stroke-width="0.5"></path><path d="M138.8604 194.4419L179.4743 129.4745" fill="none" stroke="#aaa" stroke-opacity="0.5" stroke-width="0.5"></path><path d="M200.2039 171.2785L252.9749 37.3572" fill="none" stroke="#aaa" stroke-opacity="0.5" stroke-width="0.5"></path><path d="M278.8494 196.4612L255.8329 155.6013" fill="none" stroke="#aaa" stroke-opacity="0.5" stroke-width="0.5"></path><path d="M257.5745 79.9171L118.494 157.2206" fill="none" stroke="#aaa" stroke-opacity="0.5" stroke-width="0.5"></path><path d="M179.4743 129.4745L215.7398 68.603" fill="none" stroke="#aaa" stroke-opacity="0.5" stroke-width="0.5"></path><path d="M222.9863 116.4664L118.494 157.2206" fill="none" stroke="#aaa" stroke-opacity="0.5" stroke-width="0.5"></path><path d="M244.4773 221.2357L222.9863 116.4664" fill="none" stroke="#aaa" stroke-opacity="0.5" stroke-width="0.5"></path><path d="M274.7916 120.0458L202.6234 223.1874" fill="none" stroke="#aaa" stroke-opacity="0.5" stroke-width="0.5"></path><path d="M257.5745 79.9171L153.7188 164.2694" fill="none" stroke="#aaa" stroke-opacity="0.5" stroke-width="0.5"></path><path d="M138.8604 194.4419L233.0619 190.6609" fill="none" stroke="#aaa" stroke-opacity="0.5" stroke-width="0.5"></path><path d="M278.8494 196.4612L297.7608 167.4134" fill="none" stroke="#aaa" stroke-opacity="0.5" stroke-width="0.5"></path><path d="M222.9863 116.4664L153.7188 164.2694" fill="none" stroke="#aaa" stroke-opacity="0.5" stroke-width="0.5"></path><path d="M180.4838 30.5396L171.1481 209.6548" fill="none" stroke="#aaa" stroke-opacity="0.5" stroke-width="0.5"></path><path d="M146.4201 49.852L297.7608 167.4134" fill="none" stroke="#aaa" stroke-opacity="0.5" stroke-width="0.5"></path><path d="M215.7398 68.603L118.494 157.2206" fill="none" stroke="#aaa" stroke-opacity="0.5" stroke-width="0.5"></path><path d="M257.5745 79.9171L179.4743 129.4745" fill="none" stroke="#aaa" stroke-opacity="0.5" stroke-width="0.5"></path><path d="M278.8494 196.4612L285.2723 59.4212" fill="none" stroke="#aaa" stroke-opacity="0.5" stroke-width="0.5"></path><path d="M222.9863 116.4664L179.4743 129.4745" fill="none" stroke="#aaa" stroke-opacity="0.5" stroke-width="0.5"></path><path d="M278.8494 196.4612L309.1477 132.3939" fill="none" stroke="#aaa" stroke-opacity="0.5" stroke-width="0.5"></path><path d="M274.7916 120.0458L138.8604 194.4419" fill="none" stroke="#aaa" stroke-opacity="0.5" stroke-width="0.5"></path><path d="M233.0619 190.6609L118.494 157.2206" fill="none" stroke="#aaa" stroke-opacity="0.5" stroke-width="0.5"></path><path d="M200.2039 171.2785L303.6265 92.4399" fill="none" stroke="#aaa" stroke-opacity="0.5" stroke-width="0.5"></path><path d="M257.5745 79.9171L215.7398 68.603" fill="none" stroke="#aaa" stroke-opacity="0.5" stroke-width="0.5"></path><path d="M297.7608 167.4134L255.8329 155.6013" fill="none" stroke="#aaa" stroke-opacity="0.5" stroke-width="0.5"></path><path d="M180.4838 30.5396L303.6265 92.4399" fill="none" stroke="#aaa" stroke-opacity="0.5" stroke-width="0.5"></path><path d="M138.8604 194.4419L171.1481 209.6548" fill="none" stroke="#aaa" stroke-opacity="0.5" stroke-width="0.5"></path><path d="M222.9863 116.4664L215.7398 68.603" fill="none" stroke="#aaa" stroke-opacity="0.5" stroke-width="0.5"></path><path d="M200.2039 171.2785L255.8329 155.6013" fill="none" stroke="#aaa" stroke-opacity="0.5" stroke-width="0.5"></path><path d="M222.9863 116.4664L233.0619 190.6609" fill="none" stroke="#aaa" stroke-opacity="0.5" stroke-width="0.5"></path><path d="M278.8494 196.4612L146.0826 109.3578" fill="none" stroke="#aaa" stroke-opacity="0.5" stroke-width="0.5"></path><path d="M244.4773 221.2357L200.2039 171.2785" fill="none" stroke="#aaa" stroke-opacity="0.5" stroke-width="0.5"></path><path d="M274.7916 120.0458L112.8492 119.4536" fill="none" stroke="#aaa" stroke-opacity="0.5" stroke-width="0.5"></path><path d="M257.5745 79.9171L252.9749 37.3572" fill="none" stroke="#aaa" stroke-opacity="0.5" stroke-width="0.5"></path><path d="M200.2039 171.2785L297.7608 167.4134" fill="none" stroke="#aaa" stroke-opacity="0.5" stroke-width="0.5"></path><path d="M274.7916 120.0458L176.3027 73.0505" fill="none" stroke="#aaa" stroke-opacity="0.5" stroke-width="0.5"></path><path d="M180.4838 30.5396L297.7608 167.4134" fill="none" stroke="#aaa" stroke-opacity="0.5" stroke-width="0.5"></path><path d="M309.1477 132.3939L255.8329 155.6013" fill="none" stroke="#aaa" stroke-opacity="0.5" stroke-width="0.5"></path><path d="M153.7188 164.2694L118.494 157.2206" fill="none" stroke="#aaa" stroke-opacity="0.5" stroke-width="0.5"></path><path d="M179.4743 129.4745L303.6265 92.4399" fill="none" stroke="#aaa" stroke-opacity="0.5" stroke-width="0.5"></path><path d="M215.7398 68.603L233.0619 190.6609" fill="none" stroke="#aaa" stroke-opacity="0.5" stroke-width="0.5"></path><path d="M297.7608 167.4134L285.2723 59.4212" fill="none" stroke="#aaa" stroke-opacity="0.5" stroke-width="0.5"></path><path d="M123.6953 78.8806L200.2039 171.2785" fill="none" stroke="#aaa" stroke-opacity="0.5" stroke-width="0.5"></path><path d="M278.8494 196.4612L217.9459 26.3217" fill="none" stroke="#aaa" stroke-opacity="0.5" stroke-width="0.5"></path><path d="M202.6234 223.1874L118.494 157.2206" fill="none" stroke="#aaa" stroke-opacity="0.5" stroke-width="0.5"></path><path d="M222.9863 116.4664L171.1481 209.6548" fill="none" stroke="#aaa" stroke-opacity="0.5" stroke-width="0.5"></path><path d="M179.4743 129.4745L255.8329 155.6013" fill="none" stroke="#aaa" stroke-opacity="0.5" stroke-width="0.5"></path><path d="M200.2039 171.2785L285.2723 59.4212" fill="none" stroke="#aaa" stroke-opacity="0.5" stroke-width="0.5"></path><path d="M171.1481 209.6548L123.6953 78.8806" fill="none" stroke="#aaa" stroke-opacity="0.5" stroke-width="0.5"></path><path d="M200.2039 171.2785L309.1477 132.3939" fill="none" stroke="#aaa" stroke-opacity="0.5" stroke-width="0.5"></path><path d="M146.0826 109.3578L118.494 157.2206" fill="none" stroke="#aaa" stroke-opacity="0.5" stroke-width="0.5"></path><path d="M171.1481 209.6548L257.5745 79.9171" fill="none" stroke="#aaa" stroke-opacity="0.5" stroke-width="0.5"></path><path d="M180.4838 30.5396L309.1477 132.3939" fill="none" stroke="#aaa" stroke-opacity="0.5" stroke-width="0.5"></path><path d="M252.9749 37.3572L233.0619 190.6609" fill="none" stroke="#aaa" stroke-opacity="0.5" stroke-width="0.5"></path><path d="M171.1481 209.6548L200.2039 171.2785" fill="none" stroke="#aaa" stroke-opacity="0.5" stroke-width="0.5"></path><path d="M146.4201 49.852L112.8492 119.4536" fill="none" stroke="#aaa" stroke-opacity="0.5" stroke-width="0.5"></path><path d="M138.8604 194.4419L297.7608 167.4134" fill="none" stroke="#aaa" stroke-opacity="0.5" stroke-width="0.5"></path><path d="M146.0826 109.3578L153.7188 164.2694" fill="none" stroke="#aaa" stroke-opacity="0.5" stroke-width="0.5"></path><path d="M153.7188 164.2694L179.4743 129.4745" fill="none" stroke="#aaa" stroke-opacity="0.5" stroke-width="0.5"></path><path d="M146.4201 49.852L176.3027 73.0505" fill="none" stroke="#aaa" stroke-opacity="0.5" stroke-width="0.5"></path><path d="M309.1477 132.3939L285.2723 59.4212" fill="none" stroke="#aaa" stroke-opacity="0.5" stroke-width="0.5"></path><path d="M257.5745 79.9171L303.6265 92.4399" fill="none" stroke="#aaa" stroke-opacity="0.5" stroke-width="0.5"></path><path d="M153.7188 164.2694L215.7398 68.603" fill="none" stroke="#aaa" stroke-opacity="0.5" stroke-width="0.5"></path><path d="M222.9863 116.4664L303.6265 92.4399" fill="none" stroke="#aaa" stroke-opacity="0.5" stroke-width="0.5"></path><path d="M200.2039 171.2785L146.0826 109.3578" fill="none" stroke="#aaa" stroke-opacity="0.5" stroke-width="0.5"></path><path d="M180.4838 30.5396L146.0826 109.3578" fill="none" stroke="#aaa" stroke-opacity="0.5" stroke-width="0.5"></path><path d="M146.0826 109.3578L179.4743 129.4745" fill="none" stroke="#aaa" stroke-opacity="0.5" stroke-width="0.5"></path><path d="M244.4773 221.2357L118.494 157.2206" fill="none" stroke="#aaa" stroke-opacity="0.5" stroke-width="0.5"></path><path d="M179.4743 129.4745L285.2723 59.4212" fill="none" stroke="#aaa" stroke-opacity="0.5" stroke-width="0.5"></path><path d="M257.5745 79.9171L255.8329 155.6013" fill="none" stroke="#aaa" stroke-opacity="0.5" stroke-width="0.5"></path><path d="M200.2039 171.2785L202.6234 223.1874" fill="none" stroke="#aaa" stroke-opacity="0.5" stroke-width="0.5"></path><path d="M146.0826 109.3578L215.7398 68.603" fill="none" stroke="#aaa" stroke-opacity="0.5" stroke-width="0.5"></path><path d="M274.7916 120.0458L123.6953 78.8806" fill="none" stroke="#aaa" stroke-opacity="0.5" stroke-width="0.5"></path><path d="M215.7398 68.603L303.6265 92.4399" fill="none" stroke="#aaa" stroke-opacity="0.5" stroke-width="0.5"></path><path d="M200.2039 171.2785L217.9459 26.3217" fill="none" stroke="#aaa" stroke-opacity="0.5" stroke-width="0.5"></path><path d="M274.7916 120.0458L257.5745 79.9171" fill="none" stroke="#aaa" stroke-opacity="0.5" stroke-width="0.5"></path><path d="M257.5745 79.9171L297.7608 167.4134" fill="none" stroke="#aaa" stroke-opacity="0.5" stroke-width="0.5"></path><path d="M244.4773 221.2357L146.4201 49.852" fill="none" stroke="#aaa" stroke-opacity="0.5" stroke-width="0.5"></path><path d="M123.6953 78.8806L118.494 157.2206" fill="none" stroke="#aaa" stroke-opacity="0.5" stroke-width="0.5"></path><path d="M297.7608 167.4134L202.6234 223.1874" fill="none" stroke="#aaa" stroke-opacity="0.5" stroke-width="0.5"></path><path d="M217.9459 26.3217L255.8329 155.6013" fill="none" stroke="#aaa" stroke-opacity="0.5" stroke-width="0.5"></path><path d="M222.9863 116.4664L297.7608 167.4134" fill="none" stroke="#aaa" stroke-opacity="0.5" stroke-width="0.5"></path><path d="M138.8604 194.4419L146.0826 109.3578" fill="none" stroke="#aaa" stroke-opacity="0.5" stroke-width="0.5"></path><path d="M309.1477 132.3939L202.6234 223.1874" fill="none" stroke="#aaa" stroke-opacity="0.5" stroke-width="0.5"></path><path d="M180.4838 30.5396L112.8492 119.4536" fill="none" stroke="#aaa" stroke-opacity="0.5" stroke-width="0.5"></path><path d="M252.9749 37.3572L278.8494 196.4612" fill="none" stroke="#aaa" stroke-opacity="0.5" stroke-width="0.5"></path><path d="M112.8492 119.4536L215.7398 68.603" fill="none" stroke="#aaa" stroke-opacity="0.5" stroke-width="0.5"></path><path d="M180.4838 30.5396L176.3027 73.0505" fill="none" stroke="#aaa" stroke-opacity="0.5" stroke-width="0.5"></path><path d="M309.1477 132.3939L217.9459 26.3217" fill="none" stroke="#aaa" stroke-opacity="0.5" stroke-width="0.5"></path><path d="M176.3027 73.0505L233.0619 190.6609" fill="none" stroke="#aaa" stroke-opacity="0.5" stroke-width="0.5"></path><path d="M171.1481 209.6548L118.494 157.2206" fill="none" stroke="#aaa" stroke-opacity="0.5" stroke-width="0.5"></path><path d="M257.5745 79.9171L285.2723 59.4212" fill="none" stroke="#aaa" stroke-opacity="0.5" stroke-width="0.5"></path><path d="M257.5745 79.9171L309.1477 132.3939" fill="none" stroke="#aaa" stroke-opacity="0.5" stroke-width="0.5"></path><path d="M171.1481 209.6548L153.7188 164.2694" fill="none" stroke="#aaa" stroke-opacity="0.5" stroke-width="0.5"></path><path d="M222.9863 116.4664L309.1477 132.3939" fill="none" stroke="#aaa" stroke-opacity="0.5" stroke-width="0.5"></path><path d="M146.4201 49.852L123.6953 78.8806" fill="none" stroke="#aaa" stroke-opacity="0.5" stroke-width="0.5"></path><path d="M179.4743 129.4745L217.9459 26.3217" fill="none" stroke="#aaa" stroke-opacity="0.5" stroke-width="0.5"></path><path d="M146.4201 49.852L257.5745 79.9171" fill="none" stroke="#aaa" stroke-opacity="0.5" stroke-width="0.5"></path><path d="M118.494 157.2206L285.2723 59.4212" fill="none" stroke="#aaa" stroke-opacity="0.5" stroke-width="0.5"></path><path d="M244.4773 221.2357L233.0619 190.6609" fill="none" stroke="#aaa" stroke-opacity="0.5" stroke-width="0.5"></path><path d="M138.8604 194.4419L112.8492 119.4536" fill="none" stroke="#aaa" stroke-opacity="0.5" stroke-width="0.5"></path><path d="M112.8492 119.4536L252.9749 37.3572" fill="none" stroke="#aaa" stroke-opacity="0.5" stroke-width="0.5"></path><path d="M217.9459 26.3217L285.2723 59.4212" fill="none" stroke="#aaa" stroke-opacity="0.5" stroke-width="0.5"></path><path d="M138.8604 194.4419L176.3027 73.0505" fill="none" stroke="#aaa" stroke-opacity="0.5" stroke-width="0.5"></path><path d="M153.7188 164.2694L303.6265 92.4399" fill="none" stroke="#aaa" stroke-opacity="0.5" stroke-width="0.5"></path><path d="M257.5745 79.9171L146.0826 109.3578" fill="none" stroke="#aaa" stroke-opacity="0.5" stroke-width="0.5"></path><path d="M171.1481 209.6548L179.4743 129.4745" fill="none" stroke="#aaa" stroke-opacity="0.5" stroke-width="0.5"></path><path d="M222.9863 116.4664L146.0826 109.3578" fill="none" stroke="#aaa" stroke-opacity="0.5" stroke-width="0.5"></path><path d="M123.6953 78.8806L233.0619 190.6609" fill="none" stroke="#aaa" stroke-opacity="0.5" stroke-width="0.5"></path><path d="M153.7188 164.2694L255.8329 155.6013" fill="none" stroke="#aaa" stroke-opacity="0.5" stroke-width="0.5"></path><path d="M171.1481 209.6548L215.7398 68.603" fill="none" stroke="#aaa" stroke-opacity="0.5" stroke-width="0.5"></path><path d="M146.0826 109.3578L303.6265 92.4399" fill="none" stroke="#aaa" stroke-opacity="0.5" stroke-width="0.5"></path><path d="M274.7916 120.0458L118.494 157.2206" fill="none" stroke="#aaa" stroke-opacity="0.5" stroke-width="0.5"></path><path d="M252.9749 37.3572L202.6234 223.1874" fill="none" stroke="#aaa" stroke-opacity="0.5" stroke-width="0.5"></path><path d="M176.3027 73.0505L278.8494 196.4612" fill="none" stroke="#aaa" stroke-opacity="0.5" stroke-width="0.5"></path><path d="M257.5745 79.9171L217.9459 26.3217" fill="none" stroke="#aaa" stroke-opacity="0.5" stroke-width="0.5"></path><path d="M274.7916 120.0458L153.7188 164.2694" fill="none" stroke="#aaa" stroke-opacity="0.5" stroke-width="0.5"></path><path d="M153.7188 164.2694L297.7608 167.4134" fill="none" stroke="#aaa" stroke-opacity="0.5" stroke-width="0.5"></path><path d="M222.9863 116.4664L217.9459 26.3217" fill="none" stroke="#aaa" stroke-opacity="0.5" stroke-width="0.5"></path><path d="M146.0826 109.3578L255.8329 155.6013" fill="none" stroke="#aaa" stroke-opacity="0.5" stroke-width="0.5"></path><path d="M217.9459 26.3217L202.6234 223.1874" fill="none" stroke="#aaa" stroke-opacity="0.5" stroke-width="0.5"></path><path d="M222.9863 116.4664L112.8492 119.4536" fill="none" stroke="#aaa" stroke-opacity="0.5" stroke-width="0.5"></path><path d="M244.4773 221.2357L278.8494 196.4612" fill="none" stroke="#aaa" stroke-opacity="0.5" stroke-width="0.5"></path><path d="M222.9863 116.4664L176.3027 73.0505" fill="none" stroke="#aaa" stroke-opacity="0.5" stroke-width="0.5"></path><path d="M274.7916 120.0458L179.4743 129.4745" fill="none" stroke="#aaa" stroke-opacity="0.5" stroke-width="0.5"></path><path d="M146.0826 109.3578L297.7608 167.4134" fill="none" stroke="#aaa" stroke-opacity="0.5" stroke-width="0.5"></path><path d="M215.7398 68.603L217.9459 26.3217" fill="none" stroke="#aaa" stroke-opacity="0.5" stroke-width="0.5"></path><path d="M153.7188 164.2694L285.2723 59.4212" fill="none" stroke="#aaa" stroke-opacity="0.5" stroke-width="0.5"></path><path d="M112.8492 119.4536L255.8329 155.6013" fill="none" stroke="#aaa" stroke-opacity="0.5" stroke-width="0.5"></path><path d="M274.7916 120.0458L215.7398 68.603" fill="none" stroke="#aaa" stroke-opacity="0.5" stroke-width="0.5"></path><path d="M123.6953 78.8806L278.8494 196.4612" fill="none" stroke="#aaa" stroke-opacity="0.5" stroke-width="0.5"></path><path d="M112.8492 119.4536L278.8494 196.4612" fill="none" stroke="#aaa" stroke-opacity="0.5" stroke-width="0.5"></path><path d="M146.0826 109.3578L285.2723 59.4212" fill="none" stroke="#aaa" stroke-opacity="0.5" stroke-width="0.5"></path><path d="M146.0826 109.3578L309.1477 132.3939" fill="none" stroke="#aaa" stroke-opacity="0.5" stroke-width="0.5"></path><path d="M176.3027 73.0505L202.6234 223.1874" fill="none" stroke="#aaa" stroke-opacity="0.5" stroke-width="0.5"></path><path d="M146.4201 49.852L179.4743 129.4745" fill="none" stroke="#aaa" stroke-opacity="0.5" stroke-width="0.5"></path><path d="M252.9749 37.3572L176.3027 73.0505" fill="none" stroke="#aaa" stroke-opacity="0.5" stroke-width="0.5"></path><path d="M171.1481 209.6548L303.6265 92.4399" fill="none" stroke="#aaa" stroke-opacity="0.5" stroke-width="0.5"></path><path d="M274.7916 120.0458L252.9749 37.3572" fill="none" stroke="#aaa" stroke-opacity="0.5" stroke-width="0.5"></path><path d="M112.8492 119.4536L285.2723 59.4212" fill="none" stroke="#aaa" stroke-opacity="0.5" stroke-width="0.5"></path><path d="M112.8492 119.4536L309.1477 132.3939" fill="none" stroke="#aaa" stroke-opacity="0.5" stroke-width="0.5"></path><path d="M146.4201 49.852L215.7398 68.603" fill="none" stroke="#aaa" stroke-opacity="0.5" stroke-width="0.5"></path><path d="M153.7188 164.2694L217.9459 26.3217" fill="none" stroke="#aaa" stroke-opacity="0.5" stroke-width="0.5"></path><path d="M171.1481 209.6548L255.8329 155.6013" fill="none" stroke="#aaa" stroke-opacity="0.5" stroke-width="0.5"></path><path d="M274.7916 120.0458L171.1481 209.6548" fill="none" stroke="#aaa" stroke-opacity="0.5" stroke-width="0.5"></path><path d="M303.6265 92.4399L255.8329 155.6013" fill="none" stroke="#aaa" stroke-opacity="0.5" stroke-width="0.5"></path><path d="M171.1481 209.6548L297.7608 167.4134" fill="none" stroke="#aaa" stroke-opacity="0.5" stroke-width="0.5"></path><path d="M146.0826 109.3578L217.9459 26.3217" fill="none" stroke="#aaa" stroke-opacity="0.5" stroke-width="0.5"></path><path d="M146.4201 49.852L252.9749 37.3572" fill="none" stroke="#aaa" stroke-opacity="0.5" stroke-width="0.5"></path><path d="M112.8492 119.4536L202.6234 223.1874" fill="none" stroke="#aaa" stroke-opacity="0.5" stroke-width="0.5"></path><path d="M297.7608 167.4134L118.494 157.2206" fill="none" stroke="#aaa" stroke-opacity="0.5" stroke-width="0.5"></path><path d="M274.7916 120.0458L303.6265 92.4399" fill="none" stroke="#aaa" stroke-opacity="0.5" stroke-width="0.5"></path><path d="M278.8494 196.4612L233.0619 190.6609" fill="none" stroke="#aaa" stroke-opacity="0.5" stroke-width="0.5"></path><path d="M171.1481 209.6548L285.2723 59.4212" fill="none" stroke="#aaa" stroke-opacity="0.5" stroke-width="0.5"></path><path d="M112.8492 119.4536L217.9459 26.3217" fill="none" stroke="#aaa" stroke-opacity="0.5" stroke-width="0.5"></path><path d="M171.1481 209.6548L309.1477 132.3939" fill="none" stroke="#aaa" stroke-opacity="0.5" stroke-width="0.5"></path><path d="M180.4838 30.5396L215.7398 68.603" fill="none" stroke="#aaa" stroke-opacity="0.5" stroke-width="0.5"></path><path d="M274.7916 120.0458L255.8329 155.6013" fill="none" stroke="#aaa" stroke-opacity="0.5" stroke-width="0.5"></path><path d="M303.6265 92.4399L285.2723 59.4212" fill="none" stroke="#aaa" stroke-opacity="0.5" stroke-width="0.5"></path><path d="M297.7608 167.4134L179.4743 129.4745" fill="none" stroke="#aaa" stroke-opacity="0.5" stroke-width="0.5"></path><path d="M244.4773 221.2357L112.8492 119.4536" fill="none" stroke="#aaa" stroke-opacity="0.5" stroke-width="0.5"></path><path d="M309.1477 132.3939L118.494 157.2206" fill="none" stroke="#aaa" stroke-opacity="0.5" stroke-width="0.5"></path><path d="M274.7916 120.0458L297.7608 167.4134" fill="none" stroke="#aaa" stroke-opacity="0.5" stroke-width="0.5"></path><path d="M180.4838 30.5396L146.4201 49.852" fill="none" stroke="#aaa" stroke-opacity="0.5" stroke-width="0.5"></path><path d="M171.1481 209.6548L146.0826 109.3578" fill="none" stroke="#aaa" stroke-opacity="0.5" stroke-width="0.5"></path><path d="M244.4773 221.2357L176.3027 73.0505" fill="none" stroke="#aaa" stroke-opacity="0.5" stroke-width="0.5"></path><path d="M146.4201 49.852L303.6265 92.4399" fill="none" stroke="#aaa" stroke-opacity="0.5" stroke-width="0.5"></path><path d="M309.1477 132.3939L153.7188 164.2694" fill="none" stroke="#aaa" stroke-opacity="0.5" stroke-width="0.5"></path><path d="M297.7608 167.4134L215.7398 68.603" fill="none" stroke="#aaa" stroke-opacity="0.5" stroke-width="0.5"></path><path d="M180.4838 30.5396L252.9749 37.3572" fill="none" stroke="#aaa" stroke-opacity="0.5" stroke-width="0.5"></path><path d="M138.8604 194.4419L215.7398 68.603" fill="none" stroke="#aaa" stroke-opacity="0.5" stroke-width="0.5"></path><path d="M297.7608 167.4134L233.0619 190.6609" fill="none" stroke="#aaa" stroke-opacity="0.5" stroke-width="0.5"></path><path d="M146.4201 49.852L255.8329 155.6013" fill="none" stroke="#aaa" stroke-opacity="0.5" stroke-width="0.5"></path><path d="M123.6953 78.8806L176.3027 73.0505" fill="none" stroke="#aaa" stroke-opacity="0.5" stroke-width="0.5"></path><path d="M274.7916 120.0458L285.2723 59.4212" fill="none" stroke="#aaa" stroke-opacity="0.5" stroke-width="0.5"></path><path d="M274.7916 120.0458L309.1477 132.3939" fill="none" stroke="#aaa" stroke-opacity="0.5" stroke-width="0.5"></path><path d="M171.1481 209.6548L217.9459 26.3217" fill="none" stroke="#aaa" stroke-opacity="0.5" stroke-width="0.5"></path><path d="M303.6265 92.4399L202.6234 223.1874" fill="none" stroke="#aaa" stroke-opacity="0.5" stroke-width="0.5"></path><path d="M309.1477 132.3939L179.4743 129.4745" fill="none" stroke="#aaa" stroke-opacity="0.5" stroke-width="0.5"></path><path d="M138.8604 194.4419L146.4201 49.852" fill="none" stroke="#aaa" stroke-opacity="0.5" stroke-width="0.5"></path><path d="M200.2039 171.2785L233.0619 190.6609" fill="none" stroke="#aaa" stroke-opacity="0.5" stroke-width="0.5"></path><path d="M303.6265 92.4399L217.9459 26.3217" fill="none" stroke="#aaa" stroke-opacity="0.5" stroke-width="0.5"></path><path d="M171.1481 209.6548L176.3027 73.0505" fill="none" stroke="#aaa" stroke-opacity="0.5" stroke-width="0.5"></path><path d="M138.8604 194.4419L252.9749 37.3572" fill="none" stroke="#aaa" stroke-opacity="0.5" stroke-width="0.5"></path><path d="M274.7916 120.0458L146.0826 109.3578" fill="none" stroke="#aaa" stroke-opacity="0.5" stroke-width="0.5"></path><path d="M309.1477 132.3939L233.0619 190.6609" fill="none" stroke="#aaa" stroke-opacity="0.5" stroke-width="0.5"></path><path d="M146.4201 49.852L285.2723 59.4212" fill="none" stroke="#aaa" stroke-opacity="0.5" stroke-width="0.5"></path><path d="M146.4201 49.852L309.1477 132.3939" fill="none" stroke="#aaa" stroke-opacity="0.5" stroke-width="0.5"></path><path d="M252.9749 37.3572L118.494 157.2206" fill="none" stroke="#aaa" stroke-opacity="0.5" stroke-width="0.5"></path><path d="M179.4743 129.4745L233.0619 190.6609" fill="none" stroke="#aaa" stroke-opacity="0.5" stroke-width="0.5"></path><path d="M244.4773 221.2357L123.6953 78.8806" fill="none" stroke="#aaa" stroke-opacity="0.5" stroke-width="0.5"></path><path d="M252.9749 37.3572L153.7188 164.2694" fill="none" stroke="#aaa" stroke-opacity="0.5" stroke-width="0.5"></path><path d="M274.7916 120.0458L217.9459 26.3217" fill="none" stroke="#aaa" stroke-opacity="0.5" stroke-width="0.5"></path><path d="M180.4838 30.5396L255.8329 155.6013" fill="none" stroke="#aaa" stroke-opacity="0.5" stroke-width="0.5"></path><path d="M255.8329 155.6013L285.2723 59.4212" fill="none" stroke="#aaa" stroke-opacity="0.5" stroke-width="0.5"></path><path d="M244.4773 221.2357L257.5745 79.9171" fill="none" stroke="#aaa" stroke-opacity="0.5" stroke-width="0.5"></path><path d="M217.9459 26.3217L118.494 157.2206" fill="none" stroke="#aaa" stroke-opacity="0.5" stroke-width="0.5"></path><path d="M222.9863 116.4664L146.4201 49.852" fill="none" stroke="#aaa" stroke-opacity="0.5" stroke-width="0.5"></path><path d="M297.7608 167.4134L303.6265 92.4399" fill="none" stroke="#aaa" stroke-opacity="0.5" stroke-width="0.5"></path><path d="M146.4201 49.852L146.0826 109.3578" fill="none" stroke="#aaa" stroke-opacity="0.5" stroke-width="0.5"></path><path d="M138.8604 194.4419L303.6265 92.4399" fill="none" stroke="#aaa" stroke-opacity="0.5" stroke-width="0.5"></path><path d="M274.7916 120.0458L244.4773 221.2357" fill="none" stroke="#aaa" stroke-opacity="0.5" stroke-width="0.5"></path><path d="M200.2039 171.2785L278.8494 196.4612" fill="none" stroke="#aaa" stroke-opacity="0.5" stroke-width="0.5"></path><path d="M222.9863 116.4664L252.9749 37.3572" fill="none" stroke="#aaa" stroke-opacity="0.5" stroke-width="0.5"></path><path d="M278.8494 196.4612L202.6234 223.1874" fill="none" stroke="#aaa" stroke-opacity="0.5" stroke-width="0.5"></path><path d="M180.4838 30.5396L278.8494 196.4612" fill="none" stroke="#aaa" stroke-opacity="0.5" stroke-width="0.5"></path><path d="M252.9749 37.3572L179.4743 129.4745" fill="none" stroke="#aaa" stroke-opacity="0.5" stroke-width="0.5"></path><path d="M123.6953 78.8806L257.5745 79.9171" fill="none" stroke="#aaa" stroke-opacity="0.5" stroke-width="0.5"></path><path d="M112.8492 119.4536L123.6953 78.8806" fill="none" stroke="#aaa" stroke-opacity="0.5" stroke-width="0.5"></path><path d="M146.4201 49.852L202.6234 223.1874" fill="none" stroke="#aaa" stroke-opacity="0.5" stroke-width="0.5"></path><path d="M138.8604 194.4419L255.8329 155.6013" fill="none" stroke="#aaa" stroke-opacity="0.5" stroke-width="0.5"></path><path d="M112.8492 119.4536L257.5745 79.9171" fill="none" stroke="#aaa" stroke-opacity="0.5" stroke-width="0.5"></path><path d="M252.9749 37.3572L215.7398 68.603" fill="none" stroke="#aaa" stroke-opacity="0.5" stroke-width="0.5"></path><path d="M112.8492 119.4536L200.2039 171.2785" fill="none" stroke="#aaa" stroke-opacity="0.5" stroke-width="0.5"></path><path d="M257.5745 79.9171L233.0619 190.6609" fill="none" stroke="#aaa" stroke-opacity="0.5" stroke-width="0.5"></path><path d="M146.4201 49.852L217.9459 26.3217" fill="none" stroke="#aaa" stroke-opacity="0.5" stroke-width="0.5"></path><path d="M180.4838 30.5396L285.2723 59.4212" fill="none" stroke="#aaa" stroke-opacity="0.5" stroke-width="0.5"></path><path d="M309.1477 132.3939L303.6265 92.4399" fill="none" stroke="#aaa" stroke-opacity="0.5" stroke-width="0.5"></path><path d="M138.8604 194.4419L278.8494 196.4612" fill="none" stroke="#aaa" stroke-opacity="0.5" stroke-width="0.5"></path><path d="M176.3027 73.0505L118.494 157.2206" fill="none" stroke="#aaa" stroke-opacity="0.5" stroke-width="0.5"></path><path d="M176.3027 73.0505L153.7188 164.2694" fill="none" stroke="#aaa" stroke-opacity="0.5" stroke-width="0.5"></path><path d="M138.8604 194.4419L285.2723 59.4212" fill="none" stroke="#aaa" stroke-opacity="0.5" stroke-width="0.5"></path><path d="M138.8604 194.4419L309.1477 132.3939" fill="none" stroke="#aaa" stroke-opacity="0.5" stroke-width="0.5"></path><path d="M274.7916 120.0458L222.9863 116.4664" fill="none" stroke="#aaa" stroke-opacity="0.5" stroke-width="0.5"></path><path d="M309.1477 132.3939L297.7608 167.4134" fill="none" stroke="#aaa" stroke-opacity="0.5" stroke-width="0.5"></path><path d="M222.9863 116.4664L255.8329 155.6013" fill="none" stroke="#aaa" stroke-opacity="0.5" stroke-width="0.5"></path><path d="M180.4838 30.5396L202.6234 223.1874" fill="none" stroke="#aaa" stroke-opacity="0.5" stroke-width="0.5"></path><path d="M244.4773 221.2357L153.7188 164.2694" fill="none" stroke="#aaa" stroke-opacity="0.5" stroke-width="0.5"></path><path d="M176.3027 73.0505L179.4743 129.4745" fill="none" stroke="#aaa" stroke-opacity="0.5" stroke-width="0.5"></path><path d="M180.4838 30.5396L217.9459 26.3217" fill="none" stroke="#aaa" stroke-opacity="0.5" stroke-width="0.5"></path><path d="M257.5745 79.9171L278.8494 196.4612" fill="none" stroke="#aaa" stroke-opacity="0.5" stroke-width="0.5"></path><path d="M176.3027 73.0505L215.7398 68.603" fill="none" stroke="#aaa" stroke-opacity="0.5" stroke-width="0.5"></path><path d="M222.9863 116.4664L278.8494 196.4612" fill="none" stroke="#aaa" stroke-opacity="0.5" stroke-width="0.5"></path><path d="M233.0619 190.6609L303.6265 92.4399" fill="none" stroke="#aaa" stroke-opacity="0.5" stroke-width="0.5"></path><path d="M123.6953 78.8806L153.7188 164.2694" fill="none" stroke="#aaa" stroke-opacity="0.5" stroke-width="0.5"></path><path d="M215.7398 68.603L255.8329 155.6013" fill="none" stroke="#aaa" stroke-opacity="0.5" stroke-width="0.5"></path><path d="M112.8492 119.4536L118.494 157.2206" fill="none" stroke="#aaa" stroke-opacity="0.5" stroke-width="0.5"></path><path d="M244.4773 221.2357L179.4743 129.4745" fill="none" stroke="#aaa" stroke-opacity="0.5" stroke-width="0.5"></path><path d="M180.4838 30.5396L244.4773 221.2357" fill="none" stroke="#aaa" stroke-opacity="0.5" stroke-width="0.5"></path><path d="M252.9749 37.3572L303.6265 92.4399" fill="none" stroke="#aaa" stroke-opacity="0.5" stroke-width="0.5"></path><path d="M112.8492 119.4536L153.7188 164.2694" fill="none" stroke="#aaa" stroke-opacity="0.5" stroke-width="0.5"></path><path d="M138.8604 194.4419L202.6234 223.1874" fill="none" stroke="#aaa" stroke-opacity="0.5" stroke-width="0.5"></path><path d="M153.7188 164.2694L233.0619 190.6609" fill="none" stroke="#aaa" stroke-opacity="0.5" stroke-width="0.5"></path><path d="M233.0619 190.6609L255.8329 155.6013" fill="none" stroke="#aaa" stroke-opacity="0.5" stroke-width="0.5"></path><path d="M244.4773 221.2357L215.7398 68.603" fill="none" stroke="#aaa" stroke-opacity="0.5" stroke-width="0.5"></path><path d="M297.7608 167.4134L217.9459 26.3217" fill="none" stroke="#aaa" stroke-opacity="0.5" stroke-width="0.5"></path><path d="M179.4743 129.4745L202.6234 223.1874" fill="none" stroke="#aaa" stroke-opacity="0.5" stroke-width="0.5"></path><path d="M222.9863 116.4664L285.2723 59.4212" fill="none" stroke="#aaa" stroke-opacity="0.5" stroke-width="0.5"></path><path d="M138.8604 194.4419L217.9459 26.3217" fill="none" stroke="#aaa" stroke-opacity="0.5" stroke-width="0.5"></path><path d="M123.6953 78.8806L179.4743 129.4745" fill="none" stroke="#aaa" stroke-opacity="0.5" stroke-width="0.5"></path><path d="M252.9749 37.3572L255.8329 155.6013" fill="none" stroke="#aaa" stroke-opacity="0.5" stroke-width="0.5"></path><path d="M112.8492 119.4536L179.4743 129.4745" fill="none" stroke="#aaa" stroke-opacity="0.5" stroke-width="0.5"></path><path d="M123.6953 78.8806L215.7398 68.603" fill="none" stroke="#aaa" stroke-opacity="0.5" stroke-width="0.5"></path><path d="M274.7916 120.0458L200.2039 171.2785" fill="none" stroke="#aaa" stroke-opacity="0.5" stroke-width="0.5"></path><path d="M138.8604 194.4419L244.4773 221.2357" fill="none" stroke="#aaa" stroke-opacity="0.5" stroke-width="0.5"></path><path d="M146.0826 109.3578L233.0619 190.6609" fill="none" stroke="#aaa" stroke-opacity="0.5" stroke-width="0.5"></path><path d="M215.7398 68.603L285.2723 59.4212" fill="none" stroke="#aaa" stroke-opacity="0.5" stroke-width="0.5"></path><path d="M252.9749 37.3572L297.7608 167.4134" fill="none" stroke="#aaa" stroke-opacity="0.5" stroke-width="0.5"></path><path d="M274.7916 120.0458L180.4838 30.5396" fill="none" stroke="#aaa" stroke-opacity="0.5" stroke-width="0.5"></path><path d="M244.4773 221.2357L252.9749 37.3572" fill="none" stroke="#aaa" stroke-opacity="0.5" stroke-width="0.5"></path><path d="M200.2039 171.2785L176.3027 73.0505" fill="none" stroke="#aaa" stroke-opacity="0.5" stroke-width="0.5"></path><path d="M233.0619 190.6609L285.2723 59.4212" fill="none" stroke="#aaa" stroke-opacity="0.5" stroke-width="0.5"></path><path d="M257.5745 79.9171L202.6234 223.1874" fill="none" stroke="#aaa" stroke-opacity="0.5" stroke-width="0.5"></path><path d="M112.8492 119.4536L233.0619 190.6609" fill="none" stroke="#aaa" stroke-opacity="0.5" stroke-width="0.5"></path><path d="M222.9863 116.4664L202.6234 223.1874" fill="none" stroke="#aaa" stroke-opacity="0.5" stroke-width="0.5"></path><path d="M244.4773 221.2357L171.1481 209.6548" fill="none" stroke="#aaa" stroke-opacity="0.5" stroke-width="0.5"></path><path d="M252.9749 37.3572L285.2723 59.4212" fill="none" stroke="#aaa" stroke-opacity="0.5" stroke-width="0.5"></path><path d="M123.6953 78.8806L252.9749 37.3572" fill="none" stroke="#aaa" stroke-opacity="0.5" stroke-width="0.5"></path><path d="M202.6234 223.1874L255.8329 155.6013" fill="none" stroke="#aaa" stroke-opacity="0.5" stroke-width="0.5"></path><path d="M180.4838 30.5396L222.9863 116.4664" fill="none" stroke="#aaa" stroke-opacity="0.5" stroke-width="0.5"></path><path d="M252.9749 37.3572L309.1477 132.3939" fill="none" stroke="#aaa" stroke-opacity="0.5" stroke-width="0.5"></path><path d="M303.6265 92.4399L118.494 157.2206" fill="none" stroke="#aaa" stroke-opacity="0.5" stroke-width="0.5"></path><path d="M176.3027 73.0505L303.6265 92.4399" fill="none" stroke="#aaa" stroke-opacity="0.5" stroke-width="0.5"></path><path d="M146.4201 49.852L200.2039 171.2785" fill="none" stroke="#aaa" stroke-opacity="0.5" stroke-width="0.5"></path><path d="M171.1481 209.6548L252.9749 37.3572" fill="none" stroke="#aaa" stroke-opacity="0.5" stroke-width="0.5"></path><path d="M215.7398 68.603L202.6234 223.1874" fill="none" stroke="#aaa" stroke-opacity="0.5" stroke-width="0.5"></path><path d="M176.3027 73.0505L255.8329 155.6013" fill="none" stroke="#aaa" stroke-opacity="0.5" stroke-width="0.5"></path><path d="M252.9749 37.3572L146.0826 109.3578" fill="none" stroke="#aaa" stroke-opacity="0.5" stroke-width="0.5"></path><path d="M112.8492 119.4536L171.1481 209.6548" fill="none" stroke="#aaa" stroke-opacity="0.5" stroke-width="0.5"></path><path d="M244.4773 221.2357L303.6265 92.4399" fill="none" stroke="#aaa" stroke-opacity="0.5" stroke-width="0.5"></path><path d="M138.8604 194.4419L222.9863 116.4664" fill="none" stroke="#aaa" stroke-opacity="0.5" stroke-width="0.5"></path><path d="M233.0619 190.6609L202.6234 223.1874" fill="none" stroke="#aaa" stroke-opacity="0.5" stroke-width="0.5"></path><path d="M202.6234 223.1874L285.2723 59.4212" fill="none" stroke="#aaa" stroke-opacity="0.5" stroke-width="0.5"></path><path d="M176.3027 73.0505L297.7608 167.4134" fill="none" stroke="#aaa" stroke-opacity="0.5" stroke-width="0.5"></path><path d="M233.0619 190.6609L217.9459 26.3217" fill="none" stroke="#aaa" stroke-opacity="0.5" stroke-width="0.5"></path><path d="M171.1481 209.6548L233.0619 190.6609" fill="none" stroke="#aaa" stroke-opacity="0.5" stroke-width="0.5"></path><path d="M244.4773 221.2357L255.8329 155.6013" fill="none" stroke="#aaa" stroke-opacity="0.5" stroke-width="0.5"></path><path d="M123.6953 78.8806L303.6265 92.4399" fill="none" stroke="#aaa" stroke-opacity="0.5" stroke-width="0.5"></path><path d="M252.9749 37.3572L217.9459 26.3217" fill="none" stroke="#aaa" stroke-opacity="0.5" stroke-width="0.5"></path><path d="M180.4838 30.5396L123.6953 78.8806" fill="none" stroke="#aaa" stroke-opacity="0.5" stroke-width="0.5"></path><path d="M200.2039 171.2785L257.5745 79.9171" fill="none" stroke="#aaa" stroke-opacity="0.5" stroke-width="0.5"></path><path d="M112.8492 119.4536L303.6265 92.4399" fill="none" stroke="#aaa" stroke-opacity="0.5" stroke-width="0.5"></path><path d="M274.7916 120.0458L146.4201 49.852" fill="none" stroke="#aaa" stroke-opacity="0.5" stroke-width="0.5"></path><path d="M257.5745 79.9171L176.3027 73.0505" fill="none" stroke="#aaa" stroke-opacity="0.5" stroke-width="0.5"></path><path d="M180.4838 30.5396L257.5745 79.9171" fill="none" stroke="#aaa" stroke-opacity="0.5" stroke-width="0.5"></path><path d="M244.4773 221.2357L297.7608 167.4134" fill="none" stroke="#aaa" stroke-opacity="0.5" stroke-width="0.5"></path><path d="M180.4838 30.5396L200.2039 171.2785" fill="none" stroke="#aaa" stroke-opacity="0.5" stroke-width="0.5"></path><path d="M123.6953 78.8806L255.8329 155.6013" fill="none" stroke="#aaa" stroke-opacity="0.5" stroke-width="0.5"></path><path d="M176.3027 73.0505L285.2723 59.4212" fill="none" stroke="#aaa" stroke-opacity="0.5" stroke-width="0.5"></path><path d="M278.8494 196.4612L118.494 157.2206" fill="none" stroke="#aaa" stroke-opacity="0.5" stroke-width="0.5"></path><path d="M176.3027 73.0505L309.1477 132.3939" fill="none" stroke="#aaa" stroke-opacity="0.5" stroke-width="0.5"></path><path d="M153.7188 164.2694L202.6234 223.1874" fill="none" stroke="#aaa" stroke-opacity="0.5" stroke-width="0.5"></path><path d="M278.8494 196.4612L153.7188 164.2694" fill="none" stroke="#aaa" stroke-opacity="0.5" stroke-width="0.5"></path><path d="M146.4201 49.852L118.494 157.2206" fill="none" stroke="#aaa" stroke-opacity="0.5" stroke-width="0.5"></path><path d="M123.6953 78.8806L297.7608 167.4134" fill="none" stroke="#aaa" stroke-opacity="0.5" stroke-width="0.5"></path><path d="M244.4773 221.2357L285.2723 59.4212" fill="none" stroke="#aaa" stroke-opacity="0.5" stroke-width="0.5"></path><path d="M146.4201 49.852L153.7188 164.2694" fill="none" stroke="#aaa" stroke-opacity="0.5" stroke-width="0.5"></path><path d="M138.8604 194.4419L123.6953 78.8806" fill="none" stroke="#aaa" stroke-opacity="0.5" stroke-width="0.5"></path><path d="M244.4773 221.2357L309.1477 132.3939" fill="none" stroke="#aaa" stroke-opacity="0.5" stroke-width="0.5"></path><path d="M138.8604 194.4419L257.5745 79.9171" fill="none" stroke="#aaa" stroke-opacity="0.5" stroke-width="0.5"></path><path d="M112.8492 119.4536L297.7608 167.4134" fill="none" stroke="#aaa" stroke-opacity="0.5" stroke-width="0.5"></path><path d="M176.3027 73.0505L146.0826 109.3578" fill="none" stroke="#aaa" stroke-opacity="0.5" stroke-width="0.5"></path><path d="M255.8329 155.6013L118.494 157.2206" fill="none" stroke="#aaa" stroke-opacity="0.5" stroke-width="0.5"></path><path d="M146.0826 109.3578L202.6234 223.1874" fill="none" stroke="#aaa" stroke-opacity="0.5" stroke-width="0.5"></path><path d="M274.7916 120.0458L233.0619 190.6609" fill="none" stroke="#aaa" stroke-opacity="0.5" stroke-width="0.5"></path><path d="M138.8604 194.4419L200.2039 171.2785" fill="none" stroke="#aaa" stroke-opacity="0.5" stroke-width="0.5"></path><path d="M278.8494 196.4612L179.4743 129.4745" fill="none" stroke="#aaa" stroke-opacity="0.5" stroke-width="0.5"></path><path d="M138.8604 194.4419L180.4838 30.5396" fill="none" stroke="#aaa" stroke-opacity="0.5" stroke-width="0.5"></path><path d="M171.1481 209.6548L278.8494 196.4612" fill="none" stroke="#aaa" stroke-opacity="0.5" stroke-width="0.5"></path><path d="M123.6953 78.8806L285.2723 59.4212" fill="none" stroke="#aaa" stroke-opacity="0.5" stroke-width="0.5"></path><path d="M123.6953 78.8806L309.1477 132.3939" fill="none" stroke="#aaa" stroke-opacity="0.5" stroke-width="0.5"></path><path d="M278.8494 196.4612L215.7398 68.603" fill="none" stroke="#aaa" stroke-opacity="0.5" stroke-width="0.5"></path><path d="M244.4773 221.2357L146.0826 109.3578" fill="none" stroke="#aaa" stroke-opacity="0.5" stroke-width="0.5"></path><path d="M176.3027 73.0505L217.9459 26.3217" fill="none" stroke="#aaa" stroke-opacity="0.5" stroke-width="0.5"></path><path d="M1 0A1 1 0 1 1 1 -0.0001" fill="#5470c6" transform="matrix(17.5,0,0,17.5,309.1477,132.3939)"></path><path d="M1 0A1 1 0 1 1 1 -0.0001" fill="#5470c6" transform="matrix(17.5,0,0,17.5,222.9863,116.4664)"></path><path d="M1 0A1 1 0 1 1 1 -0.0001" fill="#5470c6" transform="matrix(17.5,0,0,17.5,297.7608,167.4134)"></path><path d="M1 0A1 1 0 1 1 1 -0.0001" fill="#5470c6" transform="matrix(17.5,0,0,17.5,278.8494,196.4612)"></path><path d="M1 0A1 1 0 1 1 1 -0.0001" fill="#5470c6" transform="matrix(17.5,0,0,17.5,255.8329,155.6013)"></path><path d="M1 0A1 1 0 1 1 1 -0.0001" fill="#5470c6" transform="matrix(17.5,0,0,17.5,244.4773,221.2357)"></path><path d="M1 0A1 1 0 1 1 1 -0.0001" fill="#5470c6" transform="matrix(17.5,0,0,17.5,202.6234,223.1874)"></path><path d="M1 0A1 1 0 1 1 1 -0.0001" fill="#5470c6" transform="matrix(17.5,0,0,17.5,171.1481,209.6548)"></path><path d="M1 0A1 1 0 1 1 1 -0.0001" fill="#5470c6" transform="matrix(17.5,0,0,17.5,233.0619,190.6609)"></path><path d="M1 0A1 1 0 1 1 1 -0.0001" fill="#5470c6" transform="matrix(17.5,0,0,17.5,138.8604,194.4419)"></path><path d="M1 0A1 1 0 1 1 1 -0.0001" fill="#5470c6" transform="matrix(17.5,0,0,17.5,200.2039,171.2785)"></path><path d="M1 0A1 1 0 1 1 1 -0.0001" fill="#5470c6" transform="matrix(17.5,0,0,17.5,118.494,157.2206)"></path><path d="M1 0A1 1 0 1 1 1 -0.0001" fill="#5470c6" transform="matrix(17.5,0,0,17.5,112.8492,119.4536)"></path><path d="M1 0A1 1 0 1 1 1 -0.0001" fill="#5470c6" transform="matrix(17.5,0,0,17.5,179.4743,129.4745)"></path><path d="M1 0A1 1 0 1 1 1 -0.0001" fill="#5470c6" transform="matrix(17.5,0,0,17.5,153.7188,164.2694)"></path><path d="M1 0A1 1 0 1 1 1 -0.0001" fill="#5470c6" transform="matrix(17.5,0,0,17.5,123.6953,78.8806)"></path><path d="M1 0A1 1 0 1 1 1 -0.0001" fill="#5470c6" transform="matrix(17.5,0,0,17.5,146.0826,109.3578)"></path><path d="M1 0A1 1 0 1 1 1 -0.0001" fill="#5470c6" transform="matrix(17.5,0,0,17.5,180.4838,30.5396)"></path><path d="M1 0A1 1 0 1 1 1 -0.0001" fill="#5470c6" transform="matrix(17.5,0,0,17.5,146.4201,49.852)"></path><path d="M1 0A1 1 0 1 1 1 -0.0001" fill="#5470c6" transform="matrix(17.5,0,0,17.5,217.9459,26.3217)"></path><path d="M1 0A1 1 0 1 1 1 -0.0001" fill="#5470c6" transform="matrix(17.5,0,0,17.5,176.3027,73.0505)"></path><path d="M1 0A1 1 0 1 1 1 -0.0001" fill="#5470c6" transform="matrix(17.5,0,0,17.5,215.7398,68.603)"></path><path d="M1 0A1 1 0 1 1 1 -0.0001" fill="#5470c6" transform="matrix(17.5,0,0,17.5,257.5745,79.9171)"></path><path d="M1 0A1 1 0 1 1 1 -0.0001" fill="#5470c6" transform="matrix(17.5,0,0,17.5,252.9749,37.3572)"></path><path d="M1 0A1 1 0 1 1 1 -0.0001" fill="#5470c6" transform="matrix(17.5,0,0,17.5,285.2723,59.4212)"></path><path d="M1 0A1 1 0 1 1 1 -0.0001" fill="#5470c6" transform="matrix(17.5,0,0,17.5,274.7916,120.0458)"></path><path d="M1 0A1 1 0 1 1 1 -0.0001" fill="#5470c6" transform="matrix(17.5,0,0,17.5,303.6265,92.4399)"></path><path d="M-25.1792 -5l50.3584 0l0 32l-50.3584 0Z" fill="rgb(0,0,0)" fill-opacity="0" stroke="#ccc" stroke-width="0" transform="translate(237.5 5)"></path><text dominant-baseline="central" fill="#333" style="font-size:22px;font-family:sans-serif;font-weight:bolder;" text-anchor="middle" transform="translate(237.5 5)" y="11">C50</text></g></svg>