<svg baseprofile="full" height="250" style="position:absolute;left:0;top:0;user-select:none" version="1.1" width="475" xmlns="http://www.w3.org/2000/svg" xmlns:xlink="http://www.w3.org/1999/xlink"><rect fill="none" height="250" id="0" width="475" x="0" y="0"></rect><g><path d="M200.2228 27.0782L247.9973 173.2964" fill="none" stroke="#aaa" stroke-opacity="0.5" stroke-width="0.5"></path><path d="M200.2228 27.0782L300.6087 166.0914" fill="none" stroke="#aaa" stroke-opacity="0.5" stroke-width="0.5"></path><path d="M115.8208 146.6261L204.4381 72.057" fill="none" stroke="#aaa" stroke-opacity="0.5" stroke-width="0.5"></path><path d="M130.106 65.3818L247.9973 173.2964" fill="none" stroke="#aaa" stroke-opacity="0.5" stroke-width="0.5"></path><path d="M133.2365 180.8597L275.6719 49.2829" fill="none" stroke="#aaa" stroke-opacity="0.5" stroke-width="0.5"></path><path d="M267.2981 128.4061L197.0023 223.2746" fill="none" stroke="#aaa" stroke-opacity="0.5" stroke-width="0.5"></path><path d="M309.4456 124.9527L247.9973 173.2964" fill="none" stroke="#aaa" stroke-opacity="0.5" stroke-width="0.5"></path><path d="M275.6719 49.2829L252.1576 82.8159" fill="none" stroke="#aaa" stroke-opacity="0.5" stroke-width="0.5"></path><path d="M114.1214 106.8294L159.6935 206.6598" fill="none" stroke="#aaa" stroke-opacity="0.5" stroke-width="0.5"></path><path d="M275.6934 201.2143L247.9973 173.2964" fill="none" stroke="#aaa" stroke-opacity="0.5" stroke-width="0.5"></path><path d="M159.6935 206.6598L252.1576 82.8159" fill="none" stroke="#aaa" stroke-opacity="0.5" stroke-width="0.5"></path><path d="M309.4456 124.9527L239.1735 33.8504" fill="none" stroke="#aaa" stroke-opacity="0.5" stroke-width="0.5"></path><path d="M275.6719 49.2829L204.4381 72.057" fill="none" stroke="#aaa" stroke-opacity="0.5" stroke-width="0.5"></path><path d="M239.1735 33.8504L275.6719 49.2829" fill="none" stroke="#aaa" stroke-opacity="0.5" stroke-width="0.5"></path><path d="M239.1735 33.8504L252.1576 82.8159" fill="none" stroke="#aaa" stroke-opacity="0.5" stroke-width="0.5"></path><path d="M161.3223 139.7461L247.9973 173.2964" fill="none" stroke="#aaa" stroke-opacity="0.5" stroke-width="0.5"></path><path d="M195.2298 178.6285L275.6719 49.2829" fill="none" stroke="#aaa" stroke-opacity="0.5" stroke-width="0.5"></path><path d="M159.6935 206.6598L204.4381 72.057" fill="none" stroke="#aaa" stroke-opacity="0.5" stroke-width="0.5"></path><path d="M195.2298 178.6285L252.1576 82.8159" fill="none" stroke="#aaa" stroke-opacity="0.5" stroke-width="0.5"></path><path d="M164.3473 43.0583L204.4381 72.057" fill="none" stroke="#aaa" stroke-opacity="0.5" stroke-width="0.5"></path><path d="M159.6935 206.6598L213.9381 128.3943" fill="none" stroke="#aaa" stroke-opacity="0.5" stroke-width="0.5"></path><path d="M213.9381 128.3943L161.3223 139.7461" fill="none" stroke="#aaa" stroke-opacity="0.5" stroke-width="0.5"></path><path d="M161.1696 93.7982L161.3223 139.7461" fill="none" stroke="#aaa" stroke-opacity="0.5" stroke-width="0.5"></path><path d="M114.1214 106.8294L247.9973 173.2964" fill="none" stroke="#aaa" stroke-opacity="0.5" stroke-width="0.5"></path><path d="M114.1214 106.8294L300.6087 166.0914" fill="none" stroke="#aaa" stroke-opacity="0.5" stroke-width="0.5"></path><path d="M301.0269 85.1628L130.106 65.3818" fill="none" stroke="#aaa" stroke-opacity="0.5" stroke-width="0.5"></path><path d="M213.9381 128.3943L239.1735 33.8504" fill="none" stroke="#aaa" stroke-opacity="0.5" stroke-width="0.5"></path><path d="M161.1696 93.7982L301.0269 85.1628" fill="none" stroke="#aaa" stroke-opacity="0.5" stroke-width="0.5"></path><path d="M236.1738 217.5352L133.2365 180.8597" fill="none" stroke="#aaa" stroke-opacity="0.5" stroke-width="0.5"></path><path d="M161.1696 93.7982L239.1735 33.8504" fill="none" stroke="#aaa" stroke-opacity="0.5" stroke-width="0.5"></path><path d="M195.2298 178.6285L213.9381 128.3943" fill="none" stroke="#aaa" stroke-opacity="0.5" stroke-width="0.5"></path><path d="M115.8208 146.6261L164.3473 43.0583" fill="none" stroke="#aaa" stroke-opacity="0.5" stroke-width="0.5"></path><path d="M301.0269 85.1628L197.0023 223.2746" fill="none" stroke="#aaa" stroke-opacity="0.5" stroke-width="0.5"></path><path d="M195.2298 178.6285L267.2981 128.4061" fill="none" stroke="#aaa" stroke-opacity="0.5" stroke-width="0.5"></path><path d="M300.6087 166.0914L130.106 65.3818" fill="none" stroke="#aaa" stroke-opacity="0.5" stroke-width="0.5"></path><path d="M309.4456 124.9527L252.1576 82.8159" fill="none" stroke="#aaa" stroke-opacity="0.5" stroke-width="0.5"></path><path d="M267.2981 128.4061L247.9973 173.2964" fill="none" stroke="#aaa" stroke-opacity="0.5" stroke-width="0.5"></path><path d="M275.6934 201.2143L252.1576 82.8159" fill="none" stroke="#aaa" stroke-opacity="0.5" stroke-width="0.5"></path><path d="M267.2981 128.4061L161.3223 139.7461" fill="none" stroke="#aaa" stroke-opacity="0.5" stroke-width="0.5"></path><path d="M200.2228 27.0782L204.4381 72.057" fill="none" stroke="#aaa" stroke-opacity="0.5" stroke-width="0.5"></path><path d="M115.8208 146.6261L133.2365 180.8597" fill="none" stroke="#aaa" stroke-opacity="0.5" stroke-width="0.5"></path><path d="M300.6087 166.0914L197.0023 223.2746" fill="none" stroke="#aaa" stroke-opacity="0.5" stroke-width="0.5"></path><path d="M130.106 65.3818L204.4381 72.057" fill="none" stroke="#aaa" stroke-opacity="0.5" stroke-width="0.5"></path><path d="M267.2981 128.4061L239.1735 33.8504" fill="none" stroke="#aaa" stroke-opacity="0.5" stroke-width="0.5"></path><path d="M115.8208 146.6261L236.1738 217.5352" fill="none" stroke="#aaa" stroke-opacity="0.5" stroke-width="0.5"></path><path d="M309.4456 124.9527L204.4381 72.057" fill="none" stroke="#aaa" stroke-opacity="0.5" stroke-width="0.5"></path><path d="M161.3223 139.7461L252.1576 82.8159" fill="none" stroke="#aaa" stroke-opacity="0.5" stroke-width="0.5"></path><path d="M275.6934 201.2143L204.4381 72.057" fill="none" stroke="#aaa" stroke-opacity="0.5" stroke-width="0.5"></path><path d="M195.2298 178.6285L115.8208 146.6261" fill="none" stroke="#aaa" stroke-opacity="0.5" stroke-width="0.5"></path><path d="M309.4456 124.9527L213.9381 128.3943" fill="none" stroke="#aaa" stroke-opacity="0.5" stroke-width="0.5"></path><path d="M195.2298 178.6285L164.3473 43.0583" fill="none" stroke="#aaa" stroke-opacity="0.5" stroke-width="0.5"></path><path d="M213.9381 128.3943L275.6719 49.2829" fill="none" stroke="#aaa" stroke-opacity="0.5" stroke-width="0.5"></path><path d="M115.8208 146.6261L275.6934 201.2143" fill="none" stroke="#aaa" stroke-opacity="0.5" stroke-width="0.5"></path><path d="M213.9381 128.3943L252.1576 82.8159" fill="none" stroke="#aaa" stroke-opacity="0.5" stroke-width="0.5"></path><path d="M161.1696 93.7982L275.6719 49.2829" fill="none" stroke="#aaa" stroke-opacity="0.5" stroke-width="0.5"></path><path d="M161.1696 93.7982L252.1576 82.8159" fill="none" stroke="#aaa" stroke-opacity="0.5" stroke-width="0.5"></path><path d="M236.1738 217.5352L161.3223 139.7461" fill="none" stroke="#aaa" stroke-opacity="0.5" stroke-width="0.5"></path><path d="M309.4456 124.9527L267.2981 128.4061" fill="none" stroke="#aaa" stroke-opacity="0.5" stroke-width="0.5"></path><path d="M195.2298 178.6285L200.2228 27.0782" fill="none" stroke="#aaa" stroke-opacity="0.5" stroke-width="0.5"></path><path d="M161.3223 139.7461L204.4381 72.057" fill="none" stroke="#aaa" stroke-opacity="0.5" stroke-width="0.5"></path><path d="M159.6935 206.6598L133.2365 180.8597" fill="none" stroke="#aaa" stroke-opacity="0.5" stroke-width="0.5"></path><path d="M159.6935 206.6598L161.1696 93.7982" fill="none" stroke="#aaa" stroke-opacity="0.5" stroke-width="0.5"></path><path d="M133.2365 180.8597L197.0023 223.2746" fill="none" stroke="#aaa" stroke-opacity="0.5" stroke-width="0.5"></path><path d="M195.2298 178.6285L130.106 65.3818" fill="none" stroke="#aaa" stroke-opacity="0.5" stroke-width="0.5"></path><path d="M114.1214 106.8294L204.4381 72.057" fill="none" stroke="#aaa" stroke-opacity="0.5" stroke-width="0.5"></path><path d="M161.1696 93.7982L213.9381 128.3943" fill="none" stroke="#aaa" stroke-opacity="0.5" stroke-width="0.5"></path><path d="M236.1738 217.5352L300.6087 166.0914" fill="none" stroke="#aaa" stroke-opacity="0.5" stroke-width="0.5"></path><path d="M301.0269 85.1628L247.9973 173.2964" fill="none" stroke="#aaa" stroke-opacity="0.5" stroke-width="0.5"></path><path d="M195.2298 178.6285L133.2365 180.8597" fill="none" stroke="#aaa" stroke-opacity="0.5" stroke-width="0.5"></path><path d="M301.0269 85.1628L161.3223 139.7461" fill="none" stroke="#aaa" stroke-opacity="0.5" stroke-width="0.5"></path><path d="M161.1696 93.7982L267.2981 128.4061" fill="none" stroke="#aaa" stroke-opacity="0.5" stroke-width="0.5"></path><path d="M195.2298 178.6285L236.1738 217.5352" fill="none" stroke="#aaa" stroke-opacity="0.5" stroke-width="0.5"></path><path d="M159.6935 206.6598L309.4456 124.9527" fill="none" stroke="#aaa" stroke-opacity="0.5" stroke-width="0.5"></path><path d="M195.2298 178.6285L197.0023 223.2746" fill="none" stroke="#aaa" stroke-opacity="0.5" stroke-width="0.5"></path><path d="M309.4456 124.9527L115.8208 146.6261" fill="none" stroke="#aaa" stroke-opacity="0.5" stroke-width="0.5"></path><path d="M252.1576 82.8159L204.4381 72.057" fill="none" stroke="#aaa" stroke-opacity="0.5" stroke-width="0.5"></path><path d="M301.0269 85.1628L239.1735 33.8504" fill="none" stroke="#aaa" stroke-opacity="0.5" stroke-width="0.5"></path><path d="M267.2981 128.4061L275.6719 49.2829" fill="none" stroke="#aaa" stroke-opacity="0.5" stroke-width="0.5"></path><path d="M309.4456 124.9527L164.3473 43.0583" fill="none" stroke="#aaa" stroke-opacity="0.5" stroke-width="0.5"></path><path d="M267.2981 128.4061L252.1576 82.8159" fill="none" stroke="#aaa" stroke-opacity="0.5" stroke-width="0.5"></path><path d="M195.2298 178.6285L275.6934 201.2143" fill="none" stroke="#aaa" stroke-opacity="0.5" stroke-width="0.5"></path><path d="M309.4456 124.9527L200.2228 27.0782" fill="none" stroke="#aaa" stroke-opacity="0.5" stroke-width="0.5"></path><path d="M300.6087 166.0914L247.9973 173.2964" fill="none" stroke="#aaa" stroke-opacity="0.5" stroke-width="0.5"></path><path d="M115.8208 146.6261L300.6087 166.0914" fill="none" stroke="#aaa" stroke-opacity="0.5" stroke-width="0.5"></path><path d="M213.9381 128.3943L115.8208 146.6261" fill="none" stroke="#aaa" stroke-opacity="0.5" stroke-width="0.5"></path><path d="M267.2981 128.5L213.9381 128.5" fill="none" stroke="#aaa" stroke-opacity="0.5" stroke-width="0.5"></path><path d="M197.0023 223.2746L247.9973 173.2964" fill="none" stroke="#aaa" stroke-opacity="0.5" stroke-width="0.5"></path><path d="M236.1738 217.5352L275.6719 49.2829" fill="none" stroke="#aaa" stroke-opacity="0.5" stroke-width="0.5"></path><path d="M161.1696 93.7982L115.8208 146.6261" fill="none" stroke="#aaa" stroke-opacity="0.5" stroke-width="0.5"></path><path d="M159.6935 206.6598L161.3223 139.7461" fill="none" stroke="#aaa" stroke-opacity="0.5" stroke-width="0.5"></path><path d="M213.9381 128.3943L164.3473 43.0583" fill="none" stroke="#aaa" stroke-opacity="0.5" stroke-width="0.5"></path><path d="M164.3473 43.0583L161.3223 139.7461" fill="none" stroke="#aaa" stroke-opacity="0.5" stroke-width="0.5"></path><path d="M161.1696 93.7982L164.3473 43.0583" fill="none" stroke="#aaa" stroke-opacity="0.5" stroke-width="0.5"></path><path d="M309.4456 124.9527L133.2365 180.8597" fill="none" stroke="#aaa" stroke-opacity="0.5" stroke-width="0.5"></path><path d="M275.6934 201.2143L133.2365 180.8597" fill="none" stroke="#aaa" stroke-opacity="0.5" stroke-width="0.5"></path><path d="M159.6935 206.6598L301.0269 85.1628" fill="none" stroke="#aaa" stroke-opacity="0.5" stroke-width="0.5"></path><path d="M159.6935 206.6598L239.1735 33.8504" fill="none" stroke="#aaa" stroke-opacity="0.5" stroke-width="0.5"></path><path d="M195.2298 178.6285L159.6935 206.6598" fill="none" stroke="#aaa" stroke-opacity="0.5" stroke-width="0.5"></path><path d="M161.1696 93.7982L200.2228 27.0782" fill="none" stroke="#aaa" stroke-opacity="0.5" stroke-width="0.5"></path><path d="M164.3473 43.0583L239.1735 33.8504" fill="none" stroke="#aaa" stroke-opacity="0.5" stroke-width="0.5"></path><path d="M133.2365 180.8597L247.9973 173.2964" fill="none" stroke="#aaa" stroke-opacity="0.5" stroke-width="0.5"></path><path d="M213.9381 128.3943L130.106 65.3818" fill="none" stroke="#aaa" stroke-opacity="0.5" stroke-width="0.5"></path><path d="M161.3223 139.7461L133.2365 180.8597" fill="none" stroke="#aaa" stroke-opacity="0.5" stroke-width="0.5"></path><path d="M301.0269 85.1628L252.1576 82.8159" fill="none" stroke="#aaa" stroke-opacity="0.5" stroke-width="0.5"></path><path d="M133.2365 180.8597L239.1735 33.8504" fill="none" stroke="#aaa" stroke-opacity="0.5" stroke-width="0.5"></path><path d="M213.9381 128.3943L133.2365 180.8597" fill="none" stroke="#aaa" stroke-opacity="0.5" stroke-width="0.5"></path><path d="M161.1696 93.7982L133.2365 180.8597" fill="none" stroke="#aaa" stroke-opacity="0.5" stroke-width="0.5"></path><path d="M115.8208 146.6261L275.6719 49.2829" fill="none" stroke="#aaa" stroke-opacity="0.5" stroke-width="0.5"></path><path d="M213.9381 128.3943L236.1738 217.5352" fill="none" stroke="#aaa" stroke-opacity="0.5" stroke-width="0.5"></path><path d="M114.1214 106.8294L161.1696 93.7982" fill="none" stroke="#aaa" stroke-opacity="0.5" stroke-width="0.5"></path><path d="M161.1696 93.7982L236.1738 217.5352" fill="none" stroke="#aaa" stroke-opacity="0.5" stroke-width="0.5"></path><path d="M213.9381 128.3943L197.0023 223.2746" fill="none" stroke="#aaa" stroke-opacity="0.5" stroke-width="0.5"></path><path d="M267.2981 128.4061L115.8208 146.6261" fill="none" stroke="#aaa" stroke-opacity="0.5" stroke-width="0.5"></path><path d="M195.2298 178.6285L247.9973 173.2964" fill="none" stroke="#aaa" stroke-opacity="0.5" stroke-width="0.5"></path><path d="M195.2298 178.6285L300.6087 166.0914" fill="none" stroke="#aaa" stroke-opacity="0.5" stroke-width="0.5"></path><path d="M301.0269 85.1628L204.4381 72.057" fill="none" stroke="#aaa" stroke-opacity="0.5" stroke-width="0.5"></path><path d="M267.2981 128.4061L164.3473 43.0583" fill="none" stroke="#aaa" stroke-opacity="0.5" stroke-width="0.5"></path><path d="M247.9973 173.2964L252.1576 82.8159" fill="none" stroke="#aaa" stroke-opacity="0.5" stroke-width="0.5"></path><path d="M213.9381 128.3943L275.6934 201.2143" fill="none" stroke="#aaa" stroke-opacity="0.5" stroke-width="0.5"></path><path d="M161.1696 93.7982L275.6934 201.2143" fill="none" stroke="#aaa" stroke-opacity="0.5" stroke-width="0.5"></path><path d="M301.0269 85.1628L213.9381 128.3943" fill="none" stroke="#aaa" stroke-opacity="0.5" stroke-width="0.5"></path><path d="M200.2228 27.0782L161.3223 139.7461" fill="none" stroke="#aaa" stroke-opacity="0.5" stroke-width="0.5"></path><path d="M300.6087 166.0914L252.1576 82.8159" fill="none" stroke="#aaa" stroke-opacity="0.5" stroke-width="0.5"></path><path d="M301.0269 85.1628L267.2981 128.4061" fill="none" stroke="#aaa" stroke-opacity="0.5" stroke-width="0.5"></path><path d="M200.2228 27.0782L239.1735 33.8504" fill="none" stroke="#aaa" stroke-opacity="0.5" stroke-width="0.5"></path><path d="M247.9973 173.2964L204.4381 72.057" fill="none" stroke="#aaa" stroke-opacity="0.5" stroke-width="0.5"></path><path d="M309.4456 124.9527L161.3223 139.7461" fill="none" stroke="#aaa" stroke-opacity="0.5" stroke-width="0.5"></path><path d="M159.6935 206.6598L275.6719 49.2829" fill="none" stroke="#aaa" stroke-opacity="0.5" stroke-width="0.5"></path><path d="M197.0023 223.2746L252.1576 82.8159" fill="none" stroke="#aaa" stroke-opacity="0.5" stroke-width="0.5"></path><path d="M114.1214 106.8294L309.4456 124.9527" fill="none" stroke="#aaa" stroke-opacity="0.5" stroke-width="0.5"></path><path d="M164.3473 43.0583L275.6719 49.2829" fill="none" stroke="#aaa" stroke-opacity="0.5" stroke-width="0.5"></path><path d="M164.3473 43.0583L252.1576 82.8159" fill="none" stroke="#aaa" stroke-opacity="0.5" stroke-width="0.5"></path><path d="M130.106 65.3818L239.1735 33.8504" fill="none" stroke="#aaa" stroke-opacity="0.5" stroke-width="0.5"></path><path d="M309.4456 124.9527L301.0269 85.1628" fill="none" stroke="#aaa" stroke-opacity="0.5" stroke-width="0.5"></path><path d="M300.6087 166.0914L204.4381 72.057" fill="none" stroke="#aaa" stroke-opacity="0.5" stroke-width="0.5"></path><path d="M267.2981 128.4061L133.2365 180.8597" fill="none" stroke="#aaa" stroke-opacity="0.5" stroke-width="0.5"></path><path d="M275.6934 201.2143L239.1735 33.8504" fill="none" stroke="#aaa" stroke-opacity="0.5" stroke-width="0.5"></path><path d="M267.2981 128.4061L236.1738 217.5352" fill="none" stroke="#aaa" stroke-opacity="0.5" stroke-width="0.5"></path><path d="M197.0023 223.2746L204.4381 72.057" fill="none" stroke="#aaa" stroke-opacity="0.5" stroke-width="0.5"></path><path d="M133.2365 180.8597L252.1576 82.8159" fill="none" stroke="#aaa" stroke-opacity="0.5" stroke-width="0.5"></path><path d="M309.4456 124.9527L300.6087 166.0914" fill="none" stroke="#aaa" stroke-opacity="0.5" stroke-width="0.5"></path><path d="M275.6934 201.2143L300.6087 166.0914" fill="none" stroke="#aaa" stroke-opacity="0.5" stroke-width="0.5"></path><path d="M267.2981 128.4061L275.6934 201.2143" fill="none" stroke="#aaa" stroke-opacity="0.5" stroke-width="0.5"></path><path d="M161.3223 139.7461L239.1735 33.8504" fill="none" stroke="#aaa" stroke-opacity="0.5" stroke-width="0.5"></path><path d="M301.0269 85.1628L115.8208 146.6261" fill="none" stroke="#aaa" stroke-opacity="0.5" stroke-width="0.5"></path><path d="M236.1738 217.5352L130.106 65.3818" fill="none" stroke="#aaa" stroke-opacity="0.5" stroke-width="0.5"></path><path d="M114.1214 106.8294L161.3223 139.7461" fill="none" stroke="#aaa" stroke-opacity="0.5" stroke-width="0.5"></path><path d="M301.0269 85.1628L164.3473 43.0583" fill="none" stroke="#aaa" stroke-opacity="0.5" stroke-width="0.5"></path><path d="M159.6935 206.6598L267.2981 128.4061" fill="none" stroke="#aaa" stroke-opacity="0.5" stroke-width="0.5"></path><path d="M133.2365 180.8597L204.4381 72.057" fill="none" stroke="#aaa" stroke-opacity="0.5" stroke-width="0.5"></path><path d="M301.0269 85.1628L200.2228 27.0782" fill="none" stroke="#aaa" stroke-opacity="0.5" stroke-width="0.5"></path><path d="M114.1214 106.8294L301.0269 85.1628" fill="none" stroke="#aaa" stroke-opacity="0.5" stroke-width="0.5"></path><path d="M114.1214 106.8294L239.1735 33.8504" fill="none" stroke="#aaa" stroke-opacity="0.5" stroke-width="0.5"></path><path d="M161.3223 139.7461L300.6087 166.0914" fill="none" stroke="#aaa" stroke-opacity="0.5" stroke-width="0.5"></path><path d="M236.1738 217.5352L197.0023 223.2746" fill="none" stroke="#aaa" stroke-opacity="0.5" stroke-width="0.5"></path><path d="M213.9381 128.3943L247.9973 173.2964" fill="none" stroke="#aaa" stroke-opacity="0.5" stroke-width="0.5"></path><path d="M213.9381 128.3943L300.6087 166.0914" fill="none" stroke="#aaa" stroke-opacity="0.5" stroke-width="0.5"></path><path d="M161.1696 93.7982L247.9973 173.2964" fill="none" stroke="#aaa" stroke-opacity="0.5" stroke-width="0.5"></path><path d="M161.1696 93.7982L300.6087 166.0914" fill="none" stroke="#aaa" stroke-opacity="0.5" stroke-width="0.5"></path><path d="M236.1738 217.5352L275.6934 201.2143" fill="none" stroke="#aaa" stroke-opacity="0.5" stroke-width="0.5"></path><path d="M200.2228 27.0782L275.6719 49.2829" fill="none" stroke="#aaa" stroke-opacity="0.5" stroke-width="0.5"></path><path d="M200.2228 27.0782L252.1576 82.8159" fill="none" stroke="#aaa" stroke-opacity="0.5" stroke-width="0.5"></path><path d="M239.1735 33.8504L204.4381 72.057" fill="none" stroke="#aaa" stroke-opacity="0.5" stroke-width="0.5"></path><path d="M130.106 65.3818L275.6719 49.2829" fill="none" stroke="#aaa" stroke-opacity="0.5" stroke-width="0.5"></path><path d="M130.106 65.3818L252.1576 82.8159" fill="none" stroke="#aaa" stroke-opacity="0.5" stroke-width="0.5"></path><path d="M195.2298 178.6285L204.4381 72.057" fill="none" stroke="#aaa" stroke-opacity="0.5" stroke-width="0.5"></path><path d="M309.4456 124.9527L275.6719 49.2829" fill="none" stroke="#aaa" stroke-opacity="0.5" stroke-width="0.5"></path><path d="M301.0269 85.1628L133.2365 180.8597" fill="none" stroke="#aaa" stroke-opacity="0.5" stroke-width="0.5"></path><path d="M275.5 201.2143L275.5 49.2829" fill="none" stroke="#aaa" stroke-opacity="0.5" stroke-width="0.5"></path><path d="M159.6935 206.6598L115.8208 146.6261" fill="none" stroke="#aaa" stroke-opacity="0.5" stroke-width="0.5"></path><path d="M115.8208 146.6261L130.106 65.3818" fill="none" stroke="#aaa" stroke-opacity="0.5" stroke-width="0.5"></path><path d="M301.0269 85.1628L236.1738 217.5352" fill="none" stroke="#aaa" stroke-opacity="0.5" stroke-width="0.5"></path><path d="M159.6935 206.6598L164.3473 43.0583" fill="none" stroke="#aaa" stroke-opacity="0.5" stroke-width="0.5"></path><path d="M200.2228 27.0782L213.9381 128.3943" fill="none" stroke="#aaa" stroke-opacity="0.5" stroke-width="0.5"></path><path d="M301.0269 85.1628L275.6934 201.2143" fill="none" stroke="#aaa" stroke-opacity="0.5" stroke-width="0.5"></path><path d="M159.6935 206.6598L200.2228 27.0782" fill="none" stroke="#aaa" stroke-opacity="0.5" stroke-width="0.5"></path><path d="M161.3223 139.7461L275.6719 49.2829" fill="none" stroke="#aaa" stroke-opacity="0.5" stroke-width="0.5"></path><path d="M115.8208 146.6261L197.0023 223.2746" fill="none" stroke="#aaa" stroke-opacity="0.5" stroke-width="0.5"></path><path d="M200.2228 27.0782L267.2981 128.4061" fill="none" stroke="#aaa" stroke-opacity="0.5" stroke-width="0.5"></path><path d="M267.2981 128.4061L300.6087 166.0914" fill="none" stroke="#aaa" stroke-opacity="0.5" stroke-width="0.5"></path><path d="M300.6087 166.0914L133.2365 180.8597" fill="none" stroke="#aaa" stroke-opacity="0.5" stroke-width="0.5"></path><path d="M159.6935 206.6598L130.106 65.3818" fill="none" stroke="#aaa" stroke-opacity="0.5" stroke-width="0.5"></path><path d="M114.1214 106.8294L275.6719 49.2829" fill="none" stroke="#aaa" stroke-opacity="0.5" stroke-width="0.5"></path><path d="M114.1214 106.8294L252.1576 82.8159" fill="none" stroke="#aaa" stroke-opacity="0.5" stroke-width="0.5"></path><path d="M164.3473 43.0583L130.106 65.3818" fill="none" stroke="#aaa" stroke-opacity="0.5" stroke-width="0.5"></path><path d="M164.3473 43.0583L133.2365 180.8597" fill="none" stroke="#aaa" stroke-opacity="0.5" stroke-width="0.5"></path><path d="M159.6935 206.6598L236.1738 217.5352" fill="none" stroke="#aaa" stroke-opacity="0.5" stroke-width="0.5"></path><path d="M164.3473 43.0583L236.1738 217.5352" fill="none" stroke="#aaa" stroke-opacity="0.5" stroke-width="0.5"></path><path d="M159.6935 206.6598L197.0023 223.2746" fill="none" stroke="#aaa" stroke-opacity="0.5" stroke-width="0.5"></path><path d="M164.3473 43.0583L197.0023 223.2746" fill="none" stroke="#aaa" stroke-opacity="0.5" stroke-width="0.5"></path><path d="M195.2298 178.6285L114.1214 106.8294" fill="none" stroke="#aaa" stroke-opacity="0.5" stroke-width="0.5"></path><path d="M159.6935 206.6598L275.6934 201.2143" fill="none" stroke="#aaa" stroke-opacity="0.5" stroke-width="0.5"></path><path d="M236.1738 217.5352L247.9973 173.2964" fill="none" stroke="#aaa" stroke-opacity="0.5" stroke-width="0.5"></path><path d="M164.3473 43.0583L275.6934 201.2143" fill="none" stroke="#aaa" stroke-opacity="0.5" stroke-width="0.5"></path><path d="M200.2228 27.0782L115.8208 146.6261" fill="none" stroke="#aaa" stroke-opacity="0.5" stroke-width="0.5"></path><path d="M114.1214 106.8294L213.9381 128.3943" fill="none" stroke="#aaa" stroke-opacity="0.5" stroke-width="0.5"></path><path d="M200.2228 27.0782L164.3473 43.0583" fill="none" stroke="#aaa" stroke-opacity="0.5" stroke-width="0.5"></path><path d="M239.1735 33.8504L197.0023 223.2746" fill="none" stroke="#aaa" stroke-opacity="0.5" stroke-width="0.5"></path><path d="M236.1738 217.5352L239.1735 33.8504" fill="none" stroke="#aaa" stroke-opacity="0.5" stroke-width="0.5"></path><path d="M114.1214 106.8294L267.2981 128.4061" fill="none" stroke="#aaa" stroke-opacity="0.5" stroke-width="0.5"></path><path d="M213.9381 128.3943L204.4381 72.057" fill="none" stroke="#aaa" stroke-opacity="0.5" stroke-width="0.5"></path><path d="M161.1696 93.7982L204.4381 72.057" fill="none" stroke="#aaa" stroke-opacity="0.5" stroke-width="0.5"></path><path d="M301.0269 85.1628L300.6087 166.0914" fill="none" stroke="#aaa" stroke-opacity="0.5" stroke-width="0.5"></path><path d="M195.2298 178.6285L161.1696 93.7982" fill="none" stroke="#aaa" stroke-opacity="0.5" stroke-width="0.5"></path><path d="M200.2228 27.0782L130.106 65.3818" fill="none" stroke="#aaa" stroke-opacity="0.5" stroke-width="0.5"></path><path d="M200.2228 27.0782L133.2365 180.8597" fill="none" stroke="#aaa" stroke-opacity="0.5" stroke-width="0.5"></path><path d="M115.8208 146.6261L247.9973 173.2964" fill="none" stroke="#aaa" stroke-opacity="0.5" stroke-width="0.5"></path><path d="M115.8208 146.6261L161.3223 139.7461" fill="none" stroke="#aaa" stroke-opacity="0.5" stroke-width="0.5"></path><path d="M309.4456 124.9527L130.106 65.3818" fill="none" stroke="#aaa" stroke-opacity="0.5" stroke-width="0.5"></path><path d="M200.2228 27.0782L236.1738 217.5352" fill="none" stroke="#aaa" stroke-opacity="0.5" stroke-width="0.5"></path><path d="M300.6087 166.0914L239.1735 33.8504" fill="none" stroke="#aaa" stroke-opacity="0.5" stroke-width="0.5"></path><path d="M275.6934 201.2143L130.106 65.3818" fill="none" stroke="#aaa" stroke-opacity="0.5" stroke-width="0.5"></path><path d="M130.106 65.3818L133.2365 180.8597" fill="none" stroke="#aaa" stroke-opacity="0.5" stroke-width="0.5"></path><path d="M114.1214 106.8294L115.8208 146.6261" fill="none" stroke="#aaa" stroke-opacity="0.5" stroke-width="0.5"></path><path d="M200.2228 27.0782L197.0023 223.2746" fill="none" stroke="#aaa" stroke-opacity="0.5" stroke-width="0.5"></path><path d="M114.1214 106.8294L164.3473 43.0583" fill="none" stroke="#aaa" stroke-opacity="0.5" stroke-width="0.5"></path><path d="M115.8208 146.6261L239.1735 33.8504" fill="none" stroke="#aaa" stroke-opacity="0.5" stroke-width="0.5"></path><path d="M200.2228 27.0782L275.6934 201.2143" fill="none" stroke="#aaa" stroke-opacity="0.5" stroke-width="0.5"></path><path d="M130.106 65.3818L197.0023 223.2746" fill="none" stroke="#aaa" stroke-opacity="0.5" stroke-width="0.5"></path><path d="M309.4456 124.9527L236.1738 217.5352" fill="none" stroke="#aaa" stroke-opacity="0.5" stroke-width="0.5"></path><path d="M195.2298 178.6285L309.4456 124.9527" fill="none" stroke="#aaa" stroke-opacity="0.5" stroke-width="0.5"></path><path d="M309.4456 124.9527L197.0023 223.2746" fill="none" stroke="#aaa" stroke-opacity="0.5" stroke-width="0.5"></path><path d="M114.1214 106.8294L200.2228 27.0782" fill="none" stroke="#aaa" stroke-opacity="0.5" stroke-width="0.5"></path><path d="M267.2981 128.4061L204.4381 72.057" fill="none" stroke="#aaa" stroke-opacity="0.5" stroke-width="0.5"></path><path d="M275.6934 201.2143L197.0023 223.2746" fill="none" stroke="#aaa" stroke-opacity="0.5" stroke-width="0.5"></path><path d="M161.3223 139.7461L130.106 65.3818" fill="none" stroke="#aaa" stroke-opacity="0.5" stroke-width="0.5"></path><path d="M309.4456 124.9527L275.6934 201.2143" fill="none" stroke="#aaa" stroke-opacity="0.5" stroke-width="0.5"></path><path d="M159.6935 206.6598L247.9973 173.2964" fill="none" stroke="#aaa" stroke-opacity="0.5" stroke-width="0.5"></path><path d="M159.6935 206.6598L300.6087 166.0914" fill="none" stroke="#aaa" stroke-opacity="0.5" stroke-width="0.5"></path><path d="M301.0269 85.1628L275.6719 49.2829" fill="none" stroke="#aaa" stroke-opacity="0.5" stroke-width="0.5"></path><path d="M236.1738 217.5352L252.1576 82.8159" fill="none" stroke="#aaa" stroke-opacity="0.5" stroke-width="0.5"></path><path d="M164.3473 43.0583L247.9973 173.2964" fill="none" stroke="#aaa" stroke-opacity="0.5" stroke-width="0.5"></path><path d="M164.3473 43.0583L300.6087 166.0914" fill="none" stroke="#aaa" stroke-opacity="0.5" stroke-width="0.5"></path><path d="M161.1696 93.7982L130.106 65.3818" fill="none" stroke="#aaa" stroke-opacity="0.5" stroke-width="0.5"></path><path d="M114.1214 106.8294L130.106 65.3818" fill="none" stroke="#aaa" stroke-opacity="0.5" stroke-width="0.5"></path><path d="M309.4456 124.9527L161.1696 93.7982" fill="none" stroke="#aaa" stroke-opacity="0.5" stroke-width="0.5"></path><path d="M161.3223 139.7461L197.0023 223.2746" fill="none" stroke="#aaa" stroke-opacity="0.5" stroke-width="0.5"></path><path d="M114.1214 106.8294L133.2365 180.8597" fill="none" stroke="#aaa" stroke-opacity="0.5" stroke-width="0.5"></path><path d="M239.1735 33.8504L247.9973 173.2964" fill="none" stroke="#aaa" stroke-opacity="0.5" stroke-width="0.5"></path><path d="M161.3223 139.7461L275.6934 201.2143" fill="none" stroke="#aaa" stroke-opacity="0.5" stroke-width="0.5"></path><path d="M236.1738 217.5352L204.4381 72.057" fill="none" stroke="#aaa" stroke-opacity="0.5" stroke-width="0.5"></path><path d="M195.2298 178.6285L161.3223 139.7461" fill="none" stroke="#aaa" stroke-opacity="0.5" stroke-width="0.5"></path><path d="M161.1696 93.7982L197.0023 223.2746" fill="none" stroke="#aaa" stroke-opacity="0.5" stroke-width="0.5"></path><path d="M247.9973 173.2964L275.6719 49.2829" fill="none" stroke="#aaa" stroke-opacity="0.5" stroke-width="0.5"></path><path d="M114.1214 106.8294L236.1738 217.5352" fill="none" stroke="#aaa" stroke-opacity="0.5" stroke-width="0.5"></path><path d="M114.1214 106.8294L197.0023 223.2746" fill="none" stroke="#aaa" stroke-opacity="0.5" stroke-width="0.5"></path><path d="M195.2298 178.6285L301.0269 85.1628" fill="none" stroke="#aaa" stroke-opacity="0.5" stroke-width="0.5"></path><path d="M195.2298 178.6285L239.1735 33.8504" fill="none" stroke="#aaa" stroke-opacity="0.5" stroke-width="0.5"></path><path d="M114.1214 106.8294L275.6934 201.2143" fill="none" stroke="#aaa" stroke-opacity="0.5" stroke-width="0.5"></path><path d="M300.6087 166.0914L275.6719 49.2829" fill="none" stroke="#aaa" stroke-opacity="0.5" stroke-width="0.5"></path><path d="M115.8208 146.6261L252.1576 82.8159" fill="none" stroke="#aaa" stroke-opacity="0.5" stroke-width="0.5"></path><path d="M197.0023 223.2746L275.6719 49.2829" fill="none" stroke="#aaa" stroke-opacity="0.5" stroke-width="0.5"></path><path d="M267.2981 128.4061L130.106 65.3818" fill="none" stroke="#aaa" stroke-opacity="0.5" stroke-width="0.5"></path><path d="M1 0A1 1 0 1 1 1 -0.0001" fill="#5470c6" transform="matrix(17.5,0,0,17.5,267.2981,128.4061)"></path><path d="M1 0A1 1 0 1 1 1 -0.0001" fill="#5470c6" transform="matrix(17.5,0,0,17.5,300.6087,166.0914)"></path><path d="M1 0A1 1 0 1 1 1 -0.0001" fill="#5470c6" transform="matrix(17.5,0,0,17.5,247.9973,173.2964)"></path><path d="M1 0A1 1 0 1 1 1 -0.0001" fill="#5470c6" transform="matrix(17.5,0,0,17.5,275.6934,201.2143)"></path><path d="M1 0A1 1 0 1 1 1 -0.0001" fill="#5470c6" transform="matrix(17.5,0,0,17.5,236.1738,217.5352)"></path><path d="M1 0A1 1 0 1 1 1 -0.0001" fill="#5470c6" transform="matrix(17.5,0,0,17.5,195.2298,178.6285)"></path><path d="M1 0A1 1 0 1 1 1 -0.0001" fill="#5470c6" transform="matrix(17.5,0,0,17.5,197.0023,223.2746)"></path><path d="M1 0A1 1 0 1 1 1 -0.0001" fill="#5470c6" transform="matrix(17.5,0,0,17.5,161.3223,139.7461)"></path><path d="M1 0A1 1 0 1 1 1 -0.0001" fill="#5470c6" transform="matrix(17.5,0,0,17.5,159.6935,206.6598)"></path><path d="M1 0A1 1 0 1 1 1 -0.0001" fill="#5470c6" transform="matrix(17.5,0,0,17.5,133.2365,180.8597)"></path><path d="M1 0A1 1 0 1 1 1 -0.0001" fill="#5470c6" transform="matrix(17.5,0,0,17.5,161.1696,93.7982)"></path><path d="M1 0A1 1 0 1 1 1 -0.0001" fill="#5470c6" transform="matrix(17.5,0,0,17.5,115.8208,146.6261)"></path><path d="M1 0A1 1 0 1 1 1 -0.0001" fill="#5470c6" transform="matrix(17.5,0,0,17.5,114.1214,106.8294)"></path><path d="M1 0A1 1 0 1 1 1 -0.0001" fill="#5470c6" transform="matrix(17.5,0,0,17.5,130.106,65.3818)"></path><path d="M1 0A1 1 0 1 1 1 -0.0001" fill="#5470c6" transform="matrix(17.5,0,0,17.5,164.3473,43.0583)"></path><path d="M1 0A1 1 0 1 1 1 -0.0001" fill="#5470c6" transform="matrix(17.5,0,0,17.5,200.2228,27.0782)"></path><path d="M1 0A1 1 0 1 1 1 -0.0001" fill="#5470c6" transform="matrix(17.5,0,0,17.5,204.4381,72.057)"></path><path d="M1 0A1 1 0 1 1 1 -0.0001" fill="#5470c6" transform="matrix(17.5,0,0,17.5,239.1735,33.8504)"></path><path d="M1 0A1 1 0 1 1 1 -0.0001" fill="#5470c6" transform="matrix(17.5,0,0,17.5,213.9381,128.3943)"></path><path d="M1 0A1 1 0 1 1 1 -0.0001" fill="#5470c6" transform="matrix(17.5,0,0,17.5,275.6719,49.2829)"></path><path d="M1 0A1 1 0 1 1 1 -0.0001" fill="#5470c6" transform="matrix(17.5,0,0,17.5,301.0269,85.1628)"></path><path d="M1 0A1 1 0 1 1 1 -0.0001" fill="#5470c6" transform="matrix(17.5,0,0,17.5,309.4456,124.9527)"></path><path d="M1 0A1 1 0 1 1 1 -0.0001" fill="#5470c6" transform="matrix(17.5,0,0,17.5,252.1576,82.8159)"></path><path d="M-25.1792 -5l50.3584 0l0 32l-50.3584 0Z" fill="rgb(0,0,0)" fill-opacity="0" stroke="#ccc" stroke-width="0" transform="translate(237.5 5)"></path><text dominant-baseline="central" fill="#333" style="font-size:22px;font-family:sans-serif;font-weight:bolder;" text-anchor="middle" transform="translate(237.5 5)" y="11">C51</text></g></svg>