<svg baseprofile="full" height="250" style="position:absolute;left:0;top:0;user-select:none" version="1.1" width="475" xmlns="http://www.w3.org/2000/svg" xmlns:xlink="http://www.w3.org/1999/xlink"><rect fill="none" height="250" id="0" width="475" x="0" y="0"></rect><g><path d="M307.7083 149.0524L282.3105 198.4164" fill="none" stroke="#aaa" stroke-opacity="0.5" stroke-width="0.5"></path><path d="M307.7083 149.0524L170.8774 153.9926" fill="none" stroke="#aaa" stroke-opacity="0.5" stroke-width="0.5"></path><path d="M110.6322 122.4878L307.7083 149.0524" fill="none" stroke="#aaa" stroke-opacity="0.5" stroke-width="0.5"></path><path d="M282.3105 198.4164L123.4931 179.8943" fill="none" stroke="#aaa" stroke-opacity="0.5" stroke-width="0.5"></path><path d="M170.4542 30.9704L123.4931 179.8943" fill="none" stroke="#aaa" stroke-opacity="0.5" stroke-width="0.5"></path><path d="M170.8774 153.9926L227.8024 225.4223" fill="none" stroke="#aaa" stroke-opacity="0.5" stroke-width="0.5"></path><path d="M126.2755 70.1302L224.5298 26.761" fill="none" stroke="#aaa" stroke-opacity="0.5" stroke-width="0.5"></path><path d="M110.6322 122.4878L274.4619 45.9384" fill="none" stroke="#aaa" stroke-opacity="0.5" stroke-width="0.5"></path><path d="M307.7083 149.0524L227.8024 225.4223" fill="none" stroke="#aaa" stroke-opacity="0.5" stroke-width="0.5"></path><path d="M110.6322 122.4878L308.3592 93.6109" fill="none" stroke="#aaa" stroke-opacity="0.5" stroke-width="0.5"></path><path d="M282.3105 198.4164L224.5298 26.761" fill="none" stroke="#aaa" stroke-opacity="0.5" stroke-width="0.5"></path><path d="M184.5742 89.514L227.8024 225.4223" fill="none" stroke="#aaa" stroke-opacity="0.5" stroke-width="0.5"></path><path d="M170.4542 30.9704L224.5298 26.761" fill="none" stroke="#aaa" stroke-opacity="0.5" stroke-width="0.5"></path><path d="M126.2755 70.1302L234.9331 166.9559" fill="none" stroke="#aaa" stroke-opacity="0.5" stroke-width="0.5"></path><path d="M126.2755 70.1302L184.5742 89.514" fill="none" stroke="#aaa" stroke-opacity="0.5" stroke-width="0.5"></path><path d="M307.7083 149.0524L123.4931 179.8943" fill="none" stroke="#aaa" stroke-opacity="0.5" stroke-width="0.5"></path><path d="M171.332 219.0358L224.5298 26.761" fill="none" stroke="#aaa" stroke-opacity="0.5" stroke-width="0.5"></path><path d="M170.8774 153.9926L184.5742 89.514" fill="none" stroke="#aaa" stroke-opacity="0.5" stroke-width="0.5"></path><path d="M282.3105 198.4164L234.9331 166.9559" fill="none" stroke="#aaa" stroke-opacity="0.5" stroke-width="0.5"></path><path d="M234.9331 166.9559L171.332 219.0358" fill="none" stroke="#aaa" stroke-opacity="0.5" stroke-width="0.5"></path><path d="M307.7083 149.0524L249.1444 102.8177" fill="none" stroke="#aaa" stroke-opacity="0.5" stroke-width="0.5"></path><path d="M170.4542 30.9704L234.9331 166.9559" fill="none" stroke="#aaa" stroke-opacity="0.5" stroke-width="0.5"></path><path d="M123.4931 179.8943L227.8024 225.4223" fill="none" stroke="#aaa" stroke-opacity="0.5" stroke-width="0.5"></path><path d="M249.1444 102.8177L224.5298 26.761" fill="none" stroke="#aaa" stroke-opacity="0.5" stroke-width="0.5"></path><path d="M308.3592 93.6109L274.4619 45.9384" fill="none" stroke="#aaa" stroke-opacity="0.5" stroke-width="0.5"></path><path d="M307.7083 149.0524L126.2755 70.1302" fill="none" stroke="#aaa" stroke-opacity="0.5" stroke-width="0.5"></path><path d="M123.4931 179.8943L224.5298 26.761" fill="none" stroke="#aaa" stroke-opacity="0.5" stroke-width="0.5"></path><path d="M249.1444 102.8177L234.9331 166.9559" fill="none" stroke="#aaa" stroke-opacity="0.5" stroke-width="0.5"></path><path d="M249.1444 102.8177L184.5742 89.514" fill="none" stroke="#aaa" stroke-opacity="0.5" stroke-width="0.5"></path><path d="M308.3592 93.6109L171.332 219.0358" fill="none" stroke="#aaa" stroke-opacity="0.5" stroke-width="0.5"></path><path d="M123.4931 179.8943L184.5742 89.514" fill="none" stroke="#aaa" stroke-opacity="0.5" stroke-width="0.5"></path><path d="M234.9331 166.9559L170.8774 153.9926" fill="none" stroke="#aaa" stroke-opacity="0.5" stroke-width="0.5"></path><path d="M110.6322 122.4878L123.4931 179.8943" fill="none" stroke="#aaa" stroke-opacity="0.5" stroke-width="0.5"></path><path d="M227.8024 225.4223L274.4619 45.9384" fill="none" stroke="#aaa" stroke-opacity="0.5" stroke-width="0.5"></path><path d="M110.6322 122.4878L224.5298 26.761" fill="none" stroke="#aaa" stroke-opacity="0.5" stroke-width="0.5"></path><path d="M234.9331 166.9559L227.8024 225.4223" fill="none" stroke="#aaa" stroke-opacity="0.5" stroke-width="0.5"></path><path d="M282.3105 198.4164L171.332 219.0358" fill="none" stroke="#aaa" stroke-opacity="0.5" stroke-width="0.5"></path><path d="M170.4542 30.9704L171.332 219.0358" fill="none" stroke="#aaa" stroke-opacity="0.5" stroke-width="0.5"></path><path d="M110.6322 122.4878L126.2755 70.1302" fill="none" stroke="#aaa" stroke-opacity="0.5" stroke-width="0.5"></path><path d="M307.7083 149.0524L274.4619 45.9384" fill="none" stroke="#aaa" stroke-opacity="0.5" stroke-width="0.5"></path><path d="M110.6322 122.4878L234.9331 166.9559" fill="none" stroke="#aaa" stroke-opacity="0.5" stroke-width="0.5"></path><path d="M184.5742 89.514L274.4619 45.9384" fill="none" stroke="#aaa" stroke-opacity="0.5" stroke-width="0.5"></path><path d="M126.2755 70.1302L170.4542 30.9704" fill="none" stroke="#aaa" stroke-opacity="0.5" stroke-width="0.5"></path><path d="M307.7083 149.0524L308.3592 93.6109" fill="none" stroke="#aaa" stroke-opacity="0.5" stroke-width="0.5"></path><path d="M126.2755 70.1302L282.3105 198.4164" fill="none" stroke="#aaa" stroke-opacity="0.5" stroke-width="0.5"></path><path d="M307.7083 149.0524L171.332 219.0358" fill="none" stroke="#aaa" stroke-opacity="0.5" stroke-width="0.5"></path><path d="M126.2755 70.1302L170.8774 153.9926" fill="none" stroke="#aaa" stroke-opacity="0.5" stroke-width="0.5"></path><path d="M308.3592 93.6109L227.8024 225.4223" fill="none" stroke="#aaa" stroke-opacity="0.5" stroke-width="0.5"></path><path d="M234.9331 166.9559L184.5742 89.514" fill="none" stroke="#aaa" stroke-opacity="0.5" stroke-width="0.5"></path><path d="M282.3105 198.4164L170.4542 30.9704" fill="none" stroke="#aaa" stroke-opacity="0.5" stroke-width="0.5"></path><path d="M249.1444 102.8177L171.332 219.0358" fill="none" stroke="#aaa" stroke-opacity="0.5" stroke-width="0.5"></path><path d="M184.5742 89.514L171.332 219.0358" fill="none" stroke="#aaa" stroke-opacity="0.5" stroke-width="0.5"></path><path d="M282.3105 198.4164L170.8774 153.9926" fill="none" stroke="#aaa" stroke-opacity="0.5" stroke-width="0.5"></path><path d="M308.3592 93.6109L224.5298 26.761" fill="none" stroke="#aaa" stroke-opacity="0.5" stroke-width="0.5"></path><path d="M170.4542 30.9704L170.8774 153.9926" fill="none" stroke="#aaa" stroke-opacity="0.5" stroke-width="0.5"></path><path d="M126.2755 70.1302L227.8024 225.4223" fill="none" stroke="#aaa" stroke-opacity="0.5" stroke-width="0.5"></path><path d="M126.2755 70.1302L123.4931 179.8943" fill="none" stroke="#aaa" stroke-opacity="0.5" stroke-width="0.5"></path><path d="M308.3592 93.6109L184.5742 89.514" fill="none" stroke="#aaa" stroke-opacity="0.5" stroke-width="0.5"></path><path d="M282.3105 198.4164L227.8024 225.4223" fill="none" stroke="#aaa" stroke-opacity="0.5" stroke-width="0.5"></path><path d="M170.4542 30.9704L227.8024 225.4223" fill="none" stroke="#aaa" stroke-opacity="0.5" stroke-width="0.5"></path><path d="M170.8774 153.9926L123.4931 179.8943" fill="none" stroke="#aaa" stroke-opacity="0.5" stroke-width="0.5"></path><path d="M249.1444 102.8177L170.8774 153.9926" fill="none" stroke="#aaa" stroke-opacity="0.5" stroke-width="0.5"></path><path d="M227.8024 225.4223L224.5298 26.761" fill="none" stroke="#aaa" stroke-opacity="0.5" stroke-width="0.5"></path><path d="M126.2755 70.1302L249.1444 102.8177" fill="none" stroke="#aaa" stroke-opacity="0.5" stroke-width="0.5"></path><path d="M110.6322 122.4878L171.332 219.0358" fill="none" stroke="#aaa" stroke-opacity="0.5" stroke-width="0.5"></path><path d="M170.8774 153.9926L224.5298 26.761" fill="none" stroke="#aaa" stroke-opacity="0.5" stroke-width="0.5"></path><path d="M282.3105 198.4164L249.1444 102.8177" fill="none" stroke="#aaa" stroke-opacity="0.5" stroke-width="0.5"></path><path d="M170.4542 30.9704L249.1444 102.8177" fill="none" stroke="#aaa" stroke-opacity="0.5" stroke-width="0.5"></path><path d="M282.3105 198.4164L184.5742 89.514" fill="none" stroke="#aaa" stroke-opacity="0.5" stroke-width="0.5"></path><path d="M249.1444 102.8177L227.8024 225.4223" fill="none" stroke="#aaa" stroke-opacity="0.5" stroke-width="0.5"></path><path d="M234.9331 166.9559L274.4619 45.9384" fill="none" stroke="#aaa" stroke-opacity="0.5" stroke-width="0.5"></path><path d="M170.4542 30.9704L184.5742 89.514" fill="none" stroke="#aaa" stroke-opacity="0.5" stroke-width="0.5"></path><path d="M307.7083 149.0524L224.5298 26.761" fill="none" stroke="#aaa" stroke-opacity="0.5" stroke-width="0.5"></path><path d="M249.1444 102.8177L123.4931 179.8943" fill="none" stroke="#aaa" stroke-opacity="0.5" stroke-width="0.5"></path><path d="M234.9331 166.9559L308.3592 93.6109" fill="none" stroke="#aaa" stroke-opacity="0.5" stroke-width="0.5"></path><path d="M184.5742 89.514L224.5298 26.761" fill="none" stroke="#aaa" stroke-opacity="0.5" stroke-width="0.5"></path><path d="M110.6322 122.4878L170.4542 30.9704" fill="none" stroke="#aaa" stroke-opacity="0.5" stroke-width="0.5"></path><path d="M307.7083 149.0524L234.9331 166.9559" fill="none" stroke="#aaa" stroke-opacity="0.5" stroke-width="0.5"></path><path d="M307.7083 149.0524L184.5742 89.514" fill="none" stroke="#aaa" stroke-opacity="0.5" stroke-width="0.5"></path><path d="M110.6322 122.4878L282.3105 198.4164" fill="none" stroke="#aaa" stroke-opacity="0.5" stroke-width="0.5"></path><path d="M110.6322 122.4878L170.8774 153.9926" fill="none" stroke="#aaa" stroke-opacity="0.5" stroke-width="0.5"></path><path d="M110.6322 122.4878L227.8024 225.4223" fill="none" stroke="#aaa" stroke-opacity="0.5" stroke-width="0.5"></path><path d="M126.2755 70.1302L274.4619 45.9384" fill="none" stroke="#aaa" stroke-opacity="0.5" stroke-width="0.5"></path><path d="M126.2755 70.1302L308.3592 93.6109" fill="none" stroke="#aaa" stroke-opacity="0.5" stroke-width="0.5"></path><path d="M170.8774 153.9926L274.4619 45.9384" fill="none" stroke="#aaa" stroke-opacity="0.5" stroke-width="0.5"></path><path d="M282.3105 198.4164L274.4619 45.9384" fill="none" stroke="#aaa" stroke-opacity="0.5" stroke-width="0.5"></path><path d="M227.8024 225.4223L171.332 219.0358" fill="none" stroke="#aaa" stroke-opacity="0.5" stroke-width="0.5"></path><path d="M126.2755 70.1302L171.332 219.0358" fill="none" stroke="#aaa" stroke-opacity="0.5" stroke-width="0.5"></path><path d="M170.4542 30.9704L274.4619 45.9384" fill="none" stroke="#aaa" stroke-opacity="0.5" stroke-width="0.5"></path><path d="M234.9331 166.9559L123.4931 179.8943" fill="none" stroke="#aaa" stroke-opacity="0.5" stroke-width="0.5"></path><path d="M170.8774 153.9926L308.3592 93.6109" fill="none" stroke="#aaa" stroke-opacity="0.5" stroke-width="0.5"></path><path d="M110.6322 122.4878L249.1444 102.8177" fill="none" stroke="#aaa" stroke-opacity="0.5" stroke-width="0.5"></path><path d="M171.332 219.0358L274.4619 45.9384" fill="none" stroke="#aaa" stroke-opacity="0.5" stroke-width="0.5"></path><path d="M282.3105 198.4164L308.3592 93.6109" fill="none" stroke="#aaa" stroke-opacity="0.5" stroke-width="0.5"></path><path d="M170.4542 30.9704L308.3592 93.6109" fill="none" stroke="#aaa" stroke-opacity="0.5" stroke-width="0.5"></path><path d="M110.6322 122.4878L184.5742 89.514" fill="none" stroke="#aaa" stroke-opacity="0.5" stroke-width="0.5"></path><path d="M170.8774 153.9926L171.332 219.0358" fill="none" stroke="#aaa" stroke-opacity="0.5" stroke-width="0.5"></path><path d="M234.9331 166.9559L224.5298 26.761" fill="none" stroke="#aaa" stroke-opacity="0.5" stroke-width="0.5"></path><path d="M249.1444 102.8177L274.4619 45.9384" fill="none" stroke="#aaa" stroke-opacity="0.5" stroke-width="0.5"></path><path d="M224.5298 26.761L274.4619 45.9384" fill="none" stroke="#aaa" stroke-opacity="0.5" stroke-width="0.5"></path><path d="M123.4931 179.8943L274.4619 45.9384" fill="none" stroke="#aaa" stroke-opacity="0.5" stroke-width="0.5"></path><path d="M249.1444 102.8177L308.3592 93.6109" fill="none" stroke="#aaa" stroke-opacity="0.5" stroke-width="0.5"></path><path d="M123.4931 179.8943L308.3592 93.6109" fill="none" stroke="#aaa" stroke-opacity="0.5" stroke-width="0.5"></path><path d="M123.4931 179.8943L171.332 219.0358" fill="none" stroke="#aaa" stroke-opacity="0.5" stroke-width="0.5"></path><path d="M307.7083 149.0524L170.4542 30.9704" fill="none" stroke="#aaa" stroke-opacity="0.5" stroke-width="0.5"></path><path d="M1 0A1 1 0 1 1 1 -0.0001" fill="#5470c6" transform="matrix(18,0,0,18,307.7083,149.0524)"></path><path d="M1 0A1 1 0 1 1 1 -0.0001" fill="#5470c6" transform="matrix(18,0,0,18,282.3105,198.4164)"></path><path d="M1 0A1 1 0 1 1 1 -0.0001" fill="#5470c6" transform="matrix(18,0,0,18,234.9331,166.9559)"></path><path d="M1 0A1 1 0 1 1 1 -0.0001" fill="#5470c6" transform="matrix(18,0,0,18,227.8024,225.4223)"></path><path d="M1 0A1 1 0 1 1 1 -0.0001" fill="#5470c6" transform="matrix(18,0,0,18,171.332,219.0358)"></path><path d="M1 0A1 1 0 1 1 1 -0.0001" fill="#5470c6" transform="matrix(18,0,0,18,170.8774,153.9926)"></path><path d="M1 0A1 1 0 1 1 1 -0.0001" fill="#5470c6" transform="matrix(18,0,0,18,123.4931,179.8943)"></path><path d="M1 0A1 1 0 1 1 1 -0.0001" fill="#5470c6" transform="matrix(18,0,0,18,110.6322,122.4878)"></path><path d="M1 0A1 1 0 1 1 1 -0.0001" fill="#5470c6" transform="matrix(18,0,0,18,184.5742,89.514)"></path><path d="M1 0A1 1 0 1 1 1 -0.0001" fill="#5470c6" transform="matrix(18,0,0,18,126.2755,70.1302)"></path><path d="M1 0A1 1 0 1 1 1 -0.0001" fill="#5470c6" transform="matrix(18,0,0,18,170.4542,30.9704)"></path><path d="M1 0A1 1 0 1 1 1 -0.0001" fill="#5470c6" transform="matrix(18,0,0,18,224.5298,26.761)"></path><path d="M1 0A1 1 0 1 1 1 -0.0001" fill="#5470c6" transform="matrix(18,0,0,18,274.4619,45.9384)"></path><path d="M1 0A1 1 0 1 1 1 -0.0001" fill="#5470c6" transform="matrix(18,0,0,18,249.1444,102.8177)"></path><path d="M1 0A1 1 0 1 1 1 -0.0001" fill="#5470c6" transform="matrix(18,0,0,18,308.3592,93.6109)"></path><path d="M-26.0964 -5l52.1929 0l0 33l-52.1929 0Z" fill="rgb(0,0,0)" fill-opacity="0" stroke="#ccc" stroke-width="0" transform="translate(237.5 5)"></path><text dominant-baseline="central" fill="#333" style="font-size:23px;font-family:sans-serif;font-weight:bolder;" text-anchor="middle" transform="translate(237.5 5)" y="11.5">C52</text></g></svg>