<svg baseprofile="full" height="250" style="position:absolute;left:0;top:0;user-select:none" version="1.1" width="475" xmlns="http://www.w3.org/2000/svg" xmlns:xlink="http://www.w3.org/1999/xlink"><rect fill="none" height="250" id="0" width="475" x="0" y="0"></rect><g><path d="M181.1454 140.9919L220.7794 226.5151" fill="none" stroke="#aaa" stroke-opacity="0.5"></path><path d="M235.8934 23.0463L280.423 199.0562" fill="none" stroke="#aaa" stroke-opacity="0.5"></path><path d="M314.4773 141.1398L107.6618 150.3596" fill="none" stroke="#aaa" stroke-opacity="0.5"></path><path d="M280.423 199.0562L119.1532 77.9778" fill="none" stroke="#aaa" stroke-opacity="0.5"></path><path d="M168.0747 32.7996L107.6618 150.3596" fill="none" stroke="#aaa" stroke-opacity="0.5"></path><path d="M235.8934 23.0463L220.7794 226.5151" fill="none" stroke="#aaa" stroke-opacity="0.5"></path><path d="M220.7794 226.5151L240.802 104.7053" fill="none" stroke="#aaa" stroke-opacity="0.5"></path><path d="M119.1532 77.9778L107.6618 150.3596" fill="none" stroke="#aaa" stroke-opacity="0.5"></path><path d="M181.1454 140.9919L240.802 104.7053" fill="none" stroke="#aaa" stroke-opacity="0.5"></path><path d="M220.7794 226.5151L153.8565 211.9168" fill="none" stroke="#aaa" stroke-opacity="0.5"></path><path d="M153.8565 211.9168L240.802 104.7053" fill="none" stroke="#aaa" stroke-opacity="0.5"></path><path d="M181.1454 140.9919L153.8565 211.9168" fill="none" stroke="#aaa" stroke-opacity="0.5"></path><path d="M300.118 66.4916L240.802 104.7053" fill="none" stroke="#aaa" stroke-opacity="0.5"></path><path d="M181.1454 140.9919L300.118 66.4916" fill="none" stroke="#aaa" stroke-opacity="0.5"></path><path d="M153.8565 211.9168L300.118 66.4916" fill="none" stroke="#aaa" stroke-opacity="0.5"></path><path d="M220.7794 226.5151L314.4773 141.1398" fill="none" stroke="#aaa" stroke-opacity="0.5"></path><path d="M314.4773 141.1398L119.1532 77.9778" fill="none" stroke="#aaa" stroke-opacity="0.5"></path><path d="M168.0747 32.7996L119.1532 77.9778" fill="none" stroke="#aaa" stroke-opacity="0.5"></path><path d="M181.1454 141.5L314.4773 141.5" fill="none" stroke="#aaa" stroke-opacity="0.5"></path><path d="M153.8565 211.9168L314.4773 141.1398" fill="none" stroke="#aaa" stroke-opacity="0.5"></path><path d="M235.8934 23.0463L240.802 104.7053" fill="none" stroke="#aaa" stroke-opacity="0.5"></path><path d="M168.0747 32.7996L314.4773 141.1398" fill="none" stroke="#aaa" stroke-opacity="0.5"></path><path d="M235.8934 23.0463L153.8565 211.9168" fill="none" stroke="#aaa" stroke-opacity="0.5"></path><path d="M235.8934 23.0463L314.4773 141.1398" fill="none" stroke="#aaa" stroke-opacity="0.5"></path><path d="M168.0747 32.7996L220.7794 226.5151" fill="none" stroke="#aaa" stroke-opacity="0.5"></path><path d="M280.423 199.0562L240.802 104.7053" fill="none" stroke="#aaa" stroke-opacity="0.5"></path><path d="M220.7794 226.5151L107.6618 150.3596" fill="none" stroke="#aaa" stroke-opacity="0.5"></path><path d="M280.423 199.0562L300.118 66.4916" fill="none" stroke="#aaa" stroke-opacity="0.5"></path><path d="M181.1454 140.9919L107.6618 150.3596" fill="none" stroke="#aaa" stroke-opacity="0.5"></path><path d="M153.8565 211.9168L107.6618 150.3596" fill="none" stroke="#aaa" stroke-opacity="0.5"></path><path d="M300.118 66.4916L107.6618 150.3596" fill="none" stroke="#aaa" stroke-opacity="0.5"></path><path d="M280.423 199.0562L314.4773 141.1398" fill="none" stroke="#aaa" stroke-opacity="0.5"></path><path d="M235.8934 23.0463L107.6618 150.3596" fill="none" stroke="#aaa" stroke-opacity="0.5"></path><path d="M220.7794 226.5151L300.118 66.4916" fill="none" stroke="#aaa" stroke-opacity="0.5"></path><path d="M314.4773 141.1398L240.802 104.7053" fill="none" stroke="#aaa" stroke-opacity="0.5"></path><path d="M168.0747 32.7996L240.802 104.7053" fill="none" stroke="#aaa" stroke-opacity="0.5"></path><path d="M168.0747 32.7996L153.8565 211.9168" fill="none" stroke="#aaa" stroke-opacity="0.5"></path><path d="M220.7794 226.5151L119.1532 77.9778" fill="none" stroke="#aaa" stroke-opacity="0.5"></path><path d="M314.4773 141.1398L300.118 66.4916" fill="none" stroke="#aaa" stroke-opacity="0.5"></path><path d="M168.0747 32.7996L300.118 66.4916" fill="none" stroke="#aaa" stroke-opacity="0.5"></path><path d="M181.1454 140.9919L235.8934 23.0463" fill="none" stroke="#aaa" stroke-opacity="0.5"></path><path d="M181.1454 140.9919L119.1532 77.9778" fill="none" stroke="#aaa" stroke-opacity="0.5"></path><path d="M280.423 199.0562L107.6618 150.3596" fill="none" stroke="#aaa" stroke-opacity="0.5"></path><path d="M153.8565 211.9168L119.1532 77.9778" fill="none" stroke="#aaa" stroke-opacity="0.5"></path><path d="M181.1454 140.9919L168.0747 32.7996" fill="none" stroke="#aaa" stroke-opacity="0.5"></path><path d="M300.118 66.4916L119.1532 77.9778" fill="none" stroke="#aaa" stroke-opacity="0.5"></path><path d="M168.0747 32.7996L235.8934 23.0463" fill="none" stroke="#aaa" stroke-opacity="0.5"></path><path d="M235.8934 23.0463L300.118 66.4916" fill="none" stroke="#aaa" stroke-opacity="0.5"></path><path d="M220.7794 226.5151L280.423 199.0562" fill="none" stroke="#aaa" stroke-opacity="0.5"></path><path d="M107.6618 150.3596L240.802 104.7053" fill="none" stroke="#aaa" stroke-opacity="0.5"></path><path d="M181.1454 140.9919L280.423 199.0562" fill="none" stroke="#aaa" stroke-opacity="0.5"></path><path d="M153.8565 211.9168L280.423 199.0562" fill="none" stroke="#aaa" stroke-opacity="0.5"></path><path d="M119.1532 77.9778L240.802 104.7053" fill="none" stroke="#aaa" stroke-opacity="0.5"></path><path d="M235.8934 23.0463L119.1532 77.9778" fill="none" stroke="#aaa" stroke-opacity="0.5"></path><path d="M168.0747 32.7996L280.423 199.0562" fill="none" stroke="#aaa" stroke-opacity="0.5"></path><path d="M1 0A1 1 0 1 1 1 -0.0001" fill="#5470c6" transform="matrix(18.5,0,0,18.5,314.4773,141.1398)"></path><path d="M1 0A1 1 0 1 1 1 -0.0001" fill="#5470c6" transform="matrix(18.5,0,0,18.5,280.423,199.0562)"></path><path d="M1 0A1 1 0 1 1 1 -0.0001" fill="#5470c6" transform="matrix(18.5,0,0,18.5,220.7794,226.5151)"></path><path d="M1 0A1 1 0 1 1 1 -0.0001" fill="#5470c6" transform="matrix(18.5,0,0,18.5,153.8565,211.9168)"></path><path d="M1 0A1 1 0 1 1 1 -0.0001" fill="#5470c6" transform="matrix(18.5,0,0,18.5,181.1454,140.9919)"></path><path d="M1 0A1 1 0 1 1 1 -0.0001" fill="#5470c6" transform="matrix(18.5,0,0,18.5,107.6618,150.3596)"></path><path d="M1 0A1 1 0 1 1 1 -0.0001" fill="#5470c6" transform="matrix(18.5,0,0,18.5,119.1532,77.9778)"></path><path d="M1 0A1 1 0 1 1 1 -0.0001" fill="#5470c6" transform="matrix(18.5,0,0,18.5,168.0747,32.7996)"></path><path d="M1 0A1 1 0 1 1 1 -0.0001" fill="#5470c6" transform="matrix(18.5,0,0,18.5,235.8934,23.0463)"></path><path d="M1 0A1 1 0 1 1 1 -0.0001" fill="#5470c6" transform="matrix(18.5,0,0,18.5,240.802,104.7053)"></path><path d="M1 0A1 1 0 1 1 1 -0.0001" fill="#5470c6" transform="matrix(18.5,0,0,18.5,300.118,66.4916)"></path><path d="M-26.0964 -5l52.1929 0l0 33l-52.1929 0Z" fill="rgb(0,0,0)" fill-opacity="0" stroke="#ccc" stroke-width="0" transform="translate(237.5 5)"></path><text dominant-baseline="central" fill="#333" style="font-size:23px;font-family:sans-serif;font-weight:bolder;" text-anchor="middle" transform="translate(237.5 5)" y="11.5">C53</text></g></svg>