<svg baseprofile="full" height="250" style="position:absolute;left:0;top:0;user-select:none" version="1.1" width="475" xmlns="http://www.w3.org/2000/svg" xmlns:xlink="http://www.w3.org/1999/xlink"><rect fill="none" height="250" id="0" width="475" x="0" y="0"></rect><g><path d="M113.4142 144.0505L199.2112 223.2736" fill="none" stroke="#aaa" stroke-opacity="0.5"></path><path d="M119.3304 82.9612L301.6439 167.0243" fill="none" stroke="#aaa" stroke-opacity="0.5"></path><path d="M113.4142 144.0505L162.438 37.7889" fill="none" stroke="#aaa" stroke-opacity="0.5"></path><path d="M278.5736 52.712L301.6439 167.0243" fill="none" stroke="#aaa" stroke-opacity="0.5"></path><path d="M119.3304 82.9612L259.5994 212.5635" fill="none" stroke="#aaa" stroke-opacity="0.5"></path><path d="M119.3304 82.9612L309.8406 105.5333" fill="none" stroke="#aaa" stroke-opacity="0.5"></path><path d="M113.4142 144.0505L301.6439 167.0243" fill="none" stroke="#aaa" stroke-opacity="0.5"></path><path d="M301.6439 167.0243L199.2112 223.2736" fill="none" stroke="#aaa" stroke-opacity="0.5"></path><path d="M301.6439 167.0243L162.438 37.7889" fill="none" stroke="#aaa" stroke-opacity="0.5"></path><path d="M211.6138 124.6386L223.479 26.3458" fill="none" stroke="#aaa" stroke-opacity="0.5"></path><path d="M278.5736 52.712L259.5994 212.5635" fill="none" stroke="#aaa" stroke-opacity="0.5"></path><path d="M278.5736 52.712L309.8406 105.5333" fill="none" stroke="#aaa" stroke-opacity="0.5"></path><path d="M278.5736 52.712L119.3304 82.9612" fill="none" stroke="#aaa" stroke-opacity="0.5"></path><path d="M113.4142 144.0505L259.5994 212.5635" fill="none" stroke="#aaa" stroke-opacity="0.5"></path><path d="M162.438 37.7889L199.2112 223.2736" fill="none" stroke="#aaa" stroke-opacity="0.5"></path><path d="M113.4142 144.0505L309.8406 105.5333" fill="none" stroke="#aaa" stroke-opacity="0.5"></path><path d="M113.4142 144.0505L119.3304 82.9612" fill="none" stroke="#aaa" stroke-opacity="0.5"></path><path d="M259.5994 212.5635L143.2406 198.1084" fill="none" stroke="#aaa" stroke-opacity="0.5"></path><path d="M259.5994 212.5635L199.2112 223.2736" fill="none" stroke="#aaa" stroke-opacity="0.5"></path><path d="M211.6138 124.6386L259.5994 212.5635" fill="none" stroke="#aaa" stroke-opacity="0.5"></path><path d="M309.8406 105.5333L199.2112 223.2736" fill="none" stroke="#aaa" stroke-opacity="0.5"></path><path d="M211.6138 124.6386L309.8406 105.5333" fill="none" stroke="#aaa" stroke-opacity="0.5"></path><path d="M309.8406 105.5333L162.438 37.7889" fill="none" stroke="#aaa" stroke-opacity="0.5"></path><path d="M119.3304 82.9612L211.6138 124.6386" fill="none" stroke="#aaa" stroke-opacity="0.5"></path><path d="M119.3304 82.9612L143.2406 198.1084" fill="none" stroke="#aaa" stroke-opacity="0.5"></path><path d="M119.3304 82.9612L199.2112 223.2736" fill="none" stroke="#aaa" stroke-opacity="0.5"></path><path d="M143.2406 198.1084L199.2112 223.2736" fill="none" stroke="#aaa" stroke-opacity="0.5"></path><path d="M143.2406 198.1084L162.438 37.7889" fill="none" stroke="#aaa" stroke-opacity="0.5"></path><path d="M278.5736 52.712L211.6138 124.6386" fill="none" stroke="#aaa" stroke-opacity="0.5"></path><path d="M278.5736 52.712L143.2406 198.1084" fill="none" stroke="#aaa" stroke-opacity="0.5"></path><path d="M309.8406 105.5333L301.6439 167.0243" fill="none" stroke="#aaa" stroke-opacity="0.5"></path><path d="M113.4142 144.0505L211.6138 124.6386" fill="none" stroke="#aaa" stroke-opacity="0.5"></path><path d="M278.5736 52.712L113.4142 144.0505" fill="none" stroke="#aaa" stroke-opacity="0.5"></path><path d="M113.4142 144.0505L143.2406 198.1084" fill="none" stroke="#aaa" stroke-opacity="0.5"></path><path d="M278.5736 52.712L223.479 26.3458" fill="none" stroke="#aaa" stroke-opacity="0.5"></path><path d="M143.2406 198.1084L301.6439 167.0243" fill="none" stroke="#aaa" stroke-opacity="0.5"></path><path d="M113.4142 144.0505L223.479 26.3458" fill="none" stroke="#aaa" stroke-opacity="0.5"></path><path d="M223.479 26.3458L259.5994 212.5635" fill="none" stroke="#aaa" stroke-opacity="0.5"></path><path d="M309.8406 105.5333L259.5994 212.5635" fill="none" stroke="#aaa" stroke-opacity="0.5"></path><path d="M223.479 26.3458L309.8406 105.5333" fill="none" stroke="#aaa" stroke-opacity="0.5"></path><path d="M211.6138 124.6386L143.2406 198.1084" fill="none" stroke="#aaa" stroke-opacity="0.5"></path><path d="M211.6138 124.6386L199.2112 223.2736" fill="none" stroke="#aaa" stroke-opacity="0.5"></path><path d="M211.6138 124.6386L162.438 37.7889" fill="none" stroke="#aaa" stroke-opacity="0.5"></path><path d="M211.6138 124.6386L301.6439 167.0243" fill="none" stroke="#aaa" stroke-opacity="0.5"></path><path d="M223.479 26.3458L143.2406 198.1084" fill="none" stroke="#aaa" stroke-opacity="0.5"></path><path d="M309.8406 105.5333L143.2406 198.1084" fill="none" stroke="#aaa" stroke-opacity="0.5"></path><path d="M223.479 26.3458L199.2112 223.2736" fill="none" stroke="#aaa" stroke-opacity="0.5"></path><path d="M223.479 26.3458L162.438 37.7889" fill="none" stroke="#aaa" stroke-opacity="0.5"></path><path d="M259.5994 212.5635L162.438 37.7889" fill="none" stroke="#aaa" stroke-opacity="0.5"></path><path d="M119.3304 82.9612L223.479 26.3458" fill="none" stroke="#aaa" stroke-opacity="0.5"></path><path d="M119.3304 82.9612L162.438 37.7889" fill="none" stroke="#aaa" stroke-opacity="0.5"></path><path d="M223.479 26.3458L301.6439 167.0243" fill="none" stroke="#aaa" stroke-opacity="0.5"></path><path d="M278.5736 52.712L199.2112 223.2736" fill="none" stroke="#aaa" stroke-opacity="0.5"></path><path d="M278.5736 52.712L162.438 37.7889" fill="none" stroke="#aaa" stroke-opacity="0.5"></path><path d="M259.5994 212.5635L301.6439 167.0243" fill="none" stroke="#aaa" stroke-opacity="0.5"></path><path d="M1 0A1 1 0 1 1 1 -0.0001" fill="#5470c6" transform="matrix(18.5,0,0,18.5,301.6439,167.0243)"></path><path d="M1 0A1 1 0 1 1 1 -0.0001" fill="#5470c6" transform="matrix(18.5,0,0,18.5,259.5994,212.5635)"></path><path d="M1 0A1 1 0 1 1 1 -0.0001" fill="#5470c6" transform="matrix(18.5,0,0,18.5,199.2112,223.2736)"></path><path d="M1 0A1 1 0 1 1 1 -0.0001" fill="#5470c6" transform="matrix(18.5,0,0,18.5,143.2406,198.1084)"></path><path d="M1 0A1 1 0 1 1 1 -0.0001" fill="#5470c6" transform="matrix(18.5,0,0,18.5,211.6138,124.6386)"></path><path d="M1 0A1 1 0 1 1 1 -0.0001" fill="#5470c6" transform="matrix(18.5,0,0,18.5,113.4142,144.0505)"></path><path d="M1 0A1 1 0 1 1 1 -0.0001" fill="#5470c6" transform="matrix(18.5,0,0,18.5,119.3304,82.9612)"></path><path d="M1 0A1 1 0 1 1 1 -0.0001" fill="#5470c6" transform="matrix(18.5,0,0,18.5,162.438,37.7889)"></path><path d="M1 0A1 1 0 1 1 1 -0.0001" fill="#5470c6" transform="matrix(18.5,0,0,18.5,223.479,26.3458)"></path><path d="M1 0A1 1 0 1 1 1 -0.0001" fill="#5470c6" transform="matrix(18.5,0,0,18.5,278.5736,52.712)"></path><path d="M1 0A1 1 0 1 1 1 -0.0001" fill="#5470c6" transform="matrix(18.5,0,0,18.5,309.8406,105.5333)"></path><path d="M-26.0964 -5l52.1929 0l0 33l-52.1929 0Z" fill="rgb(0,0,0)" fill-opacity="0" stroke="#ccc" stroke-width="0" transform="translate(237.5 5)"></path><text dominant-baseline="central" fill="#333" style="font-size:23px;font-family:sans-serif;font-weight:bolder;" text-anchor="middle" transform="translate(237.5 5)" y="11.5">C54</text></g></svg>