<svg baseprofile="full" height="250" style="position:absolute;left:0;top:0;user-select:none" version="1.1" width="475" xmlns="http://www.w3.org/2000/svg" xmlns:xlink="http://www.w3.org/1999/xlink"><rect fill="none" height="250" id="0" width="475" x="0" y="0"></rect><g><path d="M127.9984 181.7238L183.0813 29.0881" fill="none" stroke="#aaa" stroke-opacity="0.5"></path><path d="M292.7595 69.3805L238.9716 222.7152" fill="none" stroke="#aaa" stroke-opacity="0.5"></path><path d="M178.4067 217.0691L238.9716 222.7152" fill="none" stroke="#aaa" stroke-opacity="0.5"></path><path d="M238.9716 222.7152L244.2817 30.8222" fill="none" stroke="#aaa" stroke-opacity="0.5"></path><path d="M292.7595 69.3805L288.2778 184.8553" fill="none" stroke="#aaa" stroke-opacity="0.5"></path><path d="M238.9716 222.7152L132.5101 63.7888" fill="none" stroke="#aaa" stroke-opacity="0.5"></path><path d="M288.2778 184.8553L244.2817 30.8222" fill="none" stroke="#aaa" stroke-opacity="0.5"></path><path d="M178.4067 217.0691L288.2778 184.8553" fill="none" stroke="#aaa" stroke-opacity="0.5"></path><path d="M288.2778 184.8553L211.5899 125.2196" fill="none" stroke="#aaa" stroke-opacity="0.5"></path><path d="M312.9632 128.0436L111.5443 122.2939" fill="none" stroke="#aaa" stroke-opacity="0.5"></path><path d="M127.9984 181.7238L238.9716 222.7152" fill="none" stroke="#aaa" stroke-opacity="0.5"></path><path d="M183.0813 29.0881L244.2817 30.8222" fill="none" stroke="#aaa" stroke-opacity="0.5"></path><path d="M292.7595 69.3805L211.5899 125.2196" fill="none" stroke="#aaa" stroke-opacity="0.5"></path><path d="M183.0813 29.0881L132.5101 63.7888" fill="none" stroke="#aaa" stroke-opacity="0.5"></path><path d="M178.4067 217.0691L211.5899 125.2196" fill="none" stroke="#aaa" stroke-opacity="0.5"></path><path d="M244.2817 30.8222L111.5443 122.2939" fill="none" stroke="#aaa" stroke-opacity="0.5"></path><path d="M127.9984 181.7238L288.2778 184.8553" fill="none" stroke="#aaa" stroke-opacity="0.5"></path><path d="M127.9984 181.7238L211.5899 125.2196" fill="none" stroke="#aaa" stroke-opacity="0.5"></path><path d="M288.2778 184.8553L183.0813 29.0881" fill="none" stroke="#aaa" stroke-opacity="0.5"></path><path d="M288.2778 184.8553L111.5443 122.2939" fill="none" stroke="#aaa" stroke-opacity="0.5"></path><path d="M292.7595 69.3805L111.5443 122.2939" fill="none" stroke="#aaa" stroke-opacity="0.5"></path><path d="M312.9632 128.0436L244.2817 30.8222" fill="none" stroke="#aaa" stroke-opacity="0.5"></path><path d="M178.4067 217.0691L111.5443 122.2939" fill="none" stroke="#aaa" stroke-opacity="0.5"></path><path d="M312.9632 128.0436L132.5101 63.7888" fill="none" stroke="#aaa" stroke-opacity="0.5"></path><path d="M211.5899 125.2196L111.5443 122.2939" fill="none" stroke="#aaa" stroke-opacity="0.5"></path><path d="M244.2817 30.8222L132.5101 63.7888" fill="none" stroke="#aaa" stroke-opacity="0.5"></path><path d="M127.9984 181.7238L111.5443 122.2939" fill="none" stroke="#aaa" stroke-opacity="0.5"></path><path d="M312.9632 128.0436L183.0813 29.0881" fill="none" stroke="#aaa" stroke-opacity="0.5"></path><path d="M238.9716 222.7152L211.5899 125.2196" fill="none" stroke="#aaa" stroke-opacity="0.5"></path><path d="M288.2778 184.8553L132.5101 63.7888" fill="none" stroke="#aaa" stroke-opacity="0.5"></path><path d="M292.7595 69.3805L244.2817 30.8222" fill="none" stroke="#aaa" stroke-opacity="0.5"></path><path d="M292.7595 69.3805L178.4067 217.0691" fill="none" stroke="#aaa" stroke-opacity="0.5"></path><path d="M292.7595 69.3805L312.9632 128.0436" fill="none" stroke="#aaa" stroke-opacity="0.5"></path><path d="M111.5443 122.2939L132.5101 63.7888" fill="none" stroke="#aaa" stroke-opacity="0.5"></path><path d="M292.7595 69.3805L132.5101 63.7888" fill="none" stroke="#aaa" stroke-opacity="0.5"></path><path d="M178.4067 217.0691L244.2817 30.8222" fill="none" stroke="#aaa" stroke-opacity="0.5"></path><path d="M178.4067 217.0691L312.9632 128.0436" fill="none" stroke="#aaa" stroke-opacity="0.5"></path><path d="M211.5899 125.2196L244.2817 30.8222" fill="none" stroke="#aaa" stroke-opacity="0.5"></path><path d="M183.0813 29.0881L211.5899 125.2196" fill="none" stroke="#aaa" stroke-opacity="0.5"></path><path d="M178.4067 217.0691L132.5101 63.7888" fill="none" stroke="#aaa" stroke-opacity="0.5"></path><path d="M211.5899 125.2196L132.5101 63.7888" fill="none" stroke="#aaa" stroke-opacity="0.5"></path><path d="M312.9632 128.0436L238.9716 222.7152" fill="none" stroke="#aaa" stroke-opacity="0.5"></path><path d="M127.9984 181.7238L292.7595 69.3805" fill="none" stroke="#aaa" stroke-opacity="0.5"></path><path d="M127.9984 181.7238L244.2817 30.8222" fill="none" stroke="#aaa" stroke-opacity="0.5"></path><path d="M127.9984 181.7238L178.4067 217.0691" fill="none" stroke="#aaa" stroke-opacity="0.5"></path><path d="M127.9984 181.7238L312.9632 128.0436" fill="none" stroke="#aaa" stroke-opacity="0.5"></path><path d="M238.9716 222.7152L183.0813 29.0881" fill="none" stroke="#aaa" stroke-opacity="0.5"></path><path d="M238.9716 222.7152L111.5443 122.2939" fill="none" stroke="#aaa" stroke-opacity="0.5"></path><path d="M127.9984 181.7238L132.5101 63.7888" fill="none" stroke="#aaa" stroke-opacity="0.5"></path><path d="M312.9632 128.0436L288.2778 184.8553" fill="none" stroke="#aaa" stroke-opacity="0.5"></path><path d="M292.7595 69.3805L183.0813 29.0881" fill="none" stroke="#aaa" stroke-opacity="0.5"></path><path d="M178.4067 217.0691L183.0813 29.0881" fill="none" stroke="#aaa" stroke-opacity="0.5"></path><path d="M183.0813 29.0881L111.5443 122.2939" fill="none" stroke="#aaa" stroke-opacity="0.5"></path><path d="M312.9632 128.0436L211.5899 125.2196" fill="none" stroke="#aaa" stroke-opacity="0.5"></path><path d="M288.2778 184.8553L238.9716 222.7152" fill="none" stroke="#aaa" stroke-opacity="0.5"></path><path d="M1 0A1 1 0 1 1 1 -0.0001" fill="#5470c6" transform="matrix(18.5,0,0,18.5,211.5899,125.2196)"></path><path d="M1 0A1 1 0 1 1 1 -0.0001" fill="#5470c6" transform="matrix(18.5,0,0,18.5,288.2778,184.8553)"></path><path d="M1 0A1 1 0 1 1 1 -0.0001" fill="#5470c6" transform="matrix(18.5,0,0,18.5,238.9716,222.7152)"></path><path d="M1 0A1 1 0 1 1 1 -0.0001" fill="#5470c6" transform="matrix(18.5,0,0,18.5,178.4067,217.0691)"></path><path d="M1 0A1 1 0 1 1 1 -0.0001" fill="#5470c6" transform="matrix(18.5,0,0,18.5,127.9984,181.7238)"></path><path d="M1 0A1 1 0 1 1 1 -0.0001" fill="#5470c6" transform="matrix(18.5,0,0,18.5,111.5443,122.2939)"></path><path d="M1 0A1 1 0 1 1 1 -0.0001" fill="#5470c6" transform="matrix(18.5,0,0,18.5,132.5101,63.7888)"></path><path d="M1 0A1 1 0 1 1 1 -0.0001" fill="#5470c6" transform="matrix(18.5,0,0,18.5,183.0813,29.0881)"></path><path d="M1 0A1 1 0 1 1 1 -0.0001" fill="#5470c6" transform="matrix(18.5,0,0,18.5,244.2817,30.8222)"></path><path d="M1 0A1 1 0 1 1 1 -0.0001" fill="#5470c6" transform="matrix(18.5,0,0,18.5,292.7595,69.3805)"></path><path d="M1 0A1 1 0 1 1 1 -0.0001" fill="#5470c6" transform="matrix(18.5,0,0,18.5,312.9632,128.0436)"></path><path d="M-26.0964 -5l52.1929 0l0 33l-52.1929 0Z" fill="rgb(0,0,0)" fill-opacity="0" stroke="#ccc" stroke-width="0" transform="translate(237.5 5)"></path><text dominant-baseline="central" fill="#333" style="font-size:23px;font-family:sans-serif;font-weight:bolder;" text-anchor="middle" transform="translate(237.5 5)" y="11.5">C55</text></g></svg>