<svg baseprofile="full" height="250" style="position:absolute;left:0;top:0;user-select:none" version="1.1" width="475" xmlns="http://www.w3.org/2000/svg" xmlns:xlink="http://www.w3.org/1999/xlink"><rect fill="none" height="250" id="0" width="475" x="0" y="0"></rect><g><path d="M175.5534 126.3137L115.6476 170.4272" fill="none" stroke="#aaa" stroke-opacity="0.5"></path><path d="M157.3797 38.3035L281.7742 51.1159" fill="none" stroke="#aaa" stroke-opacity="0.5"></path><path d="M221.7224 23.5687L168.0364 217.2226" fill="none" stroke="#aaa" stroke-opacity="0.5"></path><path d="M247.2343 126.2007L317.3369 115.8989" fill="none" stroke="#aaa" stroke-opacity="0.5"></path><path d="M247.2343 126.2007L233.2938 223.7113" fill="none" stroke="#aaa" stroke-opacity="0.5"></path><path d="M168.0364 217.2226L317.3369 115.8989" fill="none" stroke="#aaa" stroke-opacity="0.5"></path><path d="M293.3464 190.5097L168.0364 217.2226" fill="none" stroke="#aaa" stroke-opacity="0.5"></path><path d="M247.2343 126.2007L168.0364 217.2226" fill="none" stroke="#aaa" stroke-opacity="0.5"></path><path d="M293.3464 190.5097L221.7224 23.5687" fill="none" stroke="#aaa" stroke-opacity="0.5"></path><path d="M115.6476 170.4272L233.2938 223.7113" fill="none" stroke="#aaa" stroke-opacity="0.5"></path><path d="M175.5534 126.3137L233.2938 223.7113" fill="none" stroke="#aaa" stroke-opacity="0.5"></path><path d="M247.2343 126.2007L221.7224 23.5687" fill="none" stroke="#aaa" stroke-opacity="0.5"></path><path d="M115.6476 170.4272L168.0364 217.2226" fill="none" stroke="#aaa" stroke-opacity="0.5"></path><path d="M281.7742 51.1159L233.2938 223.7113" fill="none" stroke="#aaa" stroke-opacity="0.5"></path><path d="M317.3369 115.8989L281.7742 51.1159" fill="none" stroke="#aaa" stroke-opacity="0.5"></path><path d="M221.7224 23.5687L281.7742 51.1159" fill="none" stroke="#aaa" stroke-opacity="0.5"></path><path d="M157.3797 38.3035L111.0595 91.7277" fill="none" stroke="#aaa" stroke-opacity="0.5"></path><path d="M111.0595 91.7277L233.2938 223.7113" fill="none" stroke="#aaa" stroke-opacity="0.5"></path><path d="M247.2343 126.2007L281.7742 51.1159" fill="none" stroke="#aaa" stroke-opacity="0.5"></path><path d="M111.0595 91.7277L168.0364 217.2226" fill="none" stroke="#aaa" stroke-opacity="0.5"></path><path d="M115.6476 170.4272L281.7742 51.1159" fill="none" stroke="#aaa" stroke-opacity="0.5"></path><path d="M293.3464 190.5097L115.6476 170.4272" fill="none" stroke="#aaa" stroke-opacity="0.5"></path><path d="M175.5534 126.3137L281.7742 51.1159" fill="none" stroke="#aaa" stroke-opacity="0.5"></path><path d="M157.3797 38.3035L293.3464 190.5097" fill="none" stroke="#aaa" stroke-opacity="0.5"></path><path d="M221.7224 23.5687L111.0595 91.7277" fill="none" stroke="#aaa" stroke-opacity="0.5"></path><path d="M293.3464 190.5097L175.5534 126.3137" fill="none" stroke="#aaa" stroke-opacity="0.5"></path><path d="M221.7224 23.5687L233.2938 223.7113" fill="none" stroke="#aaa" stroke-opacity="0.5"></path><path d="M247.2343 126.2007L111.0595 91.7277" fill="none" stroke="#aaa" stroke-opacity="0.5"></path><path d="M111.0595 91.7277L281.7742 51.1159" fill="none" stroke="#aaa" stroke-opacity="0.5"></path><path d="M293.3464 190.5097L233.2938 223.7113" fill="none" stroke="#aaa" stroke-opacity="0.5"></path><path d="M168.0364 217.2226L233.2938 223.7113" fill="none" stroke="#aaa" stroke-opacity="0.5"></path><path d="M115.6476 170.4272L317.3369 115.8989" fill="none" stroke="#aaa" stroke-opacity="0.5"></path><path d="M115.6476 170.4272L111.0595 91.7277" fill="none" stroke="#aaa" stroke-opacity="0.5"></path><path d="M175.5534 126.3137L317.3369 115.8989" fill="none" stroke="#aaa" stroke-opacity="0.5"></path><path d="M175.5534 126.3137L111.0595 91.7277" fill="none" stroke="#aaa" stroke-opacity="0.5"></path><path d="M157.3797 38.3035L115.6476 170.4272" fill="none" stroke="#aaa" stroke-opacity="0.5"></path><path d="M175.5534 126.3137L168.0364 217.2226" fill="none" stroke="#aaa" stroke-opacity="0.5"></path><path d="M157.3797 38.3035L247.2343 126.2007" fill="none" stroke="#aaa" stroke-opacity="0.5"></path><path d="M247.2343 126.2007L293.3464 190.5097" fill="none" stroke="#aaa" stroke-opacity="0.5"></path><path d="M157.3797 38.3035L175.5534 126.3137" fill="none" stroke="#aaa" stroke-opacity="0.5"></path><path d="M111.0595 91.7277L317.3369 115.8989" fill="none" stroke="#aaa" stroke-opacity="0.5"></path><path d="M157.3797 38.3035L317.3369 115.8989" fill="none" stroke="#aaa" stroke-opacity="0.5"></path><path d="M293.3464 190.5097L281.7742 51.1159" fill="none" stroke="#aaa" stroke-opacity="0.5"></path><path d="M157.3797 38.3035L233.2938 223.7113" fill="none" stroke="#aaa" stroke-opacity="0.5"></path><path d="M168.0364 217.2226L281.7742 51.1159" fill="none" stroke="#aaa" stroke-opacity="0.5"></path><path d="M157.3797 38.3035L168.0364 217.2226" fill="none" stroke="#aaa" stroke-opacity="0.5"></path><path d="M221.7224 23.5687L115.6476 170.4272" fill="none" stroke="#aaa" stroke-opacity="0.5"></path><path d="M157.3797 38.3035L221.7224 23.5687" fill="none" stroke="#aaa" stroke-opacity="0.5"></path><path d="M247.2343 126.2007L115.6476 170.4272" fill="none" stroke="#aaa" stroke-opacity="0.5"></path><path d="M221.7224 23.5687L175.5534 126.3137" fill="none" stroke="#aaa" stroke-opacity="0.5"></path><path d="M317.3369 115.8989L233.2938 223.7113" fill="none" stroke="#aaa" stroke-opacity="0.5"></path><path d="M221.7224 23.5687L317.3369 115.8989" fill="none" stroke="#aaa" stroke-opacity="0.5"></path><path d="M247.2343 126.2007L175.5534 126.3137" fill="none" stroke="#aaa" stroke-opacity="0.5"></path><path d="M293.3464 190.5097L317.3369 115.8989" fill="none" stroke="#aaa" stroke-opacity="0.5"></path><path d="M293.3464 190.5097L111.0595 91.7277" fill="none" stroke="#aaa" stroke-opacity="0.5"></path><path d="M1 0A1 1 0 1 1 1 -0.0001" fill="#5470c6" transform="matrix(18.5,0,0,18.5,317.3369,115.8989)"></path><path d="M1 0A1 1 0 1 1 1 -0.0001" fill="#5470c6" transform="matrix(18.5,0,0,18.5,293.3464,190.5097)"></path><path d="M1 0A1 1 0 1 1 1 -0.0001" fill="#5470c6" transform="matrix(18.5,0,0,18.5,233.2938,223.7113)"></path><path d="M1 0A1 1 0 1 1 1 -0.0001" fill="#5470c6" transform="matrix(18.5,0,0,18.5,168.0364,217.2226)"></path><path d="M1 0A1 1 0 1 1 1 -0.0001" fill="#5470c6" transform="matrix(18.5,0,0,18.5,115.6476,170.4272)"></path><path d="M1 0A1 1 0 1 1 1 -0.0001" fill="#5470c6" transform="matrix(18.5,0,0,18.5,175.5534,126.3137)"></path><path d="M1 0A1 1 0 1 1 1 -0.0001" fill="#5470c6" transform="matrix(18.5,0,0,18.5,111.0595,91.7277)"></path><path d="M1 0A1 1 0 1 1 1 -0.0001" fill="#5470c6" transform="matrix(18.5,0,0,18.5,157.3797,38.3035)"></path><path d="M1 0A1 1 0 1 1 1 -0.0001" fill="#5470c6" transform="matrix(18.5,0,0,18.5,221.7224,23.5687)"></path><path d="M1 0A1 1 0 1 1 1 -0.0001" fill="#5470c6" transform="matrix(18.5,0,0,18.5,281.7742,51.1159)"></path><path d="M1 0A1 1 0 1 1 1 -0.0001" fill="#5470c6" transform="matrix(18.5,0,0,18.5,247.2343,126.2007)"></path><path d="M-26.0964 -5l52.1929 0l0 33l-52.1929 0Z" fill="rgb(0,0,0)" fill-opacity="0" stroke="#ccc" stroke-width="0" transform="translate(237.5 5)"></path><text dominant-baseline="central" fill="#333" style="font-size:23px;font-family:sans-serif;font-weight:bolder;" text-anchor="middle" transform="translate(237.5 5)" y="11.5">C56</text></g></svg>