<svg baseprofile="full" height="250" style="position:absolute;left:0;top:0;user-select:none" version="1.1" width="475" xmlns="http://www.w3.org/2000/svg" xmlns:xlink="http://www.w3.org/1999/xlink"><rect fill="none" height="250" id="0" width="475" x="0" y="0"></rect><g><path d="M201.1771 55.669L154.6108 46.6956" fill="none" stroke="#aaa" stroke-opacity="0.5" stroke-width="0.5"></path><path d="M299.96 154.0146L290.777 98.0217" fill="none" stroke="#aaa" stroke-opacity="0.5" stroke-width="0.5"></path><path d="M115.3858 141.4564L127.674 173.414" fill="none" stroke="#aaa" stroke-opacity="0.5" stroke-width="0.5"></path><path d="M115.9695 106.8466L127.674 173.414" fill="none" stroke="#aaa" stroke-opacity="0.5" stroke-width="0.5"></path><path d="M115.3858 141.4564L156.5921 132.3548" fill="none" stroke="#aaa" stroke-opacity="0.5" stroke-width="0.5"></path><path d="M299.96 154.0146L115.9695 106.8466" fill="none" stroke="#aaa" stroke-opacity="0.5" stroke-width="0.5"></path><path d="M115.9695 106.8466L156.5921 132.3548" fill="none" stroke="#aaa" stroke-opacity="0.5" stroke-width="0.5"></path><path d="M173.1056 168.6511L127.674 173.414" fill="none" stroke="#aaa" stroke-opacity="0.5" stroke-width="0.5"></path><path d="M173.1056 168.6511L156.5921 132.3548" fill="none" stroke="#aaa" stroke-opacity="0.5" stroke-width="0.5"></path><path d="M161.0147 89.7767L188.5151 27.4107" fill="none" stroke="#aaa" stroke-opacity="0.5" stroke-width="0.5"></path><path d="M127.5545 72.1265L115.9695 106.8466" fill="none" stroke="#aaa" stroke-opacity="0.5" stroke-width="0.5"></path><path d="M290.777 98.0217L244.5814 76.4816" fill="none" stroke="#aaa" stroke-opacity="0.5" stroke-width="0.5"></path><path d="M299.96 154.0146L204.1544 97.8636" fill="none" stroke="#aaa" stroke-opacity="0.5" stroke-width="0.5"></path><path d="M201.1771 55.669L156.5921 132.3548" fill="none" stroke="#aaa" stroke-opacity="0.5" stroke-width="0.5"></path><path d="M288.8294 188.4177L217.2181 142.3989" fill="none" stroke="#aaa" stroke-opacity="0.5" stroke-width="0.5"></path><path d="M288.8294 188.4177L173.1056 168.6511" fill="none" stroke="#aaa" stroke-opacity="0.5" stroke-width="0.5"></path><path d="M180.6504 216.1596L173.1056 168.6511" fill="none" stroke="#aaa" stroke-opacity="0.5" stroke-width="0.5"></path><path d="M115.3858 141.4564L292.7811 67.1782" fill="none" stroke="#aaa" stroke-opacity="0.5" stroke-width="0.5"></path><path d="M115.3858 141.4564L264.6649 44.3917" fill="none" stroke="#aaa" stroke-opacity="0.5" stroke-width="0.5"></path><path d="M115.9695 106.8466L292.7811 67.1782" fill="none" stroke="#aaa" stroke-opacity="0.5" stroke-width="0.5"></path><path d="M149.6998 201.234L217.2181 142.3989" fill="none" stroke="#aaa" stroke-opacity="0.5" stroke-width="0.5"></path><path d="M180.6504 216.1596L244.5814 76.4816" fill="none" stroke="#aaa" stroke-opacity="0.5" stroke-width="0.5"></path><path d="M149.6998 201.234L173.1056 168.6511" fill="none" stroke="#aaa" stroke-opacity="0.5" stroke-width="0.5"></path><path d="M288.8294 188.4177L127.5545 72.1265" fill="none" stroke="#aaa" stroke-opacity="0.5" stroke-width="0.5"></path><path d="M161.0147 89.7767L201.1771 55.669" fill="none" stroke="#aaa" stroke-opacity="0.5" stroke-width="0.5"></path><path d="M311.6867 122.1486L259.1466 124.2621" fill="none" stroke="#aaa" stroke-opacity="0.5" stroke-width="0.5"></path><path d="M149.6998 201.234L127.5545 72.1265" fill="none" stroke="#aaa" stroke-opacity="0.5" stroke-width="0.5"></path><path d="M264.6649 44.3917L211.8616 188.4139" fill="none" stroke="#aaa" stroke-opacity="0.5" stroke-width="0.5"></path><path d="M127.674 173.414L154.6108 46.6956" fill="none" stroke="#aaa" stroke-opacity="0.5" stroke-width="0.5"></path><path d="M290.777 98.0217L149.6998 201.234" fill="none" stroke="#aaa" stroke-opacity="0.5" stroke-width="0.5"></path><path d="M290.777 98.0217L154.6108 46.6956" fill="none" stroke="#aaa" stroke-opacity="0.5" stroke-width="0.5"></path><path d="M217.2181 142.3989L127.674 173.414" fill="none" stroke="#aaa" stroke-opacity="0.5" stroke-width="0.5"></path><path d="M299.96 154.0146L211.8616 188.4139" fill="none" stroke="#aaa" stroke-opacity="0.5" stroke-width="0.5"></path><path d="M217.2181 142.3989L156.5921 132.3548" fill="none" stroke="#aaa" stroke-opacity="0.5" stroke-width="0.5"></path><path d="M127.5545 72.1265L259.1466 124.2621" fill="none" stroke="#aaa" stroke-opacity="0.5" stroke-width="0.5"></path><path d="M173.1056 168.6511L218.215 223.613" fill="none" stroke="#aaa" stroke-opacity="0.5" stroke-width="0.5"></path><path d="M156.5921 132.3548L154.6108 46.6956" fill="none" stroke="#aaa" stroke-opacity="0.5" stroke-width="0.5"></path><path d="M180.6504 216.1596L149.6998 201.234" fill="none" stroke="#aaa" stroke-opacity="0.5" stroke-width="0.5"></path><path d="M290.777 98.0217L127.674 173.414" fill="none" stroke="#aaa" stroke-opacity="0.5" stroke-width="0.5"></path><path d="M290.777 98.0217L156.5921 132.3548" fill="none" stroke="#aaa" stroke-opacity="0.5" stroke-width="0.5"></path><path d="M115.3858 141.4564L188.5151 27.4107" fill="none" stroke="#aaa" stroke-opacity="0.5" stroke-width="0.5"></path><path d="M115.9695 106.8466L188.5151 27.4107" fill="none" stroke="#aaa" stroke-opacity="0.5" stroke-width="0.5"></path><path d="M311.6867 122.1486L173.1056 168.6511" fill="none" stroke="#aaa" stroke-opacity="0.5" stroke-width="0.5"></path><path d="M311.6867 122.1486L244.5814 76.4816" fill="none" stroke="#aaa" stroke-opacity="0.5" stroke-width="0.5"></path><path d="M180.6504 216.1596L127.674 173.414" fill="none" stroke="#aaa" stroke-opacity="0.5" stroke-width="0.5"></path><path d="M201.1771 55.669L188.5151 27.4107" fill="none" stroke="#aaa" stroke-opacity="0.5" stroke-width="0.5"></path><path d="M180.6504 216.1596L156.5921 132.3548" fill="none" stroke="#aaa" stroke-opacity="0.5" stroke-width="0.5"></path><path d="M292.7811 67.1782L154.6108 46.6956" fill="none" stroke="#aaa" stroke-opacity="0.5" stroke-width="0.5"></path><path d="M149.6998 201.234L127.674 173.414" fill="none" stroke="#aaa" stroke-opacity="0.5" stroke-width="0.5"></path><path d="M290.777 98.0217L292.7811 67.1782" fill="none" stroke="#aaa" stroke-opacity="0.5" stroke-width="0.5"></path><path d="M290.777 98.0217L264.6649 44.3917" fill="none" stroke="#aaa" stroke-opacity="0.5" stroke-width="0.5"></path><path d="M149.6998 201.234L156.5921 132.3548" fill="none" stroke="#aaa" stroke-opacity="0.5" stroke-width="0.5"></path><path d="M244.5814 76.4816L256.171 172.2853" fill="none" stroke="#aaa" stroke-opacity="0.5" stroke-width="0.5"></path><path d="M127.674 173.414L232.1232 28.8067" fill="none" stroke="#aaa" stroke-opacity="0.5" stroke-width="0.5"></path><path d="M256.171 172.2853L154.6108 46.6956" fill="none" stroke="#aaa" stroke-opacity="0.5" stroke-width="0.5"></path><path d="M259.1466 124.2621L156.5921 132.3548" fill="none" stroke="#aaa" stroke-opacity="0.5" stroke-width="0.5"></path><path d="M127.5545 72.1265L173.1056 168.6511" fill="none" stroke="#aaa" stroke-opacity="0.5" stroke-width="0.5"></path><path d="M180.6504 216.1596L292.7811 67.1782" fill="none" stroke="#aaa" stroke-opacity="0.5" stroke-width="0.5"></path><path d="M244.5814 76.4816L115.9695 106.8466" fill="none" stroke="#aaa" stroke-opacity="0.5" stroke-width="0.5"></path><path d="M211.8616 188.4139L259.1466 124.2621" fill="none" stroke="#aaa" stroke-opacity="0.5" stroke-width="0.5"></path><path d="M156.5921 132.3548L232.1232 28.8067" fill="none" stroke="#aaa" stroke-opacity="0.5" stroke-width="0.5"></path><path d="M161.0147 89.7767L256.2791 214.9075" fill="none" stroke="#aaa" stroke-opacity="0.5" stroke-width="0.5"></path><path d="M204.1544 97.8636L154.6108 46.6956" fill="none" stroke="#aaa" stroke-opacity="0.5" stroke-width="0.5"></path><path d="M311.6867 122.1486L149.6998 201.234" fill="none" stroke="#aaa" stroke-opacity="0.5" stroke-width="0.5"></path><path d="M264.6649 44.3917L154.6108 46.6956" fill="none" stroke="#aaa" stroke-opacity="0.5" stroke-width="0.5"></path><path d="M180.6504 216.1596L311.6867 122.1486" fill="none" stroke="#aaa" stroke-opacity="0.5" stroke-width="0.5"></path><path d="M217.2181 142.3989L188.5151 27.4107" fill="none" stroke="#aaa" stroke-opacity="0.5" stroke-width="0.5"></path><path d="M292.7811 67.1782L232.1232 28.8067" fill="none" stroke="#aaa" stroke-opacity="0.5" stroke-width="0.5"></path><path d="M311.6867 122.1486L127.674 173.414" fill="none" stroke="#aaa" stroke-opacity="0.5" stroke-width="0.5"></path><path d="M311.6867 122.1486L156.5921 132.3548" fill="none" stroke="#aaa" stroke-opacity="0.5" stroke-width="0.5"></path><path d="M288.8294 188.4177L218.215 223.613" fill="none" stroke="#aaa" stroke-opacity="0.5" stroke-width="0.5"></path><path d="M290.777 98.0217L188.5151 27.4107" fill="none" stroke="#aaa" stroke-opacity="0.5" stroke-width="0.5"></path><path d="M256.171 172.2853L232.1232 28.8067" fill="none" stroke="#aaa" stroke-opacity="0.5" stroke-width="0.5"></path><path d="M299.96 154.0146L154.6108 46.6956" fill="none" stroke="#aaa" stroke-opacity="0.5" stroke-width="0.5"></path><path d="M211.8616 188.4139L217.2181 142.3989" fill="none" stroke="#aaa" stroke-opacity="0.5" stroke-width="0.5"></path><path d="M211.8616 188.4139L173.1056 168.6511" fill="none" stroke="#aaa" stroke-opacity="0.5" stroke-width="0.5"></path><path d="M149.6998 201.234L218.215 223.613" fill="none" stroke="#aaa" stroke-opacity="0.5" stroke-width="0.5"></path><path d="M218.215 223.613L232.1232 28.8067" fill="none" stroke="#aaa" stroke-opacity="0.5" stroke-width="0.5"></path><path d="M156.5921 132.3548L188.5151 27.4107" fill="none" stroke="#aaa" stroke-opacity="0.5" stroke-width="0.5"></path><path d="M180.6504 216.1596L188.5151 27.4107" fill="none" stroke="#aaa" stroke-opacity="0.5" stroke-width="0.5"></path><path d="M127.674 173.414L201.1771 55.669" fill="none" stroke="#aaa" stroke-opacity="0.5" stroke-width="0.5"></path><path d="M259.1466 124.2621L218.215 223.613" fill="none" stroke="#aaa" stroke-opacity="0.5" stroke-width="0.5"></path><path d="M204.1544 97.8636L292.7811 67.1782" fill="none" stroke="#aaa" stroke-opacity="0.5" stroke-width="0.5"></path><path d="M290.777 98.0217L201.1771 55.669" fill="none" stroke="#aaa" stroke-opacity="0.5" stroke-width="0.5"></path><path d="M264.6649 44.3917L292.7811 67.1782" fill="none" stroke="#aaa" stroke-opacity="0.5" stroke-width="0.5"></path><path d="M127.5 72.1265L127.5 173.414" fill="none" stroke="#aaa" stroke-opacity="0.5" stroke-width="0.5"></path><path d="M259.1466 124.2621L188.5151 27.4107" fill="none" stroke="#aaa" stroke-opacity="0.5" stroke-width="0.5"></path><path d="M127.5545 72.1265L156.5921 132.3548" fill="none" stroke="#aaa" stroke-opacity="0.5" stroke-width="0.5"></path><path d="M204.1544 97.8636L232.1232 28.8067" fill="none" stroke="#aaa" stroke-opacity="0.5" stroke-width="0.5"></path><path d="M161.0147 89.7767L204.1544 97.8636" fill="none" stroke="#aaa" stroke-opacity="0.5" stroke-width="0.5"></path><path d="M292.7811 67.1782L188.5151 27.4107" fill="none" stroke="#aaa" stroke-opacity="0.5" stroke-width="0.5"></path><path d="M264.6649 44.3917L232.1232 28.8067" fill="none" stroke="#aaa" stroke-opacity="0.5" stroke-width="0.5"></path><path d="M115.3858 141.4564L256.2791 214.9075" fill="none" stroke="#aaa" stroke-opacity="0.5" stroke-width="0.5"></path><path d="M115.9695 106.8466L256.2791 214.9075" fill="none" stroke="#aaa" stroke-opacity="0.5" stroke-width="0.5"></path><path d="M299.96 154.0146L292.7811 67.1782" fill="none" stroke="#aaa" stroke-opacity="0.5" stroke-width="0.5"></path><path d="M299.96 154.0146L264.6649 44.3917" fill="none" stroke="#aaa" stroke-opacity="0.5" stroke-width="0.5"></path><path d="M127.5545 72.1265L292.7811 67.1782" fill="none" stroke="#aaa" stroke-opacity="0.5" stroke-width="0.5"></path><path d="M201.1771 55.669L256.2791 214.9075" fill="none" stroke="#aaa" stroke-opacity="0.5" stroke-width="0.5"></path><path d="M299.96 154.0146L232.1232 28.8067" fill="none" stroke="#aaa" stroke-opacity="0.5" stroke-width="0.5"></path><path d="M292.7811 67.1782L201.1771 55.669" fill="none" stroke="#aaa" stroke-opacity="0.5" stroke-width="0.5"></path><path d="M256.171 172.2853L201.1771 55.669" fill="none" stroke="#aaa" stroke-opacity="0.5" stroke-width="0.5"></path><path d="M204.1544 97.8636L188.5151 27.4107" fill="none" stroke="#aaa" stroke-opacity="0.5" stroke-width="0.5"></path><path d="M311.6867 122.1486L188.5151 27.4107" fill="none" stroke="#aaa" stroke-opacity="0.5" stroke-width="0.5"></path><path d="M115.9695 106.8466L256.171 172.2853" fill="none" stroke="#aaa" stroke-opacity="0.5" stroke-width="0.5"></path><path d="M211.8616 188.4139L127.674 173.414" fill="none" stroke="#aaa" stroke-opacity="0.5" stroke-width="0.5"></path><path d="M256.171 172.2853L218.215 223.613" fill="none" stroke="#aaa" stroke-opacity="0.5" stroke-width="0.5"></path><path d="M264.6649 44.3917L188.5151 27.4107" fill="none" stroke="#aaa" stroke-opacity="0.5" stroke-width="0.5"></path><path d="M173.1056 168.6511L256.171 172.2853" fill="none" stroke="#aaa" stroke-opacity="0.5" stroke-width="0.5"></path><path d="M211.8616 188.4139L156.5921 132.3548" fill="none" stroke="#aaa" stroke-opacity="0.5" stroke-width="0.5"></path><path d="M161.0147 89.7767L211.8616 188.4139" fill="none" stroke="#aaa" stroke-opacity="0.5" stroke-width="0.5"></path><path d="M204.1544 97.8636L201.1771 55.669" fill="none" stroke="#aaa" stroke-opacity="0.5" stroke-width="0.5"></path><path d="M299.96 154.0146L188.5151 27.4107" fill="none" stroke="#aaa" stroke-opacity="0.5" stroke-width="0.5"></path><path d="M173.1056 168.6511L115.9695 106.8466" fill="none" stroke="#aaa" stroke-opacity="0.5" stroke-width="0.5"></path><path d="M264.6649 44.3917L201.1771 55.669" fill="none" stroke="#aaa" stroke-opacity="0.5" stroke-width="0.5"></path><path d="M115.3858 141.4564L204.1544 97.8636" fill="none" stroke="#aaa" stroke-opacity="0.5" stroke-width="0.5"></path><path d="M217.2181 142.3989L256.2791 214.9075" fill="none" stroke="#aaa" stroke-opacity="0.5" stroke-width="0.5"></path><path d="M127.5545 72.1265L188.5151 27.4107" fill="none" stroke="#aaa" stroke-opacity="0.5" stroke-width="0.5"></path><path d="M127.674 173.414L256.2791 214.9075" fill="none" stroke="#aaa" stroke-opacity="0.5" stroke-width="0.5"></path><path d="M290.777 98.0217L256.2791 214.9075" fill="none" stroke="#aaa" stroke-opacity="0.5" stroke-width="0.5"></path><path d="M244.5814 76.4816L149.6998 201.234" fill="none" stroke="#aaa" stroke-opacity="0.5" stroke-width="0.5"></path><path d="M299.96 154.0146L201.1771 55.669" fill="none" stroke="#aaa" stroke-opacity="0.5" stroke-width="0.5"></path><path d="M244.5814 76.4816L154.6108 46.6956" fill="none" stroke="#aaa" stroke-opacity="0.5" stroke-width="0.5"></path><path d="M161.0147 89.7767L259.1466 124.2621" fill="none" stroke="#aaa" stroke-opacity="0.5" stroke-width="0.5"></path><path d="M180.6504 216.1596L256.2791 214.9075" fill="none" stroke="#aaa" stroke-opacity="0.5" stroke-width="0.5"></path><path d="M244.5814 76.4816L127.674 173.414" fill="none" stroke="#aaa" stroke-opacity="0.5" stroke-width="0.5"></path><path d="M244.5814 76.4816L156.5921 132.3548" fill="none" stroke="#aaa" stroke-opacity="0.5" stroke-width="0.5"></path><path d="M217.2181 142.3989L256.171 172.2853" fill="none" stroke="#aaa" stroke-opacity="0.5" stroke-width="0.5"></path><path d="M211.8616 188.4139L218.215 223.613" fill="none" stroke="#aaa" stroke-opacity="0.5" stroke-width="0.5"></path><path d="M188.5151 27.4107L218.215 223.613" fill="none" stroke="#aaa" stroke-opacity="0.5" stroke-width="0.5"></path><path d="M292.7811 67.1782L256.2791 214.9075" fill="none" stroke="#aaa" stroke-opacity="0.5" stroke-width="0.5"></path><path d="M115.3858 141.4564L211.8616 188.4139" fill="none" stroke="#aaa" stroke-opacity="0.5" stroke-width="0.5"></path><path d="M244.5814 76.4816L292.7811 67.1782" fill="none" stroke="#aaa" stroke-opacity="0.5" stroke-width="0.5"></path><path d="M244.5814 76.4816L264.6649 44.3917" fill="none" stroke="#aaa" stroke-opacity="0.5" stroke-width="0.5"></path><path d="M211.8616 188.4139L188.5151 27.4107" fill="none" stroke="#aaa" stroke-opacity="0.5" stroke-width="0.5"></path><path d="M288.8294 188.4177L256.171 172.2853" fill="none" stroke="#aaa" stroke-opacity="0.5" stroke-width="0.5"></path><path d="M180.6504 216.1596L256.171 172.2853" fill="none" stroke="#aaa" stroke-opacity="0.5" stroke-width="0.5"></path><path d="M256.2791 214.9075L154.6108 46.6956" fill="none" stroke="#aaa" stroke-opacity="0.5" stroke-width="0.5"></path><path d="M161.0147 89.7767L217.2181 142.3989" fill="none" stroke="#aaa" stroke-opacity="0.5" stroke-width="0.5"></path><path d="M161.0147 89.7767L173.1056 168.6511" fill="none" stroke="#aaa" stroke-opacity="0.5" stroke-width="0.5"></path><path d="M244.5814 76.4816L232.1232 28.8067" fill="none" stroke="#aaa" stroke-opacity="0.5" stroke-width="0.5"></path><path d="M217.2181 142.3989L204.1544 97.8636" fill="none" stroke="#aaa" stroke-opacity="0.5" stroke-width="0.5"></path><path d="M149.6998 201.234L256.171 172.2853" fill="none" stroke="#aaa" stroke-opacity="0.5" stroke-width="0.5"></path><path d="M288.8294 188.4177L115.9695 106.8466" fill="none" stroke="#aaa" stroke-opacity="0.5" stroke-width="0.5"></path><path d="M290.777 98.5L204.1544 98.5" fill="none" stroke="#aaa" stroke-opacity="0.5" stroke-width="0.5"></path><path d="M161.0147 89.7767L127.5545 72.1265" fill="none" stroke="#aaa" stroke-opacity="0.5" stroke-width="0.5"></path><path d="M256.2791 214.9075L156.5921 132.3548" fill="none" stroke="#aaa" stroke-opacity="0.5" stroke-width="0.5"></path><path d="M204.1544 97.8636L256.2791 214.9075" fill="none" stroke="#aaa" stroke-opacity="0.5" stroke-width="0.5"></path><path d="M311.6867 122.1486L256.2791 214.9075" fill="none" stroke="#aaa" stroke-opacity="0.5" stroke-width="0.5"></path><path d="M149.6998 201.234L115.9695 106.8466" fill="none" stroke="#aaa" stroke-opacity="0.5" stroke-width="0.5"></path><path d="M180.6504 216.1596L204.1544 97.8636" fill="none" stroke="#aaa" stroke-opacity="0.5" stroke-width="0.5"></path><path d="M264.6649 44.3917L256.2791 214.9075" fill="none" stroke="#aaa" stroke-opacity="0.5" stroke-width="0.5"></path><path d="M115.3858 141.4564L259.1466 124.2621" fill="none" stroke="#aaa" stroke-opacity="0.5" stroke-width="0.5"></path><path d="M201.1771 55.669L259.1466 124.2621" fill="none" stroke="#aaa" stroke-opacity="0.5" stroke-width="0.5"></path><path d="M299.96 154.0146L256.2791 214.9075" fill="none" stroke="#aaa" stroke-opacity="0.5" stroke-width="0.5"></path><path d="M244.5814 76.4816L188.5151 27.4107" fill="none" stroke="#aaa" stroke-opacity="0.5" stroke-width="0.5"></path><path d="M256.2791 214.9075L232.1232 28.8067" fill="none" stroke="#aaa" stroke-opacity="0.5" stroke-width="0.5"></path><path d="M127.5545 72.1265L256.2791 214.9075" fill="none" stroke="#aaa" stroke-opacity="0.5" stroke-width="0.5"></path><path d="M311.6867 122.1486L256.171 172.2853" fill="none" stroke="#aaa" stroke-opacity="0.5" stroke-width="0.5"></path><path d="M161.0147 89.7767L232.1232 28.8067" fill="none" stroke="#aaa" stroke-opacity="0.5" stroke-width="0.5"></path><path d="M180.6504 216.1596L299.96 154.0146" fill="none" stroke="#aaa" stroke-opacity="0.5" stroke-width="0.5"></path><path d="M290.777 98.0217L211.8616 188.4139" fill="none" stroke="#aaa" stroke-opacity="0.5" stroke-width="0.5"></path><path d="M244.5814 76.4816L201.1771 55.669" fill="none" stroke="#aaa" stroke-opacity="0.5" stroke-width="0.5"></path><path d="M115.3858 141.4564L217.2181 142.3989" fill="none" stroke="#aaa" stroke-opacity="0.5" stroke-width="0.5"></path><path d="M115.3858 141.4564L173.1056 168.6511" fill="none" stroke="#aaa" stroke-opacity="0.5" stroke-width="0.5"></path><path d="M161.0147 89.7767L180.6504 216.1596" fill="none" stroke="#aaa" stroke-opacity="0.5" stroke-width="0.5"></path><path d="M180.6504 216.1596L211.8616 188.4139" fill="none" stroke="#aaa" stroke-opacity="0.5" stroke-width="0.5"></path><path d="M115.9695 106.8466L154.6108 46.6956" fill="none" stroke="#aaa" stroke-opacity="0.5" stroke-width="0.5"></path><path d="M299.96 154.0146L288.8294 188.4177" fill="none" stroke="#aaa" stroke-opacity="0.5" stroke-width="0.5"></path><path d="M115.3858 141.4564L127.5545 72.1265" fill="none" stroke="#aaa" stroke-opacity="0.5" stroke-width="0.5"></path><path d="M173.1056 168.6511L154.6108 46.6956" fill="none" stroke="#aaa" stroke-opacity="0.5" stroke-width="0.5"></path><path d="M311.6867 122.1486L204.1544 97.8636" fill="none" stroke="#aaa" stroke-opacity="0.5" stroke-width="0.5"></path><path d="M149.6998 201.234L211.8616 188.4139" fill="none" stroke="#aaa" stroke-opacity="0.5" stroke-width="0.5"></path><path d="M127.5545 72.1265L256.171 172.2853" fill="none" stroke="#aaa" stroke-opacity="0.5" stroke-width="0.5"></path><path d="M264.6649 44.3917L204.1544 97.8636" fill="none" stroke="#aaa" stroke-opacity="0.5" stroke-width="0.5"></path><path d="M256.2791 214.9075L188.5151 27.4107" fill="none" stroke="#aaa" stroke-opacity="0.5" stroke-width="0.5"></path><path d="M127.674 173.414L259.1466 124.2621" fill="none" stroke="#aaa" stroke-opacity="0.5" stroke-width="0.5"></path><path d="M290.777 98.0217L259.1466 124.2621" fill="none" stroke="#aaa" stroke-opacity="0.5" stroke-width="0.5"></path><path d="M127.5545 72.1265L204.1544 97.8636" fill="none" stroke="#aaa" stroke-opacity="0.5" stroke-width="0.5"></path><path d="M173.1056 168.6511L292.7811 67.1782" fill="none" stroke="#aaa" stroke-opacity="0.5" stroke-width="0.5"></path><path d="M115.3858 141.4564L232.1232 28.8067" fill="none" stroke="#aaa" stroke-opacity="0.5" stroke-width="0.5"></path><path d="M115.9695 106.8466L232.1232 28.8067" fill="none" stroke="#aaa" stroke-opacity="0.5" stroke-width="0.5"></path><path d="M173.1056 168.6511L232.1232 28.8067" fill="none" stroke="#aaa" stroke-opacity="0.5" stroke-width="0.5"></path><path d="M311.6867 122.1486L211.8616 188.4139" fill="none" stroke="#aaa" stroke-opacity="0.5" stroke-width="0.5"></path><path d="M161.0147 89.7767L218.215 223.613" fill="none" stroke="#aaa" stroke-opacity="0.5" stroke-width="0.5"></path><path d="M292.7811 67.1782L259.1466 124.2621" fill="none" stroke="#aaa" stroke-opacity="0.5" stroke-width="0.5"></path><path d="M201.1771 55.669L232.1232 28.8067" fill="none" stroke="#aaa" stroke-opacity="0.5" stroke-width="0.5"></path><path d="M211.8616 188.4139L256.171 172.2853" fill="none" stroke="#aaa" stroke-opacity="0.5" stroke-width="0.5"></path><path d="M290.777 98.0217L217.2181 142.3989" fill="none" stroke="#aaa" stroke-opacity="0.5" stroke-width="0.5"></path><path d="M290.777 98.0217L173.1056 168.6511" fill="none" stroke="#aaa" stroke-opacity="0.5" stroke-width="0.5"></path><path d="M217.2181 142.3989L154.6108 46.6956" fill="none" stroke="#aaa" stroke-opacity="0.5" stroke-width="0.5"></path><path d="M256.171 172.2853L259.1466 124.2621" fill="none" stroke="#aaa" stroke-opacity="0.5" stroke-width="0.5"></path><path d="M211.8616 188.4139L115.9695 106.8466" fill="none" stroke="#aaa" stroke-opacity="0.5" stroke-width="0.5"></path><path d="M180.6504 216.1596L217.2181 142.3989" fill="none" stroke="#aaa" stroke-opacity="0.5" stroke-width="0.5"></path><path d="M290.777 98.0217L127.5545 72.1265" fill="none" stroke="#aaa" stroke-opacity="0.5" stroke-width="0.5"></path><path d="M244.5814 76.4816L256.2791 214.9075" fill="none" stroke="#aaa" stroke-opacity="0.5" stroke-width="0.5"></path><path d="M288.8294 188.4177L154.6108 46.6956" fill="none" stroke="#aaa" stroke-opacity="0.5" stroke-width="0.5"></path><path d="M180.6504 216.1596L154.6108 46.6956" fill="none" stroke="#aaa" stroke-opacity="0.5" stroke-width="0.5"></path><path d="M211.8616 188.4139L204.1544 97.8636" fill="none" stroke="#aaa" stroke-opacity="0.5" stroke-width="0.5"></path><path d="M127.5545 72.1265L211.8616 188.4139" fill="none" stroke="#aaa" stroke-opacity="0.5" stroke-width="0.5"></path><path d="M180.6504 216.1596L127.5545 72.1265" fill="none" stroke="#aaa" stroke-opacity="0.5" stroke-width="0.5"></path><path d="M149.6998 201.234L154.6108 46.6956" fill="none" stroke="#aaa" stroke-opacity="0.5" stroke-width="0.5"></path><path d="M173.1056 168.6511L188.5151 27.4107" fill="none" stroke="#aaa" stroke-opacity="0.5" stroke-width="0.5"></path><path d="M204.1544 97.8636L259.1466 124.2621" fill="none" stroke="#aaa" stroke-opacity="0.5" stroke-width="0.5"></path><path d="M288.8294 188.4177L127.674 173.414" fill="none" stroke="#aaa" stroke-opacity="0.5" stroke-width="0.5"></path><path d="M288.8294 188.4177L156.5921 132.3548" fill="none" stroke="#aaa" stroke-opacity="0.5" stroke-width="0.5"></path><path d="M217.2181 142.3989L292.7811 67.1782" fill="none" stroke="#aaa" stroke-opacity="0.5" stroke-width="0.5"></path><path d="M259.1466 124.2621L154.6108 46.6956" fill="none" stroke="#aaa" stroke-opacity="0.5" stroke-width="0.5"></path><path d="M264.6649 44.3917L259.1466 124.2621" fill="none" stroke="#aaa" stroke-opacity="0.5" stroke-width="0.5"></path><path d="M115.3858 141.4564L201.1771 55.669" fill="none" stroke="#aaa" stroke-opacity="0.5" stroke-width="0.5"></path><path d="M217.2181 142.3989L232.1232 28.8067" fill="none" stroke="#aaa" stroke-opacity="0.5" stroke-width="0.5"></path><path d="M115.9695 106.8466L201.1771 55.669" fill="none" stroke="#aaa" stroke-opacity="0.5" stroke-width="0.5"></path><path d="M244.5814 76.4816L288.8294 188.4177" fill="none" stroke="#aaa" stroke-opacity="0.5" stroke-width="0.5"></path><path d="M173.1056 168.6511L201.1771 55.669" fill="none" stroke="#aaa" stroke-opacity="0.5" stroke-width="0.5"></path><path d="M299.96 154.0146L259.1466 124.2621" fill="none" stroke="#aaa" stroke-opacity="0.5" stroke-width="0.5"></path><path d="M288.8294 188.4177L292.7811 67.1782" fill="none" stroke="#aaa" stroke-opacity="0.5" stroke-width="0.5"></path><path d="M288.8294 188.4177L264.6649 44.3917" fill="none" stroke="#aaa" stroke-opacity="0.5" stroke-width="0.5"></path><path d="M290.777 98.0217L232.1232 28.8067" fill="none" stroke="#aaa" stroke-opacity="0.5" stroke-width="0.5"></path><path d="M115.3858 141.4564L218.215 223.613" fill="none" stroke="#aaa" stroke-opacity="0.5" stroke-width="0.5"></path><path d="M180.6504 216.1596L264.6649 44.3917" fill="none" stroke="#aaa" stroke-opacity="0.5" stroke-width="0.5"></path><path d="M115.9695 106.8466L218.215 223.613" fill="none" stroke="#aaa" stroke-opacity="0.5" stroke-width="0.5"></path><path d="M127.674 173.414L156.5921 132.3548" fill="none" stroke="#aaa" stroke-opacity="0.5" stroke-width="0.5"></path><path d="M149.6998 201.234L292.7811 67.1782" fill="none" stroke="#aaa" stroke-opacity="0.5" stroke-width="0.5"></path><path d="M149.6998 201.234L264.6649 44.3917" fill="none" stroke="#aaa" stroke-opacity="0.5" stroke-width="0.5"></path><path d="M288.8294 188.4177L232.1232 28.8067" fill="none" stroke="#aaa" stroke-opacity="0.5" stroke-width="0.5"></path><path d="M201.1771 55.669L218.215 223.613" fill="none" stroke="#aaa" stroke-opacity="0.5" stroke-width="0.5"></path><path d="M180.6504 216.1596L232.1232 28.8067" fill="none" stroke="#aaa" stroke-opacity="0.5" stroke-width="0.5"></path><path d="M311.6867 122.1486L217.2181 142.3989" fill="none" stroke="#aaa" stroke-opacity="0.5" stroke-width="0.5"></path><path d="M161.0147 89.7767L115.3858 141.4564" fill="none" stroke="#aaa" stroke-opacity="0.5" stroke-width="0.5"></path><path d="M244.5814 76.4816L204.1544 97.8636" fill="none" stroke="#aaa" stroke-opacity="0.5" stroke-width="0.5"></path><path d="M264.6649 44.3917L217.2181 142.3989" fill="none" stroke="#aaa" stroke-opacity="0.5" stroke-width="0.5"></path><path d="M264.6649 44.3917L173.1056 168.6511" fill="none" stroke="#aaa" stroke-opacity="0.5" stroke-width="0.5"></path><path d="M149.6998 201.234L232.1232 28.8067" fill="none" stroke="#aaa" stroke-opacity="0.5" stroke-width="0.5"></path><path d="M311.6867 122.1486L154.6108 46.6956" fill="none" stroke="#aaa" stroke-opacity="0.5" stroke-width="0.5"></path><path d="M259.1466 124.2621L232.1232 28.8067" fill="none" stroke="#aaa" stroke-opacity="0.5" stroke-width="0.5"></path><path d="M311.6867 122.1486L127.5545 72.1265" fill="none" stroke="#aaa" stroke-opacity="0.5" stroke-width="0.5"></path><path d="M264.6649 44.3917L127.5545 72.1265" fill="none" stroke="#aaa" stroke-opacity="0.5" stroke-width="0.5"></path><path d="M299.96 154.0146L217.2181 142.3989" fill="none" stroke="#aaa" stroke-opacity="0.5" stroke-width="0.5"></path><path d="M299.96 154.0146L173.1056 168.6511" fill="none" stroke="#aaa" stroke-opacity="0.5" stroke-width="0.5"></path><path d="M299.96 154.0146L244.5814 76.4816" fill="none" stroke="#aaa" stroke-opacity="0.5" stroke-width="0.5"></path><path d="M127.5545 72.1265L217.2181 142.3989" fill="none" stroke="#aaa" stroke-opacity="0.5" stroke-width="0.5"></path><path d="M292.7811 67.1782L127.674 173.414" fill="none" stroke="#aaa" stroke-opacity="0.5" stroke-width="0.5"></path><path d="M292.7811 67.1782L156.5921 132.3548" fill="none" stroke="#aaa" stroke-opacity="0.5" stroke-width="0.5"></path><path d="M161.0147 89.7767L288.8294 188.4177" fill="none" stroke="#aaa" stroke-opacity="0.5" stroke-width="0.5"></path><path d="M299.96 154.0146L127.5545 72.1265" fill="none" stroke="#aaa" stroke-opacity="0.5" stroke-width="0.5"></path><path d="M288.8294 188.4177L188.5151 27.4107" fill="none" stroke="#aaa" stroke-opacity="0.5" stroke-width="0.5"></path><path d="M256.171 172.2853L127.674 173.414" fill="none" stroke="#aaa" stroke-opacity="0.5" stroke-width="0.5"></path><path d="M127.5545 72.1265L154.6108 46.6956" fill="none" stroke="#aaa" stroke-opacity="0.5" stroke-width="0.5"></path><path d="M217.2181 142.3989L201.1771 55.669" fill="none" stroke="#aaa" stroke-opacity="0.5" stroke-width="0.5"></path><path d="M256.171 172.2853L156.5921 132.3548" fill="none" stroke="#aaa" stroke-opacity="0.5" stroke-width="0.5"></path><path d="M311.6867 122.1486L292.7811 67.1782" fill="none" stroke="#aaa" stroke-opacity="0.5" stroke-width="0.5"></path><path d="M311.6867 122.1486L264.6649 44.3917" fill="none" stroke="#aaa" stroke-opacity="0.5" stroke-width="0.5"></path><path d="M149.6998 201.234L188.5151 27.4107" fill="none" stroke="#aaa" stroke-opacity="0.5" stroke-width="0.5"></path><path d="M217.2181 142.3989L218.215 223.613" fill="none" stroke="#aaa" stroke-opacity="0.5" stroke-width="0.5"></path><path d="M127.674 173.414L218.215 223.613" fill="none" stroke="#aaa" stroke-opacity="0.5" stroke-width="0.5"></path><path d="M244.5814 76.4816L211.8616 188.4139" fill="none" stroke="#aaa" stroke-opacity="0.5" stroke-width="0.5"></path><path d="M311.6867 122.1486L232.1232 28.8067" fill="none" stroke="#aaa" stroke-opacity="0.5" stroke-width="0.5"></path><path d="M288.8294 188.4177L201.1771 55.669" fill="none" stroke="#aaa" stroke-opacity="0.5" stroke-width="0.5"></path><path d="M290.777 98.0217L218.215 223.613" fill="none" stroke="#aaa" stroke-opacity="0.5" stroke-width="0.5"></path><path d="M180.6504 216.1596L201.1771 55.669" fill="none" stroke="#aaa" stroke-opacity="0.5" stroke-width="0.5"></path><path d="M127.674 173.414L188.5151 27.4107" fill="none" stroke="#aaa" stroke-opacity="0.5" stroke-width="0.5"></path><path d="M204.1544 97.8636L127.674 173.414" fill="none" stroke="#aaa" stroke-opacity="0.5" stroke-width="0.5"></path><path d="M204.1544 97.8636L156.5921 132.3548" fill="none" stroke="#aaa" stroke-opacity="0.5" stroke-width="0.5"></path><path d="M173.1056 168.6511L256.2791 214.9075" fill="none" stroke="#aaa" stroke-opacity="0.5" stroke-width="0.5"></path><path d="M149.6998 201.234L201.1771 55.669" fill="none" stroke="#aaa" stroke-opacity="0.5" stroke-width="0.5"></path><path d="M156.5921 132.3548L218.215 223.613" fill="none" stroke="#aaa" stroke-opacity="0.5" stroke-width="0.5"></path><path d="M264.6649 44.3917L127.674 173.414" fill="none" stroke="#aaa" stroke-opacity="0.5" stroke-width="0.5"></path><path d="M299.96 154.0146L149.6998 201.234" fill="none" stroke="#aaa" stroke-opacity="0.5" stroke-width="0.5"></path><path d="M180.6504 216.1596L218.215 223.613" fill="none" stroke="#aaa" stroke-opacity="0.5" stroke-width="0.5"></path><path d="M264.6649 44.3917L156.5921 132.3548" fill="none" stroke="#aaa" stroke-opacity="0.5" stroke-width="0.5"></path><path d="M161.0147 89.7767L256.171 172.2853" fill="none" stroke="#aaa" stroke-opacity="0.5" stroke-width="0.5"></path><path d="M127.5545 72.1265L232.1232 28.8067" fill="none" stroke="#aaa" stroke-opacity="0.5" stroke-width="0.5"></path><path d="M299.96 154.0146L127.674 173.414" fill="none" stroke="#aaa" stroke-opacity="0.5" stroke-width="0.5"></path><path d="M211.8616 188.4139L154.6108 46.6956" fill="none" stroke="#aaa" stroke-opacity="0.5" stroke-width="0.5"></path><path d="M188.5151 27.4107L154.6108 46.6956" fill="none" stroke="#aaa" stroke-opacity="0.5" stroke-width="0.5"></path><path d="M299.96 154.0146L156.5921 132.3548" fill="none" stroke="#aaa" stroke-opacity="0.5" stroke-width="0.5"></path><path d="M161.0147 89.7767L290.777 98.0217" fill="none" stroke="#aaa" stroke-opacity="0.5" stroke-width="0.5"></path><path d="M244.5814 76.4816L259.1466 124.2621" fill="none" stroke="#aaa" stroke-opacity="0.5" stroke-width="0.5"></path><path d="M161.0147 89.7767L115.9695 106.8466" fill="none" stroke="#aaa" stroke-opacity="0.5" stroke-width="0.5"></path><path d="M292.7811 67.1782L218.215 223.613" fill="none" stroke="#aaa" stroke-opacity="0.5" stroke-width="0.5"></path><path d="M115.3858 141.4564L288.8294 188.4177" fill="none" stroke="#aaa" stroke-opacity="0.5" stroke-width="0.5"></path><path d="M256.171 172.2853L188.5151 27.4107" fill="none" stroke="#aaa" stroke-opacity="0.5" stroke-width="0.5"></path><path d="M311.6867 122.1486L201.1771 55.669" fill="none" stroke="#aaa" stroke-opacity="0.5" stroke-width="0.5"></path><path d="M154.6108 46.6956L232.1232 28.8067" fill="none" stroke="#aaa" stroke-opacity="0.5" stroke-width="0.5"></path><path d="M211.8616 188.4139L292.7811 67.1782" fill="none" stroke="#aaa" stroke-opacity="0.5" stroke-width="0.5"></path><path d="M204.1544 97.8636L218.215 223.613" fill="none" stroke="#aaa" stroke-opacity="0.5" stroke-width="0.5"></path><path d="M173.1056 168.6511L204.1544 97.8636" fill="none" stroke="#aaa" stroke-opacity="0.5" stroke-width="0.5"></path><path d="M311.6867 122.1486L218.215 223.613" fill="none" stroke="#aaa" stroke-opacity="0.5" stroke-width="0.5"></path><path d="M244.5814 76.4816L217.2181 142.3989" fill="none" stroke="#aaa" stroke-opacity="0.5" stroke-width="0.5"></path><path d="M244.5814 76.4816L173.1056 168.6511" fill="none" stroke="#aaa" stroke-opacity="0.5" stroke-width="0.5"></path><path d="M264.6649 44.3917L218.215 223.613" fill="none" stroke="#aaa" stroke-opacity="0.5" stroke-width="0.5"></path><path d="M211.8616 188.4139L232.1232 28.8067" fill="none" stroke="#aaa" stroke-opacity="0.5" stroke-width="0.5"></path><path d="M188.5151 27.4107L232.1232 28.8067" fill="none" stroke="#aaa" stroke-opacity="0.5" stroke-width="0.5"></path><path d="M299.96 154.0146L311.6867 122.1486" fill="none" stroke="#aaa" stroke-opacity="0.5" stroke-width="0.5"></path><path d="M161.0147 89.7767L299.96 154.0146" fill="none" stroke="#aaa" stroke-opacity="0.5" stroke-width="0.5"></path><path d="M115.3858 141.4564L256.171 172.2853" fill="none" stroke="#aaa" stroke-opacity="0.5" stroke-width="0.5"></path><path d="M244.5814 76.4816L127.5545 72.1265" fill="none" stroke="#aaa" stroke-opacity="0.5" stroke-width="0.5"></path><path d="M288.8294 188.4177L256.2791 214.9075" fill="none" stroke="#aaa" stroke-opacity="0.5" stroke-width="0.5"></path><path d="M127.5545 72.1265L201.1771 55.669" fill="none" stroke="#aaa" stroke-opacity="0.5" stroke-width="0.5"></path><path d="M299.96 154.0146L218.215 223.613" fill="none" stroke="#aaa" stroke-opacity="0.5" stroke-width="0.5"></path><path d="M180.6504 216.1596L115.3858 141.4564" fill="none" stroke="#aaa" stroke-opacity="0.5" stroke-width="0.5"></path><path d="M115.3858 141.4564L290.777 98.0217" fill="none" stroke="#aaa" stroke-opacity="0.5" stroke-width="0.5"></path><path d="M149.6998 201.234L256.2791 214.9075" fill="none" stroke="#aaa" stroke-opacity="0.5" stroke-width="0.5"></path><path d="M115.3858 141.4564L115.9695 106.8466" fill="none" stroke="#aaa" stroke-opacity="0.5" stroke-width="0.5"></path><path d="M127.5545 72.1265L218.215 223.613" fill="none" stroke="#aaa" stroke-opacity="0.5" stroke-width="0.5"></path><path d="M259.1466 124.2621L256.2791 214.9075" fill="none" stroke="#aaa" stroke-opacity="0.5" stroke-width="0.5"></path><path d="M290.777 98.0217L288.8294 188.4177" fill="none" stroke="#aaa" stroke-opacity="0.5" stroke-width="0.5"></path><path d="M180.6504 216.1596L288.8294 188.4177" fill="none" stroke="#aaa" stroke-opacity="0.5" stroke-width="0.5"></path><path d="M149.6998 201.234L288.8294 188.4177" fill="none" stroke="#aaa" stroke-opacity="0.5" stroke-width="0.5"></path><path d="M161.0147 89.7767L244.5814 76.4816" fill="none" stroke="#aaa" stroke-opacity="0.5" stroke-width="0.5"></path><path d="M154.6108 46.6956L218.215 223.613" fill="none" stroke="#aaa" stroke-opacity="0.5" stroke-width="0.5"></path><path d="M211.8616 188.4139L201.1771 55.669" fill="none" stroke="#aaa" stroke-opacity="0.5" stroke-width="0.5"></path><path d="M288.8294 188.4177L204.1544 97.8636" fill="none" stroke="#aaa" stroke-opacity="0.5" stroke-width="0.5"></path><path d="M311.6867 122.1486L115.3858 141.4564" fill="none" stroke="#aaa" stroke-opacity="0.5" stroke-width="0.5"></path><path d="M290.777 98.0217L256.171 172.2853" fill="none" stroke="#aaa" stroke-opacity="0.5" stroke-width="0.5"></path><path d="M115.9695 106.8466L259.1466 124.2621" fill="none" stroke="#aaa" stroke-opacity="0.5" stroke-width="0.5"></path><path d="M149.6998 201.234L204.1544 97.8636" fill="none" stroke="#aaa" stroke-opacity="0.5" stroke-width="0.5"></path><path d="M173.1056 168.6511L259.1466 124.2621" fill="none" stroke="#aaa" stroke-opacity="0.5" stroke-width="0.5"></path><path d="M217.2181 142.3989L115.9695 106.8466" fill="none" stroke="#aaa" stroke-opacity="0.5" stroke-width="0.5"></path><path d="M256.171 172.2853L256.2791 214.9075" fill="none" stroke="#aaa" stroke-opacity="0.5" stroke-width="0.5"></path><path d="M290.777 98.0217L115.9695 106.8466" fill="none" stroke="#aaa" stroke-opacity="0.5" stroke-width="0.5"></path><path d="M299.96 154.0146L115.3858 141.4564" fill="none" stroke="#aaa" stroke-opacity="0.5" stroke-width="0.5"></path><path d="M161.0147 89.7767L149.6998 201.234" fill="none" stroke="#aaa" stroke-opacity="0.5" stroke-width="0.5"></path><path d="M180.6504 216.1596L290.777 98.0217" fill="none" stroke="#aaa" stroke-opacity="0.5" stroke-width="0.5"></path><path d="M161.0147 89.7767L154.6108 46.6956" fill="none" stroke="#aaa" stroke-opacity="0.5" stroke-width="0.5"></path><path d="M311.6867 122.1486L288.8294 188.4177" fill="none" stroke="#aaa" stroke-opacity="0.5" stroke-width="0.5"></path><path d="M180.6504 216.1596L115.9695 106.8466" fill="none" stroke="#aaa" stroke-opacity="0.5" stroke-width="0.5"></path><path d="M292.7811 67.1782L256.171 172.2853" fill="none" stroke="#aaa" stroke-opacity="0.5" stroke-width="0.5"></path><path d="M161.0147 89.7767L127.674 173.414" fill="none" stroke="#aaa" stroke-opacity="0.5" stroke-width="0.5"></path><path d="M161.0147 89.7767L156.5921 132.3548" fill="none" stroke="#aaa" stroke-opacity="0.5" stroke-width="0.5"></path><path d="M173.1056 168.6511L217.2181 142.3989" fill="none" stroke="#aaa" stroke-opacity="0.5" stroke-width="0.5"></path><path d="M288.8294 188.5L211.8616 188.5" fill="none" stroke="#aaa" stroke-opacity="0.5" stroke-width="0.5"></path><path d="M115.3858 141.4564L244.5814 76.4816" fill="none" stroke="#aaa" stroke-opacity="0.5" stroke-width="0.5"></path><path d="M244.5814 76.4816L218.215 223.613" fill="none" stroke="#aaa" stroke-opacity="0.5" stroke-width="0.5"></path><path d="M161.0147 89.7767L292.7811 67.1782" fill="none" stroke="#aaa" stroke-opacity="0.5" stroke-width="0.5"></path><path d="M161.0147 89.7767L264.6649 44.3917" fill="none" stroke="#aaa" stroke-opacity="0.5" stroke-width="0.5"></path><path d="M217.2181 142.3989L259.1466 124.2621" fill="none" stroke="#aaa" stroke-opacity="0.5" stroke-width="0.5"></path><path d="M204.1544 97.8636L256.171 172.2853" fill="none" stroke="#aaa" stroke-opacity="0.5" stroke-width="0.5"></path><path d="M211.8616 188.4139L256.2791 214.9075" fill="none" stroke="#aaa" stroke-opacity="0.5" stroke-width="0.5"></path><path d="M264.6649 44.3917L256.171 172.2853" fill="none" stroke="#aaa" stroke-opacity="0.5" stroke-width="0.5"></path><path d="M288.8294 188.4177L259.1466 124.2621" fill="none" stroke="#aaa" stroke-opacity="0.5" stroke-width="0.5"></path><path d="M311.6867 122.1486L290.777 98.0217" fill="none" stroke="#aaa" stroke-opacity="0.5" stroke-width="0.5"></path><path d="M180.6504 216.1596L259.1466 124.2621" fill="none" stroke="#aaa" stroke-opacity="0.5" stroke-width="0.5"></path><path d="M204.1544 97.8636L115.9695 106.8466" fill="none" stroke="#aaa" stroke-opacity="0.5" stroke-width="0.5"></path><path d="M311.6867 122.1486L115.9695 106.8466" fill="none" stroke="#aaa" stroke-opacity="0.5" stroke-width="0.5"></path><path d="M115.3858 141.4564L149.6998 201.234" fill="none" stroke="#aaa" stroke-opacity="0.5" stroke-width="0.5"></path><path d="M115.3858 141.4564L154.6108 46.6956" fill="none" stroke="#aaa" stroke-opacity="0.5" stroke-width="0.5"></path><path d="M161.0147 89.7767L311.6867 122.1486" fill="none" stroke="#aaa" stroke-opacity="0.5" stroke-width="0.5"></path><path d="M299.96 154.0146L256.171 172.2853" fill="none" stroke="#aaa" stroke-opacity="0.5" stroke-width="0.5"></path><path d="M264.6649 44.3917L115.9695 106.8466" fill="none" stroke="#aaa" stroke-opacity="0.5" stroke-width="0.5"></path><path d="M149.6998 201.234L259.1466 124.2621" fill="none" stroke="#aaa" stroke-opacity="0.5" stroke-width="0.5"></path><path d="M256.2791 214.9075L218.215 223.613" fill="none" stroke="#aaa" stroke-opacity="0.5" stroke-width="0.5"></path><path d="M1 0A1 1 0 1 1 1 -0.0001" fill="#5470c6" transform="matrix(17.5,0,0,17.5,299.96,154.0146)"></path><path d="M1 0A1 1 0 1 1 1 -0.0001" fill="#5470c6" transform="matrix(17.5,0,0,17.5,256.171,172.2853)"></path><path d="M1 0A1 1 0 1 1 1 -0.0001" fill="#5470c6" transform="matrix(17.5,0,0,17.5,288.8294,188.4177)"></path><path d="M1 0A1 1 0 1 1 1 -0.0001" fill="#5470c6" transform="matrix(17.5,0,0,17.5,256.2791,214.9075)"></path><path d="M1 0A1 1 0 1 1 1 -0.0001" fill="#5470c6" transform="matrix(17.5,0,0,17.5,204.1544,97.8636)"></path><path d="M1 0A1 1 0 1 1 1 -0.0001" fill="#5470c6" transform="matrix(17.5,0,0,17.5,218.215,223.613)"></path><path d="M1 0A1 1 0 1 1 1 -0.0001" fill="#5470c6" transform="matrix(17.5,0,0,17.5,211.8616,188.4139)"></path><path d="M1 0A1 1 0 1 1 1 -0.0001" fill="#5470c6" transform="matrix(17.5,0,0,17.5,180.6504,216.1596)"></path><path d="M1 0A1 1 0 1 1 1 -0.0001" fill="#5470c6" transform="matrix(17.5,0,0,17.5,217.2181,142.3989)"></path><path d="M1 0A1 1 0 1 1 1 -0.0001" fill="#5470c6" transform="matrix(17.5,0,0,17.5,149.6998,201.234)"></path><path d="M1 0A1 1 0 1 1 1 -0.0001" fill="#5470c6" transform="matrix(17.5,0,0,17.5,173.1056,168.6511)"></path><path d="M1 0A1 1 0 1 1 1 -0.0001" fill="#5470c6" transform="matrix(17.5,0,0,17.5,127.674,173.414)"></path><path d="M1 0A1 1 0 1 1 1 -0.0001" fill="#5470c6" transform="matrix(17.5,0,0,17.5,201.1771,55.669)"></path><path d="M1 0A1 1 0 1 1 1 -0.0001" fill="#5470c6" transform="matrix(17.5,0,0,17.5,115.3858,141.4564)"></path><path d="M1 0A1 1 0 1 1 1 -0.0001" fill="#5470c6" transform="matrix(17.5,0,0,17.5,156.5921,132.3548)"></path><path d="M1 0A1 1 0 1 1 1 -0.0001" fill="#5470c6" transform="matrix(17.5,0,0,17.5,115.9695,106.8466)"></path><path d="M1 0A1 1 0 1 1 1 -0.0001" fill="#5470c6" transform="matrix(17.5,0,0,17.5,127.5545,72.1265)"></path><path d="M1 0A1 1 0 1 1 1 -0.0001" fill="#5470c6" transform="matrix(17.5,0,0,17.5,161.0147,89.7767)"></path><path d="M1 0A1 1 0 1 1 1 -0.0001" fill="#5470c6" transform="matrix(17.5,0,0,17.5,154.6108,46.6956)"></path><path d="M1 0A1 1 0 1 1 1 -0.0001" fill="#5470c6" transform="matrix(17.5,0,0,17.5,232.1232,28.8067)"></path><path d="M1 0A1 1 0 1 1 1 -0.0001" fill="#5470c6" transform="matrix(17.5,0,0,17.5,188.5151,27.4107)"></path><path d="M1 0A1 1 0 1 1 1 -0.0001" fill="#5470c6" transform="matrix(17.5,0,0,17.5,264.6649,44.3917)"></path><path d="M1 0A1 1 0 1 1 1 -0.0001" fill="#5470c6" transform="matrix(17.5,0,0,17.5,292.7811,67.1782)"></path><path d="M1 0A1 1 0 1 1 1 -0.0001" fill="#5470c6" transform="matrix(17.5,0,0,17.5,244.5814,76.4816)"></path><path d="M1 0A1 1 0 1 1 1 -0.0001" fill="#5470c6" transform="matrix(17.5,0,0,17.5,290.777,98.0217)"></path><path d="M1 0A1 1 0 1 1 1 -0.0001" fill="#5470c6" transform="matrix(17.5,0,0,17.5,311.6867,122.1486)"></path><path d="M1 0A1 1 0 1 1 1 -0.0001" fill="#5470c6" transform="matrix(17.5,0,0,17.5,259.1466,124.2621)"></path><path d="M-25.1792 -5l50.3584 0l0 32l-50.3584 0Z" fill="rgb(0,0,0)" fill-opacity="0" stroke="#ccc" stroke-width="0" transform="translate(237.5 5)"></path><text dominant-baseline="central" fill="#333" style="font-size:22px;font-family:sans-serif;font-weight:bolder;" text-anchor="middle" transform="translate(237.5 5)" y="11">C58</text></g></svg>