<svg baseprofile="full" height="250" style="position:absolute;left:0;top:0;user-select:none" version="1.1" width="475" xmlns="http://www.w3.org/2000/svg" xmlns:xlink="http://www.w3.org/1999/xlink"><rect fill="none" height="250" id="0" width="475" x="0" y="0"></rect><g><path d="M159.5821 207.0877L202.2668 173.648" fill="none" stroke="#aaa" stroke-opacity="0.5" stroke-width="0.5"></path><path d="M157.5849 105.3L294.5736 71.1367" fill="none" stroke="#aaa" stroke-opacity="0.5" stroke-width="0.5"></path><path d="M252.1216 78.3569L117.2851 92.6443" fill="none" stroke="#aaa" stroke-opacity="0.5" stroke-width="0.5"></path><path d="M197.2546 221.359L202.2668 173.648" fill="none" stroke="#aaa" stroke-opacity="0.5" stroke-width="0.5"></path><path d="M157.5849 105.3L285.0337 193.2389" fill="none" stroke="#aaa" stroke-opacity="0.5" stroke-width="0.5"></path><path d="M175.5868 31.8692L217.8696 117.2663" fill="none" stroke="#aaa" stroke-opacity="0.5" stroke-width="0.5"></path><path d="M159.5821 207.0877L268.5496 130.5823" fill="none" stroke="#aaa" stroke-opacity="0.5" stroke-width="0.5"></path><path d="M268.5496 130.5823L304.7857 154.6897" fill="none" stroke="#aaa" stroke-opacity="0.5" stroke-width="0.5"></path><path d="M113.6187 136.5222L202.2668 173.648" fill="none" stroke="#aaa" stroke-opacity="0.5" stroke-width="0.5"></path><path d="M219.58 26.961L113.6187 136.5222" fill="none" stroke="#aaa" stroke-opacity="0.5" stroke-width="0.5"></path><path d="M140.7988 56.8902L117.2851 92.6443" fill="none" stroke="#aaa" stroke-opacity="0.5" stroke-width="0.5"></path><path d="M195.5043 69.6558L175.5868 31.8692" fill="none" stroke="#aaa" stroke-opacity="0.5" stroke-width="0.5"></path><path d="M197.2546 221.359L268.5496 130.5823" fill="none" stroke="#aaa" stroke-opacity="0.5" stroke-width="0.5"></path><path d="M294.5736 71.1367L202.2668 173.648" fill="none" stroke="#aaa" stroke-opacity="0.5" stroke-width="0.5"></path><path d="M175.5868 31.8692L294.5736 71.1367" fill="none" stroke="#aaa" stroke-opacity="0.5" stroke-width="0.5"></path><path d="M252.1216 78.3569L241.4662 221.5425" fill="none" stroke="#aaa" stroke-opacity="0.5" stroke-width="0.5"></path><path d="M241.4662 221.5425L161.3911 154.5675" fill="none" stroke="#aaa" stroke-opacity="0.5" stroke-width="0.5"></path><path d="M113.6187 136.5222L268.5496 130.5823" fill="none" stroke="#aaa" stroke-opacity="0.5" stroke-width="0.5"></path><path d="M217.8696 117.2663L202.2668 173.648" fill="none" stroke="#aaa" stroke-opacity="0.5" stroke-width="0.5"></path><path d="M197.2546 221.359L159.5821 207.0877" fill="none" stroke="#aaa" stroke-opacity="0.5" stroke-width="0.5"></path><path d="M175.5868 31.8692L285.0337 193.2389" fill="none" stroke="#aaa" stroke-opacity="0.5" stroke-width="0.5"></path><path d="M285.0337 193.2389L304.7857 154.6897" fill="none" stroke="#aaa" stroke-opacity="0.5" stroke-width="0.5"></path><path d="M140.7988 56.8902L241.4662 221.5425" fill="none" stroke="#aaa" stroke-opacity="0.5" stroke-width="0.5"></path><path d="M113.6187 136.5222L159.5821 207.0877" fill="none" stroke="#aaa" stroke-opacity="0.5" stroke-width="0.5"></path><path d="M125.6326 178.5558L161.3911 154.5675" fill="none" stroke="#aaa" stroke-opacity="0.5" stroke-width="0.5"></path><path d="M125.6326 178.5558L117.2851 92.6443" fill="none" stroke="#aaa" stroke-opacity="0.5" stroke-width="0.5"></path><path d="M246.5413 179.9867L202.2668 173.648" fill="none" stroke="#aaa" stroke-opacity="0.5" stroke-width="0.5"></path><path d="M195.5043 69.6558L217.8696 117.2663" fill="none" stroke="#aaa" stroke-opacity="0.5" stroke-width="0.5"></path><path d="M252.1216 78.3569L304.7857 154.6897" fill="none" stroke="#aaa" stroke-opacity="0.5" stroke-width="0.5"></path><path d="M125.6326 178.5558L140.7988 56.8902" fill="none" stroke="#aaa" stroke-opacity="0.5" stroke-width="0.5"></path><path d="M157.5849 105.3L246.5413 179.9867" fill="none" stroke="#aaa" stroke-opacity="0.5" stroke-width="0.5"></path><path d="M219.58 26.961L202.2668 173.648" fill="none" stroke="#aaa" stroke-opacity="0.5" stroke-width="0.5"></path><path d="M285.0337 193.2389L259.454 36.9843" fill="none" stroke="#aaa" stroke-opacity="0.5" stroke-width="0.5"></path><path d="M195.5043 69.6558L294.5736 71.1367" fill="none" stroke="#aaa" stroke-opacity="0.5" stroke-width="0.5"></path><path d="M246.5413 179.9867L268.5496 130.5823" fill="none" stroke="#aaa" stroke-opacity="0.5" stroke-width="0.5"></path><path d="M195.5043 69.6558L285.0337 193.2389" fill="none" stroke="#aaa" stroke-opacity="0.5" stroke-width="0.5"></path><path d="M219.58 26.961L268.5496 130.5823" fill="none" stroke="#aaa" stroke-opacity="0.5" stroke-width="0.5"></path><path d="M246.5413 179.9867L159.5821 207.0877" fill="none" stroke="#aaa" stroke-opacity="0.5" stroke-width="0.5"></path><path d="M159.5821 207.0877L161.3911 154.5675" fill="none" stroke="#aaa" stroke-opacity="0.5" stroke-width="0.5"></path><path d="M252.1216 78.3569L259.454 36.9843" fill="none" stroke="#aaa" stroke-opacity="0.5" stroke-width="0.5"></path><path d="M241.4662 221.5L197.2546 221.5" fill="none" stroke="#aaa" stroke-opacity="0.5" stroke-width="0.5"></path><path d="M195.5043 69.6558L308.2881 111.1552" fill="none" stroke="#aaa" stroke-opacity="0.5" stroke-width="0.5"></path><path d="M219.58 26.961L159.5821 207.0877" fill="none" stroke="#aaa" stroke-opacity="0.5" stroke-width="0.5"></path><path d="M140.7988 56.8902L259.454 36.9843" fill="none" stroke="#aaa" stroke-opacity="0.5" stroke-width="0.5"></path><path d="M197.2546 221.359L161.3911 154.5675" fill="none" stroke="#aaa" stroke-opacity="0.5" stroke-width="0.5"></path><path d="M125.6326 178.5558L197.2546 221.359" fill="none" stroke="#aaa" stroke-opacity="0.5" stroke-width="0.5"></path><path d="M268.5496 130.5823L217.8696 117.2663" fill="none" stroke="#aaa" stroke-opacity="0.5" stroke-width="0.5"></path><path d="M113.6187 136.5222L161.3911 154.5675" fill="none" stroke="#aaa" stroke-opacity="0.5" stroke-width="0.5"></path><path d="M113.6187 136.5222L117.2851 92.6443" fill="none" stroke="#aaa" stroke-opacity="0.5" stroke-width="0.5"></path><path d="M308.2881 111.1552L304.7857 154.6897" fill="none" stroke="#aaa" stroke-opacity="0.5" stroke-width="0.5"></path><path d="M285.0337 193.2389L217.8696 117.2663" fill="none" stroke="#aaa" stroke-opacity="0.5" stroke-width="0.5"></path><path d="M294.5736 71.1367L304.7857 154.6897" fill="none" stroke="#aaa" stroke-opacity="0.5" stroke-width="0.5"></path><path d="M157.5849 105.3L202.2668 173.648" fill="none" stroke="#aaa" stroke-opacity="0.5" stroke-width="0.5"></path><path d="M195.5043 69.6558L246.5413 179.9867" fill="none" stroke="#aaa" stroke-opacity="0.5" stroke-width="0.5"></path><path d="M259.454 36.9843L202.2668 173.648" fill="none" stroke="#aaa" stroke-opacity="0.5" stroke-width="0.5"></path><path d="M217.8696 117.2663L304.7857 154.6897" fill="none" stroke="#aaa" stroke-opacity="0.5" stroke-width="0.5"></path><path d="M252.1216 78.3569L217.8696 117.2663" fill="none" stroke="#aaa" stroke-opacity="0.5" stroke-width="0.5"></path><path d="M246.5413 179.9867L161.3911 154.5675" fill="none" stroke="#aaa" stroke-opacity="0.5" stroke-width="0.5"></path><path d="M246.5413 179.9867L117.2851 92.6443" fill="none" stroke="#aaa" stroke-opacity="0.5" stroke-width="0.5"></path><path d="M285.0337 193.2389L294.5736 71.1367" fill="none" stroke="#aaa" stroke-opacity="0.5" stroke-width="0.5"></path><path d="M140.7988 56.8902L217.8696 117.2663" fill="none" stroke="#aaa" stroke-opacity="0.5" stroke-width="0.5"></path><path d="M219.58 26.961L161.3911 154.5675" fill="none" stroke="#aaa" stroke-opacity="0.5" stroke-width="0.5"></path><path d="M219.58 26.961L117.2851 92.6443" fill="none" stroke="#aaa" stroke-opacity="0.5" stroke-width="0.5"></path><path d="M246.5413 179.9867L140.7988 56.8902" fill="none" stroke="#aaa" stroke-opacity="0.5" stroke-width="0.5"></path><path d="M157.5849 105.3L268.5496 130.5823" fill="none" stroke="#aaa" stroke-opacity="0.5" stroke-width="0.5"></path><path d="M252.1216 78.3569L294.5736 71.1367" fill="none" stroke="#aaa" stroke-opacity="0.5" stroke-width="0.5"></path><path d="M219.58 26.961L140.7988 56.8902" fill="none" stroke="#aaa" stroke-opacity="0.5" stroke-width="0.5"></path><path d="M157.5849 105.3L159.5821 207.0877" fill="none" stroke="#aaa" stroke-opacity="0.5" stroke-width="0.5"></path><path d="M175.5868 31.8692L202.2668 173.648" fill="none" stroke="#aaa" stroke-opacity="0.5" stroke-width="0.5"></path><path d="M246.5413 179.9867L241.4662 221.5425" fill="none" stroke="#aaa" stroke-opacity="0.5" stroke-width="0.5"></path><path d="M252.1216 78.3569L285.0337 193.2389" fill="none" stroke="#aaa" stroke-opacity="0.5" stroke-width="0.5"></path><path d="M140.7988 56.8902L294.5736 71.1367" fill="none" stroke="#aaa" stroke-opacity="0.5" stroke-width="0.5"></path><path d="M125.6326 178.5558L308.2881 111.1552" fill="none" stroke="#aaa" stroke-opacity="0.5" stroke-width="0.5"></path><path d="M219.58 26.961L241.4662 221.5425" fill="none" stroke="#aaa" stroke-opacity="0.5" stroke-width="0.5"></path><path d="M140.7988 56.8902L285.0337 193.2389" fill="none" stroke="#aaa" stroke-opacity="0.5" stroke-width="0.5"></path><path d="M113.6187 136.5222L259.454 36.9843" fill="none" stroke="#aaa" stroke-opacity="0.5" stroke-width="0.5"></path><path d="M161.3911 154.5675L259.454 36.9843" fill="none" stroke="#aaa" stroke-opacity="0.5" stroke-width="0.5"></path><path d="M175.5868 31.8692L268.5496 130.5823" fill="none" stroke="#aaa" stroke-opacity="0.5" stroke-width="0.5"></path><path d="M246.5413 179.9867L197.2546 221.359" fill="none" stroke="#aaa" stroke-opacity="0.5" stroke-width="0.5"></path><path d="M175.5868 31.8692L159.5821 207.0877" fill="none" stroke="#aaa" stroke-opacity="0.5" stroke-width="0.5"></path><path d="M219.58 26.961L157.5849 105.3" fill="none" stroke="#aaa" stroke-opacity="0.5" stroke-width="0.5"></path><path d="M219.58 26.961L197.2546 221.359" fill="none" stroke="#aaa" stroke-opacity="0.5" stroke-width="0.5"></path><path d="M195.5043 69.6558L202.2668 173.648" fill="none" stroke="#aaa" stroke-opacity="0.5" stroke-width="0.5"></path><path d="M308.2881 111.1552L217.8696 117.2663" fill="none" stroke="#aaa" stroke-opacity="0.5" stroke-width="0.5"></path><path d="M294.5736 71.1367L217.8696 117.2663" fill="none" stroke="#aaa" stroke-opacity="0.5" stroke-width="0.5"></path><path d="M246.5413 179.9867L259.454 36.9843" fill="none" stroke="#aaa" stroke-opacity="0.5" stroke-width="0.5"></path><path d="M157.5849 105.3L161.3911 154.5675" fill="none" stroke="#aaa" stroke-opacity="0.5" stroke-width="0.5"></path><path d="M157.5849 105.3L117.2851 92.6443" fill="none" stroke="#aaa" stroke-opacity="0.5" stroke-width="0.5"></path><path d="M195.5043 69.6558L268.5496 130.5823" fill="none" stroke="#aaa" stroke-opacity="0.5" stroke-width="0.5"></path><path d="M308.2881 111.1552L294.5736 71.1367" fill="none" stroke="#aaa" stroke-opacity="0.5" stroke-width="0.5"></path><path d="M219.58 26.961L259.454 36.9843" fill="none" stroke="#aaa" stroke-opacity="0.5" stroke-width="0.5"></path><path d="M125.6326 178.5558L252.1216 78.3569" fill="none" stroke="#aaa" stroke-opacity="0.5" stroke-width="0.5"></path><path d="M157.5849 105.3L140.7988 56.8902" fill="none" stroke="#aaa" stroke-opacity="0.5" stroke-width="0.5"></path><path d="M308.2881 111.1552L285.0337 193.2389" fill="none" stroke="#aaa" stroke-opacity="0.5" stroke-width="0.5"></path><path d="M195.5043 69.6558L159.5821 207.0877" fill="none" stroke="#aaa" stroke-opacity="0.5" stroke-width="0.5"></path><path d="M241.4662 221.5425L113.6187 136.5222" fill="none" stroke="#aaa" stroke-opacity="0.5" stroke-width="0.5"></path><path d="M161.3911 154.5675L217.8696 117.2663" fill="none" stroke="#aaa" stroke-opacity="0.5" stroke-width="0.5"></path><path d="M125.6326 178.5558L113.6187 136.5222" fill="none" stroke="#aaa" stroke-opacity="0.5" stroke-width="0.5"></path><path d="M268.5496 130.5823L202.2668 173.648" fill="none" stroke="#aaa" stroke-opacity="0.5" stroke-width="0.5"></path><path d="M175.5868 31.8692L161.3911 154.5675" fill="none" stroke="#aaa" stroke-opacity="0.5" stroke-width="0.5"></path><path d="M219.58 26.961L195.5043 69.6558" fill="none" stroke="#aaa" stroke-opacity="0.5" stroke-width="0.5"></path><path d="M175.5868 31.8692L304.7857 154.6897" fill="none" stroke="#aaa" stroke-opacity="0.5" stroke-width="0.5"></path><path d="M157.5849 105.3L197.2546 221.359" fill="none" stroke="#aaa" stroke-opacity="0.5" stroke-width="0.5"></path><path d="M285.0337 193.2389L202.2668 173.648" fill="none" stroke="#aaa" stroke-opacity="0.5" stroke-width="0.5"></path><path d="M308.2881 111.1552L246.5413 179.9867" fill="none" stroke="#aaa" stroke-opacity="0.5" stroke-width="0.5"></path><path d="M252.1216 78.3569L202.2668 173.648" fill="none" stroke="#aaa" stroke-opacity="0.5" stroke-width="0.5"></path><path d="M195.5043 69.6558L161.3911 154.5675" fill="none" stroke="#aaa" stroke-opacity="0.5" stroke-width="0.5"></path><path d="M195.5043 69.6558L117.2851 92.6443" fill="none" stroke="#aaa" stroke-opacity="0.5" stroke-width="0.5"></path><path d="M285.0337 193.2389L268.5496 130.5823" fill="none" stroke="#aaa" stroke-opacity="0.5" stroke-width="0.5"></path><path d="M197.2546 221.359L113.6187 136.5222" fill="none" stroke="#aaa" stroke-opacity="0.5" stroke-width="0.5"></path><path d="M304.7857 154.6897L202.2668 173.648" fill="none" stroke="#aaa" stroke-opacity="0.5" stroke-width="0.5"></path><path d="M140.7988 56.8902L202.2668 173.648" fill="none" stroke="#aaa" stroke-opacity="0.5" stroke-width="0.5"></path><path d="M175.5868 31.8692L197.2546 221.359" fill="none" stroke="#aaa" stroke-opacity="0.5" stroke-width="0.5"></path><path d="M195.5043 69.6558L140.7988 56.8902" fill="none" stroke="#aaa" stroke-opacity="0.5" stroke-width="0.5"></path><path d="M285.0337 193.2389L159.5821 207.0877" fill="none" stroke="#aaa" stroke-opacity="0.5" stroke-width="0.5"></path><path d="M252.1216 78.3569L268.5496 130.5823" fill="none" stroke="#aaa" stroke-opacity="0.5" stroke-width="0.5"></path><path d="M308.2881 111.1552L113.6187 136.5222" fill="none" stroke="#aaa" stroke-opacity="0.5" stroke-width="0.5"></path><path d="M195.5043 69.6558L241.4662 221.5425" fill="none" stroke="#aaa" stroke-opacity="0.5" stroke-width="0.5"></path><path d="M252.1216 78.3569L159.5821 207.0877" fill="none" stroke="#aaa" stroke-opacity="0.5" stroke-width="0.5"></path><path d="M246.5413 179.9867L252.1216 78.3569" fill="none" stroke="#aaa" stroke-opacity="0.5" stroke-width="0.5"></path><path d="M140.7988 56.8902L268.5496 130.5823" fill="none" stroke="#aaa" stroke-opacity="0.5" stroke-width="0.5"></path><path d="M157.5849 105.3L195.5043 69.6558" fill="none" stroke="#aaa" stroke-opacity="0.5" stroke-width="0.5"></path><path d="M219.58 26.961L252.1216 78.3569" fill="none" stroke="#aaa" stroke-opacity="0.5" stroke-width="0.5"></path><path d="M140.7988 56.8902L159.5821 207.0877" fill="none" stroke="#aaa" stroke-opacity="0.5" stroke-width="0.5"></path><path d="M268.5496 130.5823L161.3911 154.5675" fill="none" stroke="#aaa" stroke-opacity="0.5" stroke-width="0.5"></path><path d="M246.5413 179.9867L113.6187 136.5222" fill="none" stroke="#aaa" stroke-opacity="0.5" stroke-width="0.5"></path><path d="M195.5043 69.6558L197.2546 221.359" fill="none" stroke="#aaa" stroke-opacity="0.5" stroke-width="0.5"></path><path d="M157.5849 105.3L308.2881 111.1552" fill="none" stroke="#aaa" stroke-opacity="0.5" stroke-width="0.5"></path><path d="M308.2881 111.1552L202.2668 173.648" fill="none" stroke="#aaa" stroke-opacity="0.5" stroke-width="0.5"></path><path d="M285.0337 193.2389L161.3911 154.5675" fill="none" stroke="#aaa" stroke-opacity="0.5" stroke-width="0.5"></path><path d="M285.0337 193.2389L117.2851 92.6443" fill="none" stroke="#aaa" stroke-opacity="0.5" stroke-width="0.5"></path><path d="M195.5043 69.6558L259.454 36.9843" fill="none" stroke="#aaa" stroke-opacity="0.5" stroke-width="0.5"></path><path d="M241.4662 221.5425L117.2851 92.6443" fill="none" stroke="#aaa" stroke-opacity="0.5" stroke-width="0.5"></path><path d="M308.2881 111.1552L268.5496 130.5823" fill="none" stroke="#aaa" stroke-opacity="0.5" stroke-width="0.5"></path><path d="M252.1216 78.3569L161.3911 154.5675" fill="none" stroke="#aaa" stroke-opacity="0.5" stroke-width="0.5"></path><path d="M175.5868 31.8692L308.2881 111.1552" fill="none" stroke="#aaa" stroke-opacity="0.5" stroke-width="0.5"></path><path d="M117.2851 92.6443L259.454 36.9843" fill="none" stroke="#aaa" stroke-opacity="0.5" stroke-width="0.5"></path><path d="M294.5736 71.1367L268.5496 130.5823" fill="none" stroke="#aaa" stroke-opacity="0.5" stroke-width="0.5"></path><path d="M161.3911 154.5675L202.2668 173.648" fill="none" stroke="#aaa" stroke-opacity="0.5" stroke-width="0.5"></path><path d="M308.2881 111.1552L159.5821 207.0877" fill="none" stroke="#aaa" stroke-opacity="0.5" stroke-width="0.5"></path><path d="M252.1216 78.3569L140.7988 56.8902" fill="none" stroke="#aaa" stroke-opacity="0.5" stroke-width="0.5"></path><path d="M140.7988 56.8902L161.3911 154.5675" fill="none" stroke="#aaa" stroke-opacity="0.5" stroke-width="0.5"></path><path d="M140.7988 56.8902L304.7857 154.6897" fill="none" stroke="#aaa" stroke-opacity="0.5" stroke-width="0.5"></path><path d="M157.5849 105.3L252.1216 78.3569" fill="none" stroke="#aaa" stroke-opacity="0.5" stroke-width="0.5"></path><path d="M125.6326 178.5558L241.4662 221.5425" fill="none" stroke="#aaa" stroke-opacity="0.5" stroke-width="0.5"></path><path d="M268.5496 130.5823L259.454 36.9843" fill="none" stroke="#aaa" stroke-opacity="0.5" stroke-width="0.5"></path><path d="M241.4662 221.5425L304.7857 154.6897" fill="none" stroke="#aaa" stroke-opacity="0.5" stroke-width="0.5"></path><path d="M285.0337 193.2389L197.2546 221.359" fill="none" stroke="#aaa" stroke-opacity="0.5" stroke-width="0.5"></path><path d="M157.5849 105.3L113.6187 136.5222" fill="none" stroke="#aaa" stroke-opacity="0.5" stroke-width="0.5"></path><path d="M175.5868 31.8692L246.5413 179.9867" fill="none" stroke="#aaa" stroke-opacity="0.5" stroke-width="0.5"></path><path d="M252.1216 78.3569L197.2546 221.359" fill="none" stroke="#aaa" stroke-opacity="0.5" stroke-width="0.5"></path><path d="M125.6326 178.5558L304.7857 154.6897" fill="none" stroke="#aaa" stroke-opacity="0.5" stroke-width="0.5"></path><path d="M197.2546 221.359L117.2851 92.6443" fill="none" stroke="#aaa" stroke-opacity="0.5" stroke-width="0.5"></path><path d="M175.5868 31.8692L252.1216 78.3569" fill="none" stroke="#aaa" stroke-opacity="0.5" stroke-width="0.5"></path><path d="M117.2851 92.6443L217.8696 117.2663" fill="none" stroke="#aaa" stroke-opacity="0.5" stroke-width="0.5"></path><path d="M140.7988 56.8902L197.2546 221.359" fill="none" stroke="#aaa" stroke-opacity="0.5" stroke-width="0.5"></path><path d="M241.4662 221.5425L259.454 36.9843" fill="none" stroke="#aaa" stroke-opacity="0.5" stroke-width="0.5"></path><path d="M308.2881 111.1552L161.3911 154.5675" fill="none" stroke="#aaa" stroke-opacity="0.5" stroke-width="0.5"></path><path d="M308.2881 111.1552L117.2851 92.6443" fill="none" stroke="#aaa" stroke-opacity="0.5" stroke-width="0.5"></path><path d="M294.5736 71.1367L161.3911 154.5675" fill="none" stroke="#aaa" stroke-opacity="0.5" stroke-width="0.5"></path><path d="M175.5868 31.8692L113.6187 136.5222" fill="none" stroke="#aaa" stroke-opacity="0.5" stroke-width="0.5"></path><path d="M117.2851 92.6443L294.5736 71.1367" fill="none" stroke="#aaa" stroke-opacity="0.5" stroke-width="0.5"></path><path d="M125.6326 178.5558L259.454 36.9843" fill="none" stroke="#aaa" stroke-opacity="0.5" stroke-width="0.5"></path><path d="M308.2881 111.1552L140.7988 56.8902" fill="none" stroke="#aaa" stroke-opacity="0.5" stroke-width="0.5"></path><path d="M304.7857 154.6897L259.454 36.9843" fill="none" stroke="#aaa" stroke-opacity="0.5" stroke-width="0.5"></path><path d="M159.5821 207.0877L304.7857 154.6897" fill="none" stroke="#aaa" stroke-opacity="0.5" stroke-width="0.5"></path><path d="M308.2881 111.1552L241.4662 221.5425" fill="none" stroke="#aaa" stroke-opacity="0.5" stroke-width="0.5"></path><path d="M195.5043 69.6558L252.1216 78.3569" fill="none" stroke="#aaa" stroke-opacity="0.5" stroke-width="0.5"></path><path d="M197.2546 221.359L304.7857 154.6897" fill="none" stroke="#aaa" stroke-opacity="0.5" stroke-width="0.5"></path><path d="M125.6326 178.5558L175.5868 31.8692" fill="none" stroke="#aaa" stroke-opacity="0.5" stroke-width="0.5"></path><path d="M113.6187 136.5222L304.7857 154.6897" fill="none" stroke="#aaa" stroke-opacity="0.5" stroke-width="0.5"></path><path d="M161.3911 154.5L304.7857 154.5" fill="none" stroke="#aaa" stroke-opacity="0.5" stroke-width="0.5"></path><path d="M159.5821 207.0877L259.454 36.9843" fill="none" stroke="#aaa" stroke-opacity="0.5" stroke-width="0.5"></path><path d="M195.5043 69.6558L113.6187 136.5222" fill="none" stroke="#aaa" stroke-opacity="0.5" stroke-width="0.5"></path><path d="M308.2881 111.1552L197.2546 221.359" fill="none" stroke="#aaa" stroke-opacity="0.5" stroke-width="0.5"></path><path d="M241.4662 221.5425L217.8696 117.2663" fill="none" stroke="#aaa" stroke-opacity="0.5" stroke-width="0.5"></path><path d="M197.2546 221.359L259.454 36.9843" fill="none" stroke="#aaa" stroke-opacity="0.5" stroke-width="0.5"></path><path d="M125.6326 178.5558L217.8696 117.2663" fill="none" stroke="#aaa" stroke-opacity="0.5" stroke-width="0.5"></path><path d="M241.4662 221.5425L294.5736 71.1367" fill="none" stroke="#aaa" stroke-opacity="0.5" stroke-width="0.5"></path><path d="M246.5413 179.9867L304.7857 154.6897" fill="none" stroke="#aaa" stroke-opacity="0.5" stroke-width="0.5"></path><path d="M308.2881 111.1552L259.454 36.9843" fill="none" stroke="#aaa" stroke-opacity="0.5" stroke-width="0.5"></path><path d="M241.4662 221.5425L285.0337 193.2389" fill="none" stroke="#aaa" stroke-opacity="0.5" stroke-width="0.5"></path><path d="M294.5736 71.1367L259.454 36.9843" fill="none" stroke="#aaa" stroke-opacity="0.5" stroke-width="0.5"></path><path d="M125.6326 178.5558L294.5736 71.1367" fill="none" stroke="#aaa" stroke-opacity="0.5" stroke-width="0.5"></path><path d="M219.58 26.961L304.7857 154.6897" fill="none" stroke="#aaa" stroke-opacity="0.5" stroke-width="0.5"></path><path d="M217.8696 117.2663L259.454 36.9843" fill="none" stroke="#aaa" stroke-opacity="0.5" stroke-width="0.5"></path><path d="M125.6326 178.5558L285.0337 193.2389" fill="none" stroke="#aaa" stroke-opacity="0.5" stroke-width="0.5"></path><path d="M219.58 26.961L125.6326 178.5558" fill="none" stroke="#aaa" stroke-opacity="0.5" stroke-width="0.5"></path><path d="M159.5821 207.0877L217.8696 117.2663" fill="none" stroke="#aaa" stroke-opacity="0.5" stroke-width="0.5"></path><path d="M197.2546 221.359L217.8696 117.2663" fill="none" stroke="#aaa" stroke-opacity="0.5" stroke-width="0.5"></path><path d="M159.5821 207.0877L294.5736 71.1367" fill="none" stroke="#aaa" stroke-opacity="0.5" stroke-width="0.5"></path><path d="M285.0337 193.2389L113.6187 136.5222" fill="none" stroke="#aaa" stroke-opacity="0.5" stroke-width="0.5"></path><path d="M113.6187 136.5222L217.8696 117.2663" fill="none" stroke="#aaa" stroke-opacity="0.5" stroke-width="0.5"></path><path d="M252.1216 78.3569L113.6187 136.5222" fill="none" stroke="#aaa" stroke-opacity="0.5" stroke-width="0.5"></path><path d="M197.2546 221.359L294.5736 71.1367" fill="none" stroke="#aaa" stroke-opacity="0.5" stroke-width="0.5"></path><path d="M157.5849 105.3L241.4662 221.5425" fill="none" stroke="#aaa" stroke-opacity="0.5" stroke-width="0.5"></path><path d="M219.58 26.961L175.5868 31.8692" fill="none" stroke="#aaa" stroke-opacity="0.5" stroke-width="0.5"></path><path d="M113.6187 136.5222L294.5736 71.1367" fill="none" stroke="#aaa" stroke-opacity="0.5" stroke-width="0.5"></path><path d="M175.5868 31.8692L117.2851 92.6443" fill="none" stroke="#aaa" stroke-opacity="0.5" stroke-width="0.5"></path><path d="M117.2851 92.6443L202.2668 173.648" fill="none" stroke="#aaa" stroke-opacity="0.5" stroke-width="0.5"></path><path d="M140.7988 56.8902L113.6187 136.5222" fill="none" stroke="#aaa" stroke-opacity="0.5" stroke-width="0.5"></path><path d="M125.6326 178.5558L246.5413 179.9867" fill="none" stroke="#aaa" stroke-opacity="0.5" stroke-width="0.5"></path><path d="M175.5868 31.8692L140.7988 56.8902" fill="none" stroke="#aaa" stroke-opacity="0.5" stroke-width="0.5"></path><path d="M157.5849 105.3L304.7857 154.6897" fill="none" stroke="#aaa" stroke-opacity="0.5" stroke-width="0.5"></path><path d="M246.5413 179.9867L217.8696 117.2663" fill="none" stroke="#aaa" stroke-opacity="0.5" stroke-width="0.5"></path><path d="M117.2851 92.6443L268.5496 130.5823" fill="none" stroke="#aaa" stroke-opacity="0.5" stroke-width="0.5"></path><path d="M175.5868 31.8692L241.4662 221.5425" fill="none" stroke="#aaa" stroke-opacity="0.5" stroke-width="0.5"></path><path d="M157.5849 105.3L125.6326 178.5558" fill="none" stroke="#aaa" stroke-opacity="0.5" stroke-width="0.5"></path><path d="M219.58 26.961L217.8696 117.2663" fill="none" stroke="#aaa" stroke-opacity="0.5" stroke-width="0.5"></path><path d="M117.2851 92.6443L159.5821 207.0877" fill="none" stroke="#aaa" stroke-opacity="0.5" stroke-width="0.5"></path><path d="M246.5413 179.9867L294.5736 71.1367" fill="none" stroke="#aaa" stroke-opacity="0.5" stroke-width="0.5"></path><path d="M308.2881 111.1552L252.1216 78.3569" fill="none" stroke="#aaa" stroke-opacity="0.5" stroke-width="0.5"></path><path d="M157.5849 105.3L259.454 36.9843" fill="none" stroke="#aaa" stroke-opacity="0.5" stroke-width="0.5"></path><path d="M246.5413 179.9867L285.0337 193.2389" fill="none" stroke="#aaa" stroke-opacity="0.5" stroke-width="0.5"></path><path d="M219.58 26.961L294.5736 71.1367" fill="none" stroke="#aaa" stroke-opacity="0.5" stroke-width="0.5"></path><path d="M219.58 26.961L285.0337 193.2389" fill="none" stroke="#aaa" stroke-opacity="0.5" stroke-width="0.5"></path><path d="M219.58 26.961L308.2881 111.1552" fill="none" stroke="#aaa" stroke-opacity="0.5" stroke-width="0.5"></path><path d="M241.4662 221.5425L202.2668 173.648" fill="none" stroke="#aaa" stroke-opacity="0.5" stroke-width="0.5"></path><path d="M157.5849 105.3L175.5868 31.8692" fill="none" stroke="#aaa" stroke-opacity="0.5" stroke-width="0.5"></path><path d="M175.5868 31.8692L259.454 36.9843" fill="none" stroke="#aaa" stroke-opacity="0.5" stroke-width="0.5"></path><path d="M125.6326 178.5558L202.2668 173.648" fill="none" stroke="#aaa" stroke-opacity="0.5" stroke-width="0.5"></path><path d="M241.4662 221.5425L268.5496 130.5823" fill="none" stroke="#aaa" stroke-opacity="0.5" stroke-width="0.5"></path><path d="M195.5043 69.6558L304.7857 154.6897" fill="none" stroke="#aaa" stroke-opacity="0.5" stroke-width="0.5"></path><path d="M117.2851 92.6443L161.3911 154.5675" fill="none" stroke="#aaa" stroke-opacity="0.5" stroke-width="0.5"></path><path d="M241.4662 221.5425L159.5821 207.0877" fill="none" stroke="#aaa" stroke-opacity="0.5" stroke-width="0.5"></path><path d="M125.6326 178.5558L268.5496 130.5823" fill="none" stroke="#aaa" stroke-opacity="0.5" stroke-width="0.5"></path><path d="M157.5849 105.3L217.8696 117.2663" fill="none" stroke="#aaa" stroke-opacity="0.5" stroke-width="0.5"></path><path d="M195.5043 69.6558L125.6326 178.5558" fill="none" stroke="#aaa" stroke-opacity="0.5" stroke-width="0.5"></path><path d="M117.2851 92.6443L304.7857 154.6897" fill="none" stroke="#aaa" stroke-opacity="0.5" stroke-width="0.5"></path><path d="M125.6326 178.5558L159.5821 207.0877" fill="none" stroke="#aaa" stroke-opacity="0.5" stroke-width="0.5"></path><path d="M219.58 26.961L246.5413 179.9867" fill="none" stroke="#aaa" stroke-opacity="0.5" stroke-width="0.5"></path><path d="M1 0A1 1 0 1 1 1 -0.0001" fill="#5470c6" transform="matrix(18,0,0,18,304.7857,154.6897)"></path><path d="M1 0A1 1 0 1 1 1 -0.0001" fill="#5470c6" transform="matrix(18,0,0,18,268.5496,130.5823)"></path><path d="M1 0A1 1 0 1 1 1 -0.0001" fill="#5470c6" transform="matrix(18,0,0,18,285.0337,193.2389)"></path><path d="M1 0A1 1 0 1 1 1 -0.0001" fill="#5470c6" transform="matrix(18,0,0,18,241.4662,221.5425)"></path><path d="M1 0A1 1 0 1 1 1 -0.0001" fill="#5470c6" transform="matrix(18,0,0,18,246.5413,179.9867)"></path><path d="M1 0A1 1 0 1 1 1 -0.0001" fill="#5470c6" transform="matrix(18,0,0,18,197.2546,221.359)"></path><path d="M1 0A1 1 0 1 1 1 -0.0001" fill="#5470c6" transform="matrix(18,0,0,18,159.5821,207.0877)"></path><path d="M1 0A1 1 0 1 1 1 -0.0001" fill="#5470c6" transform="matrix(18,0,0,18,202.2668,173.648)"></path><path d="M1 0A1 1 0 1 1 1 -0.0001" fill="#5470c6" transform="matrix(18,0,0,18,125.6326,178.5558)"></path><path d="M1 0A1 1 0 1 1 1 -0.0001" fill="#5470c6" transform="matrix(18,0,0,18,217.8696,117.2663)"></path><path d="M1 0A1 1 0 1 1 1 -0.0001" fill="#5470c6" transform="matrix(18,0,0,18,113.6187,136.5222)"></path><path d="M1 0A1 1 0 1 1 1 -0.0001" fill="#5470c6" transform="matrix(18,0,0,18,161.3911,154.5675)"></path><path d="M1 0A1 1 0 1 1 1 -0.0001" fill="#5470c6" transform="matrix(18,0,0,18,117.2851,92.6443)"></path><path d="M1 0A1 1 0 1 1 1 -0.0001" fill="#5470c6" transform="matrix(18,0,0,18,140.7988,56.8902)"></path><path d="M1 0A1 1 0 1 1 1 -0.0001" fill="#5470c6" transform="matrix(18,0,0,18,157.5849,105.3)"></path><path d="M1 0A1 1 0 1 1 1 -0.0001" fill="#5470c6" transform="matrix(18,0,0,18,175.5868,31.8692)"></path><path d="M1 0A1 1 0 1 1 1 -0.0001" fill="#5470c6" transform="matrix(18,0,0,18,195.5043,69.6558)"></path><path d="M1 0A1 1 0 1 1 1 -0.0001" fill="#5470c6" transform="matrix(18,0,0,18,219.58,26.961)"></path><path d="M1 0A1 1 0 1 1 1 -0.0001" fill="#5470c6" transform="matrix(18,0,0,18,259.454,36.9843)"></path><path d="M1 0A1 1 0 1 1 1 -0.0001" fill="#5470c6" transform="matrix(18,0,0,18,294.5736,71.1367)"></path><path d="M1 0A1 1 0 1 1 1 -0.0001" fill="#5470c6" transform="matrix(18,0,0,18,252.1216,78.3569)"></path><path d="M1 0A1 1 0 1 1 1 -0.0001" fill="#5470c6" transform="matrix(18,0,0,18,308.2881,111.1552)"></path><path d="M-25.1792 -5l50.3584 0l0 32l-50.3584 0Z" fill="rgb(0,0,0)" fill-opacity="0" stroke="#ccc" stroke-width="0" transform="translate(237.5 5)"></path><text dominant-baseline="central" fill="#333" style="font-size:22px;font-family:sans-serif;font-weight:bolder;" text-anchor="middle" transform="translate(237.5 5)" y="11">C59</text></g></svg>