<svg baseprofile="full" height="250" style="position:absolute;left:0;top:0;user-select:none" version="1.1" width="475" xmlns="http://www.w3.org/2000/svg" xmlns:xlink="http://www.w3.org/1999/xlink"><rect fill="none" height="250" id="0" width="475" x="0" y="0"></rect><g><path d="M119.0552 160.8833L308.9027 144.6794" fill="none" stroke="#aaa" stroke-opacity="0.5" stroke-width="0.5"></path><path d="M188.3044 28.998L285.939 191.8596" fill="none" stroke="#aaa" stroke-opacity="0.5" stroke-width="0.5"></path><path d="M161.2592 94.1071L245.258 150.6699" fill="none" stroke="#aaa" stroke-opacity="0.5" stroke-width="0.5"></path><path d="M188.3044 28.998L245.258 150.6699" fill="none" stroke="#aaa" stroke-opacity="0.5" stroke-width="0.5"></path><path d="M188.3044 28.998L119.0552 160.8833" fill="none" stroke="#aaa" stroke-opacity="0.5" stroke-width="0.5"></path><path d="M161.2592 94.1071L148.8281 203.4505" fill="none" stroke="#aaa" stroke-opacity="0.5" stroke-width="0.5"></path><path d="M188.3044 28.998L148.8281 203.4505" fill="none" stroke="#aaa" stroke-opacity="0.5" stroke-width="0.5"></path><path d="M281.6864 55.1801L242.5033 217.8145" fill="none" stroke="#aaa" stroke-opacity="0.5" stroke-width="0.5"></path><path d="M302.9114 97.0792L182.2533 153.8676" fill="none" stroke="#aaa" stroke-opacity="0.5" stroke-width="0.5"></path><path d="M195.8088 221.2242L161.2592 94.1071" fill="none" stroke="#aaa" stroke-opacity="0.5" stroke-width="0.5"></path><path d="M281.6864 55.1801L110.0655 108.9424" fill="none" stroke="#aaa" stroke-opacity="0.5" stroke-width="0.5"></path><path d="M245.258 150.6699L139.7792 50.7717" fill="none" stroke="#aaa" stroke-opacity="0.5" stroke-width="0.5"></path><path d="M281.6864 55.1801L161.2592 94.1071" fill="none" stroke="#aaa" stroke-opacity="0.5" stroke-width="0.5"></path><path d="M119.0552 160.8833L245.258 150.6699" fill="none" stroke="#aaa" stroke-opacity="0.5" stroke-width="0.5"></path><path d="M281.6864 55.1801L308.9027 144.6794" fill="none" stroke="#aaa" stroke-opacity="0.5" stroke-width="0.5"></path><path d="M195.8088 221.2242L119.0552 160.8833" fill="none" stroke="#aaa" stroke-opacity="0.5" stroke-width="0.5"></path><path d="M119.0552 160.8833L148.8281 203.4505" fill="none" stroke="#aaa" stroke-opacity="0.5" stroke-width="0.5"></path><path d="M285.939 191.8596L195.8088 221.2242" fill="none" stroke="#aaa" stroke-opacity="0.5" stroke-width="0.5"></path><path d="M227.4733 90.2905L139.7792 50.7717" fill="none" stroke="#aaa" stroke-opacity="0.5" stroke-width="0.5"></path><path d="M281.6864 55.1801L188.3044 28.998" fill="none" stroke="#aaa" stroke-opacity="0.5" stroke-width="0.5"></path><path d="M302.9114 97.0792L281.6864 55.1801" fill="none" stroke="#aaa" stroke-opacity="0.5" stroke-width="0.5"></path><path d="M110.0655 108.9424L139.7792 50.7717" fill="none" stroke="#aaa" stroke-opacity="0.5" stroke-width="0.5"></path><path d="M281.6864 55.1801L245.258 150.6699" fill="none" stroke="#aaa" stroke-opacity="0.5" stroke-width="0.5"></path><path d="M182.2533 153.8676L242.5033 217.8145" fill="none" stroke="#aaa" stroke-opacity="0.5" stroke-width="0.5"></path><path d="M237.9861 30.182L139.7792 50.7717" fill="none" stroke="#aaa" stroke-opacity="0.5" stroke-width="0.5"></path><path d="M227.4733 90.2905L161.2592 94.1071" fill="none" stroke="#aaa" stroke-opacity="0.5" stroke-width="0.5"></path><path d="M245.258 150.6699L148.8281 203.4505" fill="none" stroke="#aaa" stroke-opacity="0.5" stroke-width="0.5"></path><path d="M302.9114 97.0792L139.7792 50.7717" fill="none" stroke="#aaa" stroke-opacity="0.5" stroke-width="0.5"></path><path d="M182.2533 153.8676L308.9027 144.6794" fill="none" stroke="#aaa" stroke-opacity="0.5" stroke-width="0.5"></path><path d="M110.0655 108.9424L161.2592 94.1071" fill="none" stroke="#aaa" stroke-opacity="0.5" stroke-width="0.5"></path><path d="M227.4733 90.2905L119.0552 160.8833" fill="none" stroke="#aaa" stroke-opacity="0.5" stroke-width="0.5"></path><path d="M182.2533 153.8676L188.3044 28.998" fill="none" stroke="#aaa" stroke-opacity="0.5" stroke-width="0.5"></path><path d="M237.9861 30.182L161.2592 94.1071" fill="none" stroke="#aaa" stroke-opacity="0.5" stroke-width="0.5"></path><path d="M227.4733 90.2905L148.8281 203.4505" fill="none" stroke="#aaa" stroke-opacity="0.5" stroke-width="0.5"></path><path d="M110.0655 108.9424L285.939 191.8596" fill="none" stroke="#aaa" stroke-opacity="0.5" stroke-width="0.5"></path><path d="M161.2592 94.1071L139.7792 50.7717" fill="none" stroke="#aaa" stroke-opacity="0.5" stroke-width="0.5"></path><path d="M285.939 191.8596L242.5033 217.8145" fill="none" stroke="#aaa" stroke-opacity="0.5" stroke-width="0.5"></path><path d="M182.2533 153.8676L227.4733 90.2905" fill="none" stroke="#aaa" stroke-opacity="0.5" stroke-width="0.5"></path><path d="M188.3044 28.998L139.7792 50.7717" fill="none" stroke="#aaa" stroke-opacity="0.5" stroke-width="0.5"></path><path d="M110.0655 108.9424L119.0552 160.8833" fill="none" stroke="#aaa" stroke-opacity="0.5" stroke-width="0.5"></path><path d="M237.9861 30.182L227.4733 90.2905" fill="none" stroke="#aaa" stroke-opacity="0.5" stroke-width="0.5"></path><path d="M182.2533 153.8676L285.939 191.8596" fill="none" stroke="#aaa" stroke-opacity="0.5" stroke-width="0.5"></path><path d="M182.2533 153.8676L245.258 150.6699" fill="none" stroke="#aaa" stroke-opacity="0.5" stroke-width="0.5"></path><path d="M237.9861 30.182L285.939 191.8596" fill="none" stroke="#aaa" stroke-opacity="0.5" stroke-width="0.5"></path><path d="M302.9114 97.0792L161.2592 94.1071" fill="none" stroke="#aaa" stroke-opacity="0.5" stroke-width="0.5"></path><path d="M237.9861 30.182L119.0552 160.8833" fill="none" stroke="#aaa" stroke-opacity="0.5" stroke-width="0.5"></path><path d="M182.2533 153.8676L148.8281 203.4505" fill="none" stroke="#aaa" stroke-opacity="0.5" stroke-width="0.5"></path><path d="M237.9861 30.182L148.8281 203.4505" fill="none" stroke="#aaa" stroke-opacity="0.5" stroke-width="0.5"></path><path d="M285.939 191.8596L308.9027 144.6794" fill="none" stroke="#aaa" stroke-opacity="0.5" stroke-width="0.5"></path><path d="M119.0552 160.8833L139.7792 50.7717" fill="none" stroke="#aaa" stroke-opacity="0.5" stroke-width="0.5"></path><path d="M302.9114 97.0792L188.3044 28.998" fill="none" stroke="#aaa" stroke-opacity="0.5" stroke-width="0.5"></path><path d="M110.0655 108.9424L182.2533 153.8676" fill="none" stroke="#aaa" stroke-opacity="0.5" stroke-width="0.5"></path><path d="M188.3044 28.998L161.2592 94.1071" fill="none" stroke="#aaa" stroke-opacity="0.5" stroke-width="0.5"></path><path d="M227.4733 90.2905L195.8088 221.2242" fill="none" stroke="#aaa" stroke-opacity="0.5" stroke-width="0.5"></path><path d="M285.939 191.8596L227.4733 90.2905" fill="none" stroke="#aaa" stroke-opacity="0.5" stroke-width="0.5"></path><path d="M237.9861 30.182L182.2533 153.8676" fill="none" stroke="#aaa" stroke-opacity="0.5" stroke-width="0.5"></path><path d="M195.8088 221.2242L242.5033 217.8145" fill="none" stroke="#aaa" stroke-opacity="0.5" stroke-width="0.5"></path><path d="M285.939 191.8596L245.258 150.6699" fill="none" stroke="#aaa" stroke-opacity="0.5" stroke-width="0.5"></path><path d="M308.9027 144.6794L148.8281 203.4505" fill="none" stroke="#aaa" stroke-opacity="0.5" stroke-width="0.5"></path><path d="M110.0655 108.9424L195.8088 221.2242" fill="none" stroke="#aaa" stroke-opacity="0.5" stroke-width="0.5"></path><path d="M285.939 191.8596L148.8281 203.4505" fill="none" stroke="#aaa" stroke-opacity="0.5" stroke-width="0.5"></path><path d="M119.0552 160.8833L161.2592 94.1071" fill="none" stroke="#aaa" stroke-opacity="0.5" stroke-width="0.5"></path><path d="M237.9861 30.182L195.8088 221.2242" fill="none" stroke="#aaa" stroke-opacity="0.5" stroke-width="0.5"></path><path d="M195.8088 221.2242L308.9027 144.6794" fill="none" stroke="#aaa" stroke-opacity="0.5" stroke-width="0.5"></path><path d="M237.9861 30.182L281.6864 55.1801" fill="none" stroke="#aaa" stroke-opacity="0.5" stroke-width="0.5"></path><path d="M302.9114 97.0792L195.8088 221.2242" fill="none" stroke="#aaa" stroke-opacity="0.5" stroke-width="0.5"></path><path d="M245.258 150.6699L242.5033 217.8145" fill="none" stroke="#aaa" stroke-opacity="0.5" stroke-width="0.5"></path><path d="M242.5033 217.8145L139.7792 50.7717" fill="none" stroke="#aaa" stroke-opacity="0.5" stroke-width="0.5"></path><path d="M195.8088 221.2242L245.258 150.6699" fill="none" stroke="#aaa" stroke-opacity="0.5" stroke-width="0.5"></path><path d="M281.6864 55.1801L227.4733 90.2905" fill="none" stroke="#aaa" stroke-opacity="0.5" stroke-width="0.5"></path><path d="M245.258 150.6699L308.9027 144.6794" fill="none" stroke="#aaa" stroke-opacity="0.5" stroke-width="0.5"></path><path d="M188.3044 28.998L195.8088 221.2242" fill="none" stroke="#aaa" stroke-opacity="0.5" stroke-width="0.5"></path><path d="M195.8088 221.2242L148.8281 203.4505" fill="none" stroke="#aaa" stroke-opacity="0.5" stroke-width="0.5"></path><path d="M227.4733 90.2905L242.5033 217.8145" fill="none" stroke="#aaa" stroke-opacity="0.5" stroke-width="0.5"></path><path d="M281.6864 55.1801L285.939 191.8596" fill="none" stroke="#aaa" stroke-opacity="0.5" stroke-width="0.5"></path><path d="M237.9861 30.182L302.9114 97.0792" fill="none" stroke="#aaa" stroke-opacity="0.5" stroke-width="0.5"></path><path d="M182.2533 153.8676L139.7792 50.7717" fill="none" stroke="#aaa" stroke-opacity="0.5" stroke-width="0.5"></path><path d="M281.6864 55.1801L119.0552 160.8833" fill="none" stroke="#aaa" stroke-opacity="0.5" stroke-width="0.5"></path><path d="M148.8281 203.4505L139.7792 50.7717" fill="none" stroke="#aaa" stroke-opacity="0.5" stroke-width="0.5"></path><path d="M281.6864 55.1801L148.8281 203.4505" fill="none" stroke="#aaa" stroke-opacity="0.5" stroke-width="0.5"></path><path d="M110.0655 108.9424L242.5033 217.8145" fill="none" stroke="#aaa" stroke-opacity="0.5" stroke-width="0.5"></path><path d="M227.4733 90.2905L308.9027 144.6794" fill="none" stroke="#aaa" stroke-opacity="0.5" stroke-width="0.5"></path><path d="M237.9861 30.182L242.5033 217.8145" fill="none" stroke="#aaa" stroke-opacity="0.5" stroke-width="0.5"></path><path d="M237.9861 30.182L110.0655 108.9424" fill="none" stroke="#aaa" stroke-opacity="0.5" stroke-width="0.5"></path><path d="M281.6864 55.1801L182.2533 153.8676" fill="none" stroke="#aaa" stroke-opacity="0.5" stroke-width="0.5"></path><path d="M110.0655 108.9424L308.9027 144.6794" fill="none" stroke="#aaa" stroke-opacity="0.5" stroke-width="0.5"></path><path d="M182.2533 153.8676L161.2592 94.1071" fill="none" stroke="#aaa" stroke-opacity="0.5" stroke-width="0.5"></path><path d="M308.9027 144.6794L139.7792 50.7717" fill="none" stroke="#aaa" stroke-opacity="0.5" stroke-width="0.5"></path><path d="M302.9114 97.0792L242.5033 217.8145" fill="none" stroke="#aaa" stroke-opacity="0.5" stroke-width="0.5"></path><path d="M285.939 191.8596L139.7792 50.7717" fill="none" stroke="#aaa" stroke-opacity="0.5" stroke-width="0.5"></path><path d="M237.9861 30.182L308.9027 144.6794" fill="none" stroke="#aaa" stroke-opacity="0.5" stroke-width="0.5"></path><path d="M110.0655 108.9424L188.3044 28.998" fill="none" stroke="#aaa" stroke-opacity="0.5" stroke-width="0.5"></path><path d="M227.4733 90.2905L245.258 150.6699" fill="none" stroke="#aaa" stroke-opacity="0.5" stroke-width="0.5"></path><path d="M302.9114 97.0792L110.0655 108.9424" fill="none" stroke="#aaa" stroke-opacity="0.5" stroke-width="0.5"></path><path d="M281.6864 55.1801L195.8088 221.2242" fill="none" stroke="#aaa" stroke-opacity="0.5" stroke-width="0.5"></path><path d="M182.2533 153.8676L119.0552 160.8833" fill="none" stroke="#aaa" stroke-opacity="0.5" stroke-width="0.5"></path><path d="M110.0655 108.9424L227.4733 90.2905" fill="none" stroke="#aaa" stroke-opacity="0.5" stroke-width="0.5"></path><path d="M237.9861 30.182L188.3044 28.998" fill="none" stroke="#aaa" stroke-opacity="0.5" stroke-width="0.5"></path><path d="M110.0655 108.9424L245.258 150.6699" fill="none" stroke="#aaa" stroke-opacity="0.5" stroke-width="0.5"></path><path d="M302.9114 97.0792L308.9027 144.6794" fill="none" stroke="#aaa" stroke-opacity="0.5" stroke-width="0.5"></path><path d="M161.2592 94.1071L242.5033 217.8145" fill="none" stroke="#aaa" stroke-opacity="0.5" stroke-width="0.5"></path><path d="M188.3044 28.998L242.5033 217.8145" fill="none" stroke="#aaa" stroke-opacity="0.5" stroke-width="0.5"></path><path d="M242.5033 217.8145L308.9027 144.6794" fill="none" stroke="#aaa" stroke-opacity="0.5" stroke-width="0.5"></path><path d="M110.0655 108.9424L148.8281 203.4505" fill="none" stroke="#aaa" stroke-opacity="0.5" stroke-width="0.5"></path><path d="M237.9861 30.182L245.258 150.6699" fill="none" stroke="#aaa" stroke-opacity="0.5" stroke-width="0.5"></path><path d="M285.939 191.8596L161.2592 94.1071" fill="none" stroke="#aaa" stroke-opacity="0.5" stroke-width="0.5"></path><path d="M161.2592 94.1071L308.9027 144.6794" fill="none" stroke="#aaa" stroke-opacity="0.5" stroke-width="0.5"></path><path d="M302.9114 97.0792L227.4733 90.2905" fill="none" stroke="#aaa" stroke-opacity="0.5" stroke-width="0.5"></path><path d="M188.3044 28.998L308.9027 144.6794" fill="none" stroke="#aaa" stroke-opacity="0.5" stroke-width="0.5"></path><path d="M302.9114 97.0792L285.939 191.8596" fill="none" stroke="#aaa" stroke-opacity="0.5" stroke-width="0.5"></path><path d="M119.0552 160.8833L242.5033 217.8145" fill="none" stroke="#aaa" stroke-opacity="0.5" stroke-width="0.5"></path><path d="M302.9114 97.0792L245.258 150.6699" fill="none" stroke="#aaa" stroke-opacity="0.5" stroke-width="0.5"></path><path d="M195.8088 221.2242L139.7792 50.7717" fill="none" stroke="#aaa" stroke-opacity="0.5" stroke-width="0.5"></path><path d="M302.9114 97.0792L119.0552 160.8833" fill="none" stroke="#aaa" stroke-opacity="0.5" stroke-width="0.5"></path><path d="M285.939 191.8596L119.0552 160.8833" fill="none" stroke="#aaa" stroke-opacity="0.5" stroke-width="0.5"></path><path d="M302.9114 97.0792L148.8281 203.4505" fill="none" stroke="#aaa" stroke-opacity="0.5" stroke-width="0.5"></path><path d="M281.6864 55.1801L139.7792 50.7717" fill="none" stroke="#aaa" stroke-opacity="0.5" stroke-width="0.5"></path><path d="M188.3044 28.998L227.4733 90.2905" fill="none" stroke="#aaa" stroke-opacity="0.5" stroke-width="0.5"></path><path d="M242.5033 217.8145L148.8281 203.4505" fill="none" stroke="#aaa" stroke-opacity="0.5" stroke-width="0.5"></path><path d="M182.2533 153.8676L195.8088 221.2242" fill="none" stroke="#aaa" stroke-opacity="0.5" stroke-width="0.5"></path><path d="M1 0A1 1 0 1 1 1 -0.0001" fill="#5470c6" transform="matrix(18,0,0,18,308.9027,144.6794)"></path><path d="M1 0A1 1 0 1 1 1 -0.0001" fill="#5470c6" transform="matrix(18,0,0,18,285.939,191.8596)"></path><path d="M1 0A1 1 0 1 1 1 -0.0001" fill="#5470c6" transform="matrix(18,0,0,18,245.258,150.6699)"></path><path d="M1 0A1 1 0 1 1 1 -0.0001" fill="#5470c6" transform="matrix(18,0,0,18,242.5033,217.8145)"></path><path d="M1 0A1 1 0 1 1 1 -0.0001" fill="#5470c6" transform="matrix(18,0,0,18,195.8088,221.2242)"></path><path d="M1 0A1 1 0 1 1 1 -0.0001" fill="#5470c6" transform="matrix(18,0,0,18,148.8281,203.4505)"></path><path d="M1 0A1 1 0 1 1 1 -0.0001" fill="#5470c6" transform="matrix(18,0,0,18,119.0552,160.8833)"></path><path d="M1 0A1 1 0 1 1 1 -0.0001" fill="#5470c6" transform="matrix(18,0,0,18,182.2533,153.8676)"></path><path d="M1 0A1 1 0 1 1 1 -0.0001" fill="#5470c6" transform="matrix(18,0,0,18,110.0655,108.9424)"></path><path d="M1 0A1 1 0 1 1 1 -0.0001" fill="#5470c6" transform="matrix(18,0,0,18,161.2592,94.1071)"></path><path d="M1 0A1 1 0 1 1 1 -0.0001" fill="#5470c6" transform="matrix(18,0,0,18,139.7792,50.7717)"></path><path d="M1 0A1 1 0 1 1 1 -0.0001" fill="#5470c6" transform="matrix(18,0,0,18,188.3044,28.998)"></path><path d="M1 0A1 1 0 1 1 1 -0.0001" fill="#5470c6" transform="matrix(18,0,0,18,237.9861,30.182)"></path><path d="M1 0A1 1 0 1 1 1 -0.0001" fill="#5470c6" transform="matrix(18,0,0,18,227.4733,90.2905)"></path><path d="M1 0A1 1 0 1 1 1 -0.0001" fill="#5470c6" transform="matrix(18,0,0,18,281.6864,55.1801)"></path><path d="M1 0A1 1 0 1 1 1 -0.0001" fill="#5470c6" transform="matrix(18,0,0,18,302.9114,97.0792)"></path><path d="M-26.0964 -5l52.1929 0l0 33l-52.1929 0Z" fill="rgb(0,0,0)" fill-opacity="0" stroke="#ccc" stroke-width="0" transform="translate(237.5 5)"></path><text dominant-baseline="central" fill="#333" style="font-size:23px;font-family:sans-serif;font-weight:bolder;" text-anchor="middle" transform="translate(237.5 5)" y="11.5">C60</text></g></svg>