<svg baseprofile="full" height="250" style="position:absolute;left:0;top:0;user-select:none" version="1.1" width="475" xmlns="http://www.w3.org/2000/svg" xmlns:xlink="http://www.w3.org/1999/xlink"><rect fill="none" height="250" id="0" width="475" x="0" y="0"></rect><g><path d="M136.3076 194.0897L176.5267 158.7465" fill="none" stroke="#aaa" stroke-opacity="0.5" stroke-width="0.5"></path><path d="M233.9518 219.6524L240.5631 154.6382" fill="none" stroke="#aaa" stroke-opacity="0.5" stroke-width="0.5"></path><path d="M233.9518 219.6524L177.7651 95.7105" fill="none" stroke="#aaa" stroke-opacity="0.5" stroke-width="0.5"></path><path d="M233.9518 219.6524L278.9999 198.31" fill="none" stroke="#aaa" stroke-opacity="0.5" stroke-width="0.5"></path><path d="M306.7633 106.0807L240.5631 154.6382" fill="none" stroke="#aaa" stroke-opacity="0.5" stroke-width="0.5"></path><path d="M233.9518 219.6524L305.1694 154.0939" fill="none" stroke="#aaa" stroke-opacity="0.5" stroke-width="0.5"></path><path d="M240.5631 154.6382L305.1694 154.0939" fill="none" stroke="#aaa" stroke-opacity="0.5" stroke-width="0.5"></path><path d="M177.7651 95.7105L278.9999 198.31" fill="none" stroke="#aaa" stroke-opacity="0.5" stroke-width="0.5"></path><path d="M306.7633 106.0807L177.7651 95.7105" fill="none" stroke="#aaa" stroke-opacity="0.5" stroke-width="0.5"></path><path d="M306.7633 106.0807L278.9999 198.31" fill="none" stroke="#aaa" stroke-opacity="0.5" stroke-width="0.5"></path><path d="M114.5498 144.8411L177.7651 95.7105" fill="none" stroke="#aaa" stroke-opacity="0.5" stroke-width="0.5"></path><path d="M115.4991 93.7629L240.9656 92.4576" fill="none" stroke="#aaa" stroke-opacity="0.5" stroke-width="0.5"></path><path d="M287.1197 58.4633L115.4991 93.7629" fill="none" stroke="#aaa" stroke-opacity="0.5" stroke-width="0.5"></path><path d="M114.5498 144.8411L278.9999 198.31" fill="none" stroke="#aaa" stroke-opacity="0.5" stroke-width="0.5"></path><path d="M177.7651 95.7105L305.1694 154.0939" fill="none" stroke="#aaa" stroke-opacity="0.5" stroke-width="0.5"></path><path d="M306.7633 106.0807L305.1694 154.0939" fill="none" stroke="#aaa" stroke-opacity="0.5" stroke-width="0.5"></path><path d="M185.4128 220.8512L240.5631 154.6382" fill="none" stroke="#aaa" stroke-opacity="0.5" stroke-width="0.5"></path><path d="M185.4128 220.8512L177.7651 95.7105" fill="none" stroke="#aaa" stroke-opacity="0.5" stroke-width="0.5"></path><path d="M185.4128 220.8512L278.9999 198.31" fill="none" stroke="#aaa" stroke-opacity="0.5" stroke-width="0.5"></path><path d="M144.9862 49.1632L191.5132 29.4066" fill="none" stroke="#aaa" stroke-opacity="0.5" stroke-width="0.5"></path><path d="M136.3076 194.0897L240.5631 154.6382" fill="none" stroke="#aaa" stroke-opacity="0.5" stroke-width="0.5"></path><path d="M176.5267 158.7465L240.5631 154.6382" fill="none" stroke="#aaa" stroke-opacity="0.5" stroke-width="0.5"></path><path d="M114.5498 144.8411L305.1694 154.0939" fill="none" stroke="#aaa" stroke-opacity="0.5" stroke-width="0.5"></path><path d="M136.3076 194.0897L177.7651 95.7105" fill="none" stroke="#aaa" stroke-opacity="0.5" stroke-width="0.5"></path><path d="M136.3076 194.0897L278.9999 198.31" fill="none" stroke="#aaa" stroke-opacity="0.5" stroke-width="0.5"></path><path d="M176.5267 158.7465L177.7651 95.7105" fill="none" stroke="#aaa" stroke-opacity="0.5" stroke-width="0.5"></path><path d="M176.5267 158.7465L278.9999 198.31" fill="none" stroke="#aaa" stroke-opacity="0.5" stroke-width="0.5"></path><path d="M144.9862 49.1632L287.1197 58.4633" fill="none" stroke="#aaa" stroke-opacity="0.5" stroke-width="0.5"></path><path d="M191.5132 29.4066L287.1197 58.4633" fill="none" stroke="#aaa" stroke-opacity="0.5" stroke-width="0.5"></path><path d="M241.9208 29.7321L115.4991 93.7629" fill="none" stroke="#aaa" stroke-opacity="0.5" stroke-width="0.5"></path><path d="M185.4128 220.8512L305.1694 154.0939" fill="none" stroke="#aaa" stroke-opacity="0.5" stroke-width="0.5"></path><path d="M240.5631 154.6382L115.4991 93.7629" fill="none" stroke="#aaa" stroke-opacity="0.5" stroke-width="0.5"></path><path d="M176.5267 158.7465L191.5132 29.4066" fill="none" stroke="#aaa" stroke-opacity="0.5" stroke-width="0.5"></path><path d="M233.9518 219.6524L240.9656 92.4576" fill="none" stroke="#aaa" stroke-opacity="0.5" stroke-width="0.5"></path><path d="M136.3076 194.0897L305.1694 154.0939" fill="none" stroke="#aaa" stroke-opacity="0.5" stroke-width="0.5"></path><path d="M176.5267 158.7465L305.1694 154.0939" fill="none" stroke="#aaa" stroke-opacity="0.5" stroke-width="0.5"></path><path d="M185.4128 220.8512L114.5498 144.8411" fill="none" stroke="#aaa" stroke-opacity="0.5" stroke-width="0.5"></path><path d="M144.9862 49.1632L185.4128 220.8512" fill="none" stroke="#aaa" stroke-opacity="0.5" stroke-width="0.5"></path><path d="M177.7651 95.7105L240.9656 92.4576" fill="none" stroke="#aaa" stroke-opacity="0.5" stroke-width="0.5"></path><path d="M144.9862 49.1632L115.4991 93.7629" fill="none" stroke="#aaa" stroke-opacity="0.5" stroke-width="0.5"></path><path d="M191.5132 29.4066L115.4991 93.7629" fill="none" stroke="#aaa" stroke-opacity="0.5" stroke-width="0.5"></path><path d="M306.7633 106.0807L240.9656 92.4576" fill="none" stroke="#aaa" stroke-opacity="0.5" stroke-width="0.5"></path><path d="M136.3076 194.0897L114.5498 144.8411" fill="none" stroke="#aaa" stroke-opacity="0.5" stroke-width="0.5"></path><path d="M176.5267 158.7465L114.5498 144.8411" fill="none" stroke="#aaa" stroke-opacity="0.5" stroke-width="0.5"></path><path d="M144.9862 49.1632L176.5267 158.7465" fill="none" stroke="#aaa" stroke-opacity="0.5" stroke-width="0.5"></path><path d="M306.7633 106.0807L233.9518 219.6524" fill="none" stroke="#aaa" stroke-opacity="0.5" stroke-width="0.5"></path><path d="M287.1197 58.4633L240.5631 154.6382" fill="none" stroke="#aaa" stroke-opacity="0.5" stroke-width="0.5"></path><path d="M185.4128 220.8512L241.9208 29.7321" fill="none" stroke="#aaa" stroke-opacity="0.5" stroke-width="0.5"></path><path d="M115.4991 93.7629L305.1694 154.0939" fill="none" stroke="#aaa" stroke-opacity="0.5" stroke-width="0.5"></path><path d="M185.4128 220.8512L306.7633 106.0807" fill="none" stroke="#aaa" stroke-opacity="0.5" stroke-width="0.5"></path><path d="M114.5498 144.8411L240.9656 92.4576" fill="none" stroke="#aaa" stroke-opacity="0.5" stroke-width="0.5"></path><path d="M287.1197 58.4633L177.7651 95.7105" fill="none" stroke="#aaa" stroke-opacity="0.5" stroke-width="0.5"></path><path d="M287.1197 58.4633L278.9999 198.31" fill="none" stroke="#aaa" stroke-opacity="0.5" stroke-width="0.5"></path><path d="M114.5498 144.8411L233.9518 219.6524" fill="none" stroke="#aaa" stroke-opacity="0.5" stroke-width="0.5"></path><path d="M136.3076 194.0897L241.9208 29.7321" fill="none" stroke="#aaa" stroke-opacity="0.5" stroke-width="0.5"></path><path d="M136.3076 194.0897L306.7633 106.0807" fill="none" stroke="#aaa" stroke-opacity="0.5" stroke-width="0.5"></path><path d="M185.4128 220.8512L240.9656 92.4576" fill="none" stroke="#aaa" stroke-opacity="0.5" stroke-width="0.5"></path><path d="M305.1694 154.0939L278.9999 198.31" fill="none" stroke="#aaa" stroke-opacity="0.5" stroke-width="0.5"></path><path d="M287.1197 58.4633L305.1694 154.0939" fill="none" stroke="#aaa" stroke-opacity="0.5" stroke-width="0.5"></path><path d="M185.4128 220.8512L233.9518 219.6524" fill="none" stroke="#aaa" stroke-opacity="0.5" stroke-width="0.5"></path><path d="M144.9862 49.1632L136.3076 194.0897" fill="none" stroke="#aaa" stroke-opacity="0.5" stroke-width="0.5"></path><path d="M241.9208 29.7321L240.5631 154.6382" fill="none" stroke="#aaa" stroke-opacity="0.5" stroke-width="0.5"></path><path d="M136.3076 194.0897L240.9656 92.4576" fill="none" stroke="#aaa" stroke-opacity="0.5" stroke-width="0.5"></path><path d="M176.5267 158.7465L240.9656 92.4576" fill="none" stroke="#aaa" stroke-opacity="0.5" stroke-width="0.5"></path><path d="M241.9208 29.7321L177.7651 95.7105" fill="none" stroke="#aaa" stroke-opacity="0.5" stroke-width="0.5"></path><path d="M136.3076 194.0897L233.9518 219.6524" fill="none" stroke="#aaa" stroke-opacity="0.5" stroke-width="0.5"></path><path d="M241.9208 29.7321L278.9999 198.31" fill="none" stroke="#aaa" stroke-opacity="0.5" stroke-width="0.5"></path><path d="M176.5267 158.7465L233.9518 219.6524" fill="none" stroke="#aaa" stroke-opacity="0.5" stroke-width="0.5"></path><path d="M240.5631 154.6382L177.7651 95.7105" fill="none" stroke="#aaa" stroke-opacity="0.5" stroke-width="0.5"></path><path d="M240.5631 154.6382L278.9999 198.31" fill="none" stroke="#aaa" stroke-opacity="0.5" stroke-width="0.5"></path><path d="M287.1197 58.4633L114.5498 144.8411" fill="none" stroke="#aaa" stroke-opacity="0.5" stroke-width="0.5"></path><path d="M114.5498 144.8411L240.5631 154.6382" fill="none" stroke="#aaa" stroke-opacity="0.5" stroke-width="0.5"></path><path d="M241.9208 29.7321L305.1694 154.0939" fill="none" stroke="#aaa" stroke-opacity="0.5" stroke-width="0.5"></path><path d="M240.9656 92.4576L278.9999 198.31" fill="none" stroke="#aaa" stroke-opacity="0.5" stroke-width="0.5"></path><path d="M144.9862 49.1632L240.5631 154.6382" fill="none" stroke="#aaa" stroke-opacity="0.5" stroke-width="0.5"></path><path d="M191.5132 29.4066L240.5631 154.6382" fill="none" stroke="#aaa" stroke-opacity="0.5" stroke-width="0.5"></path><path d="M144.9862 49.1632L177.7651 95.7105" fill="none" stroke="#aaa" stroke-opacity="0.5" stroke-width="0.5"></path><path d="M287.1197 58.4633L241.9208 29.7321" fill="none" stroke="#aaa" stroke-opacity="0.5" stroke-width="0.5"></path><path d="M191.5132 29.4066L177.7651 95.7105" fill="none" stroke="#aaa" stroke-opacity="0.5" stroke-width="0.5"></path><path d="M144.9862 49.1632L278.9999 198.31" fill="none" stroke="#aaa" stroke-opacity="0.5" stroke-width="0.5"></path><path d="M287.1197 58.4633L306.7633 106.0807" fill="none" stroke="#aaa" stroke-opacity="0.5" stroke-width="0.5"></path><path d="M191.5132 29.4066L278.9999 198.31" fill="none" stroke="#aaa" stroke-opacity="0.5" stroke-width="0.5"></path><path d="M241.9208 29.7321L114.5498 144.8411" fill="none" stroke="#aaa" stroke-opacity="0.5" stroke-width="0.5"></path><path d="M287.1197 58.4633L240.9656 92.4576" fill="none" stroke="#aaa" stroke-opacity="0.5" stroke-width="0.5"></path><path d="M144.9862 49.1632L305.1694 154.0939" fill="none" stroke="#aaa" stroke-opacity="0.5" stroke-width="0.5"></path><path d="M191.5132 29.4066L305.1694 154.0939" fill="none" stroke="#aaa" stroke-opacity="0.5" stroke-width="0.5"></path><path d="M287.1197 58.4633L233.9518 219.6524" fill="none" stroke="#aaa" stroke-opacity="0.5" stroke-width="0.5"></path><path d="M233.9518 219.6524L115.4991 93.7629" fill="none" stroke="#aaa" stroke-opacity="0.5" stroke-width="0.5"></path><path d="M305.1694 154.0939L240.9656 92.4576" fill="none" stroke="#aaa" stroke-opacity="0.5" stroke-width="0.5"></path><path d="M185.4128 220.8512L191.5132 29.4066" fill="none" stroke="#aaa" stroke-opacity="0.5" stroke-width="0.5"></path><path d="M241.9208 29.7321L306.7633 106.0807" fill="none" stroke="#aaa" stroke-opacity="0.5" stroke-width="0.5"></path><path d="M144.9862 49.1632L114.5498 144.8411" fill="none" stroke="#aaa" stroke-opacity="0.5" stroke-width="0.5"></path><path d="M136.3076 194.0897L191.5132 29.4066" fill="none" stroke="#aaa" stroke-opacity="0.5" stroke-width="0.5"></path><path d="M191.5132 29.4066L114.5498 144.8411" fill="none" stroke="#aaa" stroke-opacity="0.5" stroke-width="0.5"></path><path d="M185.4128 220.8512L287.1197 58.4633" fill="none" stroke="#aaa" stroke-opacity="0.5" stroke-width="0.5"></path><path d="M241.9208 29.7321L240.9656 92.4576" fill="none" stroke="#aaa" stroke-opacity="0.5" stroke-width="0.5"></path><path d="M240.5631 154.6382L240.9656 92.4576" fill="none" stroke="#aaa" stroke-opacity="0.5" stroke-width="0.5"></path><path d="M306.7633 106.0807L115.4991 93.7629" fill="none" stroke="#aaa" stroke-opacity="0.5" stroke-width="0.5"></path><path d="M241.9208 29.7321L233.9518 219.6524" fill="none" stroke="#aaa" stroke-opacity="0.5" stroke-width="0.5"></path><path d="M136.3076 194.0897L287.1197 58.4633" fill="none" stroke="#aaa" stroke-opacity="0.5" stroke-width="0.5"></path><path d="M114.5498 144.8411L306.7633 106.0807" fill="none" stroke="#aaa" stroke-opacity="0.5" stroke-width="0.5"></path><path d="M176.5267 158.7465L287.1197 58.4633" fill="none" stroke="#aaa" stroke-opacity="0.5" stroke-width="0.5"></path><path d="M144.9862 49.1632L241.9208 29.7321" fill="none" stroke="#aaa" stroke-opacity="0.5" stroke-width="0.5"></path><path d="M191.5132 29.5L241.9208 29.5" fill="none" stroke="#aaa" stroke-opacity="0.5" stroke-width="0.5"></path><path d="M115.4991 93.7629L177.7651 95.7105" fill="none" stroke="#aaa" stroke-opacity="0.5" stroke-width="0.5"></path><path d="M144.9862 49.1632L306.7633 106.0807" fill="none" stroke="#aaa" stroke-opacity="0.5" stroke-width="0.5"></path><path d="M114.5498 144.8411L115.4991 93.7629" fill="none" stroke="#aaa" stroke-opacity="0.5" stroke-width="0.5"></path><path d="M191.5132 29.4066L306.7633 106.0807" fill="none" stroke="#aaa" stroke-opacity="0.5" stroke-width="0.5"></path><path d="M115.4991 93.7629L278.9999 198.31" fill="none" stroke="#aaa" stroke-opacity="0.5" stroke-width="0.5"></path><path d="M185.4128 220.8512L115.4991 93.7629" fill="none" stroke="#aaa" stroke-opacity="0.5" stroke-width="0.5"></path><path d="M144.9862 49.1632L240.9656 92.4576" fill="none" stroke="#aaa" stroke-opacity="0.5" stroke-width="0.5"></path><path d="M191.5132 29.4066L240.9656 92.4576" fill="none" stroke="#aaa" stroke-opacity="0.5" stroke-width="0.5"></path><path d="M176.5267 158.7465L241.9208 29.7321" fill="none" stroke="#aaa" stroke-opacity="0.5" stroke-width="0.5"></path><path d="M136.3076 194.0897L185.4128 220.8512" fill="none" stroke="#aaa" stroke-opacity="0.5" stroke-width="0.5"></path><path d="M185.4128 220.8512L176.5267 158.7465" fill="none" stroke="#aaa" stroke-opacity="0.5" stroke-width="0.5"></path><path d="M176.5267 158.7465L306.7633 106.0807" fill="none" stroke="#aaa" stroke-opacity="0.5" stroke-width="0.5"></path><path d="M144.9862 49.1632L233.9518 219.6524" fill="none" stroke="#aaa" stroke-opacity="0.5" stroke-width="0.5"></path><path d="M191.5132 29.4066L233.9518 219.6524" fill="none" stroke="#aaa" stroke-opacity="0.5" stroke-width="0.5"></path><path d="M136.3076 194.0897L115.4991 93.7629" fill="none" stroke="#aaa" stroke-opacity="0.5" stroke-width="0.5"></path><path d="M176.5267 158.7465L115.4991 93.7629" fill="none" stroke="#aaa" stroke-opacity="0.5" stroke-width="0.5"></path><path d="M1 0A1 1 0 1 1 1 -0.0001" fill="#5470c6" transform="matrix(18,0,0,18,305.1694,154.0939)"></path><path d="M1 0A1 1 0 1 1 1 -0.0001" fill="#5470c6" transform="matrix(18,0,0,18,240.5631,154.6382)"></path><path d="M1 0A1 1 0 1 1 1 -0.0001" fill="#5470c6" transform="matrix(18,0,0,18,278.9999,198.31)"></path><path d="M1 0A1 1 0 1 1 1 -0.0001" fill="#5470c6" transform="matrix(18,0,0,18,233.9518,219.6524)"></path><path d="M1 0A1 1 0 1 1 1 -0.0001" fill="#5470c6" transform="matrix(18,0,0,18,185.4128,220.8512)"></path><path d="M1 0A1 1 0 1 1 1 -0.0001" fill="#5470c6" transform="matrix(18,0,0,18,136.3076,194.0897)"></path><path d="M1 0A1 1 0 1 1 1 -0.0001" fill="#5470c6" transform="matrix(18,0,0,18,176.5267,158.7465)"></path><path d="M1 0A1 1 0 1 1 1 -0.0001" fill="#5470c6" transform="matrix(18,0,0,18,114.5498,144.8411)"></path><path d="M1 0A1 1 0 1 1 1 -0.0001" fill="#5470c6" transform="matrix(18,0,0,18,115.4991,93.7629)"></path><path d="M1 0A1 1 0 1 1 1 -0.0001" fill="#5470c6" transform="matrix(18,0,0,18,177.7651,95.7105)"></path><path d="M1 0A1 1 0 1 1 1 -0.0001" fill="#5470c6" transform="matrix(18,0,0,18,144.9862,49.1632)"></path><path d="M1 0A1 1 0 1 1 1 -0.0001" fill="#5470c6" transform="matrix(18,0,0,18,240.9656,92.4576)"></path><path d="M1 0A1 1 0 1 1 1 -0.0001" fill="#5470c6" transform="matrix(18,0,0,18,191.5132,29.4066)"></path><path d="M1 0A1 1 0 1 1 1 -0.0001" fill="#5470c6" transform="matrix(18,0,0,18,241.9208,29.7321)"></path><path d="M1 0A1 1 0 1 1 1 -0.0001" fill="#5470c6" transform="matrix(18,0,0,18,287.1197,58.4633)"></path><path d="M1 0A1 1 0 1 1 1 -0.0001" fill="#5470c6" transform="matrix(18,0,0,18,306.7633,106.0807)"></path><path d="M-26.0964 -5l52.1929 0l0 33l-52.1929 0Z" fill="rgb(0,0,0)" fill-opacity="0" stroke="#ccc" stroke-width="0" transform="translate(237.5 5)"></path><text dominant-baseline="central" fill="#333" style="font-size:23px;font-family:sans-serif;font-weight:bolder;" text-anchor="middle" transform="translate(237.5 5)" y="11.5">C61</text></g></svg>