<svg baseprofile="full" height="250" style="position:absolute;left:0;top:0;user-select:none" version="1.1" width="475" xmlns="http://www.w3.org/2000/svg" xmlns:xlink="http://www.w3.org/1999/xlink"><rect fill="none" height="250" id="0" width="475" x="0" y="0"></rect><g><path d="M309.4818 146.6046L234.1044 224.9931" fill="none" stroke="#aaa" stroke-opacity="0.5"></path><path d="M113.5788 135.1874L119.3557 80.1166" fill="none" stroke="#aaa" stroke-opacity="0.5"></path><path d="M160.796 37.5263L213.9582 26.9037" fill="none" stroke="#aaa" stroke-opacity="0.5"></path><path d="M211.3908 165.6421L309.4818 146.6046" fill="none" stroke="#aaa" stroke-opacity="0.5"></path><path d="M211.3908 165.6421L306.49 85.4362" fill="none" stroke="#aaa" stroke-opacity="0.5"></path><path d="M211.3908 165.6421L160.796 37.5263" fill="none" stroke="#aaa" stroke-opacity="0.5"></path><path d="M181.1191 100.3534L281.9886 194.1861" fill="none" stroke="#aaa" stroke-opacity="0.5"></path><path d="M160.796 37.5263L306.49 85.4362" fill="none" stroke="#aaa" stroke-opacity="0.5"></path><path d="M251.1098 108.2652L213.9582 26.9037" fill="none" stroke="#aaa" stroke-opacity="0.5"></path><path d="M234.1044 224.9931L251.1098 108.2652" fill="none" stroke="#aaa" stroke-opacity="0.5"></path><path d="M234.1044 224.9931L119.3557 80.1166" fill="none" stroke="#aaa" stroke-opacity="0.5"></path><path d="M309.4818 146.6046L181.1191 100.3534" fill="none" stroke="#aaa" stroke-opacity="0.5"></path><path d="M211.3908 165.6421L251.1098 108.2652" fill="none" stroke="#aaa" stroke-opacity="0.5"></path><path d="M211.3908 165.6421L119.3557 80.1166" fill="none" stroke="#aaa" stroke-opacity="0.5"></path><path d="M251.1098 108.2652L306.49 85.4362" fill="none" stroke="#aaa" stroke-opacity="0.5"></path><path d="M211.3908 165.6421L174.0929 218.8474" fill="none" stroke="#aaa" stroke-opacity="0.5"></path><path d="M181.1191 100.3534L213.9582 26.9037" fill="none" stroke="#aaa" stroke-opacity="0.5"></path><path d="M160.796 37.5263L251.1098 108.2652" fill="none" stroke="#aaa" stroke-opacity="0.5"></path><path d="M160.796 37.5263L119.3557 80.1166" fill="none" stroke="#aaa" stroke-opacity="0.5"></path><path d="M174.0929 218.8474L213.9582 26.9037" fill="none" stroke="#aaa" stroke-opacity="0.5"></path><path d="M211.3908 165.6421L266.3668 41.3512" fill="none" stroke="#aaa" stroke-opacity="0.5"></path><path d="M309.4818 146.6046L131.9294 184.5868" fill="none" stroke="#aaa" stroke-opacity="0.5"></path><path d="M181.1191 100.3534L306.49 85.4362" fill="none" stroke="#aaa" stroke-opacity="0.5"></path><path d="M181.1191 100.3534L160.796 37.5263" fill="none" stroke="#aaa" stroke-opacity="0.5"></path><path d="M113.5788 135.1874L213.9582 26.9037" fill="none" stroke="#aaa" stroke-opacity="0.5"></path><path d="M251.1098 108.2652L119.3557 80.1166" fill="none" stroke="#aaa" stroke-opacity="0.5"></path><path d="M174.0929 218.8474L306.49 85.4362" fill="none" stroke="#aaa" stroke-opacity="0.5"></path><path d="M211.3908 165.6421L281.9886 194.1861" fill="none" stroke="#aaa" stroke-opacity="0.5"></path><path d="M174.0929 218.8474L160.796 37.5263" fill="none" stroke="#aaa" stroke-opacity="0.5"></path><path d="M306.49 85.4362L266.3668 41.3512" fill="none" stroke="#aaa" stroke-opacity="0.5"></path><path d="M211.3908 165.6421L113.5788 135.1874" fill="none" stroke="#aaa" stroke-opacity="0.5"></path><path d="M211.3908 165.6421L234.1044 224.9931" fill="none" stroke="#aaa" stroke-opacity="0.5"></path><path d="M160.796 37.5263L281.9886 194.1861" fill="none" stroke="#aaa" stroke-opacity="0.5"></path><path d="M113.5788 135.1874L306.49 85.4362" fill="none" stroke="#aaa" stroke-opacity="0.5"></path><path d="M251.1098 108.2652L266.3668 41.3512" fill="none" stroke="#aaa" stroke-opacity="0.5"></path><path d="M234.1044 224.9931L213.9582 26.9037" fill="none" stroke="#aaa" stroke-opacity="0.5"></path><path d="M181.1191 100.3534L131.9294 184.5868" fill="none" stroke="#aaa" stroke-opacity="0.5"></path><path d="M174.0929 218.8474L131.9294 184.5868" fill="none" stroke="#aaa" stroke-opacity="0.5"></path><path d="M160.796 37.5263L113.5788 135.1874" fill="none" stroke="#aaa" stroke-opacity="0.5"></path><path d="M174.0929 218.8474L119.3557 80.1166" fill="none" stroke="#aaa" stroke-opacity="0.5"></path><path d="M119.3557 80.1166L281.9886 194.1861" fill="none" stroke="#aaa" stroke-opacity="0.5"></path><path d="M266.3668 41.3512L119.3557 80.1166" fill="none" stroke="#aaa" stroke-opacity="0.5"></path><path d="M181.1191 100.3534L174.0929 218.8474" fill="none" stroke="#aaa" stroke-opacity="0.5"></path><path d="M234.1044 224.9931L181.1191 100.3534" fill="none" stroke="#aaa" stroke-opacity="0.5"></path><path d="M251.1098 108.2652L281.9886 194.1861" fill="none" stroke="#aaa" stroke-opacity="0.5"></path><path d="M131.9294 184.5868L213.9582 26.9037" fill="none" stroke="#aaa" stroke-opacity="0.5"></path><path d="M234.1044 224.9931L306.49 85.4362" fill="none" stroke="#aaa" stroke-opacity="0.5"></path><path d="M234.1044 224.9931L160.796 37.5263" fill="none" stroke="#aaa" stroke-opacity="0.5"></path><path d="M181.1191 100.3534L266.3668 41.3512" fill="none" stroke="#aaa" stroke-opacity="0.5"></path><path d="M211.3908 165.6421L181.1191 100.3534" fill="none" stroke="#aaa" stroke-opacity="0.5"></path><path d="M306.49 85.4362L213.9582 26.9037" fill="none" stroke="#aaa" stroke-opacity="0.5"></path><path d="M309.4818 146.6046L213.9582 26.9037" fill="none" stroke="#aaa" stroke-opacity="0.5"></path><path d="M174.0929 218.8474L266.3668 41.3512" fill="none" stroke="#aaa" stroke-opacity="0.5"></path><path d="M251.1098 108.2652L113.5788 135.1874" fill="none" stroke="#aaa" stroke-opacity="0.5"></path><path d="M131.9294 184.5868L306.49 85.4362" fill="none" stroke="#aaa" stroke-opacity="0.5"></path><path d="M131.9294 184.5868L160.796 37.5263" fill="none" stroke="#aaa" stroke-opacity="0.5"></path><path d="M113.5788 135.1874L266.3668 41.3512" fill="none" stroke="#aaa" stroke-opacity="0.5"></path><path d="M234.1044 224.9931L131.9294 184.5868" fill="none" stroke="#aaa" stroke-opacity="0.5"></path><path d="M174.0929 218.8474L281.9886 194.1861" fill="none" stroke="#aaa" stroke-opacity="0.5"></path><path d="M309.4818 146.6046L306.49 85.4362" fill="none" stroke="#aaa" stroke-opacity="0.5"></path><path d="M309.4818 146.6046L160.796 37.5263" fill="none" stroke="#aaa" stroke-opacity="0.5"></path><path d="M266.3668 41.3512L281.9886 194.1861" fill="none" stroke="#aaa" stroke-opacity="0.5"></path><path d="M181.1191 100.3534L113.5788 135.1874" fill="none" stroke="#aaa" stroke-opacity="0.5"></path><path d="M213.9582 26.9037L119.3557 80.1166" fill="none" stroke="#aaa" stroke-opacity="0.5"></path><path d="M211.3908 165.6421L131.9294 184.5868" fill="none" stroke="#aaa" stroke-opacity="0.5"></path><path d="M234.1044 224.9931L174.0929 218.8474" fill="none" stroke="#aaa" stroke-opacity="0.5"></path><path d="M174.0929 218.8474L113.5788 135.1874" fill="none" stroke="#aaa" stroke-opacity="0.5"></path><path d="M113.5788 135.1874L281.9886 194.1861" fill="none" stroke="#aaa" stroke-opacity="0.5"></path><path d="M131.9294 184.5868L251.1098 108.2652" fill="none" stroke="#aaa" stroke-opacity="0.5"></path><path d="M131.9294 184.5868L119.3557 80.1166" fill="none" stroke="#aaa" stroke-opacity="0.5"></path><path d="M234.1044 224.9931L266.3668 41.3512" fill="none" stroke="#aaa" stroke-opacity="0.5"></path><path d="M309.4818 146.6046L251.1098 108.2652" fill="none" stroke="#aaa" stroke-opacity="0.5"></path><path d="M306.49 85.4362L119.3557 80.1166" fill="none" stroke="#aaa" stroke-opacity="0.5"></path><path d="M213.9582 26.9037L266.3668 41.3512" fill="none" stroke="#aaa" stroke-opacity="0.5"></path><path d="M309.4818 146.6046L119.3557 80.1166" fill="none" stroke="#aaa" stroke-opacity="0.5"></path><path d="M309.4818 146.6046L174.0929 218.8474" fill="none" stroke="#aaa" stroke-opacity="0.5"></path><path d="M234.1044 224.9931L281.9886 194.1861" fill="none" stroke="#aaa" stroke-opacity="0.5"></path><path d="M131.9294 184.5868L266.3668 41.3512" fill="none" stroke="#aaa" stroke-opacity="0.5"></path><path d="M213.9582 26.9037L281.9886 194.1861" fill="none" stroke="#aaa" stroke-opacity="0.5"></path><path d="M160.796 37.5263L266.3668 41.3512" fill="none" stroke="#aaa" stroke-opacity="0.5"></path><path d="M309.4818 146.6046L266.3668 41.3512" fill="none" stroke="#aaa" stroke-opacity="0.5"></path><path d="M234.1044 224.9931L113.5788 135.1874" fill="none" stroke="#aaa" stroke-opacity="0.5"></path><path d="M181.1191 100.3534L251.1098 108.2652" fill="none" stroke="#aaa" stroke-opacity="0.5"></path><path d="M131.9294 184.5868L281.9886 194.1861" fill="none" stroke="#aaa" stroke-opacity="0.5"></path><path d="M181.1191 100.3534L119.3557 80.1166" fill="none" stroke="#aaa" stroke-opacity="0.5"></path><path d="M306.49 85.4362L281.9886 194.1861" fill="none" stroke="#aaa" stroke-opacity="0.5"></path><path d="M174.0929 218.8474L251.1098 108.2652" fill="none" stroke="#aaa" stroke-opacity="0.5"></path><path d="M309.4818 146.6046L281.9886 194.1861" fill="none" stroke="#aaa" stroke-opacity="0.5"></path><path d="M211.3908 165.6421L213.9582 26.9037" fill="none" stroke="#aaa" stroke-opacity="0.5"></path><path d="M131.9294 184.5868L113.5788 135.1874" fill="none" stroke="#aaa" stroke-opacity="0.5"></path><path d="M309.4818 146.6046L113.5788 135.1874" fill="none" stroke="#aaa" stroke-opacity="0.5"></path><path d="M1 0A1 1 0 1 1 1 -0.0001" fill="#5470c6" transform="matrix(18.5,0,0,18.5,309.4818,146.6046)"></path><path d="M1 0A1 1 0 1 1 1 -0.0001" fill="#5470c6" transform="matrix(18.5,0,0,18.5,281.9886,194.1861)"></path><path d="M1 0A1 1 0 1 1 1 -0.0001" fill="#5470c6" transform="matrix(18.5,0,0,18.5,234.1044,224.9931)"></path><path d="M1 0A1 1 0 1 1 1 -0.0001" fill="#5470c6" transform="matrix(18.5,0,0,18.5,211.3908,165.6421)"></path><path d="M1 0A1 1 0 1 1 1 -0.0001" fill="#5470c6" transform="matrix(18.5,0,0,18.5,174.0929,218.8474)"></path><path d="M1 0A1 1 0 1 1 1 -0.0001" fill="#5470c6" transform="matrix(18.5,0,0,18.5,181.1191,100.3534)"></path><path d="M1 0A1 1 0 1 1 1 -0.0001" fill="#5470c6" transform="matrix(18.5,0,0,18.5,131.9294,184.5868)"></path><path d="M1 0A1 1 0 1 1 1 -0.0001" fill="#5470c6" transform="matrix(18.5,0,0,18.5,113.5788,135.1874)"></path><path d="M1 0A1 1 0 1 1 1 -0.0001" fill="#5470c6" transform="matrix(18.5,0,0,18.5,119.3557,80.1166)"></path><path d="M1 0A1 1 0 1 1 1 -0.0001" fill="#5470c6" transform="matrix(18.5,0,0,18.5,160.796,37.5263)"></path><path d="M1 0A1 1 0 1 1 1 -0.0001" fill="#5470c6" transform="matrix(18.5,0,0,18.5,213.9582,26.9037)"></path><path d="M1 0A1 1 0 1 1 1 -0.0001" fill="#5470c6" transform="matrix(18.5,0,0,18.5,266.3668,41.3512)"></path><path d="M1 0A1 1 0 1 1 1 -0.0001" fill="#5470c6" transform="matrix(18.5,0,0,18.5,306.49,85.4362)"></path><path d="M1 0A1 1 0 1 1 1 -0.0001" fill="#5470c6" transform="matrix(18.5,0,0,18.5,251.1098,108.2652)"></path><path d="M-26.0964 -5l52.1929 0l0 33l-52.1929 0Z" fill="rgb(0,0,0)" fill-opacity="0" stroke="#ccc" stroke-width="0" transform="translate(237.5 5)"></path><text dominant-baseline="central" fill="#333" style="font-size:23px;font-family:sans-serif;font-weight:bolder;" text-anchor="middle" transform="translate(237.5 5)" y="11.5">C62</text></g></svg>