<svg baseprofile="full" height="250" style="position:absolute;left:0;top:0;user-select:none" version="1.1" width="475" xmlns="http://www.w3.org/2000/svg" xmlns:xlink="http://www.w3.org/1999/xlink"><rect fill="none" height="250" id="0" width="475" x="0" y="0"></rect><g><path d="M128.2178 66.5319L199.8871 159.4438" fill="none" stroke="#aaa" stroke-opacity="0.5"></path><path d="M220.5338 92.6268L109.5906 129.514" fill="none" stroke="#aaa" stroke-opacity="0.5"></path><path d="M132.0404 195.5274L259.7679 30.2658" fill="none" stroke="#aaa" stroke-opacity="0.5"></path><path d="M132.0404 195.5274L182.2684 23.8575" fill="none" stroke="#aaa" stroke-opacity="0.5"></path><path d="M308.5533 152.5697L199.8871 159.4438" fill="none" stroke="#aaa" stroke-opacity="0.5"></path><path d="M182.2684 23.8575L306.4193 85.9891" fill="none" stroke="#aaa" stroke-opacity="0.5"></path><path d="M128.2178 66.5319L202.851 230.9183" fill="none" stroke="#aaa" stroke-opacity="0.5"></path><path d="M199.8871 159.4438L259.7679 30.2658" fill="none" stroke="#aaa" stroke-opacity="0.5"></path><path d="M132.0404 195.5274L109.5906 129.514" fill="none" stroke="#aaa" stroke-opacity="0.5"></path><path d="M308.5533 152.5697L202.851 230.9183" fill="none" stroke="#aaa" stroke-opacity="0.5"></path><path d="M220.5338 92.6268L272.2552 207.7556" fill="none" stroke="#aaa" stroke-opacity="0.5"></path><path d="M182.2684 23.8575L109.5906 129.514" fill="none" stroke="#aaa" stroke-opacity="0.5"></path><path d="M128.2178 66.5319L132.0404 195.5274" fill="none" stroke="#aaa" stroke-opacity="0.5"></path><path d="M182.2684 23.8575L199.8871 159.4438" fill="none" stroke="#aaa" stroke-opacity="0.5"></path><path d="M109.5906 129.514L202.851 230.9183" fill="none" stroke="#aaa" stroke-opacity="0.5"></path><path d="M259.7679 30.2658L109.5906 129.514" fill="none" stroke="#aaa" stroke-opacity="0.5"></path><path d="M132.0404 195.5274L272.2552 207.7556" fill="none" stroke="#aaa" stroke-opacity="0.5"></path><path d="M306.4193 85.9891L202.851 230.9183" fill="none" stroke="#aaa" stroke-opacity="0.5"></path><path d="M128.2178 66.5319L259.7679 30.2658" fill="none" stroke="#aaa" stroke-opacity="0.5"></path><path d="M128.2178 66.5319L182.2684 23.8575" fill="none" stroke="#aaa" stroke-opacity="0.5"></path><path d="M182.2684 23.8575L272.2552 207.7556" fill="none" stroke="#aaa" stroke-opacity="0.5"></path><path d="M308.5533 152.5697L259.7679 30.2658" fill="none" stroke="#aaa" stroke-opacity="0.5"></path><path d="M308.5533 152.5697L182.2684 23.8575" fill="none" stroke="#aaa" stroke-opacity="0.5"></path><path d="M220.5338 92.6268L306.4193 85.9891" fill="none" stroke="#aaa" stroke-opacity="0.5"></path><path d="M199.8871 159.4438L202.851 230.9183" fill="none" stroke="#aaa" stroke-opacity="0.5"></path><path d="M259.7679 30.2658L272.2552 207.7556" fill="none" stroke="#aaa" stroke-opacity="0.5"></path><path d="M128.2178 66.5319L109.5906 129.514" fill="none" stroke="#aaa" stroke-opacity="0.5"></path><path d="M308.5533 152.5697L109.5906 129.514" fill="none" stroke="#aaa" stroke-opacity="0.5"></path><path d="M109.5906 129.514L306.4193 85.9891" fill="none" stroke="#aaa" stroke-opacity="0.5"></path><path d="M220.5338 92.6268L308.5533 152.5697" fill="none" stroke="#aaa" stroke-opacity="0.5"></path><path d="M132.0404 195.5274L306.4193 85.9891" fill="none" stroke="#aaa" stroke-opacity="0.5"></path><path d="M220.5338 92.6268L199.8871 159.4438" fill="none" stroke="#aaa" stroke-opacity="0.5"></path><path d="M182.2684 23.8575L259.7679 30.2658" fill="none" stroke="#aaa" stroke-opacity="0.5"></path><path d="M128.2178 66.5319L272.2552 207.7556" fill="none" stroke="#aaa" stroke-opacity="0.5"></path><path d="M132.0404 195.5274L308.5533 152.5697" fill="none" stroke="#aaa" stroke-opacity="0.5"></path><path d="M220.5338 92.6268L202.851 230.9183" fill="none" stroke="#aaa" stroke-opacity="0.5"></path><path d="M199.8871 159.4438L306.4193 85.9891" fill="none" stroke="#aaa" stroke-opacity="0.5"></path><path d="M308.5533 152.5697L272.2552 207.7556" fill="none" stroke="#aaa" stroke-opacity="0.5"></path><path d="M132.0404 195.5274L199.8871 159.4438" fill="none" stroke="#aaa" stroke-opacity="0.5"></path><path d="M259.7679 30.2658L306.4193 85.9891" fill="none" stroke="#aaa" stroke-opacity="0.5"></path><path d="M220.5338 92.6268L132.0404 195.5274" fill="none" stroke="#aaa" stroke-opacity="0.5"></path><path d="M202.851 230.9183L272.2552 207.7556" fill="none" stroke="#aaa" stroke-opacity="0.5"></path><path d="M199.8871 159.4438L109.5906 129.514" fill="none" stroke="#aaa" stroke-opacity="0.5"></path><path d="M132.0404 195.5274L202.851 230.9183" fill="none" stroke="#aaa" stroke-opacity="0.5"></path><path d="M109.5906 129.514L272.2552 207.7556" fill="none" stroke="#aaa" stroke-opacity="0.5"></path><path d="M182.2684 23.8575L202.851 230.9183" fill="none" stroke="#aaa" stroke-opacity="0.5"></path><path d="M306.4193 85.9891L272.2552 207.7556" fill="none" stroke="#aaa" stroke-opacity="0.5"></path><path d="M128.2178 66.5319L306.4193 85.9891" fill="none" stroke="#aaa" stroke-opacity="0.5"></path><path d="M220.5338 92.6268L259.7679 30.2658" fill="none" stroke="#aaa" stroke-opacity="0.5"></path><path d="M220.5338 92.6268L182.2684 23.8575" fill="none" stroke="#aaa" stroke-opacity="0.5"></path><path d="M308.5533 152.5697L306.4193 85.9891" fill="none" stroke="#aaa" stroke-opacity="0.5"></path><path d="M259.7679 30.2658L202.851 230.9183" fill="none" stroke="#aaa" stroke-opacity="0.5"></path><path d="M199.8871 159.4438L272.2552 207.7556" fill="none" stroke="#aaa" stroke-opacity="0.5"></path><path d="M220.5338 92.6268L128.2178 66.5319" fill="none" stroke="#aaa" stroke-opacity="0.5"></path><path d="M128.2178 66.5319L308.5533 152.5697" fill="none" stroke="#aaa" stroke-opacity="0.5"></path><path d="M1 0A1 1 0 1 1 1 -0.0001" fill="#5470c6" transform="matrix(18.5,0,0,18.5,308.5533,152.5697)"></path><path d="M1 0A1 1 0 1 1 1 -0.0001" fill="#5470c6" transform="matrix(18.5,0,0,18.5,272.2552,207.7556)"></path><path d="M1 0A1 1 0 1 1 1 -0.0001" fill="#5470c6" transform="matrix(18.5,0,0,18.5,202.851,230.9183)"></path><path d="M1 0A1 1 0 1 1 1 -0.0001" fill="#5470c6" transform="matrix(18.5,0,0,18.5,199.8871,159.4438)"></path><path d="M1 0A1 1 0 1 1 1 -0.0001" fill="#5470c6" transform="matrix(18.5,0,0,18.5,132.0404,195.5274)"></path><path d="M1 0A1 1 0 1 1 1 -0.0001" fill="#5470c6" transform="matrix(18.5,0,0,18.5,109.5906,129.514)"></path><path d="M1 0A1 1 0 1 1 1 -0.0001" fill="#5470c6" transform="matrix(18.5,0,0,18.5,128.2178,66.5319)"></path><path d="M1 0A1 1 0 1 1 1 -0.0001" fill="#5470c6" transform="matrix(18.5,0,0,18.5,182.2684,23.8575)"></path><path d="M1 0A1 1 0 1 1 1 -0.0001" fill="#5470c6" transform="matrix(18.5,0,0,18.5,220.5338,92.6268)"></path><path d="M1 0A1 1 0 1 1 1 -0.0001" fill="#5470c6" transform="matrix(18.5,0,0,18.5,259.7679,30.2658)"></path><path d="M1 0A1 1 0 1 1 1 -0.0001" fill="#5470c6" transform="matrix(18.5,0,0,18.5,306.4193,85.9891)"></path><path d="M-26.0964 -5l52.1929 0l0 33l-52.1929 0Z" fill="rgb(0,0,0)" fill-opacity="0" stroke="#ccc" stroke-width="0" transform="translate(237.5 5)"></path><text dominant-baseline="central" fill="#333" style="font-size:23px;font-family:sans-serif;font-weight:bolder;" text-anchor="middle" transform="translate(237.5 5)" y="11.5">C63</text></g></svg>