<svg baseprofile="full" height="250" style="position:absolute;left:0;top:0;user-select:none" version="1.1" width="475" xmlns="http://www.w3.org/2000/svg" xmlns:xlink="http://www.w3.org/1999/xlink"><rect fill="none" height="250" id="0" width="475" x="0" y="0"></rect><g><path d="M118.3182 166.2143L113.0157 97.4949" fill="none" stroke="#aaa" stroke-opacity="0.5"></path><path d="M235.701 223.8913L221.1903 23.1815" fill="none" stroke="#aaa" stroke-opacity="0.5"></path><path d="M166.8496 216.545L113.0157 97.4949" fill="none" stroke="#aaa" stroke-opacity="0.5"></path><path d="M166.8496 216.545L154.1182 41.5123" fill="none" stroke="#aaa" stroke-opacity="0.5"></path><path d="M113.0157 97.4949L154.1182 41.5123" fill="none" stroke="#aaa" stroke-opacity="0.5"></path><path d="M235.701 223.8913L166.8496 216.545" fill="none" stroke="#aaa" stroke-opacity="0.5"></path><path d="M166.8496 216.545L221.1903 23.1815" fill="none" stroke="#aaa" stroke-opacity="0.5"></path><path d="M221.1903 23.1815L294.0102 185.0097" fill="none" stroke="#aaa" stroke-opacity="0.5"></path><path d="M221.1903 23.1815L283.9759 53.8581" fill="none" stroke="#aaa" stroke-opacity="0.5"></path><path d="M235.701 223.8913L294.0102 185.0097" fill="none" stroke="#aaa" stroke-opacity="0.5"></path><path d="M221.1903 23.1815L312.4701 117.3464" fill="none" stroke="#aaa" stroke-opacity="0.5"></path><path d="M166.8496 216.545L211.6095 124.9465" fill="none" stroke="#aaa" stroke-opacity="0.5"></path><path d="M283.9759 53.8581L211.6095 124.9465" fill="none" stroke="#aaa" stroke-opacity="0.5"></path><path d="M235.701 223.8913L283.9759 53.8581" fill="none" stroke="#aaa" stroke-opacity="0.5"></path><path d="M235.701 223.8913L312.4701 117.3464" fill="none" stroke="#aaa" stroke-opacity="0.5"></path><path d="M154.1182 41.5123L211.6095 124.9465" fill="none" stroke="#aaa" stroke-opacity="0.5"></path><path d="M221.1903 23.1815L113.0157 97.4949" fill="none" stroke="#aaa" stroke-opacity="0.5"></path><path d="M118.3182 166.2143L294.0102 185.0097" fill="none" stroke="#aaa" stroke-opacity="0.5"></path><path d="M235.701 223.8913L113.0157 97.4949" fill="none" stroke="#aaa" stroke-opacity="0.5"></path><path d="M166.8496 216.545L283.9759 53.8581" fill="none" stroke="#aaa" stroke-opacity="0.5"></path><path d="M113.0157 97.4949L294.0102 185.0097" fill="none" stroke="#aaa" stroke-opacity="0.5"></path><path d="M166.8496 216.545L312.4701 117.3464" fill="none" stroke="#aaa" stroke-opacity="0.5"></path><path d="M283.9759 53.8581L312.4701 117.3464" fill="none" stroke="#aaa" stroke-opacity="0.5"></path><path d="M113.0157 97.4949L283.9759 53.8581" fill="none" stroke="#aaa" stroke-opacity="0.5"></path><path d="M113.0157 97.4949L312.4701 117.3464" fill="none" stroke="#aaa" stroke-opacity="0.5"></path><path d="M154.1182 41.5123L312.4701 117.3464" fill="none" stroke="#aaa" stroke-opacity="0.5"></path><path d="M118.3182 166.2143L154.1182 41.5123" fill="none" stroke="#aaa" stroke-opacity="0.5"></path><path d="M221.1903 23.1815L211.6095 124.9465" fill="none" stroke="#aaa" stroke-opacity="0.5"></path><path d="M294.0102 185.0097L211.6095 124.9465" fill="none" stroke="#aaa" stroke-opacity="0.5"></path><path d="M235.701 223.8913L211.6095 124.9465" fill="none" stroke="#aaa" stroke-opacity="0.5"></path><path d="M283.9759 53.8581L154.1182 41.5123" fill="none" stroke="#aaa" stroke-opacity="0.5"></path><path d="M118.3182 166.2143L221.1903 23.1815" fill="none" stroke="#aaa" stroke-opacity="0.5"></path><path d="M235.701 223.8913L118.3182 166.2143" fill="none" stroke="#aaa" stroke-opacity="0.5"></path><path d="M118.3182 166.2143L211.6095 124.9465" fill="none" stroke="#aaa" stroke-opacity="0.5"></path><path d="M294.0102 185.0097L312.4701 117.3464" fill="none" stroke="#aaa" stroke-opacity="0.5"></path><path d="M113.0157 97.4949L211.6095 124.9465" fill="none" stroke="#aaa" stroke-opacity="0.5"></path><path d="M166.8496 216.545L118.3182 166.2143" fill="none" stroke="#aaa" stroke-opacity="0.5"></path><path d="M118.3182 166.2143L283.9759 53.8581" fill="none" stroke="#aaa" stroke-opacity="0.5"></path><path d="M221.1903 23.1815L154.1182 41.5123" fill="none" stroke="#aaa" stroke-opacity="0.5"></path><path d="M312.4701 117.3464L211.6095 124.9465" fill="none" stroke="#aaa" stroke-opacity="0.5"></path><path d="M118.3182 166.2143L312.4701 117.3464" fill="none" stroke="#aaa" stroke-opacity="0.5"></path><path d="M166.8496 216.545L294.0102 185.0097" fill="none" stroke="#aaa" stroke-opacity="0.5"></path><path d="M283.9759 53.8581L294.0102 185.0097" fill="none" stroke="#aaa" stroke-opacity="0.5"></path><path d="M294.0102 185.0097L154.1182 41.5123" fill="none" stroke="#aaa" stroke-opacity="0.5"></path><path d="M235.701 223.8913L154.1182 41.5123" fill="none" stroke="#aaa" stroke-opacity="0.5"></path><path d="M1 0A1 1 0 1 1 1 -0.0001" fill="#5470c6" transform="matrix(19,0,0,19,211.6095,124.9465)"></path><path d="M1 0A1 1 0 1 1 1 -0.0001" fill="#5470c6" transform="matrix(19,0,0,19,294.0102,185.0097)"></path><path d="M1 0A1 1 0 1 1 1 -0.0001" fill="#5470c6" transform="matrix(19,0,0,19,235.701,223.8913)"></path><path d="M1 0A1 1 0 1 1 1 -0.0001" fill="#5470c6" transform="matrix(19,0,0,19,166.8496,216.545)"></path><path d="M1 0A1 1 0 1 1 1 -0.0001" fill="#5470c6" transform="matrix(19,0,0,19,118.3182,166.2143)"></path><path d="M1 0A1 1 0 1 1 1 -0.0001" fill="#5470c6" transform="matrix(19,0,0,19,113.0157,97.4949)"></path><path d="M1 0A1 1 0 1 1 1 -0.0001" fill="#5470c6" transform="matrix(19,0,0,19,154.1182,41.5123)"></path><path d="M1 0A1 1 0 1 1 1 -0.0001" fill="#5470c6" transform="matrix(19,0,0,19,221.1903,23.1815)"></path><path d="M1 0A1 1 0 1 1 1 -0.0001" fill="#5470c6" transform="matrix(19,0,0,19,283.9759,53.8581)"></path><path d="M1 0A1 1 0 1 1 1 -0.0001" fill="#5470c6" transform="matrix(19,0,0,19,312.4701,117.3464)"></path><path d="M-26.0964 -5l52.1929 0l0 33l-52.1929 0Z" fill="rgb(0,0,0)" fill-opacity="0" stroke="#ccc" stroke-width="0" transform="translate(237.5 5)"></path><text dominant-baseline="central" fill="#333" style="font-size:23px;font-family:sans-serif;font-weight:bolder;" text-anchor="middle" transform="translate(237.5 5)" y="11.5">C64</text></g></svg>