<svg baseprofile="full" height="250" style="position:absolute;left:0;top:0;user-select:none" version="1.1" width="475" xmlns="http://www.w3.org/2000/svg" xmlns:xlink="http://www.w3.org/1999/xlink"><rect fill="none" height="250" id="0" width="475" x="0" y="0"></rect><g><path d="M313.6208 122.918L290.2597 188.2537" fill="none" stroke="#aaa" stroke-opacity="0.5"></path><path d="M313.6208 122.918L231.1836 224.746" fill="none" stroke="#aaa" stroke-opacity="0.5"></path><path d="M211.7361 125.5767L159.167 39.5385" fill="none" stroke="#aaa" stroke-opacity="0.5"></path><path d="M113.0081 91.8678L313.6208 122.918" fill="none" stroke="#aaa" stroke-opacity="0.5"></path><path d="M225.4373 23.4394L159.167 39.5385" fill="none" stroke="#aaa" stroke-opacity="0.5"></path><path d="M211.7361 125.5767L161.609 214.6415" fill="none" stroke="#aaa" stroke-opacity="0.5"></path><path d="M113.0081 91.8678L287.1619 57.3731" fill="none" stroke="#aaa" stroke-opacity="0.5"></path><path d="M118.0754 161.6453L159.167 39.5385" fill="none" stroke="#aaa" stroke-opacity="0.5"></path><path d="M211.7361 125.5767L290.2597 188.2537" fill="none" stroke="#aaa" stroke-opacity="0.5"></path><path d="M211.7361 125.5767L231.1836 224.746" fill="none" stroke="#aaa" stroke-opacity="0.5"></path><path d="M225.4373 23.4394L161.609 214.6415" fill="none" stroke="#aaa" stroke-opacity="0.5"></path><path d="M159.167 39.5385L287.1619 57.3731" fill="none" stroke="#aaa" stroke-opacity="0.5"></path><path d="M290.2597 188.2537L159.167 39.5385" fill="none" stroke="#aaa" stroke-opacity="0.5"></path><path d="M225.4373 23.4394L290.2597 188.2537" fill="none" stroke="#aaa" stroke-opacity="0.5"></path><path d="M225.4373 23.4394L231.1836 224.746" fill="none" stroke="#aaa" stroke-opacity="0.5"></path><path d="M118.0754 161.6453L161.609 214.6415" fill="none" stroke="#aaa" stroke-opacity="0.5"></path><path d="M290.2597 188.2537L161.609 214.6415" fill="none" stroke="#aaa" stroke-opacity="0.5"></path><path d="M118.0754 161.6453L290.2597 188.2537" fill="none" stroke="#aaa" stroke-opacity="0.5"></path><path d="M118.0754 161.6453L231.1836 224.746" fill="none" stroke="#aaa" stroke-opacity="0.5"></path><path d="M290.2597 188.2537L231.1836 224.746" fill="none" stroke="#aaa" stroke-opacity="0.5"></path><path d="M231.1836 224.746L159.167 39.5385" fill="none" stroke="#aaa" stroke-opacity="0.5"></path><path d="M313.6208 122.918L225.4373 23.4394" fill="none" stroke="#aaa" stroke-opacity="0.5"></path><path d="M231.1836 224.746L161.609 214.6415" fill="none" stroke="#aaa" stroke-opacity="0.5"></path><path d="M113.0081 91.8678L225.4373 23.4394" fill="none" stroke="#aaa" stroke-opacity="0.5"></path><path d="M161.609 214.6415L287.1619 57.3731" fill="none" stroke="#aaa" stroke-opacity="0.5"></path><path d="M113.0081 91.8678L211.7361 125.5767" fill="none" stroke="#aaa" stroke-opacity="0.5"></path><path d="M313.6208 122.918L287.1619 57.3731" fill="none" stroke="#aaa" stroke-opacity="0.5"></path><path d="M113.0081 91.8678L159.167 39.5385" fill="none" stroke="#aaa" stroke-opacity="0.5"></path><path d="M211.7361 125.5767L118.0754 161.6453" fill="none" stroke="#aaa" stroke-opacity="0.5"></path><path d="M113.0081 91.8678L161.609 214.6415" fill="none" stroke="#aaa" stroke-opacity="0.5"></path><path d="M118.0754 161.6453L225.4373 23.4394" fill="none" stroke="#aaa" stroke-opacity="0.5"></path><path d="M113.0081 91.8678L290.2597 188.2537" fill="none" stroke="#aaa" stroke-opacity="0.5"></path><path d="M113.0081 91.8678L231.1836 224.746" fill="none" stroke="#aaa" stroke-opacity="0.5"></path><path d="M211.7361 125.5767L313.6208 122.918" fill="none" stroke="#aaa" stroke-opacity="0.5"></path><path d="M211.7361 125.5767L287.1619 57.3731" fill="none" stroke="#aaa" stroke-opacity="0.5"></path><path d="M225.4373 23.4394L287.1619 57.3731" fill="none" stroke="#aaa" stroke-opacity="0.5"></path><path d="M118.0754 161.6453L287.1619 57.3731" fill="none" stroke="#aaa" stroke-opacity="0.5"></path><path d="M290.2597 188.2537L287.1619 57.3731" fill="none" stroke="#aaa" stroke-opacity="0.5"></path><path d="M161.609 214.6415L159.167 39.5385" fill="none" stroke="#aaa" stroke-opacity="0.5"></path><path d="M313.6208 122.918L118.0754 161.6453" fill="none" stroke="#aaa" stroke-opacity="0.5"></path><path d="M313.6208 122.918L159.167 39.5385" fill="none" stroke="#aaa" stroke-opacity="0.5"></path><path d="M231.1836 224.746L287.1619 57.3731" fill="none" stroke="#aaa" stroke-opacity="0.5"></path><path d="M313.6208 122.918L161.609 214.6415" fill="none" stroke="#aaa" stroke-opacity="0.5"></path><path d="M211.7361 125.5767L225.4373 23.4394" fill="none" stroke="#aaa" stroke-opacity="0.5"></path><path d="M113.0081 91.8678L118.0754 161.6453" fill="none" stroke="#aaa" stroke-opacity="0.5"></path><path d="M1 0A1 1 0 1 1 1 -0.0001" fill="#5470c6" transform="matrix(19,0,0,19,313.6208,122.918)"></path><path d="M1 0A1 1 0 1 1 1 -0.0001" fill="#5470c6" transform="matrix(19,0,0,19,290.2597,188.2537)"></path><path d="M1 0A1 1 0 1 1 1 -0.0001" fill="#5470c6" transform="matrix(19,0,0,19,231.1836,224.746)"></path><path d="M1 0A1 1 0 1 1 1 -0.0001" fill="#5470c6" transform="matrix(19,0,0,19,161.609,214.6415)"></path><path d="M1 0A1 1 0 1 1 1 -0.0001" fill="#5470c6" transform="matrix(19,0,0,19,118.0754,161.6453)"></path><path d="M1 0A1 1 0 1 1 1 -0.0001" fill="#5470c6" transform="matrix(19,0,0,19,113.0081,91.8678)"></path><path d="M1 0A1 1 0 1 1 1 -0.0001" fill="#5470c6" transform="matrix(19,0,0,19,159.167,39.5385)"></path><path d="M1 0A1 1 0 1 1 1 -0.0001" fill="#5470c6" transform="matrix(19,0,0,19,225.4373,23.4394)"></path><path d="M1 0A1 1 0 1 1 1 -0.0001" fill="#5470c6" transform="matrix(19,0,0,19,287.1619,57.3731)"></path><path d="M1 0A1 1 0 1 1 1 -0.0001" fill="#5470c6" transform="matrix(19,0,0,19,211.7361,125.5767)"></path><path d="M-26.0964 -5l52.1929 0l0 33l-52.1929 0Z" fill="rgb(0,0,0)" fill-opacity="0" stroke="#ccc" stroke-width="0" transform="translate(237.5 5)"></path><text dominant-baseline="central" fill="#333" style="font-size:23px;font-family:sans-serif;font-weight:bolder;" text-anchor="middle" transform="translate(237.5 5)" y="11.5">C65</text></g></svg>