<svg baseprofile="full" height="250" style="position:absolute;left:0;top:0;user-select:none" version="1.1" width="475" xmlns="http://www.w3.org/2000/svg" xmlns:xlink="http://www.w3.org/1999/xlink"><rect fill="none" height="250" id="0" width="475" x="0" y="0"></rect><g><path d="M202.7842 125.6597L128.7661 187.4748" fill="none" stroke="#aaa" stroke-opacity="0.5"></path><path d="M306.9416 164.9033L189.9196 225.2179" fill="none" stroke="#aaa" stroke-opacity="0.5"></path><path d="M138.7127 52.0313L202.7842 125.6597" fill="none" stroke="#aaa" stroke-opacity="0.5"></path><path d="M202.7842 125.6597L203.3606 24.0943" fill="none" stroke="#aaa" stroke-opacity="0.5"></path><path d="M271.7695 40.7642L189.9196 225.2179" fill="none" stroke="#aaa" stroke-opacity="0.5"></path><path d="M202.7842 125.6597L108.2958 117.1608" fill="none" stroke="#aaa" stroke-opacity="0.5"></path><path d="M271.7695 40.7642L303.264 98.7401" fill="none" stroke="#aaa" stroke-opacity="0.5"></path><path d="M303.264 98.7401L306.9416 164.9033" fill="none" stroke="#aaa" stroke-opacity="0.5"></path><path d="M271.7695 40.7642L128.7661 187.4748" fill="none" stroke="#aaa" stroke-opacity="0.5"></path><path d="M306.9416 164.9033L203.3606 24.0943" fill="none" stroke="#aaa" stroke-opacity="0.5"></path><path d="M138.7127 52.0313L189.9196 225.2179" fill="none" stroke="#aaa" stroke-opacity="0.5"></path><path d="M306.9416 164.9033L108.2958 117.1608" fill="none" stroke="#aaa" stroke-opacity="0.5"></path><path d="M271.7695 40.7642L108.2958 117.1608" fill="none" stroke="#aaa" stroke-opacity="0.5"></path><path d="M138.7127 52.0313L303.264 98.7401" fill="none" stroke="#aaa" stroke-opacity="0.5"></path><path d="M303.264 98.7401L257.4446 213.9539" fill="none" stroke="#aaa" stroke-opacity="0.5"></path><path d="M271.7695 40.7642L257.4446 213.9539" fill="none" stroke="#aaa" stroke-opacity="0.5"></path><path d="M189.9196 225.2179L257.4446 213.9539" fill="none" stroke="#aaa" stroke-opacity="0.5"></path><path d="M203.3606 24.0943L108.2958 117.1608" fill="none" stroke="#aaa" stroke-opacity="0.5"></path><path d="M128.7661 187.4748L306.9416 164.9033" fill="none" stroke="#aaa" stroke-opacity="0.5"></path><path d="M138.7127 52.0313L257.4446 213.9539" fill="none" stroke="#aaa" stroke-opacity="0.5"></path><path d="M303.264 98.7401L202.7842 125.6597" fill="none" stroke="#aaa" stroke-opacity="0.5"></path><path d="M202.7842 125.6597L306.9416 164.9033" fill="none" stroke="#aaa" stroke-opacity="0.5"></path><path d="M128.7661 187.4748L257.4446 213.9539" fill="none" stroke="#aaa" stroke-opacity="0.5"></path><path d="M271.7695 40.7642L138.7127 52.0313" fill="none" stroke="#aaa" stroke-opacity="0.5"></path><path d="M303.264 98.7401L189.9196 225.2179" fill="none" stroke="#aaa" stroke-opacity="0.5"></path><path d="M271.7695 40.7642L306.9416 164.9033" fill="none" stroke="#aaa" stroke-opacity="0.5"></path><path d="M303.264 98.7401L128.7661 187.4748" fill="none" stroke="#aaa" stroke-opacity="0.5"></path><path d="M202.7842 125.6597L257.4446 213.9539" fill="none" stroke="#aaa" stroke-opacity="0.5"></path><path d="M257.4446 213.9539L108.2958 117.1608" fill="none" stroke="#aaa" stroke-opacity="0.5"></path><path d="M303.264 98.7401L203.3606 24.0943" fill="none" stroke="#aaa" stroke-opacity="0.5"></path><path d="M271.7695 40.7642L203.3606 24.0943" fill="none" stroke="#aaa" stroke-opacity="0.5"></path><path d="M189.9196 225.2179L203.3606 24.0943" fill="none" stroke="#aaa" stroke-opacity="0.5"></path><path d="M138.7127 52.0313L306.9416 164.9033" fill="none" stroke="#aaa" stroke-opacity="0.5"></path><path d="M303.264 98.7401L108.2958 117.1608" fill="none" stroke="#aaa" stroke-opacity="0.5"></path><path d="M306.9416 164.9033L257.4446 213.9539" fill="none" stroke="#aaa" stroke-opacity="0.5"></path><path d="M189.9196 225.2179L108.2958 117.1608" fill="none" stroke="#aaa" stroke-opacity="0.5"></path><path d="M138.7127 52.0313L128.7661 187.4748" fill="none" stroke="#aaa" stroke-opacity="0.5"></path><path d="M128.7661 187.4748L189.9196 225.2179" fill="none" stroke="#aaa" stroke-opacity="0.5"></path><path d="M138.7127 52.0313L203.3606 24.0943" fill="none" stroke="#aaa" stroke-opacity="0.5"></path><path d="M138.7127 52.0313L108.2958 117.1608" fill="none" stroke="#aaa" stroke-opacity="0.5"></path><path d="M203.3606 24.0943L257.4446 213.9539" fill="none" stroke="#aaa" stroke-opacity="0.5"></path><path d="M128.7661 187.4748L203.3606 24.0943" fill="none" stroke="#aaa" stroke-opacity="0.5"></path><path d="M271.7695 40.7642L202.7842 125.6597" fill="none" stroke="#aaa" stroke-opacity="0.5"></path><path d="M202.7842 125.6597L189.9196 225.2179" fill="none" stroke="#aaa" stroke-opacity="0.5"></path><path d="M128.7661 187.4748L108.2958 117.1608" fill="none" stroke="#aaa" stroke-opacity="0.5"></path><path d="M1 0A1 1 0 1 1 1 -0.0001" fill="#5470c6" transform="matrix(19,0,0,19,306.9416,164.9033)"></path><path d="M1 0A1 1 0 1 1 1 -0.0001" fill="#5470c6" transform="matrix(19,0,0,19,257.4446,213.9539)"></path><path d="M1 0A1 1 0 1 1 1 -0.0001" fill="#5470c6" transform="matrix(19,0,0,19,189.9196,225.2179)"></path><path d="M1 0A1 1 0 1 1 1 -0.0001" fill="#5470c6" transform="matrix(19,0,0,19,202.7842,125.6597)"></path><path d="M1 0A1 1 0 1 1 1 -0.0001" fill="#5470c6" transform="matrix(19,0,0,19,128.7661,187.4748)"></path><path d="M1 0A1 1 0 1 1 1 -0.0001" fill="#5470c6" transform="matrix(19,0,0,19,108.2958,117.1608)"></path><path d="M1 0A1 1 0 1 1 1 -0.0001" fill="#5470c6" transform="matrix(19,0,0,19,138.7127,52.0313)"></path><path d="M1 0A1 1 0 1 1 1 -0.0001" fill="#5470c6" transform="matrix(19,0,0,19,203.3606,24.0943)"></path><path d="M1 0A1 1 0 1 1 1 -0.0001" fill="#5470c6" transform="matrix(19,0,0,19,271.7695,40.7642)"></path><path d="M1 0A1 1 0 1 1 1 -0.0001" fill="#5470c6" transform="matrix(19,0,0,19,303.264,98.7401)"></path><path d="M-26.0964 -5l52.1929 0l0 33l-52.1929 0Z" fill="rgb(0,0,0)" fill-opacity="0" stroke="#ccc" stroke-width="0" transform="translate(237.5 5)"></path><text dominant-baseline="central" fill="#333" style="font-size:23px;font-family:sans-serif;font-weight:bolder;" text-anchor="middle" transform="translate(237.5 5)" y="11.5">C66</text></g></svg>