<svg baseprofile="full" height="250" style="position:absolute;left:0;top:0;user-select:none" version="1.1" width="475" xmlns="http://www.w3.org/2000/svg" xmlns:xlink="http://www.w3.org/1999/xlink"><rect fill="none" height="250" id="0" width="475" x="0" y="0"></rect><g><path d="M242.0903 222.6298L209.849 128.8254" fill="none" stroke="#aaa" stroke-opacity="0.5"></path><path d="M151.6031 43.7365L216.6268 22.3602" fill="none" stroke="#aaa" stroke-opacity="0.5"></path><path d="M119.6397 170.9444L279.1661 50.6696" fill="none" stroke="#aaa" stroke-opacity="0.5"></path><path d="M111.3771 100.5698L279.1661 50.6696" fill="none" stroke="#aaa" stroke-opacity="0.5"></path><path d="M279.1661 50.6696L216.6268 22.3602" fill="none" stroke="#aaa" stroke-opacity="0.5"></path><path d="M170.6822 219.7872L279.1661 50.6696" fill="none" stroke="#aaa" stroke-opacity="0.5"></path><path d="M119.6397 170.9444L216.6268 22.3602" fill="none" stroke="#aaa" stroke-opacity="0.5"></path><path d="M119.6397 170.9444L298.0356 179.1254" fill="none" stroke="#aaa" stroke-opacity="0.5"></path><path d="M242.0903 222.6298L151.6031 43.7365" fill="none" stroke="#aaa" stroke-opacity="0.5"></path><path d="M170.6822 219.7872L216.6268 22.3602" fill="none" stroke="#aaa" stroke-opacity="0.5"></path><path d="M298.0356 179.1254L279.1661 50.6696" fill="none" stroke="#aaa" stroke-opacity="0.5"></path><path d="M119.6397 170.9444L170.6822 219.7872" fill="none" stroke="#aaa" stroke-opacity="0.5"></path><path d="M151.6031 43.7365L279.1661 50.6696" fill="none" stroke="#aaa" stroke-opacity="0.5"></path><path d="M279.1661 50.6696L209.849 128.8254" fill="none" stroke="#aaa" stroke-opacity="0.5"></path><path d="M298.0356 179.1254L216.6268 22.3602" fill="none" stroke="#aaa" stroke-opacity="0.5"></path><path d="M312.1888 111.3517L298.0356 179.1254" fill="none" stroke="#aaa" stroke-opacity="0.5"></path><path d="M119.6397 170.9444L209.849 128.8254" fill="none" stroke="#aaa" stroke-opacity="0.5"></path><path d="M312.1888 111.3517L151.6031 43.7365" fill="none" stroke="#aaa" stroke-opacity="0.5"></path><path d="M242.0903 222.6298L279.1661 50.6696" fill="none" stroke="#aaa" stroke-opacity="0.5"></path><path d="M111.3771 100.5698L209.849 128.8254" fill="none" stroke="#aaa" stroke-opacity="0.5"></path><path d="M312.1888 111.3517L111.3771 100.5698" fill="none" stroke="#aaa" stroke-opacity="0.5"></path><path d="M298.0356 179.1254L111.3771 100.5698" fill="none" stroke="#aaa" stroke-opacity="0.5"></path><path d="M242.0903 222.6298L119.6397 170.9444" fill="none" stroke="#aaa" stroke-opacity="0.5"></path><path d="M151.6031 43.7365L298.0356 179.1254" fill="none" stroke="#aaa" stroke-opacity="0.5"></path><path d="M170.6822 219.7872L209.849 128.8254" fill="none" stroke="#aaa" stroke-opacity="0.5"></path><path d="M312.1888 111.3517L170.6822 219.7872" fill="none" stroke="#aaa" stroke-opacity="0.5"></path><path d="M151.6031 43.7365L111.3771 100.5698" fill="none" stroke="#aaa" stroke-opacity="0.5"></path><path d="M242.0903 222.6298L216.6268 22.3602" fill="none" stroke="#aaa" stroke-opacity="0.5"></path><path d="M111.3771 100.5698L216.6268 22.3602" fill="none" stroke="#aaa" stroke-opacity="0.5"></path><path d="M242.0903 222.6298L298.0356 179.1254" fill="none" stroke="#aaa" stroke-opacity="0.5"></path><path d="M312.1888 111.3517L209.849 128.8254" fill="none" stroke="#aaa" stroke-opacity="0.5"></path><path d="M312.1888 111.3517L279.1661 50.6696" fill="none" stroke="#aaa" stroke-opacity="0.5"></path><path d="M151.6031 43.7365L170.6822 219.7872" fill="none" stroke="#aaa" stroke-opacity="0.5"></path><path d="M298.0356 179.1254L209.849 128.8254" fill="none" stroke="#aaa" stroke-opacity="0.5"></path><path d="M119.6397 170.9444L151.6031 43.7365" fill="none" stroke="#aaa" stroke-opacity="0.5"></path><path d="M242.0903 222.6298L111.3771 100.5698" fill="none" stroke="#aaa" stroke-opacity="0.5"></path><path d="M216.6268 22.3602L209.849 128.8254" fill="none" stroke="#aaa" stroke-opacity="0.5"></path><path d="M119.6397 170.9444L111.3771 100.5698" fill="none" stroke="#aaa" stroke-opacity="0.5"></path><path d="M170.6822 219.7872L298.0356 179.1254" fill="none" stroke="#aaa" stroke-opacity="0.5"></path><path d="M242.0903 222.6298L312.1888 111.3517" fill="none" stroke="#aaa" stroke-opacity="0.5"></path><path d="M151.6031 43.7365L209.849 128.8254" fill="none" stroke="#aaa" stroke-opacity="0.5"></path><path d="M242.0903 222.6298L170.6822 219.7872" fill="none" stroke="#aaa" stroke-opacity="0.5"></path><path d="M119.6397 170.9444L312.1888 111.3517" fill="none" stroke="#aaa" stroke-opacity="0.5"></path><path d="M312.1888 111.3517L216.6268 22.3602" fill="none" stroke="#aaa" stroke-opacity="0.5"></path><path d="M170.6822 219.7872L111.3771 100.5698" fill="none" stroke="#aaa" stroke-opacity="0.5"></path><path d="M1 0A1 1 0 1 1 1 -0.0001" fill="#5470c6" transform="matrix(19,0,0,19,298.0356,179.1254)"></path><path d="M1 0A1 1 0 1 1 1 -0.0001" fill="#5470c6" transform="matrix(19,0,0,19,242.0903,222.6298)"></path><path d="M1 0A1 1 0 1 1 1 -0.0001" fill="#5470c6" transform="matrix(19,0,0,19,209.849,128.8254)"></path><path d="M1 0A1 1 0 1 1 1 -0.0001" fill="#5470c6" transform="matrix(19,0,0,19,170.6822,219.7872)"></path><path d="M1 0A1 1 0 1 1 1 -0.0001" fill="#5470c6" transform="matrix(19,0,0,19,119.6397,170.9444)"></path><path d="M1 0A1 1 0 1 1 1 -0.0001" fill="#5470c6" transform="matrix(19,0,0,19,111.3771,100.5698)"></path><path d="M1 0A1 1 0 1 1 1 -0.0001" fill="#5470c6" transform="matrix(19,0,0,19,151.6031,43.7365)"></path><path d="M1 0A1 1 0 1 1 1 -0.0001" fill="#5470c6" transform="matrix(19,0,0,19,216.6268,22.3602)"></path><path d="M1 0A1 1 0 1 1 1 -0.0001" fill="#5470c6" transform="matrix(19,0,0,19,279.1661,50.6696)"></path><path d="M1 0A1 1 0 1 1 1 -0.0001" fill="#5470c6" transform="matrix(19,0,0,19,312.1888,111.3517)"></path><path d="M-26.0964 -5l52.1929 0l0 33l-52.1929 0Z" fill="rgb(0,0,0)" fill-opacity="0" stroke="#ccc" stroke-width="0" transform="translate(237.5 5)"></path><text dominant-baseline="central" fill="#333" style="font-size:23px;font-family:sans-serif;font-weight:bolder;" text-anchor="middle" transform="translate(237.5 5)" y="11.5">C67</text></g></svg>