<svg baseprofile="full" height="250" style="position:absolute;left:0;top:0;user-select:none" version="1.1" width="475" xmlns="http://www.w3.org/2000/svg" xmlns:xlink="http://www.w3.org/1999/xlink"><rect fill="none" height="250" id="0" width="475" x="0" y="0"></rect><g><path d="M309.8507 129.9191L297.9122 168.6649" fill="none" stroke="#aaa" stroke-opacity="0.5" stroke-width="0.5"></path><path d="M309.8507 129.9191L152.2884 205.141" fill="none" stroke="#aaa" stroke-opacity="0.5" stroke-width="0.5"></path><path d="M127.1025 78.2373L144.2315 137.4892" fill="none" stroke="#aaa" stroke-opacity="0.5" stroke-width="0.5"></path><path d="M300.89 87.7521L262.1769 117.4363" fill="none" stroke="#aaa" stroke-opacity="0.5" stroke-width="0.5"></path><path d="M121.9344 172.4695L155.1762 40.9338" fill="none" stroke="#aaa" stroke-opacity="0.5" stroke-width="0.5"></path><path d="M297.9122 168.6649L144.2315 137.4892" fill="none" stroke="#aaa" stroke-opacity="0.5" stroke-width="0.5"></path><path d="M309.8507 129.9191L271.17 202.205" fill="none" stroke="#aaa" stroke-opacity="0.5" stroke-width="0.5"></path><path d="M198.5847 27.7959L262.1769 117.4363" fill="none" stroke="#aaa" stroke-opacity="0.5" stroke-width="0.5"></path><path d="M278.1615 53.5822L297.9122 168.6649" fill="none" stroke="#aaa" stroke-opacity="0.5" stroke-width="0.5"></path><path d="M278.1615 53.5822L152.2884 205.141" fill="none" stroke="#aaa" stroke-opacity="0.5" stroke-width="0.5"></path><path d="M193.6748 221.7296L152.2884 205.141" fill="none" stroke="#aaa" stroke-opacity="0.5" stroke-width="0.5"></path><path d="M243.2129 163.9163L190.37 175.2841" fill="none" stroke="#aaa" stroke-opacity="0.5" stroke-width="0.5"></path><path d="M127.1025 78.2373L243.2129 163.9163" fill="none" stroke="#aaa" stroke-opacity="0.5" stroke-width="0.5"></path><path d="M190.37 175.2841L300.89 87.7521" fill="none" stroke="#aaa" stroke-opacity="0.5" stroke-width="0.5"></path><path d="M234.5181 218.7826L194.651 122.0071" fill="none" stroke="#aaa" stroke-opacity="0.5" stroke-width="0.5"></path><path d="M243.2129 163.9163L230.887 76.1273" fill="none" stroke="#aaa" stroke-opacity="0.5" stroke-width="0.5"></path><path d="M193.6748 221.7296L234.5181 218.7826" fill="none" stroke="#aaa" stroke-opacity="0.5" stroke-width="0.5"></path><path d="M241.4238 31.2206L194.651 122.0071" fill="none" stroke="#aaa" stroke-opacity="0.5" stroke-width="0.5"></path><path d="M144.2315 137.4892L262.1769 117.4363" fill="none" stroke="#aaa" stroke-opacity="0.5" stroke-width="0.5"></path><path d="M241.4238 31.2206L243.2129 163.9163" fill="none" stroke="#aaa" stroke-opacity="0.5" stroke-width="0.5"></path><path d="M230.887 76.1273L262.1769 117.4363" fill="none" stroke="#aaa" stroke-opacity="0.5" stroke-width="0.5"></path><path d="M243.2129 163.9163L155.1762 40.9338" fill="none" stroke="#aaa" stroke-opacity="0.5" stroke-width="0.5"></path><path d="M155.1762 40.9338L262.1769 117.4363" fill="none" stroke="#aaa" stroke-opacity="0.5" stroke-width="0.5"></path><path d="M175.1428 76.5986L190.37 175.2841" fill="none" stroke="#aaa" stroke-opacity="0.5" stroke-width="0.5"></path><path d="M243.2129 163.9163L309.8507 129.9191" fill="none" stroke="#aaa" stroke-opacity="0.5" stroke-width="0.5"></path><path d="M198.5847 27.7959L190.37 175.2841" fill="none" stroke="#aaa" stroke-opacity="0.5" stroke-width="0.5"></path><path d="M297.9122 168.6649L300.89 87.7521" fill="none" stroke="#aaa" stroke-opacity="0.5" stroke-width="0.5"></path><path d="M175.1428 76.5986L230.887 76.1273" fill="none" stroke="#aaa" stroke-opacity="0.5" stroke-width="0.5"></path><path d="M193.6748 221.7296L110.284 117.7075" fill="none" stroke="#aaa" stroke-opacity="0.5" stroke-width="0.5"></path><path d="M297.9122 168.6649L121.9344 172.4695" fill="none" stroke="#aaa" stroke-opacity="0.5" stroke-width="0.5"></path><path d="M309.8507 129.9191L144.2315 137.4892" fill="none" stroke="#aaa" stroke-opacity="0.5" stroke-width="0.5"></path><path d="M127.1025 78.2373L262.1769 117.4363" fill="none" stroke="#aaa" stroke-opacity="0.5" stroke-width="0.5"></path><path d="M243.2129 163.9163L297.9122 168.6649" fill="none" stroke="#aaa" stroke-opacity="0.5" stroke-width="0.5"></path><path d="M243.2129 163.9163L152.2884 205.141" fill="none" stroke="#aaa" stroke-opacity="0.5" stroke-width="0.5"></path><path d="M278.1615 53.5822L241.4238 31.2206" fill="none" stroke="#aaa" stroke-opacity="0.5" stroke-width="0.5"></path><path d="M198.5847 27.7959L155.1762 40.9338" fill="none" stroke="#aaa" stroke-opacity="0.5" stroke-width="0.5"></path><path d="M194.651 122.0071L110.284 117.7075" fill="none" stroke="#aaa" stroke-opacity="0.5" stroke-width="0.5"></path><path d="M175.1428 76.5986L309.8507 129.9191" fill="none" stroke="#aaa" stroke-opacity="0.5" stroke-width="0.5"></path><path d="M155.1762 40.9338L190.37 175.2841" fill="none" stroke="#aaa" stroke-opacity="0.5" stroke-width="0.5"></path><path d="M243.2129 163.9163L271.17 202.205" fill="none" stroke="#aaa" stroke-opacity="0.5" stroke-width="0.5"></path><path d="M193.6748 221.7296L194.651 122.0071" fill="none" stroke="#aaa" stroke-opacity="0.5" stroke-width="0.5"></path><path d="M198.5847 27.7959L309.8507 129.9191" fill="none" stroke="#aaa" stroke-opacity="0.5" stroke-width="0.5"></path><path d="M198.5847 27.7959L175.1428 76.5986" fill="none" stroke="#aaa" stroke-opacity="0.5" stroke-width="0.5"></path><path d="M278.1615 53.5822L243.2129 163.9163" fill="none" stroke="#aaa" stroke-opacity="0.5" stroke-width="0.5"></path><path d="M271.17 202.205L262.1769 117.4363" fill="none" stroke="#aaa" stroke-opacity="0.5" stroke-width="0.5"></path><path d="M190.37 175.2841L230.887 76.1273" fill="none" stroke="#aaa" stroke-opacity="0.5" stroke-width="0.5"></path><path d="M241.4238 31.2206L300.89 87.7521" fill="none" stroke="#aaa" stroke-opacity="0.5" stroke-width="0.5"></path><path d="M175.1428 76.5986L297.9122 168.6649" fill="none" stroke="#aaa" stroke-opacity="0.5" stroke-width="0.5"></path><path d="M241.4238 31.2206L121.9344 172.4695" fill="none" stroke="#aaa" stroke-opacity="0.5" stroke-width="0.5"></path><path d="M152.2884 205.141L262.1769 117.4363" fill="none" stroke="#aaa" stroke-opacity="0.5" stroke-width="0.5"></path><path d="M121.9344 172.4695L194.651 122.0071" fill="none" stroke="#aaa" stroke-opacity="0.5" stroke-width="0.5"></path><path d="M198.5847 27.7959L152.2884 205.141" fill="none" stroke="#aaa" stroke-opacity="0.5" stroke-width="0.5"></path><path d="M175.1428 76.5986L271.17 202.205" fill="none" stroke="#aaa" stroke-opacity="0.5" stroke-width="0.5"></path><path d="M297.9122 168.6649L190.37 175.2841" fill="none" stroke="#aaa" stroke-opacity="0.5" stroke-width="0.5"></path><path d="M198.5847 27.7959L234.5181 218.7826" fill="none" stroke="#aaa" stroke-opacity="0.5" stroke-width="0.5"></path><path d="M127.1025 78.2373L155.1762 40.9338" fill="none" stroke="#aaa" stroke-opacity="0.5" stroke-width="0.5"></path><path d="M309.8507 129.9191L262.1769 117.4363" fill="none" stroke="#aaa" stroke-opacity="0.5" stroke-width="0.5"></path><path d="M297.9122 168.6649L155.1762 40.9338" fill="none" stroke="#aaa" stroke-opacity="0.5" stroke-width="0.5"></path><path d="M278.1615 53.5822L262.1769 117.4363" fill="none" stroke="#aaa" stroke-opacity="0.5" stroke-width="0.5"></path><path d="M241.4238 31.2206L198.5847 27.7959" fill="none" stroke="#aaa" stroke-opacity="0.5" stroke-width="0.5"></path><path d="M127.1025 78.2373L175.1428 76.5986" fill="none" stroke="#aaa" stroke-opacity="0.5" stroke-width="0.5"></path><path d="M190.37 175.2841L271.17 202.205" fill="none" stroke="#aaa" stroke-opacity="0.5" stroke-width="0.5"></path><path d="M193.6748 221.7296L300.89 87.7521" fill="none" stroke="#aaa" stroke-opacity="0.5" stroke-width="0.5"></path><path d="M193.6748 221.7296L121.9344 172.4695" fill="none" stroke="#aaa" stroke-opacity="0.5" stroke-width="0.5"></path><path d="M234.5181 218.7826L230.887 76.1273" fill="none" stroke="#aaa" stroke-opacity="0.5" stroke-width="0.5"></path><path d="M241.4238 31.2206L230.887 76.1273" fill="none" stroke="#aaa" stroke-opacity="0.5" stroke-width="0.5"></path><path d="M127.1025 78.2373L152.2884 205.141" fill="none" stroke="#aaa" stroke-opacity="0.5" stroke-width="0.5"></path><path d="M175.1428 76.5986L144.2315 137.4892" fill="none" stroke="#aaa" stroke-opacity="0.5" stroke-width="0.5"></path><path d="M230.887 76.1273L271.17 202.205" fill="none" stroke="#aaa" stroke-opacity="0.5" stroke-width="0.5"></path><path d="M300.89 87.7521L194.651 122.0071" fill="none" stroke="#aaa" stroke-opacity="0.5" stroke-width="0.5"></path><path d="M144.2315 137.4892L110.284 117.7075" fill="none" stroke="#aaa" stroke-opacity="0.5" stroke-width="0.5"></path><path d="M121.9344 172.4695L300.89 87.7521" fill="none" stroke="#aaa" stroke-opacity="0.5" stroke-width="0.5"></path><path d="M198.5847 27.7959L194.651 122.0071" fill="none" stroke="#aaa" stroke-opacity="0.5" stroke-width="0.5"></path><path d="M127.1025 78.2373L234.5181 218.7826" fill="none" stroke="#aaa" stroke-opacity="0.5" stroke-width="0.5"></path><path d="M152.2884 205.141L230.887 76.1273" fill="none" stroke="#aaa" stroke-opacity="0.5" stroke-width="0.5"></path><path d="M230.887 76.1273L110.284 117.7075" fill="none" stroke="#aaa" stroke-opacity="0.5" stroke-width="0.5"></path><path d="M198.5847 27.7959L243.2129 163.9163" fill="none" stroke="#aaa" stroke-opacity="0.5" stroke-width="0.5"></path><path d="M194.651 122.0071L262.1769 117.4363" fill="none" stroke="#aaa" stroke-opacity="0.5" stroke-width="0.5"></path><path d="M144.2315 137.4892L194.651 122.0071" fill="none" stroke="#aaa" stroke-opacity="0.5" stroke-width="0.5"></path><path d="M193.6748 221.7296L198.5847 27.7959" fill="none" stroke="#aaa" stroke-opacity="0.5" stroke-width="0.5"></path><path d="M243.2129 163.9163L262.1769 117.4363" fill="none" stroke="#aaa" stroke-opacity="0.5" stroke-width="0.5"></path><path d="M230.887 76.1273L194.651 122.0071" fill="none" stroke="#aaa" stroke-opacity="0.5" stroke-width="0.5"></path><path d="M155.1762 40.9338L194.651 122.0071" fill="none" stroke="#aaa" stroke-opacity="0.5" stroke-width="0.5"></path><path d="M262.1769 117.5L110.284 117.5" fill="none" stroke="#aaa" stroke-opacity="0.5" stroke-width="0.5"></path><path d="M193.6748 221.7296L190.37 175.2841" fill="none" stroke="#aaa" stroke-opacity="0.5" stroke-width="0.5"></path><path d="M241.4238 31.2206L297.9122 168.6649" fill="none" stroke="#aaa" stroke-opacity="0.5" stroke-width="0.5"></path><path d="M127.1025 78.2373L110.284 117.7075" fill="none" stroke="#aaa" stroke-opacity="0.5" stroke-width="0.5"></path><path d="M234.5181 218.7826L271.17 202.205" fill="none" stroke="#aaa" stroke-opacity="0.5" stroke-width="0.5"></path><path d="M278.1615 53.5822L230.887 76.1273" fill="none" stroke="#aaa" stroke-opacity="0.5" stroke-width="0.5"></path><path d="M193.6748 221.7296L230.887 76.1273" fill="none" stroke="#aaa" stroke-opacity="0.5" stroke-width="0.5"></path><path d="M241.4238 31.2206L271.17 202.205" fill="none" stroke="#aaa" stroke-opacity="0.5" stroke-width="0.5"></path><path d="M278.1615 53.5822L175.1428 76.5986" fill="none" stroke="#aaa" stroke-opacity="0.5" stroke-width="0.5"></path><path d="M234.5181 218.7826L110.284 117.7075" fill="none" stroke="#aaa" stroke-opacity="0.5" stroke-width="0.5"></path><path d="M241.4238 31.2206L110.284 117.7075" fill="none" stroke="#aaa" stroke-opacity="0.5" stroke-width="0.5"></path><path d="M175.1428 76.5986L262.1769 117.4363" fill="none" stroke="#aaa" stroke-opacity="0.5" stroke-width="0.5"></path><path d="M271.17 202.205L110.284 117.7075" fill="none" stroke="#aaa" stroke-opacity="0.5" stroke-width="0.5"></path><path d="M152.2884 205.141L271.17 202.205" fill="none" stroke="#aaa" stroke-opacity="0.5" stroke-width="0.5"></path><path d="M127.1025 78.2373L194.651 122.0071" fill="none" stroke="#aaa" stroke-opacity="0.5" stroke-width="0.5"></path><path d="M309.8507 129.9191L234.5181 218.7826" fill="none" stroke="#aaa" stroke-opacity="0.5" stroke-width="0.5"></path><path d="M198.5847 27.7959L300.89 87.7521" fill="none" stroke="#aaa" stroke-opacity="0.5" stroke-width="0.5"></path><path d="M121.9344 172.4695L230.887 76.1273" fill="none" stroke="#aaa" stroke-opacity="0.5" stroke-width="0.5"></path><path d="M193.6748 221.7296L309.8507 129.9191" fill="none" stroke="#aaa" stroke-opacity="0.5" stroke-width="0.5"></path><path d="M152.2884 205.141L110.284 117.7075" fill="none" stroke="#aaa" stroke-opacity="0.5" stroke-width="0.5"></path><path d="M198.5847 27.7959L121.9344 172.4695" fill="none" stroke="#aaa" stroke-opacity="0.5" stroke-width="0.5"></path><path d="M278.1615 53.5822L234.5181 218.7826" fill="none" stroke="#aaa" stroke-opacity="0.5" stroke-width="0.5"></path><path d="M241.4238 31.2206L127.1025 78.2373" fill="none" stroke="#aaa" stroke-opacity="0.5" stroke-width="0.5"></path><path d="M271.17 202.205L194.651 122.0071" fill="none" stroke="#aaa" stroke-opacity="0.5" stroke-width="0.5"></path><path d="M144.2315 137.4892L300.89 87.7521" fill="none" stroke="#aaa" stroke-opacity="0.5" stroke-width="0.5"></path><path d="M193.6748 221.7296L297.9122 168.6649" fill="none" stroke="#aaa" stroke-opacity="0.5" stroke-width="0.5"></path><path d="M230.887 76.1273L300.89 87.7521" fill="none" stroke="#aaa" stroke-opacity="0.5" stroke-width="0.5"></path><path d="M234.5181 218.7826L144.2315 137.4892" fill="none" stroke="#aaa" stroke-opacity="0.5" stroke-width="0.5"></path><path d="M190.37 175.2841L262.1769 117.4363" fill="none" stroke="#aaa" stroke-opacity="0.5" stroke-width="0.5"></path><path d="M152.2884 205.141L194.651 122.0071" fill="none" stroke="#aaa" stroke-opacity="0.5" stroke-width="0.5"></path><path d="M155.1762 40.9338L300.89 87.7521" fill="none" stroke="#aaa" stroke-opacity="0.5" stroke-width="0.5"></path><path d="M278.1615 53.5822L271.17 202.205" fill="none" stroke="#aaa" stroke-opacity="0.5" stroke-width="0.5"></path><path d="M309.8507 129.9191L110.284 117.7075" fill="none" stroke="#aaa" stroke-opacity="0.5" stroke-width="0.5"></path><path d="M193.6748 221.7296L271.17 202.205" fill="none" stroke="#aaa" stroke-opacity="0.5" stroke-width="0.5"></path><path d="M241.4238 31.2206L144.2315 137.4892" fill="none" stroke="#aaa" stroke-opacity="0.5" stroke-width="0.5"></path><path d="M243.2129 163.9163L175.1428 76.5986" fill="none" stroke="#aaa" stroke-opacity="0.5" stroke-width="0.5"></path><path d="M278.1615 53.5822L110.284 117.7075" fill="none" stroke="#aaa" stroke-opacity="0.5" stroke-width="0.5"></path><path d="M152.2884 205.141L144.2315 137.4892" fill="none" stroke="#aaa" stroke-opacity="0.5" stroke-width="0.5"></path><path d="M175.1428 76.5986L155.1762 40.9338" fill="none" stroke="#aaa" stroke-opacity="0.5" stroke-width="0.5"></path><path d="M121.9344 172.4695L271.17 202.205" fill="none" stroke="#aaa" stroke-opacity="0.5" stroke-width="0.5"></path><path d="M309.8507 129.9191L194.651 122.0071" fill="none" stroke="#aaa" stroke-opacity="0.5" stroke-width="0.5"></path><path d="M127.1025 78.2373L300.89 87.7521" fill="none" stroke="#aaa" stroke-opacity="0.5" stroke-width="0.5"></path><path d="M297.9122 168.6649L262.1769 117.4363" fill="none" stroke="#aaa" stroke-opacity="0.5" stroke-width="0.5"></path><path d="M127.1025 78.2373L121.9344 172.4695" fill="none" stroke="#aaa" stroke-opacity="0.5" stroke-width="0.5"></path><path d="M278.1615 53.5822L127.1025 78.2373" fill="none" stroke="#aaa" stroke-opacity="0.5" stroke-width="0.5"></path><path d="M121.9344 172.4695L110.284 117.7075" fill="none" stroke="#aaa" stroke-opacity="0.5" stroke-width="0.5"></path><path d="M278.1615 53.5822L194.651 122.0071" fill="none" stroke="#aaa" stroke-opacity="0.5" stroke-width="0.5"></path><path d="M193.6748 221.7296L127.1025 78.2373" fill="none" stroke="#aaa" stroke-opacity="0.5" stroke-width="0.5"></path><path d="M243.2129 163.9163L234.5181 218.7826" fill="none" stroke="#aaa" stroke-opacity="0.5" stroke-width="0.5"></path><path d="M198.5847 27.7959L230.887 76.1273" fill="none" stroke="#aaa" stroke-opacity="0.5" stroke-width="0.5"></path><path d="M234.5181 218.7826L300.89 87.7521" fill="none" stroke="#aaa" stroke-opacity="0.5" stroke-width="0.5"></path><path d="M144.2315 137.4892L190.37 175.2841" fill="none" stroke="#aaa" stroke-opacity="0.5" stroke-width="0.5"></path><path d="M234.5181 218.7826L121.9344 172.4695" fill="none" stroke="#aaa" stroke-opacity="0.5" stroke-width="0.5"></path><path d="M193.6748 221.7296L241.4238 31.2206" fill="none" stroke="#aaa" stroke-opacity="0.5" stroke-width="0.5"></path><path d="M278.1615 53.5822L144.2315 137.4892" fill="none" stroke="#aaa" stroke-opacity="0.5" stroke-width="0.5"></path><path d="M193.6748 221.7296L144.2315 137.4892" fill="none" stroke="#aaa" stroke-opacity="0.5" stroke-width="0.5"></path><path d="M175.1428 76.5986L152.2884 205.141" fill="none" stroke="#aaa" stroke-opacity="0.5" stroke-width="0.5"></path><path d="M144.2315 137.4892L230.887 76.1273" fill="none" stroke="#aaa" stroke-opacity="0.5" stroke-width="0.5"></path><path d="M152.2884 205.141L300.89 87.7521" fill="none" stroke="#aaa" stroke-opacity="0.5" stroke-width="0.5"></path><path d="M234.5181 218.7826L262.1769 117.4363" fill="none" stroke="#aaa" stroke-opacity="0.5" stroke-width="0.5"></path><path d="M241.4238 31.2206L262.1769 117.4363" fill="none" stroke="#aaa" stroke-opacity="0.5" stroke-width="0.5"></path><path d="M155.1762 40.9338L230.887 76.1273" fill="none" stroke="#aaa" stroke-opacity="0.5" stroke-width="0.5"></path><path d="M175.1428 76.5986L234.5181 218.7826" fill="none" stroke="#aaa" stroke-opacity="0.5" stroke-width="0.5"></path><path d="M193.6748 221.7296L243.2129 163.9163" fill="none" stroke="#aaa" stroke-opacity="0.5" stroke-width="0.5"></path><path d="M152.2884 205.141L121.9344 172.4695" fill="none" stroke="#aaa" stroke-opacity="0.5" stroke-width="0.5"></path><path d="M243.2129 163.9163L110.284 117.7075" fill="none" stroke="#aaa" stroke-opacity="0.5" stroke-width="0.5"></path><path d="M127.1025 78.2373L198.5847 27.7959" fill="none" stroke="#aaa" stroke-opacity="0.5" stroke-width="0.5"></path><path d="M121.9344 172.4695L144.2315 137.4892" fill="none" stroke="#aaa" stroke-opacity="0.5" stroke-width="0.5"></path><path d="M198.5847 27.7959L297.9122 168.6649" fill="none" stroke="#aaa" stroke-opacity="0.5" stroke-width="0.5"></path><path d="M300.89 87.7521L271.17 202.205" fill="none" stroke="#aaa" stroke-opacity="0.5" stroke-width="0.5"></path><path d="M127.1025 78.2373L190.37 175.2841" fill="none" stroke="#aaa" stroke-opacity="0.5" stroke-width="0.5"></path><path d="M309.8507 129.9191L300.89 87.7521" fill="none" stroke="#aaa" stroke-opacity="0.5" stroke-width="0.5"></path><path d="M198.5847 27.7959L271.17 202.205" fill="none" stroke="#aaa" stroke-opacity="0.5" stroke-width="0.5"></path><path d="M243.2129 163.9163L194.651 122.0071" fill="none" stroke="#aaa" stroke-opacity="0.5" stroke-width="0.5"></path><path d="M127.1025 78.2373L230.887 76.1273" fill="none" stroke="#aaa" stroke-opacity="0.5" stroke-width="0.5"></path><path d="M300.89 87.7521L110.284 117.7075" fill="none" stroke="#aaa" stroke-opacity="0.5" stroke-width="0.5"></path><path d="M309.8507 129.9191L121.9344 172.4695" fill="none" stroke="#aaa" stroke-opacity="0.5" stroke-width="0.5"></path><path d="M234.5181 218.7826L190.37 175.2841" fill="none" stroke="#aaa" stroke-opacity="0.5" stroke-width="0.5"></path><path d="M278.1615 53.5822L300.89 87.7521" fill="none" stroke="#aaa" stroke-opacity="0.5" stroke-width="0.5"></path><path d="M175.1428 76.5986L110.284 117.7075" fill="none" stroke="#aaa" stroke-opacity="0.5" stroke-width="0.5"></path><path d="M297.9122 168.6649L230.887 76.1273" fill="none" stroke="#aaa" stroke-opacity="0.5" stroke-width="0.5"></path><path d="M198.5847 27.7959L110.284 117.7075" fill="none" stroke="#aaa" stroke-opacity="0.5" stroke-width="0.5"></path><path d="M241.4238 31.2206L190.37 175.2841" fill="none" stroke="#aaa" stroke-opacity="0.5" stroke-width="0.5"></path><path d="M278.1615 53.5822L121.9344 172.4695" fill="none" stroke="#aaa" stroke-opacity="0.5" stroke-width="0.5"></path><path d="M144.2315 137.4892L271.17 202.205" fill="none" stroke="#aaa" stroke-opacity="0.5" stroke-width="0.5"></path><path d="M243.2129 163.9163L144.2315 137.4892" fill="none" stroke="#aaa" stroke-opacity="0.5" stroke-width="0.5"></path><path d="M127.1025 78.2373L309.8507 129.9191" fill="none" stroke="#aaa" stroke-opacity="0.5" stroke-width="0.5"></path><path d="M152.2884 205.141L190.37 175.2841" fill="none" stroke="#aaa" stroke-opacity="0.5" stroke-width="0.5"></path><path d="M193.6748 221.7296L262.1769 117.4363" fill="none" stroke="#aaa" stroke-opacity="0.5" stroke-width="0.5"></path><path d="M155.1762 40.9338L271.17 202.205" fill="none" stroke="#aaa" stroke-opacity="0.5" stroke-width="0.5"></path><path d="M234.5181 218.7826L155.1762 40.9338" fill="none" stroke="#aaa" stroke-opacity="0.5" stroke-width="0.5"></path><path d="M175.1428 76.5986L194.651 122.0071" fill="none" stroke="#aaa" stroke-opacity="0.5" stroke-width="0.5"></path><path d="M241.4238 31.2206L155.1762 40.9338" fill="none" stroke="#aaa" stroke-opacity="0.5" stroke-width="0.5"></path><path d="M155.1762 40.9338L110.284 117.7075" fill="none" stroke="#aaa" stroke-opacity="0.5" stroke-width="0.5"></path><path d="M190.37 175.2841L110.284 117.7075" fill="none" stroke="#aaa" stroke-opacity="0.5" stroke-width="0.5"></path><path d="M241.4238 31.2206L309.8507 129.9191" fill="none" stroke="#aaa" stroke-opacity="0.5" stroke-width="0.5"></path><path d="M127.1025 78.2373L297.9122 168.6649" fill="none" stroke="#aaa" stroke-opacity="0.5" stroke-width="0.5"></path><path d="M241.4238 31.2206L175.1428 76.5986" fill="none" stroke="#aaa" stroke-opacity="0.5" stroke-width="0.5"></path><path d="M121.9344 172.4695L262.1769 117.4363" fill="none" stroke="#aaa" stroke-opacity="0.5" stroke-width="0.5"></path><path d="M152.2884 205.141L155.1762 40.9338" fill="none" stroke="#aaa" stroke-opacity="0.5" stroke-width="0.5"></path><path d="M198.5847 27.7959L144.2315 137.4892" fill="none" stroke="#aaa" stroke-opacity="0.5" stroke-width="0.5"></path><path d="M309.8507 129.9191L190.37 175.2841" fill="none" stroke="#aaa" stroke-opacity="0.5" stroke-width="0.5"></path><path d="M127.1025 78.2373L271.17 202.205" fill="none" stroke="#aaa" stroke-opacity="0.5" stroke-width="0.5"></path><path d="M278.1615 53.5822L198.5847 27.7959" fill="none" stroke="#aaa" stroke-opacity="0.5" stroke-width="0.5"></path><path d="M234.5181 218.7826L297.9122 168.6649" fill="none" stroke="#aaa" stroke-opacity="0.5" stroke-width="0.5"></path><path d="M234.5181 218.7826L152.2884 205.141" fill="none" stroke="#aaa" stroke-opacity="0.5" stroke-width="0.5"></path><path d="M243.2129 163.9163L300.89 87.7521" fill="none" stroke="#aaa" stroke-opacity="0.5" stroke-width="0.5"></path><path d="M309.8507 129.9191L230.887 76.1273" fill="none" stroke="#aaa" stroke-opacity="0.5" stroke-width="0.5"></path><path d="M297.9122 168.6649L271.17 202.205" fill="none" stroke="#aaa" stroke-opacity="0.5" stroke-width="0.5"></path><path d="M278.1615 53.5822L190.37 175.2841" fill="none" stroke="#aaa" stroke-opacity="0.5" stroke-width="0.5"></path><path d="M190.37 175.2841L194.651 122.0071" fill="none" stroke="#aaa" stroke-opacity="0.5" stroke-width="0.5"></path><path d="M241.4238 31.2206L152.2884 205.141" fill="none" stroke="#aaa" stroke-opacity="0.5" stroke-width="0.5"></path><path d="M243.2129 163.9163L121.9344 172.4695" fill="none" stroke="#aaa" stroke-opacity="0.5" stroke-width="0.5"></path><path d="M297.9122 168.6649L110.284 117.7075" fill="none" stroke="#aaa" stroke-opacity="0.5" stroke-width="0.5"></path><path d="M309.8507 129.9191L155.1762 40.9338" fill="none" stroke="#aaa" stroke-opacity="0.5" stroke-width="0.5"></path><path d="M241.4238 31.2206L234.5181 218.7826" fill="none" stroke="#aaa" stroke-opacity="0.5" stroke-width="0.5"></path><path d="M152.2884 205.141L297.9122 168.6649" fill="none" stroke="#aaa" stroke-opacity="0.5" stroke-width="0.5"></path><path d="M155.1762 40.9338L144.2315 137.4892" fill="none" stroke="#aaa" stroke-opacity="0.5" stroke-width="0.5"></path><path d="M193.6748 221.7296L278.1615 53.5822" fill="none" stroke="#aaa" stroke-opacity="0.5" stroke-width="0.5"></path><path d="M121.9344 172.4695L190.37 175.2841" fill="none" stroke="#aaa" stroke-opacity="0.5" stroke-width="0.5"></path><path d="M278.1615 53.5822L155.1762 40.9338" fill="none" stroke="#aaa" stroke-opacity="0.5" stroke-width="0.5"></path><path d="M193.6748 221.7296L155.1762 40.9338" fill="none" stroke="#aaa" stroke-opacity="0.5" stroke-width="0.5"></path><path d="M175.1428 76.5986L300.89 87.7521" fill="none" stroke="#aaa" stroke-opacity="0.5" stroke-width="0.5"></path><path d="M278.1615 53.5822L309.8507 129.9191" fill="none" stroke="#aaa" stroke-opacity="0.5" stroke-width="0.5"></path><path d="M297.9122 168.6649L194.651 122.0071" fill="none" stroke="#aaa" stroke-opacity="0.5" stroke-width="0.5"></path><path d="M175.1428 76.5986L121.9344 172.4695" fill="none" stroke="#aaa" stroke-opacity="0.5" stroke-width="0.5"></path><path d="M193.6748 221.7296L175.1428 76.5986" fill="none" stroke="#aaa" stroke-opacity="0.5" stroke-width="0.5"></path><path d="M1 0A1 1 0 1 1 1 -0.0001" fill="#5470c6" transform="matrix(18,0,0,18,309.8507,129.9191)"></path><path d="M1 0A1 1 0 1 1 1 -0.0001" fill="#5470c6" transform="matrix(18,0,0,18,297.9122,168.6649)"></path><path d="M1 0A1 1 0 1 1 1 -0.0001" fill="#5470c6" transform="matrix(18,0,0,18,243.2129,163.9163)"></path><path d="M1 0A1 1 0 1 1 1 -0.0001" fill="#5470c6" transform="matrix(18,0,0,18,271.17,202.205)"></path><path d="M1 0A1 1 0 1 1 1 -0.0001" fill="#5470c6" transform="matrix(18,0,0,18,190.37,175.2841)"></path><path d="M1 0A1 1 0 1 1 1 -0.0001" fill="#5470c6" transform="matrix(18,0,0,18,234.5181,218.7826)"></path><path d="M1 0A1 1 0 1 1 1 -0.0001" fill="#5470c6" transform="matrix(18,0,0,18,193.6748,221.7296)"></path><path d="M1 0A1 1 0 1 1 1 -0.0001" fill="#5470c6" transform="matrix(18,0,0,18,152.2884,205.141)"></path><path d="M1 0A1 1 0 1 1 1 -0.0001" fill="#5470c6" transform="matrix(18,0,0,18,121.9344,172.4695)"></path><path d="M1 0A1 1 0 1 1 1 -0.0001" fill="#5470c6" transform="matrix(18,0,0,18,144.2315,137.4892)"></path><path d="M1 0A1 1 0 1 1 1 -0.0001" fill="#5470c6" transform="matrix(18,0,0,18,110.284,117.7075)"></path><path d="M1 0A1 1 0 1 1 1 -0.0001" fill="#5470c6" transform="matrix(18,0,0,18,127.1025,78.2373)"></path><path d="M1 0A1 1 0 1 1 1 -0.0001" fill="#5470c6" transform="matrix(18,0,0,18,175.1428,76.5986)"></path><path d="M1 0A1 1 0 1 1 1 -0.0001" fill="#5470c6" transform="matrix(18,0,0,18,155.1762,40.9338)"></path><path d="M1 0A1 1 0 1 1 1 -0.0001" fill="#5470c6" transform="matrix(18,0,0,18,198.5847,27.7959)"></path><path d="M1 0A1 1 0 1 1 1 -0.0001" fill="#5470c6" transform="matrix(18,0,0,18,230.887,76.1273)"></path><path d="M1 0A1 1 0 1 1 1 -0.0001" fill="#5470c6" transform="matrix(18,0,0,18,241.4238,31.2206)"></path><path d="M1 0A1 1 0 1 1 1 -0.0001" fill="#5470c6" transform="matrix(18,0,0,18,262.1769,117.4363)"></path><path d="M1 0A1 1 0 1 1 1 -0.0001" fill="#5470c6" transform="matrix(18,0,0,18,278.1615,53.5822)"></path><path d="M1 0A1 1 0 1 1 1 -0.0001" fill="#5470c6" transform="matrix(18,0,0,18,300.89,87.7521)"></path><path d="M1 0A1 1 0 1 1 1 -0.0001" fill="#5470c6" transform="matrix(18,0,0,18,194.651,122.0071)"></path><path d="M-25.1792 -5l50.3584 0l0 32l-50.3584 0Z" fill="rgb(0,0,0)" fill-opacity="0" stroke="#ccc" stroke-width="0" transform="translate(237.5 5)"></path><text dominant-baseline="central" fill="#333" style="font-size:22px;font-family:sans-serif;font-weight:bolder;" text-anchor="middle" transform="translate(237.5 5)" y="11">C69</text></g></svg>