<svg baseprofile="full" height="250" style="position:absolute;left:0;top:0;user-select:none" version="1.1" width="475" xmlns="http://www.w3.org/2000/svg" xmlns:xlink="http://www.w3.org/1999/xlink"><rect fill="none" height="250" id="0" width="475" x="0" y="0"></rect><g><path d="M305.6127 153.4608L160.4702 92.5211" fill="none" stroke="#aaa" stroke-opacity="0.5" stroke-width="0.5"></path><path d="M139.9927 189.6453L160.4702 92.5211" fill="none" stroke="#aaa" stroke-opacity="0.5" stroke-width="0.5"></path><path d="M132.0197 60.0095L113.8178 107.2943" fill="none" stroke="#aaa" stroke-opacity="0.5" stroke-width="0.5"></path><path d="M208.1699 85.0605L211.2259 222.0996" fill="none" stroke="#aaa" stroke-opacity="0.5" stroke-width="0.5"></path><path d="M211.2259 222.0996L253.4215 143.9379" fill="none" stroke="#aaa" stroke-opacity="0.5" stroke-width="0.5"></path><path d="M173.036 34.166L116.1478 152.899" fill="none" stroke="#aaa" stroke-opacity="0.5" stroke-width="0.5"></path><path d="M253.4215 143.9379L116.1478 152.899" fill="none" stroke="#aaa" stroke-opacity="0.5" stroke-width="0.5"></path><path d="M292.8743 66.4113L211.2259 222.0996" fill="none" stroke="#aaa" stroke-opacity="0.5" stroke-width="0.5"></path><path d="M209.8155 166.0191L211.2259 222.0996" fill="none" stroke="#aaa" stroke-opacity="0.5" stroke-width="0.5"></path><path d="M164.4035 143.4997L255.7805 90.8903" fill="none" stroke="#aaa" stroke-opacity="0.5" stroke-width="0.5"></path><path d="M214.3246 28.1379L173.036 34.166" fill="none" stroke="#aaa" stroke-opacity="0.5" stroke-width="0.5"></path><path d="M113.8178 107.2943L116.1478 152.899" fill="none" stroke="#aaa" stroke-opacity="0.5" stroke-width="0.5"></path><path d="M251.5821 212.9222L255.7805 90.8903" fill="none" stroke="#aaa" stroke-opacity="0.5" stroke-width="0.5"></path><path d="M283.9502 189.9555L132.0197 60.0095" fill="none" stroke="#aaa" stroke-opacity="0.5" stroke-width="0.5"></path><path d="M208.1699 85.0605L255.7805 90.8903" fill="none" stroke="#aaa" stroke-opacity="0.5" stroke-width="0.5"></path><path d="M211.2259 222.0996L308.0376 109.8288" fill="none" stroke="#aaa" stroke-opacity="0.5" stroke-width="0.5"></path><path d="M164.4035 143.4997L173.036 34.166" fill="none" stroke="#aaa" stroke-opacity="0.5" stroke-width="0.5"></path><path d="M292.8743 66.4113L255.7805 90.8903" fill="none" stroke="#aaa" stroke-opacity="0.5" stroke-width="0.5"></path><path d="M209.8155 166.0191L255.7805 90.8903" fill="none" stroke="#aaa" stroke-opacity="0.5" stroke-width="0.5"></path><path d="M255.5284 37.5194L211.2259 222.0996" fill="none" stroke="#aaa" stroke-opacity="0.5" stroke-width="0.5"></path><path d="M305.6127 153.4608L211.2259 222.0996" fill="none" stroke="#aaa" stroke-opacity="0.5" stroke-width="0.5"></path><path d="M139.9927 189.6453L211.2259 222.0996" fill="none" stroke="#aaa" stroke-opacity="0.5" stroke-width="0.5"></path><path d="M172.3067 213.7218L160.4702 92.5211" fill="none" stroke="#aaa" stroke-opacity="0.5" stroke-width="0.5"></path><path d="M173.036 34.166L132.0197 60.0095" fill="none" stroke="#aaa" stroke-opacity="0.5" stroke-width="0.5"></path><path d="M211.2259 222.0996L116.1478 152.899" fill="none" stroke="#aaa" stroke-opacity="0.5" stroke-width="0.5"></path><path d="M292.8743 66.4113L173.036 34.166" fill="none" stroke="#aaa" stroke-opacity="0.5" stroke-width="0.5"></path><path d="M209.8155 166.0191L173.036 34.166" fill="none" stroke="#aaa" stroke-opacity="0.5" stroke-width="0.5"></path><path d="M253.4215 143.9379L132.0197 60.0095" fill="none" stroke="#aaa" stroke-opacity="0.5" stroke-width="0.5"></path><path d="M253.4215 143.9379L160.4702 92.5211" fill="none" stroke="#aaa" stroke-opacity="0.5" stroke-width="0.5"></path><path d="M164.4035 143.4997L113.8178 107.2943" fill="none" stroke="#aaa" stroke-opacity="0.5" stroke-width="0.5"></path><path d="M255.5284 37.5194L255.7805 90.8903" fill="none" stroke="#aaa" stroke-opacity="0.5" stroke-width="0.5"></path><path d="M251.5821 212.9222L113.8178 107.2943" fill="none" stroke="#aaa" stroke-opacity="0.5" stroke-width="0.5"></path><path d="M305.6127 153.4608L255.7805 90.8903" fill="none" stroke="#aaa" stroke-opacity="0.5" stroke-width="0.5"></path><path d="M164.4035 143.4997L253.4215 143.9379" fill="none" stroke="#aaa" stroke-opacity="0.5" stroke-width="0.5"></path><path d="M164.4035 143.4997L209.8155 166.0191" fill="none" stroke="#aaa" stroke-opacity="0.5" stroke-width="0.5"></path><path d="M208.1699 85.0605L113.8178 107.2943" fill="none" stroke="#aaa" stroke-opacity="0.5" stroke-width="0.5"></path><path d="M251.5821 212.9222L253.4215 143.9379" fill="none" stroke="#aaa" stroke-opacity="0.5" stroke-width="0.5"></path><path d="M251.5821 212.9222L209.8155 166.0191" fill="none" stroke="#aaa" stroke-opacity="0.5" stroke-width="0.5"></path><path d="M209.8155 166.0191L113.8178 107.2943" fill="none" stroke="#aaa" stroke-opacity="0.5" stroke-width="0.5"></path><path d="M214.3246 28.1379L208.1699 85.0605" fill="none" stroke="#aaa" stroke-opacity="0.5" stroke-width="0.5"></path><path d="M208.1699 85.0605L253.4215 143.9379" fill="none" stroke="#aaa" stroke-opacity="0.5" stroke-width="0.5"></path><path d="M283.9502 189.9555L173.036 34.166" fill="none" stroke="#aaa" stroke-opacity="0.5" stroke-width="0.5"></path><path d="M208.1699 85.0605L209.8155 166.0191" fill="none" stroke="#aaa" stroke-opacity="0.5" stroke-width="0.5"></path><path d="M172.3067 213.7218L211.2259 222.0996" fill="none" stroke="#aaa" stroke-opacity="0.5" stroke-width="0.5"></path><path d="M292.8743 66.4113L253.4215 143.9379" fill="none" stroke="#aaa" stroke-opacity="0.5" stroke-width="0.5"></path><path d="M209.8155 166.0191L253.4215 143.9379" fill="none" stroke="#aaa" stroke-opacity="0.5" stroke-width="0.5"></path><path d="M292.8743 66.4113L209.8155 166.0191" fill="none" stroke="#aaa" stroke-opacity="0.5" stroke-width="0.5"></path><path d="M211.2259 222.0996L132.0197 60.0095" fill="none" stroke="#aaa" stroke-opacity="0.5" stroke-width="0.5"></path><path d="M214.3246 28.1379L172.3067 213.7218" fill="none" stroke="#aaa" stroke-opacity="0.5" stroke-width="0.5"></path><path d="M164.4035 143.4997L208.1699 85.0605" fill="none" stroke="#aaa" stroke-opacity="0.5" stroke-width="0.5"></path><path d="M160.4702 92.5211L116.1478 152.899" fill="none" stroke="#aaa" stroke-opacity="0.5" stroke-width="0.5"></path><path d="M251.5821 212.9222L208.1699 85.0605" fill="none" stroke="#aaa" stroke-opacity="0.5" stroke-width="0.5"></path><path d="M251.5821 212.9222L308.0376 109.8288" fill="none" stroke="#aaa" stroke-opacity="0.5" stroke-width="0.5"></path><path d="M255.5284 37.5194L113.8178 107.2943" fill="none" stroke="#aaa" stroke-opacity="0.5" stroke-width="0.5"></path><path d="M308.0376 109.8288L160.4702 92.5211" fill="none" stroke="#aaa" stroke-opacity="0.5" stroke-width="0.5"></path><path d="M255.7805 90.8903L172.3067 213.7218" fill="none" stroke="#aaa" stroke-opacity="0.5" stroke-width="0.5"></path><path d="M305.6127 153.4608L113.8178 107.2943" fill="none" stroke="#aaa" stroke-opacity="0.5" stroke-width="0.5"></path><path d="M139.9927 189.6453L113.8178 107.2943" fill="none" stroke="#aaa" stroke-opacity="0.5" stroke-width="0.5"></path><path d="M164.4035 143.4997L139.9927 189.6453" fill="none" stroke="#aaa" stroke-opacity="0.5" stroke-width="0.5"></path><path d="M292.8743 66.4113L208.1699 85.0605" fill="none" stroke="#aaa" stroke-opacity="0.5" stroke-width="0.5"></path><path d="M164.4035 143.4997L116.1478 152.899" fill="none" stroke="#aaa" stroke-opacity="0.5" stroke-width="0.5"></path><path d="M164.4035 143.4997L283.9502 189.9555" fill="none" stroke="#aaa" stroke-opacity="0.5" stroke-width="0.5"></path><path d="M255.5284 37.5194L253.4215 143.9379" fill="none" stroke="#aaa" stroke-opacity="0.5" stroke-width="0.5"></path><path d="M255.7805 90.8903L308.0376 109.8288" fill="none" stroke="#aaa" stroke-opacity="0.5" stroke-width="0.5"></path><path d="M255.5284 37.5194L209.8155 166.0191" fill="none" stroke="#aaa" stroke-opacity="0.5" stroke-width="0.5"></path><path d="M251.5821 212.9222L139.9927 189.6453" fill="none" stroke="#aaa" stroke-opacity="0.5" stroke-width="0.5"></path><path d="M164.4035 143.4997L214.3246 28.1379" fill="none" stroke="#aaa" stroke-opacity="0.5" stroke-width="0.5"></path><path d="M251.5821 212.9222L116.1478 152.899" fill="none" stroke="#aaa" stroke-opacity="0.5" stroke-width="0.5"></path><path d="M251.5821 212.9222L283.9502 189.9555" fill="none" stroke="#aaa" stroke-opacity="0.5" stroke-width="0.5"></path><path d="M305.6127 153.4608L253.4215 143.9379" fill="none" stroke="#aaa" stroke-opacity="0.5" stroke-width="0.5"></path><path d="M139.9927 189.6453L253.4215 143.9379" fill="none" stroke="#aaa" stroke-opacity="0.5" stroke-width="0.5"></path><path d="M208.1699 85.0605L139.9927 189.6453" fill="none" stroke="#aaa" stroke-opacity="0.5" stroke-width="0.5"></path><path d="M208.1699 85.0605L116.1478 152.899" fill="none" stroke="#aaa" stroke-opacity="0.5" stroke-width="0.5"></path><path d="M208.1699 85.0605L283.9502 189.9555" fill="none" stroke="#aaa" stroke-opacity="0.5" stroke-width="0.5"></path><path d="M292.8743 66.4113L139.9927 189.6453" fill="none" stroke="#aaa" stroke-opacity="0.5" stroke-width="0.5"></path><path d="M292.8743 66.4113L116.1478 152.899" fill="none" stroke="#aaa" stroke-opacity="0.5" stroke-width="0.5"></path><path d="M209.8155 166.0191L139.9927 189.6453" fill="none" stroke="#aaa" stroke-opacity="0.5" stroke-width="0.5"></path><path d="M209.8155 166.0191L116.1478 152.899" fill="none" stroke="#aaa" stroke-opacity="0.5" stroke-width="0.5"></path><path d="M292.8743 66.4113L283.9502 189.9555" fill="none" stroke="#aaa" stroke-opacity="0.5" stroke-width="0.5"></path><path d="M209.8155 166.0191L283.9502 189.9555" fill="none" stroke="#aaa" stroke-opacity="0.5" stroke-width="0.5"></path><path d="M251.5821 212.9222L255.5284 37.5194" fill="none" stroke="#aaa" stroke-opacity="0.5" stroke-width="0.5"></path><path d="M255.5284 37.5194L308.0376 109.8288" fill="none" stroke="#aaa" stroke-opacity="0.5" stroke-width="0.5"></path><path d="M214.3246 28.1379L160.4702 92.5211" fill="none" stroke="#aaa" stroke-opacity="0.5" stroke-width="0.5"></path><path d="M214.3246 28.1379L305.6127 153.4608" fill="none" stroke="#aaa" stroke-opacity="0.5" stroke-width="0.5"></path><path d="M139.9927 189.6453L308.0376 109.8288" fill="none" stroke="#aaa" stroke-opacity="0.5" stroke-width="0.5"></path><path d="M211.2259 222.0996L173.036 34.166" fill="none" stroke="#aaa" stroke-opacity="0.5" stroke-width="0.5"></path><path d="M172.3067 213.7218L113.8178 107.2943" fill="none" stroke="#aaa" stroke-opacity="0.5" stroke-width="0.5"></path><path d="M164.4035 143.4997L132.0197 60.0095" fill="none" stroke="#aaa" stroke-opacity="0.5" stroke-width="0.5"></path><path d="M164.4035 143.4997L160.4702 92.5211" fill="none" stroke="#aaa" stroke-opacity="0.5" stroke-width="0.5"></path><path d="M255.5284 37.5194L139.9927 189.6453" fill="none" stroke="#aaa" stroke-opacity="0.5" stroke-width="0.5"></path><path d="M255.5284 37.5194L116.1478 152.899" fill="none" stroke="#aaa" stroke-opacity="0.5" stroke-width="0.5"></path><path d="M251.5821 212.9222L132.0197 60.0095" fill="none" stroke="#aaa" stroke-opacity="0.5" stroke-width="0.5"></path><path d="M255.5284 37.5194L283.9502 189.9555" fill="none" stroke="#aaa" stroke-opacity="0.5" stroke-width="0.5"></path><path d="M172.3067 213.7218L253.4215 143.9379" fill="none" stroke="#aaa" stroke-opacity="0.5" stroke-width="0.5"></path><path d="M305.6127 153.4608L139.9927 189.6453" fill="none" stroke="#aaa" stroke-opacity="0.5" stroke-width="0.5"></path><path d="M305.6127 153.4608L116.1478 152.899" fill="none" stroke="#aaa" stroke-opacity="0.5" stroke-width="0.5"></path><path d="M139.9927 189.6453L116.1478 152.899" fill="none" stroke="#aaa" stroke-opacity="0.5" stroke-width="0.5"></path><path d="M305.6127 153.4608L283.9502 189.9555" fill="none" stroke="#aaa" stroke-opacity="0.5" stroke-width="0.5"></path><path d="M208.1699 85.0605L132.0197 60.0095" fill="none" stroke="#aaa" stroke-opacity="0.5" stroke-width="0.5"></path><path d="M292.8743 66.4113L132.0197 60.0095" fill="none" stroke="#aaa" stroke-opacity="0.5" stroke-width="0.5"></path><path d="M209.8155 166.0191L132.0197 60.0095" fill="none" stroke="#aaa" stroke-opacity="0.5" stroke-width="0.5"></path><path d="M292.8743 66.4113L160.4702 92.5211" fill="none" stroke="#aaa" stroke-opacity="0.5" stroke-width="0.5"></path><path d="M209.8155 166.0191L160.4702 92.5211" fill="none" stroke="#aaa" stroke-opacity="0.5" stroke-width="0.5"></path><path d="M214.3246 28.1379L211.2259 222.0996" fill="none" stroke="#aaa" stroke-opacity="0.5" stroke-width="0.5"></path><path d="M172.3067 213.7218L308.0376 109.8288" fill="none" stroke="#aaa" stroke-opacity="0.5" stroke-width="0.5"></path><path d="M253.4215 143.9379L308.0376 109.8288" fill="none" stroke="#aaa" stroke-opacity="0.5" stroke-width="0.5"></path><path d="M255.7805 90.8903L211.2259 222.0996" fill="none" stroke="#aaa" stroke-opacity="0.5" stroke-width="0.5"></path><path d="M255.5284 37.5194L132.0197 60.0095" fill="none" stroke="#aaa" stroke-opacity="0.5" stroke-width="0.5"></path><path d="M214.3246 28.1379L255.7805 90.8903" fill="none" stroke="#aaa" stroke-opacity="0.5" stroke-width="0.5"></path><path d="M305.6127 153.4608L132.0197 60.0095" fill="none" stroke="#aaa" stroke-opacity="0.5" stroke-width="0.5"></path><path d="M172.3067 213.7218L139.9927 189.6453" fill="none" stroke="#aaa" stroke-opacity="0.5" stroke-width="0.5"></path><path d="M139.9927 189.6453L132.0197 60.0095" fill="none" stroke="#aaa" stroke-opacity="0.5" stroke-width="0.5"></path><path d="M172.3067 213.7218L116.1478 152.899" fill="none" stroke="#aaa" stroke-opacity="0.5" stroke-width="0.5"></path><path d="M283.9502 189.9555L160.4702 92.5211" fill="none" stroke="#aaa" stroke-opacity="0.5" stroke-width="0.5"></path><path d="M308.0376 109.8288L113.8178 107.2943" fill="none" stroke="#aaa" stroke-opacity="0.5" stroke-width="0.5"></path><path d="M172.3067 213.7218L283.9502 189.9555" fill="none" stroke="#aaa" stroke-opacity="0.5" stroke-width="0.5"></path><path d="M251.5821 212.9222L173.036 34.166" fill="none" stroke="#aaa" stroke-opacity="0.5" stroke-width="0.5"></path><path d="M208.1699 85.0605L173.036 34.166" fill="none" stroke="#aaa" stroke-opacity="0.5" stroke-width="0.5"></path><path d="M173.036 34.166L160.4702 92.5211" fill="none" stroke="#aaa" stroke-opacity="0.5" stroke-width="0.5"></path><path d="M255.7805 90.8903L173.036 34.166" fill="none" stroke="#aaa" stroke-opacity="0.5" stroke-width="0.5"></path><path d="M113.8178 107.2943L160.4702 92.5211" fill="none" stroke="#aaa" stroke-opacity="0.5" stroke-width="0.5"></path><path d="M132.0197 60.0095L116.1478 152.899" fill="none" stroke="#aaa" stroke-opacity="0.5" stroke-width="0.5"></path><path d="M214.3246 28.1379L113.8178 107.2943" fill="none" stroke="#aaa" stroke-opacity="0.5" stroke-width="0.5"></path><path d="M283.9502 189.9555L211.2259 222.0996" fill="none" stroke="#aaa" stroke-opacity="0.5" stroke-width="0.5"></path><path d="M172.3067 213.7218L132.0197 60.0095" fill="none" stroke="#aaa" stroke-opacity="0.5" stroke-width="0.5"></path><path d="M214.3246 28.1379L253.4215 143.9379" fill="none" stroke="#aaa" stroke-opacity="0.5" stroke-width="0.5"></path><path d="M255.5284 37.5194L173.036 34.166" fill="none" stroke="#aaa" stroke-opacity="0.5" stroke-width="0.5"></path><path d="M214.3246 28.1379L209.8155 166.0191" fill="none" stroke="#aaa" stroke-opacity="0.5" stroke-width="0.5"></path><path d="M308.0376 109.8288L116.1478 152.899" fill="none" stroke="#aaa" stroke-opacity="0.5" stroke-width="0.5"></path><path d="M255.7805 90.8903L113.8178 107.2943" fill="none" stroke="#aaa" stroke-opacity="0.5" stroke-width="0.5"></path><path d="M305.6127 153.4608L173.036 34.166" fill="none" stroke="#aaa" stroke-opacity="0.5" stroke-width="0.5"></path><path d="M139.9927 189.6453L173.036 34.166" fill="none" stroke="#aaa" stroke-opacity="0.5" stroke-width="0.5"></path><path d="M211.2259 222.0996L160.4702 92.5211" fill="none" stroke="#aaa" stroke-opacity="0.5" stroke-width="0.5"></path><path d="M255.7805 90.8903L253.4215 143.9379" fill="none" stroke="#aaa" stroke-opacity="0.5" stroke-width="0.5"></path><path d="M292.8743 66.4113L113.8178 107.2943" fill="none" stroke="#aaa" stroke-opacity="0.5" stroke-width="0.5"></path><path d="M214.3246 28.1379L308.0376 109.8288" fill="none" stroke="#aaa" stroke-opacity="0.5" stroke-width="0.5"></path><path d="M132.0197 60.0095L160.4702 92.5211" fill="none" stroke="#aaa" stroke-opacity="0.5" stroke-width="0.5"></path><path d="M164.4035 143.4997L172.3067 213.7218" fill="none" stroke="#aaa" stroke-opacity="0.5" stroke-width="0.5"></path><path d="M251.5821 212.9222L172.3067 213.7218" fill="none" stroke="#aaa" stroke-opacity="0.5" stroke-width="0.5"></path><path d="M164.4035 143.4997L308.0376 109.8288" fill="none" stroke="#aaa" stroke-opacity="0.5" stroke-width="0.5"></path><path d="M214.3246 28.1379L139.9927 189.6453" fill="none" stroke="#aaa" stroke-opacity="0.5" stroke-width="0.5"></path><path d="M214.3246 28.1379L116.1478 152.899" fill="none" stroke="#aaa" stroke-opacity="0.5" stroke-width="0.5"></path><path d="M214.3246 28.1379L283.9502 189.9555" fill="none" stroke="#aaa" stroke-opacity="0.5" stroke-width="0.5"></path><path d="M208.1699 85.0605L172.3067 213.7218" fill="none" stroke="#aaa" stroke-opacity="0.5" stroke-width="0.5"></path><path d="M308.0376 109.8288L132.0197 60.0095" fill="none" stroke="#aaa" stroke-opacity="0.5" stroke-width="0.5"></path><path d="M251.5821 212.9222L214.3246 28.1379" fill="none" stroke="#aaa" stroke-opacity="0.5" stroke-width="0.5"></path><path d="M172.3067 213.7218L173.036 34.166" fill="none" stroke="#aaa" stroke-opacity="0.5" stroke-width="0.5"></path><path d="M292.8743 66.4113L172.3067 213.7218" fill="none" stroke="#aaa" stroke-opacity="0.5" stroke-width="0.5"></path><path d="M209.8155 166.0191L172.3067 213.7218" fill="none" stroke="#aaa" stroke-opacity="0.5" stroke-width="0.5"></path><path d="M208.1699 85.0605L308.0376 109.8288" fill="none" stroke="#aaa" stroke-opacity="0.5" stroke-width="0.5"></path><path d="M283.9502 189.9555L113.8178 107.2943" fill="none" stroke="#aaa" stroke-opacity="0.5" stroke-width="0.5"></path><path d="M214.3246 28.1379L292.8743 66.4113" fill="none" stroke="#aaa" stroke-opacity="0.5" stroke-width="0.5"></path><path d="M292.8743 66.4113L308.0376 109.8288" fill="none" stroke="#aaa" stroke-opacity="0.5" stroke-width="0.5"></path><path d="M209.8155 166.0191L308.0376 109.8288" fill="none" stroke="#aaa" stroke-opacity="0.5" stroke-width="0.5"></path><path d="M255.7805 90.8903L139.9927 189.6453" fill="none" stroke="#aaa" stroke-opacity="0.5" stroke-width="0.5"></path><path d="M255.7805 90.8903L116.1478 152.899" fill="none" stroke="#aaa" stroke-opacity="0.5" stroke-width="0.5"></path><path d="M255.7805 90.8903L283.9502 189.9555" fill="none" stroke="#aaa" stroke-opacity="0.5" stroke-width="0.5"></path><path d="M214.3246 28.1379L255.5284 37.5194" fill="none" stroke="#aaa" stroke-opacity="0.5" stroke-width="0.5"></path><path d="M255.5284 37.5194L208.1699 85.0605" fill="none" stroke="#aaa" stroke-opacity="0.5" stroke-width="0.5"></path><path d="M283.9502 189.9555L253.4215 143.9379" fill="none" stroke="#aaa" stroke-opacity="0.5" stroke-width="0.5"></path><path d="M164.4035 143.4997L292.8743 66.4113" fill="none" stroke="#aaa" stroke-opacity="0.5" stroke-width="0.5"></path><path d="M251.5821 212.9222L292.8743 66.4113" fill="none" stroke="#aaa" stroke-opacity="0.5" stroke-width="0.5"></path><path d="M255.5284 37.5194L172.3067 213.7218" fill="none" stroke="#aaa" stroke-opacity="0.5" stroke-width="0.5"></path><path d="M164.4035 143.4997L255.5284 37.5194" fill="none" stroke="#aaa" stroke-opacity="0.5" stroke-width="0.5"></path><path d="M173.036 34.166L113.8178 107.2943" fill="none" stroke="#aaa" stroke-opacity="0.5" stroke-width="0.5"></path><path d="M164.4035 143.4997L305.6127 153.4608" fill="none" stroke="#aaa" stroke-opacity="0.5" stroke-width="0.5"></path><path d="M253.4215 143.9379L113.8178 107.2943" fill="none" stroke="#aaa" stroke-opacity="0.5" stroke-width="0.5"></path><path d="M214.3246 28.1379L132.0197 60.0095" fill="none" stroke="#aaa" stroke-opacity="0.5" stroke-width="0.5"></path><path d="M305.6127 153.4608L172.3067 213.7218" fill="none" stroke="#aaa" stroke-opacity="0.5" stroke-width="0.5"></path><path d="M251.5821 212.9222L160.4702 92.5211" fill="none" stroke="#aaa" stroke-opacity="0.5" stroke-width="0.5"></path><path d="M251.5821 212.9222L305.6127 153.4608" fill="none" stroke="#aaa" stroke-opacity="0.5" stroke-width="0.5"></path><path d="M305.6127 153.4608L308.0376 109.8288" fill="none" stroke="#aaa" stroke-opacity="0.5" stroke-width="0.5"></path><path d="M173.036 34.166L253.4215 143.9379" fill="none" stroke="#aaa" stroke-opacity="0.5" stroke-width="0.5"></path><path d="M283.9502 189.9555L308.0376 109.8288" fill="none" stroke="#aaa" stroke-opacity="0.5" stroke-width="0.5"></path><path d="M208.1699 85.0605L160.4702 92.5211" fill="none" stroke="#aaa" stroke-opacity="0.5" stroke-width="0.5"></path><path d="M208.1699 85.0605L305.6127 153.4608" fill="none" stroke="#aaa" stroke-opacity="0.5" stroke-width="0.5"></path><path d="M292.8743 66.4113L255.5284 37.5194" fill="none" stroke="#aaa" stroke-opacity="0.5" stroke-width="0.5"></path><path d="M292.8743 66.4113L305.6127 153.4608" fill="none" stroke="#aaa" stroke-opacity="0.5" stroke-width="0.5"></path><path d="M255.7805 90.8903L132.0197 60.0095" fill="none" stroke="#aaa" stroke-opacity="0.5" stroke-width="0.5"></path><path d="M209.8155 166.0191L305.6127 153.4608" fill="none" stroke="#aaa" stroke-opacity="0.5" stroke-width="0.5"></path><path d="M255.7805 90.8903L160.4702 92.5211" fill="none" stroke="#aaa" stroke-opacity="0.5" stroke-width="0.5"></path><path d="M283.9502 189.9555L139.9927 189.6453" fill="none" stroke="#aaa" stroke-opacity="0.5" stroke-width="0.5"></path><path d="M283.9502 189.9555L116.1478 152.899" fill="none" stroke="#aaa" stroke-opacity="0.5" stroke-width="0.5"></path><path d="M164.4035 143.4997L251.5821 212.9222" fill="none" stroke="#aaa" stroke-opacity="0.5" stroke-width="0.5"></path><path d="M173.036 34.166L308.0376 109.8288" fill="none" stroke="#aaa" stroke-opacity="0.5" stroke-width="0.5"></path><path d="M164.4035 143.4997L211.2259 222.0996" fill="none" stroke="#aaa" stroke-opacity="0.5" stroke-width="0.5"></path><path d="M211.2259 222.0996L113.8178 107.2943" fill="none" stroke="#aaa" stroke-opacity="0.5" stroke-width="0.5"></path><path d="M251.5821 212.9222L211.2259 222.0996" fill="none" stroke="#aaa" stroke-opacity="0.5" stroke-width="0.5"></path><path d="M255.5284 37.5194L160.4702 92.5211" fill="none" stroke="#aaa" stroke-opacity="0.5" stroke-width="0.5"></path><path d="M255.5284 37.5194L305.6127 153.4608" fill="none" stroke="#aaa" stroke-opacity="0.5" stroke-width="0.5"></path><path d="M1 0A1 1 0 1 1 1 -0.0001" fill="#5470c6" transform="matrix(18,0,0,18,253.4215,143.9379)"></path><path d="M1 0A1 1 0 1 1 1 -0.0001" fill="#5470c6" transform="matrix(18,0,0,18,305.6127,153.4608)"></path><path d="M1 0A1 1 0 1 1 1 -0.0001" fill="#5470c6" transform="matrix(18,0,0,18,283.9502,189.9555)"></path><path d="M1 0A1 1 0 1 1 1 -0.0001" fill="#5470c6" transform="matrix(18,0,0,18,209.8155,166.0191)"></path><path d="M1 0A1 1 0 1 1 1 -0.0001" fill="#5470c6" transform="matrix(18,0,0,18,251.5821,212.9222)"></path><path d="M1 0A1 1 0 1 1 1 -0.0001" fill="#5470c6" transform="matrix(18,0,0,18,211.2259,222.0996)"></path><path d="M1 0A1 1 0 1 1 1 -0.0001" fill="#5470c6" transform="matrix(18,0,0,18,172.3067,213.7218)"></path><path d="M1 0A1 1 0 1 1 1 -0.0001" fill="#5470c6" transform="matrix(18,0,0,18,164.4035,143.4997)"></path><path d="M1 0A1 1 0 1 1 1 -0.0001" fill="#5470c6" transform="matrix(18,0,0,18,139.9927,189.6453)"></path><path d="M1 0A1 1 0 1 1 1 -0.0001" fill="#5470c6" transform="matrix(18,0,0,18,160.4702,92.5211)"></path><path d="M1 0A1 1 0 1 1 1 -0.0001" fill="#5470c6" transform="matrix(18,0,0,18,116.1478,152.899)"></path><path d="M1 0A1 1 0 1 1 1 -0.0001" fill="#5470c6" transform="matrix(18,0,0,18,113.8178,107.2943)"></path><path d="M1 0A1 1 0 1 1 1 -0.0001" fill="#5470c6" transform="matrix(18,0,0,18,132.0197,60.0095)"></path><path d="M1 0A1 1 0 1 1 1 -0.0001" fill="#5470c6" transform="matrix(18,0,0,18,173.036,34.166)"></path><path d="M1 0A1 1 0 1 1 1 -0.0001" fill="#5470c6" transform="matrix(18,0,0,18,208.1699,85.0605)"></path><path d="M1 0A1 1 0 1 1 1 -0.0001" fill="#5470c6" transform="matrix(18,0,0,18,214.3246,28.1379)"></path><path d="M1 0A1 1 0 1 1 1 -0.0001" fill="#5470c6" transform="matrix(18,0,0,18,255.5284,37.5194)"></path><path d="M1 0A1 1 0 1 1 1 -0.0001" fill="#5470c6" transform="matrix(18,0,0,18,255.7805,90.8903)"></path><path d="M1 0A1 1 0 1 1 1 -0.0001" fill="#5470c6" transform="matrix(18,0,0,18,292.8743,66.4113)"></path><path d="M1 0A1 1 0 1 1 1 -0.0001" fill="#5470c6" transform="matrix(18,0,0,18,308.0376,109.8288)"></path><path d="M-25.1792 -5l50.3584 0l0 32l-50.3584 0Z" fill="rgb(0,0,0)" fill-opacity="0" stroke="#ccc" stroke-width="0" transform="translate(237.5 5)"></path><text dominant-baseline="central" fill="#333" style="font-size:22px;font-family:sans-serif;font-weight:bolder;" text-anchor="middle" transform="translate(237.5 5)" y="11">C70</text></g></svg>