<svg baseprofile="full" height="250" style="position:absolute;left:0;top:0;user-select:none" version="1.1" width="475" xmlns="http://www.w3.org/2000/svg" xmlns:xlink="http://www.w3.org/1999/xlink"><rect fill="none" height="250" id="0" width="475" x="0" y="0"></rect><g><path d="M242.2533 220.6249L291.8561 185.8139" fill="none" stroke="#aaa" stroke-opacity="0.5"></path><path d="M242.502 125.594L129.5948 188.7951" fill="none" stroke="#aaa" stroke-opacity="0.5"></path><path d="M239.8272 28.4763L183.4917 220.7508" fill="none" stroke="#aaa" stroke-opacity="0.5"></path><path d="M130.239 62.1168L183.4917 220.7508" fill="none" stroke="#aaa" stroke-opacity="0.5"></path><path d="M289.8314 61.2404L239.8272 28.4763" fill="none" stroke="#aaa" stroke-opacity="0.5"></path><path d="M242.502 125.594L130.239 62.1168" fill="none" stroke="#aaa" stroke-opacity="0.5"></path><path d="M289.8314 61.2404L129.5948 188.7951" fill="none" stroke="#aaa" stroke-opacity="0.5"></path><path d="M178.1185 127.7909L315.7389 122.4812" fill="none" stroke="#aaa" stroke-opacity="0.5"></path><path d="M107.978 125.0939L129.5948 188.7951" fill="none" stroke="#aaa" stroke-opacity="0.5"></path><path d="M130.239 62.1168L289.8314 61.2404" fill="none" stroke="#aaa" stroke-opacity="0.5"></path><path d="M242.2533 220.6249L183.4917 220.7508" fill="none" stroke="#aaa" stroke-opacity="0.5"></path><path d="M130.239 62.1168L239.8272 28.4763" fill="none" stroke="#aaa" stroke-opacity="0.5"></path><path d="M239.8272 28.4763L182.0796 31.222" fill="none" stroke="#aaa" stroke-opacity="0.5"></path><path d="M239.8272 28.4763L129.5948 188.7951" fill="none" stroke="#aaa" stroke-opacity="0.5"></path><path d="M130.239 62.1168L129.5948 188.7951" fill="none" stroke="#aaa" stroke-opacity="0.5"></path><path d="M315.7389 122.4812L182.0796 31.222" fill="none" stroke="#aaa" stroke-opacity="0.5"></path><path d="M242.2533 220.6249L289.8314 61.2404" fill="none" stroke="#aaa" stroke-opacity="0.5"></path><path d="M178.1185 127.7909L242.502 125.594" fill="none" stroke="#aaa" stroke-opacity="0.5"></path><path d="M183.4917 220.7508L107.978 125.0939" fill="none" stroke="#aaa" stroke-opacity="0.5"></path><path d="M315.7389 122.4812L129.5948 188.7951" fill="none" stroke="#aaa" stroke-opacity="0.5"></path><path d="M183.4917 220.7508L291.8561 185.8139" fill="none" stroke="#aaa" stroke-opacity="0.5"></path><path d="M178.1185 127.7909L289.8314 61.2404" fill="none" stroke="#aaa" stroke-opacity="0.5"></path><path d="M242.2533 220.6249L239.8272 28.4763" fill="none" stroke="#aaa" stroke-opacity="0.5"></path><path d="M182.0796 31.222L129.5948 188.7951" fill="none" stroke="#aaa" stroke-opacity="0.5"></path><path d="M242.2533 220.6249L129.5948 188.7951" fill="none" stroke="#aaa" stroke-opacity="0.5"></path><path d="M242.502 125.594L182.0796 31.222" fill="none" stroke="#aaa" stroke-opacity="0.5"></path><path d="M242.2533 220.6249L178.1185 127.7909" fill="none" stroke="#aaa" stroke-opacity="0.5"></path><path d="M178.1185 127.7909L107.978 125.0939" fill="none" stroke="#aaa" stroke-opacity="0.5"></path><path d="M242.2533 220.6249L130.239 62.1168" fill="none" stroke="#aaa" stroke-opacity="0.5"></path><path d="M178.1185 127.7909L291.8561 185.8139" fill="none" stroke="#aaa" stroke-opacity="0.5"></path><path d="M242.502 125.594L107.978 125.0939" fill="none" stroke="#aaa" stroke-opacity="0.5"></path><path d="M178.1185 127.7909L130.239 62.1168" fill="none" stroke="#aaa" stroke-opacity="0.5"></path><path d="M242.502 125.594L291.8561 185.8139" fill="none" stroke="#aaa" stroke-opacity="0.5"></path><path d="M289.8314 61.2404L182.0796 31.222" fill="none" stroke="#aaa" stroke-opacity="0.5"></path><path d="M242.2533 220.6249L315.7389 122.4812" fill="none" stroke="#aaa" stroke-opacity="0.5"></path><path d="M291.8561 185.8139L129.5948 188.7951" fill="none" stroke="#aaa" stroke-opacity="0.5"></path><path d="M315.7389 122.4812L183.4917 220.7508" fill="none" stroke="#aaa" stroke-opacity="0.5"></path><path d="M315.7389 122.4812L242.502 125.594" fill="none" stroke="#aaa" stroke-opacity="0.5"></path><path d="M289.8314 61.2404L107.978 125.0939" fill="none" stroke="#aaa" stroke-opacity="0.5"></path><path d="M289.8314 61.2404L291.8561 185.8139" fill="none" stroke="#aaa" stroke-opacity="0.5"></path><path d="M178.1185 127.7909L183.4917 220.7508" fill="none" stroke="#aaa" stroke-opacity="0.5"></path><path d="M183.4917 220.7508L182.0796 31.222" fill="none" stroke="#aaa" stroke-opacity="0.5"></path><path d="M107.978 125.0939L291.8561 185.8139" fill="none" stroke="#aaa" stroke-opacity="0.5"></path><path d="M315.7389 122.4812L289.8314 61.2404" fill="none" stroke="#aaa" stroke-opacity="0.5"></path><path d="M183.4917 220.7508L129.5948 188.7951" fill="none" stroke="#aaa" stroke-opacity="0.5"></path><path d="M130.239 62.1168L182.0796 31.222" fill="none" stroke="#aaa" stroke-opacity="0.5"></path><path d="M242.502 125.594L183.4917 220.7508" fill="none" stroke="#aaa" stroke-opacity="0.5"></path><path d="M242.5 220.6249L242.5 125.594" fill="none" stroke="#aaa" stroke-opacity="0.5"></path><path d="M315.7389 122.4812L239.8272 28.4763" fill="none" stroke="#aaa" stroke-opacity="0.5"></path><path d="M239.8272 28.4763L107.978 125.0939" fill="none" stroke="#aaa" stroke-opacity="0.5"></path><path d="M130.239 62.1168L107.978 125.0939" fill="none" stroke="#aaa" stroke-opacity="0.5"></path><path d="M242.2533 220.6249L182.0796 31.222" fill="none" stroke="#aaa" stroke-opacity="0.5"></path><path d="M239.8272 28.4763L291.8561 185.8139" fill="none" stroke="#aaa" stroke-opacity="0.5"></path><path d="M130.239 62.1168L291.8561 185.8139" fill="none" stroke="#aaa" stroke-opacity="0.5"></path><path d="M315.7389 122.4812L107.978 125.0939" fill="none" stroke="#aaa" stroke-opacity="0.5"></path><path d="M178.1185 127.7909L239.8272 28.4763" fill="none" stroke="#aaa" stroke-opacity="0.5"></path><path d="M242.502 125.594L289.8314 61.2404" fill="none" stroke="#aaa" stroke-opacity="0.5"></path><path d="M315.7389 122.4812L291.8561 185.8139" fill="none" stroke="#aaa" stroke-opacity="0.5"></path><path d="M178.1185 127.7909L182.0796 31.222" fill="none" stroke="#aaa" stroke-opacity="0.5"></path><path d="M289.8314 61.2404L183.4917 220.7508" fill="none" stroke="#aaa" stroke-opacity="0.5"></path><path d="M182.0796 31.222L107.978 125.0939" fill="none" stroke="#aaa" stroke-opacity="0.5"></path><path d="M178.1185 127.7909L129.5948 188.7951" fill="none" stroke="#aaa" stroke-opacity="0.5"></path><path d="M242.502 125.594L239.8272 28.4763" fill="none" stroke="#aaa" stroke-opacity="0.5"></path><path d="M182.0796 31.222L291.8561 185.8139" fill="none" stroke="#aaa" stroke-opacity="0.5"></path><path d="M315.7389 122.4812L130.239 62.1168" fill="none" stroke="#aaa" stroke-opacity="0.5"></path><path d="M242.2533 220.6249L107.978 125.0939" fill="none" stroke="#aaa" stroke-opacity="0.5"></path><path d="M1 0A1 1 0 1 1 1 -0.0001" fill="#5470c6" transform="matrix(18.5,0,0,18.5,242.502,125.594)"></path><path d="M1 0A1 1 0 1 1 1 -0.0001" fill="#5470c6" transform="matrix(18.5,0,0,18.5,291.8561,185.8139)"></path><path d="M1 0A1 1 0 1 1 1 -0.0001" fill="#5470c6" transform="matrix(18.5,0,0,18.5,242.2533,220.6249)"></path><path d="M1 0A1 1 0 1 1 1 -0.0001" fill="#5470c6" transform="matrix(18.5,0,0,18.5,183.4917,220.7508)"></path><path d="M1 0A1 1 0 1 1 1 -0.0001" fill="#5470c6" transform="matrix(18.5,0,0,18.5,129.5948,188.7951)"></path><path d="M1 0A1 1 0 1 1 1 -0.0001" fill="#5470c6" transform="matrix(18.5,0,0,18.5,178.1185,127.7909)"></path><path d="M1 0A1 1 0 1 1 1 -0.0001" fill="#5470c6" transform="matrix(18.5,0,0,18.5,107.978,125.0939)"></path><path d="M1 0A1 1 0 1 1 1 -0.0001" fill="#5470c6" transform="matrix(18.5,0,0,18.5,130.239,62.1168)"></path><path d="M1 0A1 1 0 1 1 1 -0.0001" fill="#5470c6" transform="matrix(18.5,0,0,18.5,182.0796,31.222)"></path><path d="M1 0A1 1 0 1 1 1 -0.0001" fill="#5470c6" transform="matrix(18.5,0,0,18.5,239.8272,28.4763)"></path><path d="M1 0A1 1 0 1 1 1 -0.0001" fill="#5470c6" transform="matrix(18.5,0,0,18.5,289.8314,61.2404)"></path><path d="M1 0A1 1 0 1 1 1 -0.0001" fill="#5470c6" transform="matrix(18.5,0,0,18.5,315.7389,122.4812)"></path><path d="M-26.0964 -5l52.1929 0l0 33l-52.1929 0Z" fill="rgb(0,0,0)" fill-opacity="0" stroke="#ccc" stroke-width="0" transform="translate(237.5 5)"></path><text dominant-baseline="central" fill="#333" style="font-size:23px;font-family:sans-serif;font-weight:bolder;" text-anchor="middle" transform="translate(237.5 5)" y="11.5">C71</text></g></svg>