<svg baseprofile="full" height="250" style="position:absolute;left:0;top:0;user-select:none" version="1.1" width="475" xmlns="http://www.w3.org/2000/svg" xmlns:xlink="http://www.w3.org/1999/xlink"><rect fill="none" height="250" id="0" width="475" x="0" y="0"></rect><g><path d="M204.1736 231.5417L133.3575 197.1639" fill="none" stroke="#aaa" stroke-opacity="0.5"></path><path d="M195.7658 157.1148L309.1885 152.0547" fill="none" stroke="#aaa" stroke-opacity="0.5"></path><path d="M233.0554 96.7208L307.3319 81.2845" fill="none" stroke="#aaa" stroke-opacity="0.5"></path><path d="M128.0842 68.6134L251.0642 25.7584" fill="none" stroke="#aaa" stroke-opacity="0.5"></path><path d="M307.3319 81.2845L272.5312 206.4329" fill="none" stroke="#aaa" stroke-opacity="0.5"></path><path d="M178.3962 27.993L309.1885 152.0547" fill="none" stroke="#aaa" stroke-opacity="0.5"></path><path d="M178.3962 27.993L109.4361 130.3219" fill="none" stroke="#aaa" stroke-opacity="0.5"></path><path d="M128.0842 68.6134L195.7658 157.1148" fill="none" stroke="#aaa" stroke-opacity="0.5"></path><path d="M233.0554 96.7208L309.1885 152.0547" fill="none" stroke="#aaa" stroke-opacity="0.5"></path><path d="M204.1736 231.5417L178.3962 27.993" fill="none" stroke="#aaa" stroke-opacity="0.5"></path><path d="M204.1736 231.5417L251.0642 25.7584" fill="none" stroke="#aaa" stroke-opacity="0.5"></path><path d="M178.3962 27.993L133.3575 197.1639" fill="none" stroke="#aaa" stroke-opacity="0.5"></path><path d="M307.3319 81.2845L109.4361 130.3219" fill="none" stroke="#aaa" stroke-opacity="0.5"></path><path d="M128.0842 68.6134L204.1736 231.5417" fill="none" stroke="#aaa" stroke-opacity="0.5"></path><path d="M133.3575 197.1639L109.4361 130.3219" fill="none" stroke="#aaa" stroke-opacity="0.5"></path><path d="M307.3319 81.2845L133.3575 197.1639" fill="none" stroke="#aaa" stroke-opacity="0.5"></path><path d="M128.0842 68.6134L307.3319 81.2845" fill="none" stroke="#aaa" stroke-opacity="0.5"></path><path d="M251.0642 25.7584L309.1885 152.0547" fill="none" stroke="#aaa" stroke-opacity="0.5"></path><path d="M178.3962 27.993L251.0642 25.7584" fill="none" stroke="#aaa" stroke-opacity="0.5"></path><path d="M233.0554 96.7208L178.3962 27.993" fill="none" stroke="#aaa" stroke-opacity="0.5"></path><path d="M128.0842 68.6134L309.1885 152.0547" fill="none" stroke="#aaa" stroke-opacity="0.5"></path><path d="M204.1736 231.5417L307.3319 81.2845" fill="none" stroke="#aaa" stroke-opacity="0.5"></path><path d="M109.4361 130.3219L251.0642 25.7584" fill="none" stroke="#aaa" stroke-opacity="0.5"></path><path d="M307.3319 81.2845L251.0642 25.7584" fill="none" stroke="#aaa" stroke-opacity="0.5"></path><path d="M133.3575 197.1639L251.0642 25.7584" fill="none" stroke="#aaa" stroke-opacity="0.5"></path><path d="M195.7658 157.1148L272.5312 206.4329" fill="none" stroke="#aaa" stroke-opacity="0.5"></path><path d="M128.0842 68.6134L178.3962 27.993" fill="none" stroke="#aaa" stroke-opacity="0.5"></path><path d="M195.7658 157.1148L109.4361 130.3219" fill="none" stroke="#aaa" stroke-opacity="0.5"></path><path d="M233.0554 96.7208L272.5312 206.4329" fill="none" stroke="#aaa" stroke-opacity="0.5"></path><path d="M195.7658 157.1148L233.0554 96.7208" fill="none" stroke="#aaa" stroke-opacity="0.5"></path><path d="M195.7658 157.1148L133.3575 197.1639" fill="none" stroke="#aaa" stroke-opacity="0.5"></path><path d="M272.5312 206.4329L309.1885 152.0547" fill="none" stroke="#aaa" stroke-opacity="0.5"></path><path d="M109.4361 130.3219L309.1885 152.0547" fill="none" stroke="#aaa" stroke-opacity="0.5"></path><path d="M272.5312 206.4329L109.4361 130.3219" fill="none" stroke="#aaa" stroke-opacity="0.5"></path><path d="M307.3319 81.2845L309.1885 152.0547" fill="none" stroke="#aaa" stroke-opacity="0.5"></path><path d="M233.0554 96.7208L109.4361 130.3219" fill="none" stroke="#aaa" stroke-opacity="0.5"></path><path d="M272.5312 206.4329L133.3575 197.1639" fill="none" stroke="#aaa" stroke-opacity="0.5"></path><path d="M133.3575 197.1639L309.1885 152.0547" fill="none" stroke="#aaa" stroke-opacity="0.5"></path><path d="M233.0554 96.7208L133.3575 197.1639" fill="none" stroke="#aaa" stroke-opacity="0.5"></path><path d="M195.7658 157.1148L178.3962 27.993" fill="none" stroke="#aaa" stroke-opacity="0.5"></path><path d="M195.7658 157.1148L251.0642 25.7584" fill="none" stroke="#aaa" stroke-opacity="0.5"></path><path d="M128.0842 68.6134L272.5312 206.4329" fill="none" stroke="#aaa" stroke-opacity="0.5"></path><path d="M272.5312 206.4329L178.3962 27.993" fill="none" stroke="#aaa" stroke-opacity="0.5"></path><path d="M272.5312 206.4329L251.0642 25.7584" fill="none" stroke="#aaa" stroke-opacity="0.5"></path><path d="M307.3319 81.2845L178.3962 27.993" fill="none" stroke="#aaa" stroke-opacity="0.5"></path><path d="M233.0554 96.7208L251.0642 25.7584" fill="none" stroke="#aaa" stroke-opacity="0.5"></path><path d="M195.7658 157.1148L204.1736 231.5417" fill="none" stroke="#aaa" stroke-opacity="0.5"></path><path d="M204.1736 231.5417L272.5312 206.4329" fill="none" stroke="#aaa" stroke-opacity="0.5"></path><path d="M128.0842 68.6134L109.4361 130.3219" fill="none" stroke="#aaa" stroke-opacity="0.5"></path><path d="M128.0842 68.6134L233.0554 96.7208" fill="none" stroke="#aaa" stroke-opacity="0.5"></path><path d="M128.0842 68.6134L133.3575 197.1639" fill="none" stroke="#aaa" stroke-opacity="0.5"></path><path d="M204.1736 231.5417L309.1885 152.0547" fill="none" stroke="#aaa" stroke-opacity="0.5"></path><path d="M195.7658 157.1148L307.3319 81.2845" fill="none" stroke="#aaa" stroke-opacity="0.5"></path><path d="M204.1736 231.5417L109.4361 130.3219" fill="none" stroke="#aaa" stroke-opacity="0.5"></path><path d="M233.0554 96.7208L204.1736 231.5417" fill="none" stroke="#aaa" stroke-opacity="0.5"></path><path d="M1 0A1 1 0 1 1 1 -0.0001" fill="#5470c6" transform="matrix(18.5,0,0,18.5,309.1885,152.0547)"></path><path d="M1 0A1 1 0 1 1 1 -0.0001" fill="#5470c6" transform="matrix(18.5,0,0,18.5,272.5312,206.4329)"></path><path d="M1 0A1 1 0 1 1 1 -0.0001" fill="#5470c6" transform="matrix(18.5,0,0,18.5,195.7658,157.1148)"></path><path d="M1 0A1 1 0 1 1 1 -0.0001" fill="#5470c6" transform="matrix(18.5,0,0,18.5,204.1736,231.5417)"></path><path d="M1 0A1 1 0 1 1 1 -0.0001" fill="#5470c6" transform="matrix(18.5,0,0,18.5,133.3575,197.1639)"></path><path d="M1 0A1 1 0 1 1 1 -0.0001" fill="#5470c6" transform="matrix(18.5,0,0,18.5,109.4361,130.3219)"></path><path d="M1 0A1 1 0 1 1 1 -0.0001" fill="#5470c6" transform="matrix(18.5,0,0,18.5,128.0842,68.6134)"></path><path d="M1 0A1 1 0 1 1 1 -0.0001" fill="#5470c6" transform="matrix(18.5,0,0,18.5,178.3962,27.993)"></path><path d="M1 0A1 1 0 1 1 1 -0.0001" fill="#5470c6" transform="matrix(18.5,0,0,18.5,251.0642,25.7584)"></path><path d="M1 0A1 1 0 1 1 1 -0.0001" fill="#5470c6" transform="matrix(18.5,0,0,18.5,233.0554,96.7208)"></path><path d="M1 0A1 1 0 1 1 1 -0.0001" fill="#5470c6" transform="matrix(18.5,0,0,18.5,307.3319,81.2845)"></path><path d="M-26.0964 -5l52.1929 0l0 33l-52.1929 0Z" fill="rgb(0,0,0)" fill-opacity="0" stroke="#ccc" stroke-width="0" transform="translate(237.5 5)"></path><text dominant-baseline="central" fill="#333" style="font-size:23px;font-family:sans-serif;font-weight:bolder;" text-anchor="middle" transform="translate(237.5 5)" y="11.5">C72</text></g></svg>