<svg baseprofile="full" height="250" style="position:absolute;left:0;top:0;user-select:none" version="1.1" width="475" xmlns="http://www.w3.org/2000/svg" xmlns:xlink="http://www.w3.org/1999/xlink"><rect fill="none" height="250" id="0" width="475" x="0" y="0"></rect><g><path d="M175.8137 217.2684L312.2127 126.025" fill="none" stroke="#aaa" stroke-opacity="0.5"></path><path d="M178.9153 32.0207L119.0632 180.6304" fill="none" stroke="#aaa" stroke-opacity="0.5"></path><path d="M237.4486 222.1246L178.9153 32.0207" fill="none" stroke="#aaa" stroke-opacity="0.5"></path><path d="M134.0144 123.3689L178.9153 32.0207" fill="none" stroke="#aaa" stroke-opacity="0.5"></path><path d="M237.4486 222.1246L175.8137 217.2684" fill="none" stroke="#aaa" stroke-opacity="0.5"></path><path d="M175.8137 217.2684L121.4005 66.6537" fill="none" stroke="#aaa" stroke-opacity="0.5"></path><path d="M292.0144 65.3447L240.9089 28.2964" fill="none" stroke="#aaa" stroke-opacity="0.5"></path><path d="M240.9089 28.2964L134.0144 123.3689" fill="none" stroke="#aaa" stroke-opacity="0.5"></path><path d="M292.0144 65.3447L178.9153 32.0207" fill="none" stroke="#aaa" stroke-opacity="0.5"></path><path d="M178.9153 32.0207L175.8137 217.2684" fill="none" stroke="#aaa" stroke-opacity="0.5"></path><path d="M290.7677 187.3325L134.0144 123.3689" fill="none" stroke="#aaa" stroke-opacity="0.5"></path><path d="M119.0632 180.6304L175.8137 217.2684" fill="none" stroke="#aaa" stroke-opacity="0.5"></path><path d="M240.9089 28.2964L119.0632 180.6304" fill="none" stroke="#aaa" stroke-opacity="0.5"></path><path d="M237.4486 222.1246L312.2127 126.025" fill="none" stroke="#aaa" stroke-opacity="0.5"></path><path d="M134.0144 123.3689L312.2127 126.025" fill="none" stroke="#aaa" stroke-opacity="0.5"></path><path d="M290.7677 187.3325L119.0632 180.6304" fill="none" stroke="#aaa" stroke-opacity="0.5"></path><path d="M237.4486 222.1246L290.7677 187.3325" fill="none" stroke="#aaa" stroke-opacity="0.5"></path><path d="M240.9089 28.2964L178.9153 32.0207" fill="none" stroke="#aaa" stroke-opacity="0.5"></path><path d="M119.0632 180.6304L312.2127 126.025" fill="none" stroke="#aaa" stroke-opacity="0.5"></path><path d="M134.0144 123.3689L121.4005 66.6537" fill="none" stroke="#aaa" stroke-opacity="0.5"></path><path d="M290.7677 187.3325L178.9153 32.0207" fill="none" stroke="#aaa" stroke-opacity="0.5"></path><path d="M292.0144 65.3447L312.2127 126.025" fill="none" stroke="#aaa" stroke-opacity="0.5"></path><path d="M219.8252 125.9346L121.4005 66.6537" fill="none" stroke="#aaa" stroke-opacity="0.5"></path><path d="M240.9089 28.2964L175.8137 217.2684" fill="none" stroke="#aaa" stroke-opacity="0.5"></path><path d="M290.7677 187.3325L175.8137 217.2684" fill="none" stroke="#aaa" stroke-opacity="0.5"></path><path d="M237.4486 222.1246L240.9089 28.2964" fill="none" stroke="#aaa" stroke-opacity="0.5"></path><path d="M119.0632 180.6304L121.4005 66.6537" fill="none" stroke="#aaa" stroke-opacity="0.5"></path><path d="M134.0144 123.3689L119.0632 180.6304" fill="none" stroke="#aaa" stroke-opacity="0.5"></path><path d="M292.0144 65.3447L121.4005 66.6537" fill="none" stroke="#aaa" stroke-opacity="0.5"></path><path d="M237.4486 222.1246L219.8252 125.9346" fill="none" stroke="#aaa" stroke-opacity="0.5"></path><path d="M134.0144 123.3689L219.8252 125.9346" fill="none" stroke="#aaa" stroke-opacity="0.5"></path><path d="M240.9089 28.2964L312.2127 126.025" fill="none" stroke="#aaa" stroke-opacity="0.5"></path><path d="M292.0144 65.3447L119.0632 180.6304" fill="none" stroke="#aaa" stroke-opacity="0.5"></path><path d="M178.9153 32.0207L219.8252 125.9346" fill="none" stroke="#aaa" stroke-opacity="0.5"></path><path d="M290.7677 187.3325L312.2127 126.025" fill="none" stroke="#aaa" stroke-opacity="0.5"></path><path d="M134.0144 123.3689L175.8137 217.2684" fill="none" stroke="#aaa" stroke-opacity="0.5"></path><path d="M240.9089 28.2964L290.7677 187.3325" fill="none" stroke="#aaa" stroke-opacity="0.5"></path><path d="M219.8252 125.9346L175.8137 217.2684" fill="none" stroke="#aaa" stroke-opacity="0.5"></path><path d="M119.0632 180.6304L219.8252 125.9346" fill="none" stroke="#aaa" stroke-opacity="0.5"></path><path d="M292.0144 65.3447L219.8252 125.9346" fill="none" stroke="#aaa" stroke-opacity="0.5"></path><path d="M240.9089 28.2964L121.4005 66.6537" fill="none" stroke="#aaa" stroke-opacity="0.5"></path><path d="M290.7677 187.3325L121.4005 66.6537" fill="none" stroke="#aaa" stroke-opacity="0.5"></path><path d="M292.0144 65.3447L175.8137 217.2684" fill="none" stroke="#aaa" stroke-opacity="0.5"></path><path d="M178.9153 32.0207L312.2127 126.025" fill="none" stroke="#aaa" stroke-opacity="0.5"></path><path d="M219.8252 126.5L312.2127 126.5" fill="none" stroke="#aaa" stroke-opacity="0.5"></path><path d="M237.4486 222.1246L134.0144 123.3689" fill="none" stroke="#aaa" stroke-opacity="0.5"></path><path d="M237.4486 222.1246L121.4005 66.6537" fill="none" stroke="#aaa" stroke-opacity="0.5"></path><path d="M240.9089 28.2964L219.8252 125.9346" fill="none" stroke="#aaa" stroke-opacity="0.5"></path><path d="M312.2127 126.025L121.4005 66.6537" fill="none" stroke="#aaa" stroke-opacity="0.5"></path><path d="M290.7677 187.3325L219.8252 125.9346" fill="none" stroke="#aaa" stroke-opacity="0.5"></path><path d="M178.9153 32.0207L121.4005 66.6537" fill="none" stroke="#aaa" stroke-opacity="0.5"></path><path d="M292.0144 65.3447L134.0144 123.3689" fill="none" stroke="#aaa" stroke-opacity="0.5"></path><path d="M237.4486 222.1246L119.0632 180.6304" fill="none" stroke="#aaa" stroke-opacity="0.5"></path><path d="M292.0144 65.3447L290.7677 187.3325" fill="none" stroke="#aaa" stroke-opacity="0.5"></path><path d="M292.0144 65.3447L237.4486 222.1246" fill="none" stroke="#aaa" stroke-opacity="0.5"></path><path d="M1 0A1 1 0 1 1 1 -0.0001" fill="#5470c6" transform="matrix(18.5,0,0,18.5,312.2127,126.025)"></path><path d="M1 0A1 1 0 1 1 1 -0.0001" fill="#5470c6" transform="matrix(18.5,0,0,18.5,290.7677,187.3325)"></path><path d="M1 0A1 1 0 1 1 1 -0.0001" fill="#5470c6" transform="matrix(18.5,0,0,18.5,237.4486,222.1246)"></path><path d="M1 0A1 1 0 1 1 1 -0.0001" fill="#5470c6" transform="matrix(18.5,0,0,18.5,175.8137,217.2684)"></path><path d="M1 0A1 1 0 1 1 1 -0.0001" fill="#5470c6" transform="matrix(18.5,0,0,18.5,119.0632,180.6304)"></path><path d="M1 0A1 1 0 1 1 1 -0.0001" fill="#5470c6" transform="matrix(18.5,0,0,18.5,134.0144,123.3689)"></path><path d="M1 0A1 1 0 1 1 1 -0.0001" fill="#5470c6" transform="matrix(18.5,0,0,18.5,121.4005,66.6537)"></path><path d="M1 0A1 1 0 1 1 1 -0.0001" fill="#5470c6" transform="matrix(18.5,0,0,18.5,178.9153,32.0207)"></path><path d="M1 0A1 1 0 1 1 1 -0.0001" fill="#5470c6" transform="matrix(18.5,0,0,18.5,240.9089,28.2964)"></path><path d="M1 0A1 1 0 1 1 1 -0.0001" fill="#5470c6" transform="matrix(18.5,0,0,18.5,292.0144,65.3447)"></path><path d="M1 0A1 1 0 1 1 1 -0.0001" fill="#5470c6" transform="matrix(18.5,0,0,18.5,219.8252,125.9346)"></path><path d="M-26.0964 -5l52.1929 0l0 33l-52.1929 0Z" fill="rgb(0,0,0)" fill-opacity="0" stroke="#ccc" stroke-width="0" transform="translate(237.5 5)"></path><text dominant-baseline="central" fill="#333" style="font-size:23px;font-family:sans-serif;font-weight:bolder;" text-anchor="middle" transform="translate(237.5 5)" y="11.5">C73</text></g></svg>