<svg baseprofile="full" height="250" style="position:absolute;left:0;top:0;user-select:none" version="1.1" width="475" xmlns="http://www.w3.org/2000/svg" xmlns:xlink="http://www.w3.org/1999/xlink"><rect fill="none" height="250" id="0" width="475" x="0" y="0"></rect><g><path d="M298.4282 183.7673L282.0506 51.1106" fill="none" stroke="#aaa" stroke-opacity="0.5"></path><path d="M151.7244 36.366L238.0648 225.1648" fill="none" stroke="#aaa" stroke-opacity="0.5"></path><path d="M172.6299 217.6769L238.0648 225.1648" fill="none" stroke="#aaa" stroke-opacity="0.5"></path><path d="M314.2106 111.3034L172.6299 217.6769" fill="none" stroke="#aaa" stroke-opacity="0.5"></path><path d="M314.2106 111.3034L151.7244 36.366" fill="none" stroke="#aaa" stroke-opacity="0.5"></path><path d="M221.7194 23.7905L121.4707 176.4052" fill="none" stroke="#aaa" stroke-opacity="0.5"></path><path d="M221.7194 23.7905L106.468 104.8478" fill="none" stroke="#aaa" stroke-opacity="0.5"></path><path d="M314.2106 111.3034L298.4282 183.7673" fill="none" stroke="#aaa" stroke-opacity="0.5"></path><path d="M239.0699 139.3419L172.6299 217.6769" fill="none" stroke="#aaa" stroke-opacity="0.5"></path><path d="M151.7244 36.366L221.7194 23.7905" fill="none" stroke="#aaa" stroke-opacity="0.5"></path><path d="M314.2106 111.3034L238.0648 225.1648" fill="none" stroke="#aaa" stroke-opacity="0.5"></path><path d="M106.468 104.8478L121.4707 176.4052" fill="none" stroke="#aaa" stroke-opacity="0.5"></path><path d="M172.6299 217.6769L282.0506 51.1106" fill="none" stroke="#aaa" stroke-opacity="0.5"></path><path d="M239.0699 139.3419L151.7244 36.366" fill="none" stroke="#aaa" stroke-opacity="0.5"></path><path d="M239.0699 139.3419L298.4282 183.7673" fill="none" stroke="#aaa" stroke-opacity="0.5"></path><path d="M314.2106 111.3034L221.7194 23.7905" fill="none" stroke="#aaa" stroke-opacity="0.5"></path><path d="M314.2106 111.3034L282.0506 51.1106" fill="none" stroke="#aaa" stroke-opacity="0.5"></path><path d="M298.4282 183.7673L151.7244 36.366" fill="none" stroke="#aaa" stroke-opacity="0.5"></path><path d="M239.0699 139.3419L221.7194 23.7905" fill="none" stroke="#aaa" stroke-opacity="0.5"></path><path d="M106.468 104.8478L282.0506 51.1106" fill="none" stroke="#aaa" stroke-opacity="0.5"></path><path d="M221.7194 23.7905L176.5481 105.2254" fill="none" stroke="#aaa" stroke-opacity="0.5"></path><path d="M151.7244 36.366L121.4707 176.4052" fill="none" stroke="#aaa" stroke-opacity="0.5"></path><path d="M151.7244 36.366L106.468 104.8478" fill="none" stroke="#aaa" stroke-opacity="0.5"></path><path d="M239.0699 139.3419L176.5481 105.2254" fill="none" stroke="#aaa" stroke-opacity="0.5"></path><path d="M176.5481 105.2254L238.0648 225.1648" fill="none" stroke="#aaa" stroke-opacity="0.5"></path><path d="M106.468 105.5L176.5481 105.5" fill="none" stroke="#aaa" stroke-opacity="0.5"></path><path d="M298.4282 183.7673L221.7194 23.7905" fill="none" stroke="#aaa" stroke-opacity="0.5"></path><path d="M314.2106 111.3034L239.0699 139.3419" fill="none" stroke="#aaa" stroke-opacity="0.5"></path><path d="M121.4707 176.4052L282.0506 51.1106" fill="none" stroke="#aaa" stroke-opacity="0.5"></path><path d="M314.2106 111.3034L121.4707 176.4052" fill="none" stroke="#aaa" stroke-opacity="0.5"></path><path d="M314.2106 111.3034L106.468 104.8478" fill="none" stroke="#aaa" stroke-opacity="0.5"></path><path d="M298.4282 183.7673L176.5481 105.2254" fill="none" stroke="#aaa" stroke-opacity="0.5"></path><path d="M221.7194 23.7905L172.6299 217.6769" fill="none" stroke="#aaa" stroke-opacity="0.5"></path><path d="M176.5481 105.2254L282.0506 51.1106" fill="none" stroke="#aaa" stroke-opacity="0.5"></path><path d="M151.7244 36.366L282.0506 51.1106" fill="none" stroke="#aaa" stroke-opacity="0.5"></path><path d="M106.468 104.8478L172.6299 217.6769" fill="none" stroke="#aaa" stroke-opacity="0.5"></path><path d="M121.4707 176.4052L176.5481 105.2254" fill="none" stroke="#aaa" stroke-opacity="0.5"></path><path d="M239.0699 139.3419L121.4707 176.4052" fill="none" stroke="#aaa" stroke-opacity="0.5"></path><path d="M239.0699 139.3419L106.468 104.8478" fill="none" stroke="#aaa" stroke-opacity="0.5"></path><path d="M221.7194 23.7905L238.0648 225.1648" fill="none" stroke="#aaa" stroke-opacity="0.5"></path><path d="M238.0648 225.1648L282.0506 51.1106" fill="none" stroke="#aaa" stroke-opacity="0.5"></path><path d="M239.0699 139.3419L238.0648 225.1648" fill="none" stroke="#aaa" stroke-opacity="0.5"></path><path d="M298.4282 183.7673L172.6299 217.6769" fill="none" stroke="#aaa" stroke-opacity="0.5"></path><path d="M151.7244 36.366L176.5481 105.2254" fill="none" stroke="#aaa" stroke-opacity="0.5"></path><path d="M172.6299 217.6769L176.5481 105.2254" fill="none" stroke="#aaa" stroke-opacity="0.5"></path><path d="M106.468 104.8478L238.0648 225.1648" fill="none" stroke="#aaa" stroke-opacity="0.5"></path><path d="M298.4282 183.7673L121.4707 176.4052" fill="none" stroke="#aaa" stroke-opacity="0.5"></path><path d="M298.4282 183.7673L106.468 104.8478" fill="none" stroke="#aaa" stroke-opacity="0.5"></path><path d="M221.7194 23.7905L282.0506 51.1106" fill="none" stroke="#aaa" stroke-opacity="0.5"></path><path d="M298.4282 183.7673L238.0648 225.1648" fill="none" stroke="#aaa" stroke-opacity="0.5"></path><path d="M314.2106 111.3034L176.5481 105.2254" fill="none" stroke="#aaa" stroke-opacity="0.5"></path><path d="M239.0699 139.3419L282.0506 51.1106" fill="none" stroke="#aaa" stroke-opacity="0.5"></path><path d="M151.7244 36.366L172.6299 217.6769" fill="none" stroke="#aaa" stroke-opacity="0.5"></path><path d="M121.4707 176.4052L238.0648 225.1648" fill="none" stroke="#aaa" stroke-opacity="0.5"></path><path d="M172.6299 217.6769L121.4707 176.4052" fill="none" stroke="#aaa" stroke-opacity="0.5"></path><path d="M1 0A1 1 0 1 1 1 -0.0001" fill="#5470c6" transform="matrix(18.5,0,0,18.5,239.0699,139.3419)"></path><path d="M1 0A1 1 0 1 1 1 -0.0001" fill="#5470c6" transform="matrix(18.5,0,0,18.5,298.4282,183.7673)"></path><path d="M1 0A1 1 0 1 1 1 -0.0001" fill="#5470c6" transform="matrix(18.5,0,0,18.5,238.0648,225.1648)"></path><path d="M1 0A1 1 0 1 1 1 -0.0001" fill="#5470c6" transform="matrix(18.5,0,0,18.5,172.6299,217.6769)"></path><path d="M1 0A1 1 0 1 1 1 -0.0001" fill="#5470c6" transform="matrix(18.5,0,0,18.5,121.4707,176.4052)"></path><path d="M1 0A1 1 0 1 1 1 -0.0001" fill="#5470c6" transform="matrix(18.5,0,0,18.5,106.468,104.8478)"></path><path d="M1 0A1 1 0 1 1 1 -0.0001" fill="#5470c6" transform="matrix(18.5,0,0,18.5,176.5481,105.2254)"></path><path d="M1 0A1 1 0 1 1 1 -0.0001" fill="#5470c6" transform="matrix(18.5,0,0,18.5,151.7244,36.366)"></path><path d="M1 0A1 1 0 1 1 1 -0.0001" fill="#5470c6" transform="matrix(18.5,0,0,18.5,221.7194,23.7905)"></path><path d="M1 0A1 1 0 1 1 1 -0.0001" fill="#5470c6" transform="matrix(18.5,0,0,18.5,282.0506,51.1106)"></path><path d="M1 0A1 1 0 1 1 1 -0.0001" fill="#5470c6" transform="matrix(18.5,0,0,18.5,314.2106,111.3034)"></path><path d="M-26.0964 -5l52.1929 0l0 33l-52.1929 0Z" fill="rgb(0,0,0)" fill-opacity="0" stroke="#ccc" stroke-width="0" transform="translate(237.5 5)"></path><text dominant-baseline="central" fill="#333" style="font-size:23px;font-family:sans-serif;font-weight:bolder;" text-anchor="middle" transform="translate(237.5 5)" y="11.5">C74</text></g></svg>