<svg baseprofile="full" height="250" style="position:absolute;left:0;top:0;user-select:none" version="1.1" width="475" xmlns="http://www.w3.org/2000/svg" xmlns:xlink="http://www.w3.org/1999/xlink"><rect fill="none" height="250" id="0" width="475" x="0" y="0"></rect><g><path d="M162.7202 35.0386L157.9451 211.928" fill="none" stroke="#aaa" stroke-opacity="0.5"></path><path d="M114.6723 156.8259L231.8286 24.7952" fill="none" stroke="#aaa" stroke-opacity="0.5"></path><path d="M211.1855 124.4278L157.9451 211.928" fill="none" stroke="#aaa" stroke-opacity="0.5"></path><path d="M162.7202 35.0386L312.8276 128.2781" fill="none" stroke="#aaa" stroke-opacity="0.5"></path><path d="M225.9273 225.3674L286.6893 193.3092" fill="none" stroke="#aaa" stroke-opacity="0.5"></path><path d="M211.1855 124.4278L291.2194 62.4709" fill="none" stroke="#aaa" stroke-opacity="0.5"></path><path d="M157.9451 211.928L286.6893 193.3092" fill="none" stroke="#aaa" stroke-opacity="0.5"></path><path d="M312.8276 128.2781L225.9273 225.3674" fill="none" stroke="#aaa" stroke-opacity="0.5"></path><path d="M114.6723 156.8259L286.6893 193.3092" fill="none" stroke="#aaa" stroke-opacity="0.5"></path><path d="M162.7202 35.0386L225.9273 225.3674" fill="none" stroke="#aaa" stroke-opacity="0.5"></path><path d="M211.1855 124.4278L312.8276 128.2781" fill="none" stroke="#aaa" stroke-opacity="0.5"></path><path d="M116.2435 87.5589L286.6893 193.3092" fill="none" stroke="#aaa" stroke-opacity="0.5"></path><path d="M114.6723 156.8259L291.2194 62.4709" fill="none" stroke="#aaa" stroke-opacity="0.5"></path><path d="M312.8276 128.2781L231.8286 24.7952" fill="none" stroke="#aaa" stroke-opacity="0.5"></path><path d="M162.7202 35.0386L231.8286 24.7952" fill="none" stroke="#aaa" stroke-opacity="0.5"></path><path d="M286.6893 193.3092L231.8286 24.7952" fill="none" stroke="#aaa" stroke-opacity="0.5"></path><path d="M157.9451 211.928L225.9273 225.3674" fill="none" stroke="#aaa" stroke-opacity="0.5"></path><path d="M116.2435 87.5589L157.9451 211.928" fill="none" stroke="#aaa" stroke-opacity="0.5"></path><path d="M211.1855 124.4278L231.8286 24.7952" fill="none" stroke="#aaa" stroke-opacity="0.5"></path><path d="M291.2194 62.4709L286.6893 193.3092" fill="none" stroke="#aaa" stroke-opacity="0.5"></path><path d="M114.6723 156.8259L116.2435 87.5589" fill="none" stroke="#aaa" stroke-opacity="0.5"></path><path d="M211.1855 124.4278L286.6893 193.3092" fill="none" stroke="#aaa" stroke-opacity="0.5"></path><path d="M211.1855 124.4278L162.7202 35.0386" fill="none" stroke="#aaa" stroke-opacity="0.5"></path><path d="M312.8276 128.2781L291.2194 62.4709" fill="none" stroke="#aaa" stroke-opacity="0.5"></path><path d="M116.2435 87.5589L225.9273 225.3674" fill="none" stroke="#aaa" stroke-opacity="0.5"></path><path d="M162.7202 35.0386L291.2194 62.4709" fill="none" stroke="#aaa" stroke-opacity="0.5"></path><path d="M225.9273 225.3674L231.8286 24.7952" fill="none" stroke="#aaa" stroke-opacity="0.5"></path><path d="M157.9451 211.928L231.8286 24.7952" fill="none" stroke="#aaa" stroke-opacity="0.5"></path><path d="M312.8276 128.2781L116.2435 87.5589" fill="none" stroke="#aaa" stroke-opacity="0.5"></path><path d="M162.7202 35.0386L116.2435 87.5589" fill="none" stroke="#aaa" stroke-opacity="0.5"></path><path d="M116.2435 87.5589L231.8286 24.7952" fill="none" stroke="#aaa" stroke-opacity="0.5"></path><path d="M211.1855 124.4278L225.9273 225.3674" fill="none" stroke="#aaa" stroke-opacity="0.5"></path><path d="M162.7202 35.0386L114.6723 156.8259" fill="none" stroke="#aaa" stroke-opacity="0.5"></path><path d="M225.9273 225.3674L291.2194 62.4709" fill="none" stroke="#aaa" stroke-opacity="0.5"></path><path d="M157.9451 211.928L291.2194 62.4709" fill="none" stroke="#aaa" stroke-opacity="0.5"></path><path d="M114.6723 156.8259L157.9451 211.928" fill="none" stroke="#aaa" stroke-opacity="0.5"></path><path d="M211.1855 124.4278L116.2435 87.5589" fill="none" stroke="#aaa" stroke-opacity="0.5"></path><path d="M211.1855 124.4278L114.6723 156.8259" fill="none" stroke="#aaa" stroke-opacity="0.5"></path><path d="M291.2194 62.4709L231.8286 24.7952" fill="none" stroke="#aaa" stroke-opacity="0.5"></path><path d="M114.6723 156.8259L312.8276 128.2781" fill="none" stroke="#aaa" stroke-opacity="0.5"></path><path d="M312.8276 128.2781L286.6893 193.3092" fill="none" stroke="#aaa" stroke-opacity="0.5"></path><path d="M162.7202 35.0386L286.6893 193.3092" fill="none" stroke="#aaa" stroke-opacity="0.5"></path><path d="M114.6723 156.8259L225.9273 225.3674" fill="none" stroke="#aaa" stroke-opacity="0.5"></path><path d="M116.2435 87.5589L291.2194 62.4709" fill="none" stroke="#aaa" stroke-opacity="0.5"></path><path d="M312.8276 128.2781L157.9451 211.928" fill="none" stroke="#aaa" stroke-opacity="0.5"></path><path d="M1 0A1 1 0 1 1 1 -0.0001" fill="#5470c6" transform="matrix(19,0,0,19,312.8276,128.2781)"></path><path d="M1 0A1 1 0 1 1 1 -0.0001" fill="#5470c6" transform="matrix(19,0,0,19,286.6893,193.3092)"></path><path d="M1 0A1 1 0 1 1 1 -0.0001" fill="#5470c6" transform="matrix(19,0,0,19,225.9273,225.3674)"></path><path d="M1 0A1 1 0 1 1 1 -0.0001" fill="#5470c6" transform="matrix(19,0,0,19,157.9451,211.928)"></path><path d="M1 0A1 1 0 1 1 1 -0.0001" fill="#5470c6" transform="matrix(19,0,0,19,114.6723,156.8259)"></path><path d="M1 0A1 1 0 1 1 1 -0.0001" fill="#5470c6" transform="matrix(19,0,0,19,116.2435,87.5589)"></path><path d="M1 0A1 1 0 1 1 1 -0.0001" fill="#5470c6" transform="matrix(19,0,0,19,162.7202,35.0386)"></path><path d="M1 0A1 1 0 1 1 1 -0.0001" fill="#5470c6" transform="matrix(19,0,0,19,231.8286,24.7952)"></path><path d="M1 0A1 1 0 1 1 1 -0.0001" fill="#5470c6" transform="matrix(19,0,0,19,211.1855,124.4278)"></path><path d="M1 0A1 1 0 1 1 1 -0.0001" fill="#5470c6" transform="matrix(19,0,0,19,291.2194,62.4709)"></path><path d="M-26.0964 -5l52.1929 0l0 33l-52.1929 0Z" fill="rgb(0,0,0)" fill-opacity="0" stroke="#ccc" stroke-width="0" transform="translate(237.5 5)"></path><text dominant-baseline="central" fill="#333" style="font-size:23px;font-family:sans-serif;font-weight:bolder;" text-anchor="middle" transform="translate(237.5 5)" y="11.5">C75</text></g></svg>