<svg baseprofile="full" height="250" style="position:absolute;left:0;top:0;user-select:none" version="1.1" width="475" xmlns="http://www.w3.org/2000/svg" xmlns:xlink="http://www.w3.org/1999/xlink"><rect fill="none" height="250" id="0" width="475" x="0" y="0"></rect><g><path d="M161.8395 35.2335L158.9226 212.1314" fill="none" stroke="#aaa" stroke-opacity="0.5"></path><path d="M227.3622 225.8986L158.9226 212.1314" fill="none" stroke="#aaa" stroke-opacity="0.5"></path><path d="M161.8395 35.2335L209.3598 124.9193" fill="none" stroke="#aaa" stroke-opacity="0.5"></path><path d="M158.9226 212.1314L209.3598 124.9193" fill="none" stroke="#aaa" stroke-opacity="0.5"></path><path d="M114.5412 158.098L158.9226 212.1314" fill="none" stroke="#aaa" stroke-opacity="0.5"></path><path d="M227.3622 225.8986L209.3598 124.9193" fill="none" stroke="#aaa" stroke-opacity="0.5"></path><path d="M114.5412 158.098L209.3598 124.9193" fill="none" stroke="#aaa" stroke-opacity="0.5"></path><path d="M161.8395 35.2335L116.7315 88.1586" fill="none" stroke="#aaa" stroke-opacity="0.5"></path><path d="M227.3622 225.8986L116.7315 88.1586" fill="none" stroke="#aaa" stroke-opacity="0.5"></path><path d="M114.5412 158.098L116.7315 88.1586" fill="none" stroke="#aaa" stroke-opacity="0.5"></path><path d="M161.8395 35.2335L286.8262 191.292" fill="none" stroke="#aaa" stroke-opacity="0.5"></path><path d="M158.9226 212.1314L286.8262 191.292" fill="none" stroke="#aaa" stroke-opacity="0.5"></path><path d="M227.3622 225.8986L286.8262 191.292" fill="none" stroke="#aaa" stroke-opacity="0.5"></path><path d="M116.7315 88.1586L290.5594 62.0641" fill="none" stroke="#aaa" stroke-opacity="0.5"></path><path d="M161.8395 35.2335L313.7196 127.456" fill="none" stroke="#aaa" stroke-opacity="0.5"></path><path d="M158.9226 212.1314L313.7196 127.456" fill="none" stroke="#aaa" stroke-opacity="0.5"></path><path d="M114.5412 158.098L286.8262 191.292" fill="none" stroke="#aaa" stroke-opacity="0.5"></path><path d="M227.3622 225.8986L313.7196 127.456" fill="none" stroke="#aaa" stroke-opacity="0.5"></path><path d="M114.5412 158.098L313.7196 127.456" fill="none" stroke="#aaa" stroke-opacity="0.5"></path><path d="M290.5594 62.0641L209.3598 124.9193" fill="none" stroke="#aaa" stroke-opacity="0.5"></path><path d="M231.3968 24.7484L158.9226 212.1314" fill="none" stroke="#aaa" stroke-opacity="0.5"></path><path d="M313.7196 127.456L286.8262 191.292" fill="none" stroke="#aaa" stroke-opacity="0.5"></path><path d="M161.8395 35.2335L290.5594 62.0641" fill="none" stroke="#aaa" stroke-opacity="0.5"></path><path d="M231.3968 24.7484L209.3598 124.9193" fill="none" stroke="#aaa" stroke-opacity="0.5"></path><path d="M290.5594 62.0641L286.8262 191.292" fill="none" stroke="#aaa" stroke-opacity="0.5"></path><path d="M231.3968 24.7484L286.8262 191.292" fill="none" stroke="#aaa" stroke-opacity="0.5"></path><path d="M227.3622 225.8986L161.8395 35.2335" fill="none" stroke="#aaa" stroke-opacity="0.5"></path><path d="M231.3968 24.7484L313.7196 127.456" fill="none" stroke="#aaa" stroke-opacity="0.5"></path><path d="M116.7315 88.1586L158.9226 212.1314" fill="none" stroke="#aaa" stroke-opacity="0.5"></path><path d="M227.3622 225.8986L231.3968 24.7484" fill="none" stroke="#aaa" stroke-opacity="0.5"></path><path d="M116.7315 88.1586L209.3598 124.9193" fill="none" stroke="#aaa" stroke-opacity="0.5"></path><path d="M114.5412 158.098L231.3968 24.7484" fill="none" stroke="#aaa" stroke-opacity="0.5"></path><path d="M116.7315 88.1586L286.8262 191.292" fill="none" stroke="#aaa" stroke-opacity="0.5"></path><path d="M116.7315 88.1586L313.7196 127.456" fill="none" stroke="#aaa" stroke-opacity="0.5"></path><path d="M313.7196 127.456L209.3598 124.9193" fill="none" stroke="#aaa" stroke-opacity="0.5"></path><path d="M158.9226 212.1314L290.5594 62.0641" fill="none" stroke="#aaa" stroke-opacity="0.5"></path><path d="M227.3622 225.8986L290.5594 62.0641" fill="none" stroke="#aaa" stroke-opacity="0.5"></path><path d="M114.5412 158.098L290.5594 62.0641" fill="none" stroke="#aaa" stroke-opacity="0.5"></path><path d="M209.3598 124.9193L286.8262 191.292" fill="none" stroke="#aaa" stroke-opacity="0.5"></path><path d="M227.3622 225.8986L114.5412 158.098" fill="none" stroke="#aaa" stroke-opacity="0.5"></path><path d="M116.7315 88.1586L231.3968 24.7484" fill="none" stroke="#aaa" stroke-opacity="0.5"></path><path d="M313.7196 127.456L290.5594 62.0641" fill="none" stroke="#aaa" stroke-opacity="0.5"></path><path d="M114.5412 158.098L161.8395 35.2335" fill="none" stroke="#aaa" stroke-opacity="0.5"></path><path d="M161.8395 35.2335L231.3968 24.7484" fill="none" stroke="#aaa" stroke-opacity="0.5"></path><path d="M231.3968 24.7484L290.5594 62.0641" fill="none" stroke="#aaa" stroke-opacity="0.5"></path><path d="M1 0A1 1 0 1 1 1 -0.0001" fill="#5470c6" transform="matrix(19,0,0,19,313.7196,127.456)"></path><path d="M1 0A1 1 0 1 1 1 -0.0001" fill="#5470c6" transform="matrix(19,0,0,19,286.8262,191.292)"></path><path d="M1 0A1 1 0 1 1 1 -0.0001" fill="#5470c6" transform="matrix(19,0,0,19,227.3622,225.8986)"></path><path d="M1 0A1 1 0 1 1 1 -0.0001" fill="#5470c6" transform="matrix(19,0,0,19,158.9226,212.1314)"></path><path d="M1 0A1 1 0 1 1 1 -0.0001" fill="#5470c6" transform="matrix(19,0,0,19,114.5412,158.098)"></path><path d="M1 0A1 1 0 1 1 1 -0.0001" fill="#5470c6" transform="matrix(19,0,0,19,116.7315,88.1586)"></path><path d="M1 0A1 1 0 1 1 1 -0.0001" fill="#5470c6" transform="matrix(19,0,0,19,161.8395,35.2335)"></path><path d="M1 0A1 1 0 1 1 1 -0.0001" fill="#5470c6" transform="matrix(19,0,0,19,231.3968,24.7484)"></path><path d="M1 0A1 1 0 1 1 1 -0.0001" fill="#5470c6" transform="matrix(19,0,0,19,290.5594,62.0641)"></path><path d="M1 0A1 1 0 1 1 1 -0.0001" fill="#5470c6" transform="matrix(19,0,0,19,209.3598,124.9193)"></path><path d="M-26.0964 -5l52.1929 0l0 33l-52.1929 0Z" fill="rgb(0,0,0)" fill-opacity="0" stroke="#ccc" stroke-width="0" transform="translate(237.5 5)"></path><text dominant-baseline="central" fill="#333" style="font-size:23px;font-family:sans-serif;font-weight:bolder;" text-anchor="middle" transform="translate(237.5 5)" y="11.5">C76</text></g></svg>