<svg baseprofile="full" height="250" style="position:absolute;left:0;top:0;user-select:none" version="1.1" width="475" xmlns="http://www.w3.org/2000/svg" xmlns:xlink="http://www.w3.org/1999/xlink"><rect fill="none" height="250" id="0" width="475" x="0" y="0"></rect><g><path d="M211.5203 226.1209L146.8647 203.8847" fill="none" stroke="#aaa" stroke-opacity="0.5"></path><path d="M299.0768 73.8149L146.8647 203.8847" fill="none" stroke="#aaa" stroke-opacity="0.5"></path><path d="M276.73 202.6938L311.5679 143.071" fill="none" stroke="#aaa" stroke-opacity="0.5"></path><path d="M311.5679 143.071L175.5785 28.9579" fill="none" stroke="#aaa" stroke-opacity="0.5"></path><path d="M211.5203 226.1209L175.5785 28.9579" fill="none" stroke="#aaa" stroke-opacity="0.5"></path><path d="M311.5679 143.071L245.6855 28.806" fill="none" stroke="#aaa" stroke-opacity="0.5"></path><path d="M299.0768 73.8149L175.5785 28.9579" fill="none" stroke="#aaa" stroke-opacity="0.5"></path><path d="M211.5203 226.1209L245.6855 28.806" fill="none" stroke="#aaa" stroke-opacity="0.5"></path><path d="M299.0768 73.8149L245.6855 28.806" fill="none" stroke="#aaa" stroke-opacity="0.5"></path><path d="M276.73 202.6938L110.1548 144.0241" fill="none" stroke="#aaa" stroke-opacity="0.5"></path><path d="M175.5785 28.9579L146.8647 203.8847" fill="none" stroke="#aaa" stroke-opacity="0.5"></path><path d="M276.73 202.6938L210.8636 123.7288" fill="none" stroke="#aaa" stroke-opacity="0.5"></path><path d="M311.5679 143.071L110.1548 144.0241" fill="none" stroke="#aaa" stroke-opacity="0.5"></path><path d="M110.1548 144.0241L146.8647 203.8847" fill="none" stroke="#aaa" stroke-opacity="0.5"></path><path d="M276.73 202.6938L211.5203 226.1209" fill="none" stroke="#aaa" stroke-opacity="0.5"></path><path d="M123.2166 74.8979L210.8636 123.7288" fill="none" stroke="#aaa" stroke-opacity="0.5"></path><path d="M211.5203 226.1209L110.1548 144.0241" fill="none" stroke="#aaa" stroke-opacity="0.5"></path><path d="M175.5785 29.5L245.6855 29.5" fill="none" stroke="#aaa" stroke-opacity="0.5"></path><path d="M311.5679 143.071L210.8636 123.7288" fill="none" stroke="#aaa" stroke-opacity="0.5"></path><path d="M211.5203 226.1209L210.8636 123.7288" fill="none" stroke="#aaa" stroke-opacity="0.5"></path><path d="M123.2166 74.8979L211.5203 226.1209" fill="none" stroke="#aaa" stroke-opacity="0.5"></path><path d="M299.0768 73.8149L210.8636 123.7288" fill="none" stroke="#aaa" stroke-opacity="0.5"></path><path d="M123.2166 74.8979L175.5785 28.9579" fill="none" stroke="#aaa" stroke-opacity="0.5"></path><path d="M110.1548 144.0241L245.6855 28.806" fill="none" stroke="#aaa" stroke-opacity="0.5"></path><path d="M311.5679 143.071L211.5203 226.1209" fill="none" stroke="#aaa" stroke-opacity="0.5"></path><path d="M210.8636 123.7288L146.8647 203.8847" fill="none" stroke="#aaa" stroke-opacity="0.5"></path><path d="M123.2166 74.8979L245.6855 28.806" fill="none" stroke="#aaa" stroke-opacity="0.5"></path><path d="M299.0768 73.8149L211.5203 226.1209" fill="none" stroke="#aaa" stroke-opacity="0.5"></path><path d="M276.73 202.6938L123.2166 74.8979" fill="none" stroke="#aaa" stroke-opacity="0.5"></path><path d="M210.8636 123.7288L245.6855 28.806" fill="none" stroke="#aaa" stroke-opacity="0.5"></path><path d="M175.5785 28.9579L110.1548 144.0241" fill="none" stroke="#aaa" stroke-opacity="0.5"></path><path d="M175.5785 28.9579L210.8636 123.7288" fill="none" stroke="#aaa" stroke-opacity="0.5"></path><path d="M311.5679 143.071L123.2166 74.8979" fill="none" stroke="#aaa" stroke-opacity="0.5"></path><path d="M123.2166 74.8979L110.1548 144.0241" fill="none" stroke="#aaa" stroke-opacity="0.5"></path><path d="M276.73 202.6938L299.0768 73.8149" fill="none" stroke="#aaa" stroke-opacity="0.5"></path><path d="M276.73 202.6938L146.8647 203.8847" fill="none" stroke="#aaa" stroke-opacity="0.5"></path><path d="M299.0768 73.8149L110.1548 144.0241" fill="none" stroke="#aaa" stroke-opacity="0.5"></path><path d="M146.8647 203.8847L245.6855 28.806" fill="none" stroke="#aaa" stroke-opacity="0.5"></path><path d="M123.2166 74.8979L299.0768 73.8149" fill="none" stroke="#aaa" stroke-opacity="0.5"></path><path d="M123.2166 74.8979L146.8647 203.8847" fill="none" stroke="#aaa" stroke-opacity="0.5"></path><path d="M210.8636 123.7288L110.1548 144.0241" fill="none" stroke="#aaa" stroke-opacity="0.5"></path><path d="M276.73 202.6938L175.5785 28.9579" fill="none" stroke="#aaa" stroke-opacity="0.5"></path><path d="M311.5679 143.071L299.0768 73.8149" fill="none" stroke="#aaa" stroke-opacity="0.5"></path><path d="M276.73 202.6938L245.6855 28.806" fill="none" stroke="#aaa" stroke-opacity="0.5"></path><path d="M311.5679 143.071L146.8647 203.8847" fill="none" stroke="#aaa" stroke-opacity="0.5"></path><path d="M1 0A1 1 0 1 1 1 -0.0001" fill="#5470c6" transform="matrix(19,0,0,19,311.5679,143.071)"></path><path d="M1 0A1 1 0 1 1 1 -0.0001" fill="#5470c6" transform="matrix(19,0,0,19,276.73,202.6938)"></path><path d="M1 0A1 1 0 1 1 1 -0.0001" fill="#5470c6" transform="matrix(19,0,0,19,211.5203,226.1209)"></path><path d="M1 0A1 1 0 1 1 1 -0.0001" fill="#5470c6" transform="matrix(19,0,0,19,146.8647,203.8847)"></path><path d="M1 0A1 1 0 1 1 1 -0.0001" fill="#5470c6" transform="matrix(19,0,0,19,110.1548,144.0241)"></path><path d="M1 0A1 1 0 1 1 1 -0.0001" fill="#5470c6" transform="matrix(19,0,0,19,123.2166,74.8979)"></path><path d="M1 0A1 1 0 1 1 1 -0.0001" fill="#5470c6" transform="matrix(19,0,0,19,175.5785,28.9579)"></path><path d="M1 0A1 1 0 1 1 1 -0.0001" fill="#5470c6" transform="matrix(19,0,0,19,245.6855,28.806)"></path><path d="M1 0A1 1 0 1 1 1 -0.0001" fill="#5470c6" transform="matrix(19,0,0,19,210.8636,123.7288)"></path><path d="M1 0A1 1 0 1 1 1 -0.0001" fill="#5470c6" transform="matrix(19,0,0,19,299.0768,73.8149)"></path><path d="M-26.0964 -5l52.1929 0l0 33l-52.1929 0Z" fill="rgb(0,0,0)" fill-opacity="0" stroke="#ccc" stroke-width="0" transform="translate(237.5 5)"></path><text dominant-baseline="central" fill="#333" style="font-size:23px;font-family:sans-serif;font-weight:bolder;" text-anchor="middle" transform="translate(237.5 5)" y="11.5">C77</text></g></svg>