<svg baseprofile="full" height="250" style="position:absolute;left:0;top:0;user-select:none" version="1.1" width="475" xmlns="http://www.w3.org/2000/svg" xmlns:xlink="http://www.w3.org/1999/xlink"><rect fill="none" height="250" id="0" width="475" x="0" y="0"></rect><g><path d="M130.7201 198.4436L169.4169 135.3377" fill="none" stroke="#aaa" stroke-opacity="0.5"></path><path d="M220.329 21.677L205.0275 228.6868" fill="none" stroke="#aaa" stroke-opacity="0.5"></path><path d="M275.6162 207.3233L169.4169 135.3377" fill="none" stroke="#aaa" stroke-opacity="0.5"></path><path d="M130.7201 198.4436L291.6351 53.2047" fill="none" stroke="#aaa" stroke-opacity="0.5"></path><path d="M150.1819 40.8465L220.329 21.677" fill="none" stroke="#aaa" stroke-opacity="0.5"></path><path d="M275.6162 207.3233L291.6351 53.2047" fill="none" stroke="#aaa" stroke-opacity="0.5"></path><path d="M319.3109 137.3103L205.0275 228.6868" fill="none" stroke="#aaa" stroke-opacity="0.5"></path><path d="M150.1819 40.8465L169.4169 135.3377" fill="none" stroke="#aaa" stroke-opacity="0.5"></path><path d="M205.0275 228.6868L246.3429 119.5342" fill="none" stroke="#aaa" stroke-opacity="0.5"></path><path d="M220.329 21.677L130.7201 198.4436" fill="none" stroke="#aaa" stroke-opacity="0.5"></path><path d="M205.0275 228.6868L169.4169 135.3377" fill="none" stroke="#aaa" stroke-opacity="0.5"></path><path d="M205.0275 228.6868L291.6351 53.2047" fill="none" stroke="#aaa" stroke-opacity="0.5"></path><path d="M275.6162 207.3233L205.0275 228.6868" fill="none" stroke="#aaa" stroke-opacity="0.5"></path><path d="M319.3109 137.3103L130.7201 198.4436" fill="none" stroke="#aaa" stroke-opacity="0.5"></path><path d="M150.1819 40.8465L205.0275 228.6868" fill="none" stroke="#aaa" stroke-opacity="0.5"></path><path d="M220.329 21.677L275.6162 207.3233" fill="none" stroke="#aaa" stroke-opacity="0.5"></path><path d="M102.6782 107.6359L319.3109 137.3103" fill="none" stroke="#aaa" stroke-opacity="0.5"></path><path d="M319.3109 137.3103L275.6162 207.3233" fill="none" stroke="#aaa" stroke-opacity="0.5"></path><path d="M275.6162 207.3233L130.7201 198.4436" fill="none" stroke="#aaa" stroke-opacity="0.5"></path><path d="M220.329 21.677L246.3429 119.5342" fill="none" stroke="#aaa" stroke-opacity="0.5"></path><path d="M102.6782 107.6359L246.3429 119.5342" fill="none" stroke="#aaa" stroke-opacity="0.5"></path><path d="M150.1819 40.8465L130.7201 198.4436" fill="none" stroke="#aaa" stroke-opacity="0.5"></path><path d="M102.6782 107.6359L220.329 21.677" fill="none" stroke="#aaa" stroke-opacity="0.5"></path><path d="M246.3429 119.5342L130.7201 198.4436" fill="none" stroke="#aaa" stroke-opacity="0.5"></path><path d="M319.3109 137.3103L246.3429 119.5342" fill="none" stroke="#aaa" stroke-opacity="0.5"></path><path d="M102.6782 107.6359L169.4169 135.3377" fill="none" stroke="#aaa" stroke-opacity="0.5"></path><path d="M102.6782 107.6359L291.6351 53.2047" fill="none" stroke="#aaa" stroke-opacity="0.5"></path><path d="M150.1819 40.8465L275.6162 207.3233" fill="none" stroke="#aaa" stroke-opacity="0.5"></path><path d="M150.1819 40.8465L319.3109 137.3103" fill="none" stroke="#aaa" stroke-opacity="0.5"></path><path d="M275.6162 207.3233L246.3429 119.5342" fill="none" stroke="#aaa" stroke-opacity="0.5"></path><path d="M150.1819 40.8465L102.6782 107.6359" fill="none" stroke="#aaa" stroke-opacity="0.5"></path><path d="M102.6782 107.6359L205.0275 228.6868" fill="none" stroke="#aaa" stroke-opacity="0.5"></path><path d="M150.1819 40.8465L246.3429 119.5342" fill="none" stroke="#aaa" stroke-opacity="0.5"></path><path d="M246.3429 119.5342L169.4169 135.3377" fill="none" stroke="#aaa" stroke-opacity="0.5"></path><path d="M150.1819 40.8465L291.6351 53.2047" fill="none" stroke="#aaa" stroke-opacity="0.5"></path><path d="M246.3429 119.5342L291.6351 53.2047" fill="none" stroke="#aaa" stroke-opacity="0.5"></path><path d="M169.4169 135.3377L291.6351 53.2047" fill="none" stroke="#aaa" stroke-opacity="0.5"></path><path d="M102.6782 107.6359L130.7201 198.4436" fill="none" stroke="#aaa" stroke-opacity="0.5"></path><path d="M102.6782 107.6359L275.6162 207.3233" fill="none" stroke="#aaa" stroke-opacity="0.5"></path><path d="M220.329 21.677L169.4169 135.3377" fill="none" stroke="#aaa" stroke-opacity="0.5"></path><path d="M220.329 21.677L291.6351 53.2047" fill="none" stroke="#aaa" stroke-opacity="0.5"></path><path d="M319.3109 137.3103L220.329 21.677" fill="none" stroke="#aaa" stroke-opacity="0.5"></path><path d="M319.3109 137.3103L169.4169 135.3377" fill="none" stroke="#aaa" stroke-opacity="0.5"></path><path d="M319.3109 137.3103L291.6351 53.2047" fill="none" stroke="#aaa" stroke-opacity="0.5"></path><path d="M205.0275 228.6868L130.7201 198.4436" fill="none" stroke="#aaa" stroke-opacity="0.5"></path><path d="M1 0A1 1 0 1 1 1 -0.0001" fill="#5470c6" transform="matrix(19,0,0,19,319.3109,137.3103)"></path><path d="M1 0A1 1 0 1 1 1 -0.0001" fill="#5470c6" transform="matrix(19,0,0,19,275.6162,207.3233)"></path><path d="M1 0A1 1 0 1 1 1 -0.0001" fill="#5470c6" transform="matrix(19,0,0,19,205.0275,228.6868)"></path><path d="M1 0A1 1 0 1 1 1 -0.0001" fill="#5470c6" transform="matrix(19,0,0,19,130.7201,198.4436)"></path><path d="M1 0A1 1 0 1 1 1 -0.0001" fill="#5470c6" transform="matrix(19,0,0,19,169.4169,135.3377)"></path><path d="M1 0A1 1 0 1 1 1 -0.0001" fill="#5470c6" transform="matrix(19,0,0,19,102.6782,107.6359)"></path><path d="M1 0A1 1 0 1 1 1 -0.0001" fill="#5470c6" transform="matrix(19,0,0,19,150.1819,40.8465)"></path><path d="M1 0A1 1 0 1 1 1 -0.0001" fill="#5470c6" transform="matrix(19,0,0,19,220.329,21.677)"></path><path d="M1 0A1 1 0 1 1 1 -0.0001" fill="#5470c6" transform="matrix(19,0,0,19,291.6351,53.2047)"></path><path d="M1 0A1 1 0 1 1 1 -0.0001" fill="#5470c6" transform="matrix(19,0,0,19,246.3429,119.5342)"></path><path d="M-26.0964 -5l52.1929 0l0 33l-52.1929 0Z" fill="rgb(0,0,0)" fill-opacity="0" stroke="#ccc" stroke-width="0" transform="translate(237.5 5)"></path><text dominant-baseline="central" fill="#333" style="font-size:23px;font-family:sans-serif;font-weight:bolder;" text-anchor="middle" transform="translate(237.5 5)" y="11.5">C78</text></g></svg>