<svg baseprofile="full" height="250" style="position:absolute;left:0;top:0;user-select:none" version="1.1" width="475" xmlns="http://www.w3.org/2000/svg" xmlns:xlink="http://www.w3.org/1999/xlink"><rect fill="none" height="250" id="0" width="475" x="0" y="0"></rect><g><path d="M191.1295 49.6691L304.5541 150.5691" fill="none" stroke="#aaa" stroke-opacity="0.5"></path><path d="M127.704 130.0912L304.5541 150.5691" fill="none" stroke="#aaa" stroke-opacity="0.5"></path><path d="M127.704 130.0912L121.3493 58.8159" fill="none" stroke="#aaa" stroke-opacity="0.5"></path><path d="M252.8933 25.3575L304.5541 150.5691" fill="none" stroke="#aaa" stroke-opacity="0.5"></path><path d="M191.1295 49.6691L131.5808 199.1434" fill="none" stroke="#aaa" stroke-opacity="0.5"></path><path d="M201.4331 216.2037L300.463 83.6542" fill="none" stroke="#aaa" stroke-opacity="0.5"></path><path d="M201.4331 216.2037L304.5541 150.5691" fill="none" stroke="#aaa" stroke-opacity="0.5"></path><path d="M201.4331 216.2037L269.0258 211.4959" fill="none" stroke="#aaa" stroke-opacity="0.5"></path><path d="M201.4331 216.2037L191.1295 49.6691" fill="none" stroke="#aaa" stroke-opacity="0.5"></path><path d="M300.463 83.6542L304.5541 150.5691" fill="none" stroke="#aaa" stroke-opacity="0.5"></path><path d="M201.4331 216.2037L121.3493 58.8159" fill="none" stroke="#aaa" stroke-opacity="0.5"></path><path d="M300.463 83.6542L191.1295 49.6691" fill="none" stroke="#aaa" stroke-opacity="0.5"></path><path d="M300.463 83.6542L121.3493 58.8159" fill="none" stroke="#aaa" stroke-opacity="0.5"></path><path d="M269.0258 211.4959L252.8933 25.3575" fill="none" stroke="#aaa" stroke-opacity="0.5"></path><path d="M201.4331 216.2037L131.5808 199.1434" fill="none" stroke="#aaa" stroke-opacity="0.5"></path><path d="M269.0258 211.4959L127.704 130.0912" fill="none" stroke="#aaa" stroke-opacity="0.5"></path><path d="M304.5541 150.5691L121.3493 58.8159" fill="none" stroke="#aaa" stroke-opacity="0.5"></path><path d="M300.463 83.6542L131.5808 199.1434" fill="none" stroke="#aaa" stroke-opacity="0.5"></path><path d="M191.1295 49.6691L121.3493 58.8159" fill="none" stroke="#aaa" stroke-opacity="0.5"></path><path d="M191.1295 49.6691L252.8933 25.3575" fill="none" stroke="#aaa" stroke-opacity="0.5"></path><path d="M131.5808 199.1434L304.5541 150.5691" fill="none" stroke="#aaa" stroke-opacity="0.5"></path><path d="M191.1295 49.6691L127.704 130.0912" fill="none" stroke="#aaa" stroke-opacity="0.5"></path><path d="M131.5808 199.1434L121.3493 58.8159" fill="none" stroke="#aaa" stroke-opacity="0.5"></path><path d="M131.5808 199.1434L252.8933 25.3575" fill="none" stroke="#aaa" stroke-opacity="0.5"></path><path d="M252.8933 25.3575L121.3493 58.8159" fill="none" stroke="#aaa" stroke-opacity="0.5"></path><path d="M131.5808 199.1434L127.704 130.0912" fill="none" stroke="#aaa" stroke-opacity="0.5"></path><path d="M269.0258 211.4959L300.463 83.6542" fill="none" stroke="#aaa" stroke-opacity="0.5"></path><path d="M252.8933 25.3575L127.704 130.0912" fill="none" stroke="#aaa" stroke-opacity="0.5"></path><path d="M269.0258 211.4959L304.5541 150.5691" fill="none" stroke="#aaa" stroke-opacity="0.5"></path><path d="M269.0258 211.4959L191.1295 49.6691" fill="none" stroke="#aaa" stroke-opacity="0.5"></path><path d="M201.4331 216.2037L252.8933 25.3575" fill="none" stroke="#aaa" stroke-opacity="0.5"></path><path d="M269.0258 211.4959L121.3493 58.8159" fill="none" stroke="#aaa" stroke-opacity="0.5"></path><path d="M201.4331 216.2037L127.704 130.0912" fill="none" stroke="#aaa" stroke-opacity="0.5"></path><path d="M300.463 83.6542L252.8933 25.3575" fill="none" stroke="#aaa" stroke-opacity="0.5"></path><path d="M269.0258 211.4959L131.5808 199.1434" fill="none" stroke="#aaa" stroke-opacity="0.5"></path><path d="M300.463 83.6542L127.704 130.0912" fill="none" stroke="#aaa" stroke-opacity="0.5"></path><path d="M1 0A1 1 0 1 1 1 -0.0001" fill="#5470c6" transform="matrix(19,0,0,19,304.5541,150.5691)"></path><path d="M1 0A1 1 0 1 1 1 -0.0001" fill="#5470c6" transform="matrix(19,0,0,19,269.0258,211.4959)"></path><path d="M1 0A1 1 0 1 1 1 -0.0001" fill="#5470c6" transform="matrix(19,0,0,19,201.4331,216.2037)"></path><path d="M1 0A1 1 0 1 1 1 -0.0001" fill="#5470c6" transform="matrix(19,0,0,19,131.5808,199.1434)"></path><path d="M1 0A1 1 0 1 1 1 -0.0001" fill="#5470c6" transform="matrix(19,0,0,19,127.704,130.0912)"></path><path d="M1 0A1 1 0 1 1 1 -0.0001" fill="#5470c6" transform="matrix(19,0,0,19,121.3493,58.8159)"></path><path d="M1 0A1 1 0 1 1 1 -0.0001" fill="#5470c6" transform="matrix(19,0,0,19,191.1295,49.6691)"></path><path d="M1 0A1 1 0 1 1 1 -0.0001" fill="#5470c6" transform="matrix(19,0,0,19,252.8933,25.3575)"></path><path d="M1 0A1 1 0 1 1 1 -0.0001" fill="#5470c6" transform="matrix(19,0,0,19,300.463,83.6542)"></path><path d="M-26.0964 -5l52.1929 0l0 33l-52.1929 0Z" fill="rgb(0,0,0)" fill-opacity="0" stroke="#ccc" stroke-width="0" transform="translate(237.5 5)"></path><text dominant-baseline="central" fill="#333" style="font-size:23px;font-family:sans-serif;font-weight:bolder;" text-anchor="middle" transform="translate(237.5 5)" y="11.5">C79</text></g></svg>