<svg baseprofile="full" height="250" style="position:absolute;left:0;top:0;user-select:none" version="1.1" width="475" xmlns="http://www.w3.org/2000/svg" xmlns:xlink="http://www.w3.org/1999/xlink"><rect fill="none" height="250" id="0" width="475" x="0" y="0"></rect><g><path d="M307.8008 131.4194L300.344 162.255" fill="none" stroke="#aaa" stroke-opacity="0.5" stroke-width="0.5"></path><path d="M219.4942 224.3596L182.209 219.7412" fill="none" stroke="#aaa" stroke-opacity="0.5" stroke-width="0.5"></path><path d="M111.7677 137.6036L116.8784 101.4013" fill="none" stroke="#aaa" stroke-opacity="0.5" stroke-width="0.5"></path><path d="M227.6001 27.3178L116.8784 101.4013" fill="none" stroke="#aaa" stroke-opacity="0.5" stroke-width="0.5"></path><path d="M190.8855 29.4459L158.3214 94.3444" fill="none" stroke="#aaa" stroke-opacity="0.5" stroke-width="0.5"></path><path d="M132.0843 67.606L263.7964 40.92" fill="none" stroke="#aaa" stroke-opacity="0.5" stroke-width="0.5"></path><path d="M243.8035 153.8953L242.0803 69.5433" fill="none" stroke="#aaa" stroke-opacity="0.5" stroke-width="0.5"></path><path d="M190.8855 29.4459L132.0843 67.606" fill="none" stroke="#aaa" stroke-opacity="0.5" stroke-width="0.5"></path><path d="M184.3763 177.1535L148.4264 142.6018" fill="none" stroke="#aaa" stroke-opacity="0.5" stroke-width="0.5"></path><path d="M219.4942 224.3596L158.3214 94.3444" fill="none" stroke="#aaa" stroke-opacity="0.5" stroke-width="0.5"></path><path d="M223.5049 107.3467L304.4476 97.0729" fill="none" stroke="#aaa" stroke-opacity="0.5" stroke-width="0.5"></path><path d="M194.8994 67.075L242.0803 69.5433" fill="none" stroke="#aaa" stroke-opacity="0.5" stroke-width="0.5"></path><path d="M182.209 219.7412L158.3214 94.3444" fill="none" stroke="#aaa" stroke-opacity="0.5" stroke-width="0.5"></path><path d="M223.5049 107.3467L127.108 174.044" fill="none" stroke="#aaa" stroke-opacity="0.5" stroke-width="0.5"></path><path d="M158.5192 42.9759L148.4264 142.6018" fill="none" stroke="#aaa" stroke-opacity="0.5" stroke-width="0.5"></path><path d="M227.6001 27.3178L281.4267 187.5393" fill="none" stroke="#aaa" stroke-opacity="0.5" stroke-width="0.5"></path><path d="M190.8855 29.4459L259.6183 212.0783" fill="none" stroke="#aaa" stroke-opacity="0.5" stroke-width="0.5"></path><path d="M281.4267 187.5393L132.0843 67.606" fill="none" stroke="#aaa" stroke-opacity="0.5" stroke-width="0.5"></path><path d="M111.7677 137.6036L127.108 174.044" fill="none" stroke="#aaa" stroke-opacity="0.5" stroke-width="0.5"></path><path d="M227.6001 27.3178L127.108 174.044" fill="none" stroke="#aaa" stroke-opacity="0.5" stroke-width="0.5"></path><path d="M281.4267 187.5393L111.7677 137.6036" fill="none" stroke="#aaa" stroke-opacity="0.5" stroke-width="0.5"></path><path d="M132.0843 67.606L242.0803 69.5433" fill="none" stroke="#aaa" stroke-opacity="0.5" stroke-width="0.5"></path><path d="M281.4267 187.5393L259.6183 212.0783" fill="none" stroke="#aaa" stroke-opacity="0.5" stroke-width="0.5"></path><path d="M219.4942 224.3596L132.0843 67.606" fill="none" stroke="#aaa" stroke-opacity="0.5" stroke-width="0.5"></path><path d="M223.5049 107.3467L150.5672 201.5662" fill="none" stroke="#aaa" stroke-opacity="0.5" stroke-width="0.5"></path><path d="M219.4942 224.3596L259.6183 212.0783" fill="none" stroke="#aaa" stroke-opacity="0.5" stroke-width="0.5"></path><path d="M194.8994 67.075L243.8035 153.8953" fill="none" stroke="#aaa" stroke-opacity="0.5" stroke-width="0.5"></path><path d="M158.5192 42.9759L287.4864 69.0154" fill="none" stroke="#aaa" stroke-opacity="0.5" stroke-width="0.5"></path><path d="M242.0803 69.5433L226.0386 188.941" fill="none" stroke="#aaa" stroke-opacity="0.5" stroke-width="0.5"></path><path d="M243.8035 153.8953L116.8784 101.4013" fill="none" stroke="#aaa" stroke-opacity="0.5" stroke-width="0.5"></path><path d="M194.8994 67.075L116.8784 101.4013" fill="none" stroke="#aaa" stroke-opacity="0.5" stroke-width="0.5"></path><path d="M307.8008 131.4194L304.4476 97.0729" fill="none" stroke="#aaa" stroke-opacity="0.5" stroke-width="0.5"></path><path d="M111.7677 137.6036L182.209 219.7412" fill="none" stroke="#aaa" stroke-opacity="0.5" stroke-width="0.5"></path><path d="M227.6001 27.3178L182.209 219.7412" fill="none" stroke="#aaa" stroke-opacity="0.5" stroke-width="0.5"></path><path d="M132.0843 67.606L116.8784 101.4013" fill="none" stroke="#aaa" stroke-opacity="0.5" stroke-width="0.5"></path><path d="M307.8008 131.4194L150.5672 201.5662" fill="none" stroke="#aaa" stroke-opacity="0.5" stroke-width="0.5"></path><path d="M116.8784 101.4013L127.108 174.044" fill="none" stroke="#aaa" stroke-opacity="0.5" stroke-width="0.5"></path><path d="M190.8855 29.4459L158.5192 42.9759" fill="none" stroke="#aaa" stroke-opacity="0.5" stroke-width="0.5"></path><path d="M190.8855 29.4459L188.5337 130.8875" fill="none" stroke="#aaa" stroke-opacity="0.5" stroke-width="0.5"></path><path d="M194.8994 67.075L281.4267 187.5393" fill="none" stroke="#aaa" stroke-opacity="0.5" stroke-width="0.5"></path><path d="M304.4476 97.0729L184.3763 177.1535" fill="none" stroke="#aaa" stroke-opacity="0.5" stroke-width="0.5"></path><path d="M281.4267 187.5393L158.5192 42.9759" fill="none" stroke="#aaa" stroke-opacity="0.5" stroke-width="0.5"></path><path d="M243.8035 153.8953L127.108 174.044" fill="none" stroke="#aaa" stroke-opacity="0.5" stroke-width="0.5"></path><path d="M223.5049 107.3467L219.4942 224.3596" fill="none" stroke="#aaa" stroke-opacity="0.5" stroke-width="0.5"></path><path d="M111.7677 137.6036L158.3214 94.3444" fill="none" stroke="#aaa" stroke-opacity="0.5" stroke-width="0.5"></path><path d="M300.344 162.255L148.4264 142.6018" fill="none" stroke="#aaa" stroke-opacity="0.5" stroke-width="0.5"></path><path d="M227.6001 27.3178L158.3214 94.3444" fill="none" stroke="#aaa" stroke-opacity="0.5" stroke-width="0.5"></path><path d="M188.5337 130.8875L148.4264 142.6018" fill="none" stroke="#aaa" stroke-opacity="0.5" stroke-width="0.5"></path><path d="M281.4267 187.5393L188.5337 130.8875" fill="none" stroke="#aaa" stroke-opacity="0.5" stroke-width="0.5"></path><path d="M219.4942 224.3596L158.5192 42.9759" fill="none" stroke="#aaa" stroke-opacity="0.5" stroke-width="0.5"></path><path d="M242.0803 69.5433L148.4264 142.6018" fill="none" stroke="#aaa" stroke-opacity="0.5" stroke-width="0.5"></path><path d="M219.4942 224.3596L188.5337 130.8875" fill="none" stroke="#aaa" stroke-opacity="0.5" stroke-width="0.5"></path><path d="M132.0843 67.606L127.108 174.044" fill="none" stroke="#aaa" stroke-opacity="0.5" stroke-width="0.5"></path><path d="M227.6001 27.3178L132.0843 67.606" fill="none" stroke="#aaa" stroke-opacity="0.5" stroke-width="0.5"></path><path d="M304.4476 97.0729L263.7964 40.92" fill="none" stroke="#aaa" stroke-opacity="0.5" stroke-width="0.5"></path><path d="M223.5049 107.3467L194.8994 67.075" fill="none" stroke="#aaa" stroke-opacity="0.5" stroke-width="0.5"></path><path d="M227.6001 27.3178L259.6183 212.0783" fill="none" stroke="#aaa" stroke-opacity="0.5" stroke-width="0.5"></path><path d="M300.344 162.255L287.4864 69.0154" fill="none" stroke="#aaa" stroke-opacity="0.5" stroke-width="0.5"></path><path d="M242.0803 69.5433L287.4864 69.0154" fill="none" stroke="#aaa" stroke-opacity="0.5" stroke-width="0.5"></path><path d="M243.8035 153.8953L182.209 219.7412" fill="none" stroke="#aaa" stroke-opacity="0.5" stroke-width="0.5"></path><path d="M158.5192 42.9759L116.8784 101.4013" fill="none" stroke="#aaa" stroke-opacity="0.5" stroke-width="0.5"></path><path d="M226.0386 188.941L268.3805 116.8496" fill="none" stroke="#aaa" stroke-opacity="0.5" stroke-width="0.5"></path><path d="M194.8994 67.075L182.209 219.7412" fill="none" stroke="#aaa" stroke-opacity="0.5" stroke-width="0.5"></path><path d="M300.344 162.255L263.7964 40.92" fill="none" stroke="#aaa" stroke-opacity="0.5" stroke-width="0.5"></path><path d="M287.4864 69.0154L148.4264 142.6018" fill="none" stroke="#aaa" stroke-opacity="0.5" stroke-width="0.5"></path><path d="M304.4476 97.0729L300.344 162.255" fill="none" stroke="#aaa" stroke-opacity="0.5" stroke-width="0.5"></path><path d="M190.8855 29.4459L226.0386 188.941" fill="none" stroke="#aaa" stroke-opacity="0.5" stroke-width="0.5"></path><path d="M188.5337 130.8875L263.7964 40.92" fill="none" stroke="#aaa" stroke-opacity="0.5" stroke-width="0.5"></path><path d="M116.8784 101.4013L158.3214 94.3444" fill="none" stroke="#aaa" stroke-opacity="0.5" stroke-width="0.5"></path><path d="M132.0843 67.606L182.209 219.7412" fill="none" stroke="#aaa" stroke-opacity="0.5" stroke-width="0.5"></path><path d="M242.0803 69.5433L263.7964 40.92" fill="none" stroke="#aaa" stroke-opacity="0.5" stroke-width="0.5"></path><path d="M281.4267 187.5393L226.0386 188.941" fill="none" stroke="#aaa" stroke-opacity="0.5" stroke-width="0.5"></path><path d="M223.5049 107.3467L111.7677 137.6036" fill="none" stroke="#aaa" stroke-opacity="0.5" stroke-width="0.5"></path><path d="M219.4942 224.3596L226.0386 188.941" fill="none" stroke="#aaa" stroke-opacity="0.5" stroke-width="0.5"></path><path d="M226.0386 188.941L184.3763 177.1535" fill="none" stroke="#aaa" stroke-opacity="0.5" stroke-width="0.5"></path><path d="M243.8035 153.8953L158.3214 94.3444" fill="none" stroke="#aaa" stroke-opacity="0.5" stroke-width="0.5"></path><path d="M194.8994 67.075L158.3214 94.3444" fill="none" stroke="#aaa" stroke-opacity="0.5" stroke-width="0.5"></path><path d="M158.3214 94.3444L150.5672 201.5662" fill="none" stroke="#aaa" stroke-opacity="0.5" stroke-width="0.5"></path><path d="M158.5192 42.9759L127.108 174.044" fill="none" stroke="#aaa" stroke-opacity="0.5" stroke-width="0.5"></path><path d="M132.0843 67.606L158.3214 94.3444" fill="none" stroke="#aaa" stroke-opacity="0.5" stroke-width="0.5"></path><path d="M127.108 174.044L158.3214 94.3444" fill="none" stroke="#aaa" stroke-opacity="0.5" stroke-width="0.5"></path><path d="M263.7964 40.92L150.5672 201.5662" fill="none" stroke="#aaa" stroke-opacity="0.5" stroke-width="0.5"></path><path d="M227.6001 27.3178L158.5192 42.9759" fill="none" stroke="#aaa" stroke-opacity="0.5" stroke-width="0.5"></path><path d="M194.8994 67.075L132.0843 67.606" fill="none" stroke="#aaa" stroke-opacity="0.5" stroke-width="0.5"></path><path d="M226.0386 188.941L148.4264 142.6018" fill="none" stroke="#aaa" stroke-opacity="0.5" stroke-width="0.5"></path><path d="M227.6001 27.3178L188.5337 130.8875" fill="none" stroke="#aaa" stroke-opacity="0.5" stroke-width="0.5"></path><path d="M194.8994 67.075L259.6183 212.0783" fill="none" stroke="#aaa" stroke-opacity="0.5" stroke-width="0.5"></path><path d="M268.3805 116.8496L263.7964 40.92" fill="none" stroke="#aaa" stroke-opacity="0.5" stroke-width="0.5"></path><path d="M307.8008 131.4194L111.7677 137.6036" fill="none" stroke="#aaa" stroke-opacity="0.5" stroke-width="0.5"></path><path d="M300.344 162.255L116.8784 101.4013" fill="none" stroke="#aaa" stroke-opacity="0.5" stroke-width="0.5"></path><path d="M158.5192 42.9759L182.209 219.7412" fill="none" stroke="#aaa" stroke-opacity="0.5" stroke-width="0.5"></path><path d="M148.4264 142.6018L127.108 174.044" fill="none" stroke="#aaa" stroke-opacity="0.5" stroke-width="0.5"></path><path d="M226.0386 188.941L300.344 162.255" fill="none" stroke="#aaa" stroke-opacity="0.5" stroke-width="0.5"></path><path d="M281.4267 187.5393L148.4264 142.6018" fill="none" stroke="#aaa" stroke-opacity="0.5" stroke-width="0.5"></path><path d="M188.5337 130.8875L116.8784 101.4013" fill="none" stroke="#aaa" stroke-opacity="0.5" stroke-width="0.5"></path><path d="M259.6183 212.0783L263.7964 40.92" fill="none" stroke="#aaa" stroke-opacity="0.5" stroke-width="0.5"></path><path d="M242.0803 69.5433L116.8784 101.4013" fill="none" stroke="#aaa" stroke-opacity="0.5" stroke-width="0.5"></path><path d="M182.209 219.7412L268.3805 116.8496" fill="none" stroke="#aaa" stroke-opacity="0.5" stroke-width="0.5"></path><path d="M190.8855 29.4459L184.3763 177.1535" fill="none" stroke="#aaa" stroke-opacity="0.5" stroke-width="0.5"></path><path d="M190.8855 29.4459L287.4864 69.0154" fill="none" stroke="#aaa" stroke-opacity="0.5" stroke-width="0.5"></path><path d="M304.4476 97.0729L150.5672 201.5662" fill="none" stroke="#aaa" stroke-opacity="0.5" stroke-width="0.5"></path><path d="M184.3763 177.1535L158.3214 94.3444" fill="none" stroke="#aaa" stroke-opacity="0.5" stroke-width="0.5"></path><path d="M281.4267 187.5393L287.4864 69.0154" fill="none" stroke="#aaa" stroke-opacity="0.5" stroke-width="0.5"></path><path d="M158.5 42.9759L158.5 94.3444" fill="none" stroke="#aaa" stroke-opacity="0.5" stroke-width="0.5"></path><path d="M227.6001 27.3178L226.0386 188.941" fill="none" stroke="#aaa" stroke-opacity="0.5" stroke-width="0.5"></path><path d="M219.4942 224.3596L184.3763 177.1535" fill="none" stroke="#aaa" stroke-opacity="0.5" stroke-width="0.5"></path><path d="M219.4942 224.3596L287.4864 69.0154" fill="none" stroke="#aaa" stroke-opacity="0.5" stroke-width="0.5"></path><path d="M243.8035 153.8953L158.5192 42.9759" fill="none" stroke="#aaa" stroke-opacity="0.5" stroke-width="0.5"></path><path d="M190.8855 29.4459L263.7964 40.92" fill="none" stroke="#aaa" stroke-opacity="0.5" stroke-width="0.5"></path><path d="M300.344 162.255L127.108 174.044" fill="none" stroke="#aaa" stroke-opacity="0.5" stroke-width="0.5"></path><path d="M188.5337 130.8875L127.108 174.044" fill="none" stroke="#aaa" stroke-opacity="0.5" stroke-width="0.5"></path><path d="M194.8994 67.075L158.5192 42.9759" fill="none" stroke="#aaa" stroke-opacity="0.5" stroke-width="0.5"></path><path d="M243.8035 153.8953L188.5337 130.8875" fill="none" stroke="#aaa" stroke-opacity="0.5" stroke-width="0.5"></path><path d="M287.4864 69.0154L116.8784 101.4013" fill="none" stroke="#aaa" stroke-opacity="0.5" stroke-width="0.5"></path><path d="M281.4267 187.5393L263.7964 40.92" fill="none" stroke="#aaa" stroke-opacity="0.5" stroke-width="0.5"></path><path d="M184.3763 177.1535L259.6183 212.0783" fill="none" stroke="#aaa" stroke-opacity="0.5" stroke-width="0.5"></path><path d="M242.0803 69.5433L127.108 174.044" fill="none" stroke="#aaa" stroke-opacity="0.5" stroke-width="0.5"></path><path d="M194.8994 67.075L188.5337 130.8875" fill="none" stroke="#aaa" stroke-opacity="0.5" stroke-width="0.5"></path><path d="M219.4942 224.3596L263.7964 40.92" fill="none" stroke="#aaa" stroke-opacity="0.5" stroke-width="0.5"></path><path d="M190.8855 29.4459L307.8008 131.4194" fill="none" stroke="#aaa" stroke-opacity="0.5" stroke-width="0.5"></path><path d="M182.209 219.7412L148.4264 142.6018" fill="none" stroke="#aaa" stroke-opacity="0.5" stroke-width="0.5"></path><path d="M227.6001 27.3178L190.8855 29.4459" fill="none" stroke="#aaa" stroke-opacity="0.5" stroke-width="0.5"></path><path d="M190.8855 29.4459L242.0803 69.5433" fill="none" stroke="#aaa" stroke-opacity="0.5" stroke-width="0.5"></path><path d="M190.8855 29.4459L300.344 162.255" fill="none" stroke="#aaa" stroke-opacity="0.5" stroke-width="0.5"></path><path d="M148.4264 142.6018L158.3214 94.3444" fill="none" stroke="#aaa" stroke-opacity="0.5" stroke-width="0.5"></path><path d="M259.6183 212.0783L116.8784 101.4013" fill="none" stroke="#aaa" stroke-opacity="0.5" stroke-width="0.5"></path><path d="M281.4267 187.5393L242.0803 69.5433" fill="none" stroke="#aaa" stroke-opacity="0.5" stroke-width="0.5"></path><path d="M219.4942 224.3596L307.8008 131.4194" fill="none" stroke="#aaa" stroke-opacity="0.5" stroke-width="0.5"></path><path d="M300.344 162.255L182.209 219.7412" fill="none" stroke="#aaa" stroke-opacity="0.5" stroke-width="0.5"></path><path d="M226.0386 188.941L304.4476 97.0729" fill="none" stroke="#aaa" stroke-opacity="0.5" stroke-width="0.5"></path><path d="M188.5337 130.8875L182.209 219.7412" fill="none" stroke="#aaa" stroke-opacity="0.5" stroke-width="0.5"></path><path d="M223.5049 107.3467L268.3805 116.8496" fill="none" stroke="#aaa" stroke-opacity="0.5" stroke-width="0.5"></path><path d="M287.4864 69.0154L127.108 174.044" fill="none" stroke="#aaa" stroke-opacity="0.5" stroke-width="0.5"></path><path d="M219.4942 224.3596L300.344 162.255" fill="none" stroke="#aaa" stroke-opacity="0.5" stroke-width="0.5"></path><path d="M242.0803 69.5433L182.209 219.7412" fill="none" stroke="#aaa" stroke-opacity="0.5" stroke-width="0.5"></path><path d="M111.7677 137.6036L268.3805 116.8496" fill="none" stroke="#aaa" stroke-opacity="0.5" stroke-width="0.5"></path><path d="M226.0386 188.941L150.5672 201.5662" fill="none" stroke="#aaa" stroke-opacity="0.5" stroke-width="0.5"></path><path d="M268.3805 116.8496L127.108 174.044" fill="none" stroke="#aaa" stroke-opacity="0.5" stroke-width="0.5"></path><path d="M243.8035 153.8953L226.0386 188.941" fill="none" stroke="#aaa" stroke-opacity="0.5" stroke-width="0.5"></path><path d="M194.8994 67.075L226.0386 188.941" fill="none" stroke="#aaa" stroke-opacity="0.5" stroke-width="0.5"></path><path d="M190.8855 29.4459L116.8784 101.4013" fill="none" stroke="#aaa" stroke-opacity="0.5" stroke-width="0.5"></path><path d="M300.344 162.255L158.3214 94.3444" fill="none" stroke="#aaa" stroke-opacity="0.5" stroke-width="0.5"></path><path d="M184.3763 177.1535L158.5192 42.9759" fill="none" stroke="#aaa" stroke-opacity="0.5" stroke-width="0.5"></path><path d="M188.5337 130.8875L158.3214 94.3444" fill="none" stroke="#aaa" stroke-opacity="0.5" stroke-width="0.5"></path><path d="M259.6183 212.0783L127.108 174.044" fill="none" stroke="#aaa" stroke-opacity="0.5" stroke-width="0.5"></path><path d="M111.7677 137.6036L184.3763 177.1535" fill="none" stroke="#aaa" stroke-opacity="0.5" stroke-width="0.5"></path><path d="M227.6001 27.3178L184.3763 177.1535" fill="none" stroke="#aaa" stroke-opacity="0.5" stroke-width="0.5"></path><path d="M184.3763 177.1535L188.5337 130.8875" fill="none" stroke="#aaa" stroke-opacity="0.5" stroke-width="0.5"></path><path d="M242.0803 69.5433L158.3214 94.3444" fill="none" stroke="#aaa" stroke-opacity="0.5" stroke-width="0.5"></path><path d="M281.4267 187.5393L116.8784 101.4013" fill="none" stroke="#aaa" stroke-opacity="0.5" stroke-width="0.5"></path><path d="M227.6001 27.3178L287.4864 69.0154" fill="none" stroke="#aaa" stroke-opacity="0.5" stroke-width="0.5"></path><path d="M287.4864 69.0154L182.209 219.7412" fill="none" stroke="#aaa" stroke-opacity="0.5" stroke-width="0.5"></path><path d="M158.5192 42.9759L188.5337 130.8875" fill="none" stroke="#aaa" stroke-opacity="0.5" stroke-width="0.5"></path><path d="M259.6183 212.0783L150.5672 201.5662" fill="none" stroke="#aaa" stroke-opacity="0.5" stroke-width="0.5"></path><path d="M307.8008 131.4194L268.3805 116.8496" fill="none" stroke="#aaa" stroke-opacity="0.5" stroke-width="0.5"></path><path d="M243.8035 153.8953L190.8855 29.4459" fill="none" stroke="#aaa" stroke-opacity="0.5" stroke-width="0.5"></path><path d="M219.4942 224.3596L116.8784 101.4013" fill="none" stroke="#aaa" stroke-opacity="0.5" stroke-width="0.5"></path><path d="M194.8994 67.075L190.8855 29.4459" fill="none" stroke="#aaa" stroke-opacity="0.5" stroke-width="0.5"></path><path d="M223.5049 107.3467L148.4264 142.6018" fill="none" stroke="#aaa" stroke-opacity="0.5" stroke-width="0.5"></path><path d="M116.8784 101.4013L268.3805 116.8496" fill="none" stroke="#aaa" stroke-opacity="0.5" stroke-width="0.5"></path><path d="M227.6001 27.3178L263.7964 40.92" fill="none" stroke="#aaa" stroke-opacity="0.5" stroke-width="0.5"></path><path d="M190.8855 29.4459L304.4476 97.0729" fill="none" stroke="#aaa" stroke-opacity="0.5" stroke-width="0.5"></path><path d="M190.8855 29.4459L127.108 174.044" fill="none" stroke="#aaa" stroke-opacity="0.5" stroke-width="0.5"></path><path d="M223.5049 107.3467L227.6001 27.3178" fill="none" stroke="#aaa" stroke-opacity="0.5" stroke-width="0.5"></path><path d="M287.4864 69.0154L158.3214 94.3444" fill="none" stroke="#aaa" stroke-opacity="0.5" stroke-width="0.5"></path><path d="M243.8035 153.8953L268.3805 116.8496" fill="none" stroke="#aaa" stroke-opacity="0.5" stroke-width="0.5"></path><path d="M281.4267 187.5393L127.108 174.044" fill="none" stroke="#aaa" stroke-opacity="0.5" stroke-width="0.5"></path><path d="M227.6001 27.3178L307.8008 131.4194" fill="none" stroke="#aaa" stroke-opacity="0.5" stroke-width="0.5"></path><path d="M190.8855 29.4459L150.5672 201.5662" fill="none" stroke="#aaa" stroke-opacity="0.5" stroke-width="0.5"></path><path d="M219.4942 224.3596L304.4476 97.0729" fill="none" stroke="#aaa" stroke-opacity="0.5" stroke-width="0.5"></path><path d="M111.7677 137.6036L300.344 162.255" fill="none" stroke="#aaa" stroke-opacity="0.5" stroke-width="0.5"></path><path d="M219.4942 224.3596L127.108 174.044" fill="none" stroke="#aaa" stroke-opacity="0.5" stroke-width="0.5"></path><path d="M268.3805 116.8496L158.3214 94.3444" fill="none" stroke="#aaa" stroke-opacity="0.5" stroke-width="0.5"></path><path d="M227.6001 27.3178L300.344 162.255" fill="none" stroke="#aaa" stroke-opacity="0.5" stroke-width="0.5"></path><path d="M132.0843 67.606L268.3805 116.8496" fill="none" stroke="#aaa" stroke-opacity="0.5" stroke-width="0.5"></path><path d="M307.8008 131.4194L148.4264 142.6018" fill="none" stroke="#aaa" stroke-opacity="0.5" stroke-width="0.5"></path><path d="M219.4942 224.3596L150.5672 201.5662" fill="none" stroke="#aaa" stroke-opacity="0.5" stroke-width="0.5"></path><path d="M182.209 219.7412L150.5672 201.5662" fill="none" stroke="#aaa" stroke-opacity="0.5" stroke-width="0.5"></path><path d="M243.8035 153.8953L184.3763 177.1535" fill="none" stroke="#aaa" stroke-opacity="0.5" stroke-width="0.5"></path><path d="M194.8994 67.075L184.3763 177.1535" fill="none" stroke="#aaa" stroke-opacity="0.5" stroke-width="0.5"></path><path d="M116.8784 101.4013L148.4264 142.6018" fill="none" stroke="#aaa" stroke-opacity="0.5" stroke-width="0.5"></path><path d="M194.8994 67.075L287.4864 69.0154" fill="none" stroke="#aaa" stroke-opacity="0.5" stroke-width="0.5"></path><path d="M281.4267 187.5393L182.209 219.7412" fill="none" stroke="#aaa" stroke-opacity="0.5" stroke-width="0.5"></path><path d="M132.0843 67.606L184.3763 177.1535" fill="none" stroke="#aaa" stroke-opacity="0.5" stroke-width="0.5"></path><path d="M307.8008 131.4194L287.4864 69.0154" fill="none" stroke="#aaa" stroke-opacity="0.5" stroke-width="0.5"></path><path d="M243.8035 153.8953L263.7964 40.92" fill="none" stroke="#aaa" stroke-opacity="0.5" stroke-width="0.5"></path><path d="M242.0803 69.5433L158.5192 42.9759" fill="none" stroke="#aaa" stroke-opacity="0.5" stroke-width="0.5"></path><path d="M223.5049 107.3467L242.0803 69.5433" fill="none" stroke="#aaa" stroke-opacity="0.5" stroke-width="0.5"></path><path d="M194.8994 67.075L263.7964 40.92" fill="none" stroke="#aaa" stroke-opacity="0.5" stroke-width="0.5"></path><path d="M242.0803 69.5433L188.5337 130.8875" fill="none" stroke="#aaa" stroke-opacity="0.5" stroke-width="0.5"></path><path d="M226.0386 188.941L259.6183 212.0783" fill="none" stroke="#aaa" stroke-opacity="0.5" stroke-width="0.5"></path><path d="M190.8855 29.4459L219.4942 224.3596" fill="none" stroke="#aaa" stroke-opacity="0.5" stroke-width="0.5"></path><path d="M132.0843 67.606L148.4264 142.6018" fill="none" stroke="#aaa" stroke-opacity="0.5" stroke-width="0.5"></path><path d="M243.8035 153.8953L307.8008 131.4194" fill="none" stroke="#aaa" stroke-opacity="0.5" stroke-width="0.5"></path><path d="M281.4267 187.5393L158.3214 94.3444" fill="none" stroke="#aaa" stroke-opacity="0.5" stroke-width="0.5"></path><path d="M194.8994 67.075L307.8008 131.4194" fill="none" stroke="#aaa" stroke-opacity="0.5" stroke-width="0.5"></path><path d="M223.5049 107.3467L243.8035 153.8953" fill="none" stroke="#aaa" stroke-opacity="0.5" stroke-width="0.5"></path><path d="M243.8035 153.8953L300.344 162.255" fill="none" stroke="#aaa" stroke-opacity="0.5" stroke-width="0.5"></path><path d="M158.5192 42.9759L268.3805 116.8496" fill="none" stroke="#aaa" stroke-opacity="0.5" stroke-width="0.5"></path><path d="M194.8994 67.075L300.344 162.255" fill="none" stroke="#aaa" stroke-opacity="0.5" stroke-width="0.5"></path><path d="M132.0843 67.606L307.8008 131.4194" fill="none" stroke="#aaa" stroke-opacity="0.5" stroke-width="0.5"></path><path d="M111.7677 137.6036L304.4476 97.0729" fill="none" stroke="#aaa" stroke-opacity="0.5" stroke-width="0.5"></path><path d="M227.6001 27.3178L304.4476 97.0729" fill="none" stroke="#aaa" stroke-opacity="0.5" stroke-width="0.5"></path><path d="M287.4864 69.0154L188.5337 130.8875" fill="none" stroke="#aaa" stroke-opacity="0.5" stroke-width="0.5"></path><path d="M223.5049 107.3467L116.8784 101.4013" fill="none" stroke="#aaa" stroke-opacity="0.5" stroke-width="0.5"></path><path d="M307.8008 131.4194L242.0803 69.5433" fill="none" stroke="#aaa" stroke-opacity="0.5" stroke-width="0.5"></path><path d="M132.0843 67.606L300.344 162.255" fill="none" stroke="#aaa" stroke-opacity="0.5" stroke-width="0.5"></path><path d="M111.7677 137.6036L150.5672 201.5662" fill="none" stroke="#aaa" stroke-opacity="0.5" stroke-width="0.5"></path><path d="M184.3763 177.1535L287.4864 69.0154" fill="none" stroke="#aaa" stroke-opacity="0.5" stroke-width="0.5"></path><path d="M227.6001 27.3178L150.5672 201.5662" fill="none" stroke="#aaa" stroke-opacity="0.5" stroke-width="0.5"></path><path d="M223.5049 107.3467L281.4267 187.5393" fill="none" stroke="#aaa" stroke-opacity="0.5" stroke-width="0.5"></path><path d="M184.3763 177.1535L263.7964 40.92" fill="none" stroke="#aaa" stroke-opacity="0.5" stroke-width="0.5"></path><path d="M263.7964 40.92L148.4264 142.6018" fill="none" stroke="#aaa" stroke-opacity="0.5" stroke-width="0.5"></path><path d="M158.5192 42.9759L263.7964 40.92" fill="none" stroke="#aaa" stroke-opacity="0.5" stroke-width="0.5"></path><path d="M226.0386 188.941L158.5192 42.9759" fill="none" stroke="#aaa" stroke-opacity="0.5" stroke-width="0.5"></path><path d="M190.8855 29.4459L111.7677 137.6036" fill="none" stroke="#aaa" stroke-opacity="0.5" stroke-width="0.5"></path><path d="M304.4476 97.0729L268.3805 116.8496" fill="none" stroke="#aaa" stroke-opacity="0.5" stroke-width="0.5"></path><path d="M226.0386 188.941L188.5337 130.8875" fill="none" stroke="#aaa" stroke-opacity="0.5" stroke-width="0.5"></path><path d="M307.8008 131.4194L116.8784 101.4013" fill="none" stroke="#aaa" stroke-opacity="0.5" stroke-width="0.5"></path><path d="M219.4942 224.3596L111.7677 137.6036" fill="none" stroke="#aaa" stroke-opacity="0.5" stroke-width="0.5"></path><path d="M116.8784 101.4013L150.5672 201.5662" fill="none" stroke="#aaa" stroke-opacity="0.5" stroke-width="0.5"></path><path d="M243.8035 153.8953L304.4476 97.0729" fill="none" stroke="#aaa" stroke-opacity="0.5" stroke-width="0.5"></path><path d="M300.344 162.255L268.3805 116.8496" fill="none" stroke="#aaa" stroke-opacity="0.5" stroke-width="0.5"></path><path d="M194.8994 67.075L304.4476 97.0729" fill="none" stroke="#aaa" stroke-opacity="0.5" stroke-width="0.5"></path><path d="M188.5337 130.8875L268.3805 116.8496" fill="none" stroke="#aaa" stroke-opacity="0.5" stroke-width="0.5"></path><path d="M194.8994 67.075L127.108 174.044" fill="none" stroke="#aaa" stroke-opacity="0.5" stroke-width="0.5"></path><path d="M242.0803 69.5433L268.3805 116.8496" fill="none" stroke="#aaa" stroke-opacity="0.5" stroke-width="0.5"></path><path d="M227.6001 27.3178L219.4942 224.3596" fill="none" stroke="#aaa" stroke-opacity="0.5" stroke-width="0.5"></path><path d="M223.5049 107.3467L182.209 219.7412" fill="none" stroke="#aaa" stroke-opacity="0.5" stroke-width="0.5"></path><path d="M243.8035 153.8953L150.5672 201.5662" fill="none" stroke="#aaa" stroke-opacity="0.5" stroke-width="0.5"></path><path d="M132.0843 67.606L304.4476 97.0729" fill="none" stroke="#aaa" stroke-opacity="0.5" stroke-width="0.5"></path><path d="M194.8994 67.075L150.5672 201.5662" fill="none" stroke="#aaa" stroke-opacity="0.5" stroke-width="0.5"></path><path d="M307.8008 131.4194L127.108 174.044" fill="none" stroke="#aaa" stroke-opacity="0.5" stroke-width="0.5"></path><path d="M304.4476 97.0729L148.4264 142.6018" fill="none" stroke="#aaa" stroke-opacity="0.5" stroke-width="0.5"></path><path d="M300.344 162.255L184.3763 177.1535" fill="none" stroke="#aaa" stroke-opacity="0.5" stroke-width="0.5"></path><path d="M132.0843 67.606L150.5672 201.5662" fill="none" stroke="#aaa" stroke-opacity="0.5" stroke-width="0.5"></path><path d="M127.108 174.044L150.5672 201.5662" fill="none" stroke="#aaa" stroke-opacity="0.5" stroke-width="0.5"></path><path d="M227.6001 27.3178L194.8994 67.075" fill="none" stroke="#aaa" stroke-opacity="0.5" stroke-width="0.5"></path><path d="M184.3763 177.1535L116.8784 101.4013" fill="none" stroke="#aaa" stroke-opacity="0.5" stroke-width="0.5"></path><path d="M242.0803 69.5433L184.3763 177.1535" fill="none" stroke="#aaa" stroke-opacity="0.5" stroke-width="0.5"></path><path d="M243.8035 153.8953L281.4267 187.5393" fill="none" stroke="#aaa" stroke-opacity="0.5" stroke-width="0.5"></path><path d="M223.5049 107.3467L158.3214 94.3444" fill="none" stroke="#aaa" stroke-opacity="0.5" stroke-width="0.5"></path><path d="M287.4864 69.0154L268.3805 116.8496" fill="none" stroke="#aaa" stroke-opacity="0.5" stroke-width="0.5"></path><path d="M304.4476 97.0729L287.4864 69.0154" fill="none" stroke="#aaa" stroke-opacity="0.5" stroke-width="0.5"></path><path d="M307.8008 131.4194L182.209 219.7412" fill="none" stroke="#aaa" stroke-opacity="0.5" stroke-width="0.5"></path><path d="M223.5049 107.3467L132.0843 67.606" fill="none" stroke="#aaa" stroke-opacity="0.5" stroke-width="0.5"></path><path d="M223.5049 107.3467L259.6183 212.0783" fill="none" stroke="#aaa" stroke-opacity="0.5" stroke-width="0.5"></path><path d="M111.7677 137.6036L259.6183 212.0783" fill="none" stroke="#aaa" stroke-opacity="0.5" stroke-width="0.5"></path><path d="M227.6001 27.3178L111.7677 137.6036" fill="none" stroke="#aaa" stroke-opacity="0.5" stroke-width="0.5"></path><path d="M259.6183 212.0783L268.3805 116.8496" fill="none" stroke="#aaa" stroke-opacity="0.5" stroke-width="0.5"></path><path d="M184.3763 177.1535L127.108 174.044" fill="none" stroke="#aaa" stroke-opacity="0.5" stroke-width="0.5"></path><path d="M243.8035 153.8953L219.4942 224.3596" fill="none" stroke="#aaa" stroke-opacity="0.5" stroke-width="0.5"></path><path d="M194.8994 67.075L219.4942 224.3596" fill="none" stroke="#aaa" stroke-opacity="0.5" stroke-width="0.5"></path><path d="M184.3763 177.1535L150.5672 201.5662" fill="none" stroke="#aaa" stroke-opacity="0.5" stroke-width="0.5"></path><path d="M242.0803 69.5433L300.344 162.255" fill="none" stroke="#aaa" stroke-opacity="0.5" stroke-width="0.5"></path><path d="M307.8008 131.4194L158.3214 94.3444" fill="none" stroke="#aaa" stroke-opacity="0.5" stroke-width="0.5"></path><path d="M158.5192 42.9759L150.5672 201.5662" fill="none" stroke="#aaa" stroke-opacity="0.5" stroke-width="0.5"></path><path d="M287.4864 69.0154L263.7964 40.92" fill="none" stroke="#aaa" stroke-opacity="0.5" stroke-width="0.5"></path><path d="M190.8855 29.4459L268.3805 116.8496" fill="none" stroke="#aaa" stroke-opacity="0.5" stroke-width="0.5"></path><path d="M268.3805 116.8496L148.4264 142.6018" fill="none" stroke="#aaa" stroke-opacity="0.5" stroke-width="0.5"></path><path d="M307.8008 131.4194L259.6183 212.0783" fill="none" stroke="#aaa" stroke-opacity="0.5" stroke-width="0.5"></path><path d="M184.3763 177.1535L182.209 219.7412" fill="none" stroke="#aaa" stroke-opacity="0.5" stroke-width="0.5"></path><path d="M281.4267 187.5393L268.3805 116.8496" fill="none" stroke="#aaa" stroke-opacity="0.5" stroke-width="0.5"></path><path d="M226.0386 188.941L287.4864 69.0154" fill="none" stroke="#aaa" stroke-opacity="0.5" stroke-width="0.5"></path><path d="M259.6183 212.0783L148.4264 142.6018" fill="none" stroke="#aaa" stroke-opacity="0.5" stroke-width="0.5"></path><path d="M263.7964 40.92L127.108 174.044" fill="none" stroke="#aaa" stroke-opacity="0.5" stroke-width="0.5"></path><path d="M219.4942 224.3596L268.3805 116.8496" fill="none" stroke="#aaa" stroke-opacity="0.5" stroke-width="0.5"></path><path d="M223.5049 107.3467L158.5192 42.9759" fill="none" stroke="#aaa" stroke-opacity="0.5" stroke-width="0.5"></path><path d="M148.4264 142.6018L150.5672 201.5662" fill="none" stroke="#aaa" stroke-opacity="0.5" stroke-width="0.5"></path><path d="M243.8035 153.8953L132.0843 67.606" fill="none" stroke="#aaa" stroke-opacity="0.5" stroke-width="0.5"></path><path d="M111.7677 137.6036L158.5192 42.9759" fill="none" stroke="#aaa" stroke-opacity="0.5" stroke-width="0.5"></path><path d="M223.5049 107.3467L188.5337 130.8875" fill="none" stroke="#aaa" stroke-opacity="0.5" stroke-width="0.5"></path><path d="M226.0386 188.941L263.7964 40.92" fill="none" stroke="#aaa" stroke-opacity="0.5" stroke-width="0.5"></path><path d="M243.8035 153.8953L111.7677 137.6036" fill="none" stroke="#aaa" stroke-opacity="0.5" stroke-width="0.5"></path><path d="M304.4476 97.0729L116.8784 101.4013" fill="none" stroke="#aaa" stroke-opacity="0.5" stroke-width="0.5"></path><path d="M243.8035 153.8953L259.6183 212.0783" fill="none" stroke="#aaa" stroke-opacity="0.5" stroke-width="0.5"></path><path d="M111.7677 137.6036L188.5337 130.8875" fill="none" stroke="#aaa" stroke-opacity="0.5" stroke-width="0.5"></path><path d="M194.8994 67.075L111.7677 137.6036" fill="none" stroke="#aaa" stroke-opacity="0.5" stroke-width="0.5"></path><path d="M281.4267 187.5393L184.3763 177.1535" fill="none" stroke="#aaa" stroke-opacity="0.5" stroke-width="0.5"></path><path d="M132.0843 67.606L111.7677 137.6036" fill="none" stroke="#aaa" stroke-opacity="0.5" stroke-width="0.5"></path><path d="M132.0843 67.606L259.6183 212.0783" fill="none" stroke="#aaa" stroke-opacity="0.5" stroke-width="0.5"></path><path d="M190.8855 29.4459L148.4264 142.6018" fill="none" stroke="#aaa" stroke-opacity="0.5" stroke-width="0.5"></path><path d="M242.0803 69.5433L304.4476 97.0729" fill="none" stroke="#aaa" stroke-opacity="0.5" stroke-width="0.5"></path><path d="M300.344 162.255L150.5672 201.5662" fill="none" stroke="#aaa" stroke-opacity="0.5" stroke-width="0.5"></path><path d="M188.5337 130.8875L150.5672 201.5662" fill="none" stroke="#aaa" stroke-opacity="0.5" stroke-width="0.5"></path><path d="M307.8008 131.4194L158.5192 42.9759" fill="none" stroke="#aaa" stroke-opacity="0.5" stroke-width="0.5"></path><path d="M219.4942 224.3596L148.4264 142.6018" fill="none" stroke="#aaa" stroke-opacity="0.5" stroke-width="0.5"></path><path d="M304.4476 97.0729L127.108 174.044" fill="none" stroke="#aaa" stroke-opacity="0.5" stroke-width="0.5"></path><path d="M242.0803 69.5433L150.5672 201.5662" fill="none" stroke="#aaa" stroke-opacity="0.5" stroke-width="0.5"></path><path d="M307.8008 131.4194L188.5337 130.8875" fill="none" stroke="#aaa" stroke-opacity="0.5" stroke-width="0.5"></path><path d="M281.4267 187.5393L307.8008 131.4194" fill="none" stroke="#aaa" stroke-opacity="0.5" stroke-width="0.5"></path><path d="M223.5049 107.3467L226.0386 188.941" fill="none" stroke="#aaa" stroke-opacity="0.5" stroke-width="0.5"></path><path d="M263.7964 40.92L158.3214 94.3444" fill="none" stroke="#aaa" stroke-opacity="0.5" stroke-width="0.5"></path><path d="M281.4267 187.5393L300.344 162.255" fill="none" stroke="#aaa" stroke-opacity="0.5" stroke-width="0.5"></path><path d="M111.7677 137.6036L226.0386 188.941" fill="none" stroke="#aaa" stroke-opacity="0.5" stroke-width="0.5"></path><path d="M227.6001 27.3178L268.3805 116.8496" fill="none" stroke="#aaa" stroke-opacity="0.5" stroke-width="0.5"></path><path d="M226.0386 188.941L116.8784 101.4013" fill="none" stroke="#aaa" stroke-opacity="0.5" stroke-width="0.5"></path><path d="M287.4864 69.0154L150.5672 201.5662" fill="none" stroke="#aaa" stroke-opacity="0.5" stroke-width="0.5"></path><path d="M304.4476 97.0729L182.209 219.7412" fill="none" stroke="#aaa" stroke-opacity="0.5" stroke-width="0.5"></path><path d="M223.5049 107.3467L190.8855 29.4459" fill="none" stroke="#aaa" stroke-opacity="0.5" stroke-width="0.5"></path><path d="M132.0843 67.606L158.5192 42.9759" fill="none" stroke="#aaa" stroke-opacity="0.5" stroke-width="0.5"></path><path d="M158.5192 42.9759L259.6183 212.0783" fill="none" stroke="#aaa" stroke-opacity="0.5" stroke-width="0.5"></path><path d="M182.209 219.7412L263.7964 40.92" fill="none" stroke="#aaa" stroke-opacity="0.5" stroke-width="0.5"></path><path d="M132.0843 67.606L188.5337 130.8875" fill="none" stroke="#aaa" stroke-opacity="0.5" stroke-width="0.5"></path><path d="M268.3805 116.8496L150.5672 201.5662" fill="none" stroke="#aaa" stroke-opacity="0.5" stroke-width="0.5"></path><path d="M307.8008 131.4194L226.0386 188.941" fill="none" stroke="#aaa" stroke-opacity="0.5" stroke-width="0.5"></path><path d="M304.4476 97.0729L158.3214 94.3444" fill="none" stroke="#aaa" stroke-opacity="0.5" stroke-width="0.5"></path><path d="M226.0386 188.941L127.108 174.044" fill="none" stroke="#aaa" stroke-opacity="0.5" stroke-width="0.5"></path><path d="M219.4942 224.3596L242.0803 69.5433" fill="none" stroke="#aaa" stroke-opacity="0.5" stroke-width="0.5"></path><path d="M111.7677 137.6036L148.4264 142.6018" fill="none" stroke="#aaa" stroke-opacity="0.5" stroke-width="0.5"></path><path d="M227.6001 27.3178L148.4264 142.6018" fill="none" stroke="#aaa" stroke-opacity="0.5" stroke-width="0.5"></path><path d="M304.4476 97.0729L259.6183 212.0783" fill="none" stroke="#aaa" stroke-opacity="0.5" stroke-width="0.5"></path><path d="M281.4267 187.5393L304.4476 97.0729" fill="none" stroke="#aaa" stroke-opacity="0.5" stroke-width="0.5"></path><path d="M223.5049 107.3467L184.3763 177.1535" fill="none" stroke="#aaa" stroke-opacity="0.5" stroke-width="0.5"></path><path d="M223.5049 107.3467L287.4864 69.0154" fill="none" stroke="#aaa" stroke-opacity="0.5" stroke-width="0.5"></path><path d="M194.8994 67.075L268.3805 116.8496" fill="none" stroke="#aaa" stroke-opacity="0.5" stroke-width="0.5"></path><path d="M111.7677 137.6036L287.4864 69.0154" fill="none" stroke="#aaa" stroke-opacity="0.5" stroke-width="0.5"></path><path d="M132.0843 67.606L226.0386 188.941" fill="none" stroke="#aaa" stroke-opacity="0.5" stroke-width="0.5"></path><path d="M226.0386 188.941L182.209 219.7412" fill="none" stroke="#aaa" stroke-opacity="0.5" stroke-width="0.5"></path><path d="M281.4267 187.5393L150.5672 201.5662" fill="none" stroke="#aaa" stroke-opacity="0.5" stroke-width="0.5"></path><path d="M182.209 219.7412L116.8784 101.4013" fill="none" stroke="#aaa" stroke-opacity="0.5" stroke-width="0.5"></path><path d="M223.5049 107.3467L263.7964 40.92" fill="none" stroke="#aaa" stroke-opacity="0.5" stroke-width="0.5"></path><path d="M300.344 162.255L259.6183 212.0783" fill="none" stroke="#aaa" stroke-opacity="0.5" stroke-width="0.5"></path><path d="M188.5337 130.8875L259.6183 212.0783" fill="none" stroke="#aaa" stroke-opacity="0.5" stroke-width="0.5"></path><path d="M111.7677 137.6036L263.7964 40.92" fill="none" stroke="#aaa" stroke-opacity="0.5" stroke-width="0.5"></path><path d="M190.8855 29.4459L281.4267 187.5393" fill="none" stroke="#aaa" stroke-opacity="0.5" stroke-width="0.5"></path><path d="M242.0803 69.5433L259.6183 212.0783" fill="none" stroke="#aaa" stroke-opacity="0.5" stroke-width="0.5"></path><path d="M223.5049 107.3467L307.8008 131.4194" fill="none" stroke="#aaa" stroke-opacity="0.5" stroke-width="0.5"></path><path d="M259.6183 212.0783L182.209 219.7412" fill="none" stroke="#aaa" stroke-opacity="0.5" stroke-width="0.5"></path><path d="M226.0386 188.941L158.3214 94.3444" fill="none" stroke="#aaa" stroke-opacity="0.5" stroke-width="0.5"></path><path d="M307.8008 131.4194L184.3763 177.1535" fill="none" stroke="#aaa" stroke-opacity="0.5" stroke-width="0.5"></path><path d="M219.4942 224.3596L281.4267 187.5393" fill="none" stroke="#aaa" stroke-opacity="0.5" stroke-width="0.5"></path><path d="M243.8035 153.8953L148.4264 142.6018" fill="none" stroke="#aaa" stroke-opacity="0.5" stroke-width="0.5"></path><path d="M223.5049 107.3467L300.344 162.255" fill="none" stroke="#aaa" stroke-opacity="0.5" stroke-width="0.5"></path><path d="M111.7677 137.6036L242.0803 69.5433" fill="none" stroke="#aaa" stroke-opacity="0.5" stroke-width="0.5"></path><path d="M194.8994 67.075L148.4264 142.6018" fill="none" stroke="#aaa" stroke-opacity="0.5" stroke-width="0.5"></path><path d="M227.6001 27.3178L242.0803 69.5433" fill="none" stroke="#aaa" stroke-opacity="0.5" stroke-width="0.5"></path><path d="M304.4476 97.0729L158.5192 42.9759" fill="none" stroke="#aaa" stroke-opacity="0.5" stroke-width="0.5"></path><path d="M182.209 219.7412L127.108 174.044" fill="none" stroke="#aaa" stroke-opacity="0.5" stroke-width="0.5"></path><path d="M307.8008 131.4194L263.7964 40.92" fill="none" stroke="#aaa" stroke-opacity="0.5" stroke-width="0.5"></path><path d="M304.4476 97.0729L188.5337 130.8875" fill="none" stroke="#aaa" stroke-opacity="0.5" stroke-width="0.5"></path><path d="M287.4864 69.0154L259.6183 212.0783" fill="none" stroke="#aaa" stroke-opacity="0.5" stroke-width="0.5"></path><path d="M259.6183 212.0783L158.3214 94.3444" fill="none" stroke="#aaa" stroke-opacity="0.5" stroke-width="0.5"></path><path d="M184.3763 177.1535L268.3805 116.8496" fill="none" stroke="#aaa" stroke-opacity="0.5" stroke-width="0.5"></path><path d="M243.8035 153.8953L287.4864 69.0154" fill="none" stroke="#aaa" stroke-opacity="0.5" stroke-width="0.5"></path><path d="M190.8855 29.4459L182.209 219.7412" fill="none" stroke="#aaa" stroke-opacity="0.5" stroke-width="0.5"></path><path d="M116.8784 101.4013L263.7964 40.92" fill="none" stroke="#aaa" stroke-opacity="0.5" stroke-width="0.5"></path><path d="M227.6001 27.3178L243.8035 153.8953" fill="none" stroke="#aaa" stroke-opacity="0.5" stroke-width="0.5"></path><path d="M300.344 162.255L158.5192 42.9759" fill="none" stroke="#aaa" stroke-opacity="0.5" stroke-width="0.5"></path><path d="M300.344 162.255L188.5337 130.8875" fill="none" stroke="#aaa" stroke-opacity="0.5" stroke-width="0.5"></path><path d="M132.0843 67.606L287.4864 69.0154" fill="none" stroke="#aaa" stroke-opacity="0.5" stroke-width="0.5"></path><path d="M1 0A1 1 0 1 1 1 -0.0001" fill="#5470c6" transform="matrix(17.5,0,0,17.5,281.4267,187.5393)"></path><path d="M1 0A1 1 0 1 1 1 -0.0001" fill="#5470c6" transform="matrix(17.5,0,0,17.5,268.3805,116.8496)"></path><path d="M1 0A1 1 0 1 1 1 -0.0001" fill="#5470c6" transform="matrix(17.5,0,0,17.5,307.8008,131.4194)"></path><path d="M1 0A1 1 0 1 1 1 -0.0001" fill="#5470c6" transform="matrix(17.5,0,0,17.5,300.344,162.255)"></path><path d="M1 0A1 1 0 1 1 1 -0.0001" fill="#5470c6" transform="matrix(17.5,0,0,17.5,259.6183,212.0783)"></path><path d="M1 0A1 1 0 1 1 1 -0.0001" fill="#5470c6" transform="matrix(17.5,0,0,17.5,219.4942,224.3596)"></path><path d="M1 0A1 1 0 1 1 1 -0.0001" fill="#5470c6" transform="matrix(17.5,0,0,17.5,182.209,219.7412)"></path><path d="M1 0A1 1 0 1 1 1 -0.0001" fill="#5470c6" transform="matrix(17.5,0,0,17.5,188.5337,130.8875)"></path><path d="M1 0A1 1 0 1 1 1 -0.0001" fill="#5470c6" transform="matrix(17.5,0,0,17.5,150.5672,201.5662)"></path><path d="M1 0A1 1 0 1 1 1 -0.0001" fill="#5470c6" transform="matrix(17.5,0,0,17.5,226.0386,188.941)"></path><path d="M1 0A1 1 0 1 1 1 -0.0001" fill="#5470c6" transform="matrix(17.5,0,0,17.5,184.3763,177.1535)"></path><path d="M1 0A1 1 0 1 1 1 -0.0001" fill="#5470c6" transform="matrix(17.5,0,0,17.5,127.108,174.044)"></path><path d="M1 0A1 1 0 1 1 1 -0.0001" fill="#5470c6" transform="matrix(17.5,0,0,17.5,148.4264,142.6018)"></path><path d="M1 0A1 1 0 1 1 1 -0.0001" fill="#5470c6" transform="matrix(17.5,0,0,17.5,111.7677,137.6036)"></path><path d="M1 0A1 1 0 1 1 1 -0.0001" fill="#5470c6" transform="matrix(17.5,0,0,17.5,116.8784,101.4013)"></path><path d="M1 0A1 1 0 1 1 1 -0.0001" fill="#5470c6" transform="matrix(17.5,0,0,17.5,132.0843,67.606)"></path><path d="M1 0A1 1 0 1 1 1 -0.0001" fill="#5470c6" transform="matrix(17.5,0,0,17.5,194.8994,67.075)"></path><path d="M1 0A1 1 0 1 1 1 -0.0001" fill="#5470c6" transform="matrix(17.5,0,0,17.5,158.3214,94.3444)"></path><path d="M1 0A1 1 0 1 1 1 -0.0001" fill="#5470c6" transform="matrix(17.5,0,0,17.5,158.5192,42.9759)"></path><path d="M1 0A1 1 0 1 1 1 -0.0001" fill="#5470c6" transform="matrix(17.5,0,0,17.5,190.8855,29.4459)"></path><path d="M1 0A1 1 0 1 1 1 -0.0001" fill="#5470c6" transform="matrix(17.5,0,0,17.5,227.6001,27.3178)"></path><path d="M1 0A1 1 0 1 1 1 -0.0001" fill="#5470c6" transform="matrix(17.5,0,0,17.5,242.0803,69.5433)"></path><path d="M1 0A1 1 0 1 1 1 -0.0001" fill="#5470c6" transform="matrix(17.5,0,0,17.5,263.7964,40.92)"></path><path d="M1 0A1 1 0 1 1 1 -0.0001" fill="#5470c6" transform="matrix(17.5,0,0,17.5,223.5049,107.3467)"></path><path d="M1 0A1 1 0 1 1 1 -0.0001" fill="#5470c6" transform="matrix(17.5,0,0,17.5,287.4864,69.0154)"></path><path d="M1 0A1 1 0 1 1 1 -0.0001" fill="#5470c6" transform="matrix(17.5,0,0,17.5,243.8035,153.8953)"></path><path d="M1 0A1 1 0 1 1 1 -0.0001" fill="#5470c6" transform="matrix(17.5,0,0,17.5,304.4476,97.0729)"></path><path d="M-25.1792 -5l50.3584 0l0 32l-50.3584 0Z" fill="rgb(0,0,0)" fill-opacity="0" stroke="#ccc" stroke-width="0" transform="translate(237.5 5)"></path><text dominant-baseline="central" fill="#333" style="font-size:22px;font-family:sans-serif;font-weight:bolder;" text-anchor="middle" transform="translate(237.5 5)" y="11">C84</text></g></svg>