<svg baseprofile="full" height="250" style="position:absolute;left:0;top:0;user-select:none" version="1.1" width="475" xmlns="http://www.w3.org/2000/svg" xmlns:xlink="http://www.w3.org/1999/xlink"><rect fill="none" height="250" id="0" width="475" x="0" y="0"></rect><g><path d="M280.5617 194.3426L248.0396 215.24" fill="none" stroke="#aaa" stroke-opacity="0.5" stroke-width="0.5"></path><path d="M147.324 99.2269L235.6489 70.7762" fill="none" stroke="#aaa" stroke-opacity="0.5" stroke-width="0.5"></path><path d="M255.5722 158.9474L300.2778 82.3382" fill="none" stroke="#aaa" stroke-opacity="0.5" stroke-width="0.5"></path><path d="M255.5722 158.9474L186.1164 73.9003" fill="none" stroke="#aaa" stroke-opacity="0.5" stroke-width="0.5"></path><path d="M130.2494 186.443L168.4808 215.3729" fill="none" stroke="#aaa" stroke-opacity="0.5" stroke-width="0.5"></path><path d="M223.3557 119.1823L176.1008 133.6862" fill="none" stroke="#aaa" stroke-opacity="0.5" stroke-width="0.5"></path><path d="M208.9024 222.8339L248.0396 215.24" fill="none" stroke="#aaa" stroke-opacity="0.5" stroke-width="0.5"></path><path d="M308.672 123.5971L300.2778 82.3382" fill="none" stroke="#aaa" stroke-opacity="0.5" stroke-width="0.5"></path><path d="M308.672 123.5971L186.1164 73.9003" fill="none" stroke="#aaa" stroke-opacity="0.5" stroke-width="0.5"></path><path d="M301.9586 160.6752L300.2778 82.3382" fill="none" stroke="#aaa" stroke-opacity="0.5" stroke-width="0.5"></path><path d="M301.9586 160.6752L186.1164 73.9003" fill="none" stroke="#aaa" stroke-opacity="0.5" stroke-width="0.5"></path><path d="M168.5676 176.0408L176.1008 133.6862" fill="none" stroke="#aaa" stroke-opacity="0.5" stroke-width="0.5"></path><path d="M223.3557 119.1823L239.2979 29.7984" fill="none" stroke="#aaa" stroke-opacity="0.5" stroke-width="0.5"></path><path d="M208.9024 222.8339L235.6489 70.7762" fill="none" stroke="#aaa" stroke-opacity="0.5" stroke-width="0.5"></path><path d="M255.5722 158.9474L223.3557 119.1823" fill="none" stroke="#aaa" stroke-opacity="0.5" stroke-width="0.5"></path><path d="M161.9421 37.8357L275.2674 50.9544" fill="none" stroke="#aaa" stroke-opacity="0.5" stroke-width="0.5"></path><path d="M161.9421 37.8357L201.1645 30.0493" fill="none" stroke="#aaa" stroke-opacity="0.5" stroke-width="0.5"></path><path d="M186.1164 73.9003L280.5617 194.3426" fill="none" stroke="#aaa" stroke-opacity="0.5" stroke-width="0.5"></path><path d="M130.2494 186.443L120.9403 149.8893" fill="none" stroke="#aaa" stroke-opacity="0.5" stroke-width="0.5"></path><path d="M168.5676 176.0408L239.2979 29.7984" fill="none" stroke="#aaa" stroke-opacity="0.5" stroke-width="0.5"></path><path d="M147.324 99.2269L176.1008 133.6862" fill="none" stroke="#aaa" stroke-opacity="0.5" stroke-width="0.5"></path><path d="M269.6894 108.0589L235.6489 70.7762" fill="none" stroke="#aaa" stroke-opacity="0.5" stroke-width="0.5"></path><path d="M216.9829 181.7535L176.1008 133.6862" fill="none" stroke="#aaa" stroke-opacity="0.5" stroke-width="0.5"></path><path d="M308.672 123.5971L255.5722 158.9474" fill="none" stroke="#aaa" stroke-opacity="0.5" stroke-width="0.5"></path><path d="M201.1645 30.0493L235.6489 70.7762" fill="none" stroke="#aaa" stroke-opacity="0.5" stroke-width="0.5"></path><path d="M186.1164 73.9003L269.6894 108.0589" fill="none" stroke="#aaa" stroke-opacity="0.5" stroke-width="0.5"></path><path d="M301.9586 160.6752L129.9823 65.9835" fill="none" stroke="#aaa" stroke-opacity="0.5" stroke-width="0.5"></path><path d="M308.672 123.5971L223.3557 119.1823" fill="none" stroke="#aaa" stroke-opacity="0.5" stroke-width="0.5"></path><path d="M130.2494 186.443L301.9586 160.6752" fill="none" stroke="#aaa" stroke-opacity="0.5" stroke-width="0.5"></path><path d="M147.324 99.2269L239.2979 29.7984" fill="none" stroke="#aaa" stroke-opacity="0.5" stroke-width="0.5"></path><path d="M301.9586 160.6752L223.3557 119.1823" fill="none" stroke="#aaa" stroke-opacity="0.5" stroke-width="0.5"></path><path d="M216.9829 181.7535L239.2979 29.7984" fill="none" stroke="#aaa" stroke-opacity="0.5" stroke-width="0.5"></path><path d="M248.0396 215.24L269.6894 108.0589" fill="none" stroke="#aaa" stroke-opacity="0.5" stroke-width="0.5"></path><path d="M176.1008 133.6862L235.6489 70.7762" fill="none" stroke="#aaa" stroke-opacity="0.5" stroke-width="0.5"></path><path d="M300.2778 82.3382L223.3557 119.1823" fill="none" stroke="#aaa" stroke-opacity="0.5" stroke-width="0.5"></path><path d="M275.2674 50.9544L168.4808 215.3729" fill="none" stroke="#aaa" stroke-opacity="0.5" stroke-width="0.5"></path><path d="M255.5722 158.9474L208.9024 222.8339" fill="none" stroke="#aaa" stroke-opacity="0.5" stroke-width="0.5"></path><path d="M255.5722 158.9474L168.5676 176.0408" fill="none" stroke="#aaa" stroke-opacity="0.5" stroke-width="0.5"></path><path d="M186.1164 73.9003L216.9829 181.7535" fill="none" stroke="#aaa" stroke-opacity="0.5" stroke-width="0.5"></path><path d="M186.1164 73.9003L111.9263 113.0739" fill="none" stroke="#aaa" stroke-opacity="0.5" stroke-width="0.5"></path><path d="M269.6894 108.0589L176.1008 133.6862" fill="none" stroke="#aaa" stroke-opacity="0.5" stroke-width="0.5"></path><path d="M130.2494 186.443L235.6489 70.7762" fill="none" stroke="#aaa" stroke-opacity="0.5" stroke-width="0.5"></path><path d="M201.1645 30.0493L176.1008 133.6862" fill="none" stroke="#aaa" stroke-opacity="0.5" stroke-width="0.5"></path><path d="M308.672 123.5971L168.5676 176.0408" fill="none" stroke="#aaa" stroke-opacity="0.5" stroke-width="0.5"></path><path d="M301.9586 160.6752L208.9024 222.8339" fill="none" stroke="#aaa" stroke-opacity="0.5" stroke-width="0.5"></path><path d="M223.3557 119.1823L275.2674 50.9544" fill="none" stroke="#aaa" stroke-opacity="0.5" stroke-width="0.5"></path><path d="M223.3557 119.1823L201.1645 30.0493" fill="none" stroke="#aaa" stroke-opacity="0.5" stroke-width="0.5"></path><path d="M269.6894 108.0589L239.2979 29.7984" fill="none" stroke="#aaa" stroke-opacity="0.5" stroke-width="0.5"></path><path d="M201.1645 30.5L239.2979 30.5" fill="none" stroke="#aaa" stroke-opacity="0.5" stroke-width="0.5"></path><path d="M161.9421 37.8357L300.2778 82.3382" fill="none" stroke="#aaa" stroke-opacity="0.5" stroke-width="0.5"></path><path d="M255.5722 158.9474L147.324 99.2269" fill="none" stroke="#aaa" stroke-opacity="0.5" stroke-width="0.5"></path><path d="M301.9586 160.6752L168.4808 215.3729" fill="none" stroke="#aaa" stroke-opacity="0.5" stroke-width="0.5"></path><path d="M147.324 99.2269L275.2674 50.9544" fill="none" stroke="#aaa" stroke-opacity="0.5" stroke-width="0.5"></path><path d="M147.324 99.2269L201.1645 30.0493" fill="none" stroke="#aaa" stroke-opacity="0.5" stroke-width="0.5"></path><path d="M120.9403 149.8893L176.1008 133.6862" fill="none" stroke="#aaa" stroke-opacity="0.5" stroke-width="0.5"></path><path d="M216.9829 181.7535L275.2674 50.9544" fill="none" stroke="#aaa" stroke-opacity="0.5" stroke-width="0.5"></path><path d="M216.9829 181.7535L201.1645 30.0493" fill="none" stroke="#aaa" stroke-opacity="0.5" stroke-width="0.5"></path><path d="M161.9421 37.8357L255.5722 158.9474" fill="none" stroke="#aaa" stroke-opacity="0.5" stroke-width="0.5"></path><path d="M130.2494 186.443L176.1008 133.6862" fill="none" stroke="#aaa" stroke-opacity="0.5" stroke-width="0.5"></path><path d="M280.5617 194.3426L269.6894 108.0589" fill="none" stroke="#aaa" stroke-opacity="0.5" stroke-width="0.5"></path><path d="M168.5676 176.0408L280.5617 194.3426" fill="none" stroke="#aaa" stroke-opacity="0.5" stroke-width="0.5"></path><path d="M161.9421 37.8357L129.9823 65.9835" fill="none" stroke="#aaa" stroke-opacity="0.5" stroke-width="0.5"></path><path d="M223.3557 119.1823L269.6894 108.0589" fill="none" stroke="#aaa" stroke-opacity="0.5" stroke-width="0.5"></path><path d="M308.672 123.5971L147.324 99.2269" fill="none" stroke="#aaa" stroke-opacity="0.5" stroke-width="0.5"></path><path d="M301.9586 160.6752L147.324 99.2269" fill="none" stroke="#aaa" stroke-opacity="0.5" stroke-width="0.5"></path><path d="M208.9024 222.8339L280.5617 194.3426" fill="none" stroke="#aaa" stroke-opacity="0.5" stroke-width="0.5"></path><path d="M130.2494 186.443L239.2979 29.7984" fill="none" stroke="#aaa" stroke-opacity="0.5" stroke-width="0.5"></path><path d="M168.5676 176.0408L269.6894 108.0589" fill="none" stroke="#aaa" stroke-opacity="0.5" stroke-width="0.5"></path><path d="M111.9263 113.0739L120.9403 149.8893" fill="none" stroke="#aaa" stroke-opacity="0.5" stroke-width="0.5"></path><path d="M275.2674 50.9544L235.6489 70.7762" fill="none" stroke="#aaa" stroke-opacity="0.5" stroke-width="0.5"></path><path d="M186.1164 73.9003L223.3557 119.1823" fill="none" stroke="#aaa" stroke-opacity="0.5" stroke-width="0.5"></path><path d="M208.9024 222.8339L269.6894 108.0589" fill="none" stroke="#aaa" stroke-opacity="0.5" stroke-width="0.5"></path><path d="M255.5722 158.9474L248.0396 215.24" fill="none" stroke="#aaa" stroke-opacity="0.5" stroke-width="0.5"></path><path d="M223.3557 119.1823L111.9263 113.0739" fill="none" stroke="#aaa" stroke-opacity="0.5" stroke-width="0.5"></path><path d="M269.6894 108.0589L275.2674 50.9544" fill="none" stroke="#aaa" stroke-opacity="0.5" stroke-width="0.5"></path><path d="M269.6894 108.0589L201.1645 30.0493" fill="none" stroke="#aaa" stroke-opacity="0.5" stroke-width="0.5"></path><path d="M168.5676 176.0408L111.9263 113.0739" fill="none" stroke="#aaa" stroke-opacity="0.5" stroke-width="0.5"></path><path d="M161.9421 37.8357L208.9024 222.8339" fill="none" stroke="#aaa" stroke-opacity="0.5" stroke-width="0.5"></path><path d="M255.5722 158.9474L176.1008 133.6862" fill="none" stroke="#aaa" stroke-opacity="0.5" stroke-width="0.5"></path><path d="M301.9586 160.6752L248.0396 215.24" fill="none" stroke="#aaa" stroke-opacity="0.5" stroke-width="0.5"></path><path d="M208.9024 222.8339L111.9263 113.0739" fill="none" stroke="#aaa" stroke-opacity="0.5" stroke-width="0.5"></path><path d="M248.0396 215.24L168.4808 215.3729" fill="none" stroke="#aaa" stroke-opacity="0.5" stroke-width="0.5"></path><path d="M111.9263 113.0739L235.6489 70.7762" fill="none" stroke="#aaa" stroke-opacity="0.5" stroke-width="0.5"></path><path d="M186.1164 73.9003L168.5676 176.0408" fill="none" stroke="#aaa" stroke-opacity="0.5" stroke-width="0.5"></path><path d="M216.9829 181.7535L300.2778 82.3382" fill="none" stroke="#aaa" stroke-opacity="0.5" stroke-width="0.5"></path><path d="M223.3557 119.1823L129.9823 65.9835" fill="none" stroke="#aaa" stroke-opacity="0.5" stroke-width="0.5"></path><path d="M308.672 123.5971L176.1008 133.6862" fill="none" stroke="#aaa" stroke-opacity="0.5" stroke-width="0.5"></path><path d="M161.9421 37.8357L168.4808 215.3729" fill="none" stroke="#aaa" stroke-opacity="0.5" stroke-width="0.5"></path><path d="M168.5676 176.0408L129.9823 65.9835" fill="none" stroke="#aaa" stroke-opacity="0.5" stroke-width="0.5"></path><path d="M186.1164 73.9003L120.9403 149.8893" fill="none" stroke="#aaa" stroke-opacity="0.5" stroke-width="0.5"></path><path d="M130.2494 186.443L275.2674 50.9544" fill="none" stroke="#aaa" stroke-opacity="0.5" stroke-width="0.5"></path><path d="M130.2494 186.443L201.1645 30.0493" fill="none" stroke="#aaa" stroke-opacity="0.5" stroke-width="0.5"></path><path d="M248.0396 215.24L120.9403 149.8893" fill="none" stroke="#aaa" stroke-opacity="0.5" stroke-width="0.5"></path><path d="M300.2778 82.3382L176.1008 133.6862" fill="none" stroke="#aaa" stroke-opacity="0.5" stroke-width="0.5"></path><path d="M216.9829 181.7535L129.9823 65.9835" fill="none" stroke="#aaa" stroke-opacity="0.5" stroke-width="0.5"></path><path d="M161.9421 37.8357L147.324 99.2269" fill="none" stroke="#aaa" stroke-opacity="0.5" stroke-width="0.5"></path><path d="M147.324 99.2269L223.3557 119.1823" fill="none" stroke="#aaa" stroke-opacity="0.5" stroke-width="0.5"></path><path d="M129.9823 65.9835L176.1008 133.6862" fill="none" stroke="#aaa" stroke-opacity="0.5" stroke-width="0.5"></path><path d="M300.2778 82.3382L239.2979 29.7984" fill="none" stroke="#aaa" stroke-opacity="0.5" stroke-width="0.5"></path><path d="M161.9421 37.8357L120.9403 149.8893" fill="none" stroke="#aaa" stroke-opacity="0.5" stroke-width="0.5"></path><path d="M111.9263 113.0739L176.1008 133.6862" fill="none" stroke="#aaa" stroke-opacity="0.5" stroke-width="0.5"></path><path d="M223.3557 119.1823L208.9024 222.8339" fill="none" stroke="#aaa" stroke-opacity="0.5" stroke-width="0.5"></path><path d="M120.9403 149.8893L269.6894 108.0589" fill="none" stroke="#aaa" stroke-opacity="0.5" stroke-width="0.5"></path><path d="M129.9823 65.9835L239.2979 29.7984" fill="none" stroke="#aaa" stroke-opacity="0.5" stroke-width="0.5"></path><path d="M130.2494 186.443L161.9421 37.8357" fill="none" stroke="#aaa" stroke-opacity="0.5" stroke-width="0.5"></path><path d="M111.9263 113.0739L239.2979 29.7984" fill="none" stroke="#aaa" stroke-opacity="0.5" stroke-width="0.5"></path><path d="M168.5676 176.0408L208.9024 222.8339" fill="none" stroke="#aaa" stroke-opacity="0.5" stroke-width="0.5"></path><path d="M248.0396 215.24L235.6489 70.7762" fill="none" stroke="#aaa" stroke-opacity="0.5" stroke-width="0.5"></path><path d="M147.324 99.2269L208.9024 222.8339" fill="none" stroke="#aaa" stroke-opacity="0.5" stroke-width="0.5"></path><path d="M223.3557 119.1823L168.4808 215.3729" fill="none" stroke="#aaa" stroke-opacity="0.5" stroke-width="0.5"></path><path d="M161.9421 37.8357L248.0396 215.24" fill="none" stroke="#aaa" stroke-opacity="0.5" stroke-width="0.5"></path><path d="M216.9829 181.7535L208.9024 222.8339" fill="none" stroke="#aaa" stroke-opacity="0.5" stroke-width="0.5"></path><path d="M275.2674 50.9544L201.1645 30.0493" fill="none" stroke="#aaa" stroke-opacity="0.5" stroke-width="0.5"></path><path d="M168.5 176.0408L168.5 215.3729" fill="none" stroke="#aaa" stroke-opacity="0.5" stroke-width="0.5"></path><path d="M239.2979 29.7984L176.1008 133.6862" fill="none" stroke="#aaa" stroke-opacity="0.5" stroke-width="0.5"></path><path d="M161.9421 37.8357L235.6489 70.7762" fill="none" stroke="#aaa" stroke-opacity="0.5" stroke-width="0.5"></path><path d="M130.2494 186.443L300.2778 82.3382" fill="none" stroke="#aaa" stroke-opacity="0.5" stroke-width="0.5"></path><path d="M130.2494 186.443L186.1164 73.9003" fill="none" stroke="#aaa" stroke-opacity="0.5" stroke-width="0.5"></path><path d="M255.5722 158.9474L280.5617 194.3426" fill="none" stroke="#aaa" stroke-opacity="0.5" stroke-width="0.5"></path><path d="M280.5617 194.3426L120.9403 149.8893" fill="none" stroke="#aaa" stroke-opacity="0.5" stroke-width="0.5"></path><path d="M216.9829 181.7535L168.4808 215.3729" fill="none" stroke="#aaa" stroke-opacity="0.5" stroke-width="0.5"></path><path d="M223.3557 119.1823L120.9403 149.8893" fill="none" stroke="#aaa" stroke-opacity="0.5" stroke-width="0.5"></path><path d="M300.2778 82.3382L275.2674 50.9544" fill="none" stroke="#aaa" stroke-opacity="0.5" stroke-width="0.5"></path><path d="M300.2778 82.3382L201.1645 30.0493" fill="none" stroke="#aaa" stroke-opacity="0.5" stroke-width="0.5"></path><path d="M130.2494 186.443L308.672 123.5971" fill="none" stroke="#aaa" stroke-opacity="0.5" stroke-width="0.5"></path><path d="M255.5722 158.9474L269.6894 108.0589" fill="none" stroke="#aaa" stroke-opacity="0.5" stroke-width="0.5"></path><path d="M186.1164 73.9003L176.1008 133.6862" fill="none" stroke="#aaa" stroke-opacity="0.5" stroke-width="0.5"></path><path d="M168.5676 176.0408L120.9403 149.8893" fill="none" stroke="#aaa" stroke-opacity="0.5" stroke-width="0.5"></path><path d="M130.2494 186.443L255.5722 158.9474" fill="none" stroke="#aaa" stroke-opacity="0.5" stroke-width="0.5"></path><path d="M308.672 123.5971L280.5617 194.3426" fill="none" stroke="#aaa" stroke-opacity="0.5" stroke-width="0.5"></path><path d="M129.9823 65.9835L275.2674 50.9544" fill="none" stroke="#aaa" stroke-opacity="0.5" stroke-width="0.5"></path><path d="M129.9823 65.9835L201.1645 30.0493" fill="none" stroke="#aaa" stroke-opacity="0.5" stroke-width="0.5"></path><path d="M130.5 186.443L130.5 65.9835" fill="none" stroke="#aaa" stroke-opacity="0.5" stroke-width="0.5"></path><path d="M301.9586 160.6752L280.5617 194.3426" fill="none" stroke="#aaa" stroke-opacity="0.5" stroke-width="0.5"></path><path d="M216.9829 181.7535L147.324 99.2269" fill="none" stroke="#aaa" stroke-opacity="0.5" stroke-width="0.5"></path><path d="M186.1164 73.9003L239.2979 29.7984" fill="none" stroke="#aaa" stroke-opacity="0.5" stroke-width="0.5"></path><path d="M208.9024 222.8339L120.9403 149.8893" fill="none" stroke="#aaa" stroke-opacity="0.5" stroke-width="0.5"></path><path d="M130.2494 186.443L223.3557 119.1823" fill="none" stroke="#aaa" stroke-opacity="0.5" stroke-width="0.5"></path><path d="M111.9263 113.0739L275.2674 50.9544" fill="none" stroke="#aaa" stroke-opacity="0.5" stroke-width="0.5"></path><path d="M111.9263 113.0739L201.1645 30.0493" fill="none" stroke="#aaa" stroke-opacity="0.5" stroke-width="0.5"></path><path d="M308.672 123.5971L269.6894 108.0589" fill="none" stroke="#aaa" stroke-opacity="0.5" stroke-width="0.5"></path><path d="M248.0396 215.24L239.2979 29.7984" fill="none" stroke="#aaa" stroke-opacity="0.5" stroke-width="0.5"></path><path d="M301.9586 160.6752L269.6894 108.0589" fill="none" stroke="#aaa" stroke-opacity="0.5" stroke-width="0.5"></path><path d="M255.5722 158.9474L216.9829 181.7535" fill="none" stroke="#aaa" stroke-opacity="0.5" stroke-width="0.5"></path><path d="M223.3557 119.1823L248.0396 215.24" fill="none" stroke="#aaa" stroke-opacity="0.5" stroke-width="0.5"></path><path d="M255.5722 158.9474L111.9263 113.0739" fill="none" stroke="#aaa" stroke-opacity="0.5" stroke-width="0.5"></path><path d="M300.2778 82.3382L269.6894 108.0589" fill="none" stroke="#aaa" stroke-opacity="0.5" stroke-width="0.5"></path><path d="M269.6894 108.0589L168.4808 215.3729" fill="none" stroke="#aaa" stroke-opacity="0.5" stroke-width="0.5"></path><path d="M280.5617 194.3426L235.6489 70.7762" fill="none" stroke="#aaa" stroke-opacity="0.5" stroke-width="0.5"></path><path d="M168.5676 176.0408L248.0396 215.24" fill="none" stroke="#aaa" stroke-opacity="0.5" stroke-width="0.5"></path><path d="M223.3557 119.1823L235.6489 70.7762" fill="none" stroke="#aaa" stroke-opacity="0.5" stroke-width="0.5"></path><path d="M301.9586 160.6752L216.9829 181.7535" fill="none" stroke="#aaa" stroke-opacity="0.5" stroke-width="0.5"></path><path d="M129.9823 65.9835L269.6894 108.0589" fill="none" stroke="#aaa" stroke-opacity="0.5" stroke-width="0.5"></path><path d="M308.672 123.5971L111.9263 113.0739" fill="none" stroke="#aaa" stroke-opacity="0.5" stroke-width="0.5"></path><path d="M168.5676 176.0408L235.6489 70.7762" fill="none" stroke="#aaa" stroke-opacity="0.5" stroke-width="0.5"></path><path d="M301.9586 160.6752L111.9263 113.0739" fill="none" stroke="#aaa" stroke-opacity="0.5" stroke-width="0.5"></path><path d="M147.324 99.2269L248.0396 215.24" fill="none" stroke="#aaa" stroke-opacity="0.5" stroke-width="0.5"></path><path d="M130.2494 186.443L208.9024 222.8339" fill="none" stroke="#aaa" stroke-opacity="0.5" stroke-width="0.5"></path><path d="M216.9829 181.7535L248.0396 215.24" fill="none" stroke="#aaa" stroke-opacity="0.5" stroke-width="0.5"></path><path d="M130.2494 186.443L168.5676 176.0408" fill="none" stroke="#aaa" stroke-opacity="0.5" stroke-width="0.5"></path><path d="M255.5722 158.9474L129.9823 65.9835" fill="none" stroke="#aaa" stroke-opacity="0.5" stroke-width="0.5"></path><path d="M300.2778 82.3382L111.9263 113.0739" fill="none" stroke="#aaa" stroke-opacity="0.5" stroke-width="0.5"></path><path d="M216.9829 181.7535L235.6489 70.7762" fill="none" stroke="#aaa" stroke-opacity="0.5" stroke-width="0.5"></path><path d="M120.9403 149.8893L168.4808 215.3729" fill="none" stroke="#aaa" stroke-opacity="0.5" stroke-width="0.5"></path><path d="M308.672 123.5971L129.9823 65.9835" fill="none" stroke="#aaa" stroke-opacity="0.5" stroke-width="0.5"></path><path d="M280.5617 194.3426L176.1008 133.6862" fill="none" stroke="#aaa" stroke-opacity="0.5" stroke-width="0.5"></path><path d="M186.1164 73.9003L275.2674 50.9544" fill="none" stroke="#aaa" stroke-opacity="0.5" stroke-width="0.5"></path><path d="M186.1164 73.9003L201.1645 30.0493" fill="none" stroke="#aaa" stroke-opacity="0.5" stroke-width="0.5"></path><path d="M248.0396 215.24L275.2674 50.9544" fill="none" stroke="#aaa" stroke-opacity="0.5" stroke-width="0.5"></path><path d="M248.0396 215.24L201.1645 30.0493" fill="none" stroke="#aaa" stroke-opacity="0.5" stroke-width="0.5"></path><path d="M161.9421 37.8357L280.5617 194.3426" fill="none" stroke="#aaa" stroke-opacity="0.5" stroke-width="0.5"></path><path d="M280.5617 194.3426L239.2979 29.7984" fill="none" stroke="#aaa" stroke-opacity="0.5" stroke-width="0.5"></path><path d="M300.2778 82.3382L129.9823 65.9835" fill="none" stroke="#aaa" stroke-opacity="0.5" stroke-width="0.5"></path><path d="M130.2494 186.443L147.324 99.2269" fill="none" stroke="#aaa" stroke-opacity="0.5" stroke-width="0.5"></path><path d="M161.9421 37.8357L269.6894 108.0589" fill="none" stroke="#aaa" stroke-opacity="0.5" stroke-width="0.5"></path><path d="M208.9024 222.8339L176.1008 133.6862" fill="none" stroke="#aaa" stroke-opacity="0.5" stroke-width="0.5"></path><path d="M111.9263 113.0739L129.9823 65.9835" fill="none" stroke="#aaa" stroke-opacity="0.5" stroke-width="0.5"></path><path d="M208.9024 222.8339L239.2979 29.7984" fill="none" stroke="#aaa" stroke-opacity="0.5" stroke-width="0.5"></path><path d="M308.672 123.5971L208.9024 222.8339" fill="none" stroke="#aaa" stroke-opacity="0.5" stroke-width="0.5"></path><path d="M161.9421 37.8357L216.9829 181.7535" fill="none" stroke="#aaa" stroke-opacity="0.5" stroke-width="0.5"></path><path d="M255.5722 158.9474L168.4808 215.3729" fill="none" stroke="#aaa" stroke-opacity="0.5" stroke-width="0.5"></path><path d="M161.9421 37.8357L111.9263 113.0739" fill="none" stroke="#aaa" stroke-opacity="0.5" stroke-width="0.5"></path><path d="M300.2778 82.3382L208.9024 222.8339" fill="none" stroke="#aaa" stroke-opacity="0.5" stroke-width="0.5"></path><path d="M130.2494 186.443L248.0396 215.24" fill="none" stroke="#aaa" stroke-opacity="0.5" stroke-width="0.5"></path><path d="M120.9403 149.8893L235.6489 70.7762" fill="none" stroke="#aaa" stroke-opacity="0.5" stroke-width="0.5"></path><path d="M308.672 123.5971L168.4808 215.3729" fill="none" stroke="#aaa" stroke-opacity="0.5" stroke-width="0.5"></path><path d="M186.1164 73.9003L300.2778 82.3382" fill="none" stroke="#aaa" stroke-opacity="0.5" stroke-width="0.5"></path><path d="M223.3557 119.1823L280.5617 194.3426" fill="none" stroke="#aaa" stroke-opacity="0.5" stroke-width="0.5"></path><path d="M255.5722 158.9474L120.9403 149.8893" fill="none" stroke="#aaa" stroke-opacity="0.5" stroke-width="0.5"></path><path d="M280.5617 194.3426L275.2674 50.9544" fill="none" stroke="#aaa" stroke-opacity="0.5" stroke-width="0.5"></path><path d="M280.5617 194.3426L201.1645 30.0493" fill="none" stroke="#aaa" stroke-opacity="0.5" stroke-width="0.5"></path><path d="M301.9586 160.6752L168.5676 176.0408" fill="none" stroke="#aaa" stroke-opacity="0.5" stroke-width="0.5"></path><path d="M300.2778 82.3382L168.4808 215.3729" fill="none" stroke="#aaa" stroke-opacity="0.5" stroke-width="0.5"></path><path d="M255.5722 158.9474L301.9586 160.6752" fill="none" stroke="#aaa" stroke-opacity="0.5" stroke-width="0.5"></path><path d="M168.5676 176.0408L275.2674 50.9544" fill="none" stroke="#aaa" stroke-opacity="0.5" stroke-width="0.5"></path><path d="M161.9421 37.8357L186.1164 73.9003" fill="none" stroke="#aaa" stroke-opacity="0.5" stroke-width="0.5"></path><path d="M168.5676 176.0408L201.1645 30.0493" fill="none" stroke="#aaa" stroke-opacity="0.5" stroke-width="0.5"></path><path d="M129.9823 65.9835L168.4808 215.3729" fill="none" stroke="#aaa" stroke-opacity="0.5" stroke-width="0.5"></path><path d="M308.672 123.5971L120.9403 149.8893" fill="none" stroke="#aaa" stroke-opacity="0.5" stroke-width="0.5"></path><path d="M147.324 99.2269L280.5617 194.3426" fill="none" stroke="#aaa" stroke-opacity="0.5" stroke-width="0.5"></path><path d="M186.1164 73.9003L129.9823 65.9835" fill="none" stroke="#aaa" stroke-opacity="0.5" stroke-width="0.5"></path><path d="M301.9586 160.6752L120.9403 149.8893" fill="none" stroke="#aaa" stroke-opacity="0.5" stroke-width="0.5"></path><path d="M216.9829 181.7535L280.5617 194.3426" fill="none" stroke="#aaa" stroke-opacity="0.5" stroke-width="0.5"></path><path d="M168.4808 215.3729L235.6489 70.7762" fill="none" stroke="#aaa" stroke-opacity="0.5" stroke-width="0.5"></path><path d="M111.9263 113.0739L168.4808 215.3729" fill="none" stroke="#aaa" stroke-opacity="0.5" stroke-width="0.5"></path><path d="M300.2778 82.3382L147.324 99.2269" fill="none" stroke="#aaa" stroke-opacity="0.5" stroke-width="0.5"></path><path d="M208.9024 222.8339L275.2674 50.9544" fill="none" stroke="#aaa" stroke-opacity="0.5" stroke-width="0.5"></path><path d="M208.9024 222.8339L201.1645 30.0493" fill="none" stroke="#aaa" stroke-opacity="0.5" stroke-width="0.5"></path><path d="M147.324 99.2269L269.6894 108.0589" fill="none" stroke="#aaa" stroke-opacity="0.5" stroke-width="0.5"></path><path d="M308.672 123.5971L301.9586 160.6752" fill="none" stroke="#aaa" stroke-opacity="0.5" stroke-width="0.5"></path><path d="M216.9829 181.7535L269.6894 108.0589" fill="none" stroke="#aaa" stroke-opacity="0.5" stroke-width="0.5"></path><path d="M300.2778 82.3382L120.9403 149.8893" fill="none" stroke="#aaa" stroke-opacity="0.5" stroke-width="0.5"></path><path d="M120.9403 149.8893L239.2979 29.7984" fill="none" stroke="#aaa" stroke-opacity="0.5" stroke-width="0.5"></path><path d="M255.5722 158.9474L235.6489 70.7762" fill="none" stroke="#aaa" stroke-opacity="0.5" stroke-width="0.5"></path><path d="M129.9823 65.9835L120.9403 149.8893" fill="none" stroke="#aaa" stroke-opacity="0.5" stroke-width="0.5"></path><path d="M161.9421 37.8357L223.3557 119.1823" fill="none" stroke="#aaa" stroke-opacity="0.5" stroke-width="0.5"></path><path d="M308.672 123.5971L248.0396 215.24" fill="none" stroke="#aaa" stroke-opacity="0.5" stroke-width="0.5"></path><path d="M147.324 99.2269L111.9263 113.0739" fill="none" stroke="#aaa" stroke-opacity="0.5" stroke-width="0.5"></path><path d="M275.2674 50.9544L176.1008 133.6862" fill="none" stroke="#aaa" stroke-opacity="0.5" stroke-width="0.5"></path><path d="M216.9829 181.7535L111.9263 113.0739" fill="none" stroke="#aaa" stroke-opacity="0.5" stroke-width="0.5"></path><path d="M186.1164 73.9003L208.9024 222.8339" fill="none" stroke="#aaa" stroke-opacity="0.5" stroke-width="0.5"></path><path d="M308.672 123.5971L235.6489 70.7762" fill="none" stroke="#aaa" stroke-opacity="0.5" stroke-width="0.5"></path><path d="M300.2778 82.3382L248.0396 215.24" fill="none" stroke="#aaa" stroke-opacity="0.5" stroke-width="0.5"></path><path d="M301.9586 160.6752L235.6489 70.7762" fill="none" stroke="#aaa" stroke-opacity="0.5" stroke-width="0.5"></path><path d="M168.4808 215.3729L176.1008 133.6862" fill="none" stroke="#aaa" stroke-opacity="0.5" stroke-width="0.5"></path><path d="M275.2674 50.9544L239.2979 29.7984" fill="none" stroke="#aaa" stroke-opacity="0.5" stroke-width="0.5"></path><path d="M129.9823 65.9835L248.0396 215.24" fill="none" stroke="#aaa" stroke-opacity="0.5" stroke-width="0.5"></path><path d="M300.2778 82.3382L235.6489 70.7762" fill="none" stroke="#aaa" stroke-opacity="0.5" stroke-width="0.5"></path><path d="M168.4808 215.3729L239.2979 29.7984" fill="none" stroke="#aaa" stroke-opacity="0.5" stroke-width="0.5"></path><path d="M168.5676 176.0408L300.2778 82.3382" fill="none" stroke="#aaa" stroke-opacity="0.5" stroke-width="0.5"></path><path d="M161.9421 37.8357L168.5676 176.0408" fill="none" stroke="#aaa" stroke-opacity="0.5" stroke-width="0.5"></path><path d="M111.9263 113.0739L248.0396 215.24" fill="none" stroke="#aaa" stroke-opacity="0.5" stroke-width="0.5"></path><path d="M186.1164 73.9003L168.4808 215.3729" fill="none" stroke="#aaa" stroke-opacity="0.5" stroke-width="0.5"></path><path d="M147.324 99.2269L129.9823 65.9835" fill="none" stroke="#aaa" stroke-opacity="0.5" stroke-width="0.5"></path><path d="M129.9823 65.9835L235.6489 70.7762" fill="none" stroke="#aaa" stroke-opacity="0.5" stroke-width="0.5"></path><path d="M280.5617 194.3426L129.9823 65.9835" fill="none" stroke="#aaa" stroke-opacity="0.5" stroke-width="0.5"></path><path d="M255.5722 158.9474L239.2979 29.7984" fill="none" stroke="#aaa" stroke-opacity="0.5" stroke-width="0.5"></path><path d="M130.2494 186.443L280.5617 194.3426" fill="none" stroke="#aaa" stroke-opacity="0.5" stroke-width="0.5"></path><path d="M186.1164 73.9003L147.324 99.2269" fill="none" stroke="#aaa" stroke-opacity="0.5" stroke-width="0.5"></path><path d="M120.9403 149.8893L275.2674 50.9544" fill="none" stroke="#aaa" stroke-opacity="0.5" stroke-width="0.5"></path><path d="M120.9403 149.8893L201.1645 30.0493" fill="none" stroke="#aaa" stroke-opacity="0.5" stroke-width="0.5"></path><path d="M301.9586 160.6752L176.1008 133.6862" fill="none" stroke="#aaa" stroke-opacity="0.5" stroke-width="0.5"></path><path d="M161.9421 37.8357L301.9586 160.6752" fill="none" stroke="#aaa" stroke-opacity="0.5" stroke-width="0.5"></path><path d="M168.5676 176.0408L223.3557 119.1823" fill="none" stroke="#aaa" stroke-opacity="0.5" stroke-width="0.5"></path><path d="M130.2494 186.443L269.6894 108.0589" fill="none" stroke="#aaa" stroke-opacity="0.5" stroke-width="0.5"></path><path d="M308.672 123.5971L239.2979 29.7984" fill="none" stroke="#aaa" stroke-opacity="0.5" stroke-width="0.5"></path><path d="M208.9024 222.8339L129.9823 65.9835" fill="none" stroke="#aaa" stroke-opacity="0.5" stroke-width="0.5"></path><path d="M301.9586 160.6752L239.2979 29.7984" fill="none" stroke="#aaa" stroke-opacity="0.5" stroke-width="0.5"></path><path d="M216.9829 181.7535L223.3557 119.1823" fill="none" stroke="#aaa" stroke-opacity="0.5" stroke-width="0.5"></path><path d="M239.2979 29.7984L235.6489 70.7762" fill="none" stroke="#aaa" stroke-opacity="0.5" stroke-width="0.5"></path><path d="M130.2494 186.443L216.9829 181.7535" fill="none" stroke="#aaa" stroke-opacity="0.5" stroke-width="0.5"></path><path d="M168.4808 215.3729L201.1645 30.0493" fill="none" stroke="#aaa" stroke-opacity="0.5" stroke-width="0.5"></path><path d="M130.2494 186.443L111.9263 113.0739" fill="none" stroke="#aaa" stroke-opacity="0.5" stroke-width="0.5"></path><path d="M186.1164 73.9003L248.0396 215.24" fill="none" stroke="#aaa" stroke-opacity="0.5" stroke-width="0.5"></path><path d="M147.324 99.2269L168.4808 215.3729" fill="none" stroke="#aaa" stroke-opacity="0.5" stroke-width="0.5"></path><path d="M186.1164 73.9003L235.6489 70.7762" fill="none" stroke="#aaa" stroke-opacity="0.5" stroke-width="0.5"></path><path d="M255.5722 158.9474L275.2674 50.9544" fill="none" stroke="#aaa" stroke-opacity="0.5" stroke-width="0.5"></path><path d="M280.5617 194.3426L168.4808 215.3729" fill="none" stroke="#aaa" stroke-opacity="0.5" stroke-width="0.5"></path><path d="M255.5722 158.9474L201.1645 30.0493" fill="none" stroke="#aaa" stroke-opacity="0.5" stroke-width="0.5"></path><path d="M216.9829 181.7535L168.5676 176.0408" fill="none" stroke="#aaa" stroke-opacity="0.5" stroke-width="0.5"></path><path d="M248.0396 215.24L176.1008 133.6862" fill="none" stroke="#aaa" stroke-opacity="0.5" stroke-width="0.5"></path><path d="M308.672 123.5971L275.2674 50.9544" fill="none" stroke="#aaa" stroke-opacity="0.5" stroke-width="0.5"></path><path d="M308.672 123.5971L201.1645 30.0493" fill="none" stroke="#aaa" stroke-opacity="0.5" stroke-width="0.5"></path><path d="M147.324 99.2269L120.9403 149.8893" fill="none" stroke="#aaa" stroke-opacity="0.5" stroke-width="0.5"></path><path d="M216.9829 181.7535L120.9403 149.8893" fill="none" stroke="#aaa" stroke-opacity="0.5" stroke-width="0.5"></path><path d="M301.9586 160.6752L275.2674 50.9544" fill="none" stroke="#aaa" stroke-opacity="0.5" stroke-width="0.5"></path><path d="M301.9586 160.6752L201.1645 30.0493" fill="none" stroke="#aaa" stroke-opacity="0.5" stroke-width="0.5"></path><path d="M161.9421 37.8357L176.1008 133.6862" fill="none" stroke="#aaa" stroke-opacity="0.5" stroke-width="0.5"></path><path d="M208.9024 222.8339L168.4808 215.3729" fill="none" stroke="#aaa" stroke-opacity="0.5" stroke-width="0.5"></path><path d="M300.2778 82.3382L280.5617 194.3426" fill="none" stroke="#aaa" stroke-opacity="0.5" stroke-width="0.5"></path><path d="M168.5676 176.0408L147.324 99.2269" fill="none" stroke="#aaa" stroke-opacity="0.5" stroke-width="0.5"></path><path d="M161.9421 37.8357L239.2979 29.7984" fill="none" stroke="#aaa" stroke-opacity="0.5" stroke-width="0.5"></path><path d="M111.9263 113.0739L280.5617 194.3426" fill="none" stroke="#aaa" stroke-opacity="0.5" stroke-width="0.5"></path><path d="M308.672 123.5971L216.9829 181.7535" fill="none" stroke="#aaa" stroke-opacity="0.5" stroke-width="0.5"></path><path d="M308.672 123.5971L161.9421 37.8357" fill="none" stroke="#aaa" stroke-opacity="0.5" stroke-width="0.5"></path><path d="M111.9263 113.0739L269.6894 108.0589" fill="none" stroke="#aaa" stroke-opacity="0.5" stroke-width="0.5"></path><path d="M1 0A1 1 0 1 1 1 -0.0001" fill="#5470c6" transform="matrix(17.5,0,0,17.5,308.672,123.5971)"></path><path d="M1 0A1 1 0 1 1 1 -0.0001" fill="#5470c6" transform="matrix(17.5,0,0,17.5,301.9586,160.6752)"></path><path d="M1 0A1 1 0 1 1 1 -0.0001" fill="#5470c6" transform="matrix(17.5,0,0,17.5,216.9829,181.7535)"></path><path d="M1 0A1 1 0 1 1 1 -0.0001" fill="#5470c6" transform="matrix(17.5,0,0,17.5,280.5617,194.3426)"></path><path d="M1 0A1 1 0 1 1 1 -0.0001" fill="#5470c6" transform="matrix(17.5,0,0,17.5,248.0396,215.24)"></path><path d="M1 0A1 1 0 1 1 1 -0.0001" fill="#5470c6" transform="matrix(17.5,0,0,17.5,208.9024,222.8339)"></path><path d="M1 0A1 1 0 1 1 1 -0.0001" fill="#5470c6" transform="matrix(17.5,0,0,17.5,168.5676,176.0408)"></path><path d="M1 0A1 1 0 1 1 1 -0.0001" fill="#5470c6" transform="matrix(17.5,0,0,17.5,223.3557,119.1823)"></path><path d="M1 0A1 1 0 1 1 1 -0.0001" fill="#5470c6" transform="matrix(17.5,0,0,17.5,168.4808,215.3729)"></path><path d="M1 0A1 1 0 1 1 1 -0.0001" fill="#5470c6" transform="matrix(17.5,0,0,17.5,130.2494,186.443)"></path><path d="M1 0A1 1 0 1 1 1 -0.0001" fill="#5470c6" transform="matrix(17.5,0,0,17.5,176.1008,133.6862)"></path><path d="M1 0A1 1 0 1 1 1 -0.0001" fill="#5470c6" transform="matrix(17.5,0,0,17.5,120.9403,149.8893)"></path><path d="M1 0A1 1 0 1 1 1 -0.0001" fill="#5470c6" transform="matrix(17.5,0,0,17.5,147.324,99.2269)"></path><path d="M1 0A1 1 0 1 1 1 -0.0001" fill="#5470c6" transform="matrix(17.5,0,0,17.5,111.9263,113.0739)"></path><path d="M1 0A1 1 0 1 1 1 -0.0001" fill="#5470c6" transform="matrix(17.5,0,0,17.5,129.9823,65.9835)"></path><path d="M1 0A1 1 0 1 1 1 -0.0001" fill="#5470c6" transform="matrix(17.5,0,0,17.5,186.1164,73.9003)"></path><path d="M1 0A1 1 0 1 1 1 -0.0001" fill="#5470c6" transform="matrix(17.5,0,0,17.5,161.9421,37.8357)"></path><path d="M1 0A1 1 0 1 1 1 -0.0001" fill="#5470c6" transform="matrix(17.5,0,0,17.5,201.1645,30.0493)"></path><path d="M1 0A1 1 0 1 1 1 -0.0001" fill="#5470c6" transform="matrix(17.5,0,0,17.5,235.6489,70.7762)"></path><path d="M1 0A1 1 0 1 1 1 -0.0001" fill="#5470c6" transform="matrix(17.5,0,0,17.5,239.2979,29.7984)"></path><path d="M1 0A1 1 0 1 1 1 -0.0001" fill="#5470c6" transform="matrix(17.5,0,0,17.5,275.2674,50.9544)"></path><path d="M1 0A1 1 0 1 1 1 -0.0001" fill="#5470c6" transform="matrix(17.5,0,0,17.5,269.6894,108.0589)"></path><path d="M1 0A1 1 0 1 1 1 -0.0001" fill="#5470c6" transform="matrix(17.5,0,0,17.5,300.2778,82.3382)"></path><path d="M1 0A1 1 0 1 1 1 -0.0001" fill="#5470c6" transform="matrix(17.5,0,0,17.5,255.5722,158.9474)"></path><path d="M-25.1792 -5l50.3584 0l0 32l-50.3584 0Z" fill="rgb(0,0,0)" fill-opacity="0" stroke="#ccc" stroke-width="0" transform="translate(237.5 5)"></path><text dominant-baseline="central" fill="#333" style="font-size:22px;font-family:sans-serif;font-weight:bolder;" text-anchor="middle" transform="translate(237.5 5)" y="11">C85</text></g></svg>