<svg baseprofile="full" height="250" style="position:absolute;left:0;top:0;user-select:none" version="1.1" width="475" xmlns="http://www.w3.org/2000/svg" xmlns:xlink="http://www.w3.org/1999/xlink"><rect fill="none" height="250" id="0" width="475" x="0" y="0"></rect><g><path d="M119.0545 88.3602L177.5641 38.4918" fill="none" stroke="#aaa" stroke-opacity="0.5" stroke-width="0.5"></path><path d="M251.3543 37.6353L264.9536 136.6451" fill="none" stroke="#aaa" stroke-opacity="0.5" stroke-width="0.5"></path><path d="M289.2113 180.5068L177.9311 159.1094" fill="none" stroke="#aaa" stroke-opacity="0.5" stroke-width="0.5"></path><path d="M225.0464 162.5039L245.6326 90.4147" fill="none" stroke="#aaa" stroke-opacity="0.5" stroke-width="0.5"></path><path d="M251.3543 37.6353L151.099 202.5248" fill="none" stroke="#aaa" stroke-opacity="0.5" stroke-width="0.5"></path><path d="M225.5 162.5039L225.5 216.2175" fill="none" stroke="#aaa" stroke-opacity="0.5" stroke-width="0.5"></path><path d="M289.2113 180.5068L177.5641 38.4918" fill="none" stroke="#aaa" stroke-opacity="0.5" stroke-width="0.5"></path><path d="M188.106 219.7087L213.6555 27.5059" fill="none" stroke="#aaa" stroke-opacity="0.5" stroke-width="0.5"></path><path d="M188.106 219.7087L199.6757 87.3613" fill="none" stroke="#aaa" stroke-opacity="0.5" stroke-width="0.5"></path><path d="M125.1437 171.0824L262.6823 208.9694" fill="none" stroke="#aaa" stroke-opacity="0.5" stroke-width="0.5"></path><path d="M151.099 202.5248L262.6823 208.9694" fill="none" stroke="#aaa" stroke-opacity="0.5" stroke-width="0.5"></path><path d="M125.1437 171.0824L311.1006 141.0572" fill="none" stroke="#aaa" stroke-opacity="0.5" stroke-width="0.5"></path><path d="M304.1117 97.9895L199.6757 87.3613" fill="none" stroke="#aaa" stroke-opacity="0.5" stroke-width="0.5"></path><path d="M199.6757 87.3613L177.5641 38.4918" fill="none" stroke="#aaa" stroke-opacity="0.5" stroke-width="0.5"></path><path d="M143.8582 55.2632L159.7517 112.1105" fill="none" stroke="#aaa" stroke-opacity="0.5" stroke-width="0.5"></path><path d="M159.7517 112.1105L199.6757 87.3613" fill="none" stroke="#aaa" stroke-opacity="0.5" stroke-width="0.5"></path><path d="M285.3731 60.4484L159.7517 112.1105" fill="none" stroke="#aaa" stroke-opacity="0.5" stroke-width="0.5"></path><path d="M119.0545 88.3602L245.6326 90.4147" fill="none" stroke="#aaa" stroke-opacity="0.5" stroke-width="0.5"></path><path d="M251.3543 37.6353L159.7517 112.1105" fill="none" stroke="#aaa" stroke-opacity="0.5" stroke-width="0.5"></path><path d="M113.3228 131.0939L264.9536 136.6451" fill="none" stroke="#aaa" stroke-opacity="0.5" stroke-width="0.5"></path><path d="M113.3228 131.0939L151.099 202.5248" fill="none" stroke="#aaa" stroke-opacity="0.5" stroke-width="0.5"></path><path d="M289.2113 180.5068L245.6326 90.4147" fill="none" stroke="#aaa" stroke-opacity="0.5" stroke-width="0.5"></path><path d="M177.9311 159.1094L199.6757 87.3613" fill="none" stroke="#aaa" stroke-opacity="0.5" stroke-width="0.5"></path><path d="M289.2113 180.5068L225.015 216.2175" fill="none" stroke="#aaa" stroke-opacity="0.5" stroke-width="0.5"></path><path d="M143.8582 55.2632L225.0464 162.5039" fill="none" stroke="#aaa" stroke-opacity="0.5" stroke-width="0.5"></path><path d="M225.0464 162.5039L188.106 219.7087" fill="none" stroke="#aaa" stroke-opacity="0.5" stroke-width="0.5"></path><path d="M113.3228 131.0939L225.015 216.2175" fill="none" stroke="#aaa" stroke-opacity="0.5" stroke-width="0.5"></path><path d="M188.106 219.7087L177.5641 38.4918" fill="none" stroke="#aaa" stroke-opacity="0.5" stroke-width="0.5"></path><path d="M125.1437 171.0824L264.9536 136.6451" fill="none" stroke="#aaa" stroke-opacity="0.5" stroke-width="0.5"></path><path d="M125.1437 171.0824L151.099 202.5248" fill="none" stroke="#aaa" stroke-opacity="0.5" stroke-width="0.5"></path><path d="M251.3543 37.6353L225.0464 162.5039" fill="none" stroke="#aaa" stroke-opacity="0.5" stroke-width="0.5"></path><path d="M199.6757 87.3613L225.015 216.2175" fill="none" stroke="#aaa" stroke-opacity="0.5" stroke-width="0.5"></path><path d="M225.0464 162.5039L285.3731 60.4484" fill="none" stroke="#aaa" stroke-opacity="0.5" stroke-width="0.5"></path><path d="M304.1117 97.9895L177.5641 38.4918" fill="none" stroke="#aaa" stroke-opacity="0.5" stroke-width="0.5"></path><path d="M264.9536 136.6451L199.6757 87.3613" fill="none" stroke="#aaa" stroke-opacity="0.5" stroke-width="0.5"></path><path d="M213.6555 27.5059L285.3731 60.4484" fill="none" stroke="#aaa" stroke-opacity="0.5" stroke-width="0.5"></path><path d="M159.7517 112.1105L177.5641 38.4918" fill="none" stroke="#aaa" stroke-opacity="0.5" stroke-width="0.5"></path><path d="M225.0464 162.5039L119.0545 88.3602" fill="none" stroke="#aaa" stroke-opacity="0.5" stroke-width="0.5"></path><path d="M143.8582 55.2632L285.3731 60.4484" fill="none" stroke="#aaa" stroke-opacity="0.5" stroke-width="0.5"></path><path d="M113.3228 131.0939L159.7517 112.1105" fill="none" stroke="#aaa" stroke-opacity="0.5" stroke-width="0.5"></path><path d="M119.0545 88.3602L188.106 219.7087" fill="none" stroke="#aaa" stroke-opacity="0.5" stroke-width="0.5"></path><path d="M213.6555 27.5059L199.6757 87.3613" fill="none" stroke="#aaa" stroke-opacity="0.5" stroke-width="0.5"></path><path d="M143.8582 55.2632L119.0545 88.3602" fill="none" stroke="#aaa" stroke-opacity="0.5" stroke-width="0.5"></path><path d="M177.9311 159.1094L177.5641 38.4918" fill="none" stroke="#aaa" stroke-opacity="0.5" stroke-width="0.5"></path><path d="M188.106 219.7087L245.6326 90.4147" fill="none" stroke="#aaa" stroke-opacity="0.5" stroke-width="0.5"></path><path d="M125.1437 171.0824L159.7517 112.1105" fill="none" stroke="#aaa" stroke-opacity="0.5" stroke-width="0.5"></path><path d="M143.8582 55.2632L213.6555 27.5059" fill="none" stroke="#aaa" stroke-opacity="0.5" stroke-width="0.5"></path><path d="M251.3543 37.6353L285.3731 60.4484" fill="none" stroke="#aaa" stroke-opacity="0.5" stroke-width="0.5"></path><path d="M143.8582 55.2632L199.6757 87.3613" fill="none" stroke="#aaa" stroke-opacity="0.5" stroke-width="0.5"></path><path d="M225.015 216.2175L245.6326 90.4147" fill="none" stroke="#aaa" stroke-opacity="0.5" stroke-width="0.5"></path><path d="M304.1117 97.9895L264.9536 136.6451" fill="none" stroke="#aaa" stroke-opacity="0.5" stroke-width="0.5"></path><path d="M188.106 219.7087L225.015 216.2175" fill="none" stroke="#aaa" stroke-opacity="0.5" stroke-width="0.5"></path><path d="M304.1117 97.9895L151.099 202.5248" fill="none" stroke="#aaa" stroke-opacity="0.5" stroke-width="0.5"></path><path d="M285.3731 60.4484L199.6757 87.3613" fill="none" stroke="#aaa" stroke-opacity="0.5" stroke-width="0.5"></path><path d="M113.3228 131.0939L304.1117 97.9895" fill="none" stroke="#aaa" stroke-opacity="0.5" stroke-width="0.5"></path><path d="M119.0545 88.3602L285.3731 60.4484" fill="none" stroke="#aaa" stroke-opacity="0.5" stroke-width="0.5"></path><path d="M251.3543 37.6353L125.1437 171.0824" fill="none" stroke="#aaa" stroke-opacity="0.5" stroke-width="0.5"></path><path d="M159.7517 112.1105L264.9536 136.6451" fill="none" stroke="#aaa" stroke-opacity="0.5" stroke-width="0.5"></path><path d="M159.7517 112.1105L151.099 202.5248" fill="none" stroke="#aaa" stroke-opacity="0.5" stroke-width="0.5"></path><path d="M251.3543 37.6353L119.0545 88.3602" fill="none" stroke="#aaa" stroke-opacity="0.5" stroke-width="0.5"></path><path d="M251.3543 37.6353L213.6555 27.5059" fill="none" stroke="#aaa" stroke-opacity="0.5" stroke-width="0.5"></path><path d="M304.1117 97.9895L225.015 216.2175" fill="none" stroke="#aaa" stroke-opacity="0.5" stroke-width="0.5"></path><path d="M177.5641 38.4918L245.6326 90.4147" fill="none" stroke="#aaa" stroke-opacity="0.5" stroke-width="0.5"></path><path d="M251.3543 37.6353L199.6757 87.3613" fill="none" stroke="#aaa" stroke-opacity="0.5" stroke-width="0.5"></path><path d="M177.5641 38.4918L225.015 216.2175" fill="none" stroke="#aaa" stroke-opacity="0.5" stroke-width="0.5"></path><path d="M225.0464 162.5039L262.6823 208.9694" fill="none" stroke="#aaa" stroke-opacity="0.5" stroke-width="0.5"></path><path d="M159.7517 112.1105L225.015 216.2175" fill="none" stroke="#aaa" stroke-opacity="0.5" stroke-width="0.5"></path><path d="M125.1437 171.0824L225.0464 162.5039" fill="none" stroke="#aaa" stroke-opacity="0.5" stroke-width="0.5"></path><path d="M264.9536 136.6451L177.5641 38.4918" fill="none" stroke="#aaa" stroke-opacity="0.5" stroke-width="0.5"></path><path d="M188.106 219.7087L159.7517 112.1105" fill="none" stroke="#aaa" stroke-opacity="0.5" stroke-width="0.5"></path><path d="M177.9311 159.1094L245.6326 90.4147" fill="none" stroke="#aaa" stroke-opacity="0.5" stroke-width="0.5"></path><path d="M213.6555 27.5059L177.9311 159.1094" fill="none" stroke="#aaa" stroke-opacity="0.5" stroke-width="0.5"></path><path d="M177.9311 159.1094L225.015 216.2175" fill="none" stroke="#aaa" stroke-opacity="0.5" stroke-width="0.5"></path><path d="M304.1117 97.9895L159.7517 112.1105" fill="none" stroke="#aaa" stroke-opacity="0.5" stroke-width="0.5"></path><path d="M213.6555 27.5059L177.5641 38.4918" fill="none" stroke="#aaa" stroke-opacity="0.5" stroke-width="0.5"></path><path d="M143.8582 55.2632L177.9311 159.1094" fill="none" stroke="#aaa" stroke-opacity="0.5" stroke-width="0.5"></path><path d="M311.1006 141.0572L225.015 216.2175" fill="none" stroke="#aaa" stroke-opacity="0.5" stroke-width="0.5"></path><path d="M143.8582 55.2632L177.5641 38.4918" fill="none" stroke="#aaa" stroke-opacity="0.5" stroke-width="0.5"></path><path d="M188.106 219.7087L304.1117 97.9895" fill="none" stroke="#aaa" stroke-opacity="0.5" stroke-width="0.5"></path><path d="M285.3731 60.4484L177.9311 159.1094" fill="none" stroke="#aaa" stroke-opacity="0.5" stroke-width="0.5"></path><path d="M113.3228 131.0939L289.2113 180.5068" fill="none" stroke="#aaa" stroke-opacity="0.5" stroke-width="0.5"></path><path d="M285.3731 60.4484L177.5641 38.4918" fill="none" stroke="#aaa" stroke-opacity="0.5" stroke-width="0.5"></path><path d="M113.3228 131.0939L213.6555 27.5059" fill="none" stroke="#aaa" stroke-opacity="0.5" stroke-width="0.5"></path><path d="M113.3228 131.0939L199.6757 87.3613" fill="none" stroke="#aaa" stroke-opacity="0.5" stroke-width="0.5"></path><path d="M251.3543 37.6353L177.9311 159.1094" fill="none" stroke="#aaa" stroke-opacity="0.5" stroke-width="0.5"></path><path d="M264.9536 136.6451L245.6326 90.4147" fill="none" stroke="#aaa" stroke-opacity="0.5" stroke-width="0.5"></path><path d="M251.3543 37.6353L177.5641 38.4918" fill="none" stroke="#aaa" stroke-opacity="0.5" stroke-width="0.5"></path><path d="M289.2113 180.5068L262.6823 208.9694" fill="none" stroke="#aaa" stroke-opacity="0.5" stroke-width="0.5"></path><path d="M225.0464 162.5039L264.9536 136.6451" fill="none" stroke="#aaa" stroke-opacity="0.5" stroke-width="0.5"></path><path d="M264.9536 136.6451L225.015 216.2175" fill="none" stroke="#aaa" stroke-opacity="0.5" stroke-width="0.5"></path><path d="M125.1437 171.0824L119.0545 88.3602" fill="none" stroke="#aaa" stroke-opacity="0.5" stroke-width="0.5"></path><path d="M225.0464 162.5039L151.099 202.5248" fill="none" stroke="#aaa" stroke-opacity="0.5" stroke-width="0.5"></path><path d="M125.1437 171.0824L213.6555 27.5059" fill="none" stroke="#aaa" stroke-opacity="0.5" stroke-width="0.5"></path><path d="M125.1437 171.0824L199.6757 87.3613" fill="none" stroke="#aaa" stroke-opacity="0.5" stroke-width="0.5"></path><path d="M113.3228 131.0939L262.6823 208.9694" fill="none" stroke="#aaa" stroke-opacity="0.5" stroke-width="0.5"></path><path d="M113.3228 131.0939L311.1006 141.0572" fill="none" stroke="#aaa" stroke-opacity="0.5" stroke-width="0.5"></path><path d="M199.6757 87.3613L262.6823 208.9694" fill="none" stroke="#aaa" stroke-opacity="0.5" stroke-width="0.5"></path><path d="M213.6555 27.5059L245.6326 90.4147" fill="none" stroke="#aaa" stroke-opacity="0.5" stroke-width="0.5"></path><path d="M213.6555 27.5059L225.015 216.2175" fill="none" stroke="#aaa" stroke-opacity="0.5" stroke-width="0.5"></path><path d="M199.6757 87.3613L311.1006 141.0572" fill="none" stroke="#aaa" stroke-opacity="0.5" stroke-width="0.5"></path><path d="M143.8582 55.2632L245.6326 90.4147" fill="none" stroke="#aaa" stroke-opacity="0.5" stroke-width="0.5"></path><path d="M151.099 202.5248L311.1006 141.0572" fill="none" stroke="#aaa" stroke-opacity="0.5" stroke-width="0.5"></path><path d="M143.8582 55.2632L225.015 216.2175" fill="none" stroke="#aaa" stroke-opacity="0.5" stroke-width="0.5"></path><path d="M188.106 219.7087L289.2113 180.5068" fill="none" stroke="#aaa" stroke-opacity="0.5" stroke-width="0.5"></path><path d="M285.3731 60.4484L245.6326 90.4147" fill="none" stroke="#aaa" stroke-opacity="0.5" stroke-width="0.5"></path><path d="M285.3731 60.4484L225.015 216.2175" fill="none" stroke="#aaa" stroke-opacity="0.5" stroke-width="0.5"></path><path d="M119.0545 88.3602L264.9536 136.6451" fill="none" stroke="#aaa" stroke-opacity="0.5" stroke-width="0.5"></path><path d="M113.3228 131.0939L177.9311 159.1094" fill="none" stroke="#aaa" stroke-opacity="0.5" stroke-width="0.5"></path><path d="M119.0545 88.3602L151.099 202.5248" fill="none" stroke="#aaa" stroke-opacity="0.5" stroke-width="0.5"></path><path d="M251.3543 37.6353L245.6326 90.4147" fill="none" stroke="#aaa" stroke-opacity="0.5" stroke-width="0.5"></path><path d="M113.3228 131.0939L177.5641 38.4918" fill="none" stroke="#aaa" stroke-opacity="0.5" stroke-width="0.5"></path><path d="M225.0464 162.5039L159.7517 112.1105" fill="none" stroke="#aaa" stroke-opacity="0.5" stroke-width="0.5"></path><path d="M304.1117 97.9895L289.2113 180.5068" fill="none" stroke="#aaa" stroke-opacity="0.5" stroke-width="0.5"></path><path d="M251.3543 37.6353L225.015 216.2175" fill="none" stroke="#aaa" stroke-opacity="0.5" stroke-width="0.5"></path><path d="M289.2113 180.5068L264.9536 136.6451" fill="none" stroke="#aaa" stroke-opacity="0.5" stroke-width="0.5"></path><path d="M289.2113 180.5068L151.099 202.5248" fill="none" stroke="#aaa" stroke-opacity="0.5" stroke-width="0.5"></path><path d="M213.6555 27.5059L159.7517 112.1105" fill="none" stroke="#aaa" stroke-opacity="0.5" stroke-width="0.5"></path><path d="M159.7517 112.1105L289.2113 180.5068" fill="none" stroke="#aaa" stroke-opacity="0.5" stroke-width="0.5"></path><path d="M119.0545 88.3602L225.015 216.2175" fill="none" stroke="#aaa" stroke-opacity="0.5" stroke-width="0.5"></path><path d="M188.106 219.7087L262.6823 208.9694" fill="none" stroke="#aaa" stroke-opacity="0.5" stroke-width="0.5"></path><path d="M125.1437 171.0824L177.9311 159.1094" fill="none" stroke="#aaa" stroke-opacity="0.5" stroke-width="0.5"></path><path d="M125.1437 171.0824L177.5641 38.4918" fill="none" stroke="#aaa" stroke-opacity="0.5" stroke-width="0.5"></path><path d="M151.099 202.5248L177.5641 38.4918" fill="none" stroke="#aaa" stroke-opacity="0.5" stroke-width="0.5"></path><path d="M188.106 219.7087L311.1006 141.0572" fill="none" stroke="#aaa" stroke-opacity="0.5" stroke-width="0.5"></path><path d="M225.0464 162.5039L304.1117 97.9895" fill="none" stroke="#aaa" stroke-opacity="0.5" stroke-width="0.5"></path><path d="M304.1117 97.9895L262.6823 208.9694" fill="none" stroke="#aaa" stroke-opacity="0.5" stroke-width="0.5"></path><path d="M199.6757 87.3613L151.099 202.5248" fill="none" stroke="#aaa" stroke-opacity="0.5" stroke-width="0.5"></path><path d="M225.0464 162.5039L113.3228 131.0939" fill="none" stroke="#aaa" stroke-opacity="0.5" stroke-width="0.5"></path><path d="M213.6555 27.5059L304.1117 97.9895" fill="none" stroke="#aaa" stroke-opacity="0.5" stroke-width="0.5"></path><path d="M304.1117 97.9895L311.1006 141.0572" fill="none" stroke="#aaa" stroke-opacity="0.5" stroke-width="0.5"></path><path d="M262.6823 208.9694L177.5641 38.4918" fill="none" stroke="#aaa" stroke-opacity="0.5" stroke-width="0.5"></path><path d="M159.7517 112.1105L262.6823 208.9694" fill="none" stroke="#aaa" stroke-opacity="0.5" stroke-width="0.5"></path><path d="M143.8582 55.2632L304.1117 97.9895" fill="none" stroke="#aaa" stroke-opacity="0.5" stroke-width="0.5"></path><path d="M159.7517 112.1105L311.1006 141.0572" fill="none" stroke="#aaa" stroke-opacity="0.5" stroke-width="0.5"></path><path d="M119.0545 88.3602L159.7517 112.1105" fill="none" stroke="#aaa" stroke-opacity="0.5" stroke-width="0.5"></path><path d="M143.8582 55.2632L188.106 219.7087" fill="none" stroke="#aaa" stroke-opacity="0.5" stroke-width="0.5"></path><path d="M285.3731 60.4484L304.1117 97.9895" fill="none" stroke="#aaa" stroke-opacity="0.5" stroke-width="0.5"></path><path d="M143.8582 55.2632L113.3228 131.0939" fill="none" stroke="#aaa" stroke-opacity="0.5" stroke-width="0.5"></path><path d="M188.106 219.7087L177.9311 159.1094" fill="none" stroke="#aaa" stroke-opacity="0.5" stroke-width="0.5"></path><path d="M113.3228 131.0939L245.6326 90.4147" fill="none" stroke="#aaa" stroke-opacity="0.5" stroke-width="0.5"></path><path d="M177.9311 159.1094L262.6823 208.9694" fill="none" stroke="#aaa" stroke-opacity="0.5" stroke-width="0.5"></path><path d="M251.3543 37.6353L304.1117 97.9895" fill="none" stroke="#aaa" stroke-opacity="0.5" stroke-width="0.5"></path><path d="M199.6757 87.3613L245.6326 90.4147" fill="none" stroke="#aaa" stroke-opacity="0.5" stroke-width="0.5"></path><path d="M251.3543 37.6353L188.106 219.7087" fill="none" stroke="#aaa" stroke-opacity="0.5" stroke-width="0.5"></path><path d="M177.9311 159.1094L311.1006 141.0572" fill="none" stroke="#aaa" stroke-opacity="0.5" stroke-width="0.5"></path><path d="M304.1117 97.9895L177.9311 159.1094" fill="none" stroke="#aaa" stroke-opacity="0.5" stroke-width="0.5"></path><path d="M251.3543 37.6353L113.3228 131.0939" fill="none" stroke="#aaa" stroke-opacity="0.5" stroke-width="0.5"></path><path d="M125.1437 171.0824L245.6326 90.4147" fill="none" stroke="#aaa" stroke-opacity="0.5" stroke-width="0.5"></path><path d="M151.099 202.5248L245.6326 90.4147" fill="none" stroke="#aaa" stroke-opacity="0.5" stroke-width="0.5"></path><path d="M188.106 219.7087L264.9536 136.6451" fill="none" stroke="#aaa" stroke-opacity="0.5" stroke-width="0.5"></path><path d="M119.0545 88.3602L304.1117 97.9895" fill="none" stroke="#aaa" stroke-opacity="0.5" stroke-width="0.5"></path><path d="M311.1006 141.0572L262.6823 208.9694" fill="none" stroke="#aaa" stroke-opacity="0.5" stroke-width="0.5"></path><path d="M125.1437 171.0824L225.015 216.2175" fill="none" stroke="#aaa" stroke-opacity="0.5" stroke-width="0.5"></path><path d="M151.099 202.5248L225.015 216.2175" fill="none" stroke="#aaa" stroke-opacity="0.5" stroke-width="0.5"></path><path d="M188.106 219.7087L151.099 202.5248" fill="none" stroke="#aaa" stroke-opacity="0.5" stroke-width="0.5"></path><path d="M159.7517 112.1105L177.9311 159.1094" fill="none" stroke="#aaa" stroke-opacity="0.5" stroke-width="0.5"></path><path d="M119.0545 88.3602L113.3228 131.0939" fill="none" stroke="#aaa" stroke-opacity="0.5" stroke-width="0.5"></path><path d="M225.0464 162.5039L289.2113 180.5068" fill="none" stroke="#aaa" stroke-opacity="0.5" stroke-width="0.5"></path><path d="M262.6823 208.9694L245.6326 90.4147" fill="none" stroke="#aaa" stroke-opacity="0.5" stroke-width="0.5"></path><path d="M225.0464 162.5039L213.6555 27.5059" fill="none" stroke="#aaa" stroke-opacity="0.5" stroke-width="0.5"></path><path d="M262.6823 208.9694L225.015 216.2175" fill="none" stroke="#aaa" stroke-opacity="0.5" stroke-width="0.5"></path><path d="M213.6555 27.5059L289.2113 180.5068" fill="none" stroke="#aaa" stroke-opacity="0.5" stroke-width="0.5"></path><path d="M225.0464 162.5039L199.6757 87.3613" fill="none" stroke="#aaa" stroke-opacity="0.5" stroke-width="0.5"></path><path d="M264.9536 136.6451L262.6823 208.9694" fill="none" stroke="#aaa" stroke-opacity="0.5" stroke-width="0.5"></path><path d="M251.3543 37.6353L143.8582 55.2632" fill="none" stroke="#aaa" stroke-opacity="0.5" stroke-width="0.5"></path><path d="M143.8582 55.2632L289.2113 180.5068" fill="none" stroke="#aaa" stroke-opacity="0.5" stroke-width="0.5"></path><path d="M264.9536 136.6451L311.1006 141.0572" fill="none" stroke="#aaa" stroke-opacity="0.5" stroke-width="0.5"></path><path d="M285.3731 60.4484L289.2113 180.5068" fill="none" stroke="#aaa" stroke-opacity="0.5" stroke-width="0.5"></path><path d="M311.1006 141.0572L177.5641 38.4918" fill="none" stroke="#aaa" stroke-opacity="0.5" stroke-width="0.5"></path><path d="M225.0464 162.5039L311.1006 141.0572" fill="none" stroke="#aaa" stroke-opacity="0.5" stroke-width="0.5"></path><path d="M113.3228 131.0939L188.106 219.7087" fill="none" stroke="#aaa" stroke-opacity="0.5" stroke-width="0.5"></path><path d="M213.6555 27.5059L262.6823 208.9694" fill="none" stroke="#aaa" stroke-opacity="0.5" stroke-width="0.5"></path><path d="M251.3543 37.6353L289.2113 180.5068" fill="none" stroke="#aaa" stroke-opacity="0.5" stroke-width="0.5"></path><path d="M177.9311 159.1094L264.9536 136.6451" fill="none" stroke="#aaa" stroke-opacity="0.5" stroke-width="0.5"></path><path d="M177.9311 159.1094L151.099 202.5248" fill="none" stroke="#aaa" stroke-opacity="0.5" stroke-width="0.5"></path><path d="M304.1117 97.9895L245.6326 90.4147" fill="none" stroke="#aaa" stroke-opacity="0.5" stroke-width="0.5"></path><path d="M213.6555 27.5059L311.1006 141.0572" fill="none" stroke="#aaa" stroke-opacity="0.5" stroke-width="0.5"></path><path d="M143.8582 55.2632L262.6823 208.9694" fill="none" stroke="#aaa" stroke-opacity="0.5" stroke-width="0.5"></path><path d="M119.0545 88.3602L289.2113 180.5068" fill="none" stroke="#aaa" stroke-opacity="0.5" stroke-width="0.5"></path><path d="M159.7517 112.1105L245.6326 90.4147" fill="none" stroke="#aaa" stroke-opacity="0.5" stroke-width="0.5"></path><path d="M125.1437 171.0824L304.1117 97.9895" fill="none" stroke="#aaa" stroke-opacity="0.5" stroke-width="0.5"></path><path d="M285.3731 60.4484L262.6823 208.9694" fill="none" stroke="#aaa" stroke-opacity="0.5" stroke-width="0.5"></path><path d="M143.8582 55.2632L311.1006 141.0572" fill="none" stroke="#aaa" stroke-opacity="0.5" stroke-width="0.5"></path><path d="M119.0545 88.3602L213.6555 27.5059" fill="none" stroke="#aaa" stroke-opacity="0.5" stroke-width="0.5"></path><path d="M125.1437 171.0824L188.106 219.7087" fill="none" stroke="#aaa" stroke-opacity="0.5" stroke-width="0.5"></path><path d="M119.0545 88.3602L199.6757 87.3613" fill="none" stroke="#aaa" stroke-opacity="0.5" stroke-width="0.5"></path><path d="M113.3228 131.0939L285.3731 60.4484" fill="none" stroke="#aaa" stroke-opacity="0.5" stroke-width="0.5"></path><path d="M285.3731 60.4484L311.1006 141.0572" fill="none" stroke="#aaa" stroke-opacity="0.5" stroke-width="0.5"></path><path d="M125.1437 171.0824L113.3228 131.0939" fill="none" stroke="#aaa" stroke-opacity="0.5" stroke-width="0.5"></path><path d="M251.3543 37.6353L262.6823 208.9694" fill="none" stroke="#aaa" stroke-opacity="0.5" stroke-width="0.5"></path><path d="M289.2113 180.5068L199.6757 87.3613" fill="none" stroke="#aaa" stroke-opacity="0.5" stroke-width="0.5"></path><path d="M225.0464 162.5039L177.9311 159.1094" fill="none" stroke="#aaa" stroke-opacity="0.5" stroke-width="0.5"></path><path d="M251.3543 37.6353L311.1006 141.0572" fill="none" stroke="#aaa" stroke-opacity="0.5" stroke-width="0.5"></path><path d="M225.0464 162.5039L177.5641 38.4918" fill="none" stroke="#aaa" stroke-opacity="0.5" stroke-width="0.5"></path><path d="M125.1437 171.0824L285.3731 60.4484" fill="none" stroke="#aaa" stroke-opacity="0.5" stroke-width="0.5"></path><path d="M119.0545 88.3602L262.6823 208.9694" fill="none" stroke="#aaa" stroke-opacity="0.5" stroke-width="0.5"></path><path d="M264.9536 136.6451L151.099 202.5248" fill="none" stroke="#aaa" stroke-opacity="0.5" stroke-width="0.5"></path><path d="M119.0545 88.3602L311.1006 141.0572" fill="none" stroke="#aaa" stroke-opacity="0.5" stroke-width="0.5"></path><path d="M311.1006 141.0572L245.6326 90.4147" fill="none" stroke="#aaa" stroke-opacity="0.5" stroke-width="0.5"></path><path d="M125.1437 171.0824L143.8582 55.2632" fill="none" stroke="#aaa" stroke-opacity="0.5" stroke-width="0.5"></path><path d="M289.2113 180.5068L311.1006 141.0572" fill="none" stroke="#aaa" stroke-opacity="0.5" stroke-width="0.5"></path><path d="M213.6555 27.5059L264.9536 136.6451" fill="none" stroke="#aaa" stroke-opacity="0.5" stroke-width="0.5"></path><path d="M213.6555 27.5059L151.099 202.5248" fill="none" stroke="#aaa" stroke-opacity="0.5" stroke-width="0.5"></path><path d="M143.8582 55.2632L264.9536 136.6451" fill="none" stroke="#aaa" stroke-opacity="0.5" stroke-width="0.5"></path><path d="M143.8582 55.2632L151.099 202.5248" fill="none" stroke="#aaa" stroke-opacity="0.5" stroke-width="0.5"></path><path d="M125.1437 171.0824L289.2113 180.5068" fill="none" stroke="#aaa" stroke-opacity="0.5" stroke-width="0.5"></path><path d="M285.3731 60.4484L264.9536 136.6451" fill="none" stroke="#aaa" stroke-opacity="0.5" stroke-width="0.5"></path><path d="M188.106 219.7087L285.3731 60.4484" fill="none" stroke="#aaa" stroke-opacity="0.5" stroke-width="0.5"></path><path d="M285.3731 60.4484L151.099 202.5248" fill="none" stroke="#aaa" stroke-opacity="0.5" stroke-width="0.5"></path><path d="M119.0545 88.3602L177.9311 159.1094" fill="none" stroke="#aaa" stroke-opacity="0.5" stroke-width="0.5"></path><path d="M1 0A1 1 0 1 1 1 -0.0001" fill="#5470c6" transform="matrix(18,0,0,18,264.9536,136.6451)"></path><path d="M1 0A1 1 0 1 1 1 -0.0001" fill="#5470c6" transform="matrix(18,0,0,18,289.2113,180.5068)"></path><path d="M1 0A1 1 0 1 1 1 -0.0001" fill="#5470c6" transform="matrix(18,0,0,18,225.0464,162.5039)"></path><path d="M1 0A1 1 0 1 1 1 -0.0001" fill="#5470c6" transform="matrix(18,0,0,18,262.6823,208.9694)"></path><path d="M1 0A1 1 0 1 1 1 -0.0001" fill="#5470c6" transform="matrix(18,0,0,18,225.015,216.2175)"></path><path d="M1 0A1 1 0 1 1 1 -0.0001" fill="#5470c6" transform="matrix(18,0,0,18,188.106,219.7087)"></path><path d="M1 0A1 1 0 1 1 1 -0.0001" fill="#5470c6" transform="matrix(18,0,0,18,151.099,202.5248)"></path><path d="M1 0A1 1 0 1 1 1 -0.0001" fill="#5470c6" transform="matrix(18,0,0,18,177.9311,159.1094)"></path><path d="M1 0A1 1 0 1 1 1 -0.0001" fill="#5470c6" transform="matrix(18,0,0,18,125.1437,171.0824)"></path><path d="M1 0A1 1 0 1 1 1 -0.0001" fill="#5470c6" transform="matrix(18,0,0,18,113.3228,131.0939)"></path><path d="M1 0A1 1 0 1 1 1 -0.0001" fill="#5470c6" transform="matrix(18,0,0,18,159.7517,112.1105)"></path><path d="M1 0A1 1 0 1 1 1 -0.0001" fill="#5470c6" transform="matrix(18,0,0,18,119.0545,88.3602)"></path><path d="M1 0A1 1 0 1 1 1 -0.0001" fill="#5470c6" transform="matrix(18,0,0,18,143.8582,55.2632)"></path><path d="M1 0A1 1 0 1 1 1 -0.0001" fill="#5470c6" transform="matrix(18,0,0,18,199.6757,87.3613)"></path><path d="M1 0A1 1 0 1 1 1 -0.0001" fill="#5470c6" transform="matrix(18,0,0,18,177.5641,38.4918)"></path><path d="M1 0A1 1 0 1 1 1 -0.0001" fill="#5470c6" transform="matrix(18,0,0,18,213.6555,27.5059)"></path><path d="M1 0A1 1 0 1 1 1 -0.0001" fill="#5470c6" transform="matrix(18,0,0,18,251.3543,37.6353)"></path><path d="M1 0A1 1 0 1 1 1 -0.0001" fill="#5470c6" transform="matrix(18,0,0,18,285.3731,60.4484)"></path><path d="M1 0A1 1 0 1 1 1 -0.0001" fill="#5470c6" transform="matrix(18,0,0,18,245.6326,90.4147)"></path><path d="M1 0A1 1 0 1 1 1 -0.0001" fill="#5470c6" transform="matrix(18,0,0,18,304.1117,97.9895)"></path><path d="M1 0A1 1 0 1 1 1 -0.0001" fill="#5470c6" transform="matrix(18,0,0,18,311.1006,141.0572)"></path><path d="M-25.1792 -5l50.3584 0l0 32l-50.3584 0Z" fill="rgb(0,0,0)" fill-opacity="0" stroke="#ccc" stroke-width="0" transform="translate(237.5 5)"></path><text dominant-baseline="central" fill="#333" style="font-size:22px;font-family:sans-serif;font-weight:bolder;" text-anchor="middle" transform="translate(237.5 5)" y="11">C86</text></g></svg>