<svg baseprofile="full" height="250" style="position:absolute;left:0;top:0;user-select:none" version="1.1" width="475" xmlns="http://www.w3.org/2000/svg" xmlns:xlink="http://www.w3.org/1999/xlink"><rect fill="none" height="250" id="0" width="475" x="0" y="0"></rect><g><path d="M258.5873 213.8774L209.4535 224.996" fill="none" stroke="#aaa" stroke-opacity="0.5" stroke-width="0.5"></path><path d="M167.664 212.4036L135.6338 186.7079" fill="none" stroke="#aaa" stroke-opacity="0.5" stroke-width="0.5"></path><path d="M167.664 212.4036L115.4323 96.4111" fill="none" stroke="#aaa" stroke-opacity="0.5" stroke-width="0.5"></path><path d="M215.5676 29.0709L246.3893 84.6704" fill="none" stroke="#aaa" stroke-opacity="0.5" stroke-width="0.5"></path><path d="M292.1768 180.8416L239.2924 131.1672" fill="none" stroke="#aaa" stroke-opacity="0.5" stroke-width="0.5"></path><path d="M113.0404 147.1713L309.493 107.5325" fill="none" stroke="#aaa" stroke-opacity="0.5" stroke-width="0.5"></path><path d="M255.556 35.591L215.5676 29.0709" fill="none" stroke="#aaa" stroke-opacity="0.5" stroke-width="0.5"></path><path d="M255.556 35.591L174.6591 35.1739" fill="none" stroke="#aaa" stroke-opacity="0.5" stroke-width="0.5"></path><path d="M167.664 212.4036L239.2924 131.1672" fill="none" stroke="#aaa" stroke-opacity="0.5" stroke-width="0.5"></path><path d="M255.556 35.591L209.4535 224.996" fill="none" stroke="#aaa" stroke-opacity="0.5" stroke-width="0.5"></path><path d="M246.3893 84.6704L174.6591 35.1739" fill="none" stroke="#aaa" stroke-opacity="0.5" stroke-width="0.5"></path><path d="M298.5799 143.7871L113.0404 147.1713" fill="none" stroke="#aaa" stroke-opacity="0.5" stroke-width="0.5"></path><path d="M215.5676 29.0709L174.6591 35.1739" fill="none" stroke="#aaa" stroke-opacity="0.5" stroke-width="0.5"></path><path d="M246.3893 84.6704L209.4535 224.996" fill="none" stroke="#aaa" stroke-opacity="0.5" stroke-width="0.5"></path><path d="M290.2466 67.43L246.3893 84.6704" fill="none" stroke="#aaa" stroke-opacity="0.5" stroke-width="0.5"></path><path d="M215.5676 29.0709L209.4535 224.996" fill="none" stroke="#aaa" stroke-opacity="0.5" stroke-width="0.5"></path><path d="M153.0211 119.8276L309.493 107.5325" fill="none" stroke="#aaa" stroke-opacity="0.5" stroke-width="0.5"></path><path d="M258.5873 213.8774L239.2924 131.1672" fill="none" stroke="#aaa" stroke-opacity="0.5" stroke-width="0.5"></path><path d="M290.2466 67.43L292.1768 180.8416" fill="none" stroke="#aaa" stroke-opacity="0.5" stroke-width="0.5"></path><path d="M167.664 212.4036L190.7575 83.7418" fill="none" stroke="#aaa" stroke-opacity="0.5" stroke-width="0.5"></path><path d="M290.2466 67.43L167.664 212.4036" fill="none" stroke="#aaa" stroke-opacity="0.5" stroke-width="0.5"></path><path d="M290.2466 67.43L215.5676 29.0709" fill="none" stroke="#aaa" stroke-opacity="0.5" stroke-width="0.5"></path><path d="M290.2466 67.43L174.6591 35.1739" fill="none" stroke="#aaa" stroke-opacity="0.5" stroke-width="0.5"></path><path d="M239.2924 131.1672L184.0185 160.7345" fill="none" stroke="#aaa" stroke-opacity="0.5" stroke-width="0.5"></path><path d="M255.556 35.591L239.2924 131.1672" fill="none" stroke="#aaa" stroke-opacity="0.5" stroke-width="0.5"></path><path d="M290.2466 67.43L209.4535 224.996" fill="none" stroke="#aaa" stroke-opacity="0.5" stroke-width="0.5"></path><path d="M258.5873 213.8774L190.7575 83.7418" fill="none" stroke="#aaa" stroke-opacity="0.5" stroke-width="0.5"></path><path d="M292.1768 180.8416L298.5799 143.7871" fill="none" stroke="#aaa" stroke-opacity="0.5" stroke-width="0.5"></path><path d="M153.0211 119.8276L246.3893 84.6704" fill="none" stroke="#aaa" stroke-opacity="0.5" stroke-width="0.5"></path><path d="M167.664 212.4036L298.5799 143.7871" fill="none" stroke="#aaa" stroke-opacity="0.5" stroke-width="0.5"></path><path d="M255.556 35.591L190.7575 83.7418" fill="none" stroke="#aaa" stroke-opacity="0.5" stroke-width="0.5"></path><path d="M153.0211 119.8276L292.1768 180.8416" fill="none" stroke="#aaa" stroke-opacity="0.5" stroke-width="0.5"></path><path d="M233.5693 179.8964L139.3793 58.9677" fill="none" stroke="#aaa" stroke-opacity="0.5" stroke-width="0.5"></path><path d="M290.2466 67.43L239.2924 131.1672" fill="none" stroke="#aaa" stroke-opacity="0.5" stroke-width="0.5"></path><path d="M258.5873 213.8774L298.5799 143.7871" fill="none" stroke="#aaa" stroke-opacity="0.5" stroke-width="0.5"></path><path d="M167.664 212.4036L233.5693 179.8964" fill="none" stroke="#aaa" stroke-opacity="0.5" stroke-width="0.5"></path><path d="M139.3793 58.9677L184.0185 160.7345" fill="none" stroke="#aaa" stroke-opacity="0.5" stroke-width="0.5"></path><path d="M239.2924 131.1672L135.6338 186.7079" fill="none" stroke="#aaa" stroke-opacity="0.5" stroke-width="0.5"></path><path d="M153.0211 119.8276L209.4535 224.996" fill="none" stroke="#aaa" stroke-opacity="0.5" stroke-width="0.5"></path><path d="M239.2924 131.1672L115.4323 96.4111" fill="none" stroke="#aaa" stroke-opacity="0.5" stroke-width="0.5"></path><path d="M190.7575 83.7418L184.0185 160.7345" fill="none" stroke="#aaa" stroke-opacity="0.5" stroke-width="0.5"></path><path d="M290.2466 67.43L190.7575 83.7418" fill="none" stroke="#aaa" stroke-opacity="0.5" stroke-width="0.5"></path><path d="M139.3793 58.9677L215.5676 29.0709" fill="none" stroke="#aaa" stroke-opacity="0.5" stroke-width="0.5"></path><path d="M139.3793 58.9677L174.6591 35.1739" fill="none" stroke="#aaa" stroke-opacity="0.5" stroke-width="0.5"></path><path d="M209.4535 224.996L135.6338 186.7079" fill="none" stroke="#aaa" stroke-opacity="0.5" stroke-width="0.5"></path><path d="M209.4535 224.996L115.4323 96.4111" fill="none" stroke="#aaa" stroke-opacity="0.5" stroke-width="0.5"></path><path d="M292.1768 180.8416L113.0404 147.1713" fill="none" stroke="#aaa" stroke-opacity="0.5" stroke-width="0.5"></path><path d="M167.664 212.4036L113.0404 147.1713" fill="none" stroke="#aaa" stroke-opacity="0.5" stroke-width="0.5"></path><path d="M174.6591 35.1739L135.6338 186.7079" fill="none" stroke="#aaa" stroke-opacity="0.5" stroke-width="0.5"></path><path d="M298.5799 143.7871L309.493 107.5325" fill="none" stroke="#aaa" stroke-opacity="0.5" stroke-width="0.5"></path><path d="M139.3793 58.9677L135.6338 186.7079" fill="none" stroke="#aaa" stroke-opacity="0.5" stroke-width="0.5"></path><path d="M139.3793 58.9677L115.4323 96.4111" fill="none" stroke="#aaa" stroke-opacity="0.5" stroke-width="0.5"></path><path d="M233.5693 179.8964L184.0185 160.7345" fill="none" stroke="#aaa" stroke-opacity="0.5" stroke-width="0.5"></path><path d="M190.7575 83.7418L135.6338 186.7079" fill="none" stroke="#aaa" stroke-opacity="0.5" stroke-width="0.5"></path><path d="M258.5873 213.8774L113.0404 147.1713" fill="none" stroke="#aaa" stroke-opacity="0.5" stroke-width="0.5"></path><path d="M190.7575 83.7418L115.4323 96.4111" fill="none" stroke="#aaa" stroke-opacity="0.5" stroke-width="0.5"></path><path d="M292.1768 180.8416L255.556 35.591" fill="none" stroke="#aaa" stroke-opacity="0.5" stroke-width="0.5"></path><path d="M139.3793 58.9677L239.2924 131.1672" fill="none" stroke="#aaa" stroke-opacity="0.5" stroke-width="0.5"></path><path d="M153.0211 119.8276L190.7575 83.7418" fill="none" stroke="#aaa" stroke-opacity="0.5" stroke-width="0.5"></path><path d="M190.7575 83.7418L239.2924 131.1672" fill="none" stroke="#aaa" stroke-opacity="0.5" stroke-width="0.5"></path><path d="M233.5693 179.8964L215.5676 29.0709" fill="none" stroke="#aaa" stroke-opacity="0.5" stroke-width="0.5"></path><path d="M255.556 35.591L113.0404 147.1713" fill="none" stroke="#aaa" stroke-opacity="0.5" stroke-width="0.5"></path><path d="M233.5693 179.8964L174.6591 35.1739" fill="none" stroke="#aaa" stroke-opacity="0.5" stroke-width="0.5"></path><path d="M233.5693 179.8964L153.0211 119.8276" fill="none" stroke="#aaa" stroke-opacity="0.5" stroke-width="0.5"></path><path d="M239.2924 131.1672L298.5799 143.7871" fill="none" stroke="#aaa" stroke-opacity="0.5" stroke-width="0.5"></path><path d="M215.5676 29.0709L113.0404 147.1713" fill="none" stroke="#aaa" stroke-opacity="0.5" stroke-width="0.5"></path><path d="M115.4323 96.4111L174.6591 35.1739" fill="none" stroke="#aaa" stroke-opacity="0.5" stroke-width="0.5"></path><path d="M233.5693 179.8964L135.6338 186.7079" fill="none" stroke="#aaa" stroke-opacity="0.5" stroke-width="0.5"></path><path d="M233.5693 179.8964L115.4323 96.4111" fill="none" stroke="#aaa" stroke-opacity="0.5" stroke-width="0.5"></path><path d="M298.5799 143.7871L209.4535 224.996" fill="none" stroke="#aaa" stroke-opacity="0.5" stroke-width="0.5"></path><path d="M233.5693 179.8964L239.2924 131.1672" fill="none" stroke="#aaa" stroke-opacity="0.5" stroke-width="0.5"></path><path d="M115.4323 96.4111L135.6338 186.7079" fill="none" stroke="#aaa" stroke-opacity="0.5" stroke-width="0.5"></path><path d="M139.3793 58.9677L298.5799 143.7871" fill="none" stroke="#aaa" stroke-opacity="0.5" stroke-width="0.5"></path><path d="M190.7575 83.7418L298.5799 143.7871" fill="none" stroke="#aaa" stroke-opacity="0.5" stroke-width="0.5"></path><path d="M292.1768 180.8416L309.493 107.5325" fill="none" stroke="#aaa" stroke-opacity="0.5" stroke-width="0.5"></path><path d="M167.664 212.4036L309.493 107.5325" fill="none" stroke="#aaa" stroke-opacity="0.5" stroke-width="0.5"></path><path d="M233.5693 179.8964L298.5799 143.7871" fill="none" stroke="#aaa" stroke-opacity="0.5" stroke-width="0.5"></path><path d="M258.5873 213.8774L184.0185 160.7345" fill="none" stroke="#aaa" stroke-opacity="0.5" stroke-width="0.5"></path><path d="M139.3793 58.9677L113.0404 147.1713" fill="none" stroke="#aaa" stroke-opacity="0.5" stroke-width="0.5"></path><path d="M292.1768 180.8416L246.3893 84.6704" fill="none" stroke="#aaa" stroke-opacity="0.5" stroke-width="0.5"></path><path d="M190.7575 83.7418L113.0404 147.1713" fill="none" stroke="#aaa" stroke-opacity="0.5" stroke-width="0.5"></path><path d="M255.556 35.591L184.0185 160.7345" fill="none" stroke="#aaa" stroke-opacity="0.5" stroke-width="0.5"></path><path d="M258.5873 213.8774L153.0211 119.8276" fill="none" stroke="#aaa" stroke-opacity="0.5" stroke-width="0.5"></path><path d="M139.3793 58.9677L255.556 35.591" fill="none" stroke="#aaa" stroke-opacity="0.5" stroke-width="0.5"></path><path d="M153.0211 119.8276L139.3793 58.9677" fill="none" stroke="#aaa" stroke-opacity="0.5" stroke-width="0.5"></path><path d="M292.1768 180.8416L209.4535 224.996" fill="none" stroke="#aaa" stroke-opacity="0.5" stroke-width="0.5"></path><path d="M258.5873 213.8774L135.6338 186.7079" fill="none" stroke="#aaa" stroke-opacity="0.5" stroke-width="0.5"></path><path d="M258.5873 213.8774L115.4323 96.4111" fill="none" stroke="#aaa" stroke-opacity="0.5" stroke-width="0.5"></path><path d="M184.0185 160.7345L246.3893 84.6704" fill="none" stroke="#aaa" stroke-opacity="0.5" stroke-width="0.5"></path><path d="M290.2466 67.43L184.0185 160.7345" fill="none" stroke="#aaa" stroke-opacity="0.5" stroke-width="0.5"></path><path d="M233.5693 179.8964L113.0404 147.1713" fill="none" stroke="#aaa" stroke-opacity="0.5" stroke-width="0.5"></path><path d="M255.556 35.591L135.6338 186.7079" fill="none" stroke="#aaa" stroke-opacity="0.5" stroke-width="0.5"></path><path d="M255.556 35.591L115.4323 96.4111" fill="none" stroke="#aaa" stroke-opacity="0.5" stroke-width="0.5"></path><path d="M246.3893 84.6704L135.6338 186.7079" fill="none" stroke="#aaa" stroke-opacity="0.5" stroke-width="0.5"></path><path d="M246.3893 84.6704L115.4323 96.4111" fill="none" stroke="#aaa" stroke-opacity="0.5" stroke-width="0.5"></path><path d="M184.0185 160.7345L215.5676 29.0709" fill="none" stroke="#aaa" stroke-opacity="0.5" stroke-width="0.5"></path><path d="M239.2924 131.1672L309.493 107.5325" fill="none" stroke="#aaa" stroke-opacity="0.5" stroke-width="0.5"></path><path d="M184.0185 160.7345L174.6591 35.1739" fill="none" stroke="#aaa" stroke-opacity="0.5" stroke-width="0.5"></path><path d="M115.4323 96.4111L113.0404 147.1713" fill="none" stroke="#aaa" stroke-opacity="0.5" stroke-width="0.5"></path><path d="M215.5676 29.0709L135.6338 186.7079" fill="none" stroke="#aaa" stroke-opacity="0.5" stroke-width="0.5"></path><path d="M215.5676 29.0709L115.4323 96.4111" fill="none" stroke="#aaa" stroke-opacity="0.5" stroke-width="0.5"></path><path d="M290.2466 67.43L153.0211 119.8276" fill="none" stroke="#aaa" stroke-opacity="0.5" stroke-width="0.5"></path><path d="M167.664 212.4036L258.5873 213.8774" fill="none" stroke="#aaa" stroke-opacity="0.5" stroke-width="0.5"></path><path d="M184.0185 160.7345L209.4535 224.996" fill="none" stroke="#aaa" stroke-opacity="0.5" stroke-width="0.5"></path><path d="M233.5693 179.8964L255.556 35.591" fill="none" stroke="#aaa" stroke-opacity="0.5" stroke-width="0.5"></path><path d="M184.0185 160.7345L135.6338 186.7079" fill="none" stroke="#aaa" stroke-opacity="0.5" stroke-width="0.5"></path><path d="M292.1768 180.8416L190.7575 83.7418" fill="none" stroke="#aaa" stroke-opacity="0.5" stroke-width="0.5"></path><path d="M153.0211 119.8276L184.0185 160.7345" fill="none" stroke="#aaa" stroke-opacity="0.5" stroke-width="0.5"></path><path d="M135.6338 186.7079L309.493 107.5325" fill="none" stroke="#aaa" stroke-opacity="0.5" stroke-width="0.5"></path><path d="M184.0185 160.7345L115.4323 96.4111" fill="none" stroke="#aaa" stroke-opacity="0.5" stroke-width="0.5"></path><path d="M290.2466 67.43L135.6338 186.7079" fill="none" stroke="#aaa" stroke-opacity="0.5" stroke-width="0.5"></path><path d="M209.4535 224.996L309.493 107.5325" fill="none" stroke="#aaa" stroke-opacity="0.5" stroke-width="0.5"></path><path d="M113.0404 147.1713L174.6591 35.1739" fill="none" stroke="#aaa" stroke-opacity="0.5" stroke-width="0.5"></path><path d="M290.2466 67.43L115.4323 96.4111" fill="none" stroke="#aaa" stroke-opacity="0.5" stroke-width="0.5"></path><path d="M174.6591 35.1739L309.493 107.5325" fill="none" stroke="#aaa" stroke-opacity="0.5" stroke-width="0.5"></path><path d="M239.2924 131.1672L246.3893 84.6704" fill="none" stroke="#aaa" stroke-opacity="0.5" stroke-width="0.5"></path><path d="M139.3793 58.9677L309.493 107.5325" fill="none" stroke="#aaa" stroke-opacity="0.5" stroke-width="0.5"></path><path d="M153.0211 119.8276L215.5676 29.0709" fill="none" stroke="#aaa" stroke-opacity="0.5" stroke-width="0.5"></path><path d="M153.0211 119.8276L174.6591 35.1739" fill="none" stroke="#aaa" stroke-opacity="0.5" stroke-width="0.5"></path><path d="M113.0404 147.1713L135.6338 186.7079" fill="none" stroke="#aaa" stroke-opacity="0.5" stroke-width="0.5"></path><path d="M190.7575 83.7418L309.493 107.5325" fill="none" stroke="#aaa" stroke-opacity="0.5" stroke-width="0.5"></path><path d="M239.2924 131.1672L215.5676 29.0709" fill="none" stroke="#aaa" stroke-opacity="0.5" stroke-width="0.5"></path><path d="M239.2924 131.1672L174.6591 35.1739" fill="none" stroke="#aaa" stroke-opacity="0.5" stroke-width="0.5"></path><path d="M239.2924 131.1672L209.4535 224.996" fill="none" stroke="#aaa" stroke-opacity="0.5" stroke-width="0.5"></path><path d="M255.556 35.591L298.5799 143.7871" fill="none" stroke="#aaa" stroke-opacity="0.5" stroke-width="0.5"></path><path d="M153.0211 119.8276L135.6338 186.7079" fill="none" stroke="#aaa" stroke-opacity="0.5" stroke-width="0.5"></path><path d="M153.0211 119.8276L115.4323 96.4111" fill="none" stroke="#aaa" stroke-opacity="0.5" stroke-width="0.5"></path><path d="M246.3893 84.6704L298.5799 143.7871" fill="none" stroke="#aaa" stroke-opacity="0.5" stroke-width="0.5"></path><path d="M290.2466 67.43L258.5873 213.8774" fill="none" stroke="#aaa" stroke-opacity="0.5" stroke-width="0.5"></path><path d="M215.5676 29.0709L298.5799 143.7871" fill="none" stroke="#aaa" stroke-opacity="0.5" stroke-width="0.5"></path><path d="M139.3793 58.9677L246.3893 84.6704" fill="none" stroke="#aaa" stroke-opacity="0.5" stroke-width="0.5"></path><path d="M153.0211 119.8276L239.2924 131.1672" fill="none" stroke="#aaa" stroke-opacity="0.5" stroke-width="0.5"></path><path d="M209.4535 224.996L174.6591 35.1739" fill="none" stroke="#aaa" stroke-opacity="0.5" stroke-width="0.5"></path><path d="M190.7575 83.7418L246.3893 84.6704" fill="none" stroke="#aaa" stroke-opacity="0.5" stroke-width="0.5"></path><path d="M233.5693 179.8964L309.493 107.5325" fill="none" stroke="#aaa" stroke-opacity="0.5" stroke-width="0.5"></path><path d="M184.0185 160.7345L298.5799 143.7871" fill="none" stroke="#aaa" stroke-opacity="0.5" stroke-width="0.5"></path><path d="M290.2466 67.43L298.5799 143.7871" fill="none" stroke="#aaa" stroke-opacity="0.5" stroke-width="0.5"></path><path d="M139.3793 58.9677L209.4535 224.996" fill="none" stroke="#aaa" stroke-opacity="0.5" stroke-width="0.5"></path><path d="M190.7575 83.7418L215.5676 29.0709" fill="none" stroke="#aaa" stroke-opacity="0.5" stroke-width="0.5"></path><path d="M190.7575 83.7418L174.6591 35.1739" fill="none" stroke="#aaa" stroke-opacity="0.5" stroke-width="0.5"></path><path d="M167.664 212.4036L255.556 35.591" fill="none" stroke="#aaa" stroke-opacity="0.5" stroke-width="0.5"></path><path d="M115.4323 96.4111L309.493 107.5325" fill="none" stroke="#aaa" stroke-opacity="0.5" stroke-width="0.5"></path><path d="M190.7575 83.7418L209.4535 224.996" fill="none" stroke="#aaa" stroke-opacity="0.5" stroke-width="0.5"></path><path d="M290.2466 67.43L233.5693 179.8964" fill="none" stroke="#aaa" stroke-opacity="0.5" stroke-width="0.5"></path><path d="M246.3893 84.6704L113.0404 147.1713" fill="none" stroke="#aaa" stroke-opacity="0.5" stroke-width="0.5"></path><path d="M258.5873 213.8774L255.556 35.591" fill="none" stroke="#aaa" stroke-opacity="0.5" stroke-width="0.5"></path><path d="M233.5693 179.8964L246.3893 84.6704" fill="none" stroke="#aaa" stroke-opacity="0.5" stroke-width="0.5"></path><path d="M153.0211 119.8276L298.5799 143.7871" fill="none" stroke="#aaa" stroke-opacity="0.5" stroke-width="0.5"></path><path d="M233.5693 179.8964L292.1768 180.8416" fill="none" stroke="#aaa" stroke-opacity="0.5" stroke-width="0.5"></path><path d="M298.5799 143.7871L174.6591 35.1739" fill="none" stroke="#aaa" stroke-opacity="0.5" stroke-width="0.5"></path><path d="M184.0185 160.7345L113.0404 147.1713" fill="none" stroke="#aaa" stroke-opacity="0.5" stroke-width="0.5"></path><path d="M290.2466 67.43L113.0404 147.1713" fill="none" stroke="#aaa" stroke-opacity="0.5" stroke-width="0.5"></path><path d="M233.5693 179.8964L209.4535 224.996" fill="none" stroke="#aaa" stroke-opacity="0.5" stroke-width="0.5"></path><path d="M292.1768 180.8416L139.3793 58.9677" fill="none" stroke="#aaa" stroke-opacity="0.5" stroke-width="0.5"></path><path d="M139.3793 58.9677L190.7575 83.7418" fill="none" stroke="#aaa" stroke-opacity="0.5" stroke-width="0.5"></path><path d="M298.5799 143.7871L135.6338 186.7079" fill="none" stroke="#aaa" stroke-opacity="0.5" stroke-width="0.5"></path><path d="M167.664 212.4036L139.3793 58.9677" fill="none" stroke="#aaa" stroke-opacity="0.5" stroke-width="0.5"></path><path d="M298.5799 143.7871L115.4323 96.4111" fill="none" stroke="#aaa" stroke-opacity="0.5" stroke-width="0.5"></path><path d="M290.2466 67.43L255.556 35.591" fill="none" stroke="#aaa" stroke-opacity="0.5" stroke-width="0.5"></path><path d="M258.5873 213.8774L139.3793 58.9677" fill="none" stroke="#aaa" stroke-opacity="0.5" stroke-width="0.5"></path><path d="M233.5693 179.8964L258.5873 213.8774" fill="none" stroke="#aaa" stroke-opacity="0.5" stroke-width="0.5"></path><path d="M153.0211 119.8276L113.0404 147.1713" fill="none" stroke="#aaa" stroke-opacity="0.5" stroke-width="0.5"></path><path d="M239.2924 131.1672L113.0404 147.1713" fill="none" stroke="#aaa" stroke-opacity="0.5" stroke-width="0.5"></path><path d="M258.5873 213.8774L309.493 107.5325" fill="none" stroke="#aaa" stroke-opacity="0.5" stroke-width="0.5"></path><path d="M233.5693 179.8964L190.7575 83.7418" fill="none" stroke="#aaa" stroke-opacity="0.5" stroke-width="0.5"></path><path d="M153.0211 119.8276L255.556 35.591" fill="none" stroke="#aaa" stroke-opacity="0.5" stroke-width="0.5"></path><path d="M292.1768 180.8416L184.0185 160.7345" fill="none" stroke="#aaa" stroke-opacity="0.5" stroke-width="0.5"></path><path d="M167.664 212.4036L184.0185 160.7345" fill="none" stroke="#aaa" stroke-opacity="0.5" stroke-width="0.5"></path><path d="M167.664 212.4036L246.3893 84.6704" fill="none" stroke="#aaa" stroke-opacity="0.5" stroke-width="0.5"></path><path d="M255.556 35.591L309.493 107.5325" fill="none" stroke="#aaa" stroke-opacity="0.5" stroke-width="0.5"></path><path d="M209.4535 224.996L113.0404 147.1713" fill="none" stroke="#aaa" stroke-opacity="0.5" stroke-width="0.5"></path><path d="M246.3893 84.6704L309.493 107.5325" fill="none" stroke="#aaa" stroke-opacity="0.5" stroke-width="0.5"></path><path d="M290.2466 67.43L139.3793 58.9677" fill="none" stroke="#aaa" stroke-opacity="0.5" stroke-width="0.5"></path><path d="M215.5676 29.0709L309.493 107.5325" fill="none" stroke="#aaa" stroke-opacity="0.5" stroke-width="0.5"></path><path d="M292.1768 180.8416L215.5676 29.0709" fill="none" stroke="#aaa" stroke-opacity="0.5" stroke-width="0.5"></path><path d="M167.664 212.4036L292.1768 180.8416" fill="none" stroke="#aaa" stroke-opacity="0.5" stroke-width="0.5"></path><path d="M292.1768 180.8416L174.6591 35.1739" fill="none" stroke="#aaa" stroke-opacity="0.5" stroke-width="0.5"></path><path d="M258.5873 213.8774L246.3893 84.6704" fill="none" stroke="#aaa" stroke-opacity="0.5" stroke-width="0.5"></path><path d="M167.664 212.4036L215.5676 29.0709" fill="none" stroke="#aaa" stroke-opacity="0.5" stroke-width="0.5"></path><path d="M167.664 212.4036L174.6591 35.1739" fill="none" stroke="#aaa" stroke-opacity="0.5" stroke-width="0.5"></path><path d="M167.664 212.4036L153.0211 119.8276" fill="none" stroke="#aaa" stroke-opacity="0.5" stroke-width="0.5"></path><path d="M167.664 212.4036L209.4535 224.996" fill="none" stroke="#aaa" stroke-opacity="0.5" stroke-width="0.5"></path><path d="M258.5873 213.8774L292.1768 180.8416" fill="none" stroke="#aaa" stroke-opacity="0.5" stroke-width="0.5"></path><path d="M184.0185 160.7345L309.493 107.5325" fill="none" stroke="#aaa" stroke-opacity="0.5" stroke-width="0.5"></path><path d="M290.2466 67.43L309.493 107.5325" fill="none" stroke="#aaa" stroke-opacity="0.5" stroke-width="0.5"></path><path d="M292.1768 180.8416L135.6338 186.7079" fill="none" stroke="#aaa" stroke-opacity="0.5" stroke-width="0.5"></path><path d="M255.556 35.591L246.3893 84.6704" fill="none" stroke="#aaa" stroke-opacity="0.5" stroke-width="0.5"></path><path d="M258.5873 213.8774L215.5676 29.0709" fill="none" stroke="#aaa" stroke-opacity="0.5" stroke-width="0.5"></path><path d="M258.5873 213.8774L174.6591 35.1739" fill="none" stroke="#aaa" stroke-opacity="0.5" stroke-width="0.5"></path><path d="M292.1768 180.8416L115.4323 96.4111" fill="none" stroke="#aaa" stroke-opacity="0.5" stroke-width="0.5"></path><path d="M1 0A1 1 0 1 1 1 -0.0001" fill="#5470c6" transform="matrix(18,0,0,18,309.493,107.5325)"></path><path d="M1 0A1 1 0 1 1 1 -0.0001" fill="#5470c6" transform="matrix(18,0,0,18,298.5799,143.7871)"></path><path d="M1 0A1 1 0 1 1 1 -0.0001" fill="#5470c6" transform="matrix(18,0,0,18,233.5693,179.8964)"></path><path d="M1 0A1 1 0 1 1 1 -0.0001" fill="#5470c6" transform="matrix(18,0,0,18,292.1768,180.8416)"></path><path d="M1 0A1 1 0 1 1 1 -0.0001" fill="#5470c6" transform="matrix(18,0,0,18,258.5873,213.8774)"></path><path d="M1 0A1 1 0 1 1 1 -0.0001" fill="#5470c6" transform="matrix(18,0,0,18,209.4535,224.996)"></path><path d="M1 0A1 1 0 1 1 1 -0.0001" fill="#5470c6" transform="matrix(18,0,0,18,167.664,212.4036)"></path><path d="M1 0A1 1 0 1 1 1 -0.0001" fill="#5470c6" transform="matrix(18,0,0,18,135.6338,186.7079)"></path><path d="M1 0A1 1 0 1 1 1 -0.0001" fill="#5470c6" transform="matrix(18,0,0,18,184.0185,160.7345)"></path><path d="M1 0A1 1 0 1 1 1 -0.0001" fill="#5470c6" transform="matrix(18,0,0,18,113.0404,147.1713)"></path><path d="M1 0A1 1 0 1 1 1 -0.0001" fill="#5470c6" transform="matrix(18,0,0,18,115.4323,96.4111)"></path><path d="M1 0A1 1 0 1 1 1 -0.0001" fill="#5470c6" transform="matrix(18,0,0,18,153.0211,119.8276)"></path><path d="M1 0A1 1 0 1 1 1 -0.0001" fill="#5470c6" transform="matrix(18,0,0,18,139.3793,58.9677)"></path><path d="M1 0A1 1 0 1 1 1 -0.0001" fill="#5470c6" transform="matrix(18,0,0,18,174.6591,35.1739)"></path><path d="M1 0A1 1 0 1 1 1 -0.0001" fill="#5470c6" transform="matrix(18,0,0,18,190.7575,83.7418)"></path><path d="M1 0A1 1 0 1 1 1 -0.0001" fill="#5470c6" transform="matrix(18,0,0,18,215.5676,29.0709)"></path><path d="M1 0A1 1 0 1 1 1 -0.0001" fill="#5470c6" transform="matrix(18,0,0,18,246.3893,84.6704)"></path><path d="M1 0A1 1 0 1 1 1 -0.0001" fill="#5470c6" transform="matrix(18,0,0,18,255.556,35.591)"></path><path d="M1 0A1 1 0 1 1 1 -0.0001" fill="#5470c6" transform="matrix(18,0,0,18,239.2924,131.1672)"></path><path d="M1 0A1 1 0 1 1 1 -0.0001" fill="#5470c6" transform="matrix(18,0,0,18,290.2466,67.43)"></path><path d="M-25.1792 -5l50.3584 0l0 32l-50.3584 0Z" fill="rgb(0,0,0)" fill-opacity="0" stroke="#ccc" stroke-width="0" transform="translate(237.5 5)"></path><text dominant-baseline="central" fill="#333" style="font-size:22px;font-family:sans-serif;font-weight:bolder;" text-anchor="middle" transform="translate(237.5 5)" y="11">C87</text></g></svg>