<svg baseprofile="full" height="250" style="position:absolute;left:0;top:0;user-select:none" version="1.1" width="475" xmlns="http://www.w3.org/2000/svg" xmlns:xlink="http://www.w3.org/1999/xlink"><rect fill="none" height="250" id="0" width="475" x="0" y="0"></rect><g><path d="M112.1153 126.9284L247.1701 104.3531" fill="none" stroke="#aaa" stroke-opacity="0.5" stroke-width="0.5"></path><path d="M179.9405 31.4429L146.6617 198.5592" fill="none" stroke="#aaa" stroke-opacity="0.5" stroke-width="0.5"></path><path d="M296.966 139.4911L247.1701 104.3531" fill="none" stroke="#aaa" stroke-opacity="0.5" stroke-width="0.5"></path><path d="M124.8788 165.9404L146.6617 198.5592" fill="none" stroke="#aaa" stroke-opacity="0.5" stroke-width="0.5"></path><path d="M112.1153 126.9284L184.9741 217.5938" fill="none" stroke="#aaa" stroke-opacity="0.5" stroke-width="0.5"></path><path d="M201.2975 81.7745L247.1701 104.3531" fill="none" stroke="#aaa" stroke-opacity="0.5" stroke-width="0.5"></path><path d="M146.9573 54.4277L179.9405 31.4429" fill="none" stroke="#aaa" stroke-opacity="0.5" stroke-width="0.5"></path><path d="M112.1153 126.9284L124.8788 165.9404" fill="none" stroke="#aaa" stroke-opacity="0.5" stroke-width="0.5"></path><path d="M166.2669 121.4389L296.966 139.4911" fill="none" stroke="#aaa" stroke-opacity="0.5" stroke-width="0.5"></path><path d="M166.2669 121.4389L296.4245 178.7758" fill="none" stroke="#aaa" stroke-opacity="0.5" stroke-width="0.5"></path><path d="M296.966 139.4911L184.9741 217.5938" fill="none" stroke="#aaa" stroke-opacity="0.5" stroke-width="0.5"></path><path d="M309.8423 102.4386L146.6617 198.5592" fill="none" stroke="#aaa" stroke-opacity="0.5" stroke-width="0.5"></path><path d="M201.2975 81.7745L184.9741 217.5938" fill="none" stroke="#aaa" stroke-opacity="0.5" stroke-width="0.5"></path><path d="M262.922 205.6528L221.5745 28.5345" fill="none" stroke="#aaa" stroke-opacity="0.5" stroke-width="0.5"></path><path d="M112.1153 126.9284L240.9666 160.0469" fill="none" stroke="#aaa" stroke-opacity="0.5" stroke-width="0.5"></path><path d="M201.2975 81.7745L124.8788 165.9404" fill="none" stroke="#aaa" stroke-opacity="0.5" stroke-width="0.5"></path><path d="M309.8423 102.4386L190.7468 164.7009" fill="none" stroke="#aaa" stroke-opacity="0.5" stroke-width="0.5"></path><path d="M221.5745 28.5345L124.8788 165.9404" fill="none" stroke="#aaa" stroke-opacity="0.5" stroke-width="0.5"></path><path d="M309.8423 102.4386L224.9404 221.8016" fill="none" stroke="#aaa" stroke-opacity="0.5" stroke-width="0.5"></path><path d="M296.966 139.4911L240.9666 160.0469" fill="none" stroke="#aaa" stroke-opacity="0.5" stroke-width="0.5"></path><path d="M184.9741 217.5938L224.9404 221.8016" fill="none" stroke="#aaa" stroke-opacity="0.5" stroke-width="0.5"></path><path d="M201.2975 81.7745L240.9666 160.0469" fill="none" stroke="#aaa" stroke-opacity="0.5" stroke-width="0.5"></path><path d="M221.5745 28.5345L240.9666 160.0469" fill="none" stroke="#aaa" stroke-opacity="0.5" stroke-width="0.5"></path><path d="M257.5111 42.781L179.9405 31.4429" fill="none" stroke="#aaa" stroke-opacity="0.5" stroke-width="0.5"></path><path d="M262.922 205.6528L201.2975 81.7745" fill="none" stroke="#aaa" stroke-opacity="0.5" stroke-width="0.5"></path><path d="M296.4245 178.7758L179.9405 31.4429" fill="none" stroke="#aaa" stroke-opacity="0.5" stroke-width="0.5"></path><path d="M146.9573 54.4277L124.8788 165.9404" fill="none" stroke="#aaa" stroke-opacity="0.5" stroke-width="0.5"></path><path d="M262.922 205.6528L296.966 139.4911" fill="none" stroke="#aaa" stroke-opacity="0.5" stroke-width="0.5"></path><path d="M262.922 205.6528L296.4245 178.7758" fill="none" stroke="#aaa" stroke-opacity="0.5" stroke-width="0.5"></path><path d="M146.9573 54.4277L240.9666 160.0469" fill="none" stroke="#aaa" stroke-opacity="0.5" stroke-width="0.5"></path><path d="M287.6621 67.8421L296.966 139.4911" fill="none" stroke="#aaa" stroke-opacity="0.5" stroke-width="0.5"></path><path d="M287.6621 67.8421L296.4245 178.7758" fill="none" stroke="#aaa" stroke-opacity="0.5" stroke-width="0.5"></path><path d="M184.9741 217.5938L122.6991 85.4757" fill="none" stroke="#aaa" stroke-opacity="0.5" stroke-width="0.5"></path><path d="M146.9573 54.4277L112.1153 126.9284" fill="none" stroke="#aaa" stroke-opacity="0.5" stroke-width="0.5"></path><path d="M124.8788 165.9404L179.9405 31.4429" fill="none" stroke="#aaa" stroke-opacity="0.5" stroke-width="0.5"></path><path d="M166.2669 121.4389L190.7468 164.7009" fill="none" stroke="#aaa" stroke-opacity="0.5" stroke-width="0.5"></path><path d="M166.2669 121.4389L224.9404 221.8016" fill="none" stroke="#aaa" stroke-opacity="0.5" stroke-width="0.5"></path><path d="M309.8423 102.4386L179.9405 31.4429" fill="none" stroke="#aaa" stroke-opacity="0.5" stroke-width="0.5"></path><path d="M112.1153 126.9284L287.6621 67.8421" fill="none" stroke="#aaa" stroke-opacity="0.5" stroke-width="0.5"></path><path d="M112.1153 126.9284L296.4245 178.7758" fill="none" stroke="#aaa" stroke-opacity="0.5" stroke-width="0.5"></path><path d="M201.2975 81.7745L287.6621 67.8421" fill="none" stroke="#aaa" stroke-opacity="0.5" stroke-width="0.5"></path><path d="M146.9573 54.4277L221.5745 28.5345" fill="none" stroke="#aaa" stroke-opacity="0.5" stroke-width="0.5"></path><path d="M296.4245 178.7758L240.9666 160.0469" fill="none" stroke="#aaa" stroke-opacity="0.5" stroke-width="0.5"></path><path d="M221.5745 28.5345L287.6621 67.8421" fill="none" stroke="#aaa" stroke-opacity="0.5" stroke-width="0.5"></path><path d="M201.2975 81.7745L296.4245 178.7758" fill="none" stroke="#aaa" stroke-opacity="0.5" stroke-width="0.5"></path><path d="M257.5111 42.781L112.1153 126.9284" fill="none" stroke="#aaa" stroke-opacity="0.5" stroke-width="0.5"></path><path d="M221.5745 28.5345L296.4245 178.7758" fill="none" stroke="#aaa" stroke-opacity="0.5" stroke-width="0.5"></path><path d="M124.8788 165.9404L309.8423 102.4386" fill="none" stroke="#aaa" stroke-opacity="0.5" stroke-width="0.5"></path><path d="M184.9741 217.5938L247.1701 104.3531" fill="none" stroke="#aaa" stroke-opacity="0.5" stroke-width="0.5"></path><path d="M262.922 205.6528L190.7468 164.7009" fill="none" stroke="#aaa" stroke-opacity="0.5" stroke-width="0.5"></path><path d="M240.9666 160.0469L146.6617 198.5592" fill="none" stroke="#aaa" stroke-opacity="0.5" stroke-width="0.5"></path><path d="M262.922 205.6528L224.9404 221.8016" fill="none" stroke="#aaa" stroke-opacity="0.5" stroke-width="0.5"></path><path d="M166.2669 121.4389L122.6991 85.4757" fill="none" stroke="#aaa" stroke-opacity="0.5" stroke-width="0.5"></path><path d="M112.1153 126.9284L146.6617 198.5592" fill="none" stroke="#aaa" stroke-opacity="0.5" stroke-width="0.5"></path><path d="M257.5111 42.781L221.5745 28.5345" fill="none" stroke="#aaa" stroke-opacity="0.5" stroke-width="0.5"></path><path d="M240.9666 160.0469L190.7468 164.7009" fill="none" stroke="#aaa" stroke-opacity="0.5" stroke-width="0.5"></path><path d="M240.9666 160.0469L224.9404 221.8016" fill="none" stroke="#aaa" stroke-opacity="0.5" stroke-width="0.5"></path><path d="M287.6621 67.8421L224.9404 221.8016" fill="none" stroke="#aaa" stroke-opacity="0.5" stroke-width="0.5"></path><path d="M124.8788 165.9404L247.1701 104.3531" fill="none" stroke="#aaa" stroke-opacity="0.5" stroke-width="0.5"></path><path d="M296.966 139.4911L146.6617 198.5592" fill="none" stroke="#aaa" stroke-opacity="0.5" stroke-width="0.5"></path><path d="M201.2975 81.7745L146.6617 198.5592" fill="none" stroke="#aaa" stroke-opacity="0.5" stroke-width="0.5"></path><path d="M146.9573 54.4277L296.966 139.4911" fill="none" stroke="#aaa" stroke-opacity="0.5" stroke-width="0.5"></path><path d="M146.9573 54.4277L296.4245 178.7758" fill="none" stroke="#aaa" stroke-opacity="0.5" stroke-width="0.5"></path><path d="M309.8423 102.4386L240.9666 160.0469" fill="none" stroke="#aaa" stroke-opacity="0.5" stroke-width="0.5"></path><path d="M262.922 205.6528L166.2669 121.4389" fill="none" stroke="#aaa" stroke-opacity="0.5" stroke-width="0.5"></path><path d="M296.966 139.4911L190.7468 164.7009" fill="none" stroke="#aaa" stroke-opacity="0.5" stroke-width="0.5"></path><path d="M184.9741 217.5938L240.9666 160.0469" fill="none" stroke="#aaa" stroke-opacity="0.5" stroke-width="0.5"></path><path d="M124.8788 165.9404L184.9741 217.5938" fill="none" stroke="#aaa" stroke-opacity="0.5" stroke-width="0.5"></path><path d="M257.5111 42.781L201.2975 81.7745" fill="none" stroke="#aaa" stroke-opacity="0.5" stroke-width="0.5"></path><path d="M166.2669 121.4389L309.8423 102.4386" fill="none" stroke="#aaa" stroke-opacity="0.5" stroke-width="0.5"></path><path d="M257.5111 42.781L296.966 139.4911" fill="none" stroke="#aaa" stroke-opacity="0.5" stroke-width="0.5"></path><path d="M262.922 205.6528L122.6991 85.4757" fill="none" stroke="#aaa" stroke-opacity="0.5" stroke-width="0.5"></path><path d="M166.2669 121.4389L247.1701 104.3531" fill="none" stroke="#aaa" stroke-opacity="0.5" stroke-width="0.5"></path><path d="M287.6621 67.8421L122.6991 85.4757" fill="none" stroke="#aaa" stroke-opacity="0.5" stroke-width="0.5"></path><path d="M166.2669 121.4389L184.9741 217.5938" fill="none" stroke="#aaa" stroke-opacity="0.5" stroke-width="0.5"></path><path d="M166.2669 121.4389L124.8788 165.9404" fill="none" stroke="#aaa" stroke-opacity="0.5" stroke-width="0.5"></path><path d="M166.2669 121.4389L240.9666 160.0469" fill="none" stroke="#aaa" stroke-opacity="0.5" stroke-width="0.5"></path><path d="M112.1153 126.9284L179.9405 31.4429" fill="none" stroke="#aaa" stroke-opacity="0.5" stroke-width="0.5"></path><path d="M262.922 205.6528L309.8423 102.4386" fill="none" stroke="#aaa" stroke-opacity="0.5" stroke-width="0.5"></path><path d="M146.6617 198.5592L224.9404 221.8016" fill="none" stroke="#aaa" stroke-opacity="0.5" stroke-width="0.5"></path><path d="M296.966 139.4911L179.9405 31.4429" fill="none" stroke="#aaa" stroke-opacity="0.5" stroke-width="0.5"></path><path d="M146.9573 54.4277L224.9404 221.8016" fill="none" stroke="#aaa" stroke-opacity="0.5" stroke-width="0.5"></path><path d="M124.8788 165.9404L296.966 139.4911" fill="none" stroke="#aaa" stroke-opacity="0.5" stroke-width="0.5"></path><path d="M201.2975 81.7745L179.9405 31.4429" fill="none" stroke="#aaa" stroke-opacity="0.5" stroke-width="0.5"></path><path d="M122.6991 85.4757L247.1701 104.3531" fill="none" stroke="#aaa" stroke-opacity="0.5" stroke-width="0.5"></path><path d="M287.6621 67.8421L309.8423 102.4386" fill="none" stroke="#aaa" stroke-opacity="0.5" stroke-width="0.5"></path><path d="M262.922 205.6528L247.1701 104.3531" fill="none" stroke="#aaa" stroke-opacity="0.5" stroke-width="0.5"></path><path d="M146.9573 54.4277L166.2669 121.4389" fill="none" stroke="#aaa" stroke-opacity="0.5" stroke-width="0.5"></path><path d="M262.922 205.6528L184.9741 217.5938" fill="none" stroke="#aaa" stroke-opacity="0.5" stroke-width="0.5"></path><path d="M287.6621 67.8421L247.1701 104.3531" fill="none" stroke="#aaa" stroke-opacity="0.5" stroke-width="0.5"></path><path d="M262.922 205.6528L124.8788 165.9404" fill="none" stroke="#aaa" stroke-opacity="0.5" stroke-width="0.5"></path><path d="M257.5111 42.781L190.7468 164.7009" fill="none" stroke="#aaa" stroke-opacity="0.5" stroke-width="0.5"></path><path d="M257.5111 42.781L224.9404 221.8016" fill="none" stroke="#aaa" stroke-opacity="0.5" stroke-width="0.5"></path><path d="M287.6621 67.8421L184.9741 217.5938" fill="none" stroke="#aaa" stroke-opacity="0.5" stroke-width="0.5"></path><path d="M262.922 205.6528L240.9666 160.0469" fill="none" stroke="#aaa" stroke-opacity="0.5" stroke-width="0.5"></path><path d="M221.5745 28.5345L309.8423 102.4386" fill="none" stroke="#aaa" stroke-opacity="0.5" stroke-width="0.5"></path><path d="M257.5111 42.781L166.2669 121.4389" fill="none" stroke="#aaa" stroke-opacity="0.5" stroke-width="0.5"></path><path d="M184.9741 217.5938L146.6617 198.5592" fill="none" stroke="#aaa" stroke-opacity="0.5" stroke-width="0.5"></path><path d="M146.9573 54.4277L122.6991 85.4757" fill="none" stroke="#aaa" stroke-opacity="0.5" stroke-width="0.5"></path><path d="M184.9741 217.5938L190.7468 164.7009" fill="none" stroke="#aaa" stroke-opacity="0.5" stroke-width="0.5"></path><path d="M166.2669 121.4389L287.6621 67.8421" fill="none" stroke="#aaa" stroke-opacity="0.5" stroke-width="0.5"></path><path d="M179.9405 31.4429L190.7468 164.7009" fill="none" stroke="#aaa" stroke-opacity="0.5" stroke-width="0.5"></path><path d="M221.5745 28.5345L247.1701 104.3531" fill="none" stroke="#aaa" stroke-opacity="0.5" stroke-width="0.5"></path><path d="M179.9405 31.4429L224.9404 221.8016" fill="none" stroke="#aaa" stroke-opacity="0.5" stroke-width="0.5"></path><path d="M124.8788 165.9404L190.7468 164.7009" fill="none" stroke="#aaa" stroke-opacity="0.5" stroke-width="0.5"></path><path d="M124.8788 165.9404L224.9404 221.8016" fill="none" stroke="#aaa" stroke-opacity="0.5" stroke-width="0.5"></path><path d="M201.2975 81.7745L112.1153 126.9284" fill="none" stroke="#aaa" stroke-opacity="0.5" stroke-width="0.5"></path><path d="M221.5745 28.5345L184.9741 217.5938" fill="none" stroke="#aaa" stroke-opacity="0.5" stroke-width="0.5"></path><path d="M146.9573 54.4277L309.8423 102.4386" fill="none" stroke="#aaa" stroke-opacity="0.5" stroke-width="0.5"></path><path d="M257.5111 42.781L122.6991 85.4757" fill="none" stroke="#aaa" stroke-opacity="0.5" stroke-width="0.5"></path><path d="M112.1153 126.9284L221.5745 28.5345" fill="none" stroke="#aaa" stroke-opacity="0.5" stroke-width="0.5"></path><path d="M190.7468 164.7009L247.1701 104.3531" fill="none" stroke="#aaa" stroke-opacity="0.5" stroke-width="0.5"></path><path d="M296.4245 178.7758L122.6991 85.4757" fill="none" stroke="#aaa" stroke-opacity="0.5" stroke-width="0.5"></path><path d="M201.2975 81.7745L221.5745 28.5345" fill="none" stroke="#aaa" stroke-opacity="0.5" stroke-width="0.5"></path><path d="M146.6617 198.5592L247.1701 104.3531" fill="none" stroke="#aaa" stroke-opacity="0.5" stroke-width="0.5"></path><path d="M146.9573 54.4277L247.1701 104.3531" fill="none" stroke="#aaa" stroke-opacity="0.5" stroke-width="0.5"></path><path d="M166.2669 121.4389L146.6617 198.5592" fill="none" stroke="#aaa" stroke-opacity="0.5" stroke-width="0.5"></path><path d="M262.922 205.6528L287.6621 67.8421" fill="none" stroke="#aaa" stroke-opacity="0.5" stroke-width="0.5"></path><path d="M146.9573 54.4277L184.9741 217.5938" fill="none" stroke="#aaa" stroke-opacity="0.5" stroke-width="0.5"></path><path d="M257.5111 42.781L309.8423 102.4386" fill="none" stroke="#aaa" stroke-opacity="0.5" stroke-width="0.5"></path><path d="M296.4245 178.7758L309.8423 102.4386" fill="none" stroke="#aaa" stroke-opacity="0.5" stroke-width="0.5"></path><path d="M124.8788 165.9404L122.6991 85.4757" fill="none" stroke="#aaa" stroke-opacity="0.5" stroke-width="0.5"></path><path d="M184.9741 217.5938L179.9405 31.4429" fill="none" stroke="#aaa" stroke-opacity="0.5" stroke-width="0.5"></path><path d="M112.1153 126.9284L296.966 139.4911" fill="none" stroke="#aaa" stroke-opacity="0.5" stroke-width="0.5"></path><path d="M257.5111 42.781L247.1701 104.3531" fill="none" stroke="#aaa" stroke-opacity="0.5" stroke-width="0.5"></path><path d="M309.8423 102.4386L122.6991 85.4757" fill="none" stroke="#aaa" stroke-opacity="0.5" stroke-width="0.5"></path><path d="M296.966 139.4911L296.4245 178.7758" fill="none" stroke="#aaa" stroke-opacity="0.5" stroke-width="0.5"></path><path d="M201.2975 81.7745L296.966 139.4911" fill="none" stroke="#aaa" stroke-opacity="0.5" stroke-width="0.5"></path><path d="M296.4245 178.7758L247.1701 104.3531" fill="none" stroke="#aaa" stroke-opacity="0.5" stroke-width="0.5"></path><path d="M257.5111 42.781L184.9741 217.5938" fill="none" stroke="#aaa" stroke-opacity="0.5" stroke-width="0.5"></path><path d="M221.5745 28.5345L296.966 139.4911" fill="none" stroke="#aaa" stroke-opacity="0.5" stroke-width="0.5"></path><path d="M122.6991 85.4757L146.6617 198.5592" fill="none" stroke="#aaa" stroke-opacity="0.5" stroke-width="0.5"></path><path d="M257.5111 42.781L124.8788 165.9404" fill="none" stroke="#aaa" stroke-opacity="0.5" stroke-width="0.5"></path><path d="M122.6991 85.4757L190.7468 164.7009" fill="none" stroke="#aaa" stroke-opacity="0.5" stroke-width="0.5"></path><path d="M296.4245 178.7758L184.9741 217.5938" fill="none" stroke="#aaa" stroke-opacity="0.5" stroke-width="0.5"></path><path d="M122.6991 85.4757L224.9404 221.8016" fill="none" stroke="#aaa" stroke-opacity="0.5" stroke-width="0.5"></path><path d="M262.922 205.6528L146.6617 198.5592" fill="none" stroke="#aaa" stroke-opacity="0.5" stroke-width="0.5"></path><path d="M257.5111 42.781L240.9666 160.0469" fill="none" stroke="#aaa" stroke-opacity="0.5" stroke-width="0.5"></path><path d="M146.9573 54.4277L201.2975 81.7745" fill="none" stroke="#aaa" stroke-opacity="0.5" stroke-width="0.5"></path><path d="M287.6621 67.8421L146.6617 198.5592" fill="none" stroke="#aaa" stroke-opacity="0.5" stroke-width="0.5"></path><path d="M262.922 205.6528L257.5111 42.781" fill="none" stroke="#aaa" stroke-opacity="0.5" stroke-width="0.5"></path><path d="M179.9405 31.4429L247.1701 104.3531" fill="none" stroke="#aaa" stroke-opacity="0.5" stroke-width="0.5"></path><path d="M287.6621 67.8421L190.7468 164.7009" fill="none" stroke="#aaa" stroke-opacity="0.5" stroke-width="0.5"></path><path d="M166.2669 121.4389L179.9405 31.4429" fill="none" stroke="#aaa" stroke-opacity="0.5" stroke-width="0.5"></path><path d="M309.8423 102.4386L247.1701 104.3531" fill="none" stroke="#aaa" stroke-opacity="0.5" stroke-width="0.5"></path><path d="M179.9405 31.4429L240.9666 160.0469" fill="none" stroke="#aaa" stroke-opacity="0.5" stroke-width="0.5"></path><path d="M309.8423 102.4386L184.9741 217.5938" fill="none" stroke="#aaa" stroke-opacity="0.5" stroke-width="0.5"></path><path d="M124.8788 165.9404L240.9666 160.0469" fill="none" stroke="#aaa" stroke-opacity="0.5" stroke-width="0.5"></path><path d="M146.9573 54.4277L287.6621 67.8421" fill="none" stroke="#aaa" stroke-opacity="0.5" stroke-width="0.5"></path><path d="M112.1153 126.9284L190.7468 164.7009" fill="none" stroke="#aaa" stroke-opacity="0.5" stroke-width="0.5"></path><path d="M112.1153 126.9284L224.9404 221.8016" fill="none" stroke="#aaa" stroke-opacity="0.5" stroke-width="0.5"></path><path d="M221.5745 28.5345L146.6617 198.5592" fill="none" stroke="#aaa" stroke-opacity="0.5" stroke-width="0.5"></path><path d="M201.2975 81.7745L190.7468 164.7009" fill="none" stroke="#aaa" stroke-opacity="0.5" stroke-width="0.5"></path><path d="M296.966 139.4911L224.9404 221.8016" fill="none" stroke="#aaa" stroke-opacity="0.5" stroke-width="0.5"></path><path d="M201.2975 81.7745L224.9404 221.8016" fill="none" stroke="#aaa" stroke-opacity="0.5" stroke-width="0.5"></path><path d="M221.5745 28.5345L190.7468 164.7009" fill="none" stroke="#aaa" stroke-opacity="0.5" stroke-width="0.5"></path><path d="M221.5745 28.5345L224.9404 221.8016" fill="none" stroke="#aaa" stroke-opacity="0.5" stroke-width="0.5"></path><path d="M122.6991 85.4757L179.9405 31.4429" fill="none" stroke="#aaa" stroke-opacity="0.5" stroke-width="0.5"></path><path d="M112.1153 126.9284L166.2669 121.4389" fill="none" stroke="#aaa" stroke-opacity="0.5" stroke-width="0.5"></path><path d="M262.922 205.6528L179.9405 31.4429" fill="none" stroke="#aaa" stroke-opacity="0.5" stroke-width="0.5"></path><path d="M201.2975 81.7745L166.2669 121.4389" fill="none" stroke="#aaa" stroke-opacity="0.5" stroke-width="0.5"></path><path d="M257.5111 42.781L287.6621 67.8421" fill="none" stroke="#aaa" stroke-opacity="0.5" stroke-width="0.5"></path><path d="M190.7468 164.7009L146.6617 198.5592" fill="none" stroke="#aaa" stroke-opacity="0.5" stroke-width="0.5"></path><path d="M257.5111 42.781L296.4245 178.7758" fill="none" stroke="#aaa" stroke-opacity="0.5" stroke-width="0.5"></path><path d="M287.6621 67.8421L179.9405 31.4429" fill="none" stroke="#aaa" stroke-opacity="0.5" stroke-width="0.5"></path><path d="M190.7468 164.7009L224.9404 221.8016" fill="none" stroke="#aaa" stroke-opacity="0.5" stroke-width="0.5"></path><path d="M146.9573 54.4277L146.6617 198.5592" fill="none" stroke="#aaa" stroke-opacity="0.5" stroke-width="0.5"></path><path d="M146.9573 54.4277L190.7468 164.7009" fill="none" stroke="#aaa" stroke-opacity="0.5" stroke-width="0.5"></path><path d="M112.1153 126.9284L122.6991 85.4757" fill="none" stroke="#aaa" stroke-opacity="0.5" stroke-width="0.5"></path><path d="M146.9573 54.4277L257.5111 42.781" fill="none" stroke="#aaa" stroke-opacity="0.5" stroke-width="0.5"></path><path d="M262.922 205.6528L146.9573 54.4277" fill="none" stroke="#aaa" stroke-opacity="0.5" stroke-width="0.5"></path><path d="M296.966 139.4911L122.6991 85.4757" fill="none" stroke="#aaa" stroke-opacity="0.5" stroke-width="0.5"></path><path d="M201.2975 81.7745L122.6991 85.4757" fill="none" stroke="#aaa" stroke-opacity="0.5" stroke-width="0.5"></path><path d="M221.5745 28.5345L122.6991 85.4757" fill="none" stroke="#aaa" stroke-opacity="0.5" stroke-width="0.5"></path><path d="M257.5111 42.781L146.6617 198.5592" fill="none" stroke="#aaa" stroke-opacity="0.5" stroke-width="0.5"></path><path d="M166.2669 121.4389L221.5745 28.5345" fill="none" stroke="#aaa" stroke-opacity="0.5" stroke-width="0.5"></path><path d="M122.6991 85.4757L240.9666 160.0469" fill="none" stroke="#aaa" stroke-opacity="0.5" stroke-width="0.5"></path><path d="M124.8788 165.9404L296.4245 178.7758" fill="none" stroke="#aaa" stroke-opacity="0.5" stroke-width="0.5"></path><path d="M247.1701 104.3531L224.9404 221.8016" fill="none" stroke="#aaa" stroke-opacity="0.5" stroke-width="0.5"></path><path d="M221.5745 28.5345L179.9405 31.4429" fill="none" stroke="#aaa" stroke-opacity="0.5" stroke-width="0.5"></path><path d="M296.4245 178.7758L146.6617 198.5592" fill="none" stroke="#aaa" stroke-opacity="0.5" stroke-width="0.5"></path><path d="M112.1153 126.9284L309.8423 102.4386" fill="none" stroke="#aaa" stroke-opacity="0.5" stroke-width="0.5"></path><path d="M296.4245 178.7758L190.7468 164.7009" fill="none" stroke="#aaa" stroke-opacity="0.5" stroke-width="0.5"></path><path d="M287.6621 67.8421L124.8788 165.9404" fill="none" stroke="#aaa" stroke-opacity="0.5" stroke-width="0.5"></path><path d="M296.4245 178.7758L224.9404 221.8016" fill="none" stroke="#aaa" stroke-opacity="0.5" stroke-width="0.5"></path><path d="M296.966 139.4911L309.8423 102.4386" fill="none" stroke="#aaa" stroke-opacity="0.5" stroke-width="0.5"></path><path d="M201.2975 81.7745L309.8423 102.4386" fill="none" stroke="#aaa" stroke-opacity="0.5" stroke-width="0.5"></path><path d="M287.6621 67.8421L240.9666 160.0469" fill="none" stroke="#aaa" stroke-opacity="0.5" stroke-width="0.5"></path><path d="M240.9666 160.0469L247.1701 104.3531" fill="none" stroke="#aaa" stroke-opacity="0.5" stroke-width="0.5"></path><path d="M262.922 205.6528L112.1153 126.9284" fill="none" stroke="#aaa" stroke-opacity="0.5" stroke-width="0.5"></path><path d="M1 0A1 1 0 1 1 1 -0.0001" fill="#5470c6" transform="matrix(18,0,0,18,247.1701,104.3531)"></path><path d="M1 0A1 1 0 1 1 1 -0.0001" fill="#5470c6" transform="matrix(18,0,0,18,296.4245,178.7758)"></path><path d="M1 0A1 1 0 1 1 1 -0.0001" fill="#5470c6" transform="matrix(18,0,0,18,240.9666,160.0469)"></path><path d="M1 0A1 1 0 1 1 1 -0.0001" fill="#5470c6" transform="matrix(18,0,0,18,262.922,205.6528)"></path><path d="M1 0A1 1 0 1 1 1 -0.0001" fill="#5470c6" transform="matrix(18,0,0,18,224.9404,221.8016)"></path><path d="M1 0A1 1 0 1 1 1 -0.0001" fill="#5470c6" transform="matrix(18,0,0,18,184.9741,217.5938)"></path><path d="M1 0A1 1 0 1 1 1 -0.0001" fill="#5470c6" transform="matrix(18,0,0,18,190.7468,164.7009)"></path><path d="M1 0A1 1 0 1 1 1 -0.0001" fill="#5470c6" transform="matrix(18,0,0,18,146.6617,198.5592)"></path><path d="M1 0A1 1 0 1 1 1 -0.0001" fill="#5470c6" transform="matrix(18,0,0,18,124.8788,165.9404)"></path><path d="M1 0A1 1 0 1 1 1 -0.0001" fill="#5470c6" transform="matrix(18,0,0,18,112.1153,126.9284)"></path><path d="M1 0A1 1 0 1 1 1 -0.0001" fill="#5470c6" transform="matrix(18,0,0,18,122.6991,85.4757)"></path><path d="M1 0A1 1 0 1 1 1 -0.0001" fill="#5470c6" transform="matrix(18,0,0,18,166.2669,121.4389)"></path><path d="M1 0A1 1 0 1 1 1 -0.0001" fill="#5470c6" transform="matrix(18,0,0,18,146.9573,54.4277)"></path><path d="M1 0A1 1 0 1 1 1 -0.0001" fill="#5470c6" transform="matrix(18,0,0,18,179.9405,31.4429)"></path><path d="M1 0A1 1 0 1 1 1 -0.0001" fill="#5470c6" transform="matrix(18,0,0,18,221.5745,28.5345)"></path><path d="M1 0A1 1 0 1 1 1 -0.0001" fill="#5470c6" transform="matrix(18,0,0,18,257.5111,42.781)"></path><path d="M1 0A1 1 0 1 1 1 -0.0001" fill="#5470c6" transform="matrix(18,0,0,18,201.2975,81.7745)"></path><path d="M1 0A1 1 0 1 1 1 -0.0001" fill="#5470c6" transform="matrix(18,0,0,18,287.6621,67.8421)"></path><path d="M1 0A1 1 0 1 1 1 -0.0001" fill="#5470c6" transform="matrix(18,0,0,18,309.8423,102.4386)"></path><path d="M1 0A1 1 0 1 1 1 -0.0001" fill="#5470c6" transform="matrix(18,0,0,18,296.966,139.4911)"></path><path d="M-25.1792 -5l50.3584 0l0 32l-50.3584 0Z" fill="rgb(0,0,0)" fill-opacity="0" stroke="#ccc" stroke-width="0" transform="translate(237.5 5)"></path><text dominant-baseline="central" fill="#333" style="font-size:22px;font-family:sans-serif;font-weight:bolder;" text-anchor="middle" transform="translate(237.5 5)" y="11">C88</text></g></svg>