<svg baseprofile="full" height="250" style="position:absolute;left:0;top:0;user-select:none" version="1.1" width="475" xmlns="http://www.w3.org/2000/svg" xmlns:xlink="http://www.w3.org/1999/xlink"><rect fill="none" height="250" id="0" width="475" x="0" y="0"></rect><g><path d="M115.2215 94.9887L142.8882 57.1425" fill="none" stroke="#aaa" stroke-opacity="0.5" stroke-width="0.5"></path><path d="M296.5445 174.0617L225.5138 27.4039" fill="none" stroke="#aaa" stroke-opacity="0.5" stroke-width="0.5"></path><path d="M239.5426 159.4546L173.8417 217.3951" fill="none" stroke="#aaa" stroke-opacity="0.5" stroke-width="0.5"></path><path d="M220.1675 222.3069L114.5586 143.9888" fill="none" stroke="#aaa" stroke-opacity="0.5" stroke-width="0.5"></path><path d="M220.1675 222.3069L133.9935 186.6275" fill="none" stroke="#aaa" stroke-opacity="0.5" stroke-width="0.5"></path><path d="M296.5445 174.0617L162.864 115.6327" fill="none" stroke="#aaa" stroke-opacity="0.5" stroke-width="0.5"></path><path d="M185.7771 166.8876L208.3864 83.4512" fill="none" stroke="#aaa" stroke-opacity="0.5" stroke-width="0.5"></path><path d="M220.1675 222.3069L239.5426 159.4546" fill="none" stroke="#aaa" stroke-opacity="0.5" stroke-width="0.5"></path><path d="M225.5138 27.4039L300.342 79.1066" fill="none" stroke="#aaa" stroke-opacity="0.5" stroke-width="0.5"></path><path d="M162.864 115.6327L114.5586 143.9888" fill="none" stroke="#aaa" stroke-opacity="0.5" stroke-width="0.5"></path><path d="M239.5426 159.4546L179.3882 31.1544" fill="none" stroke="#aaa" stroke-opacity="0.5" stroke-width="0.5"></path><path d="M162.864 115.6327L133.9935 186.6275" fill="none" stroke="#aaa" stroke-opacity="0.5" stroke-width="0.5"></path><path d="M300.342 79.1066L266.305 46.1215" fill="none" stroke="#aaa" stroke-opacity="0.5" stroke-width="0.5"></path><path d="M311.0433 129.1347L266.305 46.1215" fill="none" stroke="#aaa" stroke-opacity="0.5" stroke-width="0.5"></path><path d="M185.7771 166.8876L263.946 207.9014" fill="none" stroke="#aaa" stroke-opacity="0.5" stroke-width="0.5"></path><path d="M259.9418 107.2403L266.305 46.1215" fill="none" stroke="#aaa" stroke-opacity="0.5" stroke-width="0.5"></path><path d="M185.7771 166.8876L311.0433 129.1347" fill="none" stroke="#aaa" stroke-opacity="0.5" stroke-width="0.5"></path><path d="M142.8882 57.1425L311.0433 129.1347" fill="none" stroke="#aaa" stroke-opacity="0.5" stroke-width="0.5"></path><path d="M133.9935 186.6275L142.8882 57.1425" fill="none" stroke="#aaa" stroke-opacity="0.5" stroke-width="0.5"></path><path d="M239.5426 159.4546L114.5586 143.9888" fill="none" stroke="#aaa" stroke-opacity="0.5" stroke-width="0.5"></path><path d="M239.5426 159.4546L133.9935 186.6275" fill="none" stroke="#aaa" stroke-opacity="0.5" stroke-width="0.5"></path><path d="M173.8417 217.3951L311.0433 129.1347" fill="none" stroke="#aaa" stroke-opacity="0.5" stroke-width="0.5"></path><path d="M296.5445 174.0617L173.8417 217.3951" fill="none" stroke="#aaa" stroke-opacity="0.5" stroke-width="0.5"></path><path d="M220.1675 222.3069L185.7771 166.8876" fill="none" stroke="#aaa" stroke-opacity="0.5" stroke-width="0.5"></path><path d="M220.1675 222.3069L263.946 207.9014" fill="none" stroke="#aaa" stroke-opacity="0.5" stroke-width="0.5"></path><path d="M220.1675 222.3069L311.0433 129.1347" fill="none" stroke="#aaa" stroke-opacity="0.5" stroke-width="0.5"></path><path d="M179.3882 31.1544L114.5586 143.9888" fill="none" stroke="#aaa" stroke-opacity="0.5" stroke-width="0.5"></path><path d="M162.864 115.6327L263.946 207.9014" fill="none" stroke="#aaa" stroke-opacity="0.5" stroke-width="0.5"></path><path d="M296.5445 174.0617L179.3882 31.1544" fill="none" stroke="#aaa" stroke-opacity="0.5" stroke-width="0.5"></path><path d="M185.7771 166.8876L225.5138 27.4039" fill="none" stroke="#aaa" stroke-opacity="0.5" stroke-width="0.5"></path><path d="M225.5138 27.4039L179.3882 31.1544" fill="none" stroke="#aaa" stroke-opacity="0.5" stroke-width="0.5"></path><path d="M162.864 115.6327L311.0433 129.1347" fill="none" stroke="#aaa" stroke-opacity="0.5" stroke-width="0.5"></path><path d="M225.5138 27.4039L266.305 46.1215" fill="none" stroke="#aaa" stroke-opacity="0.5" stroke-width="0.5"></path><path d="M239.5426 159.4546L208.3864 83.4512" fill="none" stroke="#aaa" stroke-opacity="0.5" stroke-width="0.5"></path><path d="M300.342 79.1066L208.3864 83.4512" fill="none" stroke="#aaa" stroke-opacity="0.5" stroke-width="0.5"></path><path d="M185.7771 166.8876L300.342 79.1066" fill="none" stroke="#aaa" stroke-opacity="0.5" stroke-width="0.5"></path><path d="M259.9418 107.2403L114.5586 143.9888" fill="none" stroke="#aaa" stroke-opacity="0.5" stroke-width="0.5"></path><path d="M259.9418 107.2403L133.9935 186.6275" fill="none" stroke="#aaa" stroke-opacity="0.5" stroke-width="0.5"></path><path d="M220.1675 222.3069L225.5138 27.4039" fill="none" stroke="#aaa" stroke-opacity="0.5" stroke-width="0.5"></path><path d="M179.3882 31.1544L208.3864 83.4512" fill="none" stroke="#aaa" stroke-opacity="0.5" stroke-width="0.5"></path><path d="M239.5426 159.4546L263.946 207.9014" fill="none" stroke="#aaa" stroke-opacity="0.5" stroke-width="0.5"></path><path d="M220.1675 222.3069L162.864 115.6327" fill="none" stroke="#aaa" stroke-opacity="0.5" stroke-width="0.5"></path><path d="M296.5445 174.0617L133.9935 186.6275" fill="none" stroke="#aaa" stroke-opacity="0.5" stroke-width="0.5"></path><path d="M162.864 115.6327L225.5138 27.4039" fill="none" stroke="#aaa" stroke-opacity="0.5" stroke-width="0.5"></path><path d="M220.1675 222.3069L300.342 79.1066" fill="none" stroke="#aaa" stroke-opacity="0.5" stroke-width="0.5"></path><path d="M114.5586 143.9888L208.3864 83.4512" fill="none" stroke="#aaa" stroke-opacity="0.5" stroke-width="0.5"></path><path d="M296.5445 174.0617L239.5426 159.4546" fill="none" stroke="#aaa" stroke-opacity="0.5" stroke-width="0.5"></path><path d="M115.2215 94.9887L266.305 46.1215" fill="none" stroke="#aaa" stroke-opacity="0.5" stroke-width="0.5"></path><path d="M179.3882 31.1544L263.946 207.9014" fill="none" stroke="#aaa" stroke-opacity="0.5" stroke-width="0.5"></path><path d="M162.864 115.6327L300.342 79.1066" fill="none" stroke="#aaa" stroke-opacity="0.5" stroke-width="0.5"></path><path d="M142.8882 57.1425L173.8417 217.3951" fill="none" stroke="#aaa" stroke-opacity="0.5" stroke-width="0.5"></path><path d="M263.946 207.9014L114.5586 143.9888" fill="none" stroke="#aaa" stroke-opacity="0.5" stroke-width="0.5"></path><path d="M296.5445 174.0617L208.3864 83.4512" fill="none" stroke="#aaa" stroke-opacity="0.5" stroke-width="0.5"></path><path d="M259.9418 107.2403L185.7771 166.8876" fill="none" stroke="#aaa" stroke-opacity="0.5" stroke-width="0.5"></path><path d="M259.9418 107.2403L263.946 207.9014" fill="none" stroke="#aaa" stroke-opacity="0.5" stroke-width="0.5"></path><path d="M185.7771 166.8876L179.3882 31.1544" fill="none" stroke="#aaa" stroke-opacity="0.5" stroke-width="0.5"></path><path d="M142.8882 57.1425L179.3882 31.1544" fill="none" stroke="#aaa" stroke-opacity="0.5" stroke-width="0.5"></path><path d="M185.7771 166.8876L266.305 46.1215" fill="none" stroke="#aaa" stroke-opacity="0.5" stroke-width="0.5"></path><path d="M259.9418 107.2403L311.0433 129.1347" fill="none" stroke="#aaa" stroke-opacity="0.5" stroke-width="0.5"></path><path d="M220.1675 222.3069L173.8417 217.3951" fill="none" stroke="#aaa" stroke-opacity="0.5" stroke-width="0.5"></path><path d="M296.5445 174.0617L263.946 207.9014" fill="none" stroke="#aaa" stroke-opacity="0.5" stroke-width="0.5"></path><path d="M173.8417 217.3951L179.3882 31.1544" fill="none" stroke="#aaa" stroke-opacity="0.5" stroke-width="0.5"></path><path d="M239.5426 159.4546L300.342 79.1066" fill="none" stroke="#aaa" stroke-opacity="0.5" stroke-width="0.5"></path><path d="M220.1675 222.3069L259.9418 107.2403" fill="none" stroke="#aaa" stroke-opacity="0.5" stroke-width="0.5"></path><path d="M263.946 207.9014L208.3864 83.4512" fill="none" stroke="#aaa" stroke-opacity="0.5" stroke-width="0.5"></path><path d="M162.864 115.6327L173.8417 217.3951" fill="none" stroke="#aaa" stroke-opacity="0.5" stroke-width="0.5"></path><path d="M220.1675 222.3069L179.3882 31.1544" fill="none" stroke="#aaa" stroke-opacity="0.5" stroke-width="0.5"></path><path d="M115.2215 94.9887L114.5586 143.9888" fill="none" stroke="#aaa" stroke-opacity="0.5" stroke-width="0.5"></path><path d="M115.2215 94.9887L133.9935 186.6275" fill="none" stroke="#aaa" stroke-opacity="0.5" stroke-width="0.5"></path><path d="M133.9935 186.6275L173.8417 217.3951" fill="none" stroke="#aaa" stroke-opacity="0.5" stroke-width="0.5"></path><path d="M179.3882 31.1544L300.342 79.1066" fill="none" stroke="#aaa" stroke-opacity="0.5" stroke-width="0.5"></path><path d="M142.8882 57.1425L114.5586 143.9888" fill="none" stroke="#aaa" stroke-opacity="0.5" stroke-width="0.5"></path><path d="M162.864 115.6327L179.3882 31.1544" fill="none" stroke="#aaa" stroke-opacity="0.5" stroke-width="0.5"></path><path d="M259.9418 107.2403L225.5138 27.4039" fill="none" stroke="#aaa" stroke-opacity="0.5" stroke-width="0.5"></path><path d="M173.8417 217.3951L114.5586 143.9888" fill="none" stroke="#aaa" stroke-opacity="0.5" stroke-width="0.5"></path><path d="M259.9418 107.2403L162.864 115.6327" fill="none" stroke="#aaa" stroke-opacity="0.5" stroke-width="0.5"></path><path d="M259.9418 107.2403L300.342 79.1066" fill="none" stroke="#aaa" stroke-opacity="0.5" stroke-width="0.5"></path><path d="M239.5426 159.4546L259.9418 107.2403" fill="none" stroke="#aaa" stroke-opacity="0.5" stroke-width="0.5"></path><path d="M296.5445 174.0617L300.342 79.1066" fill="none" stroke="#aaa" stroke-opacity="0.5" stroke-width="0.5"></path><path d="M142.8882 57.1425L208.3864 83.4512" fill="none" stroke="#aaa" stroke-opacity="0.5" stroke-width="0.5"></path><path d="M239.5426 159.4546L266.305 46.1215" fill="none" stroke="#aaa" stroke-opacity="0.5" stroke-width="0.5"></path><path d="M133.9935 186.6275L114.5586 143.9888" fill="none" stroke="#aaa" stroke-opacity="0.5" stroke-width="0.5"></path><path d="M115.2215 94.9887L185.7771 166.8876" fill="none" stroke="#aaa" stroke-opacity="0.5" stroke-width="0.5"></path><path d="M115.2215 94.9887L263.946 207.9014" fill="none" stroke="#aaa" stroke-opacity="0.5" stroke-width="0.5"></path><path d="M115.2215 94.9887L296.5445 174.0617" fill="none" stroke="#aaa" stroke-opacity="0.5" stroke-width="0.5"></path><path d="M173.8417 217.3951L208.3864 83.4512" fill="none" stroke="#aaa" stroke-opacity="0.5" stroke-width="0.5"></path><path d="M185.7771 166.8876L142.8882 57.1425" fill="none" stroke="#aaa" stroke-opacity="0.5" stroke-width="0.5"></path><path d="M115.2215 94.9887L311.0433 129.1347" fill="none" stroke="#aaa" stroke-opacity="0.5" stroke-width="0.5"></path><path d="M142.8882 57.1425L263.946 207.9014" fill="none" stroke="#aaa" stroke-opacity="0.5" stroke-width="0.5"></path><path d="M220.1675 222.3069L208.3864 83.4512" fill="none" stroke="#aaa" stroke-opacity="0.5" stroke-width="0.5"></path><path d="M179.3882 31.1544L266.305 46.1215" fill="none" stroke="#aaa" stroke-opacity="0.5" stroke-width="0.5"></path><path d="M263.946 207.9014L300.342 79.1066" fill="none" stroke="#aaa" stroke-opacity="0.5" stroke-width="0.5"></path><path d="M311.0433 129.1347L179.3882 31.1544" fill="none" stroke="#aaa" stroke-opacity="0.5" stroke-width="0.5"></path><path d="M259.9418 107.2403L173.8417 217.3951" fill="none" stroke="#aaa" stroke-opacity="0.5" stroke-width="0.5"></path><path d="M115.2215 94.9887L220.1675 222.3069" fill="none" stroke="#aaa" stroke-opacity="0.5" stroke-width="0.5"></path><path d="M173.8417 217.3951L263.946 207.9014" fill="none" stroke="#aaa" stroke-opacity="0.5" stroke-width="0.5"></path><path d="M162.864 115.6327L208.3864 83.4512" fill="none" stroke="#aaa" stroke-opacity="0.5" stroke-width="0.5"></path><path d="M220.1675 222.3069L142.8882 57.1425" fill="none" stroke="#aaa" stroke-opacity="0.5" stroke-width="0.5"></path><path d="M114.5586 143.9888L266.305 46.1215" fill="none" stroke="#aaa" stroke-opacity="0.5" stroke-width="0.5"></path><path d="M133.9935 186.6275L208.3864 83.4512" fill="none" stroke="#aaa" stroke-opacity="0.5" stroke-width="0.5"></path><path d="M259.9418 107.2403L179.3882 31.1544" fill="none" stroke="#aaa" stroke-opacity="0.5" stroke-width="0.5"></path><path d="M115.2215 94.9887L225.5138 27.4039" fill="none" stroke="#aaa" stroke-opacity="0.5" stroke-width="0.5"></path><path d="M296.5445 174.0617L259.9418 107.2403" fill="none" stroke="#aaa" stroke-opacity="0.5" stroke-width="0.5"></path><path d="M162.864 115.6327L142.8882 57.1425" fill="none" stroke="#aaa" stroke-opacity="0.5" stroke-width="0.5"></path><path d="M115.2215 94.9887L162.864 115.6327" fill="none" stroke="#aaa" stroke-opacity="0.5" stroke-width="0.5"></path><path d="M142.8882 57.1425L225.5138 27.4039" fill="none" stroke="#aaa" stroke-opacity="0.5" stroke-width="0.5"></path><path d="M311.0433 129.1347L114.5586 143.9888" fill="none" stroke="#aaa" stroke-opacity="0.5" stroke-width="0.5"></path><path d="M296.5445 174.0617L266.305 46.1215" fill="none" stroke="#aaa" stroke-opacity="0.5" stroke-width="0.5"></path><path d="M133.9935 186.6275L263.946 207.9014" fill="none" stroke="#aaa" stroke-opacity="0.5" stroke-width="0.5"></path><path d="M115.2215 94.9887L300.342 79.1066" fill="none" stroke="#aaa" stroke-opacity="0.5" stroke-width="0.5"></path><path d="M225.5138 27.4039L173.8417 217.3951" fill="none" stroke="#aaa" stroke-opacity="0.5" stroke-width="0.5"></path><path d="M133.9935 186.6275L311.0433 129.1347" fill="none" stroke="#aaa" stroke-opacity="0.5" stroke-width="0.5"></path><path d="M142.8882 57.1425L300.342 79.1066" fill="none" stroke="#aaa" stroke-opacity="0.5" stroke-width="0.5"></path><path d="M208.3864 83.4512L266.305 46.1215" fill="none" stroke="#aaa" stroke-opacity="0.5" stroke-width="0.5"></path><path d="M239.5426 159.4546L142.8882 57.1425" fill="none" stroke="#aaa" stroke-opacity="0.5" stroke-width="0.5"></path><path d="M173.8417 217.3951L300.342 79.1066" fill="none" stroke="#aaa" stroke-opacity="0.5" stroke-width="0.5"></path><path d="M263.946 207.9014L266.305 46.1215" fill="none" stroke="#aaa" stroke-opacity="0.5" stroke-width="0.5"></path><path d="M185.7771 166.8876L162.864 115.6327" fill="none" stroke="#aaa" stroke-opacity="0.5" stroke-width="0.5"></path><path d="M311.0433 129.1347L208.3864 83.4512" fill="none" stroke="#aaa" stroke-opacity="0.5" stroke-width="0.5"></path><path d="M133.9935 186.6275L225.5138 27.4039" fill="none" stroke="#aaa" stroke-opacity="0.5" stroke-width="0.5"></path><path d="M115.2215 94.9887L173.8417 217.3951" fill="none" stroke="#aaa" stroke-opacity="0.5" stroke-width="0.5"></path><path d="M259.9418 107.2403L208.3864 83.4512" fill="none" stroke="#aaa" stroke-opacity="0.5" stroke-width="0.5"></path><path d="M296.5445 174.0617L114.5586 143.9888" fill="none" stroke="#aaa" stroke-opacity="0.5" stroke-width="0.5"></path><path d="M239.5426 159.4546L185.7771 166.8876" fill="none" stroke="#aaa" stroke-opacity="0.5" stroke-width="0.5"></path><path d="M311.0433 129.1347L263.946 207.9014" fill="none" stroke="#aaa" stroke-opacity="0.5" stroke-width="0.5"></path><path d="M115.2215 94.9887L259.9418 107.2403" fill="none" stroke="#aaa" stroke-opacity="0.5" stroke-width="0.5"></path><path d="M225.5138 27.4039L114.5586 143.9888" fill="none" stroke="#aaa" stroke-opacity="0.5" stroke-width="0.5"></path><path d="M133.9935 186.6275L300.342 79.1066" fill="none" stroke="#aaa" stroke-opacity="0.5" stroke-width="0.5"></path><path d="M239.5426 159.4546L311.0433 129.1347" fill="none" stroke="#aaa" stroke-opacity="0.5" stroke-width="0.5"></path><path d="M115.2215 94.9887L179.3882 31.1544" fill="none" stroke="#aaa" stroke-opacity="0.5" stroke-width="0.5"></path><path d="M259.9418 107.2403L142.8882 57.1425" fill="none" stroke="#aaa" stroke-opacity="0.5" stroke-width="0.5"></path><path d="M142.8882 57.1425L266.305 46.1215" fill="none" stroke="#aaa" stroke-opacity="0.5" stroke-width="0.5"></path><path d="M296.5445 174.0617L142.8882 57.1425" fill="none" stroke="#aaa" stroke-opacity="0.5" stroke-width="0.5"></path><path d="M185.7771 166.8876L173.8417 217.3951" fill="none" stroke="#aaa" stroke-opacity="0.5" stroke-width="0.5"></path><path d="M225.5138 27.4039L208.3864 83.4512" fill="none" stroke="#aaa" stroke-opacity="0.5" stroke-width="0.5"></path><path d="M173.8417 217.3951L266.305 46.1215" fill="none" stroke="#aaa" stroke-opacity="0.5" stroke-width="0.5"></path><path d="M239.5426 159.4546L225.5138 27.4039" fill="none" stroke="#aaa" stroke-opacity="0.5" stroke-width="0.5"></path><path d="M220.1675 222.3069L266.305 46.1215" fill="none" stroke="#aaa" stroke-opacity="0.5" stroke-width="0.5"></path><path d="M239.5426 159.4546L162.864 115.6327" fill="none" stroke="#aaa" stroke-opacity="0.5" stroke-width="0.5"></path><path d="M115.2215 94.9887L239.5426 159.4546" fill="none" stroke="#aaa" stroke-opacity="0.5" stroke-width="0.5"></path><path d="M296.5445 174.0617L185.7771 166.8876" fill="none" stroke="#aaa" stroke-opacity="0.5" stroke-width="0.5"></path><path d="M311.0433 129.1347L300.342 79.1066" fill="none" stroke="#aaa" stroke-opacity="0.5" stroke-width="0.5"></path><path d="M225.5138 27.4039L263.946 207.9014" fill="none" stroke="#aaa" stroke-opacity="0.5" stroke-width="0.5"></path><path d="M162.864 115.6327L266.305 46.1215" fill="none" stroke="#aaa" stroke-opacity="0.5" stroke-width="0.5"></path><path d="M296.5445 174.0617L311.0433 129.1347" fill="none" stroke="#aaa" stroke-opacity="0.5" stroke-width="0.5"></path><path d="M133.9935 186.6275L179.3882 31.1544" fill="none" stroke="#aaa" stroke-opacity="0.5" stroke-width="0.5"></path><path d="M225.5138 27.4039L311.0433 129.1347" fill="none" stroke="#aaa" stroke-opacity="0.5" stroke-width="0.5"></path><path d="M133.9935 186.6275L266.305 46.1215" fill="none" stroke="#aaa" stroke-opacity="0.5" stroke-width="0.5"></path><path d="M185.7771 166.8876L114.5586 143.9888" fill="none" stroke="#aaa" stroke-opacity="0.5" stroke-width="0.5"></path><path d="M296.5445 174.0617L220.1675 222.3069" fill="none" stroke="#aaa" stroke-opacity="0.5" stroke-width="0.5"></path><path d="M115.2215 94.9887L208.3864 83.4512" fill="none" stroke="#aaa" stroke-opacity="0.5" stroke-width="0.5"></path><path d="M185.7771 166.8876L133.9935 186.6275" fill="none" stroke="#aaa" stroke-opacity="0.5" stroke-width="0.5"></path><path d="M114.5586 143.9888L300.342 79.1066" fill="none" stroke="#aaa" stroke-opacity="0.5" stroke-width="0.5"></path><path d="M1 0A1 1 0 1 1 1 -0.0001" fill="#5470c6" transform="matrix(18,0,0,18,311.0433,129.1347)"></path><path d="M1 0A1 1 0 1 1 1 -0.0001" fill="#5470c6" transform="matrix(18,0,0,18,296.5445,174.0617)"></path><path d="M1 0A1 1 0 1 1 1 -0.0001" fill="#5470c6" transform="matrix(18,0,0,18,263.946,207.9014)"></path><path d="M1 0A1 1 0 1 1 1 -0.0001" fill="#5470c6" transform="matrix(18,0,0,18,239.5426,159.4546)"></path><path d="M1 0A1 1 0 1 1 1 -0.0001" fill="#5470c6" transform="matrix(18,0,0,18,220.1675,222.3069)"></path><path d="M1 0A1 1 0 1 1 1 -0.0001" fill="#5470c6" transform="matrix(18,0,0,18,173.8417,217.3951)"></path><path d="M1 0A1 1 0 1 1 1 -0.0001" fill="#5470c6" transform="matrix(18,0,0,18,133.9935,186.6275)"></path><path d="M1 0A1 1 0 1 1 1 -0.0001" fill="#5470c6" transform="matrix(18,0,0,18,114.5586,143.9888)"></path><path d="M1 0A1 1 0 1 1 1 -0.0001" fill="#5470c6" transform="matrix(18,0,0,18,185.7771,166.8876)"></path><path d="M1 0A1 1 0 1 1 1 -0.0001" fill="#5470c6" transform="matrix(18,0,0,18,115.2215,94.9887)"></path><path d="M1 0A1 1 0 1 1 1 -0.0001" fill="#5470c6" transform="matrix(18,0,0,18,162.864,115.6327)"></path><path d="M1 0A1 1 0 1 1 1 -0.0001" fill="#5470c6" transform="matrix(18,0,0,18,142.8882,57.1425)"></path><path d="M1 0A1 1 0 1 1 1 -0.0001" fill="#5470c6" transform="matrix(18,0,0,18,208.3864,83.4512)"></path><path d="M1 0A1 1 0 1 1 1 -0.0001" fill="#5470c6" transform="matrix(18,0,0,18,179.3882,31.1544)"></path><path d="M1 0A1 1 0 1 1 1 -0.0001" fill="#5470c6" transform="matrix(18,0,0,18,225.5138,27.4039)"></path><path d="M1 0A1 1 0 1 1 1 -0.0001" fill="#5470c6" transform="matrix(18,0,0,18,266.305,46.1215)"></path><path d="M1 0A1 1 0 1 1 1 -0.0001" fill="#5470c6" transform="matrix(18,0,0,18,259.9418,107.2403)"></path><path d="M1 0A1 1 0 1 1 1 -0.0001" fill="#5470c6" transform="matrix(18,0,0,18,300.342,79.1066)"></path><path d="M-26.0964 -5l52.1929 0l0 33l-52.1929 0Z" fill="rgb(0,0,0)" fill-opacity="0" stroke="#ccc" stroke-width="0" transform="translate(237.5 5)"></path><text dominant-baseline="central" fill="#333" style="font-size:23px;font-family:sans-serif;font-weight:bolder;" text-anchor="middle" transform="translate(237.5 5)" y="11.5">C89</text></g></svg>