<svg baseprofile="full" height="250" style="position:absolute;left:0;top:0;user-select:none" version="1.1" width="475" xmlns="http://www.w3.org/2000/svg" xmlns:xlink="http://www.w3.org/1999/xlink"><rect fill="none" height="250" id="0" width="475" x="0" y="0"></rect><g><path d="M249.8764 144.1361L172.5688 104.4899" fill="none" stroke="#aaa" stroke-opacity="0.5" stroke-width="0.5"></path><path d="M255.058 33.0871L266.8195 207.1507" fill="none" stroke="#aaa" stroke-opacity="0.5" stroke-width="0.5"></path><path d="M127.5235 179.8384L113.7591 133.099" fill="none" stroke="#aaa" stroke-opacity="0.5" stroke-width="0.5"></path><path d="M155.4885 42.7995L168.1983 217.5188" fill="none" stroke="#aaa" stroke-opacity="0.5" stroke-width="0.5"></path><path d="M255.058 33.0871L302.2218 168.72" fill="none" stroke="#aaa" stroke-opacity="0.5" stroke-width="0.5"></path><path d="M266.8195 207.1507L302.2218 168.72" fill="none" stroke="#aaa" stroke-opacity="0.5" stroke-width="0.5"></path><path d="M172.5688 104.4899L202.3522 27.4449" fill="none" stroke="#aaa" stroke-opacity="0.5" stroke-width="0.5"></path><path d="M231.0871 83.1062L168.1983 217.5188" fill="none" stroke="#aaa" stroke-opacity="0.5" stroke-width="0.5"></path><path d="M255.058 33.0871L231.0871 83.1062" fill="none" stroke="#aaa" stroke-opacity="0.5" stroke-width="0.5"></path><path d="M172.5688 104.4899L113.7591 133.099" fill="none" stroke="#aaa" stroke-opacity="0.5" stroke-width="0.5"></path><path d="M266.8195 207.1507L231.0871 83.1062" fill="none" stroke="#aaa" stroke-opacity="0.5" stroke-width="0.5"></path><path d="M255.058 33.0871L127.5235 179.8384" fill="none" stroke="#aaa" stroke-opacity="0.5" stroke-width="0.5"></path><path d="M266.8195 207.1507L127.5235 179.8384" fill="none" stroke="#aaa" stroke-opacity="0.5" stroke-width="0.5"></path><path d="M219.8258 222.4971L168.1983 217.5188" fill="none" stroke="#aaa" stroke-opacity="0.5" stroke-width="0.5"></path><path d="M127.5235 179.8384L120.1442 82.0508" fill="none" stroke="#aaa" stroke-opacity="0.5" stroke-width="0.5"></path><path d="M155.4885 42.7995L172.5688 104.4899" fill="none" stroke="#aaa" stroke-opacity="0.5" stroke-width="0.5"></path><path d="M249.8764 144.1361L308.7637 117.3946" fill="none" stroke="#aaa" stroke-opacity="0.5" stroke-width="0.5"></path><path d="M308.7637 117.3946L113.7591 133.099" fill="none" stroke="#aaa" stroke-opacity="0.5" stroke-width="0.5"></path><path d="M231.0871 83.1062L172.5688 104.4899" fill="none" stroke="#aaa" stroke-opacity="0.5" stroke-width="0.5"></path><path d="M294.6247 70.9342L172.5688 104.4899" fill="none" stroke="#aaa" stroke-opacity="0.5" stroke-width="0.5"></path><path d="M219.8258 222.4971L172.5688 104.4899" fill="none" stroke="#aaa" stroke-opacity="0.5" stroke-width="0.5"></path><path d="M172.5688 104.4899L120.1442 82.0508" fill="none" stroke="#aaa" stroke-opacity="0.5" stroke-width="0.5"></path><path d="M255.058 33.0871L249.8764 144.1361" fill="none" stroke="#aaa" stroke-opacity="0.5" stroke-width="0.5"></path><path d="M255.058 33.0871L189.7024 165.7327" fill="none" stroke="#aaa" stroke-opacity="0.5" stroke-width="0.5"></path><path d="M249.8764 144.1361L202.3522 27.4449" fill="none" stroke="#aaa" stroke-opacity="0.5" stroke-width="0.5"></path><path d="M127.5235 179.8384L302.2218 168.72" fill="none" stroke="#aaa" stroke-opacity="0.5" stroke-width="0.5"></path><path d="M231.0871 83.1062L189.7024 165.7327" fill="none" stroke="#aaa" stroke-opacity="0.5" stroke-width="0.5"></path><path d="M249.8764 144.1361L113.7591 133.099" fill="none" stroke="#aaa" stroke-opacity="0.5" stroke-width="0.5"></path><path d="M219.8258 222.4971L189.7024 165.7327" fill="none" stroke="#aaa" stroke-opacity="0.5" stroke-width="0.5"></path><path d="M189.7024 165.7327L120.1442 82.0508" fill="none" stroke="#aaa" stroke-opacity="0.5" stroke-width="0.5"></path><path d="M155.4885 42.7995L308.7637 117.3946" fill="none" stroke="#aaa" stroke-opacity="0.5" stroke-width="0.5"></path><path d="M249.8764 144.1361L294.6247 70.9342" fill="none" stroke="#aaa" stroke-opacity="0.5" stroke-width="0.5"></path><path d="M308.7637 117.3946L120.1442 82.0508" fill="none" stroke="#aaa" stroke-opacity="0.5" stroke-width="0.5"></path><path d="M172.5688 104.4899L302.2218 168.72" fill="none" stroke="#aaa" stroke-opacity="0.5" stroke-width="0.5"></path><path d="M202.3522 27.4449L113.7591 133.099" fill="none" stroke="#aaa" stroke-opacity="0.5" stroke-width="0.5"></path><path d="M294.6247 70.9342L308.7637 117.3946" fill="none" stroke="#aaa" stroke-opacity="0.5" stroke-width="0.5"></path><path d="M219.8258 222.4971L308.7637 117.3946" fill="none" stroke="#aaa" stroke-opacity="0.5" stroke-width="0.5"></path><path d="M155.4885 42.7995L202.3522 27.4449" fill="none" stroke="#aaa" stroke-opacity="0.5" stroke-width="0.5"></path><path d="M249.8764 144.1361L120.1442 82.0508" fill="none" stroke="#aaa" stroke-opacity="0.5" stroke-width="0.5"></path><path d="M219.8258 222.4971L155.4885 42.7995" fill="none" stroke="#aaa" stroke-opacity="0.5" stroke-width="0.5"></path><path d="M255.058 33.0871L202.3522 27.4449" fill="none" stroke="#aaa" stroke-opacity="0.5" stroke-width="0.5"></path><path d="M155.4885 42.7995L113.7591 133.099" fill="none" stroke="#aaa" stroke-opacity="0.5" stroke-width="0.5"></path><path d="M189.7024 165.7327L302.2218 168.72" fill="none" stroke="#aaa" stroke-opacity="0.5" stroke-width="0.5"></path><path d="M231.0871 83.1062L202.3522 27.4449" fill="none" stroke="#aaa" stroke-opacity="0.5" stroke-width="0.5"></path><path d="M308.7637 117.3946L302.2218 168.72" fill="none" stroke="#aaa" stroke-opacity="0.5" stroke-width="0.5"></path><path d="M127.5235 179.8384L189.7024 165.7327" fill="none" stroke="#aaa" stroke-opacity="0.5" stroke-width="0.5"></path><path d="M231.0871 83.1062L113.7591 133.099" fill="none" stroke="#aaa" stroke-opacity="0.5" stroke-width="0.5"></path><path d="M308.7637 117.3946L168.1983 217.5188" fill="none" stroke="#aaa" stroke-opacity="0.5" stroke-width="0.5"></path><path d="M219.8258 222.4971L202.3522 27.4449" fill="none" stroke="#aaa" stroke-opacity="0.5" stroke-width="0.5"></path><path d="M294.6247 70.9342L113.7591 133.099" fill="none" stroke="#aaa" stroke-opacity="0.5" stroke-width="0.5"></path><path d="M249.8764 144.1361L266.8195 207.1507" fill="none" stroke="#aaa" stroke-opacity="0.5" stroke-width="0.5"></path><path d="M113.7591 133.099L120.1442 82.0508" fill="none" stroke="#aaa" stroke-opacity="0.5" stroke-width="0.5"></path><path d="M155.4885 42.7995L294.6247 70.9342" fill="none" stroke="#aaa" stroke-opacity="0.5" stroke-width="0.5"></path><path d="M202.3522 27.4449L120.1442 82.0508" fill="none" stroke="#aaa" stroke-opacity="0.5" stroke-width="0.5"></path><path d="M219.8258 222.4971L113.7591 133.099" fill="none" stroke="#aaa" stroke-opacity="0.5" stroke-width="0.5"></path><path d="M249.8764 144.1361L302.2218 168.72" fill="none" stroke="#aaa" stroke-opacity="0.5" stroke-width="0.5"></path><path d="M219.8258 222.4971L294.6247 70.9342" fill="none" stroke="#aaa" stroke-opacity="0.5" stroke-width="0.5"></path><path d="M249.8764 144.1361L231.0871 83.1062" fill="none" stroke="#aaa" stroke-opacity="0.5" stroke-width="0.5"></path><path d="M155.4885 42.7995L120.1442 82.0508" fill="none" stroke="#aaa" stroke-opacity="0.5" stroke-width="0.5"></path><path d="M168.1983 217.5188L120.1442 82.0508" fill="none" stroke="#aaa" stroke-opacity="0.5" stroke-width="0.5"></path><path d="M249.8764 144.1361L127.5235 179.8384" fill="none" stroke="#aaa" stroke-opacity="0.5" stroke-width="0.5"></path><path d="M113.7591 133.099L302.2218 168.72" fill="none" stroke="#aaa" stroke-opacity="0.5" stroke-width="0.5"></path><path d="M202.3522 27.4449L302.2218 168.72" fill="none" stroke="#aaa" stroke-opacity="0.5" stroke-width="0.5"></path><path d="M231.0871 83.1062L120.1442 82.0508" fill="none" stroke="#aaa" stroke-opacity="0.5" stroke-width="0.5"></path><path d="M113.7591 133.099L168.1983 217.5188" fill="none" stroke="#aaa" stroke-opacity="0.5" stroke-width="0.5"></path><path d="M294.6247 70.9342L120.1442 82.0508" fill="none" stroke="#aaa" stroke-opacity="0.5" stroke-width="0.5"></path><path d="M219.8258 222.4971L120.1442 82.0508" fill="none" stroke="#aaa" stroke-opacity="0.5" stroke-width="0.5"></path><path d="M155.4885 42.7995L266.8195 207.1507" fill="none" stroke="#aaa" stroke-opacity="0.5" stroke-width="0.5"></path><path d="M127.5235 179.8384L202.3522 27.4449" fill="none" stroke="#aaa" stroke-opacity="0.5" stroke-width="0.5"></path><path d="M308.7637 117.3946L189.7024 165.7327" fill="none" stroke="#aaa" stroke-opacity="0.5" stroke-width="0.5"></path><path d="M255.058 33.0871L168.1983 217.5188" fill="none" stroke="#aaa" stroke-opacity="0.5" stroke-width="0.5"></path><path d="M266.8195 207.1507L168.1983 217.5188" fill="none" stroke="#aaa" stroke-opacity="0.5" stroke-width="0.5"></path><path d="M155.4885 42.7995L302.2218 168.72" fill="none" stroke="#aaa" stroke-opacity="0.5" stroke-width="0.5"></path><path d="M168.1983 217.5188L302.2218 168.72" fill="none" stroke="#aaa" stroke-opacity="0.5" stroke-width="0.5"></path><path d="M219.8258 222.4971L266.8195 207.1507" fill="none" stroke="#aaa" stroke-opacity="0.5" stroke-width="0.5"></path><path d="M231.0871 83.1062L302.2218 168.72" fill="none" stroke="#aaa" stroke-opacity="0.5" stroke-width="0.5"></path><path d="M155.4885 42.7995L231.0871 83.1062" fill="none" stroke="#aaa" stroke-opacity="0.5" stroke-width="0.5"></path><path d="M249.8764 144.1361L189.7024 165.7327" fill="none" stroke="#aaa" stroke-opacity="0.5" stroke-width="0.5"></path><path d="M294.6247 70.9342L302.2218 168.72" fill="none" stroke="#aaa" stroke-opacity="0.5" stroke-width="0.5"></path><path d="M155.4885 42.7995L127.5235 179.8384" fill="none" stroke="#aaa" stroke-opacity="0.5" stroke-width="0.5"></path><path d="M294.6247 70.9342L168.1983 217.5188" fill="none" stroke="#aaa" stroke-opacity="0.5" stroke-width="0.5"></path><path d="M219.8258 222.4971L302.2218 168.72" fill="none" stroke="#aaa" stroke-opacity="0.5" stroke-width="0.5"></path><path d="M255.058 33.0871L172.5688 104.4899" fill="none" stroke="#aaa" stroke-opacity="0.5" stroke-width="0.5"></path><path d="M266.8195 207.1507L172.5688 104.4899" fill="none" stroke="#aaa" stroke-opacity="0.5" stroke-width="0.5"></path><path d="M231.0871 83.1062L127.5235 179.8384" fill="none" stroke="#aaa" stroke-opacity="0.5" stroke-width="0.5"></path><path d="M294.6247 70.9342L231.0871 83.1062" fill="none" stroke="#aaa" stroke-opacity="0.5" stroke-width="0.5"></path><path d="M294.6247 70.9342L127.5235 179.8384" fill="none" stroke="#aaa" stroke-opacity="0.5" stroke-width="0.5"></path><path d="M219.8258 222.4971L231.0871 83.1062" fill="none" stroke="#aaa" stroke-opacity="0.5" stroke-width="0.5"></path><path d="M113.7591 133.099L189.7024 165.7327" fill="none" stroke="#aaa" stroke-opacity="0.5" stroke-width="0.5"></path><path d="M202.3522 27.4449L189.7024 165.7327" fill="none" stroke="#aaa" stroke-opacity="0.5" stroke-width="0.5"></path><path d="M219.8258 222.4971L127.5235 179.8384" fill="none" stroke="#aaa" stroke-opacity="0.5" stroke-width="0.5"></path><path d="M308.7637 117.3946L202.3522 27.4449" fill="none" stroke="#aaa" stroke-opacity="0.5" stroke-width="0.5"></path><path d="M266.8195 207.1507L189.7024 165.7327" fill="none" stroke="#aaa" stroke-opacity="0.5" stroke-width="0.5"></path><path d="M255.058 33.0871L219.8258 222.4971" fill="none" stroke="#aaa" stroke-opacity="0.5" stroke-width="0.5"></path><path d="M127.5235 179.8384L168.1983 217.5188" fill="none" stroke="#aaa" stroke-opacity="0.5" stroke-width="0.5"></path><path d="M155.4885 42.7995L249.8764 144.1361" fill="none" stroke="#aaa" stroke-opacity="0.5" stroke-width="0.5"></path><path d="M155.4885 42.7995L189.7024 165.7327" fill="none" stroke="#aaa" stroke-opacity="0.5" stroke-width="0.5"></path><path d="M294.6247 70.9342L189.7024 165.7327" fill="none" stroke="#aaa" stroke-opacity="0.5" stroke-width="0.5"></path><path d="M255.058 33.0871L308.7637 117.3946" fill="none" stroke="#aaa" stroke-opacity="0.5" stroke-width="0.5"></path><path d="M266.8195 207.1507L308.7637 117.3946" fill="none" stroke="#aaa" stroke-opacity="0.5" stroke-width="0.5"></path><path d="M219.8258 222.4971L249.8764 144.1361" fill="none" stroke="#aaa" stroke-opacity="0.5" stroke-width="0.5"></path><path d="M172.5688 104.4899L168.1983 217.5188" fill="none" stroke="#aaa" stroke-opacity="0.5" stroke-width="0.5"></path><path d="M231.0871 83.1062L308.7637 117.3946" fill="none" stroke="#aaa" stroke-opacity="0.5" stroke-width="0.5"></path><path d="M255.058 33.0871L155.4885 42.7995" fill="none" stroke="#aaa" stroke-opacity="0.5" stroke-width="0.5"></path><path d="M127.5235 179.8384L172.5688 104.4899" fill="none" stroke="#aaa" stroke-opacity="0.5" stroke-width="0.5"></path><path d="M266.8195 207.1507L202.3522 27.4449" fill="none" stroke="#aaa" stroke-opacity="0.5" stroke-width="0.5"></path><path d="M255.058 33.0871L113.7591 133.099" fill="none" stroke="#aaa" stroke-opacity="0.5" stroke-width="0.5"></path><path d="M189.7024 165.7327L168.1983 217.5188" fill="none" stroke="#aaa" stroke-opacity="0.5" stroke-width="0.5"></path><path d="M266.8195 207.1507L113.7591 133.099" fill="none" stroke="#aaa" stroke-opacity="0.5" stroke-width="0.5"></path><path d="M302.2218 168.72L120.1442 82.0508" fill="none" stroke="#aaa" stroke-opacity="0.5" stroke-width="0.5"></path><path d="M255.058 33.0871L294.6247 70.9342" fill="none" stroke="#aaa" stroke-opacity="0.5" stroke-width="0.5"></path><path d="M266.8195 207.1507L294.6247 70.9342" fill="none" stroke="#aaa" stroke-opacity="0.5" stroke-width="0.5"></path><path d="M294.6247 70.9342L202.3522 27.4449" fill="none" stroke="#aaa" stroke-opacity="0.5" stroke-width="0.5"></path><path d="M172.5688 104.4899L189.7024 165.7327" fill="none" stroke="#aaa" stroke-opacity="0.5" stroke-width="0.5"></path><path d="M249.8764 144.1361L168.1983 217.5188" fill="none" stroke="#aaa" stroke-opacity="0.5" stroke-width="0.5"></path><path d="M127.5235 179.8384L308.7637 117.3946" fill="none" stroke="#aaa" stroke-opacity="0.5" stroke-width="0.5"></path><path d="M255.058 33.0871L120.1442 82.0508" fill="none" stroke="#aaa" stroke-opacity="0.5" stroke-width="0.5"></path><path d="M266.8195 207.1507L120.1442 82.0508" fill="none" stroke="#aaa" stroke-opacity="0.5" stroke-width="0.5"></path><path d="M202.3522 27.4449L168.1983 217.5188" fill="none" stroke="#aaa" stroke-opacity="0.5" stroke-width="0.5"></path><path d="M172.5688 104.4899L308.7637 117.3946" fill="none" stroke="#aaa" stroke-opacity="0.5" stroke-width="0.5"></path><path d="M1 0A1 1 0 1 1 1 -0.0001" fill="#5470c6" transform="matrix(18,0,0,18,302.2218,168.72)"></path><path d="M1 0A1 1 0 1 1 1 -0.0001" fill="#5470c6" transform="matrix(18,0,0,18,266.8195,207.1507)"></path><path d="M1 0A1 1 0 1 1 1 -0.0001" fill="#5470c6" transform="matrix(18,0,0,18,249.8764,144.1361)"></path><path d="M1 0A1 1 0 1 1 1 -0.0001" fill="#5470c6" transform="matrix(18,0,0,18,219.8258,222.4971)"></path><path d="M1 0A1 1 0 1 1 1 -0.0001" fill="#5470c6" transform="matrix(18,0,0,18,189.7024,165.7327)"></path><path d="M1 0A1 1 0 1 1 1 -0.0001" fill="#5470c6" transform="matrix(18,0,0,18,168.1983,217.5188)"></path><path d="M1 0A1 1 0 1 1 1 -0.0001" fill="#5470c6" transform="matrix(18,0,0,18,127.5235,179.8384)"></path><path d="M1 0A1 1 0 1 1 1 -0.0001" fill="#5470c6" transform="matrix(18,0,0,18,113.7591,133.099)"></path><path d="M1 0A1 1 0 1 1 1 -0.0001" fill="#5470c6" transform="matrix(18,0,0,18,172.5688,104.4899)"></path><path d="M1 0A1 1 0 1 1 1 -0.0001" fill="#5470c6" transform="matrix(18,0,0,18,120.1442,82.0508)"></path><path d="M1 0A1 1 0 1 1 1 -0.0001" fill="#5470c6" transform="matrix(18,0,0,18,155.4885,42.7995)"></path><path d="M1 0A1 1 0 1 1 1 -0.0001" fill="#5470c6" transform="matrix(18,0,0,18,202.3522,27.4449)"></path><path d="M1 0A1 1 0 1 1 1 -0.0001" fill="#5470c6" transform="matrix(18,0,0,18,255.058,33.0871)"></path><path d="M1 0A1 1 0 1 1 1 -0.0001" fill="#5470c6" transform="matrix(18,0,0,18,231.0871,83.1062)"></path><path d="M1 0A1 1 0 1 1 1 -0.0001" fill="#5470c6" transform="matrix(18,0,0,18,294.6247,70.9342)"></path><path d="M1 0A1 1 0 1 1 1 -0.0001" fill="#5470c6" transform="matrix(18,0,0,18,308.7637,117.3946)"></path><path d="M-26.0964 -5l52.1929 0l0 33l-52.1929 0Z" fill="rgb(0,0,0)" fill-opacity="0" stroke="#ccc" stroke-width="0" transform="translate(237.5 5)"></path><text dominant-baseline="central" fill="#333" style="font-size:23px;font-family:sans-serif;font-weight:bolder;" text-anchor="middle" transform="translate(237.5 5)" y="11.5">C90</text></g></svg>