<svg baseprofile="full" height="250" style="position:absolute;left:0;top:0;user-select:none" version="1.1" width="475" xmlns="http://www.w3.org/2000/svg" xmlns:xlink="http://www.w3.org/1999/xlink"><rect fill="none" height="250" id="0" width="475" x="0" y="0"></rect><g><path d="M303.8673 170.8079L260.179 211.7783" fill="none" stroke="#aaa" stroke-opacity="0.5"></path><path d="M303.8673 170.8079L248.5784 146.8643" fill="none" stroke="#aaa" stroke-opacity="0.5"></path><path d="M248.5784 146.8643L310.4671 110.1816" fill="none" stroke="#aaa" stroke-opacity="0.5"></path><path d="M303.8673 170.8079L208.4787 223.3038" fill="none" stroke="#aaa" stroke-opacity="0.5"></path><path d="M287.8011 58.3636L260.179 211.7783" fill="none" stroke="#aaa" stroke-opacity="0.5"></path><path d="M119.9508 168.9916L248.5784 146.8643" fill="none" stroke="#aaa" stroke-opacity="0.5"></path><path d="M208.4787 223.3038L223.2697 82.2041" fill="none" stroke="#aaa" stroke-opacity="0.5"></path><path d="M287.8011 58.3636L248.5784 146.8643" fill="none" stroke="#aaa" stroke-opacity="0.5"></path><path d="M303.8673 170.8079L119.9508 168.9916" fill="none" stroke="#aaa" stroke-opacity="0.5"></path><path d="M119.9508 168.9916L208.4787 223.3038" fill="none" stroke="#aaa" stroke-opacity="0.5"></path><path d="M287.8011 58.3636L208.4787 223.3038" fill="none" stroke="#aaa" stroke-opacity="0.5"></path><path d="M133.9093 64.7507L111.8324 112.572" fill="none" stroke="#aaa" stroke-opacity="0.5"></path><path d="M260.179 211.7783L248.5784 146.8643" fill="none" stroke="#aaa" stroke-opacity="0.5"></path><path d="M175.0499 31.4694L178.5481 136.539" fill="none" stroke="#aaa" stroke-opacity="0.5"></path><path d="M287.8011 58.3636L119.9508 168.9916" fill="none" stroke="#aaa" stroke-opacity="0.5"></path><path d="M208.4787 223.3038L260.179 211.7783" fill="none" stroke="#aaa" stroke-opacity="0.5"></path><path d="M175.0499 31.4694L133.9093 64.7507" fill="none" stroke="#aaa" stroke-opacity="0.5"></path><path d="M208.4787 223.3038L111.8324 112.572" fill="none" stroke="#aaa" stroke-opacity="0.5"></path><path d="M158.4632 207.5954L310.4671 110.1816" fill="none" stroke="#aaa" stroke-opacity="0.5"></path><path d="M303.8673 170.8079L178.5481 136.539" fill="none" stroke="#aaa" stroke-opacity="0.5"></path><path d="M111.8324 112.572L223.2697 82.2041" fill="none" stroke="#aaa" stroke-opacity="0.5"></path><path d="M178.5481 136.539L310.4671 110.1816" fill="none" stroke="#aaa" stroke-opacity="0.5"></path><path d="M303.8673 170.8079L133.9093 64.7507" fill="none" stroke="#aaa" stroke-opacity="0.5"></path><path d="M287.8011 58.3636L178.5481 136.539" fill="none" stroke="#aaa" stroke-opacity="0.5"></path><path d="M178.5481 136.539L223.2697 82.2041" fill="none" stroke="#aaa" stroke-opacity="0.5"></path><path d="M175.0499 31.4694L310.4671 110.1816" fill="none" stroke="#aaa" stroke-opacity="0.5"></path><path d="M119.9508 168.9916L133.9093 64.7507" fill="none" stroke="#aaa" stroke-opacity="0.5"></path><path d="M287.8011 58.3636L133.9093 64.7507" fill="none" stroke="#aaa" stroke-opacity="0.5"></path><path d="M235.3672 24.5783L310.4671 110.1816" fill="none" stroke="#aaa" stroke-opacity="0.5"></path><path d="M158.4632 207.5954L248.5784 146.8643" fill="none" stroke="#aaa" stroke-opacity="0.5"></path><path d="M178.5481 136.539L260.179 211.7783" fill="none" stroke="#aaa" stroke-opacity="0.5"></path><path d="M178.5481 136.539L111.8324 112.572" fill="none" stroke="#aaa" stroke-opacity="0.5"></path><path d="M175.0499 31.4694L235.3672 24.5783" fill="none" stroke="#aaa" stroke-opacity="0.5"></path><path d="M223.2697 82.2041L310.4671 110.1816" fill="none" stroke="#aaa" stroke-opacity="0.5"></path><path d="M119.9508 168.9916L223.2697 82.2041" fill="none" stroke="#aaa" stroke-opacity="0.5"></path><path d="M178.5481 136.539L208.4787 223.3038" fill="none" stroke="#aaa" stroke-opacity="0.5"></path><path d="M158.4632 207.5954L119.9508 168.9916" fill="none" stroke="#aaa" stroke-opacity="0.5"></path><path d="M175.0499 31.4694L248.5784 146.8643" fill="none" stroke="#aaa" stroke-opacity="0.5"></path><path d="M158.4632 207.5954L303.8673 170.8079" fill="none" stroke="#aaa" stroke-opacity="0.5"></path><path d="M260.179 211.7783L223.2697 82.2041" fill="none" stroke="#aaa" stroke-opacity="0.5"></path><path d="M303.8673 170.8079L111.8324 112.572" fill="none" stroke="#aaa" stroke-opacity="0.5"></path><path d="M178.5481 136.539L119.9508 168.9916" fill="none" stroke="#aaa" stroke-opacity="0.5"></path><path d="M235.3672 24.5783L248.5784 146.8643" fill="none" stroke="#aaa" stroke-opacity="0.5"></path><path d="M175.0499 31.4694L158.4632 207.5954" fill="none" stroke="#aaa" stroke-opacity="0.5"></path><path d="M133.9093 64.7507L310.4671 110.1816" fill="none" stroke="#aaa" stroke-opacity="0.5"></path><path d="M303.8673 170.8079L235.3672 24.5783" fill="none" stroke="#aaa" stroke-opacity="0.5"></path><path d="M119.9508 168.9916L260.179 211.7783" fill="none" stroke="#aaa" stroke-opacity="0.5"></path><path d="M119.9508 168.9916L111.8324 112.572" fill="none" stroke="#aaa" stroke-opacity="0.5"></path><path d="M175.0499 31.4694L119.9508 168.9916" fill="none" stroke="#aaa" stroke-opacity="0.5"></path><path d="M287.8011 58.3636L111.8324 112.572" fill="none" stroke="#aaa" stroke-opacity="0.5"></path><path d="M133.9093 64.7507L223.2697 82.2041" fill="none" stroke="#aaa" stroke-opacity="0.5"></path><path d="M158.4632 207.5954L178.5481 136.539" fill="none" stroke="#aaa" stroke-opacity="0.5"></path><path d="M175.0499 31.4694L303.8673 170.8079" fill="none" stroke="#aaa" stroke-opacity="0.5"></path><path d="M208.4787 223.3038L310.4671 110.1816" fill="none" stroke="#aaa" stroke-opacity="0.5"></path><path d="M235.3672 24.5783L119.9508 168.9916" fill="none" stroke="#aaa" stroke-opacity="0.5"></path><path d="M287.8011 58.3636L235.3672 24.5783" fill="none" stroke="#aaa" stroke-opacity="0.5"></path><path d="M260.179 211.7783L111.8324 112.572" fill="none" stroke="#aaa" stroke-opacity="0.5"></path><path d="M223.2697 82.2041L248.5784 146.8643" fill="none" stroke="#aaa" stroke-opacity="0.5"></path><path d="M158.4632 207.5954L133.9093 64.7507" fill="none" stroke="#aaa" stroke-opacity="0.5"></path><path d="M133.9093 64.7507L260.179 211.7783" fill="none" stroke="#aaa" stroke-opacity="0.5"></path><path d="M178.5481 136.539L133.9093 64.7507" fill="none" stroke="#aaa" stroke-opacity="0.5"></path><path d="M133.9093 64.7507L248.5784 146.8643" fill="none" stroke="#aaa" stroke-opacity="0.5"></path><path d="M133.9093 64.7507L208.4787 223.3038" fill="none" stroke="#aaa" stroke-opacity="0.5"></path><path d="M287.8011 58.3636L303.8673 170.8079" fill="none" stroke="#aaa" stroke-opacity="0.5"></path><path d="M111.8324 112.572L310.4671 110.1816" fill="none" stroke="#aaa" stroke-opacity="0.5"></path><path d="M208.4787 223.3038L248.5784 146.8643" fill="none" stroke="#aaa" stroke-opacity="0.5"></path><path d="M158.4632 207.5954L223.2697 82.2041" fill="none" stroke="#aaa" stroke-opacity="0.5"></path><path d="M235.3672 24.5783L133.9093 64.7507" fill="none" stroke="#aaa" stroke-opacity="0.5"></path><path d="M175.0499 31.4694L223.2697 82.2041" fill="none" stroke="#aaa" stroke-opacity="0.5"></path><path d="M158.4632 207.5954L260.179 211.7783" fill="none" stroke="#aaa" stroke-opacity="0.5"></path><path d="M158.4632 207.5954L111.8324 112.572" fill="none" stroke="#aaa" stroke-opacity="0.5"></path><path d="M158.4632 207.5954L287.8011 58.3636" fill="none" stroke="#aaa" stroke-opacity="0.5"></path><path d="M235.3672 24.5783L223.2697 82.2041" fill="none" stroke="#aaa" stroke-opacity="0.5"></path><path d="M158.4632 207.5954L235.3672 24.5783" fill="none" stroke="#aaa" stroke-opacity="0.5"></path><path d="M111.8324 112.572L248.5784 146.8643" fill="none" stroke="#aaa" stroke-opacity="0.5"></path><path d="M303.8673 170.8079L310.4671 110.1816" fill="none" stroke="#aaa" stroke-opacity="0.5"></path><path d="M158.4632 207.5954L208.4787 223.3038" fill="none" stroke="#aaa" stroke-opacity="0.5"></path><path d="M178.5481 136.539L235.3672 24.5783" fill="none" stroke="#aaa" stroke-opacity="0.5"></path><path d="M303.8673 170.8079L223.2697 82.2041" fill="none" stroke="#aaa" stroke-opacity="0.5"></path><path d="M119.9508 168.9916L310.4671 110.1816" fill="none" stroke="#aaa" stroke-opacity="0.5"></path><path d="M175.0499 31.4694L260.179 211.7783" fill="none" stroke="#aaa" stroke-opacity="0.5"></path><path d="M175.0499 31.4694L111.8324 112.572" fill="none" stroke="#aaa" stroke-opacity="0.5"></path><path d="M287.8011 58.3636L310.4671 110.1816" fill="none" stroke="#aaa" stroke-opacity="0.5"></path><path d="M178.5481 136.539L248.5784 146.8643" fill="none" stroke="#aaa" stroke-opacity="0.5"></path><path d="M175.0499 31.4694L287.8011 58.3636" fill="none" stroke="#aaa" stroke-opacity="0.5"></path><path d="M235.3672 24.5783L260.179 211.7783" fill="none" stroke="#aaa" stroke-opacity="0.5"></path><path d="M235.3672 24.5783L111.8324 112.572" fill="none" stroke="#aaa" stroke-opacity="0.5"></path><path d="M260.179 211.7783L310.4671 110.1816" fill="none" stroke="#aaa" stroke-opacity="0.5"></path><path d="M287.8011 58.3636L223.2697 82.2041" fill="none" stroke="#aaa" stroke-opacity="0.5"></path><path d="M175.0499 31.4694L208.4787 223.3038" fill="none" stroke="#aaa" stroke-opacity="0.5"></path><path d="M235.3672 24.5783L208.4787 223.3038" fill="none" stroke="#aaa" stroke-opacity="0.5"></path><path d="M1 0A1 1 0 1 1 1 -0.0001" fill="#5470c6" transform="matrix(18.5,0,0,18.5,248.5784,146.8643)"></path><path d="M1 0A1 1 0 1 1 1 -0.0001" fill="#5470c6" transform="matrix(18.5,0,0,18.5,303.8673,170.8079)"></path><path d="M1 0A1 1 0 1 1 1 -0.0001" fill="#5470c6" transform="matrix(18.5,0,0,18.5,260.179,211.7783)"></path><path d="M1 0A1 1 0 1 1 1 -0.0001" fill="#5470c6" transform="matrix(18.5,0,0,18.5,208.4787,223.3038)"></path><path d="M1 0A1 1 0 1 1 1 -0.0001" fill="#5470c6" transform="matrix(18.5,0,0,18.5,158.4632,207.5954)"></path><path d="M1 0A1 1 0 1 1 1 -0.0001" fill="#5470c6" transform="matrix(18.5,0,0,18.5,119.9508,168.9916)"></path><path d="M1 0A1 1 0 1 1 1 -0.0001" fill="#5470c6" transform="matrix(18.5,0,0,18.5,111.8324,112.572)"></path><path d="M1 0A1 1 0 1 1 1 -0.0001" fill="#5470c6" transform="matrix(18.5,0,0,18.5,178.5481,136.539)"></path><path d="M1 0A1 1 0 1 1 1 -0.0001" fill="#5470c6" transform="matrix(18.5,0,0,18.5,133.9093,64.7507)"></path><path d="M1 0A1 1 0 1 1 1 -0.0001" fill="#5470c6" transform="matrix(18.5,0,0,18.5,175.0499,31.4694)"></path><path d="M1 0A1 1 0 1 1 1 -0.0001" fill="#5470c6" transform="matrix(18.5,0,0,18.5,235.3672,24.5783)"></path><path d="M1 0A1 1 0 1 1 1 -0.0001" fill="#5470c6" transform="matrix(18.5,0,0,18.5,223.2697,82.2041)"></path><path d="M1 0A1 1 0 1 1 1 -0.0001" fill="#5470c6" transform="matrix(18.5,0,0,18.5,287.8011,58.3636)"></path><path d="M1 0A1 1 0 1 1 1 -0.0001" fill="#5470c6" transform="matrix(18.5,0,0,18.5,310.4671,110.1816)"></path><path d="M-26.0964 -5l52.1929 0l0 33l-52.1929 0Z" fill="rgb(0,0,0)" fill-opacity="0" stroke="#ccc" stroke-width="0" transform="translate(237.5 5)"></path><text dominant-baseline="central" fill="#333" style="font-size:23px;font-family:sans-serif;font-weight:bolder;" text-anchor="middle" transform="translate(237.5 5)" y="11.5">C91</text></g></svg>