<svg baseprofile="full" height="250" style="position:absolute;left:0;top:0;user-select:none" version="1.1" width="475" xmlns="http://www.w3.org/2000/svg" xmlns:xlink="http://www.w3.org/1999/xlink"><rect fill="none" height="250" id="0" width="475" x="0" y="0"></rect><g><path d="M199.3654 222.2571L312.4305 122.5857" fill="none" stroke="#aaa" stroke-opacity="0.5"></path><path d="M293.7531 64.7141L114.251 156.9035" fill="none" stroke="#aaa" stroke-opacity="0.5"></path><path d="M149.1958 202.8302L293.7531 64.7141" fill="none" stroke="#aaa" stroke-opacity="0.5"></path><path d="M199.3654 222.2571L242.6847 125.3544" fill="none" stroke="#aaa" stroke-opacity="0.5"></path><path d="M146.5188 49.9115L114.251 156.9035" fill="none" stroke="#aaa" stroke-opacity="0.5"></path><path d="M196.0855 26.4233L242.6847 125.3544" fill="none" stroke="#aaa" stroke-opacity="0.5"></path><path d="M149.1958 202.8302L146.5188 49.9115" fill="none" stroke="#aaa" stroke-opacity="0.5"></path><path d="M180.9701 125.5565L196.0855 26.4233" fill="none" stroke="#aaa" stroke-opacity="0.5"></path><path d="M246.33 37.4432L196.0855 26.4233" fill="none" stroke="#aaa" stroke-opacity="0.5"></path><path d="M116.1527 96.283L196.0855 26.4233" fill="none" stroke="#aaa" stroke-opacity="0.5"></path><path d="M116.1527 96.283L180.9701 125.5565" fill="none" stroke="#aaa" stroke-opacity="0.5"></path><path d="M251.3202 214.005L196.0855 26.4233" fill="none" stroke="#aaa" stroke-opacity="0.5"></path><path d="M295.5786 180.7324L251.3202 214.005" fill="none" stroke="#aaa" stroke-opacity="0.5"></path><path d="M149.1958 202.8302L114.251 156.9035" fill="none" stroke="#aaa" stroke-opacity="0.5"></path><path d="M180.9701 125.5565L146.5188 49.9115" fill="none" stroke="#aaa" stroke-opacity="0.5"></path><path d="M295.5786 180.7324L196.0855 26.4233" fill="none" stroke="#aaa" stroke-opacity="0.5"></path><path d="M295.5786 180.7324L180.9701 125.5565" fill="none" stroke="#aaa" stroke-opacity="0.5"></path><path d="M116.1527 96.283L146.5188 49.9115" fill="none" stroke="#aaa" stroke-opacity="0.5"></path><path d="M312.4305 122.5857L196.0855 26.4233" fill="none" stroke="#aaa" stroke-opacity="0.5"></path><path d="M180.9701 125.5L242.6847 125.5" fill="none" stroke="#aaa" stroke-opacity="0.5"></path><path d="M312.4305 122.5857L180.9701 125.5565" fill="none" stroke="#aaa" stroke-opacity="0.5"></path><path d="M246.33 37.4432L242.6847 125.3544" fill="none" stroke="#aaa" stroke-opacity="0.5"></path><path d="M251.3202 214.005L146.5188 49.9115" fill="none" stroke="#aaa" stroke-opacity="0.5"></path><path d="M116.1527 96.283L242.6847 125.3544" fill="none" stroke="#aaa" stroke-opacity="0.5"></path><path d="M199.3654 222.2571L246.33 37.4432" fill="none" stroke="#aaa" stroke-opacity="0.5"></path><path d="M251.3202 214.005L242.6847 125.3544" fill="none" stroke="#aaa" stroke-opacity="0.5"></path><path d="M293.7531 64.7141L196.0855 26.4233" fill="none" stroke="#aaa" stroke-opacity="0.5"></path><path d="M146.5188 49.9115L196.0855 26.4233" fill="none" stroke="#aaa" stroke-opacity="0.5"></path><path d="M199.3654 222.2571L251.3202 214.005" fill="none" stroke="#aaa" stroke-opacity="0.5"></path><path d="M312.4305 122.5857L146.5188 49.9115" fill="none" stroke="#aaa" stroke-opacity="0.5"></path><path d="M295.5786 180.7324L312.4305 122.5857" fill="none" stroke="#aaa" stroke-opacity="0.5"></path><path d="M295.5786 180.7324L242.6847 125.3544" fill="none" stroke="#aaa" stroke-opacity="0.5"></path><path d="M149.1958 202.8302L251.3202 214.005" fill="none" stroke="#aaa" stroke-opacity="0.5"></path><path d="M312.4305 122.5857L242.6847 125.3544" fill="none" stroke="#aaa" stroke-opacity="0.5"></path><path d="M199.3654 222.2571L293.7531 64.7141" fill="none" stroke="#aaa" stroke-opacity="0.5"></path><path d="M149.1958 202.8302L196.0855 26.4233" fill="none" stroke="#aaa" stroke-opacity="0.5"></path><path d="M149.1958 202.8302L180.9701 125.5565" fill="none" stroke="#aaa" stroke-opacity="0.5"></path><path d="M199.3654 222.2571L146.5188 49.9115" fill="none" stroke="#aaa" stroke-opacity="0.5"></path><path d="M293.7531 64.7141L242.6847 125.3544" fill="none" stroke="#aaa" stroke-opacity="0.5"></path><path d="M146.5188 49.9115L242.6847 125.3544" fill="none" stroke="#aaa" stroke-opacity="0.5"></path><path d="M180.9701 125.5565L246.33 37.4432" fill="none" stroke="#aaa" stroke-opacity="0.5"></path><path d="M199.3654 222.2571L149.1958 202.8302" fill="none" stroke="#aaa" stroke-opacity="0.5"></path><path d="M116.1527 96.283L246.33 37.4432" fill="none" stroke="#aaa" stroke-opacity="0.5"></path><path d="M180.9701 125.5565L251.3202 214.005" fill="none" stroke="#aaa" stroke-opacity="0.5"></path><path d="M251.3202 214.005L246.33 37.4432" fill="none" stroke="#aaa" stroke-opacity="0.5"></path><path d="M116.1527 96.283L251.3202 214.005" fill="none" stroke="#aaa" stroke-opacity="0.5"></path><path d="M199.3654 222.2571L114.251 156.9035" fill="none" stroke="#aaa" stroke-opacity="0.5"></path><path d="M196.0855 26.4233L114.251 156.9035" fill="none" stroke="#aaa" stroke-opacity="0.5"></path><path d="M149.1958 202.8302L312.4305 122.5857" fill="none" stroke="#aaa" stroke-opacity="0.5"></path><path d="M149.1958 202.8302L242.6847 125.3544" fill="none" stroke="#aaa" stroke-opacity="0.5"></path><path d="M295.5786 180.7324L246.33 37.4432" fill="none" stroke="#aaa" stroke-opacity="0.5"></path><path d="M180.9701 125.5565L293.7531 64.7141" fill="none" stroke="#aaa" stroke-opacity="0.5"></path><path d="M246.33 37.4432L293.7531 64.7141" fill="none" stroke="#aaa" stroke-opacity="0.5"></path><path d="M116.1527 96.283L199.3654 222.2571" fill="none" stroke="#aaa" stroke-opacity="0.5"></path><path d="M114.251 156.9035L242.6847 125.3544" fill="none" stroke="#aaa" stroke-opacity="0.5"></path><path d="M312.4305 122.5857L246.33 37.4432" fill="none" stroke="#aaa" stroke-opacity="0.5"></path><path d="M116.1527 96.283L293.7531 64.7141" fill="none" stroke="#aaa" stroke-opacity="0.5"></path><path d="M251.3202 214.005L293.7531 64.7141" fill="none" stroke="#aaa" stroke-opacity="0.5"></path><path d="M312.4305 122.5857L251.3202 214.005" fill="none" stroke="#aaa" stroke-opacity="0.5"></path><path d="M295.5786 180.7324L116.1527 96.283" fill="none" stroke="#aaa" stroke-opacity="0.5"></path><path d="M146.5188 49.9115L246.33 37.4432" fill="none" stroke="#aaa" stroke-opacity="0.5"></path><path d="M116.1527 96.283L149.1958 202.8302" fill="none" stroke="#aaa" stroke-opacity="0.5"></path><path d="M295.5786 180.7324L199.3654 222.2571" fill="none" stroke="#aaa" stroke-opacity="0.5"></path><path d="M180.9701 125.5565L114.251 156.9035" fill="none" stroke="#aaa" stroke-opacity="0.5"></path><path d="M295.5786 180.7324L293.7531 64.7141" fill="none" stroke="#aaa" stroke-opacity="0.5"></path><path d="M116.1527 96.283L312.4305 122.5857" fill="none" stroke="#aaa" stroke-opacity="0.5"></path><path d="M246.33 37.4432L114.251 156.9035" fill="none" stroke="#aaa" stroke-opacity="0.5"></path><path d="M295.5786 180.7324L146.5188 49.9115" fill="none" stroke="#aaa" stroke-opacity="0.5"></path><path d="M312.4305 122.5857L293.7531 64.7141" fill="none" stroke="#aaa" stroke-opacity="0.5"></path><path d="M116.1527 96.283L114.251 156.9035" fill="none" stroke="#aaa" stroke-opacity="0.5"></path><path d="M251.3202 214.005L114.251 156.9035" fill="none" stroke="#aaa" stroke-opacity="0.5"></path><path d="M295.5786 180.7324L149.1958 202.8302" fill="none" stroke="#aaa" stroke-opacity="0.5"></path><path d="M199.3654 222.2571L196.0855 26.4233" fill="none" stroke="#aaa" stroke-opacity="0.5"></path><path d="M199.3654 222.2571L180.9701 125.5565" fill="none" stroke="#aaa" stroke-opacity="0.5"></path><path d="M149.1958 202.8302L246.33 37.4432" fill="none" stroke="#aaa" stroke-opacity="0.5"></path><path d="M146.5188 49.9115L293.7531 64.7141" fill="none" stroke="#aaa" stroke-opacity="0.5"></path><path d="M295.5786 180.7324L114.251 156.9035" fill="none" stroke="#aaa" stroke-opacity="0.5"></path><path d="M312.4305 122.5857L114.251 156.9035" fill="none" stroke="#aaa" stroke-opacity="0.5"></path><path d="M1 0A1 1 0 1 1 1 -0.0001" fill="#5470c6" transform="matrix(18.5,0,0,18.5,295.5786,180.7324)"></path><path d="M1 0A1 1 0 1 1 1 -0.0001" fill="#5470c6" transform="matrix(18.5,0,0,18.5,242.6847,125.3544)"></path><path d="M1 0A1 1 0 1 1 1 -0.0001" fill="#5470c6" transform="matrix(18.5,0,0,18.5,251.3202,214.005)"></path><path d="M1 0A1 1 0 1 1 1 -0.0001" fill="#5470c6" transform="matrix(18.5,0,0,18.5,199.3654,222.2571)"></path><path d="M1 0A1 1 0 1 1 1 -0.0001" fill="#5470c6" transform="matrix(18.5,0,0,18.5,149.1958,202.8302)"></path><path d="M1 0A1 1 0 1 1 1 -0.0001" fill="#5470c6" transform="matrix(18.5,0,0,18.5,114.251,156.9035)"></path><path d="M1 0A1 1 0 1 1 1 -0.0001" fill="#5470c6" transform="matrix(18.5,0,0,18.5,180.9701,125.5565)"></path><path d="M1 0A1 1 0 1 1 1 -0.0001" fill="#5470c6" transform="matrix(18.5,0,0,18.5,116.1527,96.283)"></path><path d="M1 0A1 1 0 1 1 1 -0.0001" fill="#5470c6" transform="matrix(18.5,0,0,18.5,146.5188,49.9115)"></path><path d="M1 0A1 1 0 1 1 1 -0.0001" fill="#5470c6" transform="matrix(18.5,0,0,18.5,196.0855,26.4233)"></path><path d="M1 0A1 1 0 1 1 1 -0.0001" fill="#5470c6" transform="matrix(18.5,0,0,18.5,246.33,37.4432)"></path><path d="M1 0A1 1 0 1 1 1 -0.0001" fill="#5470c6" transform="matrix(18.5,0,0,18.5,293.7531,64.7141)"></path><path d="M1 0A1 1 0 1 1 1 -0.0001" fill="#5470c6" transform="matrix(18.5,0,0,18.5,312.4305,122.5857)"></path><path d="M-26.0964 -5l52.1929 0l0 33l-52.1929 0Z" fill="rgb(0,0,0)" fill-opacity="0" stroke="#ccc" stroke-width="0" transform="translate(237.5 5)"></path><text dominant-baseline="central" fill="#333" style="font-size:23px;font-family:sans-serif;font-weight:bolder;" text-anchor="middle" transform="translate(237.5 5)" y="11.5">C92</text></g></svg>