<svg baseprofile="full" height="250" style="position:absolute;left:0;top:0;user-select:none" version="1.1" width="475" xmlns="http://www.w3.org/2000/svg" xmlns:xlink="http://www.w3.org/1999/xlink"><rect fill="none" height="250" id="0" width="475" x="0" y="0"></rect><g><path d="M145.1794 196.6054L150.9749 44.4002" fill="none" stroke="#aaa" stroke-opacity="0.5"></path><path d="M244.9456 219.1977L145.1794 196.6054" fill="none" stroke="#aaa" stroke-opacity="0.5"></path><path d="M294.4726 71.8589L242.2837 135.0068" fill="none" stroke="#aaa" stroke-opacity="0.5"></path><path d="M254.5824 36.1853L191.2528 221.2592" fill="none" stroke="#aaa" stroke-opacity="0.5"></path><path d="M115.0395 91.7895L313.9729 127.1606" fill="none" stroke="#aaa" stroke-opacity="0.5"></path><path d="M294.4726 71.8589L292.8416 184.9146" fill="none" stroke="#aaa" stroke-opacity="0.5"></path><path d="M294.4726 71.8589L183.3035 117.3422" fill="none" stroke="#aaa" stroke-opacity="0.5"></path><path d="M292.8416 184.9146L183.3035 117.3422" fill="none" stroke="#aaa" stroke-opacity="0.5"></path><path d="M115.0395 91.7895L145.1794 196.6054" fill="none" stroke="#aaa" stroke-opacity="0.5"></path><path d="M115.0395 91.7895L244.9456 219.1977" fill="none" stroke="#aaa" stroke-opacity="0.5"></path><path d="M191.2528 221.2592L145.1794 196.6054" fill="none" stroke="#aaa" stroke-opacity="0.5"></path><path d="M115.0395 91.7895L294.4726 71.8589" fill="none" stroke="#aaa" stroke-opacity="0.5"></path><path d="M191.2528 221.2592L150.9749 44.4002" fill="none" stroke="#aaa" stroke-opacity="0.5"></path><path d="M254.5824 36.1853L145.1794 196.6054" fill="none" stroke="#aaa" stroke-opacity="0.5"></path><path d="M242.2837 135.0068L292.8416 184.9146" fill="none" stroke="#aaa" stroke-opacity="0.5"></path><path d="M113.149 150.8508L183.3035 117.3422" fill="none" stroke="#aaa" stroke-opacity="0.5"></path><path d="M242.2837 135.0068L183.3035 117.3422" fill="none" stroke="#aaa" stroke-opacity="0.5"></path><path d="M254.5824 36.1853L294.4726 71.8589" fill="none" stroke="#aaa" stroke-opacity="0.5"></path><path d="M254.5824 36.1853L202.6385 28.429" fill="none" stroke="#aaa" stroke-opacity="0.5"></path><path d="M202.6385 28.429L191.2528 221.2592" fill="none" stroke="#aaa" stroke-opacity="0.5"></path><path d="M145.1794 196.6054L183.3035 117.3422" fill="none" stroke="#aaa" stroke-opacity="0.5"></path><path d="M150.9749 44.4002L183.3035 117.3422" fill="none" stroke="#aaa" stroke-opacity="0.5"></path><path d="M292.8416 184.9146L191.2528 221.2592" fill="none" stroke="#aaa" stroke-opacity="0.5"></path><path d="M202.6385 28.429L150.9749 44.4002" fill="none" stroke="#aaa" stroke-opacity="0.5"></path><path d="M294.4726 71.8589L145.1794 196.6054" fill="none" stroke="#aaa" stroke-opacity="0.5"></path><path d="M294.4726 71.8589L244.9456 219.1977" fill="none" stroke="#aaa" stroke-opacity="0.5"></path><path d="M113.149 150.8508L313.9729 127.1606" fill="none" stroke="#aaa" stroke-opacity="0.5"></path><path d="M292.8416 184.9146L150.9749 44.4002" fill="none" stroke="#aaa" stroke-opacity="0.5"></path><path d="M294.4726 71.8589L202.6385 28.429" fill="none" stroke="#aaa" stroke-opacity="0.5"></path><path d="M113.149 150.8508L145.1794 196.6054" fill="none" stroke="#aaa" stroke-opacity="0.5"></path><path d="M113.149 150.8508L244.9456 219.1977" fill="none" stroke="#aaa" stroke-opacity="0.5"></path><path d="M242.2837 135.0068L145.1794 196.6054" fill="none" stroke="#aaa" stroke-opacity="0.5"></path><path d="M292.8416 184.9146L202.6385 28.429" fill="none" stroke="#aaa" stroke-opacity="0.5"></path><path d="M244.9456 219.1977L191.2528 221.2592" fill="none" stroke="#aaa" stroke-opacity="0.5"></path><path d="M242.2837 135.0068L202.6385 28.429" fill="none" stroke="#aaa" stroke-opacity="0.5"></path><path d="M313.9729 127.1606L150.9749 44.4002" fill="none" stroke="#aaa" stroke-opacity="0.5"></path><path d="M115.0395 91.7895L113.149 150.8508" fill="none" stroke="#aaa" stroke-opacity="0.5"></path><path d="M254.5824 36.1853L113.149 150.8508" fill="none" stroke="#aaa" stroke-opacity="0.5"></path><path d="M244.9456 219.1977L150.9749 44.4002" fill="none" stroke="#aaa" stroke-opacity="0.5"></path><path d="M244.9456 219.1977L313.9729 127.1606" fill="none" stroke="#aaa" stroke-opacity="0.5"></path><path d="M115.0395 91.7895L191.2528 221.2592" fill="none" stroke="#aaa" stroke-opacity="0.5"></path><path d="M254.5824 36.1853L115.0395 91.7895" fill="none" stroke="#aaa" stroke-opacity="0.5"></path><path d="M115.0395 91.7895L150.9749 44.4002" fill="none" stroke="#aaa" stroke-opacity="0.5"></path><path d="M202.6385 28.429L183.3035 117.3422" fill="none" stroke="#aaa" stroke-opacity="0.5"></path><path d="M191.2528 221.2592L313.9729 127.1606" fill="none" stroke="#aaa" stroke-opacity="0.5"></path><path d="M254.5824 36.1853L150.9749 44.4002" fill="none" stroke="#aaa" stroke-opacity="0.5"></path><path d="M254.5824 36.1853L313.9729 127.1606" fill="none" stroke="#aaa" stroke-opacity="0.5"></path><path d="M115.0395 91.7895L202.6385 28.429" fill="none" stroke="#aaa" stroke-opacity="0.5"></path><path d="M254.5824 36.1853L244.9456 219.1977" fill="none" stroke="#aaa" stroke-opacity="0.5"></path><path d="M294.4726 71.8589L113.149 150.8508" fill="none" stroke="#aaa" stroke-opacity="0.5"></path><path d="M292.8416 184.9146L113.149 150.8508" fill="none" stroke="#aaa" stroke-opacity="0.5"></path><path d="M313.9729 127.1606L183.3035 117.3422" fill="none" stroke="#aaa" stroke-opacity="0.5"></path><path d="M242.2837 135.0068L113.149 150.8508" fill="none" stroke="#aaa" stroke-opacity="0.5"></path><path d="M294.4726 71.8589L191.2528 221.2592" fill="none" stroke="#aaa" stroke-opacity="0.5"></path><path d="M244.9456 219.1977L183.3035 117.3422" fill="none" stroke="#aaa" stroke-opacity="0.5"></path><path d="M113.149 150.8508L191.2528 221.2592" fill="none" stroke="#aaa" stroke-opacity="0.5"></path><path d="M242.2837 135.0068L191.2528 221.2592" fill="none" stroke="#aaa" stroke-opacity="0.5"></path><path d="M202.6385 28.429L313.9729 127.1606" fill="none" stroke="#aaa" stroke-opacity="0.5"></path><path d="M294.4726 71.8589L150.9749 44.4002" fill="none" stroke="#aaa" stroke-opacity="0.5"></path><path d="M294.4726 71.8589L313.9729 127.1606" fill="none" stroke="#aaa" stroke-opacity="0.5"></path><path d="M115.0395 91.7895L242.2837 135.0068" fill="none" stroke="#aaa" stroke-opacity="0.5"></path><path d="M292.8416 184.9146L313.9729 127.1606" fill="none" stroke="#aaa" stroke-opacity="0.5"></path><path d="M202.6385 28.429L145.1794 196.6054" fill="none" stroke="#aaa" stroke-opacity="0.5"></path><path d="M202.6385 28.429L244.9456 219.1977" fill="none" stroke="#aaa" stroke-opacity="0.5"></path><path d="M254.5824 36.1853L242.2837 135.0068" fill="none" stroke="#aaa" stroke-opacity="0.5"></path><path d="M113.149 150.8508L150.9749 44.4002" fill="none" stroke="#aaa" stroke-opacity="0.5"></path><path d="M242.2837 135.0068L150.9749 44.4002" fill="none" stroke="#aaa" stroke-opacity="0.5"></path><path d="M115.0395 91.7895L292.8416 184.9146" fill="none" stroke="#aaa" stroke-opacity="0.5"></path><path d="M292.8416 184.9146L145.1794 196.6054" fill="none" stroke="#aaa" stroke-opacity="0.5"></path><path d="M292.8416 184.9146L244.9456 219.1977" fill="none" stroke="#aaa" stroke-opacity="0.5"></path><path d="M242.2837 135.0068L313.9729 127.1606" fill="none" stroke="#aaa" stroke-opacity="0.5"></path><path d="M115.0395 91.7895L183.3035 117.3422" fill="none" stroke="#aaa" stroke-opacity="0.5"></path><path d="M191.2528 221.2592L183.3035 117.3422" fill="none" stroke="#aaa" stroke-opacity="0.5"></path><path d="M254.5824 36.1853L292.8416 184.9146" fill="none" stroke="#aaa" stroke-opacity="0.5"></path><path d="M254.5824 36.1853L183.3035 117.3422" fill="none" stroke="#aaa" stroke-opacity="0.5"></path><path d="M113.149 150.8508L202.6385 28.429" fill="none" stroke="#aaa" stroke-opacity="0.5"></path><path d="M242.2837 135.0068L244.9456 219.1977" fill="none" stroke="#aaa" stroke-opacity="0.5"></path><path d="M313.9729 127.1606L145.1794 196.6054" fill="none" stroke="#aaa" stroke-opacity="0.5"></path><path d="M1 0A1 1 0 1 1 1 -0.0001" fill="#5470c6" transform="matrix(18.5,0,0,18.5,313.9729,127.1606)"></path><path d="M1 0A1 1 0 1 1 1 -0.0001" fill="#5470c6" transform="matrix(18.5,0,0,18.5,292.8416,184.9146)"></path><path d="M1 0A1 1 0 1 1 1 -0.0001" fill="#5470c6" transform="matrix(18.5,0,0,18.5,244.9456,219.1977)"></path><path d="M1 0A1 1 0 1 1 1 -0.0001" fill="#5470c6" transform="matrix(18.5,0,0,18.5,191.2528,221.2592)"></path><path d="M1 0A1 1 0 1 1 1 -0.0001" fill="#5470c6" transform="matrix(18.5,0,0,18.5,145.1794,196.6054)"></path><path d="M1 0A1 1 0 1 1 1 -0.0001" fill="#5470c6" transform="matrix(18.5,0,0,18.5,113.149,150.8508)"></path><path d="M1 0A1 1 0 1 1 1 -0.0001" fill="#5470c6" transform="matrix(18.5,0,0,18.5,183.3035,117.3422)"></path><path d="M1 0A1 1 0 1 1 1 -0.0001" fill="#5470c6" transform="matrix(18.5,0,0,18.5,115.0395,91.7895)"></path><path d="M1 0A1 1 0 1 1 1 -0.0001" fill="#5470c6" transform="matrix(18.5,0,0,18.5,150.9749,44.4002)"></path><path d="M1 0A1 1 0 1 1 1 -0.0001" fill="#5470c6" transform="matrix(18.5,0,0,18.5,202.6385,28.429)"></path><path d="M1 0A1 1 0 1 1 1 -0.0001" fill="#5470c6" transform="matrix(18.5,0,0,18.5,254.5824,36.1853)"></path><path d="M1 0A1 1 0 1 1 1 -0.0001" fill="#5470c6" transform="matrix(18.5,0,0,18.5,294.4726,71.8589)"></path><path d="M1 0A1 1 0 1 1 1 -0.0001" fill="#5470c6" transform="matrix(18.5,0,0,18.5,242.2837,135.0068)"></path><path d="M-26.0964 -5l52.1929 0l0 33l-52.1929 0Z" fill="rgb(0,0,0)" fill-opacity="0" stroke="#ccc" stroke-width="0" transform="translate(237.5 5)"></path><text dominant-baseline="central" fill="#333" style="font-size:23px;font-family:sans-serif;font-weight:bolder;" text-anchor="middle" transform="translate(237.5 5)" y="11.5">C93</text></g></svg>