<svg baseprofile="full" height="250" style="position:absolute;left:0;top:0;user-select:none" version="1.1" width="475" xmlns="http://www.w3.org/2000/svg" xmlns:xlink="http://www.w3.org/1999/xlink"><rect fill="none" height="250" id="0" width="475" x="0" y="0"></rect><g><path d="M116.0074 181.8478L178.824 183.1782" fill="none" stroke="#aaa" stroke-opacity="0.5"></path><path d="M116.0074 181.8478L289.7549 193.4356" fill="none" stroke="#aaa" stroke-opacity="0.5"></path><path d="M112.6415 104.9096L178.824 183.1782" fill="none" stroke="#aaa" stroke-opacity="0.5"></path><path d="M112.6415 104.9096L289.7549 193.4356" fill="none" stroke="#aaa" stroke-opacity="0.5"></path><path d="M147.3825 46.3481L231.7917 115.8128" fill="none" stroke="#aaa" stroke-opacity="0.5"></path><path d="M116.0074 181.8478L283.7577 47.8471" fill="none" stroke="#aaa" stroke-opacity="0.5"></path><path d="M116.0074 181.8478L213.4389 22.527" fill="none" stroke="#aaa" stroke-opacity="0.5"></path><path d="M220.8947 233.8972L231.7917 115.8128" fill="none" stroke="#aaa" stroke-opacity="0.5"></path><path d="M112.6415 104.9096L283.7577 47.8471" fill="none" stroke="#aaa" stroke-opacity="0.5"></path><path d="M112.6415 104.9096L213.4389 22.527" fill="none" stroke="#aaa" stroke-opacity="0.5"></path><path d="M283.7577 47.8471L231.7917 115.8128" fill="none" stroke="#aaa" stroke-opacity="0.5"></path><path d="M316.7655 120.1967L231.7917 115.8128" fill="none" stroke="#aaa" stroke-opacity="0.5"></path><path d="M112.6415 104.9096L316.7655 120.1967" fill="none" stroke="#aaa" stroke-opacity="0.5"></path><path d="M178.824 183.1782L289.7549 193.4356" fill="none" stroke="#aaa" stroke-opacity="0.5"></path><path d="M116.0074 181.8478L147.3825 46.3481" fill="none" stroke="#aaa" stroke-opacity="0.5"></path><path d="M116.0074 181.8478L231.7917 115.8128" fill="none" stroke="#aaa" stroke-opacity="0.5"></path><path d="M147.3825 46.3481L178.824 183.1782" fill="none" stroke="#aaa" stroke-opacity="0.5"></path><path d="M147.3825 46.3481L289.7549 193.4356" fill="none" stroke="#aaa" stroke-opacity="0.5"></path><path d="M213.4389 22.527L231.7917 115.8128" fill="none" stroke="#aaa" stroke-opacity="0.5"></path><path d="M220.8947 233.8972L178.824 183.1782" fill="none" stroke="#aaa" stroke-opacity="0.5"></path><path d="M220.8947 233.8972L289.7549 193.4356" fill="none" stroke="#aaa" stroke-opacity="0.5"></path><path d="M147.3825 46.3481L283.7577 47.8471" fill="none" stroke="#aaa" stroke-opacity="0.5"></path><path d="M116.0074 181.8478L220.8947 233.8972" fill="none" stroke="#aaa" stroke-opacity="0.5"></path><path d="M283.7577 47.8471L178.824 183.1782" fill="none" stroke="#aaa" stroke-opacity="0.5"></path><path d="M112.6415 104.9096L220.8947 233.8972" fill="none" stroke="#aaa" stroke-opacity="0.5"></path><path d="M283.7577 47.8471L289.7549 193.4356" fill="none" stroke="#aaa" stroke-opacity="0.5"></path><path d="M116.0074 181.8478L112.6415 104.9096" fill="none" stroke="#aaa" stroke-opacity="0.5"></path><path d="M178.824 183.1782L231.7917 115.8128" fill="none" stroke="#aaa" stroke-opacity="0.5"></path><path d="M147.3825 46.3481L316.7655 120.1967" fill="none" stroke="#aaa" stroke-opacity="0.5"></path><path d="M231.7917 115.8128L289.7549 193.4356" fill="none" stroke="#aaa" stroke-opacity="0.5"></path><path d="M213.4389 22.527L178.824 183.1782" fill="none" stroke="#aaa" stroke-opacity="0.5"></path><path d="M213.4389 22.527L289.7549 193.4356" fill="none" stroke="#aaa" stroke-opacity="0.5"></path><path d="M283.7577 47.8471L316.7655 120.1967" fill="none" stroke="#aaa" stroke-opacity="0.5"></path><path d="M213.4389 22.527L283.7577 47.8471" fill="none" stroke="#aaa" stroke-opacity="0.5"></path><path d="M147.3825 46.3481L220.8947 233.8972" fill="none" stroke="#aaa" stroke-opacity="0.5"></path><path d="M116.0074 181.8478L316.7655 120.1967" fill="none" stroke="#aaa" stroke-opacity="0.5"></path><path d="M147.3825 46.3481L112.6415 104.9096" fill="none" stroke="#aaa" stroke-opacity="0.5"></path><path d="M213.4389 22.527L316.7655 120.1967" fill="none" stroke="#aaa" stroke-opacity="0.5"></path><path d="M112.6415 104.9096L231.7917 115.8128" fill="none" stroke="#aaa" stroke-opacity="0.5"></path><path d="M283.7577 47.8471L220.8947 233.8972" fill="none" stroke="#aaa" stroke-opacity="0.5"></path><path d="M147.3825 46.3481L213.4389 22.527" fill="none" stroke="#aaa" stroke-opacity="0.5"></path><path d="M316.7655 120.1967L220.8947 233.8972" fill="none" stroke="#aaa" stroke-opacity="0.5"></path><path d="M316.7655 120.1967L178.824 183.1782" fill="none" stroke="#aaa" stroke-opacity="0.5"></path><path d="M316.7655 120.1967L289.7549 193.4356" fill="none" stroke="#aaa" stroke-opacity="0.5"></path><path d="M213.4389 22.527L220.8947 233.8972" fill="none" stroke="#aaa" stroke-opacity="0.5"></path><path d="M1 0A1 1 0 1 1 1 -0.0001" fill="#5470c6" transform="matrix(19,0,0,19,231.7917,115.8128)"></path><path d="M1 0A1 1 0 1 1 1 -0.0001" fill="#5470c6" transform="matrix(19,0,0,19,289.7549,193.4356)"></path><path d="M1 0A1 1 0 1 1 1 -0.0001" fill="#5470c6" transform="matrix(19,0,0,19,220.8947,233.8972)"></path><path d="M1 0A1 1 0 1 1 1 -0.0001" fill="#5470c6" transform="matrix(19,0,0,19,178.824,183.1782)"></path><path d="M1 0A1 1 0 1 1 1 -0.0001" fill="#5470c6" transform="matrix(19,0,0,19,116.0074,181.8478)"></path><path d="M1 0A1 1 0 1 1 1 -0.0001" fill="#5470c6" transform="matrix(19,0,0,19,112.6415,104.9096)"></path><path d="M1 0A1 1 0 1 1 1 -0.0001" fill="#5470c6" transform="matrix(19,0,0,19,147.3825,46.3481)"></path><path d="M1 0A1 1 0 1 1 1 -0.0001" fill="#5470c6" transform="matrix(19,0,0,19,213.4389,22.527)"></path><path d="M1 0A1 1 0 1 1 1 -0.0001" fill="#5470c6" transform="matrix(19,0,0,19,283.7577,47.8471)"></path><path d="M1 0A1 1 0 1 1 1 -0.0001" fill="#5470c6" transform="matrix(19,0,0,19,316.7655,120.1967)"></path><path d="M-26.0964 -5l52.1929 0l0 33l-52.1929 0Z" fill="rgb(0,0,0)" fill-opacity="0" stroke="#ccc" stroke-width="0" transform="translate(237.5 5)"></path><text dominant-baseline="central" fill="#333" style="font-size:23px;font-family:sans-serif;font-weight:bolder;" text-anchor="middle" transform="translate(237.5 5)" y="11.5">C94</text></g></svg>