<svg baseprofile="full" height="250" style="position:absolute;left:0;top:0;user-select:none" version="1.1" width="475" xmlns="http://www.w3.org/2000/svg" xmlns:xlink="http://www.w3.org/1999/xlink"><rect fill="none" height="250" id="0" width="475" x="0" y="0"></rect><g><path d="M178.457 17.9728L169.9343 90.0075" fill="none" stroke="#aaa" stroke-opacity="0.5"></path><path d="M262.3438 213.2491L255.3963 39.4649" fill="none" stroke="#aaa" stroke-opacity="0.5"></path><path d="M262.3438 213.2491L300.5735 157.4517" fill="none" stroke="#aaa" stroke-opacity="0.5"></path><path d="M132.7056 185.2411L309.4836 87.2141" fill="none" stroke="#aaa" stroke-opacity="0.5"></path><path d="M178.457 17.9728L262.3438 213.2491" fill="none" stroke="#aaa" stroke-opacity="0.5"></path><path d="M300.5735 157.4517L99.9334 110.6633" fill="none" stroke="#aaa" stroke-opacity="0.5"></path><path d="M132.7056 185.2411L169.9343 90.0075" fill="none" stroke="#aaa" stroke-opacity="0.5"></path><path d="M309.4836 87.2141L99.9334 110.6633" fill="none" stroke="#aaa" stroke-opacity="0.5"></path><path d="M191.3055 223.7356L309.4836 87.2141" fill="none" stroke="#aaa" stroke-opacity="0.5"></path><path d="M132.7056 185.2411L191.3055 223.7356" fill="none" stroke="#aaa" stroke-opacity="0.5"></path><path d="M191.3055 223.7356L169.9343 90.0075" fill="none" stroke="#aaa" stroke-opacity="0.5"></path><path d="M132.7056 185.2411L178.457 17.9728" fill="none" stroke="#aaa" stroke-opacity="0.5"></path><path d="M309.4836 87.2141L169.9343 90.0075" fill="none" stroke="#aaa" stroke-opacity="0.5"></path><path d="M262.3438 213.2491L99.9334 110.6633" fill="none" stroke="#aaa" stroke-opacity="0.5"></path><path d="M309.4836 87.2141L262.3438 213.2491" fill="none" stroke="#aaa" stroke-opacity="0.5"></path><path d="M191.3055 223.7356L178.457 17.9728" fill="none" stroke="#aaa" stroke-opacity="0.5"></path><path d="M191.3055 223.7356L300.5735 157.4517" fill="none" stroke="#aaa" stroke-opacity="0.5"></path><path d="M262.3438 213.2491L169.9343 90.0075" fill="none" stroke="#aaa" stroke-opacity="0.5"></path><path d="M132.7056 185.2411L99.9334 110.6633" fill="none" stroke="#aaa" stroke-opacity="0.5"></path><path d="M178.457 17.9728L255.3963 39.4649" fill="none" stroke="#aaa" stroke-opacity="0.5"></path><path d="M169.9343 90.0075L255.3963 39.4649" fill="none" stroke="#aaa" stroke-opacity="0.5"></path><path d="M178.457 17.9728L300.5735 157.4517" fill="none" stroke="#aaa" stroke-opacity="0.5"></path><path d="M169.9343 90.0075L300.5735 157.4517" fill="none" stroke="#aaa" stroke-opacity="0.5"></path><path d="M191.3055 223.7356L99.9334 110.6633" fill="none" stroke="#aaa" stroke-opacity="0.5"></path><path d="M132.7056 185.2411L262.3438 213.2491" fill="none" stroke="#aaa" stroke-opacity="0.5"></path><path d="M255.3963 39.4649L99.9334 110.6633" fill="none" stroke="#aaa" stroke-opacity="0.5"></path><path d="M132.7056 185.2411L255.3963 39.4649" fill="none" stroke="#aaa" stroke-opacity="0.5"></path><path d="M132.7056 185.2411L300.5735 157.4517" fill="none" stroke="#aaa" stroke-opacity="0.5"></path><path d="M300.5735 157.4517L255.3963 39.4649" fill="none" stroke="#aaa" stroke-opacity="0.5"></path><path d="M191.3055 223.7356L262.3438 213.2491" fill="none" stroke="#aaa" stroke-opacity="0.5"></path><path d="M191.3055 223.7356L255.3963 39.4649" fill="none" stroke="#aaa" stroke-opacity="0.5"></path><path d="M309.4836 87.2141L255.3963 39.4649" fill="none" stroke="#aaa" stroke-opacity="0.5"></path><path d="M309.4836 87.2141L300.5735 157.4517" fill="none" stroke="#aaa" stroke-opacity="0.5"></path><path d="M178.457 17.9728L99.9334 110.6633" fill="none" stroke="#aaa" stroke-opacity="0.5"></path><path d="M169.9343 90.0075L99.9334 110.6633" fill="none" stroke="#aaa" stroke-opacity="0.5"></path><path d="M178.457 17.9728L309.4836 87.2141" fill="none" stroke="#aaa" stroke-opacity="0.5"></path><path d="M1 0A1 1 0 1 1 1 -0.0001" fill="#5470c6" transform="matrix(19,0,0,19,300.5735,157.4517)"></path><path d="M1 0A1 1 0 1 1 1 -0.0001" fill="#5470c6" transform="matrix(19,0,0,19,262.3438,213.2491)"></path><path d="M1 0A1 1 0 1 1 1 -0.0001" fill="#5470c6" transform="matrix(19,0,0,19,191.3055,223.7356)"></path><path d="M1 0A1 1 0 1 1 1 -0.0001" fill="#5470c6" transform="matrix(19,0,0,19,132.7056,185.2411)"></path><path d="M1 0A1 1 0 1 1 1 -0.0001" fill="#5470c6" transform="matrix(19,0,0,19,99.9334,110.6633)"></path><path d="M1 0A1 1 0 1 1 1 -0.0001" fill="#5470c6" transform="matrix(19,0,0,19,169.9343,90.0075)"></path><path d="M1 0A1 1 0 1 1 1 -0.0001" fill="#5470c6" transform="matrix(19,0,0,19,178.457,17.9728)"></path><path d="M1 0A1 1 0 1 1 1 -0.0001" fill="#5470c6" transform="matrix(19,0,0,19,255.3963,39.4649)"></path><path d="M1 0A1 1 0 1 1 1 -0.0001" fill="#5470c6" transform="matrix(19,0,0,19,309.4836,87.2141)"></path><path d="M-26.0964 -5l52.1929 0l0 33l-52.1929 0Z" fill="rgb(0,0,0)" fill-opacity="0" stroke="#ccc" stroke-width="0" transform="translate(237.5 5)"></path><text dominant-baseline="central" fill="#333" style="font-size:23px;font-family:sans-serif;font-weight:bolder;" text-anchor="middle" transform="translate(237.5 5)" y="11.5">C95</text></g></svg>