<svg baseprofile="full" height="250" style="position:absolute;left:0;top:0;user-select:none" version="1.1" width="475" xmlns="http://www.w3.org/2000/svg" xmlns:xlink="http://www.w3.org/1999/xlink"><rect fill="none" height="250" id="0" width="475" x="0" y="0"></rect><g><path d="M109.1231 110.8429L192.401 225.2881" fill="none" stroke="#aaa" stroke-opacity="0.5"></path><path d="M146.9716 41.6267L216.3175 115.7403" fill="none" stroke="#aaa" stroke-opacity="0.5"></path><path d="M226.7417 20.0258L146.9716 41.6267" fill="none" stroke="#aaa" stroke-opacity="0.5"></path><path d="M313.5142 147.4212L146.9716 41.6267" fill="none" stroke="#aaa" stroke-opacity="0.5"></path><path d="M226.7417 20.0258L216.3175 115.7403" fill="none" stroke="#aaa" stroke-opacity="0.5"></path><path d="M313.5142 147.4212L216.3175 115.7403" fill="none" stroke="#aaa" stroke-opacity="0.5"></path><path d="M267.9876 212.595L192.401 225.2881" fill="none" stroke="#aaa" stroke-opacity="0.5"></path><path d="M216.3175 115.7403L127.3401 186.2628" fill="none" stroke="#aaa" stroke-opacity="0.5"></path><path d="M299.736 65.1971L127.3401 186.2628" fill="none" stroke="#aaa" stroke-opacity="0.5"></path><path d="M192.401 225.2881L127.3401 186.2628" fill="none" stroke="#aaa" stroke-opacity="0.5"></path><path d="M216.3175 115.7403L192.401 225.2881" fill="none" stroke="#aaa" stroke-opacity="0.5"></path><path d="M146.9716 41.6267L127.3401 186.2628" fill="none" stroke="#aaa" stroke-opacity="0.5"></path><path d="M226.7417 20.0258L267.9876 212.595" fill="none" stroke="#aaa" stroke-opacity="0.5"></path><path d="M226.7417 20.0258L127.3401 186.2628" fill="none" stroke="#aaa" stroke-opacity="0.5"></path><path d="M109.1231 110.8429L146.9716 41.6267" fill="none" stroke="#aaa" stroke-opacity="0.5"></path><path d="M109.1231 110.8429L216.3175 115.7403" fill="none" stroke="#aaa" stroke-opacity="0.5"></path><path d="M109.1231 110.8429L313.5142 147.4212" fill="none" stroke="#aaa" stroke-opacity="0.5"></path><path d="M146.9716 41.6267L192.401 225.2881" fill="none" stroke="#aaa" stroke-opacity="0.5"></path><path d="M267.9876 212.595L146.9716 41.6267" fill="none" stroke="#aaa" stroke-opacity="0.5"></path><path d="M267.9876 212.595L216.3175 115.7403" fill="none" stroke="#aaa" stroke-opacity="0.5"></path><path d="M226.7417 20.0258L192.401 225.2881" fill="none" stroke="#aaa" stroke-opacity="0.5"></path><path d="M313.5142 147.4212L192.401 225.2881" fill="none" stroke="#aaa" stroke-opacity="0.5"></path><path d="M267.9876 212.595L313.5142 147.4212" fill="none" stroke="#aaa" stroke-opacity="0.5"></path><path d="M216.3175 115.7403L299.736 65.1971" fill="none" stroke="#aaa" stroke-opacity="0.5"></path><path d="M109.1231 110.8429L226.7417 20.0258" fill="none" stroke="#aaa" stroke-opacity="0.5"></path><path d="M226.7417 20.0258L313.5142 147.4212" fill="none" stroke="#aaa" stroke-opacity="0.5"></path><path d="M109.1231 110.8429L299.736 65.1971" fill="none" stroke="#aaa" stroke-opacity="0.5"></path><path d="M192.401 225.2881L299.736 65.1971" fill="none" stroke="#aaa" stroke-opacity="0.5"></path><path d="M109.1231 110.8429L267.9876 212.595" fill="none" stroke="#aaa" stroke-opacity="0.5"></path><path d="M109.1231 110.8429L127.3401 186.2628" fill="none" stroke="#aaa" stroke-opacity="0.5"></path><path d="M146.9716 41.6267L299.736 65.1971" fill="none" stroke="#aaa" stroke-opacity="0.5"></path><path d="M267.9876 212.595L299.736 65.1971" fill="none" stroke="#aaa" stroke-opacity="0.5"></path><path d="M226.7417 20.0258L299.736 65.1971" fill="none" stroke="#aaa" stroke-opacity="0.5"></path><path d="M313.5142 147.4212L299.736 65.1971" fill="none" stroke="#aaa" stroke-opacity="0.5"></path><path d="M267.9876 212.595L127.3401 186.2628" fill="none" stroke="#aaa" stroke-opacity="0.5"></path><path d="M313.5142 147.4212L127.3401 186.2628" fill="none" stroke="#aaa" stroke-opacity="0.5"></path><path d="M1 0A1 1 0 1 1 1 -0.0001" fill="#5470c6" transform="matrix(19,0,0,19,313.5142,147.4212)"></path><path d="M1 0A1 1 0 1 1 1 -0.0001" fill="#5470c6" transform="matrix(19,0,0,19,267.9876,212.595)"></path><path d="M1 0A1 1 0 1 1 1 -0.0001" fill="#5470c6" transform="matrix(19,0,0,19,192.401,225.2881)"></path><path d="M1 0A1 1 0 1 1 1 -0.0001" fill="#5470c6" transform="matrix(19,0,0,19,127.3401,186.2628)"></path><path d="M1 0A1 1 0 1 1 1 -0.0001" fill="#5470c6" transform="matrix(19,0,0,19,109.1231,110.8429)"></path><path d="M1 0A1 1 0 1 1 1 -0.0001" fill="#5470c6" transform="matrix(19,0,0,19,146.9716,41.6267)"></path><path d="M1 0A1 1 0 1 1 1 -0.0001" fill="#5470c6" transform="matrix(19,0,0,19,226.7417,20.0258)"></path><path d="M1 0A1 1 0 1 1 1 -0.0001" fill="#5470c6" transform="matrix(19,0,0,19,216.3175,115.7403)"></path><path d="M1 0A1 1 0 1 1 1 -0.0001" fill="#5470c6" transform="matrix(19,0,0,19,299.736,65.1971)"></path><path d="M-26.0964 -5l52.1929 0l0 33l-52.1929 0Z" fill="rgb(0,0,0)" fill-opacity="0" stroke="#ccc" stroke-width="0" transform="translate(237.5 5)"></path><text dominant-baseline="central" fill="#333" style="font-size:23px;font-family:sans-serif;font-weight:bolder;" text-anchor="middle" transform="translate(237.5 5)" y="11.5">C96</text></g></svg>