<svg baseprofile="full" height="250" style="position:absolute;left:0;top:0;user-select:none" version="1.1" width="475" xmlns="http://www.w3.org/2000/svg" xmlns:xlink="http://www.w3.org/1999/xlink"><rect fill="none" height="250" id="0" width="475" x="0" y="0"></rect><g><path d="M306.2307 159.0072L258.7024 211.0104" fill="none" stroke="#aaa" stroke-opacity="0.5"></path><path d="M248.8152 56.1226L258.7024 211.0104" fill="none" stroke="#aaa" stroke-opacity="0.5"></path><path d="M193.0632 17.0598L99.9251 140.8589" fill="none" stroke="#aaa" stroke-opacity="0.5"></path><path d="M306.2307 159.0072L169.9756 160.8535" fill="none" stroke="#aaa" stroke-opacity="0.5"></path><path d="M248.8152 56.1226L169.9756 160.8535" fill="none" stroke="#aaa" stroke-opacity="0.5"></path><path d="M248.8152 56.1226L310.0717 81.7541" fill="none" stroke="#aaa" stroke-opacity="0.5"></path><path d="M169.9756 160.8535L258.7024 211.0104" fill="none" stroke="#aaa" stroke-opacity="0.5"></path><path d="M248.8152 56.1226L179.8703 232.1252" fill="none" stroke="#aaa" stroke-opacity="0.5"></path><path d="M258.7024 211.0104L133.4787 66.2083" fill="none" stroke="#aaa" stroke-opacity="0.5"></path><path d="M310.0717 81.7541L179.8703 232.1252" fill="none" stroke="#aaa" stroke-opacity="0.5"></path><path d="M310.0717 81.7541L133.4787 66.2083" fill="none" stroke="#aaa" stroke-opacity="0.5"></path><path d="M169.9756 160.8535L310.0717 81.7541" fill="none" stroke="#aaa" stroke-opacity="0.5"></path><path d="M248.8152 56.1226L99.9251 140.8589" fill="none" stroke="#aaa" stroke-opacity="0.5"></path><path d="M99.9251 140.8589L310.0717 81.7541" fill="none" stroke="#aaa" stroke-opacity="0.5"></path><path d="M169.9756 160.8535L179.8703 232.1252" fill="none" stroke="#aaa" stroke-opacity="0.5"></path><path d="M99.9251 140.8589L179.8703 232.1252" fill="none" stroke="#aaa" stroke-opacity="0.5"></path><path d="M99.9251 140.8589L133.4787 66.2083" fill="none" stroke="#aaa" stroke-opacity="0.5"></path><path d="M193.0632 17.0598L133.4787 66.2083" fill="none" stroke="#aaa" stroke-opacity="0.5"></path><path d="M169.9756 160.8535L99.9251 140.8589" fill="none" stroke="#aaa" stroke-opacity="0.5"></path><path d="M248.8152 56.1226L193.0632 17.0598" fill="none" stroke="#aaa" stroke-opacity="0.5"></path><path d="M306.2307 159.0072L310.0717 81.7541" fill="none" stroke="#aaa" stroke-opacity="0.5"></path><path d="M306.2307 159.0072L179.8703 232.1252" fill="none" stroke="#aaa" stroke-opacity="0.5"></path><path d="M306.2307 159.0072L133.4787 66.2083" fill="none" stroke="#aaa" stroke-opacity="0.5"></path><path d="M258.7024 211.0104L310.0717 81.7541" fill="none" stroke="#aaa" stroke-opacity="0.5"></path><path d="M248.8152 56.1226L133.4787 66.2083" fill="none" stroke="#aaa" stroke-opacity="0.5"></path><path d="M169.9756 160.8535L193.0632 17.0598" fill="none" stroke="#aaa" stroke-opacity="0.5"></path><path d="M258.7024 211.0104L179.8703 232.1252" fill="none" stroke="#aaa" stroke-opacity="0.5"></path><path d="M306.2307 159.0072L99.9251 140.8589" fill="none" stroke="#aaa" stroke-opacity="0.5"></path><path d="M248.8152 56.1226L306.2307 159.0072" fill="none" stroke="#aaa" stroke-opacity="0.5"></path><path d="M193.0632 17.0598L258.7024 211.0104" fill="none" stroke="#aaa" stroke-opacity="0.5"></path><path d="M258.7024 211.0104L99.9251 140.8589" fill="none" stroke="#aaa" stroke-opacity="0.5"></path><path d="M169.9756 160.8535L133.4787 66.2083" fill="none" stroke="#aaa" stroke-opacity="0.5"></path><path d="M179.8703 232.1252L133.4787 66.2083" fill="none" stroke="#aaa" stroke-opacity="0.5"></path><path d="M193.0632 17.0598L310.0717 81.7541" fill="none" stroke="#aaa" stroke-opacity="0.5"></path><path d="M193.0632 17.0598L179.8703 232.1252" fill="none" stroke="#aaa" stroke-opacity="0.5"></path><path d="M306.2307 159.0072L193.0632 17.0598" fill="none" stroke="#aaa" stroke-opacity="0.5"></path><path d="M1 0A1 1 0 1 1 1 -0.0001" fill="#5470c6" transform="matrix(19,0,0,19,306.2307,159.0072)"></path><path d="M1 0A1 1 0 1 1 1 -0.0001" fill="#5470c6" transform="matrix(19,0,0,19,258.7024,211.0104)"></path><path d="M1 0A1 1 0 1 1 1 -0.0001" fill="#5470c6" transform="matrix(19,0,0,19,179.8703,232.1252)"></path><path d="M1 0A1 1 0 1 1 1 -0.0001" fill="#5470c6" transform="matrix(19,0,0,19,169.9756,160.8535)"></path><path d="M1 0A1 1 0 1 1 1 -0.0001" fill="#5470c6" transform="matrix(19,0,0,19,99.9251,140.8589)"></path><path d="M1 0A1 1 0 1 1 1 -0.0001" fill="#5470c6" transform="matrix(19,0,0,19,133.4787,66.2083)"></path><path d="M1 0A1 1 0 1 1 1 -0.0001" fill="#5470c6" transform="matrix(19,0,0,19,193.0632,17.0598)"></path><path d="M1 0A1 1 0 1 1 1 -0.0001" fill="#5470c6" transform="matrix(19,0,0,19,248.8152,56.1226)"></path><path d="M1 0A1 1 0 1 1 1 -0.0001" fill="#5470c6" transform="matrix(19,0,0,19,310.0717,81.7541)"></path><path d="M-26.0964 -5l52.1929 0l0 33l-52.1929 0Z" fill="rgb(0,0,0)" fill-opacity="0" stroke="#ccc" stroke-width="0" transform="translate(237.5 5)"></path><text dominant-baseline="central" fill="#333" style="font-size:23px;font-family:sans-serif;font-weight:bolder;" text-anchor="middle" transform="translate(237.5 5)" y="11.5">C97</text></g></svg>