<svg baseprofile="full" height="250" style="position:absolute;left:0;top:0;user-select:none" version="1.1" width="475" xmlns="http://www.w3.org/2000/svg" xmlns:xlink="http://www.w3.org/1999/xlink"><rect fill="none" height="250" id="0" width="475" x="0" y="0"></rect><g><path d="M304.4704 161.2961L252.3555 218.1426" fill="none" stroke="#aaa" stroke-opacity="0.5"></path><path d="M174.1733 219.0152L119.4818 165.6321" fill="none" stroke="#aaa" stroke-opacity="0.5"></path><path d="M116.3821 88.0002L170.1818 33.5011" fill="none" stroke="#aaa" stroke-opacity="0.5"></path><path d="M248.0369 30.0621L119.4818 165.6321" fill="none" stroke="#aaa" stroke-opacity="0.5"></path><path d="M304.4704 161.2961L303.9252 84.3506" fill="none" stroke="#aaa" stroke-opacity="0.5"></path><path d="M252.3555 218.1426L170.1818 33.5011" fill="none" stroke="#aaa" stroke-opacity="0.5"></path><path d="M303.9252 84.3506L170.1818 33.5011" fill="none" stroke="#aaa" stroke-opacity="0.5"></path><path d="M116.3821 88.0002L119.4818 165.6321" fill="none" stroke="#aaa" stroke-opacity="0.5"></path><path d="M170.1818 33.5011L119.4818 165.6321" fill="none" stroke="#aaa" stroke-opacity="0.5"></path><path d="M248.0369 30.0621L174.1733 219.0152" fill="none" stroke="#aaa" stroke-opacity="0.5"></path><path d="M248.0369 30.0621L116.3821 88.0002" fill="none" stroke="#aaa" stroke-opacity="0.5"></path><path d="M174.1733 219.0152L170.1818 33.5011" fill="none" stroke="#aaa" stroke-opacity="0.5"></path><path d="M174.1733 219.0152L252.3555 218.1426" fill="none" stroke="#aaa" stroke-opacity="0.5"></path><path d="M248.0369 30.0621L252.3555 218.1426" fill="none" stroke="#aaa" stroke-opacity="0.5"></path><path d="M252.3555 218.1426L116.3821 88.0002" fill="none" stroke="#aaa" stroke-opacity="0.5"></path><path d="M174.1733 219.0152L303.9252 84.3506" fill="none" stroke="#aaa" stroke-opacity="0.5"></path><path d="M304.4704 161.2961L170.1818 33.5011" fill="none" stroke="#aaa" stroke-opacity="0.5"></path><path d="M303.9252 84.3506L116.3821 88.0002" fill="none" stroke="#aaa" stroke-opacity="0.5"></path><path d="M248.0369 30.0621L303.9252 84.3506" fill="none" stroke="#aaa" stroke-opacity="0.5"></path><path d="M303.9252 84.3506L252.3555 218.1426" fill="none" stroke="#aaa" stroke-opacity="0.5"></path><path d="M304.4704 161.2961L119.4818 165.6321" fill="none" stroke="#aaa" stroke-opacity="0.5"></path><path d="M174.1733 219.0152L116.3821 88.0002" fill="none" stroke="#aaa" stroke-opacity="0.5"></path><path d="M252.3555 218.1426L119.4818 165.6321" fill="none" stroke="#aaa" stroke-opacity="0.5"></path><path d="M174.1733 219.0152L304.4704 161.2961" fill="none" stroke="#aaa" stroke-opacity="0.5"></path><path d="M303.9252 84.3506L119.4818 165.6321" fill="none" stroke="#aaa" stroke-opacity="0.5"></path><path d="M248.0369 30.0621L304.4704 161.2961" fill="none" stroke="#aaa" stroke-opacity="0.5"></path><path d="M304.4704 161.2961L116.3821 88.0002" fill="none" stroke="#aaa" stroke-opacity="0.5"></path><path d="M248.0369 30.0621L170.1818 33.5011" fill="none" stroke="#aaa" stroke-opacity="0.5"></path><path d="M1 0A1 1 0 1 1 1 -0.0001" fill="#5470c6" transform="matrix(19,0,0,19,304.4704,161.2961)"></path><path d="M1 0A1 1 0 1 1 1 -0.0001" fill="#5470c6" transform="matrix(19,0,0,19,252.3555,218.1426)"></path><path d="M1 0A1 1 0 1 1 1 -0.0001" fill="#5470c6" transform="matrix(19,0,0,19,174.1733,219.0152)"></path><path d="M1 0A1 1 0 1 1 1 -0.0001" fill="#5470c6" transform="matrix(19,0,0,19,119.4818,165.6321)"></path><path d="M1 0A1 1 0 1 1 1 -0.0001" fill="#5470c6" transform="matrix(19,0,0,19,116.3821,88.0002)"></path><path d="M1 0A1 1 0 1 1 1 -0.0001" fill="#5470c6" transform="matrix(19,0,0,19,170.1818,33.5011)"></path><path d="M1 0A1 1 0 1 1 1 -0.0001" fill="#5470c6" transform="matrix(19,0,0,19,248.0369,30.0621)"></path><path d="M1 0A1 1 0 1 1 1 -0.0001" fill="#5470c6" transform="matrix(19,0,0,19,303.9252,84.3506)"></path><path d="M-26.0964 -5l52.1929 0l0 33l-52.1929 0Z" fill="rgb(0,0,0)" fill-opacity="0" stroke="#ccc" stroke-width="0" transform="translate(237.5 5)"></path><text dominant-baseline="central" fill="#333" style="font-size:23px;font-family:sans-serif;font-weight:bolder;" text-anchor="middle" transform="translate(237.5 5)" y="11.5">C98</text></g></svg>