<svg baseprofile="full" height="250" style="position:absolute;left:0;top:0;user-select:none" version="1.1" width="475" xmlns="http://www.w3.org/2000/svg" xmlns:xlink="http://www.w3.org/1999/xlink"><rect fill="none" height="250" id="0" width="475" x="0" y="0"></rect><g><path d="M302.7038 164.7237L249.3443 220.2667" fill="none" stroke="#aaa" stroke-opacity="0.5"></path><path d="M171.7972 216.093L116.0636 163.5526" fill="none" stroke="#aaa" stroke-opacity="0.5"></path><path d="M302.7038 164.7237L171.7972 216.093" fill="none" stroke="#aaa" stroke-opacity="0.5"></path><path d="M173.7989 30.5761L250.548 32.6557" fill="none" stroke="#aaa" stroke-opacity="0.5"></path><path d="M250.548 32.6557L116.0636 163.5526" fill="none" stroke="#aaa" stroke-opacity="0.5"></path><path d="M173.7989 30.5761L249.3443 220.2667" fill="none" stroke="#aaa" stroke-opacity="0.5"></path><path d="M173.7989 30.5761L171.7972 216.093" fill="none" stroke="#aaa" stroke-opacity="0.5"></path><path d="M306.0781 86.9987L116.0636 163.5526" fill="none" stroke="#aaa" stroke-opacity="0.5"></path><path d="M118.673 85.1335L171.7972 216.093" fill="none" stroke="#aaa" stroke-opacity="0.5"></path><path d="M118.673 85.1335L173.7989 30.5761" fill="none" stroke="#aaa" stroke-opacity="0.5"></path><path d="M171.7972 216.093L250.548 32.6557" fill="none" stroke="#aaa" stroke-opacity="0.5"></path><path d="M249.3443 220.2667L171.7972 216.093" fill="none" stroke="#aaa" stroke-opacity="0.5"></path><path d="M173.7989 30.5761L306.0781 86.9987" fill="none" stroke="#aaa" stroke-opacity="0.5"></path><path d="M118.673 85.1335L306.0781 86.9987" fill="none" stroke="#aaa" stroke-opacity="0.5"></path><path d="M249.3443 220.2667L306.0781 86.9987" fill="none" stroke="#aaa" stroke-opacity="0.5"></path><path d="M173.7989 30.5761L302.7038 164.7237" fill="none" stroke="#aaa" stroke-opacity="0.5"></path><path d="M171.7972 216.093L306.0781 86.9987" fill="none" stroke="#aaa" stroke-opacity="0.5"></path><path d="M118.673 85.1335L302.7038 164.7237" fill="none" stroke="#aaa" stroke-opacity="0.5"></path><path d="M250.548 32.6557L306.0781 86.9987" fill="none" stroke="#aaa" stroke-opacity="0.5"></path><path d="M118.673 85.1335L250.548 32.6557" fill="none" stroke="#aaa" stroke-opacity="0.5"></path><path d="M302.7038 164.7237L306.0781 86.9987" fill="none" stroke="#aaa" stroke-opacity="0.5"></path><path d="M249.3443 220.2667L250.548 32.6557" fill="none" stroke="#aaa" stroke-opacity="0.5"></path><path d="M118.673 85.1335L249.3443 220.2667" fill="none" stroke="#aaa" stroke-opacity="0.5"></path><path d="M302.7038 164.7237L116.0636 163.5526" fill="none" stroke="#aaa" stroke-opacity="0.5"></path><path d="M173.7989 30.5761L116.0636 163.5526" fill="none" stroke="#aaa" stroke-opacity="0.5"></path><path d="M118.673 85.1335L116.0636 163.5526" fill="none" stroke="#aaa" stroke-opacity="0.5"></path><path d="M302.7038 164.7237L250.548 32.6557" fill="none" stroke="#aaa" stroke-opacity="0.5"></path><path d="M249.3443 220.2667L116.0636 163.5526" fill="none" stroke="#aaa" stroke-opacity="0.5"></path><path d="M1 0A1 1 0 1 1 1 -0.0001" fill="#5470c6" transform="matrix(19,0,0,19,302.7038,164.7237)"></path><path d="M1 0A1 1 0 1 1 1 -0.0001" fill="#5470c6" transform="matrix(19,0,0,19,249.3443,220.2667)"></path><path d="M1 0A1 1 0 1 1 1 -0.0001" fill="#5470c6" transform="matrix(19,0,0,19,171.7972,216.093)"></path><path d="M1 0A1 1 0 1 1 1 -0.0001" fill="#5470c6" transform="matrix(19,0,0,19,116.0636,163.5526)"></path><path d="M1 0A1 1 0 1 1 1 -0.0001" fill="#5470c6" transform="matrix(19,0,0,19,118.673,85.1335)"></path><path d="M1 0A1 1 0 1 1 1 -0.0001" fill="#5470c6" transform="matrix(19,0,0,19,173.7989,30.5761)"></path><path d="M1 0A1 1 0 1 1 1 -0.0001" fill="#5470c6" transform="matrix(19,0,0,19,250.548,32.6557)"></path><path d="M1 0A1 1 0 1 1 1 -0.0001" fill="#5470c6" transform="matrix(19,0,0,19,306.0781,86.9987)"></path><path d="M-26.0964 -5l52.1929 0l0 33l-52.1929 0Z" fill="rgb(0,0,0)" fill-opacity="0" stroke="#ccc" stroke-width="0" transform="translate(237.5 5)"></path><text dominant-baseline="central" fill="#333" style="font-size:23px;font-family:sans-serif;font-weight:bolder;" text-anchor="middle" transform="translate(237.5 5)" y="11.5">C99</text></g></svg>